<svg width="270" height="68" viewBox="0 0 270 68" fill="none" xmlns="http://www.w3.org/2000/svg">
<path d="M3.144 21.816C4.52 22.776 5.96 23.384 7.688 23.384C10.984 23.384 12.552 20.664 13.512 18.232L20.52 0.279999H16.2L12.552 10.456C12.04 11.928 11.624 13.432 11.624 13.432H11.56C11.56 13.432 11.016 11.928 10.28 10.424L5.448 0.279999H0.904L9.8 17.848C9.32 19.096 8.68 19.832 7.528 19.832C6.472 19.832 5.544 19.16 4.968 18.712L3.144 21.816ZM20.3848 23H24.8328L28.5768 16.44H30.6248V23H34.4328V16.44H36.4808L40.2248 23H44.7048L39.7128 14.616V14.552L44.2568 6.68H40.0328L36.4167 13.016H34.4328V6.68H30.6248V13.016H28.6408L25.0248 6.68H20.8008L25.3768 14.552V14.616L20.3848 23ZM45.7778 14.84C45.7778 19.48 49.1698 23.384 54.5778 23.384C56.9138 23.384 59.4738 22.52 61.1378 21.048L59.5378 18.136C58.2258 19.192 56.5298 19.928 54.8658 19.928C52.4018 19.928 50.2258 18.456 49.9698 15.608H61.2018C61.2658 15.096 61.3298 14.552 61.3298 14.04C61.3298 9.72 58.7698 6.296 54.0978 6.296C49.2018 6.296 45.7778 9.816 45.7778 14.84ZM50.0658 12.824C50.4498 10.744 51.9218 9.368 54.0017 9.368C55.8258 9.368 57.2338 10.648 57.2658 12.824H50.0658ZM71.0113 23H75.5233L78.3393 18.264C78.5633 17.912 78.7873 17.4 78.7873 17.4H78.8513C78.8513 17.4 79.1073 17.912 79.3313 18.264L82.1473 23H86.6912L81.2833 14.744L86.5312 6.68H81.9233L79.3953 11.128C79.1713 11.544 78.8513 12.152 78.8513 12.152H78.7873C78.7873 12.152 78.4993 11.544 78.2753 11.128L75.7473 6.68H71.1393L76.3873 14.744L71.0113 23ZM87.7465 14.84C87.7465 19.864 91.7465 23.384 96.7065 23.384C101.667 23.384 105.667 19.864 105.667 14.84C105.667 9.848 101.667 6.296 96.6745 6.296C91.7465 6.296 87.7465 9.848 87.7465 14.84ZM91.8745 14.84C91.8745 11.832 94.0505 9.752 96.7065 9.752C99.3625 9.752 101.571 11.832 101.571 14.84C101.571 17.88 99.3625 19.928 96.7065 19.928C94.0505 19.928 91.8745 17.88 91.8745 14.84ZM113.564 17.592C115.324 17.592 116.988 17.08 117.98 16.536H118.044C118.044 16.536 118.012 17.016 118.012 17.432V23H122.044V6.68H118.012V13.176C117.372 13.624 116.252 14.2 114.844 14.2C112.7 14.2 112.06 13.016 112.06 11.48V6.68H108.06V12.152C108.06 15.96 110.428 17.592 113.564 17.592ZM126.01 25.624L124.666 28.664C124.666 28.664 126.106 29.72 128.058 29.72C130.458 29.72 132.826 28.44 133.946 25.464L141.21 6.68H136.794L133.594 16.152C133.338 17.016 133.05 18.296 133.05 18.296H132.986C132.986 18.296 132.698 16.952 132.378 16.088L128.954 6.68H124.378L131.258 22.744L130.65 24.184C130.042 25.624 128.922 26.296 127.802 26.296C126.906 26.296 126.01 25.624 126.01 25.624ZM3.176 61H7.24V54.408H14.216V61H18.28V44.68H14.216V50.984H7.24V44.68H3.176V61ZM21.3968 56.488C21.3968 59.464 23.8288 61.384 26.7728 61.384C28.9808 61.384 30.9328 60.168 31.9248 58.44H31.9888C31.9888 58.44 31.8928 58.952 31.8928 59.624V61H35.6688V50.792C35.6688 46.664 33.1408 44.296 28.8848 44.296C26.4528 44.296 23.8288 45.224 22.4848 46.312L23.9888 49.224C25.3008 48.328 26.9328 47.656 28.5328 47.656C30.2288 47.656 31.6048 48.392 31.6048 50.536V50.76H30.9008C27.2848 50.76 21.3968 51.592 21.3968 56.488ZM25.4288 56.136C25.4288 53.832 28.8848 53.544 30.9328 53.544H31.6368V53.992C31.6368 55.976 30.1648 58.28 27.8928 58.28C26.2608 58.28 25.4288 57.224 25.4288 56.136ZM47.801 61H51.865V48.136H58.617V61H62.681V44.68H47.801V61ZM67.0198 67.4H71.0838V60.488C71.0838 59.656 70.9878 59.08 70.9878 59.08H71.0518C72.2038 60.552 73.8998 61.384 75.7558 61.384C80.0438 61.384 83.2118 58.024 83.2118 52.84C83.2118 47.784 80.3958 44.296 75.9798 44.296C73.7718 44.296 71.7878 45.288 70.7318 47.048H70.6678C70.6678 47.048 70.7318 46.504 70.7318 45.896V44.68H67.0198V67.4ZM70.9558 52.936C70.9558 49.32 72.9398 47.784 75.0838 47.784C77.4518 47.784 79.1158 49.8 79.1158 52.904C79.1158 56.136 77.2598 57.96 75.0198 57.96C72.3638 57.96 70.9558 55.464 70.9558 52.936ZM85.684 52.84C85.684 57.864 89.684 61.384 94.644 61.384C99.604 61.384 103.604 57.864 103.604 52.84C103.604 47.848 99.604 44.296 94.612 44.296C89.684 44.296 85.684 47.848 85.684 52.84ZM89.812 52.84C89.812 49.832 91.988 47.752 94.644 47.752C97.3 47.752 99.508 49.832 99.508 52.84C99.508 55.88 97.3 57.928 94.644 57.928C91.988 57.928 89.812 55.88 89.812 52.84ZM106.253 51.464C106.253 57.256 108.909 61.384 114.573 61.384C119.405 61.384 122.573 58.088 122.573 53.576C122.573 49.064 119.789 46.088 115.597 46.088C113.709 46.088 111.661 46.664 110.221 48.456H110.157C110.317 45.64 112.141 44.136 114.925 42.984L121.133 40.616L119.917 37.32L114.285 39.528C108.333 41.832 106.253 45.32 106.253 51.464ZM110.381 53.608C110.381 51.048 112.141 49.224 114.477 49.224C116.653 49.224 118.477 50.888 118.477 53.64C118.477 56.392 116.653 58.024 114.413 58.024C112.205 58.024 110.381 56.392 110.381 53.608ZM126.02 61H130.084V54.408H137.06V61H141.124V44.68H137.06V50.984H130.084V44.68H126.02V61ZM160.849 61H164.913V44.68H160.849V61ZM145.489 61H152.433C156.721 61 158.609 58.856 158.609 55.688C158.609 52.136 156.305 50.28 152.465 50.28H149.553V44.68H145.489V61ZM149.553 58.216V53.032H151.729C153.649 53.032 154.513 54.152 154.513 55.656C154.513 57.128 153.649 58.216 151.793 58.216H149.553ZM176.79 43.112C179.574 43.112 182.038 41.512 182.038 38.696V38.28H178.966V38.664C178.966 40.072 177.846 40.712 176.79 40.712C175.734 40.712 174.646 40.072 174.646 38.696V38.28H171.542V38.696C171.542 41.512 174.006 43.112 176.79 43.112ZM169.27 61H173.206L179.254 52.296C179.67 51.656 180.278 50.792 180.47 50.344H180.534C180.502 50.76 180.438 51.688 180.438 52.296V61H184.31V44.68H180.374L174.326 53.416C173.91 54.056 173.302 54.952 173.11 55.368H173.046C173.078 55.112 173.142 54.152 173.142 53.416V44.68H169.27V61ZM196.26 63.624L194.916 66.664C194.916 66.664 196.356 67.72 198.308 67.72C200.708 67.72 203.076 66.44 204.196 63.464L211.46 44.68H207.044L203.844 54.152C203.588 55.016 203.3 56.296 203.3 56.296H203.236C203.236 56.296 202.948 54.952 202.628 54.088L199.204 44.68H194.628L201.508 60.744L200.9 62.184C200.292 63.624 199.172 64.296 198.052 64.296C197.156 64.296 196.26 63.624 196.26 63.624ZM214.114 67.4H218.178V60.488C218.178 59.656 218.082 59.08 218.082 59.08H218.146C219.298 60.552 220.994 61.384 222.85 61.384C227.138 61.384 230.306 58.024 230.306 52.84C230.306 47.784 227.49 44.296 223.074 44.296C220.866 44.296 218.882 45.288 217.826 47.048H217.762C217.762 47.048 217.826 46.504 217.826 45.896V44.68H214.114V67.4ZM218.05 52.936C218.05 49.32 220.034 47.784 222.178 47.784C224.546 47.784 226.21 49.8 226.21 52.904C226.21 56.136 224.354 57.96 222.114 57.96C219.458 57.96 218.05 55.464 218.05 52.936ZM232.778 52.84C232.778 57.864 236.778 61.384 241.738 61.384C246.698 61.384 250.698 57.864 250.698 52.84C250.698 47.848 246.698 44.296 241.706 44.296C236.778 44.296 232.778 47.848 232.778 52.84ZM236.906 52.84C236.906 49.832 239.082 47.752 241.738 47.752C244.394 47.752 246.602 49.832 246.602 52.84C246.602 55.88 244.394 57.928 241.738 57.928C239.082 57.928 236.906 55.88 236.906 52.84ZM254.051 61H258.115V54.376H260.227L264.515 61H269.219L263.395 52.52V52.456L268.579 44.68H264.067L260.099 50.92H258.115V44.68H254.051V61Z" fill="#222224"/>
</svg>
