<svg width="969" height="298" viewBox="0 0 969 298" fill="none" xmlns="http://www.w3.org/2000/svg">
<path d="M570.332 86.076C570.332 93.708 575.552 99.432 583.832 99.432C588.548 99.432 591.932 97.452 594.2 95.112L590.96 90.504C589.196 92.268 586.676 93.672 584.12 93.672C579.152 93.672 576.848 89.748 576.848 85.932C576.848 82.224 578.972 78.588 584.12 78.588C586.424 78.588 588.908 79.776 590.564 81.216L593.48 76.464C590.96 73.98 587.288 72.828 583.832 72.828C575.876 72.828 570.332 78.588 570.332 86.076ZM596.787 99H603.015V90.648C603.015 87.804 604.347 85.68 607.047 85.68C608.415 85.68 609.099 86.4 609.099 88.128V99H615.327V86.976C615.327 81.756 612.411 80.028 608.667 80.028C606.219 80.028 604.059 81.144 603.015 82.98H602.943C602.943 82.98 603.015 82.332 603.015 81.396V73.26H596.787V99ZM618.278 89.712C618.278 94.644 621.842 99.432 628.466 99.432C631.31 99.432 634.37 98.46 636.386 96.732L634.082 92.376C632.57 93.384 630.806 94.248 628.97 94.248C626.99 94.248 625.118 93.204 624.65 90.936H636.35C636.422 90.288 636.494 89.64 636.494 88.992C636.494 83.844 633.398 80.028 627.926 80.028C621.95 80.028 618.278 84.276 618.278 89.712ZM624.794 87.372C625.118 85.896 625.982 84.6 627.782 84.6C629.366 84.6 630.338 85.86 630.338 87.372H624.794ZM639.748 99H645.976V91.152C645.976 88.596 646.696 85.68 649.54 85.68C650.728 85.68 650.98 86.652 650.98 88.02V99H657.208V91.152C657.208 88.38 658.072 85.68 660.772 85.68C661.96 85.68 662.212 86.652 662.212 88.02V99H668.44V86.976C668.44 81.864 665.812 80.028 662.428 80.028C659.656 80.028 657.46 81.612 656.488 83.16H656.416C655.444 81.072 653.572 80.028 651.232 80.028C648.316 80.028 646.588 81.936 645.724 83.232H645.652C645.652 83.232 645.724 82.692 645.724 82.08V80.46H639.748V99ZM672.551 78.12H678.635V73.26H672.551V78.12ZM672.479 99H678.707V80.46H672.479V99ZM681.481 96.696C683.533 98.532 686.377 99.432 689.041 99.432C693.793 99.432 696.673 96.804 696.673 93.348C696.673 87.336 687.997 87.804 687.997 85.86C687.997 85.356 688.393 84.96 689.725 84.96C691.309 84.96 693.325 85.608 694.405 86.472L696.529 82.152C694.657 80.64 692.281 80.028 689.905 80.028C685.621 80.028 682.201 82.08 682.201 85.896C682.201 91.98 690.877 91.548 690.877 93.528C690.877 94.104 690.445 94.5 689.185 94.5C687.421 94.5 685.513 93.78 684.145 92.628L681.481 96.696ZM700.91 92.16C700.91 98.388 706.634 99.18 709.586 99.18C710.306 99.18 710.81 99.108 711.278 99.072V93.672C710.882 93.708 710.666 93.708 710.45 93.708C709.262 93.708 707.138 93.42 707.138 91.332V85.644H711.026V80.784H707.138V75.456H701.09V80.784H698.534V85.644H700.91V92.16ZM714.631 99H720.859V91.8C720.859 88.416 722.515 86.22 725.971 86.22C726.403 86.22 727.015 86.256 727.231 86.328V80.208C727.015 80.172 726.763 80.136 726.511 80.136C723.739 80.136 721.399 82.224 720.607 84.744H720.535C720.535 84.744 720.607 84.204 720.607 83.592V80.46H714.631V99ZM730.139 100.692L728.159 105.264C728.159 105.264 730.031 106.56 732.479 106.56C735.431 106.56 738.671 105.12 740.219 100.98L747.815 80.46H741.011L738.671 89.1C738.419 90.108 738.059 91.872 738.059 91.872H737.987C737.987 91.872 737.627 90 737.303 88.992L734.567 80.46H727.511L735.395 98.64L735.035 99.504C734.387 101.088 733.055 101.376 732.047 101.376C731.147 101.376 730.139 100.692 730.139 100.692ZM572.42 141H578.648V127.644H582.068V122.784H578.648V122.208C578.648 120.624 580.556 120.408 581.78 120.408C582.248 120.408 582.644 120.444 582.788 120.48V115.224C582.14 115.116 581.564 115.116 580.916 115.116C577.928 115.116 572.42 115.944 572.42 122.028V122.784H570.152V127.644H572.42V141ZM583.544 131.784C583.544 137.58 588.224 141.432 594.056 141.432C599.888 141.432 604.568 137.58 604.568 131.784C604.568 125.952 599.888 122.028 594.02 122.028C588.224 122.028 583.544 125.952 583.544 131.784ZM589.844 131.784C589.844 128.976 591.788 127.212 594.056 127.212C596.324 127.212 598.268 128.976 598.268 131.784C598.268 134.556 596.324 136.248 594.056 136.248C591.788 136.248 589.844 134.556 589.844 131.784ZM607.686 141H613.914V133.8C613.914 130.416 615.57 128.22 619.026 128.22C619.458 128.22 620.07 128.256 620.286 128.328V122.208C620.07 122.172 619.818 122.136 619.566 122.136C616.794 122.136 614.454 124.224 613.662 126.744H613.59C613.59 126.744 613.662 126.204 613.662 125.592V122.46H607.686V141ZM631.311 141H637.035V140.28C637.035 139.704 636.999 139.236 636.999 139.236H637.071C638.331 140.748 640.383 141.432 642.255 141.432C647.187 141.432 650.895 137.616 650.895 131.748C650.895 125.988 647.583 122.028 642.543 122.028C640.671 122.028 638.619 122.784 637.539 124.008H637.467C637.467 124.008 637.539 123.36 637.539 122.424V115.26H631.311V141ZM637.359 131.856C637.359 128.652 639.123 127.284 640.995 127.284C643.155 127.284 644.631 129.084 644.631 131.856C644.631 134.7 642.939 136.284 640.995 136.284C638.547 136.284 637.359 134.088 637.359 131.856ZM653.912 134.484C653.912 139.704 656.828 141.432 660.5 141.432C662.984 141.432 665.288 140.208 666.296 138.228H666.368C666.368 138.228 666.296 138.768 666.296 139.38V141H672.272V122.46H666.044V130.668C666.044 133.44 664.784 135.78 662.12 135.78C660.824 135.78 660.14 135.06 660.14 133.332V122.46H653.912V134.484ZM675.047 138.696C677.099 140.532 679.943 141.432 682.607 141.432C687.359 141.432 690.239 138.804 690.239 135.348C690.239 129.336 681.563 129.804 681.563 127.86C681.563 127.356 681.959 126.96 683.291 126.96C684.875 126.96 686.891 127.608 687.971 128.472L690.095 124.152C688.223 122.64 685.847 122.028 683.471 122.028C679.187 122.028 675.767 124.08 675.767 127.896C675.767 133.98 684.443 133.548 684.443 135.528C684.443 136.104 684.011 136.5 682.751 136.5C680.987 136.5 679.079 135.78 677.711 134.628L675.047 138.696ZM693.469 120.12H699.553V115.26H693.469V120.12ZM693.397 141H699.625V122.46H693.397V141ZM703.803 141H710.031V132.612C710.031 129.984 711.291 127.68 714.063 127.68C715.431 127.68 716.115 128.4 716.115 130.128V141H722.343V128.976C722.343 123.756 719.427 122.028 715.683 122.028C712.407 122.028 710.643 123.792 709.779 125.232H709.707C709.707 125.232 709.779 124.692 709.779 124.08V122.46H703.803V141ZM725.294 131.712C725.294 136.644 728.858 141.432 735.482 141.432C738.326 141.432 741.386 140.46 743.402 138.732L741.098 134.376C739.586 135.384 737.822 136.248 735.986 136.248C734.006 136.248 732.134 135.204 731.666 132.936H743.366C743.438 132.288 743.51 131.64 743.51 130.992C743.51 125.844 740.414 122.028 734.942 122.028C728.966 122.028 725.294 126.276 725.294 131.712ZM731.81 129.372C732.134 127.896 732.998 126.6 734.798 126.6C736.382 126.6 737.354 127.86 737.354 129.372H731.81ZM745.36 138.696C747.412 140.532 750.256 141.432 752.92 141.432C757.672 141.432 760.552 138.804 760.552 135.348C760.552 129.336 751.876 129.804 751.876 127.86C751.876 127.356 752.272 126.96 753.604 126.96C755.188 126.96 757.204 127.608 758.284 128.472L760.408 124.152C758.536 122.64 756.16 122.028 753.784 122.028C749.5 122.028 746.08 124.08 746.08 127.896C746.08 133.98 754.756 133.548 754.756 135.528C754.756 136.104 754.324 136.5 753.064 136.5C751.3 136.5 749.392 135.78 748.024 134.628L745.36 138.696ZM762.305 138.696C764.357 140.532 767.201 141.432 769.865 141.432C774.617 141.432 777.497 138.804 777.497 135.348C777.497 129.336 768.821 129.804 768.821 127.86C768.821 127.356 769.217 126.96 770.549 126.96C772.133 126.96 774.149 127.608 775.229 128.472L777.353 124.152C775.481 122.64 773.105 122.028 770.729 122.028C766.445 122.028 763.025 124.08 763.025 127.896C763.025 133.98 771.701 133.548 771.701 135.528C771.701 136.104 771.269 136.5 770.009 136.5C768.245 136.5 766.337 135.78 764.969 134.628L762.305 138.696ZM788.358 135.78C788.358 138.984 790.842 141.432 794.406 141.432C796.53 141.432 798.69 140.46 799.914 138.732H799.986C799.986 138.732 799.914 139.272 799.914 139.884V141H805.602V129.588C805.602 124.872 802.434 122.028 797.322 122.028C794.298 122.028 791.058 123.216 789.474 124.44L791.634 128.832C793.11 127.86 794.946 127.068 796.746 127.068C798.114 127.068 799.374 127.572 799.374 129.12V129.444H798.834C794.262 129.444 788.358 130.812 788.358 135.78ZM794.514 135.204C794.514 133.512 796.962 133.008 798.87 133.008H799.446V133.512C799.446 135.024 798.078 136.788 796.278 136.788C795.126 136.788 794.514 136.068 794.514 135.204ZM809.553 141H815.781V132.612C815.781 129.984 817.041 127.68 819.813 127.68C821.181 127.68 821.865 128.4 821.865 130.128V141H828.093V128.976C828.093 123.756 825.177 122.028 821.433 122.028C818.157 122.028 816.393 123.792 815.529 125.232H815.457C815.457 125.232 815.529 124.692 815.529 124.08V122.46H809.553V141ZM831.116 131.712C831.116 137.472 834.428 141.432 839.468 141.432C841.664 141.432 843.68 140.496 844.832 138.732H844.904C844.904 138.732 844.868 139.2 844.868 139.776V141H850.7V115.26H844.472V122.676C844.472 123.144 844.508 123.504 844.508 123.504H844.436C843.212 122.28 841.232 122.028 839.576 122.028C834.644 122.028 831.116 125.844 831.116 131.712ZM837.38 131.712C837.38 128.868 839.072 127.284 841.016 127.284C843.464 127.284 844.652 129.48 844.652 131.712C844.652 134.916 842.888 136.284 841.016 136.284C838.856 136.284 837.38 134.484 837.38 131.712ZM866.553 141H873.573L875.661 132.432C875.913 131.424 876.021 130.452 876.021 130.452H876.093C876.093 130.452 876.201 131.424 876.453 132.432L878.541 141H885.489L890.673 122.46H884.193L881.889 133.404C881.673 134.412 881.637 135.348 881.637 135.348H881.565C881.565 135.348 881.529 134.412 881.277 133.404L878.721 122.46H873.393L870.837 133.404C870.585 134.412 870.513 135.348 870.513 135.348H870.441C870.441 135.348 870.441 134.412 870.225 133.404L867.921 122.46H861.369L866.553 141ZM891.794 131.784C891.794 137.58 896.474 141.432 902.306 141.432C908.138 141.432 912.818 137.58 912.818 131.784C912.818 125.952 908.138 122.028 902.27 122.028C896.474 122.028 891.794 125.952 891.794 131.784ZM898.094 131.784C898.094 128.976 900.038 127.212 902.306 127.212C904.574 127.212 906.518 128.976 906.518 131.784C906.518 134.556 904.574 136.248 902.306 136.248C900.038 136.248 898.094 134.556 898.094 131.784ZM915.936 141H922.164V133.8C922.164 130.416 923.82 128.22 927.276 128.22C927.708 128.22 928.32 128.256 928.536 128.328V122.208C928.32 122.172 928.068 122.136 927.816 122.136C925.044 122.136 922.704 124.224 921.912 126.744H921.84C921.84 126.744 921.912 126.204 921.912 125.592V122.46H915.936V141ZM931.264 141H937.492V133.8H939.436L943.36 141H950.452L944.26 130.956V130.884L949.696 122.46H942.928L939.256 128.58H937.492V115.26H931.264V141Z" fill="#222224"/>
<path d="M570.674 196H578.162V194.452H572.456V183.292H570.674V196ZM578.879 191.446C578.879 194.146 580.859 196.216 583.721 196.216C584.981 196.216 586.367 195.73 587.249 194.92L586.511 193.642C585.791 194.29 584.801 194.704 583.829 194.704C582.191 194.704 580.787 193.642 580.697 191.68H587.321C587.357 191.428 587.393 191.176 587.393 190.942C587.393 188.602 586.025 186.676 583.451 186.676C580.859 186.676 578.879 188.548 578.879 191.446ZM580.751 190.42C581.003 188.908 582.065 188.026 583.415 188.026C584.603 188.026 585.575 188.854 585.629 190.42H580.751ZM588.737 193.516C588.737 195.226 590.195 196.216 591.779 196.216C593.129 196.216 594.245 195.406 594.767 194.362H594.803C594.803 194.362 594.749 194.668 594.749 195.082V196H596.387V190.24C596.387 187.936 595.073 186.676 592.787 186.676C591.509 186.676 590.123 187.144 589.385 187.756L590.087 189.034C590.825 188.512 591.743 188.152 592.643 188.152C593.777 188.152 594.641 188.656 594.641 190.15V190.33H594.173C592.283 190.33 588.737 190.654 588.737 193.516ZM590.483 193.372C590.483 191.698 592.895 191.59 594.191 191.59H594.641V191.932C594.641 193.282 593.723 194.83 592.193 194.83C591.059 194.83 590.483 194.092 590.483 193.372ZM598.985 196H600.731V192.22C600.731 190.456 601.559 188.512 603.521 188.512C603.701 188.512 603.953 188.53 604.025 188.548V186.82C603.881 186.802 603.719 186.784 603.557 186.784C602.153 186.784 601.091 187.882 600.659 189.196H600.623C600.623 189.196 600.677 188.908 600.677 188.53V186.892H598.985V196ZM605.752 196H607.498V191.626C607.498 189.754 608.758 188.278 610.54 188.278C611.998 188.278 612.25 189.286 612.25 190.564V196H613.996V190.168C613.996 187.846 613.024 186.676 610.882 186.676C608.884 186.676 607.768 188.026 607.426 188.818H607.39C607.39 188.818 607.444 188.512 607.444 188.134V186.892H605.752V196ZM621.124 192.67C621.124 195.712 623.446 196.09 624.616 196.09C624.886 196.09 625.084 196.054 625.228 196.036V194.488C625.048 194.524 624.94 194.524 624.814 194.524C624.148 194.524 622.87 194.29 622.87 192.472V188.404H625.066V186.982H622.87V184.39H621.16V186.982H619.936V188.404H621.124V192.67ZM627.022 196H628.768V191.68C628.768 189.718 630.046 188.278 631.81 188.278C633.268 188.278 633.52 189.286 633.52 190.564V196H635.266V190.168C635.266 187.846 634.294 186.676 632.152 186.676C630.334 186.676 629.146 187.9 628.732 188.764H628.696C628.696 188.764 628.768 188.44 628.768 188.008V183.292H627.022V196ZM637.274 191.446C637.274 194.146 639.254 196.216 642.116 196.216C643.376 196.216 644.762 195.73 645.644 194.92L644.906 193.642C644.186 194.29 643.196 194.704 642.224 194.704C640.586 194.704 639.182 193.642 639.092 191.68H645.716C645.752 191.428 645.788 191.176 645.788 190.942C645.788 188.602 644.42 186.676 641.846 186.676C639.254 186.676 637.274 188.548 637.274 191.446ZM639.146 190.42C639.398 188.908 640.46 188.026 641.81 188.026C642.998 188.026 643.97 188.854 644.024 190.42H639.146ZM652.387 196H654.025V195.262C654.025 194.848 653.971 194.578 653.971 194.578H654.007C654.601 195.604 655.717 196.216 656.905 196.216C659.317 196.216 661.045 194.344 661.045 191.446C661.045 188.62 659.515 186.676 657.049 186.676C655.789 186.676 654.637 187.306 654.097 188.278H654.061C654.061 188.278 654.133 187.954 654.133 187.504V183.292H652.387V196ZM654.079 191.482C654.079 189.178 655.339 188.206 656.707 188.206C658.219 188.206 659.281 189.484 659.281 191.464C659.281 193.534 658.093 194.704 656.653 194.704C654.925 194.704 654.079 193.102 654.079 191.482ZM662.442 193.516C662.442 195.226 663.9 196.216 665.484 196.216C666.834 196.216 667.95 195.406 668.472 194.362H668.508C668.508 194.362 668.454 194.668 668.454 195.082V196H670.092V190.24C670.092 187.936 668.778 186.676 666.492 186.676C665.214 186.676 663.828 187.144 663.09 187.756L663.792 189.034C664.53 188.512 665.448 188.152 666.348 188.152C667.482 188.152 668.346 188.656 668.346 190.15V190.33H667.878C665.988 190.33 662.442 190.654 662.442 193.516ZM664.188 193.372C664.188 191.698 666.6 191.59 667.896 191.59H668.346V191.932C668.346 193.282 667.428 194.83 665.898 194.83C664.764 194.83 664.188 194.092 664.188 193.372ZM671.916 194.884C672.816 195.802 674.166 196.216 675.39 196.216C677.334 196.216 678.666 195.082 678.666 193.534C678.666 190.528 673.968 191.05 673.968 189.268C673.968 188.494 674.634 188.134 675.516 188.134C676.326 188.134 677.28 188.44 677.82 188.944L678.522 187.684C677.73 186.964 676.614 186.676 675.57 186.676C673.788 186.676 672.294 187.576 672.294 189.304C672.294 192.292 676.974 191.824 676.974 193.57C676.974 194.326 676.344 194.758 675.426 194.758C674.472 194.758 673.428 194.362 672.744 193.696L671.916 194.884ZM680.705 185.056H682.505V183.292H680.705V185.056ZM680.741 196H682.487V186.892H680.741V196ZM684.576 191.446C684.576 194.182 686.574 196.216 689.454 196.216C690.876 196.216 692.262 195.64 693.09 194.758L692.388 193.48C691.686 194.218 690.588 194.704 689.58 194.704C687.69 194.704 686.358 193.282 686.358 191.428C686.358 189.574 687.69 188.188 689.526 188.188C690.48 188.188 691.434 188.62 692.046 189.232L692.874 188.008C692.01 187.09 690.66 186.676 689.454 186.676C686.592 186.676 684.576 188.746 684.576 191.446ZM694.205 194.884C695.105 195.802 696.455 196.216 697.679 196.216C699.623 196.216 700.955 195.082 700.955 193.534C700.955 190.528 696.257 191.05 696.257 189.268C696.257 188.494 696.923 188.134 697.805 188.134C698.615 188.134 699.569 188.44 700.109 188.944L700.811 187.684C700.019 186.964 698.903 186.676 697.859 186.676C696.077 186.676 694.583 187.576 694.583 189.304C694.583 192.292 699.263 191.824 699.263 193.57C699.263 194.326 698.633 194.758 697.715 194.758C696.761 194.758 695.717 194.362 695.033 193.696L694.205 194.884ZM706.936 191.428C706.936 194.2 709.132 196.216 711.85 196.216C714.55 196.216 716.746 194.2 716.746 191.428C716.746 188.674 714.55 186.676 711.832 186.676C709.132 186.676 706.936 188.674 706.936 191.428ZM708.718 191.428C708.718 189.538 710.122 188.188 711.85 188.188C713.56 188.188 714.982 189.538 714.982 191.428C714.982 193.336 713.56 194.704 711.85 194.704C710.122 194.704 708.718 193.336 708.718 191.428ZM719.177 196H720.923V188.404H723.065V186.982H720.923V186.604C720.923 184.93 722.147 184.732 722.831 184.732C723.029 184.732 723.209 184.75 723.281 184.768V183.256C723.047 183.22 722.849 183.202 722.615 183.202C721.463 183.202 719.177 183.58 719.177 186.586V186.982H718.043V188.404H719.177V196ZM728.507 189.574C728.507 193.3 731.081 196.216 735.023 196.216C737.273 196.216 738.857 195.28 739.937 194.2L738.983 192.922C737.957 193.948 736.499 194.578 735.077 194.578C732.125 194.578 730.343 192.256 730.343 189.556C730.343 186.874 732.089 184.696 735.041 184.696C736.355 184.696 737.777 185.254 738.713 186.082L739.613 184.75C738.389 183.58 736.607 183.076 734.969 183.076C731.189 183.076 728.507 185.884 728.507 189.574ZM741.86 196H743.606V191.68C743.606 189.718 744.884 188.278 746.648 188.278C748.106 188.278 748.358 189.286 748.358 190.564V196H750.104V190.168C750.104 187.846 749.132 186.676 746.99 186.676C745.172 186.676 743.984 187.9 743.57 188.764H743.534C743.534 188.764 743.606 188.44 743.606 188.008V183.292H741.86V196ZM752.111 191.446C752.111 194.146 754.091 196.216 756.953 196.216C758.213 196.216 759.599 195.73 760.481 194.92L759.743 193.642C759.023 194.29 758.033 194.704 757.061 194.704C755.423 194.704 754.019 193.642 753.929 191.68H760.553C760.589 191.428 760.625 191.176 760.625 190.942C760.625 188.602 759.257 186.676 756.683 186.676C754.091 186.676 752.111 188.548 752.111 191.446ZM753.983 190.42C754.235 188.908 755.297 188.026 756.647 188.026C757.835 188.026 758.807 188.854 758.861 190.42H753.983ZM762.725 196H764.471V191.752C764.471 190.06 765.479 188.26 767.207 188.26C768.593 188.26 768.773 189.358 768.773 190.546V196H770.519V191.752C770.519 190.006 771.527 188.26 773.219 188.26C774.569 188.26 774.821 189.268 774.821 190.546V196H776.567V190.168C776.567 187.846 775.631 186.676 773.561 186.676C772.085 186.676 770.825 187.684 770.321 188.746H770.285C769.979 187.378 769.097 186.676 767.567 186.676C766.127 186.676 764.831 187.756 764.399 188.818H764.363C764.363 188.818 764.417 188.512 764.417 188.134V186.892H762.725V196ZM779.142 185.056H780.942V183.292H779.142V185.056ZM779.178 196H780.924V186.892H779.178V196ZM782.834 194.884C783.734 195.802 785.084 196.216 786.308 196.216C788.252 196.216 789.584 195.082 789.584 193.534C789.584 190.528 784.886 191.05 784.886 189.268C784.886 188.494 785.552 188.134 786.434 188.134C787.244 188.134 788.198 188.44 788.738 188.944L789.44 187.684C788.648 186.964 787.532 186.676 786.488 186.676C784.706 186.676 783.212 187.576 783.212 189.304C783.212 192.292 787.892 191.824 787.892 193.57C787.892 194.326 787.262 194.758 786.344 194.758C785.39 194.758 784.346 194.362 783.662 193.696L782.834 194.884ZM792.037 192.67C792.037 195.712 794.359 196.09 795.529 196.09C795.799 196.09 795.997 196.054 796.141 196.036V194.488C795.961 194.524 795.853 194.524 795.727 194.524C795.061 194.524 793.783 194.29 793.783 192.472V188.404H795.979V186.982H793.783V184.39H792.073V186.982H790.849V188.404H792.037V192.67ZM797.934 196H799.68V192.22C799.68 190.456 800.508 188.512 802.47 188.512C802.65 188.512 802.902 188.53 802.974 188.548V186.82C802.83 186.802 802.668 186.784 802.506 186.784C801.102 186.784 800.04 187.882 799.608 189.196H799.572C799.572 189.196 799.626 188.908 799.626 188.53V186.892H797.934V196ZM804.252 197.89L803.64 199.222C803.64 199.222 804.378 199.78 805.386 199.78C806.664 199.78 807.798 199.06 808.338 197.638L812.622 186.892H810.732L808.518 192.868C808.356 193.336 808.212 193.948 808.212 193.948H808.176C808.176 193.948 808.014 193.3 807.834 192.85L805.548 186.892H803.586L807.402 195.892L806.952 196.936C806.61 197.764 806.016 198.286 805.296 198.286C804.756 198.286 804.252 197.89 804.252 197.89ZM817.766 191.446C817.766 194.146 819.746 196.216 822.608 196.216C823.868 196.216 825.254 195.73 826.136 194.92L825.398 193.642C824.678 194.29 823.688 194.704 822.716 194.704C821.078 194.704 819.674 193.642 819.584 191.68H826.208C826.244 191.428 826.28 191.176 826.28 190.942C826.28 188.602 824.912 186.676 822.338 186.676C819.746 186.676 817.766 188.548 817.766 191.446ZM819.638 190.42C819.89 188.908 820.952 188.026 822.302 188.026C823.49 188.026 824.462 188.854 824.516 190.42H819.638ZM827.623 193.516C827.623 195.226 829.081 196.216 830.665 196.216C832.015 196.216 833.131 195.406 833.653 194.362H833.689C833.689 194.362 833.635 194.668 833.635 195.082V196H835.273V190.24C835.273 187.936 833.959 186.676 831.673 186.676C830.395 186.676 829.009 187.144 828.271 187.756L828.973 189.034C829.711 188.512 830.629 188.152 831.529 188.152C832.663 188.152 833.527 188.656 833.527 190.15V190.33H833.059C831.169 190.33 827.623 190.654 827.623 193.516ZM829.369 193.372C829.369 191.698 831.781 191.59 833.077 191.59H833.527V191.932C833.527 193.282 832.609 194.83 831.079 194.83C829.945 194.83 829.369 194.092 829.369 193.372ZM837.097 194.884C837.997 195.802 839.347 196.216 840.571 196.216C842.515 196.216 843.847 195.082 843.847 193.534C843.847 190.528 839.149 191.05 839.149 189.268C839.149 188.494 839.815 188.134 840.697 188.134C841.507 188.134 842.461 188.44 843.001 188.944L843.703 187.684C842.911 186.964 841.795 186.676 840.751 186.676C838.969 186.676 837.475 187.576 837.475 189.304C837.475 192.292 842.155 191.824 842.155 193.57C842.155 194.326 841.525 194.758 840.607 194.758C839.653 194.758 838.609 194.362 837.925 193.696L837.097 194.884ZM845.886 185.056H847.686V183.292H845.886V185.056ZM845.922 196H847.668V186.892H845.922V196ZM850.352 193.498C850.352 195.802 851.792 196.09 852.8 196.09C853.052 196.09 853.25 196.054 853.376 196.036V194.488C853.268 194.506 853.142 194.506 853.07 194.506C852.53 194.506 852.08 194.29 852.08 193.21V183.292H850.352V193.498ZM854.543 197.89L853.931 199.222C853.931 199.222 854.669 199.78 855.677 199.78C856.955 199.78 858.089 199.06 858.629 197.638L862.913 186.892H861.023L858.809 192.868C858.647 193.336 858.503 193.948 858.503 193.948H858.467C858.467 193.948 858.305 193.3 858.125 192.85L855.839 186.892H853.877L857.693 195.892L857.243 196.936C856.901 197.764 856.307 198.286 855.587 198.286C855.047 198.286 854.543 197.89 854.543 197.89Z" fill="#424754"/>
<g clip-path="url(#clip0)">
<path d="M0 4.40122C0 2.86065 0 2.09037 0.299609 1.50195C0.563153 0.984356 0.983678 0.563541 1.50091 0.299816C2.08893 0 2.85869 0 4.3982 0H504.602C506.141 0 506.911 0 507.499 0.299816C508.016 0.563541 508.437 0.984356 508.7 1.50195C509 2.09037 509 2.86066 509 4.40123V293.599C509 295.139 509 295.91 508.7 296.498C508.437 297.016 508.016 297.436 507.499 297.7C506.911 298 506.141 298 504.602 298H4.39818C2.85868 298 2.08893 298 1.50091 297.7C0.983678 297.436 0.563153 297.016 0.299609 296.498C0 295.91 0 295.139 0 293.599V4.40122Z" fill="#F3F3F3"/>
<rect x="93" y="189" width="285" height="122" rx="4" fill="white"/>
<rect x="160" y="26" width="250" height="140" rx="2" fill="white"/>
<path d="M240 63L265 74L259 101L291 110L287 140" stroke="#8A8D95"/>
<path d="M242 63C242 64.1046 241.105 65 240 65C238.895 65 238 64.1046 238 63C238 61.8954 238.895 61 240 61C241.105 61 242 61.8954 242 63Z" fill="#424754"/>
<path d="M267 74C267 75.1046 266.105 76 265 76C263.895 76 263 75.1046 263 74C263 72.8954 263.895 72 265 72C266.105 72 267 72.8954 267 74Z" fill="#F04B5D"/>
<path d="M261 101C261 102.105 260.105 103 259 103C257.895 103 257 102.105 257 101C257 99.8954 257.895 99 259 99C260.105 99 261 99.8954 261 101Z" fill="#424754"/>
<path d="M293 110C293 111.105 292.105 112 291 112C289.895 112 289 111.105 289 110C289 108.895 289.895 108 291 108C292.105 108 293 108.895 293 110Z" fill="#424754"/>
<path d="M289 140C289 141.105 288.105 142 287 142C285.895 142 285 141.105 285 140C285 138.895 285.895 138 287 138C288.105 138 289 138.895 289 140Z" fill="#424754"/>
<path d="M177 40.4545C177 39.9454 177 39.6908 177.058 39.4964C177.108 39.3253 177.189 39.1862 177.288 39.0991C177.401 39 177.549 39 177.845 39H209.155C209.451 39 209.599 39 209.712 39.0991C209.811 39.1862 209.892 39.3253 209.942 39.4964C210 39.6908 210 39.9454 210 40.4545V42.5455C210 43.0546 210 43.3092 209.942 43.5036C209.892 43.6747 209.811 43.8138 209.712 43.9009C209.599 44 209.451 44 209.155 44H177.845C177.549 44 177.401 44 177.288 43.9009C177.189 43.8138 177.108 43.6747 177.058 43.5036C177 43.3092 177 43.0546 177 42.5455V40.4545Z" fill="#424754"/>
<path d="M380 40.4545C380 39.9454 380 39.6908 380.026 39.4964C380.049 39.3253 380.086 39.1862 380.131 39.0991C380.182 39 380.25 39 380.384 39H394.616C394.75 39 394.818 39 394.869 39.0991C394.914 39.1862 394.951 39.3253 394.974 39.4964C395 39.6908 395 39.9454 395 40.4545V42.5455C395 43.0546 395 43.3092 394.974 43.5036C394.951 43.6747 394.914 43.8138 394.869 43.9009C394.818 44 394.75 44 394.616 44H380.384C380.25 44 380.182 44 380.131 43.9009C380.086 43.8138 380.049 43.6747 380.026 43.5036C380 43.3092 380 43.0546 380 42.5455V40.4545Z" fill="#97999D"/>
<path d="M177 63.9455C177 62.2144 177 61.3488 177.03 60.6877C177.056 60.1061 177.097 59.6332 177.149 59.3369C177.207 59 177.283 59 177.435 59H193.565C193.717 59 193.793 59 193.851 59.3369C193.903 59.6332 193.944 60.1061 193.97 60.6877C194 61.3488 194 62.2144 194 63.9455V71.0545C194 72.7856 194 73.6512 193.97 74.3123C193.944 74.8939 193.903 75.3668 193.851 75.6631C193.793 76 193.717 76 193.565 76H177.435C177.283 76 177.207 76 177.149 75.6631C177.097 75.3668 177.056 74.8939 177.03 74.3123C177 73.6512 177 72.7856 177 71.0545V63.9455Z" fill="#E0E0E0"/>
<path d="M177 85.9455C177 84.2144 177 83.3488 177.03 82.6877C177.056 82.1061 177.097 81.6332 177.149 81.3369C177.207 81 177.283 81 177.435 81H193.565C193.717 81 193.793 81 193.851 81.3369C193.903 81.6332 193.944 82.1061 193.97 82.6877C194 83.3488 194 84.2144 194 85.9455V93.0545C194 94.7856 194 95.6512 193.97 96.3123C193.944 96.8939 193.903 97.3668 193.851 97.6631C193.793 98 193.717 98 193.565 98H177.435C177.283 98 177.207 98 177.149 97.6631C177.097 97.3668 177.056 96.8939 177.03 96.3123C177 95.6512 177 94.7856 177 93.0545V85.9455Z" fill="#F04B5D"/>
<path d="M177 107.945C177 106.214 177 105.349 177.03 104.688C177.056 104.106 177.097 103.633 177.149 103.337C177.207 103 177.283 103 177.435 103H193.565C193.717 103 193.793 103 193.851 103.337C193.903 103.633 193.944 104.106 193.97 104.688C194 105.349 194 106.214 194 107.945V115.055C194 116.786 194 117.651 193.97 118.312C193.944 118.894 193.903 119.367 193.851 119.663C193.793 120 193.717 120 193.565 120H177.435C177.283 120 177.207 120 177.149 119.663C177.097 119.367 177.056 118.894 177.03 118.312C177 117.651 177 116.786 177 115.055V107.945Z" fill="#E0E0E0"/>
<path d="M177 129.945C177 128.214 177 127.349 177.03 126.688C177.056 126.106 177.097 125.633 177.149 125.337C177.207 125 177.283 125 177.435 125H193.565C193.717 125 193.793 125 193.851 125.337C193.903 125.633 193.944 126.106 193.97 126.688C194 127.349 194 128.214 194 129.945V137.055C194 138.786 194 139.651 193.97 140.312C193.944 140.894 193.903 141.367 193.851 141.663C193.793 142 193.717 142 193.565 142H177.435C177.283 142 177.207 142 177.149 141.663C177.097 141.367 177.056 140.894 177.03 140.312C177 139.651 177 138.786 177 137.055V129.945Z" fill="#E0E0E0"/>
<path d="M187.935 261.645C187.935 264.848 190.539 267.452 193.741 267.452C196.943 267.452 199.547 264.848 199.547 261.645V226.806H200.516C201.052 226.806 201.484 226.373 201.484 225.839V221.968C201.484 221.434 201.052 221 200.516 221H186.968C186.432 221 186 221.434 186 221.968V225.839C186 226.373 186.432 226.806 186.968 226.806H187.935V261.645Z" fill="#E1EAF7"/>
<path d="M193.702 266C196.42 265.377 198.404 263.557 198.404 261.382V239H189V261.382C189 263.556 190.984 265.376 193.702 266Z" fill="#F04B5D"/>
<path d="M134 262.871C134 265.539 136.171 267.71 138.839 267.71H151H151.419H163.581C166.249 267.71 168.419 265.539 168.419 262.871V261.923C168.419 261.116 168.215 260.314 167.829 259.606L156.806 239.399V229.968C156.806 229.434 156.374 229 155.839 229H151.419H151H146.581C146.045 229 145.613 229.434 145.613 229.968V239.399L134.59 259.606C134.204 260.314 134 261.116 134 261.923V262.871Z" fill="#E1EAF7"/>
<path d="M167.656 262.812V261.864C167.656 261.217 167.494 260.579 167.184 260.011L160.267 247.329H158.78C158.267 247.329 157.775 247.533 157.412 247.896L156.611 248.697C156.248 249.06 155.755 249.264 155.242 249.264H154.91C154.397 249.264 153.905 249.06 153.542 248.697L152.741 247.896C152.377 247.533 151.884 247.329 151.371 247.329H151.039C150.526 247.329 150.034 247.533 149.671 247.896L148.87 248.697C148.506 249.06 148.013 249.264 147.5 249.264H147.169C146.655 249.264 146.163 249.06 145.8 248.697L144.999 247.896C144.635 247.533 144.142 247.329 143.629 247.329H142.153L135.235 260.011C134.926 260.58 134.763 261.217 134.763 261.864V262.812C134.763 264.95 136.496 266.683 138.634 266.683H163.786C165.923 266.683 167.656 264.95 167.656 262.812Z" fill="#2D7EEC"/>
<path d="M428.728 164.163H422.465C422.465 164.163 415.576 169.173 416.202 174.809C416.829 180.445 404.93 229.294 404.93 235.557C404.93 241.819 402.425 243.698 402.425 247.456C402.425 251.213 403.677 253.718 402.425 255.597C401.172 257.476 398.667 268.749 399.293 273.132C399.657 276.044 399.657 278.989 399.293 281.9H414.95C414.95 281.9 426.223 243.698 428.728 241.819C431.233 239.941 432.485 236.809 432.485 234.93C432.485 233.052 431.233 233.052 434.364 230.547C437.495 228.041 435.616 216.769 435.616 216.769L440 205.496L428.728 164.163Z" fill="#D6D3E8"/>
<path d="M341.051 262.799C341.051 262.799 335.415 290.355 344.809 287.85C354.202 285.345 350.445 261.547 350.445 261.547L341.051 262.799Z" fill="#A0616A"/>
<path d="M361.091 255.284C361.091 255.284 353.576 265.304 353.576 270.941C353.576 276.577 351.071 326.678 351.071 326.678C351.071 326.678 337.293 390.557 341.051 394.314C344.808 398.072 356.081 403.708 357.96 401.83C359.839 399.951 372.99 331.688 372.99 331.688L388.647 289.728L403.051 349.85C403.051 349.85 402.425 401.83 404.93 402.456C407.435 403.082 408.687 403.708 407.435 406.213C406.182 408.719 404.303 413.729 404.303 413.729C404.303 413.729 419.96 417.486 423.091 414.981C426.223 412.476 426.849 351.729 423.091 330.436C419.334 309.143 423.717 260.294 423.717 260.294L361.091 255.284Z" fill="#2F2E41"/>
<path d="M383.95 134.102C394.326 134.102 402.738 125.69 402.738 115.314C402.738 104.938 394.326 96.5261 383.95 96.5261C373.574 96.5261 365.162 104.938 365.162 115.314C365.162 125.69 373.574 134.102 383.95 134.102Z" fill="#A0616A"/>
<path d="M378.313 127.213C378.313 127.213 380.818 140.365 378.313 144.122C375.808 147.88 412.132 145.375 412.132 145.375C412.132 145.375 394.596 125.334 396.475 121.577C398.354 117.819 378.313 127.213 378.313 127.213Z" fill="#A0616A"/>
<path d="M362.344 148.819C362.344 148.819 374.869 132.536 390.526 135.668C394.753 136.513 398.615 137.358 402 138.142C413.93 140.904 423.85 149.406 427.926 160.953C428.983 163.947 429.511 166.824 429.041 169.173C427.162 178.567 428.102 252.779 428.102 252.779C428.102 252.779 423.092 254.658 423.718 257.163C424.344 259.668 428.728 262.799 424.344 262.799C419.96 262.799 353.576 260.294 354.829 258.415C356.082 256.536 362.344 148.819 362.344 148.819Z" fill="#D0CDE1"/>
<path d="M368.606 148.819H362.343C362.343 148.819 355.454 153.829 356.08 159.466C356.707 165.102 344.807 213.951 344.807 220.213C344.807 226.476 342.302 228.355 342.302 232.112C342.302 235.87 343.555 238.375 342.302 240.254C341.05 242.132 338.545 253.405 339.171 257.789C339.535 260.7 339.535 263.645 339.171 266.557H354.828C354.828 266.557 366.1 228.355 368.606 226.476C371.111 224.597 372.363 221.466 372.363 219.587C372.363 217.708 371.111 217.708 374.242 215.203C377.373 212.698 375.494 201.425 375.494 201.425L379.878 190.152L368.606 148.819Z" fill="#D0CDE1"/>
<path opacity="0.1" d="M359.476 257.589L378.313 216.142L368.895 260.221L359.476 257.589Z" fill="black"/>
<path d="M377.395 86.9022L377.405 85.3519C378.7 85.1872 380.012 85.2332 381.292 85.4881C381.306 84.5522 381.112 83.625 380.723 82.7734C382.013 82.9431 383.268 83.3165 384.44 83.8796L384.872 81L396.089 84.9311C400.115 86.3422 404.371 87.9134 406.984 91.2861C409.897 95.0461 410.109 100.307 408.99 104.931C407.872 109.554 405.597 113.802 403.899 118.245C403.28 120.142 402.482 121.976 401.516 123.722C398.126 129.188 390.472 131.138 384.474 128.816C382.261 127.959 380.17 126.531 379.049 124.439C378.475 123.141 377.986 121.807 377.586 120.446C376.544 117.685 375.022 111.908 372.492 110.388C371.379 109.72 369.681 112.591 368.719 111.718C366.249 109.474 366.234 105.552 367.212 102.361C368.134 99.1628 369.286 96.0357 370.658 93.0039C371.247 91.7805 377.397 86.7162 377.395 86.9022Z" fill="#2F2E41"/>
<rect x="62" y="69" width="82" height="97" rx="2" fill="white"/>
<rect x="137.143" y="76" width="20" height="20" rx="2" transform="rotate(45 137.143 76)" fill="white"/>
<path d="M73 77.1636C73 76.7563 73 76.5527 73.0244 76.3971C73.0459 76.2603 73.0802 76.149 73.1223 76.0793C73.1702 76 73.2329 76 73.3584 76H86.6416C86.7671 76 86.8298 76 86.8777 76.0793C86.9198 76.149 86.9541 76.2603 86.9756 76.3971C87 76.5527 87 76.7563 87 77.1636V78.8364C87 79.2437 87 79.4473 86.9756 79.6029C86.9541 79.7397 86.9198 79.851 86.8777 79.9207C86.8298 80 86.7671 80 86.6416 80H73.3584C73.2329 80 73.1702 80 73.1223 79.9207C73.0802 79.851 73.0459 79.7397 73.0244 79.6029C73 79.4473 73 79.2437 73 78.8364V77.1636Z" fill="#424754"/>
<g filter="url(#filter0_d)">
<path d="M82.7255 110.29C82.2517 110.086 81.7008 110.305 81.5166 110.786C79.8755 115.079 79.5553 119.772 80.6094 124.26C81.7348 129.051 84.3673 133.354 88.12 136.538C91.8727 139.722 96.5477 141.618 101.458 141.948C106.368 142.278 111.255 141.024 115.4 138.371C119.545 135.718 122.729 131.805 124.486 127.208C126.242 122.61 126.477 117.571 125.157 112.83C123.837 108.089 121.031 103.896 117.151 100.868C113.517 98.0324 109.121 96.358 104.536 96.0513C104.021 96.0169 103.592 96.4258 103.578 96.9412C103.565 97.4567 103.972 97.8833 104.487 97.9196C108.672 98.2147 112.683 99.7502 116.002 102.341C119.567 105.123 122.145 108.975 123.358 113.331C124.571 117.687 124.355 122.317 122.741 126.541C121.128 130.765 118.202 134.361 114.393 136.798C110.585 139.236 106.095 140.388 101.583 140.085C97.0716 139.782 92.7761 138.04 89.3281 135.114C85.88 132.189 83.4613 128.235 82.4272 123.833C81.4645 119.734 81.7494 115.449 83.2338 111.524C83.4162 111.042 83.1993 110.493 82.7255 110.29Z" fill="#27AE60"/>
</g>
<path d="M96.0566 117.603C96.0566 117.029 96.0566 116.742 96.0801 116.522C96.1007 116.329 96.1337 116.172 96.1742 116.074C96.2202 115.962 96.2805 115.962 96.401 115.962H109.165C109.286 115.962 109.346 115.962 109.392 116.074C109.432 116.172 109.465 116.329 109.486 116.522C109.509 116.742 109.509 117.029 109.509 117.603V119.963C109.509 120.537 109.509 120.824 109.486 121.044C109.465 121.237 109.432 121.394 109.392 121.492C109.346 121.604 109.286 121.604 109.165 121.604H96.401C96.2805 121.604 96.2202 121.604 96.1742 121.492C96.1337 121.394 96.1007 121.237 96.0801 121.044C96.0566 120.824 96.0566 120.537 96.0566 119.963V117.603Z" fill="#424754"/>
<path d="M85.6416 148.273C85.6416 148.052 85.6416 147.941 85.7014 147.857C85.754 147.783 85.8379 147.722 85.9411 147.685C86.0584 147.642 86.212 147.642 86.5192 147.642H119.047C119.354 147.642 119.508 147.642 119.625 147.685C119.728 147.722 119.812 147.783 119.865 147.857C119.925 147.941 119.925 148.052 119.925 148.273V149.18C119.925 149.401 119.925 149.512 119.865 149.596C119.812 149.67 119.728 149.731 119.625 149.768C119.508 149.811 119.354 149.811 119.047 149.811H86.5192C86.212 149.811 86.0584 149.811 85.9411 149.768C85.8379 149.731 85.754 149.67 85.7014 149.596C85.6416 149.512 85.6416 149.401 85.6416 149.18V148.273Z" fill="#97999D"/>
<path d="M296 220.929H254V273.506H296V220.929Z" fill="#3F3D56"/>
<path d="M282 233H260V236H282V233Z" fill="white"/>
<path d="M290 244H260V246H290V244Z" fill="white"/>
<path d="M290 249H260V251H290V249Z" fill="white"/>
<path d="M290 254H260V256H290V254Z" fill="white"/>
<path d="M290 259H260V261H290V259Z" fill="white"/>
<path d="M278.036 220.183V218.82C278.036 218.072 277.738 217.355 277.209 216.826C276.68 216.297 275.962 216 275.214 216C274.466 216 273.749 216.297 273.219 216.826C272.69 217.355 272.393 218.072 272.392 218.82V220.183H267.04V223.199H283.389V220.183H278.036ZM275.214 216.777C275.542 216.777 275.861 216.874 276.133 217.056C276.405 217.237 276.617 217.496 276.743 217.798C276.868 218.1 276.901 218.433 276.837 218.754C276.773 219.075 276.615 219.37 276.384 219.601C276.153 219.832 275.858 219.99 275.537 220.054C275.216 220.117 274.884 220.085 274.581 219.96C274.279 219.834 274.021 219.622 273.839 219.35C273.657 219.078 273.56 218.758 273.56 218.431C273.56 218.214 273.603 217.999 273.686 217.798C273.769 217.597 273.891 217.415 274.045 217.261C274.198 217.108 274.381 216.986 274.581 216.903C274.782 216.82 274.997 216.777 275.214 216.777Z" fill="#F04B5D"/>
</g>
<defs>
<filter id="filter0_d" x="60" y="80.0493" width="86" height="85.9507" filterUnits="userSpaceOnUse" color-interpolation-filters="sRGB">
<feFlood flood-opacity="0" result="BackgroundImageFix"/>
<feColorMatrix in="SourceAlpha" type="matrix" values="0 0 0 0 0 0 0 0 0 0 0 0 0 0 0 0 0 0 127 0"/>
<feOffset dy="4"/>
<feGaussianBlur stdDeviation="10"/>
<feColorMatrix type="matrix" values="0 0 0 0 0 0 0 0 0 0 0 0 0 0 0 0 0 0 0.19 0"/>
<feBlend mode="normal" in2="BackgroundImageFix" result="effect1_dropShadow"/>
<feBlend mode="normal" in="SourceGraphic" in2="effect1_dropShadow" result="shape"/>
</filter>
<clipPath id="clip0">
<rect width="509" height="298" fill="white"/>
</clipPath>
</defs>
</svg>
