<svg width="256" height="190" viewBox="0 0 256 190" fill="none" xmlns="http://www.w3.org/2000/svg">
<rect width="256" height="190" rx="18" fill="#64A15E"/>
<mask id="mask0" mask-type="alpha" maskUnits="userSpaceOnUse" x="0" y="0" width="256" height="190">
<rect width="256" height="190" rx="18" fill="#64A15E"/>
</mask>
<g mask="url(#mask0)">
<path d="M185.235 260.185H214.881V250.708C214.881 224.464 257.406 219.847 257.406 179.752C257.406 151.078 231.648 134.068 204.189 134.068C184.506 134.068 168.225 142.33 158.505 151.564L175.758 172.705C182.805 166.873 192.039 162.499 201.516 162.499C214.881 162.499 225.087 171.247 225.087 182.668C225.087 208.426 185.235 213.286 185.235 248.521V260.185ZM184.992 310H214.881V281.083H184.992V310Z" fill="#7EB179"/>
</g>
<path d="M42.16 69H44.8L46 65.36H50.98L52.2 69H54.84L49.86 54.8H47.14L42.16 69ZM46.64 63.26L47.92 59.46C48.16 58.66 48.48 57.26 48.48 57.26H48.52C48.52 57.26 48.84 58.66 49.08 59.46L50.34 63.26H46.64ZM58.46 69H61.46L65.12 58.8H62.44L60.32 65.12C60.14 65.72 59.96 66.66 59.96 66.66H59.92C59.92 66.66 59.74 65.72 59.56 65.12L57.44 58.8H54.76L58.46 69ZM65.8845 63.9C65.8845 67.04 68.3845 69.24 71.4845 69.24C74.5845 69.24 77.0845 67.04 77.0845 63.9C77.0845 60.78 74.5845 58.56 71.4645 58.56C68.3845 58.56 65.8845 60.78 65.8845 63.9ZM68.4645 63.9C68.4645 62.02 69.8245 60.72 71.4845 60.72C73.1445 60.72 74.5245 62.02 74.5245 63.9C74.5245 65.8 73.1445 67.08 71.4845 67.08C69.8245 67.08 68.4645 65.8 68.4645 63.9ZM80.3403 70.38L79.5603 72.32C80.5603 72.84 81.9203 73.2 83.2003 73.2C85.8603 73.2 88.5803 71.88 88.5803 68.38V58.8H86.1803V59.62C86.1803 59.78 86.2203 59.9 86.2203 59.9H86.1603C85.4803 58.96 84.2603 58.56 83.1203 58.56C80.1803 58.56 78.6203 60.84 78.6203 63.64C78.6203 66.44 80.2603 68.8 83.1803 68.8C84.5403 68.8 85.4403 68.28 86.0403 67.38H86.0803C86.0803 67.38 86.0403 67.68 86.0403 67.92V68.56C86.0403 70.38 84.7203 71.04 83.1603 71.04C82.1603 71.04 81.1603 70.78 80.3403 70.38ZM81.1803 63.56C81.1803 61.84 82.0403 60.72 83.5803 60.72C84.9403 60.72 86.1003 61.34 86.1003 63.66C86.1003 65.96 84.9403 66.66 83.7403 66.66C82.0803 66.66 81.1803 65.34 81.1803 63.56ZM90.5292 66.18C90.5292 68.04 92.0492 69.24 93.8892 69.24C95.2692 69.24 96.4892 68.48 97.1092 67.4H97.1492C97.1492 67.4 97.0892 67.72 97.0892 68.14V69H99.4492V62.62C99.4492 60.04 97.8692 58.56 95.2092 58.56C93.6892 58.56 92.0492 59.14 91.2092 59.82L92.1492 61.64C92.9692 61.08 93.9892 60.66 94.9892 60.66C96.0492 60.66 96.9092 61.12 96.9092 62.46V62.6H96.4692C94.2092 62.6 90.5292 63.12 90.5292 66.18ZM93.0492 65.96C93.0492 64.52 95.2092 64.34 96.4892 64.34H96.9292V64.62C96.9292 65.86 96.0092 67.3 94.5892 67.3C93.5692 67.3 93.0492 66.64 93.0492 65.96ZM101.471 63.9C101.471 67.06 103.251 69.24 105.991 69.24C107.451 69.24 108.611 68.52 109.211 67.48H109.251C109.251 67.48 109.211 67.74 109.211 68.12V69H111.591V54.8H109.071V59.3C109.071 59.64 109.111 59.9 109.111 59.9H109.071C108.411 58.98 107.231 58.56 106.091 58.56C103.391 58.56 101.471 60.66 101.471 63.9ZM104.031 63.9C104.031 61.88 105.211 60.74 106.591 60.74C108.311 60.74 109.131 62.3 109.131 63.88C109.131 66.14 107.891 67.1 106.571 67.1C105.071 67.1 104.031 65.84 104.031 63.9ZM114.337 69H116.877V64.88C116.877 62.96 117.797 61.16 119.877 61.16C120.097 61.16 120.397 61.18 120.497 61.2V58.7C120.337 58.68 120.177 58.66 120.017 58.66C118.477 58.66 117.237 59.86 116.777 61.3H116.737C116.737 61.3 116.777 60.98 116.777 60.6V58.8H114.337V69ZM121.431 63.9C121.431 67.04 123.931 69.24 127.031 69.24C130.131 69.24 132.631 67.04 132.631 63.9C132.631 60.78 130.131 58.56 127.011 58.56C123.931 58.56 121.431 60.78 121.431 63.9ZM124.011 63.9C124.011 62.02 125.371 60.72 127.031 60.72C128.691 60.72 130.071 62.02 130.071 63.9C130.071 65.8 128.691 67.08 127.031 67.08C125.371 67.08 124.011 65.8 124.011 63.9ZM134.415 58.72H136.335V54.54H134.415V58.72ZM138.282 67.74C139.342 68.76 140.862 69.24 142.282 69.24C144.622 69.24 146.142 67.9 146.142 66.1C146.142 62.76 141.082 63.22 141.082 61.6C141.082 60.96 141.622 60.62 142.502 60.62C143.402 60.62 144.482 60.98 145.082 61.5L146.022 59.72C145.082 58.9 143.802 58.56 142.582 58.56C140.442 58.56 138.682 59.62 138.682 61.62C138.682 64.96 143.742 64.56 143.742 66.16C143.742 66.8 143.222 67.18 142.322 67.18C141.302 67.18 140.182 66.76 139.422 66.06L138.282 67.74ZM153.243 69H155.783V64.22C155.783 62.38 156.923 60.88 158.723 60.88C160.003 60.88 160.323 61.72 160.323 62.96V69H162.863V62.44C162.863 59.74 161.563 58.56 159.303 58.56C157.243 58.56 156.103 59.86 155.683 60.72H155.643C155.643 60.72 155.683 60.4 155.683 60V58.8H153.243V69ZM165.389 65.36C165.389 68.14 166.729 69.24 168.929 69.24C170.669 69.24 171.989 68.14 172.469 67.1H172.509C172.509 67.1 172.449 67.42 172.449 67.8V69H174.889V58.8H172.369V63.48C172.369 65.3 171.349 66.92 169.509 66.92C168.249 66.92 167.929 66.08 167.929 64.84V58.8H165.389V65.36ZM177.637 69H180.177V64.42C180.177 62.72 181.017 60.88 182.797 60.88C183.997 60.88 184.177 61.82 184.177 62.92V69H186.717V64.42C186.717 62.64 187.577 60.88 189.317 60.88C190.477 60.88 190.717 61.76 190.717 62.92V69H193.237V62.44C193.237 59.76 192.037 58.56 189.897 58.56C188.297 58.56 186.977 59.6 186.417 60.66H186.377C185.957 59.28 184.957 58.56 183.417 58.56C181.817 58.56 180.557 59.72 180.077 60.72H180.037C180.037 60.72 180.077 60.4 180.077 60V58.8H177.637V69ZM195.88 69H198.24V68.34C198.24 67.94 198.2 67.66 198.2 67.66H198.24C198.9 68.68 200.12 69.24 201.32 69.24C204.02 69.24 206 67.14 206 63.9C206 60.74 204.24 58.56 201.48 58.56C200.22 58.56 199 59.16 198.4 60.08H198.36C198.36 60.08 198.42 59.72 198.42 59.22V54.8H195.88V69ZM198.34 63.96C198.34 61.7 199.58 60.74 200.92 60.74C202.4 60.74 203.44 62 203.44 63.94C203.44 65.96 202.28 67.1 200.88 67.1C199.18 67.1 198.34 65.54 198.34 63.96ZM207.545 63.9C207.545 66.8 209.665 69.24 213.045 69.24C214.505 69.24 216.105 68.7 217.145 67.78L216.145 65.96C215.325 66.62 214.265 67.08 213.225 67.08C211.685 67.08 210.325 66.16 210.165 64.38H217.185C217.225 64.06 217.265 63.72 217.265 63.4C217.265 60.7 215.665 58.56 212.745 58.56C209.685 58.56 207.545 60.76 207.545 63.9ZM210.225 62.64C210.465 61.34 211.385 60.48 212.685 60.48C213.825 60.48 214.705 61.28 214.725 62.64H210.225ZM219.376 69H221.916V64.88C221.916 62.96 222.836 61.16 224.916 61.16C225.136 61.16 225.436 61.18 225.536 61.2V58.7C225.376 58.68 225.216 58.66 225.056 58.66C223.516 58.66 222.276 59.86 221.816 61.3H221.776C221.776 61.3 221.816 60.98 221.816 60.6V58.8H219.376V69ZM42.58 96.18C42.58 98.04 44.1 99.24 45.94 99.24C47.32 99.24 48.54 98.48 49.16 97.4H49.2C49.2 97.4 49.14 97.72 49.14 98.14V99H51.5V92.62C51.5 90.04 49.92 88.56 47.26 88.56C45.74 88.56 44.1 89.14 43.26 89.82L44.2 91.64C45.02 91.08 46.04 90.66 47.04 90.66C48.1 90.66 48.96 91.12 48.96 92.46V92.6H48.52C46.26 92.6 42.58 93.12 42.58 96.18ZM45.1 95.96C45.1 94.52 47.26 94.34 48.54 94.34H48.98V94.62C48.98 95.86 48.06 97.3 46.64 97.3C45.62 97.3 45.1 96.64 45.1 95.96ZM54.1022 99H56.6422V94.22C56.6422 92.38 57.7822 90.88 59.5822 90.88C60.8622 90.88 61.1822 91.72 61.1822 92.96V99H63.7222V92.44C63.7222 89.74 62.4222 88.56 60.1622 88.56C58.1022 88.56 56.9622 89.86 56.5422 90.72H56.5022C56.5022 90.72 56.5422 90.4 56.5422 90V88.8H54.1022V99ZM65.7683 93.9C65.7683 97.06 67.5483 99.24 70.2883 99.24C71.7483 99.24 72.9083 98.52 73.5083 97.48H73.5483C73.5483 97.48 73.5083 97.74 73.5083 98.12V99H75.8883V84.8H73.3683V89.3C73.3683 89.64 73.4083 89.9 73.4083 89.9H73.3683C72.7083 88.98 71.5283 88.56 70.3883 88.56C67.6883 88.56 65.7683 90.66 65.7683 93.9ZM68.3283 93.9C68.3283 91.88 69.5083 90.74 70.8883 90.74C72.6083 90.74 73.4283 92.3 73.4283 93.88C73.4283 96.14 72.1883 97.1 70.8683 97.1C69.3683 97.1 68.3283 95.84 68.3283 93.9ZM83.6334 99H86.1734V94.22C86.1734 92.38 87.3134 90.88 89.1134 90.88C90.3934 90.88 90.7134 91.72 90.7134 92.96V99H93.2534V92.44C93.2534 89.74 91.9534 88.56 89.6934 88.56C87.6334 88.56 86.4934 89.86 86.0734 90.72H86.0334C86.0334 90.72 86.0734 90.4 86.0734 90V88.8H83.6334V99ZM95.2595 93.9C95.2595 97.04 97.7595 99.24 100.86 99.24C103.96 99.24 106.46 97.04 106.46 93.9C106.46 90.78 103.96 88.56 100.84 88.56C97.7595 88.56 95.2595 90.78 95.2595 93.9ZM97.8395 93.9C97.8395 92.02 99.1995 90.72 100.86 90.72C102.52 90.72 103.9 92.02 103.9 93.9C103.9 95.8 102.52 97.08 100.86 97.08C99.1995 97.08 97.8395 95.8 97.8395 93.9ZM112.935 93.9C112.935 96.86 115.095 99.24 118.475 99.24C120.115 99.24 121.715 98.6 122.675 97.58L121.695 95.78C120.935 96.52 119.775 97.08 118.695 97.08C116.735 97.08 115.515 95.6 115.515 93.88C115.515 92.14 116.735 90.72 118.615 90.72C119.615 90.72 120.615 91.18 121.255 91.82L122.395 90.08C121.415 89.02 119.855 88.56 118.475 88.56C115.095 88.56 112.935 91 112.935 93.9ZM123.678 93.9C123.678 97.04 126.178 99.24 129.278 99.24C132.378 99.24 134.878 97.04 134.878 93.9C134.878 90.78 132.378 88.56 129.258 88.56C126.178 88.56 123.678 90.78 123.678 93.9ZM126.258 93.9C126.258 92.02 127.618 90.72 129.278 90.72C130.938 90.72 132.318 92.02 132.318 93.9C132.318 95.8 130.938 97.08 129.278 97.08C127.618 97.08 126.258 95.8 126.258 93.9ZM136.973 99H139.513V94.42C139.513 92.72 140.353 90.88 142.133 90.88C143.333 90.88 143.513 91.82 143.513 92.92V99H146.053V94.42C146.053 92.64 146.913 90.88 148.653 90.88C149.813 90.88 150.053 91.76 150.053 92.92V99H152.573V92.44C152.573 89.76 151.373 88.56 149.233 88.56C147.633 88.56 146.313 89.6 145.753 90.66H145.713C145.293 89.28 144.293 88.56 142.753 88.56C141.153 88.56 139.893 89.72 139.413 90.72H139.373C139.373 90.72 139.413 90.4 139.413 90V88.8H136.973V99ZM155.215 103H157.755V98.68C157.755 98.16 157.695 97.8 157.695 97.8H157.735C158.455 98.72 159.515 99.24 160.675 99.24C163.355 99.24 165.335 97.14 165.335 93.9C165.335 90.74 163.575 88.56 160.815 88.56C159.435 88.56 158.195 89.18 157.535 90.28H157.495C157.495 90.28 157.535 89.94 157.535 89.56V88.8H155.215V103ZM157.675 93.96C157.675 91.7 158.915 90.74 160.255 90.74C161.735 90.74 162.775 92 162.775 93.94C162.775 95.96 161.615 97.1 160.215 97.1C158.555 97.1 157.675 95.54 157.675 93.96ZM167.501 95.82C167.501 98.74 169.241 99.1 170.641 99.1C170.981 99.1 171.261 99.06 171.441 99.04V96.82C171.301 96.84 171.161 96.84 171.061 96.84C170.401 96.84 170.021 96.56 170.021 95.44V84.8H167.501V95.82ZM173.282 87.06H175.822V84.8H173.282V87.06ZM173.282 99H175.822V88.8H173.282V99ZM177.916 93.9C177.916 96.86 180.076 99.24 183.456 99.24C185.096 99.24 186.696 98.6 187.656 97.58L186.676 95.78C185.916 96.52 184.756 97.08 183.676 97.08C181.716 97.08 180.496 95.6 180.496 93.88C180.496 92.14 181.716 90.72 183.596 90.72C184.596 90.72 185.596 91.18 186.236 91.82L187.376 90.08C186.396 89.02 184.836 88.56 183.456 88.56C180.076 88.56 177.916 91 177.916 93.9ZM188.713 96.18C188.713 98.04 190.233 99.24 192.073 99.24C193.453 99.24 194.673 98.48 195.293 97.4H195.333C195.333 97.4 195.273 97.72 195.273 98.14V99H197.633V92.62C197.633 90.04 196.053 88.56 193.393 88.56C191.873 88.56 190.233 89.14 189.393 89.82L190.333 91.64C191.153 91.08 192.173 90.66 193.173 90.66C194.233 90.66 195.093 91.12 195.093 92.46V92.6H194.653C192.393 92.6 188.713 93.12 188.713 96.18ZM191.233 95.96C191.233 94.52 193.393 94.34 194.673 94.34H195.113V94.62C195.113 95.86 194.193 97.3 192.773 97.3C191.753 97.3 191.233 96.64 191.233 95.96ZM200.735 95.26C200.735 98.68 203.555 99.1 204.975 99.1C205.315 99.1 205.555 99.06 205.755 99.04V96.82C205.555 96.86 205.435 96.86 205.295 96.86C204.595 96.86 203.275 96.62 203.275 94.94V90.96H205.595V88.94H203.275V86.02H200.795V88.94H199.415V90.96H200.735V95.26ZM206.998 93.9C206.998 96.8 209.118 99.24 212.498 99.24C213.958 99.24 215.558 98.7 216.598 97.78L215.598 95.96C214.778 96.62 213.718 97.08 212.678 97.08C211.138 97.08 209.778 96.16 209.618 94.38H216.638C216.678 94.06 216.718 93.72 216.718 93.4C216.718 90.7 215.118 88.56 212.198 88.56C209.138 88.56 206.998 90.76 206.998 93.9ZM209.678 92.64C209.918 91.34 210.838 90.48 212.138 90.48C213.278 90.48 214.158 91.28 214.178 92.64H209.678ZM218.249 93.9C218.249 97.06 220.029 99.24 222.769 99.24C224.229 99.24 225.389 98.52 225.989 97.48H226.029C226.029 97.48 225.989 97.74 225.989 98.12V99H228.369V84.8H225.849V89.3C225.849 89.64 225.889 89.9 225.889 89.9H225.849C225.189 88.98 224.009 88.56 222.869 88.56C220.169 88.56 218.249 90.66 218.249 93.9ZM220.809 93.9C220.809 91.88 221.989 90.74 223.369 90.74C225.089 90.74 225.909 92.3 225.909 93.88C225.909 96.14 224.669 97.1 223.349 97.1C221.849 97.1 220.809 95.84 220.809 93.9ZM43.86 125.26C43.86 128.68 46.68 129.1 48.1 129.1C48.44 129.1 48.68 129.06 48.88 129.04V126.82C48.68 126.86 48.56 126.86 48.42 126.86C47.72 126.86 46.4 126.62 46.4 124.94V120.96H48.72V118.94H46.4V116.02H43.92V118.94H42.54V120.96H43.86V125.26ZM50.1228 123.9C50.1228 126.8 52.2428 129.24 55.6228 129.24C57.0828 129.24 58.6828 128.7 59.7228 127.78L58.7228 125.96C57.9028 126.62 56.8428 127.08 55.8028 127.08C54.2628 127.08 52.9028 126.16 52.7428 124.38H59.7628C59.8028 124.06 59.8428 123.72 59.8428 123.4C59.8428 120.7 58.2428 118.56 55.3228 118.56C52.2628 118.56 50.1228 120.76 50.1228 123.9ZM52.8028 122.64C53.0428 121.34 53.9628 120.48 55.2628 120.48C56.4028 120.48 57.2828 121.28 57.3028 122.64H52.8028ZM61.9538 129H64.4938V124.88C64.4938 122.96 65.4138 121.16 67.4938 121.16C67.7138 121.16 68.0138 121.18 68.1138 121.2V118.7C67.9538 118.68 67.7938 118.66 67.6338 118.66C66.0938 118.66 64.8538 119.86 64.3938 121.3H64.3538C64.3538 121.3 64.3938 120.98 64.3938 120.6V118.8H61.9538V129ZM69.8834 129H72.4234V124.42C72.4234 122.72 73.2634 120.88 75.0434 120.88C76.2434 120.88 76.4234 121.82 76.4234 122.92V129H78.9634V124.42C78.9634 122.64 79.8234 120.88 81.5634 120.88C82.7234 120.88 82.9634 121.76 82.9634 122.92V129H85.4834V122.44C85.4834 119.76 84.2834 118.56 82.1434 118.56C80.5434 118.56 79.2234 119.6 78.6634 120.66H78.6234C78.2034 119.28 77.2034 118.56 75.6634 118.56C74.0634 118.56 72.8034 119.72 72.3234 120.72H72.2834C72.2834 120.72 72.3234 120.4 72.3234 120V118.8H69.8834V129ZM87.3056 127.74C88.3656 128.76 89.8856 129.24 91.3056 129.24C93.6456 129.24 95.1656 127.9 95.1656 126.1C95.1656 122.76 90.1056 123.22 90.1056 121.6C90.1056 120.96 90.6456 120.62 91.5256 120.62C92.4256 120.62 93.5056 120.98 94.1056 121.5L95.0456 119.72C94.1056 118.9 92.8256 118.56 91.6056 118.56C89.4656 118.56 87.7056 119.62 87.7056 121.62C87.7056 124.96 92.7656 124.56 92.7656 126.16C92.7656 126.8 92.2456 127.18 91.3456 127.18C90.3256 127.18 89.2056 126.76 88.4456 126.06L87.3056 127.74Z" fill="white"/>
</svg>
