<svg width="256" height="190" viewBox="0 0 256 190" fill="none" xmlns="http://www.w3.org/2000/svg">
<rect width="256" height="190" rx="18" fill="#F5F6FA"/>
<mask id="mask0" mask-type="alpha" maskUnits="userSpaceOnUse" x="0" y="0" width="256" height="190">
<rect width="256" height="190" rx="18" fill="#F5F6FA"/>
</mask>
<g mask="url(#mask0)">
<path d="M185.235 60.185H214.881V50.708C214.881 24.464 257.406 19.847 257.406 -20.248C257.406 -48.922 231.648 -65.932 204.189 -65.932C184.506 -65.932 168.225 -57.67 158.505 -48.436L175.758 -27.295C182.805 -33.127 192.039 -37.501 201.516 -37.501C214.881 -37.501 225.087 -28.753 225.087 -17.332C225.087 8.426 185.235 13.286 185.235 48.521V60.185ZM184.992 110H214.881V81.083H184.992V110Z" fill="#FCFCFC"/>
</g>
<path d="M46 69H48.94L51.14 60.6C51.38 59.68 51.52 58.74 51.52 58.74H51.58C51.58 58.74 51.72 59.68 51.94 60.6L54.16 69H57.06L60.74 54.8H58.08L55.72 64.62C55.54 65.42 55.5 66.12 55.5 66.12H55.46C55.46 66.12 55.38 65.44 55.16 64.62L52.64 54.8H50.48L47.94 64.62C47.72 65.44 47.64 66.12 47.64 66.12H47.6C47.6 66.12 47.54 65.42 47.36 64.62L45.16 54.8H42.46L46 69ZM62.4811 69H65.0211V64.26C65.0211 62.32 66.1811 60.88 67.9611 60.88C69.2411 60.88 69.5611 61.72 69.5611 62.96V69H72.1011V62.44C72.1011 59.74 70.8011 58.56 68.5411 58.56C66.7811 58.56 65.5011 59.64 65.0011 60.62H64.9611C64.9611 60.62 65.0211 60.26 65.0211 59.76V54.8H62.4811V69ZM73.9472 66.18C73.9472 68.04 75.4672 69.24 77.3072 69.24C78.6872 69.24 79.9072 68.48 80.5272 67.4H80.5672C80.5672 67.4 80.5072 67.72 80.5072 68.14V69H82.8672V62.62C82.8672 60.04 81.2872 58.56 78.6272 58.56C77.1072 58.56 75.4672 59.14 74.6272 59.82L75.5672 61.64C76.3872 61.08 77.4072 60.66 78.4072 60.66C79.4672 60.66 80.3272 61.12 80.3272 62.46V62.6H79.8872C77.6272 62.6 73.9472 63.12 73.9472 66.18ZM76.4672 65.96C76.4672 64.52 78.6272 64.34 79.9072 64.34H80.3472V64.62C80.3472 65.86 79.4272 67.3 78.0072 67.3C76.9872 67.3 76.4672 66.64 76.4672 65.96ZM85.9694 65.26C85.9694 68.68 88.7894 69.1 90.2094 69.1C90.5494 69.1 90.7894 69.06 90.9894 69.04V66.82C90.7894 66.86 90.6694 66.86 90.5294 66.86C89.8294 66.86 88.5094 66.62 88.5094 64.94V60.96H90.8294V58.94H88.5094V56.02H86.0294V58.94H84.6494V60.96H85.9694V65.26ZM97.9303 57.06H100.47V54.8H97.9303V57.06ZM97.9303 69H100.47V58.8H97.9303V69ZM102.364 67.74C103.424 68.76 104.944 69.24 106.364 69.24C108.704 69.24 110.224 67.9 110.224 66.1C110.224 62.76 105.164 63.22 105.164 61.6C105.164 60.96 105.704 60.62 106.584 60.62C107.484 60.62 108.564 60.98 109.164 61.5L110.104 59.72C109.164 58.9 107.884 58.56 106.664 58.56C104.524 58.56 102.764 59.62 102.764 61.62C102.764 64.96 107.824 64.56 107.824 66.16C107.824 66.8 107.304 67.18 106.404 67.18C105.384 67.18 104.264 66.76 103.504 66.06L102.364 67.74ZM116.545 66.18C116.545 68.04 118.065 69.24 119.905 69.24C121.285 69.24 122.505 68.48 123.125 67.4H123.165C123.165 67.4 123.105 67.72 123.105 68.14V69H125.465V62.62C125.465 60.04 123.885 58.56 121.225 58.56C119.705 58.56 118.065 59.14 117.225 59.82L118.165 61.64C118.985 61.08 120.005 60.66 121.005 60.66C122.065 60.66 122.925 61.12 122.925 62.46V62.6H122.485C120.225 62.6 116.545 63.12 116.545 66.18ZM119.065 65.96C119.065 64.52 121.225 64.34 122.505 64.34H122.945V64.62C122.945 65.86 122.025 67.3 120.605 67.3C119.585 67.3 119.065 66.64 119.065 65.96ZM132.247 67.74C133.307 68.76 134.827 69.24 136.247 69.24C138.587 69.24 140.107 67.9 140.107 66.1C140.107 62.76 135.047 63.22 135.047 61.6C135.047 60.96 135.587 60.62 136.467 60.62C137.367 60.62 138.447 60.98 139.047 61.5L139.987 59.72C139.047 58.9 137.767 58.56 136.547 58.56C134.407 58.56 132.647 59.62 132.647 61.62C132.647 64.96 137.707 64.56 137.707 66.16C137.707 66.8 137.187 67.18 136.287 67.18C135.267 67.18 134.147 66.76 133.387 66.06L132.247 67.74ZM141.588 63.9C141.588 66.8 143.708 69.24 147.088 69.24C148.548 69.24 150.148 68.7 151.188 67.78L150.188 65.96C149.368 66.62 148.308 67.08 147.268 67.08C145.728 67.08 144.368 66.16 144.208 64.38H151.228C151.268 64.06 151.308 63.72 151.308 63.4C151.308 60.7 149.708 58.56 146.788 58.56C143.728 58.56 141.588 60.76 141.588 63.9ZM144.268 62.64C144.508 61.34 145.428 60.48 146.728 60.48C147.868 60.48 148.748 61.28 148.768 62.64H144.268ZM153.419 69H155.959V64.22C155.959 62.38 157.099 60.88 158.899 60.88C160.179 60.88 160.499 61.72 160.499 62.96V69H163.039V62.44C163.039 59.74 161.739 58.56 159.479 58.56C157.419 58.56 156.279 59.86 155.859 60.72H155.819C155.819 60.72 155.859 60.4 155.859 60V58.8H153.419V69ZM164.845 67.74C165.905 68.76 167.425 69.24 168.845 69.24C171.185 69.24 172.705 67.9 172.705 66.1C172.705 62.76 167.645 63.22 167.645 61.6C167.645 60.96 168.185 60.62 169.065 60.62C169.965 60.62 171.045 60.98 171.645 61.5L172.585 59.72C171.645 58.9 170.365 58.56 169.145 58.56C167.005 58.56 165.245 59.62 165.245 61.62C165.245 64.96 170.305 64.56 170.305 66.16C170.305 66.8 169.785 67.18 168.885 67.18C167.865 67.18 166.745 66.76 165.985 66.06L164.845 67.74ZM174.185 63.9C174.185 66.8 176.305 69.24 179.685 69.24C181.145 69.24 182.745 68.7 183.785 67.78L182.785 65.96C181.965 66.62 180.905 67.08 179.865 67.08C178.325 67.08 176.965 66.16 176.805 64.38H183.825C183.865 64.06 183.905 63.72 183.905 63.4C183.905 60.7 182.305 58.56 179.385 58.56C176.325 58.56 174.185 60.76 174.185 63.9ZM176.865 62.64C177.105 61.34 178.025 60.48 179.325 60.48C180.465 60.48 181.345 61.28 181.365 62.64H176.865ZM42.74 93.9C42.74 97.04 45.24 99.24 48.34 99.24C51.44 99.24 53.94 97.04 53.94 93.9C53.94 90.78 51.44 88.56 48.32 88.56C45.24 88.56 42.74 90.78 42.74 93.9ZM45.32 93.9C45.32 92.02 46.68 90.72 48.34 90.72C50 90.72 51.38 92.02 51.38 93.9C51.38 95.8 50 97.08 48.34 97.08C46.68 97.08 45.32 95.8 45.32 93.9ZM56.4791 99H59.0191V90.96H61.2191V88.94H59.0191V88.56C59.0191 87.08 60.2591 86.9 60.9991 86.9C61.2191 86.9 61.4391 86.92 61.5191 86.94V84.78C61.2191 84.72 60.9591 84.72 60.6591 84.72C59.2391 84.72 56.4791 85.16 56.4791 88.5V88.94H55.2191V90.96H56.4791V99ZM67.0173 93.9C67.0173 96.86 69.1773 99.24 72.5573 99.24C74.1973 99.24 75.7973 98.6 76.7573 97.58L75.7773 95.78C75.0173 96.52 73.8573 97.08 72.7773 97.08C70.8173 97.08 69.5973 95.6 69.5973 93.88C69.5973 92.14 70.8173 90.72 72.6973 90.72C73.6973 90.72 74.6973 91.18 75.3373 91.82L76.4773 90.08C75.4973 89.02 73.9373 88.56 72.5573 88.56C69.1773 88.56 67.0173 91 67.0173 93.9ZM78.5944 99H81.1344V94.26C81.1344 92.32 82.2944 90.88 84.0744 90.88C85.3544 90.88 85.6744 91.72 85.6744 92.96V99H88.2144V92.44C88.2144 89.74 86.9144 88.56 84.6544 88.56C82.8944 88.56 81.6144 89.64 81.1144 90.62H81.0744C81.0744 90.62 81.1344 90.26 81.1344 89.76V84.8H78.5944V99ZM90.2205 93.9C90.2205 96.8 92.3405 99.24 95.7205 99.24C97.1805 99.24 98.7805 98.7 99.8205 97.78L98.8205 95.96C98.0005 96.62 96.9405 97.08 95.9005 97.08C94.3605 97.08 93.0005 96.16 92.8405 94.38H99.8605C99.9005 94.06 99.9405 93.72 99.9405 93.4C99.9405 90.7 98.3405 88.56 95.4205 88.56C92.3605 88.56 90.2205 90.76 90.2205 93.9ZM92.9005 92.64C93.1405 91.34 94.0605 90.48 95.3605 90.48C96.5005 90.48 97.3805 91.28 97.4005 92.64H92.9005ZM102.051 99H104.591V94.42C104.591 92.72 105.431 90.88 107.211 90.88C108.411 90.88 108.591 91.82 108.591 92.92V99H111.131V94.42C111.131 92.64 111.991 90.88 113.731 90.88C114.891 90.88 115.131 91.76 115.131 92.92V99H117.651V92.44C117.651 89.76 116.451 88.56 114.311 88.56C112.711 88.56 111.391 89.6 110.831 90.66H110.791C110.371 89.28 109.371 88.56 107.831 88.56C106.231 88.56 104.971 89.72 104.491 90.72H104.451C104.451 90.72 104.491 90.4 104.491 90V88.8H102.051V99ZM120.294 87.06H122.834V84.8H120.294V87.06ZM120.294 99H122.834V88.8H120.294V99ZM124.928 93.9C124.928 96.86 127.088 99.24 130.468 99.24C132.108 99.24 133.708 98.6 134.668 97.58L133.688 95.78C132.928 96.52 131.768 97.08 130.688 97.08C128.728 97.08 127.508 95.6 127.508 93.88C127.508 92.14 128.728 90.72 130.608 90.72C131.608 90.72 132.608 91.18 133.248 91.82L134.388 90.08C133.408 89.02 131.848 88.56 130.468 88.56C127.088 88.56 124.928 91 124.928 93.9ZM135.725 96.18C135.725 98.04 137.245 99.24 139.085 99.24C140.465 99.24 141.685 98.48 142.305 97.4H142.345C142.345 97.4 142.285 97.72 142.285 98.14V99H144.645V92.62C144.645 90.04 143.065 88.56 140.405 88.56C138.885 88.56 137.245 89.14 136.405 89.82L137.345 91.64C138.165 91.08 139.185 90.66 140.185 90.66C141.245 90.66 142.105 91.12 142.105 92.46V92.6H141.665C139.405 92.6 135.725 93.12 135.725 96.18ZM138.245 95.96C138.245 94.52 140.405 94.34 141.685 94.34H142.125V94.62C142.125 95.86 141.205 97.3 139.785 97.3C138.765 97.3 138.245 96.64 138.245 95.96ZM147.247 95.82C147.247 98.74 148.987 99.1 150.387 99.1C150.727 99.1 151.007 99.06 151.187 99.04V96.82C151.047 96.84 150.907 96.84 150.807 96.84C150.147 96.84 149.767 96.56 149.767 95.44V84.8H147.247V95.82ZM43.36 129H45.9V124.88C45.9 122.96 46.82 121.16 48.9 121.16C49.12 121.16 49.42 121.18 49.52 121.2V118.7C49.36 118.68 49.2 118.66 49.04 118.66C47.5 118.66 46.26 119.86 45.8 121.3H45.76C45.76 121.3 45.8 120.98 45.8 120.6V118.8H43.36V129ZM50.4939 123.9C50.4939 126.8 52.6139 129.24 55.9939 129.24C57.4539 129.24 59.0539 128.7 60.0939 127.78L59.0939 125.96C58.2739 126.62 57.2139 127.08 56.1739 127.08C54.6339 127.08 53.2739 126.16 53.1139 124.38H60.1339C60.1739 124.06 60.2139 123.72 60.2139 123.4C60.2139 120.7 58.6139 118.56 55.6939 118.56C52.6339 118.56 50.4939 120.76 50.4939 123.9ZM53.1739 122.64C53.4139 121.34 54.3339 120.48 55.6339 120.48C56.7739 120.48 57.6539 121.28 57.6739 122.64H53.1739ZM61.5448 126.18C61.5448 128.04 63.0648 129.24 64.9048 129.24C66.2848 129.24 67.5048 128.48 68.1248 127.4H68.1648C68.1648 127.4 68.1048 127.72 68.1048 128.14V129H70.4648V122.62C70.4648 120.04 68.8848 118.56 66.2248 118.56C64.7048 118.56 63.0648 119.14 62.2248 119.82L63.1648 121.64C63.9848 121.08 65.0048 120.66 66.0048 120.66C67.0648 120.66 67.9248 121.12 67.9248 122.46V122.6H67.4848C65.2248 122.6 61.5448 123.12 61.5448 126.18ZM64.0648 125.96C64.0648 124.52 66.2248 124.34 67.5048 124.34H67.9448V124.62C67.9448 125.86 67.0248 127.3 65.6048 127.3C64.5848 127.3 64.0648 126.64 64.0648 125.96ZM72.447 123.9C72.447 126.86 74.607 129.24 77.987 129.24C79.627 129.24 81.227 128.6 82.187 127.58L81.207 125.78C80.447 126.52 79.287 127.08 78.207 127.08C76.247 127.08 75.027 125.6 75.027 123.88C75.027 122.14 76.247 120.72 78.127 120.72C79.127 120.72 80.127 121.18 80.767 121.82L81.907 120.08C80.927 119.02 79.367 118.56 77.987 118.56C74.607 118.56 72.447 121 72.447 123.9ZM84.5241 125.26C84.5241 128.68 87.3441 129.1 88.7641 129.1C89.1041 129.1 89.3441 129.06 89.5441 129.04V126.82C89.3441 126.86 89.2241 126.86 89.0841 126.86C88.3841 126.86 87.0641 126.62 87.0641 124.94V120.96H89.3841V118.94H87.0641V116.02H84.5841V118.94H83.2041V120.96H84.5241V125.26ZM91.485 117.06H94.025V114.8H91.485V117.06ZM91.485 129H94.025V118.8H91.485V129ZM96.1189 123.9C96.1189 127.04 98.6189 129.24 101.719 129.24C104.819 129.24 107.319 127.04 107.319 123.9C107.319 120.78 104.819 118.56 101.699 118.56C98.6189 118.56 96.1189 120.78 96.1189 123.9ZM98.6989 123.9C98.6989 122.02 100.059 120.72 101.719 120.72C103.379 120.72 104.759 122.02 104.759 123.9C104.759 125.8 103.379 127.08 101.719 127.08C100.059 127.08 98.6989 125.8 98.6989 123.9ZM109.415 129H111.955V124.22C111.955 122.38 113.095 120.88 114.895 120.88C116.175 120.88 116.495 121.72 116.495 122.96V129H119.035V122.44C119.035 119.74 117.735 118.56 115.475 118.56C113.415 118.56 112.275 119.86 111.855 120.72H111.815C111.815 120.72 111.855 120.4 111.855 120V118.8H109.415V129ZM120.841 127.74C121.901 128.76 123.421 129.24 124.841 129.24C127.181 129.24 128.701 127.9 128.701 126.1C128.701 122.76 123.641 123.22 123.641 121.6C123.641 120.96 124.181 120.62 125.061 120.62C125.961 120.62 127.041 120.98 127.641 121.5L128.581 119.72C127.641 118.9 126.361 118.56 125.141 118.56C123.001 118.56 121.241 119.62 121.241 121.62C121.241 124.96 126.301 124.56 126.301 126.16C126.301 126.8 125.781 127.18 124.881 127.18C123.861 127.18 122.741 126.76 121.981 126.06L120.841 127.74ZM132.341 124.9H134.781V124.12C134.781 121.96 138.281 121.58 138.281 118.28C138.281 115.92 136.161 114.52 133.901 114.52C132.281 114.52 130.941 115.2 130.141 115.96L131.561 117.7C132.141 117.22 132.901 116.86 133.681 116.86C134.781 116.86 135.621 117.58 135.621 118.52C135.621 120.64 132.341 121.04 132.341 123.94V124.9ZM132.321 129H134.781V126.62H132.321V129Z" fill="#505257"/>
</svg>
