<svg width="967" height="298" viewBox="0 0 967 298" fill="none" xmlns="http://www.w3.org/2000/svg">
<path d="M0 4.40122C0 2.86065 0 2.09037 0.299609 1.50195C0.563153 0.984356 0.983678 0.563541 1.50091 0.299816C2.08893 0 2.85869 0 4.3982 0H504.602C506.141 0 506.911 0 507.499 0.299816C508.016 0.563541 508.437 0.984356 508.7 1.50195C509 2.09037 509 2.86066 509 4.40123V293.599C509 295.139 509 295.91 508.7 296.498C508.437 297.016 508.016 297.436 507.499 297.7C506.911 298 506.141 298 504.602 298H4.39818C2.85868 298 2.08893 298 1.50091 297.7C0.983678 297.436 0.563153 297.016 0.299609 296.498C0 295.91 0 295.139 0 293.599V4.40122Z" fill="#F3F3F3"/>
<path d="M147 42.3991C147 40.8592 147 40.0893 147.299 39.5012C147.563 38.9839 147.983 38.5633 148.5 38.2997C149.088 38 149.857 38 151.396 38H474.604C476.143 38 476.912 38 477.5 38.2997C478.017 38.5633 478.437 38.9839 478.701 39.5012C479 40.0893 479 40.8592 479 42.399V225.601C479 227.141 479 227.911 478.701 228.499C478.437 229.016 478.017 229.437 477.5 229.7C476.912 230 476.143 230 474.604 230H151.396C149.857 230 149.088 230 148.5 229.7C147.983 229.437 147.563 229.016 147.299 228.499C147 227.911 147 227.141 147 225.601V42.3991Z" fill="white"/>
<mask id="mask0" mask-type="alpha" maskUnits="userSpaceOnUse" x="147" y="38" width="332" height="192">
<path d="M147 42.3991C147 40.8592 147 40.0893 147.299 39.5012C147.563 38.9839 147.983 38.5633 148.5 38.2997C149.088 38 149.857 38 151.396 38H474.604C476.143 38 476.912 38 477.5 38.2997C478.017 38.5633 478.437 38.9839 478.701 39.5012C479 40.0893 479 40.8592 479 42.399V225.601C479 227.141 479 227.911 478.701 228.499C478.437 229.016 478.017 229.437 477.5 229.7C476.912 230 476.143 230 474.604 230H151.396C149.857 230 149.088 230 148.5 229.7C147.983 229.437 147.563 229.016 147.299 228.499C147 227.911 147 227.141 147 225.601V42.3991Z" fill="white"/>
</mask>
<g mask="url(#mask0)">
<path d="M348.549 85.9462H348.549C334.777 89.6913 326.969 105.165 331.109 120.507L336.37 140L342.342 138.376L343.85 130.214L344.935 137.671L383.321 127.232L384.692 119.812L385.678 126.591L390 125.416L385.87 110.11C381.106 92.4554 364.396 81.6367 348.549 85.9462Z" fill="#2F2E41"/>
<path d="M353.5 130C362.613 130 370 122.613 370 113.5C370 104.387 362.613 97 353.5 97C344.387 97 337 104.387 337 113.5C337 122.613 344.387 130 353.5 130Z" fill="#FFB8B8"/>
<path d="M348.27 125.122L347.351 134.282L340 138.405L359.297 181L374 145.733L364.351 138.405L363.432 121L348.27 125.122Z" fill="#FFB8B8"/>
<path d="M439 227.656C438.423 237.171 422.203 244.687 410.29 248.941C406.856 250.172 403.78 251.128 401.536 251.782C400.14 252.189 399.069 252.482 398.437 252.651C398.02 252.761 397.796 252.816 397.796 252.816V242.752L358.881 245.954V273.424C355.853 273.808 352.804 274 349.752 274C337.719 274.019 325.878 270.986 315.338 265.185C315.077 261.75 314.788 258.236 314.472 254.645C314.134 250.775 313.987 247.098 314.001 243.612C314.111 216.353 324.059 200.786 328.001 195.69C328.494 195.034 329.021 194.405 329.581 193.805L331.87 187.859L330.212 177.301L324.618 141.657L324.545 141.199C326.467 139.516 331.563 138.441 335.958 137.805C338.906 137.375 341.543 137.142 342.706 137.046C343.073 137.018 343.292 137.005 343.334 137H343.338L362.086 170.933L368.541 141.68L386.35 149.891C386.35 149.891 383.604 161.327 383.604 170.933C383.601 172.218 383.435 173.497 383.109 174.739C382.347 177.495 381.055 180.076 379.305 182.337C377.772 184.393 375.986 186.248 373.989 187.859L370.327 197.922L373.989 211.646L399.202 204.134L408.097 201.486C408.846 201.263 409.609 201.09 410.382 200.969C413.948 200.401 417.603 200.929 420.863 202.483C424.122 204.036 426.833 206.543 428.635 209.67L439 227.656Z" fill="#2F2E41"/>
<path d="M357.94 91.8925C354.561 89.3673 350.313 88.334 346.189 89.4418L345.699 89.5734C336.255 92.11 330.914 102.639 333.769 113.092V113.092L336.934 112.242L336.391 108.248L338.194 111.903L356.963 106.862L357.644 103.177L358.142 106.546L361.835 105.554C365.876 113.575 365.718 122.724 361.362 133L367.651 131.311L369.013 123.94L370.01 130.677L382 127.457L380.258 111.813C377.186 100.572 367.995 92.8096 357.94 91.8925Z" fill="#2F2E41"/>
<path d="M362 90C366.418 90 370 86.1944 370 81.5C370 76.8056 366.418 73 362 73C357.582 73 354 76.8056 354 81.5C354 86.1944 357.582 90 362 90Z" fill="#2F2E41"/>
<path d="M361.851 86.5255C359.775 86.5267 357.765 85.8257 356.171 84.5448C354.577 83.264 353.5 81.4847 353.129 79.5173C352.758 77.55 353.115 75.5194 354.139 73.78C355.163 72.0407 356.789 70.7028 358.732 70C357.491 70.1534 356.298 70.5582 355.231 71.1878C354.164 71.8173 353.248 72.6574 352.543 73.6527C351.837 74.6479 351.359 75.7759 351.138 76.9622C350.918 78.1485 350.961 79.3663 351.265 80.5354C351.568 81.7046 352.125 82.7986 352.899 83.7454C353.673 84.6922 354.646 85.4704 355.755 86.0288C356.863 86.5871 358.082 86.9129 359.331 86.9848C360.58 87.0567 361.83 86.873 363 86.4458C362.619 86.4962 362.235 86.5229 361.851 86.5255Z" fill="#2F2E41"/>
<path d="M364.5 116C365.881 116 367 114.657 367 113C367 111.343 365.881 110 364.5 110C363.119 110 362 111.343 362 113C362 114.657 363.119 116 364.5 116Z" fill="#FFB8B8"/>
<path d="M319.426 169L318.058 187.2C318.058 187.2 311.675 197.211 310.308 218.596L309.852 231.791C309.852 231.791 300.278 250.447 308.028 249.992C315.779 249.537 315.323 232.246 315.323 232.246L329 192.661V173.55L319.426 169Z" fill="#FFB8B8"/>
<path d="M327.532 142H324.404C324.404 142 319.489 145.19 315.468 158.861C311.447 172.532 311 172.987 311 172.987L332 178L327.532 142Z" fill="#2F2E41"/>
<path d="M394.496 167L401.829 185.072C401.829 185.072 409.62 194.34 410.995 204.534L413.287 216.582C413.287 216.582 418.786 237.897 410.079 236.971C401.371 236.044 403.662 215.655 403.662 215.655L402.287 209.631L394.496 196.656L383 174.562L394.496 167Z" fill="#FFB8B8"/>
<path d="M380.51 148L386.373 149.85L399 169.275L376 185L380.51 148Z" fill="#2F2E41"/>
</g>
<path d="M147 21.8444C147 20.8488 147 20.351 147.199 19.9707C147.374 19.6362 147.653 19.3642 147.996 19.1938C148.386 19 148.897 19 149.918 19H201.082C202.103 19 202.614 19 203.004 19.1938C203.347 19.3642 203.626 19.6362 203.801 19.9707C204 20.351 204 20.8488 204 21.8444V24.1556C204 25.1512 204 25.649 203.801 26.0293C203.626 26.3638 203.347 26.6358 203.004 26.8062C202.614 27 202.103 27 201.082 27H149.918C148.897 27 148.386 27 147.996 26.8062C147.653 26.6358 147.374 26.3638 147.199 26.0293C147 25.649 147 25.1512 147 24.1556V21.8444Z" fill="#424754"/>
<path d="M147 243.455C147 242.945 147 242.691 147.099 242.496C147.187 242.325 147.326 242.186 147.498 242.099C147.693 242 147.948 242 148.459 242H202.541C203.052 242 203.307 242 203.502 242.099C203.674 242.186 203.813 242.325 203.901 242.496C204 242.691 204 242.945 204 243.455V245.545C204 246.055 204 246.309 203.901 246.504C203.813 246.675 203.674 246.814 203.502 246.901C203.307 247 203.052 247 202.541 247H148.459C147.948 247 147.693 247 147.498 246.901C147.326 246.814 147.187 246.675 147.099 246.504C147 246.309 147 246.055 147 245.545V243.455Z" fill="#424754"/>
<path d="M147 256.455C147 255.945 147 255.691 147.1 255.496C147.187 255.325 147.327 255.186 147.5 255.099C147.695 255 147.951 255 148.464 255H376.536C377.049 255 377.305 255 377.5 255.099C377.673 255.186 377.813 255.325 377.9 255.496C378 255.691 378 255.945 378 256.455V258.545C378 259.055 378 259.309 377.9 259.504C377.813 259.675 377.673 259.814 377.5 259.901C377.305 260 377.049 260 376.536 260H148.464C147.951 260 147.695 260 147.5 259.901C147.327 259.814 147.187 259.675 147.1 259.504C147 259.309 147 259.055 147 258.545V256.455Z" fill="#97999D"/>
<path d="M147 266.455C147 265.945 147 265.691 147.1 265.496C147.187 265.325 147.327 265.186 147.5 265.099C147.695 265 147.951 265 148.464 265H376.536C377.049 265 377.305 265 377.5 265.099C377.673 265.186 377.813 265.325 377.9 265.496C378 265.691 378 265.945 378 266.455V268.545C378 269.055 378 269.309 377.9 269.504C377.813 269.675 377.673 269.814 377.5 269.901C377.305 270 377.049 270 376.536 270H148.464C147.951 270 147.695 270 147.5 269.901C147.327 269.814 147.187 269.675 147.1 269.504C147 269.309 147 269.055 147 268.545V266.455Z" fill="#97999D"/>
<path d="M0 4.40122C0 2.86065 0 2.09037 0.298881 1.50195C0.561783 0.984356 0.981285 0.563541 1.49726 0.299816C2.08385 0 2.85173 0 4.3875 0H112.612C114.148 0 114.916 0 115.503 0.299816C116.019 0.563541 116.438 0.984356 116.701 1.50195C117 2.09037 117 2.86066 117 4.40123V293.599C117 295.139 117 295.91 116.701 296.498C116.438 297.016 116.019 297.436 115.503 297.7C114.916 298 114.148 298 112.612 298H4.3875C2.85173 298 2.08385 298 1.49726 297.7C0.981285 297.436 0.561783 297.016 0.298881 296.498C0 295.91 0 295.139 0 293.599V4.40122Z" fill="#FFEAEC"/>
<path d="M0 60.4979C0 59.9736 0 59.7114 0.100018 59.5112C0.187995 59.335 0.328378 59.1918 0.501044 59.102C0.697339 59 0.954305 59 1.46824 59H115.532C116.046 59 116.303 59 116.499 59.102C116.672 59.1918 116.812 59.335 116.9 59.5112C117 59.7114 117 59.9736 117 60.4979V79.5021C117 80.0264 117 80.2886 116.9 80.4888C116.812 80.665 116.672 80.8082 116.499 80.898C116.303 81 116.046 81 115.532 81H1.46823C0.954303 81 0.697339 81 0.501044 80.898C0.328378 80.8082 0.187995 80.665 0.100018 80.4888C0 80.2886 0 80.0264 0 79.5021V60.4979Z" fill="#FFEAEC"/>
<path d="M30 68.4545C30 67.9454 30 67.6908 30.0994 67.4964C30.1868 67.3253 30.3264 67.1862 30.498 67.0991C30.693 67 30.9484 67 31.4592 67H85.5408C86.0516 67 86.307 67 86.502 67.0991C86.6736 67.1862 86.8132 67.3253 86.9006 67.4964C87 67.6908 87 67.9454 87 68.4545V70.5455C87 71.0546 87 71.3092 86.9006 71.5036C86.8132 71.6747 86.6736 71.8138 86.502 71.9009C86.307 72 86.0516 72 85.5408 72H31.4592C30.9484 72 30.693 72 30.498 71.9009C30.3264 71.8138 30.1868 71.6747 30.0994 71.5036C30 71.3092 30 71.0546 30 70.5455V68.4545Z" fill="#F04B5D"/>
<path d="M55 20.4545C55 19.9454 55 19.6908 55.0987 19.4964C55.1855 19.3253 55.3239 19.1862 55.4943 19.0991C55.6879 19 55.9414 19 56.4484 19H96.5516C97.0586 19 97.3121 19 97.5057 19.0991C97.6761 19.1862 97.8145 19.3253 97.9013 19.4964C98 19.6908 98 19.9454 98 20.4545V22.5455C98 23.0546 98 23.3092 97.9013 23.5036C97.8145 23.6747 97.6761 23.8138 97.5057 23.9009C97.3121 24 97.0586 24 96.5516 24H56.4484C55.9414 24 55.6879 24 55.4943 23.9009C55.3239 23.8138 55.1855 23.6747 55.0987 23.5036C55 23.3092 55 23.0546 55 22.5455V20.4545Z" fill="#424754"/>
<path d="M30 15.4452C30 14.9393 30 14.6864 30.1017 14.4932C30.1912 14.3232 30.334 14.185 30.5096 14.0984C30.7093 14 30.9706 14 31.4933 14H42.5067C43.0294 14 43.2907 14 43.4904 14.0984C43.666 14.185 43.8088 14.3232 43.8983 14.4932C44 14.6864 44 14.9393 44 15.4452V26.5548C44 27.0607 44 27.3136 43.8983 27.5068C43.8088 27.6768 43.666 27.815 43.4904 27.9016C43.2907 28 43.0294 28 42.5067 28H31.4933C30.9706 28 30.7093 28 30.5096 27.9016C30.334 27.815 30.1912 27.6768 30.1017 27.5068C30 27.3136 30 27.0607 30 26.5548V15.4452Z" fill="#424754"/>
<path d="M30 90.4545C30 89.9454 30 89.6908 30.0994 89.4964C30.1868 89.3253 30.3264 89.1862 30.498 89.0991C30.693 89 30.9484 89 31.4592 89H85.5408C86.0516 89 86.307 89 86.502 89.0991C86.6736 89.1862 86.8132 89.3253 86.9006 89.4964C87 89.6908 87 89.9454 87 90.4545V92.5455C87 93.0546 87 93.3092 86.9006 93.5036C86.8132 93.6747 86.6736 93.8138 86.502 93.9009C86.307 94 86.0516 94 85.5408 94H31.4592C30.9484 94 30.693 94 30.498 93.9009C30.3264 93.8138 30.1868 93.6747 30.0994 93.5036C30 93.3092 30 93.0546 30 92.5455V90.4545Z" fill="#424754"/>
<path d="M30 111.455C30 110.945 30 110.691 30.0994 110.496C30.1868 110.325 30.3264 110.186 30.498 110.099C30.693 110 30.9484 110 31.4592 110H85.5408C86.0516 110 86.307 110 86.502 110.099C86.6736 110.186 86.8132 110.325 86.9006 110.496C87 110.691 87 110.945 87 111.455V113.545C87 114.055 87 114.309 86.9006 114.504C86.8132 114.675 86.6736 114.814 86.502 114.901C86.307 115 86.0516 115 85.5408 115H31.4592C30.9484 115 30.693 115 30.498 114.901C30.3264 114.814 30.1868 114.675 30.0994 114.504C30 114.309 30 114.055 30 113.545V111.455Z" fill="#424754"/>
<path d="M30 133.455C30 132.945 30 132.691 30.0994 132.496C30.1868 132.325 30.3264 132.186 30.498 132.099C30.693 132 30.9484 132 31.4592 132H85.5408C86.0516 132 86.307 132 86.502 132.099C86.6736 132.186 86.8132 132.325 86.9006 132.496C87 132.691 87 132.945 87 133.455V135.545C87 136.055 87 136.309 86.9006 136.504C86.8132 136.675 86.6736 136.814 86.502 136.901C86.307 137 86.0516 137 85.5408 137H31.4592C30.9484 137 30.693 137 30.498 136.901C30.3264 136.814 30.1868 136.675 30.0994 136.504C30 136.309 30 136.055 30 135.545V133.455Z" fill="#424754"/>
<path d="M30 154.745C30 154.134 30 153.829 30.0994 153.596C30.1868 153.39 30.3264 153.223 30.498 153.119C30.693 153 30.9484 153 31.4592 153H85.5408C86.0516 153 86.307 153 86.502 153.119C86.6736 153.223 86.8132 153.39 86.9006 153.596C87 153.829 87 154.134 87 154.745V157.255C87 157.866 87 158.171 86.9006 158.404C86.8132 158.61 86.6736 158.777 86.502 158.881C86.307 159 86.0516 159 85.5408 159H31.4592C30.9484 159 30.693 159 30.498 158.881C30.3264 158.777 30.1868 158.61 30.0994 158.404C30 158.171 30 157.866 30 157.255V154.745Z" fill="#424754"/>
<path d="M465 50C465 51.1046 464.105 52 463 52C461.895 52 461 51.1046 461 50C461 48.8954 461.895 48 463 48C464.105 48 465 48.8954 465 50Z" fill="#F04B5D"/>
<path d="M445 50C445 49.6894 445 49.5341 445.068 49.4115C445.159 49.2482 445.334 49.1184 445.553 49.0507C445.718 49 445.927 49 446.345 49H456.655C457.073 49 457.282 49 457.447 49.0507C457.666 49.1184 457.841 49.2482 457.932 49.4115C458 49.5341 458 49.6894 458 50C458 50.3106 458 50.4659 457.932 50.5885C457.841 50.7518 457.666 50.8816 457.447 50.9493C457.282 51 457.073 51 456.655 51H446.345C445.927 51 445.718 51 445.553 50.9493C445.334 50.8816 445.159 50.7518 445.068 50.5885C445 50.4659 445 50.3106 445 50Z" fill="#97999D"/>
<path d="M673.136 65H679.436V54.452L687.932 39.26H680.768L677.888 45.452C677.06 47.216 676.34 49.16 676.34 49.16H676.268C676.268 49.16 675.548 47.216 674.72 45.452L671.804 39.26H664.64L673.136 54.452V65ZM685.872 55.784C685.872 61.58 690.552 65.432 696.384 65.432C702.216 65.432 706.896 61.58 706.896 55.784C706.896 49.952 702.216 46.028 696.348 46.028C690.552 46.028 685.872 49.952 685.872 55.784ZM692.172 55.784C692.172 52.976 694.116 51.212 696.384 51.212C698.652 51.212 700.596 52.976 700.596 55.784C700.596 58.556 698.652 60.248 696.384 60.248C694.116 60.248 692.172 58.556 692.172 55.784ZM709.834 58.484C709.834 63.704 712.75 65.432 716.422 65.432C718.906 65.432 721.21 64.208 722.218 62.228H722.29C722.29 62.228 722.218 62.768 722.218 63.38V65H728.194V46.46H721.966V54.668C721.966 57.44 720.706 59.78 718.042 59.78C716.746 59.78 716.062 59.06 716.062 57.332V46.46H709.834V58.484ZM740.329 55.712C740.329 60.824 744.037 65.432 750.661 65.432C753.757 65.432 756.781 64.244 758.617 62.372L756.349 58.016C755.017 59.168 753.073 60.248 751.273 60.248C748.141 60.248 746.629 57.836 746.629 55.64C746.629 53.444 748.105 51.212 751.057 51.212C752.677 51.212 754.333 51.968 755.413 53.012L758.041 48.836C756.205 46.856 753.253 46.028 750.661 46.028C744.001 46.028 740.329 50.744 740.329 55.712ZM759.94 59.78C759.94 62.984 762.424 65.432 765.988 65.432C768.112 65.432 770.272 64.46 771.496 62.732H771.568C771.568 62.732 771.496 63.272 771.496 63.884V65H777.184V53.588C777.184 48.872 774.016 46.028 768.904 46.028C765.88 46.028 762.64 47.216 761.056 48.44L763.216 52.832C764.692 51.86 766.528 51.068 768.328 51.068C769.696 51.068 770.956 51.572 770.956 53.12V53.444H770.416C765.844 53.444 759.94 54.812 759.94 59.78ZM766.096 59.204C766.096 57.512 768.544 57.008 770.452 57.008H771.028V57.512C771.028 59.024 769.66 60.788 767.86 60.788C766.708 60.788 766.096 60.068 766.096 59.204ZM781.135 65H787.363V56.612C787.363 53.984 788.623 51.68 791.395 51.68C792.763 51.68 793.447 52.4 793.447 54.128V65H799.675V52.976C799.675 47.756 796.759 46.028 793.015 46.028C789.739 46.028 787.975 47.792 787.111 49.232H787.039C787.039 49.232 787.111 48.692 787.111 48.08V46.46H781.135V65ZM812.634 58.16C812.634 64.388 816.162 65.18 819.474 65.18C820.266 65.18 820.914 65.108 821.346 65.072V59.672C821.058 59.708 820.77 59.708 820.59 59.708C819.186 59.708 818.862 59.096 818.862 57.332V39.26H812.634V58.16ZM823.263 55.712C823.263 60.644 826.827 65.432 833.451 65.432C836.295 65.432 839.355 64.46 841.371 62.732L839.067 58.376C837.555 59.384 835.791 60.248 833.955 60.248C831.975 60.248 830.103 59.204 829.635 56.936H841.335C841.407 56.288 841.479 55.64 841.479 54.992C841.479 49.844 838.383 46.028 832.911 46.028C826.935 46.028 823.263 50.276 823.263 55.712ZM829.779 53.372C830.103 51.896 830.967 50.6 832.767 50.6C834.351 50.6 835.323 51.86 835.323 53.372H829.779ZM843.437 59.78C843.437 62.984 845.921 65.432 849.485 65.432C851.609 65.432 853.769 64.46 854.993 62.732H855.065C855.065 62.732 854.993 63.272 854.993 63.884V65H860.681V53.588C860.681 48.872 857.513 46.028 852.401 46.028C849.377 46.028 846.137 47.216 844.553 48.44L846.713 52.832C848.189 51.86 850.025 51.068 851.825 51.068C853.193 51.068 854.453 51.572 854.453 53.12V53.444H853.913C849.341 53.444 843.437 54.812 843.437 59.78ZM849.593 59.204C849.593 57.512 852.041 57.008 853.949 57.008H854.525V57.512C854.525 59.024 853.157 60.788 851.357 60.788C850.205 60.788 849.593 60.068 849.593 59.204ZM864.631 65H870.859V57.8C870.859 54.416 872.515 52.22 875.971 52.22C876.403 52.22 877.015 52.256 877.231 52.328V46.208C877.015 46.172 876.763 46.136 876.511 46.136C873.739 46.136 871.399 48.224 870.607 50.744H870.535C870.535 50.744 870.607 50.204 870.607 49.592V46.46H864.631V65ZM879.959 65H886.187V56.612C886.187 53.984 887.447 51.68 890.219 51.68C891.587 51.68 892.271 52.4 892.271 54.128V65H898.499V52.976C898.499 47.756 895.583 46.028 891.839 46.028C888.563 46.028 886.799 47.792 885.935 49.232H885.863C885.863 49.232 885.935 48.692 885.935 48.08V46.46H879.959V65ZM668.42 107H674.648V93.644H678.068V88.784H674.648V88.208C674.648 86.624 676.556 86.408 677.78 86.408C678.248 86.408 678.644 86.444 678.788 86.48V81.224C678.14 81.116 677.564 81.116 676.916 81.116C673.928 81.116 668.42 81.944 668.42 88.028V88.784H666.152V93.644H668.42V107ZM680.834 107H687.062V99.8C687.062 96.416 688.718 94.22 692.174 94.22C692.606 94.22 693.218 94.256 693.434 94.328V88.208C693.218 88.172 692.966 88.136 692.714 88.136C689.942 88.136 687.602 90.224 686.81 92.744H686.738C686.738 92.744 686.81 92.204 686.81 91.592V88.46H680.834V107ZM694.978 97.784C694.978 103.58 699.658 107.432 705.49 107.432C711.322 107.432 716.002 103.58 716.002 97.784C716.002 91.952 711.322 88.028 705.454 88.028C699.658 88.028 694.978 91.952 694.978 97.784ZM701.278 97.784C701.278 94.976 703.222 93.212 705.49 93.212C707.758 93.212 709.702 94.976 709.702 97.784C709.702 100.556 707.758 102.248 705.49 102.248C703.222 102.248 701.278 100.556 701.278 97.784ZM719.119 107H725.347V99.152C725.347 96.596 726.067 93.68 728.911 93.68C730.099 93.68 730.351 94.652 730.351 96.02V107H736.579V99.152C736.579 96.38 737.443 93.68 740.143 93.68C741.331 93.68 741.583 94.652 741.583 96.02V107H747.811V94.976C747.811 89.864 745.183 88.028 741.799 88.028C739.027 88.028 736.831 89.612 735.859 91.16H735.787C734.815 89.072 732.943 88.028 730.603 88.028C727.687 88.028 725.959 89.936 725.095 91.232H725.023C725.023 91.232 725.095 90.692 725.095 90.08V88.46H719.119V107ZM759.554 101.78C759.554 104.984 762.038 107.432 765.602 107.432C767.726 107.432 769.886 106.46 771.11 104.732H771.182C771.182 104.732 771.11 105.272 771.11 105.884V107H776.798V95.588C776.798 90.872 773.63 88.028 768.518 88.028C765.494 88.028 762.254 89.216 760.67 90.44L762.83 94.832C764.306 93.86 766.142 93.068 767.942 93.068C769.31 93.068 770.57 93.572 770.57 95.12V95.444H770.03C765.458 95.444 759.554 96.812 759.554 101.78ZM765.71 101.204C765.71 99.512 768.158 99.008 770.066 99.008H770.642V99.512C770.642 101.024 769.274 102.788 767.474 102.788C766.322 102.788 765.71 102.068 765.71 101.204ZM780.748 107H786.976V98.612C786.976 95.984 788.236 93.68 791.008 93.68C792.376 93.68 793.06 94.4 793.06 96.128V107H799.288V94.976C799.288 89.756 796.372 88.028 792.628 88.028C789.352 88.028 787.588 89.792 786.724 91.232H786.652C786.652 91.232 786.724 90.692 786.724 90.08V88.46H780.748V107ZM803.217 108.692L801.237 113.264C801.237 113.264 803.109 114.56 805.557 114.56C808.509 114.56 811.749 113.12 813.297 108.98L820.893 88.46H814.089L811.749 97.1C811.497 98.108 811.137 99.872 811.137 99.872H811.065C811.065 99.872 810.705 98 810.381 96.992L807.645 88.46H800.589L808.473 106.64L808.113 107.504C807.465 109.088 806.133 109.376 805.125 109.376C804.225 109.376 803.217 108.692 803.217 108.692ZM826.709 107H833.729L835.817 98.432C836.069 97.424 836.177 96.452 836.177 96.452H836.249C836.249 96.452 836.357 97.424 836.609 98.432L838.697 107H845.645L850.829 88.46H844.349L842.045 99.404C841.829 100.412 841.793 101.348 841.793 101.348H841.721C841.721 101.348 841.685 100.412 841.433 99.404L838.877 88.46H833.549L830.993 99.404C830.741 100.412 830.669 101.348 830.669 101.348H830.597C830.597 101.348 830.597 100.412 830.381 99.404L828.077 88.46H821.525L826.709 107ZM853.311 107H859.539V98.648C859.539 95.804 860.871 93.68 863.571 93.68C864.939 93.68 865.623 94.4 865.623 96.128V107H871.851V94.976C871.851 89.756 868.935 88.028 865.191 88.028C862.743 88.028 860.583 89.144 859.539 90.98H859.467C859.467 90.98 859.539 90.332 859.539 89.396V81.26H853.311V107ZM874.802 97.712C874.802 102.644 878.366 107.432 884.99 107.432C887.834 107.432 890.894 106.46 892.91 104.732L890.606 100.376C889.094 101.384 887.33 102.248 885.494 102.248C883.514 102.248 881.642 101.204 881.174 98.936H892.874C892.946 98.288 893.018 97.64 893.018 96.992C893.018 91.844 889.922 88.028 884.45 88.028C878.474 88.028 874.802 92.276 874.802 97.712ZM881.318 95.372C881.642 93.896 882.506 92.6 884.306 92.6C885.89 92.6 886.862 93.86 886.862 95.372H881.318ZM896.272 107H902.5V99.8C902.5 96.416 904.156 94.22 907.612 94.22C908.044 94.22 908.656 94.256 908.872 94.328V88.208C908.656 88.172 908.404 88.136 908.152 88.136C905.38 88.136 903.04 90.224 902.248 92.744H902.176C902.176 92.744 902.248 92.204 902.248 91.592V88.46H896.272V107ZM910.556 97.712C910.556 102.644 914.12 107.432 920.744 107.432C923.588 107.432 926.648 106.46 928.664 104.732L926.36 100.376C924.848 101.384 923.084 102.248 921.248 102.248C919.268 102.248 917.396 101.204 916.928 98.936H928.628C928.7 98.288 928.772 97.64 928.772 96.992C928.772 91.844 925.676 88.028 920.204 88.028C914.228 88.028 910.556 92.276 910.556 97.712ZM917.072 95.372C917.396 93.896 918.26 92.6 920.06 92.6C921.644 92.6 922.616 93.86 922.616 95.372H917.072ZM667.16 128.12H673.244V123.26H667.16V128.12ZM667.088 149H673.316V130.46H667.088V149ZM677.494 149H683.722V140.612C683.722 137.984 684.982 135.68 687.754 135.68C689.122 135.68 689.806 136.4 689.806 138.128V149H696.034V136.976C696.034 131.756 693.118 130.028 689.374 130.028C686.098 130.028 684.334 131.792 683.47 133.232H683.398C683.398 133.232 683.47 132.692 683.47 132.08V130.46H677.494V149ZM709.441 142.16C709.441 148.388 715.165 149.18 718.117 149.18C718.837 149.18 719.341 149.108 719.809 149.072V143.672C719.413 143.708 719.197 143.708 718.981 143.708C717.793 143.708 715.669 143.42 715.669 141.332V135.644H719.557V130.784H715.669V125.456H709.621V130.784H707.065V135.644H709.441V142.16ZM723.162 149H729.39V140.648C729.39 137.804 730.722 135.68 733.422 135.68C734.79 135.68 735.474 136.4 735.474 138.128V149H741.702V136.976C741.702 131.756 738.786 130.028 735.042 130.028C732.594 130.028 730.434 131.144 729.39 132.98H729.318C729.318 132.98 729.39 132.332 729.39 131.396V123.26H723.162V149ZM744.653 139.712C744.653 144.644 748.217 149.432 754.841 149.432C757.685 149.432 760.745 148.46 762.761 146.732L760.457 142.376C758.945 143.384 757.181 144.248 755.345 144.248C753.365 144.248 751.493 143.204 751.025 140.936H762.725C762.797 140.288 762.869 139.64 762.869 138.992C762.869 133.844 759.773 130.028 754.301 130.028C748.325 130.028 744.653 134.276 744.653 139.712ZM751.169 137.372C751.493 135.896 752.357 134.6 754.157 134.6C755.741 134.6 756.713 135.86 756.713 137.372H751.169ZM777.455 149H784.475L786.563 140.432C786.815 139.424 786.923 138.452 786.923 138.452H786.995C786.995 138.452 787.103 139.424 787.355 140.432L789.443 149H796.391L801.575 130.46H795.095L792.791 141.404C792.575 142.412 792.539 143.348 792.539 143.348H792.467C792.467 143.348 792.431 142.412 792.179 141.404L789.623 130.46H784.295L781.739 141.404C781.487 142.412 781.415 143.348 781.415 143.348H781.343C781.343 143.348 781.343 142.412 781.127 141.404L778.823 130.46H772.271L777.455 149ZM802.696 139.784C802.696 145.58 807.376 149.432 813.208 149.432C819.04 149.432 823.72 145.58 823.72 139.784C823.72 133.952 819.04 130.028 813.172 130.028C807.376 130.028 802.696 133.952 802.696 139.784ZM808.996 139.784C808.996 136.976 810.94 135.212 813.208 135.212C815.476 135.212 817.42 136.976 817.42 139.784C817.42 142.556 815.476 144.248 813.208 144.248C810.94 144.248 808.996 142.556 808.996 139.784ZM826.838 149H833.066V141.8C833.066 138.416 834.722 136.22 838.178 136.22C838.61 136.22 839.222 136.256 839.438 136.328V130.208C839.222 130.172 838.97 130.136 838.718 130.136C835.946 130.136 833.606 132.224 832.814 134.744H832.742C832.742 134.744 832.814 134.204 832.814 133.592V130.46H826.838V149ZM842.13 142.16C842.13 148.388 845.658 149.18 848.97 149.18C849.762 149.18 850.41 149.108 850.842 149.072V143.672C850.554 143.708 850.266 143.708 850.086 143.708C848.682 143.708 848.358 143.096 848.358 141.332V123.26H842.13V142.16ZM852.831 139.712C852.831 145.472 856.143 149.432 861.183 149.432C863.379 149.432 865.395 148.496 866.547 146.732H866.619C866.619 146.732 866.583 147.2 866.583 147.776V149H872.415V123.26H866.187V130.676C866.187 131.144 866.223 131.504 866.223 131.504H866.151C864.927 130.28 862.947 130.028 861.291 130.028C856.359 130.028 852.831 133.844 852.831 139.712ZM859.095 139.712C859.095 136.868 860.787 135.284 862.731 135.284C865.179 135.284 866.367 137.48 866.367 139.712C866.367 142.916 864.603 144.284 862.731 144.284C860.571 144.284 859.095 142.484 859.095 139.712Z" fill="#222224"/>
<path d="M665.882 201.556C665.882 205.3 668.636 208.216 672.416 208.216C676.196 208.216 678.932 205.3 678.932 201.556C678.932 197.902 676.196 195.076 672.416 195.076C668.636 195.076 665.882 197.902 665.882 201.556ZM667.718 201.556C667.718 198.802 669.698 196.696 672.416 196.696C675.116 196.696 677.096 198.802 677.096 201.556C677.096 204.4 675.116 206.578 672.416 206.578C669.698 206.578 667.718 204.4 667.718 201.556ZM681.063 208H682.809V203.626C682.809 201.754 684.069 200.278 685.851 200.278C687.309 200.278 687.561 201.286 687.561 202.564V208H689.307V202.168C689.307 199.846 688.335 198.676 686.193 198.676C684.195 198.676 683.079 200.026 682.737 200.818H682.701C682.701 200.818 682.755 200.512 682.755 200.134V198.892H681.063V208ZM691.909 205.498C691.909 207.802 693.349 208.09 694.357 208.09C694.609 208.09 694.807 208.054 694.933 208.036V206.488C694.825 206.506 694.699 206.506 694.627 206.506C694.087 206.506 693.637 206.29 693.637 205.21V195.292H691.909V205.498ZM696.671 197.056H698.471V195.292H696.671V197.056ZM696.707 208H698.453V198.892H696.707V208ZM701.137 208H702.883V203.626C702.883 201.754 704.143 200.278 705.925 200.278C707.383 200.278 707.635 201.286 707.635 202.564V208H709.381V202.168C709.381 199.846 708.409 198.676 706.267 198.676C704.269 198.676 703.153 200.026 702.811 200.818H702.775C702.775 200.818 702.829 200.512 702.829 200.134V198.892H701.137V208ZM711.389 203.446C711.389 206.146 713.369 208.216 716.231 208.216C717.491 208.216 718.877 207.73 719.759 206.92L719.021 205.642C718.301 206.29 717.311 206.704 716.339 206.704C714.701 206.704 713.297 205.642 713.207 203.68H719.831C719.867 203.428 719.903 203.176 719.903 202.942C719.903 200.602 718.535 198.676 715.961 198.676C713.369 198.676 711.389 200.548 711.389 203.446ZM713.261 202.42C713.513 200.908 714.575 200.026 715.925 200.026C717.113 200.026 718.085 200.854 718.139 202.42H713.261ZM726.502 205.498C726.502 207.802 727.942 208.09 728.95 208.09C729.202 208.09 729.4 208.054 729.526 208.036V206.488C729.418 206.506 729.292 206.506 729.22 206.506C728.68 206.506 728.23 206.29 728.23 205.21V195.292H726.502V205.498ZM730.707 203.446C730.707 206.146 732.687 208.216 735.549 208.216C736.809 208.216 738.195 207.73 739.077 206.92L738.339 205.642C737.619 206.29 736.629 206.704 735.657 206.704C734.019 206.704 732.615 205.642 732.525 203.68H739.149C739.185 203.428 739.221 203.176 739.221 202.942C739.221 200.602 737.853 198.676 735.279 198.676C732.687 198.676 730.707 200.548 730.707 203.446ZM732.579 202.42C732.831 200.908 733.893 200.026 735.243 200.026C736.431 200.026 737.403 200.854 737.457 202.42H732.579ZM740.565 205.516C740.565 207.226 742.023 208.216 743.607 208.216C744.957 208.216 746.073 207.406 746.595 206.362H746.631C746.631 206.362 746.577 206.668 746.577 207.082V208H748.215V202.24C748.215 199.936 746.901 198.676 744.615 198.676C743.337 198.676 741.951 199.144 741.213 199.756L741.915 201.034C742.653 200.512 743.571 200.152 744.471 200.152C745.605 200.152 746.469 200.656 746.469 202.15V202.33H746.001C744.111 202.33 740.565 202.654 740.565 205.516ZM742.311 205.372C742.311 203.698 744.723 203.59 746.019 203.59H746.469V203.932C746.469 205.282 745.551 206.83 744.021 206.83C742.887 206.83 742.311 206.092 742.311 205.372ZM750.813 208H752.559V204.22C752.559 202.456 753.387 200.512 755.349 200.512C755.529 200.512 755.781 200.53 755.853 200.548V198.82C755.709 198.802 755.547 198.784 755.385 198.784C753.981 198.784 752.919 199.882 752.487 201.196H752.451C752.451 201.196 752.505 200.908 752.505 200.53V198.892H750.813V208ZM757.58 208H759.326V203.626C759.326 201.754 760.586 200.278 762.368 200.278C763.826 200.278 764.078 201.286 764.078 202.564V208H765.824V202.168C765.824 199.846 764.852 198.676 762.71 198.676C760.712 198.676 759.596 200.026 759.254 200.818H759.218C759.218 200.818 759.272 200.512 759.272 200.134V198.892H757.58V208ZM768.39 197.056H770.19V195.292H768.39V197.056ZM768.426 208H770.172V198.892H768.426V208ZM772.856 208H774.602V203.626C774.602 201.754 775.862 200.278 777.644 200.278C779.102 200.278 779.354 201.286 779.354 202.564V208H781.1V202.168C781.1 199.846 780.128 198.676 777.986 198.676C775.988 198.676 774.872 200.026 774.53 200.818H774.494C774.494 200.818 774.548 200.512 774.548 200.134V198.892H772.856V208ZM784.566 209.656L783.99 211.024C784.89 211.474 786.006 211.78 787.104 211.78C789.408 211.78 791.694 210.628 791.694 207.622V198.892H790.02V199.792C790.02 199.954 790.074 200.062 790.074 200.062H790.02C789.444 199.09 788.274 198.676 787.14 198.676C784.602 198.676 783.162 200.62 783.162 203.248C783.162 205.858 784.692 207.892 787.23 207.892C788.544 207.892 789.426 207.316 789.966 206.416H790.002C790.002 206.416 789.948 206.704 789.948 206.992V207.73C789.948 209.548 788.652 210.268 787.068 210.268C786.186 210.268 785.286 210.016 784.566 209.656ZM784.926 203.194C784.926 201.34 785.844 200.188 787.41 200.188C788.832 200.188 789.984 200.872 789.984 203.248C789.984 205.624 788.832 206.38 787.572 206.38C785.934 206.38 784.926 205.084 784.926 203.194ZM798.133 205.516C798.133 207.226 799.591 208.216 801.175 208.216C802.525 208.216 803.641 207.406 804.163 206.362H804.199C804.199 206.362 804.145 206.668 804.145 207.082V208H805.783V202.24C805.783 199.936 804.469 198.676 802.183 198.676C800.905 198.676 799.519 199.144 798.781 199.756L799.483 201.034C800.221 200.512 801.139 200.152 802.039 200.152C803.173 200.152 804.037 200.656 804.037 202.15V202.33H803.569C801.679 202.33 798.133 202.654 798.133 205.516ZM799.879 205.372C799.879 203.698 802.291 203.59 803.587 203.59H804.037V203.932C804.037 205.282 803.119 206.83 801.589 206.83C800.455 206.83 799.879 206.092 799.879 205.372ZM808.381 208H810.127V203.626C810.127 201.754 811.387 200.278 813.169 200.278C814.627 200.278 814.879 201.286 814.879 202.564V208H816.625V202.168C816.625 199.846 815.653 198.676 813.511 198.676C811.513 198.676 810.397 200.026 810.055 200.818H810.019C810.019 200.818 810.073 200.512 810.073 200.134V198.892H808.381V208ZM818.636 209.89L818.024 211.222C818.024 211.222 818.762 211.78 819.77 211.78C821.048 211.78 822.182 211.06 822.722 209.638L827.006 198.892H825.116L822.902 204.868C822.74 205.336 822.596 205.948 822.596 205.948H822.56C822.56 205.948 822.398 205.3 822.218 204.85L819.932 198.892H817.97L821.786 207.892L821.336 208.936C820.994 209.764 820.4 210.286 819.68 210.286C819.14 210.286 818.636 209.89 818.636 209.89ZM830.735 208H832.679L834.551 202.15C834.695 201.682 834.803 201.16 834.803 201.16H834.839C834.839 201.16 834.947 201.682 835.109 202.15L836.981 208H838.925L841.841 198.892H840.023L838.115 205.282C837.971 205.75 837.881 206.254 837.881 206.254H837.845C837.845 206.254 837.737 205.75 837.611 205.282L835.649 198.91H834.029L832.067 205.282C831.923 205.75 831.815 206.254 831.815 206.254H831.779C831.779 206.254 831.689 205.75 831.545 205.282L829.655 198.892H827.801L830.735 208ZM843.625 208H845.371V203.68C845.371 201.718 846.649 200.278 848.413 200.278C849.871 200.278 850.123 201.286 850.123 202.564V208H851.869V202.168C851.869 199.846 850.897 198.676 848.755 198.676C846.937 198.676 845.749 199.9 845.335 200.764H845.299C845.299 200.764 845.371 200.44 845.371 200.008V195.292H843.625V208ZM853.877 203.446C853.877 206.146 855.857 208.216 858.719 208.216C859.979 208.216 861.365 207.73 862.247 206.92L861.509 205.642C860.789 206.29 859.799 206.704 858.827 206.704C857.189 206.704 855.785 205.642 855.695 203.68H862.319C862.355 203.428 862.391 203.176 862.391 202.942C862.391 200.602 861.023 198.676 858.449 198.676C855.857 198.676 853.877 200.548 853.877 203.446ZM855.749 202.42C856.001 200.908 857.063 200.026 858.413 200.026C859.601 200.026 860.573 200.854 860.627 202.42H855.749ZM864.491 208H866.237V204.22C866.237 202.456 867.065 200.512 869.027 200.512C869.207 200.512 869.459 200.53 869.531 200.548V198.82C869.387 198.802 869.225 198.784 869.063 198.784C867.659 198.784 866.597 199.882 866.165 201.196H866.129C866.129 201.196 866.183 200.908 866.183 200.53V198.892H864.491V208ZM870.436 203.446C870.436 206.146 872.416 208.216 875.278 208.216C876.538 208.216 877.924 207.73 878.806 206.92L878.068 205.642C877.348 206.29 876.358 206.704 875.386 206.704C873.748 206.704 872.344 205.642 872.254 203.68H878.878C878.914 203.428 878.95 203.176 878.95 202.942C878.95 200.602 877.582 198.676 875.008 198.676C872.416 198.676 870.436 200.548 870.436 203.446ZM872.308 202.42C872.56 200.908 873.622 200.026 874.972 200.026C876.16 200.026 877.132 200.854 877.186 202.42H872.308ZM665.594 233.516C665.594 235.226 667.052 236.216 668.636 236.216C669.986 236.216 671.102 235.406 671.624 234.362H671.66C671.66 234.362 671.606 234.668 671.606 235.082V236H673.244V230.24C673.244 227.936 671.93 226.676 669.644 226.676C668.366 226.676 666.98 227.144 666.242 227.756L666.944 229.034C667.682 228.512 668.6 228.152 669.5 228.152C670.634 228.152 671.498 228.656 671.498 230.15V230.33H671.03C669.14 230.33 665.594 230.654 665.594 233.516ZM667.34 233.372C667.34 231.698 669.752 231.59 671.048 231.59H671.498V231.932C671.498 233.282 670.58 234.83 669.05 234.83C667.916 234.83 667.34 234.092 667.34 233.372ZM675.842 236H677.588V231.626C677.588 229.754 678.848 228.278 680.63 228.278C682.088 228.278 682.34 229.286 682.34 230.564V236H684.086V230.168C684.086 227.846 683.114 226.676 680.972 226.676C678.974 226.676 677.858 228.026 677.516 228.818H677.48C677.48 228.818 677.534 228.512 677.534 228.134V226.892H675.842V236ZM686.13 231.446C686.13 234.272 687.696 236.216 690.144 236.216C691.584 236.216 692.646 235.46 693.168 234.47H693.204C693.204 234.47 693.15 234.722 693.15 235.082V236H694.806V223.292H693.078V227.558C693.078 227.9 693.114 228.17 693.114 228.17H693.078C692.502 227.198 691.404 226.676 690.252 226.676C687.84 226.676 686.13 228.548 686.13 231.446ZM687.912 231.446C687.912 229.376 689.1 228.206 690.522 228.206C692.268 228.206 693.114 229.79 693.114 231.428C693.114 233.732 691.836 234.704 690.486 234.704C688.974 234.704 687.912 233.426 687.912 231.446ZM701.404 231.446C701.404 234.146 703.384 236.216 706.246 236.216C707.506 236.216 708.892 235.73 709.774 234.92L709.036 233.642C708.316 234.29 707.326 234.704 706.354 234.704C704.716 234.704 703.312 233.642 703.222 231.68H709.846C709.882 231.428 709.918 231.176 709.918 230.942C709.918 228.602 708.55 226.676 705.976 226.676C703.384 226.676 701.404 228.548 701.404 231.446ZM703.276 230.42C703.528 228.908 704.59 228.026 705.94 228.026C707.128 228.026 708.1 228.854 708.154 230.42H703.276ZM714.237 236H716.235L719.601 226.892H717.765L715.551 233.048C715.389 233.552 715.245 234.29 715.245 234.29H715.209C715.209 234.29 715.047 233.552 714.885 233.048L712.671 226.892H710.817L714.237 236ZM720.494 231.446C720.494 234.146 722.474 236.216 725.336 236.216C726.596 236.216 727.982 235.73 728.864 234.92L728.126 233.642C727.406 234.29 726.416 234.704 725.444 234.704C723.806 234.704 722.402 233.642 722.312 231.68H728.936C728.972 231.428 729.008 231.176 729.008 230.942C729.008 228.602 727.64 226.676 725.066 226.676C722.474 226.676 720.494 228.548 720.494 231.446ZM722.366 230.42C722.618 228.908 723.68 228.026 725.03 228.026C726.218 228.026 727.19 228.854 727.244 230.42H722.366ZM731.108 236H732.854V232.22C732.854 230.456 733.682 228.512 735.644 228.512C735.824 228.512 736.076 228.53 736.148 228.548V226.82C736.004 226.802 735.842 226.784 735.68 226.784C734.276 226.784 733.214 227.882 732.782 229.196H732.746C732.746 229.196 732.8 228.908 732.8 228.53V226.892H731.108V236ZM737.425 237.89L736.813 239.222C736.813 239.222 737.551 239.78 738.559 239.78C739.837 239.78 740.971 239.06 741.511 237.638L745.795 226.892H743.905L741.691 232.868C741.529 233.336 741.385 233.948 741.385 233.948H741.349C741.349 233.948 741.187 233.3 741.007 232.85L738.721 226.892H736.759L740.575 235.892L740.125 236.936C739.783 237.764 739.189 238.286 738.469 238.286C737.929 238.286 737.425 237.89 737.425 237.89ZM749.524 236H751.468L753.34 230.15C753.484 229.682 753.592 229.16 753.592 229.16H753.628C753.628 229.16 753.736 229.682 753.898 230.15L755.77 236H757.714L760.63 226.892H758.812L756.904 233.282C756.76 233.75 756.67 234.254 756.67 234.254H756.634C756.634 234.254 756.526 233.75 756.4 233.282L754.438 226.91H752.818L750.856 233.282C750.712 233.75 750.604 234.254 750.604 234.254H750.568C750.568 234.254 750.478 233.75 750.334 233.282L748.444 226.892H746.59L749.524 236ZM762.414 236H764.16V231.68C764.16 229.718 765.438 228.278 767.202 228.278C768.66 228.278 768.912 229.286 768.912 230.564V236H770.658V230.168C770.658 227.846 769.686 226.676 767.544 226.676C765.726 226.676 764.538 227.9 764.124 228.764H764.088C764.088 228.764 764.16 228.44 764.16 228.008V223.292H762.414V236ZM772.666 231.446C772.666 234.146 774.646 236.216 777.508 236.216C778.768 236.216 780.154 235.73 781.036 234.92L780.298 233.642C779.578 234.29 778.588 234.704 777.616 234.704C775.978 234.704 774.574 233.642 774.484 231.68H781.108C781.144 231.428 781.18 231.176 781.18 230.942C781.18 228.602 779.812 226.676 777.238 226.676C774.646 226.676 772.666 228.548 772.666 231.446ZM774.538 230.42C774.79 228.908 775.852 228.026 777.202 228.026C778.39 228.026 779.362 228.854 779.416 230.42H774.538ZM783.28 236H785.026V232.22C785.026 230.456 785.854 228.512 787.816 228.512C787.996 228.512 788.248 228.53 788.32 228.548V226.82C788.176 226.802 788.014 226.784 787.852 226.784C786.448 226.784 785.386 227.882 784.954 229.196H784.918C784.918 229.196 784.972 228.908 784.972 228.53V226.892H783.28V236ZM789.225 231.446C789.225 234.146 791.205 236.216 794.067 236.216C795.327 236.216 796.713 235.73 797.595 234.92L796.857 233.642C796.137 234.29 795.147 234.704 794.175 234.704C792.537 234.704 791.133 233.642 791.043 231.68H797.667C797.703 231.428 797.739 231.176 797.739 230.942C797.739 228.602 796.371 226.676 793.797 226.676C791.205 226.676 789.225 228.548 789.225 231.446ZM791.097 230.42C791.349 228.908 792.411 228.026 793.761 228.026C794.949 228.026 795.921 228.854 795.975 230.42H791.097Z" fill="#505257"/>
</svg>
