<svg width="256" height="220" viewBox="0 0 256 220" fill="none" xmlns="http://www.w3.org/2000/svg">
<rect width="256" height="220" rx="18" fill="#FFE7C1"/>
<path d="M46 69H48.94L51.14 60.6C51.38 59.68 51.52 58.74 51.52 58.74H51.58C51.58 58.74 51.72 59.68 51.94 60.6L54.16 69H57.06L60.74 54.8H58.08L55.72 64.62C55.54 65.42 55.5 66.12 55.5 66.12H55.46C55.46 66.12 55.38 65.44 55.16 64.62L52.64 54.8H50.48L47.94 64.62C47.72 65.44 47.64 66.12 47.64 66.12H47.6C47.6 66.12 47.54 65.42 47.36 64.62L45.16 54.8H42.46L46 69ZM62.4811 69H65.0211V64.26C65.0211 62.32 66.1811 60.88 67.9611 60.88C69.2411 60.88 69.5611 61.72 69.5611 62.96V69H72.1011V62.44C72.1011 59.74 70.8011 58.56 68.5411 58.56C66.7811 58.56 65.5011 59.64 65.0011 60.62H64.9611C64.9611 60.62 65.0211 60.26 65.0211 59.76V54.8H62.4811V69ZM74.3305 70.64L73.4905 72.54C73.4905 72.54 74.3905 73.2 75.6105 73.2C77.1105 73.2 78.5905 72.4 79.2905 70.54L83.8305 58.8H81.0705L79.0705 64.72C78.9105 65.26 78.7305 66.06 78.7305 66.06H78.6905C78.6905 66.06 78.5105 65.22 78.3105 64.68L76.1705 58.8H73.3105L77.6105 68.84L77.2305 69.74C76.8505 70.64 76.1505 71.06 75.4505 71.06C74.8905 71.06 74.3305 70.64 74.3305 70.64ZM91.6128 69H94.4528L96.1928 63.18C96.3328 62.64 96.4328 62.08 96.4328 62.08H96.4728C96.4728 62.08 96.5728 62.64 96.7328 63.18L98.4528 69H101.273L104.373 58.8H101.733L99.9528 65.5C99.7928 66.04 99.7328 66.58 99.7328 66.58H99.6928C99.6928 66.58 99.6128 66.04 99.4728 65.5L97.5928 58.82H95.3328L93.4528 65.5C93.3128 66.04 93.2128 66.58 93.2128 66.58H93.1728C93.1728 66.58 93.1128 66.04 92.9728 65.5L91.1928 58.8H88.5128L91.6128 69ZM105.178 66.18C105.178 68.04 106.698 69.24 108.538 69.24C109.918 69.24 111.138 68.48 111.758 67.4H111.798C111.798 67.4 111.738 67.72 111.738 68.14V69H114.098V62.62C114.098 60.04 112.518 58.56 109.858 58.56C108.338 58.56 106.698 59.14 105.858 59.82L106.798 61.64C107.618 61.08 108.638 60.66 109.638 60.66C110.698 60.66 111.558 61.12 111.558 62.46V62.6H111.118C108.858 62.6 105.178 63.12 105.178 66.18ZM107.698 65.96C107.698 64.52 109.858 64.34 111.138 64.34H111.578V64.62C111.578 65.86 110.658 67.3 109.238 67.3C108.218 67.3 107.698 66.64 107.698 65.96ZM117.2 65.26C117.2 68.68 120.02 69.1 121.44 69.1C121.78 69.1 122.02 69.06 122.22 69.04V66.82C122.02 66.86 121.9 66.86 121.76 66.86C121.06 66.86 119.74 66.62 119.74 64.94V60.96H122.06V58.94H119.74V56.02H117.26V58.94H115.88V60.96H117.2V65.26ZM123.463 63.9C123.463 66.8 125.583 69.24 128.963 69.24C130.423 69.24 132.023 68.7 133.063 67.78L132.063 65.96C131.243 66.62 130.183 67.08 129.143 67.08C127.603 67.08 126.243 66.16 126.083 64.38H133.103C133.143 64.06 133.183 63.72 133.183 63.4C133.183 60.7 131.583 58.56 128.663 58.56C125.603 58.56 123.463 60.76 123.463 63.9ZM126.143 62.64C126.383 61.34 127.303 60.48 128.603 60.48C129.743 60.48 130.623 61.28 130.643 62.64H126.143ZM135.294 69H137.834V64.88C137.834 62.96 138.754 61.16 140.834 61.16C141.054 61.16 141.354 61.18 141.454 61.2V58.7C141.294 58.68 141.134 58.66 140.974 58.66C139.434 58.66 138.194 59.86 137.734 61.3H137.694C137.694 61.3 137.734 60.98 137.734 60.6V58.8H135.294V69ZM43.36 87.06H45.9V84.8H43.36V87.06ZM43.36 99H45.9V88.8H43.36V99ZM47.7939 97.74C48.8539 98.76 50.3739 99.24 51.7939 99.24C54.1339 99.24 55.6539 97.9 55.6539 96.1C55.6539 92.76 50.5939 93.22 50.5939 91.6C50.5939 90.96 51.1339 90.62 52.0139 90.62C52.9139 90.62 53.9939 90.98 54.5939 91.5L55.5339 89.72C54.5939 88.9 53.3139 88.56 52.0939 88.56C49.9539 88.56 48.1939 89.62 48.1939 91.62C48.1939 94.96 53.2539 94.56 53.2539 96.16C53.2539 96.8 52.7339 97.18 51.8339 97.18C50.8139 97.18 49.6939 96.76 48.9339 96.06L47.7939 97.74ZM63.9145 100.38L63.1345 102.32C64.1345 102.84 65.4945 103.2 66.7745 103.2C69.4345 103.2 72.1545 101.88 72.1545 98.38V88.8H69.7545V89.62C69.7545 89.78 69.7945 89.9 69.7945 89.9H69.7345C69.0545 88.96 67.8345 88.56 66.6945 88.56C63.7545 88.56 62.1945 90.84 62.1945 93.64C62.1945 96.44 63.8345 98.8 66.7545 98.8C68.1145 98.8 69.0145 98.28 69.6145 97.38H69.6545C69.6545 97.38 69.6145 97.68 69.6145 97.92V98.56C69.6145 100.38 68.2945 101.04 66.7345 101.04C65.7345 101.04 64.7345 100.78 63.9145 100.38ZM64.7545 93.56C64.7545 91.84 65.6145 90.72 67.1545 90.72C68.5145 90.72 69.6745 91.34 69.6745 93.66C69.6745 95.96 68.5145 96.66 67.3145 96.66C65.6545 96.66 64.7545 95.34 64.7545 93.56ZM74.2634 93.9C74.2634 97.04 76.7634 99.24 79.8634 99.24C82.9634 99.24 85.4634 97.04 85.4634 93.9C85.4634 90.78 82.9634 88.56 79.8434 88.56C76.7634 88.56 74.2634 90.78 74.2634 93.9ZM76.8434 93.9C76.8434 92.02 78.2034 90.72 79.8634 90.72C81.5234 90.72 82.9034 92.02 82.9034 93.9C82.9034 95.8 81.5234 97.08 79.8634 97.08C78.2034 97.08 76.8434 95.8 76.8434 93.9ZM86.9392 93.9C86.9392 97.04 89.4392 99.24 92.5392 99.24C95.6392 99.24 98.1392 97.04 98.1392 93.9C98.1392 90.78 95.6392 88.56 92.5192 88.56C89.4392 88.56 86.9392 90.78 86.9392 93.9ZM89.5192 93.9C89.5192 92.02 90.8792 90.72 92.5392 90.72C94.1992 90.72 95.5792 92.02 95.5792 93.9C95.5792 95.8 94.1992 97.08 92.5392 97.08C90.8792 97.08 89.5192 95.8 89.5192 93.9ZM99.655 93.9C99.655 97.06 101.435 99.24 104.175 99.24C105.635 99.24 106.795 98.52 107.395 97.48H107.435C107.435 97.48 107.395 97.74 107.395 98.12V99H109.775V84.8H107.255V89.3C107.255 89.64 107.295 89.9 107.295 89.9H107.255C106.595 88.98 105.415 88.56 104.275 88.56C101.575 88.56 99.655 90.66 99.655 93.9ZM102.215 93.9C102.215 91.88 103.395 90.74 104.775 90.74C106.495 90.74 107.315 92.3 107.315 93.88C107.315 96.14 106.075 97.1 104.755 97.1C103.255 97.1 102.215 95.84 102.215 93.9ZM43.94 129H46.48V120.96H48.68V118.94H46.48V118.56C46.48 117.08 47.72 116.9 48.46 116.9C48.68 116.9 48.9 116.92 48.98 116.94V114.78C48.68 114.72 48.42 114.72 48.12 114.72C46.7 114.72 43.94 115.16 43.94 118.5V118.94H42.68V120.96H43.94V129ZM49.6541 123.9C49.6541 127.04 52.1541 129.24 55.2541 129.24C58.3541 129.24 60.8541 127.04 60.8541 123.9C60.8541 120.78 58.3541 118.56 55.2341 118.56C52.1541 118.56 49.6541 120.78 49.6541 123.9ZM52.2341 123.9C52.2341 122.02 53.5941 120.72 55.2541 120.72C56.9141 120.72 58.2941 122.02 58.2941 123.9C58.2941 125.8 56.9141 127.08 55.2541 127.08C53.5941 127.08 52.2341 125.8 52.2341 123.9ZM62.9498 129H65.4898V124.88C65.4898 122.96 66.4098 121.16 68.4898 121.16C68.7098 121.16 69.0098 121.18 69.1098 121.2V118.7C68.9498 118.68 68.7898 118.66 68.6298 118.66C67.0898 118.66 65.8498 119.86 65.3898 121.3H65.3498C65.3498 121.3 65.3898 120.98 65.3898 120.6V118.8H62.9498V129ZM75.4498 129H77.9898V124.26C77.9898 122.32 79.1498 120.88 80.9298 120.88C82.2098 120.88 82.5298 121.72 82.5298 122.96V129H85.0698V122.44C85.0698 119.74 83.7698 118.56 81.5098 118.56C79.7498 118.56 78.4698 119.64 77.9698 120.62H77.9298C77.9298 120.62 77.9898 120.26 77.9898 119.76V114.8H75.4498V129ZM87.5959 125.36C87.5959 128.14 88.9359 129.24 91.1359 129.24C92.8759 129.24 94.1959 128.14 94.6759 127.1H94.7159C94.7159 127.1 94.6559 127.42 94.6559 127.8V129H97.0959V118.8H94.5759V123.48C94.5759 125.3 93.5559 126.92 91.7159 126.92C90.4559 126.92 90.1359 126.08 90.1359 124.84V118.8H87.5959V125.36ZM99.8444 129H102.384V124.42C102.384 122.72 103.224 120.88 105.004 120.88C106.204 120.88 106.384 121.82 106.384 122.92V129H108.924V124.42C108.924 122.64 109.784 120.88 111.524 120.88C112.684 120.88 112.924 121.76 112.924 122.92V129H115.444V122.44C115.444 119.76 114.244 118.56 112.104 118.56C110.504 118.56 109.184 119.6 108.624 120.66H108.584C108.164 119.28 107.164 118.56 105.624 118.56C104.024 118.56 102.764 119.72 102.284 120.72H102.244C102.244 120.72 102.284 120.4 102.284 120V118.8H99.8444V129ZM117.307 126.18C117.307 128.04 118.827 129.24 120.667 129.24C122.047 129.24 123.267 128.48 123.887 127.4H123.927C123.927 127.4 123.867 127.72 123.867 128.14V129H126.227V122.62C126.227 120.04 124.647 118.56 121.987 118.56C120.467 118.56 118.827 119.14 117.987 119.82L118.927 121.64C119.747 121.08 120.767 120.66 121.767 120.66C122.827 120.66 123.687 121.12 123.687 122.46V122.6H123.247C120.987 122.6 117.307 123.12 117.307 126.18ZM119.827 125.96C119.827 124.52 121.987 124.34 123.267 124.34H123.707V124.62C123.707 125.86 122.787 127.3 121.367 127.3C120.347 127.3 119.827 126.64 119.827 125.96ZM128.829 129H131.369V124.22C131.369 122.38 132.509 120.88 134.309 120.88C135.589 120.88 135.909 121.72 135.909 122.96V129H138.449V122.44C138.449 119.74 137.149 118.56 134.889 118.56C132.829 118.56 131.689 119.86 131.269 120.72H131.229C131.229 120.72 131.269 120.4 131.269 120V118.8H128.829V129ZM43.36 159H45.9V154.26C45.9 152.32 47.06 150.88 48.84 150.88C50.12 150.88 50.44 151.72 50.44 152.96V159H52.98V152.44C52.98 149.74 51.68 148.56 49.42 148.56C47.66 148.56 46.38 149.64 45.88 150.62H45.84C45.84 150.62 45.9 150.26 45.9 149.76V144.8H43.36V159ZM54.9861 153.9C54.9861 156.8 57.1061 159.24 60.4861 159.24C61.9461 159.24 63.5461 158.7 64.5861 157.78L63.5861 155.96C62.7661 156.62 61.7061 157.08 60.6661 157.08C59.1261 157.08 57.7661 156.16 57.6061 154.38H64.6261C64.6661 154.06 64.7061 153.72 64.7061 153.4C64.7061 150.7 63.1061 148.56 60.1861 148.56C57.1261 148.56 54.9861 150.76 54.9861 153.9ZM57.6661 152.64C57.9061 151.34 58.8261 150.48 60.1261 150.48C61.2661 150.48 62.1461 151.28 62.1661 152.64H57.6661ZM66.037 156.18C66.037 158.04 67.557 159.24 69.397 159.24C70.777 159.24 71.997 158.48 72.617 157.4H72.657C72.657 157.4 72.597 157.72 72.597 158.14V159H74.957V152.62C74.957 150.04 73.377 148.56 70.717 148.56C69.197 148.56 67.557 149.14 66.717 149.82L67.657 151.64C68.477 151.08 69.497 150.66 70.497 150.66C71.557 150.66 72.417 151.12 72.417 152.46V152.6H71.977C69.717 152.6 66.037 153.12 66.037 156.18ZM68.557 155.96C68.557 154.52 70.717 154.34 71.997 154.34H72.437V154.62C72.437 155.86 71.517 157.3 70.097 157.3C69.077 157.3 68.557 156.64 68.557 155.96ZM77.5592 155.82C77.5592 158.74 79.2992 159.1 80.6992 159.1C81.0392 159.1 81.3192 159.06 81.4992 159.04V156.82C81.3592 156.84 81.2192 156.84 81.1192 156.84C80.4592 156.84 80.0792 156.56 80.0792 155.44V144.8H77.5592V155.82ZM83.8405 155.26C83.8405 158.68 86.6605 159.1 88.0805 159.1C88.4205 159.1 88.6605 159.06 88.8605 159.04V156.82C88.6605 156.86 88.5405 156.86 88.4005 156.86C87.7005 156.86 86.3805 156.62 86.3805 154.94V150.96H88.7005V148.94H86.3805V146.02H83.9005V148.94H82.5205V150.96H83.8405V155.26ZM90.8014 159H93.3414V154.26C93.3414 152.32 94.5014 150.88 96.2814 150.88C97.5614 150.88 97.8814 151.72 97.8814 152.96V159H100.421V152.44C100.421 149.74 99.1214 148.56 96.8614 148.56C95.1014 148.56 93.8214 149.64 93.3214 150.62H93.2814C93.2814 150.62 93.3414 150.26 93.3414 149.76V144.8H90.8014V159ZM104.255 154.9H106.695V154.12C106.695 151.96 110.195 151.58 110.195 148.28C110.195 145.92 108.075 144.52 105.815 144.52C104.195 144.52 102.855 145.2 102.055 145.96L103.475 147.7C104.055 147.22 104.815 146.86 105.595 146.86C106.695 146.86 107.535 147.58 107.535 148.52C107.535 150.64 104.255 151.04 104.255 153.94V154.9ZM104.235 159H106.695V156.62H104.235V159Z" fill="#424754"/>
</svg>
