<svg width="1110" height="298" viewBox="0 0 1110 298" fill="none" xmlns="http://www.w3.org/2000/svg">
<path d="M0 4.40122C0 2.86065 0 2.09037 0.299609 1.50195C0.563153 0.984356 0.983678 0.563541 1.50091 0.299816C2.08893 0 2.85869 0 4.3982 0H504.602C506.141 0 506.911 0 507.499 0.299816C508.016 0.563541 508.437 0.984356 508.7 1.50195C509 2.09037 509 2.86066 509 4.40123V293.599C509 295.139 509 295.91 508.7 296.498C508.437 297.016 508.016 297.436 507.499 297.7C506.911 298 506.141 298 504.602 298H4.39818C2.85868 298 2.08893 298 1.50091 297.7C0.983678 297.436 0.563153 297.016 0.299609 296.498C0 295.91 0 295.139 0 293.599V4.40122Z" fill="#F3F3F3"/>
<path d="M45.2805 124.928C44.1888 124.459 42.9192 124.963 42.4949 126.073C38.713 135.964 37.9753 146.779 40.4044 157.12C42.9977 168.16 49.0638 178.077 57.7113 185.414C66.3589 192.751 77.1317 197.12 88.4468 197.881C99.7619 198.641 111.022 195.752 120.574 189.638C130.125 183.524 137.463 174.507 141.51 163.913C145.557 153.32 146.1 141.707 143.057 130.782C140.015 119.857 133.549 110.196 124.609 103.219C116.235 96.6832 106.104 92.8251 95.5384 92.1182C94.3529 92.0389 93.3642 92.9811 93.333 94.1689C93.3019 95.3567 94.2402 96.3399 95.4255 96.4234C105.071 97.1035 114.313 100.642 121.961 106.611C130.176 113.022 136.117 121.898 138.912 131.936C141.707 141.974 141.209 152.644 137.491 162.378C133.772 172.112 127.03 180.396 118.254 186.014C109.478 191.632 99.1317 194.286 88.7353 193.588C78.3388 192.889 68.4405 188.874 60.4951 182.133C52.5496 175.392 46.976 166.28 44.5932 156.136C42.3747 146.691 43.0312 136.816 46.4518 127.773C46.8722 126.661 46.3722 125.397 45.2805 124.928Z" fill="#27AE60"/>
<path d="M76 141.782C76 140.458 76 139.796 76.0541 139.291C76.1016 138.846 76.1775 138.484 76.2708 138.258C76.3769 138 76.5158 138 76.7936 138H106.206C106.484 138 106.623 138 106.729 138.258C106.823 138.484 106.898 138.846 106.946 139.291C107 139.796 107 140.458 107 141.782V147.218C107 148.542 107 149.204 106.946 149.709C106.898 150.154 106.823 150.516 106.729 150.742C106.623 151 106.484 151 106.206 151H76.7936C76.5158 151 76.3769 151 76.2708 150.742C76.1775 150.516 76.1016 150.154 76.0541 149.709C76 149.204 76 148.542 76 147.218V141.782Z" fill="#424754"/>
<path d="M52 212.455C52 211.945 52 211.691 52.1378 211.496C52.259 211.325 52.4523 211.186 52.6902 211.099C52.9605 211 53.3145 211 54.0224 211H128.978C129.686 211 130.039 211 130.31 211.099C130.548 211.186 130.741 211.325 130.862 211.496C131 211.691 131 211.945 131 212.455V214.545C131 215.055 131 215.309 130.862 215.504C130.741 215.675 130.548 215.814 130.31 215.901C130.039 216 129.686 216 128.978 216H54.0224C53.3145 216 52.9605 216 52.6902 215.901C52.4523 215.814 52.259 215.675 52.1378 215.504C52 215.309 52 215.055 52 214.545V212.455Z" fill="#97999D"/>
<path d="M200.704 157.47C199.552 157.761 198.85 158.933 199.188 160.072C201.806 168.896 206.68 176.899 213.346 183.282C220.531 190.161 229.506 194.879 239.246 196.898C248.986 198.916 259.098 198.152 268.424 194.694C277.751 191.237 285.916 185.224 291.986 177.344C298.057 169.464 301.787 160.035 302.751 150.135C303.714 140.235 301.873 130.263 297.436 121.36C292.999 112.458 286.147 104.983 277.662 99.7916C269.79 94.9748 260.808 92.3036 251.608 92.0244C250.42 91.9883 249.467 92.966 249.479 94.1541C249.491 95.3422 250.465 96.2906 251.652 96.3309C260.044 96.6157 268.233 99.0666 275.416 103.462C283.212 108.232 289.508 115.1 293.585 123.28C297.661 131.46 299.354 140.621 298.468 149.718C297.583 158.814 294.155 167.478 288.578 174.718C283 181.958 275.498 187.483 266.929 190.66C258.359 193.837 249.069 194.539 240.119 192.684C231.17 190.83 222.923 186.494 216.322 180.174C210.239 174.35 205.78 167.057 203.363 159.016C203.021 157.878 201.856 157.178 200.704 157.47Z" fill="#F2994A"/>
<path d="M234 141.782C234 140.458 234 139.796 234.054 139.291C234.102 138.846 234.177 138.484 234.271 138.258C234.377 138 234.516 138 234.794 138H264.206C264.484 138 264.623 138 264.729 138.258C264.823 138.484 264.898 138.846 264.946 139.291C265 139.796 265 140.458 265 141.782V147.218C265 148.542 265 149.204 264.946 149.709C264.898 150.154 264.823 150.516 264.729 150.742C264.623 151 264.484 151 264.206 151H234.794C234.516 151 234.377 151 234.271 150.742C234.177 150.516 234.102 150.154 234.054 149.709C234 149.204 234 148.542 234 147.218V141.782Z" fill="#424754"/>
<path d="M210 212.455C210 211.945 210 211.691 210.138 211.496C210.259 211.325 210.452 211.186 210.69 211.099C210.961 211 211.314 211 212.022 211H286.978C287.686 211 288.039 211 288.31 211.099C288.548 211.186 288.741 211.325 288.862 211.496C289 211.691 289 211.945 289 212.455V214.545C289 215.055 289 215.309 288.862 215.504C288.741 215.675 288.548 215.814 288.31 215.901C288.039 216 287.686 216 286.978 216H212.022C211.314 216 210.961 216 210.69 215.901C210.452 215.814 210.259 215.675 210.138 215.504C210 215.309 210 215.055 210 214.545V212.455Z" fill="#97999D"/>
<path d="M372.045 109.045C371.204 108.204 369.839 108.202 369.033 109.075C361.235 117.533 356.387 128.317 355.255 139.805C354.053 152.008 357.12 164.25 363.932 174.445C370.744 184.641 380.881 192.158 392.615 195.718C404.349 199.277 416.954 198.658 428.282 193.966C439.611 189.273 448.962 180.798 454.742 169.984C460.522 159.17 462.374 146.686 459.982 134.66C457.589 122.634 451.101 111.809 441.623 104.03C432.7 96.7074 421.646 92.5103 410.151 92.0436C408.964 91.9954 408 92.9632 408 94.1514C408 95.3396 408.964 96.2979 410.151 96.3503C420.65 96.8143 430.74 100.665 438.893 107.357C447.602 114.504 453.564 124.45 455.761 135.5C457.959 146.55 456.258 158.02 450.947 167.956C445.636 177.892 437.044 185.679 426.636 189.99C416.227 194.302 404.645 194.871 393.864 191.6C383.083 188.33 373.769 181.422 367.51 172.055C361.251 162.687 358.433 151.439 359.537 140.227C360.571 129.73 364.983 119.872 372.079 112.12C372.881 111.244 372.885 109.885 372.045 109.045Z" fill="#219653"/>
<path d="M392 141.782C392 140.458 392 139.796 392.054 139.291C392.102 138.846 392.177 138.484 392.271 138.258C392.377 138 392.516 138 392.794 138H422.206C422.484 138 422.623 138 422.729 138.258C422.823 138.484 422.898 138.846 422.946 139.291C423 139.796 423 140.458 423 141.782V147.218C423 148.542 423 149.204 422.946 149.709C422.898 150.154 422.823 150.516 422.729 150.742C422.623 151 422.484 151 422.206 151H392.794C392.516 151 392.377 151 392.271 150.742C392.177 150.516 392.102 150.154 392.054 149.709C392 149.204 392 148.542 392 147.218V141.782Z" fill="#424754"/>
<path d="M368 212.455C368 211.945 368 211.691 368.138 211.496C368.259 211.325 368.452 211.186 368.69 211.099C368.961 211 369.314 211 370.022 211H444.978C445.686 211 446.039 211 446.31 211.099C446.548 211.186 446.741 211.325 446.862 211.496C447 211.691 447 211.945 447 212.455V214.545C447 215.055 447 215.309 446.862 215.504C446.741 215.675 446.548 215.814 446.31 215.901C446.039 216 445.686 216 444.978 216H370.022C369.314 216 368.961 216 368.69 215.901C368.452 215.814 368.259 215.675 368.138 215.504C368 215.309 368 215.055 368 214.545V212.455Z" fill="#97999D"/>
<path d="M39 24.4545C39 23.9454 39 23.6908 39.0994 23.4964C39.1868 23.3253 39.3264 23.1862 39.498 23.0991C39.693 23 39.9484 23 40.4592 23H94.5408C95.0516 23 95.307 23 95.502 23.0991C95.6736 23.1862 95.8132 23.3253 95.9006 23.4964C96 23.6908 96 23.9454 96 24.4545V26.5455C96 27.0546 96 27.3092 95.9006 27.5036C95.8132 27.6747 95.6736 27.8138 95.502 27.9009C95.307 28 95.0516 28 94.5408 28H40.4592C39.9484 28 39.693 28 39.498 27.9009C39.3264 27.8138 39.1868 27.6747 39.0994 27.5036C39 27.3092 39 27.0546 39 26.5455V24.4545Z" fill="#424754"/>
<path d="M447 24.4545C447 23.9454 447 23.6908 447.031 23.4964C447.059 23.3253 447.103 23.1862 447.157 23.0991C447.219 23 447.3 23 447.461 23H464.539C464.7 23 464.781 23 464.843 23.0991C464.897 23.1862 464.941 23.3253 464.969 23.4964C465 23.6908 465 23.9454 465 24.4545V26.5455C465 27.0546 465 27.3092 464.969 27.5036C464.941 27.6747 464.897 27.8138 464.843 27.9009C464.781 28 464.7 28 464.539 28H447.461C447.3 28 447.219 28 447.157 27.9009C447.103 27.8138 447.059 27.6747 447.031 27.5036C447 27.3092 447 27.0546 447 26.5455V24.4545Z" fill="#97999D"/>
<path d="M39 262.527C39 260.593 39 259.625 39.0994 258.886C39.1868 258.236 39.3264 257.708 39.498 257.377C39.693 257 39.9484 257 40.4592 257H94.5408C95.0516 257 95.307 257 95.502 257.377C95.6736 257.708 95.8132 258.236 95.9006 258.886C96 259.625 96 260.593 96 262.527V270.473C96 272.407 96 273.375 95.9006 274.114C95.8132 274.764 95.6736 275.292 95.502 275.623C95.307 276 95.0516 276 94.5408 276H40.4592C39.9484 276 39.693 276 39.498 275.623C39.3264 275.292 39.1868 274.764 39.0994 274.114C39 273.375 39 272.407 39 270.473V262.527Z" fill="#F04B5D"/>
<path d="M667.7 101H674V93.044H678.392C683.396 93.044 686.78 89.3 686.78 84.116C686.78 78.932 683.396 75.26 678.392 75.26H667.7V101ZM674 87.644V80.66H677.204C679.292 80.66 680.372 82.064 680.372 84.116C680.372 86.168 679.292 87.644 677.096 87.644H674ZM689.518 101H695.746V93.8C695.746 90.416 697.402 88.22 700.858 88.22C701.29 88.22 701.902 88.256 702.118 88.328V82.208C701.902 82.172 701.65 82.136 701.398 82.136C698.626 82.136 696.286 84.224 695.494 86.744H695.422C695.422 86.744 695.494 86.204 695.494 85.592V82.46H689.518V101ZM703.802 91.712C703.802 96.644 707.366 101.432 713.99 101.432C716.834 101.432 719.894 100.46 721.91 98.732L719.606 94.376C718.094 95.384 716.33 96.248 714.494 96.248C712.514 96.248 710.642 95.204 710.174 92.936H721.874C721.946 92.288 722.018 91.64 722.018 90.992C722.018 85.844 718.922 82.028 713.45 82.028C707.474 82.028 703.802 86.276 703.802 91.712ZM710.318 89.372C710.642 87.896 711.506 86.6 713.306 86.6C714.89 86.6 715.862 87.86 715.862 89.372H710.318ZM725.272 108.2H731.5V101.252C731.5 100.316 731.428 99.668 731.428 99.668H731.5C732.832 100.82 734.488 101.432 736.216 101.432C741.148 101.432 744.856 97.616 744.856 91.748C744.856 85.988 741.544 82.028 736.504 82.028C734.272 82.028 732.148 82.892 730.888 84.584H730.816C730.816 84.584 730.888 84.008 730.888 83.396V82.46H725.272V108.2ZM731.32 91.856C731.32 88.652 733.084 87.284 734.956 87.284C737.116 87.284 738.592 89.084 738.592 91.856C738.592 94.7 736.9 96.284 734.956 96.284C732.508 96.284 731.32 94.088 731.32 91.856ZM746.757 95.78C746.757 98.984 749.241 101.432 752.805 101.432C754.929 101.432 757.089 100.46 758.313 98.732H758.385C758.385 98.732 758.313 99.272 758.313 99.884V101H764.001V89.588C764.001 84.872 760.833 82.028 755.721 82.028C752.697 82.028 749.457 83.216 747.873 84.44L750.033 88.832C751.509 87.86 753.345 87.068 755.145 87.068C756.513 87.068 757.773 87.572 757.773 89.12V89.444H757.233C752.661 89.444 746.757 90.812 746.757 95.78ZM752.913 95.204C752.913 93.512 755.361 93.008 757.269 93.008H757.845V93.512C757.845 95.024 756.477 96.788 754.677 96.788C753.525 96.788 752.913 96.068 752.913 95.204ZM767.951 101H774.179V93.8C774.179 90.416 775.835 88.22 779.291 88.22C779.723 88.22 780.335 88.256 780.551 88.328V82.208C780.335 82.172 780.083 82.136 779.831 82.136C777.059 82.136 774.719 84.224 773.927 86.744H773.855C773.855 86.744 773.927 86.204 773.927 85.592V82.46H767.951V101ZM782.235 91.712C782.235 96.644 785.799 101.432 792.423 101.432C795.267 101.432 798.327 100.46 800.343 98.732L798.039 94.376C796.527 95.384 794.763 96.248 792.927 96.248C790.947 96.248 789.075 95.204 788.607 92.936H800.307C800.379 92.288 800.451 91.64 800.451 90.992C800.451 85.844 797.355 82.028 791.883 82.028C785.907 82.028 782.235 86.276 782.235 91.712ZM788.751 89.372C789.075 87.896 789.939 86.6 791.739 86.6C793.323 86.6 794.295 87.86 794.295 89.372H788.751ZM813.686 101H819.914V87.644H823.334V82.784H819.914V82.208C819.914 80.624 821.822 80.408 823.046 80.408C823.514 80.408 823.91 80.444 824.054 80.48V75.224C823.406 75.116 822.83 75.116 822.182 75.116C819.194 75.116 813.686 75.944 813.686 82.028V82.784H811.418V87.644H813.686V101ZM824.81 91.784C824.81 97.58 829.49 101.432 835.322 101.432C841.154 101.432 845.834 97.58 845.834 91.784C845.834 85.952 841.154 82.028 835.286 82.028C829.49 82.028 824.81 85.952 824.81 91.784ZM831.11 91.784C831.11 88.976 833.054 87.212 835.322 87.212C837.59 87.212 839.534 88.976 839.534 91.784C839.534 94.556 837.59 96.248 835.322 96.248C833.054 96.248 831.11 94.556 831.11 91.784ZM848.951 101H855.179V93.8C855.179 90.416 856.835 88.22 860.291 88.22C860.723 88.22 861.335 88.256 861.551 88.328V82.208C861.335 82.172 861.083 82.136 860.831 82.136C858.059 82.136 855.719 84.224 854.927 86.744H854.855C854.855 86.744 854.927 86.204 854.927 85.592V82.46H848.951V101ZM873.8 101H880.028V87.32H886.472V101H892.7V82.46H880.028V82.208C880.028 80.624 881.936 80.408 883.16 80.408C883.628 80.408 884.024 80.444 884.168 80.48V75.224C883.52 75.116 882.944 75.116 882.296 75.116C879.308 75.116 873.8 75.944 873.8 82.028V82.46H871.532V87.32H873.8V101ZM886.544 80.12H892.628V75.26H886.544V80.12ZM896.869 101H903.097V92.612C903.097 89.984 904.357 87.68 907.129 87.68C908.497 87.68 909.181 88.4 909.181 90.128V101H915.409V88.976C915.409 83.756 912.493 82.028 908.749 82.028C905.473 82.028 903.709 83.792 902.845 85.232H902.773C902.773 85.232 902.845 84.692 902.845 84.08V82.46H896.869V101ZM918.108 95.78C918.108 98.984 920.592 101.432 924.156 101.432C926.28 101.432 928.44 100.46 929.664 98.732H929.736C929.736 98.732 929.664 99.272 929.664 99.884V101H935.352V89.588C935.352 84.872 932.184 82.028 927.072 82.028C924.048 82.028 920.808 83.216 919.224 84.44L921.384 88.832C922.86 87.86 924.696 87.068 926.496 87.068C927.864 87.068 929.124 87.572 929.124 89.12V89.444H928.584C924.012 89.444 918.108 90.812 918.108 95.78ZM924.264 95.204C924.264 93.512 926.712 93.008 928.62 93.008H929.196V93.512C929.196 95.024 927.828 96.788 926.028 96.788C924.876 96.788 924.264 96.068 924.264 95.204ZM939.267 94.16C939.267 100.388 942.795 101.18 946.107 101.18C946.899 101.18 947.547 101.108 947.979 101.072V95.672C947.691 95.708 947.403 95.708 947.223 95.708C945.819 95.708 945.495 95.096 945.495 93.332V75.26H939.267V94.16ZM665.792 137.78C665.792 140.984 668.276 143.432 671.84 143.432C673.964 143.432 676.124 142.46 677.348 140.732H677.42C677.42 140.732 677.348 141.272 677.348 141.884V143H683.036V131.588C683.036 126.872 679.868 124.028 674.756 124.028C671.732 124.028 668.492 125.216 666.908 126.44L669.068 130.832C670.544 129.86 672.38 129.068 674.18 129.068C675.548 129.068 676.808 129.572 676.808 131.12V131.444H676.268C671.696 131.444 665.792 132.812 665.792 137.78ZM671.948 137.204C671.948 135.512 674.396 135.008 676.304 135.008H676.88V135.512C676.88 137.024 675.512 138.788 673.712 138.788C672.56 138.788 671.948 138.068 671.948 137.204ZM686.986 143H693.214V134.612C693.214 131.984 694.474 129.68 697.246 129.68C698.614 129.68 699.298 130.4 699.298 132.128V143H705.526V130.976C705.526 125.756 702.61 124.028 698.866 124.028C695.59 124.028 693.826 125.792 692.962 127.232H692.89C692.89 127.232 692.962 126.692 692.962 126.08V124.46H686.986V143ZM708.55 133.712C708.55 139.472 711.862 143.432 716.902 143.432C719.098 143.432 721.114 142.496 722.266 140.732H722.338C722.338 140.732 722.302 141.2 722.302 141.776V143H728.134V117.26H721.906V124.676C721.906 125.144 721.942 125.504 721.942 125.504H721.87C720.646 124.28 718.666 124.028 717.01 124.028C712.078 124.028 708.55 127.844 708.55 133.712ZM714.814 133.712C714.814 130.868 716.506 129.284 718.45 129.284C720.898 129.284 722.086 131.48 722.086 133.712C722.086 136.916 720.322 138.284 718.45 138.284C716.29 138.284 714.814 136.484 714.814 133.712ZM740.259 133.712C740.259 138.644 743.823 143.432 750.447 143.432C753.291 143.432 756.351 142.46 758.367 140.732L756.063 136.376C754.551 137.384 752.787 138.248 750.951 138.248C748.971 138.248 747.099 137.204 746.631 134.936H758.331C758.403 134.288 758.475 133.64 758.475 132.992C758.475 127.844 755.379 124.028 749.907 124.028C743.931 124.028 740.259 128.276 740.259 133.712ZM746.775 131.372C747.099 129.896 747.963 128.6 749.763 128.6C751.347 128.6 752.319 129.86 752.319 131.372H746.775ZM761.729 143H767.957V134.612C767.957 131.984 769.217 129.68 771.989 129.68C773.357 129.68 774.041 130.4 774.041 132.128V143H780.269V130.976C780.269 125.756 777.353 124.028 773.609 124.028C770.333 124.028 768.569 125.792 767.705 127.232H767.633C767.633 127.232 767.705 126.692 767.705 126.08V124.46H761.729V143ZM785.344 136.16C785.344 142.388 791.068 143.18 794.02 143.18C794.74 143.18 795.244 143.108 795.712 143.072V137.672C795.316 137.708 795.1 137.708 794.884 137.708C793.696 137.708 791.572 137.42 791.572 135.332V129.644H795.46V124.784H791.572V119.456H785.524V124.784H782.968V129.644H785.344V136.16ZM799.065 143H805.293V135.8C805.293 132.416 806.949 130.22 810.405 130.22C810.837 130.22 811.449 130.256 811.665 130.328V124.208C811.449 124.172 811.197 124.136 810.945 124.136C808.173 124.136 805.833 126.224 805.041 128.744H804.969C804.969 128.744 805.041 128.204 805.041 127.592V124.46H799.065V143ZM812.851 137.78C812.851 140.984 815.335 143.432 818.899 143.432C821.023 143.432 823.183 142.46 824.407 140.732H824.479C824.479 140.732 824.407 141.272 824.407 141.884V143H830.095V131.588C830.095 126.872 826.927 124.028 821.815 124.028C818.791 124.028 815.551 125.216 813.967 126.44L816.127 130.832C817.603 129.86 819.439 129.068 821.239 129.068C822.607 129.068 823.867 129.572 823.867 131.12V131.444H823.327C818.755 131.444 812.851 132.812 812.851 137.78ZM819.007 137.204C819.007 135.512 821.455 135.008 823.363 135.008H823.939V135.512C823.939 137.024 822.571 138.788 820.771 138.788C819.619 138.788 819.007 138.068 819.007 137.204ZM834.045 143H840.273V134.612C840.273 131.984 841.533 129.68 844.305 129.68C845.673 129.68 846.357 130.4 846.357 132.128V143H852.585V130.976C852.585 125.756 849.669 124.028 845.925 124.028C842.649 124.028 840.885 125.792 840.021 127.232H839.949C839.949 127.232 840.021 126.692 840.021 126.08V124.46H834.045V143ZM855.536 133.712C855.536 138.824 859.244 143.432 865.868 143.432C868.964 143.432 871.988 142.244 873.824 140.372L871.556 136.016C870.224 137.168 868.28 138.248 866.48 138.248C863.348 138.248 861.836 135.836 861.836 133.64C861.836 131.444 863.312 129.212 866.264 129.212C867.884 129.212 869.54 129.968 870.62 131.012L873.248 126.836C871.412 124.856 868.46 124.028 865.868 124.028C859.208 124.028 855.536 128.744 855.536 133.712ZM875.048 133.712C875.048 138.644 878.612 143.432 885.236 143.432C888.08 143.432 891.14 142.46 893.156 140.732L890.852 136.376C889.34 137.384 887.576 138.248 885.74 138.248C883.76 138.248 881.888 137.204 881.42 134.936H893.12C893.192 134.288 893.264 133.64 893.264 132.992C893.264 127.844 890.168 124.028 884.696 124.028C878.72 124.028 875.048 128.276 875.048 133.712ZM881.564 131.372C881.888 129.896 882.752 128.6 884.552 128.6C886.136 128.6 887.108 129.86 887.108 131.372H881.564ZM904.122 133.712C904.122 138.644 907.686 143.432 914.31 143.432C917.154 143.432 920.214 142.46 922.23 140.732L919.926 136.376C918.414 137.384 916.65 138.248 914.814 138.248C912.834 138.248 910.962 137.204 910.494 134.936H922.194C922.266 134.288 922.338 133.64 922.338 132.992C922.338 127.844 919.242 124.028 913.77 124.028C907.794 124.028 904.122 128.276 904.122 133.712ZM910.638 131.372C910.962 129.896 911.826 128.6 913.626 128.6C915.21 128.6 916.182 129.86 916.182 131.372H910.638ZM923.724 143H930.564L932.76 138.824C932.94 138.5 933.192 137.888 933.192 137.888H933.264C933.264 137.888 933.516 138.5 933.696 138.824L935.928 143H942.768L936.936 133.82L942.876 124.46H935.856L933.84 128.6C933.624 129.068 933.264 129.824 933.264 129.824H933.192C933.192 129.824 932.868 129.068 932.616 128.6L930.6 124.46H923.58L929.556 133.82L923.724 143ZM943.913 137.78C943.913 140.984 946.397 143.432 949.961 143.432C952.085 143.432 954.245 142.46 955.469 140.732H955.541C955.541 140.732 955.469 141.272 955.469 141.884V143H961.157V131.588C961.157 126.872 957.989 124.028 952.877 124.028C949.853 124.028 946.613 125.216 945.029 126.44L947.189 130.832C948.665 129.86 950.501 129.068 952.301 129.068C953.669 129.068 954.929 129.572 954.929 131.12V131.444H954.389C949.817 131.444 943.913 132.812 943.913 137.78ZM950.069 137.204C950.069 135.512 952.517 135.008 954.425 135.008H955.001V135.512C955.001 137.024 953.633 138.788 951.833 138.788C950.681 138.788 950.069 138.068 950.069 137.204ZM965.108 143H971.336V135.152C971.336 132.596 972.056 129.68 974.9 129.68C976.088 129.68 976.34 130.652 976.34 132.02V143H982.568V135.152C982.568 132.38 983.432 129.68 986.132 129.68C987.32 129.68 987.572 130.652 987.572 132.02V143H993.8V130.976C993.8 125.864 991.172 124.028 987.788 124.028C985.016 124.028 982.82 125.612 981.848 127.16H981.776C980.804 125.072 978.932 124.028 976.592 124.028C973.676 124.028 971.948 125.936 971.084 127.232H971.012C971.012 127.232 971.084 126.692 971.084 126.08V124.46H965.108V143ZM996.434 140.696C998.486 142.532 1001.33 143.432 1003.99 143.432C1008.75 143.432 1011.63 140.804 1011.63 137.348C1011.63 131.336 1002.95 131.804 1002.95 129.86C1002.95 129.356 1003.35 128.96 1004.68 128.96C1006.26 128.96 1008.28 129.608 1009.36 130.472L1011.48 126.152C1009.61 124.64 1007.23 124.028 1004.86 124.028C1000.57 124.028 997.154 126.08 997.154 129.896C997.154 135.98 1005.83 135.548 1005.83 137.528C1005.83 138.104 1005.4 138.5 1004.14 138.5C1002.37 138.5 1000.47 137.78 999.098 136.628L996.434 140.696Z" fill="#222224"/>
<path d="M666.674 202H668.456V189.292H666.674V202ZM671.395 202H673.141V197.752C673.141 196.06 674.149 194.26 675.877 194.26C677.263 194.26 677.443 195.358 677.443 196.546V202H679.189V197.752C679.189 196.006 680.197 194.26 681.889 194.26C683.239 194.26 683.491 195.268 683.491 196.546V202H685.237V196.168C685.237 193.846 684.301 192.676 682.231 192.676C680.755 192.676 679.495 193.684 678.991 194.746H678.955C678.649 193.378 677.767 192.676 676.237 192.676C674.797 192.676 673.501 193.756 673.069 194.818H673.033C673.033 194.818 673.087 194.512 673.087 194.134V192.892H671.395V202ZM687.848 205.6H689.594V201.46C689.594 200.992 689.522 200.668 689.522 200.668H689.558C690.188 201.64 691.232 202.216 692.384 202.216C694.778 202.216 696.506 200.344 696.506 197.446C696.506 194.62 694.976 192.676 692.51 192.676C691.178 192.676 690.026 193.288 689.45 194.386H689.414C689.414 194.386 689.468 194.08 689.468 193.702V192.892H687.848V205.6ZM689.54 197.482C689.54 195.178 690.8 194.206 692.168 194.206C693.68 194.206 694.742 195.484 694.742 197.464C694.742 199.534 693.554 200.704 692.114 200.704C690.44 200.704 689.54 199.102 689.54 197.482ZM698.659 202H700.405V198.22C700.405 196.456 701.233 194.512 703.195 194.512C703.375 194.512 703.627 194.53 703.699 194.548V192.82C703.555 192.802 703.393 192.784 703.231 192.784C701.827 192.784 700.765 193.882 700.333 195.196H700.297C700.297 195.196 700.351 194.908 700.351 194.53V192.892H698.659V202ZM704.551 197.428C704.551 200.2 706.747 202.216 709.465 202.216C712.165 202.216 714.361 200.2 714.361 197.428C714.361 194.674 712.165 192.676 709.447 192.676C706.747 192.676 704.551 194.674 704.551 197.428ZM706.333 197.428C706.333 195.538 707.737 194.188 709.465 194.188C711.175 194.188 712.597 195.538 712.597 197.428C712.597 199.336 711.175 200.704 709.465 200.704C707.737 200.704 706.333 199.336 706.333 197.428ZM718.614 202H720.612L723.978 192.892H722.142L719.928 199.048C719.766 199.552 719.622 200.29 719.622 200.29H719.586C719.586 200.29 719.424 199.552 719.262 199.048L717.048 192.892H715.194L718.614 202ZM724.871 197.446C724.871 200.146 726.851 202.216 729.713 202.216C730.973 202.216 732.359 201.73 733.241 200.92L732.503 199.642C731.783 200.29 730.793 200.704 729.821 200.704C728.183 200.704 726.779 199.642 726.689 197.68H733.313C733.349 197.428 733.385 197.176 733.385 196.942C733.385 194.602 732.017 192.676 729.443 192.676C726.851 192.676 724.871 194.548 724.871 197.446ZM726.743 196.42C726.995 194.908 728.057 194.026 729.407 194.026C730.595 194.026 731.567 194.854 731.621 196.42H726.743ZM739.043 203.89L738.431 205.222C738.431 205.222 739.169 205.78 740.177 205.78C741.455 205.78 742.589 205.06 743.129 203.638L747.413 192.892H745.523L743.309 198.868C743.147 199.336 743.003 199.948 743.003 199.948H742.967C742.967 199.948 742.805 199.3 742.625 198.85L740.339 192.892H738.377L742.193 201.892L741.743 202.936C741.401 203.764 740.807 204.286 740.087 204.286C739.547 204.286 739.043 203.89 739.043 203.89ZM748.215 197.428C748.215 200.2 750.411 202.216 753.129 202.216C755.829 202.216 758.025 200.2 758.025 197.428C758.025 194.674 755.829 192.676 753.111 192.676C750.411 192.676 748.215 194.674 748.215 197.428ZM749.997 197.428C749.997 195.538 751.401 194.188 753.129 194.188C754.839 194.188 756.261 195.538 756.261 197.428C756.261 199.336 754.839 200.704 753.129 200.704C751.401 200.704 749.997 199.336 749.997 197.428ZM760.021 198.724C760.021 201.136 761.083 202.216 763.135 202.216C764.917 202.216 766.123 200.974 766.519 200.074H766.555C766.555 200.074 766.483 200.38 766.483 200.74V202H768.175V192.892H766.447V197.158C766.447 198.958 765.349 200.596 763.477 200.596C762.037 200.596 761.767 199.588 761.767 198.328V192.892H760.021V198.724ZM770.87 202H772.616V198.22C772.616 196.456 773.444 194.512 775.406 194.512C775.586 194.512 775.838 194.53 775.91 194.548V192.82C775.766 192.802 775.604 192.784 775.442 192.784C774.038 192.784 772.976 193.882 772.544 195.196H772.508C772.508 195.196 772.562 194.908 772.562 194.53V192.892H770.87V202ZM780.977 199.516C780.977 201.226 782.435 202.216 784.019 202.216C785.369 202.216 786.485 201.406 787.007 200.362H787.043C787.043 200.362 786.989 200.668 786.989 201.082V202H788.627V196.24C788.627 193.936 787.313 192.676 785.027 192.676C783.749 192.676 782.363 193.144 781.625 193.756L782.327 195.034C783.065 194.512 783.983 194.152 784.883 194.152C786.017 194.152 786.881 194.656 786.881 196.15V196.33H786.413C784.523 196.33 780.977 196.654 780.977 199.516ZM782.723 199.372C782.723 197.698 785.135 197.59 786.431 197.59H786.881V197.932C786.881 199.282 785.963 200.83 784.433 200.83C783.299 200.83 782.723 200.092 782.723 199.372ZM790.631 197.446C790.631 200.182 792.629 202.216 795.509 202.216C796.931 202.216 798.317 201.64 799.145 200.758L798.443 199.48C797.741 200.218 796.643 200.704 795.635 200.704C793.745 200.704 792.413 199.282 792.413 197.428C792.413 195.574 793.745 194.188 795.581 194.188C796.535 194.188 797.489 194.62 798.101 195.232L798.929 194.008C798.065 193.09 796.715 192.676 795.509 192.676C792.647 192.676 790.631 194.746 790.631 197.446ZM800.278 199.516C800.278 201.226 801.736 202.216 803.32 202.216C804.67 202.216 805.786 201.406 806.308 200.362H806.344C806.344 200.362 806.29 200.668 806.29 201.082V202H807.928V196.24C807.928 193.936 806.614 192.676 804.328 192.676C803.05 192.676 801.664 193.144 800.926 193.756L801.628 195.034C802.366 194.512 803.284 194.152 804.184 194.152C805.318 194.152 806.182 194.656 806.182 196.15V196.33H805.714C803.824 196.33 800.278 196.654 800.278 199.516ZM802.024 199.372C802.024 197.698 804.436 197.59 805.732 197.59H806.182V197.932C806.182 199.282 805.264 200.83 803.734 200.83C802.6 200.83 802.024 200.092 802.024 199.372ZM809.968 197.446C809.968 200.272 811.534 202.216 813.982 202.216C815.422 202.216 816.484 201.46 817.006 200.47H817.042C817.042 200.47 816.988 200.722 816.988 201.082V202H818.644V189.292H816.916V193.558C816.916 193.9 816.952 194.17 816.952 194.17H816.916C816.34 193.198 815.242 192.676 814.09 192.676C811.678 192.676 809.968 194.548 809.968 197.446ZM811.75 197.446C811.75 195.376 812.938 194.206 814.36 194.206C816.106 194.206 816.952 195.79 816.952 197.428C816.952 199.732 815.674 200.704 814.324 200.704C812.812 200.704 811.75 199.426 811.75 197.446ZM820.742 197.446C820.742 200.146 822.722 202.216 825.584 202.216C826.844 202.216 828.23 201.73 829.112 200.92L828.374 199.642C827.654 200.29 826.664 200.704 825.692 200.704C824.054 200.704 822.65 199.642 822.56 197.68H829.184C829.22 197.428 829.256 197.176 829.256 196.942C829.256 194.602 827.888 192.676 825.314 192.676C822.722 192.676 820.742 194.548 820.742 197.446ZM822.614 196.42C822.866 194.908 823.928 194.026 825.278 194.026C826.466 194.026 827.438 194.854 827.492 196.42H822.614ZM831.356 202H833.102V197.752C833.102 196.06 834.11 194.26 835.838 194.26C837.224 194.26 837.404 195.358 837.404 196.546V202H839.15V197.752C839.15 196.006 840.158 194.26 841.85 194.26C843.2 194.26 843.452 195.268 843.452 196.546V202H845.198V196.168C845.198 193.846 844.262 192.676 842.192 192.676C840.716 192.676 839.456 193.684 838.952 194.746H838.916C838.61 193.378 837.728 192.676 836.198 192.676C834.758 192.676 833.462 193.756 833.03 194.818H832.994C832.994 194.818 833.048 194.512 833.048 194.134V192.892H831.356V202ZM847.773 191.056H849.573V189.292H847.773V191.056ZM847.809 202H849.555V192.892H847.809V202ZM851.645 197.446C851.645 200.182 853.643 202.216 856.523 202.216C857.945 202.216 859.331 201.64 860.159 200.758L859.457 199.48C858.755 200.218 857.657 200.704 856.649 200.704C854.759 200.704 853.427 199.282 853.427 197.428C853.427 195.574 854.759 194.188 856.595 194.188C857.549 194.188 858.503 194.62 859.115 195.232L859.943 194.008C859.079 193.09 857.729 192.676 856.523 192.676C853.661 192.676 851.645 194.746 851.645 197.446ZM866.547 205.6H868.293V201.46C868.293 200.992 868.221 200.668 868.221 200.668H868.257C868.887 201.64 869.931 202.216 871.083 202.216C873.477 202.216 875.205 200.344 875.205 197.446C875.205 194.62 873.675 192.676 871.209 192.676C869.877 192.676 868.725 193.288 868.149 194.386H868.113C868.113 194.386 868.167 194.08 868.167 193.702V192.892H866.547V205.6ZM868.239 197.482C868.239 195.178 869.499 194.206 870.867 194.206C872.379 194.206 873.441 195.484 873.441 197.464C873.441 199.534 872.253 200.704 870.813 200.704C869.139 200.704 868.239 199.102 868.239 197.482ZM876.764 197.446C876.764 200.146 878.744 202.216 881.606 202.216C882.866 202.216 884.252 201.73 885.134 200.92L884.396 199.642C883.676 200.29 882.686 200.704 881.714 200.704C880.076 200.704 878.672 199.642 878.582 197.68H885.206C885.242 197.428 885.278 197.176 885.278 196.942C885.278 194.602 883.91 192.676 881.336 192.676C878.744 192.676 876.764 194.548 876.764 197.446ZM878.636 196.42C878.888 194.908 879.95 194.026 881.3 194.026C882.488 194.026 883.46 194.854 883.514 196.42H878.636ZM887.377 202H889.123V198.22C889.123 196.456 889.951 194.512 891.913 194.512C892.093 194.512 892.345 194.53 892.417 194.548V192.82C892.273 192.802 892.111 192.784 891.949 192.784C890.545 192.784 889.483 193.882 889.051 195.196H889.015C889.015 195.196 889.069 194.908 889.069 194.53V192.892H887.377V202ZM894.577 202H896.323V194.404H898.465V192.982H896.323V192.604C896.323 190.93 897.547 190.732 898.231 190.732C898.429 190.732 898.609 190.75 898.681 190.768V189.256C898.447 189.22 898.249 189.202 898.015 189.202C896.863 189.202 894.577 189.58 894.577 192.586V192.982H893.443V194.404H894.577V202ZM899.404 197.428C899.404 200.2 901.6 202.216 904.318 202.216C907.018 202.216 909.214 200.2 909.214 197.428C909.214 194.674 907.018 192.676 904.3 192.676C901.6 192.676 899.404 194.674 899.404 197.428ZM901.186 197.428C901.186 195.538 902.59 194.188 904.318 194.188C906.028 194.188 907.45 195.538 907.45 197.428C907.45 199.336 906.028 200.704 904.318 200.704C902.59 200.704 901.186 199.336 901.186 197.428ZM911.319 202H913.065V198.22C913.065 196.456 913.893 194.512 915.855 194.512C916.035 194.512 916.287 194.53 916.359 194.548V192.82C916.215 192.802 916.053 192.784 915.891 192.784C914.487 192.784 913.425 193.882 912.993 195.196H912.957C912.957 195.196 913.011 194.908 913.011 194.53V192.892H911.319V202ZM918.086 202H919.832V197.752C919.832 196.06 920.84 194.26 922.568 194.26C923.954 194.26 924.134 195.358 924.134 196.546V202H925.88V197.752C925.88 196.006 926.888 194.26 928.58 194.26C929.93 194.26 930.182 195.268 930.182 196.546V202H931.928V196.168C931.928 193.846 930.992 192.676 928.922 192.676C927.446 192.676 926.186 193.684 925.682 194.746H925.646C925.34 193.378 924.458 192.676 922.928 192.676C921.488 192.676 920.192 193.756 919.76 194.818H919.724C919.724 194.818 919.778 194.512 919.778 194.134V192.892H918.086V202ZM933.783 199.516C933.783 201.226 935.241 202.216 936.825 202.216C938.175 202.216 939.291 201.406 939.813 200.362H939.849C939.849 200.362 939.795 200.668 939.795 201.082V202H941.433V196.24C941.433 193.936 940.119 192.676 937.833 192.676C936.555 192.676 935.169 193.144 934.431 193.756L935.133 195.034C935.871 194.512 936.789 194.152 937.689 194.152C938.823 194.152 939.687 194.656 939.687 196.15V196.33H939.219C937.329 196.33 933.783 196.654 933.783 199.516ZM935.529 199.372C935.529 197.698 937.941 197.59 939.237 197.59H939.687V197.932C939.687 199.282 938.769 200.83 937.239 200.83C936.105 200.83 935.529 200.092 935.529 199.372ZM944.032 202H945.778V197.626C945.778 195.754 947.038 194.278 948.82 194.278C950.278 194.278 950.53 195.286 950.53 196.564V202H952.276V196.168C952.276 193.846 951.304 192.676 949.162 192.676C947.164 192.676 946.048 194.026 945.706 194.818H945.67C945.67 194.818 945.724 194.512 945.724 194.134V192.892H944.032V202ZM954.283 197.446C954.283 200.182 956.281 202.216 959.161 202.216C960.583 202.216 961.969 201.64 962.797 200.758L962.095 199.48C961.393 200.218 960.295 200.704 959.287 200.704C957.397 200.704 956.065 199.282 956.065 197.428C956.065 195.574 957.397 194.188 959.233 194.188C960.187 194.188 961.141 194.62 961.753 195.232L962.581 194.008C961.717 193.09 960.367 192.676 959.161 192.676C956.299 192.676 954.283 194.746 954.283 197.446ZM963.899 197.446C963.899 200.146 965.879 202.216 968.741 202.216C970.001 202.216 971.387 201.73 972.269 200.92L971.531 199.642C970.811 200.29 969.821 200.704 968.849 200.704C967.211 200.704 965.807 199.642 965.717 197.68H972.341C972.377 197.428 972.413 197.176 972.413 196.942C972.413 194.602 971.045 192.676 968.471 192.676C965.879 192.676 963.899 194.548 963.899 197.446ZM965.771 196.42C966.023 194.908 967.085 194.026 968.435 194.026C969.623 194.026 970.595 194.854 970.649 196.42H965.771ZM665.594 227.516C665.594 229.226 667.052 230.216 668.636 230.216C669.986 230.216 671.102 229.406 671.624 228.362H671.66C671.66 228.362 671.606 228.668 671.606 229.082V230H673.244V224.24C673.244 221.936 671.93 220.676 669.644 220.676C668.366 220.676 666.98 221.144 666.242 221.756L666.944 223.034C667.682 222.512 668.6 222.152 669.5 222.152C670.634 222.152 671.498 222.656 671.498 224.15V224.33H671.03C669.14 224.33 665.594 224.654 665.594 227.516ZM667.34 227.372C667.34 225.698 669.752 225.59 671.048 225.59H671.498V225.932C671.498 227.282 670.58 228.83 669.05 228.83C667.916 228.83 667.34 228.092 667.34 227.372ZM675.842 230H677.588V225.626C677.588 223.754 678.848 222.278 680.63 222.278C682.088 222.278 682.34 223.286 682.34 224.564V230H684.086V224.168C684.086 221.846 683.114 220.676 680.972 220.676C678.974 220.676 677.858 222.026 677.516 222.818H677.48C677.48 222.818 677.534 222.512 677.534 222.134V220.892H675.842V230ZM686.13 225.446C686.13 228.272 687.696 230.216 690.144 230.216C691.584 230.216 692.646 229.46 693.168 228.47H693.204C693.204 228.47 693.15 228.722 693.15 229.082V230H694.806V217.292H693.078V221.558C693.078 221.9 693.114 222.17 693.114 222.17H693.078C692.502 221.198 691.404 220.676 690.252 220.676C687.84 220.676 686.13 222.548 686.13 225.446ZM687.912 225.446C687.912 223.376 689.1 222.206 690.522 222.206C692.268 222.206 693.114 223.79 693.114 225.428C693.114 227.732 691.836 228.704 690.486 228.704C688.974 228.704 687.912 227.426 687.912 225.446ZM701.404 225.446C701.404 228.182 703.402 230.216 706.282 230.216C707.704 230.216 709.09 229.64 709.918 228.758L709.216 227.48C708.514 228.218 707.416 228.704 706.408 228.704C704.518 228.704 703.186 227.282 703.186 225.428C703.186 223.574 704.518 222.188 706.354 222.188C707.308 222.188 708.262 222.62 708.874 223.232L709.702 222.008C708.838 221.09 707.488 220.676 706.282 220.676C703.42 220.676 701.404 222.746 701.404 225.446ZM711.807 230H713.553V225.68C713.553 223.718 714.831 222.278 716.595 222.278C718.053 222.278 718.305 223.286 718.305 224.564V230H720.051V224.168C720.051 221.846 719.079 220.676 716.937 220.676C715.119 220.676 713.931 221.9 713.517 222.764H713.481C713.481 222.764 713.553 222.44 713.553 222.008V217.292H711.807V230ZM722.059 225.428C722.059 228.2 724.255 230.216 726.973 230.216C729.673 230.216 731.869 228.2 731.869 225.428C731.869 222.674 729.673 220.676 726.955 220.676C724.255 220.676 722.059 222.674 722.059 225.428ZM723.841 225.428C723.841 223.538 725.245 222.188 726.973 222.188C728.683 222.188 730.105 223.538 730.105 225.428C730.105 227.336 728.683 228.704 726.973 228.704C725.245 228.704 723.841 227.336 723.841 225.428ZM733.379 225.428C733.379 228.2 735.575 230.216 738.293 230.216C740.993 230.216 743.189 228.2 743.189 225.428C743.189 222.674 740.993 220.676 738.275 220.676C735.575 220.676 733.379 222.674 733.379 225.428ZM735.161 225.428C735.161 223.538 736.565 222.188 738.293 222.188C740.003 222.188 741.425 223.538 741.425 225.428C741.425 227.336 740.003 228.704 738.293 228.704C736.565 228.704 735.161 227.336 735.161 225.428ZM744.519 228.884C745.419 229.802 746.769 230.216 747.993 230.216C749.937 230.216 751.269 229.082 751.269 227.534C751.269 224.528 746.571 225.05 746.571 223.268C746.571 222.494 747.237 222.134 748.119 222.134C748.929 222.134 749.883 222.44 750.423 222.944L751.125 221.684C750.333 220.964 749.217 220.676 748.173 220.676C746.391 220.676 744.897 221.576 744.897 223.304C744.897 226.292 749.577 225.824 749.577 227.57C749.577 228.326 748.947 228.758 748.029 228.758C747.075 228.758 746.031 228.362 745.347 227.696L744.519 228.884ZM752.75 225.446C752.75 228.146 754.73 230.216 757.592 230.216C758.852 230.216 760.238 229.73 761.12 228.92L760.382 227.642C759.662 228.29 758.672 228.704 757.7 228.704C756.062 228.704 754.658 227.642 754.568 225.68H761.192C761.228 225.428 761.264 225.176 761.264 224.942C761.264 222.602 759.896 220.676 757.322 220.676C754.73 220.676 752.75 222.548 752.75 225.446ZM754.622 224.42C754.874 222.908 755.936 222.026 757.286 222.026C758.474 222.026 759.446 222.854 759.5 224.42H754.622ZM766.921 231.89L766.309 233.222C766.309 233.222 767.047 233.78 768.055 233.78C769.333 233.78 770.467 233.06 771.007 231.638L775.291 220.892H773.401L771.187 226.868C771.025 227.336 770.881 227.948 770.881 227.948H770.845C770.845 227.948 770.683 227.3 770.503 226.85L768.217 220.892H766.255L770.071 229.892L769.621 230.936C769.279 231.764 768.685 232.286 767.965 232.286C767.425 232.286 766.921 231.89 766.921 231.89ZM776.094 225.428C776.094 228.2 778.29 230.216 781.008 230.216C783.708 230.216 785.904 228.2 785.904 225.428C785.904 222.674 783.708 220.676 780.99 220.676C778.29 220.676 776.094 222.674 776.094 225.428ZM777.876 225.428C777.876 223.538 779.28 222.188 781.008 222.188C782.718 222.188 784.14 223.538 784.14 225.428C784.14 227.336 782.718 228.704 781.008 228.704C779.28 228.704 777.876 227.336 777.876 225.428ZM787.9 226.724C787.9 229.136 788.962 230.216 791.014 230.216C792.796 230.216 794.002 228.974 794.398 228.074H794.434C794.434 228.074 794.362 228.38 794.362 228.74V230H796.054V220.892H794.326V225.158C794.326 226.958 793.228 228.596 791.356 228.596C789.916 228.596 789.646 227.588 789.646 226.328V220.892H787.9V226.724ZM798.748 230H800.494V226.22C800.494 224.456 801.322 222.512 803.284 222.512C803.464 222.512 803.716 222.53 803.788 222.548V220.82C803.644 220.802 803.482 220.784 803.32 220.784C801.916 220.784 800.854 221.882 800.422 223.196H800.386C800.386 223.196 800.44 222.908 800.44 222.53V220.892H798.748V230ZM809.018 225.446C809.018 228.182 811.016 230.216 813.896 230.216C815.318 230.216 816.704 229.64 817.532 228.758L816.83 227.48C816.128 228.218 815.03 228.704 814.022 228.704C812.132 228.704 810.8 227.282 810.8 225.428C810.8 223.574 812.132 222.188 813.968 222.188C814.922 222.188 815.876 222.62 816.488 223.232L817.316 222.008C816.452 221.09 815.102 220.676 813.896 220.676C811.034 220.676 809.018 222.746 809.018 225.446ZM818.615 225.428C818.615 228.2 820.811 230.216 823.529 230.216C826.229 230.216 828.425 228.2 828.425 225.428C828.425 222.674 826.229 220.676 823.511 220.676C820.811 220.676 818.615 222.674 818.615 225.428ZM820.397 225.428C820.397 223.538 821.801 222.188 823.529 222.188C825.239 222.188 826.661 223.538 826.661 225.428C826.661 227.336 825.239 228.704 823.529 228.704C821.801 228.704 820.397 227.336 820.397 225.428ZM830.422 226.724C830.422 229.136 831.484 230.216 833.536 230.216C835.318 230.216 836.524 228.974 836.92 228.074H836.956C836.956 228.074 836.884 228.38 836.884 228.74V230H838.576V220.892H836.848V225.158C836.848 226.958 835.75 228.596 833.878 228.596C832.438 228.596 832.168 227.588 832.168 226.328V220.892H830.422V226.724ZM841.27 230H843.016V226.22C843.016 224.456 843.844 222.512 845.806 222.512C845.986 222.512 846.238 222.53 846.31 222.548V220.82C846.166 220.802 846.004 220.784 845.842 220.784C844.438 220.784 843.376 221.882 842.944 223.196H842.908C842.908 223.196 842.962 222.908 842.962 222.53V220.892H841.27V230ZM847.264 228.884C848.164 229.802 849.514 230.216 850.738 230.216C852.682 230.216 854.014 229.082 854.014 227.534C854.014 224.528 849.316 225.05 849.316 223.268C849.316 222.494 849.982 222.134 850.864 222.134C851.674 222.134 852.628 222.44 853.168 222.944L853.87 221.684C853.078 220.964 851.962 220.676 850.918 220.676C849.136 220.676 847.642 221.576 847.642 223.304C847.642 226.292 852.322 225.824 852.322 227.57C852.322 228.326 851.692 228.758 850.774 228.758C849.82 228.758 848.776 228.362 848.092 227.696L847.264 228.884ZM855.494 225.446C855.494 228.146 857.474 230.216 860.336 230.216C861.596 230.216 862.982 229.73 863.864 228.92L863.126 227.642C862.406 228.29 861.416 228.704 860.444 228.704C858.806 228.704 857.402 227.642 857.312 225.68H863.936C863.972 225.428 864.008 225.176 864.008 224.942C864.008 222.602 862.64 220.676 860.066 220.676C857.474 220.676 855.494 222.548 855.494 225.446ZM857.366 224.42C857.618 222.908 858.68 222.026 860.03 222.026C861.218 222.026 862.19 222.854 862.244 224.42H857.366Z" fill="#505257"/>
</svg>
