<svg width="1109" height="298" viewBox="0 0 1109 298" fill="none" xmlns="http://www.w3.org/2000/svg">
<path d="M600 4.40122C600 2.86065 600 2.09037 600.3 1.50195C600.563 0.984356 600.984 0.563541 601.501 0.299816C602.089 0 602.859 0 604.398 0H1104.6C1106.14 0 1106.91 0 1107.5 0.299816C1108.02 0.563541 1108.44 0.984356 1108.7 1.50195C1109 2.09037 1109 2.86066 1109 4.40123V293.599C1109 295.139 1109 295.91 1108.7 296.498C1108.44 297.016 1108.02 297.436 1107.5 297.7C1106.91 298 1106.14 298 1104.6 298H604.398C602.859 298 602.089 298 601.501 297.7C600.984 297.436 600.563 297.016 600.3 296.498C600 295.91 600 295.139 600 293.599V4.40122Z" fill="#F3F3F3"/>
<path d="M747 58.2049C747 57.0831 747 56.5222 747.189 56.0937C747.355 55.7168 747.62 55.4104 747.947 55.2183C748.317 55 748.803 55 749.774 55H1065.23C1066.2 55 1066.68 55 1067.05 55.2183C1067.38 55.4104 1067.64 55.7168 1067.81 56.0937C1068 56.5222 1068 57.0831 1068 58.2049V268.795C1068 269.917 1068 270.478 1067.81 270.906C1067.64 271.283 1067.38 271.59 1067.05 271.782C1066.68 272 1066.2 272 1065.23 272H749.774C748.803 272 748.317 272 747.947 271.782C747.62 271.59 747.355 271.283 747.189 270.906C747 270.478 747 269.917 747 268.795V58.2049Z" fill="white"/>
<path d="M760 216.321C760 216.208 760 216.152 760.023 216.109C760.042 216.072 760.074 216.041 760.113 216.022C760.157 216 760.215 216 760.331 216H784.669C784.785 216 784.843 216 784.887 216.022C784.926 216.041 784.958 216.072 784.977 216.109C785 216.152 785 216.208 785 216.321V229.679C785 229.792 785 229.848 784.977 229.891C784.958 229.928 784.926 229.959 784.887 229.978C784.843 230 784.785 230 784.669 230H760.331C760.215 230 760.157 230 760.113 229.978C760.074 229.959 760.042 229.928 760.023 229.891C760 229.848 760 229.792 760 229.679V216.321Z" fill="#F3F3F3"/>
<path d="M790 202.642C790 202.417 790 202.305 790.023 202.219C790.042 202.143 790.074 202.082 790.113 202.044C790.157 202 790.215 202 790.331 202H814.669C814.785 202 814.843 202 814.887 202.044C814.926 202.082 814.958 202.143 814.977 202.219C815 202.305 815 202.417 815 202.642V229.358C815 229.583 815 229.695 814.977 229.781C814.958 229.857 814.926 229.918 814.887 229.956C814.843 230 814.785 230 814.669 230H790.331C790.215 230 790.157 230 790.113 229.956C790.074 229.918 790.042 229.857 790.023 229.781C790 229.695 790 229.583 790 229.358V202.642Z" fill="#F3F3F3"/>
<path d="M850 175.283C850 174.834 850 174.609 850.023 174.438C850.042 174.287 850.074 174.164 850.113 174.087C850.157 174 850.215 174 850.331 174H874.669C874.785 174 874.843 174 874.887 174.087C874.926 174.164 874.958 174.287 874.977 174.438C875 174.609 875 174.834 875 175.283V228.717C875 229.166 875 229.391 874.977 229.562C874.958 229.713 874.926 229.836 874.887 229.913C874.843 230 874.785 230 874.669 230H850.331C850.215 230 850.157 230 850.113 229.913C850.074 229.836 850.042 229.713 850.023 229.562C850 229.391 850 229.166 850 228.717V175.283Z" fill="#F3F3F3"/>
<path d="M820 188.962C820 188.625 820 188.457 820.023 188.328C820.042 188.215 820.074 188.123 820.113 188.066C820.157 188 820.215 188 820.331 188H844.669C844.785 188 844.843 188 844.887 188.066C844.926 188.123 844.958 188.215 844.977 188.328C845 188.457 845 188.625 845 188.962V229.038C845 229.375 845 229.543 844.977 229.672C844.958 229.785 844.926 229.877 844.887 229.934C844.843 230 844.785 230 844.669 230H820.331C820.215 230 820.157 230 820.113 229.934C820.074 229.877 820.042 229.785 820.023 229.672C820 229.543 820 229.375 820 229.038V188.962Z" fill="#F3F3F3"/>
<path d="M880 161.604C880 161.042 880 160.762 880.023 160.547C880.042 160.359 880.074 160.205 880.113 160.109C880.157 160 880.215 160 880.331 160H904.669C904.785 160 904.843 160 904.887 160.109C904.926 160.205 904.958 160.359 904.977 160.547C905 160.762 905 161.042 905 161.604V228.396C905 228.958 905 229.238 904.977 229.453C904.958 229.641 904.926 229.795 904.887 229.891C904.843 230 904.785 230 904.669 230H880.331C880.215 230 880.157 230 880.113 229.891C880.074 229.795 880.042 229.641 880.023 229.453C880 229.238 880 228.958 880 228.396V161.604Z" fill="#F3F3F3"/>
<path d="M910 147.925C910 147.251 910 146.914 910.023 146.657C910.042 146.43 910.074 146.246 910.113 146.131C910.157 146 910.215 146 910.331 146H934.669C934.785 146 934.843 146 934.887 146.131C934.926 146.246 934.958 146.43 934.977 146.657C935 146.914 935 147.251 935 147.925V228.075C935 228.749 935 229.086 934.977 229.343C934.958 229.57 934.926 229.754 934.887 229.869C934.843 230 934.785 230 934.669 230H910.331C910.215 230 910.157 230 910.113 229.869C910.074 229.754 910.042 229.57 910.023 229.343C910 229.086 910 228.749 910 228.075V147.925Z" fill="#F3F3F3"/>
<path d="M940 134.245C940 133.459 940 133.066 940.023 132.766C940.042 132.502 940.074 132.287 940.113 132.153C940.157 132 940.215 132 940.331 132H964.669C964.785 132 964.843 132 964.887 132.153C964.926 132.287 964.958 132.502 964.977 132.766C965 133.066 965 133.459 965 134.245V227.755C965 228.541 965 228.934 964.977 229.234C964.958 229.498 964.926 229.713 964.887 229.847C964.843 230 964.785 230 964.669 230H940.331C940.215 230 940.157 230 940.113 229.847C940.074 229.713 940.042 229.498 940.023 229.234C940 228.934 940 228.541 940 227.755V134.245Z" fill="#F3F3F3"/>
<path d="M970 120.566C970 119.668 970 119.219 970.023 118.876C970.042 118.574 970.074 118.329 970.113 118.175C970.157 118 970.215 118 970.331 118H994.669C994.785 118 994.843 118 994.887 118.175C994.926 118.329 994.958 118.574 994.977 118.876C995 119.219 995 119.668 995 120.566V227.434C995 228.332 995 228.781 994.977 229.124C994.958 229.426 994.926 229.671 994.887 229.825C994.843 230 994.785 230 994.669 230H970.331C970.215 230 970.157 230 970.113 229.825C970.074 229.671 970.042 229.426 970.023 229.124C970 228.781 970 228.332 970 227.434V120.566Z" fill="#F3F3F3"/>
<path d="M1000 106.887C1000 105.876 1000 105.371 1000.02 104.985C1000.04 104.646 1000.07 104.37 1000.11 104.197C1000.16 104 1000.22 104 1000.33 104H1024.67C1024.78 104 1024.84 104 1024.89 104.197C1024.93 104.37 1024.96 104.646 1024.98 104.985C1025 105.371 1025 105.876 1025 106.887V227.113C1025 228.124 1025 228.629 1024.98 229.015C1024.96 229.354 1024.93 229.63 1024.89 229.803C1024.84 230 1024.78 230 1024.67 230H1000.33C1000.22 230 1000.16 230 1000.11 229.803C1000.07 229.63 1000.04 229.354 1000.02 229.015C1000 228.629 1000 228.124 1000 227.113V106.887Z" fill="#F3F3F3"/>
<path d="M1030 93.2076C1030 92.0849 1030 91.5235 1030.02 91.0946C1030.04 90.7174 1030.07 90.4107 1030.11 90.2185C1030.16 90 1030.22 90 1030.33 90H1054.67C1054.78 90 1054.84 90 1054.89 90.2185C1054.93 90.4107 1054.96 90.7174 1054.98 91.0946C1055 91.5235 1055 92.0849 1055 93.2076V226.792C1055 227.915 1055 228.477 1054.98 228.905C1054.96 229.283 1054.93 229.589 1054.89 229.781C1054.84 230 1054.78 230 1054.67 230H1030.33C1030.22 230 1030.16 230 1030.11 229.781C1030.07 229.589 1030.04 229.283 1030.02 228.905C1030 228.477 1030 227.915 1030 226.792V93.2076Z" fill="#F04B5D"/>
<path d="M1038 79.5L1040.67 82L1046 77" stroke="#222224" stroke-width="2"/>
<path d="M747 21.8444C747 20.8488 747 20.351 747.101 19.9707C747.19 19.6362 747.332 19.3642 747.507 19.1938C747.705 19 747.965 19 748.485 19H774.515C775.035 19 775.295 19 775.493 19.1938C775.668 19.3642 775.81 19.6362 775.899 19.9707C776 20.351 776 20.8488 776 21.8444V24.1556C776 25.1512 776 25.649 775.899 26.0293C775.81 26.3638 775.668 26.6358 775.493 26.8062C775.295 27 775.035 27 774.515 27H748.485C747.965 27 747.705 27 747.507 26.8062C747.332 26.6358 747.19 26.3638 747.101 26.0293C747 25.649 747 25.1512 747 24.1556V21.8444Z" fill="#424754"/>
<path d="M770 238.873C770 238.567 770 238.415 770.01 238.298C770.02 238.195 770.034 238.112 770.052 238.059C770.073 238 770.1 238 770.154 238H775.846C775.9 238 775.927 238 775.948 238.059C775.966 238.112 775.98 238.195 775.99 238.298C776 238.415 776 238.567 776 238.873V240.127C776 240.433 776 240.585 775.99 240.702C775.98 240.805 775.966 240.888 775.948 240.941C775.927 241 775.9 241 775.846 241H770.154C770.1 241 770.073 241 770.052 240.941C770.034 240.888 770.02 240.805 770.01 240.702C770 240.585 770 240.433 770 240.127V238.873Z" fill="#424754"/>
<path d="M800 238.873C800 238.567 800 238.415 800.01 238.298C800.02 238.195 800.034 238.112 800.052 238.059C800.073 238 800.1 238 800.154 238H805.846C805.9 238 805.927 238 805.948 238.059C805.966 238.112 805.98 238.195 805.99 238.298C806 238.415 806 238.567 806 238.873V240.127C806 240.433 806 240.585 805.99 240.702C805.98 240.805 805.966 240.888 805.948 240.941C805.927 241 805.9 241 805.846 241H800.154C800.1 241 800.073 241 800.052 240.941C800.034 240.888 800.02 240.805 800.01 240.702C800 240.585 800 240.433 800 240.127V238.873Z" fill="#424754"/>
<path d="M830 238.873C830 238.567 830 238.415 830.01 238.298C830.02 238.195 830.034 238.112 830.052 238.059C830.073 238 830.1 238 830.154 238H835.846C835.9 238 835.927 238 835.948 238.059C835.966 238.112 835.98 238.195 835.99 238.298C836 238.415 836 238.567 836 238.873V240.127C836 240.433 836 240.585 835.99 240.702C835.98 240.805 835.966 240.888 835.948 240.941C835.927 241 835.9 241 835.846 241H830.154C830.1 241 830.073 241 830.052 240.941C830.034 240.888 830.02 240.805 830.01 240.702C830 240.585 830 240.433 830 240.127V238.873Z" fill="#424754"/>
<path d="M860 238.873C860 238.567 860 238.415 860.01 238.298C860.02 238.195 860.034 238.112 860.052 238.059C860.073 238 860.1 238 860.154 238H865.846C865.9 238 865.927 238 865.948 238.059C865.966 238.112 865.98 238.195 865.99 238.298C866 238.415 866 238.567 866 238.873V240.127C866 240.433 866 240.585 865.99 240.702C865.98 240.805 865.966 240.888 865.948 240.941C865.927 241 865.9 241 865.846 241H860.154C860.1 241 860.073 241 860.052 240.941C860.034 240.888 860.02 240.805 860.01 240.702C860 240.585 860 240.433 860 240.127V238.873Z" fill="#424754"/>
<path d="M890 238.873C890 238.567 890 238.415 890.01 238.298C890.02 238.195 890.034 238.112 890.052 238.059C890.073 238 890.1 238 890.154 238H895.846C895.9 238 895.927 238 895.948 238.059C895.966 238.112 895.98 238.195 895.99 238.298C896 238.415 896 238.567 896 238.873V240.127C896 240.433 896 240.585 895.99 240.702C895.98 240.805 895.966 240.888 895.948 240.941C895.927 241 895.9 241 895.846 241H890.154C890.1 241 890.073 241 890.052 240.941C890.034 240.888 890.02 240.805 890.01 240.702C890 240.585 890 240.433 890 240.127V238.873Z" fill="#424754"/>
<path d="M920 238.873C920 238.567 920 238.415 920.01 238.298C920.02 238.195 920.034 238.112 920.052 238.059C920.073 238 920.1 238 920.154 238H925.846C925.9 238 925.927 238 925.948 238.059C925.966 238.112 925.98 238.195 925.99 238.298C926 238.415 926 238.567 926 238.873V240.127C926 240.433 926 240.585 925.99 240.702C925.98 240.805 925.966 240.888 925.948 240.941C925.927 241 925.9 241 925.846 241H920.154C920.1 241 920.073 241 920.052 240.941C920.034 240.888 920.02 240.805 920.01 240.702C920 240.585 920 240.433 920 240.127V238.873Z" fill="#424754"/>
<path d="M950 238.873C950 238.567 950 238.415 950.01 238.298C950.02 238.195 950.034 238.112 950.052 238.059C950.073 238 950.1 238 950.154 238H955.846C955.9 238 955.927 238 955.948 238.059C955.966 238.112 955.98 238.195 955.99 238.298C956 238.415 956 238.567 956 238.873V240.127C956 240.433 956 240.585 955.99 240.702C955.98 240.805 955.966 240.888 955.948 240.941C955.927 241 955.9 241 955.846 241H950.154C950.1 241 950.073 241 950.052 240.941C950.034 240.888 950.02 240.805 950.01 240.702C950 240.585 950 240.433 950 240.127V238.873Z" fill="#424754"/>
<path d="M980 238.873C980 238.567 980 238.415 980.01 238.298C980.02 238.195 980.034 238.112 980.052 238.059C980.073 238 980.1 238 980.154 238H985.846C985.9 238 985.927 238 985.948 238.059C985.966 238.112 985.98 238.195 985.99 238.298C986 238.415 986 238.567 986 238.873V240.127C986 240.433 986 240.585 985.99 240.702C985.98 240.805 985.966 240.888 985.948 240.941C985.927 241 985.9 241 985.846 241H980.154C980.1 241 980.073 241 980.052 240.941C980.034 240.888 980.02 240.805 980.01 240.702C980 240.585 980 240.433 980 240.127V238.873Z" fill="#424754"/>
<path d="M1010 238.873C1010 238.567 1010 238.415 1010.01 238.298C1010.02 238.195 1010.03 238.112 1010.05 238.059C1010.07 238 1010.1 238 1010.15 238H1015.85C1015.9 238 1015.93 238 1015.95 238.059C1015.97 238.112 1015.98 238.195 1015.99 238.298C1016 238.415 1016 238.567 1016 238.873V240.127C1016 240.433 1016 240.585 1015.99 240.702C1015.98 240.805 1015.97 240.888 1015.95 240.941C1015.93 241 1015.9 241 1015.85 241H1010.15C1010.1 241 1010.07 241 1010.05 240.941C1010.03 240.888 1010.02 240.805 1010.01 240.702C1010 240.585 1010 240.433 1010 240.127V238.873Z" fill="#424754"/>
<path d="M1040 238.873C1040 238.567 1040 238.415 1040.01 238.298C1040.02 238.195 1040.03 238.112 1040.05 238.059C1040.07 238 1040.1 238 1040.15 238H1045.85C1045.9 238 1045.93 238 1045.95 238.059C1045.97 238.112 1045.98 238.195 1045.99 238.298C1046 238.415 1046 238.567 1046 238.873V240.127C1046 240.433 1046 240.585 1045.99 240.702C1045.98 240.805 1045.97 240.888 1045.95 240.941C1045.93 241 1045.9 241 1045.85 241H1040.15C1040.1 241 1040.07 241 1040.05 240.941C1040.03 240.888 1040.02 240.805 1040.01 240.702C1040 240.585 1040 240.433 1040 240.127V238.873Z" fill="#424754"/>
<path d="M760 256.455C760 255.945 760 255.691 760.1 255.496C760.187 255.325 760.327 255.186 760.5 255.099C760.695 255 760.951 255 761.464 255H989.536C990.049 255 990.305 255 990.5 255.099C990.673 255.186 990.813 255.325 990.9 255.496C991 255.691 991 255.945 991 256.455V258.545C991 259.055 991 259.309 990.9 259.504C990.813 259.675 990.673 259.814 990.5 259.901C990.305 260 990.049 260 989.536 260H761.464C760.951 260 760.695 260 760.5 259.901C760.327 259.814 760.187 259.675 760.1 259.504C760 259.309 760 259.055 760 258.545V256.455Z" fill="#97999D"/>
<path d="M600 4.40122C600 2.86065 600 2.09037 600.299 1.50195C600.562 0.984356 600.981 0.563541 601.497 0.299816C602.084 0 602.852 0 604.388 0H712.612C714.148 0 714.916 0 715.503 0.299816C716.019 0.563541 716.438 0.984356 716.701 1.50195C717 2.09037 717 2.86066 717 4.40123V293.599C717 295.139 717 295.91 716.701 296.498C716.438 297.016 716.019 297.436 715.503 297.7C714.916 298 714.148 298 712.612 298H604.388C602.852 298 602.084 298 601.497 297.7C600.981 297.436 600.562 297.016 600.299 296.498C600 295.91 600 295.139 600 293.599V4.40122Z" fill="#FFEAEC"/>
<path d="M600 60.4979C600 59.9736 600 59.7114 600.1 59.5112C600.188 59.335 600.328 59.1918 600.501 59.102C600.697 59 600.954 59 601.468 59H715.532C716.046 59 716.303 59 716.499 59.102C716.672 59.1918 716.812 59.335 716.9 59.5112C717 59.7114 717 59.9736 717 60.4979V79.5021C717 80.0264 717 80.2886 716.9 80.4888C716.812 80.665 716.672 80.8082 716.499 80.898C716.303 81 716.046 81 715.532 81H601.468C600.954 81 600.697 81 600.501 80.898C600.328 80.8082 600.188 80.665 600.1 80.4888C600 80.2886 600 80.0264 600 79.5021V60.4979Z" fill="#FFEAEC"/>
<path d="M630 68.4545C630 67.9454 630 67.6908 630.099 67.4964C630.187 67.3253 630.326 67.1862 630.498 67.0991C630.693 67 630.948 67 631.459 67H685.541C686.052 67 686.307 67 686.502 67.0991C686.674 67.1862 686.813 67.3253 686.901 67.4964C687 67.6908 687 67.9454 687 68.4545V70.5455C687 71.0546 687 71.3092 686.901 71.5036C686.813 71.6747 686.674 71.8138 686.502 71.9009C686.307 72 686.052 72 685.541 72H631.459C630.948 72 630.693 72 630.498 71.9009C630.326 71.8138 630.187 71.6747 630.099 71.5036C630 71.3092 630 71.0546 630 70.5455V68.4545Z" fill="#F04B5D"/>
<path d="M655 20.4545C655 19.9454 655 19.6908 655.099 19.4964C655.185 19.3253 655.324 19.1862 655.494 19.0991C655.688 19 655.941 19 656.448 19H696.552C697.059 19 697.312 19 697.506 19.0991C697.676 19.1862 697.815 19.3253 697.901 19.4964C698 19.6908 698 19.9454 698 20.4545V22.5455C698 23.0546 698 23.3092 697.901 23.5036C697.815 23.6747 697.676 23.8138 697.506 23.9009C697.312 24 697.059 24 696.552 24H656.448C655.941 24 655.688 24 655.494 23.9009C655.324 23.8138 655.185 23.6747 655.099 23.5036C655 23.3092 655 23.0546 655 22.5455V20.4545Z" fill="#424754"/>
<path d="M630 15.4452C630 14.9393 630 14.6864 630.102 14.4932C630.191 14.3232 630.334 14.185 630.51 14.0984C630.709 14 630.971 14 631.493 14H642.507C643.029 14 643.291 14 643.49 14.0984C643.666 14.185 643.809 14.3232 643.898 14.4932C644 14.6864 644 14.9393 644 15.4452V26.5548C644 27.0607 644 27.3136 643.898 27.5068C643.809 27.6768 643.666 27.815 643.49 27.9016C643.291 28 643.029 28 642.507 28H631.493C630.971 28 630.709 28 630.51 27.9016C630.334 27.815 630.191 27.6768 630.102 27.5068C630 27.3136 630 27.0607 630 26.5548V15.4452Z" fill="#424754"/>
<path d="M630 90.4545C630 89.9454 630 89.6908 630.099 89.4964C630.187 89.3253 630.326 89.1862 630.498 89.0991C630.693 89 630.948 89 631.459 89H685.541C686.052 89 686.307 89 686.502 89.0991C686.674 89.1862 686.813 89.3253 686.901 89.4964C687 89.6908 687 89.9454 687 90.4545V92.5455C687 93.0546 687 93.3092 686.901 93.5036C686.813 93.6747 686.674 93.8138 686.502 93.9009C686.307 94 686.052 94 685.541 94H631.459C630.948 94 630.693 94 630.498 93.9009C630.326 93.8138 630.187 93.6747 630.099 93.5036C630 93.3092 630 93.0546 630 92.5455V90.4545Z" fill="#424754"/>
<path d="M630 111.455C630 110.945 630 110.691 630.099 110.496C630.187 110.325 630.326 110.186 630.498 110.099C630.693 110 630.948 110 631.459 110H685.541C686.052 110 686.307 110 686.502 110.099C686.674 110.186 686.813 110.325 686.901 110.496C687 110.691 687 110.945 687 111.455V113.545C687 114.055 687 114.309 686.901 114.504C686.813 114.675 686.674 114.814 686.502 114.901C686.307 115 686.052 115 685.541 115H631.459C630.948 115 630.693 115 630.498 114.901C630.326 114.814 630.187 114.675 630.099 114.504C630 114.309 630 114.055 630 113.545V111.455Z" fill="#424754"/>
<path d="M630 133.455C630 132.945 630 132.691 630.099 132.496C630.187 132.325 630.326 132.186 630.498 132.099C630.693 132 630.948 132 631.459 132H685.541C686.052 132 686.307 132 686.502 132.099C686.674 132.186 686.813 132.325 686.901 132.496C687 132.691 687 132.945 687 133.455V135.545C687 136.055 687 136.309 686.901 136.504C686.813 136.675 686.674 136.814 686.502 136.901C686.307 137 686.052 137 685.541 137H631.459C630.948 137 630.693 137 630.498 136.901C630.326 136.814 630.187 136.675 630.099 136.504C630 136.309 630 136.055 630 135.545V133.455Z" fill="#424754"/>
<path d="M630 154.745C630 154.134 630 153.829 630.099 153.596C630.187 153.39 630.326 153.223 630.498 153.119C630.693 153 630.948 153 631.459 153H685.541C686.052 153 686.307 153 686.502 153.119C686.674 153.223 686.813 153.39 686.901 153.596C687 153.829 687 154.134 687 154.745V157.255C687 157.866 687 158.171 686.901 158.404C686.813 158.61 686.674 158.777 686.502 158.881C686.307 159 686.052 159 685.541 159H631.459C630.948 159 630.693 159 630.498 158.881C630.326 158.777 630.187 158.61 630.099 158.404C630 158.171 630 157.866 630 157.255V154.745Z" fill="#424754"/>
<path d="M2.7 82H11.844C19.944 82 25.128 77.176 25.128 69.076C25.128 60.976 19.944 56.26 11.844 56.26H2.7V82ZM9 76.6V61.66H11.592C15.84 61.66 18.612 64.18 18.612 69.076C18.612 74.008 15.948 76.6 11.592 76.6H9ZM27.4112 72.712C27.4112 77.644 30.9752 82.432 37.5992 82.432C40.4432 82.432 43.5032 81.46 45.5192 79.732L43.2152 75.376C41.7032 76.384 39.9392 77.248 38.1032 77.248C36.1232 77.248 34.2512 76.204 33.7832 73.936H45.4832C45.5552 73.288 45.6272 72.64 45.6272 71.992C45.6272 66.844 42.5312 63.028 37.0592 63.028C31.0832 63.028 27.4112 67.276 27.4112 72.712ZM33.9272 70.372C34.2512 68.896 35.1152 67.6 36.9152 67.6C38.4992 67.6 39.4712 68.86 39.4712 70.372H33.9272ZM49.961 75.16C49.961 81.388 55.685 82.18 58.637 82.18C59.357 82.18 59.861 82.108 60.329 82.072V76.672C59.933 76.708 59.717 76.708 59.501 76.708C58.313 76.708 56.189 76.42 56.189 74.332V68.644H60.077V63.784H56.189V58.456H50.141V63.784H47.585V68.644H49.961V75.16ZM62.6378 72.712C62.6378 77.644 66.2018 82.432 72.8258 82.432C75.6698 82.432 78.7298 81.46 80.7458 79.732L78.4418 75.376C76.9298 76.384 75.1658 77.248 73.3298 77.248C71.3498 77.248 69.4778 76.204 69.0098 73.936H80.7098C80.7818 73.288 80.8538 72.64 80.8538 71.992C80.8538 66.844 77.7578 63.028 72.2858 63.028C66.3098 63.028 62.6378 67.276 62.6378 72.712ZM69.1538 70.372C69.4778 68.896 70.3418 67.6 72.1418 67.6C73.7258 67.6 74.6978 68.86 74.6978 70.372H69.1538ZM84.1075 82H90.3355V74.8C90.3355 71.416 91.9915 69.22 95.4475 69.22C95.8795 69.22 96.4915 69.256 96.7075 69.328V63.208C96.4915 63.172 96.2395 63.136 95.9875 63.136C93.2155 63.136 90.8755 65.224 90.0835 67.744H90.0115C90.0115 67.744 90.0835 67.204 90.0835 66.592V63.46H84.1075V82ZM99.4357 82H105.664V74.152C105.664 71.596 106.384 68.68 109.228 68.68C110.416 68.68 110.668 69.652 110.668 71.02V82H116.896V74.152C116.896 71.38 117.76 68.68 120.46 68.68C121.648 68.68 121.9 69.652 121.9 71.02V82H128.128V69.976C128.128 64.864 125.5 63.028 122.116 63.028C119.344 63.028 117.148 64.612 116.176 66.16H116.104C115.132 64.072 113.26 63.028 110.92 63.028C108.004 63.028 106.276 64.936 105.412 66.232H105.34C105.34 66.232 105.412 65.692 105.412 65.08V63.46H99.4357V82ZM132.238 61.12H138.322V56.26H132.238V61.12ZM132.166 82H138.394V63.46H132.166V82ZM142.572 82H148.8V73.612C148.8 70.984 150.06 68.68 152.832 68.68C154.2 68.68 154.884 69.4 154.884 71.128V82H161.112V69.976C161.112 64.756 158.196 63.028 154.452 63.028C151.176 63.028 149.412 64.792 148.548 66.232H148.476C148.476 66.232 148.548 65.692 148.548 65.08V63.46H142.572V82ZM164.064 72.712C164.064 77.644 167.628 82.432 174.252 82.432C177.096 82.432 180.156 81.46 182.172 79.732L179.868 75.376C178.356 76.384 176.592 77.248 174.756 77.248C172.776 77.248 170.904 76.204 170.436 73.936H182.136C182.208 73.288 182.28 72.64 182.28 71.992C182.28 66.844 179.184 63.028 173.712 63.028C167.736 63.028 164.064 67.276 164.064 72.712ZM170.58 70.372C170.904 68.896 171.768 67.6 173.568 67.6C175.152 67.6 176.124 68.86 176.124 70.372H170.58ZM194.594 75.16C194.594 81.388 200.318 82.18 203.27 82.18C203.99 82.18 204.494 82.108 204.962 82.072V76.672C204.566 76.708 204.35 76.708 204.134 76.708C202.946 76.708 200.822 76.42 200.822 74.332V68.644H204.71V63.784H200.822V58.456H194.774V63.784H192.218V68.644H194.594V75.16ZM208.315 82H214.543V73.648C214.543 70.804 215.875 68.68 218.575 68.68C219.943 68.68 220.627 69.4 220.627 71.128V82H226.855V69.976C226.855 64.756 223.939 63.028 220.195 63.028C217.747 63.028 215.587 64.144 214.543 65.98H214.471C214.471 65.98 214.543 65.332 214.543 64.396V56.26H208.315V82ZM229.806 72.712C229.806 77.644 233.37 82.432 239.994 82.432C242.838 82.432 245.898 81.46 247.914 79.732L245.61 75.376C244.098 76.384 242.334 77.248 240.498 77.248C238.518 77.248 236.646 76.204 236.178 73.936H247.878C247.95 73.288 248.022 72.64 248.022 71.992C248.022 66.844 244.926 63.028 239.454 63.028C233.478 63.028 229.806 67.276 229.806 72.712ZM236.322 70.372C236.646 68.896 237.51 67.6 239.31 67.6C240.894 67.6 241.866 68.86 241.866 70.372H236.322ZM259.888 75.16C259.888 81.388 263.416 82.18 266.728 82.18C267.52 82.18 268.168 82.108 268.6 82.072V76.672C268.312 76.708 268.024 76.708 267.844 76.708C266.44 76.708 266.116 76.096 266.116 74.332V56.26H259.888V75.16ZM270.517 72.712C270.517 77.644 274.081 82.432 280.705 82.432C283.549 82.432 286.609 81.46 288.625 79.732L286.321 75.376C284.809 76.384 283.045 77.248 281.209 77.248C279.229 77.248 277.357 76.204 276.889 73.936H288.589C288.661 73.288 288.733 72.64 288.733 71.992C288.733 66.844 285.637 63.028 280.165 63.028C274.189 63.028 270.517 67.276 270.517 72.712ZM277.033 70.372C277.357 68.896 278.221 67.6 280.021 67.6C281.605 67.6 282.577 68.86 282.577 70.372H277.033ZM296.098 82H303.694L309.994 63.46H303.406L300.562 73.324C300.202 74.548 299.878 76.528 299.878 76.528H299.806C299.806 76.528 299.482 74.512 299.122 73.324L296.242 63.46H289.69L296.098 82ZM310.841 72.712C310.841 77.644 314.405 82.432 321.029 82.432C323.873 82.432 326.933 81.46 328.949 79.732L326.645 75.376C325.133 76.384 323.369 77.248 321.533 77.248C319.553 77.248 317.681 76.204 317.213 73.936H328.913C328.985 73.288 329.057 72.64 329.057 71.992C329.057 66.844 325.961 63.028 320.489 63.028C314.513 63.028 310.841 67.276 310.841 72.712ZM317.357 70.372C317.681 68.896 318.545 67.6 320.345 67.6C321.929 67.6 322.901 68.86 322.901 70.372H317.357ZM332.275 75.16C332.275 81.388 335.803 82.18 339.115 82.18C339.907 82.18 340.555 82.108 340.987 82.072V76.672C340.699 76.708 340.411 76.708 340.231 76.708C338.827 76.708 338.503 76.096 338.503 74.332V56.26H332.275V75.16ZM1.044 114.784C1.044 120.58 5.724 124.432 11.556 124.432C17.388 124.432 22.068 120.58 22.068 114.784C22.068 108.952 17.388 105.028 11.52 105.028C5.724 105.028 1.044 108.952 1.044 114.784ZM7.344 114.784C7.344 111.976 9.288 110.212 11.556 110.212C13.824 110.212 15.768 111.976 15.768 114.784C15.768 117.556 13.824 119.248 11.556 119.248C9.288 119.248 7.344 117.556 7.344 114.784ZM26.2716 124H32.4996V110.644H35.9196V105.784H32.4996V105.208C32.4996 103.624 34.4076 103.408 35.6316 103.408C36.0996 103.408 36.4956 103.444 36.6396 103.48V98.224C35.9916 98.116 35.4156 98.116 34.7676 98.116C31.7796 98.116 26.2716 98.944 26.2716 105.028V105.784H24.0036V110.644H26.2716V124ZM47.0177 124H53.2457V116.8H55.1897L59.1137 124H66.2057L60.0137 113.956V113.884L65.4497 105.46H58.6817L55.0097 111.58H53.2457V98.26H47.0177V124ZM68.2872 124H74.5152V115.612C74.5152 112.984 75.7752 110.68 78.5472 110.68C79.9152 110.68 80.5992 111.4 80.5992 113.128V124H86.8272V111.976C86.8272 106.756 83.9112 105.028 80.1672 105.028C76.8912 105.028 75.1272 106.792 74.2632 108.232H74.1912C74.1912 108.232 74.2632 107.692 74.2632 107.08V105.46H68.2872V124ZM89.7784 114.784C89.7784 120.58 94.4584 124.432 100.29 124.432C106.122 124.432 110.802 120.58 110.802 114.784C110.802 108.952 106.122 105.028 100.254 105.028C94.4584 105.028 89.7784 108.952 89.7784 114.784ZM96.0784 114.784C96.0784 111.976 98.0224 110.212 100.29 110.212C102.558 110.212 104.502 111.976 104.502 114.784C104.502 117.556 102.558 119.248 100.29 119.248C98.0224 119.248 96.0784 117.556 96.0784 114.784ZM117.096 124H124.116L126.204 115.432C126.456 114.424 126.564 113.452 126.564 113.452H126.636C126.636 113.452 126.744 114.424 126.996 115.432L129.084 124H136.032L141.216 105.46H134.736L132.432 116.404C132.216 117.412 132.18 118.348 132.18 118.348H132.108C132.108 118.348 132.072 117.412 131.82 116.404L129.264 105.46H123.936L121.38 116.404C121.128 117.412 121.056 118.348 121.056 118.348H120.984C120.984 118.348 120.984 117.412 120.768 116.404L118.464 105.46H111.912L117.096 124ZM143.661 117.16C143.661 123.388 147.189 124.18 150.501 124.18C151.293 124.18 151.941 124.108 152.373 124.072V118.672C152.085 118.708 151.797 118.708 151.617 118.708C150.213 118.708 149.889 118.096 149.889 116.332V98.26H143.661V117.16ZM154.29 114.712C154.29 119.644 157.854 124.432 164.478 124.432C167.322 124.432 170.382 123.46 172.398 121.732L170.094 117.376C168.582 118.384 166.818 119.248 164.982 119.248C163.002 119.248 161.13 118.204 160.662 115.936H172.362C172.434 115.288 172.506 114.64 172.506 113.992C172.506 108.844 169.41 105.028 163.938 105.028C157.962 105.028 154.29 109.276 154.29 114.712ZM160.806 112.372C161.13 110.896 161.994 109.6 163.794 109.6C165.378 109.6 166.35 110.86 166.35 112.372H160.806ZM174.788 114.712C174.788 120.472 178.1 124.432 183.14 124.432C185.336 124.432 187.352 123.496 188.504 121.732H188.576C188.576 121.732 188.54 122.2 188.54 122.776V124H194.372V98.26H188.144V105.676C188.144 106.144 188.18 106.504 188.18 106.504H188.108C186.884 105.28 184.904 105.028 183.248 105.028C178.316 105.028 174.788 108.844 174.788 114.712ZM181.052 114.712C181.052 111.868 182.744 110.284 184.688 110.284C187.136 110.284 188.324 112.48 188.324 114.712C188.324 117.916 186.56 119.284 184.688 119.284C182.528 119.284 181.052 117.484 181.052 114.712ZM201.133 125.188L199.369 129.904C201.169 130.84 203.905 131.56 206.389 131.56C211.465 131.56 216.865 129.076 216.865 122.308V105.46H211.033V106.396C211.033 106.612 211.069 106.828 211.069 106.828H210.961C209.665 105.532 207.685 105.028 205.921 105.028C200.305 105.028 197.605 109.42 197.605 114.136C197.605 118.888 200.377 123.46 205.957 123.46C208.117 123.46 209.521 122.812 210.601 121.516H210.673C210.673 121.516 210.637 121.984 210.637 122.2V122.812C210.637 125.548 208.585 126.376 206.353 126.376C204.481 126.376 202.681 125.944 201.133 125.188ZM203.869 113.92C203.869 111.796 204.985 110.212 207.181 110.212C209.053 110.212 210.781 110.932 210.781 114.208C210.781 117.448 209.053 118.276 207.433 118.276C204.949 118.276 203.869 116.224 203.869 113.92ZM219.997 114.712C219.997 119.644 223.561 124.432 230.185 124.432C233.029 124.432 236.089 123.46 238.105 121.732L235.801 117.376C234.289 118.384 232.525 119.248 230.689 119.248C228.709 119.248 226.837 118.204 226.369 115.936H238.069C238.141 115.288 238.213 114.64 238.213 113.992C238.213 108.844 235.117 105.028 229.645 105.028C223.669 105.028 219.997 109.276 219.997 114.712ZM226.513 112.372C226.837 110.896 227.701 109.6 229.501 109.6C231.085 109.6 232.057 110.86 232.057 112.372H226.513Z" fill="#222224"/>
<path d="M1.674 183H3.456V170.292H1.674V183ZM6.39492 183H8.14092V178.626C8.14092 176.754 9.40092 175.278 11.1829 175.278C12.6409 175.278 12.8929 176.286 12.8929 177.564V183H14.6389V177.168C14.6389 174.846 13.6669 173.676 11.5249 173.676C9.52692 173.676 8.41092 175.026 8.06892 175.818H8.03292C8.03292 175.818 8.08692 175.512 8.08692 175.134V173.892H6.39492V183ZM17.6186 179.67C17.6186 182.712 19.9406 183.09 21.1106 183.09C21.3806 183.09 21.5786 183.054 21.7226 183.036V181.488C21.5426 181.524 21.4346 181.524 21.3086 181.524C20.6426 181.524 19.3646 181.29 19.3646 179.472V175.404H21.5606V173.982H19.3646V171.39H17.6546V173.982H16.4306V175.404H17.6186V179.67ZM22.8341 178.446C22.8341 181.146 24.8141 183.216 27.6761 183.216C28.9361 183.216 30.3221 182.73 31.2041 181.92L30.4661 180.642C29.7461 181.29 28.7561 181.704 27.7841 181.704C26.1461 181.704 24.7421 180.642 24.6521 178.68H31.2761C31.3121 178.428 31.3481 178.176 31.3481 177.942C31.3481 175.602 29.9801 173.676 27.4061 173.676C24.8141 173.676 22.8341 175.548 22.8341 178.446ZM24.7061 177.42C24.9581 175.908 26.0201 175.026 27.3701 175.026C28.5581 175.026 29.5301 175.854 29.5841 177.42H24.7061ZM33.4477 183H35.1937V179.22C35.1937 177.456 36.0217 175.512 37.9837 175.512C38.1637 175.512 38.4157 175.53 38.4877 175.548V173.82C38.3437 173.802 38.1817 173.784 38.0197 173.784C36.6157 173.784 35.5537 174.882 35.1217 176.196H35.0857C35.0857 176.196 35.1397 175.908 35.1397 175.53V173.892H33.4477V183ZM39.3927 178.446C39.3927 181.146 41.3727 183.216 44.2347 183.216C45.4947 183.216 46.8807 182.73 47.7627 181.92L47.0247 180.642C46.3047 181.29 45.3147 181.704 44.3427 181.704C42.7047 181.704 41.3007 180.642 41.2107 178.68H47.8347C47.8707 178.428 47.9067 178.176 47.9067 177.942C47.9067 175.602 46.5387 173.676 43.9647 173.676C41.3727 173.676 39.3927 175.548 39.3927 178.446ZM41.2647 177.42C41.5167 175.908 42.5787 175.026 43.9287 175.026C45.1167 175.026 46.0887 175.854 46.1427 177.42H41.2647ZM49.2323 181.884C50.1323 182.802 51.4823 183.216 52.7063 183.216C54.6503 183.216 55.9823 182.082 55.9823 180.534C55.9823 177.528 51.2843 178.05 51.2843 176.268C51.2843 175.494 51.9503 175.134 52.8323 175.134C53.6423 175.134 54.5963 175.44 55.1363 175.944L55.8383 174.684C55.0463 173.964 53.9303 173.676 52.8863 173.676C51.1043 173.676 49.6103 174.576 49.6103 176.304C49.6103 179.292 54.2903 178.824 54.2903 180.57C54.2903 181.326 53.6603 181.758 52.7423 181.758C51.7883 181.758 50.7443 181.362 50.0603 180.696L49.2323 181.884ZM58.435 179.67C58.435 182.712 60.757 183.09 61.927 183.09C62.197 183.09 62.395 183.054 62.539 183.036V181.488C62.359 181.524 62.251 181.524 62.125 181.524C61.459 181.524 60.181 181.29 60.181 179.472V175.404H62.377V173.982H60.181V171.39H58.471V173.982H57.247V175.404H58.435V179.67ZM64.2964 172.056H66.0964V170.292H64.2964V172.056ZM64.3324 183H66.0784V173.892H64.3324V183ZM68.7621 183H70.5081V178.626C70.5081 176.754 71.7681 175.278 73.5501 175.278C75.0081 175.278 75.2601 176.286 75.2601 177.564V183H77.0061V177.168C77.0061 174.846 76.0341 173.676 73.8921 173.676C71.8941 173.676 70.7781 175.026 70.4361 175.818H70.4001C70.4001 175.818 70.4541 175.512 70.4541 175.134V173.892H68.7621V183ZM80.4718 184.656L79.8958 186.024C80.7958 186.474 81.9118 186.78 83.0098 186.78C85.3138 186.78 87.5998 185.628 87.5998 182.622V173.892H85.9258V174.792C85.9258 174.954 85.9798 175.062 85.9798 175.062H85.9258C85.3498 174.09 84.1798 173.676 83.0458 173.676C80.5078 173.676 79.0678 175.62 79.0678 178.248C79.0678 180.858 80.5978 182.892 83.1358 182.892C84.4498 182.892 85.3318 182.316 85.8718 181.416H85.9078C85.9078 181.416 85.8538 181.704 85.8538 181.992V182.73C85.8538 184.548 84.5578 185.268 82.9738 185.268C82.0918 185.268 81.1918 185.016 80.4718 184.656ZM80.8318 178.194C80.8318 176.34 81.7498 175.188 83.3158 175.188C84.7378 175.188 85.8898 175.872 85.8898 178.248C85.8898 180.624 84.7378 181.38 83.4778 181.38C81.8398 181.38 80.8318 180.084 80.8318 178.194ZM0.594 208.516C0.594 210.226 2.052 211.216 3.636 211.216C4.986 211.216 6.102 210.406 6.624 209.362H6.66C6.66 209.362 6.606 209.668 6.606 210.082V211H8.244V205.24C8.244 202.936 6.93 201.676 4.644 201.676C3.366 201.676 1.98 202.144 1.242 202.756L1.944 204.034C2.682 203.512 3.6 203.152 4.5 203.152C5.634 203.152 6.498 203.656 6.498 205.15V205.33H6.03C4.14 205.33 0.594 205.654 0.594 208.516ZM2.34 208.372C2.34 206.698 4.752 206.59 6.048 206.59H6.498V206.932C6.498 208.282 5.58 209.83 4.05 209.83C2.916 209.83 2.34 209.092 2.34 208.372ZM10.8422 211H12.5882V206.626C12.5882 204.754 13.8482 203.278 15.6302 203.278C17.0882 203.278 17.3402 204.286 17.3402 205.564V211H19.0862V205.168C19.0862 202.846 18.1142 201.676 15.9722 201.676C13.9742 201.676 12.8582 203.026 12.5162 203.818H12.4802C12.4802 203.818 12.5342 203.512 12.5342 203.134V201.892H10.8422V211ZM21.1299 206.446C21.1299 209.272 22.6959 211.216 25.1439 211.216C26.5839 211.216 27.6459 210.46 28.1679 209.47H28.2039C28.2039 209.47 28.1499 209.722 28.1499 210.082V211H29.8059V198.292H28.0779V202.558C28.0779 202.9 28.1139 203.17 28.1139 203.17H28.0779C27.5019 202.198 26.4039 201.676 25.2519 201.676C22.8399 201.676 21.1299 203.548 21.1299 206.446ZM22.9119 206.446C22.9119 204.376 24.0999 203.206 25.5219 203.206C27.2679 203.206 28.1139 204.79 28.1139 206.428C28.1139 208.732 26.8359 209.704 25.4859 209.704C23.9739 209.704 22.9119 208.426 22.9119 206.446ZM36.4044 206.446C36.4044 209.146 38.3844 211.216 41.2464 211.216C42.5064 211.216 43.8924 210.73 44.7744 209.92L44.0364 208.642C43.3164 209.29 42.3264 209.704 41.3544 209.704C39.7164 209.704 38.3124 208.642 38.2224 206.68H44.8464C44.8824 206.428 44.9184 206.176 44.9184 205.942C44.9184 203.602 43.5504 201.676 40.9764 201.676C38.3844 201.676 36.4044 203.548 36.4044 206.446ZM38.2764 205.42C38.5284 203.908 39.5904 203.026 40.9404 203.026C42.1284 203.026 43.1004 203.854 43.1544 205.42H38.2764ZM45.9037 211H47.8837L49.7917 207.958C49.9357 207.742 50.0617 207.472 50.0617 207.472H50.0977C50.0977 207.472 50.2417 207.742 50.3857 207.958L52.2937 211H54.2737L51.1597 206.32L54.0937 201.892H52.0957L50.4037 204.664C50.2777 204.898 50.0977 205.204 50.0977 205.204H50.0617C50.0617 205.204 49.8997 204.898 49.7737 204.664L48.0817 201.892H46.0837L49.0177 206.32L45.9037 211ZM55.0373 206.446C55.0373 209.182 57.0353 211.216 59.9153 211.216C61.3373 211.216 62.7233 210.64 63.5513 209.758L62.8493 208.48C62.1473 209.218 61.0493 209.704 60.0413 209.704C58.1513 209.704 56.8193 208.282 56.8193 206.428C56.8193 204.574 58.1513 203.188 59.9873 203.188C60.9413 203.188 61.8953 203.62 62.5073 204.232L63.3353 203.008C62.4713 202.09 61.1213 201.676 59.9153 201.676C57.0533 201.676 55.0373 203.746 55.0373 206.446ZM65.4038 200.056H67.2038V198.292H65.4038V200.056ZM65.4398 211H67.1858V201.892H65.4398V211ZM70.2475 207.67C70.2475 210.712 72.5695 211.09 73.7395 211.09C74.0095 211.09 74.2075 211.054 74.3515 211.036V209.488C74.1715 209.524 74.0635 209.524 73.9375 209.524C73.2715 209.524 71.9935 209.29 71.9935 207.472V203.404H74.1895V201.982H71.9935V199.39H70.2835V201.982H69.0595V203.404H70.2475V207.67ZM76.1089 200.056H77.9089V198.292H76.1089V200.056ZM76.1449 211H77.8909V201.892H76.1449V211ZM80.5746 211H82.3206V206.626C82.3206 204.754 83.5806 203.278 85.3626 203.278C86.8206 203.278 87.0726 204.286 87.0726 205.564V211H88.8186V205.168C88.8186 202.846 87.8466 201.676 85.7046 201.676C83.7066 201.676 82.5906 203.026 82.2486 203.818H82.2126C82.2126 203.818 82.2666 203.512 82.2666 203.134V201.892H80.5746V211ZM92.2843 212.656L91.7083 214.024C92.6083 214.474 93.7243 214.78 94.8223 214.78C97.1263 214.78 99.4123 213.628 99.4123 210.622V201.892H97.7383V202.792C97.7383 202.954 97.7923 203.062 97.7923 203.062H97.7383C97.1623 202.09 95.9923 201.676 94.8583 201.676C92.3203 201.676 90.8803 203.62 90.8803 206.248C90.8803 208.858 92.4103 210.892 94.9483 210.892C96.2623 210.892 97.1443 210.316 97.6843 209.416H97.7203C97.7203 209.416 97.6663 209.704 97.6663 209.992V210.73C97.6663 212.548 96.3703 213.268 94.7863 213.268C93.9043 213.268 93.0043 213.016 92.2843 212.656ZM92.6443 206.194C92.6443 204.34 93.5623 203.188 95.1283 203.188C96.5503 203.188 97.7023 203.872 97.7023 206.248C97.7023 208.624 96.5503 209.38 95.2903 209.38C93.6523 209.38 92.6443 208.084 92.6443 206.194ZM106.608 214.6H108.354V210.46C108.354 209.992 108.282 209.668 108.282 209.668H108.318C108.948 210.64 109.992 211.216 111.144 211.216C113.538 211.216 115.266 209.344 115.266 206.446C115.266 203.62 113.736 201.676 111.27 201.676C109.938 201.676 108.786 202.288 108.21 203.386H108.174C108.174 203.386 108.228 203.08 108.228 202.702V201.892H106.608V214.6ZM108.3 206.482C108.3 204.178 109.56 203.206 110.928 203.206C112.44 203.206 113.502 204.484 113.502 206.464C113.502 208.534 112.314 209.704 110.874 209.704C109.2 209.704 108.3 208.102 108.3 206.482ZM117.418 211H119.164V207.22C119.164 205.456 119.992 203.512 121.954 203.512C122.134 203.512 122.386 203.53 122.458 203.548V201.82C122.314 201.802 122.152 201.784 121.99 201.784C120.586 201.784 119.524 202.882 119.092 204.196H119.056C119.056 204.196 119.11 203.908 119.11 203.53V201.892H117.418V211ZM123.311 206.428C123.311 209.2 125.507 211.216 128.225 211.216C130.925 211.216 133.121 209.2 133.121 206.428C133.121 203.674 130.925 201.676 128.207 201.676C125.507 201.676 123.311 203.674 123.311 206.428ZM125.093 206.428C125.093 204.538 126.497 203.188 128.225 203.188C129.935 203.188 131.357 204.538 131.357 206.428C131.357 208.336 129.935 209.704 128.225 209.704C126.497 209.704 125.093 208.336 125.093 206.428ZM135.225 211H136.863V210.262C136.863 209.848 136.809 209.578 136.809 209.578H136.845C137.439 210.604 138.555 211.216 139.743 211.216C142.155 211.216 143.883 209.344 143.883 206.446C143.883 203.62 142.353 201.676 139.887 201.676C138.627 201.676 137.475 202.306 136.935 203.278H136.899C136.899 203.278 136.971 202.954 136.971 202.504V198.292H135.225V211ZM136.917 206.482C136.917 204.178 138.177 203.206 139.545 203.206C141.057 203.206 142.119 204.484 142.119 206.464C142.119 208.534 140.931 209.704 139.491 209.704C137.763 209.704 136.917 208.102 136.917 206.482ZM146.036 208.498C146.036 210.802 147.476 211.09 148.484 211.09C148.736 211.09 148.934 211.054 149.06 211.036V209.488C148.952 209.506 148.826 209.506 148.754 209.506C148.214 209.506 147.764 209.29 147.764 208.21V198.292H146.036V208.498ZM150.24 206.446C150.24 209.146 152.22 211.216 155.082 211.216C156.342 211.216 157.728 210.73 158.61 209.92L157.872 208.642C157.152 209.29 156.162 209.704 155.19 209.704C153.552 209.704 152.148 208.642 152.058 206.68H158.682C158.718 206.428 158.754 206.176 158.754 205.942C158.754 203.602 157.386 201.676 154.812 201.676C152.22 201.676 150.24 203.548 150.24 206.446ZM152.112 205.42C152.364 203.908 153.426 203.026 154.776 203.026C155.964 203.026 156.936 203.854 156.99 205.42H152.112ZM160.854 211H162.6V206.752C162.6 205.06 163.608 203.26 165.336 203.26C166.722 203.26 166.902 204.358 166.902 205.546V211H168.648V206.752C168.648 205.006 169.656 203.26 171.348 203.26C172.698 203.26 172.95 204.268 172.95 205.546V211H174.696V205.168C174.696 202.846 173.76 201.676 171.69 201.676C170.214 201.676 168.954 202.684 168.45 203.746H168.414C168.108 202.378 167.226 201.676 165.696 201.676C164.256 201.676 162.96 202.756 162.528 203.818H162.492C162.492 203.818 162.546 203.512 162.546 203.134V201.892H160.854V211ZM176.533 209.884C177.433 210.802 178.783 211.216 180.007 211.216C181.951 211.216 183.283 210.082 183.283 208.534C183.283 205.528 178.585 206.05 178.585 204.268C178.585 203.494 179.251 203.134 180.133 203.134C180.943 203.134 181.897 203.44 182.437 203.944L183.139 202.684C182.347 201.964 181.231 201.676 180.187 201.676C178.405 201.676 176.911 202.576 176.911 204.304C176.911 207.292 181.591 206.824 181.591 208.57C181.591 209.326 180.961 209.758 180.043 209.758C179.089 209.758 178.045 209.362 177.361 208.696L176.533 209.884Z" fill="#505257"/>
</svg>
