<svg width="1015" height="298" viewBox="0 0 1015 298" fill="none" xmlns="http://www.w3.org/2000/svg">
<path d="M0 4.40122C0 2.86065 0 2.09037 0.299609 1.50195C0.563153 0.984356 0.983678 0.563541 1.50091 0.299816C2.08893 0 2.85869 0 4.3982 0H504.602C506.141 0 506.911 0 507.499 0.299816C508.016 0.563541 508.437 0.984356 508.7 1.50195C509 2.09037 509 2.86066 509 4.40123V293.599C509 295.139 509 295.91 508.7 296.498C508.437 297.016 508.016 297.436 507.499 297.7C506.911 298 506.141 298 504.602 298H4.39818C2.85868 298 2.08893 298 1.50091 297.7C0.983678 297.436 0.563153 297.016 0.299609 296.498C0 295.91 0 295.139 0 293.599V4.40122Z" fill="#F3F3F3"/>
<path d="M147 42.3991C147 40.8592 147 40.0893 147.299 39.5012C147.563 38.9839 147.983 38.5633 148.5 38.2997C149.088 38 149.857 38 151.396 38H474.604C476.143 38 476.912 38 477.5 38.2997C478.017 38.5633 478.437 38.9839 478.701 39.5012C479 40.0893 479 40.8592 479 42.399V225.601C479 227.141 479 227.911 478.701 228.499C478.437 229.016 478.017 229.437 477.5 229.7C476.912 230 476.143 230 474.604 230H151.396C149.857 230 149.088 230 148.5 229.7C147.983 229.437 147.563 229.016 147.299 228.499C147 227.911 147 227.141 147 225.601V42.3991Z" fill="white"/>
<mask id="mask0" mask-type="alpha" maskUnits="userSpaceOnUse" x="147" y="38" width="332" height="192">
<path d="M147 42.3991C147 40.8592 147 40.0893 147.299 39.5012C147.563 38.9839 147.983 38.5633 148.5 38.2997C149.088 38 149.857 38 151.396 38H474.604C476.143 38 476.912 38 477.5 38.2997C478.017 38.5633 478.437 38.9839 478.701 39.5012C479 40.0893 479 40.8592 479 42.399V225.601C479 227.141 479 227.911 478.701 228.499C478.437 229.016 478.017 229.437 477.5 229.7C476.912 230 476.143 230 474.604 230H151.396C149.857 230 149.088 230 148.5 229.7C147.983 229.437 147.563 229.016 147.299 228.499C147 227.911 147 227.141 147 225.601V42.3991Z" fill="white"/>
</mask>
<g mask="url(#mask0)">
<path d="M348.549 85.9462H348.549C334.777 89.6913 326.969 105.165 331.109 120.507L336.37 140L342.342 138.376L343.85 130.214L344.935 137.671L383.321 127.232L384.692 119.812L385.678 126.591L390 125.416L385.87 110.11C381.106 92.4554 364.396 81.6367 348.549 85.9462Z" fill="#2F2E41"/>
<path d="M353.5 130C362.613 130 370 122.613 370 113.5C370 104.387 362.613 97 353.5 97C344.387 97 337 104.387 337 113.5C337 122.613 344.387 130 353.5 130Z" fill="#FFB8B8"/>
<path d="M347.105 116.402C347.105 116.402 345.796 117.368 344.383 117.719C342.974 118.068 340.903 117.537 340.903 117.537" stroke="#424754"/>
<path d="M359.152 113.526C359.152 113.526 357.887 114.549 356.49 114.961C355.098 115.371 353.005 114.932 353.005 114.932" stroke="#424754"/>
<path d="M348.27 125.122L347.351 134.282L340 138.405L359.297 181L374 145.733L364.351 138.405L363.432 121L348.27 125.122Z" fill="#FFB8B8"/>
<path d="M439 227.656C438.423 237.171 422.203 244.687 410.29 248.941C406.856 250.172 403.78 251.128 401.536 251.782C400.14 252.189 399.069 252.482 398.437 252.651C398.02 252.761 397.796 252.816 397.796 252.816V242.752L358.881 245.954V273.424C355.853 273.808 352.804 274 349.752 274C337.719 274.019 325.878 270.986 315.338 265.185C315.077 261.75 314.788 258.236 314.472 254.645C314.134 250.775 313.987 247.098 314.001 243.612C314.111 216.353 324.059 200.786 328.001 195.69C328.494 195.034 329.021 194.405 329.581 193.805L331.87 187.859L330.212 177.301L324.618 141.657L324.545 141.199C326.467 139.516 331.563 138.441 335.958 137.805C338.906 137.375 341.543 137.142 342.706 137.046C343.073 137.018 343.292 137.005 343.334 137H343.338L362.086 170.933L368.541 141.68L386.35 149.891C386.35 149.891 383.604 161.327 383.604 170.933C383.601 172.218 383.435 173.497 383.109 174.739C382.347 177.495 381.055 180.076 379.305 182.337C377.772 184.393 375.986 186.248 373.989 187.859L370.327 197.922L373.989 211.646L399.202 204.134L408.097 201.486C408.846 201.263 409.609 201.09 410.382 200.969C413.948 200.401 417.603 200.929 420.863 202.483C424.122 204.036 426.833 206.543 428.635 209.67L439 227.656Z" fill="#2F2E41"/>
<path d="M357.94 91.8925C354.561 89.3673 350.313 88.334 346.189 89.4418L345.699 89.5734C336.255 92.11 330.914 102.639 333.769 113.092V113.092L336.934 112.242L336.391 108.248L338.194 111.903L356.963 106.862L357.644 103.177L358.142 106.546L361.835 105.554C365.876 113.575 365.718 122.724 361.362 133L367.651 131.311L369.013 123.94L370.01 130.677L382 127.457L380.258 111.813C377.186 100.572 367.995 92.8096 357.94 91.8925Z" fill="#2F2E41"/>
<path d="M362 90C366.418 90 370 86.1944 370 81.5C370 76.8056 366.418 73 362 73C357.582 73 354 76.8056 354 81.5C354 86.1944 357.582 90 362 90Z" fill="#2F2E41"/>
<path d="M361.851 86.5255C359.775 86.5267 357.765 85.8257 356.171 84.5448C354.577 83.264 353.5 81.4847 353.129 79.5173C352.758 77.55 353.115 75.5194 354.139 73.78C355.163 72.0407 356.789 70.7028 358.732 70C357.491 70.1534 356.298 70.5582 355.231 71.1878C354.164 71.8173 353.248 72.6574 352.543 73.6527C351.837 74.6479 351.359 75.7759 351.138 76.9622C350.918 78.1485 350.961 79.3663 351.265 80.5354C351.568 81.7046 352.125 82.7986 352.899 83.7454C353.673 84.6922 354.646 85.4704 355.755 86.0288C356.863 86.5871 358.082 86.9129 359.331 86.9848C360.58 87.0567 361.83 86.873 363 86.4458C362.619 86.4962 362.235 86.5229 361.851 86.5255Z" fill="#2F2E41"/>
<path d="M364.5 116C365.881 116 367 114.657 367 113C367 111.343 365.881 110 364.5 110C363.119 110 362 111.343 362 113C362 114.657 363.119 116 364.5 116Z" fill="#FFB8B8"/>
<path d="M319.426 169L318.058 187.2C318.058 187.2 311.675 197.211 310.308 218.596L309.852 231.791C309.852 231.791 300.278 250.447 308.028 249.992C315.779 249.537 315.323 232.246 315.323 232.246L329 192.661V173.55L319.426 169Z" fill="#FFB8B8"/>
<path d="M327.532 142H324.404C324.404 142 319.489 145.19 315.468 158.861C311.447 172.532 311 172.987 311 172.987L332 178L327.532 142Z" fill="#2F2E41"/>
<path d="M394.496 167L401.829 185.072C401.829 185.072 409.62 194.34 410.995 204.534L413.287 216.582C413.287 216.582 418.786 237.897 410.079 236.971C401.371 236.044 403.662 215.655 403.662 215.655L402.287 209.631L394.496 196.656L383 174.562L394.496 167Z" fill="#FFB8B8"/>
<path d="M380.51 148L386.373 149.85L399 169.275L376 185L380.51 148Z" fill="#2F2E41"/>
</g>
<path d="M147 21.8444C147 20.8488 147 20.351 147.199 19.9707C147.374 19.6362 147.653 19.3642 147.996 19.1938C148.386 19 148.897 19 149.918 19H201.082C202.103 19 202.614 19 203.004 19.1938C203.347 19.3642 203.626 19.6362 203.801 19.9707C204 20.351 204 20.8488 204 21.8444V24.1556C204 25.1512 204 25.649 203.801 26.0293C203.626 26.3638 203.347 26.6358 203.004 26.8062C202.614 27 202.103 27 201.082 27H149.918C148.897 27 148.386 27 147.996 26.8062C147.653 26.6358 147.374 26.3638 147.199 26.0293C147 25.649 147 25.1512 147 24.1556V21.8444Z" fill="#424754"/>
<path d="M147 243.455C147 242.945 147 242.691 147.099 242.496C147.187 242.325 147.326 242.186 147.498 242.099C147.693 242 147.948 242 148.459 242H202.541C203.052 242 203.307 242 203.502 242.099C203.674 242.186 203.813 242.325 203.901 242.496C204 242.691 204 242.945 204 243.455V245.545C204 246.055 204 246.309 203.901 246.504C203.813 246.675 203.674 246.814 203.502 246.901C203.307 247 203.052 247 202.541 247H148.459C147.948 247 147.693 247 147.498 246.901C147.326 246.814 147.187 246.675 147.099 246.504C147 246.309 147 246.055 147 245.545V243.455Z" fill="#424754"/>
<path d="M147 256.455C147 255.945 147 255.691 147.1 255.496C147.187 255.325 147.327 255.186 147.5 255.099C147.695 255 147.951 255 148.464 255H376.536C377.049 255 377.305 255 377.5 255.099C377.673 255.186 377.813 255.325 377.9 255.496C378 255.691 378 255.945 378 256.455V258.545C378 259.055 378 259.309 377.9 259.504C377.813 259.675 377.673 259.814 377.5 259.901C377.305 260 377.049 260 376.536 260H148.464C147.951 260 147.695 260 147.5 259.901C147.327 259.814 147.187 259.675 147.1 259.504C147 259.309 147 259.055 147 258.545V256.455Z" fill="#97999D"/>
<path d="M147 266.455C147 265.945 147 265.691 147.1 265.496C147.187 265.325 147.327 265.186 147.5 265.099C147.695 265 147.951 265 148.464 265H376.536C377.049 265 377.305 265 377.5 265.099C377.673 265.186 377.813 265.325 377.9 265.496C378 265.691 378 265.945 378 266.455V268.545C378 269.055 378 269.309 377.9 269.504C377.813 269.675 377.673 269.814 377.5 269.901C377.305 270 377.049 270 376.536 270H148.464C147.951 270 147.695 270 147.5 269.901C147.327 269.814 147.187 269.675 147.1 269.504C147 269.309 147 269.055 147 268.545V266.455Z" fill="#97999D"/>
<path d="M0 4.40122C0 2.86065 0 2.09037 0.298881 1.50195C0.561783 0.984356 0.981285 0.563541 1.49726 0.299816C2.08385 0 2.85173 0 4.3875 0H112.612C114.148 0 114.916 0 115.503 0.299816C116.019 0.563541 116.438 0.984356 116.701 1.50195C117 2.09037 117 2.86066 117 4.40123V293.599C117 295.139 117 295.91 116.701 296.498C116.438 297.016 116.019 297.436 115.503 297.7C114.916 298 114.148 298 112.612 298H4.3875C2.85173 298 2.08385 298 1.49726 297.7C0.981285 297.436 0.561783 297.016 0.298881 296.498C0 295.91 0 295.139 0 293.599V4.40122Z" fill="#FFEAEC"/>
<path d="M0 60.4979C0 59.9736 0 59.7114 0.100018 59.5112C0.187995 59.335 0.328378 59.1918 0.501044 59.102C0.697339 59 0.954305 59 1.46824 59H115.532C116.046 59 116.303 59 116.499 59.102C116.672 59.1918 116.812 59.335 116.9 59.5112C117 59.7114 117 59.9736 117 60.4979V79.5021C117 80.0264 117 80.2886 116.9 80.4888C116.812 80.665 116.672 80.8082 116.499 80.898C116.303 81 116.046 81 115.532 81H1.46823C0.954303 81 0.697339 81 0.501044 80.898C0.328378 80.8082 0.187995 80.665 0.100018 80.4888C0 80.2886 0 80.0264 0 79.5021V60.4979Z" fill="#FFEAEC"/>
<path d="M30 68.4545C30 67.9454 30 67.6908 30.0994 67.4964C30.1868 67.3253 30.3264 67.1862 30.498 67.0991C30.693 67 30.9484 67 31.4592 67H85.5408C86.0516 67 86.307 67 86.502 67.0991C86.6736 67.1862 86.8132 67.3253 86.9006 67.4964C87 67.6908 87 67.9454 87 68.4545V70.5455C87 71.0546 87 71.3092 86.9006 71.5036C86.8132 71.6747 86.6736 71.8138 86.502 71.9009C86.307 72 86.0516 72 85.5408 72H31.4592C30.9484 72 30.693 72 30.498 71.9009C30.3264 71.8138 30.1868 71.6747 30.0994 71.5036C30 71.3092 30 71.0546 30 70.5455V68.4545Z" fill="#F04B5D"/>
<path d="M55 20.4545C55 19.9454 55 19.6908 55.0987 19.4964C55.1855 19.3253 55.3239 19.1862 55.4943 19.0991C55.6879 19 55.9414 19 56.4484 19H96.5516C97.0586 19 97.3121 19 97.5057 19.0991C97.6761 19.1862 97.8145 19.3253 97.9013 19.4964C98 19.6908 98 19.9454 98 20.4545V22.5455C98 23.0546 98 23.3092 97.9013 23.5036C97.8145 23.6747 97.6761 23.8138 97.5057 23.9009C97.3121 24 97.0586 24 96.5516 24H56.4484C55.9414 24 55.6879 24 55.4943 23.9009C55.3239 23.8138 55.1855 23.6747 55.0987 23.5036C55 23.3092 55 23.0546 55 22.5455V20.4545Z" fill="#424754"/>
<path d="M30 15.4452C30 14.9393 30 14.6864 30.1017 14.4932C30.1912 14.3232 30.334 14.185 30.5096 14.0984C30.7093 14 30.9706 14 31.4933 14H42.5067C43.0294 14 43.2907 14 43.4904 14.0984C43.666 14.185 43.8088 14.3232 43.8983 14.4932C44 14.6864 44 14.9393 44 15.4452V26.5548C44 27.0607 44 27.3136 43.8983 27.5068C43.8088 27.6768 43.666 27.815 43.4904 27.9016C43.2907 28 43.0294 28 42.5067 28H31.4933C30.9706 28 30.7093 28 30.5096 27.9016C30.334 27.815 30.1912 27.6768 30.1017 27.5068C30 27.3136 30 27.0607 30 26.5548V15.4452Z" fill="#424754"/>
<path d="M30 90.4545C30 89.9454 30 89.6908 30.0994 89.4964C30.1868 89.3253 30.3264 89.1862 30.498 89.0991C30.693 89 30.9484 89 31.4592 89H85.5408C86.0516 89 86.307 89 86.502 89.0991C86.6736 89.1862 86.8132 89.3253 86.9006 89.4964C87 89.6908 87 89.9454 87 90.4545V92.5455C87 93.0546 87 93.3092 86.9006 93.5036C86.8132 93.6747 86.6736 93.8138 86.502 93.9009C86.307 94 86.0516 94 85.5408 94H31.4592C30.9484 94 30.693 94 30.498 93.9009C30.3264 93.8138 30.1868 93.6747 30.0994 93.5036C30 93.3092 30 93.0546 30 92.5455V90.4545Z" fill="#424754"/>
<path d="M30 111.455C30 110.945 30 110.691 30.0994 110.496C30.1868 110.325 30.3264 110.186 30.498 110.099C30.693 110 30.9484 110 31.4592 110H85.5408C86.0516 110 86.307 110 86.502 110.099C86.6736 110.186 86.8132 110.325 86.9006 110.496C87 110.691 87 110.945 87 111.455V113.545C87 114.055 87 114.309 86.9006 114.504C86.8132 114.675 86.6736 114.814 86.502 114.901C86.307 115 86.0516 115 85.5408 115H31.4592C30.9484 115 30.693 115 30.498 114.901C30.3264 114.814 30.1868 114.675 30.0994 114.504C30 114.309 30 114.055 30 113.545V111.455Z" fill="#424754"/>
<path d="M30 133.455C30 132.945 30 132.691 30.0994 132.496C30.1868 132.325 30.3264 132.186 30.498 132.099C30.693 132 30.9484 132 31.4592 132H85.5408C86.0516 132 86.307 132 86.502 132.099C86.6736 132.186 86.8132 132.325 86.9006 132.496C87 132.691 87 132.945 87 133.455V135.545C87 136.055 87 136.309 86.9006 136.504C86.8132 136.675 86.6736 136.814 86.502 136.901C86.307 137 86.0516 137 85.5408 137H31.4592C30.9484 137 30.693 137 30.498 136.901C30.3264 136.814 30.1868 136.675 30.0994 136.504C30 136.309 30 136.055 30 135.545V133.455Z" fill="#424754"/>
<path d="M30 154.745C30 154.134 30 153.829 30.0994 153.596C30.1868 153.39 30.3264 153.223 30.498 153.119C30.693 153 30.9484 153 31.4592 153H85.5408C86.0516 153 86.307 153 86.502 153.119C86.6736 153.223 86.8132 153.39 86.9006 153.596C87 153.829 87 154.134 87 154.745V157.255C87 157.866 87 158.171 86.9006 158.404C86.8132 158.61 86.6736 158.777 86.502 158.881C86.307 159 86.0516 159 85.5408 159H31.4592C30.9484 159 30.693 159 30.498 158.881C30.3264 158.777 30.1868 158.61 30.0994 158.404C30 158.171 30 157.866 30 157.255V154.745Z" fill="#424754"/>
<path d="M465 50C465 51.1046 464.105 52 463 52C461.895 52 461 51.1046 461 50C461 48.8954 461.895 48 463 48C464.105 48 465 48.8954 465 50Z" fill="#F04B5D"/>
<path d="M445 50C445 49.6894 445 49.5341 445.068 49.4115C445.159 49.2482 445.334 49.1184 445.553 49.0507C445.718 49 445.927 49 446.345 49H456.655C457.073 49 457.282 49 457.447 49.0507C457.666 49.1184 457.841 49.2482 457.932 49.4115C458 49.5341 458 49.6894 458 50C458 50.3106 458 50.4659 457.932 50.5885C457.841 50.7518 457.666 50.8816 457.447 50.9493C457.282 51 457.073 51 456.655 51H446.345C445.927 51 445.718 51 445.553 50.9493C445.334 50.8816 445.159 50.7518 445.068 50.5885C445 50.4659 445 50.3106 445 50Z" fill="#97999D"/>
<path d="M666.944 63.488C668.744 64.748 670.544 65.432 672.812 65.432C677.348 65.432 679.328 61.58 680.516 58.556L688.112 39.26H681.488L678.32 48.548C677.708 50.348 677.312 51.968 677.312 51.968H677.24C677.24 51.968 676.7 50.348 675.836 48.512L671.552 39.26H664.64L674.576 58.736C674.216 59.6 673.532 60.068 672.524 60.068C671.336 60.068 670.364 59.348 669.68 58.772L666.944 63.488ZM694.354 60.068C695.65 57.584 696.01 54.884 696.01 52.076V51.392H699.214V60.068H694.354ZM685.93 60.068V69.32H691.69V65H702.562V69.32H708.106V60.068H705.442V46.46H690.142V50.924C690.142 54.668 689.458 57.98 688.234 60.068H685.93ZM709.708 55.784C709.708 61.58 714.388 65.432 720.22 65.432C726.052 65.432 730.732 61.58 730.732 55.784C730.732 49.952 726.052 46.028 720.184 46.028C714.388 46.028 709.708 49.952 709.708 55.784ZM716.008 55.784C716.008 52.976 717.952 51.212 720.22 51.212C722.488 51.212 724.432 52.976 724.432 55.784C724.432 58.556 722.488 60.248 720.22 60.248C717.952 60.248 716.008 58.556 716.008 55.784ZM733.022 53.912C733.022 60.716 736.37 65.432 743.066 65.432C748.934 65.432 752.642 61.544 752.642 56.432C752.642 51.464 749.618 47.936 744.65 47.936C743.03 47.936 740.798 48.368 739.214 49.7H739.142C739.25 47.036 741.77 46.028 744.146 45.236L751.13 43.004L749.366 38L743.354 40.016C736.118 42.5 733.022 46.352 733.022 53.912ZM739.214 56.54C739.214 54.128 740.87 52.616 742.814 52.616C744.758 52.616 746.414 54.128 746.414 56.54C746.414 58.916 744.758 60.356 742.814 60.356C740.87 60.356 739.214 58.916 739.214 56.54ZM755.893 65H762.121V58.232H767.845V65H774.073V46.46H767.845V53.012H762.121V46.46H755.893V65ZM796.756 65H802.984V46.46H796.756V65ZM778.252 65H787.288C792.472 65 794.632 62.444 794.632 58.664C794.632 54.92 792.472 52.256 787.288 52.256H784.48V46.46H778.252V65ZM784.48 60.932V56.288H786.028C787.612 56.288 788.404 57.332 788.404 58.628C788.404 59.924 787.612 60.932 786.136 60.932H784.48ZM816.223 45.164C819.859 45.164 823.027 43.184 823.027 39.656V39.26H818.455V39.692C818.455 41.168 817.267 41.816 816.223 41.816C815.143 41.816 813.991 41.168 813.991 39.692V39.26H809.383V39.656C809.383 43.184 812.551 45.164 816.223 45.164ZM807.151 65H813.199L818.347 56.864C818.635 56.36 819.031 55.784 819.355 55.028H819.427C819.355 55.748 819.355 56.468 819.355 56.9V65H825.223V46.46H819.175L814.027 54.632C813.703 55.172 813.343 55.712 813.019 56.468H812.947C812.983 56 813.019 55.28 813.019 54.632V46.46H807.151V65ZM837.396 55.784C837.396 61.472 841.86 65.252 847.512 65.432V72.2H853.38V65.432C859.032 65.252 863.496 61.472 863.496 55.784C863.496 50.06 859.032 46.172 853.38 46.028V39.8H847.512V46.028C841.86 46.172 837.396 50.06 837.396 55.784ZM853.38 60.536V50.924C855.648 51.104 857.484 52.904 857.484 55.784C857.484 58.592 855.648 60.356 853.38 60.536ZM843.408 55.784C843.408 52.904 845.244 51.104 847.512 50.924V60.536C845.244 60.356 843.408 58.592 843.408 55.784ZM865.626 55.784C865.626 61.58 870.306 65.432 876.138 65.432C881.97 65.432 886.65 61.58 886.65 55.784C886.65 49.952 881.97 46.028 876.102 46.028C870.306 46.028 865.626 49.952 865.626 55.784ZM871.926 55.784C871.926 52.976 873.87 51.212 876.138 51.212C878.406 51.212 880.35 52.976 880.35 55.784C880.35 58.556 878.406 60.248 876.138 60.248C873.87 60.248 871.926 58.556 871.926 55.784ZM889.768 72.2H895.996V65.252C895.996 64.316 895.924 63.668 895.924 63.668H895.996C897.328 64.82 898.984 65.432 900.712 65.432C905.644 65.432 909.352 61.616 909.352 55.748C909.352 49.988 906.04 46.028 901 46.028C898.768 46.028 896.644 46.892 895.384 48.584H895.312C895.312 48.584 895.384 48.008 895.384 47.396V46.46H889.768V72.2ZM895.816 55.856C895.816 52.652 897.58 51.284 899.452 51.284C901.612 51.284 903.088 53.084 903.088 55.856C903.088 58.7 901.396 60.284 899.452 60.284C897.004 60.284 895.816 58.088 895.816 55.856ZM911.757 65H917.697L918.129 56.468C918.201 55.028 918.093 53.3 918.093 53.3H918.165C918.165 53.3 918.849 54.848 919.245 56.036L921.693 62.516H926.733L929.181 56.036C929.649 54.884 930.189 53.3 930.189 53.3H930.261C930.261 53.3 930.189 55.028 930.225 56.468L930.657 65H936.633L934.869 46.46H927.705L924.969 54.596C924.645 55.532 924.213 56.756 924.213 56.756H924.177C924.177 56.756 923.781 55.532 923.457 54.596L920.721 46.46H913.521L911.757 65ZM938.674 59.78C938.674 62.984 941.158 65.432 944.722 65.432C946.846 65.432 949.006 64.46 950.23 62.732H950.302C950.302 62.732 950.23 63.272 950.23 63.884V65H955.918V53.588C955.918 48.872 952.75 46.028 947.638 46.028C944.614 46.028 941.374 47.216 939.79 48.44L941.95 52.832C943.426 51.86 945.262 51.068 947.062 51.068C948.43 51.068 949.69 51.572 949.69 53.12V53.444H949.15C944.578 53.444 938.674 54.812 938.674 59.78ZM944.83 59.204C944.83 57.512 947.278 57.008 949.186 57.008H949.762V57.512C949.762 59.024 948.394 60.788 946.594 60.788C945.442 60.788 944.83 60.068 944.83 59.204ZM963.937 65H970.165V51.68H975.817V46.46H958.321V51.68H963.937V65ZM666.044 97.784C666.044 103.58 670.724 107.432 676.556 107.432C682.388 107.432 687.068 103.58 687.068 97.784C687.068 91.952 682.388 88.028 676.52 88.028C670.724 88.028 666.044 91.952 666.044 97.784ZM672.344 97.784C672.344 94.976 674.288 93.212 676.556 93.212C678.824 93.212 680.768 94.976 680.768 97.784C680.768 100.556 678.824 102.248 676.556 102.248C674.288 102.248 672.344 100.556 672.344 97.784ZM689.358 95.912C689.358 102.716 692.706 107.432 699.402 107.432C705.27 107.432 708.978 103.544 708.978 98.432C708.978 93.464 705.954 89.936 700.986 89.936C699.366 89.936 697.134 90.368 695.55 91.7H695.478C695.586 89.036 698.106 88.028 700.482 87.236L707.466 85.004L705.702 80L699.69 82.016C692.454 84.5 689.358 88.352 689.358 95.912ZM695.55 98.54C695.55 96.128 697.206 94.616 699.15 94.616C701.094 94.616 702.75 96.128 702.75 98.54C702.75 100.916 701.094 102.356 699.15 102.356C697.206 102.356 695.55 100.916 695.55 98.54ZM711.741 108.692L709.761 113.264C709.761 113.264 711.633 114.56 714.081 114.56C717.033 114.56 720.273 113.12 721.821 108.98L729.417 88.46H722.613L720.273 97.1C720.021 98.108 719.661 99.872 719.661 99.872H719.589C719.589 99.872 719.229 98 718.905 96.992L716.169 88.46H709.113L716.997 106.64L716.637 107.504C715.989 109.088 714.657 109.376 713.649 109.376C712.749 109.376 711.741 108.692 711.741 108.692ZM737.068 101.312C739.336 101.312 740.992 100.808 742.036 100.34H742.108C742.108 100.34 742.072 100.808 742.072 101.204V107H748.3V88.46H742.072V95.336C741.46 95.768 740.524 96.236 739.264 96.236C737.716 96.236 736.888 95.336 736.888 93.752V88.46H730.768V94.94C730.768 99.8 734.08 101.312 737.068 101.312ZM751.439 97.712C751.439 102.644 755.003 107.432 761.627 107.432C764.471 107.432 767.531 106.46 769.547 104.732L767.243 100.376C765.731 101.384 763.967 102.248 762.131 102.248C760.151 102.248 758.279 101.204 757.811 98.936H769.511C769.583 98.288 769.655 97.64 769.655 96.992C769.655 91.844 766.559 88.028 761.087 88.028C755.111 88.028 751.439 92.276 751.439 97.712ZM757.955 95.372C758.279 93.896 759.143 92.6 760.943 92.6C762.527 92.6 763.499 93.86 763.499 95.372H757.955ZM772.908 107H779.136V100.232H784.86V107H791.088V88.46H784.86V95.012H779.136V88.46H772.908V107ZM795.268 107H801.316L806.464 98.864C806.752 98.36 807.148 97.784 807.472 97.028H807.544C807.472 97.748 807.472 98.468 807.472 98.9V107H813.34V88.46H807.292L802.144 96.632C801.82 97.172 801.46 97.712 801.136 98.468H801.064C801.1 98 801.136 97.28 801.136 96.632V88.46H795.268V107ZM815.758 107H822.346L825.91 101.348H827.206V107H833.434V88.46H823.714C819.61 88.46 817.018 90.836 817.018 94.724C817.018 97.1 818.35 99.224 820.366 100.232V100.268C820.366 100.268 820.006 100.628 819.502 101.384L815.758 107ZM825.73 97.208C824.254 97.208 823.21 96.452 823.21 94.688C823.21 92.96 824.254 92.312 825.694 92.312H827.206V97.208H825.73ZM845.552 97.712C845.552 102.824 849.26 107.432 855.884 107.432C858.98 107.432 862.004 106.244 863.84 104.372L861.572 100.016C860.24 101.168 858.296 102.248 856.496 102.248C853.364 102.248 851.852 99.836 851.852 97.64C851.852 95.444 853.328 93.212 856.28 93.212C857.9 93.212 859.556 93.968 860.636 95.012L863.264 90.836C861.428 88.856 858.476 88.028 855.884 88.028C849.224 88.028 845.552 92.744 845.552 97.712ZM874.091 107.18C881.291 107.18 883.451 101.996 883.451 94.436V93.392H886.547V107H892.775V88.46H877.583V94.4C877.583 100.772 875.747 101.528 874.091 101.744V107.18ZM896.94 107H903.168V100.088H905.688C906.66 104.588 910.548 107.432 915.516 107.432C921.276 107.432 925.74 103.58 925.74 97.784C925.74 91.952 921.276 88.028 915.48 88.028C910.656 88.028 906.84 90.8 905.76 95.156H903.168V88.46H896.94V107ZM911.592 97.784C911.592 94.976 913.32 93.212 915.516 93.212C917.712 93.212 919.44 94.976 919.44 97.784C919.44 100.556 917.712 102.248 915.516 102.248C913.32 102.248 911.592 100.556 911.592 97.784ZM928.033 95.912C928.033 102.716 931.381 107.432 938.077 107.432C943.945 107.432 947.653 103.544 947.653 98.432C947.653 93.464 944.629 89.936 939.661 89.936C938.041 89.936 935.809 90.368 934.225 91.7H934.153C934.261 89.036 936.781 88.028 939.157 87.236L946.141 85.004L944.377 80L938.365 82.016C931.129 84.5 928.033 88.352 928.033 95.912ZM934.225 98.54C934.225 96.128 935.881 94.616 937.825 94.616C939.769 94.616 941.425 96.128 941.425 98.54C941.425 100.916 939.769 102.356 937.825 102.356C935.881 102.356 934.225 100.916 934.225 98.54ZM949.86 97.784C949.86 103.58 954.54 107.432 960.372 107.432C966.204 107.432 970.884 103.58 970.884 97.784C970.884 91.952 966.204 88.028 960.336 88.028C954.54 88.028 949.86 91.952 949.86 97.784ZM956.16 97.784C956.16 94.976 958.104 93.212 960.372 93.212C962.64 93.212 964.584 94.976 964.584 97.784C964.584 100.556 962.64 102.248 960.372 102.248C958.104 102.248 956.16 100.556 956.16 97.784ZM983.074 87.164C986.71 87.164 989.878 85.184 989.878 81.656V81.26H985.306V81.692C985.306 83.168 984.118 83.816 983.074 83.816C981.994 83.816 980.842 83.168 980.842 81.692V81.26H976.234V81.656C976.234 85.184 979.402 87.164 983.074 87.164ZM974.002 107H980.05L985.198 98.864C985.486 98.36 985.882 97.784 986.206 97.028H986.278C986.206 97.748 986.206 98.468 986.206 98.9V107H992.074V88.46H986.026L980.878 96.632C980.554 97.172 980.194 97.712 979.87 98.468H979.798C979.834 98 979.87 97.28 979.87 96.632V88.46H974.002V107ZM671.156 149H677.384V135.68H683.036V130.46H665.54V135.68H671.156V149ZM684.396 139.784C684.396 145.58 689.076 149.432 694.908 149.432C700.74 149.432 705.42 145.58 705.42 139.784C705.42 133.952 700.74 130.028 694.872 130.028C689.076 130.028 684.396 133.952 684.396 139.784ZM690.696 139.784C690.696 136.976 692.64 135.212 694.908 135.212C697.176 135.212 699.12 136.976 699.12 139.784C699.12 142.556 697.176 144.248 694.908 144.248C692.64 144.248 690.696 142.556 690.696 139.784ZM713.865 143.312C716.133 143.312 717.789 142.808 718.833 142.34H718.905C718.905 142.34 718.869 142.808 718.869 143.204V149H725.097V130.46H718.869V137.336C718.257 137.768 717.321 138.236 716.061 138.236C714.513 138.236 713.685 137.336 713.685 135.752V130.46H707.565V136.94C707.565 141.8 710.877 143.312 713.865 143.312ZM729.279 149H735.507V142.196H737.451L741.375 149H748.467L742.275 139.352V139.28L747.711 130.46H740.943L737.271 136.976H735.507V130.46H729.279V149ZM750.549 149H756.597L761.745 140.864C762.033 140.36 762.429 139.784 762.753 139.028H762.825C762.753 139.748 762.753 140.468 762.753 140.9V149H768.621V130.46H762.573L757.425 138.632C757.101 139.172 756.741 139.712 756.417 140.468H756.345C756.381 140 756.417 139.28 756.417 138.632V130.46H750.549V149ZM781.011 149H786.951L787.383 140.468C787.455 139.028 787.347 137.3 787.347 137.3H787.419C787.419 137.3 788.103 138.848 788.499 140.036L790.947 146.516H795.987L798.435 140.036C798.903 138.884 799.443 137.3 799.443 137.3H799.515C799.515 137.3 799.443 139.028 799.479 140.468L799.911 149H805.887L804.123 130.46H796.959L794.223 138.596C793.899 139.532 793.467 140.756 793.467 140.756H793.431C793.431 140.756 793.035 139.532 792.711 138.596L789.975 130.46H782.775L781.011 149ZM809.26 149H815.308L820.456 140.864C820.744 140.36 821.14 139.784 821.464 139.028H821.536C821.464 139.748 821.464 140.468 821.464 140.9V149H827.332V130.46H821.284L816.136 138.632C815.812 139.172 815.452 139.712 815.128 140.468H815.056C815.092 140 815.128 139.28 815.128 138.632V130.46H809.26V149ZM831.514 156.2H837.742V149.252C837.742 148.316 837.67 147.668 837.67 147.668H837.742C839.074 148.82 840.73 149.432 842.458 149.432C847.39 149.432 851.098 145.616 851.098 139.748C851.098 133.988 847.786 130.028 842.746 130.028C840.514 130.028 838.39 130.892 837.13 132.584H837.058C837.058 132.584 837.13 132.008 837.13 131.396V130.46H831.514V156.2ZM837.562 139.856C837.562 136.652 839.326 135.284 841.198 135.284C843.358 135.284 844.834 137.084 844.834 139.856C844.834 142.7 843.142 144.284 841.198 144.284C838.75 144.284 837.562 142.088 837.562 139.856ZM852.963 143.78C852.963 146.984 855.447 149.432 859.011 149.432C861.135 149.432 863.295 148.46 864.519 146.732H864.591C864.591 146.732 864.519 147.272 864.519 147.884V149H870.207V137.588C870.207 132.872 867.039 130.028 861.927 130.028C858.903 130.028 855.663 131.216 854.079 132.44L856.239 136.832C857.715 135.86 859.551 135.068 861.351 135.068C862.719 135.068 863.979 135.572 863.979 137.12V137.444H863.439C858.867 137.444 852.963 138.812 852.963 143.78ZM859.119 143.204C859.119 141.512 861.567 141.008 863.475 141.008H864.051V141.512C864.051 143.024 862.683 144.788 860.883 144.788C859.731 144.788 859.119 144.068 859.119 143.204Z" fill="#222224"/>
<path d="M665.486 206.488C666.476 207.586 668.078 208.216 669.608 208.216C672.002 208.216 673.928 206.758 673.928 204.4C673.928 202.834 673.028 201.736 671.696 201.358V201.322C672.596 200.872 673.532 200.008 673.532 198.46C673.532 196.336 671.894 195.076 669.716 195.076C668.636 195.076 667.214 195.274 665.864 196.39L666.62 197.722C667.556 196.93 668.564 196.642 669.464 196.642C671.03 196.642 671.714 197.578 671.714 198.676C671.714 199.882 670.706 200.728 669.428 200.728H668.168V202.204H669.734C671.12 202.204 672.11 202.978 672.11 204.31C672.11 205.75 671.012 206.614 669.464 206.614C668.276 206.614 667.142 206.002 666.476 205.282L665.486 206.488ZM675.42 205.516C675.42 207.226 676.878 208.216 678.462 208.216C679.812 208.216 680.928 207.406 681.45 206.362H681.486C681.486 206.362 681.432 206.668 681.432 207.082V208H683.07V202.24C683.07 199.936 681.756 198.676 679.47 198.676C678.192 198.676 676.806 199.144 676.068 199.756L676.77 201.034C677.508 200.512 678.426 200.152 679.326 200.152C680.46 200.152 681.324 200.656 681.324 202.15V202.33H680.856C678.966 202.33 675.42 202.654 675.42 205.516ZM677.166 205.372C677.166 203.698 679.578 203.59 680.874 203.59H681.324V203.932C681.324 205.282 680.406 206.83 678.876 206.83C677.742 206.83 677.166 206.092 677.166 205.372ZM685.651 208H687.397V204.094H692.005V208H693.751V198.892H692.005V202.6H687.397V198.892H685.651V208ZM696.444 208H698.118L702.06 202.564C702.348 202.132 702.798 201.52 702.852 201.358H702.888C702.888 201.502 702.834 202.132 702.834 202.564V208H704.526V198.892H702.834L698.91 204.328C698.604 204.76 698.172 205.39 698.1 205.552H698.064C698.082 205.462 698.118 204.814 698.118 204.328V198.892H696.444V208ZM706.824 208H708.516L708.912 202.582C708.948 202.042 708.894 201.016 708.894 201.016H708.93C708.93 201.016 709.218 201.7 709.506 202.366L711.666 206.902H713.16L715.32 202.348C715.662 201.646 715.896 201.016 715.896 201.016H715.932C715.932 201.016 715.896 202.042 715.914 202.582L716.31 208H718.002L717.21 198.892H715.302L712.926 204.04C712.692 204.598 712.422 205.264 712.422 205.264H712.386C712.386 205.264 712.134 204.58 711.882 204.04L709.56 198.892H707.616L706.824 208ZM719.594 205.516C719.594 207.226 721.052 208.216 722.636 208.216C723.986 208.216 725.102 207.406 725.624 206.362H725.66C725.66 206.362 725.606 206.668 725.606 207.082V208H727.244V202.24C727.244 199.936 725.93 198.676 723.644 198.676C722.366 198.676 720.98 199.144 720.242 199.756L720.944 201.034C721.682 200.512 722.6 200.152 723.5 200.152C724.634 200.152 725.498 200.656 725.498 202.15V202.33H725.03C723.14 202.33 719.594 202.654 719.594 205.516ZM721.34 205.372C721.34 203.698 723.752 203.59 725.048 203.59H725.498V203.932C725.498 205.282 724.58 206.83 723.05 206.83C721.916 206.83 721.34 206.092 721.34 205.372ZM733.839 197.848C735.243 197.848 736.503 197.02 736.503 195.544V195.274H735.117V195.508C735.117 196.318 734.469 196.714 733.839 196.714C733.209 196.714 732.579 196.318 732.579 195.526V195.274H731.175V195.544C731.175 197.02 732.453 197.848 733.839 197.848ZM729.825 208H731.499L735.441 202.564C735.729 202.132 736.179 201.52 736.233 201.358H736.269C736.269 201.502 736.215 202.132 736.215 202.564V208H737.907V198.892H736.215L732.291 204.328C731.985 204.76 731.553 205.39 731.481 205.552H731.445C731.463 205.462 731.499 204.814 731.499 204.328V198.892H729.825V208ZM742.778 208H744.506V200.386H747.692V198.892H739.61V200.386H742.778V208ZM748.514 203.446C748.514 206.146 750.494 208.216 753.356 208.216C754.616 208.216 756.002 207.73 756.884 206.92L756.146 205.642C755.426 206.29 754.436 206.704 753.464 206.704C751.826 206.704 750.422 205.642 750.332 203.68H756.956C756.992 203.428 757.028 203.176 757.028 202.942C757.028 200.602 755.66 198.676 753.086 198.676C750.494 198.676 748.514 200.548 748.514 203.446ZM750.386 202.42C750.638 200.908 751.7 200.026 753.05 200.026C754.238 200.026 755.21 200.854 755.264 202.42H750.386ZM758.533 203.446C758.533 206.182 760.531 208.216 763.411 208.216C764.833 208.216 766.219 207.64 767.047 206.758L766.345 205.48C765.643 206.218 764.545 206.704 763.537 206.704C761.647 206.704 760.315 205.282 760.315 203.428C760.315 201.574 761.647 200.188 763.483 200.188C764.437 200.188 765.391 200.62 766.003 201.232L766.831 200.008C765.967 199.09 764.617 198.676 763.411 198.676C760.549 198.676 758.533 200.746 758.533 203.446ZM768.936 208H772.482C774.786 208 775.83 206.83 775.83 205.12C775.83 203.05 774.408 202.186 772.518 202.186H770.682V198.892H768.936V208ZM770.682 206.74V203.446H772.248C773.508 203.446 774.048 204.13 774.048 205.102C774.048 206.056 773.508 206.74 772.248 206.74H770.682ZM781.613 203.428C781.613 206.2 783.809 208.216 786.527 208.216C789.227 208.216 791.423 206.2 791.423 203.428C791.423 200.674 789.227 198.676 786.509 198.676C783.809 198.676 781.613 200.674 781.613 203.428ZM783.395 203.428C783.395 201.538 784.799 200.188 786.527 200.188C788.237 200.188 789.659 201.538 789.659 203.428C789.659 205.336 788.237 206.704 786.527 206.704C784.799 206.704 783.395 205.336 783.395 203.428ZM793.528 208H795.274V204.094H799.882V208H801.628V198.892H799.882V202.6H795.274V198.892H793.528V208ZM803.331 208.09C806.013 207.946 807.057 205.822 807.057 201.7V200.332H809.739V208H811.485V198.892H805.383V201.7C805.383 204.994 804.663 206.326 803.331 206.524V208.09ZM813.426 205.516C813.426 207.226 814.884 208.216 816.468 208.216C817.818 208.216 818.934 207.406 819.456 206.362H819.492C819.492 206.362 819.438 206.668 819.438 207.082V208H821.076V202.24C821.076 199.936 819.762 198.676 817.476 198.676C816.198 198.676 814.812 199.144 814.074 199.756L814.776 201.034C815.514 200.512 816.432 200.152 817.332 200.152C818.466 200.152 819.33 200.656 819.33 202.15V202.33H818.862C816.972 202.33 813.426 202.654 813.426 205.516ZM815.172 205.372C815.172 203.698 817.584 203.59 818.88 203.59H819.33V203.932C819.33 205.282 818.412 206.83 816.882 206.83C815.748 206.83 815.172 206.092 815.172 205.372ZM827.671 197.848C829.075 197.848 830.335 197.02 830.335 195.544V195.274H828.949V195.508C828.949 196.318 828.301 196.714 827.671 196.714C827.041 196.714 826.411 196.318 826.411 195.526V195.274H825.007V195.544C825.007 197.02 826.285 197.848 827.671 197.848ZM823.657 208H825.331L829.273 202.564C829.561 202.132 830.011 201.52 830.065 201.358H830.101C830.101 201.502 830.047 202.132 830.047 202.564V208H831.739V198.892H830.047L826.123 204.328C825.817 204.76 825.385 205.39 825.313 205.552H825.277C825.295 205.462 825.331 204.814 825.331 204.328V198.892H823.657V208ZM834.414 208H836.16V204.094H840.768V208H842.514V198.892H840.768V202.6H836.16V198.892H834.414V208ZM666.35 236H668.096V228.386H672.056V226.892H666.35V236ZM674.689 234.56C675.841 232.76 675.985 230.168 675.985 228.8V228.314H678.721V234.56H674.689ZM671.773 234.56V238.16H673.411V236H680.161V238.16H681.763V234.56H680.467V226.892H674.311V228.566C674.311 229.97 674.167 232.814 672.889 234.56H671.773ZM682.895 231.446C682.895 234.146 684.875 236.216 687.737 236.216C688.997 236.216 690.383 235.73 691.265 234.92L690.527 233.642C689.807 234.29 688.817 234.704 687.845 234.704C686.207 234.704 684.803 233.642 684.713 231.68H691.337C691.373 231.428 691.409 231.176 691.409 230.942C691.409 228.602 690.041 226.676 687.467 226.676C684.875 226.676 682.895 228.548 682.895 231.446ZM684.767 230.42C685.019 228.908 686.081 228.026 687.431 228.026C688.619 228.026 689.591 228.854 689.645 230.42H684.767ZM697.558 237.89L696.946 239.222C696.946 239.222 697.684 239.78 698.692 239.78C699.97 239.78 701.104 239.06 701.644 237.638L705.928 226.892H704.038L701.824 232.868C701.662 233.336 701.518 233.948 701.518 233.948H701.482C701.482 233.948 701.32 233.3 701.14 232.85L698.854 226.892H696.892L700.708 235.892L700.258 236.936C699.916 237.764 699.322 238.286 698.602 238.286C698.062 238.286 697.558 237.89 697.558 237.89ZM707.641 236H709.387V228.386H713.347V226.892H707.641V236ZM714.149 231.428C714.149 234.2 716.345 236.216 719.063 236.216C721.763 236.216 723.959 234.2 723.959 231.428C723.959 228.674 721.763 226.676 719.045 226.676C716.345 226.676 714.149 228.674 714.149 231.428ZM715.931 231.428C715.931 229.538 717.335 228.188 719.063 228.188C720.773 228.188 722.195 229.538 722.195 231.428C722.195 233.336 720.773 234.704 719.063 234.704C717.335 234.704 715.931 233.336 715.931 231.428ZM727.616 234.56C728.768 232.76 728.912 230.168 728.912 228.8V228.314H731.648V234.56H727.616ZM724.7 234.56V238.16H726.338V236H733.088V238.16H734.69V234.56H733.394V226.892H727.238V228.566C727.238 229.97 727.094 232.814 725.816 234.56H724.7ZM736.522 236H738.268V232.094H742.876V236H744.622V226.892H742.876V230.6H738.268V226.892H736.522V236ZM746.721 231.428C746.721 234.2 748.917 236.216 751.635 236.216C754.335 236.216 756.531 234.2 756.531 231.428C756.531 228.674 754.335 226.676 751.617 226.676C748.917 226.676 746.721 228.674 746.721 231.428ZM748.503 231.428C748.503 229.538 749.907 228.188 751.635 228.188C753.345 228.188 754.767 229.538 754.767 231.428C754.767 233.336 753.345 234.704 751.635 234.704C749.907 234.704 748.503 233.336 748.503 231.428ZM763.135 236H764.809L768.751 230.564C769.039 230.132 769.489 229.52 769.543 229.358H769.579C769.579 229.502 769.525 230.132 769.525 230.564V236H771.217V226.892H769.525L765.601 232.328C765.295 232.76 764.863 233.39 764.791 233.552H764.755C764.773 233.462 764.809 232.814 764.809 232.328V226.892H763.135V236ZM778.393 236H780.139V232.058H781.453L784.171 236H786.241L782.839 231.266V231.23L785.881 226.892H783.901L781.417 230.564H780.139V226.892H778.393V236ZM786.817 231.428C786.817 234.2 789.013 236.216 791.731 236.216C794.431 236.216 796.627 234.2 796.627 231.428C796.627 228.674 794.431 226.676 791.713 226.676C789.013 226.676 786.817 228.674 786.817 231.428ZM788.599 231.428C788.599 229.538 790.003 228.188 791.731 228.188C793.441 228.188 794.863 229.538 794.863 231.428C794.863 233.336 793.441 234.704 791.731 234.704C790.003 234.704 788.599 233.336 788.599 231.428ZM798.731 236H800.477V228.386H804.437V226.892H798.731V236ZM807.07 234.56C808.222 232.76 808.366 230.168 808.366 228.8V228.314H811.102V234.56H807.07ZM804.154 234.56V238.16H805.792V236H812.542V238.16H814.144V234.56H812.848V226.892H806.692V228.566C806.692 229.97 806.548 232.814 805.27 234.56H804.154ZM815.219 233.516C815.219 235.226 816.677 236.216 818.261 236.216C819.611 236.216 820.727 235.406 821.249 234.362H821.285C821.285 234.362 821.231 234.668 821.231 235.082V236H822.869V230.24C822.869 227.936 821.555 226.676 819.269 226.676C817.991 226.676 816.605 227.144 815.867 227.756L816.569 229.034C817.307 228.512 818.225 228.152 819.125 228.152C820.259 228.152 821.123 228.656 821.123 230.15V230.33H820.655C818.765 230.33 815.219 230.654 815.219 233.516ZM816.965 233.372C816.965 231.698 819.377 231.59 820.673 231.59H821.123V231.932C821.123 233.282 820.205 234.83 818.675 234.83C817.541 234.83 816.965 234.092 816.965 233.372ZM829.5 237.89L828.888 239.222C828.888 239.222 829.626 239.78 830.634 239.78C831.912 239.78 833.046 239.06 833.586 237.638L837.87 226.892H835.98L833.766 232.868C833.604 233.336 833.46 233.948 833.46 233.948H833.424C833.424 233.948 833.262 233.3 833.082 232.85L830.796 226.892H828.834L832.65 235.892L832.2 236.936C831.858 237.764 831.264 238.286 830.544 238.286C830.004 238.286 829.5 237.89 829.5 237.89ZM839.582 236H841.328V228.386H845.288V226.892H839.582V236ZM846.09 231.428C846.09 234.2 848.286 236.216 851.004 236.216C853.704 236.216 855.9 234.2 855.9 231.428C855.9 228.674 853.704 226.676 850.986 226.676C848.286 226.676 846.09 228.674 846.09 231.428ZM847.872 231.428C847.872 229.538 849.276 228.188 851.004 228.188C852.714 228.188 854.136 229.538 854.136 231.428C854.136 233.336 852.714 234.704 851.004 234.704C849.276 234.704 847.872 233.336 847.872 231.428ZM859.558 234.56C860.71 232.76 860.854 230.168 860.854 228.8V228.314H863.59V234.56H859.558ZM856.642 234.56V238.16H858.28V236H865.03V238.16H866.632V234.56H865.336V226.892H859.18V228.566C859.18 229.97 859.036 232.814 857.758 234.56H856.642ZM868.463 236H870.209V232.094H874.817V236H876.563V226.892H874.817V230.6H870.209V226.892H868.463V236ZM878.662 231.428C878.662 234.2 880.858 236.216 883.576 236.216C886.276 236.216 888.472 234.2 888.472 231.428C888.472 228.674 886.276 226.676 883.558 226.676C880.858 226.676 878.662 228.674 878.662 231.428ZM880.444 231.428C880.444 229.538 881.848 228.188 883.576 228.188C885.286 228.188 886.708 229.538 886.708 231.428C886.708 233.336 885.286 234.704 883.576 234.704C881.848 234.704 880.444 233.336 880.444 231.428Z" fill="#505257"/>
</svg>
