<svg width="1110" height="298" viewBox="0 0 1110 298" fill="none" xmlns="http://www.w3.org/2000/svg">
<path d="M601 4.40122C601 2.86065 601 2.09037 601.3 1.50195C601.563 0.984356 601.984 0.563541 602.501 0.299816C603.089 0 603.859 0 605.398 0H1105.6C1107.14 0 1107.91 0 1108.5 0.299816C1109.02 0.563541 1109.44 0.984356 1109.7 1.50195C1110 2.09037 1110 2.86066 1110 4.40123V293.599C1110 295.139 1110 295.91 1109.7 296.498C1109.44 297.016 1109.02 297.436 1108.5 297.7C1107.91 298 1107.14 298 1105.6 298H605.398C603.859 298 603.089 298 602.501 297.7C601.984 297.436 601.563 297.016 601.3 296.498C601 295.91 601 295.139 601 293.599V4.40122Z" fill="#F3F3F3"/>
<path d="M748 58.2049C748 57.0831 748 56.5222 748.189 56.0937C748.355 55.7168 748.62 55.4104 748.947 55.2183C749.317 55 749.803 55 750.774 55H1066.23C1067.2 55 1067.68 55 1068.05 55.2183C1068.38 55.4104 1068.64 55.7168 1068.81 56.0937C1069 56.5222 1069 57.0831 1069 58.2049V268.795C1069 269.917 1069 270.478 1068.81 270.906C1068.64 271.283 1068.38 271.59 1068.05 271.782C1067.68 272 1067.2 272 1066.23 272H750.774C749.803 272 749.317 272 748.947 271.782C748.62 271.59 748.355 271.283 748.189 270.906C748 270.478 748 269.917 748 268.795V58.2049Z" fill="white"/>
<path d="M761 216.321C761 216.208 761 216.152 761.023 216.109C761.042 216.072 761.074 216.041 761.113 216.022C761.157 216 761.215 216 761.331 216H785.669C785.785 216 785.843 216 785.887 216.022C785.926 216.041 785.958 216.072 785.977 216.109C786 216.152 786 216.208 786 216.321V229.679C786 229.792 786 229.848 785.977 229.891C785.958 229.928 785.926 229.959 785.887 229.978C785.843 230 785.785 230 785.669 230H761.331C761.215 230 761.157 230 761.113 229.978C761.074 229.959 761.042 229.928 761.023 229.891C761 229.848 761 229.792 761 229.679V216.321Z" fill="#F3F3F3"/>
<path d="M791 202.642C791 202.417 791 202.305 791.023 202.219C791.042 202.143 791.074 202.082 791.113 202.044C791.157 202 791.215 202 791.331 202H815.669C815.785 202 815.843 202 815.887 202.044C815.926 202.082 815.958 202.143 815.977 202.219C816 202.305 816 202.417 816 202.642V229.358C816 229.583 816 229.695 815.977 229.781C815.958 229.857 815.926 229.918 815.887 229.956C815.843 230 815.785 230 815.669 230H791.331C791.215 230 791.157 230 791.113 229.956C791.074 229.918 791.042 229.857 791.023 229.781C791 229.695 791 229.583 791 229.358V202.642Z" fill="#F3F3F3"/>
<path d="M851 175.283C851 174.834 851 174.609 851.023 174.438C851.042 174.287 851.074 174.164 851.113 174.087C851.157 174 851.215 174 851.331 174H875.669C875.785 174 875.843 174 875.887 174.087C875.926 174.164 875.958 174.287 875.977 174.438C876 174.609 876 174.834 876 175.283V228.717C876 229.166 876 229.391 875.977 229.562C875.958 229.713 875.926 229.836 875.887 229.913C875.843 230 875.785 230 875.669 230H851.331C851.215 230 851.157 230 851.113 229.913C851.074 229.836 851.042 229.713 851.023 229.562C851 229.391 851 229.166 851 228.717V175.283Z" fill="#F3F3F3"/>
<path d="M821 188.962C821 188.625 821 188.457 821.023 188.328C821.042 188.215 821.074 188.123 821.113 188.066C821.157 188 821.215 188 821.331 188H845.669C845.785 188 845.843 188 845.887 188.066C845.926 188.123 845.958 188.215 845.977 188.328C846 188.457 846 188.625 846 188.962V229.038C846 229.375 846 229.543 845.977 229.672C845.958 229.785 845.926 229.877 845.887 229.934C845.843 230 845.785 230 845.669 230H821.331C821.215 230 821.157 230 821.113 229.934C821.074 229.877 821.042 229.785 821.023 229.672C821 229.543 821 229.375 821 229.038V188.962Z" fill="#F3F3F3"/>
<path d="M881 161.604C881 161.042 881 160.762 881.023 160.547C881.042 160.359 881.074 160.205 881.113 160.109C881.157 160 881.215 160 881.331 160H905.669C905.785 160 905.843 160 905.887 160.109C905.926 160.205 905.958 160.359 905.977 160.547C906 160.762 906 161.042 906 161.604V228.396C906 228.958 906 229.238 905.977 229.453C905.958 229.641 905.926 229.795 905.887 229.891C905.843 230 905.785 230 905.669 230H881.331C881.215 230 881.157 230 881.113 229.891C881.074 229.795 881.042 229.641 881.023 229.453C881 229.238 881 228.958 881 228.396V161.604Z" fill="#F3F3F3"/>
<path d="M911 147.925C911 147.251 911 146.914 911.023 146.657C911.042 146.43 911.074 146.246 911.113 146.131C911.157 146 911.215 146 911.331 146H935.669C935.785 146 935.843 146 935.887 146.131C935.926 146.246 935.958 146.43 935.977 146.657C936 146.914 936 147.251 936 147.925V228.075C936 228.749 936 229.086 935.977 229.343C935.958 229.57 935.926 229.754 935.887 229.869C935.843 230 935.785 230 935.669 230H911.331C911.215 230 911.157 230 911.113 229.869C911.074 229.754 911.042 229.57 911.023 229.343C911 229.086 911 228.749 911 228.075V147.925Z" fill="#F3F3F3"/>
<path d="M941 134.245C941 133.459 941 133.066 941.023 132.766C941.042 132.502 941.074 132.287 941.113 132.153C941.157 132 941.215 132 941.331 132H965.669C965.785 132 965.843 132 965.887 132.153C965.926 132.287 965.958 132.502 965.977 132.766C966 133.066 966 133.459 966 134.245V227.755C966 228.541 966 228.934 965.977 229.234C965.958 229.498 965.926 229.713 965.887 229.847C965.843 230 965.785 230 965.669 230H941.331C941.215 230 941.157 230 941.113 229.847C941.074 229.713 941.042 229.498 941.023 229.234C941 228.934 941 228.541 941 227.755V134.245Z" fill="#F3F3F3"/>
<path d="M971 120.566C971 119.668 971 119.219 971.023 118.876C971.042 118.574 971.074 118.329 971.113 118.175C971.157 118 971.215 118 971.331 118H995.669C995.785 118 995.843 118 995.887 118.175C995.926 118.329 995.958 118.574 995.977 118.876C996 119.219 996 119.668 996 120.566V227.434C996 228.332 996 228.781 995.977 229.124C995.958 229.426 995.926 229.671 995.887 229.825C995.843 230 995.785 230 995.669 230H971.331C971.215 230 971.157 230 971.113 229.825C971.074 229.671 971.042 229.426 971.023 229.124C971 228.781 971 228.332 971 227.434V120.566Z" fill="#F3F3F3"/>
<path d="M1001 106.887C1001 105.876 1001 105.371 1001.02 104.985C1001.04 104.646 1001.07 104.37 1001.11 104.197C1001.16 104 1001.22 104 1001.33 104H1025.67C1025.78 104 1025.84 104 1025.89 104.197C1025.93 104.37 1025.96 104.646 1025.98 104.985C1026 105.371 1026 105.876 1026 106.887V227.113C1026 228.124 1026 228.629 1025.98 229.015C1025.96 229.354 1025.93 229.63 1025.89 229.803C1025.84 230 1025.78 230 1025.67 230H1001.33C1001.22 230 1001.16 230 1001.11 229.803C1001.07 229.63 1001.04 229.354 1001.02 229.015C1001 228.629 1001 228.124 1001 227.113V106.887Z" fill="#F3F3F3"/>
<path d="M1031 93.2076C1031 92.0849 1031 91.5235 1031.02 91.0946C1031.04 90.7174 1031.07 90.4107 1031.11 90.2185C1031.16 90 1031.22 90 1031.33 90H1055.67C1055.78 90 1055.84 90 1055.89 90.2185C1055.93 90.4107 1055.96 90.7174 1055.98 91.0946C1056 91.5235 1056 92.0849 1056 93.2076V226.792C1056 227.915 1056 228.477 1055.98 228.905C1055.96 229.283 1055.93 229.589 1055.89 229.781C1055.84 230 1055.78 230 1055.67 230H1031.33C1031.22 230 1031.16 230 1031.11 229.781C1031.07 229.589 1031.04 229.283 1031.02 228.905C1031 228.477 1031 227.915 1031 226.792V93.2076Z" fill="#F04B5D"/>
<path d="M1039 79.5L1041.67 82L1047 77" stroke="#222224" stroke-width="2"/>
<path d="M748 21.8444C748 20.8488 748 20.351 748.101 19.9707C748.19 19.6362 748.332 19.3642 748.507 19.1938C748.705 19 748.965 19 749.485 19H775.515C776.035 19 776.295 19 776.493 19.1938C776.668 19.3642 776.81 19.6362 776.899 19.9707C777 20.351 777 20.8488 777 21.8444V24.1556C777 25.1512 777 25.649 776.899 26.0293C776.81 26.3638 776.668 26.6358 776.493 26.8062C776.295 27 776.035 27 775.515 27H749.485C748.965 27 748.705 27 748.507 26.8062C748.332 26.6358 748.19 26.3638 748.101 26.0293C748 25.649 748 25.1512 748 24.1556V21.8444Z" fill="#424754"/>
<path d="M771 238.873C771 238.567 771 238.415 771.01 238.298C771.02 238.195 771.034 238.112 771.052 238.059C771.073 238 771.1 238 771.154 238H776.846C776.9 238 776.927 238 776.948 238.059C776.966 238.112 776.98 238.195 776.99 238.298C777 238.415 777 238.567 777 238.873V240.127C777 240.433 777 240.585 776.99 240.702C776.98 240.805 776.966 240.888 776.948 240.941C776.927 241 776.9 241 776.846 241H771.154C771.1 241 771.073 241 771.052 240.941C771.034 240.888 771.02 240.805 771.01 240.702C771 240.585 771 240.433 771 240.127V238.873Z" fill="#424754"/>
<path d="M801 238.873C801 238.567 801 238.415 801.01 238.298C801.02 238.195 801.034 238.112 801.052 238.059C801.073 238 801.1 238 801.154 238H806.846C806.9 238 806.927 238 806.948 238.059C806.966 238.112 806.98 238.195 806.99 238.298C807 238.415 807 238.567 807 238.873V240.127C807 240.433 807 240.585 806.99 240.702C806.98 240.805 806.966 240.888 806.948 240.941C806.927 241 806.9 241 806.846 241H801.154C801.1 241 801.073 241 801.052 240.941C801.034 240.888 801.02 240.805 801.01 240.702C801 240.585 801 240.433 801 240.127V238.873Z" fill="#424754"/>
<path d="M831 238.873C831 238.567 831 238.415 831.01 238.298C831.02 238.195 831.034 238.112 831.052 238.059C831.073 238 831.1 238 831.154 238H836.846C836.9 238 836.927 238 836.948 238.059C836.966 238.112 836.98 238.195 836.99 238.298C837 238.415 837 238.567 837 238.873V240.127C837 240.433 837 240.585 836.99 240.702C836.98 240.805 836.966 240.888 836.948 240.941C836.927 241 836.9 241 836.846 241H831.154C831.1 241 831.073 241 831.052 240.941C831.034 240.888 831.02 240.805 831.01 240.702C831 240.585 831 240.433 831 240.127V238.873Z" fill="#424754"/>
<path d="M861 238.873C861 238.567 861 238.415 861.01 238.298C861.02 238.195 861.034 238.112 861.052 238.059C861.073 238 861.1 238 861.154 238H866.846C866.9 238 866.927 238 866.948 238.059C866.966 238.112 866.98 238.195 866.99 238.298C867 238.415 867 238.567 867 238.873V240.127C867 240.433 867 240.585 866.99 240.702C866.98 240.805 866.966 240.888 866.948 240.941C866.927 241 866.9 241 866.846 241H861.154C861.1 241 861.073 241 861.052 240.941C861.034 240.888 861.02 240.805 861.01 240.702C861 240.585 861 240.433 861 240.127V238.873Z" fill="#424754"/>
<path d="M891 238.873C891 238.567 891 238.415 891.01 238.298C891.02 238.195 891.034 238.112 891.052 238.059C891.073 238 891.1 238 891.154 238H896.846C896.9 238 896.927 238 896.948 238.059C896.966 238.112 896.98 238.195 896.99 238.298C897 238.415 897 238.567 897 238.873V240.127C897 240.433 897 240.585 896.99 240.702C896.98 240.805 896.966 240.888 896.948 240.941C896.927 241 896.9 241 896.846 241H891.154C891.1 241 891.073 241 891.052 240.941C891.034 240.888 891.02 240.805 891.01 240.702C891 240.585 891 240.433 891 240.127V238.873Z" fill="#424754"/>
<path d="M921 238.873C921 238.567 921 238.415 921.01 238.298C921.02 238.195 921.034 238.112 921.052 238.059C921.073 238 921.1 238 921.154 238H926.846C926.9 238 926.927 238 926.948 238.059C926.966 238.112 926.98 238.195 926.99 238.298C927 238.415 927 238.567 927 238.873V240.127C927 240.433 927 240.585 926.99 240.702C926.98 240.805 926.966 240.888 926.948 240.941C926.927 241 926.9 241 926.846 241H921.154C921.1 241 921.073 241 921.052 240.941C921.034 240.888 921.02 240.805 921.01 240.702C921 240.585 921 240.433 921 240.127V238.873Z" fill="#424754"/>
<path d="M951 238.873C951 238.567 951 238.415 951.01 238.298C951.02 238.195 951.034 238.112 951.052 238.059C951.073 238 951.1 238 951.154 238H956.846C956.9 238 956.927 238 956.948 238.059C956.966 238.112 956.98 238.195 956.99 238.298C957 238.415 957 238.567 957 238.873V240.127C957 240.433 957 240.585 956.99 240.702C956.98 240.805 956.966 240.888 956.948 240.941C956.927 241 956.9 241 956.846 241H951.154C951.1 241 951.073 241 951.052 240.941C951.034 240.888 951.02 240.805 951.01 240.702C951 240.585 951 240.433 951 240.127V238.873Z" fill="#424754"/>
<path d="M981 238.873C981 238.567 981 238.415 981.01 238.298C981.02 238.195 981.034 238.112 981.052 238.059C981.073 238 981.1 238 981.154 238H986.846C986.9 238 986.927 238 986.948 238.059C986.966 238.112 986.98 238.195 986.99 238.298C987 238.415 987 238.567 987 238.873V240.127C987 240.433 987 240.585 986.99 240.702C986.98 240.805 986.966 240.888 986.948 240.941C986.927 241 986.9 241 986.846 241H981.154C981.1 241 981.073 241 981.052 240.941C981.034 240.888 981.02 240.805 981.01 240.702C981 240.585 981 240.433 981 240.127V238.873Z" fill="#424754"/>
<path d="M1011 238.873C1011 238.567 1011 238.415 1011.01 238.298C1011.02 238.195 1011.03 238.112 1011.05 238.059C1011.07 238 1011.1 238 1011.15 238H1016.85C1016.9 238 1016.93 238 1016.95 238.059C1016.97 238.112 1016.98 238.195 1016.99 238.298C1017 238.415 1017 238.567 1017 238.873V240.127C1017 240.433 1017 240.585 1016.99 240.702C1016.98 240.805 1016.97 240.888 1016.95 240.941C1016.93 241 1016.9 241 1016.85 241H1011.15C1011.1 241 1011.07 241 1011.05 240.941C1011.03 240.888 1011.02 240.805 1011.01 240.702C1011 240.585 1011 240.433 1011 240.127V238.873Z" fill="#424754"/>
<path d="M1041 238.873C1041 238.567 1041 238.415 1041.01 238.298C1041.02 238.195 1041.03 238.112 1041.05 238.059C1041.07 238 1041.1 238 1041.15 238H1046.85C1046.9 238 1046.93 238 1046.95 238.059C1046.97 238.112 1046.98 238.195 1046.99 238.298C1047 238.415 1047 238.567 1047 238.873V240.127C1047 240.433 1047 240.585 1046.99 240.702C1046.98 240.805 1046.97 240.888 1046.95 240.941C1046.93 241 1046.9 241 1046.85 241H1041.15C1041.1 241 1041.07 241 1041.05 240.941C1041.03 240.888 1041.02 240.805 1041.01 240.702C1041 240.585 1041 240.433 1041 240.127V238.873Z" fill="#424754"/>
<path d="M761 256.455C761 255.945 761 255.691 761.1 255.496C761.187 255.325 761.327 255.186 761.5 255.099C761.695 255 761.951 255 762.464 255H990.536C991.049 255 991.305 255 991.5 255.099C991.673 255.186 991.813 255.325 991.9 255.496C992 255.691 992 255.945 992 256.455V258.545C992 259.055 992 259.309 991.9 259.504C991.813 259.675 991.673 259.814 991.5 259.901C991.305 260 991.049 260 990.536 260H762.464C761.951 260 761.695 260 761.5 259.901C761.327 259.814 761.187 259.675 761.1 259.504C761 259.309 761 259.055 761 258.545V256.455Z" fill="#97999D"/>
<path d="M601 4.40122C601 2.86065 601 2.09037 601.299 1.50195C601.562 0.984356 601.981 0.563541 602.497 0.299816C603.084 0 603.852 0 605.388 0H713.612C715.148 0 715.916 0 716.503 0.299816C717.019 0.563541 717.438 0.984356 717.701 1.50195C718 2.09037 718 2.86066 718 4.40123V293.599C718 295.139 718 295.91 717.701 296.498C717.438 297.016 717.019 297.436 716.503 297.7C715.916 298 715.148 298 713.612 298H605.388C603.852 298 603.084 298 602.497 297.7C601.981 297.436 601.562 297.016 601.299 296.498C601 295.91 601 295.139 601 293.599V4.40122Z" fill="#FFEAEC"/>
<path d="M601 60.4979C601 59.9736 601 59.7114 601.1 59.5112C601.188 59.335 601.328 59.1918 601.501 59.102C601.697 59 601.954 59 602.468 59H716.532C717.046 59 717.303 59 717.499 59.102C717.672 59.1918 717.812 59.335 717.9 59.5112C718 59.7114 718 59.9736 718 60.4979V79.5021C718 80.0264 718 80.2886 717.9 80.4888C717.812 80.665 717.672 80.8082 717.499 80.898C717.303 81 717.046 81 716.532 81H602.468C601.954 81 601.697 81 601.501 80.898C601.328 80.8082 601.188 80.665 601.1 80.4888C601 80.2886 601 80.0264 601 79.5021V60.4979Z" fill="#FFEAEC"/>
<path d="M631 68.4545C631 67.9454 631 67.6908 631.099 67.4964C631.187 67.3253 631.326 67.1862 631.498 67.0991C631.693 67 631.948 67 632.459 67H686.541C687.052 67 687.307 67 687.502 67.0991C687.674 67.1862 687.813 67.3253 687.901 67.4964C688 67.6908 688 67.9454 688 68.4545V70.5455C688 71.0546 688 71.3092 687.901 71.5036C687.813 71.6747 687.674 71.8138 687.502 71.9009C687.307 72 687.052 72 686.541 72H632.459C631.948 72 631.693 72 631.498 71.9009C631.326 71.8138 631.187 71.6747 631.099 71.5036C631 71.3092 631 71.0546 631 70.5455V68.4545Z" fill="#F04B5D"/>
<path d="M656 20.4545C656 19.9454 656 19.6908 656.099 19.4964C656.185 19.3253 656.324 19.1862 656.494 19.0991C656.688 19 656.941 19 657.448 19H697.552C698.059 19 698.312 19 698.506 19.0991C698.676 19.1862 698.815 19.3253 698.901 19.4964C699 19.6908 699 19.9454 699 20.4545V22.5455C699 23.0546 699 23.3092 698.901 23.5036C698.815 23.6747 698.676 23.8138 698.506 23.9009C698.312 24 698.059 24 697.552 24H657.448C656.941 24 656.688 24 656.494 23.9009C656.324 23.8138 656.185 23.6747 656.099 23.5036C656 23.3092 656 23.0546 656 22.5455V20.4545Z" fill="#424754"/>
<path d="M631 15.4452C631 14.9393 631 14.6864 631.102 14.4932C631.191 14.3232 631.334 14.185 631.51 14.0984C631.709 14 631.971 14 632.493 14H643.507C644.029 14 644.291 14 644.49 14.0984C644.666 14.185 644.809 14.3232 644.898 14.4932C645 14.6864 645 14.9393 645 15.4452V26.5548C645 27.0607 645 27.3136 644.898 27.5068C644.809 27.6768 644.666 27.815 644.49 27.9016C644.291 28 644.029 28 643.507 28H632.493C631.971 28 631.709 28 631.51 27.9016C631.334 27.815 631.191 27.6768 631.102 27.5068C631 27.3136 631 27.0607 631 26.5548V15.4452Z" fill="#424754"/>
<path d="M631 90.4545C631 89.9454 631 89.6908 631.099 89.4964C631.187 89.3253 631.326 89.1862 631.498 89.0991C631.693 89 631.948 89 632.459 89H686.541C687.052 89 687.307 89 687.502 89.0991C687.674 89.1862 687.813 89.3253 687.901 89.4964C688 89.6908 688 89.9454 688 90.4545V92.5455C688 93.0546 688 93.3092 687.901 93.5036C687.813 93.6747 687.674 93.8138 687.502 93.9009C687.307 94 687.052 94 686.541 94H632.459C631.948 94 631.693 94 631.498 93.9009C631.326 93.8138 631.187 93.6747 631.099 93.5036C631 93.3092 631 93.0546 631 92.5455V90.4545Z" fill="#424754"/>
<path d="M631 111.455C631 110.945 631 110.691 631.099 110.496C631.187 110.325 631.326 110.186 631.498 110.099C631.693 110 631.948 110 632.459 110H686.541C687.052 110 687.307 110 687.502 110.099C687.674 110.186 687.813 110.325 687.901 110.496C688 110.691 688 110.945 688 111.455V113.545C688 114.055 688 114.309 687.901 114.504C687.813 114.675 687.674 114.814 687.502 114.901C687.307 115 687.052 115 686.541 115H632.459C631.948 115 631.693 115 631.498 114.901C631.326 114.814 631.187 114.675 631.099 114.504C631 114.309 631 114.055 631 113.545V111.455Z" fill="#424754"/>
<path d="M631 133.455C631 132.945 631 132.691 631.099 132.496C631.187 132.325 631.326 132.186 631.498 132.099C631.693 132 631.948 132 632.459 132H686.541C687.052 132 687.307 132 687.502 132.099C687.674 132.186 687.813 132.325 687.901 132.496C688 132.691 688 132.945 688 133.455V135.545C688 136.055 688 136.309 687.901 136.504C687.813 136.675 687.674 136.814 687.502 136.901C687.307 137 687.052 137 686.541 137H632.459C631.948 137 631.693 137 631.498 136.901C631.326 136.814 631.187 136.675 631.099 136.504C631 136.309 631 136.055 631 135.545V133.455Z" fill="#424754"/>
<path d="M631 154.745C631 154.134 631 153.829 631.099 153.596C631.187 153.39 631.326 153.223 631.498 153.119C631.693 153 631.948 153 632.459 153H686.541C687.052 153 687.307 153 687.502 153.119C687.674 153.223 687.813 153.39 687.901 153.596C688 153.829 688 154.134 688 154.745V157.255C688 157.866 688 158.171 687.901 158.404C687.813 158.61 687.674 158.777 687.502 158.881C687.307 159 687.052 159 686.541 159H632.459C631.948 159 631.693 159 631.498 158.881C631.326 158.777 631.187 158.61 631.099 158.404C631 158.171 631 157.866 631 157.255V154.745Z" fill="#424754"/>
<path d="M2.296 68.968C2.296 76.528 7.984 82.432 15.76 82.432C23.536 82.432 29.224 76.528 29.224 68.968C29.224 61.588 23.536 55.828 15.76 55.828C7.984 55.828 2.296 61.588 2.296 68.968ZM8.812 68.968C8.812 64.756 11.908 61.588 15.76 61.588C19.612 61.588 22.708 64.756 22.708 68.968C22.708 73.36 19.612 76.672 15.76 76.672C11.908 76.672 8.812 73.36 8.812 68.968ZM32.3732 82H38.6012V68.68H44.1092V82H50.3372V63.46H32.3732V82ZM54.5216 89.2H60.7496V82.252C60.7496 81.316 60.6776 80.668 60.6776 80.668H60.7496C62.0816 81.82 63.7376 82.432 65.4656 82.432C70.3976 82.432 74.1056 78.616 74.1056 72.748C74.1056 66.988 70.7936 63.028 65.7536 63.028C63.5216 63.028 61.3976 63.892 60.1376 65.584H60.0656C60.0656 65.584 60.1376 65.008 60.1376 64.396V63.46H54.5216V89.2ZM60.5696 72.856C60.5696 69.652 62.3336 68.284 64.2056 68.284C66.3656 68.284 67.8416 70.084 67.8416 72.856C67.8416 75.7 66.1496 77.284 64.2056 77.284C61.7576 77.284 60.5696 75.088 60.5696 72.856ZM76.2588 72.712C76.2588 77.644 79.8228 82.432 86.4468 82.432C89.2908 82.432 92.3508 81.46 94.3668 79.732L92.0628 75.376C90.5508 76.384 88.7868 77.248 86.9508 77.248C84.9708 77.248 83.0988 76.204 82.6308 73.936H94.3308C94.4028 73.288 94.4748 72.64 94.4748 71.992C94.4748 66.844 91.3788 63.028 85.9068 63.028C79.9308 63.028 76.2588 67.276 76.2588 72.712ZM82.7748 70.372C83.0988 68.896 83.9628 67.6 85.7628 67.6C87.3468 67.6 88.3188 68.86 88.3188 70.372H82.7748ZM104.428 77.068C105.724 74.584 106.084 71.884 106.084 69.076V68.392H109.288V77.068H104.428ZM96.004 77.068V86.32H101.764V82H112.636V86.32H118.18V77.068H115.516V63.46H100.216V67.924C100.216 71.668 99.532 74.98 98.308 77.068H96.004ZM119.782 72.712C119.782 77.644 123.346 82.432 129.97 82.432C132.814 82.432 135.874 81.46 137.89 79.732L135.586 75.376C134.074 76.384 132.31 77.248 130.474 77.248C128.494 77.248 126.622 76.204 126.154 73.936H137.854C137.926 73.288 137.998 72.64 137.998 71.992C137.998 66.844 134.902 63.028 129.43 63.028C123.454 63.028 119.782 67.276 119.782 72.712ZM126.298 70.372C126.622 68.896 127.486 67.6 129.286 67.6C130.87 67.6 131.842 68.86 131.842 70.372H126.298ZM139.743 82.18C146.943 82.18 149.103 76.996 149.103 69.436V68.392H152.199V82H158.427V63.46H143.235V69.4C143.235 75.772 141.399 76.528 139.743 76.744V82.18ZM162.592 82H168.64L173.788 73.864C174.076 73.36 174.472 72.784 174.796 72.028H174.868C174.796 72.748 174.796 73.468 174.796 73.9V82H180.664V63.46H174.616L169.468 71.632C169.144 72.172 168.784 72.712 168.46 73.468H168.388C168.424 73 168.46 72.28 168.46 71.632V63.46H162.592V82ZM184.054 82H189.994L190.426 73.468C190.498 72.028 190.39 70.3 190.39 70.3H190.462C190.462 70.3 191.146 71.848 191.542 73.036L193.99 79.516H199.03L201.478 73.036C201.946 71.884 202.486 70.3 202.486 70.3H202.558C202.558 70.3 202.486 72.028 202.522 73.468L202.954 82H208.93L207.166 63.46H200.002L197.266 71.596C196.942 72.532 196.51 73.756 196.51 73.756H196.474C196.474 73.756 196.078 72.532 195.754 71.596L193.018 63.46H185.818L184.054 82ZM3.268 125.692L1.288 130.264C1.288 130.264 3.16 131.56 5.608 131.56C8.56 131.56 11.8 130.12 13.348 125.98L20.944 105.46H14.14L11.8 114.1C11.548 115.108 11.188 116.872 11.188 116.872H11.116C11.116 116.872 10.756 115 10.432 113.992L7.696 105.46H0.64L8.524 123.64L8.164 124.504C7.516 126.088 6.184 126.376 5.176 126.376C4.276 126.376 3.268 125.692 3.268 125.692ZM23.2677 131.2H29.4957V124.252C29.4957 123.316 29.4237 122.668 29.4237 122.668H29.4957C30.8277 123.82 32.4837 124.432 34.2117 124.432C39.1437 124.432 42.8517 120.616 42.8517 114.748C42.8517 108.988 39.5397 105.028 34.4997 105.028C32.2677 105.028 30.1437 105.892 28.8837 107.584H28.8117C28.8117 107.584 28.8837 107.008 28.8837 106.396V105.46H23.2677V131.2ZM29.3157 114.856C29.3157 111.652 31.0797 110.284 32.9517 110.284C35.1117 110.284 36.5877 112.084 36.5877 114.856C36.5877 117.7 34.8957 119.284 32.9517 119.284C30.5037 119.284 29.3157 117.088 29.3157 114.856ZM45.0049 114.784C45.0049 120.58 49.6849 124.432 55.5169 124.432C61.3489 124.432 66.0289 120.58 66.0289 114.784C66.0289 108.952 61.3489 105.028 55.4809 105.028C49.6849 105.028 45.0049 108.952 45.0049 114.784ZM51.3049 114.784C51.3049 111.976 53.2489 110.212 55.5169 110.212C57.7849 110.212 59.7289 111.976 59.7289 114.784C59.7289 117.556 57.7849 119.248 55.5169 119.248C53.2489 119.248 51.3049 117.556 51.3049 114.784ZM69.1466 124H79.2626C82.9346 124 86.3186 122.56 86.3186 118.492C86.3186 116.872 85.5266 115.036 83.4026 114.388V114.352C84.8066 113.524 85.5626 111.868 85.5626 110.32C85.5626 107.116 82.9706 105.46 79.2626 105.46H69.1466V124ZM75.3746 112.768V109.312H77.6426C78.8666 109.312 79.3706 110.068 79.3706 110.932C79.3706 111.904 78.8666 112.768 77.7146 112.768H75.3746ZM75.3746 120.112V116.404H78.1466C79.4786 116.404 80.0906 117.268 80.0906 118.276C80.0906 119.212 79.4426 120.112 78.1106 120.112H75.3746ZM88.4932 114.712C88.4932 119.644 92.0572 124.432 98.6812 124.432C101.525 124.432 104.585 123.46 106.601 121.732L104.297 117.376C102.785 118.384 101.021 119.248 99.1852 119.248C97.2052 119.248 95.3332 118.204 94.8652 115.936H106.565C106.637 115.288 106.709 114.64 106.709 113.992C106.709 108.844 103.613 105.028 98.1412 105.028C92.1652 105.028 88.4932 109.276 88.4932 114.712ZM95.0092 112.372C95.3332 110.896 96.1972 109.6 97.9972 109.6C99.5812 109.6 100.553 110.86 100.553 112.372H95.0092ZM109.963 124H116.191V117.232H121.915V124H128.143V105.46H121.915V112.012H116.191V105.46H109.963V124ZM132.322 124H141.574C146.758 124 148.918 121.444 148.918 117.664C148.918 113.92 146.758 111.256 141.574 111.256H138.55V105.46H132.322V124ZM138.55 119.932V115.288H140.314C141.898 115.288 142.69 116.332 142.69 117.628C142.69 118.924 141.898 119.932 140.422 119.932H138.55ZM159.11 121.696C161.126 123.496 164.114 124.432 166.85 124.432C171.242 124.432 174.518 122.452 174.518 118.528C174.518 116.368 173.042 115.072 171.638 114.424V114.352C172.754 113.74 173.942 112.48 173.942 110.176C173.942 106.972 170.918 105.028 167.102 105.028C163.718 105.028 161.342 105.928 159.614 107.116L161.414 110.968C163.358 109.816 164.798 109.564 165.806 109.564C167.39 109.564 167.75 110.248 167.75 111.04C167.75 112.192 166.85 112.48 165.878 112.48H164.006V116.584H166.274C167.966 116.584 168.29 117.232 168.29 118.132C168.29 118.996 167.786 119.752 166.058 119.752C164.582 119.752 162.746 118.852 161.594 117.808L159.11 121.696ZM177.674 124H183.902V117.232H189.626V124H195.854V105.46H189.626V112.012H183.902V105.46H177.674V124ZM198.701 118.78C198.701 121.984 201.185 124.432 204.749 124.432C206.873 124.432 209.033 123.46 210.257 121.732H210.329C210.329 121.732 210.257 122.272 210.257 122.884V124H215.945V112.588C215.945 107.872 212.777 105.028 207.665 105.028C204.641 105.028 201.401 106.216 199.817 107.44L201.977 111.832C203.453 110.86 205.289 110.068 207.089 110.068C208.457 110.068 209.717 110.572 209.717 112.12V112.444H209.177C204.605 112.444 198.701 113.812 198.701 118.78ZM204.857 118.204C204.857 116.512 207.305 116.008 209.213 116.008H209.789V116.512C209.789 118.024 208.421 119.788 206.621 119.788C205.469 119.788 204.857 119.068 204.857 118.204ZM219.897 124H226.125V117.232H231.849V124H238.077V105.46H231.849V112.012H226.125V105.46H219.897V124ZM242.256 124H248.304L253.452 115.864C253.74 115.36 254.136 114.784 254.46 114.028H254.532C254.46 114.748 254.46 115.468 254.46 115.9V124H260.328V105.46H254.28L249.132 113.632C248.808 114.172 248.448 114.712 248.124 115.468H248.052C248.088 115 248.124 114.28 248.124 113.632V105.46H242.256V124ZM273.582 104.164C277.218 104.164 280.386 102.184 280.386 98.656V98.26H275.814V98.692C275.814 100.168 274.626 100.816 273.582 100.816C272.502 100.816 271.35 100.168 271.35 98.692V98.26H266.742V98.656C266.742 102.184 269.91 104.164 273.582 104.164ZM264.51 124H270.558L275.706 115.864C275.994 115.36 276.39 114.784 276.714 114.028H276.786C276.714 114.748 276.714 115.468 276.714 115.9V124H282.582V105.46H276.534L271.386 113.632C271.062 114.172 270.702 114.712 270.378 115.468H270.306C270.342 115 270.378 114.28 270.378 113.632V105.46H264.51V124Z" fill="#222224"/>
<path d="M1.486 181.488C2.476 182.586 4.078 183.216 5.608 183.216C8.002 183.216 9.928 181.758 9.928 179.4C9.928 177.834 9.028 176.736 7.696 176.358V176.322C8.596 175.872 9.532 175.008 9.532 173.46C9.532 171.336 7.894 170.076 5.716 170.076C4.636 170.076 3.214 170.274 1.864 171.39L2.62 172.722C3.556 171.93 4.564 171.642 5.464 171.642C7.03 171.642 7.714 172.578 7.714 173.676C7.714 174.882 6.706 175.728 5.428 175.728H4.168V177.204H5.734C7.12 177.204 8.11 177.978 8.11 179.31C8.11 180.75 7.012 181.614 5.464 181.614C4.276 181.614 3.142 181.002 2.476 180.282L1.486 181.488ZM11.4202 180.516C11.4202 182.226 12.8782 183.216 14.4622 183.216C15.8122 183.216 16.9282 182.406 17.4502 181.362H17.4862C17.4862 181.362 17.4322 181.668 17.4322 182.082V183H19.0702V177.24C19.0702 174.936 17.7562 173.676 15.4702 173.676C14.1922 173.676 12.8062 174.144 12.0682 174.756L12.7702 176.034C13.5082 175.512 14.4262 175.152 15.3262 175.152C16.4602 175.152 17.3242 175.656 17.3242 177.15V177.33H16.8562C14.9662 177.33 11.4202 177.654 11.4202 180.516ZM13.1662 180.372C13.1662 178.698 15.5782 178.59 16.8742 178.59H17.3242V178.932C17.3242 180.282 16.4062 181.83 14.8762 181.83C13.7422 181.83 13.1662 181.092 13.1662 180.372ZM21.6508 183H23.3968V179.094H28.0048V183H29.7508V173.892H28.0048V177.6H23.3968V173.892H21.6508V183ZM32.4438 183H34.1178L38.0598 177.564C38.3478 177.132 38.7978 176.52 38.8518 176.358H38.8878C38.8878 176.502 38.8338 177.132 38.8338 177.564V183H40.5258V173.892H38.8338L34.9098 179.328C34.6038 179.76 34.1718 180.39 34.0998 180.552H34.0638C34.0818 180.462 34.1178 179.814 34.1178 179.328V173.892H32.4438V183ZM42.8236 183H44.5156L44.9116 177.582C44.9476 177.042 44.8936 176.016 44.8936 176.016H44.9296C44.9296 176.016 45.2176 176.7 45.5056 177.366L47.6656 181.902H49.1596L51.3196 177.348C51.6616 176.646 51.8956 176.016 51.8956 176.016H51.9316C51.9316 176.016 51.8956 177.042 51.9136 177.582L52.3096 183H54.0016L53.2096 173.892H51.3016L48.9256 179.04C48.6916 179.598 48.4216 180.264 48.4216 180.264H48.3856C48.3856 180.264 48.1336 179.58 47.8816 179.04L45.5596 173.892H43.6156L42.8236 183ZM55.594 180.516C55.594 182.226 57.052 183.216 58.636 183.216C59.986 183.216 61.102 182.406 61.624 181.362H61.66C61.66 181.362 61.606 181.668 61.606 182.082V183H63.244V177.24C63.244 174.936 61.93 173.676 59.644 173.676C58.366 173.676 56.98 174.144 56.242 174.756L56.944 176.034C57.682 175.512 58.6 175.152 59.5 175.152C60.634 175.152 61.498 175.656 61.498 177.15V177.33H61.03C59.14 177.33 55.594 177.654 55.594 180.516ZM57.34 180.372C57.34 178.698 59.752 178.59 61.048 178.59H61.498V178.932C61.498 180.282 60.58 181.83 59.05 181.83C57.916 181.83 57.34 181.092 57.34 180.372ZM67.8976 183H69.6256V175.386H72.8116V173.892H64.7296V175.386H67.8976V183ZM73.633 178.446C73.633 181.146 75.613 183.216 78.475 183.216C79.735 183.216 81.121 182.73 82.003 181.92L81.265 180.642C80.545 181.29 79.555 181.704 78.583 181.704C76.945 181.704 75.541 180.642 75.451 178.68H82.075C82.111 178.428 82.147 178.176 82.147 177.942C82.147 175.602 80.779 173.676 78.205 173.676C75.613 173.676 73.633 175.548 73.633 178.446ZM75.505 177.42C75.757 175.908 76.819 175.026 78.169 175.026C79.357 175.026 80.329 175.854 80.383 177.42H75.505ZM83.2565 183.09C85.9385 182.946 86.9825 180.822 86.9825 176.7V175.332H89.6645V183H91.4105V173.892H85.3085V176.7C85.3085 179.994 84.5885 181.326 83.2565 181.524V183.09ZM94.1078 183H97.6538C99.9578 183 101.002 181.83 101.002 180.12C101.002 178.05 99.5798 177.186 97.6898 177.186H95.8538V173.892H94.1078V183ZM95.8538 181.74V178.446H97.4198C98.6798 178.446 99.2198 179.13 99.2198 180.102C99.2198 181.056 98.6798 181.74 97.4198 181.74H95.8538ZM102.879 183H104.625V179.094H109.233V183H110.979V173.892H109.233V177.6H104.625V173.892H102.879V183ZM121.916 183H123.662V173.892H121.916V183ZM113.672 183H117.182C119.468 183 120.512 181.83 120.512 180.12C120.512 178.05 119.09 177.186 117.2 177.186H115.418V173.892H113.672V183ZM115.418 181.74V178.446H116.93C118.19 178.446 118.748 179.13 118.748 180.102C118.748 181.056 118.208 181.74 116.948 181.74H115.418ZM125.77 178.446C125.77 181.146 127.75 183.216 130.612 183.216C131.872 183.216 133.258 182.73 134.14 181.92L133.402 180.642C132.682 181.29 131.692 181.704 130.72 181.704C129.082 181.704 127.678 180.642 127.588 178.68H134.212C134.248 178.428 134.284 178.176 134.284 177.942C134.284 175.602 132.916 173.676 130.342 173.676C127.75 173.676 125.77 175.548 125.77 178.446ZM127.642 177.42C127.894 175.908 128.956 175.026 130.306 175.026C131.494 175.026 132.466 175.854 132.52 177.42H127.642ZM140.883 183H142.557L146.499 177.564C146.787 177.132 147.237 176.52 147.291 176.358H147.327C147.327 176.502 147.273 177.132 147.273 177.564V183H148.965V173.892H147.273L143.349 179.328C143.043 179.76 142.611 180.39 142.539 180.552H142.503C142.521 180.462 142.557 179.814 142.557 179.328V173.892H140.883V183ZM155.691 184.89L155.079 186.222C155.079 186.222 155.817 186.78 156.825 186.78C158.103 186.78 159.237 186.06 159.777 184.638L164.061 173.892H162.171L159.957 179.868C159.795 180.336 159.651 180.948 159.651 180.948H159.615C159.615 180.948 159.453 180.3 159.273 179.85L156.987 173.892H155.025L158.841 182.892L158.391 183.936C158.049 184.764 157.455 185.286 156.735 185.286C156.195 185.286 155.691 184.89 155.691 184.89ZM165.774 183H169.662C171.642 183 173.01 182.1 173.01 180.408C173.01 179.4 172.416 178.518 171.282 178.248V178.23C172.11 177.87 172.578 177.114 172.578 176.232C172.578 174.702 171.372 173.892 169.536 173.892H165.774V183ZM167.52 177.744V175.098H169.176C170.274 175.098 170.796 175.53 170.796 176.358C170.796 177.204 170.274 177.744 169.23 177.744H167.52ZM167.52 181.776V178.914H169.374C170.58 178.914 171.246 179.454 171.246 180.354C171.246 181.2 170.652 181.776 169.392 181.776H167.52ZM174.135 183.09C176.817 182.946 177.861 180.822 177.861 176.7V175.332H180.543V183H182.289V173.892H176.187V176.7C176.187 179.994 175.467 181.326 174.135 181.524V183.09ZM184.393 178.446C184.393 181.146 186.373 183.216 189.235 183.216C190.495 183.216 191.881 182.73 192.763 181.92L192.025 180.642C191.305 181.29 190.315 181.704 189.343 181.704C187.705 181.704 186.301 180.642 186.211 178.68H192.835C192.871 178.428 192.907 178.176 192.907 177.942C192.907 175.602 191.539 173.676 188.965 173.676C186.373 173.676 184.393 175.548 184.393 178.446ZM186.265 177.42C186.517 175.908 187.579 175.026 188.929 175.026C190.117 175.026 191.089 175.854 191.143 177.42H186.265ZM195.006 183H196.752V179.058H198.066L200.784 183H202.854L199.452 178.266V178.23L202.494 173.892H200.514L198.03 177.564H196.752V173.892H195.006V183ZM203.567 180.516C203.567 182.226 205.025 183.216 206.609 183.216C207.959 183.216 209.075 182.406 209.597 181.362H209.633C209.633 181.362 209.579 181.668 209.579 182.082V183H211.217V177.24C211.217 174.936 209.903 173.676 207.617 173.676C206.339 173.676 204.953 174.144 204.215 174.756L204.917 176.034C205.655 175.512 206.573 175.152 207.473 175.152C208.607 175.152 209.471 175.656 209.471 177.15V177.33H209.003C207.113 177.33 203.567 177.654 203.567 180.516ZM205.313 180.372C205.313 178.698 207.725 178.59 209.021 178.59H209.471V178.932C209.471 180.282 208.553 181.83 207.023 181.83C205.889 181.83 205.313 181.092 205.313 180.372ZM215.87 183H217.598V175.386H220.784V173.892H212.702V175.386H215.87V183ZM221.606 178.446C221.606 181.146 223.586 183.216 226.448 183.216C227.708 183.216 229.094 182.73 229.976 181.92L229.238 180.642C228.518 181.29 227.528 181.704 226.556 181.704C224.918 181.704 223.514 180.642 223.424 178.68H230.048C230.084 178.428 230.12 178.176 230.12 177.942C230.12 175.602 228.752 173.676 226.178 173.676C223.586 173.676 221.606 175.548 221.606 178.446ZM223.478 177.42C223.73 175.908 224.792 175.026 226.142 175.026C227.33 175.026 228.302 175.854 228.356 177.42H223.478ZM231.229 183.09C233.911 182.946 234.955 180.822 234.955 176.7V175.332H237.637V183H239.383V173.892H233.281V176.7C233.281 179.994 232.561 181.326 231.229 181.524V183.09ZM242.08 183H245.626C247.93 183 248.974 181.83 248.974 180.12C248.974 178.05 247.552 177.186 245.662 177.186H243.826V173.892H242.08V183ZM243.826 181.74V178.446H245.392C246.652 178.446 247.192 179.13 247.192 180.102C247.192 181.056 246.652 181.74 245.392 181.74H243.826ZM250.852 183H252.598V179.094H257.206V183H258.952V173.892H257.206V177.6H252.598V173.892H250.852V183ZM269.889 183H271.635V173.892H269.889V183ZM261.645 183H265.155C267.441 183 268.485 181.83 268.485 180.12C268.485 178.05 267.063 177.186 265.173 177.186H263.391V173.892H261.645V183ZM263.391 181.74V178.446H264.903C266.163 178.446 266.721 179.13 266.721 180.102C266.721 181.056 266.181 181.74 264.921 181.74H263.391ZM273.742 178.446C273.742 181.146 275.722 183.216 278.584 183.216C279.844 183.216 281.23 182.73 282.112 181.92L281.374 180.642C280.654 181.29 279.664 181.704 278.692 181.704C277.054 181.704 275.65 180.642 275.56 178.68H282.184C282.22 178.428 282.256 178.176 282.256 177.942C282.256 175.602 280.888 173.676 278.314 173.676C275.722 173.676 273.742 175.548 273.742 178.446ZM275.614 177.42C275.866 175.908 276.928 175.026 278.278 175.026C279.466 175.026 280.438 175.854 280.492 177.42H275.614ZM1.468 209.884C2.224 210.604 3.412 211.216 4.816 211.216C6.688 211.216 8.308 210.262 8.308 208.39C8.308 207.22 7.588 206.536 6.67 206.248V206.212C7.39 205.906 8.002 205.276 8.002 204.142C8.002 202.522 6.652 201.676 4.924 201.676C3.484 201.676 2.458 202.144 1.756 202.666L2.404 203.836C3.106 203.314 3.826 203.044 4.618 203.044C5.626 203.044 6.238 203.512 6.238 204.358C6.238 205.276 5.536 205.672 4.51 205.672H3.556V206.932H4.672C5.95 206.932 6.544 207.436 6.544 208.318C6.544 209.308 5.698 209.812 4.654 209.812C3.556 209.812 2.692 209.164 2.278 208.732L1.468 209.884ZM9.66236 208.516C9.66236 210.226 11.1204 211.216 12.7044 211.216C14.0544 211.216 15.1704 210.406 15.6924 209.362H15.7284C15.7284 209.362 15.6744 209.668 15.6744 210.082V211H17.3124V205.24C17.3124 202.936 15.9984 201.676 13.7124 201.676C12.4344 201.676 11.0484 202.144 10.3104 202.756L11.0124 204.034C11.7504 203.512 12.6684 203.152 13.5684 203.152C14.7024 203.152 15.5664 203.656 15.5664 205.15V205.33H15.0984C13.2084 205.33 9.66236 205.654 9.66236 208.516ZM11.4084 208.372C11.4084 206.698 13.8204 206.59 15.1164 206.59H15.5664V206.932C15.5664 208.282 14.6484 209.83 13.1184 209.83C11.9844 209.83 11.4084 209.092 11.4084 208.372ZM21.675 209.56C22.827 207.76 22.971 205.168 22.971 203.8V203.314H25.707V209.56H21.675ZM18.759 209.56V213.16H20.397V211H27.147V213.16H28.749V209.56H27.453V201.892H21.297V203.566C21.297 204.97 21.153 207.814 19.875 209.56H18.759ZM29.8245 208.516C29.8245 210.226 31.2825 211.216 32.8665 211.216C34.2165 211.216 35.3325 210.406 35.8545 209.362H35.8905C35.8905 209.362 35.8365 209.668 35.8365 210.082V211H37.4745V205.24C37.4745 202.936 36.1605 201.676 33.8745 201.676C32.5965 201.676 31.2105 202.144 30.4725 202.756L31.1745 204.034C31.9125 203.512 32.8305 203.152 33.7305 203.152C34.8645 203.152 35.7285 203.656 35.7285 205.15V205.33H35.2605C33.3705 205.33 29.8245 205.654 29.8245 208.516ZM31.5705 208.372C31.5705 206.698 33.9825 206.59 35.2785 206.59H35.7285V206.932C35.7285 208.282 34.8105 209.83 33.2805 209.83C32.1465 209.83 31.5705 209.092 31.5705 208.372ZM42.5391 207.832C43.4391 207.832 44.4291 207.526 45.0051 207.166H45.0411C45.0411 207.166 45.0231 207.454 45.0231 207.706V211H46.7691V201.892H45.0231V205.672C44.6451 205.942 43.9071 206.32 43.0071 206.32C41.5131 206.32 41.1891 205.51 41.1891 204.61V201.892H39.4791V204.862C39.4791 206.806 40.5951 207.832 42.5391 207.832ZM49.477 211H51.223V207.058H52.537L55.255 211H57.325L53.923 206.266V206.23L56.965 201.892H54.985L52.501 205.564H51.223V201.892H49.477V211ZM58.8813 211H60.5553L64.4973 205.564C64.7853 205.132 65.2353 204.52 65.2893 204.358H65.3253C65.3253 204.502 65.2713 205.132 65.2713 205.564V211H66.9633V201.892H65.2713L61.3473 207.328C61.0413 207.76 60.6093 208.39 60.5373 208.552H60.5013C60.5193 208.462 60.5553 207.814 60.5553 207.328V201.892H58.8813V211ZM74.1391 211H75.8851V203.386H80.3491V211H82.0951V201.892H74.1391V211ZM84.1974 206.428C84.1974 209.2 86.3934 211.216 89.1114 211.216C91.8114 211.216 94.0074 209.2 94.0074 206.428C94.0074 203.674 91.8114 201.676 89.0934 201.676C86.3934 201.676 84.1974 203.674 84.1974 206.428ZM85.9794 206.428C85.9794 204.538 87.3834 203.188 89.1114 203.188C90.8214 203.188 92.2434 204.538 92.2434 206.428C92.2434 208.336 90.8214 209.704 89.1114 209.704C87.3834 209.704 85.9794 208.336 85.9794 206.428ZM97.6652 209.56C98.8172 207.76 98.9612 205.168 98.9612 203.8V203.314H101.697V209.56H97.6652ZM94.7492 209.56V213.16H96.3872V211H103.137V213.16H104.739V209.56H103.443V201.892H97.2872V203.566C97.2872 204.97 97.1432 207.814 95.8652 209.56H94.7492ZM111.071 211H114.959C116.939 211 118.307 210.1 118.307 208.408C118.307 207.4 117.713 206.518 116.579 206.248V206.23C117.407 205.87 117.875 205.114 117.875 204.232C117.875 202.702 116.669 201.892 114.833 201.892H111.071V211ZM112.817 205.744V203.098H114.473C115.571 203.098 116.093 203.53 116.093 204.358C116.093 205.204 115.571 205.744 114.527 205.744H112.817ZM112.817 209.776V206.914H114.671C115.877 206.914 116.543 207.454 116.543 208.354C116.543 209.2 115.949 209.776 114.689 209.776H112.817ZM119.666 208.516C119.666 210.226 121.124 211.216 122.708 211.216C124.058 211.216 125.174 210.406 125.696 209.362H125.732C125.732 209.362 125.678 209.668 125.678 210.082V211H127.316V205.24C127.316 202.936 126.002 201.676 123.716 201.676C122.438 201.676 121.052 202.144 120.314 202.756L121.016 204.034C121.754 203.512 122.672 203.152 123.572 203.152C124.706 203.152 125.57 203.656 125.57 205.15V205.33H125.102C123.212 205.33 119.666 205.654 119.666 208.516ZM121.412 208.372C121.412 206.698 123.824 206.59 125.12 206.59H125.57V206.932C125.57 208.282 124.652 209.83 123.122 209.83C121.988 209.83 121.412 209.092 121.412 208.372ZM129.897 211H141.669V201.892H139.995V209.488H136.629V201.892H134.937V209.488H131.571V201.892H129.897V211ZM144.364 211H146.038L149.98 205.564C150.268 205.132 150.718 204.52 150.772 204.358H150.808C150.808 204.502 150.754 205.132 150.754 205.564V211H152.446V201.892H150.754L146.83 207.328C146.524 207.76 146.092 208.39 146.02 208.552H145.984C146.002 208.462 146.038 207.814 146.038 207.328V201.892H144.364V211ZM159.621 211H161.295L165.237 205.564C165.525 205.132 165.975 204.52 166.029 204.358H166.065C166.065 204.502 166.011 205.132 166.011 205.564V211H167.703V201.892H166.011L162.087 207.328C161.781 207.76 161.349 208.39 161.277 208.552H161.241C161.259 208.462 161.295 207.814 161.295 207.328V201.892H159.621V211ZM170.379 211H172.125V207.094H176.733V211H178.479V201.892H176.733V205.6H172.125V201.892H170.379V211ZM183.368 211H185.096V203.386H188.282V201.892H180.2V203.386H183.368V211ZM189.104 206.446C189.104 209.146 191.084 211.216 193.946 211.216C195.206 211.216 196.592 210.73 197.474 209.92L196.736 208.642C196.016 209.29 195.026 209.704 194.054 209.704C192.416 209.704 191.012 208.642 190.922 206.68H197.546C197.582 206.428 197.618 206.176 197.618 205.942C197.618 203.602 196.25 201.676 193.676 201.676C191.084 201.676 189.104 203.548 189.104 206.446ZM190.976 205.42C191.228 203.908 192.29 203.026 193.64 203.026C194.828 203.026 195.8 203.854 195.854 205.42H190.976ZM199.717 214.6H201.463V210.46C201.463 209.992 201.391 209.668 201.391 209.668H201.427C202.057 210.64 203.101 211.216 204.253 211.216C206.647 211.216 208.375 209.344 208.375 206.446C208.375 203.62 206.845 201.676 204.379 201.676C203.047 201.676 201.895 202.288 201.319 203.386H201.283C201.283 203.386 201.337 203.08 201.337 202.702V201.892H199.717V214.6ZM201.409 206.482C201.409 204.178 202.669 203.206 204.037 203.206C205.549 203.206 206.611 204.484 206.611 206.464C206.611 208.534 205.423 209.704 203.983 209.704C202.309 209.704 201.409 208.102 201.409 206.482ZM209.934 206.446C209.934 209.146 211.914 211.216 214.776 211.216C216.036 211.216 217.422 210.73 218.304 209.92L217.566 208.642C216.846 209.29 215.856 209.704 214.884 209.704C213.246 209.704 211.842 208.642 211.752 206.68H218.376C218.412 206.428 218.448 206.176 218.448 205.942C218.448 203.602 217.08 201.676 214.506 201.676C211.914 201.676 209.934 203.548 209.934 206.446ZM211.806 205.42C212.058 203.908 213.12 203.026 214.47 203.026C215.658 203.026 216.63 203.854 216.684 205.42H211.806ZM219.953 206.446C219.953 209.182 221.951 211.216 224.831 211.216C226.253 211.216 227.639 210.64 228.467 209.758L227.765 208.48C227.063 209.218 225.965 209.704 224.957 209.704C223.067 209.704 221.735 208.282 221.735 206.428C221.735 204.574 223.067 203.188 224.903 203.188C225.857 203.188 226.811 203.62 227.423 204.232L228.251 203.008C227.387 202.09 226.037 201.676 224.831 201.676C221.969 201.676 219.953 203.746 219.953 206.446ZM238.6 211H240.346V201.892H238.6V211ZM230.356 211H233.866C236.152 211 237.196 209.83 237.196 208.12C237.196 206.05 235.774 205.186 233.884 205.186H232.102V201.892H230.356V211ZM232.102 209.74V206.446H233.614C234.874 206.446 235.432 207.13 235.432 208.102C235.432 209.056 234.892 209.74 233.632 209.74H232.102Z" fill="#505257"/>
</svg>
