<svg width="1110" height="298" viewBox="0 0 1110 298" fill="none" xmlns="http://www.w3.org/2000/svg">
<path d="M601 4.40122C601 2.86065 601 2.09037 601.3 1.50195C601.563 0.984356 601.984 0.563541 602.501 0.299816C603.089 0 603.859 0 605.398 0H1105.6C1107.14 0 1107.91 0 1108.5 0.299816C1109.02 0.563541 1109.44 0.984356 1109.7 1.50195C1110 2.09037 1110 2.86066 1110 4.40123V293.599C1110 295.139 1110 295.91 1109.7 296.498C1109.44 297.016 1109.02 297.436 1108.5 297.7C1107.91 298 1107.14 298 1105.6 298H605.398C603.859 298 603.089 298 602.501 297.7C601.984 297.436 601.563 297.016 601.3 296.498C601 295.91 601 295.139 601 293.599V4.40122Z" fill="#F3F3F3"/>
<path d="M748 58.2049C748 57.0831 748 56.5222 748.189 56.0937C748.355 55.7168 748.62 55.4104 748.947 55.2183C749.317 55 749.803 55 750.774 55H1066.23C1067.2 55 1067.68 55 1068.05 55.2183C1068.38 55.4104 1068.64 55.7168 1068.81 56.0937C1069 56.5222 1069 57.0831 1069 58.2049V268.795C1069 269.917 1069 270.478 1068.81 270.906C1068.64 271.283 1068.38 271.59 1068.05 271.782C1067.68 272 1067.2 272 1066.23 272H750.774C749.803 272 749.317 272 748.947 271.782C748.62 271.59 748.355 271.283 748.189 270.906C748 270.478 748 269.917 748 268.795V58.2049Z" fill="white"/>
<path d="M761 216.321C761 216.208 761 216.152 761.023 216.109C761.042 216.072 761.074 216.041 761.113 216.022C761.157 216 761.215 216 761.331 216H785.669C785.785 216 785.843 216 785.887 216.022C785.926 216.041 785.958 216.072 785.977 216.109C786 216.152 786 216.208 786 216.321V229.679C786 229.792 786 229.848 785.977 229.891C785.958 229.928 785.926 229.959 785.887 229.978C785.843 230 785.785 230 785.669 230H761.331C761.215 230 761.157 230 761.113 229.978C761.074 229.959 761.042 229.928 761.023 229.891C761 229.848 761 229.792 761 229.679V216.321Z" fill="#F3F3F3"/>
<path d="M791 202.642C791 202.417 791 202.305 791.023 202.219C791.042 202.143 791.074 202.082 791.113 202.044C791.157 202 791.215 202 791.331 202H815.669C815.785 202 815.843 202 815.887 202.044C815.926 202.082 815.958 202.143 815.977 202.219C816 202.305 816 202.417 816 202.642V229.358C816 229.583 816 229.695 815.977 229.781C815.958 229.857 815.926 229.918 815.887 229.956C815.843 230 815.785 230 815.669 230H791.331C791.215 230 791.157 230 791.113 229.956C791.074 229.918 791.042 229.857 791.023 229.781C791 229.695 791 229.583 791 229.358V202.642Z" fill="#F3F3F3"/>
<path d="M851 175.283C851 174.834 851 174.609 851.023 174.438C851.042 174.287 851.074 174.164 851.113 174.087C851.157 174 851.215 174 851.331 174H875.669C875.785 174 875.843 174 875.887 174.087C875.926 174.164 875.958 174.287 875.977 174.438C876 174.609 876 174.834 876 175.283V228.717C876 229.166 876 229.391 875.977 229.562C875.958 229.713 875.926 229.836 875.887 229.913C875.843 230 875.785 230 875.669 230H851.331C851.215 230 851.157 230 851.113 229.913C851.074 229.836 851.042 229.713 851.023 229.562C851 229.391 851 229.166 851 228.717V175.283Z" fill="#F3F3F3"/>
<path d="M821 188.962C821 188.625 821 188.457 821.023 188.328C821.042 188.215 821.074 188.123 821.113 188.066C821.157 188 821.215 188 821.331 188H845.669C845.785 188 845.843 188 845.887 188.066C845.926 188.123 845.958 188.215 845.977 188.328C846 188.457 846 188.625 846 188.962V229.038C846 229.375 846 229.543 845.977 229.672C845.958 229.785 845.926 229.877 845.887 229.934C845.843 230 845.785 230 845.669 230H821.331C821.215 230 821.157 230 821.113 229.934C821.074 229.877 821.042 229.785 821.023 229.672C821 229.543 821 229.375 821 229.038V188.962Z" fill="#F3F3F3"/>
<path d="M881 161.604C881 161.042 881 160.762 881.023 160.547C881.042 160.359 881.074 160.205 881.113 160.109C881.157 160 881.215 160 881.331 160H905.669C905.785 160 905.843 160 905.887 160.109C905.926 160.205 905.958 160.359 905.977 160.547C906 160.762 906 161.042 906 161.604V228.396C906 228.958 906 229.238 905.977 229.453C905.958 229.641 905.926 229.795 905.887 229.891C905.843 230 905.785 230 905.669 230H881.331C881.215 230 881.157 230 881.113 229.891C881.074 229.795 881.042 229.641 881.023 229.453C881 229.238 881 228.958 881 228.396V161.604Z" fill="#F3F3F3"/>
<path d="M911 147.925C911 147.251 911 146.914 911.023 146.657C911.042 146.43 911.074 146.246 911.113 146.131C911.157 146 911.215 146 911.331 146H935.669C935.785 146 935.843 146 935.887 146.131C935.926 146.246 935.958 146.43 935.977 146.657C936 146.914 936 147.251 936 147.925V228.075C936 228.749 936 229.086 935.977 229.343C935.958 229.57 935.926 229.754 935.887 229.869C935.843 230 935.785 230 935.669 230H911.331C911.215 230 911.157 230 911.113 229.869C911.074 229.754 911.042 229.57 911.023 229.343C911 229.086 911 228.749 911 228.075V147.925Z" fill="#F3F3F3"/>
<path d="M941 134.245C941 133.459 941 133.066 941.023 132.766C941.042 132.502 941.074 132.287 941.113 132.153C941.157 132 941.215 132 941.331 132H965.669C965.785 132 965.843 132 965.887 132.153C965.926 132.287 965.958 132.502 965.977 132.766C966 133.066 966 133.459 966 134.245V227.755C966 228.541 966 228.934 965.977 229.234C965.958 229.498 965.926 229.713 965.887 229.847C965.843 230 965.785 230 965.669 230H941.331C941.215 230 941.157 230 941.113 229.847C941.074 229.713 941.042 229.498 941.023 229.234C941 228.934 941 228.541 941 227.755V134.245Z" fill="#F3F3F3"/>
<path d="M971 120.566C971 119.668 971 119.219 971.023 118.876C971.042 118.574 971.074 118.329 971.113 118.175C971.157 118 971.215 118 971.331 118H995.669C995.785 118 995.843 118 995.887 118.175C995.926 118.329 995.958 118.574 995.977 118.876C996 119.219 996 119.668 996 120.566V227.434C996 228.332 996 228.781 995.977 229.124C995.958 229.426 995.926 229.671 995.887 229.825C995.843 230 995.785 230 995.669 230H971.331C971.215 230 971.157 230 971.113 229.825C971.074 229.671 971.042 229.426 971.023 229.124C971 228.781 971 228.332 971 227.434V120.566Z" fill="#F3F3F3"/>
<path d="M1001 106.887C1001 105.876 1001 105.371 1001.02 104.985C1001.04 104.646 1001.07 104.37 1001.11 104.197C1001.16 104 1001.22 104 1001.33 104H1025.67C1025.78 104 1025.84 104 1025.89 104.197C1025.93 104.37 1025.96 104.646 1025.98 104.985C1026 105.371 1026 105.876 1026 106.887V227.113C1026 228.124 1026 228.629 1025.98 229.015C1025.96 229.354 1025.93 229.63 1025.89 229.803C1025.84 230 1025.78 230 1025.67 230H1001.33C1001.22 230 1001.16 230 1001.11 229.803C1001.07 229.63 1001.04 229.354 1001.02 229.015C1001 228.629 1001 228.124 1001 227.113V106.887Z" fill="#F3F3F3"/>
<path d="M1031 93.2076C1031 92.0849 1031 91.5235 1031.02 91.0946C1031.04 90.7174 1031.07 90.4107 1031.11 90.2185C1031.16 90 1031.22 90 1031.33 90H1055.67C1055.78 90 1055.84 90 1055.89 90.2185C1055.93 90.4107 1055.96 90.7174 1055.98 91.0946C1056 91.5235 1056 92.0849 1056 93.2076V226.792C1056 227.915 1056 228.477 1055.98 228.905C1055.96 229.283 1055.93 229.589 1055.89 229.781C1055.84 230 1055.78 230 1055.67 230H1031.33C1031.22 230 1031.16 230 1031.11 229.781C1031.07 229.589 1031.04 229.283 1031.02 228.905C1031 228.477 1031 227.915 1031 226.792V93.2076Z" fill="#F04B5D"/>
<path d="M1039 79.5L1041.67 82L1047 77" stroke="#222224" stroke-width="2"/>
<path d="M748 21.8444C748 20.8488 748 20.351 748.101 19.9707C748.19 19.6362 748.332 19.3642 748.507 19.1938C748.705 19 748.965 19 749.485 19H775.515C776.035 19 776.295 19 776.493 19.1938C776.668 19.3642 776.81 19.6362 776.899 19.9707C777 20.351 777 20.8488 777 21.8444V24.1556C777 25.1512 777 25.649 776.899 26.0293C776.81 26.3638 776.668 26.6358 776.493 26.8062C776.295 27 776.035 27 775.515 27H749.485C748.965 27 748.705 27 748.507 26.8062C748.332 26.6358 748.19 26.3638 748.101 26.0293C748 25.649 748 25.1512 748 24.1556V21.8444Z" fill="#424754"/>
<path d="M771 238.873C771 238.567 771 238.415 771.01 238.298C771.02 238.195 771.034 238.112 771.052 238.059C771.073 238 771.1 238 771.154 238H776.846C776.9 238 776.927 238 776.948 238.059C776.966 238.112 776.98 238.195 776.99 238.298C777 238.415 777 238.567 777 238.873V240.127C777 240.433 777 240.585 776.99 240.702C776.98 240.805 776.966 240.888 776.948 240.941C776.927 241 776.9 241 776.846 241H771.154C771.1 241 771.073 241 771.052 240.941C771.034 240.888 771.02 240.805 771.01 240.702C771 240.585 771 240.433 771 240.127V238.873Z" fill="#424754"/>
<path d="M801 238.873C801 238.567 801 238.415 801.01 238.298C801.02 238.195 801.034 238.112 801.052 238.059C801.073 238 801.1 238 801.154 238H806.846C806.9 238 806.927 238 806.948 238.059C806.966 238.112 806.98 238.195 806.99 238.298C807 238.415 807 238.567 807 238.873V240.127C807 240.433 807 240.585 806.99 240.702C806.98 240.805 806.966 240.888 806.948 240.941C806.927 241 806.9 241 806.846 241H801.154C801.1 241 801.073 241 801.052 240.941C801.034 240.888 801.02 240.805 801.01 240.702C801 240.585 801 240.433 801 240.127V238.873Z" fill="#424754"/>
<path d="M831 238.873C831 238.567 831 238.415 831.01 238.298C831.02 238.195 831.034 238.112 831.052 238.059C831.073 238 831.1 238 831.154 238H836.846C836.9 238 836.927 238 836.948 238.059C836.966 238.112 836.98 238.195 836.99 238.298C837 238.415 837 238.567 837 238.873V240.127C837 240.433 837 240.585 836.99 240.702C836.98 240.805 836.966 240.888 836.948 240.941C836.927 241 836.9 241 836.846 241H831.154C831.1 241 831.073 241 831.052 240.941C831.034 240.888 831.02 240.805 831.01 240.702C831 240.585 831 240.433 831 240.127V238.873Z" fill="#424754"/>
<path d="M861 238.873C861 238.567 861 238.415 861.01 238.298C861.02 238.195 861.034 238.112 861.052 238.059C861.073 238 861.1 238 861.154 238H866.846C866.9 238 866.927 238 866.948 238.059C866.966 238.112 866.98 238.195 866.99 238.298C867 238.415 867 238.567 867 238.873V240.127C867 240.433 867 240.585 866.99 240.702C866.98 240.805 866.966 240.888 866.948 240.941C866.927 241 866.9 241 866.846 241H861.154C861.1 241 861.073 241 861.052 240.941C861.034 240.888 861.02 240.805 861.01 240.702C861 240.585 861 240.433 861 240.127V238.873Z" fill="#424754"/>
<path d="M891 238.873C891 238.567 891 238.415 891.01 238.298C891.02 238.195 891.034 238.112 891.052 238.059C891.073 238 891.1 238 891.154 238H896.846C896.9 238 896.927 238 896.948 238.059C896.966 238.112 896.98 238.195 896.99 238.298C897 238.415 897 238.567 897 238.873V240.127C897 240.433 897 240.585 896.99 240.702C896.98 240.805 896.966 240.888 896.948 240.941C896.927 241 896.9 241 896.846 241H891.154C891.1 241 891.073 241 891.052 240.941C891.034 240.888 891.02 240.805 891.01 240.702C891 240.585 891 240.433 891 240.127V238.873Z" fill="#424754"/>
<path d="M921 238.873C921 238.567 921 238.415 921.01 238.298C921.02 238.195 921.034 238.112 921.052 238.059C921.073 238 921.1 238 921.154 238H926.846C926.9 238 926.927 238 926.948 238.059C926.966 238.112 926.98 238.195 926.99 238.298C927 238.415 927 238.567 927 238.873V240.127C927 240.433 927 240.585 926.99 240.702C926.98 240.805 926.966 240.888 926.948 240.941C926.927 241 926.9 241 926.846 241H921.154C921.1 241 921.073 241 921.052 240.941C921.034 240.888 921.02 240.805 921.01 240.702C921 240.585 921 240.433 921 240.127V238.873Z" fill="#424754"/>
<path d="M951 238.873C951 238.567 951 238.415 951.01 238.298C951.02 238.195 951.034 238.112 951.052 238.059C951.073 238 951.1 238 951.154 238H956.846C956.9 238 956.927 238 956.948 238.059C956.966 238.112 956.98 238.195 956.99 238.298C957 238.415 957 238.567 957 238.873V240.127C957 240.433 957 240.585 956.99 240.702C956.98 240.805 956.966 240.888 956.948 240.941C956.927 241 956.9 241 956.846 241H951.154C951.1 241 951.073 241 951.052 240.941C951.034 240.888 951.02 240.805 951.01 240.702C951 240.585 951 240.433 951 240.127V238.873Z" fill="#424754"/>
<path d="M981 238.873C981 238.567 981 238.415 981.01 238.298C981.02 238.195 981.034 238.112 981.052 238.059C981.073 238 981.1 238 981.154 238H986.846C986.9 238 986.927 238 986.948 238.059C986.966 238.112 986.98 238.195 986.99 238.298C987 238.415 987 238.567 987 238.873V240.127C987 240.433 987 240.585 986.99 240.702C986.98 240.805 986.966 240.888 986.948 240.941C986.927 241 986.9 241 986.846 241H981.154C981.1 241 981.073 241 981.052 240.941C981.034 240.888 981.02 240.805 981.01 240.702C981 240.585 981 240.433 981 240.127V238.873Z" fill="#424754"/>
<path d="M1011 238.873C1011 238.567 1011 238.415 1011.01 238.298C1011.02 238.195 1011.03 238.112 1011.05 238.059C1011.07 238 1011.1 238 1011.15 238H1016.85C1016.9 238 1016.93 238 1016.95 238.059C1016.97 238.112 1016.98 238.195 1016.99 238.298C1017 238.415 1017 238.567 1017 238.873V240.127C1017 240.433 1017 240.585 1016.99 240.702C1016.98 240.805 1016.97 240.888 1016.95 240.941C1016.93 241 1016.9 241 1016.85 241H1011.15C1011.1 241 1011.07 241 1011.05 240.941C1011.03 240.888 1011.02 240.805 1011.01 240.702C1011 240.585 1011 240.433 1011 240.127V238.873Z" fill="#424754"/>
<path d="M1041 238.873C1041 238.567 1041 238.415 1041.01 238.298C1041.02 238.195 1041.03 238.112 1041.05 238.059C1041.07 238 1041.1 238 1041.15 238H1046.85C1046.9 238 1046.93 238 1046.95 238.059C1046.97 238.112 1046.98 238.195 1046.99 238.298C1047 238.415 1047 238.567 1047 238.873V240.127C1047 240.433 1047 240.585 1046.99 240.702C1046.98 240.805 1046.97 240.888 1046.95 240.941C1046.93 241 1046.9 241 1046.85 241H1041.15C1041.1 241 1041.07 241 1041.05 240.941C1041.03 240.888 1041.02 240.805 1041.01 240.702C1041 240.585 1041 240.433 1041 240.127V238.873Z" fill="#424754"/>
<path d="M761 256.455C761 255.945 761 255.691 761.1 255.496C761.187 255.325 761.327 255.186 761.5 255.099C761.695 255 761.951 255 762.464 255H990.536C991.049 255 991.305 255 991.5 255.099C991.673 255.186 991.813 255.325 991.9 255.496C992 255.691 992 255.945 992 256.455V258.545C992 259.055 992 259.309 991.9 259.504C991.813 259.675 991.673 259.814 991.5 259.901C991.305 260 991.049 260 990.536 260H762.464C761.951 260 761.695 260 761.5 259.901C761.327 259.814 761.187 259.675 761.1 259.504C761 259.309 761 259.055 761 258.545V256.455Z" fill="#97999D"/>
<path d="M601 4.40122C601 2.86065 601 2.09037 601.299 1.50195C601.562 0.984356 601.981 0.563541 602.497 0.299816C603.084 0 603.852 0 605.388 0H713.612C715.148 0 715.916 0 716.503 0.299816C717.019 0.563541 717.438 0.984356 717.701 1.50195C718 2.09037 718 2.86066 718 4.40123V293.599C718 295.139 718 295.91 717.701 296.498C717.438 297.016 717.019 297.436 716.503 297.7C715.916 298 715.148 298 713.612 298H605.388C603.852 298 603.084 298 602.497 297.7C601.981 297.436 601.562 297.016 601.299 296.498C601 295.91 601 295.139 601 293.599V4.40122Z" fill="#FFEAEC"/>
<path d="M601 60.4979C601 59.9736 601 59.7114 601.1 59.5112C601.188 59.335 601.328 59.1918 601.501 59.102C601.697 59 601.954 59 602.468 59H716.532C717.046 59 717.303 59 717.499 59.102C717.672 59.1918 717.812 59.335 717.9 59.5112C718 59.7114 718 59.9736 718 60.4979V79.5021C718 80.0264 718 80.2886 717.9 80.4888C717.812 80.665 717.672 80.8082 717.499 80.898C717.303 81 717.046 81 716.532 81H602.468C601.954 81 601.697 81 601.501 80.898C601.328 80.8082 601.188 80.665 601.1 80.4888C601 80.2886 601 80.0264 601 79.5021V60.4979Z" fill="#FFEAEC"/>
<path d="M631 68.4545C631 67.9454 631 67.6908 631.099 67.4964C631.187 67.3253 631.326 67.1862 631.498 67.0991C631.693 67 631.948 67 632.459 67H686.541C687.052 67 687.307 67 687.502 67.0991C687.674 67.1862 687.813 67.3253 687.901 67.4964C688 67.6908 688 67.9454 688 68.4545V70.5455C688 71.0546 688 71.3092 687.901 71.5036C687.813 71.6747 687.674 71.8138 687.502 71.9009C687.307 72 687.052 72 686.541 72H632.459C631.948 72 631.693 72 631.498 71.9009C631.326 71.8138 631.187 71.6747 631.099 71.5036C631 71.3092 631 71.0546 631 70.5455V68.4545Z" fill="#F04B5D"/>
<path d="M656 20.4545C656 19.9454 656 19.6908 656.099 19.4964C656.185 19.3253 656.324 19.1862 656.494 19.0991C656.688 19 656.941 19 657.448 19H697.552C698.059 19 698.312 19 698.506 19.0991C698.676 19.1862 698.815 19.3253 698.901 19.4964C699 19.6908 699 19.9454 699 20.4545V22.5455C699 23.0546 699 23.3092 698.901 23.5036C698.815 23.6747 698.676 23.8138 698.506 23.9009C698.312 24 698.059 24 697.552 24H657.448C656.941 24 656.688 24 656.494 23.9009C656.324 23.8138 656.185 23.6747 656.099 23.5036C656 23.3092 656 23.0546 656 22.5455V20.4545Z" fill="#424754"/>
<path d="M631 15.4452C631 14.9393 631 14.6864 631.102 14.4932C631.191 14.3232 631.334 14.185 631.51 14.0984C631.709 14 631.971 14 632.493 14H643.507C644.029 14 644.291 14 644.49 14.0984C644.666 14.185 644.809 14.3232 644.898 14.4932C645 14.6864 645 14.9393 645 15.4452V26.5548C645 27.0607 645 27.3136 644.898 27.5068C644.809 27.6768 644.666 27.815 644.49 27.9016C644.291 28 644.029 28 643.507 28H632.493C631.971 28 631.709 28 631.51 27.9016C631.334 27.815 631.191 27.6768 631.102 27.5068C631 27.3136 631 27.0607 631 26.5548V15.4452Z" fill="#424754"/>
<path d="M631 90.4545C631 89.9454 631 89.6908 631.099 89.4964C631.187 89.3253 631.326 89.1862 631.498 89.0991C631.693 89 631.948 89 632.459 89H686.541C687.052 89 687.307 89 687.502 89.0991C687.674 89.1862 687.813 89.3253 687.901 89.4964C688 89.6908 688 89.9454 688 90.4545V92.5455C688 93.0546 688 93.3092 687.901 93.5036C687.813 93.6747 687.674 93.8138 687.502 93.9009C687.307 94 687.052 94 686.541 94H632.459C631.948 94 631.693 94 631.498 93.9009C631.326 93.8138 631.187 93.6747 631.099 93.5036C631 93.3092 631 93.0546 631 92.5455V90.4545Z" fill="#424754"/>
<path d="M631 111.455C631 110.945 631 110.691 631.099 110.496C631.187 110.325 631.326 110.186 631.498 110.099C631.693 110 631.948 110 632.459 110H686.541C687.052 110 687.307 110 687.502 110.099C687.674 110.186 687.813 110.325 687.901 110.496C688 110.691 688 110.945 688 111.455V113.545C688 114.055 688 114.309 687.901 114.504C687.813 114.675 687.674 114.814 687.502 114.901C687.307 115 687.052 115 686.541 115H632.459C631.948 115 631.693 115 631.498 114.901C631.326 114.814 631.187 114.675 631.099 114.504C631 114.309 631 114.055 631 113.545V111.455Z" fill="#424754"/>
<path d="M631 133.455C631 132.945 631 132.691 631.099 132.496C631.187 132.325 631.326 132.186 631.498 132.099C631.693 132 631.948 132 632.459 132H686.541C687.052 132 687.307 132 687.502 132.099C687.674 132.186 687.813 132.325 687.901 132.496C688 132.691 688 132.945 688 133.455V135.545C688 136.055 688 136.309 687.901 136.504C687.813 136.675 687.674 136.814 687.502 136.901C687.307 137 687.052 137 686.541 137H632.459C631.948 137 631.693 137 631.498 136.901C631.326 136.814 631.187 136.675 631.099 136.504C631 136.309 631 136.055 631 135.545V133.455Z" fill="#424754"/>
<path d="M631 154.745C631 154.134 631 153.829 631.099 153.596C631.187 153.39 631.326 153.223 631.498 153.119C631.693 153 631.948 153 632.459 153H686.541C687.052 153 687.307 153 687.502 153.119C687.674 153.223 687.813 153.39 687.901 153.596C688 153.829 688 154.134 688 154.745V157.255C688 157.866 688 158.171 687.901 158.404C687.813 158.61 687.674 158.777 687.502 158.881C687.307 159 687.052 159 686.541 159H632.459C631.948 159 631.693 159 631.498 158.881C631.326 158.777 631.187 158.61 631.099 158.404C631 158.171 631 157.866 631 157.255V154.745Z" fill="#424754"/>
<path d="M2.296 51.968C2.296 59.528 7.984 65.432 15.76 65.432C23.536 65.432 29.224 59.528 29.224 51.968C29.224 44.588 23.536 38.828 15.76 38.828C7.984 38.828 2.296 44.588 2.296 51.968ZM8.812 51.968C8.812 47.756 11.908 44.588 15.76 44.588C19.612 44.588 22.708 47.756 22.708 51.968C22.708 56.36 19.612 59.672 15.76 59.672C11.908 59.672 8.812 56.36 8.812 51.968ZM32.3732 65H38.6012V51.68H44.1092V65H50.3372V46.46H32.3732V65ZM54.5216 72.2H60.7496V65.252C60.7496 64.316 60.6776 63.668 60.6776 63.668H60.7496C62.0816 64.82 63.7376 65.432 65.4656 65.432C70.3976 65.432 74.1056 61.616 74.1056 55.748C74.1056 49.988 70.7936 46.028 65.7536 46.028C63.5216 46.028 61.3976 46.892 60.1376 48.584H60.0656C60.0656 48.584 60.1376 48.008 60.1376 47.396V46.46H54.5216V72.2ZM60.5696 55.856C60.5696 52.652 62.3336 51.284 64.2056 51.284C66.3656 51.284 67.8416 53.084 67.8416 55.856C67.8416 58.7 66.1496 60.284 64.2056 60.284C61.7576 60.284 60.5696 58.088 60.5696 55.856ZM76.2588 55.712C76.2588 60.644 79.8228 65.432 86.4468 65.432C89.2908 65.432 92.3508 64.46 94.3668 62.732L92.0628 58.376C90.5508 59.384 88.7868 60.248 86.9508 60.248C84.9708 60.248 83.0988 59.204 82.6308 56.936H94.3308C94.4028 56.288 94.4748 55.64 94.4748 54.992C94.4748 49.844 91.3788 46.028 85.9068 46.028C79.9308 46.028 76.2588 50.276 76.2588 55.712ZM82.7748 53.372C83.0988 51.896 83.9628 50.6 85.7628 50.6C87.3468 50.6 88.3188 51.86 88.3188 53.372H82.7748ZM104.428 60.068C105.724 57.584 106.084 54.884 106.084 52.076V51.392H109.288V60.068H104.428ZM96.004 60.068V69.32H101.764V65H112.636V69.32H118.18V60.068H115.516V46.46H100.216V50.924C100.216 54.668 99.532 57.98 98.308 60.068H96.004ZM119.782 55.712C119.782 60.644 123.346 65.432 129.97 65.432C132.814 65.432 135.874 64.46 137.89 62.732L135.586 58.376C134.074 59.384 132.31 60.248 130.474 60.248C128.494 60.248 126.622 59.204 126.154 56.936H137.854C137.926 56.288 137.998 55.64 137.998 54.992C137.998 49.844 134.902 46.028 129.43 46.028C123.454 46.028 119.782 50.276 119.782 55.712ZM126.298 53.372C126.622 51.896 127.486 50.6 129.286 50.6C130.87 50.6 131.842 51.86 131.842 53.372H126.298ZM139.743 65.18C146.943 65.18 149.103 59.996 149.103 52.436V51.392H152.199V65H158.427V46.46H143.235V52.4C143.235 58.772 141.399 59.528 139.743 59.744V65.18ZM162.592 65H168.64L173.788 56.864C174.076 56.36 174.472 55.784 174.796 55.028H174.868C174.796 55.748 174.796 56.468 174.796 56.9V65H180.664V46.46H174.616L169.468 54.632C169.144 55.172 168.784 55.712 168.46 56.468H168.388C168.424 56 168.46 55.28 168.46 54.632V46.46H162.592V65ZM184.054 65H189.994L190.426 56.468C190.498 55.028 190.39 53.3 190.39 53.3H190.462C190.462 53.3 191.146 54.848 191.542 56.036L193.99 62.516H199.03L201.478 56.036C201.946 54.884 202.486 53.3 202.486 53.3H202.558C202.558 53.3 202.486 55.028 202.522 56.468L202.954 65H208.93L207.166 46.46H200.002L197.266 54.596C196.942 55.532 196.51 56.756 196.51 56.756H196.474C196.474 56.756 196.078 55.532 195.754 54.596L193.018 46.46H185.818L184.054 65ZM221.303 65H231.419C235.091 65 238.475 63.56 238.475 59.492C238.475 57.872 237.683 56.036 235.559 55.388V55.352C236.963 54.524 237.719 52.868 237.719 51.32C237.719 48.116 235.127 46.46 231.419 46.46H221.303V65ZM227.531 53.768V50.312H229.799C231.023 50.312 231.527 51.068 231.527 51.932C231.527 52.904 231.023 53.768 229.871 53.768H227.531ZM227.531 61.112V57.404H230.303C231.635 57.404 232.247 58.268 232.247 59.276C232.247 60.212 231.599 61.112 230.267 61.112H227.531ZM240.361 59.78C240.361 62.984 242.845 65.432 246.409 65.432C248.533 65.432 250.693 64.46 251.917 62.732H251.989C251.989 62.732 251.917 63.272 251.917 63.884V65H257.605V53.588C257.605 48.872 254.437 46.028 249.325 46.028C246.301 46.028 243.061 47.216 241.477 48.44L243.637 52.832C245.113 51.86 246.949 51.068 248.749 51.068C250.117 51.068 251.377 51.572 251.377 53.12V53.444H250.837C246.265 53.444 240.361 54.812 240.361 59.78ZM246.517 59.204C246.517 57.512 248.965 57.008 250.873 57.008H251.449V57.512C251.449 59.024 250.081 60.788 248.281 60.788C247.129 60.788 246.517 60.068 246.517 59.204ZM261.557 65H287.513V46.46H281.645V59.78H277.469V46.46H271.601V59.78H267.425V46.46H261.557V65ZM3.268 108.692L1.288 113.264C1.288 113.264 3.16 114.56 5.608 114.56C8.56 114.56 11.8 113.12 13.348 108.98L20.944 88.46H14.14L11.8 97.1C11.548 98.108 11.188 99.872 11.188 99.872H11.116C11.116 99.872 10.756 98 10.432 96.992L7.696 88.46H0.64L8.524 106.64L8.164 107.504C7.516 109.088 6.184 109.376 5.176 109.376C4.276 109.376 3.268 108.692 3.268 108.692ZM23.2677 114.2H29.4957V107.252C29.4957 106.316 29.4237 105.668 29.4237 105.668H29.4957C30.8277 106.82 32.4837 107.432 34.2117 107.432C39.1437 107.432 42.8517 103.616 42.8517 97.748C42.8517 91.988 39.5397 88.028 34.4997 88.028C32.2677 88.028 30.1437 88.892 28.8837 90.584H28.8117C28.8117 90.584 28.8837 90.008 28.8837 89.396V88.46H23.2677V114.2ZM29.3157 97.856C29.3157 94.652 31.0797 93.284 32.9517 93.284C35.1117 93.284 36.5877 95.084 36.5877 97.856C36.5877 100.7 34.8957 102.284 32.9517 102.284C30.5037 102.284 29.3157 100.088 29.3157 97.856ZM45.0049 97.784C45.0049 103.58 49.6849 107.432 55.5169 107.432C61.3489 107.432 66.0289 103.58 66.0289 97.784C66.0289 91.952 61.3489 88.028 55.4809 88.028C49.6849 88.028 45.0049 91.952 45.0049 97.784ZM51.3049 97.784C51.3049 94.976 53.2489 93.212 55.5169 93.212C57.7849 93.212 59.7289 94.976 59.7289 97.784C59.7289 100.556 57.7849 102.248 55.5169 102.248C53.2489 102.248 51.3049 100.556 51.3049 97.784ZM69.1466 107H79.2626C82.9346 107 86.3186 105.56 86.3186 101.492C86.3186 99.872 85.5266 98.036 83.4026 97.388V97.352C84.8066 96.524 85.5626 94.868 85.5626 93.32C85.5626 90.116 82.9706 88.46 79.2626 88.46H69.1466V107ZM75.3746 95.768V92.312H77.6426C78.8666 92.312 79.3706 93.068 79.3706 93.932C79.3706 94.904 78.8666 95.768 77.7146 95.768H75.3746ZM75.3746 103.112V99.404H78.1466C79.4786 99.404 80.0906 100.268 80.0906 101.276C80.0906 102.212 79.4426 103.112 78.1106 103.112H75.3746ZM88.4932 97.712C88.4932 102.644 92.0572 107.432 98.6812 107.432C101.525 107.432 104.585 106.46 106.601 104.732L104.297 100.376C102.785 101.384 101.021 102.248 99.1852 102.248C97.2052 102.248 95.3332 101.204 94.8652 98.936H106.565C106.637 98.288 106.709 97.64 106.709 96.992C106.709 91.844 103.613 88.028 98.1412 88.028C92.1652 88.028 88.4932 92.276 88.4932 97.712ZM95.0092 95.372C95.3332 93.896 96.1972 92.6 97.9972 92.6C99.5812 92.6 100.553 93.86 100.553 95.372H95.0092ZM109.963 107H116.191V100.232H121.915V107H128.143V88.46H121.915V95.012H116.191V88.46H109.963V107ZM132.322 107H141.574C146.758 107 148.918 104.444 148.918 100.664C148.918 96.92 146.758 94.256 141.574 94.256H138.55V88.46H132.322V107ZM138.55 102.932V98.288H140.314C141.898 98.288 142.69 99.332 142.69 100.628C142.69 101.924 141.898 102.932 140.422 102.932H138.55ZM160.658 107H166.706L171.854 98.864C172.142 98.36 172.538 97.784 172.862 97.028H172.934C172.862 97.748 172.862 98.468 172.862 98.9V107H178.73V88.46H172.682L167.534 96.632C167.21 97.172 166.85 97.712 166.526 98.468H166.454C166.49 98 166.526 97.28 166.526 96.632V88.46H160.658V107ZM190.112 107H197.096L200.048 101.6C200.948 99.98 201.632 98.396 201.632 98.396H201.704C201.704 98.396 202.388 99.98 203.288 101.6L206.24 107H213.26L205.412 94.22L213.296 81.26H206.132L203.288 86.552C202.388 88.208 201.704 89.864 201.704 89.864H201.632C201.632 89.864 200.912 88.172 200.048 86.552L197.24 81.26H190.076L197.924 94.22L190.112 107ZM215.256 107H221.304L226.452 98.864C226.74 98.36 227.136 97.784 227.46 97.028H227.532C227.46 97.748 227.46 98.468 227.46 98.9V107H233.328V88.46H227.28L222.132 96.632C221.808 97.172 221.448 97.712 221.124 98.468H221.052C221.088 98 221.124 97.28 221.124 96.632V88.46H215.256V107ZM236.718 107H242.658L243.09 98.468C243.162 97.028 243.054 95.3 243.054 95.3H243.126C243.126 95.3 243.81 96.848 244.206 98.036L246.654 104.516H251.694L254.142 98.036C254.61 96.884 255.15 95.3 255.15 95.3H255.222C255.222 95.3 255.15 97.028 255.186 98.468L255.618 107H261.594L259.83 88.46H252.666L249.93 96.596C249.606 97.532 249.174 98.756 249.174 98.756H249.138C249.138 98.756 248.742 97.532 248.418 96.596L245.682 88.46H238.482L236.718 107ZM264.967 107H271.015L276.163 98.864C276.451 98.36 276.847 97.784 277.171 97.028H277.243C277.171 97.748 277.171 98.468 277.171 98.9V107H283.039V88.46H276.991L271.843 96.632C271.519 97.172 271.159 97.712 270.835 98.468H270.763C270.799 98 270.835 97.28 270.835 96.632V88.46H264.967V107ZM287.221 107H293.449V100.088H295.969C296.941 104.588 300.829 107.432 305.797 107.432C311.557 107.432 316.021 103.58 316.021 97.784C316.021 91.952 311.557 88.028 305.761 88.028C300.937 88.028 297.121 90.8 296.041 95.156H293.449V88.46H287.221V107ZM301.873 97.784C301.873 94.976 303.601 93.212 305.797 93.212C307.993 93.212 309.721 94.976 309.721 97.784C309.721 100.556 307.993 102.248 305.797 102.248C303.601 102.248 301.873 100.556 301.873 97.784ZM2.044 139.712C2.044 144.824 5.752 149.432 12.376 149.432C15.472 149.432 18.496 148.244 20.332 146.372L18.064 142.016C16.732 143.168 14.788 144.248 12.988 144.248C9.856 144.248 8.344 141.836 8.344 139.64C8.344 137.444 9.82 135.212 12.772 135.212C14.392 135.212 16.048 135.968 17.128 137.012L19.756 132.836C17.92 130.856 14.968 130.028 12.376 130.028C5.716 130.028 2.044 134.744 2.044 139.712ZM31.9513 149H38.1793V135.68H43.6873V149H49.9153V130.46H31.9513V149ZM54.0997 156.2H60.3277V149.252C60.3277 148.316 60.2557 147.668 60.2557 147.668H60.3277C61.6597 148.82 63.3157 149.432 65.0437 149.432C69.9757 149.432 73.6837 145.616 73.6837 139.748C73.6837 133.988 70.3717 130.028 65.3317 130.028C63.0997 130.028 60.9757 130.892 59.7157 132.584H59.6437C59.6437 132.584 59.7157 132.008 59.7157 131.396V130.46H54.0997V156.2ZM60.1477 139.856C60.1477 136.652 61.9117 135.284 63.7837 135.284C65.9437 135.284 67.4197 137.084 67.4197 139.856C67.4197 142.7 65.7277 144.284 63.7837 144.284C61.3357 144.284 60.1477 142.088 60.1477 139.856ZM75.837 139.712C75.837 144.644 79.401 149.432 86.025 149.432C88.869 149.432 91.929 148.46 93.945 146.732L91.641 142.376C90.129 143.384 88.365 144.248 86.529 144.248C84.549 144.248 82.677 143.204 82.209 140.936H93.909C93.981 140.288 94.053 139.64 94.053 138.992C94.053 133.844 90.957 130.028 85.485 130.028C79.509 130.028 75.837 134.276 75.837 139.712ZM82.353 137.372C82.677 135.896 83.541 134.6 85.341 134.6C86.925 134.6 87.897 135.86 87.897 137.372H82.353ZM97.3068 149H103.535V135.68H109.043V149H115.271V130.46H97.3068V149ZM118.411 139.784C118.411 145.58 123.091 149.432 128.923 149.432C134.755 149.432 139.435 145.58 139.435 139.784C139.435 133.952 134.755 130.028 128.887 130.028C123.091 130.028 118.411 133.952 118.411 139.784ZM124.711 139.784C124.711 136.976 126.655 135.212 128.923 135.212C131.191 135.212 133.135 136.976 133.135 139.784C133.135 142.556 131.191 144.248 128.923 144.248C126.655 144.248 124.711 142.556 124.711 139.784ZM149.041 144.068C150.337 141.584 150.697 138.884 150.697 136.076V135.392H153.901V144.068H149.041ZM140.617 144.068V153.32H146.377V149H157.249V153.32H162.793V144.068H160.129V130.46H144.829V134.924C144.829 138.668 144.145 141.98 142.921 144.068H140.617ZM164.319 143.78C164.319 146.984 166.803 149.432 170.367 149.432C172.491 149.432 174.651 148.46 175.875 146.732H175.947C175.947 146.732 175.875 147.272 175.875 147.884V149H181.562V137.588C181.562 132.872 178.395 130.028 173.283 130.028C170.259 130.028 167.019 131.216 165.435 132.44L167.595 136.832C169.071 135.86 170.907 135.068 172.707 135.068C174.075 135.068 175.335 135.572 175.335 137.12V137.444H174.795C170.223 137.444 164.319 138.812 164.319 143.78ZM170.475 143.204C170.475 141.512 172.923 141.008 174.831 141.008H175.407V141.512C175.407 143.024 174.039 144.788 172.239 144.788C171.087 144.788 170.475 144.068 170.475 143.204ZM185.514 149H195.63C199.302 149 202.686 147.56 202.686 143.492C202.686 141.872 201.894 140.036 199.77 139.388V139.352C201.174 138.524 201.93 136.868 201.93 135.32C201.93 132.116 199.338 130.46 195.63 130.46H185.514V149ZM191.742 137.768V134.312H194.01C195.234 134.312 195.738 135.068 195.738 135.932C195.738 136.904 195.234 137.768 194.082 137.768H191.742ZM191.742 145.112V141.404H194.514C195.846 141.404 196.458 142.268 196.458 143.276C196.458 144.212 195.81 145.112 194.478 145.112H191.742ZM204.572 143.78C204.572 146.984 207.056 149.432 210.62 149.432C212.744 149.432 214.904 148.46 216.128 146.732H216.2C216.2 146.732 216.128 147.272 216.128 147.884V149H221.816V137.588C221.816 132.872 218.648 130.028 213.536 130.028C210.512 130.028 207.272 131.216 205.688 132.44L207.848 136.832C209.324 135.86 211.16 135.068 212.96 135.068C214.328 135.068 215.588 135.572 215.588 137.12V137.444H215.048C210.476 137.444 204.572 138.812 204.572 143.78ZM210.728 143.204C210.728 141.512 213.176 141.008 215.084 141.008H215.66V141.512C215.66 143.024 214.292 144.788 212.492 144.788C211.34 144.788 210.728 144.068 210.728 143.204ZM229.836 149H236.064V135.68H241.716V130.46H224.22V135.68H229.836V149ZM243.075 139.712C243.075 144.644 246.639 149.432 253.263 149.432C256.107 149.432 259.167 148.46 261.183 146.732L258.879 142.376C257.367 143.384 255.603 144.248 253.767 144.248C251.787 144.248 249.915 143.204 249.447 140.936H261.147C261.219 140.288 261.291 139.64 261.291 138.992C261.291 133.844 258.195 130.028 252.723 130.028C246.747 130.028 243.075 134.276 243.075 139.712ZM249.591 137.372C249.915 135.896 250.779 134.6 252.579 134.6C254.163 134.6 255.135 135.86 255.135 137.372H249.591ZM263.036 149.18C270.236 149.18 272.396 143.996 272.396 136.436V135.392H275.492V149H281.72V130.46H266.528V136.4C266.528 142.772 264.692 143.528 263.036 143.744V149.18ZM284.841 139.712C284.841 144.644 288.405 149.432 295.029 149.432C297.873 149.432 300.933 148.46 302.949 146.732L300.645 142.376C299.133 143.384 297.369 144.248 295.533 144.248C293.553 144.248 291.681 143.204 291.213 140.936H302.913C302.985 140.288 303.057 139.64 303.057 138.992C303.057 133.844 299.961 130.028 294.489 130.028C288.513 130.028 284.841 134.276 284.841 139.712ZM291.357 137.372C291.681 135.896 292.545 134.6 294.345 134.6C295.929 134.6 296.901 135.86 296.901 137.372H291.357ZM305.519 149H311.459L311.891 140.468C311.963 139.028 311.855 137.3 311.855 137.3H311.927C311.927 137.3 312.611 138.848 313.007 140.036L315.455 146.516H320.495L322.943 140.036C323.411 138.884 323.951 137.3 323.951 137.3H324.023C324.023 137.3 323.951 139.028 323.987 140.468L324.419 149H330.395L328.631 130.46H321.467L318.731 138.596C318.407 139.532 317.975 140.756 317.975 140.756H317.939C317.939 140.756 317.543 139.532 317.219 138.596L314.483 130.46H307.283L305.519 149Z" fill="#222224"/>
<path d="M1.9 201.574C1.9 205.3 4.474 208.216 8.416 208.216C10.666 208.216 12.25 207.28 13.33 206.2L12.376 204.922C11.35 205.948 9.892 206.578 8.47 206.578C5.518 206.578 3.736 204.256 3.736 201.556C3.736 198.874 5.482 196.696 8.434 196.696C9.748 196.696 11.17 197.254 12.106 198.082L13.006 196.75C11.782 195.58 10 195.076 8.362 195.076C4.582 195.076 1.9 197.884 1.9 201.574ZM14.4826 203.428C14.4826 206.2 16.6786 208.216 19.3966 208.216C22.0966 208.216 24.2926 206.2 24.2926 203.428C24.2926 200.674 22.0966 198.676 19.3786 198.676C16.6786 198.676 14.4826 200.674 14.4826 203.428ZM16.2646 203.428C16.2646 201.538 17.6686 200.188 19.3966 200.188C21.1066 200.188 22.5286 201.538 22.5286 203.428C22.5286 205.336 21.1066 206.704 19.3966 206.704C17.6686 206.704 16.2646 205.336 16.2646 203.428ZM25.8029 203.446C25.8029 206.182 27.8009 208.216 30.6809 208.216C32.1029 208.216 33.4889 207.64 34.3169 206.758L33.6149 205.48C32.9129 206.218 31.8149 206.704 30.8069 206.704C28.9169 206.704 27.5849 205.282 27.5849 203.428C27.5849 201.574 28.9169 200.188 30.7529 200.188C31.7069 200.188 32.6609 200.62 33.2729 201.232L34.1009 200.008C33.2369 199.09 31.8869 198.676 30.6809 198.676C27.8189 198.676 25.8029 200.746 25.8029 203.446ZM38.4015 208H40.1295V200.386H43.3155V198.892H35.2335V200.386H38.4015V208ZM44.1858 205.516C44.1858 207.226 45.6438 208.216 47.2278 208.216C48.5778 208.216 49.6938 207.406 50.2158 206.362H50.2518C50.2518 206.362 50.1978 206.668 50.1978 207.082V208H51.8358V202.24C51.8358 199.936 50.5218 198.676 48.2358 198.676C46.9578 198.676 45.5718 199.144 44.8338 199.756L45.5358 201.034C46.2738 200.512 47.1918 200.152 48.0918 200.152C49.2258 200.152 50.0898 200.656 50.0898 202.15V202.33H49.6218C47.7318 202.33 44.1858 202.654 44.1858 205.516ZM45.9318 205.372C45.9318 203.698 48.3438 203.59 49.6398 203.59H50.0898V203.932C50.0898 205.282 49.1718 206.83 47.6418 206.83C46.5078 206.83 45.9318 206.092 45.9318 205.372ZM54.4164 208H58.3044C60.2844 208 61.6524 207.1 61.6524 205.408C61.6524 204.4 61.0584 203.518 59.9244 203.248V203.23C60.7524 202.87 61.2204 202.114 61.2204 201.232C61.2204 199.702 60.0144 198.892 58.1784 198.892H54.4164V208ZM56.1624 202.744V200.098H57.8184C58.9164 200.098 59.4384 200.53 59.4384 201.358C59.4384 202.204 58.9164 202.744 57.8724 202.744H56.1624ZM56.1624 206.776V203.914H58.0164C59.2224 203.914 59.8884 204.454 59.8884 205.354C59.8884 206.2 59.2944 206.776 58.0344 206.776H56.1624ZM63.768 208H65.442L69.384 202.564C69.672 202.132 70.122 201.52 70.176 201.358H70.212C70.212 201.502 70.158 202.132 70.158 202.564V208H71.85V198.892H70.158L66.234 204.328C65.928 204.76 65.496 205.39 65.424 205.552H65.388C65.406 205.462 65.442 204.814 65.442 204.328V198.892H63.768V208ZM74.1478 208H75.8398L76.2358 202.582C76.2718 202.042 76.2178 201.016 76.2178 201.016H76.2538C76.2538 201.016 76.5418 201.7 76.8298 202.366L78.9898 206.902H80.4838L82.6438 202.348C82.9858 201.646 83.2198 201.016 83.2198 201.016H83.2558C83.2558 201.016 83.2198 202.042 83.2378 202.582L83.6338 208H85.3258L84.5338 198.892H82.6258L80.2498 204.04C80.0158 204.598 79.7458 205.264 79.7458 205.264H79.7098C79.7098 205.264 79.4578 204.58 79.2058 204.04L76.8838 198.892H74.9398L74.1478 208ZM92.1742 208H93.9202V200.386H97.8802V198.892H92.1742V208ZM99.6098 211.6H101.356V207.46C101.356 206.992 101.284 206.668 101.284 206.668H101.32C101.95 207.64 102.994 208.216 104.146 208.216C106.54 208.216 108.268 206.344 108.268 203.446C108.268 200.62 106.738 198.676 104.272 198.676C102.94 198.676 101.788 199.288 101.212 200.386H101.176C101.176 200.386 101.23 200.08 101.23 199.702V198.892H99.6098V211.6ZM101.302 203.482C101.302 201.178 102.562 200.206 103.93 200.206C105.442 200.206 106.504 201.484 106.504 203.464C106.504 205.534 105.316 206.704 103.876 206.704C102.202 206.704 101.302 205.102 101.302 203.482ZM109.664 205.516C109.664 207.226 111.122 208.216 112.706 208.216C114.056 208.216 115.172 207.406 115.694 206.362H115.73C115.73 206.362 115.676 206.668 115.676 207.082V208H117.314V202.24C117.314 199.936 116 198.676 113.714 198.676C112.436 198.676 111.05 199.144 110.312 199.756L111.014 201.034C111.752 200.512 112.67 200.152 113.57 200.152C114.704 200.152 115.568 200.656 115.568 202.15V202.33H115.1C113.21 202.33 109.664 202.654 109.664 205.516ZM111.41 205.372C111.41 203.698 113.822 203.59 115.118 203.59H115.568V203.932C115.568 205.282 114.65 206.83 113.12 206.83C111.986 206.83 111.41 206.092 111.41 205.372ZM119.319 203.428C119.319 206.236 121.425 208.09 124.251 208.216V211.6H125.925V208.216C128.751 208.09 130.839 206.236 130.839 203.428C130.839 200.638 128.751 198.802 125.925 198.694V195.4H124.251V198.694C121.425 198.802 119.319 200.638 119.319 203.428ZM125.925 206.758V200.134C127.779 200.242 129.129 201.448 129.129 203.428C129.129 205.39 127.779 206.632 125.925 206.758ZM121.047 203.428C121.047 201.448 122.379 200.242 124.251 200.134V206.758C122.379 206.632 121.047 205.39 121.047 203.428ZM132.955 208H134.629L138.571 202.564C138.859 202.132 139.309 201.52 139.363 201.358H139.399C139.399 201.502 139.345 202.132 139.345 202.564V208H141.037V198.892H139.345L135.421 204.328C135.115 204.76 134.683 205.39 134.611 205.552H134.575C134.593 205.462 134.629 204.814 134.629 204.328V198.892H132.955V208ZM143.713 208H145.459V204.058H146.773L149.491 208H151.561L148.159 203.266V203.23L151.201 198.892H149.221L146.737 202.564H145.459V198.892H143.713V208ZM2.35 236H4.024L7.966 230.564C8.254 230.132 8.704 229.52 8.758 229.358H8.794C8.794 229.502 8.74 230.132 8.74 230.564V236H10.432V226.892H8.74L4.816 232.328C4.51 232.76 4.078 233.39 4.006 233.552H3.97C3.988 233.462 4.024 232.814 4.024 232.328V226.892H2.35V236ZM17.1578 237.89L16.5458 239.222C16.5458 239.222 17.2838 239.78 18.2918 239.78C19.5698 239.78 20.7038 239.06 21.2438 237.638L25.5278 226.892H23.6378L21.4238 232.868C21.2618 233.336 21.1178 233.948 21.1178 233.948H21.0818C21.0818 233.948 20.9198 233.3 20.7398 232.85L18.4538 226.892H16.4918L20.3078 235.892L19.8578 236.936C19.5158 237.764 18.9218 238.286 18.2018 238.286C17.6618 238.286 17.1578 237.89 17.1578 237.89ZM27.2406 236H31.1286C33.1086 236 34.4766 235.1 34.4766 233.408C34.4766 232.4 33.8826 231.518 32.7486 231.248V231.23C33.5766 230.87 34.0446 230.114 34.0446 229.232C34.0446 227.702 32.8386 226.892 31.0026 226.892H27.2406V236ZM28.9866 230.744V228.098H30.6426C31.7406 228.098 32.2626 228.53 32.2626 229.358C32.2626 230.204 31.7406 230.744 30.6966 230.744H28.9866ZM28.9866 234.776V231.914H30.8406C32.0466 231.914 32.7126 232.454 32.7126 233.354C32.7126 234.2 32.1186 234.776 30.8586 234.776H28.9866ZM35.6022 236.09C38.2842 235.946 39.3282 233.822 39.3282 229.7V228.332H42.0102V236H43.7562V226.892H37.6542V229.7C37.6542 232.994 36.9342 234.326 35.6022 234.524V236.09ZM45.8595 231.446C45.8595 234.146 47.8395 236.216 50.7015 236.216C51.9615 236.216 53.3475 235.73 54.2295 234.92L53.4915 233.642C52.7715 234.29 51.7815 234.704 50.8095 234.704C49.1715 234.704 47.7675 233.642 47.6775 231.68H54.3015C54.3375 231.428 54.3735 231.176 54.3735 230.942C54.3735 228.602 53.0055 226.676 50.4315 226.676C47.8395 226.676 45.8595 228.548 45.8595 231.446ZM47.7315 230.42C47.9835 228.908 49.0455 228.026 50.3955 228.026C51.5835 228.026 52.5555 228.854 52.6095 230.42H47.7315ZM56.473 236H58.219V232.058H59.533L62.251 236H64.321L60.919 231.266V231.23L63.961 226.892H61.981L59.497 230.564H58.219V226.892H56.473V236ZM65.0335 233.516C65.0335 235.226 66.4915 236.216 68.0755 236.216C69.4255 236.216 70.5415 235.406 71.0635 234.362H71.0995C71.0995 234.362 71.0455 234.668 71.0455 235.082V236H72.6835V230.24C72.6835 227.936 71.3695 226.676 69.0835 226.676C67.8055 226.676 66.4195 227.144 65.6815 227.756L66.3835 229.034C67.1215 228.512 68.0395 228.152 68.9395 228.152C70.0735 228.152 70.9375 228.656 70.9375 230.15V230.33H70.4695C68.5795 230.33 65.0335 230.654 65.0335 233.516ZM66.7795 233.372C66.7795 231.698 69.1915 231.59 70.4875 231.59H70.9375V231.932C70.9375 233.282 70.0195 234.83 68.4895 234.83C67.3555 234.83 66.7795 234.092 66.7795 233.372ZM77.337 236H79.065V228.386H82.251V226.892H74.169V228.386H77.337V236ZM83.0724 231.446C83.0724 234.146 85.0524 236.216 87.9144 236.216C89.1744 236.216 90.5604 235.73 91.4424 234.92L90.7044 233.642C89.9844 234.29 88.9944 234.704 88.0224 234.704C86.3844 234.704 84.9804 233.642 84.8904 231.68H91.5144C91.5504 231.428 91.5864 231.176 91.5864 230.942C91.5864 228.602 90.2184 226.676 87.6444 226.676C85.0524 226.676 83.0724 228.548 83.0724 231.446ZM84.9444 230.42C85.1964 228.908 86.2584 228.026 87.6084 228.026C88.7964 228.026 89.7684 228.854 89.8224 230.42H84.9444ZM92.6959 236.09C95.3779 235.946 96.4219 233.822 96.4219 229.7V228.332H99.1039V236H100.85V226.892H94.7479V229.7C94.7479 232.994 94.0279 234.326 92.6959 234.524V236.09ZM103.547 236H107.093C109.397 236 110.441 234.83 110.441 233.12C110.441 231.05 109.019 230.186 107.129 230.186H105.293V226.892H103.547V236ZM105.293 234.74V231.446H106.859C108.119 231.446 108.659 232.13 108.659 233.102C108.659 234.056 108.119 234.74 106.859 234.74H105.293ZM112.319 236H114.065V232.094H118.673V236H120.419V226.892H118.673V230.6H114.065V226.892H112.319V236ZM131.356 236H133.102V226.892H131.356V236ZM123.112 236H126.622C128.908 236 129.952 234.83 129.952 233.12C129.952 231.05 128.53 230.186 126.64 230.186H124.858V226.892H123.112V236ZM124.858 234.74V231.446H126.37C127.63 231.446 128.188 232.13 128.188 233.102C128.188 234.056 127.648 234.74 126.388 234.74H124.858ZM135.209 231.446C135.209 234.146 137.189 236.216 140.051 236.216C141.311 236.216 142.697 235.73 143.579 234.92L142.841 233.642C142.121 234.29 141.131 234.704 140.159 234.704C138.521 234.704 137.117 233.642 137.027 231.68H143.651C143.687 231.428 143.723 231.176 143.723 230.942C143.723 228.602 142.355 226.676 139.781 226.676C137.189 226.676 135.209 228.548 135.209 231.446ZM137.081 230.42C137.333 228.908 138.395 228.026 139.745 228.026C140.933 228.026 141.905 228.854 141.959 230.42H137.081ZM149.441 234.884C150.197 235.604 151.385 236.216 152.789 236.216C154.661 236.216 156.281 235.262 156.281 233.39C156.281 232.22 155.561 231.536 154.643 231.248V231.212C155.363 230.906 155.975 230.276 155.975 229.142C155.975 227.522 154.625 226.676 152.897 226.676C151.457 226.676 150.431 227.144 149.729 227.666L150.377 228.836C151.079 228.314 151.799 228.044 152.591 228.044C153.599 228.044 154.211 228.512 154.211 229.358C154.211 230.276 153.509 230.672 152.483 230.672H151.529V231.932H152.645C153.923 231.932 154.517 232.436 154.517 233.318C154.517 234.308 153.671 234.812 152.627 234.812C151.529 234.812 150.665 234.164 150.251 233.732L149.441 234.884ZM157.635 233.516C157.635 235.226 159.093 236.216 160.677 236.216C162.027 236.216 163.143 235.406 163.665 234.362H163.701C163.701 234.362 163.647 234.668 163.647 235.082V236H165.285V230.24C165.285 227.936 163.971 226.676 161.685 226.676C160.407 226.676 159.021 227.144 158.283 227.756L158.985 229.034C159.723 228.512 160.641 228.152 161.541 228.152C162.675 228.152 163.539 228.656 163.539 230.15V230.33H163.071C161.181 230.33 157.635 230.654 157.635 233.516ZM159.381 233.372C159.381 231.698 161.793 231.59 163.089 231.59H163.539V231.932C163.539 233.282 162.621 234.83 161.091 234.83C159.957 234.83 159.381 234.092 159.381 233.372ZM169.648 234.56C170.8 232.76 170.944 230.168 170.944 228.8V228.314H173.68V234.56H169.648ZM166.732 234.56V238.16H168.37V236H175.12V238.16H176.722V234.56H175.426V226.892H169.27V228.566C169.27 229.97 169.126 232.814 167.848 234.56H166.732ZM177.797 233.516C177.797 235.226 179.255 236.216 180.839 236.216C182.189 236.216 183.305 235.406 183.827 234.362H183.863C183.863 234.362 183.809 234.668 183.809 235.082V236H185.447V230.24C185.447 227.936 184.133 226.676 181.847 226.676C180.569 226.676 179.183 227.144 178.445 227.756L179.147 229.034C179.885 228.512 180.803 228.152 181.703 228.152C182.837 228.152 183.701 228.656 183.701 230.15V230.33H183.233C181.343 230.33 177.797 230.654 177.797 233.516ZM179.543 233.372C179.543 231.698 181.955 231.59 183.251 231.59H183.701V231.932C183.701 233.282 182.783 234.83 181.253 234.83C180.119 234.83 179.543 234.092 179.543 233.372ZM190.512 232.832C191.412 232.832 192.402 232.526 192.978 232.166H193.014C193.014 232.166 192.996 232.454 192.996 232.706V236H194.742V226.892H192.996V230.672C192.618 230.942 191.88 231.32 190.98 231.32C189.486 231.32 189.162 230.51 189.162 229.61V226.892H187.452V229.862C187.452 231.806 188.568 232.832 190.512 232.832ZM197.45 236H199.196V232.058H200.51L203.228 236H205.298L201.896 231.266V231.23L204.938 226.892H202.958L200.474 230.564H199.196V226.892H197.45V236ZM206.854 236H208.528L212.47 230.564C212.758 230.132 213.208 229.52 213.262 229.358H213.298C213.298 229.502 213.244 230.132 213.244 230.564V236H214.936V226.892H213.244L209.32 232.328C209.014 232.76 208.582 233.39 208.51 233.552H208.474C208.492 233.462 208.528 232.814 208.528 232.328V226.892H206.854V236ZM2.35 264H4.096V256.386H8.56V264H10.306V254.892H2.35V264ZM12.4083 259.428C12.4083 262.2 14.6043 264.216 17.3223 264.216C20.0223 264.216 22.2183 262.2 22.2183 259.428C22.2183 256.674 20.0223 254.676 17.3043 254.676C14.6043 254.676 12.4083 256.674 12.4083 259.428ZM14.1903 259.428C14.1903 257.538 15.5943 256.188 17.3223 256.188C19.0323 256.188 20.4543 257.538 20.4543 259.428C20.4543 261.336 19.0323 262.704 17.3223 262.704C15.5943 262.704 14.1903 261.336 14.1903 259.428ZM28.8227 264H32.7107C34.6907 264 36.0587 263.1 36.0587 261.408C36.0587 260.4 35.4647 259.518 34.3307 259.248V259.23C35.1587 258.87 35.6267 258.114 35.6267 257.232C35.6267 255.702 34.4207 254.892 32.5847 254.892H28.8227V264ZM30.5687 258.744V256.098H32.2247C33.3227 256.098 33.8447 256.53 33.8447 257.358C33.8447 258.204 33.3227 258.744 32.2787 258.744H30.5687ZM30.5687 262.776V259.914H32.4227C33.6287 259.914 34.2947 260.454 34.2947 261.354C34.2947 262.2 33.7007 262.776 32.4407 262.776H30.5687ZM37.4182 261.516C37.4182 263.226 38.8762 264.216 40.4602 264.216C41.8102 264.216 42.9262 263.406 43.4482 262.362H43.4842C43.4842 262.362 43.4302 262.668 43.4302 263.082V264H45.0682V258.24C45.0682 255.936 43.7542 254.676 41.4682 254.676C40.1902 254.676 38.8042 255.144 38.0662 255.756L38.7682 257.034C39.5062 256.512 40.4242 256.152 41.3242 256.152C42.4582 256.152 43.3222 256.656 43.3222 258.15V258.33H42.8542C40.9642 258.33 37.4182 258.654 37.4182 261.516ZM39.1642 261.372C39.1642 259.698 41.5762 259.59 42.8722 259.59H43.3222V259.932C43.3222 261.282 42.4042 262.83 40.8742 262.83C39.7402 262.83 39.1642 262.092 39.1642 261.372ZM47.6488 264H59.4208V254.892H57.7468V262.488H54.3808V254.892H52.6888V262.488H49.3228V254.892H47.6488V264ZM62.1156 264H63.7896L67.7316 258.564C68.0196 258.132 68.4696 257.52 68.5236 257.358H68.5596C68.5596 257.502 68.5056 258.132 68.5056 258.564V264H70.1976V254.892H68.5056L64.5816 260.328C64.2756 260.76 63.8436 261.39 63.7716 261.552H63.7356C63.7536 261.462 63.7896 260.814 63.7896 260.328V254.892H62.1156V264ZM72.4954 264H74.1874L74.5834 258.582C74.6194 258.042 74.5654 257.016 74.5654 257.016H74.6014C74.6014 257.016 74.8894 257.7 75.1774 258.366L77.3374 262.902H78.8314L80.9914 258.348C81.3334 257.646 81.5674 257.016 81.5674 257.016H81.6034C81.6034 257.016 81.5674 258.042 81.5854 258.582L81.9814 264H83.6734L82.8814 254.892H80.9734L78.5974 260.04C78.3634 260.598 78.0934 261.264 78.0934 261.264H78.0574C78.0574 261.264 77.8054 260.58 77.5534 260.04L75.2314 254.892H73.2874L72.4954 264ZM90.5219 264H92.1959L96.1379 258.564C96.4259 258.132 96.8759 257.52 96.9299 257.358H96.9659C96.9659 257.502 96.9119 258.132 96.9119 258.564V264H98.6039V254.892H96.9119L92.9879 260.328C92.6819 260.76 92.2499 261.39 92.1779 261.552H92.1419C92.1599 261.462 92.1959 260.814 92.1959 260.328V254.892H90.5219V264ZM101.28 264H103.026V260.094H107.634V264H109.38V254.892H107.634V258.6H103.026V254.892H101.28V264ZM114.269 264H115.997V256.386H119.183V254.892H111.101V256.386H114.269V264ZM120.004 259.446C120.004 262.146 121.984 264.216 124.846 264.216C126.106 264.216 127.492 263.73 128.374 262.92L127.636 261.642C126.916 262.29 125.926 262.704 124.954 262.704C123.316 262.704 121.912 261.642 121.822 259.68H128.446C128.482 259.428 128.518 259.176 128.518 258.942C128.518 256.602 127.15 254.676 124.576 254.676C121.984 254.676 120.004 256.548 120.004 259.446ZM121.876 258.42C122.128 256.908 123.19 256.026 124.54 256.026C125.728 256.026 126.7 256.854 126.754 258.42H121.876ZM130.618 267.6H132.364V263.46C132.364 262.992 132.292 262.668 132.292 262.668H132.328C132.958 263.64 134.002 264.216 135.154 264.216C137.548 264.216 139.276 262.344 139.276 259.446C139.276 256.62 137.746 254.676 135.28 254.676C133.948 254.676 132.796 255.288 132.22 256.386H132.184C132.184 256.386 132.238 256.08 132.238 255.702V254.892H130.618V267.6ZM132.31 259.482C132.31 257.178 133.57 256.206 134.938 256.206C136.45 256.206 137.512 257.484 137.512 259.464C137.512 261.534 136.324 262.704 134.884 262.704C133.21 262.704 132.31 261.102 132.31 259.482ZM140.834 259.446C140.834 262.146 142.814 264.216 145.676 264.216C146.936 264.216 148.322 263.73 149.204 262.92L148.466 261.642C147.746 262.29 146.756 262.704 145.784 262.704C144.146 262.704 142.742 261.642 142.652 259.68H149.276C149.312 259.428 149.348 259.176 149.348 258.942C149.348 256.602 147.98 254.676 145.406 254.676C142.814 254.676 140.834 256.548 140.834 259.446ZM142.706 258.42C142.958 256.908 144.02 256.026 145.37 256.026C146.558 256.026 147.53 256.854 147.584 258.42H142.706ZM150.854 259.446C150.854 262.182 152.852 264.216 155.732 264.216C157.154 264.216 158.54 263.64 159.368 262.758L158.666 261.48C157.964 262.218 156.866 262.704 155.858 262.704C153.968 262.704 152.636 261.282 152.636 259.428C152.636 257.574 153.968 256.188 155.804 256.188C156.758 256.188 157.712 256.62 158.324 257.232L159.152 256.008C158.288 255.09 156.938 254.676 155.732 254.676C152.87 254.676 150.854 256.746 150.854 259.446ZM160.5 261.516C160.5 263.226 161.958 264.216 163.542 264.216C164.892 264.216 166.008 263.406 166.53 262.362H166.566C166.566 262.362 166.512 262.668 166.512 263.082V264H168.15V258.24C168.15 255.936 166.836 254.676 164.55 254.676C163.272 254.676 161.886 255.144 161.148 255.756L161.85 257.034C162.588 256.512 163.506 256.152 164.406 256.152C165.54 256.152 166.404 256.656 166.404 258.15V258.33H165.936C164.046 258.33 160.5 258.654 160.5 261.516ZM162.246 261.372C162.246 259.698 164.658 259.59 165.954 259.59H166.404V259.932C166.404 261.282 165.486 262.83 163.956 262.83C162.822 262.83 162.246 262.092 162.246 261.372ZM170.353 264H172.045L172.441 258.582C172.477 258.042 172.423 257.016 172.423 257.016H172.459C172.459 257.016 172.747 257.7 173.035 258.366L175.195 262.902H176.689L178.849 258.348C179.191 257.646 179.425 257.016 179.425 257.016H179.461C179.461 257.016 179.425 258.042 179.443 258.582L179.839 264H181.531L180.739 254.892H178.831L176.455 260.04C176.221 260.598 175.951 261.264 175.951 261.264H175.915C175.915 261.264 175.663 260.58 175.411 260.04L173.089 254.892H171.145L170.353 264Z" fill="#505257"/>
</svg>
