<svg width="1110" height="298" viewBox="0 0 1110 298" fill="none" xmlns="http://www.w3.org/2000/svg">
<path d="M0 4.40122C0 2.86065 0 2.09037 0.299609 1.50195C0.563153 0.984356 0.983678 0.563541 1.50091 0.299816C2.08893 0 2.85869 0 4.3982 0H504.602C506.141 0 506.911 0 507.499 0.299816C508.016 0.563541 508.437 0.984356 508.7 1.50195C509 2.09037 509 2.86066 509 4.40123V293.599C509 295.139 509 295.91 508.7 296.498C508.437 297.016 508.016 297.436 507.499 297.7C506.911 298 506.141 298 504.602 298H4.39818C2.85868 298 2.08893 298 1.50091 297.7C0.983678 297.436 0.563153 297.016 0.299609 296.498C0 295.91 0 295.139 0 293.599V4.40122Z" fill="#F3F3F3"/>
<path d="M45.2805 124.928C44.1888 124.459 42.9192 124.963 42.4949 126.073C38.713 135.964 37.9753 146.779 40.4044 157.12C42.9977 168.16 49.0638 178.077 57.7113 185.414C66.3589 192.751 77.1317 197.12 88.4468 197.881C99.7619 198.641 111.022 195.752 120.574 189.638C130.125 183.524 137.463 174.507 141.51 163.913C145.557 153.32 146.1 141.707 143.057 130.782C140.015 119.857 133.549 110.196 124.609 103.219C116.235 96.6832 106.104 92.8251 95.5384 92.1182C94.3529 92.0389 93.3642 92.9811 93.333 94.1689C93.3019 95.3567 94.2402 96.3399 95.4255 96.4234C105.071 97.1035 114.313 100.642 121.961 106.611C130.176 113.022 136.117 121.898 138.912 131.936C141.707 141.974 141.209 152.644 137.491 162.378C133.772 172.112 127.03 180.396 118.254 186.014C109.478 191.632 99.1317 194.286 88.7353 193.588C78.3388 192.889 68.4405 188.874 60.4951 182.133C52.5496 175.392 46.976 166.28 44.5932 156.136C42.3747 146.691 43.0312 136.816 46.4518 127.773C46.8722 126.661 46.3722 125.397 45.2805 124.928Z" fill="#27AE60"/>
<path d="M76 141.782C76 140.458 76 139.796 76.0541 139.291C76.1016 138.846 76.1775 138.484 76.2708 138.258C76.3769 138 76.5158 138 76.7936 138H106.206C106.484 138 106.623 138 106.729 138.258C106.823 138.484 106.898 138.846 106.946 139.291C107 139.796 107 140.458 107 141.782V147.218C107 148.542 107 149.204 106.946 149.709C106.898 150.154 106.823 150.516 106.729 150.742C106.623 151 106.484 151 106.206 151H76.7936C76.5158 151 76.3769 151 76.2708 150.742C76.1775 150.516 76.1016 150.154 76.0541 149.709C76 149.204 76 148.542 76 147.218V141.782Z" fill="#424754"/>
<path d="M52 212.455C52 211.945 52 211.691 52.1378 211.496C52.259 211.325 52.4523 211.186 52.6902 211.099C52.9605 211 53.3145 211 54.0224 211H128.978C129.686 211 130.039 211 130.31 211.099C130.548 211.186 130.741 211.325 130.862 211.496C131 211.691 131 211.945 131 212.455V214.545C131 215.055 131 215.309 130.862 215.504C130.741 215.675 130.548 215.814 130.31 215.901C130.039 216 129.686 216 128.978 216H54.0224C53.3145 216 52.9605 216 52.6902 215.901C52.4523 215.814 52.259 215.675 52.1378 215.504C52 215.309 52 215.055 52 214.545V212.455Z" fill="#97999D"/>
<path d="M200.704 157.47C199.552 157.761 198.85 158.933 199.188 160.072C201.806 168.896 206.68 176.899 213.346 183.282C220.531 190.161 229.506 194.879 239.246 196.898C248.986 198.916 259.098 198.152 268.424 194.694C277.751 191.237 285.916 185.224 291.986 177.344C298.057 169.464 301.787 160.035 302.751 150.135C303.714 140.235 301.873 130.263 297.436 121.36C292.999 112.458 286.147 104.983 277.662 99.7916C269.79 94.9748 260.808 92.3036 251.608 92.0244C250.42 91.9883 249.467 92.966 249.479 94.1541C249.491 95.3422 250.465 96.2906 251.652 96.3309C260.044 96.6157 268.233 99.0666 275.416 103.462C283.212 108.232 289.508 115.1 293.585 123.28C297.661 131.46 299.354 140.621 298.468 149.718C297.583 158.814 294.155 167.478 288.578 174.718C283 181.958 275.498 187.483 266.929 190.66C258.359 193.837 249.069 194.539 240.119 192.684C231.17 190.83 222.923 186.494 216.322 180.174C210.239 174.35 205.78 167.057 203.363 159.016C203.021 157.878 201.856 157.178 200.704 157.47Z" fill="#F2994A"/>
<path d="M234 141.782C234 140.458 234 139.796 234.054 139.291C234.102 138.846 234.177 138.484 234.271 138.258C234.377 138 234.516 138 234.794 138H264.206C264.484 138 264.623 138 264.729 138.258C264.823 138.484 264.898 138.846 264.946 139.291C265 139.796 265 140.458 265 141.782V147.218C265 148.542 265 149.204 264.946 149.709C264.898 150.154 264.823 150.516 264.729 150.742C264.623 151 264.484 151 264.206 151H234.794C234.516 151 234.377 151 234.271 150.742C234.177 150.516 234.102 150.154 234.054 149.709C234 149.204 234 148.542 234 147.218V141.782Z" fill="#424754"/>
<path d="M210 212.455C210 211.945 210 211.691 210.138 211.496C210.259 211.325 210.452 211.186 210.69 211.099C210.961 211 211.314 211 212.022 211H286.978C287.686 211 288.039 211 288.31 211.099C288.548 211.186 288.741 211.325 288.862 211.496C289 211.691 289 211.945 289 212.455V214.545C289 215.055 289 215.309 288.862 215.504C288.741 215.675 288.548 215.814 288.31 215.901C288.039 216 287.686 216 286.978 216H212.022C211.314 216 210.961 216 210.69 215.901C210.452 215.814 210.259 215.675 210.138 215.504C210 215.309 210 215.055 210 214.545V212.455Z" fill="#97999D"/>
<path d="M372.045 109.045C371.204 108.204 369.839 108.202 369.033 109.075C361.235 117.533 356.387 128.317 355.255 139.805C354.053 152.008 357.12 164.25 363.932 174.445C370.744 184.641 380.881 192.158 392.615 195.718C404.349 199.277 416.954 198.658 428.282 193.966C439.611 189.273 448.962 180.798 454.742 169.984C460.522 159.17 462.374 146.686 459.982 134.66C457.589 122.634 451.101 111.809 441.623 104.03C432.7 96.7074 421.646 92.5103 410.151 92.0436C408.964 91.9954 408 92.9632 408 94.1514C408 95.3396 408.964 96.2979 410.151 96.3503C420.65 96.8143 430.74 100.665 438.893 107.357C447.602 114.504 453.564 124.45 455.761 135.5C457.959 146.55 456.258 158.02 450.947 167.956C445.636 177.892 437.044 185.679 426.636 189.99C416.227 194.302 404.645 194.871 393.864 191.6C383.083 188.33 373.769 181.422 367.51 172.055C361.251 162.687 358.433 151.439 359.537 140.227C360.571 129.73 364.983 119.872 372.079 112.12C372.881 111.244 372.885 109.885 372.045 109.045Z" fill="#219653"/>
<path d="M392 141.782C392 140.458 392 139.796 392.054 139.291C392.102 138.846 392.177 138.484 392.271 138.258C392.377 138 392.516 138 392.794 138H422.206C422.484 138 422.623 138 422.729 138.258C422.823 138.484 422.898 138.846 422.946 139.291C423 139.796 423 140.458 423 141.782V147.218C423 148.542 423 149.204 422.946 149.709C422.898 150.154 422.823 150.516 422.729 150.742C422.623 151 422.484 151 422.206 151H392.794C392.516 151 392.377 151 392.271 150.742C392.177 150.516 392.102 150.154 392.054 149.709C392 149.204 392 148.542 392 147.218V141.782Z" fill="#424754"/>
<path d="M368 212.455C368 211.945 368 211.691 368.138 211.496C368.259 211.325 368.452 211.186 368.69 211.099C368.961 211 369.314 211 370.022 211H444.978C445.686 211 446.039 211 446.31 211.099C446.548 211.186 446.741 211.325 446.862 211.496C447 211.691 447 211.945 447 212.455V214.545C447 215.055 447 215.309 446.862 215.504C446.741 215.675 446.548 215.814 446.31 215.901C446.039 216 445.686 216 444.978 216H370.022C369.314 216 368.961 216 368.69 215.901C368.452 215.814 368.259 215.675 368.138 215.504C368 215.309 368 215.055 368 214.545V212.455Z" fill="#97999D"/>
<path d="M39 24.4545C39 23.9454 39 23.6908 39.0994 23.4964C39.1868 23.3253 39.3264 23.1862 39.498 23.0991C39.693 23 39.9484 23 40.4592 23H94.5408C95.0516 23 95.307 23 95.502 23.0991C95.6736 23.1862 95.8132 23.3253 95.9006 23.4964C96 23.6908 96 23.9454 96 24.4545V26.5455C96 27.0546 96 27.3092 95.9006 27.5036C95.8132 27.6747 95.6736 27.8138 95.502 27.9009C95.307 28 95.0516 28 94.5408 28H40.4592C39.9484 28 39.693 28 39.498 27.9009C39.3264 27.8138 39.1868 27.6747 39.0994 27.5036C39 27.3092 39 27.0546 39 26.5455V24.4545Z" fill="#424754"/>
<path d="M447 24.4545C447 23.9454 447 23.6908 447.031 23.4964C447.059 23.3253 447.103 23.1862 447.157 23.0991C447.219 23 447.3 23 447.461 23H464.539C464.7 23 464.781 23 464.843 23.0991C464.897 23.1862 464.941 23.3253 464.969 23.4964C465 23.6908 465 23.9454 465 24.4545V26.5455C465 27.0546 465 27.3092 464.969 27.5036C464.941 27.6747 464.897 27.8138 464.843 27.9009C464.781 28 464.7 28 464.539 28H447.461C447.3 28 447.219 28 447.157 27.9009C447.103 27.8138 447.059 27.6747 447.031 27.5036C447 27.3092 447 27.0546 447 26.5455V24.4545Z" fill="#97999D"/>
<path d="M39 262.527C39 260.593 39 259.625 39.0994 258.886C39.1868 258.236 39.3264 257.708 39.498 257.377C39.693 257 39.9484 257 40.4592 257H94.5408C95.0516 257 95.307 257 95.502 257.377C95.6736 257.708 95.8132 258.236 95.9006 258.886C96 259.625 96 260.593 96 262.527V270.473C96 272.407 96 273.375 95.9006 274.114C95.8132 274.764 95.6736 275.292 95.502 275.623C95.307 276 95.0516 276 94.5408 276H40.4592C39.9484 276 39.693 276 39.498 275.623C39.3264 275.292 39.1868 274.764 39.0994 274.114C39 273.375 39 272.407 39 270.473V262.527Z" fill="#F04B5D"/>
<path d="M667.7 40H674V19.624H683.144V40H689.444V14.26H667.7V40ZM692.798 30.784C692.798 36.58 697.478 40.432 703.31 40.432C709.142 40.432 713.822 36.58 713.822 30.784C713.822 24.952 709.142 21.028 703.274 21.028C697.478 21.028 692.798 24.952 692.798 30.784ZM699.098 30.784C699.098 27.976 701.042 26.212 703.31 26.212C705.578 26.212 707.522 27.976 707.522 30.784C707.522 33.556 705.578 35.248 703.31 35.248C701.042 35.248 699.098 33.556 699.098 30.784ZM723.428 35.068C724.724 32.584 725.084 29.884 725.084 27.076V26.392H728.288V35.068H723.428ZM715.004 35.068V44.32H720.764V40H731.636V44.32H737.18V35.068H734.516V21.46H719.216V25.924C719.216 29.668 718.532 32.98 717.308 35.068H715.004ZM740.037 40H746.265V26.68H753.105V21.46H740.037V40ZM754.427 30.784C754.427 36.58 759.107 40.432 764.939 40.432C770.771 40.432 775.451 36.58 775.451 30.784C775.451 24.952 770.771 21.028 764.903 21.028C759.107 21.028 754.427 24.952 754.427 30.784ZM760.727 30.784C760.727 27.976 762.671 26.212 764.939 26.212C767.207 26.212 769.151 27.976 769.151 30.784C769.151 33.556 767.207 35.248 764.939 35.248C762.671 35.248 760.727 33.556 760.727 30.784ZM782.426 40H788.654V26.68H794.306V21.46H776.81V26.68H782.426V40ZM795.665 30.784C795.665 36.58 800.345 40.432 806.177 40.432C812.009 40.432 816.689 36.58 816.689 30.784C816.689 24.952 812.009 21.028 806.141 21.028C800.345 21.028 795.665 24.952 795.665 30.784ZM801.965 30.784C801.965 27.976 803.909 26.212 806.177 26.212C808.445 26.212 810.389 27.976 810.389 30.784C810.389 33.556 808.445 35.248 806.177 35.248C803.909 35.248 801.965 33.556 801.965 30.784ZM819.807 40H829.923C833.595 40 836.979 38.56 836.979 34.492C836.979 32.872 836.187 31.036 834.063 30.388V30.352C835.467 29.524 836.223 27.868 836.223 26.32C836.223 23.116 833.631 21.46 829.923 21.46H819.807V40ZM826.035 28.768V25.312H828.303C829.527 25.312 830.031 26.068 830.031 26.932C830.031 27.904 829.527 28.768 828.375 28.768H826.035ZM826.035 36.112V32.404H828.807C830.139 32.404 830.751 33.268 830.751 34.276C830.751 35.212 830.103 36.112 828.771 36.112H826.035ZM840.197 40H846.245L851.393 31.864C851.681 31.36 852.077 30.784 852.401 30.028H852.473C852.401 30.748 852.401 31.468 852.401 31.9V40H858.269V21.46H852.221L847.073 29.632C846.749 30.172 846.389 30.712 846.065 31.468H845.993C846.029 31 846.065 30.28 846.065 29.632V21.46H840.197V40ZM861.659 40H867.599L868.031 31.468C868.103 30.028 867.995 28.3 867.995 28.3H868.067C868.067 28.3 868.751 29.848 869.147 31.036L871.595 37.516H876.635L879.083 31.036C879.551 29.884 880.091 28.3 880.091 28.3H880.163C880.163 28.3 880.091 30.028 880.127 31.468L880.559 40H886.535L884.771 21.46H877.607L874.871 29.596C874.547 30.532 874.115 31.756 874.115 31.756H874.079C874.079 31.756 873.683 30.532 873.359 29.596L870.623 21.46H863.423L861.659 40ZM667.088 82H673.316V75.196H675.26L679.184 82H686.276L680.084 72.352V72.28L685.52 63.46H678.752L675.08 69.976H673.316V63.46H667.088V82ZM697.358 82H707.474C711.146 82 714.53 80.56 714.53 76.492C714.53 74.872 713.738 73.036 711.614 72.388V72.352C713.018 71.524 713.774 69.868 713.774 68.32C713.774 65.116 711.182 63.46 707.474 63.46H697.358V82ZM703.586 70.768V67.312H705.854C707.078 67.312 707.582 68.068 707.582 68.932C707.582 69.904 707.078 70.768 705.926 70.768H703.586ZM703.586 78.112V74.404H706.358C707.69 74.404 708.302 75.268 708.302 76.276C708.302 77.212 707.654 78.112 706.322 78.112H703.586ZM736.252 82H742.48V63.46H736.252V82ZM717.748 82H726.784C731.968 82 734.128 79.444 734.128 75.664C734.128 71.92 731.968 69.256 726.784 69.256H723.976V63.46H717.748V82ZM723.976 77.932V73.288H725.524C727.108 73.288 727.9 74.332 727.9 75.628C727.9 76.924 727.108 77.932 725.632 77.932H723.976ZM746.647 82H752.875V68.68H758.383V82H764.611V63.46H746.647V82ZM768.975 83.692L766.995 88.264C766.995 88.264 768.867 89.56 771.315 89.56C774.267 89.56 777.507 88.12 779.055 83.98L786.651 63.46H779.847L777.507 72.1C777.255 73.108 776.895 74.872 776.895 74.872H776.823C776.823 74.872 776.463 73 776.139 71.992L773.403 63.46H766.347L774.231 81.64L773.871 82.504C773.223 84.088 771.891 84.376 770.883 84.376C769.983 84.376 768.975 83.692 768.975 83.692ZM787.298 72.712C787.298 77.824 791.006 82.432 797.63 82.432C800.726 82.432 803.75 81.244 805.586 79.372L803.318 75.016C801.986 76.168 800.042 77.248 798.242 77.248C795.11 77.248 793.598 74.836 793.598 72.64C793.598 70.444 795.074 68.212 798.026 68.212C799.646 68.212 801.302 68.968 802.382 70.012L805.01 65.836C803.174 63.856 800.222 63.028 797.63 63.028C790.97 63.028 787.298 67.744 787.298 72.712ZM808.205 82H814.433V75.196H816.377L820.301 82H827.393L821.201 72.352V72.28L826.637 63.46H819.869L816.197 69.976H814.433V63.46H808.205V82ZM829.475 82H835.703V75.232H841.427V82H847.655V63.46H841.427V70.012H835.703V63.46H829.475V82ZM870.338 82H876.566V63.46H870.338V82ZM851.834 82H860.87C866.054 82 868.214 79.444 868.214 75.664C868.214 71.92 866.054 69.256 860.87 69.256H858.062V63.46H851.834V82ZM858.062 77.932V73.288H859.61C861.194 73.288 861.986 74.332 861.986 75.628C861.986 76.924 861.194 77.932 859.718 77.932H858.062ZM879.941 82H885.881L886.313 73.468C886.385 72.028 886.277 70.3 886.277 70.3H886.349C886.349 70.3 887.033 71.848 887.429 73.036L889.877 79.516H894.917L897.365 73.036C897.833 71.884 898.373 70.3 898.373 70.3H898.445C898.445 70.3 898.373 72.028 898.409 73.468L898.841 82H904.817L903.053 63.46H895.889L893.153 71.596C892.829 72.532 892.397 73.756 892.397 73.756H892.361C892.361 73.756 891.965 72.532 891.641 71.596L888.905 63.46H881.705L879.941 82ZM667.088 124H673.136L678.284 115.864C678.572 115.36 678.968 114.784 679.292 114.028H679.364C679.292 114.748 679.292 115.468 679.292 115.9V124H685.16V105.46H679.112L673.964 113.632C673.64 114.172 673.28 114.712 672.956 115.468H672.884C672.92 115 672.956 114.28 672.956 113.632V105.46H667.088V124ZM698.342 124H708.458C712.13 124 715.514 122.56 715.514 118.492C715.514 116.872 714.722 115.036 712.598 114.388V114.352C714.002 113.524 714.758 111.868 714.758 110.32C714.758 107.116 712.166 105.46 708.458 105.46H698.342V124ZM704.57 112.768V109.312H706.838C708.062 109.312 708.566 110.068 708.566 110.932C708.566 111.904 708.062 112.768 706.91 112.768H704.57ZM704.57 120.112V116.404H707.342C708.674 116.404 709.286 117.268 709.286 118.276C709.286 119.212 708.638 120.112 707.306 120.112H704.57ZM717.689 114.712C717.689 119.824 721.397 124.432 728.021 124.432C731.117 124.432 734.141 123.244 735.977 121.372L733.709 117.016C732.377 118.168 730.433 119.248 728.633 119.248C725.501 119.248 723.989 116.836 723.989 114.64C723.989 112.444 725.465 110.212 728.417 110.212C730.037 110.212 731.693 110.968 732.773 112.012L735.401 107.836C733.565 105.856 730.613 105.028 728.021 105.028C721.361 105.028 717.689 109.744 717.689 114.712ZM742.664 124H748.892V110.68H754.544V105.46H737.048V110.68H742.664V124ZM757.338 125.692L755.358 130.264C755.358 130.264 757.23 131.56 759.678 131.56C762.63 131.56 765.87 130.12 767.418 125.98L775.014 105.46H768.21L765.87 114.1C765.618 115.108 765.258 116.872 765.258 116.872H765.186C765.186 116.872 764.826 115 764.502 113.992L761.766 105.46H754.71L762.594 123.64L762.234 124.504C761.586 126.088 760.254 126.376 759.246 126.376C758.346 126.376 757.338 125.692 757.338 125.692ZM777.338 124H783.566V110.68H789.074V124H795.302V105.46H777.338V124ZM799.486 124H805.534L810.682 115.864C810.97 115.36 811.366 114.784 811.69 114.028H811.762C811.69 114.748 811.69 115.468 811.69 115.9V124H817.558V105.46H811.51L806.362 113.632C806.038 114.172 805.678 114.712 805.354 115.468H805.282C805.318 115 805.354 114.28 805.354 113.632V105.46H799.486V124ZM825.808 124H832.036V110.68H837.688V105.46H820.192V110.68H825.808V124ZM839.048 114.712C839.048 119.644 842.612 124.432 849.236 124.432C852.08 124.432 855.14 123.46 857.156 121.732L854.852 117.376C853.34 118.384 851.576 119.248 849.74 119.248C847.76 119.248 845.888 118.204 845.42 115.936H857.12C857.192 115.288 857.264 114.64 857.264 113.992C857.264 108.844 854.168 105.028 848.696 105.028C842.72 105.028 839.048 109.276 839.048 114.712ZM845.564 112.372C845.888 110.896 846.752 109.6 848.552 109.6C850.136 109.6 851.108 110.86 851.108 112.372H845.564ZM859.009 124.18C866.209 124.18 868.369 118.996 868.369 111.436V110.392H871.465V124H877.693V105.46H862.501V111.4C862.501 117.772 860.665 118.528 859.009 118.744V124.18ZM881.858 124H891.11C896.294 124 898.454 121.444 898.454 117.664C898.454 113.92 896.294 111.256 891.11 111.256H888.086V105.46H881.858V124ZM888.086 119.932V115.288H889.85C891.434 115.288 892.226 116.332 892.226 117.628C892.226 118.924 891.434 119.932 889.958 119.932H888.086ZM901.193 124H907.421V117.232H913.145V124H919.373V105.46H913.145V112.012H907.421V105.46H901.193V124ZM942.057 124H948.285V105.46H942.057V124ZM923.553 124H932.589C937.773 124 939.933 121.444 939.933 117.664C939.933 113.92 937.773 111.256 932.589 111.256H929.781V105.46H923.553V124ZM929.781 119.932V115.288H931.329C932.913 115.288 933.705 116.332 933.705 117.628C933.705 118.924 932.913 119.932 931.437 119.932H929.781ZM951.659 124H957.599L958.031 115.468C958.103 114.028 957.995 112.3 957.995 112.3H958.067C958.067 112.3 958.751 113.848 959.147 115.036L961.595 121.516H966.635L969.083 115.036C969.551 113.884 970.091 112.3 970.091 112.3H970.163C970.163 112.3 970.091 114.028 970.127 115.468L970.559 124H976.535L974.771 105.46H967.607L964.871 113.596C964.547 114.532 964.115 115.756 964.115 115.756H964.079C964.079 115.756 963.683 114.532 963.359 113.596L960.623 105.46H953.423L951.659 124ZM665.576 163.768C667.772 165.604 670.616 166.432 673.424 166.432C680.048 166.432 683.756 161.824 683.756 156.712C683.756 151.744 680.228 147.028 673.568 147.028C670.832 147.028 667.772 147.82 665.9 149.584L668.42 153.616C669.716 152.5 671.444 151.852 673.244 151.852C675.548 151.852 677.168 152.932 677.816 154.624H670.796V158.728H677.78C677.168 160.348 675.548 161.608 672.992 161.608C670.976 161.608 669.212 160.816 667.736 159.592L665.576 163.768ZM686.881 166H693.109V159.196H695.053L698.977 166H706.069L699.877 156.352V156.28L705.313 147.46H698.545L694.873 153.976H693.109V147.46H686.881V166ZM706.603 163.696C708.619 165.496 711.607 166.432 714.343 166.432C718.735 166.432 722.011 164.452 722.011 160.528C722.011 158.368 720.535 157.072 719.131 156.424V156.352C720.247 155.74 721.435 154.48 721.435 152.176C721.435 148.972 718.411 147.028 714.595 147.028C711.211 147.028 708.835 147.928 707.107 149.116L708.907 152.968C710.851 151.816 712.291 151.564 713.299 151.564C714.883 151.564 715.243 152.248 715.243 153.04C715.243 154.192 714.343 154.48 713.371 154.48H711.499V158.584H713.767C715.459 158.584 715.783 159.232 715.783 160.132C715.783 160.996 715.279 161.752 713.551 161.752C712.075 161.752 710.239 160.852 709.087 159.808L706.603 163.696ZM723.834 160.78C723.834 163.984 726.318 166.432 729.882 166.432C732.006 166.432 734.166 165.46 735.39 163.732H735.462C735.462 163.732 735.39 164.272 735.39 164.884V166H741.078V154.588C741.078 149.872 737.91 147.028 732.798 147.028C729.774 147.028 726.534 148.216 724.95 149.44L727.11 153.832C728.586 152.86 730.422 152.068 732.222 152.068C733.59 152.068 734.85 152.572 734.85 154.12V154.444H734.31C729.738 154.444 723.834 155.812 723.834 160.78ZM729.99 160.204C729.99 158.512 732.438 158.008 734.346 158.008H734.922V158.512C734.922 160.024 733.554 161.788 731.754 161.788C730.602 161.788 729.99 161.068 729.99 160.204ZM744.237 166H750.177L750.609 157.468C750.681 156.028 750.573 154.3 750.573 154.3H750.645C750.645 154.3 751.329 155.848 751.725 157.036L754.173 163.516H759.213L761.661 157.036C762.129 155.884 762.669 154.3 762.669 154.3H762.741C762.741 154.3 762.669 156.028 762.705 157.468L763.137 166H769.113L767.349 147.46H760.185L757.449 155.596C757.125 156.532 756.693 157.756 756.693 157.756H756.657C756.657 157.756 756.261 156.532 755.937 155.596L753.201 147.46H746.001L744.237 166ZM771.442 156.712C771.442 161.644 775.006 166.432 781.63 166.432C784.474 166.432 787.534 165.46 789.55 163.732L787.246 159.376C785.734 160.384 783.97 161.248 782.134 161.248C780.154 161.248 778.282 160.204 777.814 157.936H789.514C789.586 157.288 789.658 156.64 789.658 155.992C789.658 150.844 786.562 147.028 781.09 147.028C775.114 147.028 771.442 151.276 771.442 156.712ZM777.958 154.372C778.282 152.896 779.146 151.6 780.946 151.6C782.53 151.6 783.502 152.86 783.502 154.372H777.958ZM792.912 166H799.14V159.232H804.864V166H811.092V147.46H804.864V154.012H799.14V147.46H792.912V166ZM813.94 160.78C813.94 163.984 816.424 166.432 819.988 166.432C822.112 166.432 824.272 165.46 825.496 163.732H825.568C825.568 163.732 825.496 164.272 825.496 164.884V166H831.184V154.588C831.184 149.872 828.016 147.028 822.904 147.028C819.88 147.028 816.64 148.216 815.056 149.44L817.216 153.832C818.692 152.86 820.528 152.068 822.328 152.068C823.696 152.068 824.956 152.572 824.956 154.12V154.444H824.416C819.844 154.444 813.94 155.812 813.94 160.78ZM820.096 160.204C820.096 158.512 822.544 158.008 824.452 158.008H825.028V158.512C825.028 160.024 823.66 161.788 821.86 161.788C820.708 161.788 820.096 161.068 820.096 160.204ZM834.343 166H840.283L840.715 157.468C840.787 156.028 840.679 154.3 840.679 154.3H840.751C840.751 154.3 841.435 155.848 841.831 157.036L844.279 163.516H849.319L851.767 157.036C852.235 155.884 852.775 154.3 852.775 154.3H852.847C852.847 154.3 852.775 156.028 852.811 157.468L853.243 166H859.219L857.455 147.46H850.291L847.555 155.596C847.231 156.532 846.799 157.756 846.799 157.756H846.763C846.763 157.756 846.367 156.532 846.043 155.596L843.307 147.46H836.107L834.343 166Z" fill="#222224"/>
<path d="M666.674 225H668.456V213.84H674.9V225H676.682V212.292H666.674V225ZM678.94 220.428C678.94 223.2 681.136 225.216 683.854 225.216C686.554 225.216 688.75 223.2 688.75 220.428C688.75 217.674 686.554 215.676 683.836 215.676C681.136 215.676 678.94 217.674 678.94 220.428ZM680.722 220.428C680.722 218.538 682.126 217.188 683.854 217.188C685.564 217.188 686.986 218.538 686.986 220.428C686.986 222.336 685.564 223.704 683.854 223.704C682.126 223.704 680.722 222.336 680.722 220.428ZM690.854 225H694.742C696.722 225 698.09 224.1 698.09 222.408C698.09 221.4 697.496 220.518 696.362 220.248V220.23C697.19 219.87 697.658 219.114 697.658 218.232C697.658 216.702 696.452 215.892 694.616 215.892H690.854V225ZM692.6 219.744V217.098H694.256C695.354 217.098 695.876 217.53 695.876 218.358C695.876 219.204 695.354 219.744 694.31 219.744H692.6ZM692.6 223.776V220.914H694.454C695.66 220.914 696.326 221.454 696.326 222.354C696.326 223.2 695.732 223.776 694.472 223.776H692.6ZM708.449 225H710.195V215.892H708.449V225ZM700.205 225H703.715C706.001 225 707.045 223.83 707.045 222.12C707.045 220.05 705.623 219.186 703.733 219.186H701.951V215.892H700.205V225ZM701.951 223.74V220.446H703.463C704.723 220.446 705.281 221.13 705.281 222.102C705.281 223.056 704.741 223.74 703.481 223.74H701.951ZM712.303 220.446C712.303 223.182 714.301 225.216 717.181 225.216C718.603 225.216 719.989 224.64 720.817 223.758L720.115 222.48C719.413 223.218 718.315 223.704 717.307 223.704C715.417 223.704 714.085 222.282 714.085 220.428C714.085 218.574 715.417 217.188 717.253 217.188C718.207 217.188 719.161 217.62 719.773 218.232L720.601 217.008C719.737 216.09 718.387 215.676 717.181 215.676C714.319 215.676 712.303 217.746 712.303 220.446ZM722.705 225H724.379L728.321 219.564C728.609 219.132 729.059 218.52 729.113 218.358H729.149C729.149 218.502 729.095 219.132 729.095 219.564V225H730.787V215.892H729.095L725.171 221.328C724.865 221.76 724.433 222.39 724.361 222.552H724.325C724.343 222.462 724.379 221.814 724.379 221.328V215.892H722.705V225ZM733.085 225H734.777L735.173 219.582C735.209 219.042 735.155 218.016 735.155 218.016H735.191C735.191 218.016 735.479 218.7 735.767 219.366L737.927 223.902H739.421L741.581 219.348C741.923 218.646 742.157 218.016 742.157 218.016H742.193C742.193 218.016 742.157 219.042 742.175 219.582L742.571 225H744.263L743.471 215.892H741.563L739.187 221.04C738.953 221.598 738.683 222.264 738.683 222.264H738.647C738.647 222.264 738.395 221.58 738.143 221.04L735.821 215.892H733.877L733.085 225ZM750.662 226.89L750.05 228.222C750.05 228.222 750.788 228.78 751.796 228.78C753.074 228.78 754.208 228.06 754.748 226.638L759.032 215.892H757.142L754.928 221.868C754.766 222.336 754.622 222.948 754.622 222.948H754.586C754.586 222.948 754.424 222.3 754.244 221.85L751.958 215.892H749.996L753.812 224.892L753.362 225.936C753.02 226.764 752.426 227.286 751.706 227.286C751.166 227.286 750.662 226.89 750.662 226.89ZM759.834 220.446C759.834 223.182 761.832 225.216 764.712 225.216C766.134 225.216 767.52 224.64 768.348 223.758L767.646 222.48C766.944 223.218 765.846 223.704 764.838 223.704C762.948 223.704 761.616 222.282 761.616 220.428C761.616 218.574 762.948 217.188 764.784 217.188C765.738 217.188 766.692 217.62 767.304 218.232L768.132 217.008C767.268 216.09 765.918 215.676 764.712 215.676C761.85 215.676 759.834 217.746 759.834 220.446ZM770.237 225H771.983V217.386H776.447V225H778.193V215.892H770.237V225ZM780.295 220.446C780.295 223.146 782.275 225.216 785.137 225.216C786.397 225.216 787.783 224.73 788.665 223.92L787.927 222.642C787.207 223.29 786.217 223.704 785.245 223.704C783.607 223.704 782.203 222.642 782.113 220.68H788.737C788.773 220.428 788.809 220.176 788.809 219.942C788.809 217.602 787.441 215.676 784.867 215.676C782.275 215.676 780.295 217.548 780.295 220.446ZM782.167 219.42C782.419 217.908 783.481 217.026 784.831 217.026C786.019 217.026 786.991 217.854 787.045 219.42H782.167ZM790.909 225H794.797C796.777 225 798.145 224.1 798.145 222.408C798.145 221.4 797.551 220.518 796.417 220.248V220.23C797.245 219.87 797.713 219.114 797.713 218.232C797.713 216.702 796.507 215.892 794.671 215.892H790.909V225ZM792.655 219.744V217.098H794.311C795.409 217.098 795.931 217.53 795.931 218.358C795.931 219.204 795.409 219.744 794.365 219.744H792.655ZM792.655 223.776V220.914H794.509C795.715 220.914 796.381 221.454 796.381 222.354C796.381 223.2 795.787 223.776 794.527 223.776H792.655ZM799.504 222.516C799.504 224.226 800.962 225.216 802.546 225.216C803.896 225.216 805.012 224.406 805.534 223.362H805.57C805.57 223.362 805.516 223.668 805.516 224.082V225H807.154V219.24C807.154 216.936 805.84 215.676 803.554 215.676C802.276 215.676 800.89 216.144 800.152 216.756L800.854 218.034C801.592 217.512 802.51 217.152 803.41 217.152C804.544 217.152 805.408 217.656 805.408 219.15V219.33H804.94C803.05 219.33 799.504 219.654 799.504 222.516ZM801.25 222.372C801.25 220.698 803.662 220.59 804.958 220.59H805.408V220.932C805.408 222.282 804.49 223.83 802.96 223.83C801.826 223.83 801.25 223.092 801.25 222.372ZM809.141 220.446C809.141 223.146 811.121 225.216 813.983 225.216C815.243 225.216 816.629 224.73 817.511 223.92L816.773 222.642C816.053 223.29 815.063 223.704 814.091 223.704C812.453 223.704 811.049 222.642 810.959 220.68H817.583C817.619 220.428 817.655 220.176 817.655 219.942C817.655 217.602 816.287 215.676 813.713 215.676C811.121 215.676 809.141 217.548 809.141 220.446ZM811.013 219.42C811.265 217.908 812.327 217.026 813.677 217.026C814.865 217.026 815.837 217.854 815.891 219.42H811.013ZM819.376 225H821.068L821.464 219.582C821.5 219.042 821.446 218.016 821.446 218.016H821.482C821.482 218.016 821.77 218.7 822.058 219.366L824.218 223.902H825.712L827.872 219.348C828.214 218.646 828.448 218.016 828.448 218.016H828.484C828.484 218.016 828.448 219.042 828.466 219.582L828.862 225H830.554L829.762 215.892H827.854L825.478 221.04C825.244 221.598 824.974 222.264 824.974 222.264H824.938C824.938 222.264 824.686 221.58 824.434 221.04L822.112 215.892H820.168L819.376 225ZM832.309 220.428C832.309 223.2 834.505 225.216 837.223 225.216C839.923 225.216 842.119 223.2 842.119 220.428C842.119 217.674 839.923 215.676 837.205 215.676C834.505 215.676 832.309 217.674 832.309 220.428ZM834.091 220.428C834.091 218.538 835.495 217.188 837.223 217.188C838.933 217.188 840.355 218.538 840.355 220.428C840.355 222.336 838.933 223.704 837.223 223.704C835.495 223.704 834.091 222.336 834.091 220.428ZM843.629 220.446C843.629 223.182 845.627 225.216 848.507 225.216C849.929 225.216 851.315 224.64 852.143 223.758L851.441 222.48C850.739 223.218 849.641 223.704 848.633 223.704C846.743 223.704 845.411 222.282 845.411 220.428C845.411 218.574 846.743 217.188 848.579 217.188C849.533 217.188 850.487 217.62 851.099 218.232L851.927 217.008C851.063 216.09 849.713 215.676 848.507 215.676C845.645 215.676 843.629 217.746 843.629 220.446ZM856.228 225H857.956V217.386H861.142V215.892H853.06V217.386H856.228V225ZM862.856 225H866.402C868.706 225 869.75 223.83 869.75 222.12C869.75 220.05 868.328 219.186 866.438 219.186H864.602V215.892H862.856V225ZM864.602 223.74V220.446H866.168C867.428 220.446 867.968 221.13 867.968 222.102C867.968 223.056 867.428 223.74 866.168 223.74H864.602ZM876.127 225H877.801L881.743 219.564C882.031 219.132 882.481 218.52 882.535 218.358H882.571C882.571 218.502 882.517 219.132 882.517 219.564V225H884.209V215.892H882.517L878.593 221.328C878.287 221.76 877.855 222.39 877.783 222.552H877.747C877.765 222.462 877.801 221.814 877.801 221.328V215.892H876.127V225ZM891.385 225H893.131V217.386H897.595V225H899.341V215.892H891.385V225ZM901.444 220.428C901.444 223.2 903.64 225.216 906.358 225.216C909.058 225.216 911.254 223.2 911.254 220.428C911.254 217.674 909.058 215.676 906.34 215.676C903.64 215.676 901.444 217.674 901.444 220.428ZM903.226 220.428C903.226 218.538 904.63 217.188 906.358 217.188C908.068 217.188 909.49 218.538 909.49 220.428C909.49 222.336 908.068 223.704 906.358 223.704C904.63 223.704 903.226 222.336 903.226 220.428ZM912.98 225H914.672L915.068 219.582C915.104 219.042 915.05 218.016 915.05 218.016H915.086C915.086 218.016 915.374 218.7 915.662 219.366L917.822 223.902H919.316L921.476 219.348C921.818 218.646 922.052 218.016 922.052 218.016H922.088C922.088 218.016 922.052 219.042 922.07 219.582L922.466 225H924.158L923.366 215.892H921.458L919.082 221.04C918.848 221.598 918.578 222.264 918.578 222.264H918.542C918.542 222.264 918.29 221.58 918.038 221.04L915.716 215.892H913.772L912.98 225ZM925.912 220.428C925.912 223.2 928.108 225.216 930.826 225.216C933.526 225.216 935.722 223.2 935.722 220.428C935.722 217.674 933.526 215.676 930.808 215.676C928.108 215.676 925.912 217.674 925.912 220.428ZM927.694 220.428C927.694 218.538 929.098 217.188 930.826 217.188C932.536 217.188 933.958 218.538 933.958 220.428C933.958 222.336 932.536 223.704 930.826 223.704C929.098 223.704 927.694 222.336 927.694 220.428ZM936.501 225H938.445L940.839 221.112H942.135V225H943.791V221.112H945.105L947.481 225H949.443L946.509 220.32V220.284L949.173 215.892H947.337L945.087 219.618H943.791V215.892H942.135V219.618H940.839L938.607 215.892H936.753L939.435 220.284V220.32L936.501 225ZM950.205 220.446C950.205 223.146 952.185 225.216 955.047 225.216C956.307 225.216 957.693 224.73 958.575 223.92L957.837 222.642C957.117 223.29 956.127 223.704 955.155 223.704C953.517 223.704 952.113 222.642 952.023 220.68H958.647C958.683 220.428 958.719 220.176 958.719 219.942C958.719 217.602 957.351 215.676 954.777 215.676C952.185 215.676 950.205 217.548 950.205 220.446ZM952.077 219.42C952.329 217.908 953.391 217.026 954.741 217.026C955.929 217.026 956.901 217.854 956.955 219.42H952.077ZM960.441 225H962.133L962.529 219.582C962.565 219.042 962.511 218.016 962.511 218.016H962.547C962.547 218.016 962.835 218.7 963.123 219.366L965.283 223.902H966.777L968.937 219.348C969.279 218.646 969.513 218.016 969.513 218.016H969.549C969.549 218.016 969.513 219.042 969.531 219.582L969.927 225H971.619L970.827 215.892H968.919L966.543 221.04C966.309 221.598 966.039 222.264 966.039 222.264H966.003C966.003 222.264 965.751 221.58 965.499 221.04L963.177 215.892H961.233L960.441 225ZM665.756 248.428C665.756 251.2 667.952 253.216 670.67 253.216C673.37 253.216 675.566 251.2 675.566 248.428C675.566 245.674 673.37 243.676 670.652 243.676C667.952 243.676 665.756 245.674 665.756 248.428ZM667.538 248.428C667.538 246.538 668.942 245.188 670.67 245.188C672.38 245.188 673.802 246.538 673.802 248.428C673.802 250.336 672.38 251.704 670.67 251.704C668.942 251.704 667.538 250.336 667.538 248.428ZM677.67 253H679.416V245.386H683.88V253H685.626V243.892H677.67V253ZM688.323 256.6H690.069V252.46C690.069 251.992 689.997 251.668 689.997 251.668H690.033C690.663 252.64 691.707 253.216 692.859 253.216C695.253 253.216 696.981 251.344 696.981 248.446C696.981 245.62 695.451 243.676 692.985 243.676C691.653 243.676 690.501 244.288 689.925 245.386H689.889C689.889 245.386 689.943 245.08 689.943 244.702V243.892H688.323V256.6ZM690.015 248.482C690.015 246.178 691.275 245.206 692.643 245.206C694.155 245.206 695.217 246.484 695.217 248.464C695.217 250.534 694.029 251.704 692.589 251.704C690.915 251.704 690.015 250.102 690.015 248.482ZM698.539 248.446C698.539 251.146 700.519 253.216 703.381 253.216C704.641 253.216 706.027 252.73 706.909 251.92L706.171 250.642C705.451 251.29 704.461 251.704 703.489 251.704C701.851 251.704 700.447 250.642 700.357 248.68H706.981C707.017 248.428 707.053 248.176 707.053 247.942C707.053 245.602 705.685 243.676 703.111 243.676C700.519 243.676 698.539 245.548 698.539 248.446ZM700.411 247.42C700.663 245.908 701.725 245.026 703.075 245.026C704.263 245.026 705.235 245.854 705.289 247.42H700.411ZM710.935 251.56C712.087 249.76 712.231 247.168 712.231 245.8V245.314H714.967V251.56H710.935ZM708.019 251.56V255.16H709.657V253H716.407V255.16H718.009V251.56H716.713V243.892H710.557V245.566C710.557 246.97 710.413 249.814 709.135 251.56H708.019ZM719.141 248.446C719.141 251.146 721.121 253.216 723.983 253.216C725.243 253.216 726.629 252.73 727.511 251.92L726.773 250.642C726.053 251.29 725.063 251.704 724.091 251.704C722.453 251.704 721.049 250.642 720.959 248.68H727.583C727.619 248.428 727.655 248.176 727.655 247.942C727.655 245.602 726.287 243.676 723.713 243.676C721.121 243.676 719.141 245.548 719.141 248.446ZM721.013 247.42C721.265 245.908 722.327 245.026 723.677 245.026C724.865 245.026 725.837 245.854 725.891 247.42H721.013ZM728.764 253.09C731.446 252.946 732.49 250.822 732.49 246.7V245.332H735.172V253H736.918V243.892H730.816V246.7C730.816 249.994 730.096 251.326 728.764 251.524V253.09ZM739.616 253H741.29L745.232 247.564C745.52 247.132 745.97 246.52 746.024 246.358H746.06C746.06 246.502 746.006 247.132 746.006 247.564V253H747.698V243.892H746.006L742.082 249.328C741.776 249.76 741.344 250.39 741.272 250.552H741.236C741.254 250.462 741.29 249.814 741.29 249.328V243.892H739.616V253ZM752.569 253H754.297V245.386H757.483V243.892H749.401V245.386H752.569V253ZM759.198 253H762.744C765.048 253 766.092 251.83 766.092 250.12C766.092 248.05 764.67 247.186 762.78 247.186H760.944V243.892H759.198V253ZM760.944 251.74V248.446H762.51C763.77 248.446 764.31 249.13 764.31 250.102C764.31 251.056 763.77 251.74 762.51 251.74H760.944ZM767.375 248.446C767.375 251.182 769.373 253.216 772.253 253.216C773.675 253.216 775.061 252.64 775.889 251.758L775.187 250.48C774.485 251.218 773.387 251.704 772.379 251.704C770.489 251.704 769.157 250.282 769.157 248.428C769.157 246.574 770.489 245.188 772.325 245.188C773.279 245.188 774.233 245.62 774.845 246.232L775.673 245.008C774.809 244.09 773.459 243.676 772.253 243.676C769.391 243.676 767.375 245.746 767.375 248.446ZM776.86 253H778.786L781.018 249.706H782.548V253H784.294V243.892H780.658C778.732 243.892 777.4 244.882 777.4 246.754C777.4 248.14 778.336 249.112 779.38 249.4V249.418C779.38 249.418 779.164 249.652 778.966 249.976L776.86 253ZM781.036 248.428C779.974 248.428 779.164 247.87 779.164 246.736C779.164 245.566 779.92 245.098 781.09 245.098H782.548V248.428H781.036ZM790.895 248.446C790.895 251.182 792.893 253.216 795.773 253.216C797.195 253.216 798.581 252.64 799.409 251.758L798.707 250.48C798.005 251.218 796.907 251.704 795.899 251.704C794.009 251.704 792.677 250.282 792.677 248.428C792.677 246.574 794.009 245.188 795.845 245.188C796.799 245.188 797.753 245.62 798.365 246.232L799.193 245.008C798.329 244.09 796.979 243.676 795.773 243.676C792.911 243.676 790.895 245.746 790.895 248.446ZM805.797 253H807.543V249.094H812.151V253H813.897V243.892H812.151V247.6H807.543V243.892H805.797V253ZM815.834 250.516C815.834 252.226 817.292 253.216 818.876 253.216C820.226 253.216 821.342 252.406 821.864 251.362H821.9C821.9 251.362 821.846 251.668 821.846 252.082V253H823.484V247.24C823.484 244.936 822.17 243.676 819.884 243.676C818.606 243.676 817.22 244.144 816.482 244.756L817.184 246.034C817.922 245.512 818.84 245.152 819.74 245.152C820.874 245.152 821.738 245.656 821.738 247.15V247.33H821.27C819.38 247.33 815.834 247.654 815.834 250.516ZM817.58 250.372C817.58 248.698 819.992 248.59 821.288 248.59H821.738V248.932C821.738 250.282 820.82 251.83 819.29 251.83C818.156 251.83 817.58 251.092 817.58 250.372ZM826.065 253H827.811V245.386H832.275V253H834.021V243.892H826.065V253ZM836.717 256.6H838.463V252.46C838.463 251.992 838.391 251.668 838.391 251.668H838.427C839.057 252.64 840.101 253.216 841.253 253.216C843.647 253.216 845.375 251.344 845.375 248.446C845.375 245.62 843.845 243.676 841.379 243.676C840.047 243.676 838.895 244.288 838.319 245.386H838.283C838.283 245.386 838.337 245.08 838.337 244.702V243.892H836.717V256.6ZM838.409 248.482C838.409 246.178 839.669 245.206 841.037 245.206C842.549 245.206 843.611 246.484 843.611 248.464C843.611 250.534 842.423 251.704 840.983 251.704C839.309 251.704 838.409 250.102 838.409 248.482ZM846.772 250.516C846.772 252.226 848.23 253.216 849.814 253.216C851.164 253.216 852.28 252.406 852.802 251.362H852.838C852.838 251.362 852.784 251.668 852.784 252.082V253H854.422V247.24C854.422 244.936 853.108 243.676 850.822 243.676C849.544 243.676 848.158 244.144 847.42 244.756L848.122 246.034C848.86 245.512 849.778 245.152 850.678 245.152C851.812 245.152 852.676 245.656 852.676 247.15V247.33H852.208C850.318 247.33 846.772 247.654 846.772 250.516ZM848.518 250.372C848.518 248.698 850.93 248.59 852.226 248.59H852.676V248.932C852.676 250.282 851.758 251.83 850.228 251.83C849.094 251.83 848.518 251.092 848.518 250.372ZM857.002 253H860.89C862.87 253 864.238 252.1 864.238 250.408C864.238 249.4 863.644 248.518 862.51 248.248V248.23C863.338 247.87 863.806 247.114 863.806 246.232C863.806 244.702 862.6 243.892 860.764 243.892H857.002V253ZM858.748 247.744V245.098H860.404C861.502 245.098 862.024 245.53 862.024 246.358C862.024 247.204 861.502 247.744 860.458 247.744H858.748ZM858.748 251.776V248.914H860.602C861.808 248.914 862.474 249.454 862.474 250.354C862.474 251.2 861.88 251.776 860.62 251.776H858.748ZM865.364 253.09C868.046 252.946 869.09 250.822 869.09 246.7V245.332H871.772V253H873.518V243.892H867.416V246.7C867.416 249.994 866.696 251.326 865.364 251.524V253.09ZM875.621 248.446C875.621 251.146 877.601 253.216 880.463 253.216C881.723 253.216 883.109 252.73 883.991 251.92L883.253 250.642C882.533 251.29 881.543 251.704 880.571 251.704C878.933 251.704 877.529 250.642 877.439 248.68H884.063C884.099 248.428 884.135 248.176 884.135 247.942C884.135 245.602 882.767 243.676 880.193 243.676C877.601 243.676 875.621 245.548 875.621 248.446ZM877.493 247.42C877.745 245.908 878.807 245.026 880.157 245.026C881.345 245.026 882.317 245.854 882.371 247.42H877.493ZM886.235 253H887.981V249.094H892.589V253H894.335V243.892H892.589V247.6H887.981V243.892H886.235V253ZM897.028 253H898.702L902.644 247.564C902.932 247.132 903.382 246.52 903.436 246.358H903.472C903.472 246.502 903.418 247.132 903.418 247.564V253H905.11V243.892H903.418L899.494 249.328C899.188 249.76 898.756 250.39 898.684 250.552H898.648C898.666 250.462 898.702 249.814 898.702 249.328V243.892H897.028V253ZM907.192 248.446C907.192 251.146 909.172 253.216 912.034 253.216C913.294 253.216 914.68 252.73 915.562 251.92L914.824 250.642C914.104 251.29 913.114 251.704 912.142 251.704C910.504 251.704 909.1 250.642 909.01 248.68H915.634C915.67 248.428 915.706 248.176 915.706 247.942C915.706 245.602 914.338 243.676 911.764 243.676C909.172 243.676 907.192 245.548 907.192 248.446ZM909.064 247.42C909.316 245.908 910.378 245.026 911.728 245.026C912.916 245.026 913.888 245.854 913.942 247.42H909.064ZM917.427 253H919.119L919.515 247.582C919.551 247.042 919.497 246.016 919.497 246.016H919.533C919.533 246.016 919.821 246.7 920.109 247.366L922.269 251.902H923.763L925.923 247.348C926.265 246.646 926.499 246.016 926.499 246.016H926.535C926.535 246.016 926.499 247.042 926.517 247.582L926.913 253H928.605L927.813 243.892H925.905L923.529 249.04C923.295 249.598 923.025 250.264 923.025 250.264H922.989C922.989 250.264 922.737 249.58 922.485 249.04L920.163 243.892H918.219L917.427 253Z" fill="#505257"/>
</svg>
