<svg width="969" height="298" viewBox="0 0 969 298" fill="none" xmlns="http://www.w3.org/2000/svg">
<path d="M569.288 99H576.272L579.224 93.6C580.124 91.98 580.808 90.396 580.808 90.396H580.88C580.88 90.396 581.564 91.98 582.464 93.6L585.416 99H592.436L584.588 86.22L592.472 73.26H585.308L582.464 78.552C581.564 80.208 580.88 81.864 580.88 81.864H580.808C580.808 81.864 580.088 80.172 579.224 78.552L576.416 73.26H569.252L577.1 86.22L569.288 99ZM594.432 99H600.48L605.628 90.864C605.916 90.36 606.312 89.784 606.636 89.028H606.708C606.636 89.748 606.636 90.468 606.636 90.9V99H612.504V80.46H606.456L601.308 88.632C600.984 89.172 600.624 89.712 600.3 90.468H600.228C600.264 90 600.3 89.28 600.3 88.632V80.46H594.432V99ZM615.894 99H621.834L622.266 90.468C622.338 89.028 622.23 87.3 622.23 87.3H622.302C622.302 87.3 622.986 88.848 623.382 90.036L625.83 96.516H630.87L633.318 90.036C633.786 88.884 634.326 87.3 634.326 87.3H634.398C634.398 87.3 634.326 89.028 634.362 90.468L634.794 99H640.77L639.006 80.46H631.842L629.106 88.596C628.782 89.532 628.35 90.756 628.35 90.756H628.314C628.314 90.756 627.918 89.532 627.594 88.596L624.858 80.46H617.658L615.894 99ZM644.143 99H650.191L655.339 90.864C655.627 90.36 656.023 89.784 656.347 89.028H656.419C656.347 89.748 656.347 90.468 656.347 90.9V99H662.215V80.46H656.167L651.019 88.632C650.695 89.172 650.335 89.712 650.011 90.468H649.939C649.975 90 650.011 89.28 650.011 88.632V80.46H644.143V99ZM664.633 99H671.221L674.785 93.348H676.081V99H682.309V80.46H672.589C668.485 80.46 665.893 82.836 665.893 86.724C665.893 89.1 667.225 91.224 669.241 92.232V92.268C669.241 92.268 668.881 92.628 668.377 93.384L664.633 99ZM674.605 89.208C673.129 89.208 672.085 88.452 672.085 86.688C672.085 84.96 673.129 84.312 674.569 84.312H676.081V89.208H674.605ZM695.471 99H705.587C709.259 99 712.643 97.56 712.643 93.492C712.643 91.872 711.851 90.036 709.727 89.388V89.352C711.131 88.524 711.887 86.868 711.887 85.32C711.887 82.116 709.295 80.46 705.587 80.46H695.471V99ZM701.699 87.768V84.312H703.967C705.191 84.312 705.695 85.068 705.695 85.932C705.695 86.904 705.191 87.768 704.039 87.768H701.699ZM701.699 95.112V91.404H704.471C705.803 91.404 706.415 92.268 706.415 93.276C706.415 94.212 705.767 95.112 704.435 95.112H701.699ZM724.861 106.2H731.089V99.252C731.089 98.316 731.017 97.668 731.017 97.668H731.089C732.421 98.82 734.077 99.432 735.805 99.432C740.737 99.432 744.445 95.616 744.445 89.748C744.445 83.988 741.133 80.028 736.093 80.028C733.861 80.028 731.737 80.892 730.477 82.584H730.405C730.405 82.584 730.477 82.008 730.477 81.396V80.46H724.861V106.2ZM730.909 89.856C730.909 86.652 732.673 85.284 734.545 85.284C736.705 85.284 738.181 87.084 738.181 89.856C738.181 92.7 736.489 94.284 734.545 94.284C732.097 94.284 730.909 92.088 730.909 89.856ZM746.311 93.78C746.311 96.984 748.795 99.432 752.359 99.432C754.483 99.432 756.643 98.46 757.867 96.732H757.939C757.939 96.732 757.867 97.272 757.867 97.884V99H763.555V87.588C763.555 82.872 760.387 80.028 755.275 80.028C752.251 80.028 749.011 81.216 747.427 82.44L749.587 86.832C751.063 85.86 752.899 85.068 754.699 85.068C756.067 85.068 757.327 85.572 757.327 87.12V87.444H756.787C752.215 87.444 746.311 88.812 746.311 93.78ZM752.467 93.204C752.467 91.512 754.915 91.008 756.823 91.008H757.399V91.512C757.399 93.024 756.031 94.788 754.231 94.788C753.079 94.788 752.467 94.068 752.467 93.204ZM766.678 87.912C766.678 94.716 770.026 99.432 776.722 99.432C782.59 99.432 786.298 95.544 786.298 90.432C786.298 85.464 783.274 81.936 778.306 81.936C776.686 81.936 774.454 82.368 772.87 83.7H772.798C772.906 81.036 775.426 80.028 777.802 79.236L784.786 77.004L783.022 72L777.01 74.016C769.774 76.5 766.678 80.352 766.678 87.912ZM772.87 90.54C772.87 88.128 774.526 86.616 776.47 86.616C778.414 86.616 780.07 88.128 780.07 90.54C780.07 92.916 778.414 94.356 776.47 94.356C774.526 94.356 772.87 92.916 772.87 90.54ZM788.505 89.784C788.505 95.58 793.185 99.432 799.017 99.432C804.849 99.432 809.529 95.58 809.529 89.784C809.529 83.952 804.849 80.028 798.981 80.028C793.185 80.028 788.505 83.952 788.505 89.784ZM794.805 89.784C794.805 86.976 796.749 85.212 799.017 85.212C801.285 85.212 803.229 86.976 803.229 89.784C803.229 92.556 801.285 94.248 799.017 94.248C796.749 94.248 794.805 92.556 794.805 89.784ZM817.975 93.312C820.243 93.312 821.899 92.808 822.943 92.34H823.015C823.015 92.34 822.979 92.808 822.979 93.204V99H829.207V80.46H822.979V87.336C822.367 87.768 821.431 88.236 820.171 88.236C818.623 88.236 817.795 87.336 817.795 85.752V80.46H811.675V86.94C811.675 91.8 814.987 93.312 817.975 93.312ZM833.389 99H839.437L844.585 90.864C844.873 90.36 845.269 89.784 845.593 89.028H845.665C845.593 89.748 845.593 90.468 845.593 90.9V99H851.461V80.46H845.413L840.265 88.632C839.941 89.172 839.581 89.712 839.257 90.468H839.185C839.221 90 839.257 89.28 839.257 88.632V80.46H833.389V99ZM853.951 99H860.791L862.987 94.824C863.167 94.5 863.419 93.888 863.419 93.888H863.491C863.491 93.888 863.743 94.5 863.923 94.824L866.155 99H872.995L867.163 89.82L873.103 80.46H866.083L864.067 84.6C863.851 85.068 863.491 85.824 863.491 85.824H863.419C863.419 85.824 863.095 85.068 862.843 84.6L860.827 80.46H853.807L859.783 89.82L853.951 99ZM571.088 141H585.92V145.32H591.464V135.78H588.8V122.46H582.572V135.78H577.316V122.46H571.088V141ZM593.107 131.712C593.107 136.644 596.671 141.432 603.295 141.432C606.139 141.432 609.199 140.46 611.215 138.732L608.911 134.376C607.399 135.384 605.635 136.248 603.799 136.248C601.819 136.248 599.947 135.204 599.479 132.936H611.179C611.251 132.288 611.323 131.64 611.323 130.992C611.323 125.844 608.227 122.028 602.755 122.028C596.779 122.028 593.107 126.276 593.107 131.712ZM599.623 129.372C599.947 127.896 600.811 126.6 602.611 126.6C604.195 126.6 605.167 127.86 605.167 129.372H599.623ZM613.068 141.18C620.268 141.18 622.428 135.996 622.428 128.436V127.392H625.524V141H631.752V122.46H616.56V128.4C616.56 134.772 614.724 135.528 613.068 135.744V141.18ZM634.152 141H640.74L644.304 135.348H645.6V141H651.828V122.46H642.108C638.004 122.46 635.412 124.836 635.412 128.724C635.412 131.1 636.744 133.224 638.76 134.232V134.268C638.76 134.268 638.4 134.628 637.896 135.384L634.152 141ZM644.124 131.208C642.648 131.208 641.604 130.452 641.604 128.688C641.604 126.96 642.648 126.312 644.088 126.312H645.6V131.208H644.124ZM654.298 141H661.138L663.334 136.824C663.514 136.5 663.766 135.888 663.766 135.888H663.838C663.838 135.888 664.09 136.5 664.27 136.824L666.502 141H673.342L667.51 131.82L673.45 122.46H666.43L664.414 126.6C664.198 127.068 663.838 127.824 663.838 127.824H663.766C663.766 127.824 663.442 127.068 663.19 126.6L661.174 122.46H654.154L660.13 131.82L654.298 141ZM691.623 136.068C692.919 133.584 693.279 130.884 693.279 128.076V127.392H696.483V136.068H691.623ZM683.199 136.068V145.32H688.959V141H699.831V145.32H705.375V136.068H702.711V122.46H687.411V126.924C687.411 130.668 686.727 133.98 685.503 136.068H683.199ZM706.865 141.18C714.065 141.18 716.225 135.996 716.225 128.436V127.392H719.321V141H725.549V122.46H710.357V128.4C710.357 134.772 708.521 135.528 706.865 135.744V141.18ZM727.949 141H734.537L738.101 135.348H739.397V141H745.625V122.46H735.905C731.801 122.46 729.209 124.836 729.209 128.724C729.209 131.1 730.541 133.224 732.557 134.232V134.268C732.557 134.268 732.197 134.628 731.693 135.384L727.949 141ZM737.921 131.208C736.445 131.208 735.401 130.452 735.401 128.688C735.401 126.96 736.445 126.312 737.885 126.312H739.397V131.208H737.921ZM758.787 141H768.903C772.575 141 775.959 139.56 775.959 135.492C775.959 133.872 775.167 132.036 773.043 131.388V131.352C774.447 130.524 775.203 128.868 775.203 127.32C775.203 124.116 772.611 122.46 768.903 122.46H758.787V141ZM765.015 129.768V126.312H767.283C768.507 126.312 769.011 127.068 769.011 127.932C769.011 128.904 768.507 129.768 767.355 129.768H765.015ZM765.015 137.112V133.404H767.787C769.119 133.404 769.731 134.268 769.731 135.276C769.731 136.212 769.083 137.112 767.751 137.112H765.015ZM777.63 138.696C779.646 140.496 782.634 141.432 785.37 141.432C789.762 141.432 793.038 139.452 793.038 135.528C793.038 133.368 791.562 132.072 790.158 131.424V131.352C791.274 130.74 792.462 129.48 792.462 127.176C792.462 123.972 789.438 122.028 785.622 122.028C782.238 122.028 779.862 122.928 778.134 124.116L779.934 127.968C781.878 126.816 783.318 126.564 784.326 126.564C785.91 126.564 786.27 127.248 786.27 128.04C786.27 129.192 785.37 129.48 784.398 129.48H782.526V133.584H784.794C786.486 133.584 786.81 134.232 786.81 135.132C786.81 135.996 786.306 136.752 784.578 136.752C783.102 136.752 781.266 135.852 780.114 134.808L777.63 138.696ZM796.193 148.2H802.421V141.252C802.421 140.316 802.349 139.668 802.349 139.668H802.421C803.753 140.82 805.409 141.432 807.137 141.432C812.069 141.432 815.777 137.616 815.777 131.748C815.777 125.988 812.465 122.028 807.425 122.028C805.193 122.028 803.069 122.892 801.809 124.584H801.737C801.737 124.584 801.809 124.008 801.809 123.396V122.46H796.193V148.2ZM802.241 131.856C802.241 128.652 804.005 127.284 805.877 127.284C808.037 127.284 809.513 129.084 809.513 131.856C809.513 134.7 807.821 136.284 805.877 136.284C803.429 136.284 802.241 134.088 802.241 131.856ZM817.931 131.784C817.931 137.58 822.611 141.432 828.443 141.432C834.275 141.432 838.955 137.58 838.955 131.784C838.955 125.952 834.275 122.028 828.407 122.028C822.611 122.028 817.931 125.952 817.931 131.784ZM824.231 131.784C824.231 128.976 826.175 127.212 828.443 127.212C830.711 127.212 832.655 128.976 832.655 131.784C832.655 134.556 830.711 136.248 828.443 136.248C826.175 136.248 824.231 134.556 824.231 131.784ZM841.028 131.712C841.028 136.824 844.736 141.432 851.36 141.432C854.456 141.432 857.48 140.244 859.316 138.372L857.048 134.016C855.716 135.168 853.772 136.248 851.972 136.248C848.84 136.248 847.328 133.836 847.328 131.64C847.328 129.444 848.804 127.212 851.756 127.212C853.376 127.212 855.032 127.968 856.112 129.012L858.74 124.836C856.904 122.856 853.952 122.028 851.36 122.028C844.7 122.028 841.028 126.744 841.028 131.712ZM860.568 141.18C867.768 141.18 869.928 135.996 869.928 128.436V127.392H873.024V141H879.252V122.46H864.06V128.4C864.06 134.772 862.224 135.528 860.568 135.744V141.18ZM901.92 141H908.148V122.46H901.92V141ZM883.416 141H892.452C897.636 141 899.796 138.444 899.796 134.664C899.796 130.92 897.636 128.256 892.452 128.256H889.644V122.46H883.416V141ZM889.644 136.932V132.288H891.192C892.776 132.288 893.568 133.332 893.568 134.628C893.568 135.924 892.776 136.932 891.3 136.932H889.644ZM910.623 141H917.463L919.659 136.824C919.839 136.5 920.091 135.888 920.091 135.888H920.163C920.163 135.888 920.415 136.5 920.595 136.824L922.827 141H929.667L923.835 131.82L929.775 122.46H922.755L920.739 126.6C920.523 127.068 920.163 127.824 920.163 127.824H920.091C920.091 127.824 919.767 127.068 919.515 126.6L917.499 122.46H910.479L916.455 131.82L910.623 141Z" fill="#222224"/>
<path d="M569.882 189.556C569.882 193.3 572.744 196.216 576.416 196.216C580.088 196.216 582.932 193.3 582.932 189.556C582.932 185.902 580.088 183.076 576.416 183.076C572.744 183.076 569.882 185.902 569.882 189.556ZM571.718 189.556C571.718 186.802 573.806 184.696 576.416 184.696C579.008 184.696 581.096 186.802 581.096 189.556C581.096 192.4 579.008 194.578 576.416 194.578C573.806 194.578 571.718 192.4 571.718 189.556ZM584.772 190.762C584.772 193.912 586.158 196.216 589.236 196.216C591.81 196.216 593.538 194.416 593.538 191.896C593.538 189.322 591.954 187.702 589.668 187.702C588.462 187.702 587.256 188.098 586.446 189.322H586.41C586.536 187.576 587.4 186.514 589.218 185.686L592.71 184.228L592.134 182.788L588.876 184.192C585.708 185.524 584.772 187.504 584.772 190.762ZM586.59 191.896C586.59 190.294 587.688 189.088 589.236 189.088C590.604 189.088 591.774 190.15 591.774 191.932C591.774 193.696 590.604 194.74 589.164 194.74C587.76 194.74 586.59 193.696 586.59 191.896ZM595.715 196H597.461V192.094H602.069V196H603.815V186.892H602.069V190.6H597.461V186.892H595.715V196ZM605.914 191.428C605.914 194.2 608.11 196.216 610.828 196.216C613.528 196.216 615.724 194.2 615.724 191.428C615.724 188.674 613.528 186.676 610.81 186.676C608.11 186.676 605.914 188.674 605.914 191.428ZM607.696 191.428C607.696 189.538 609.1 188.188 610.828 188.188C612.538 188.188 613.96 189.538 613.96 191.428C613.96 193.336 612.538 194.704 610.828 194.704C609.1 194.704 607.696 193.336 607.696 191.428ZM617.829 196H621.717C623.697 196 625.065 195.1 625.065 193.408C625.065 192.4 624.471 191.518 623.337 191.248V191.23C624.165 190.87 624.633 190.114 624.633 189.232C624.633 187.702 623.427 186.892 621.591 186.892H617.829V196ZM619.575 190.744V188.098H621.231C622.329 188.098 622.851 188.53 622.851 189.358C622.851 190.204 622.329 190.744 621.285 190.744H619.575ZM619.575 194.776V191.914H621.429C622.635 191.914 623.301 192.454 623.301 193.354C623.301 194.2 622.707 194.776 621.447 194.776H619.575ZM627.18 196H628.854L632.796 190.564C633.084 190.132 633.534 189.52 633.588 189.358H633.624C633.624 189.502 633.57 190.132 633.57 190.564V196H635.262V186.892H633.57L629.646 192.328C629.34 192.76 628.908 193.39 628.836 193.552H628.8C628.818 193.462 628.854 192.814 628.854 192.328V186.892H627.18V196ZM637.56 196H639.252L639.648 190.582C639.684 190.042 639.63 189.016 639.63 189.016H639.666C639.666 189.016 639.954 189.7 640.242 190.366L642.402 194.902H643.896L646.056 190.348C646.398 189.646 646.632 189.016 646.632 189.016H646.668C646.668 189.016 646.632 190.042 646.65 190.582L647.046 196H648.738L647.946 186.892H646.038L643.662 192.04C643.428 192.598 643.158 193.264 643.158 193.264H643.122C643.122 193.264 642.87 192.58 642.618 192.04L640.296 186.892H638.352L637.56 196ZM655.19 190.762C655.19 193.912 656.576 196.216 659.654 196.216C662.228 196.216 663.956 194.416 663.956 191.896C663.956 189.322 662.372 187.702 660.086 187.702C658.88 187.702 657.674 188.098 656.864 189.322H656.828C656.954 187.576 657.818 186.514 659.636 185.686L663.128 184.228L662.552 182.788L659.294 184.192C656.126 185.524 655.19 187.504 655.19 190.762ZM657.008 191.896C657.008 190.294 658.106 189.088 659.654 189.088C661.022 189.088 662.192 190.15 662.192 191.932C662.192 193.696 661.022 194.74 659.582 194.74C658.178 194.74 657.008 193.696 657.008 191.896ZM665.377 193.516C665.377 195.226 666.835 196.216 668.419 196.216C669.769 196.216 670.885 195.406 671.407 194.362H671.443C671.443 194.362 671.389 194.668 671.389 195.082V196H673.027V190.24C673.027 187.936 671.713 186.676 669.427 186.676C668.149 186.676 666.763 187.144 666.025 187.756L666.727 189.034C667.465 188.512 668.383 188.152 669.283 188.152C670.417 188.152 671.281 188.656 671.281 190.15V190.33H670.813C668.923 190.33 665.377 190.654 665.377 193.516ZM667.123 193.372C667.123 191.698 669.535 191.59 670.831 191.59H671.281V191.932C671.281 193.282 670.363 194.83 668.833 194.83C667.699 194.83 667.123 194.092 667.123 193.372ZM674.726 194.884C675.482 195.604 676.67 196.216 678.074 196.216C679.946 196.216 681.566 195.262 681.566 193.39C681.566 192.22 680.846 191.536 679.928 191.248V191.212C680.648 190.906 681.26 190.276 681.26 189.142C681.26 187.522 679.91 186.676 678.182 186.676C676.742 186.676 675.716 187.144 675.014 187.666L675.662 188.836C676.364 188.314 677.084 188.044 677.876 188.044C678.884 188.044 679.496 188.512 679.496 189.358C679.496 190.276 678.794 190.672 677.768 190.672H676.814V191.932H677.93C679.208 191.932 679.802 192.436 679.802 193.318C679.802 194.308 678.956 194.812 677.912 194.812C676.814 194.812 675.95 194.164 675.536 193.732L674.726 194.884ZM683.082 191.428C683.082 194.2 685.278 196.216 687.996 196.216C690.696 196.216 692.892 194.2 692.892 191.428C692.892 188.674 690.696 186.676 687.978 186.676C685.278 186.676 683.082 188.674 683.082 191.428ZM684.864 191.428C684.864 189.538 686.268 188.188 687.996 188.188C689.706 188.188 691.128 189.538 691.128 191.428C691.128 193.336 689.706 194.704 687.996 194.704C686.268 194.704 684.864 193.336 684.864 191.428ZM694.996 196H698.884C700.864 196 702.232 195.1 702.232 193.408C702.232 192.4 701.638 191.518 700.504 191.248V191.23C701.332 190.87 701.8 190.114 701.8 189.232C701.8 187.702 700.594 186.892 698.758 186.892H694.996V196ZM696.742 190.744V188.098H698.398C699.496 188.098 700.018 188.53 700.018 189.358C700.018 190.204 699.496 190.744 698.452 190.744H696.742ZM696.742 194.776V191.914H698.596C699.802 191.914 700.468 192.454 700.468 193.354C700.468 194.2 699.874 194.776 698.614 194.776H696.742ZM712.592 196H714.338V186.892H712.592V196ZM704.348 196H707.858C710.144 196 711.188 194.83 711.188 193.12C711.188 191.05 709.766 190.186 707.876 190.186H706.094V186.892H704.348V196ZM706.094 194.74V191.446H707.606C708.866 191.446 709.424 192.13 709.424 193.102C709.424 194.056 708.884 194.74 707.624 194.74H706.094ZM716.445 191.446C716.445 194.146 718.425 196.216 721.287 196.216C722.547 196.216 723.933 195.73 724.815 194.92L724.077 193.642C723.357 194.29 722.367 194.704 721.395 194.704C719.757 194.704 718.353 193.642 718.263 191.68H724.887C724.923 191.428 724.959 191.176 724.959 190.942C724.959 188.602 723.591 186.676 721.017 186.676C718.425 186.676 716.445 188.548 716.445 191.446ZM718.317 190.42C718.569 188.908 719.631 188.026 720.981 188.026C722.169 188.026 723.141 188.854 723.195 190.42H718.317ZM730.677 194.884C731.433 195.604 732.621 196.216 734.025 196.216C735.897 196.216 737.517 195.262 737.517 193.39C737.517 192.22 736.797 191.536 735.879 191.248V191.212C736.599 190.906 737.211 190.276 737.211 189.142C737.211 187.522 735.861 186.676 734.133 186.676C732.693 186.676 731.667 187.144 730.965 187.666L731.613 188.836C732.315 188.314 733.035 188.044 733.827 188.044C734.835 188.044 735.447 188.512 735.447 189.358C735.447 190.276 734.745 190.672 733.719 190.672H732.765V191.932H733.881C735.159 191.932 735.753 192.436 735.753 193.318C735.753 194.308 734.907 194.812 733.863 194.812C732.765 194.812 731.901 194.164 731.487 193.732L730.677 194.884ZM739.627 196H741.373V192.094H745.981V196H747.727V186.892H745.981V190.6H741.373V186.892H739.627V196ZM749.664 193.516C749.664 195.226 751.122 196.216 752.706 196.216C754.056 196.216 755.172 195.406 755.694 194.362H755.73C755.73 194.362 755.676 194.668 755.676 195.082V196H757.314V190.24C757.314 187.936 756 186.676 753.714 186.676C752.436 186.676 751.05 187.144 750.312 187.756L751.014 189.034C751.752 188.512 752.67 188.152 753.57 188.152C754.704 188.152 755.568 188.656 755.568 190.15V190.33H755.1C753.21 190.33 749.664 190.654 749.664 193.516ZM751.41 193.372C751.41 191.698 753.822 191.59 755.118 191.59H755.568V191.932C755.568 193.282 754.65 194.83 753.12 194.83C751.986 194.83 751.41 194.092 751.41 193.372ZM759.895 196H761.641V192.094H766.249V196H767.995V186.892H766.249V190.6H761.641V186.892H759.895V196ZM770.688 196H772.362L776.304 190.564C776.592 190.132 777.042 189.52 777.096 189.358H777.132C777.132 189.502 777.078 190.132 777.078 190.564V196H778.77V186.892H777.078L773.154 192.328C772.848 192.76 772.416 193.39 772.344 193.552H772.308C772.326 193.462 772.362 192.814 772.362 192.328V186.892H770.688V196ZM780.528 196H782.454L784.686 192.706H786.216V196H787.962V186.892H784.326C782.4 186.892 781.068 187.882 781.068 189.754C781.068 191.14 782.004 192.112 783.048 192.4V192.418C783.048 192.418 782.832 192.652 782.634 192.976L780.528 196ZM784.704 191.428C783.642 191.428 782.832 190.87 782.832 189.736C782.832 188.566 783.588 188.098 784.758 188.098H786.216V191.428H784.704ZM795.157 196H796.831L800.773 190.564C801.061 190.132 801.511 189.52 801.565 189.358H801.601C801.601 189.502 801.547 190.132 801.547 190.564V196H803.239V186.892H801.547L797.623 192.328C797.317 192.76 796.885 193.39 796.813 193.552H796.777C796.795 193.462 796.831 192.814 796.831 192.328V186.892H795.157V196ZM810.414 196H812.16V192.094H816.768V196H818.514V186.892H816.768V190.6H812.16V186.892H810.414V196ZM820.451 193.516C820.451 195.226 821.909 196.216 823.493 196.216C824.843 196.216 825.959 195.406 826.481 194.362H826.517C826.517 194.362 826.463 194.668 826.463 195.082V196H828.101V190.24C828.101 187.936 826.787 186.676 824.501 186.676C823.223 186.676 821.837 187.144 821.099 187.756L821.801 189.034C822.539 188.512 823.457 188.152 824.357 188.152C825.491 188.152 826.355 188.656 826.355 190.15V190.33H825.887C823.997 190.33 820.451 190.654 820.451 193.516ZM822.197 193.372C822.197 191.698 824.609 191.59 825.905 191.59H826.355V191.932C826.355 193.282 825.437 194.83 823.907 194.83C822.773 194.83 822.197 194.092 822.197 193.372ZM830.056 197.89L829.444 199.222C829.444 199.222 830.182 199.78 831.19 199.78C832.468 199.78 833.602 199.06 834.142 197.638L838.426 186.892H836.536L834.322 192.868C834.16 193.336 834.016 193.948 834.016 193.948H833.98C833.98 193.948 833.818 193.3 833.638 192.85L831.352 186.892H829.39L833.206 195.892L832.756 196.936C832.414 197.764 831.82 198.286 831.1 198.286C830.56 198.286 830.056 197.89 830.056 197.89ZM842.623 192.832C843.523 192.832 844.513 192.526 845.089 192.166H845.125C845.125 192.166 845.107 192.454 845.107 192.706V196H846.853V186.892H845.107V190.672C844.729 190.942 843.991 191.32 843.091 191.32C841.597 191.32 841.273 190.51 841.273 189.61V186.892H839.563V189.862C839.563 191.806 840.679 192.832 842.623 192.832ZM849.561 196H851.235L855.177 190.564C855.465 190.132 855.915 189.52 855.969 189.358H856.005C856.005 189.502 855.951 190.132 855.951 190.564V196H857.643V186.892H855.951L852.027 192.328C851.721 192.76 851.289 193.39 851.217 193.552H851.181C851.199 193.462 851.235 192.814 851.235 192.328V186.892H849.561V196ZM859.941 196H861.633L862.029 190.582C862.065 190.042 862.011 189.016 862.011 189.016H862.047C862.047 189.016 862.335 189.7 862.623 190.366L864.783 194.902H866.277L868.437 190.348C868.779 189.646 869.013 189.016 869.013 189.016H869.049C869.049 189.016 869.013 190.042 869.031 190.582L869.427 196H871.119L870.327 186.892H868.419L866.043 192.04C865.809 192.598 865.539 193.264 865.539 193.264H865.503C865.503 193.264 865.251 192.58 864.999 192.04L862.677 186.892H860.733L859.941 196ZM569.36 224.09C572.042 223.946 573.086 221.822 573.086 217.7V216.332H575.768V224H577.514V214.892H571.412V217.7C571.412 220.994 570.692 222.326 569.36 222.524V224.09ZM579.617 219.446C579.617 222.146 581.597 224.216 584.459 224.216C585.719 224.216 587.105 223.73 587.987 222.92L587.249 221.642C586.529 222.29 585.539 222.704 584.567 222.704C582.929 222.704 581.525 221.642 581.435 219.68H588.059C588.095 219.428 588.131 219.176 588.131 218.942C588.131 216.602 586.763 214.676 584.189 214.676C581.597 214.676 579.617 216.548 579.617 219.446ZM581.489 218.42C581.741 216.908 582.803 216.026 584.153 216.026C585.341 216.026 586.313 216.854 586.367 218.42H581.489ZM590.231 224H591.977V216.386H595.937V214.892H590.231V224ZM597.666 224H599.412V220.058H600.726L603.444 224H605.514L602.112 219.266V219.23L605.154 214.892H603.174L600.69 218.564H599.412V214.892H597.666V224ZM606.09 219.428C606.09 222.2 608.286 224.216 611.004 224.216C613.704 224.216 615.9 222.2 615.9 219.428C615.9 216.674 613.704 214.676 610.986 214.676C608.286 214.676 606.09 216.674 606.09 219.428ZM607.872 219.428C607.872 217.538 609.276 216.188 611.004 216.188C612.714 216.188 614.136 217.538 614.136 219.428C614.136 221.336 612.714 222.704 611.004 222.704C609.276 222.704 607.872 221.336 607.872 219.428ZM622.504 224H626.392C628.372 224 629.74 223.1 629.74 221.408C629.74 220.4 629.146 219.518 628.012 219.248V219.23C628.84 218.87 629.308 218.114 629.308 217.232C629.308 215.702 628.102 214.892 626.266 214.892H622.504V224ZM624.25 218.744V216.098H625.906C627.004 216.098 627.526 216.53 627.526 217.358C627.526 218.204 627.004 218.744 625.96 218.744H624.25ZM624.25 222.776V219.914H626.104C627.31 219.914 627.976 220.454 627.976 221.354C627.976 222.2 627.382 222.776 626.122 222.776H624.25ZM631.262 219.428C631.262 222.2 633.458 224.216 636.176 224.216C638.876 224.216 641.072 222.2 641.072 219.428C641.072 216.674 638.876 214.676 636.158 214.676C633.458 214.676 631.262 216.674 631.262 219.428ZM633.044 219.428C633.044 217.538 634.448 216.188 636.176 216.188C637.886 216.188 639.308 217.538 639.308 219.428C639.308 221.336 637.886 222.704 636.176 222.704C634.448 222.704 633.044 221.336 633.044 219.428ZM642.582 219.446C642.582 222.182 644.58 224.216 647.46 224.216C648.882 224.216 650.268 223.64 651.096 222.758L650.394 221.48C649.692 222.218 648.594 222.704 647.586 222.704C645.696 222.704 644.364 221.282 644.364 219.428C644.364 217.574 645.696 216.188 647.532 216.188C648.486 216.188 649.44 216.62 650.052 217.232L650.88 216.008C650.016 215.09 648.666 214.676 647.46 214.676C644.598 214.676 642.582 216.746 642.582 219.446ZM652.985 224H654.731V216.386H659.195V224H660.941V214.892H652.985V224ZM663.637 227.6H665.383V223.46C665.383 222.992 665.311 222.668 665.311 222.668H665.347C665.977 223.64 667.021 224.216 668.173 224.216C670.567 224.216 672.295 222.344 672.295 219.446C672.295 216.62 670.765 214.676 668.299 214.676C666.967 214.676 665.815 215.288 665.239 216.386H665.203C665.203 216.386 665.257 216.08 665.257 215.702V214.892H663.637V227.6ZM665.329 219.482C665.329 217.178 666.589 216.206 667.957 216.206C669.469 216.206 670.531 217.484 670.531 219.464C670.531 221.534 669.343 222.704 667.903 222.704C666.229 222.704 665.329 221.102 665.329 219.482ZM674.448 224H676.122L680.064 218.564C680.352 218.132 680.802 217.52 680.856 217.358H680.892C680.892 217.502 680.838 218.132 680.838 218.564V224H682.53V214.892H680.838L676.914 220.328C676.608 220.76 676.176 221.39 676.104 221.552H676.068C676.086 221.462 676.122 220.814 676.122 220.328V214.892H674.448V224ZM685.205 224H686.951V220.094H691.559V224H693.305V214.892H691.559V218.6H686.951V214.892H685.205V224ZM695.998 224H697.672L701.614 218.564C701.902 218.132 702.352 217.52 702.406 217.358H702.442C702.442 217.502 702.388 218.132 702.388 218.564V224H704.08V214.892H702.388L698.464 220.328C698.158 220.76 697.726 221.39 697.654 221.552H697.618C697.636 221.462 697.672 220.814 697.672 220.328V214.892H695.998V224ZM706.378 224H708.07L708.466 218.582C708.502 218.042 708.448 217.016 708.448 217.016H708.484C708.484 217.016 708.772 217.7 709.06 218.366L711.22 222.902H712.714L714.874 218.348C715.216 217.646 715.45 217.016 715.45 217.016H715.486C715.486 217.016 715.45 218.042 715.468 218.582L715.864 224H717.556L716.764 214.892H714.856L712.48 220.04C712.246 220.598 711.976 221.264 711.976 221.264H711.94C711.94 221.264 711.688 220.58 711.436 220.04L709.114 214.892H707.17L706.378 224ZM719.149 221.516C719.149 223.226 720.607 224.216 722.191 224.216C723.541 224.216 724.657 223.406 725.179 222.362H725.215C725.215 222.362 725.161 222.668 725.161 223.082V224H726.799V218.24C726.799 215.936 725.485 214.676 723.199 214.676C721.921 214.676 720.535 215.144 719.797 215.756L720.499 217.034C721.237 216.512 722.155 216.152 723.055 216.152C724.189 216.152 725.053 216.656 725.053 218.15V218.33H724.585C722.695 218.33 719.149 218.654 719.149 221.516ZM720.895 221.372C720.895 219.698 723.307 219.59 724.603 219.59H725.053V219.932C725.053 221.282 724.135 222.83 722.605 222.83C721.471 222.83 720.895 222.092 720.895 221.372ZM731.452 224H733.18V216.386H736.366V214.892H728.284V216.386H731.452V224ZM738.08 224H741.626C743.93 224 744.974 222.83 744.974 221.12C744.974 219.05 743.552 218.186 741.662 218.186H739.826V214.892H738.08V224ZM739.826 222.74V219.446H741.392C742.652 219.446 743.192 220.13 743.192 221.102C743.192 222.056 742.652 222.74 741.392 222.74H739.826ZM750.308 224H752.288L754.196 220.958C754.34 220.742 754.466 220.472 754.466 220.472H754.502C754.502 220.472 754.646 220.742 754.79 220.958L756.698 224H758.678L755.564 219.32L758.498 214.892H756.5L754.808 217.664C754.682 217.898 754.502 218.204 754.502 218.204H754.466C754.466 218.204 754.304 217.898 754.178 217.664L752.486 214.892H750.488L753.422 219.32L750.308 224ZM760.334 224H762.008L765.95 218.564C766.238 218.132 766.688 217.52 766.742 217.358H766.778C766.778 217.502 766.724 218.132 766.724 218.564V224H768.416V214.892H766.724L762.8 220.328C762.494 220.76 762.062 221.39 761.99 221.552H761.954C761.972 221.462 762.008 220.814 762.008 220.328V214.892H760.334V224ZM770.714 224H772.406L772.802 218.582C772.838 218.042 772.784 217.016 772.784 217.016H772.82C772.82 217.016 773.108 217.7 773.396 218.366L775.556 222.902H777.05L779.21 218.348C779.552 217.646 779.786 217.016 779.786 217.016H779.822C779.822 217.016 779.786 218.042 779.804 218.582L780.2 224H781.892L781.1 214.892H779.192L776.816 220.04C776.582 220.598 776.312 221.264 776.312 221.264H776.276C776.276 221.264 776.024 220.58 775.772 220.04L773.45 214.892H771.506L770.714 224ZM784.241 224H785.915L789.857 218.564C790.145 218.132 790.595 217.52 790.649 217.358H790.685C790.685 217.502 790.631 218.132 790.631 218.564V224H792.323V214.892H790.631L786.707 220.328C786.401 220.76 785.969 221.39 785.897 221.552H785.861C785.879 221.462 785.915 220.814 785.915 220.328V214.892H784.241V224ZM794.998 224H796.744V220.148H798.4C798.724 222.524 800.65 224.216 803.062 224.216C805.69 224.216 807.796 222.2 807.796 219.428C807.796 216.674 805.69 214.676 803.044 214.676C800.65 214.676 798.724 216.35 798.4 218.708H796.744V214.892H794.998V224ZM800.092 219.428C800.092 217.538 801.406 216.188 803.062 216.188C804.7 216.188 806.014 217.538 806.014 219.428C806.014 221.336 804.7 222.704 803.062 222.704C801.406 222.704 800.092 221.336 800.092 219.428ZM814.405 224H818.293C820.273 224 821.641 223.1 821.641 221.408C821.641 220.4 821.047 219.518 819.913 219.248V219.23C820.741 218.87 821.209 218.114 821.209 217.232C821.209 215.702 820.003 214.892 818.167 214.892H814.405V224ZM816.151 218.744V216.098H817.807C818.905 216.098 819.427 216.53 819.427 217.358C819.427 218.204 818.905 218.744 817.861 218.744H816.151ZM816.151 222.776V219.914H818.005C819.211 219.914 819.877 220.454 819.877 221.354C819.877 222.2 819.283 222.776 818.023 222.776H816.151ZM827.86 218.762C827.86 221.912 829.246 224.216 832.324 224.216C834.898 224.216 836.626 222.416 836.626 219.896C836.626 217.322 835.042 215.702 832.756 215.702C831.55 215.702 830.344 216.098 829.534 217.322H829.498C829.624 215.576 830.488 214.514 832.306 213.686L835.798 212.228L835.222 210.788L831.964 212.192C828.796 213.524 827.86 215.504 827.86 218.762ZM829.678 219.896C829.678 218.294 830.776 217.088 832.324 217.088C833.692 217.088 834.862 218.15 834.862 219.932C834.862 221.696 833.692 222.74 832.252 222.74C830.848 222.74 829.678 221.696 829.678 219.896ZM838.803 224H840.477L844.419 218.564C844.707 218.132 845.157 217.52 845.211 217.358H845.247C845.247 217.502 845.193 218.132 845.193 218.564V224H846.885V214.892H845.193L841.269 220.328C840.963 220.76 840.531 221.39 840.459 221.552H840.423C840.441 221.462 840.477 220.814 840.477 220.328V214.892H838.803V224ZM848.679 222.884C849.435 223.604 850.623 224.216 852.027 224.216C853.899 224.216 855.519 223.262 855.519 221.39C855.519 220.22 854.799 219.536 853.881 219.248V219.212C854.601 218.906 855.213 218.276 855.213 217.142C855.213 215.522 853.863 214.676 852.135 214.676C850.695 214.676 849.669 215.144 848.967 215.666L849.615 216.836C850.317 216.314 851.037 216.044 851.829 216.044C852.837 216.044 853.449 216.512 853.449 217.358C853.449 218.276 852.747 218.672 851.721 218.672H850.767V219.932H851.883C853.161 219.932 853.755 220.436 853.755 221.318C853.755 222.308 852.909 222.812 851.865 222.812C850.767 222.812 849.903 222.164 849.489 221.732L848.679 222.884ZM857.629 224H859.375V220.094H863.983V224H865.729V214.892H863.983V218.6H859.375V214.892H857.629V224ZM867.828 219.446C867.828 222.146 869.808 224.216 872.67 224.216C873.93 224.216 875.316 223.73 876.198 222.92L875.46 221.642C874.74 222.29 873.75 222.704 872.778 222.704C871.14 222.704 869.736 221.642 869.646 219.68H876.27C876.306 219.428 876.342 219.176 876.342 218.942C876.342 216.602 874.974 214.676 872.4 214.676C869.808 214.676 867.828 216.548 867.828 219.446ZM869.7 218.42C869.952 216.908 871.014 216.026 872.364 216.026C873.552 216.026 874.524 216.854 874.578 218.42H869.7ZM877.848 219.446C877.848 222.182 879.846 224.216 882.726 224.216C884.148 224.216 885.534 223.64 886.362 222.758L885.66 221.48C884.958 222.218 883.86 222.704 882.852 222.704C880.962 222.704 879.63 221.282 879.63 219.428C879.63 217.574 880.962 216.188 882.798 216.188C883.752 216.188 884.706 216.62 885.318 217.232L886.146 216.008C885.282 215.09 883.932 214.676 882.726 214.676C879.864 214.676 877.848 216.746 877.848 219.446ZM887.445 219.446C887.445 222.146 889.425 224.216 892.287 224.216C893.547 224.216 894.933 223.73 895.815 222.92L895.077 221.642C894.357 222.29 893.367 222.704 892.395 222.704C890.757 222.704 889.353 221.642 889.263 219.68H895.887C895.923 219.428 895.959 219.176 895.959 218.942C895.959 216.602 894.591 214.676 892.017 214.676C889.425 214.676 887.445 216.548 887.445 219.446ZM889.317 218.42C889.569 216.908 890.631 216.026 891.981 216.026C893.169 216.026 894.141 216.854 894.195 218.42H889.317Z" fill="#424754"/>
<g clip-path="url(#clip0)">
<path d="M0 4.40122C0 2.86065 0 2.09037 0.299609 1.50195C0.563153 0.984356 0.983678 0.563541 1.50091 0.299816C2.08893 0 2.85869 0 4.3982 0H504.602C506.141 0 506.911 0 507.499 0.299816C508.016 0.563541 508.437 0.984356 508.7 1.50195C509 2.09037 509 2.86066 509 4.40123V293.599C509 295.139 509 295.91 508.7 296.498C508.437 297.016 508.016 297.436 507.499 297.7C506.911 298 506.141 298 504.602 298H4.39818C2.85868 298 2.08893 298 1.50091 297.7C0.983678 297.436 0.563153 297.016 0.299609 296.498C0 295.91 0 295.139 0 293.599V4.40122Z" fill="#F3F3F3"/>
<rect x="93" y="189" width="285" height="122" rx="4" fill="white"/>
<rect x="160" y="26" width="250" height="140" rx="2" fill="white"/>
<path d="M240 63L265 74L259 101L291 110L287 140" stroke="#8A8D95"/>
<path d="M242 63C242 64.1046 241.105 65 240 65C238.895 65 238 64.1046 238 63C238 61.8954 238.895 61 240 61C241.105 61 242 61.8954 242 63Z" fill="#424754"/>
<path d="M267 74C267 75.1046 266.105 76 265 76C263.895 76 263 75.1046 263 74C263 72.8954 263.895 72 265 72C266.105 72 267 72.8954 267 74Z" fill="#F04B5D"/>
<path d="M261 101C261 102.105 260.105 103 259 103C257.895 103 257 102.105 257 101C257 99.8954 257.895 99 259 99C260.105 99 261 99.8954 261 101Z" fill="#424754"/>
<path d="M293 110C293 111.105 292.105 112 291 112C289.895 112 289 111.105 289 110C289 108.895 289.895 108 291 108C292.105 108 293 108.895 293 110Z" fill="#424754"/>
<path d="M289 140C289 141.105 288.105 142 287 142C285.895 142 285 141.105 285 140C285 138.895 285.895 138 287 138C288.105 138 289 138.895 289 140Z" fill="#424754"/>
<path d="M177 40.4545C177 39.9454 177 39.6908 177.058 39.4964C177.108 39.3253 177.189 39.1862 177.288 39.0991C177.401 39 177.549 39 177.845 39H209.155C209.451 39 209.599 39 209.712 39.0991C209.811 39.1862 209.892 39.3253 209.942 39.4964C210 39.6908 210 39.9454 210 40.4545V42.5455C210 43.0546 210 43.3092 209.942 43.5036C209.892 43.6747 209.811 43.8138 209.712 43.9009C209.599 44 209.451 44 209.155 44H177.845C177.549 44 177.401 44 177.288 43.9009C177.189 43.8138 177.108 43.6747 177.058 43.5036C177 43.3092 177 43.0546 177 42.5455V40.4545Z" fill="#424754"/>
<path d="M380 40.4545C380 39.9454 380 39.6908 380.026 39.4964C380.049 39.3253 380.086 39.1862 380.131 39.0991C380.182 39 380.25 39 380.384 39H394.616C394.75 39 394.818 39 394.869 39.0991C394.914 39.1862 394.951 39.3253 394.974 39.4964C395 39.6908 395 39.9454 395 40.4545V42.5455C395 43.0546 395 43.3092 394.974 43.5036C394.951 43.6747 394.914 43.8138 394.869 43.9009C394.818 44 394.75 44 394.616 44H380.384C380.25 44 380.182 44 380.131 43.9009C380.086 43.8138 380.049 43.6747 380.026 43.5036C380 43.3092 380 43.0546 380 42.5455V40.4545Z" fill="#97999D"/>
<path d="M177 63.9455C177 62.2144 177 61.3488 177.03 60.6877C177.056 60.1061 177.097 59.6332 177.149 59.3369C177.207 59 177.283 59 177.435 59H193.565C193.717 59 193.793 59 193.851 59.3369C193.903 59.6332 193.944 60.1061 193.97 60.6877C194 61.3488 194 62.2144 194 63.9455V71.0545C194 72.7856 194 73.6512 193.97 74.3123C193.944 74.8939 193.903 75.3668 193.851 75.6631C193.793 76 193.717 76 193.565 76H177.435C177.283 76 177.207 76 177.149 75.6631C177.097 75.3668 177.056 74.8939 177.03 74.3123C177 73.6512 177 72.7856 177 71.0545V63.9455Z" fill="#E0E0E0"/>
<path d="M177 85.9455C177 84.2144 177 83.3488 177.03 82.6877C177.056 82.1061 177.097 81.6332 177.149 81.3369C177.207 81 177.283 81 177.435 81H193.565C193.717 81 193.793 81 193.851 81.3369C193.903 81.6332 193.944 82.1061 193.97 82.6877C194 83.3488 194 84.2144 194 85.9455V93.0545C194 94.7856 194 95.6512 193.97 96.3123C193.944 96.8939 193.903 97.3668 193.851 97.6631C193.793 98 193.717 98 193.565 98H177.435C177.283 98 177.207 98 177.149 97.6631C177.097 97.3668 177.056 96.8939 177.03 96.3123C177 95.6512 177 94.7856 177 93.0545V85.9455Z" fill="#F04B5D"/>
<path d="M177 107.945C177 106.214 177 105.349 177.03 104.688C177.056 104.106 177.097 103.633 177.149 103.337C177.207 103 177.283 103 177.435 103H193.565C193.717 103 193.793 103 193.851 103.337C193.903 103.633 193.944 104.106 193.97 104.688C194 105.349 194 106.214 194 107.945V115.055C194 116.786 194 117.651 193.97 118.312C193.944 118.894 193.903 119.367 193.851 119.663C193.793 120 193.717 120 193.565 120H177.435C177.283 120 177.207 120 177.149 119.663C177.097 119.367 177.056 118.894 177.03 118.312C177 117.651 177 116.786 177 115.055V107.945Z" fill="#E0E0E0"/>
<path d="M177 129.945C177 128.214 177 127.349 177.03 126.688C177.056 126.106 177.097 125.633 177.149 125.337C177.207 125 177.283 125 177.435 125H193.565C193.717 125 193.793 125 193.851 125.337C193.903 125.633 193.944 126.106 193.97 126.688C194 127.349 194 128.214 194 129.945V137.055C194 138.786 194 139.651 193.97 140.312C193.944 140.894 193.903 141.367 193.851 141.663C193.793 142 193.717 142 193.565 142H177.435C177.283 142 177.207 142 177.149 141.663C177.097 141.367 177.056 140.894 177.03 140.312C177 139.651 177 138.786 177 137.055V129.945Z" fill="#E0E0E0"/>
<path d="M187.935 261.645C187.935 264.848 190.539 267.452 193.741 267.452C196.943 267.452 199.547 264.848 199.547 261.645V226.806H200.516C201.052 226.806 201.484 226.373 201.484 225.839V221.968C201.484 221.434 201.052 221 200.516 221H186.968C186.432 221 186 221.434 186 221.968V225.839C186 226.373 186.432 226.806 186.968 226.806H187.935V261.645Z" fill="#E1EAF7"/>
<path d="M193.702 266C196.42 265.377 198.404 263.557 198.404 261.382V239H189V261.382C189 263.556 190.984 265.376 193.702 266Z" fill="#F04B5D"/>
<path d="M134 262.871C134 265.539 136.171 267.71 138.839 267.71H151H151.419H163.581C166.249 267.71 168.419 265.539 168.419 262.871V261.923C168.419 261.116 168.215 260.314 167.829 259.606L156.806 239.399V229.968C156.806 229.434 156.374 229 155.839 229H151.419H151H146.581C146.045 229 145.613 229.434 145.613 229.968V239.399L134.59 259.606C134.204 260.314 134 261.116 134 261.923V262.871Z" fill="#E1EAF7"/>
<path d="M167.656 262.812V261.864C167.656 261.217 167.494 260.579 167.184 260.011L160.267 247.329H158.78C158.267 247.329 157.775 247.533 157.412 247.896L156.611 248.697C156.248 249.06 155.755 249.264 155.242 249.264H154.91C154.397 249.264 153.905 249.06 153.542 248.697L152.741 247.896C152.377 247.533 151.884 247.329 151.371 247.329H151.039C150.526 247.329 150.034 247.533 149.671 247.896L148.87 248.697C148.506 249.06 148.013 249.264 147.5 249.264H147.169C146.655 249.264 146.163 249.06 145.8 248.697L144.999 247.896C144.635 247.533 144.142 247.329 143.629 247.329H142.153L135.235 260.011C134.926 260.58 134.763 261.217 134.763 261.864V262.812C134.763 264.95 136.496 266.683 138.634 266.683H163.786C165.923 266.683 167.656 264.95 167.656 262.812Z" fill="#2D7EEC"/>
<path d="M428.728 164.163H422.465C422.465 164.163 415.576 169.173 416.202 174.809C416.829 180.445 404.93 229.294 404.93 235.557C404.93 241.819 402.425 243.698 402.425 247.456C402.425 251.213 403.677 253.718 402.425 255.597C401.172 257.476 398.667 268.749 399.293 273.132C399.657 276.044 399.657 278.989 399.293 281.9H414.95C414.95 281.9 426.223 243.698 428.728 241.819C431.233 239.941 432.485 236.809 432.485 234.93C432.485 233.052 431.233 233.052 434.364 230.547C437.495 228.041 435.616 216.769 435.616 216.769L440 205.496L428.728 164.163Z" fill="#D6D3E8"/>
<path d="M341.051 262.799C341.051 262.799 335.415 290.355 344.809 287.85C354.202 285.345 350.445 261.547 350.445 261.547L341.051 262.799Z" fill="#A0616A"/>
<path d="M361.091 255.284C361.091 255.284 353.576 265.304 353.576 270.941C353.576 276.577 351.071 326.678 351.071 326.678C351.071 326.678 337.293 390.557 341.051 394.314C344.808 398.072 356.081 403.708 357.96 401.83C359.839 399.951 372.99 331.688 372.99 331.688L388.647 289.728L403.051 349.85C403.051 349.85 402.425 401.83 404.93 402.456C407.435 403.082 408.687 403.708 407.435 406.213C406.182 408.719 404.303 413.729 404.303 413.729C404.303 413.729 419.96 417.486 423.091 414.981C426.223 412.476 426.849 351.729 423.091 330.436C419.334 309.143 423.717 260.294 423.717 260.294L361.091 255.284Z" fill="#2F2E41"/>
<path d="M383.95 134.102C394.326 134.102 402.738 125.69 402.738 115.314C402.738 104.938 394.326 96.5261 383.95 96.5261C373.574 96.5261 365.162 104.938 365.162 115.314C365.162 125.69 373.574 134.102 383.95 134.102Z" fill="#A0616A"/>
<path d="M378.313 127.213C378.313 127.213 380.818 140.365 378.313 144.122C375.808 147.88 412.132 145.375 412.132 145.375C412.132 145.375 394.596 125.334 396.475 121.577C398.354 117.819 378.313 127.213 378.313 127.213Z" fill="#A0616A"/>
<path d="M362.344 148.819C362.344 148.819 374.869 132.536 390.526 135.668C394.753 136.513 398.615 137.358 402 138.142C413.93 140.904 423.85 149.406 427.926 160.953C428.983 163.947 429.511 166.824 429.041 169.173C427.162 178.567 428.102 252.779 428.102 252.779C428.102 252.779 423.092 254.658 423.718 257.163C424.344 259.668 428.728 262.799 424.344 262.799C419.96 262.799 353.576 260.294 354.829 258.415C356.082 256.536 362.344 148.819 362.344 148.819Z" fill="#D0CDE1"/>
<path d="M368.606 148.819H362.343C362.343 148.819 355.454 153.829 356.08 159.466C356.707 165.102 344.807 213.951 344.807 220.213C344.807 226.476 342.302 228.355 342.302 232.112C342.302 235.87 343.555 238.375 342.302 240.254C341.05 242.132 338.545 253.405 339.171 257.789C339.535 260.7 339.535 263.645 339.171 266.557H354.828C354.828 266.557 366.1 228.355 368.606 226.476C371.111 224.597 372.363 221.466 372.363 219.587C372.363 217.708 371.111 217.708 374.242 215.203C377.373 212.698 375.494 201.425 375.494 201.425L379.878 190.152L368.606 148.819Z" fill="#D0CDE1"/>
<path opacity="0.1" d="M359.476 257.589L378.313 216.142L368.895 260.221L359.476 257.589Z" fill="black"/>
<path d="M377.395 86.9022L377.405 85.3519C378.7 85.1872 380.012 85.2332 381.292 85.4881C381.306 84.5522 381.112 83.625 380.723 82.7734C382.013 82.9431 383.268 83.3165 384.44 83.8796L384.872 81L396.089 84.9311C400.115 86.3422 404.371 87.9134 406.984 91.2861C409.897 95.0461 410.109 100.307 408.99 104.931C407.872 109.554 405.597 113.802 403.899 118.245C403.28 120.142 402.482 121.976 401.516 123.722C398.126 129.188 390.472 131.138 384.474 128.816C382.261 127.959 380.17 126.531 379.049 124.439C378.475 123.141 377.986 121.807 377.586 120.446C376.544 117.685 375.022 111.908 372.492 110.388C371.379 109.72 369.681 112.591 368.719 111.718C366.249 109.474 366.234 105.552 367.212 102.361C368.134 99.1628 369.286 96.0357 370.658 93.0039C371.247 91.7805 377.397 86.7162 377.395 86.9022Z" fill="#2F2E41"/>
<rect x="62" y="69" width="82" height="97" rx="2" fill="white"/>
<rect x="137.143" y="76" width="20" height="20" rx="2" transform="rotate(45 137.143 76)" fill="white"/>
<path d="M73 77.1636C73 76.7563 73 76.5527 73.0244 76.3971C73.0459 76.2603 73.0802 76.149 73.1223 76.0793C73.1702 76 73.2329 76 73.3584 76H86.6416C86.7671 76 86.8298 76 86.8777 76.0793C86.9198 76.149 86.9541 76.2603 86.9756 76.3971C87 76.5527 87 76.7563 87 77.1636V78.8364C87 79.2437 87 79.4473 86.9756 79.6029C86.9541 79.7397 86.9198 79.851 86.8777 79.9207C86.8298 80 86.7671 80 86.6416 80H73.3584C73.2329 80 73.1702 80 73.1223 79.9207C73.0802 79.851 73.0459 79.7397 73.0244 79.6029C73 79.4473 73 79.2437 73 78.8364V77.1636Z" fill="#424754"/>
<g filter="url(#filter0_d)">
<path d="M82.7255 110.29C82.2517 110.086 81.7008 110.305 81.5166 110.786C79.8755 115.079 79.5553 119.772 80.6094 124.26C81.7348 129.051 84.3673 133.354 88.12 136.538C91.8727 139.722 96.5477 141.618 101.458 141.948C106.368 142.278 111.255 141.024 115.4 138.371C119.545 135.718 122.729 131.805 124.486 127.208C126.242 122.61 126.477 117.571 125.157 112.83C123.837 108.089 121.031 103.896 117.151 100.868C113.517 98.0324 109.121 96.358 104.536 96.0513C104.021 96.0169 103.592 96.4258 103.578 96.9412C103.565 97.4567 103.972 97.8833 104.487 97.9196C108.672 98.2147 112.683 99.7502 116.002 102.341C119.567 105.123 122.145 108.975 123.358 113.331C124.571 117.687 124.355 122.317 122.741 126.541C121.128 130.765 118.202 134.361 114.393 136.798C110.585 139.236 106.095 140.388 101.583 140.085C97.0716 139.782 92.7761 138.04 89.3281 135.114C85.88 132.189 83.4613 128.235 82.4272 123.833C81.4645 119.734 81.7494 115.449 83.2338 111.524C83.4162 111.042 83.1993 110.493 82.7255 110.29Z" fill="#27AE60"/>
</g>
<path d="M96.0566 117.603C96.0566 117.029 96.0566 116.742 96.0801 116.522C96.1007 116.329 96.1337 116.172 96.1742 116.074C96.2202 115.962 96.2805 115.962 96.401 115.962H109.165C109.286 115.962 109.346 115.962 109.392 116.074C109.432 116.172 109.465 116.329 109.486 116.522C109.509 116.742 109.509 117.029 109.509 117.603V119.963C109.509 120.537 109.509 120.824 109.486 121.044C109.465 121.237 109.432 121.394 109.392 121.492C109.346 121.604 109.286 121.604 109.165 121.604H96.401C96.2805 121.604 96.2202 121.604 96.1742 121.492C96.1337 121.394 96.1007 121.237 96.0801 121.044C96.0566 120.824 96.0566 120.537 96.0566 119.963V117.603Z" fill="#424754"/>
<path d="M85.6416 148.273C85.6416 148.052 85.6416 147.941 85.7014 147.857C85.754 147.783 85.8379 147.722 85.9411 147.685C86.0584 147.642 86.212 147.642 86.5192 147.642H119.047C119.354 147.642 119.508 147.642 119.625 147.685C119.728 147.722 119.812 147.783 119.865 147.857C119.925 147.941 119.925 148.052 119.925 148.273V149.18C119.925 149.401 119.925 149.512 119.865 149.596C119.812 149.67 119.728 149.731 119.625 149.768C119.508 149.811 119.354 149.811 119.047 149.811H86.5192C86.212 149.811 86.0584 149.811 85.9411 149.768C85.8379 149.731 85.754 149.67 85.7014 149.596C85.6416 149.512 85.6416 149.401 85.6416 149.18V148.273Z" fill="#97999D"/>
<path d="M296 220.929H254V273.506H296V220.929Z" fill="#3F3D56"/>
<path d="M282 233H260V236H282V233Z" fill="white"/>
<path d="M290 244H260V246H290V244Z" fill="white"/>
<path d="M290 249H260V251H290V249Z" fill="white"/>
<path d="M290 254H260V256H290V254Z" fill="white"/>
<path d="M290 259H260V261H290V259Z" fill="white"/>
<path d="M278.036 220.183V218.82C278.036 218.072 277.738 217.355 277.209 216.826C276.68 216.297 275.962 216 275.214 216C274.466 216 273.749 216.297 273.219 216.826C272.69 217.355 272.393 218.072 272.392 218.82V220.183H267.04V223.199H283.389V220.183H278.036ZM275.214 216.777C275.542 216.777 275.861 216.874 276.133 217.056C276.405 217.237 276.617 217.496 276.743 217.798C276.868 218.1 276.901 218.433 276.837 218.754C276.773 219.075 276.615 219.37 276.384 219.601C276.153 219.832 275.858 219.99 275.537 220.054C275.216 220.117 274.884 220.085 274.581 219.96C274.279 219.834 274.021 219.622 273.839 219.35C273.657 219.078 273.56 218.758 273.56 218.431C273.56 218.214 273.603 217.999 273.686 217.798C273.769 217.597 273.891 217.415 274.045 217.261C274.198 217.108 274.381 216.986 274.581 216.903C274.782 216.82 274.997 216.777 275.214 216.777Z" fill="#F04B5D"/>
</g>
<defs>
<filter id="filter0_d" x="60" y="80.0493" width="86" height="85.9507" filterUnits="userSpaceOnUse" color-interpolation-filters="sRGB">
<feFlood flood-opacity="0" result="BackgroundImageFix"/>
<feColorMatrix in="SourceAlpha" type="matrix" values="0 0 0 0 0 0 0 0 0 0 0 0 0 0 0 0 0 0 127 0"/>
<feOffset dy="4"/>
<feGaussianBlur stdDeviation="10"/>
<feColorMatrix type="matrix" values="0 0 0 0 0 0 0 0 0 0 0 0 0 0 0 0 0 0 0.19 0"/>
<feBlend mode="normal" in2="BackgroundImageFix" result="effect1_dropShadow"/>
<feBlend mode="normal" in="SourceGraphic" in2="effect1_dropShadow" result="shape"/>
</filter>
<clipPath id="clip0">
<rect width="509" height="298" fill="white"/>
</clipPath>
</defs>
</svg>
