<svg width="969" height="298" viewBox="0 0 969 298" fill="none" xmlns="http://www.w3.org/2000/svg">
<path d="M569.288 99H576.272L579.224 93.6C580.124 91.98 580.808 90.396 580.808 90.396H580.88C580.88 90.396 581.564 91.98 582.464 93.6L585.416 99H592.436L584.588 86.22L592.472 73.26H585.308L582.464 78.552C581.564 80.208 580.88 81.864 580.88 81.864H580.808C580.808 81.864 580.088 80.172 579.224 78.552L576.416 73.26H569.252L577.1 86.22L569.288 99ZM594.432 99H600.48L605.628 90.864C605.916 90.36 606.312 89.784 606.636 89.028H606.708C606.636 89.748 606.636 90.468 606.636 90.9V99H612.504V80.46H606.456L601.308 88.632C600.984 89.172 600.624 89.712 600.3 90.468H600.228C600.264 90 600.3 89.28 600.3 88.632V80.46H594.432V99ZM615.894 99H621.834L622.266 90.468C622.338 89.028 622.23 87.3 622.23 87.3H622.302C622.302 87.3 622.986 88.848 623.382 90.036L625.83 96.516H630.87L633.318 90.036C633.786 88.884 634.326 87.3 634.326 87.3H634.398C634.398 87.3 634.326 89.028 634.362 90.468L634.794 99H640.77L639.006 80.46H631.842L629.106 88.596C628.782 89.532 628.35 90.756 628.35 90.756H628.314C628.314 90.756 627.918 89.532 627.594 88.596L624.858 80.46H617.658L615.894 99ZM644.143 99H650.191L655.339 90.864C655.627 90.36 656.023 89.784 656.347 89.028H656.419C656.347 89.748 656.347 90.468 656.347 90.9V99H662.215V80.46H656.167L651.019 88.632C650.695 89.172 650.335 89.712 650.011 90.468H649.939C649.975 90 650.011 89.28 650.011 88.632V80.46H644.143V99ZM664.633 99H671.221L674.785 93.348H676.081V99H682.309V80.46H672.589C668.485 80.46 665.893 82.836 665.893 86.724C665.893 89.1 667.225 91.224 669.241 92.232V92.268C669.241 92.268 668.881 92.628 668.377 93.384L664.633 99ZM674.605 89.208C673.129 89.208 672.085 88.452 672.085 86.688C672.085 84.96 673.129 84.312 674.569 84.312H676.081V89.208H674.605ZM695.471 99H705.587C709.259 99 712.643 97.56 712.643 93.492C712.643 91.872 711.851 90.036 709.727 89.388V89.352C711.131 88.524 711.887 86.868 711.887 85.32C711.887 82.116 709.295 80.46 705.587 80.46H695.471V99ZM701.699 87.768V84.312H703.967C705.191 84.312 705.695 85.068 705.695 85.932C705.695 86.904 705.191 87.768 704.039 87.768H701.699ZM701.699 95.112V91.404H704.471C705.803 91.404 706.415 92.268 706.415 93.276C706.415 94.212 705.767 95.112 704.435 95.112H701.699ZM724.861 106.2H731.089V99.252C731.089 98.316 731.017 97.668 731.017 97.668H731.089C732.421 98.82 734.077 99.432 735.805 99.432C740.737 99.432 744.445 95.616 744.445 89.748C744.445 83.988 741.133 80.028 736.093 80.028C733.861 80.028 731.737 80.892 730.477 82.584H730.405C730.405 82.584 730.477 82.008 730.477 81.396V80.46H724.861V106.2ZM730.909 89.856C730.909 86.652 732.673 85.284 734.545 85.284C736.705 85.284 738.181 87.084 738.181 89.856C738.181 92.7 736.489 94.284 734.545 94.284C732.097 94.284 730.909 92.088 730.909 89.856ZM746.311 93.78C746.311 96.984 748.795 99.432 752.359 99.432C754.483 99.432 756.643 98.46 757.867 96.732H757.939C757.939 96.732 757.867 97.272 757.867 97.884V99H763.555V87.588C763.555 82.872 760.387 80.028 755.275 80.028C752.251 80.028 749.011 81.216 747.427 82.44L749.587 86.832C751.063 85.86 752.899 85.068 754.699 85.068C756.067 85.068 757.327 85.572 757.327 87.12V87.444H756.787C752.215 87.444 746.311 88.812 746.311 93.78ZM752.467 93.204C752.467 91.512 754.915 91.008 756.823 91.008H757.399V91.512C757.399 93.024 756.031 94.788 754.231 94.788C753.079 94.788 752.467 94.068 752.467 93.204ZM766.678 87.912C766.678 94.716 770.026 99.432 776.722 99.432C782.59 99.432 786.298 95.544 786.298 90.432C786.298 85.464 783.274 81.936 778.306 81.936C776.686 81.936 774.454 82.368 772.87 83.7H772.798C772.906 81.036 775.426 80.028 777.802 79.236L784.786 77.004L783.022 72L777.01 74.016C769.774 76.5 766.678 80.352 766.678 87.912ZM772.87 90.54C772.87 88.128 774.526 86.616 776.47 86.616C778.414 86.616 780.07 88.128 780.07 90.54C780.07 92.916 778.414 94.356 776.47 94.356C774.526 94.356 772.87 92.916 772.87 90.54ZM788.505 89.784C788.505 95.58 793.185 99.432 799.017 99.432C804.849 99.432 809.529 95.58 809.529 89.784C809.529 83.952 804.849 80.028 798.981 80.028C793.185 80.028 788.505 83.952 788.505 89.784ZM794.805 89.784C794.805 86.976 796.749 85.212 799.017 85.212C801.285 85.212 803.229 86.976 803.229 89.784C803.229 92.556 801.285 94.248 799.017 94.248C796.749 94.248 794.805 92.556 794.805 89.784ZM817.975 93.312C820.243 93.312 821.899 92.808 822.943 92.34H823.015C823.015 92.34 822.979 92.808 822.979 93.204V99H829.207V80.46H822.979V87.336C822.367 87.768 821.431 88.236 820.171 88.236C818.623 88.236 817.795 87.336 817.795 85.752V80.46H811.675V86.94C811.675 91.8 814.987 93.312 817.975 93.312ZM833.389 99H839.437L844.585 90.864C844.873 90.36 845.269 89.784 845.593 89.028H845.665C845.593 89.748 845.593 90.468 845.593 90.9V99H851.461V80.46H845.413L840.265 88.632C839.941 89.172 839.581 89.712 839.257 90.468H839.185C839.221 90 839.257 89.28 839.257 88.632V80.46H833.389V99ZM853.951 99H860.791L862.987 94.824C863.167 94.5 863.419 93.888 863.419 93.888H863.491C863.491 93.888 863.743 94.5 863.923 94.824L866.155 99H872.995L867.163 89.82L873.103 80.46H866.083L864.067 84.6C863.851 85.068 863.491 85.824 863.491 85.824H863.419C863.419 85.824 863.095 85.068 862.843 84.6L860.827 80.46H853.807L859.783 89.82L853.951 99ZM571.088 141H585.92V145.32H591.464V135.78H588.8V122.46H582.572V135.78H577.316V122.46H571.088V141ZM593.107 131.712C593.107 136.644 596.671 141.432 603.295 141.432C606.139 141.432 609.199 140.46 611.215 138.732L608.911 134.376C607.399 135.384 605.635 136.248 603.799 136.248C601.819 136.248 599.947 135.204 599.479 132.936H611.179C611.251 132.288 611.323 131.64 611.323 130.992C611.323 125.844 608.227 122.028 602.755 122.028C596.779 122.028 593.107 126.276 593.107 131.712ZM599.623 129.372C599.947 127.896 600.811 126.6 602.611 126.6C604.195 126.6 605.167 127.86 605.167 129.372H599.623ZM613.068 141.18C620.268 141.18 622.428 135.996 622.428 128.436V127.392H625.524V141H631.752V122.46H616.56V128.4C616.56 134.772 614.724 135.528 613.068 135.744V141.18ZM634.152 141H640.74L644.304 135.348H645.6V141H651.828V122.46H642.108C638.004 122.46 635.412 124.836 635.412 128.724C635.412 131.1 636.744 133.224 638.76 134.232V134.268C638.76 134.268 638.4 134.628 637.896 135.384L634.152 141ZM644.124 131.208C642.648 131.208 641.604 130.452 641.604 128.688C641.604 126.96 642.648 126.312 644.088 126.312H645.6V131.208H644.124ZM654.298 141H661.138L663.334 136.824C663.514 136.5 663.766 135.888 663.766 135.888H663.838C663.838 135.888 664.09 136.5 664.27 136.824L666.502 141H673.342L667.51 131.82L673.45 122.46H666.43L664.414 126.6C664.198 127.068 663.838 127.824 663.838 127.824H663.766C663.766 127.824 663.442 127.068 663.19 126.6L661.174 122.46H654.154L660.13 131.82L654.298 141ZM691.623 136.068C692.919 133.584 693.279 130.884 693.279 128.076V127.392H696.483V136.068H691.623ZM683.199 136.068V145.32H688.959V141H699.831V145.32H705.375V136.068H702.711V122.46H687.411V126.924C687.411 130.668 686.727 133.98 685.503 136.068H683.199ZM706.865 141.18C714.065 141.18 716.225 135.996 716.225 128.436V127.392H719.321V141H725.549V122.46H710.357V128.4C710.357 134.772 708.521 135.528 706.865 135.744V141.18ZM727.949 141H734.537L738.101 135.348H739.397V141H745.625V122.46H735.905C731.801 122.46 729.209 124.836 729.209 128.724C729.209 131.1 730.541 133.224 732.557 134.232V134.268C732.557 134.268 732.197 134.628 731.693 135.384L727.949 141ZM737.921 131.208C736.445 131.208 735.401 130.452 735.401 128.688C735.401 126.96 736.445 126.312 737.885 126.312H739.397V131.208H737.921ZM758.787 141H768.903C772.575 141 775.959 139.56 775.959 135.492C775.959 133.872 775.167 132.036 773.043 131.388V131.352C774.447 130.524 775.203 128.868 775.203 127.32C775.203 124.116 772.611 122.46 768.903 122.46H758.787V141ZM765.015 129.768V126.312H767.283C768.507 126.312 769.011 127.068 769.011 127.932C769.011 128.904 768.507 129.768 767.355 129.768H765.015ZM765.015 137.112V133.404H767.787C769.119 133.404 769.731 134.268 769.731 135.276C769.731 136.212 769.083 137.112 767.751 137.112H765.015ZM777.63 138.696C779.646 140.496 782.634 141.432 785.37 141.432C789.762 141.432 793.038 139.452 793.038 135.528C793.038 133.368 791.562 132.072 790.158 131.424V131.352C791.274 130.74 792.462 129.48 792.462 127.176C792.462 123.972 789.438 122.028 785.622 122.028C782.238 122.028 779.862 122.928 778.134 124.116L779.934 127.968C781.878 126.816 783.318 126.564 784.326 126.564C785.91 126.564 786.27 127.248 786.27 128.04C786.27 129.192 785.37 129.48 784.398 129.48H782.526V133.584H784.794C786.486 133.584 786.81 134.232 786.81 135.132C786.81 135.996 786.306 136.752 784.578 136.752C783.102 136.752 781.266 135.852 780.114 134.808L777.63 138.696ZM796.193 148.2H802.421V141.252C802.421 140.316 802.349 139.668 802.349 139.668H802.421C803.753 140.82 805.409 141.432 807.137 141.432C812.069 141.432 815.777 137.616 815.777 131.748C815.777 125.988 812.465 122.028 807.425 122.028C805.193 122.028 803.069 122.892 801.809 124.584H801.737C801.737 124.584 801.809 124.008 801.809 123.396V122.46H796.193V148.2ZM802.241 131.856C802.241 128.652 804.005 127.284 805.877 127.284C808.037 127.284 809.513 129.084 809.513 131.856C809.513 134.7 807.821 136.284 805.877 136.284C803.429 136.284 802.241 134.088 802.241 131.856ZM817.931 131.784C817.931 137.58 822.611 141.432 828.443 141.432C834.275 141.432 838.955 137.58 838.955 131.784C838.955 125.952 834.275 122.028 828.407 122.028C822.611 122.028 817.931 125.952 817.931 131.784ZM824.231 131.784C824.231 128.976 826.175 127.212 828.443 127.212C830.711 127.212 832.655 128.976 832.655 131.784C832.655 134.556 830.711 136.248 828.443 136.248C826.175 136.248 824.231 134.556 824.231 131.784ZM841.028 131.712C841.028 136.824 844.736 141.432 851.36 141.432C854.456 141.432 857.48 140.244 859.316 138.372L857.048 134.016C855.716 135.168 853.772 136.248 851.972 136.248C848.84 136.248 847.328 133.836 847.328 131.64C847.328 129.444 848.804 127.212 851.756 127.212C853.376 127.212 855.032 127.968 856.112 129.012L858.74 124.836C856.904 122.856 853.952 122.028 851.36 122.028C844.7 122.028 841.028 126.744 841.028 131.712ZM860.568 141.18C867.768 141.18 869.928 135.996 869.928 128.436V127.392H873.024V141H879.252V122.46H864.06V128.4C864.06 134.772 862.224 135.528 860.568 135.744V141.18ZM901.92 141H908.148V122.46H901.92V141ZM883.416 141H892.452C897.636 141 899.796 138.444 899.796 134.664C899.796 130.92 897.636 128.256 892.452 128.256H889.644V122.46H883.416V141ZM889.644 136.932V132.288H891.192C892.776 132.288 893.568 133.332 893.568 134.628C893.568 135.924 892.776 136.932 891.3 136.932H889.644ZM910.623 141H917.463L919.659 136.824C919.839 136.5 920.091 135.888 920.091 135.888H920.163C920.163 135.888 920.415 136.5 920.595 136.824L922.827 141H929.667L923.835 131.82L929.775 122.46H922.755L920.739 126.6C920.523 127.068 920.163 127.824 920.163 127.824H920.091C920.091 127.824 919.767 127.068 919.515 126.6L917.499 122.46H910.479L916.455 131.82L910.623 141Z" fill="#222224"/>
<path d="M570.674 196H572.456V184.84H578.9V196H580.682V183.292H570.674V196ZM582.94 191.428C582.94 194.2 585.136 196.216 587.854 196.216C590.554 196.216 592.75 194.2 592.75 191.428C592.75 188.674 590.554 186.676 587.836 186.676C585.136 186.676 582.94 188.674 582.94 191.428ZM584.722 191.428C584.722 189.538 586.126 188.188 587.854 188.188C589.564 188.188 590.986 189.538 590.986 191.428C590.986 193.336 589.564 194.704 587.854 194.704C586.126 194.704 584.722 193.336 584.722 191.428ZM594.476 196H596.168L596.564 190.582C596.6 190.042 596.546 189.016 596.546 189.016H596.582C596.582 189.016 596.87 189.7 597.158 190.366L599.318 194.902H600.812L602.972 190.348C603.314 189.646 603.548 189.016 603.548 189.016H603.584C603.584 189.016 603.548 190.042 603.566 190.582L603.962 196H605.654L604.862 186.892H602.954L600.578 192.04C600.344 192.598 600.074 193.264 600.074 193.264H600.038C600.038 193.264 599.786 192.58 599.534 192.04L597.212 186.892H595.268L594.476 196ZM607.408 191.428C607.408 194.2 609.604 196.216 612.322 196.216C615.022 196.216 617.218 194.2 617.218 191.428C617.218 188.674 615.022 186.676 612.304 186.676C609.604 186.676 607.408 188.674 607.408 191.428ZM609.19 191.428C609.19 189.538 610.594 188.188 612.322 188.188C614.032 188.188 615.454 189.538 615.454 191.428C615.454 193.336 614.032 194.704 612.322 194.704C610.594 194.704 609.19 193.336 609.19 191.428ZM617.997 196H619.941L622.335 192.112H623.631V196H625.287V192.112H626.601L628.977 196H630.939L628.005 191.32V191.284L630.669 186.892H628.833L626.583 190.618H625.287V186.892H623.631V190.618H622.335L620.103 186.892H618.249L620.931 191.284V191.32L617.997 196ZM631.701 191.446C631.701 194.146 633.681 196.216 636.543 196.216C637.803 196.216 639.189 195.73 640.071 194.92L639.333 193.642C638.613 194.29 637.623 194.704 636.651 194.704C635.013 194.704 633.609 193.642 633.519 191.68H640.143C640.179 191.428 640.215 191.176 640.215 190.942C640.215 188.602 638.847 186.676 636.273 186.676C633.681 186.676 631.701 188.548 631.701 191.446ZM633.573 190.42C633.825 188.908 634.887 188.026 636.237 188.026C637.425 188.026 638.397 188.854 638.451 190.42H633.573ZM641.937 196H643.629L644.025 190.582C644.061 190.042 644.007 189.016 644.007 189.016H644.043C644.043 189.016 644.331 189.7 644.619 190.366L646.779 194.902H648.273L650.433 190.348C650.775 189.646 651.009 189.016 651.009 189.016H651.045C651.045 189.016 651.009 190.042 651.027 190.582L651.423 196H653.115L652.323 186.892H650.415L648.039 192.04C647.805 192.598 647.535 193.264 647.535 193.264H647.499C647.499 193.264 647.247 192.58 646.995 192.04L644.673 186.892H642.729L641.937 196ZM659.963 196H661.709V188.386H666.173V196H667.919V186.892H659.963V196ZM670.022 191.428C670.022 194.2 672.218 196.216 674.936 196.216C677.636 196.216 679.832 194.2 679.832 191.428C679.832 188.674 677.636 186.676 674.918 186.676C672.218 186.676 670.022 188.674 670.022 191.428ZM671.804 191.428C671.804 189.538 673.208 188.188 674.936 188.188C676.646 188.188 678.068 189.538 678.068 191.428C678.068 193.336 676.646 194.704 674.936 194.704C673.208 194.704 671.804 193.336 671.804 191.428ZM681.936 196H683.682V192.094H688.29V196H690.036V186.892H688.29V190.6H683.682V186.892H681.936V196ZM691.811 196H693.737L695.969 192.706H697.499V196H699.245V186.892H695.609C693.683 186.892 692.351 187.882 692.351 189.754C692.351 191.14 693.287 192.112 694.331 192.4V192.418C694.331 192.418 694.115 192.652 693.917 192.976L691.811 196ZM695.987 191.428C694.925 191.428 694.115 190.87 694.115 189.736C694.115 188.566 694.871 188.098 696.041 188.098H697.499V191.428H695.987ZM704.136 196H705.864V188.386H709.05V186.892H700.968V188.386H704.136V196ZM710.764 196H714.31C716.614 196 717.658 194.83 717.658 193.12C717.658 191.05 716.236 190.186 714.346 190.186H712.51V186.892H710.764V196ZM712.51 194.74V191.446H714.076C715.336 191.446 715.876 192.13 715.876 193.102C715.876 194.056 715.336 194.74 714.076 194.74H712.51ZM723.442 191.428C723.442 194.2 725.638 196.216 728.356 196.216C731.056 196.216 733.252 194.2 733.252 191.428C733.252 188.674 731.056 186.676 728.338 186.676C725.638 186.676 723.442 188.674 723.442 191.428ZM725.224 191.428C725.224 189.538 726.628 188.188 728.356 188.188C730.066 188.188 731.488 189.538 731.488 191.428C731.488 193.336 730.066 194.704 728.356 194.704C726.628 194.704 725.224 193.336 725.224 191.428ZM734.762 191.446C734.762 194.182 736.76 196.216 739.64 196.216C741.062 196.216 742.448 195.64 743.276 194.758L742.574 193.48C741.872 194.218 740.774 194.704 739.766 194.704C737.876 194.704 736.544 193.282 736.544 191.428C736.544 189.574 737.876 188.188 739.712 188.188C740.666 188.188 741.62 188.62 742.232 189.232L743.06 188.008C742.196 187.09 740.846 186.676 739.64 186.676C736.778 186.676 734.762 188.746 734.762 191.446ZM745.164 196H746.91V192.094H751.518V196H753.264V186.892H751.518V190.6H746.91V186.892H745.164V196ZM755.363 191.428C755.363 194.2 757.559 196.216 760.277 196.216C762.977 196.216 765.173 194.2 765.173 191.428C765.173 188.674 762.977 186.676 760.259 186.676C757.559 186.676 755.363 188.674 755.363 191.428ZM757.145 191.428C757.145 189.538 758.549 188.188 760.277 188.188C761.987 188.188 763.409 189.538 763.409 191.428C763.409 193.336 761.987 194.704 760.277 194.704C758.549 194.704 757.145 193.336 757.145 191.428ZM767.278 196H771.166C773.146 196 774.514 195.1 774.514 193.408C774.514 192.4 773.92 191.518 772.786 191.248V191.23C773.614 190.87 774.082 190.114 774.082 189.232C774.082 187.702 772.876 186.892 771.04 186.892H767.278V196ZM769.024 190.744V188.098H770.68C771.778 188.098 772.3 188.53 772.3 189.358C772.3 190.204 771.778 190.744 770.734 190.744H769.024ZM769.024 194.776V191.914H770.878C772.084 191.914 772.75 192.454 772.75 193.354C772.75 194.2 772.156 194.776 770.896 194.776H769.024ZM784.873 196H786.619V186.892H784.873V196ZM776.629 196H780.139C782.425 196 783.469 194.83 783.469 193.12C783.469 191.05 782.047 190.186 780.157 190.186H778.375V186.892H776.629V196ZM778.375 194.74V191.446H779.887C781.147 191.446 781.705 192.13 781.705 193.102C781.705 194.056 781.165 194.74 779.905 194.74H778.375ZM792.777 196H794.757L796.665 192.958C796.809 192.742 796.935 192.472 796.935 192.472H796.971C796.971 192.472 797.115 192.742 797.259 192.958L799.167 196H801.147L798.033 191.32L800.967 186.892H798.969L797.277 189.664C797.151 189.898 796.971 190.204 796.971 190.204H796.935C796.935 190.204 796.773 189.898 796.647 189.664L794.955 186.892H792.957L795.891 191.32L792.777 196ZM802.803 196H804.477L808.419 190.564C808.707 190.132 809.157 189.52 809.211 189.358H809.247C809.247 189.502 809.193 190.132 809.193 190.564V196H810.885V186.892H809.193L805.269 192.328C804.963 192.76 804.531 193.39 804.459 193.552H804.423C804.441 193.462 804.477 192.814 804.477 192.328V186.892H802.803V196ZM813.183 196H814.875L815.271 190.582C815.307 190.042 815.253 189.016 815.253 189.016H815.289C815.289 189.016 815.577 189.7 815.865 190.366L818.025 194.902H819.519L821.679 190.348C822.021 189.646 822.255 189.016 822.255 189.016H822.291C822.291 189.016 822.255 190.042 822.273 190.582L822.669 196H824.361L823.569 186.892H821.661L819.285 192.04C819.051 192.598 818.781 193.264 818.781 193.264H818.745C818.745 193.264 818.493 192.58 818.241 192.04L815.919 186.892H813.975L813.183 196ZM826.709 196H828.383L832.325 190.564C832.613 190.132 833.063 189.52 833.117 189.358H833.153C833.153 189.502 833.099 190.132 833.099 190.564V196H834.791V186.892H833.099L829.175 192.328C828.869 192.76 828.437 193.39 828.365 193.552H828.329C828.347 193.462 828.383 192.814 828.383 192.328V186.892H826.709V196ZM837.467 196H839.141L843.083 190.564C843.371 190.132 843.821 189.52 843.875 189.358H843.911C843.911 189.502 843.857 190.132 843.857 190.564V196H845.549V186.892H843.857L839.933 192.328C839.627 192.76 839.195 193.39 839.123 193.552H839.087C839.105 193.462 839.141 192.814 839.141 192.328V186.892H837.467V196ZM569.36 224.09C572.042 223.946 573.086 221.822 573.086 217.7V216.332H575.768V224H577.514V214.892H571.412V217.7C571.412 220.994 570.692 222.326 569.36 222.524V224.09ZM579.617 219.446C579.617 222.146 581.597 224.216 584.459 224.216C585.719 224.216 587.105 223.73 587.987 222.92L587.249 221.642C586.529 222.29 585.539 222.704 584.567 222.704C582.929 222.704 581.525 221.642 581.435 219.68H588.059C588.095 219.428 588.131 219.176 588.131 218.942C588.131 216.602 586.763 214.676 584.189 214.676C581.597 214.676 579.617 216.548 579.617 219.446ZM581.489 218.42C581.741 216.908 582.803 216.026 584.153 216.026C585.341 216.026 586.313 216.854 586.367 218.42H581.489ZM590.231 224H591.977V216.386H595.937V214.892H590.231V224ZM597.666 224H599.412V220.058H600.726L603.444 224H605.514L602.112 219.266V219.23L605.154 214.892H603.174L600.69 218.564H599.412V214.892H597.666V224ZM606.09 219.428C606.09 222.2 608.286 224.216 611.004 224.216C613.704 224.216 615.9 222.2 615.9 219.428C615.9 216.674 613.704 214.676 610.986 214.676C608.286 214.676 606.09 216.674 606.09 219.428ZM607.872 219.428C607.872 217.538 609.276 216.188 611.004 216.188C612.714 216.188 614.136 217.538 614.136 219.428C614.136 221.336 612.714 222.704 611.004 222.704C609.276 222.704 607.872 221.336 607.872 219.428ZM622.504 224H624.178L628.12 218.564C628.408 218.132 628.858 217.52 628.912 217.358H628.948C628.948 217.502 628.894 218.132 628.894 218.564V224H630.586V214.892H628.894L624.97 220.328C624.664 220.76 624.232 221.39 624.16 221.552H624.124C624.142 221.462 624.178 220.814 624.178 220.328V214.892H622.504V224ZM637.762 224H639.508V216.386H643.972V224H645.718V214.892H637.762V224ZM648.414 227.6H650.16V223.46C650.16 222.992 650.088 222.668 650.088 222.668H650.124C650.754 223.64 651.798 224.216 652.95 224.216C655.344 224.216 657.072 222.344 657.072 219.446C657.072 216.62 655.542 214.676 653.076 214.676C651.744 214.676 650.592 215.288 650.016 216.386H649.98C649.98 216.386 650.034 216.08 650.034 215.702V214.892H648.414V227.6ZM650.106 219.482C650.106 217.178 651.366 216.206 652.734 216.206C654.246 216.206 655.308 217.484 655.308 219.464C655.308 221.534 654.12 222.704 652.68 222.704C651.006 222.704 650.106 221.102 650.106 219.482ZM658.631 219.428C658.631 222.2 660.827 224.216 663.545 224.216C666.245 224.216 668.441 222.2 668.441 219.428C668.441 216.674 666.245 214.676 663.527 214.676C660.827 214.676 658.631 216.674 658.631 219.428ZM660.413 219.428C660.413 217.538 661.817 216.188 663.545 216.188C665.255 216.188 666.677 217.538 666.677 219.428C666.677 221.336 665.255 222.704 663.545 222.704C661.817 222.704 660.413 221.336 660.413 219.428ZM669.951 219.446C669.951 222.182 671.949 224.216 674.829 224.216C676.251 224.216 677.637 223.64 678.465 222.758L677.763 221.48C677.061 222.218 675.963 222.704 674.955 222.704C673.065 222.704 671.733 221.282 671.733 219.428C671.733 217.574 673.065 216.188 674.901 216.188C675.855 216.188 676.809 216.62 677.421 217.232L678.249 216.008C677.385 215.09 676.035 214.676 674.829 214.676C671.967 214.676 669.951 216.746 669.951 219.446ZM682.55 224H684.278V216.386H687.464V214.892H679.382V216.386H682.55V224ZM688.285 219.428C688.285 222.2 690.481 224.216 693.199 224.216C695.899 224.216 698.095 222.2 698.095 219.428C698.095 216.674 695.899 214.676 693.181 214.676C690.481 214.676 688.285 216.674 688.285 219.428ZM690.067 219.428C690.067 217.538 691.471 216.188 693.199 216.188C694.909 216.188 696.331 217.538 696.331 219.428C696.331 221.336 694.909 222.704 693.199 222.704C691.471 222.704 690.067 221.336 690.067 219.428Z" fill="#424754"/>
<g clip-path="url(#clip0)">
<path d="M0 4.40122C0 2.86065 0 2.09037 0.299609 1.50195C0.563153 0.984356 0.983678 0.563541 1.50091 0.299816C2.08893 0 2.85869 0 4.3982 0H504.602C506.141 0 506.911 0 507.499 0.299816C508.016 0.563541 508.437 0.984356 508.7 1.50195C509 2.09037 509 2.86066 509 4.40123V293.599C509 295.139 509 295.91 508.7 296.498C508.437 297.016 508.016 297.436 507.499 297.7C506.911 298 506.141 298 504.602 298H4.39818C2.85868 298 2.08893 298 1.50091 297.7C0.983678 297.436 0.563153 297.016 0.299609 296.498C0 295.91 0 295.139 0 293.599V4.40122Z" fill="#F3F3F3"/>
<rect x="93" y="189" width="285" height="122" rx="4" fill="white"/>
<rect x="160" y="26" width="250" height="140" rx="2" fill="white"/>
<path d="M240 63L265 74L259 101L291 110L287 140" stroke="#8A8D95"/>
<path d="M242 63C242 64.1046 241.105 65 240 65C238.895 65 238 64.1046 238 63C238 61.8954 238.895 61 240 61C241.105 61 242 61.8954 242 63Z" fill="#424754"/>
<path d="M267 74C267 75.1046 266.105 76 265 76C263.895 76 263 75.1046 263 74C263 72.8954 263.895 72 265 72C266.105 72 267 72.8954 267 74Z" fill="#F04B5D"/>
<path d="M261 101C261 102.105 260.105 103 259 103C257.895 103 257 102.105 257 101C257 99.8954 257.895 99 259 99C260.105 99 261 99.8954 261 101Z" fill="#424754"/>
<path d="M293 110C293 111.105 292.105 112 291 112C289.895 112 289 111.105 289 110C289 108.895 289.895 108 291 108C292.105 108 293 108.895 293 110Z" fill="#424754"/>
<path d="M289 140C289 141.105 288.105 142 287 142C285.895 142 285 141.105 285 140C285 138.895 285.895 138 287 138C288.105 138 289 138.895 289 140Z" fill="#424754"/>
<path d="M177 40.4545C177 39.9454 177 39.6908 177.058 39.4964C177.108 39.3253 177.189 39.1862 177.288 39.0991C177.401 39 177.549 39 177.845 39H209.155C209.451 39 209.599 39 209.712 39.0991C209.811 39.1862 209.892 39.3253 209.942 39.4964C210 39.6908 210 39.9454 210 40.4545V42.5455C210 43.0546 210 43.3092 209.942 43.5036C209.892 43.6747 209.811 43.8138 209.712 43.9009C209.599 44 209.451 44 209.155 44H177.845C177.549 44 177.401 44 177.288 43.9009C177.189 43.8138 177.108 43.6747 177.058 43.5036C177 43.3092 177 43.0546 177 42.5455V40.4545Z" fill="#424754"/>
<path d="M380 40.4545C380 39.9454 380 39.6908 380.026 39.4964C380.049 39.3253 380.086 39.1862 380.131 39.0991C380.182 39 380.25 39 380.384 39H394.616C394.75 39 394.818 39 394.869 39.0991C394.914 39.1862 394.951 39.3253 394.974 39.4964C395 39.6908 395 39.9454 395 40.4545V42.5455C395 43.0546 395 43.3092 394.974 43.5036C394.951 43.6747 394.914 43.8138 394.869 43.9009C394.818 44 394.75 44 394.616 44H380.384C380.25 44 380.182 44 380.131 43.9009C380.086 43.8138 380.049 43.6747 380.026 43.5036C380 43.3092 380 43.0546 380 42.5455V40.4545Z" fill="#97999D"/>
<path d="M177 63.9455C177 62.2144 177 61.3488 177.03 60.6877C177.056 60.1061 177.097 59.6332 177.149 59.3369C177.207 59 177.283 59 177.435 59H193.565C193.717 59 193.793 59 193.851 59.3369C193.903 59.6332 193.944 60.1061 193.97 60.6877C194 61.3488 194 62.2144 194 63.9455V71.0545C194 72.7856 194 73.6512 193.97 74.3123C193.944 74.8939 193.903 75.3668 193.851 75.6631C193.793 76 193.717 76 193.565 76H177.435C177.283 76 177.207 76 177.149 75.6631C177.097 75.3668 177.056 74.8939 177.03 74.3123C177 73.6512 177 72.7856 177 71.0545V63.9455Z" fill="#E0E0E0"/>
<path d="M177 85.9455C177 84.2144 177 83.3488 177.03 82.6877C177.056 82.1061 177.097 81.6332 177.149 81.3369C177.207 81 177.283 81 177.435 81H193.565C193.717 81 193.793 81 193.851 81.3369C193.903 81.6332 193.944 82.1061 193.97 82.6877C194 83.3488 194 84.2144 194 85.9455V93.0545C194 94.7856 194 95.6512 193.97 96.3123C193.944 96.8939 193.903 97.3668 193.851 97.6631C193.793 98 193.717 98 193.565 98H177.435C177.283 98 177.207 98 177.149 97.6631C177.097 97.3668 177.056 96.8939 177.03 96.3123C177 95.6512 177 94.7856 177 93.0545V85.9455Z" fill="#F04B5D"/>
<path d="M177 107.945C177 106.214 177 105.349 177.03 104.688C177.056 104.106 177.097 103.633 177.149 103.337C177.207 103 177.283 103 177.435 103H193.565C193.717 103 193.793 103 193.851 103.337C193.903 103.633 193.944 104.106 193.97 104.688C194 105.349 194 106.214 194 107.945V115.055C194 116.786 194 117.651 193.97 118.312C193.944 118.894 193.903 119.367 193.851 119.663C193.793 120 193.717 120 193.565 120H177.435C177.283 120 177.207 120 177.149 119.663C177.097 119.367 177.056 118.894 177.03 118.312C177 117.651 177 116.786 177 115.055V107.945Z" fill="#E0E0E0"/>
<path d="M177 129.945C177 128.214 177 127.349 177.03 126.688C177.056 126.106 177.097 125.633 177.149 125.337C177.207 125 177.283 125 177.435 125H193.565C193.717 125 193.793 125 193.851 125.337C193.903 125.633 193.944 126.106 193.97 126.688C194 127.349 194 128.214 194 129.945V137.055C194 138.786 194 139.651 193.97 140.312C193.944 140.894 193.903 141.367 193.851 141.663C193.793 142 193.717 142 193.565 142H177.435C177.283 142 177.207 142 177.149 141.663C177.097 141.367 177.056 140.894 177.03 140.312C177 139.651 177 138.786 177 137.055V129.945Z" fill="#E0E0E0"/>
<path d="M187.935 261.645C187.935 264.848 190.539 267.452 193.741 267.452C196.943 267.452 199.547 264.848 199.547 261.645V226.806H200.516C201.052 226.806 201.484 226.373 201.484 225.839V221.968C201.484 221.434 201.052 221 200.516 221H186.968C186.432 221 186 221.434 186 221.968V225.839C186 226.373 186.432 226.806 186.968 226.806H187.935V261.645Z" fill="#E1EAF7"/>
<path d="M193.702 266C196.42 265.377 198.404 263.557 198.404 261.382V239H189V261.382C189 263.556 190.984 265.376 193.702 266Z" fill="#F04B5D"/>
<path d="M134 262.871C134 265.539 136.171 267.71 138.839 267.71H151H151.419H163.581C166.249 267.71 168.419 265.539 168.419 262.871V261.923C168.419 261.116 168.215 260.314 167.829 259.606L156.806 239.399V229.968C156.806 229.434 156.374 229 155.839 229H151.419H151H146.581C146.045 229 145.613 229.434 145.613 229.968V239.399L134.59 259.606C134.204 260.314 134 261.116 134 261.923V262.871Z" fill="#E1EAF7"/>
<path d="M167.656 262.812V261.864C167.656 261.216 167.494 260.578 167.184 260.01L160.267 247.328H158.78C158.267 247.328 157.775 247.532 157.412 247.895L156.611 248.697C156.248 249.059 155.755 249.264 155.242 249.264H154.91C154.397 249.264 153.905 249.059 153.542 248.697L152.741 247.895C152.377 247.532 151.884 247.328 151.371 247.328H151.039C150.526 247.328 150.034 247.532 149.671 247.895L148.87 248.697C148.506 249.059 148.013 249.264 147.5 249.264H147.169C146.655 249.264 146.163 249.059 145.8 248.697L144.999 247.895C144.635 247.532 144.142 247.328 143.629 247.328H142.153L135.235 260.01C134.926 260.579 134.763 261.216 134.763 261.864V262.812C134.763 264.95 136.496 266.683 138.634 266.683H163.786C165.923 266.683 167.656 264.95 167.656 262.812Z" fill="#2D7EEC"/>
<path d="M428.728 164.163H422.465C422.465 164.163 415.576 169.173 416.202 174.81C416.829 180.446 404.93 229.295 404.93 235.557C404.93 241.82 402.425 243.699 402.425 247.456C402.425 251.214 403.677 253.719 402.425 255.598C401.172 257.476 398.667 268.749 399.293 273.133C399.657 276.044 399.657 278.989 399.293 281.901H414.95C414.95 281.901 426.223 243.699 428.728 241.82C431.233 239.941 432.485 236.81 432.485 234.931C432.485 233.052 431.233 233.052 434.364 230.547C437.495 228.042 435.616 216.769 435.616 216.769L440 205.496L428.728 164.163Z" fill="#D6D3E8"/>
<path d="M341.051 262.799C341.051 262.799 335.415 290.355 344.809 287.85C354.202 285.345 350.445 261.547 350.445 261.547L341.051 262.799Z" fill="#A0616A"/>
<path d="M361.091 255.284C361.091 255.284 353.576 265.304 353.576 270.941C353.576 276.577 351.071 326.678 351.071 326.678C351.071 326.678 337.293 390.557 341.051 394.315C344.808 398.072 356.081 403.709 357.96 401.83C359.839 399.951 372.99 331.688 372.99 331.688L388.647 289.729L403.051 349.85C403.051 349.85 402.425 401.83 404.93 402.456C407.435 403.082 408.687 403.709 407.435 406.214C406.182 408.719 404.303 413.729 404.303 413.729C404.303 413.729 419.96 417.486 423.091 414.981C426.223 412.476 426.849 351.729 423.091 330.436C419.334 309.143 423.717 260.294 423.717 260.294L361.091 255.284Z" fill="#2F2E41"/>
<path d="M383.95 134.102C394.326 134.102 402.738 125.691 402.738 115.314C402.738 104.938 394.326 96.5264 383.95 96.5264C373.574 96.5264 365.162 104.938 365.162 115.314C365.162 125.691 373.574 134.102 383.95 134.102Z" fill="#A0616A"/>
<path d="M378.313 127.213C378.313 127.213 380.818 140.365 378.313 144.122C375.808 147.88 412.132 145.375 412.132 145.375C412.132 145.375 394.596 125.334 396.475 121.577C398.354 117.819 378.313 127.213 378.313 127.213Z" fill="#A0616A"/>
<path d="M362.344 148.819C362.344 148.819 374.869 132.536 390.526 135.668C394.753 136.513 398.615 137.358 402 138.142C413.93 140.904 423.85 149.406 427.926 160.953C428.983 163.947 429.511 166.824 429.041 169.173C427.162 178.567 428.102 252.779 428.102 252.779C428.102 252.779 423.092 254.658 423.718 257.163C424.344 259.668 428.728 262.799 424.344 262.799C419.96 262.799 353.576 260.294 354.829 258.415C356.082 256.536 362.344 148.819 362.344 148.819Z" fill="#D0CDE1"/>
<path d="M368.606 148.819H362.343C362.343 148.819 355.454 153.829 356.08 159.466C356.707 165.102 344.807 213.951 344.807 220.213C344.807 226.476 342.302 228.355 342.302 232.112C342.302 235.87 343.555 238.375 342.302 240.254C341.05 242.133 338.545 253.405 339.171 257.789C339.535 260.7 339.535 263.646 339.171 266.557H354.828C354.828 266.557 366.1 228.355 368.606 226.476C371.111 224.597 372.363 221.466 372.363 219.587C372.363 217.708 371.111 217.708 374.242 215.203C377.373 212.698 375.494 201.425 375.494 201.425L379.878 190.153L368.606 148.819Z" fill="#D0CDE1"/>
<path opacity="0.1" d="M359.476 257.589L378.313 216.143L368.895 260.222L359.476 257.589Z" fill="black"/>
<path d="M377.395 86.9022L377.405 85.3519C378.7 85.1872 380.012 85.2332 381.292 85.4881C381.306 84.5522 381.112 83.625 380.723 82.7734C382.013 82.9431 383.268 83.3165 384.44 83.8796L384.872 81L396.089 84.9311C400.115 86.3422 404.371 87.9134 406.984 91.2861C409.897 95.0461 410.109 100.307 408.99 104.931C407.872 109.554 405.597 113.802 403.899 118.245C403.28 120.142 402.482 121.976 401.516 123.722C398.126 129.188 390.472 131.138 384.474 128.816C382.261 127.959 380.17 126.531 379.049 124.439C378.475 123.141 377.986 121.807 377.586 120.446C376.544 117.685 375.022 111.908 372.492 110.388C371.379 109.72 369.681 112.591 368.719 111.718C366.249 109.474 366.234 105.552 367.212 102.361C368.134 99.1628 369.286 96.0357 370.658 93.0039C371.247 91.7805 377.397 86.7162 377.395 86.9022Z" fill="#2F2E41"/>
<rect x="62" y="69" width="82" height="97" rx="2" fill="white"/>
<rect x="137.143" y="76" width="20" height="20" rx="2" transform="rotate(45 137.143 76)" fill="white"/>
<path d="M73 77.1636C73 76.7563 73 76.5527 73.0244 76.3971C73.0459 76.2603 73.0802 76.149 73.1223 76.0793C73.1702 76 73.2329 76 73.3584 76H86.6416C86.7671 76 86.8298 76 86.8777 76.0793C86.9198 76.149 86.9541 76.2603 86.9756 76.3971C87 76.5527 87 76.7563 87 77.1636V78.8364C87 79.2437 87 79.4473 86.9756 79.6029C86.9541 79.7397 86.9198 79.851 86.8777 79.9207C86.8298 80 86.7671 80 86.6416 80H73.3584C73.2329 80 73.1702 80 73.1223 79.9207C73.0802 79.851 73.0459 79.7397 73.0244 79.6029C73 79.4473 73 79.2437 73 78.8364V77.1636Z" fill="#424754"/>
<g filter="url(#filter0_d)">
<path d="M82.7255 110.29C82.2517 110.086 81.7008 110.305 81.5166 110.786C79.8755 115.079 79.5553 119.772 80.6094 124.26C81.7348 129.051 84.3673 133.354 88.12 136.538C91.8727 139.722 96.5477 141.618 101.458 141.948C106.368 142.278 111.255 141.024 115.4 138.371C119.545 135.718 122.729 131.805 124.486 127.208C126.242 122.61 126.477 117.571 125.157 112.83C123.837 108.089 121.031 103.896 117.151 100.868C113.517 98.0324 109.121 96.358 104.536 96.0513C104.021 96.0169 103.592 96.4258 103.578 96.9412C103.565 97.4567 103.972 97.8833 104.487 97.9196C108.672 98.2147 112.683 99.7502 116.002 102.341C119.567 105.123 122.145 108.975 123.358 113.331C124.571 117.687 124.355 122.317 122.741 126.541C121.128 130.765 118.202 134.361 114.393 136.798C110.585 139.236 106.095 140.388 101.583 140.085C97.0716 139.782 92.7761 138.04 89.3281 135.114C85.88 132.189 83.4613 128.235 82.4272 123.833C81.4645 119.734 81.7494 115.449 83.2338 111.524C83.4162 111.042 83.1993 110.493 82.7255 110.29Z" fill="#27AE60"/>
</g>
<path d="M96.0566 117.603C96.0566 117.029 96.0566 116.741 96.0801 116.522C96.1007 116.329 96.1337 116.172 96.1742 116.074C96.2202 115.962 96.2805 115.962 96.401 115.962H109.165C109.286 115.962 109.346 115.962 109.392 116.074C109.432 116.172 109.465 116.329 109.486 116.522C109.509 116.741 109.509 117.029 109.509 117.603V119.962C109.509 120.537 109.509 120.824 109.486 121.043C109.465 121.236 109.432 121.393 109.392 121.492C109.346 121.603 109.286 121.603 109.165 121.603H96.401C96.2805 121.603 96.2202 121.603 96.1742 121.492C96.1337 121.393 96.1007 121.236 96.0801 121.043C96.0566 120.824 96.0566 120.537 96.0566 119.962V117.603Z" fill="#424754"/>
<path d="M85.6416 148.273C85.6416 148.052 85.6416 147.941 85.7014 147.857C85.754 147.783 85.8379 147.722 85.9411 147.685C86.0584 147.642 86.212 147.642 86.5192 147.642H119.047C119.354 147.642 119.508 147.642 119.625 147.685C119.728 147.722 119.812 147.783 119.865 147.857C119.925 147.941 119.925 148.052 119.925 148.273V149.18C119.925 149.401 119.925 149.512 119.865 149.596C119.812 149.67 119.728 149.731 119.625 149.768C119.508 149.811 119.354 149.811 119.047 149.811H86.5192C86.212 149.811 86.0584 149.811 85.9411 149.768C85.8379 149.731 85.754 149.67 85.7014 149.596C85.6416 149.512 85.6416 149.401 85.6416 149.18V148.273Z" fill="#97999D"/>
<path d="M296 220.929H254V273.506H296V220.929Z" fill="#3F3D56"/>
<path d="M282 233H260V236H282V233Z" fill="white"/>
<path d="M290 244H260V246H290V244Z" fill="white"/>
<path d="M290 249H260V251H290V249Z" fill="white"/>
<path d="M290 254H260V256H290V254Z" fill="white"/>
<path d="M290 259H260V261H290V259Z" fill="white"/>
<path d="M278.036 220.183V218.82C278.036 218.072 277.738 217.355 277.209 216.826C276.68 216.297 275.962 216 275.214 216C274.466 216 273.749 216.297 273.219 216.826C272.69 217.355 272.393 218.072 272.392 218.82V220.183H267.04V223.199H283.389V220.183H278.036ZM275.214 216.777C275.542 216.777 275.861 216.874 276.133 217.056C276.405 217.237 276.617 217.496 276.743 217.798C276.868 218.1 276.901 218.433 276.837 218.754C276.773 219.075 276.615 219.37 276.384 219.601C276.153 219.832 275.858 219.99 275.537 220.054C275.216 220.117 274.884 220.085 274.581 219.96C274.279 219.834 274.021 219.622 273.839 219.35C273.657 219.078 273.56 218.758 273.56 218.431C273.56 218.214 273.603 217.999 273.686 217.798C273.769 217.597 273.891 217.415 274.045 217.261C274.198 217.108 274.381 216.986 274.581 216.903C274.782 216.82 274.997 216.777 275.214 216.777Z" fill="#F04B5D"/>
</g>
<defs>
<filter id="filter0_d" x="60" y="80.0488" width="86" height="85.9507" filterUnits="userSpaceOnUse" color-interpolation-filters="sRGB">
<feFlood flood-opacity="0" result="BackgroundImageFix"/>
<feColorMatrix in="SourceAlpha" type="matrix" values="0 0 0 0 0 0 0 0 0 0 0 0 0 0 0 0 0 0 127 0"/>
<feOffset dy="4"/>
<feGaussianBlur stdDeviation="10"/>
<feColorMatrix type="matrix" values="0 0 0 0 0 0 0 0 0 0 0 0 0 0 0 0 0 0 0.19 0"/>
<feBlend mode="normal" in2="BackgroundImageFix" result="effect1_dropShadow"/>
<feBlend mode="normal" in="SourceGraphic" in2="effect1_dropShadow" result="shape"/>
</filter>
<clipPath id="clip0">
<rect width="509" height="298" fill="white"/>
</clipPath>
</defs>
</svg>
