<svg width="1034" height="267" viewBox="0 0 1034 267" fill="none" xmlns="http://www.w3.org/2000/svg">
<path d="M1.296 70.968C1.296 78.528 6.984 84.432 14.76 84.432C22.536 84.432 28.224 78.528 28.224 70.968C28.224 63.588 22.536 57.828 14.76 57.828C6.984 57.828 1.296 63.588 1.296 70.968ZM7.812 70.968C7.812 66.756 10.908 63.588 14.76 63.588C18.612 63.588 21.708 66.756 21.708 70.968C21.708 75.36 18.612 78.672 14.76 78.672C10.908 78.672 7.812 75.36 7.812 70.968ZM35.6873 84H41.9153V70.68H47.5673V65.46H30.0713V70.68H35.6873V84ZM48.9268 74.712C48.9268 79.824 52.6348 84.432 59.2588 84.432C62.3548 84.432 65.3788 83.244 67.2148 81.372L64.9468 77.016C63.6148 78.168 61.6708 79.248 59.8708 79.248C56.7388 79.248 55.2268 76.836 55.2268 74.64C55.2268 72.444 56.7028 70.212 59.6548 70.212C61.2748 70.212 62.9308 70.968 64.0108 72.012L66.6388 67.836C64.8028 65.856 61.8508 65.028 59.2588 65.028C52.5988 65.028 48.9268 69.744 48.9268 74.712ZM68.4661 84.18C75.6661 84.18 77.8261 78.996 77.8261 71.436V70.392H80.9221V84H87.1501V65.46H71.9581V71.4C71.9581 77.772 70.1221 78.528 68.4661 78.744V84.18ZM90.2706 74.712C90.2706 79.644 93.8346 84.432 100.459 84.432C103.303 84.432 106.363 83.46 108.379 81.732L106.075 77.376C104.563 78.384 102.799 79.248 100.963 79.248C98.9826 79.248 97.1106 78.204 96.6426 75.936H108.343C108.415 75.288 108.487 74.64 108.487 73.992C108.487 68.844 105.391 65.028 99.9186 65.028C93.9426 65.028 90.2706 69.276 90.2706 74.712ZM96.7866 72.372C97.1106 70.896 97.9746 69.6 99.7746 69.6C101.359 69.6 102.331 70.86 102.331 72.372H96.7866ZM109.904 84H116.636L119.948 77.268H121.784V84H127.58V77.268H129.452L132.764 84H139.496L134.276 74.424V74.352L139.1 65.46H132.692L129.272 72.048H127.58V65.46H121.784V72.048H120.128L116.708 65.46H110.3L115.124 74.352V74.424L109.904 84ZM141.834 84H147.882L153.03 75.864C153.318 75.36 153.714 74.784 154.038 74.028H154.11C154.038 74.748 154.038 75.468 154.038 75.9V84H159.906V65.46H153.858L148.71 73.632C148.386 74.172 148.026 74.712 147.702 75.468H147.63C147.666 75 147.702 74.28 147.702 73.632V65.46H141.834V84ZM164.088 84H174.204C177.876 84 181.26 82.56 181.26 78.492C181.26 76.872 180.468 75.036 178.344 74.388V74.352C179.748 73.524 180.504 71.868 180.504 70.32C180.504 67.116 177.912 65.46 174.204 65.46H164.088V84ZM170.316 72.768V69.312H172.584C173.808 69.312 174.312 70.068 174.312 70.932C174.312 71.904 173.808 72.768 172.656 72.768H170.316ZM170.316 80.112V76.404H173.088C174.42 76.404 175.032 77.268 175.032 78.276C175.032 79.212 174.384 80.112 173.052 80.112H170.316ZM183.147 78.78C183.147 81.984 185.631 84.432 189.195 84.432C191.319 84.432 193.479 83.46 194.703 81.732H194.775C194.775 81.732 194.703 82.272 194.703 82.884V84H200.391V72.588C200.391 67.872 197.223 65.028 192.111 65.028C189.087 65.028 185.847 66.216 184.263 67.44L186.423 71.832C187.899 70.86 189.735 70.068 191.535 70.068C192.903 70.068 194.163 70.572 194.163 72.12V72.444H193.623C189.051 72.444 183.147 73.812 183.147 78.78ZM189.303 78.204C189.303 76.512 191.751 76.008 193.659 76.008H194.235V76.512C194.235 78.024 192.867 79.788 191.067 79.788C189.915 79.788 189.303 79.068 189.303 78.204ZM203.298 74.712C203.298 79.644 206.862 84.432 213.486 84.432C216.33 84.432 219.39 83.46 221.406 81.732L219.102 77.376C217.59 78.384 215.826 79.248 213.99 79.248C212.01 79.248 210.138 78.204 209.67 75.936H221.37C221.442 75.288 221.514 74.64 221.514 73.992C221.514 68.844 218.418 65.028 212.946 65.028C206.97 65.028 203.298 69.276 203.298 74.712ZM209.814 72.372C210.138 70.896 211.002 69.6 212.802 69.6C214.386 69.6 215.358 70.86 215.358 72.372H209.814ZM223.976 84H229.916L230.348 75.468C230.42 74.028 230.312 72.3 230.312 72.3H230.384C230.384 72.3 231.068 73.848 231.464 75.036L233.912 81.516H238.952L241.4 75.036C241.868 73.884 242.408 72.3 242.408 72.3H242.48C242.48 72.3 242.408 74.028 242.444 75.468L242.876 84H248.852L247.088 65.46H239.924L237.188 73.596C236.864 74.532 236.432 75.756 236.432 75.756H236.396C236.396 75.756 236 74.532 235.676 73.596L232.94 65.46H225.74L223.976 84ZM261.225 84H271.341C275.013 84 278.397 82.56 278.397 78.492C278.397 76.872 277.605 75.036 275.481 74.388V74.352C276.885 73.524 277.641 71.868 277.641 70.32C277.641 67.116 275.049 65.46 271.341 65.46H261.225V84ZM267.453 72.768V69.312H269.721C270.945 69.312 271.449 70.068 271.449 70.932C271.449 71.904 270.945 72.768 269.793 72.768H267.453ZM267.453 80.112V76.404H270.225C271.557 76.404 272.169 77.268 272.169 78.276C272.169 79.212 271.521 80.112 270.189 80.112H267.453ZM280.283 78.78C280.283 81.984 282.767 84.432 286.331 84.432C288.455 84.432 290.615 83.46 291.839 81.732H291.911C291.911 81.732 291.839 82.272 291.839 82.884V84H297.527V72.588C297.527 67.872 294.359 65.028 289.247 65.028C286.223 65.028 282.983 66.216 281.399 67.44L283.559 71.832C285.035 70.86 286.871 70.068 288.671 70.068C290.039 70.068 291.299 70.572 291.299 72.12V72.444H290.759C286.187 72.444 280.283 73.812 280.283 78.78ZM286.439 78.204C286.439 76.512 288.887 76.008 290.795 76.008H291.371V76.512C291.371 78.024 290.003 79.788 288.203 79.788C287.051 79.788 286.439 79.068 286.439 78.204ZM301.479 84H327.435V65.46H321.567V78.78H317.391V65.46H311.523V78.78H307.347V65.46H301.479V84ZM340.608 84H346.836V70.68H352.344V84H358.572V65.46H340.608V84ZM362.756 91.2H368.984V84.252C368.984 83.316 368.912 82.668 368.912 82.668H368.984C370.316 83.82 371.972 84.432 373.7 84.432C378.632 84.432 382.34 80.616 382.34 74.748C382.34 68.988 379.028 65.028 373.988 65.028C371.756 65.028 369.632 65.892 368.372 67.584H368.3C368.3 67.584 368.372 67.008 368.372 66.396V65.46H362.756V91.2ZM368.804 74.856C368.804 71.652 370.568 70.284 372.44 70.284C374.6 70.284 376.076 72.084 376.076 74.856C376.076 77.7 374.384 79.284 372.44 79.284C369.992 79.284 368.804 77.088 368.804 74.856ZM384.493 74.784C384.493 80.58 389.173 84.432 395.005 84.432C400.837 84.432 405.517 80.58 405.517 74.784C405.517 68.952 400.837 65.028 394.969 65.028C389.173 65.028 384.493 68.952 384.493 74.784ZM390.793 74.784C390.793 71.976 392.737 70.212 395.005 70.212C397.273 70.212 399.217 71.976 399.217 74.784C399.217 77.556 397.273 79.248 395.005 79.248C392.737 79.248 390.793 77.556 390.793 74.784ZM408.635 84H414.863V70.68H421.703V65.46H408.635V84ZM424.315 91.2H430.543V84.252C430.543 83.316 430.471 82.668 430.471 82.668H430.543C431.875 83.82 433.531 84.432 435.259 84.432C440.191 84.432 443.899 80.616 443.899 74.748C443.899 68.988 440.587 65.028 435.547 65.028C433.315 65.028 431.191 65.892 429.931 67.584H429.859C429.859 67.584 429.931 67.008 429.931 66.396V65.46H424.315V91.2ZM430.363 74.856C430.363 71.652 432.127 70.284 433.999 70.284C436.159 70.284 437.635 72.084 437.635 74.856C437.635 77.7 435.943 79.284 433.999 79.284C431.551 79.284 430.363 77.088 430.363 74.856ZM446.052 74.712C446.052 79.644 449.616 84.432 456.24 84.432C459.084 84.432 462.144 83.46 464.16 81.732L461.856 77.376C460.344 78.384 458.58 79.248 456.744 79.248C454.764 79.248 452.892 78.204 452.424 75.936H464.124C464.196 75.288 464.268 74.64 464.268 73.992C464.268 68.844 461.172 65.028 455.7 65.028C449.724 65.028 446.052 69.276 446.052 74.712ZM452.568 72.372C452.892 70.896 453.756 69.6 455.556 69.6C457.14 69.6 458.112 70.86 458.112 72.372H452.568ZM466.478 74.712C466.478 79.824 470.186 84.432 476.81 84.432C479.906 84.432 482.93 83.244 484.766 81.372L482.498 77.016C481.166 78.168 479.222 79.248 477.422 79.248C474.29 79.248 472.778 76.836 472.778 74.64C472.778 72.444 474.254 70.212 477.206 70.212C478.826 70.212 480.482 70.968 481.562 72.012L484.19 67.836C482.354 65.856 479.402 65.028 476.81 65.028C470.15 65.028 466.478 69.744 466.478 74.712ZM485.954 74.712C485.954 79.824 489.662 84.432 496.286 84.432C499.382 84.432 502.406 83.244 504.242 81.372L501.974 77.016C500.642 78.168 498.698 79.248 496.898 79.248C493.766 79.248 492.254 76.836 492.254 74.64C492.254 72.444 493.73 70.212 496.682 70.212C498.302 70.212 499.958 70.968 501.038 72.012L503.666 67.836C501.83 65.856 498.878 65.028 496.286 65.028C489.626 65.028 485.954 69.744 485.954 74.712ZM2.088 126H8.136L13.284 117.864C13.572 117.36 13.968 116.784 14.292 116.028H14.364C14.292 116.748 14.292 117.468 14.292 117.9V126H20.16V107.46H14.112L8.964 115.632C8.64 116.172 8.28 116.712 7.956 117.468H7.884C7.92 117 7.956 116.28 7.956 115.632V107.46H2.088V126ZM33.3419 126H43.4579C47.1299 126 50.5139 124.56 50.5139 120.492C50.5139 118.872 49.7219 117.036 47.5979 116.388V116.352C49.0019 115.524 49.7579 113.868 49.7579 112.32C49.7579 109.116 47.1659 107.46 43.4579 107.46H33.3419V126ZM39.5699 114.768V111.312H41.8379C43.0619 111.312 43.5659 112.068 43.5659 112.932C43.5659 113.904 43.0619 114.768 41.9099 114.768H39.5699ZM39.5699 122.112V118.404H42.3419C43.6739 118.404 44.2859 119.268 44.2859 120.276C44.2859 121.212 43.6379 122.112 42.3059 122.112H39.5699ZM52.6885 116.712C52.6885 121.824 56.3965 126.432 63.0205 126.432C66.1165 126.432 69.1405 125.244 70.9765 123.372L68.7085 119.016C67.3765 120.168 65.4325 121.248 63.6325 121.248C60.5005 121.248 58.9885 118.836 58.9885 116.64C58.9885 114.444 60.4645 112.212 63.4165 112.212C65.0365 112.212 66.6925 112.968 67.7725 114.012L70.4005 109.836C68.5645 107.856 65.6125 107.028 63.0205 107.028C56.3605 107.028 52.6885 111.744 52.6885 116.712ZM72.1651 116.712C72.1651 121.644 75.7291 126.432 82.3531 126.432C85.1971 126.432 88.2571 125.46 90.2731 123.732L87.9691 119.376C86.4571 120.384 84.6931 121.248 82.8571 121.248C80.8771 121.248 79.0051 120.204 78.5371 117.936H90.2371C90.3091 117.288 90.3811 116.64 90.3811 115.992C90.3811 110.844 87.2851 107.028 81.8131 107.028C75.8371 107.028 72.1651 111.276 72.1651 116.712ZM78.6811 114.372C79.0051 112.896 79.8691 111.6 81.6691 111.6C83.2531 111.6 84.2251 112.86 84.2251 114.372H78.6811ZM93.6349 126H99.8629V112.68H106.703V107.46H93.6349V126ZM114.643 121.068C115.939 118.584 116.299 115.884 116.299 113.076V112.392H119.503V121.068H114.643ZM106.219 121.068V130.32H111.979V126H122.851V130.32H128.395V121.068H125.731V107.46H110.431V111.924C110.431 115.668 109.747 118.98 108.523 121.068H106.219ZM129.92 120.78C129.92 123.984 132.404 126.432 135.968 126.432C138.092 126.432 140.252 125.46 141.476 123.732H141.548C141.548 123.732 141.476 124.272 141.476 124.884V126H147.164V114.588C147.164 109.872 143.996 107.028 138.884 107.028C135.86 107.028 132.62 108.216 131.036 109.44L133.196 113.832C134.672 112.86 136.508 112.068 138.308 112.068C139.676 112.068 140.936 112.572 140.936 114.12V114.444H140.396C135.824 114.444 129.92 115.812 129.92 120.78ZM136.076 120.204C136.076 118.512 138.524 118.008 140.432 118.008H141.008V118.512C141.008 120.024 139.64 121.788 137.84 121.788C136.688 121.788 136.076 121.068 136.076 120.204ZM160.115 126H166.343V112.68H173.183V107.46H160.115V126ZM174.505 116.784C174.505 122.58 179.185 126.432 185.017 126.432C190.849 126.432 195.529 122.58 195.529 116.784C195.529 110.952 190.849 107.028 184.981 107.028C179.185 107.028 174.505 110.952 174.505 116.784ZM180.805 116.784C180.805 113.976 182.749 112.212 185.017 112.212C187.285 112.212 189.229 113.976 189.229 116.784C189.229 119.556 187.285 121.248 185.017 121.248C182.749 121.248 180.805 119.556 180.805 116.784ZM202.504 126H208.732V112.68H214.384V107.46H196.888V112.68H202.504V126ZM215.743 116.784C215.743 122.58 220.423 126.432 226.255 126.432C232.087 126.432 236.767 122.58 236.767 116.784C236.767 110.952 232.087 107.028 226.219 107.028C220.423 107.028 215.743 110.952 215.743 116.784ZM222.043 116.784C222.043 113.976 223.987 112.212 226.255 112.212C228.523 112.212 230.467 113.976 230.467 116.784C230.467 119.556 228.523 121.248 226.255 121.248C223.987 121.248 222.043 119.556 222.043 116.784ZM239.885 126H250.001C253.673 126 257.057 124.56 257.057 120.492C257.057 118.872 256.265 117.036 254.141 116.388V116.352C255.545 115.524 256.301 113.868 256.301 112.32C256.301 109.116 253.709 107.46 250.001 107.46H239.885V126ZM246.113 114.768V111.312H248.381C249.605 111.312 250.109 112.068 250.109 112.932C250.109 113.904 249.605 114.768 248.453 114.768H246.113ZM246.113 122.112V118.404H248.885C250.217 118.404 250.829 119.268 250.829 120.276C250.829 121.212 250.181 122.112 248.849 122.112H246.113ZM278.78 126H285.008V107.46H278.78V126ZM260.276 126H269.312C274.496 126 276.656 123.444 276.656 119.664C276.656 115.92 274.496 113.256 269.312 113.256H266.504V107.46H260.276V126ZM266.504 121.932V117.288H268.052C269.636 117.288 270.428 118.332 270.428 119.628C270.428 120.924 269.636 121.932 268.16 121.932H266.504ZM298.174 126H308.29C311.962 126 315.346 124.56 315.346 120.492C315.346 118.872 314.554 117.036 312.43 116.388V116.352C313.834 115.524 314.59 113.868 314.59 112.32C314.59 109.116 311.998 107.46 308.29 107.46H298.174V126ZM304.402 114.768V111.312H306.67C307.894 111.312 308.398 112.068 308.398 112.932C308.398 113.904 307.894 114.768 306.742 114.768H304.402ZM304.402 122.112V118.404H307.174C308.506 118.404 309.118 119.268 309.118 120.276C309.118 121.212 308.47 122.112 307.138 122.112H304.402ZM317.233 120.78C317.233 123.984 319.717 126.432 323.281 126.432C325.405 126.432 327.565 125.46 328.789 123.732H328.861C328.861 123.732 328.789 124.272 328.789 124.884V126H334.477V114.588C334.477 109.872 331.309 107.028 326.197 107.028C323.173 107.028 319.933 108.216 318.349 109.44L320.509 113.832C321.985 112.86 323.821 112.068 325.621 112.068C326.989 112.068 328.249 112.572 328.249 114.12V114.444H327.709C323.137 114.444 317.233 115.812 317.233 120.78ZM323.389 120.204C323.389 118.512 325.837 118.008 327.745 118.008H328.321V118.512C328.321 120.024 326.953 121.788 325.153 121.788C324.001 121.788 323.389 121.068 323.389 120.204ZM337.636 126H343.576L344.008 117.468C344.08 116.028 343.972 114.3 343.972 114.3H344.044C344.044 114.3 344.728 115.848 345.124 117.036L347.572 123.516H352.612L355.06 117.036C355.528 115.884 356.068 114.3 356.068 114.3H356.14C356.14 114.3 356.068 116.028 356.104 117.468L356.536 126H362.512L360.748 107.46H353.584L350.848 115.596C350.524 116.532 350.092 117.756 350.092 117.756H350.056C350.056 117.756 349.66 116.532 349.336 115.596L346.6 107.46H339.4L337.636 126ZM374.885 126H381.113V112.68H386.621V126H392.849V107.46H374.885V126ZM395.989 116.784C395.989 122.58 400.669 126.432 406.501 126.432C412.333 126.432 417.013 122.58 417.013 116.784C417.013 110.952 412.333 107.028 406.465 107.028C400.669 107.028 395.989 110.952 395.989 116.784ZM402.289 116.784C402.289 113.976 404.233 112.212 406.501 112.212C408.769 112.212 410.713 113.976 410.713 116.784C410.713 119.556 408.769 121.248 406.501 121.248C404.233 121.248 402.289 119.556 402.289 116.784ZM419.339 126H425.279L425.711 117.468C425.783 116.028 425.675 114.3 425.675 114.3H425.747C425.747 114.3 426.431 115.848 426.827 117.036L429.275 123.516H434.315L436.763 117.036C437.231 115.884 437.771 114.3 437.771 114.3H437.843C437.843 114.3 437.771 116.028 437.807 117.468L438.239 126H444.215L442.451 107.46H435.287L432.551 115.596C432.227 116.532 431.795 117.756 431.795 117.756H431.759C431.759 117.756 431.363 116.532 431.039 115.596L428.303 107.46H421.103L419.339 126ZM446.544 116.784C446.544 122.58 451.224 126.432 457.056 126.432C462.888 126.432 467.568 122.58 467.568 116.784C467.568 110.952 462.888 107.028 457.02 107.028C451.224 107.028 446.544 110.952 446.544 116.784ZM452.844 116.784C452.844 113.976 454.788 112.212 457.056 112.212C459.324 112.212 461.268 113.976 461.268 116.784C461.268 119.556 459.324 121.248 457.056 121.248C454.788 121.248 452.844 119.556 452.844 116.784ZM476.014 120.312C478.282 120.312 479.938 119.808 480.982 119.34H481.054C481.054 119.34 481.018 119.808 481.018 120.204V126H487.246V107.46H481.018V114.336C480.406 114.768 479.47 115.236 478.21 115.236C476.662 115.236 475.834 114.336 475.834 112.752V107.46H469.714V113.94C469.714 118.8 473.026 120.312 476.014 120.312ZM491.428 126H500.68C505.864 126 508.024 123.444 508.024 119.664C508.024 115.92 505.864 113.256 500.68 113.256H497.656V107.46H491.428V126ZM497.656 121.932V117.288H499.42C501.004 117.288 501.796 118.332 501.796 119.628C501.796 120.924 501.004 121.932 499.528 121.932H497.656Z" fill="#222224"/>
<path d="M0.486 179.488C1.476 180.586 3.078 181.216 4.608 181.216C7.002 181.216 8.928 179.758 8.928 177.4C8.928 175.834 8.028 174.736 6.696 174.358V174.322C7.596 173.872 8.532 173.008 8.532 171.46C8.532 169.336 6.894 168.076 4.716 168.076C3.636 168.076 2.214 168.274 0.864 169.39L1.62 170.722C2.556 169.93 3.564 169.642 4.464 169.642C6.03 169.642 6.714 170.578 6.714 171.676C6.714 172.882 5.706 173.728 4.428 173.728H3.168V175.204H4.734C6.12 175.204 7.11 175.978 7.11 177.31C7.11 178.75 6.012 179.614 4.464 179.614C3.276 179.614 2.142 179.002 1.476 178.282L0.486 179.488ZM10.4202 178.516C10.4202 180.226 11.8782 181.216 13.4622 181.216C14.8122 181.216 15.9282 180.406 16.4502 179.362H16.4862C16.4862 179.362 16.4322 179.668 16.4322 180.082V181H18.0702V175.24C18.0702 172.936 16.7562 171.676 14.4702 171.676C13.1922 171.676 11.8062 172.144 11.0682 172.756L11.7702 174.034C12.5082 173.512 13.4262 173.152 14.3262 173.152C15.4602 173.152 16.3242 173.656 16.3242 175.15V175.33H15.8562C13.9662 175.33 10.4202 175.654 10.4202 178.516ZM12.1662 178.372C12.1662 176.698 14.5782 176.59 15.8742 176.59H16.3242V176.932C16.3242 178.282 15.4062 179.83 13.8762 179.83C12.7422 179.83 12.1662 179.092 12.1662 178.372ZM22.4328 179.56C23.5848 177.76 23.7288 175.168 23.7288 173.8V173.314H26.4648V179.56H22.4328ZM19.5168 179.56V183.16H21.1548V181H27.9048V183.16H29.5068V179.56H28.2108V171.892H22.0548V173.566C22.0548 174.97 21.9108 177.814 20.6328 179.56H19.5168ZM30.5823 178.516C30.5823 180.226 32.0403 181.216 33.6243 181.216C34.9743 181.216 36.0903 180.406 36.6123 179.362H36.6483C36.6483 179.362 36.5943 179.668 36.5943 180.082V181H38.2323V175.24C38.2323 172.936 36.9183 171.676 34.6323 171.676C33.3543 171.676 31.9683 172.144 31.2303 172.756L31.9323 174.034C32.6703 173.512 33.5883 173.152 34.4883 173.152C35.6223 173.152 36.4863 173.656 36.4863 175.15V175.33H36.0183C34.1283 175.33 30.5823 175.654 30.5823 178.516ZM32.3283 178.372C32.3283 176.698 34.7403 176.59 36.0363 176.59H36.4863V176.932C36.4863 178.282 35.5683 179.83 34.0383 179.83C32.9043 179.83 32.3283 179.092 32.3283 178.372ZM40.8129 181H44.7009C46.6809 181 48.0489 180.1 48.0489 178.408C48.0489 177.4 47.4549 176.518 46.3209 176.248V176.23C47.1489 175.87 47.6169 175.114 47.6169 174.232C47.6169 172.702 46.4109 171.892 44.5749 171.892H40.8129V181ZM42.5589 175.744V173.098H44.2149C45.3129 173.098 45.8349 173.53 45.8349 174.358C45.8349 175.204 45.3129 175.744 44.2689 175.744H42.5589ZM42.5589 179.776V176.914H44.4129C45.6189 176.914 46.2849 177.454 46.2849 178.354C46.2849 179.2 45.6909 179.776 44.4309 179.776H42.5589ZM49.4085 178.516C49.4085 180.226 50.8665 181.216 52.4505 181.216C53.8005 181.216 54.9165 180.406 55.4385 179.362H55.4745C55.4745 179.362 55.4205 179.668 55.4205 180.082V181H57.0585V175.24C57.0585 172.936 55.7445 171.676 53.4585 171.676C52.1805 171.676 50.7945 172.144 50.0565 172.756L50.7585 174.034C51.4965 173.512 52.4145 173.152 53.3145 173.152C54.4485 173.152 55.3125 173.656 55.3125 175.15V175.33H54.8445C52.9545 175.33 49.4085 175.654 49.4085 178.516ZM51.1545 178.372C51.1545 176.698 53.5665 176.59 54.8625 176.59H55.3125V176.932C55.3125 178.282 54.3945 179.83 52.8645 179.83C51.7305 179.83 51.1545 179.092 51.1545 178.372ZM63.6531 170.848C65.0571 170.848 66.3171 170.02 66.3171 168.544V168.274H64.9311V168.508C64.9311 169.318 64.2831 169.714 63.6531 169.714C63.0231 169.714 62.3931 169.318 62.3931 168.526V168.274H60.9891V168.544C60.9891 170.02 62.2671 170.848 63.6531 170.848ZM59.6391 181H61.3131L65.2551 175.564C65.5431 175.132 65.9931 174.52 66.0471 174.358H66.0831C66.0831 174.502 66.0291 175.132 66.0291 175.564V181H67.7211V171.892H66.0291L62.1051 177.328C61.7991 177.76 61.3671 178.39 61.2951 178.552H61.2591C61.2771 178.462 61.3131 177.814 61.3131 177.328V171.892H59.6391V181ZM72.5929 181H74.3209V173.386H77.5069V171.892H69.4249V173.386H72.5929V181ZM78.3283 176.446C78.3283 179.146 80.3083 181.216 83.1703 181.216C84.4303 181.216 85.8163 180.73 86.6983 179.92L85.9603 178.642C85.2403 179.29 84.2503 179.704 83.2783 179.704C81.6403 179.704 80.2363 178.642 80.1463 176.68H86.7703C86.8063 176.428 86.8423 176.176 86.8423 175.942C86.8423 173.602 85.4743 171.676 82.9003 171.676C80.3083 171.676 78.3283 173.548 78.3283 176.446ZM80.2003 175.42C80.4523 173.908 81.5143 173.026 82.8643 173.026C84.0523 173.026 85.0243 173.854 85.0783 175.42H80.2003ZM92.4518 181.09C95.1338 180.946 96.1778 178.822 96.1778 174.7V173.332H98.8598V181H100.606V171.892H94.5038V174.7C94.5038 177.994 93.7838 179.326 92.4518 179.524V181.09ZM103.303 181H105.049V177.148H106.705C107.029 179.524 108.955 181.216 111.367 181.216C113.995 181.216 116.101 179.2 116.101 176.428C116.101 173.674 113.995 171.676 111.349 171.676C108.955 171.676 107.029 173.35 106.705 175.708H105.049V171.892H103.303V181ZM108.397 176.428C108.397 174.538 109.711 173.188 111.367 173.188C113.005 173.188 114.319 174.538 114.319 176.428C114.319 178.336 113.005 179.704 111.367 179.704C109.711 179.704 108.397 178.336 108.397 176.428ZM117.813 175.762C117.813 178.912 119.199 181.216 122.277 181.216C124.851 181.216 126.579 179.416 126.579 176.896C126.579 174.322 124.995 172.702 122.709 172.702C121.503 172.702 120.297 173.098 119.487 174.322H119.451C119.577 172.576 120.441 171.514 122.259 170.686L125.751 169.228L125.175 167.788L121.917 169.192C118.749 170.524 117.813 172.504 117.813 175.762ZM119.631 176.896C119.631 175.294 120.729 174.088 122.277 174.088C123.645 174.088 124.815 175.15 124.815 176.932C124.815 178.696 123.645 179.74 122.205 179.74C120.801 179.74 119.631 178.696 119.631 176.896ZM137 181H138.746V171.892H137V181ZM128.756 181H132.266C134.552 181 135.596 179.83 135.596 178.12C135.596 176.05 134.174 175.186 132.284 175.186H130.502V171.892H128.756V181ZM130.502 179.74V176.446H132.014C133.274 176.446 133.832 177.13 133.832 178.102C133.832 179.056 133.292 179.74 132.032 179.74H130.502ZM140.854 176.446C140.854 179.146 142.834 181.216 145.696 181.216C146.956 181.216 148.342 180.73 149.224 179.92L148.486 178.642C147.766 179.29 146.776 179.704 145.804 179.704C144.166 179.704 142.762 178.642 142.672 176.68H149.296C149.332 176.428 149.368 176.176 149.368 175.942C149.368 173.602 148 171.676 145.426 171.676C142.834 171.676 140.854 173.548 140.854 176.446ZM142.726 175.42C142.978 173.908 144.04 173.026 145.39 173.026C146.578 173.026 147.55 173.854 147.604 175.42H142.726ZM155.967 181H159.855C161.835 181 163.203 180.1 163.203 178.408C163.203 177.4 162.609 176.518 161.475 176.248V176.23C162.303 175.87 162.771 175.114 162.771 174.232C162.771 172.702 161.565 171.892 159.729 171.892H155.967V181ZM157.713 175.744V173.098H159.369C160.467 173.098 160.989 173.53 160.989 174.358C160.989 175.204 160.467 175.744 159.423 175.744H157.713ZM157.713 179.776V176.914H159.567C160.773 176.914 161.439 177.454 161.439 178.354C161.439 179.2 160.845 179.776 159.585 179.776H157.713ZM164.725 176.428C164.725 179.2 166.921 181.216 169.639 181.216C172.339 181.216 174.535 179.2 174.535 176.428C174.535 173.674 172.339 171.676 169.621 171.676C166.921 171.676 164.725 173.674 164.725 176.428ZM166.507 176.428C166.507 174.538 167.911 173.188 169.639 173.188C171.349 173.188 172.771 174.538 172.771 176.428C172.771 178.336 171.349 179.704 169.639 179.704C167.911 179.704 166.507 178.336 166.507 176.428ZM176.639 181H178.385V173.386H182.849V181H184.595V171.892H176.639V181ZM187.291 184.6H189.037V180.46C189.037 179.992 188.965 179.668 188.965 179.668H189.001C189.631 180.64 190.675 181.216 191.827 181.216C194.221 181.216 195.949 179.344 195.949 176.446C195.949 173.62 194.419 171.676 191.953 171.676C190.621 171.676 189.469 172.288 188.893 173.386H188.857C188.857 173.386 188.911 173.08 188.911 172.702V171.892H187.291V184.6ZM188.983 176.482C188.983 174.178 190.243 173.206 191.611 173.206C193.123 173.206 194.185 174.484 194.185 176.464C194.185 178.534 192.997 179.704 191.557 179.704C189.883 179.704 188.983 178.102 188.983 176.482ZM197.508 176.428C197.508 179.2 199.704 181.216 202.422 181.216C205.122 181.216 207.318 179.2 207.318 176.428C207.318 173.674 205.122 171.676 202.404 171.676C199.704 171.676 197.508 173.674 197.508 176.428ZM199.29 176.428C199.29 174.538 200.694 173.188 202.422 173.188C204.132 173.188 205.554 174.538 205.554 176.428C205.554 178.336 204.132 179.704 202.422 179.704C200.694 179.704 199.29 178.336 199.29 176.428ZM208.828 176.446C208.828 179.182 210.826 181.216 213.706 181.216C215.128 181.216 216.514 180.64 217.342 179.758L216.64 178.48C215.938 179.218 214.84 179.704 213.832 179.704C211.942 179.704 210.61 178.282 210.61 176.428C210.61 174.574 211.942 173.188 213.778 173.188C214.732 173.188 215.686 173.62 216.298 174.232L217.126 173.008C216.262 172.09 214.912 171.676 213.706 171.676C210.844 171.676 208.828 173.746 208.828 176.446ZM227.475 181H229.221V171.892H227.475V181ZM219.231 181H222.741C225.027 181 226.071 179.83 226.071 178.12C226.071 176.05 224.649 175.186 222.759 175.186H220.977V171.892H219.231V181ZM220.977 179.74V176.446H222.489C223.749 176.446 224.307 177.13 224.307 178.102C224.307 179.056 223.767 179.74 222.507 179.74H220.977ZM231.202 182.818H232.588L234.154 179.11H232.318L231.202 182.818ZM0.594 206.516C0.594 208.226 2.052 209.216 3.636 209.216C4.986 209.216 6.102 208.406 6.624 207.362H6.66C6.66 207.362 6.606 207.668 6.606 208.082V209H8.244V203.24C8.244 200.936 6.93 199.676 4.644 199.676C3.366 199.676 1.98 200.144 1.242 200.756L1.944 202.034C2.682 201.512 3.6 201.152 4.5 201.152C5.634 201.152 6.498 201.656 6.498 203.15V203.33H6.03C4.14 203.33 0.594 203.654 0.594 206.516ZM2.34 206.372C2.34 204.698 4.752 204.59 6.048 204.59H6.498V204.932C6.498 206.282 5.58 207.83 4.05 207.83C2.916 207.83 2.34 207.092 2.34 206.372ZM14.9466 209H16.6386L17.0346 203.582C17.0706 203.042 17.0166 202.016 17.0166 202.016H17.0526C17.0526 202.016 17.3406 202.7 17.6286 203.366L19.7886 207.902H21.2826L23.4426 203.348C23.7846 202.646 24.0186 202.016 24.0186 202.016H24.0546C24.0546 202.016 24.0186 203.042 24.0366 203.582L24.4326 209H26.1246L25.3326 199.892H23.4246L21.0486 205.04C20.8146 205.598 20.5446 206.264 20.5446 206.264H20.5086C20.5086 206.264 20.2566 205.58 20.0046 205.04L17.6826 199.892H15.7386L14.9466 209ZM36.717 209H38.463V199.892H36.717V209ZM28.473 209H31.983C34.269 209 35.313 207.83 35.313 206.12C35.313 204.05 33.891 203.186 32.001 203.186H30.219V199.892H28.473V209ZM30.219 207.74V204.446H31.731C32.991 204.446 33.549 205.13 33.549 206.102C33.549 207.056 33.009 207.74 31.749 207.74H30.219ZM45.0705 204.446C45.0705 207.182 47.0685 209.216 49.9485 209.216C51.3705 209.216 52.7565 208.64 53.5845 207.758L52.8825 206.48C52.1805 207.218 51.0825 207.704 50.0745 207.704C48.1845 207.704 46.8525 206.282 46.8525 204.428C46.8525 202.574 48.1845 201.188 50.0205 201.188C50.9745 201.188 51.9285 201.62 52.5405 202.232L53.3685 201.008C52.5045 200.09 51.1545 199.676 49.9485 199.676C47.0865 199.676 45.0705 201.746 45.0705 204.446ZM59.523 210.89L58.911 212.222C58.911 212.222 59.649 212.78 60.657 212.78C61.935 212.78 63.069 212.06 63.609 210.638L67.893 199.892H66.003L63.789 205.868C63.627 206.336 63.483 206.948 63.483 206.948H63.447C63.447 206.948 63.285 206.3 63.105 205.85L60.819 199.892H58.857L62.673 208.892L62.223 209.936C61.881 210.764 61.287 211.286 60.567 211.286C60.027 211.286 59.523 210.89 59.523 210.89ZM70.7375 207.56C71.8895 205.76 72.0335 203.168 72.0335 201.8V201.314H74.7695V207.56H70.7375ZM67.8215 207.56V211.16H69.4595V209H76.2095V211.16H77.8115V207.56H76.5155V199.892H70.3595V201.566C70.3595 202.97 70.2155 205.814 68.9375 207.56H67.8215ZM78.9435 204.428C78.9435 207.2 81.1395 209.216 83.8575 209.216C86.5575 209.216 88.7535 207.2 88.7535 204.428C88.7535 201.674 86.5575 199.676 83.8395 199.676C81.1395 199.676 78.9435 201.674 78.9435 204.428ZM80.7255 204.428C80.7255 202.538 82.1295 201.188 83.8575 201.188C85.5675 201.188 86.9895 202.538 86.9895 204.428C86.9895 206.336 85.5675 207.704 83.8575 207.704C82.1295 207.704 80.7255 206.336 80.7255 204.428ZM90.8578 209H94.7458C96.7258 209 98.0938 208.1 98.0938 206.408C98.0938 205.4 97.4998 204.518 96.3658 204.248V204.23C97.1938 203.87 97.6618 203.114 97.6618 202.232C97.6618 200.702 96.4558 199.892 94.6198 199.892H90.8578V209ZM92.6038 203.744V201.098H94.2598C95.3578 201.098 95.8798 201.53 95.8798 202.358C95.8798 203.204 95.3578 203.744 94.3138 203.744H92.6038ZM92.6038 207.776V204.914H94.4578C95.6638 204.914 96.3298 205.454 96.3298 206.354C96.3298 207.2 95.7358 207.776 94.4758 207.776H92.6038ZM99.6154 204.428C99.6154 207.2 101.811 209.216 104.529 209.216C107.229 209.216 109.425 207.2 109.425 204.428C109.425 201.674 107.229 199.676 104.511 199.676C101.811 199.676 99.6154 201.674 99.6154 204.428ZM101.397 204.428C101.397 202.538 102.801 201.188 104.529 201.188C106.239 201.188 107.661 202.538 107.661 204.428C107.661 206.336 106.239 207.704 104.529 207.704C102.801 207.704 101.397 206.336 101.397 204.428ZM110.294 209.09C112.976 208.946 114.02 206.822 114.02 202.7V201.332H116.702V209H118.448V199.892H112.346V202.7C112.346 205.994 111.626 207.326 110.294 207.524V209.09ZM121.145 209H124.691C126.995 209 128.039 207.83 128.039 206.12C128.039 204.05 126.617 203.186 124.727 203.186H122.891V199.892H121.145V209ZM122.891 207.74V204.446H124.457C125.717 204.446 126.257 205.13 126.257 206.102C126.257 207.056 125.717 207.74 124.457 207.74H122.891ZM129.322 204.446C129.322 207.182 131.32 209.216 134.2 209.216C135.622 209.216 137.008 208.64 137.836 207.758L137.134 206.48C136.432 207.218 135.334 207.704 134.326 207.704C132.436 207.704 131.104 206.282 131.104 204.428C131.104 202.574 132.436 201.188 134.272 201.188C135.226 201.188 136.18 201.62 136.792 202.232L137.62 201.008C136.756 200.09 135.406 199.676 134.2 199.676C131.338 199.676 129.322 201.746 129.322 204.446ZM141.921 209H143.649V201.386H146.835V199.892H138.753V201.386H141.921V209ZM148.549 209H152.437C154.417 209 155.785 208.1 155.785 206.408C155.785 205.4 155.191 204.518 154.057 204.248V204.23C154.885 203.87 155.353 203.114 155.353 202.232C155.353 200.702 154.147 199.892 152.311 199.892H148.549V209ZM150.295 203.744V201.098H151.951C153.049 201.098 153.571 201.53 153.571 202.358C153.571 203.204 153.049 203.744 152.005 203.744H150.295ZM150.295 207.776V204.914H152.149C153.355 204.914 154.021 205.454 154.021 206.354C154.021 207.2 153.427 207.776 152.167 207.776H150.295ZM157.901 209H159.575L163.517 203.564C163.805 203.132 164.255 202.52 164.309 202.358H164.345C164.345 202.502 164.291 203.132 164.291 203.564V209H165.983V199.892H164.291L160.367 205.328C160.061 205.76 159.629 206.39 159.557 206.552H159.521C159.539 206.462 159.575 205.814 159.575 205.328V199.892H157.901V209ZM168.065 204.446C168.065 207.146 170.045 209.216 172.907 209.216C174.167 209.216 175.553 208.73 176.435 207.92L175.697 206.642C174.977 207.29 173.987 207.704 173.015 207.704C171.377 207.704 169.973 206.642 169.883 204.68H176.507C176.543 204.428 176.579 204.176 176.579 203.942C176.579 201.602 175.211 199.676 172.637 199.676C170.045 199.676 168.065 201.548 168.065 204.446ZM169.937 203.42C170.189 201.908 171.251 201.026 172.601 201.026C173.789 201.026 174.761 201.854 174.815 203.42H169.937ZM178.3 209H179.992L180.388 203.582C180.424 203.042 180.37 202.016 180.37 202.016H180.406C180.406 202.016 180.694 202.7 180.982 203.366L183.142 207.902H184.636L186.796 203.348C187.138 202.646 187.372 202.016 187.372 202.016H187.408C187.408 202.016 187.372 203.042 187.39 203.582L187.786 209H189.478L188.686 199.892H186.778L184.402 205.04C184.168 205.598 183.898 206.264 183.898 206.264H183.862C183.862 206.264 183.61 205.58 183.358 205.04L181.036 199.892H179.092L178.3 209ZM196.327 209H198.073V205.094H202.681V209H204.427V199.892H202.681V203.6H198.073V199.892H196.327V209ZM206.364 206.516C206.364 208.226 207.822 209.216 209.406 209.216C210.756 209.216 211.872 208.406 212.394 207.362H212.43C212.43 207.362 212.376 207.668 212.376 208.082V209H214.014V203.24C214.014 200.936 212.7 199.676 210.414 199.676C209.136 199.676 207.75 200.144 207.012 200.756L207.714 202.034C208.452 201.512 209.37 201.152 210.27 201.152C211.404 201.152 212.268 201.656 212.268 203.15V203.33H211.8C209.91 203.33 206.364 203.654 206.364 206.516ZM208.11 206.372C208.11 204.698 210.522 204.59 211.818 204.59H212.268V204.932C212.268 206.282 211.35 207.83 209.82 207.83C208.686 207.83 208.11 207.092 208.11 206.372ZM221.094 209H222.84V205.094H227.448V209H229.194V199.892H227.448V203.6H222.84V199.892H221.094V209ZM231.887 209H233.561L237.503 203.564C237.791 203.132 238.241 202.52 238.295 202.358H238.331C238.331 202.502 238.277 203.132 238.277 203.564V209H239.969V199.892H238.277L234.353 205.328C234.047 205.76 233.615 206.39 233.543 206.552H233.507C233.525 206.462 233.561 205.814 233.561 205.328V199.892H231.887V209ZM241.601 209H243.581L245.489 205.958C245.633 205.742 245.759 205.472 245.759 205.472H245.795C245.795 205.472 245.939 205.742 246.083 205.958L247.991 209H249.971L246.857 204.32L249.791 199.892H247.793L246.101 202.664C245.975 202.898 245.795 203.204 245.795 203.204H245.759C245.759 203.204 245.597 202.898 245.471 202.664L243.779 199.892H241.781L244.715 204.32L241.601 209ZM255.533 204.428C255.533 207.2 257.729 209.216 260.447 209.216C263.147 209.216 265.343 207.2 265.343 204.428C265.343 201.674 263.147 199.676 260.429 199.676C257.729 199.676 255.533 201.674 255.533 204.428ZM257.315 204.428C257.315 202.538 258.719 201.188 260.447 201.188C262.157 201.188 263.579 202.538 263.579 204.428C263.579 206.336 262.157 207.704 260.447 207.704C258.719 207.704 257.315 206.336 257.315 204.428ZM269.345 209H271.073V201.386H274.259V199.892H266.177V201.386H269.345V209ZM275.973 209H279.861C281.841 209 283.209 208.1 283.209 206.408C283.209 205.4 282.615 204.518 281.481 204.248V204.23C282.309 203.87 282.777 203.114 282.777 202.232C282.777 200.702 281.571 199.892 279.735 199.892H275.973V209ZM277.719 203.744V201.098H279.375C280.473 201.098 280.995 201.53 280.995 202.358C280.995 203.204 280.473 203.744 279.429 203.744H277.719ZM277.719 207.776V204.914H279.573C280.779 204.914 281.445 205.454 281.445 206.354C281.445 207.2 280.851 207.776 279.591 207.776H277.719ZM284.731 204.446C284.731 207.146 286.711 209.216 289.573 209.216C290.833 209.216 292.219 208.73 293.101 207.92L292.363 206.642C291.643 207.29 290.653 207.704 289.681 207.704C288.043 207.704 286.639 206.642 286.549 204.68H293.173C293.209 204.428 293.245 204.176 293.245 203.942C293.245 201.602 291.877 199.676 289.303 199.676C286.711 199.676 284.731 201.548 284.731 204.446ZM286.603 203.42C286.855 201.908 287.917 201.026 289.267 201.026C290.455 201.026 291.427 201.854 291.481 203.42H286.603ZM297.435 209H299.163V201.386H302.349V199.892H294.267V201.386H297.435V209ZM304.063 209H305.737L309.679 203.564C309.967 203.132 310.417 202.52 310.471 202.358H310.507C310.507 202.502 310.453 203.132 310.453 203.564V209H312.145V199.892H310.453L306.529 205.328C306.223 205.76 305.791 206.39 305.719 206.552H305.683C305.701 206.462 305.737 205.814 305.737 205.328V199.892H304.063V209ZM314.443 209H316.135L316.531 203.582C316.567 203.042 316.513 202.016 316.513 202.016H316.549C316.549 202.016 316.837 202.7 317.125 203.366L319.285 207.902H320.779L322.939 203.348C323.281 202.646 323.515 202.016 323.515 202.016H323.551C323.551 202.016 323.515 203.042 323.533 203.582L323.929 209H325.621L324.829 199.892H322.921L320.545 205.04C320.311 205.598 320.041 206.264 320.041 206.264H320.005C320.005 206.264 319.753 205.58 319.501 205.04L317.179 199.892H315.235L314.443 209Z" fill="#424754"/>
<path d="M713 53.2049C713 52.0831 713 51.5222 713.189 51.0937C713.355 50.7168 713.62 50.4104 713.947 50.2183C714.317 50 714.803 50 715.774 50H1031.23C1032.2 50 1032.68 50 1033.05 50.2183C1033.38 50.4104 1033.64 50.7168 1033.81 51.0937C1034 51.5222 1034 52.0831 1034 53.2049V263.795C1034 264.917 1034 265.478 1033.81 265.906C1033.64 266.283 1033.38 266.59 1033.05 266.782C1032.68 267 1032.2 267 1031.23 267H715.774C714.803 267 714.317 267 713.947 266.782C713.62 266.59 713.355 266.283 713.189 265.906C713 265.478 713 264.917 713 263.795V53.2049Z" fill="#F3F3F3"/>
<path d="M726 211.321C726 211.208 726 211.152 726.023 211.109C726.042 211.072 726.074 211.041 726.113 211.022C726.157 211 726.215 211 726.331 211H750.669C750.785 211 750.843 211 750.887 211.022C750.926 211.041 750.958 211.072 750.977 211.109C751 211.152 751 211.208 751 211.321V224.679C751 224.792 751 224.848 750.977 224.891C750.958 224.928 750.926 224.959 750.887 224.978C750.843 225 750.785 225 750.669 225H726.331C726.215 225 726.157 225 726.113 224.978C726.074 224.959 726.042 224.928 726.023 224.891C726 224.848 726 224.792 726 224.679V211.321Z" fill="white"/>
<path d="M756 197.642C756 197.417 756 197.305 756.023 197.219C756.042 197.143 756.074 197.082 756.113 197.044C756.157 197 756.215 197 756.331 197H780.669C780.785 197 780.843 197 780.887 197.044C780.926 197.082 780.958 197.143 780.977 197.219C781 197.305 781 197.417 781 197.642V224.358C781 224.583 781 224.695 780.977 224.781C780.958 224.857 780.926 224.918 780.887 224.956C780.843 225 780.785 225 780.669 225H756.331C756.215 225 756.157 225 756.113 224.956C756.074 224.918 756.042 224.857 756.023 224.781C756 224.695 756 224.583 756 224.358V197.642Z" fill="white"/>
<path d="M816 170.283C816 169.834 816 169.609 816.023 169.438C816.042 169.287 816.074 169.164 816.113 169.087C816.157 169 816.215 169 816.331 169H840.669C840.785 169 840.843 169 840.887 169.087C840.926 169.164 840.958 169.287 840.977 169.438C841 169.609 841 169.834 841 170.283V223.717C841 224.166 841 224.391 840.977 224.562C840.958 224.713 840.926 224.836 840.887 224.913C840.843 225 840.785 225 840.669 225H816.331C816.215 225 816.157 225 816.113 224.913C816.074 224.836 816.042 224.713 816.023 224.562C816 224.391 816 224.166 816 223.717V170.283Z" fill="white"/>
<path d="M786 183.962C786 183.625 786 183.457 786.023 183.328C786.042 183.215 786.074 183.123 786.113 183.066C786.157 183 786.215 183 786.331 183H810.669C810.785 183 810.843 183 810.887 183.066C810.926 183.123 810.958 183.215 810.977 183.328C811 183.457 811 183.625 811 183.962V224.038C811 224.375 811 224.543 810.977 224.672C810.958 224.785 810.926 224.877 810.887 224.934C810.843 225 810.785 225 810.669 225H786.331C786.215 225 786.157 225 786.113 224.934C786.074 224.877 786.042 224.785 786.023 224.672C786 224.543 786 224.375 786 224.038V183.962Z" fill="white"/>
<path d="M846 156.604C846 156.042 846 155.762 846.023 155.547C846.042 155.359 846.074 155.205 846.113 155.109C846.157 155 846.215 155 846.331 155H870.669C870.785 155 870.843 155 870.887 155.109C870.926 155.205 870.958 155.359 870.977 155.547C871 155.762 871 156.042 871 156.604V223.396C871 223.958 871 224.238 870.977 224.453C870.958 224.641 870.926 224.795 870.887 224.891C870.843 225 870.785 225 870.669 225H846.331C846.215 225 846.157 225 846.113 224.891C846.074 224.795 846.042 224.641 846.023 224.453C846 224.238 846 223.958 846 223.396V156.604Z" fill="white"/>
<path d="M876 142.925C876 142.251 876 141.914 876.023 141.657C876.042 141.43 876.074 141.246 876.113 141.131C876.157 141 876.215 141 876.331 141H900.669C900.785 141 900.843 141 900.887 141.131C900.926 141.246 900.958 141.43 900.977 141.657C901 141.914 901 142.251 901 142.925V223.075C901 223.749 901 224.086 900.977 224.343C900.958 224.57 900.926 224.754 900.887 224.869C900.843 225 900.785 225 900.669 225H876.331C876.215 225 876.157 225 876.113 224.869C876.074 224.754 876.042 224.57 876.023 224.343C876 224.086 876 223.749 876 223.075V142.925Z" fill="white"/>
<path d="M906 129.245C906 128.459 906 128.066 906.023 127.766C906.042 127.502 906.074 127.287 906.113 127.153C906.157 127 906.215 127 906.331 127H930.669C930.785 127 930.843 127 930.887 127.153C930.926 127.287 930.958 127.502 930.977 127.766C931 128.066 931 128.459 931 129.245V222.755C931 223.541 931 223.934 930.977 224.234C930.958 224.498 930.926 224.713 930.887 224.847C930.843 225 930.785 225 930.669 225H906.331C906.215 225 906.157 225 906.113 224.847C906.074 224.713 906.042 224.498 906.023 224.234C906 223.934 906 223.541 906 222.755V129.245Z" fill="white"/>
<path d="M936 115.566C936 114.668 936 114.219 936.023 113.876C936.042 113.574 936.074 113.329 936.113 113.175C936.157 113 936.215 113 936.331 113H960.669C960.785 113 960.843 113 960.887 113.175C960.926 113.329 960.958 113.574 960.977 113.876C961 114.219 961 114.668 961 115.566V222.434C961 223.332 961 223.781 960.977 224.124C960.958 224.426 960.926 224.671 960.887 224.825C960.843 225 960.785 225 960.669 225H936.331C936.215 225 936.157 225 936.113 224.825C936.074 224.671 936.042 224.426 936.023 224.124C936 223.781 936 223.332 936 222.434V115.566Z" fill="white"/>
<path d="M966 101.887C966 100.876 966 100.371 966.023 99.9852C966.042 99.6457 966.074 99.3696 966.113 99.1967C966.157 99 966.215 99 966.331 99H990.669C990.785 99 990.843 99 990.887 99.1967C990.926 99.3696 990.958 99.6457 990.977 99.9852C991 100.371 991 100.876 991 101.887V222.113C991 223.124 991 223.629 990.977 224.015C990.958 224.354 990.926 224.63 990.887 224.803C990.843 225 990.785 225 990.669 225H966.331C966.215 225 966.157 225 966.113 224.803C966.074 224.63 966.042 224.354 966.023 224.015C966 223.629 966 223.124 966 222.113V101.887Z" fill="white"/>
<path d="M996 88.2076C996 87.0849 996 86.5235 996.023 86.0946C996.042 85.7174 996.074 85.4107 996.113 85.2185C996.157 85 996.215 85 996.331 85H1020.67C1020.78 85 1020.84 85 1020.89 85.2185C1020.93 85.4107 1020.96 85.7174 1020.98 86.0946C1021 86.5235 1021 87.0849 1021 88.2076V221.792C1021 222.915 1021 223.477 1020.98 223.905C1020.96 224.283 1020.93 224.589 1020.89 224.781C1020.84 225 1020.78 225 1020.67 225H996.331C996.215 225 996.157 225 996.113 224.781C996.074 224.589 996.042 224.283 996.023 223.905C996 223.477 996 222.915 996 221.792V88.2076Z" fill="#F04B5D"/>
<path d="M1004 74.5L1006.67 77L1012 72" stroke="#222224" stroke-width="2"/>
<path d="M736 233.873C736 233.567 736 233.415 736.01 233.298C736.02 233.195 736.034 233.112 736.052 233.059C736.073 233 736.1 233 736.154 233H741.846C741.9 233 741.927 233 741.948 233.059C741.966 233.112 741.98 233.195 741.99 233.298C742 233.415 742 233.567 742 233.873V235.127C742 235.433 742 235.585 741.99 235.702C741.98 235.805 741.966 235.888 741.948 235.941C741.927 236 741.9 236 741.846 236H736.154C736.1 236 736.073 236 736.052 235.941C736.034 235.888 736.02 235.805 736.01 235.702C736 235.585 736 235.433 736 235.127V233.873Z" fill="#424754"/>
<path d="M766 233.873C766 233.567 766 233.415 766.01 233.298C766.02 233.195 766.034 233.112 766.052 233.059C766.073 233 766.1 233 766.154 233H771.846C771.9 233 771.927 233 771.948 233.059C771.966 233.112 771.98 233.195 771.99 233.298C772 233.415 772 233.567 772 233.873V235.127C772 235.433 772 235.585 771.99 235.702C771.98 235.805 771.966 235.888 771.948 235.941C771.927 236 771.9 236 771.846 236H766.154C766.1 236 766.073 236 766.052 235.941C766.034 235.888 766.02 235.805 766.01 235.702C766 235.585 766 235.433 766 235.127V233.873Z" fill="#424754"/>
<path d="M796 233.873C796 233.567 796 233.415 796.01 233.298C796.02 233.195 796.034 233.112 796.052 233.059C796.073 233 796.1 233 796.154 233H801.846C801.9 233 801.927 233 801.948 233.059C801.966 233.112 801.98 233.195 801.99 233.298C802 233.415 802 233.567 802 233.873V235.127C802 235.433 802 235.585 801.99 235.702C801.98 235.805 801.966 235.888 801.948 235.941C801.927 236 801.9 236 801.846 236H796.154C796.1 236 796.073 236 796.052 235.941C796.034 235.888 796.02 235.805 796.01 235.702C796 235.585 796 235.433 796 235.127V233.873Z" fill="#424754"/>
<path d="M826 233.873C826 233.567 826 233.415 826.01 233.298C826.02 233.195 826.034 233.112 826.052 233.059C826.073 233 826.1 233 826.154 233H831.846C831.9 233 831.927 233 831.948 233.059C831.966 233.112 831.98 233.195 831.99 233.298C832 233.415 832 233.567 832 233.873V235.127C832 235.433 832 235.585 831.99 235.702C831.98 235.805 831.966 235.888 831.948 235.941C831.927 236 831.9 236 831.846 236H826.154C826.1 236 826.073 236 826.052 235.941C826.034 235.888 826.02 235.805 826.01 235.702C826 235.585 826 235.433 826 235.127V233.873Z" fill="#424754"/>
<path d="M856 233.873C856 233.567 856 233.415 856.01 233.298C856.02 233.195 856.034 233.112 856.052 233.059C856.073 233 856.1 233 856.154 233H861.846C861.9 233 861.927 233 861.948 233.059C861.966 233.112 861.98 233.195 861.99 233.298C862 233.415 862 233.567 862 233.873V235.127C862 235.433 862 235.585 861.99 235.702C861.98 235.805 861.966 235.888 861.948 235.941C861.927 236 861.9 236 861.846 236H856.154C856.1 236 856.073 236 856.052 235.941C856.034 235.888 856.02 235.805 856.01 235.702C856 235.585 856 235.433 856 235.127V233.873Z" fill="#424754"/>
<path d="M886 233.873C886 233.567 886 233.415 886.01 233.298C886.02 233.195 886.034 233.112 886.052 233.059C886.073 233 886.1 233 886.154 233H891.846C891.9 233 891.927 233 891.948 233.059C891.966 233.112 891.98 233.195 891.99 233.298C892 233.415 892 233.567 892 233.873V235.127C892 235.433 892 235.585 891.99 235.702C891.98 235.805 891.966 235.888 891.948 235.941C891.927 236 891.9 236 891.846 236H886.154C886.1 236 886.073 236 886.052 235.941C886.034 235.888 886.02 235.805 886.01 235.702C886 235.585 886 235.433 886 235.127V233.873Z" fill="#424754"/>
<path d="M916 233.873C916 233.567 916 233.415 916.01 233.298C916.02 233.195 916.034 233.112 916.052 233.059C916.073 233 916.1 233 916.154 233H921.846C921.9 233 921.927 233 921.948 233.059C921.966 233.112 921.98 233.195 921.99 233.298C922 233.415 922 233.567 922 233.873V235.127C922 235.433 922 235.585 921.99 235.702C921.98 235.805 921.966 235.888 921.948 235.941C921.927 236 921.9 236 921.846 236H916.154C916.1 236 916.073 236 916.052 235.941C916.034 235.888 916.02 235.805 916.01 235.702C916 235.585 916 235.433 916 235.127V233.873Z" fill="#424754"/>
<path d="M946 233.873C946 233.567 946 233.415 946.01 233.298C946.02 233.195 946.034 233.112 946.052 233.059C946.073 233 946.1 233 946.154 233H951.846C951.9 233 951.927 233 951.948 233.059C951.966 233.112 951.98 233.195 951.99 233.298C952 233.415 952 233.567 952 233.873V235.127C952 235.433 952 235.585 951.99 235.702C951.98 235.805 951.966 235.888 951.948 235.941C951.927 236 951.9 236 951.846 236H946.154C946.1 236 946.073 236 946.052 235.941C946.034 235.888 946.02 235.805 946.01 235.702C946 235.585 946 235.433 946 235.127V233.873Z" fill="#424754"/>
<path d="M976 233.873C976 233.567 976 233.415 976.01 233.298C976.02 233.195 976.034 233.112 976.052 233.059C976.073 233 976.1 233 976.154 233H981.846C981.9 233 981.927 233 981.948 233.059C981.966 233.112 981.98 233.195 981.99 233.298C982 233.415 982 233.567 982 233.873V235.127C982 235.433 982 235.585 981.99 235.702C981.98 235.805 981.966 235.888 981.948 235.941C981.927 236 981.9 236 981.846 236H976.154C976.1 236 976.073 236 976.052 235.941C976.034 235.888 976.02 235.805 976.01 235.702C976 235.585 976 235.433 976 235.127V233.873Z" fill="#424754"/>
<path d="M1006 233.873C1006 233.567 1006 233.415 1006.01 233.298C1006.02 233.195 1006.03 233.112 1006.05 233.059C1006.07 233 1006.1 233 1006.15 233H1011.85C1011.9 233 1011.93 233 1011.95 233.059C1011.97 233.112 1011.98 233.195 1011.99 233.298C1012 233.415 1012 233.567 1012 233.873V235.127C1012 235.433 1012 235.585 1011.99 235.702C1011.98 235.805 1011.97 235.888 1011.95 235.941C1011.93 236 1011.9 236 1011.85 236H1006.15C1006.1 236 1006.07 236 1006.05 235.941C1006.03 235.888 1006.02 235.805 1006.01 235.702C1006 235.585 1006 235.433 1006 235.127V233.873Z" fill="#424754"/>
<path d="M726 251.455C726 250.945 726 250.691 726.043 250.496C726.081 250.325 726.142 250.186 726.216 250.099C726.301 250 726.412 250 726.634 250H825.366C825.588 250 825.699 250 825.784 250.099C825.858 250.186 825.919 250.325 825.957 250.496C826 250.691 826 250.945 826 251.455V253.545C826 254.055 826 254.309 825.957 254.504C825.919 254.675 825.858 254.814 825.784 254.901C825.699 255 825.588 255 825.366 255H726.634C726.412 255 726.301 255 726.216 254.901C726.142 254.814 726.081 254.675 726.043 254.504C726 254.309 726 254.055 726 253.545V251.455Z" fill="#97999D"/>
<path d="M1004 251.873C1004 251.567 1004 251.415 1004.01 251.298C1004.01 251.195 1004.02 251.112 1004.04 251.059C1004.05 251 1004.07 251 1004.11 251H1020.89C1020.93 251 1020.95 251 1020.96 251.059C1020.98 251.112 1020.99 251.195 1020.99 251.298C1021 251.415 1021 251.567 1021 251.873V253.127C1021 253.433 1021 253.585 1020.99 253.702C1020.99 253.805 1020.98 253.888 1020.96 253.941C1020.95 254 1020.93 254 1020.89 254H1004.11C1004.07 254 1004.05 254 1004.04 253.941C1004.02 253.888 1004.01 253.805 1004.01 253.702C1004 253.585 1004 253.433 1004 253.127V251.873Z" fill="#97999D"/>
<rect x="665" width="131.031" height="155" rx="2" fill="#424754"/>
<path d="M682.577 13.045C682.577 12.3941 682.577 12.0687 682.616 11.8201C682.65 11.6014 682.705 11.4236 682.773 11.3122C682.849 11.1855 682.949 11.1855 683.15 11.1855H704.376C704.576 11.1855 704.676 11.1855 704.753 11.3122C704.82 11.4236 704.875 11.6014 704.909 11.8201C704.948 12.0687 704.948 12.3941 704.948 13.045V15.7179C704.948 16.3687 704.948 16.6942 704.909 16.9428C704.875 17.1614 704.82 17.3392 704.753 17.4506C704.676 17.5773 704.576 17.5773 704.376 17.5773H683.15C682.949 17.5773 682.849 17.5773 682.773 17.4506C682.705 17.3392 682.65 17.1614 682.616 16.9428C682.577 16.6942 682.577 16.3687 682.577 15.7179V13.045Z" fill="white"/>
<g filter="url(#filter0_d)">
<path d="M698.118 65.9786C697.361 65.6534 696.48 66.0024 696.186 66.7721C693.564 73.631 693.052 81.1308 694.737 88.3016C696.535 95.9572 700.741 102.834 706.738 107.922C712.735 113.01 720.205 116.04 728.051 116.567C735.898 117.094 743.706 115.091 750.33 110.851C756.953 106.611 762.042 100.359 764.848 93.0126C767.654 85.6663 768.03 77.6135 765.921 70.0377C763.811 62.4619 759.327 55.7625 753.128 50.9241C747.321 46.3921 740.296 43.7167 732.969 43.2265C732.147 43.1715 731.461 43.8249 731.44 44.6485C731.418 45.4722 732.069 46.154 732.891 46.2119C739.579 46.6835 745.988 49.1372 751.292 53.2763C756.988 57.7219 761.108 63.8774 763.046 70.8381C764.985 77.7989 764.639 85.1979 762.061 91.9478C759.482 98.6977 754.807 104.442 748.721 108.338C742.635 112.234 735.461 114.074 728.251 113.59C721.042 113.106 714.178 110.321 708.668 105.647C703.159 100.972 699.294 94.6534 697.641 87.6192C696.103 81.0701 696.558 74.2222 698.93 67.9509C699.222 67.1802 698.875 66.3038 698.118 65.9786Z" fill="#27AE60"/>
</g>
<path d="M719.42 77.6655C719.42 76.7475 719.42 76.2885 719.457 75.9379C719.49 75.6295 719.543 75.3788 719.608 75.2216C719.681 75.043 719.778 75.043 719.97 75.043H740.366C740.559 75.043 740.655 75.043 740.729 75.2216C740.794 75.3788 740.846 75.6295 740.879 75.9379C740.917 76.2885 740.917 76.7475 740.917 77.6655V81.4353C740.917 82.3532 740.917 82.8122 740.879 83.1628C740.846 83.4712 740.794 83.722 740.729 83.8791C740.655 84.0578 740.559 84.0578 740.366 84.0578H719.97C719.778 84.0578 719.681 84.0578 719.608 83.8791C719.543 83.722 719.49 83.4712 719.457 83.1628C719.42 82.8122 719.42 82.3532 719.42 81.4353V77.6655Z" fill="white"/>
<path d="M702.777 126.674C702.777 126.321 702.777 126.144 702.873 126.009C702.957 125.891 703.091 125.794 703.256 125.734C703.443 125.665 703.689 125.665 704.18 125.665H756.157C756.648 125.665 756.893 125.665 757.081 125.734C757.246 125.794 757.38 125.891 757.464 126.009C757.559 126.144 757.559 126.321 757.559 126.674V128.124C757.559 128.477 757.559 128.653 757.464 128.788C757.38 128.907 757.246 129.003 757.081 129.064C756.893 129.132 756.648 129.132 756.157 129.132H704.18C703.689 129.132 703.443 129.132 703.256 129.064C703.091 129.003 702.957 128.907 702.873 128.788C702.777 128.653 702.777 128.477 702.777 128.124V126.674Z" fill="#97999D"/>
<defs>
<filter id="filter0_d" x="673.763" y="27.2236" width="113.505" height="113.426" filterUnits="userSpaceOnUse" color-interpolation-filters="sRGB">
<feFlood flood-opacity="0" result="BackgroundImageFix"/>
<feColorMatrix in="SourceAlpha" type="matrix" values="0 0 0 0 0 0 0 0 0 0 0 0 0 0 0 0 0 0 127 0"/>
<feOffset dy="4"/>
<feGaussianBlur stdDeviation="10"/>
<feColorMatrix type="matrix" values="0 0 0 0 0 0 0 0 0 0 0 0 0 0 0 0 0 0 0.19 0"/>
<feBlend mode="normal" in2="BackgroundImageFix" result="effect1_dropShadow"/>
<feBlend mode="normal" in="SourceGraphic" in2="effect1_dropShadow" result="shape"/>
</filter>
</defs>
</svg>
