<svg width="256" height="190" viewBox="0 0 256 190" fill="none" xmlns="http://www.w3.org/2000/svg">
<rect width="256" height="190" rx="18" fill="#64A15E"/>
<mask id="mask0" mask-type="alpha" maskUnits="userSpaceOnUse" x="0" y="0" width="256" height="190">
<rect width="256" height="190" rx="18" fill="#64A15E"/>
</mask>
<g mask="url(#mask0)">
<path d="M185.235 260.185H214.881V250.708C214.881 224.464 257.406 219.847 257.406 179.752C257.406 151.078 231.648 134.068 204.189 134.068C184.506 134.068 168.225 142.33 158.505 151.564L175.758 172.705C182.805 166.873 192.039 162.499 201.516 162.499C214.881 162.499 225.087 171.247 225.087 182.668C225.087 208.426 185.235 213.286 185.235 248.521V260.185ZM184.992 310H214.881V281.083H184.992V310Z" fill="#7EB179"/>
</g>
<path d="M47.26 63.72C48.74 63.72 50.14 63.2 50.84 62.84H50.88C50.88 62.84 50.84 63.22 50.84 63.5V69H53.46V54.8H50.84V60.54C50.28 60.9 49.16 61.38 47.92 61.38C46.24 61.38 45.54 60.5 45.54 58.88V54.8H42.92V59.46C42.92 62.12 44.3 63.72 47.26 63.72ZM56.4459 69H58.9059L62.6859 63.56C62.9459 63.16 63.3259 62.62 63.4459 62.34H63.4859C63.4659 62.6 63.4259 63.18 63.4259 63.56V69H65.8459V58.8H63.3859L59.6059 64.26C59.3459 64.66 58.9659 65.22 58.8459 65.48H58.8059C58.8259 65.32 58.8659 64.72 58.8659 64.26V58.8H56.4459V69ZM67.9548 63.9C67.9548 66.86 70.1148 69.24 73.4948 69.24C75.1348 69.24 76.7348 68.6 77.6948 67.58L76.7148 65.78C75.9548 66.52 74.7948 67.08 73.7148 67.08C71.7548 67.08 70.5348 65.6 70.5348 63.88C70.5348 62.14 71.7548 60.72 73.6348 60.72C74.6348 60.72 75.6348 61.18 76.2748 61.82L77.4148 60.08C76.4348 59.02 74.8748 58.56 73.4948 58.56C70.1148 58.56 67.9548 61 67.9548 63.9ZM78.5719 69.1C81.9519 69 83.1319 66.44 83.1319 62V60.86H85.6119V69H88.1519V58.8H80.7119V62C80.7119 65.62 79.8319 66.68 78.5719 66.86V69.1ZM90.2595 63.9C90.2595 67.04 92.7595 69.24 95.8595 69.24C98.9595 69.24 101.46 67.04 101.46 63.9C101.46 60.78 98.9595 58.56 95.8395 58.56C92.7595 58.56 90.2595 60.78 90.2595 63.9ZM92.8395 63.9C92.8395 62.02 94.1995 60.72 95.8595 60.72C97.5195 60.72 98.8995 62.02 98.8995 63.9C98.8995 65.8 97.5195 67.08 95.8595 67.08C94.1995 67.08 92.8395 65.8 92.8395 63.9ZM107.355 69H109.995L111.195 65.36H116.175L117.395 69H120.035L115.055 54.8H112.335L107.355 69ZM111.835 63.26L113.115 59.46C113.355 58.66 113.675 57.26 113.675 57.26H113.715C113.715 57.26 114.035 58.66 114.275 59.46L115.535 63.26H111.835ZM121.563 69H126.403C128.543 69 130.203 68.08 130.203 66.04C130.203 65.02 129.623 64.02 128.403 63.7V63.68C129.263 63.26 129.743 62.38 129.743 61.44C129.743 59.72 128.363 58.8 126.303 58.8H121.563V69ZM124.103 63V60.46H125.723C126.723 60.46 127.183 60.92 127.183 61.66C127.183 62.44 126.723 63 125.763 63H124.103ZM124.103 67.32V64.58H125.963C127.063 64.58 127.643 65.14 127.643 65.96C127.643 66.74 127.103 67.32 125.963 67.32H124.103ZM131.705 63.9C131.705 67.04 134.205 69.24 137.305 69.24C140.405 69.24 142.905 67.04 142.905 63.9C142.905 60.78 140.405 58.56 137.285 58.56C134.205 58.56 131.705 60.78 131.705 63.9ZM134.285 63.9C134.285 62.02 135.645 60.72 137.305 60.72C138.965 60.72 140.345 62.02 140.345 63.9C140.345 65.8 138.965 67.08 137.305 67.08C135.645 67.08 134.285 65.8 134.285 63.9ZM145.001 69H147.541V60.96H151.701V58.8H145.001V69ZM152.521 66.18C152.521 68.04 154.041 69.24 155.881 69.24C157.261 69.24 158.481 68.48 159.101 67.4H159.141C159.141 67.4 159.081 67.72 159.081 68.14V69H161.441V62.62C161.441 60.04 159.861 58.56 157.201 58.56C155.681 58.56 154.041 59.14 153.201 59.82L154.141 61.64C154.961 61.08 155.981 60.66 156.981 60.66C158.041 60.66 158.901 61.12 158.901 62.46V62.6H158.461C156.201 62.6 152.521 63.12 152.521 66.18ZM155.041 65.96C155.041 64.52 157.201 64.34 158.481 64.34H158.921V64.62C158.921 65.86 158.001 67.3 156.581 67.3C155.561 67.3 155.041 66.64 155.041 65.96ZM166.724 66.96C167.784 65.2 167.964 62.86 167.964 61.32V60.84H170.504V66.96H166.724ZM162.924 66.96V71.4H165.284V69H172.204V71.4H174.504V66.96H173.044V58.8H165.544V60.92C165.544 62.68 165.304 65.32 164.184 66.96H162.924ZM176.348 73H178.888V68.68C178.888 68.16 178.828 67.8 178.828 67.8H178.868C179.588 68.72 180.648 69.24 181.808 69.24C184.488 69.24 186.468 67.14 186.468 63.9C186.468 60.74 184.708 58.56 181.948 58.56C180.568 58.56 179.328 59.18 178.668 60.28H178.628C178.628 60.28 178.668 59.94 178.668 59.56V58.8H176.348V73ZM178.808 63.96C178.808 61.7 180.048 60.74 181.388 60.74C182.868 60.74 183.908 62 183.908 63.94C183.908 65.96 182.748 67.1 181.348 67.1C179.688 67.1 178.808 65.54 178.808 63.96ZM188.013 63.9C188.013 67.04 190.513 69.24 193.613 69.24C196.713 69.24 199.213 67.04 199.213 63.9C199.213 60.78 196.713 58.56 193.593 58.56C190.513 58.56 188.013 60.78 188.013 63.9ZM190.593 63.9C190.593 62.02 191.953 60.72 193.613 60.72C195.273 60.72 196.653 62.02 196.653 63.9C196.653 65.8 195.273 67.08 193.613 67.08C191.953 67.08 190.593 65.8 190.593 63.9ZM42.92 93.04C42.92 96.66 44.58 99.24 48.12 99.24C51.14 99.24 53.12 97.18 53.12 94.36C53.12 91.54 51.38 89.68 48.76 89.68C47.58 89.68 46.3 90.04 45.4 91.16H45.36C45.46 89.4 46.6 88.46 48.34 87.74L52.22 86.26L51.46 84.2L47.94 85.58C44.22 87.02 42.92 89.2 42.92 93.04ZM45.5 94.38C45.5 92.78 46.6 91.64 48.06 91.64C49.42 91.64 50.56 92.68 50.56 94.4C50.56 96.12 49.42 97.14 48.02 97.14C46.64 97.14 45.5 96.12 45.5 94.38ZM54.6541 93.9C54.6541 96.8 56.7741 99.24 60.1541 99.24C61.6141 99.24 63.2141 98.7 64.2541 97.78L63.2541 95.96C62.4341 96.62 61.3741 97.08 60.3341 97.08C58.7941 97.08 57.4341 96.16 57.2741 94.38H64.2941C64.3341 94.06 64.3741 93.72 64.3741 93.4C64.3741 90.7 62.7741 88.56 59.8541 88.56C56.7941 88.56 54.6541 90.76 54.6541 93.9ZM57.3341 92.64C57.5741 91.34 58.4941 90.48 59.7941 90.48C60.9341 90.48 61.8141 91.28 61.8341 92.64H57.3341ZM65.565 97.74C66.505 98.62 67.965 99.24 69.505 99.24C71.725 99.24 73.525 98.16 73.525 96.04C73.525 94.78 72.725 94.04 71.805 93.7V93.66C72.525 93.32 73.205 92.62 73.205 91.36C73.205 89.56 71.625 88.56 69.625 88.56C67.925 88.56 66.705 89.08 65.865 89.7L66.685 91.32C67.585 90.72 68.385 90.48 69.145 90.48C70.165 90.48 70.665 90.94 70.665 91.7C70.665 92.56 69.985 92.88 69.085 92.88H68.045V94.64H69.285C70.505 94.64 70.985 95.12 70.985 95.9C70.985 96.76 70.305 97.28 69.225 97.28C68.165 97.28 67.185 96.64 66.645 96.12L65.565 97.74ZM80.0252 93.9C80.0252 96.86 82.1852 99.24 85.5652 99.24C87.2052 99.24 88.8052 98.6 89.7652 97.58L88.7852 95.78C88.0252 96.52 86.8652 97.08 85.7852 97.08C83.8252 97.08 82.6052 95.6 82.6052 93.88C82.6052 92.14 83.8252 90.72 85.7052 90.72C86.7052 90.72 87.7052 91.18 88.3452 91.82L89.4852 90.08C88.5052 89.02 86.9452 88.56 85.5652 88.56C82.1852 88.56 80.0252 91 80.0252 93.9ZM90.6422 99.1C94.0222 99 95.2022 96.44 95.2022 92V90.86H97.6822V99H100.222V88.8H92.7822V92C92.7822 95.62 91.9022 96.68 90.6422 96.86V99.1ZM102.33 93.9C102.33 97.04 104.83 99.24 107.93 99.24C111.03 99.24 113.53 97.04 113.53 93.9C113.53 90.78 111.03 88.56 107.91 88.56C104.83 88.56 102.33 90.78 102.33 93.9ZM104.91 93.9C104.91 92.02 106.27 90.72 107.93 90.72C109.59 90.72 110.97 92.02 110.97 93.9C110.97 95.8 109.59 97.08 107.93 97.08C106.27 97.08 104.91 95.8 104.91 93.9ZM114.213 99H116.993L119.333 94.9H120.613V99H122.993V94.9H124.273L126.613 99H129.413L126.293 93.76V93.72L129.133 88.8H126.493L124.233 92.76H122.993V88.8H120.613V92.76H119.373L117.113 88.8H114.473L117.333 93.72V93.76L114.213 99ZM131.016 99H133.556V94.88H137.916V99H140.456V88.8H137.916V92.74H133.556V88.8H131.016V99ZM152.784 99H155.324V88.8H152.784V99ZM143.184 99H147.524C150.204 99 151.384 97.66 151.384 95.68C151.384 93.46 149.944 92.3 147.544 92.3H145.724V88.8H143.184V99ZM145.724 97.26V94.02H147.084C148.284 94.02 148.824 94.72 148.824 95.66C148.824 96.58 148.284 97.26 147.124 97.26H145.724ZM156.988 99H159.808L161.568 96.04C161.708 95.82 161.848 95.5 161.848 95.5H161.888C161.888 95.5 162.048 95.82 162.188 96.04L163.948 99H166.787L163.408 93.84L166.688 88.8H163.808L162.228 91.58C162.088 91.84 161.888 92.22 161.888 92.22H161.848C161.848 92.22 161.668 91.84 161.528 91.58L159.948 88.8H157.068L160.348 93.84L156.988 99ZM45.74 129H48.26V120.96H51.64V118.8H42.38V120.96H45.74V129ZM52.4861 123.9C52.4861 126.8 54.6061 129.24 57.9861 129.24C59.4461 129.24 61.0461 128.7 62.0861 127.78L61.0861 125.96C60.2661 126.62 59.2061 127.08 58.1661 127.08C56.6261 127.08 55.2661 126.16 55.1061 124.38H62.1261C62.1661 124.06 62.2061 123.72 62.2061 123.4C62.2061 120.7 60.6061 118.56 57.6861 118.56C54.6261 118.56 52.4861 120.76 52.4861 123.9ZM55.1661 122.64C55.4061 121.34 56.3261 120.48 57.6261 120.48C58.7661 120.48 59.6461 121.28 59.6661 122.64H55.1661ZM64.317 133H66.857V128.68C66.857 128.16 66.797 127.8 66.797 127.8H66.837C67.557 128.72 68.617 129.24 69.777 129.24C72.457 129.24 74.437 127.14 74.437 123.9C74.437 120.74 72.677 118.56 69.917 118.56C68.537 118.56 67.297 119.18 66.637 120.28H66.597C66.597 120.28 66.637 119.94 66.637 119.56V118.8H64.317V133ZM66.777 123.96C66.777 121.7 68.017 120.74 69.357 120.74C70.837 120.74 71.877 122 71.877 123.94C71.877 125.96 70.717 127.1 69.317 127.1C67.657 127.1 66.777 125.54 66.777 123.96ZM76.1822 129H78.6222L78.9822 123.48C79.0222 122.8 78.9622 121.74 78.9622 121.74H79.0022C79.0022 121.74 79.3422 122.54 79.6222 123.24L81.6222 127.72H83.7222L85.7222 123.22C86.0422 122.5 86.3222 121.74 86.3222 121.74H86.3622C86.3622 121.74 86.3222 122.8 86.3422 123.48L86.7022 129H89.1422L88.2222 118.8H85.3822L83.1822 124.06C82.9622 124.64 82.6822 125.36 82.6822 125.36H82.6422C82.6422 125.36 82.3822 124.62 82.1422 124.06L79.9822 118.8H77.1022L76.1822 129ZM91.4655 129H93.9255L97.7055 123.56C97.9655 123.16 98.3455 122.62 98.4655 122.34H98.5055C98.4855 122.6 98.4455 123.18 98.4455 123.56V129H100.865V118.8H98.4055L94.6255 124.26C94.3655 124.66 93.9855 125.22 93.8655 125.48H93.8255C93.8455 125.32 93.8855 124.72 93.8855 124.26V118.8H91.4655V129ZM103.594 129H106.134V124.88H110.494V129H113.034V118.8H110.494V122.74H106.134V118.8H103.594V129ZM115.142 123.9C115.142 127.04 117.642 129.24 120.742 129.24C123.842 129.24 126.342 127.04 126.342 123.9C126.342 120.78 123.842 118.56 120.722 118.56C117.642 118.56 115.142 120.78 115.142 123.9ZM117.722 123.9C117.722 122.02 119.082 120.72 120.742 120.72C122.402 120.72 123.782 122.02 123.782 123.9C123.782 125.8 122.402 127.08 120.742 127.08C119.082 127.08 117.722 125.8 117.722 123.9ZM128.438 129H133.278C135.418 129 137.078 128.08 137.078 126.04C137.078 125.02 136.498 124.02 135.278 123.7V123.68C136.138 123.26 136.618 122.38 136.618 121.44C136.618 119.72 135.238 118.8 133.178 118.8H128.438V129ZM130.978 123V120.46H132.598C133.598 120.46 134.058 120.92 134.058 121.66C134.058 122.44 133.598 123 132.638 123H130.978ZM130.978 127.32V124.58H132.838C133.938 124.58 134.518 125.14 134.518 125.96C134.518 126.74 133.978 127.32 132.838 127.32H130.978Z" fill="white"/>
</svg>
