<svg width="256" height="190" viewBox="0 0 256 190" fill="none" xmlns="http://www.w3.org/2000/svg">
<rect width="256" height="190" rx="18" fill="#F5F6FA"/>
<mask id="mask0" mask-type="alpha" maskUnits="userSpaceOnUse" x="0" y="0" width="256" height="190">
<rect width="256" height="190" rx="18" fill="#F5F6FA"/>
</mask>
<g mask="url(#mask0)">
<path d="M185.235 60.185H214.881V50.708C214.881 24.464 257.406 19.847 257.406 -20.248C257.406 -48.922 231.648 -65.932 204.189 -65.932C184.506 -65.932 168.225 -57.67 158.505 -48.436L175.758 -27.295C182.805 -33.127 192.039 -37.501 201.516 -37.501C214.881 -37.501 225.087 -28.753 225.087 -17.332C225.087 8.426 185.235 13.286 185.235 48.521V60.185ZM184.992 110H214.881V81.083H184.992V110Z" fill="#FCFCFC"/>
</g>
<path d="M43.72 69H48.86C51.48 69 53.76 67.72 53.76 64.88C53.76 63.44 53.02 62 51.46 61.54V61.5C52.54 60.92 53.18 59.78 53.18 58.46C53.18 56.12 51.36 54.8 48.78 54.8H43.72V69ZM46.3 60.6V57.02H48.76C49.94 57.02 50.56 57.76 50.56 58.78C50.56 59.8 49.92 60.6 48.8 60.6H46.3ZM46.3 66.78V62.68H49.06C50.36 62.68 51.12 63.54 51.12 64.72C51.12 65.92 50.38 66.78 49.06 66.78H46.3ZM63.8563 65.62C64.9563 65.62 65.9963 65.3 66.6163 64.96H66.6563C66.6563 64.96 66.6363 65.26 66.6363 65.52V69H69.1563V58.8H66.6363V62.86C66.2363 63.14 65.5362 63.5 64.6562 63.5C63.3163 63.5 62.9163 62.76 62.9163 61.8V58.8H60.4163V62.22C60.4163 64.6 61.8963 65.62 63.8563 65.62ZM71.2752 63.9C71.2752 66.8 73.3952 69.24 76.7752 69.24C78.2352 69.24 79.8352 68.7 80.8752 67.78L79.8752 65.96C79.0552 66.62 77.9952 67.08 76.9552 67.08C75.4152 67.08 74.0552 66.16 73.8952 64.38H80.9152C80.9552 64.06 80.9952 63.72 80.9952 63.4C80.9952 60.7 79.3952 58.56 76.4752 58.56C73.4152 58.56 71.2752 60.76 71.2752 63.9ZM73.9552 62.64C74.1952 61.34 75.1152 60.48 76.4152 60.48C77.5552 60.48 78.4352 61.28 78.4552 62.64H73.9552ZM82.6861 69H85.1261L85.4861 63.48C85.5261 62.8 85.4661 61.74 85.4661 61.74H85.5061C85.5061 61.74 85.8461 62.54 86.1261 63.24L88.1261 67.72H90.2261L92.2261 63.22C92.5461 62.5 92.8261 61.74 92.8261 61.74H92.8661C92.8661 61.74 92.8261 62.8 92.8461 63.48L93.2061 69H95.6461L94.7261 58.8H91.8861L89.6861 64.06C89.4661 64.64 89.1861 65.36 89.1861 65.36H89.1461C89.1461 65.36 88.8861 64.62 88.6461 64.06L86.4861 58.8H83.6061L82.6861 69ZM102.349 63.9C102.349 66.86 104.509 69.24 107.889 69.24C109.529 69.24 111.129 68.6 112.089 67.58L111.109 65.78C110.349 66.52 109.189 67.08 108.109 67.08C106.149 67.08 104.929 65.6 104.929 63.88C104.929 62.14 106.149 60.72 108.029 60.72C109.029 60.72 110.029 61.18 110.669 61.82L111.809 60.08C110.829 59.02 109.269 58.56 107.889 58.56C104.509 58.56 102.349 61 102.349 63.9ZM113.506 69H115.946L116.306 63.48C116.346 62.8 116.286 61.74 116.286 61.74H116.326C116.326 61.74 116.666 62.54 116.946 63.24L118.946 67.72H121.046L123.046 63.22C123.366 62.5 123.646 61.74 123.646 61.74H123.686C123.686 61.74 123.646 62.8 123.666 63.48L124.026 69H126.466L125.546 58.8H122.706L120.506 64.06C120.286 64.64 120.006 65.36 120.006 65.36H119.966C119.966 65.36 119.706 64.62 119.466 64.06L117.306 58.8H114.426L113.506 69ZM138.39 69H140.93V58.8H138.39V69ZM128.79 69H133.13C135.81 69 136.99 67.66 136.99 65.68C136.99 63.46 135.55 62.3 133.15 62.3H131.33V58.8H128.79V69ZM131.33 67.26V64.02H132.69C133.89 64.02 134.43 64.72 134.43 65.66C134.43 66.58 133.89 67.26 132.73 67.26H131.33ZM143.033 63.9C143.033 66.86 145.193 69.24 148.573 69.24C150.213 69.24 151.813 68.6 152.773 67.58L151.793 65.78C151.033 66.52 149.873 67.08 148.793 67.08C146.833 67.08 145.613 65.6 145.613 63.88C145.613 62.14 146.833 60.72 148.713 60.72C149.713 60.72 150.713 61.18 151.353 61.82L152.493 60.08C151.513 59.02 149.953 58.56 148.573 58.56C145.193 58.56 143.033 61 143.033 63.9ZM153.65 69.1C157.03 69 158.21 66.44 158.21 62V60.86H160.69V69H163.23V58.8H155.79V62C155.79 65.62 154.91 66.68 153.65 66.86V69.1ZM42.3 99H45.12L46.88 96.04C47.02 95.82 47.16 95.5 47.16 95.5H47.2C47.2 95.5 47.36 95.82 47.5 96.04L49.26 99H52.1L48.72 93.84L52 88.8H49.12L47.54 91.58C47.4 91.84 47.2 92.22 47.2 92.22H47.16C47.16 92.22 46.98 91.84 46.84 91.58L45.26 88.8H42.38L45.66 93.84L42.3 99ZM53.7311 99H56.1911L59.9711 93.56C60.2311 93.16 60.6111 92.62 60.7311 92.34H60.7711C60.7511 92.6 60.7111 93.18 60.7111 93.56V99H63.1311V88.8H60.6711L56.8911 94.26C56.6311 94.66 56.2511 95.22 56.1311 95.48H56.0911C56.1111 95.32 56.1511 94.72 56.1511 94.26V88.8H53.7311V99ZM65.44 99H67.88L68.24 93.48C68.28 92.8 68.22 91.74 68.22 91.74H68.26C68.26 91.74 68.6 92.54 68.88 93.24L70.88 97.72H72.98L74.98 93.22C75.3 92.5 75.58 91.74 75.58 91.74H75.62C75.62 91.74 75.58 92.8 75.6 93.48L75.96 99H78.4L77.48 88.8H74.64L72.44 94.06C72.22 94.64 71.94 95.36 71.94 95.36H71.9C71.9 95.36 71.64 94.62 71.4 94.06L69.24 88.8H66.36L65.44 99ZM80.7233 99H83.1833L86.9633 93.56C87.2233 93.16 87.6033 92.62 87.7233 92.34H87.7633C87.7433 92.6 87.7033 93.18 87.7033 93.56V99H90.1233V88.8H87.6633L83.8833 94.26C83.6233 94.66 83.2433 95.22 83.1233 95.48H83.0833C83.1033 95.32 83.1433 94.72 83.1433 94.26V88.8H80.7233V99ZM95.6922 95.62C96.7922 95.62 97.8322 95.3 98.4522 94.96H98.4922C98.4922 94.96 98.4722 95.26 98.4722 95.52V99H100.992V88.8H98.4722V92.86C98.0722 93.14 97.3722 93.5 96.4922 93.5C95.1522 93.5 94.7522 92.76 94.7522 91.8V88.8H92.2522V92.22C92.2522 94.6 93.7322 95.62 95.6922 95.62ZM103.111 93.9C103.111 96.8 105.231 99.24 108.611 99.24C110.071 99.24 111.671 98.7 112.711 97.78L111.711 95.96C110.891 96.62 109.831 97.08 108.791 97.08C107.251 97.08 105.891 96.16 105.731 94.38H112.751C112.791 94.06 112.831 93.72 112.831 93.4C112.831 90.7 111.231 88.56 108.311 88.56C105.251 88.56 103.111 90.76 103.111 93.9ZM105.791 92.64C106.031 91.34 106.951 90.48 108.251 90.48C109.391 90.48 110.271 91.28 110.291 92.64H105.791ZM114.322 93.9C114.322 96.86 116.482 99.24 119.862 99.24C121.502 99.24 123.102 98.6 124.062 97.58L123.082 95.78C122.322 96.52 121.162 97.08 120.082 97.08C118.122 97.08 116.902 95.6 116.902 93.88C116.902 92.14 118.122 90.72 120.002 90.72C121.002 90.72 122.002 91.18 122.642 91.82L123.782 90.08C122.802 89.02 121.242 88.56 119.862 88.56C116.482 88.56 114.322 91 114.322 93.9ZM125.899 99H128.439V94.86H129.759L132.439 99H135.379L131.739 93.7V93.66L134.979 88.8H132.159L129.679 92.7H128.439V88.8H125.899V99ZM136.876 99H139.336L143.116 93.56C143.376 93.16 143.756 92.62 143.876 92.34H143.916C143.896 92.6 143.856 93.18 143.856 93.56V99H146.276V88.8H143.816L140.036 94.26C139.776 94.66 139.396 95.22 139.276 95.48H139.236C139.256 95.32 139.296 94.72 139.296 94.26V88.8H136.876V99ZM147.945 99H150.765L152.525 96.04C152.665 95.82 152.805 95.5 152.805 95.5H152.845C152.845 95.5 153.005 95.82 153.145 96.04L154.905 99H157.745L154.365 93.84L157.645 88.8H154.765L153.185 91.58C153.045 91.84 152.845 92.22 152.845 92.22H152.805C152.805 92.22 152.625 91.84 152.485 91.58L150.905 88.8H148.025L151.305 93.84L147.945 99ZM43.36 133H45.9V128.68C45.9 128.16 45.84 127.8 45.84 127.8H45.88C46.6 128.72 47.66 129.24 48.82 129.24C51.5 129.24 53.48 127.14 53.48 123.9C53.48 120.74 51.72 118.56 48.96 118.56C47.58 118.56 46.34 119.18 45.68 120.28H45.64C45.64 120.28 45.68 119.94 45.68 119.56V118.8H43.36V133ZM45.82 123.96C45.82 121.7 47.06 120.74 48.4 120.74C49.88 120.74 50.92 122 50.92 123.94C50.92 125.96 49.76 127.1 48.36 127.1C46.7 127.1 45.82 125.54 45.82 123.96ZM55.0252 123.9C55.0252 126.8 57.1452 129.24 60.5252 129.24C61.9852 129.24 63.5852 128.7 64.6252 127.78L63.6252 125.96C62.8052 126.62 61.7452 127.08 60.7052 127.08C59.1652 127.08 57.8052 126.16 57.6452 124.38H64.6652C64.7052 124.06 64.7452 123.72 64.7452 123.4C64.7452 120.7 63.1452 118.56 60.2252 118.56C57.1652 118.56 55.0252 120.76 55.0252 123.9ZM57.7052 122.64C57.9452 121.34 58.8652 120.48 60.1652 120.48C61.3052 120.48 62.1852 121.28 62.2052 122.64H57.7052ZM66.0761 126.18C66.0761 128.04 67.5961 129.24 69.4361 129.24C70.8161 129.24 72.0361 128.48 72.6561 127.4H72.6961C72.6961 127.4 72.6361 127.72 72.6361 128.14V129H74.9961V122.62C74.9961 120.04 73.4161 118.56 70.7561 118.56C69.2361 118.56 67.5961 119.14 66.7561 119.82L67.6961 121.64C68.5161 121.08 69.5361 120.66 70.5361 120.66C71.5961 120.66 72.4561 121.12 72.4561 122.46V122.6H72.0161C69.7561 122.6 66.0761 123.12 66.0761 126.18ZM68.5961 125.96C68.5961 124.52 70.7561 124.34 72.0361 124.34H72.4761V124.62C72.4761 125.86 71.5561 127.3 70.1361 127.3C69.1161 127.3 68.5961 126.64 68.5961 125.96ZM77.5788 129H80.1188V124.86H81.4388L84.1188 129H87.0588L83.4188 123.7V123.66L86.6588 118.8H83.8388L81.3587 122.7H80.1188V118.8H77.5788V129ZM88.5553 129H96.8753V131.4H99.1753V126.84H97.7153V118.8H95.1753V126.84H91.0953V118.8H88.5553V129ZM101.036 129H103.496L107.276 123.56C107.536 123.16 107.916 122.62 108.036 122.34H108.076C108.056 122.6 108.016 123.18 108.016 123.56V129H110.436V118.8H107.976L104.196 124.26C103.936 124.66 103.556 125.22 103.436 125.48H103.396C103.416 125.32 103.456 124.72 103.456 124.26V118.8H101.036V129ZM117.865 117.82C119.605 117.82 121.145 116.82 121.145 115.06V114.8H119.225V115.04C119.225 115.92 118.525 116.32 117.865 116.32C117.205 116.32 116.525 115.92 116.525 115.06V114.8H114.585V115.06C114.585 116.82 116.125 117.82 117.865 117.82ZM113.165 129H115.625L119.405 123.56C119.665 123.16 120.045 122.62 120.165 122.34H120.205C120.185 122.6 120.145 123.18 120.145 123.56V129H122.565V118.8H120.105L116.325 124.26C116.065 124.66 115.685 125.22 115.565 125.48H115.525C115.545 125.32 115.585 124.72 115.585 124.26V118.8H113.165V129ZM126.638 124.9H129.078V124.12C129.078 121.96 132.578 121.58 132.578 118.28C132.578 115.92 130.458 114.52 128.198 114.52C126.578 114.52 125.238 115.2 124.438 115.96L125.858 117.7C126.438 117.22 127.198 116.86 127.978 116.86C129.078 116.86 129.918 117.58 129.918 118.52C129.918 120.64 126.638 121.04 126.638 123.94V124.9ZM126.618 129H129.078V126.62H126.618V129Z" fill="#505257"/>
</svg>
