<svg width="256" height="220" viewBox="0 0 256 220" fill="none" xmlns="http://www.w3.org/2000/svg">
<rect width="256" height="220" rx="18" fill="#FFE7C1"/>
<path d="M43.72 69H46.3V57.02H52.64V69H55.22V54.8H43.72V69ZM57.4666 63.9C57.4666 67.04 59.9666 69.24 63.0666 69.24C66.1666 69.24 68.6666 67.04 68.6666 63.9C68.6666 60.78 66.1666 58.56 63.0466 58.56C59.9666 58.56 57.4666 60.78 57.4666 63.9ZM60.0466 63.9C60.0466 62.02 61.4066 60.72 63.0666 60.72C64.7266 60.72 66.1066 62.02 66.1066 63.9C66.1066 65.8 64.7266 67.08 63.0666 67.08C61.4066 67.08 60.0466 65.8 60.0466 63.9ZM73.6023 65.62C74.7023 65.62 75.7423 65.3 76.3623 64.96H76.4023C76.4023 64.96 76.3823 65.26 76.3823 65.52V69H78.9023V58.8H76.3823V62.86C75.9823 63.14 75.2823 63.5 74.4023 63.5C73.0623 63.5 72.6623 62.76 72.6623 61.8V58.8H70.1623V62.22C70.1623 64.6 71.6423 65.62 73.6023 65.62ZM81.0213 63.9C81.0213 66.8 83.1413 69.24 86.5213 69.24C87.9813 69.24 89.5813 68.7 90.6213 67.78L89.6213 65.96C88.8013 66.62 87.7413 67.08 86.7013 67.08C85.1613 67.08 83.8013 66.16 83.6413 64.38H90.6613C90.7013 64.06 90.7413 63.72 90.7413 63.4C90.7413 60.7 89.1413 58.56 86.2213 58.56C83.1613 58.56 81.0213 60.76 81.0213 63.9ZM83.7013 62.64C83.9413 61.34 84.8613 60.48 86.1612 60.48C87.3013 60.48 88.1813 61.28 88.2013 62.64H83.7013ZM92.4322 69H94.8722L95.2322 63.48C95.2722 62.8 95.2122 61.74 95.2122 61.74H95.2522C95.2522 61.74 95.5922 62.54 95.8722 63.24L97.8722 67.72H99.9722L101.972 63.22C102.292 62.5 102.572 61.74 102.572 61.74H102.612C102.612 61.74 102.572 62.8 102.592 63.48L102.952 69H105.392L104.472 58.8H101.632L99.4322 64.06C99.2122 64.64 98.9322 65.36 98.9322 65.36H98.8922C98.8922 65.36 98.6322 64.62 98.3922 64.06L96.2322 58.8H93.3522L92.4322 69ZM107.28 70.64L106.44 72.54C106.44 72.54 107.34 73.2 108.56 73.2C110.06 73.2 111.54 72.4 112.24 70.54L116.78 58.8H114.02L112.02 64.72C111.86 65.26 111.68 66.06 111.68 66.06H111.64C111.64 66.06 111.46 65.22 111.26 64.68L109.12 58.8H106.26L110.56 68.84L110.18 69.74C109.8 70.64 109.1 71.06 108.4 71.06C107.84 71.06 107.28 70.64 107.28 70.64ZM123.798 69H126.378V63.04H132.878V69H135.438V54.8H132.878V60.82H126.378V54.8H123.798V69ZM138.016 72.14H144.116V70.48H140.036C140.196 69.02 143.996 68.74 143.996 65.88C143.996 64.14 142.556 63.16 140.956 63.16C139.736 63.16 138.596 63.84 138.016 64.74L139.256 65.84C139.656 65.38 140.196 64.92 140.856 64.92C141.536 64.92 142.076 65.34 142.076 65.96C142.076 67.7 137.936 67.86 137.936 71.32C137.936 71.56 137.976 71.86 138.016 72.14ZM145.868 61.8C145.868 65.98 148.908 69.24 153.208 69.24C157.508 69.24 160.548 65.98 160.548 61.8C160.548 57.74 157.508 54.56 153.208 54.56C148.908 54.56 145.868 57.74 145.868 61.8ZM148.528 61.8C148.528 59.04 150.488 56.92 153.208 56.92C155.928 56.92 157.888 59.04 157.888 61.8C157.888 64.68 155.928 66.88 153.208 66.88C150.488 66.88 148.528 64.68 148.528 61.8ZM43.36 99H45.9V90.96H50.12V99H52.66V88.8H43.36V99ZM54.7517 93.9C54.7517 97.04 57.2517 99.24 60.3517 99.24C63.4517 99.24 65.9517 97.04 65.9517 93.9C65.9517 90.78 63.4517 88.56 60.3317 88.56C57.2517 88.56 54.7517 90.78 54.7517 93.9ZM57.3317 93.9C57.3317 92.02 58.6917 90.72 60.3517 90.72C62.0117 90.72 63.3917 92.02 63.3917 93.9C63.3917 95.8 62.0117 97.08 60.3517 97.08C58.6917 97.08 57.3317 95.8 57.3317 93.9ZM66.8141 99.1C70.1941 99 71.3741 96.44 71.3741 92V90.86H73.8541V99H76.3941V88.8H68.9541V92C68.9541 95.62 68.0741 96.68 66.8141 96.86V99.1ZM78.5017 93.9C78.5017 96.8 80.6217 99.24 84.0017 99.24C85.4617 99.24 87.0617 98.7 88.1017 97.78L87.1017 95.96C86.2817 96.62 85.2217 97.08 84.1817 97.08C82.6417 97.08 81.2817 96.16 81.1217 94.38H88.1417C88.1817 94.06 88.2217 93.72 88.2217 93.4C88.2217 90.7 86.6217 88.56 83.7017 88.56C80.6417 88.56 78.5017 90.76 78.5017 93.9ZM81.1817 92.64C81.4217 91.34 82.3417 90.48 83.6417 90.48C84.7817 90.48 85.6617 91.28 85.6817 92.64H81.1817ZM89.4127 97.74C90.3527 98.62 91.8127 99.24 93.3527 99.24C95.5727 99.24 97.3727 98.16 97.3727 96.04C97.3727 94.78 96.5727 94.04 95.6527 93.7V93.66C96.3727 93.32 97.0527 92.62 97.0527 91.36C97.0527 89.56 95.4727 88.56 93.4727 88.56C91.7727 88.56 90.5527 89.08 89.7127 89.7L90.5327 91.32C91.4327 90.72 92.2327 90.48 92.9927 90.48C94.0127 90.48 94.5127 90.94 94.5127 91.7C94.5127 92.56 93.8327 92.88 92.9327 92.88H91.8927V94.64H93.1327C94.3527 94.64 94.8327 95.12 94.8327 95.9C94.8327 96.76 94.1527 97.28 93.0727 97.28C92.0127 97.28 91.0327 96.64 90.4927 96.12L89.4127 97.74ZM99.4928 99H102.033V94.88H106.393V99H108.933V88.8H106.393V92.74H102.033V88.8H99.4928V99ZM110.881 96.18C110.881 98.04 112.401 99.24 114.241 99.24C115.621 99.24 116.841 98.48 117.461 97.4H117.501C117.501 97.4 117.441 97.72 117.441 98.14V99H119.801V92.62C119.801 90.04 118.221 88.56 115.561 88.56C114.041 88.56 112.401 89.14 111.561 89.82L112.501 91.64C113.321 91.08 114.341 90.66 115.341 90.66C116.401 90.66 117.261 91.12 117.261 92.46V92.6H116.821C114.561 92.6 110.881 93.12 110.881 96.18ZM113.401 95.96C113.401 94.52 115.561 94.34 116.841 94.34H117.281V94.62C117.281 95.86 116.361 97.3 114.941 97.3C113.921 97.3 113.401 96.64 113.401 95.96ZM130.083 96.96C131.143 95.2 131.323 92.86 131.323 91.32V90.84H133.863V96.96H130.083ZM126.283 96.96V101.4H128.643V99H135.563V101.4H137.863V96.96H136.403V88.8H128.903V90.92C128.903 92.68 128.663 95.32 127.543 96.96H126.283ZM138.748 99.1C142.128 99 143.308 96.44 143.308 92V90.86H145.788V99H148.328V88.8H140.888V92C140.888 95.62 140.008 96.68 138.748 96.86V99.1ZM150.055 99H152.795L155.075 95.54H156.395V99H158.935V88.8H154.355C152.155 88.8 150.695 90 150.695 92.1C150.695 93.56 151.615 94.68 152.755 95.1V95.12C152.755 95.12 152.535 95.36 152.295 95.74L150.055 99ZM155.055 93.78C154.015 93.78 153.235 93.24 153.235 92.08C153.235 90.92 153.975 90.46 155.075 90.46H156.395V93.78H155.055ZM42.74 123.9C42.74 127.04 45.24 129.24 48.34 129.24C51.44 129.24 53.94 127.04 53.94 123.9C53.94 120.78 51.44 118.56 48.32 118.56C45.24 118.56 42.74 120.78 42.74 123.9ZM45.32 123.9C45.32 122.02 46.68 120.72 48.34 120.72C50 120.72 51.38 122.02 51.38 123.9C51.38 125.8 50 127.08 48.34 127.08C46.68 127.08 45.32 125.8 45.32 123.9ZM56.0358 133H58.5758V128.68C58.5758 128.16 58.5158 127.8 58.5158 127.8H58.5558C59.2758 128.72 60.3358 129.24 61.4958 129.24C64.1758 129.24 66.1558 127.14 66.1558 123.9C66.1558 120.74 64.3958 118.56 61.6358 118.56C60.2558 118.56 59.0158 119.18 58.3558 120.28H58.3158C58.3158 120.28 58.3558 119.94 58.3558 119.56V118.8H56.0358V133ZM58.4958 123.96C58.4958 121.7 59.7358 120.74 61.0758 120.74C62.5558 120.74 63.5958 122 63.5958 123.94C63.5958 125.96 62.4358 127.1 61.0358 127.1C59.3758 127.1 58.4958 125.54 58.4958 123.96ZM68.3209 129H70.8609V120.96H75.0209V118.8H68.3209V129ZM75.8417 126.18C75.8417 128.04 77.3617 129.24 79.2017 129.24C80.5817 129.24 81.8017 128.48 82.4217 127.4H82.4617C82.4617 127.4 82.4017 127.72 82.4017 128.14V129H84.7617V122.62C84.7617 120.04 83.1817 118.56 80.5217 118.56C79.0017 118.56 77.3617 119.14 76.5217 119.82L77.4617 121.64C78.2817 121.08 79.3017 120.66 80.3017 120.66C81.3617 120.66 82.2217 121.12 82.2217 122.46V122.6H81.7817C79.5217 122.6 75.8417 123.12 75.8417 126.18ZM78.3617 125.96C78.3617 124.52 80.5217 124.34 81.8017 124.34H82.2417V124.62C82.2417 125.86 81.3217 127.3 79.9017 127.3C78.8817 127.3 78.3617 126.64 78.3617 125.96ZM87.3444 129H89.8844V124.88H94.2444V129H96.7844V118.8H94.2444V122.74H89.8844V118.8H87.3444V129ZM99.5123 129H101.972L105.752 123.56C106.012 123.16 106.392 122.62 106.512 122.34H106.552C106.532 122.6 106.492 123.18 106.492 123.56V129H108.912V118.8H106.452L102.672 124.26C102.412 124.66 102.032 125.22 101.912 125.48H101.872C101.892 125.32 101.932 124.72 101.932 124.26V118.8H99.5123V129ZM110.721 127.74C111.661 128.62 113.121 129.24 114.661 129.24C116.881 129.24 118.681 128.16 118.681 126.04C118.681 124.78 117.881 124.04 116.961 123.7V123.66C117.681 123.32 118.361 122.62 118.361 121.36C118.361 119.56 116.781 118.56 114.781 118.56C113.081 118.56 111.861 119.08 111.021 119.7L111.841 121.32C112.741 120.72 113.541 120.48 114.301 120.48C115.321 120.48 115.821 120.94 115.821 121.7C115.821 122.56 115.141 122.88 114.241 122.88H113.201V124.64H114.441C115.661 124.64 116.141 125.12 116.141 125.9C116.141 126.76 115.461 127.28 114.381 127.28C113.321 127.28 112.341 126.64 111.801 126.12L110.721 127.74ZM120.381 129H122.821L123.181 123.48C123.221 122.8 123.161 121.74 123.161 121.74H123.201C123.201 121.74 123.541 122.54 123.821 123.24L125.821 127.72H127.921L129.921 123.22C130.241 122.5 130.521 121.74 130.521 121.74H130.561C130.561 121.74 130.521 122.8 130.541 123.48L130.901 129H133.341L132.421 118.8H129.581L127.381 124.06C127.161 124.64 126.881 125.36 126.881 125.36H126.841C126.841 125.36 126.581 124.62 126.341 124.06L124.181 118.8H121.301L120.381 129ZM134.885 126.18C134.885 128.04 136.405 129.24 138.245 129.24C139.625 129.24 140.845 128.48 141.465 127.4H141.505C141.505 127.4 141.445 127.72 141.445 128.14V129H143.805V122.62C143.805 120.04 142.225 118.56 139.565 118.56C138.045 118.56 136.405 119.14 135.565 119.82L136.505 121.64C137.325 121.08 138.345 120.66 139.345 120.66C140.405 120.66 141.265 121.12 141.265 122.46V122.6H140.825C138.565 122.6 134.885 123.12 134.885 126.18ZM137.405 125.96C137.405 124.52 139.565 124.34 140.845 124.34H141.285V124.62C141.285 125.86 140.365 127.3 138.945 127.3C137.925 127.3 137.405 126.64 137.405 125.96ZM46.2 155.62C47.3 155.62 48.34 155.3 48.96 154.96H49C49 154.96 48.98 155.26 48.98 155.52V159H51.5V148.8H48.98V152.86C48.58 153.14 47.88 153.5 47 153.5C45.66 153.5 45.26 152.76 45.26 151.8V148.8H42.76V152.22C42.76 154.6 44.24 155.62 46.2 155.62ZM53.6189 153.9C53.6189 156.8 55.7389 159.24 59.1189 159.24C60.5789 159.24 62.1789 158.7 63.2189 157.78L62.2189 155.96C61.3989 156.62 60.3389 157.08 59.2989 157.08C57.7589 157.08 56.3989 156.16 56.2389 154.38H63.2589C63.2989 154.06 63.3389 153.72 63.3389 153.4C63.3389 150.7 61.7389 148.56 58.8189 148.56C55.7589 148.56 53.6189 150.76 53.6189 153.9ZM56.2989 152.64C56.5389 151.34 57.4589 150.48 58.7589 150.48C59.8989 150.48 60.7789 151.28 60.7989 152.64H56.2989ZM64.4898 159.1C67.8698 159 69.0498 156.44 69.0498 152V150.86H71.5298V159H74.0698V148.8H66.6298V152C66.6298 155.62 65.7498 156.68 64.4898 156.86V159.1ZM76.1775 153.9C76.1775 157.04 78.6775 159.24 81.7775 159.24C84.8775 159.24 87.3775 157.04 87.3775 153.9C87.3775 150.78 84.8775 148.56 81.7575 148.56C78.6775 148.56 76.1775 150.78 76.1775 153.9ZM78.7575 153.9C78.7575 152.02 80.1175 150.72 81.7775 150.72C83.4375 150.72 84.8175 152.02 84.8175 153.9C84.8175 155.8 83.4375 157.08 81.7775 157.08C80.1175 157.08 78.7575 155.8 78.7575 153.9ZM89.4733 159H94.3133C96.4533 159 98.1133 158.08 98.1133 156.04C98.1133 155.02 97.5333 154.02 96.3133 153.7V153.68C97.1733 153.26 97.6533 152.38 97.6533 151.44C97.6533 149.72 96.2733 148.8 94.2133 148.8H89.4733V159ZM92.0133 153V150.46H93.6333C94.6333 150.46 95.0933 150.92 95.0933 151.66C95.0933 152.44 94.6333 153 93.6733 153H92.0133ZM92.0133 157.32V154.58H93.8733C94.9733 154.58 95.5533 155.14 95.5533 155.96C95.5533 156.74 95.0133 157.32 93.8733 157.32H92.0133ZM99.615 153.9C99.615 156.8 101.735 159.24 105.115 159.24C106.575 159.24 108.175 158.7 109.215 157.78L108.215 155.96C107.395 156.62 106.335 157.08 105.295 157.08C103.755 157.08 102.395 156.16 102.235 154.38H109.255C109.295 154.06 109.335 153.72 109.335 153.4C109.335 150.7 107.735 148.56 104.815 148.56C101.755 148.56 99.615 150.76 99.615 153.9ZM102.295 152.64C102.535 151.34 103.455 150.48 104.755 150.48C105.895 150.48 106.775 151.28 106.795 152.64H102.295ZM111.446 159H113.986V154.86H115.306L117.986 159H120.926L117.286 153.7V153.66L120.526 148.8H117.706L115.226 152.7H113.986V148.8H111.446V159ZM121.545 156.18C121.545 158.04 123.065 159.24 124.905 159.24C126.285 159.24 127.505 158.48 128.125 157.4H128.165C128.165 157.4 128.105 157.72 128.105 158.14V159H130.465V152.62C130.465 150.04 128.885 148.56 126.225 148.56C124.705 148.56 123.065 149.14 122.225 149.82L123.165 151.64C123.985 151.08 125.005 150.66 126.005 150.66C127.065 150.66 127.925 151.12 127.925 152.46V152.6H127.485C125.225 152.6 121.545 153.12 121.545 156.18ZM124.065 155.96C124.065 154.52 126.225 154.34 127.505 154.34H127.945V154.62C127.945 155.86 127.025 157.3 125.605 157.3C124.585 157.3 124.065 156.64 124.065 155.96ZM134.236 154.9H136.676V154.12C136.676 151.96 140.176 151.58 140.176 148.28C140.176 145.92 138.056 144.52 135.796 144.52C134.176 144.52 132.836 145.2 132.036 145.96L133.456 147.7C134.036 147.22 134.796 146.86 135.576 146.86C136.676 146.86 137.516 147.58 137.516 148.52C137.516 150.64 134.236 151.04 134.236 153.94V154.9ZM134.216 159H136.676V156.62H134.216V159Z" fill="#424754"/>
</svg>
