<svg width="694" height="193" viewBox="0 0 694 193" fill="none" xmlns="http://www.w3.org/2000/svg">
<path d="M0.046 23.564C0.046 34.476 8.23 42.164 20.196 42.164V47.744H28.194V42.164C40.222 42.164 48.344 34.476 48.344 23.564C48.344 12.838 40.16 5.336 28.194 5.336V0.499996H20.196V5.336C8.23 5.336 0.046 12.838 0.046 23.564ZM28.194 35.468V12.032C35.324 12.032 40.222 16.682 40.222 23.564C40.222 30.632 35.324 35.468 28.194 35.468ZM8.23 23.564C8.23 16.682 13.128 12.032 20.196 12.032V35.468C13.128 35.468 8.23 30.632 8.23 23.564ZM54.589 47H62.215L73.933 30.136C74.739 28.896 75.917 27.222 76.289 26.354H76.413C76.351 27.16 76.227 28.958 76.227 30.136V47H83.729V15.38H76.103L64.385 32.306C63.579 33.546 62.401 35.282 62.029 36.088H61.905C61.967 35.592 62.091 33.732 62.091 32.306V15.38H54.589V47ZM89.3367 43.094C92.2507 45.822 96.7767 47.744 101.551 47.744C108.433 47.744 114.013 44.396 114.013 37.824C114.013 33.918 111.533 31.624 108.681 30.57V30.446C110.913 29.392 113.021 27.222 113.021 23.316C113.021 17.736 108.123 14.636 101.923 14.636C96.6527 14.636 92.8707 16.248 90.2667 18.17L92.8087 23.192C95.5987 21.332 98.0787 20.588 100.435 20.588C103.597 20.588 105.147 22.014 105.147 24.37C105.147 27.036 103.039 28.028 100.249 28.028H97.0247V33.484H100.869C104.651 33.484 106.139 34.972 106.139 37.39C106.139 40.056 104.031 41.668 100.683 41.668C97.3967 41.668 94.3587 39.684 92.6847 38.072L89.3367 43.094ZM120.585 47H128.211L139.929 30.136C140.735 28.896 141.913 27.222 142.285 26.354H142.409C142.347 27.16 142.223 28.958 142.223 30.136V47H149.725V15.38H142.099L130.381 32.306C129.575 33.546 128.397 35.282 128.025 36.088H127.901C127.963 35.592 128.087 33.732 128.087 32.306V15.38H120.585V47ZM158.185 47H166.059V34.166H170.151L178.459 47H187.573L176.289 30.57V30.446L186.333 15.38H177.591L169.903 27.47H166.059V15.38H158.185V47ZM189.491 38.258C189.491 44.024 194.203 47.744 199.907 47.744C204.185 47.744 207.967 45.388 209.889 42.04H210.013C210.013 42.04 209.827 43.032 209.827 44.334V47H217.143V27.222C217.143 19.224 212.245 14.636 203.999 14.636C199.287 14.636 194.203 16.434 191.599 18.542L194.513 24.184C197.055 22.448 200.217 21.146 203.317 21.146C206.603 21.146 209.269 22.572 209.269 26.726V27.16H207.905C200.899 27.16 189.491 28.772 189.491 38.258ZM197.303 37.576C197.303 33.112 203.999 32.554 207.967 32.554H209.331V33.422C209.331 37.266 206.479 41.73 202.077 41.73C198.915 41.73 197.303 39.684 197.303 37.576ZM240.526 32.74H259.126V25.858H240.526V32.74ZM281.795 53.51L279.687 58.098C279.687 58.098 282.229 60.02 285.701 60.02C290.103 60.02 294.009 57.54 295.869 52.642L310.625 15.628H304.115L296.489 36.212C295.931 37.824 295.435 39.932 295.435 39.932H295.311C295.311 39.932 294.753 37.7 294.133 36.15L286.259 15.628H279.501L292.645 46.628L291.095 50.224C289.917 53.076 287.871 54.874 285.391 54.874C283.531 54.874 281.795 53.51 281.795 53.51ZM316.525 47H329.917C336.737 47 341.449 43.9 341.449 38.072C341.449 34.6 339.403 31.562 335.497 30.632V30.57C338.349 29.33 339.961 26.726 339.961 23.688C339.961 18.418 335.807 15.628 329.483 15.628H316.525V47ZM322.539 28.896V19.782H328.243C332.025 19.782 333.823 21.27 333.823 24.122C333.823 27.036 332.025 28.896 328.429 28.896H322.539ZM322.539 42.784V32.926H328.925C333.079 32.926 335.373 34.786 335.373 37.886C335.373 40.8 333.327 42.784 328.987 42.784H322.539ZM345.326 47.31C354.564 46.814 358.16 39.498 358.16 25.3V20.588H367.398V47H373.412V15.628H352.394V25.3C352.394 36.646 349.914 41.234 345.326 41.916V47.31ZM380.657 31.314C380.657 40.614 387.477 47.744 397.335 47.744C401.675 47.744 406.449 46.07 409.487 43.28L406.945 38.878C404.465 41.11 401.055 42.536 397.707 42.536C392.065 42.536 387.229 38.878 386.919 32.12H409.735C409.859 31.252 409.983 30.384 409.983 29.578C409.983 21.518 405.271 14.884 396.405 14.884C387.477 14.884 380.657 21.332 380.657 31.314ZM387.105 27.78C387.973 22.572 391.631 19.534 396.281 19.534C400.373 19.534 403.721 22.386 403.907 27.78H387.105ZM417.214 47H423.228V33.422H427.754L437.116 47H444.246L432.528 30.694V30.57L443.006 15.628H436.186L427.63 28.276H423.228V15.628H417.214V47ZM446.7 38.444C446.7 44.334 451.722 47.744 457.178 47.744C461.828 47.744 465.672 44.954 467.47 41.358H467.594C467.594 41.358 467.408 42.412 467.408 43.838V47H473.05V27.16C473.05 19.224 468.524 14.884 460.65 14.884C456.248 14.884 451.474 16.496 448.932 18.604L451.35 23.006C453.892 21.208 457.054 19.968 460.154 19.968C464.06 19.968 467.036 21.704 467.036 26.85V27.47H465.424C458.914 27.47 446.7 28.586 446.7 38.444ZM452.714 37.948C452.714 32.182 461.022 31.81 465.486 31.81H467.036V32.988C467.036 37.638 463.874 42.97 458.604 42.97C454.698 42.97 452.714 40.428 452.714 37.948ZM489.079 47H495.031V20.774H506.005V15.628H478.167V20.774H489.079V47ZM508.834 31.314C508.834 40.614 515.654 47.744 525.512 47.744C529.852 47.744 534.626 46.07 537.664 43.28L535.122 38.878C532.642 41.11 529.232 42.536 525.884 42.536C520.242 42.536 515.406 38.878 515.096 32.12H537.912C538.036 31.252 538.16 30.384 538.16 29.578C538.16 21.518 533.448 14.884 524.582 14.884C515.654 14.884 508.834 21.332 508.834 31.314ZM515.282 27.78C516.15 22.572 519.808 19.534 524.458 19.534C528.55 19.534 531.898 22.386 532.084 27.78H515.282ZM541.982 47.31C551.22 46.814 554.816 39.498 554.816 25.3V20.588H564.054V47H570.068V15.628H549.05V25.3C549.05 36.646 546.57 41.234 541.982 41.916V47.31ZM579.359 47H591.573C599.509 47 603.105 42.97 603.105 37.08C603.105 29.95 598.207 26.974 591.697 26.974H585.373V15.628H579.359V47ZM585.373 42.66V31.314H590.767C595.107 31.314 596.967 33.67 596.967 37.018C596.967 40.304 595.107 42.66 590.767 42.66H585.373ZM609.572 47H615.586V33.546H631.458V47H637.472V15.628H631.458V28.4H615.586V15.628H609.572V47ZM644.702 31.252C644.702 40.8 652.266 47.744 661.628 47.744C670.928 47.744 678.492 40.8 678.492 31.252C678.492 21.766 670.928 14.884 661.566 14.884C652.266 14.884 644.702 21.766 644.702 31.252ZM650.84 31.252C650.84 24.742 655.676 20.092 661.628 20.092C667.518 20.092 672.416 24.742 672.416 31.252C672.416 37.824 667.518 42.536 661.628 42.536C655.676 42.536 650.84 37.824 650.84 31.252ZM683.26 53.262H688.034L693.428 40.49H687.104L683.26 53.262ZM2.65 115H8.664V88.774H24.04V115H30.054V83.628H2.65V115ZM37.2954 99.252C37.2954 108.8 44.8594 115.744 54.2214 115.744C63.5214 115.744 71.0854 108.8 71.0854 99.252C71.0854 89.766 63.5214 82.884 54.1594 82.884C44.8594 82.884 37.2954 89.766 37.2954 99.252ZM43.4334 99.252C43.4334 92.742 48.2694 88.092 54.2214 88.092C60.1114 88.092 65.0094 92.742 65.0094 99.252C65.0094 105.824 60.1114 110.536 54.2214 110.536C48.2694 110.536 43.4334 105.824 43.4334 99.252ZM74.569 111.156C77.173 113.636 81.265 115.744 86.101 115.744C92.549 115.744 98.129 112.458 98.129 106.01C98.129 101.98 95.649 99.624 92.487 98.632V98.508C94.967 97.454 97.075 95.284 97.075 91.378C97.075 85.798 92.425 82.884 86.473 82.884C81.513 82.884 77.979 84.496 75.561 86.294L77.793 90.324C80.211 88.526 82.691 87.596 85.419 87.596C88.891 87.596 90.999 89.208 90.999 92.122C90.999 95.284 88.581 96.648 85.047 96.648H81.761V100.988H85.605C90.007 100.988 92.053 102.724 92.053 105.762C92.053 109.172 89.139 110.908 85.543 110.908C81.761 110.908 78.785 108.676 77.359 107.188L74.569 111.156ZM105.398 115H111.412V101.546H127.284V115H133.298V83.628H127.284V96.4H111.412V83.628H105.398V115ZM139.97 106.444C139.97 112.334 144.992 115.744 150.448 115.744C155.098 115.744 158.942 112.954 160.74 109.358H160.864C160.864 109.358 160.678 110.412 160.678 111.838V115H166.32V95.16C166.32 87.224 161.794 82.884 153.92 82.884C149.518 82.884 144.744 84.496 142.202 86.604L144.62 91.006C147.162 89.208 150.324 87.968 153.424 87.968C157.33 87.968 160.306 89.704 160.306 94.85V95.47H158.694C152.184 95.47 139.97 96.586 139.97 106.444ZM145.984 105.948C145.984 100.182 154.292 99.81 158.756 99.81H160.306V100.988C160.306 105.638 157.144 110.97 151.874 110.97C147.968 110.97 145.984 108.428 145.984 105.948ZM175.209 115H188.601C195.421 115 200.133 111.9 200.133 106.072C200.133 102.6 198.087 99.562 194.181 98.632V98.57C197.033 97.33 198.645 94.726 198.645 91.688C198.645 86.418 194.491 83.628 188.167 83.628H175.209V115ZM181.223 96.896V87.782H186.927C190.709 87.782 192.507 89.27 192.507 92.122C192.507 95.036 190.709 96.896 187.113 96.896H181.223ZM181.223 110.784V100.926H187.609C191.763 100.926 194.057 102.786 194.057 105.886C194.057 108.8 192.011 110.784 187.671 110.784H181.223ZM204.816 106.444C204.816 112.334 209.838 115.744 215.294 115.744C219.944 115.744 223.788 112.954 225.586 109.358H225.71C225.71 109.358 225.524 110.412 225.524 111.838V115H231.166V95.16C231.166 87.224 226.64 82.884 218.766 82.884C214.364 82.884 209.59 84.496 207.048 86.604L209.466 91.006C212.008 89.208 215.17 87.968 218.27 87.968C222.176 87.968 225.152 89.704 225.152 94.85V95.47H223.54C217.03 95.47 204.816 96.586 204.816 106.444ZM210.83 105.948C210.83 100.182 219.138 99.81 223.602 99.81H225.152V100.988C225.152 105.638 221.99 110.97 216.72 110.97C212.814 110.97 210.83 108.428 210.83 105.948ZM247.194 115H253.146V88.774H264.12V83.628H236.282V88.774H247.194V115ZM266.95 99.314C266.95 108.614 273.77 115.744 283.628 115.744C287.968 115.744 292.742 114.07 295.78 111.28L293.238 106.878C290.758 109.11 287.348 110.536 284 110.536C278.358 110.536 273.522 106.878 273.212 100.12H296.028C296.152 99.252 296.276 98.384 296.276 97.578C296.276 89.518 291.564 82.884 282.698 82.884C273.77 82.884 266.95 89.332 266.95 99.314ZM273.398 95.78C274.266 90.572 277.924 87.534 282.574 87.534C286.666 87.534 290.014 90.386 290.2 95.78H273.398ZM300.097 115.31C309.335 114.814 312.931 107.498 312.931 93.3V88.588H322.169V115H328.183V83.628H307.165V93.3C307.165 104.646 304.685 109.234 300.097 109.916V115.31ZM337.474 115H349.688C357.624 115 361.22 110.97 361.22 105.08C361.22 97.95 356.322 94.974 349.812 94.974H343.488V83.628H337.474V115ZM343.488 110.66V99.314H348.882C353.222 99.314 355.082 101.67 355.082 105.018C355.082 108.304 353.222 110.66 348.882 110.66H343.488ZM367.687 115H373.701V101.546H389.573V115H395.587V83.628H389.573V96.4H373.701V83.628H367.687V115ZM402.817 99.252C402.817 108.8 410.381 115.744 419.743 115.744C429.043 115.744 436.607 108.8 436.607 99.252C436.607 89.766 429.043 82.884 419.681 82.884C410.381 82.884 402.817 89.766 402.817 99.252ZM408.955 99.252C408.955 92.742 413.791 88.092 419.743 88.092C425.633 88.092 430.531 92.742 430.531 99.252C430.531 105.824 425.633 110.536 419.743 110.536C413.791 110.536 408.955 105.824 408.955 99.252ZM459.355 115H465.121L478.699 96.276C479.691 94.788 481.241 92.68 481.427 92.122H481.551C481.551 92.618 481.365 94.788 481.365 96.276V115H487.193V83.628H481.365L467.849 102.352C466.795 103.84 465.307 106.01 465.059 106.568H464.935C464.997 106.258 465.121 104.026 465.121 102.352V83.628H459.355V115ZM508.5 115.31C517.738 114.814 521.334 107.498 521.334 93.3V88.588H530.572V115H536.586V83.628H515.568V93.3C515.568 104.646 513.088 109.234 508.5 109.916V115.31ZM543.831 99.314C543.831 108.614 550.651 115.744 560.509 115.744C564.849 115.744 569.623 114.07 572.661 111.28L570.119 106.878C567.639 109.11 564.229 110.536 560.881 110.536C555.239 110.536 550.403 106.878 550.093 100.12H572.909C573.033 99.252 573.157 98.384 573.157 97.578C573.157 89.518 568.445 82.884 559.579 82.884C550.651 82.884 543.831 89.332 543.831 99.314ZM550.279 95.78C551.147 90.572 554.805 87.534 559.455 87.534C563.547 87.534 566.895 90.386 567.081 95.78H550.279ZM580.388 115H586.402V88.774H600.042V83.628H580.388V115ZM606 115H612.014V101.422H616.54L625.902 115H633.032L621.314 98.694V98.57L631.792 83.628H624.972L616.416 96.276H612.014V83.628H606V115ZM635.014 99.252C635.014 108.8 642.578 115.744 651.94 115.744C661.24 115.744 668.804 108.8 668.804 99.252C668.804 89.766 661.24 82.884 651.878 82.884C642.578 82.884 635.014 89.766 635.014 99.252ZM641.152 99.252C641.152 92.742 645.988 88.092 651.94 88.092C657.83 88.092 662.728 92.742 662.728 99.252C662.728 105.824 657.83 110.536 651.94 110.536C645.988 110.536 641.152 105.824 641.152 99.252ZM2.65 183H16.042C22.862 183 27.574 179.9 27.574 174.072C27.574 170.6 25.528 167.562 21.622 166.632V166.57C24.474 165.33 26.086 162.726 26.086 159.688C26.086 154.418 21.932 151.628 15.608 151.628H2.65V183ZM8.664 164.896V155.782H14.368C18.15 155.782 19.948 157.27 19.948 160.122C19.948 163.036 18.15 164.896 14.554 164.896H8.664ZM8.664 178.784V168.926H15.05C19.204 168.926 21.498 170.786 21.498 173.886C21.498 176.8 19.452 178.784 15.112 178.784H8.664ZM33.5589 183H39.3869L40.7509 164.338C40.8749 162.478 40.6889 158.944 40.6889 158.944H40.8129C40.8129 158.944 41.8049 161.3 42.7969 163.594L50.2369 179.218H55.3829L62.8229 163.532C64.0009 161.114 64.8069 158.944 64.8069 158.944H64.9309C64.9309 158.944 64.8069 162.478 64.8689 164.338L66.2329 183H72.0609L69.3329 151.628H62.7609L54.5769 169.36C53.7709 171.282 52.8409 173.576 52.8409 173.576H52.7169C52.7169 173.576 51.8489 171.22 50.9809 169.36L42.9829 151.628H36.2869L33.5589 183ZM78.104 167.314C78.104 176.614 84.924 183.744 94.782 183.744C99.122 183.744 103.896 182.07 106.934 179.28L104.392 174.878C101.912 177.11 98.502 178.536 95.154 178.536C89.512 178.536 84.676 174.878 84.366 168.12H107.182C107.306 167.252 107.43 166.384 107.43 165.578C107.43 157.518 102.718 150.884 93.852 150.884C84.924 150.884 78.104 157.332 78.104 167.314ZM84.552 163.78C85.42 158.572 89.078 155.534 93.728 155.534C97.82 155.534 101.168 158.386 101.354 163.78H84.552ZM112.616 167.314C112.616 176.738 119.498 183.744 129.418 183.744C134.316 183.744 139.09 181.76 141.942 178.722L139.524 174.32C137.106 176.862 133.324 178.536 129.852 178.536C123.342 178.536 118.754 173.638 118.754 167.252C118.754 160.866 123.342 156.092 129.666 156.092C132.952 156.092 136.238 157.58 138.346 159.688L141.198 155.472C138.222 152.31 133.572 150.884 129.418 150.884C119.56 150.884 112.616 158.014 112.616 167.314ZM156.011 183H161.963V156.774H172.937V151.628H145.099V156.774H156.011V183ZM175.766 167.314C175.766 176.614 182.586 183.744 192.444 183.744C196.784 183.744 201.558 182.07 204.596 179.28L202.054 174.878C199.574 177.11 196.164 178.536 192.816 178.536C187.174 178.536 182.338 174.878 182.028 168.12H204.844C204.968 167.252 205.092 166.384 205.092 165.578C205.092 157.518 200.38 150.884 191.514 150.884C182.586 150.884 175.766 157.332 175.766 167.314ZM182.214 163.78C183.082 158.572 186.74 155.534 191.39 155.534C195.482 155.534 198.83 158.386 199.016 163.78H182.214ZM225.778 167.314C225.778 176.738 232.66 183.744 242.58 183.744C247.478 183.744 252.252 181.76 255.104 178.722L252.686 174.32C250.268 176.862 246.486 178.536 243.014 178.536C236.504 178.536 231.916 173.638 231.916 167.252C231.916 160.866 236.504 156.092 242.828 156.092C246.114 156.092 249.4 157.58 251.508 159.688L254.36 155.472C251.384 152.31 246.734 150.884 242.58 150.884C232.722 150.884 225.778 158.014 225.778 167.314Z" fill="#222224"/>
<path d="M278.225 183H284.363V166.818H294.283C302.281 166.818 307.985 161.238 307.985 152.93C307.985 144.622 302.281 139.228 294.283 139.228H278.225V183ZM284.363 161.486V144.56H293.353C298.499 144.56 301.785 147.722 301.785 152.93C301.785 158.2 298.499 161.486 293.291 161.486H284.363ZM315.825 183H321.963V165.578H331.325L340.563 183H347.507L338.207 166.012C337.463 164.648 336.967 164.028 336.967 164.028V163.904C341.741 162.292 344.779 157.456 344.779 151.876C344.779 146.296 342.051 142.266 337.835 140.406C336.037 139.6 333.929 139.228 329.713 139.228H315.825V183ZM321.963 160.246V144.56H329.217C332.007 144.56 333.371 144.808 334.487 145.304C337.215 146.482 338.579 149.024 338.579 152.186C338.579 157.022 335.541 160.246 330.767 160.246H321.963ZM351.726 160.804C351.726 173.7 361.212 183.744 374.232 183.744C387.252 183.744 396.676 173.7 396.676 160.804C396.676 148.218 387.252 138.484 374.232 138.484C361.212 138.484 351.726 148.218 351.726 160.804ZM358.05 160.804C358.05 151.318 364.87 144.064 374.232 144.064C383.532 144.064 390.352 151.318 390.352 160.804C390.352 170.6 383.532 178.102 374.232 178.102C364.87 178.102 358.05 170.6 358.05 160.804ZM402.643 192.734H420.685V188.642H407.479C407.913 182.814 420.251 182.194 420.251 173.142C420.251 168.244 416.407 165.02 411.323 165.02C407.851 165.02 404.503 167.004 402.829 169.484L405.867 172.274C407.169 170.724 408.967 169.298 411.137 169.298C413.679 169.298 415.601 171.034 415.601 173.328C415.601 179.528 402.457 180.024 402.457 190.502C402.457 191.184 402.519 191.99 402.643 192.734Z" fill="#F04B5D"/>
</svg>
