<svg width="250" height="46" viewBox="0 0 250 46" fill="none" xmlns="http://www.w3.org/2000/svg">
<path d="M0.9 7.574C0.9 11.3 3.474 14.216 7.416 14.216C9.666 14.216 11.25 13.28 12.33 12.2L11.376 10.922C10.35 11.948 8.892 12.578 7.47 12.578C4.518 12.578 2.736 10.256 2.736 7.556C2.736 4.874 4.482 2.696 7.434 2.696C8.748 2.696 10.17 3.254 11.106 4.082L12.006 2.75C10.782 1.58 9 1.076 7.362 1.076C3.582 1.076 0.9 3.884 0.9 7.574ZM13.4826 9.428C13.4826 12.2 15.6786 14.216 18.3966 14.216C21.0966 14.216 23.2926 12.2 23.2926 9.428C23.2926 6.674 21.0966 4.676 18.3786 4.676C15.6786 4.676 13.4826 6.674 13.4826 9.428ZM15.2646 9.428C15.2646 7.538 16.6686 6.188 18.3966 6.188C20.1066 6.188 21.5286 7.538 21.5286 9.428C21.5286 11.336 20.1066 12.704 18.3966 12.704C16.6686 12.704 15.2646 11.336 15.2646 9.428ZM25.0009 8.762C25.0009 11.912 26.3869 14.216 29.4649 14.216C32.0389 14.216 33.7669 12.416 33.7669 9.896C33.7669 7.322 32.1829 5.702 29.8969 5.702C28.6909 5.702 27.4849 6.098 26.6749 7.322H26.6389C26.7649 5.576 27.6289 4.514 29.4469 3.686L32.9389 2.228L32.3629 0.788L29.1049 2.192C25.9369 3.524 25.0009 5.504 25.0009 8.762ZM26.8189 9.896C26.8189 8.294 27.9169 7.088 29.4649 7.088C30.8329 7.088 32.0029 8.15 32.0029 9.932C32.0029 11.696 30.8329 12.74 29.3929 12.74C27.9889 12.74 26.8189 11.696 26.8189 9.896ZM35.3498 9.446C35.3498 12.182 37.3478 14.216 40.2278 14.216C41.6498 14.216 43.0358 13.64 43.8638 12.758L43.1618 11.48C42.4598 12.218 41.3618 12.704 40.3538 12.704C38.4638 12.704 37.1318 11.282 37.1318 9.428C37.1318 7.574 38.4638 6.188 40.2998 6.188C41.2538 6.188 42.2078 6.62 42.8198 7.232L43.6478 6.008C42.7838 5.09 41.4338 4.676 40.2278 4.676C37.3658 4.676 35.3498 6.746 35.3498 9.446ZM47.9483 14H49.6763V6.386H52.8623V4.892H44.7803V6.386H47.9483V14ZM54.5766 14H58.4646C60.4446 14 61.8126 13.1 61.8126 11.408C61.8126 10.4 61.2186 9.518 60.0846 9.248V9.23C60.9126 8.87 61.3806 8.114 61.3806 7.232C61.3806 5.702 60.1746 4.892 58.3386 4.892H54.5766V14ZM56.3226 8.744V6.098H57.9786C59.0766 6.098 59.5986 6.53 59.5986 7.358C59.5986 8.204 59.0766 8.744 58.0326 8.744H56.3226ZM56.3226 12.776V9.914H58.1766C59.3826 9.914 60.0486 10.454 60.0486 11.354C60.0486 12.2 59.4546 12.776 58.1946 12.776H56.3226ZM63.3341 9.446C63.3341 12.146 65.3141 14.216 68.1761 14.216C69.4361 14.216 70.8221 13.73 71.7041 12.92L70.9661 11.642C70.2461 12.29 69.2561 12.704 68.2841 12.704C66.6461 12.704 65.2421 11.642 65.1521 9.68H71.7761C71.8121 9.428 71.8481 9.176 71.8481 8.942C71.8481 6.602 70.4801 4.676 67.9061 4.676C65.3141 4.676 63.3341 6.548 63.3341 9.446ZM65.2061 8.42C65.4581 6.908 66.5201 6.026 67.8701 6.026C69.0581 6.026 70.0301 6.854 70.0841 8.42H65.2061ZM73.9477 14H75.6937V10.094H80.3017V14H82.0477V4.892H80.3017V8.6H75.6937V4.892H73.9477V14ZM84.7406 14H86.4866V10.094H91.0946V14H92.8406V4.892H91.0946V8.6H86.4866V4.892H84.7406V14ZM94.7776 11.516C94.7776 13.226 96.2356 14.216 97.8196 14.216C99.1696 14.216 100.286 13.406 100.808 12.362H100.844C100.844 12.362 100.79 12.668 100.79 13.082V14H102.428V8.24C102.428 5.936 101.114 4.676 98.8276 4.676C97.5496 4.676 96.1636 5.144 95.4256 5.756L96.1276 7.034C96.8656 6.512 97.7836 6.152 98.6836 6.152C99.8176 6.152 100.682 6.656 100.682 8.15V8.33H100.214C98.3236 8.33 94.7776 8.654 94.7776 11.516ZM96.5236 11.372C96.5236 9.698 98.9356 9.59 100.232 9.59H100.682V9.932C100.682 11.282 99.7636 12.83 98.2336 12.83C97.0996 12.83 96.5236 12.092 96.5236 11.372ZM104.09 14H106.016L108.248 10.706H109.778V14H111.524V4.892H107.888C105.962 4.892 104.63 5.882 104.63 7.754C104.63 9.14 105.566 10.112 106.61 10.4V10.418C106.61 10.418 106.394 10.652 106.196 10.976L104.09 14ZM108.266 9.428C107.204 9.428 106.394 8.87 106.394 7.736C106.394 6.566 107.15 6.098 108.32 6.098H109.778V9.428H108.266ZM118.341 14H120.033L120.429 8.582C120.465 8.042 120.411 7.016 120.411 7.016H120.447C120.447 7.016 120.735 7.7 121.023 8.366L123.183 12.902H124.677L126.837 8.348C127.179 7.646 127.413 7.016 127.413 7.016H127.449C127.449 7.016 127.413 8.042 127.431 8.582L127.827 14H129.519L128.727 4.892H126.819L124.443 10.04C124.209 10.598 123.939 11.264 123.939 11.264H123.903C123.903 11.264 123.651 10.58 123.399 10.04L121.077 4.892H119.133L118.341 14ZM131.274 9.446C131.274 12.146 133.254 14.216 136.116 14.216C137.376 14.216 138.762 13.73 139.644 12.92L138.906 11.642C138.186 12.29 137.196 12.704 136.224 12.704C134.586 12.704 133.182 11.642 133.092 9.68H139.716C139.752 9.428 139.788 9.176 139.788 8.942C139.788 6.602 138.42 4.676 135.846 4.676C133.254 4.676 131.274 6.548 131.274 9.446ZM133.146 8.42C133.398 6.908 134.46 6.026 135.81 6.026C136.998 6.026 137.97 6.854 138.024 8.42H133.146ZM143.978 14H145.706V6.386H148.892V4.892H140.81V6.386H143.978V14ZM149.713 9.428C149.713 12.2 151.909 14.216 154.627 14.216C157.327 14.216 159.523 12.2 159.523 9.428C159.523 6.674 157.327 4.676 154.609 4.676C151.909 4.676 149.713 6.674 149.713 9.428ZM151.495 9.428C151.495 7.538 152.899 6.188 154.627 6.188C156.337 6.188 157.759 7.538 157.759 9.428C157.759 11.336 156.337 12.704 154.627 12.704C152.899 12.704 151.495 11.336 151.495 9.428ZM163.181 12.56C164.333 10.76 164.477 8.168 164.477 6.8V6.314H167.213V12.56H163.181ZM160.265 12.56V16.16H161.903V14H168.653V16.16H170.255V12.56H168.959V4.892H162.803V6.566C162.803 7.97 162.659 10.814 161.381 12.56H160.265ZM172.086 14H173.76L177.702 8.564C177.99 8.132 178.44 7.52 178.494 7.358H178.53C178.53 7.502 178.476 8.132 178.476 8.564V14H180.168V4.892H178.476L174.552 10.328C174.246 10.76 173.814 11.39 173.742 11.552H173.706C173.724 11.462 173.76 10.814 173.76 10.328V4.892H172.086V14ZM182.844 14H184.59V10.058H185.904L188.622 14H190.692L187.29 9.266V9.23L190.332 4.892H188.352L185.868 8.564H184.59V4.892H182.844V14ZM191.405 11.516C191.405 13.226 192.863 14.216 194.447 14.216C195.797 14.216 196.913 13.406 197.435 12.362H197.471C197.471 12.362 197.417 12.668 197.417 13.082V14H199.055V8.24C199.055 5.936 197.741 4.676 195.455 4.676C194.177 4.676 192.791 5.144 192.053 5.756L192.755 7.034C193.493 6.512 194.411 6.152 195.311 6.152C196.445 6.152 197.309 6.656 197.309 8.15V8.33H196.841C194.951 8.33 191.405 8.654 191.405 11.516ZM193.151 11.372C193.151 9.698 195.563 9.59 196.859 9.59H197.309V9.932C197.309 11.282 196.391 12.83 194.861 12.83C193.727 12.83 193.151 12.092 193.151 11.372ZM1.35 42H3.024L6.966 36.564C7.254 36.132 7.704 35.52 7.758 35.358H7.794C7.794 35.502 7.74 36.132 7.74 36.564V42H9.432V32.892H7.74L3.816 38.328C3.51 38.76 3.078 39.39 3.006 39.552H2.97C2.988 39.462 3.024 38.814 3.024 38.328V32.892H1.35V42ZM16.6078 45.6H18.3538V41.46C18.3538 40.992 18.2818 40.668 18.2818 40.668H18.3178C18.9478 41.64 19.9918 42.216 21.1438 42.216C23.5378 42.216 25.2658 40.344 25.2658 37.446C25.2658 34.62 23.7358 32.676 21.2698 32.676C19.9378 32.676 18.7858 33.288 18.2098 34.386H18.1738C18.1738 34.386 18.2278 34.08 18.2278 33.702V32.892H16.6078V45.6ZM18.2998 37.482C18.2998 35.178 19.5598 34.206 20.9278 34.206C22.4398 34.206 23.5018 35.484 23.5018 37.464C23.5018 39.534 22.3138 40.704 20.8738 40.704C19.1998 40.704 18.2998 39.102 18.2998 37.482ZM26.8244 37.446C26.8244 40.146 28.8044 42.216 31.6664 42.216C32.9264 42.216 34.3124 41.73 35.1944 40.92L34.4564 39.642C33.7364 40.29 32.7464 40.704 31.7744 40.704C30.1364 40.704 28.7324 39.642 28.6424 37.68H35.2664C35.3024 37.428 35.3384 37.176 35.3384 36.942C35.3384 34.602 33.9704 32.676 31.3964 32.676C28.8044 32.676 26.8244 34.548 26.8244 37.446ZM28.6964 36.42C28.9484 34.908 30.0104 34.026 31.3604 34.026C32.5484 34.026 33.5204 34.854 33.5744 36.42H28.6964ZM36.6819 39.516C36.6819 41.226 38.1399 42.216 39.7239 42.216C41.0739 42.216 42.1899 41.406 42.7119 40.362H42.7479C42.7479 40.362 42.6939 40.668 42.6939 41.082V42H44.3319V36.24C44.3319 33.936 43.0179 32.676 40.7319 32.676C39.4539 32.676 38.0679 33.144 37.3299 33.756L38.0319 35.034C38.7699 34.512 39.6879 34.152 40.5879 34.152C41.7219 34.152 42.5859 34.656 42.5859 36.15V36.33H42.1179C40.2279 36.33 36.6819 36.654 36.6819 39.516ZM38.4279 39.372C38.4279 37.698 40.8399 37.59 42.1359 37.59H42.5859V37.932C42.5859 39.282 41.6679 40.83 40.1379 40.83C39.0039 40.83 38.4279 40.092 38.4279 39.372ZM45.9225 42.09C48.6045 41.946 49.6485 39.822 49.6485 35.7V34.332H52.3305V42H54.0765V32.892H47.9745V35.7C47.9745 38.994 47.2545 40.326 45.9225 40.524V42.09ZM56.7738 42H60.3198C62.6238 42 63.6678 40.83 63.6678 39.12C63.6678 37.05 62.2458 36.186 60.3558 36.186H58.5198V32.892H56.7738V42ZM58.5198 40.74V37.446H60.0858C61.3458 37.446 61.8858 38.13 61.8858 39.102C61.8858 40.056 61.3458 40.74 60.0858 40.74H58.5198ZM65.5453 42H67.2913V38.094H71.8993V42H73.6453V32.892H71.8993V36.6H67.2913V32.892H65.5453V42ZM84.5823 42H86.3283V32.892H84.5823V42ZM76.3383 42H79.8483C82.1343 42 83.1783 40.83 83.1783 39.12C83.1783 37.05 81.7563 36.186 79.8663 36.186H78.0843V32.892H76.3383V42ZM78.0843 40.74V37.446H79.5963C80.8563 37.446 81.4143 38.13 81.4143 39.102C81.4143 40.056 80.8743 40.74 79.6143 40.74H78.0843ZM88.4357 37.446C88.4357 40.146 90.4157 42.216 93.2777 42.216C94.5377 42.216 95.9237 41.73 96.8057 40.92L96.0677 39.642C95.3477 40.29 94.3577 40.704 93.3857 40.704C91.7477 40.704 90.3437 39.642 90.2537 37.68H96.8777C96.9137 37.428 96.9497 37.176 96.9497 36.942C96.9497 34.602 95.5817 32.676 93.0077 32.676C90.4157 32.676 88.4357 34.548 88.4357 37.446ZM90.3077 36.42C90.5597 34.908 91.6217 34.026 92.9717 34.026C94.1597 34.026 95.1317 34.854 95.1857 36.42H90.3077ZM102.667 40.884C103.423 41.604 104.611 42.216 106.015 42.216C107.887 42.216 109.507 41.262 109.507 39.39C109.507 38.22 108.787 37.536 107.869 37.248V37.212C108.589 36.906 109.201 36.276 109.201 35.142C109.201 33.522 107.851 32.676 106.123 32.676C104.683 32.676 103.657 33.144 102.955 33.666L103.603 34.836C104.305 34.314 105.025 34.044 105.817 34.044C106.825 34.044 107.437 34.512 107.437 35.358C107.437 36.276 106.735 36.672 105.709 36.672H104.755V37.932H105.871C107.149 37.932 107.743 38.436 107.743 39.318C107.743 40.308 106.897 40.812 105.853 40.812C104.755 40.812 103.891 40.164 103.477 39.732L102.667 40.884ZM110.862 39.516C110.862 41.226 112.32 42.216 113.904 42.216C115.254 42.216 116.37 41.406 116.892 40.362H116.928C116.928 40.362 116.874 40.668 116.874 41.082V42H118.512V36.24C118.512 33.936 117.198 32.676 114.912 32.676C113.634 32.676 112.248 33.144 111.51 33.756L112.212 35.034C112.95 34.512 113.868 34.152 114.768 34.152C115.902 34.152 116.766 34.656 116.766 36.15V36.33H116.298C114.408 36.33 110.862 36.654 110.862 39.516ZM112.608 39.372C112.608 37.698 115.02 37.59 116.316 37.59H116.766V37.932C116.766 39.282 115.848 40.83 114.318 40.83C113.184 40.83 112.608 40.092 112.608 39.372ZM122.874 40.56C124.026 38.76 124.17 36.168 124.17 34.8V34.314H126.906V40.56H122.874ZM119.958 40.56V44.16H121.596V42H128.346V44.16H129.948V40.56H128.652V32.892H122.496V34.566C122.496 35.97 122.352 38.814 121.074 40.56H119.958ZM131.024 39.516C131.024 41.226 132.482 42.216 134.066 42.216C135.416 42.216 136.532 41.406 137.054 40.362H137.09C137.09 40.362 137.036 40.668 137.036 41.082V42H138.674V36.24C138.674 33.936 137.36 32.676 135.074 32.676C133.796 32.676 132.41 33.144 131.672 33.756L132.374 35.034C133.112 34.512 134.03 34.152 134.93 34.152C136.064 34.152 136.928 34.656 136.928 36.15V36.33H136.46C134.57 36.33 131.024 36.654 131.024 39.516ZM132.77 39.372C132.77 37.698 135.182 37.59 136.478 37.59H136.928V37.932C136.928 39.282 136.01 40.83 134.48 40.83C133.346 40.83 132.77 40.092 132.77 39.372ZM143.738 38.832C144.638 38.832 145.628 38.526 146.204 38.166H146.24C146.24 38.166 146.222 38.454 146.222 38.706V42H147.968V32.892H146.222V36.672C145.844 36.942 145.106 37.32 144.206 37.32C142.712 37.32 142.388 36.51 142.388 35.61V32.892H140.678V35.862C140.678 37.806 141.794 38.832 143.738 38.832ZM150.676 42H152.422V38.058H153.736L156.454 42H158.524L155.122 37.266V37.23L158.164 32.892H156.184L153.7 36.564H152.422V32.892H150.676V42ZM160.08 42H161.754L165.696 36.564C165.984 36.132 166.434 35.52 166.488 35.358H166.524C166.524 35.502 166.47 36.132 166.47 36.564V42H168.162V32.892H166.47L162.546 38.328C162.24 38.76 161.808 39.39 161.736 39.552H161.7C161.718 39.462 161.754 38.814 161.754 38.328V32.892H160.08V42ZM175.338 42H177.012L180.954 36.564C181.242 36.132 181.692 35.52 181.746 35.358H181.782C181.782 35.502 181.728 36.132 181.728 36.564V42H183.42V32.892H181.728L177.804 38.328C177.498 38.76 177.066 39.39 176.994 39.552H176.958C176.976 39.462 177.012 38.814 177.012 38.328V32.892H175.338V42ZM185.214 40.884C185.97 41.604 187.158 42.216 188.562 42.216C190.434 42.216 192.054 41.262 192.054 39.39C192.054 38.22 191.334 37.536 190.416 37.248V37.212C191.136 36.906 191.748 36.276 191.748 35.142C191.748 33.522 190.398 32.676 188.67 32.676C187.23 32.676 186.204 33.144 185.502 33.666L186.15 34.836C186.852 34.314 187.572 34.044 188.364 34.044C189.372 34.044 189.984 34.512 189.984 35.358C189.984 36.276 189.282 36.672 188.256 36.672H187.302V37.932H188.418C189.696 37.932 190.29 38.436 190.29 39.318C190.29 40.308 189.444 40.812 188.4 40.812C187.302 40.812 186.438 40.164 186.024 39.732L185.214 40.884ZM197.62 42H199.564L201.958 38.112H203.254V42H204.91V38.112H206.224L208.6 42H210.562L207.628 37.32V37.284L210.292 32.892H208.456L206.206 36.618H204.91V32.892H203.254V36.618H201.958L199.726 32.892H197.872L200.554 37.284V37.32L197.62 42ZM212.2 42H213.874L217.816 36.564C218.104 36.132 218.554 35.52 218.608 35.358H218.644C218.644 35.502 218.59 36.132 218.59 36.564V42H220.282V32.892H218.59L214.666 38.328C214.36 38.76 213.928 39.39 213.856 39.552H213.82C213.838 39.462 213.874 38.814 213.874 38.328V32.892H212.2V42ZM222.075 40.884C222.831 41.604 224.019 42.216 225.423 42.216C227.295 42.216 228.915 41.262 228.915 39.39C228.915 38.22 228.195 37.536 227.277 37.248V37.212C227.997 36.906 228.609 36.276 228.609 35.142C228.609 33.522 227.259 32.676 225.531 32.676C224.091 32.676 223.065 33.144 222.363 33.666L223.011 34.836C223.713 34.314 224.433 34.044 225.225 34.044C226.233 34.044 226.845 34.512 226.845 35.358C226.845 36.276 226.143 36.672 225.117 36.672H224.163V37.932H225.279C226.557 37.932 227.151 38.436 227.151 39.318C227.151 40.308 226.305 40.812 225.261 40.812C224.163 40.812 223.299 40.164 222.885 39.732L222.075 40.884ZM231.026 42H232.772V38.094H237.38V42H239.126V32.892H237.38V36.6H232.772V32.892H231.026V42ZM241.819 42H243.493L247.435 36.564C247.723 36.132 248.173 35.52 248.227 35.358H248.263C248.263 35.502 248.209 36.132 248.209 36.564V42H249.901V32.892H248.209L244.285 38.328C243.979 38.76 243.547 39.39 243.475 39.552H243.439C243.457 39.462 243.493 38.814 243.493 38.328V32.892H241.819V42Z" fill="#505257"/>
</svg>
