<svg width="433" height="182" viewBox="0 0 433 182" fill="none" xmlns="http://www.w3.org/2000/svg">
<path d="M1.332 45H9.268L26.008 19.642C27.62 17.038 29.666 12.822 29.666 12.822H29.79C29.79 12.822 29.356 17.038 29.356 19.642V45H37.292V0.979998H29.356L12.74 26.338C11.128 28.942 9.02 33.22 9.02 33.22H8.896C8.896 33.22 9.33 29.004 9.33 26.4V0.979998H1.332V45ZM43.7429 41.094C46.6569 43.822 51.1829 45.744 55.9569 45.744C62.8389 45.744 68.4189 42.396 68.4189 35.824C68.4189 31.918 65.9389 29.624 63.0869 28.57V28.446C65.3189 27.392 67.4269 25.222 67.4269 21.316C67.4269 15.736 62.5289 12.636 56.3289 12.636C51.0589 12.636 47.2769 14.248 44.6729 16.17L47.2149 21.192C50.0049 19.332 52.4849 18.588 54.8409 18.588C58.0029 18.588 59.5529 20.014 59.5529 22.37C59.5529 25.036 57.4449 26.028 54.6549 26.028H51.4309V31.484H55.2749C59.0569 31.484 60.5449 32.972 60.5449 35.39C60.5449 38.056 58.4369 39.668 55.0889 39.668C51.8029 39.668 48.7649 37.684 47.0909 36.072L43.7429 41.094ZM73.4588 50.084L70.8548 55.974C70.8548 55.974 73.6448 58.02 77.4268 58.02C82.0768 58.02 86.6648 55.54 88.8348 49.774L102.909 13.38H94.3528L88.1528 31.732C87.6568 33.406 87.0988 35.886 87.0988 35.886H86.9748C86.9748 35.886 86.4168 33.282 85.7968 31.608L79.1628 13.38H70.2968L83.6268 44.504L82.4488 47.294C81.2708 50.084 79.1008 51.386 76.9308 51.386C75.1948 51.386 73.4588 50.084 73.4588 50.084ZM116.854 34.522C120.264 34.522 123.488 33.53 125.41 32.476H125.534C125.534 32.476 125.472 33.406 125.472 34.212V45H133.284V13.38H125.472V25.966C124.232 26.834 122.062 27.95 119.334 27.95C115.18 27.95 113.94 25.656 113.94 22.68V13.38H106.19V23.982C106.19 31.36 110.778 34.522 116.854 34.522ZM139.357 36.258C139.357 42.024 144.069 45.744 149.773 45.744C154.051 45.744 157.833 43.388 159.755 40.04H159.879C159.879 40.04 159.693 41.032 159.693 42.334V45H167.009V25.222C167.009 17.224 162.111 12.636 153.865 12.636C149.153 12.636 144.069 14.434 141.465 16.542L144.379 22.184C146.921 20.448 150.083 19.146 153.183 19.146C156.469 19.146 159.135 20.572 159.135 24.726V25.16H157.771C150.765 25.16 139.357 26.772 139.357 36.258ZM147.169 35.576C147.169 31.112 153.865 30.554 157.833 30.554H159.197V31.422C159.197 35.266 156.345 39.73 151.943 39.73C148.781 39.73 147.169 37.684 147.169 35.576ZM189.585 10.342C194.979 10.342 199.753 7.242 199.753 1.786V0.979998H193.801V1.724C193.801 4.452 191.631 5.692 189.585 5.692C187.539 5.692 185.431 4.452 185.431 1.786V0.979998H179.417V1.786C179.417 7.242 184.191 10.342 189.585 10.342ZM175.015 45H182.641L194.359 28.136C195.165 26.896 196.343 25.222 196.715 24.354H196.839C196.777 25.16 196.653 26.958 196.653 28.136V45H204.155V13.38H196.529L184.811 30.306C184.005 31.546 182.827 33.282 182.455 34.088H182.331C182.393 33.592 182.517 31.732 182.517 30.306V13.38H175.015V45ZM224.828 45H233.57L239.026 35.824C239.46 35.142 239.894 34.15 239.894 34.15H240.018C240.018 34.15 240.514 35.142 240.948 35.824L246.404 45H255.208L244.73 29.004L254.898 13.38H245.97L241.072 21.998C240.638 22.804 240.018 23.982 240.018 23.982H239.894C239.894 23.982 239.336 22.804 238.902 21.998L234.004 13.38H225.076L235.244 29.004L224.828 45ZM260.265 45H267.891L279.609 28.136C280.415 26.896 281.593 25.222 281.965 24.354H282.089C282.027 25.16 281.903 26.958 281.903 28.136V45H289.405V13.38H281.779L270.061 30.306C269.255 31.546 268.077 33.282 267.705 34.088H267.581C267.643 33.592 267.767 31.732 267.767 30.306V13.38H260.265V45ZM296.562 45H304.126L305.242 27.888C305.366 25.78 305.18 22.494 305.18 22.494H305.304C305.304 22.494 306.358 24.974 307.226 27.144L313.426 41.032H319.936L326.136 27.082C327.128 24.85 327.996 22.494 327.996 22.494H328.12C328.12 22.494 327.996 25.78 328.058 27.888L329.174 45H336.738L333.886 13.38H325.082L318.262 29.686C317.58 31.484 316.712 33.716 316.712 33.716H316.588C316.588 33.716 315.782 31.422 315.038 29.686L308.342 13.38H299.414L296.562 45ZM343.941 45H351.567L363.285 28.136C364.091 26.896 365.269 25.222 365.641 24.354H365.765C365.703 25.16 365.579 26.958 365.579 28.136V45H373.081V13.38H365.455L353.737 30.306C352.931 31.546 351.753 33.282 351.381 34.088H351.257C351.319 33.592 351.443 31.732 351.443 30.306V13.38H343.941V45ZM381.54 45H389.414V32.29H394.56C395.924 40.288 402.558 45.744 410.99 45.744C420.352 45.744 427.792 38.924 427.792 29.19C427.792 19.518 420.352 12.636 410.928 12.636C402.682 12.636 396.048 18.03 394.622 25.904H389.414V13.38H381.54V45ZM402.124 29.19C402.124 23.362 406.03 19.332 410.99 19.332C415.888 19.332 419.794 23.362 419.794 29.19C419.794 35.08 415.888 39.048 410.99 39.048C406.03 39.048 402.124 35.08 402.124 29.19ZM0.216 113H7.842L19.56 96.136C20.366 94.896 21.544 93.222 21.916 92.354H22.04C21.978 93.16 21.854 94.958 21.854 96.136V113H29.356V81.38H21.73L10.012 98.306C9.206 99.546 8.028 101.282 7.656 102.088H7.532C7.594 101.592 7.718 99.732 7.718 98.306V81.38H0.216V113ZM37.8156 113H45.6896V100.228H59.2056V113H67.0796V81.38H59.2056V93.594H45.6896V81.38H37.8156V113ZM82.9143 113H90.7263V88.076H101.204V81.38H72.4983V88.076H82.9143V113ZM103.827 97.19C103.827 106.18 110.399 113.744 120.877 113.744C125.403 113.744 130.363 112.07 133.587 109.218L130.487 103.576C127.945 105.622 124.659 107.048 121.435 107.048C116.661 107.048 112.445 104.196 111.949 98.678H133.711C133.835 97.686 133.959 96.632 133.959 95.64C133.959 87.27 128.999 80.636 119.947 80.636C110.461 80.636 103.827 87.456 103.827 97.19ZM112.135 93.284C112.879 89.254 115.731 86.588 119.761 86.588C123.295 86.588 126.023 89.068 126.085 93.284H112.135ZM140.503 125.4H148.377V112.008C148.377 110.396 148.191 109.28 148.191 109.28H148.315C150.547 112.132 153.833 113.744 157.429 113.744C165.737 113.744 171.875 107.234 171.875 97.19C171.875 87.394 166.419 80.636 157.863 80.636C153.585 80.636 149.741 82.558 147.695 85.968H147.571C147.571 85.968 147.695 84.914 147.695 83.736V81.38H140.503V125.4ZM148.129 97.376C148.129 90.37 151.973 87.394 156.127 87.394C160.715 87.394 163.939 91.3 163.939 97.314C163.939 103.576 160.343 107.11 156.003 107.11C150.857 107.11 148.129 102.274 148.129 97.376ZM176.665 97.19C176.665 106.18 183.237 113.744 193.715 113.744C198.241 113.744 203.201 112.07 206.425 109.218L203.325 103.576C200.783 105.622 197.497 107.048 194.273 107.048C189.499 107.048 185.283 104.196 184.787 98.678H206.549C206.673 97.686 206.797 96.632 206.797 95.64C206.797 87.27 201.837 80.636 192.785 80.636C183.299 80.636 176.665 87.456 176.665 97.19ZM184.973 93.284C185.717 89.254 188.569 86.588 192.599 86.588C196.133 86.588 198.861 89.068 198.923 93.284H184.973ZM211.419 97.19C211.419 106.366 218.115 113.744 228.593 113.744C233.677 113.744 238.637 111.76 241.613 108.598L238.575 103.018C236.219 105.312 232.623 107.048 229.275 107.048C223.199 107.048 219.417 102.46 219.417 97.128C219.417 91.734 223.199 87.332 229.027 87.332C232.127 87.332 235.227 88.758 237.211 90.742L240.745 85.348C237.707 82.062 232.871 80.636 228.593 80.636C218.115 80.636 211.419 88.2 211.419 97.19ZM247.308 113H255.182V100.228H268.698V113H276.572V81.38H268.698V93.594H255.182V81.38H247.308V113ZM283.107 97.19C283.107 106.924 290.857 113.744 300.467 113.744C310.077 113.744 317.827 106.924 317.827 97.19C317.827 87.518 310.077 80.636 300.405 80.636C290.857 80.636 283.107 87.518 283.107 97.19ZM291.105 97.19C291.105 91.362 295.321 87.332 300.467 87.332C305.613 87.332 309.891 91.362 309.891 97.19C309.891 103.08 305.613 107.048 300.467 107.048C295.321 107.048 291.105 103.08 291.105 97.19ZM0.216 181H7.842L19.56 164.136C20.366 162.896 21.544 161.222 21.916 160.354H22.04C21.978 161.16 21.854 162.958 21.854 164.136V181H29.356V149.38H21.73L10.012 166.306C9.206 167.546 8.028 169.282 7.656 170.088H7.532C7.594 169.592 7.718 167.732 7.718 166.306V149.38H0.216V181ZM50.3396 181.31C60.8176 181 64.4756 173.064 64.4756 159.3V155.766H72.1636V181H80.0376V149.38H56.9736V159.3C56.9736 170.522 54.2456 173.808 50.3396 174.366V181.31ZM86.5713 165.19C86.5713 174.18 93.1433 181.744 103.621 181.744C108.147 181.744 113.107 180.07 116.331 177.218L113.231 171.576C110.689 173.622 107.403 175.048 104.179 175.048C99.4053 175.048 95.1893 172.196 94.6933 166.678H116.455C116.579 165.686 116.703 164.632 116.703 163.64C116.703 155.27 111.743 148.636 102.691 148.636C93.2053 148.636 86.5713 155.456 86.5713 165.19ZM94.8793 161.284C95.6233 157.254 98.4753 154.588 102.505 154.588C106.039 154.588 108.767 157.068 108.829 161.284H94.8793ZM123.247 181H131.121V156.076H144.017V149.38H123.247V181ZM149.404 181H157.278V168.166H161.37L169.678 181H178.792L167.508 164.57V164.446L177.552 149.38H168.81L161.121 161.47H157.278V149.38H149.404V181ZM180.177 165.19C180.177 174.924 187.927 181.744 197.537 181.744C207.147 181.744 214.897 174.924 214.897 165.19C214.897 155.518 207.147 148.636 197.475 148.636C187.927 148.636 180.177 155.518 180.177 165.19ZM188.175 165.19C188.175 159.362 192.391 155.332 197.537 155.332C202.683 155.332 206.961 159.362 206.961 165.19C206.961 171.08 202.683 175.048 197.537 175.048C192.391 175.048 188.175 171.08 188.175 165.19ZM234.972 165.19C234.972 174.366 241.668 181.744 252.146 181.744C257.23 181.744 262.19 179.76 265.166 176.598L262.128 171.018C259.772 173.312 256.176 175.048 252.828 175.048C246.752 175.048 242.97 170.46 242.97 165.128C242.97 159.734 246.752 155.332 252.58 155.332C255.68 155.332 258.78 156.758 260.764 158.742L264.298 153.348C261.26 150.062 256.424 148.636 252.146 148.636C241.668 148.636 234.972 156.2 234.972 165.19Z" fill="#222224"/>
<path d="M287.477 181H295.475V165.81H304.465C312.711 165.81 318.477 159.858 318.477 151.302C318.477 142.746 312.711 136.98 304.465 136.98H287.477V181ZM295.475 158.866V143.862H303.101C307.627 143.862 310.355 146.776 310.355 151.302C310.355 155.89 307.627 158.866 302.977 158.866H295.475ZM325.621 181H333.619V164.57H341.307L349.987 181H358.977L349.925 164.632C349.057 163.02 348.499 162.338 348.499 162.338V162.214C353.149 160.354 355.877 155.394 355.877 150.186C355.877 144.234 352.963 140.018 348.437 138.158C346.577 137.352 344.469 136.98 340.129 136.98H325.621V181ZM333.619 157.626V143.862H339.447C341.865 143.862 343.167 144.11 344.283 144.606C346.701 145.598 347.755 147.83 347.755 150.62C347.755 154.96 345.089 157.626 340.811 157.626H333.619ZM362.312 158.68C362.312 171.638 371.736 181.744 385.066 181.744C398.396 181.744 407.82 171.638 407.82 158.68C407.82 146.094 398.396 136.236 385.066 136.236C371.736 136.236 362.312 146.094 362.312 158.68ZM370.558 158.68C370.558 150.124 376.634 143.552 385.066 143.552C393.498 143.552 399.574 150.124 399.574 158.68C399.574 167.608 393.498 174.428 385.066 174.428C376.634 174.428 370.558 167.608 370.558 158.68ZM413.23 181H432.14V175.854H419.492C419.988 171.328 431.768 170.46 431.768 161.594C431.768 156.2 427.304 153.162 422.344 153.162C418.562 153.162 415.028 155.27 413.23 158.06L417.074 161.47C418.314 160.044 419.988 158.618 422.034 158.618C424.142 158.618 425.816 159.92 425.816 161.842C425.816 167.236 412.982 167.732 412.982 178.458C412.982 179.202 413.106 180.132 413.23 181Z" fill="#F04B5D"/>
</svg>
