<svg width="365" height="46" viewBox="0 0 365 46" fill="none" xmlns="http://www.w3.org/2000/svg">
<path d="M0.9 7.574C0.9 11.3 3.474 14.216 7.416 14.216C9.666 14.216 11.25 13.28 12.33 12.2L11.376 10.922C10.35 11.948 8.892 12.578 7.47 12.578C4.518 12.578 2.736 10.256 2.736 7.556C2.736 4.874 4.482 2.696 7.434 2.696C8.748 2.696 10.17 3.254 11.106 4.082L12.006 2.75C10.782 1.58 9 1.076 7.362 1.076C3.582 1.076 0.9 3.884 0.9 7.574ZM13.4826 9.428C13.4826 12.2 15.6786 14.216 18.3966 14.216C21.0966 14.216 23.2926 12.2 23.2926 9.428C23.2926 6.674 21.0966 4.676 18.3786 4.676C15.6786 4.676 13.4826 6.674 13.4826 9.428ZM15.2646 9.428C15.2646 7.538 16.6686 6.188 18.3966 6.188C20.1066 6.188 21.5286 7.538 21.5286 9.428C21.5286 11.336 20.1066 12.704 18.3966 12.704C16.6686 12.704 15.2646 11.336 15.2646 9.428ZM25.0009 8.762C25.0009 11.912 26.3869 14.216 29.4649 14.216C32.0389 14.216 33.7669 12.416 33.7669 9.896C33.7669 7.322 32.1829 5.702 29.8969 5.702C28.6909 5.702 27.4849 6.098 26.6749 7.322H26.6389C26.7649 5.576 27.6289 4.514 29.4469 3.686L32.9389 2.228L32.3629 0.788L29.1049 2.192C25.9369 3.524 25.0009 5.504 25.0009 8.762ZM26.8189 9.896C26.8189 8.294 27.9169 7.088 29.4649 7.088C30.8329 7.088 32.0029 8.15 32.0029 9.932C32.0029 11.696 30.8329 12.74 29.3929 12.74C27.9889 12.74 26.8189 11.696 26.8189 9.896ZM35.3498 9.446C35.3498 12.182 37.3478 14.216 40.2278 14.216C41.6498 14.216 43.0358 13.64 43.8638 12.758L43.1618 11.48C42.4598 12.218 41.3618 12.704 40.3538 12.704C38.4638 12.704 37.1318 11.282 37.1318 9.428C37.1318 7.574 38.4638 6.188 40.2998 6.188C41.2538 6.188 42.2078 6.62 42.8198 7.232L43.6478 6.008C42.7838 5.09 41.4338 4.676 40.2278 4.676C37.3658 4.676 35.3498 6.746 35.3498 9.446ZM47.9483 14H49.6763V6.386H52.8623V4.892H44.7803V6.386H47.9483V14ZM54.5766 14H58.4646C60.4446 14 61.8126 13.1 61.8126 11.408C61.8126 10.4 61.2186 9.518 60.0846 9.248V9.23C60.9126 8.87 61.3806 8.114 61.3806 7.232C61.3806 5.702 60.1746 4.892 58.3386 4.892H54.5766V14ZM56.3226 8.744V6.098H57.9786C59.0766 6.098 59.5986 6.53 59.5986 7.358C59.5986 8.204 59.0766 8.744 58.0326 8.744H56.3226ZM56.3226 12.776V9.914H58.1766C59.3826 9.914 60.0486 10.454 60.0486 11.354C60.0486 12.2 59.4546 12.776 58.1946 12.776H56.3226ZM63.3341 9.446C63.3341 12.146 65.3141 14.216 68.1761 14.216C69.4361 14.216 70.8221 13.73 71.7041 12.92L70.9661 11.642C70.2461 12.29 69.2561 12.704 68.2841 12.704C66.6461 12.704 65.2421 11.642 65.1521 9.68H71.7761C71.8121 9.428 71.8481 9.176 71.8481 8.942C71.8481 6.602 70.4801 4.676 67.9061 4.676C65.3141 4.676 63.3341 6.548 63.3341 9.446ZM65.2061 8.42C65.4581 6.908 66.5201 6.026 67.8701 6.026C69.0581 6.026 70.0301 6.854 70.0841 8.42H65.2061ZM73.9477 14H75.6937V10.094H80.3017V14H82.0477V4.892H80.3017V8.6H75.6937V4.892H73.9477V14ZM84.7406 14H86.4866V10.094H91.0946V14H92.8406V4.892H91.0946V8.6H86.4866V4.892H84.7406V14ZM94.7776 11.516C94.7776 13.226 96.2356 14.216 97.8196 14.216C99.1696 14.216 100.286 13.406 100.808 12.362H100.844C100.844 12.362 100.79 12.668 100.79 13.082V14H102.428V8.24C102.428 5.936 101.114 4.676 98.8276 4.676C97.5496 4.676 96.1636 5.144 95.4256 5.756L96.1276 7.034C96.8656 6.512 97.7836 6.152 98.6836 6.152C99.8176 6.152 100.682 6.656 100.682 8.15V8.33H100.214C98.3236 8.33 94.7776 8.654 94.7776 11.516ZM96.5236 11.372C96.5236 9.698 98.9356 9.59 100.232 9.59H100.682V9.932C100.682 11.282 99.7636 12.83 98.2336 12.83C97.0996 12.83 96.5236 12.092 96.5236 11.372ZM104.09 14H106.016L108.248 10.706H109.778V14H111.524V4.892H107.888C105.962 4.892 104.63 5.882 104.63 7.754C104.63 9.14 105.566 10.112 106.61 10.4V10.418C106.61 10.418 106.394 10.652 106.196 10.976L104.09 14ZM108.266 9.428C107.204 9.428 106.394 8.87 106.394 7.736C106.394 6.566 107.15 6.098 108.32 6.098H109.778V9.428H108.266ZM118.341 14H120.033L120.429 8.582C120.465 8.042 120.411 7.016 120.411 7.016H120.447C120.447 7.016 120.735 7.7 121.023 8.366L123.183 12.902H124.677L126.837 8.348C127.179 7.646 127.413 7.016 127.413 7.016H127.449C127.449 7.016 127.413 8.042 127.431 8.582L127.827 14H129.519L128.727 4.892H126.819L124.443 10.04C124.209 10.598 123.939 11.264 123.939 11.264H123.903C123.903 11.264 123.651 10.58 123.399 10.04L121.077 4.892H119.133L118.341 14ZM131.274 9.446C131.274 12.146 133.254 14.216 136.116 14.216C137.376 14.216 138.762 13.73 139.644 12.92L138.906 11.642C138.186 12.29 137.196 12.704 136.224 12.704C134.586 12.704 133.182 11.642 133.092 9.68H139.716C139.752 9.428 139.788 9.176 139.788 8.942C139.788 6.602 138.42 4.676 135.846 4.676C133.254 4.676 131.274 6.548 131.274 9.446ZM133.146 8.42C133.398 6.908 134.46 6.026 135.81 6.026C136.998 6.026 137.97 6.854 138.024 8.42H133.146ZM143.978 14H145.706V6.386H148.892V4.892H140.81V6.386H143.978V14ZM149.713 9.428C149.713 12.2 151.909 14.216 154.627 14.216C157.327 14.216 159.523 12.2 159.523 9.428C159.523 6.674 157.327 4.676 154.609 4.676C151.909 4.676 149.713 6.674 149.713 9.428ZM151.495 9.428C151.495 7.538 152.899 6.188 154.627 6.188C156.337 6.188 157.759 7.538 157.759 9.428C157.759 11.336 156.337 12.704 154.627 12.704C152.899 12.704 151.495 11.336 151.495 9.428ZM163.181 12.56C164.333 10.76 164.477 8.168 164.477 6.8V6.314H167.213V12.56H163.181ZM160.265 12.56V16.16H161.903V14H168.653V16.16H170.255V12.56H168.959V4.892H162.803V6.566C162.803 7.97 162.659 10.814 161.381 12.56H160.265ZM172.086 14H173.76L177.702 8.564C177.99 8.132 178.44 7.52 178.494 7.358H178.53C178.53 7.502 178.476 8.132 178.476 8.564V14H180.168V4.892H178.476L174.552 10.328C174.246 10.76 173.814 11.39 173.742 11.552H173.706C173.724 11.462 173.76 10.814 173.76 10.328V4.892H172.086V14ZM182.844 14H184.59V10.058H185.904L188.622 14H190.692L187.29 9.266V9.23L190.332 4.892H188.352L185.868 8.564H184.59V4.892H182.844V14ZM191.405 11.516C191.405 13.226 192.863 14.216 194.447 14.216C195.797 14.216 196.913 13.406 197.435 12.362H197.471C197.471 12.362 197.417 12.668 197.417 13.082V14H199.055V8.24C199.055 5.936 197.741 4.676 195.455 4.676C194.177 4.676 192.791 5.144 192.053 5.756L192.755 7.034C193.493 6.512 194.411 6.152 195.311 6.152C196.445 6.152 197.309 6.656 197.309 8.15V8.33H196.841C194.951 8.33 191.405 8.654 191.405 11.516ZM193.151 11.372C193.151 9.698 195.563 9.59 196.859 9.59H197.309V9.932C197.309 11.282 196.391 12.83 194.861 12.83C193.727 12.83 193.151 12.092 193.151 11.372ZM206.135 14H207.809L211.751 8.564C212.039 8.132 212.489 7.52 212.543 7.358H212.579C212.579 7.502 212.525 8.132 212.525 8.564V14H214.217V4.892H212.525L208.601 10.328C208.295 10.76 207.863 11.39 207.791 11.552H207.755C207.773 11.462 207.809 10.814 207.809 10.328V4.892H206.135V14ZM221.393 14H223.067L227.009 8.564C227.297 8.132 227.747 7.52 227.801 7.358H227.837C227.837 7.502 227.783 8.132 227.783 8.564V14H229.475V4.892H227.783L223.859 10.328C223.553 10.76 223.121 11.39 223.049 11.552H223.013C223.031 11.462 223.067 10.814 223.067 10.328V4.892H221.393V14ZM232.151 14H233.897V10.094H238.505V14H240.251V4.892H238.505V8.6H233.897V4.892H232.151V14ZM244.726 12.56C245.878 10.76 246.022 8.168 246.022 6.8V6.314H248.758V12.56H244.726ZM241.81 12.56V16.16H243.448V14H250.198V16.16H251.8V12.56H250.504V4.892H244.348V6.566C244.348 7.97 244.204 10.814 242.926 12.56H241.81ZM253.631 14H255.305L259.247 8.564C259.535 8.132 259.985 7.52 260.039 7.358H260.075C260.075 7.502 260.021 8.132 260.021 8.564V14H261.713V4.892H260.021L256.097 10.328C255.791 10.76 255.359 11.39 255.287 11.552H255.251C255.269 11.462 255.305 10.814 255.305 10.328V4.892H253.631V14ZM264.389 14H268.277C270.257 14 271.625 13.1 271.625 11.408C271.625 10.4 271.031 9.518 269.897 9.248V9.23C270.725 8.87 271.193 8.114 271.193 7.232C271.193 5.702 269.987 4.892 268.151 4.892H264.389V14ZM266.135 8.744V6.098H267.791C268.889 6.098 269.411 6.53 269.411 7.358C269.411 8.204 268.889 8.744 267.845 8.744H266.135ZM266.135 12.776V9.914H267.989C269.195 9.914 269.861 10.454 269.861 11.354C269.861 12.2 269.267 12.776 268.007 12.776H266.135ZM273.741 14H275.415L279.357 8.564C279.645 8.132 280.095 7.52 280.149 7.358H280.185C280.185 7.502 280.131 8.132 280.131 8.564V14H281.823V4.892H280.131L276.207 10.328C275.901 10.76 275.469 11.39 275.397 11.552H275.361C275.379 11.462 275.415 10.814 275.415 10.328V4.892H273.741V14ZM286.28 12.56C287.432 10.76 287.576 8.168 287.576 6.8V6.314H290.312V12.56H286.28ZM283.364 12.56V16.16H285.002V14H291.752V16.16H293.354V12.56H292.058V4.892H285.902V6.566C285.902 7.97 285.758 10.814 284.48 12.56H283.364ZM294.49 15.89L293.878 17.222C293.878 17.222 294.616 17.78 295.624 17.78C296.902 17.78 298.036 17.06 298.576 15.638L302.86 4.892H300.97L298.756 10.868C298.594 11.336 298.45 11.948 298.45 11.948H298.414C298.414 11.948 298.252 11.3 298.072 10.85L295.786 4.892H293.824L297.64 13.892L297.19 14.936C296.848 15.764 296.254 16.286 295.534 16.286C294.994 16.286 294.49 15.89 294.49 15.89ZM303.606 11.516C303.606 13.226 305.064 14.216 306.648 14.216C307.998 14.216 309.114 13.406 309.636 12.362H309.672C309.672 12.362 309.618 12.668 309.618 13.082V14H311.256V8.24C311.256 5.936 309.942 4.676 307.656 4.676C306.378 4.676 304.992 5.144 304.254 5.756L304.956 7.034C305.694 6.512 306.612 6.152 307.512 6.152C308.646 6.152 309.51 6.656 309.51 8.15V8.33H309.042C307.152 8.33 303.606 8.654 303.606 11.516ZM305.352 11.372C305.352 9.698 307.764 9.59 309.06 9.59H309.51V9.932C309.51 11.282 308.592 12.83 307.062 12.83C305.928 12.83 305.352 12.092 305.352 11.372ZM312.846 14.09C315.528 13.946 316.572 11.822 316.572 7.7V6.332H319.254V14H321V4.892H314.898V7.7C314.898 10.994 314.178 12.326 312.846 12.524V14.09ZM323.698 14H327.244C329.548 14 330.592 12.83 330.592 11.12C330.592 9.05 329.17 8.186 327.28 8.186H325.444V4.892H323.698V14ZM325.444 12.74V9.446H327.01C328.27 9.446 328.81 10.13 328.81 11.102C328.81 12.056 328.27 12.74 327.01 12.74H325.444ZM332.469 14H334.215V10.094H338.823V14H340.569V4.892H338.823V8.6H334.215V4.892H332.469V14ZM351.506 14H353.252V4.892H351.506V14ZM343.262 14H346.772C349.058 14 350.102 12.83 350.102 11.12C350.102 9.05 348.68 8.186 346.79 8.186H345.008V4.892H343.262V14ZM345.008 12.74V9.446H346.52C347.78 9.446 348.338 10.13 348.338 11.102C348.338 12.056 347.798 12.74 346.538 12.74H345.008ZM359.968 3.848C361.372 3.848 362.632 3.02 362.632 1.544V1.274H361.246V1.508C361.246 2.318 360.598 2.714 359.968 2.714C359.338 2.714 358.708 2.318 358.708 1.526V1.274H357.304V1.544C357.304 3.02 358.582 3.848 359.968 3.848ZM355.954 14H357.628L361.57 8.564C361.858 8.132 362.308 7.52 362.362 7.358H362.398C362.398 7.502 362.344 8.132 362.344 8.564V14H364.036V4.892H362.344L358.42 10.328C358.114 10.76 357.682 11.39 357.61 11.552H357.574C357.592 11.462 357.628 10.814 357.628 10.328V4.892H355.954V14ZM1.35 42H3.096V34.386H7.56V42H9.306V32.892H1.35V42ZM11.4083 37.428C11.4083 40.2 13.6043 42.216 16.3223 42.216C19.0223 42.216 21.2183 40.2 21.2183 37.428C21.2183 34.674 19.0223 32.676 16.3043 32.676C13.6043 32.676 11.4083 34.674 11.4083 37.428ZM13.1903 37.428C13.1903 35.538 14.5943 34.188 16.3223 34.188C18.0323 34.188 19.4543 35.538 19.4543 37.428C19.4543 39.336 18.0323 40.704 16.3223 40.704C14.5943 40.704 13.1903 39.336 13.1903 37.428ZM24.8761 40.56C26.0281 38.76 26.1721 36.168 26.1721 34.8V34.314H28.9081V40.56H24.8761ZM21.9601 40.56V44.16H23.5981V42H30.3481V44.16H31.9501V40.56H30.6541V32.892H24.4981V34.566C24.4981 35.97 24.3541 38.814 23.0761 40.56H21.9601ZM32.7376 42H34.7176L36.6256 38.958C36.7696 38.742 36.8956 38.472 36.8956 38.472H36.9316C36.9316 38.472 37.0756 38.742 37.2196 38.958L39.1276 42H41.1076L37.9936 37.32L40.9276 32.892H38.9296L37.2376 35.664C37.1116 35.898 36.9316 36.204 36.9316 36.204H36.8956C36.8956 36.204 36.7336 35.898 36.6076 35.664L34.9156 32.892H32.9176L35.8516 37.32L32.7376 42ZM41.8712 37.428C41.8712 40.2 44.0672 42.216 46.7852 42.216C49.4852 42.216 51.6812 40.2 51.6812 37.428C51.6812 34.674 49.4852 32.676 46.7672 32.676C44.0672 32.676 41.8712 34.674 41.8712 37.428ZM43.6532 37.428C43.6532 35.538 45.0572 34.188 46.7852 34.188C48.4952 34.188 49.9172 35.538 49.9172 37.428C49.9172 39.336 48.4952 40.704 46.7852 40.704C45.0572 40.704 43.6532 39.336 43.6532 37.428ZM55.339 40.56C56.491 38.76 56.635 36.168 56.635 34.8V34.314H59.371V40.56H55.339ZM52.423 40.56V44.16H54.061V42H60.811V44.16H62.413V40.56H61.117V32.892H54.961V34.566C54.961 35.97 54.817 38.814 53.539 40.56H52.423ZM68.7445 42H70.4905V38.058H71.8045L74.5225 42H76.5925L73.1905 37.266V37.23L76.2325 32.892H74.2525L71.7685 36.564H70.4905V32.892H68.7445V42ZM82.6488 42H84.3948V38.058H85.7088L88.4268 42H90.4968L87.0948 37.266V37.23L90.1368 32.892H88.1568L85.6728 36.564H84.3948V32.892H82.6488V42ZM91.2092 39.516C91.2092 41.226 92.6672 42.216 94.2512 42.216C95.6012 42.216 96.7172 41.406 97.2392 40.362H97.2752C97.2752 40.362 97.2212 40.668 97.2212 41.082V42H98.8592V36.24C98.8592 33.936 97.5452 32.676 95.2592 32.676C93.9812 32.676 92.5952 33.144 91.8572 33.756L92.5592 35.034C93.2972 34.512 94.2152 34.152 95.1152 34.152C96.2492 34.152 97.1132 34.656 97.1132 36.15V36.33H96.6452C94.7552 36.33 91.2092 36.654 91.2092 39.516ZM92.9552 39.372C92.9552 37.698 95.3672 37.59 96.6632 37.59H97.1132V37.932C97.1132 39.282 96.1952 40.83 94.6652 40.83C93.5312 40.83 92.9552 40.092 92.9552 39.372ZM100.396 42H102.34L104.734 38.112H106.03V42H107.686V38.112H109L111.376 42H113.338L110.404 37.32V37.284L113.068 32.892H111.232L108.982 36.618H107.686V32.892H106.03V36.618H104.734L102.502 32.892H100.648L103.33 37.284V37.32L100.396 42ZM116.757 40.56C117.909 38.76 118.053 36.168 118.053 34.8V34.314H120.789V40.56H116.757ZM113.841 40.56V44.16H115.479V42H122.229V44.16H123.831V40.56H122.535V32.892H116.379V34.566C116.379 35.97 116.235 38.814 114.957 40.56H113.841ZM124.963 37.428C124.963 40.2 127.159 42.216 129.877 42.216C132.577 42.216 134.773 40.2 134.773 37.428C134.773 34.674 132.577 32.676 129.859 32.676C127.159 32.676 124.963 34.674 124.963 37.428ZM126.745 37.428C126.745 35.538 128.149 34.188 129.877 34.188C131.587 34.188 133.009 35.538 133.009 37.428C133.009 39.336 131.587 40.704 129.877 40.704C128.149 40.704 126.745 39.336 126.745 37.428ZM136.499 42H138.191L138.587 36.582C138.623 36.042 138.569 35.016 138.569 35.016H138.605C138.605 35.016 138.893 35.7 139.181 36.366L141.341 40.902H142.835L144.995 36.348C145.337 35.646 145.571 35.016 145.571 35.016H145.607C145.607 35.016 145.571 36.042 145.589 36.582L145.985 42H147.677L146.885 32.892H144.977L142.601 38.04C142.367 38.598 142.097 39.264 142.097 39.264H142.061C142.061 39.264 141.809 38.58 141.557 38.04L139.235 32.892H137.291L136.499 42ZM149.435 43.89L148.823 45.222C148.823 45.222 149.561 45.78 150.569 45.78C151.847 45.78 152.981 45.06 153.521 43.638L157.805 32.892H155.915L153.701 38.868C153.539 39.336 153.395 39.948 153.395 39.948H153.359C153.359 39.948 153.197 39.3 153.017 38.85L150.731 32.892H148.769L152.585 41.892L152.135 42.936C151.793 43.764 151.199 44.286 150.479 44.286C149.939 44.286 149.435 43.89 149.435 43.89ZM164.018 42H165.764V38.094H170.372V42H172.118V32.892H170.372V36.6H165.764V32.892H164.018V42ZM174.055 39.516C174.055 41.226 175.513 42.216 177.097 42.216C178.447 42.216 179.563 41.406 180.085 40.362H180.121C180.121 40.362 180.067 40.668 180.067 41.082V42H181.705V36.24C181.705 33.936 180.391 32.676 178.105 32.676C176.827 32.676 175.441 33.144 174.703 33.756L175.405 35.034C176.143 34.512 177.061 34.152 177.961 34.152C179.095 34.152 179.959 34.656 179.959 36.15V36.33H179.491C177.601 36.33 174.055 36.654 174.055 39.516ZM175.801 39.372C175.801 37.698 178.213 37.59 179.509 37.59H179.959V37.932C179.959 39.282 179.041 40.83 177.511 40.83C176.377 40.83 175.801 40.092 175.801 39.372ZM184.286 42H196.058V32.892H194.384V40.488H191.018V32.892H189.326V40.488H185.96V32.892H184.286V42ZM198.158 37.446C198.158 40.146 200.138 42.216 203 42.216C204.26 42.216 205.646 41.73 206.528 40.92L205.79 39.642C205.07 40.29 204.08 40.704 203.108 40.704C201.47 40.704 200.066 39.642 199.976 37.68H206.6C206.636 37.428 206.672 37.176 206.672 36.942C206.672 34.602 205.304 32.676 202.73 32.676C200.138 32.676 198.158 34.548 198.158 37.446ZM200.03 36.42C200.282 34.908 201.344 34.026 202.694 34.026C203.882 34.026 204.854 34.854 204.908 36.42H200.03ZM208.394 42H210.086L210.482 36.582C210.518 36.042 210.464 35.016 210.464 35.016H210.5C210.5 35.016 210.788 35.7 211.076 36.366L213.236 40.902H214.73L216.89 36.348C217.232 35.646 217.466 35.016 217.466 35.016H217.502C217.502 35.016 217.466 36.042 217.484 36.582L217.88 42H219.572L218.78 32.892H216.872L214.496 38.04C214.262 38.598 213.992 39.264 213.992 39.264H213.956C213.956 39.264 213.704 38.58 213.452 38.04L211.13 32.892H209.186L208.394 42ZM221.33 43.89L220.718 45.222C220.718 45.222 221.456 45.78 222.464 45.78C223.742 45.78 224.876 45.06 225.416 43.638L229.7 32.892H227.81L225.596 38.868C225.434 39.336 225.29 39.948 225.29 39.948H225.254C225.254 39.948 225.092 39.3 224.912 38.85L222.626 32.892H220.664L224.48 41.892L224.03 42.936C223.688 43.764 223.094 44.286 222.374 44.286C221.834 44.286 221.33 43.89 221.33 43.89ZM235.319 37.446C235.319 40.182 237.317 42.216 240.197 42.216C241.619 42.216 243.005 41.64 243.833 40.758L243.131 39.48C242.429 40.218 241.331 40.704 240.323 40.704C238.433 40.704 237.101 39.282 237.101 37.428C237.101 35.574 238.433 34.188 240.269 34.188C241.223 34.188 242.177 34.62 242.789 35.232L243.617 34.008C242.753 33.09 241.403 32.676 240.197 32.676C237.335 32.676 235.319 34.746 235.319 37.446ZM247.917 42H249.645V34.386H252.831V32.892H244.749V34.386H247.917V42ZM254.095 43.89L253.483 45.222C253.483 45.222 254.221 45.78 255.229 45.78C256.507 45.78 257.641 45.06 258.181 43.638L262.465 32.892H260.575L258.361 38.868C258.199 39.336 258.055 39.948 258.055 39.948H258.019C258.019 39.948 257.857 39.3 257.677 38.85L255.391 32.892H253.429L257.245 41.892L256.795 42.936C256.453 43.764 255.859 44.286 255.139 44.286C254.599 44.286 254.095 43.89 254.095 43.89ZM265.31 40.56C266.462 38.76 266.606 36.168 266.606 34.8V34.314H269.342V40.56H265.31ZM262.394 40.56V44.16H264.032V42H270.782V44.16H272.384V40.56H271.088V32.892H264.932V34.566C264.932 35.97 264.788 38.814 263.51 40.56H262.394ZM273.516 37.446C273.516 40.146 275.496 42.216 278.358 42.216C279.618 42.216 281.004 41.73 281.886 40.92L281.148 39.642C280.428 40.29 279.438 40.704 278.466 40.704C276.828 40.704 275.424 39.642 275.334 37.68H281.958C281.994 37.428 282.03 37.176 282.03 36.942C282.03 34.602 280.662 32.676 278.088 32.676C275.496 32.676 273.516 34.548 273.516 37.446ZM275.388 36.42C275.64 34.908 276.702 34.026 278.052 34.026C279.24 34.026 280.212 34.854 280.266 36.42H275.388ZM284.129 42H285.875V38.094H290.483V42H292.229V32.892H290.483V36.6H285.875V32.892H284.129V42ZM297.118 42H298.846V34.386H302.032V32.892H293.95V34.386H297.118V42ZM303.296 43.89L302.684 45.222C302.684 45.222 303.422 45.78 304.43 45.78C305.708 45.78 306.842 45.06 307.382 43.638L311.666 32.892H309.776L307.562 38.868C307.4 39.336 307.256 39.948 307.256 39.948H307.22C307.22 39.948 307.058 39.3 306.878 38.85L304.592 32.892H302.63L306.446 41.892L305.996 42.936C305.654 43.764 305.06 44.286 304.34 44.286C303.8 44.286 303.296 43.89 303.296 43.89Z" fill="#505257"/>
</svg>
