<svg width="661" height="485" viewBox="0 0 661 485" fill="none" xmlns="http://www.w3.org/2000/svg">
<path d="M115.869 0L81.3307 56.4091C90.6587 62.4633 97.2537 71.9163 99.7119 82.7561C102.17 93.5958 100.298 104.966 94.4926 114.447C88.6877 123.928 79.4089 130.771 68.6312 133.519C57.8536 136.266 46.4282 134.703 36.7871 129.16L0.064209 189.137L354.342 405.728L470.146 216.591L115.869 0Z" fill="#F2F2F2"/>
<path d="M63.2428 119.975C78.606 119.975 91.0605 107.53 91.0605 92.1778C91.0605 76.8261 78.606 64.381 63.2428 64.381C47.8795 64.381 35.425 76.8261 35.425 92.1778C35.425 107.53 47.8795 119.975 63.2428 119.975Z" fill="#F2F2F2"/>
<path d="M321.365 464.527C375.673 464.527 419.698 461.632 419.698 458.062C419.698 454.492 375.673 451.598 321.365 451.598C267.058 451.598 223.033 454.492 223.033 458.062C223.033 461.632 267.058 464.527 321.365 464.527Z" fill="#F2F2F2"/>
<path d="M155.106 485C180.473 485 201.037 483.648 201.037 481.98C201.037 480.313 180.473 478.961 155.106 478.961C129.739 478.961 109.174 480.313 109.174 481.98C109.174 483.648 129.739 485 155.106 485Z" fill="#F2F2F2"/>
<path d="M516.736 449.659C571.043 449.659 615.068 446.764 615.068 443.194C615.068 439.624 571.043 436.73 516.736 436.73C462.429 436.73 418.404 439.624 418.404 443.194C418.404 446.764 462.429 449.659 516.736 449.659Z" fill="#F2F2F2"/>
<path d="M4.37274 432.851H661" stroke="#2F2E41" stroke-width="2" stroke-miterlimit="10"/>
<path d="M590.809 113.834H118.555V432.528H590.809V113.834Z" fill="#3F3D56"/>
<path d="M118.555 137.144H590.809" stroke="#2F2E41" stroke-width="2" stroke-miterlimit="10"/>
<path d="M133.111 131.287C136.326 131.287 138.933 128.683 138.933 125.469C138.933 122.256 136.326 119.651 133.111 119.651C129.895 119.651 127.288 122.256 127.288 125.469C127.288 128.683 129.895 131.287 133.111 131.287Z" fill="#F04B5D"/>
<path d="M150.577 131.611C153.793 131.611 156.4 129.006 156.4 125.793C156.4 122.58 153.793 119.975 150.577 119.975C147.362 119.975 144.755 122.58 144.755 125.793C144.755 129.006 147.362 131.611 150.577 131.611Z" fill="#F04B5D"/>
<path d="M168.044 131.934C171.26 131.934 173.867 129.329 173.867 126.116C173.867 122.903 171.26 120.298 168.044 120.298C164.829 120.298 162.222 122.903 162.222 126.116C162.222 129.329 164.829 131.934 168.044 131.934Z" fill="#F04B5D"/>
<path opacity="0.3" d="M546.495 158.761H147.99V236.334H546.495V158.761Z" fill="#F04B5D"/>
<path opacity="0.3" d="M147.99 236.334L546.495 158.761" stroke="#F04B5D" stroke-width="2" stroke-miterlimit="10"/>
<path opacity="0.3" d="M546.495 236.334L147.99 158.761" stroke="#F04B5D" stroke-width="2" stroke-miterlimit="10"/>
<path opacity="0.3" d="M243.087 285.463H147.99V410.226H243.087V285.463Z" fill="#F04B5D"/>
<path opacity="0.3" d="M546.495 285.463H451.397V410.226H546.495V285.463Z" fill="#F04B5D"/>
<path opacity="0.3" d="M394.791 285.463H299.693V410.226H394.791V285.463Z" fill="#F04B5D"/>
<path opacity="0.3" d="M147.99 285.463L243.087 410.226" stroke="#F04B5D" stroke-width="2" stroke-miterlimit="10"/>
<path opacity="0.3" d="M243.087 285.463L147.99 410.226" stroke="#F04B5D" stroke-width="2" stroke-miterlimit="10"/>
<path opacity="0.3" d="M300.017 285.463L395.115 410.226" stroke="#F04B5D" stroke-width="2" stroke-miterlimit="10"/>
<path opacity="0.3" d="M395.115 285.463L300.017 410.226" stroke="#F04B5D" stroke-width="2" stroke-miterlimit="10"/>
<path opacity="0.3" d="M451.397 285.463L546.495 410.226" stroke="#F04B5D" stroke-width="2" stroke-miterlimit="10"/>
<path opacity="0.3" d="M546.495 285.463L451.397 410.226" stroke="#F04B5D" stroke-width="2" stroke-miterlimit="10"/>
<path d="M599.542 158.761H201.037V236.334H599.542V158.761Z" fill="#F04B5D"/>
<path d="M564.608 315.199H469.511V439.962H564.608V315.199Z" fill="#F04B5D"/>
<path d="M550.7 331.683H483.42V339.441H550.7V331.683Z" fill="#3F3D56"/>
<path d="M550.7 348.491H483.42V356.248H550.7V348.491Z" fill="#3F3D56"/>
<path d="M550.7 365.298H483.42V373.055H550.7V365.298Z" fill="#3F3D56"/>
<path d="M550.7 382.106H483.42V389.863H550.7V382.106Z" fill="#3F3D56"/>
<path d="M550.7 398.913H483.42V406.67H550.7V398.913Z" fill="#3F3D56"/>
<path d="M550.7 415.72H483.42V423.478H550.7V415.72Z" fill="#3F3D56"/>
<path d="M266.377 302.271H171.279V427.033H266.377V302.271Z" fill="#F04B5D"/>
<path d="M252.468 343.966H185.188V351.723H252.468V343.966Z" fill="#3F3D56"/>
<path d="M252.468 360.773H185.188V368.53H252.468V360.773Z" fill="#3F3D56"/>
<path d="M252.468 377.581H185.188V385.338H252.468V377.581Z" fill="#3F3D56"/>
<path d="M53.1972 234.445C61.5694 234.445 68.3564 227.663 68.3564 219.297C68.3564 210.931 61.5694 204.149 53.1972 204.149C44.825 204.149 38.0381 210.931 38.0381 219.297C38.0381 227.663 44.825 234.445 53.1972 234.445Z" fill="#2F2E41"/>
<path d="M45.2159 229.382C45.2159 229.382 45.4441 238.732 44.5312 238.96C43.6182 239.188 57.0837 242.837 57.0837 242.837L58.453 230.066L45.2159 229.382Z" fill="#A0616A"/>
<path d="M151.57 309.201C151.57 309.201 161.612 309.201 161.84 308.061C162.068 306.921 164.122 317.411 164.122 317.411L160.014 318.78C160.014 318.78 152.254 315.359 151.57 315.359C150.885 315.359 151.57 309.201 151.57 309.201Z" fill="#A0616A"/>
<path d="M162.525 313.306C162.525 313.306 160.699 307.149 158.416 306.921C158.416 306.921 166.176 301.904 166.404 300.307C166.633 298.711 169.371 294.606 170.512 295.974C171.654 297.342 171.654 319.008 169.6 321.288C167.546 323.569 158.416 318.083 158.416 318.083C158.416 318.083 164.122 315.587 162.525 313.306Z" fill="#2F2E41"/>
<path d="M38.5974 400.652L36.7718 410.458L45.2161 411.827V400.652H38.5974Z" fill="#A0616A"/>
<path d="M38.5973 409.318C38.5973 409.318 37.2279 404.985 36.315 405.669C35.4021 406.353 34.0327 410.686 34.2609 411.827C34.4892 412.967 36.0868 421.861 35.4021 423.457C34.7174 425.054 38.8255 433.264 44.0747 432.58C49.324 431.896 48.8675 427.334 48.8675 427.334L47.0417 420.265L46.357 409.09C46.357 409.09 40.4231 408.178 38.5973 409.318Z" fill="#2F2E41"/>
<path d="M47.8943 209.622C51.3587 209.622 54.1671 206.816 54.1671 203.354C54.1671 199.893 51.3587 197.086 47.8943 197.086C44.43 197.086 41.6216 199.893 41.6216 203.354C41.6216 206.816 44.43 209.622 47.8943 209.622Z" fill="#2F2E41"/>
<path d="M39.5307 199.959C39.5308 198.41 40.1051 196.915 41.1427 195.764C42.1804 194.613 43.608 193.886 45.15 193.725C44.933 193.702 44.7149 193.691 44.4966 193.691C42.833 193.691 41.2375 194.351 40.0611 195.527C38.8848 196.702 38.2239 198.297 38.2239 199.959C38.2239 201.621 38.8848 203.216 40.0611 204.391C41.2375 205.567 42.833 206.227 44.4966 206.227C44.7149 206.227 44.933 206.216 45.15 206.193C43.608 206.032 42.1804 205.305 41.1427 204.154C40.1051 203.003 39.5308 201.508 39.5307 199.959Z" fill="#2F2E41"/>
<path d="M53.2038 235.767C58.4978 235.767 62.7893 231.479 62.7893 226.189C62.7893 220.899 58.4978 216.611 53.2038 216.611C47.9099 216.611 43.6183 220.899 43.6183 226.189C43.6183 231.479 47.9099 235.767 53.2038 235.767Z" fill="#A0616A"/>
<path d="M34.261 292.781C34.261 292.781 34.7174 304.184 36.5432 310.114C38.3691 316.043 44.9516 358.271 43.5822 361.464C42.2128 364.657 35.1739 399.968 36.7715 402.02C38.369 404.073 45.9005 403.388 45.9005 403.388L56.1347 360.552C56.1347 360.552 54.1167 313.306 71.0055 312.166C87.8943 311.026 115.51 310.342 115.51 310.342C115.51 310.342 133.311 315.587 141.299 315.359C149.287 315.131 153.852 317.411 153.852 317.411L155.221 308.061L119.846 300.307C119.846 300.307 87.4378 289.132 69.6361 292.097C51.8344 295.062 34.261 292.781 34.261 292.781Z" fill="#2F2E41"/>
<path d="M47.0417 235.995C47.0417 235.995 44.3029 234.399 43.6183 235.995C42.9336 237.592 38.1408 238.96 36.315 237.592C34.4892 236.223 29.9246 238.048 29.9246 238.048L24.9037 252.872C24.9037 252.872 27.4141 265.643 29.6964 272.712C31.9787 279.782 32.8916 294.378 31.9787 295.746C31.0658 297.114 50.2368 302.588 59.5941 299.167C68.9514 295.746 71.0055 291.869 71.0055 291.869C71.0055 291.869 60.7353 277.274 64.1587 270.432C67.5821 263.59 64.8434 255.836 64.8434 255.836L66.2127 248.082L58.453 243.749C58.453 243.749 57.9966 239.644 56.1707 239.644C54.3449 239.644 47.0417 235.995 47.0417 235.995Z" fill="#D0CDE1"/>
<path d="M62.7893 248.311H66.2127C67.1624 249.199 67.8702 250.313 68.2694 251.55C68.6687 252.787 68.7463 254.105 68.495 255.38C67.5821 259.713 63.4649 274.079 63.4649 274.079L60.0506 265.187L62.7893 248.311Z" fill="#D0CDE1"/>
<path d="M72.6199 284.935C72.6199 284.935 79.4499 292.325 74.4289 296.202C69.4079 300.079 68.1707 287.308 68.1707 287.308L72.6199 284.935Z" fill="#A0616A"/>
<path d="M62.7893 269.52L64.3869 275.905L67.1256 280.923C67.1256 280.923 76.4829 287.08 76.4829 289.361C76.4829 289.361 72.3748 284.115 67.1256 289.361L62.447 278.072L62.7893 269.52Z" fill="#D0CDE1"/>
<path d="M54.9607 222.354C60.7346 222.354 65.4153 219.547 65.4153 216.086C65.4153 212.624 60.7346 209.818 54.9607 209.818C49.1868 209.818 44.5061 212.624 44.5061 216.086C44.5061 219.547 49.1868 222.354 54.9607 222.354Z" fill="#2F2E41"/>
<path d="M34.261 216.611C34.261 216.611 41.5642 212.506 44.5312 215.47C47.4981 218.435 35.6303 222.996 35.6303 222.996L34.261 216.611Z" fill="#A0616A"/>
<path d="M31.5222 239.188L29.9246 238.048C29.9246 238.048 28.0988 235.311 26.5012 236.223C24.9036 237.136 15.5463 232.803 15.5463 232.803C15.5463 232.803 18.9697 234.399 18.9697 231.662C18.9697 228.926 19.4262 229.382 21.7085 229.382C23.9907 229.382 23.9907 230.522 24.9036 228.926C25.8165 227.329 25.3601 226.417 26.9577 227.329C28.5552 228.242 30.3811 227.557 30.8375 226.873C31.294 226.189 39.5102 225.049 39.5102 225.049C39.5102 225.049 36.315 215.698 35.6303 215.014C34.9456 214.33 17.3722 222.084 17.3722 222.084C17.3722 222.084 -4.76582 228.242 0.939854 235.311C6.64553 242.381 27.1859 253.1 27.1859 253.1L31.5222 239.188Z" fill="#D0CDE1"/>
<path d="M373.766 333.3H278.668V458.062H373.766V333.3Z" fill="#F04B5D"/>
<path d="M363.739 404.731H288.696V409.902H363.739V404.731Z" fill="#3F3D56"/>
<path d="M363.739 418.953H288.696V424.124H363.739V418.953Z" fill="#3F3D56"/>
<path d="M363.739 433.174H288.696V438.346H363.739V433.174Z" fill="#3F3D56"/>
<path d="M169.903 468.685C169.903 478.111 164.296 481.402 157.378 481.402C157.218 481.402 157.058 481.4 156.898 481.397C156.578 481.39 156.26 481.375 155.947 481.353C149.704 480.912 144.854 477.451 144.854 468.685C144.854 459.613 156.455 448.166 157.326 447.319L157.328 447.318C157.362 447.285 157.378 447.269 157.378 447.269C157.378 447.269 169.903 459.26 169.903 468.685Z" fill="#F04B5D"/>
<path d="M156.922 479.96L161.503 473.564L156.911 480.662L156.898 481.397C156.578 481.39 156.26 481.375 155.947 481.353L156.44 471.923L156.437 471.85L156.445 471.836L156.492 470.945L151.888 463.83L156.506 470.278L156.517 470.467L156.89 463.342L152.949 455.988L156.938 462.091L157.326 447.319L157.328 447.269V447.318L157.263 458.966L161.187 454.348L157.247 459.97L157.143 466.349L160.807 460.227L157.128 467.288L157.07 470.834L162.389 462.313L157.05 472.072L156.922 479.96Z" fill="#3F3D56"/>
</svg>
