<svg width="630" height="357" viewBox="0 0 630 357" fill="none" xmlns="http://www.w3.org/2000/svg">
<g clip-path="url(#clip0)">
<path d="M66.1124 328.042L65.109 327.666C64.8885 327.583 42.9438 319.176 32.6639 300.115C22.3836 281.053 27.4174 258.102 27.4695 257.873L27.7064 256.828L28.7093 257.204C28.9298 257.287 50.8741 265.693 61.1544 284.754C71.4347 303.817 66.4009 326.768 66.3489 326.997L66.1124 328.042ZM34.3101 299.228C43.0013 315.344 60.3428 323.605 64.7365 325.491C65.5719 320.783 68.1918 301.743 59.5083 285.642C50.8257 269.543 33.4774 261.269 29.0818 259.378C28.246 264.089 25.6271 283.128 34.3101 299.228Z" fill="#3F3D56"/>
<path d="M41.312 295.012C59.7862 306.125 66.9013 328.198 66.9013 328.198C66.9013 328.198 44.0636 332.254 25.5893 321.141C7.11501 310.028 0 287.955 0 287.955C0 287.955 22.8377 283.899 41.312 295.012Z" fill="#F04B5D"/>
<path d="M153.111 301.843C153.111 331.139 131.308 329.553 104.413 329.553C77.5185 329.553 55.716 331.139 55.716 301.843C55.716 272.548 77.5185 223.465 104.413 223.465C131.308 223.465 153.111 272.548 153.111 301.843Z" fill="#3F3D56"/>
<path d="M587.824 328.761H24.0429V330.345H587.824V328.761Z" fill="#3F3D56"/>
<path d="M267.627 59.9325C267.601 59.8494 267.573 59.7652 267.547 59.6819C267.559 59.7184 267.573 59.7536 267.584 59.7902L267.627 59.9325Z" fill="#2F2E41"/>
<path d="M177.559 255.039L160.931 270.873L147.47 256.622L168.057 246.33L177.559 255.039Z" fill="#A0616A"/>
<path d="M156.129 258.167C156.129 258.167 176.274 256.851 173.919 262.731C171.565 268.611 176.556 290.224 176.556 290.224C176.556 290.224 184.041 329.039 160.373 313.594C136.706 298.148 141.856 287.418 141.856 287.418C141.856 287.418 134.949 276.978 136.421 273.303C137.892 269.628 149.588 255.515 151.829 257.282C152.407 257.792 153.107 258.142 153.862 258.297C154.616 258.452 155.398 258.408 156.129 258.167Z" fill="#2F2E41"/>
<path d="M149.053 192.494C149.053 192.494 237.738 185.369 244.864 203.578C251.991 221.787 237.738 235.246 237.738 235.246L179.935 263.748L161.498 247.258L172.016 237.621C172.016 237.621 112.629 248.705 111.046 239.997C109.462 231.288 117.38 185.369 149.053 192.494Z" fill="#2F2E41"/>
<path d="M251.991 208.329C251.991 208.329 267.827 252.664 251.991 250.289C236.154 247.914 237.738 212.287 237.738 212.287L251.991 208.329Z" fill="#A0616A"/>
<path d="M216.755 117.679C216.755 117.679 226.652 122.825 225.069 129.158C223.485 135.492 231.403 175.077 231.403 175.077L255.158 209.912L235.362 217.037C235.362 217.037 210.024 200.412 206.065 188.536C202.106 176.661 196.563 158.451 196.563 158.451L216.755 117.679Z" fill="#D0CDE1"/>
<path d="M211.608 99.0737C226.039 99.0737 237.738 87.3766 237.738 72.9475C237.738 58.5184 226.039 46.8213 211.608 46.8213C197.176 46.8213 185.477 58.5184 185.477 72.9475C185.477 87.3766 197.176 99.0737 211.608 99.0737Z" fill="#A0616A"/>
<path d="M213.587 91.5524C213.587 91.5524 210.42 117.679 212.004 127.971C213.587 138.263 180.33 90.7607 180.33 90.7607C180.33 90.7607 194.583 80.4686 194.583 76.5101C194.583 72.5516 213.587 91.5524 213.587 91.5524Z" fill="#A0616A"/>
<path d="M243.225 62.8973C240.686 62.5949 238.12 62.6126 235.586 62.9502C233.028 63.3026 230.697 64.6052 229.057 66.5986C227.249 69.0177 226.649 72.6922 223.817 73.7412C222.129 74.3663 220.176 73.7715 218.487 74.3935C216.46 75.1402 215.43 77.3811 214.891 79.4728C214.352 81.5645 214.039 83.8297 212.659 85.4914C211.279 87.1532 208.307 87.7116 207.085 85.9304C207.311 84.0196 207.213 82.0843 206.795 80.2061C206.575 79.2684 206.126 78.4 205.487 77.6792C204.849 76.9585 204.04 76.4081 203.136 76.0778C200.024 75.1767 197.127 77.8799 195.032 80.3502C192.937 82.8205 190.131 85.5754 186.985 84.8023C183.684 83.991 182.557 79.9304 182.193 76.5509C181.365 68.8518 181.488 60.6764 185.212 53.887C190.602 44.0605 202.905 39.2916 214.008 40.8323C225.11 42.3731 234.91 49.3027 242.072 57.9236C243.237 59.3249 244.383 60.8645 244.632 62.669" fill="#2F2E41"/>
<path d="M209.628 122.429L200.918 113.72L185.873 83.6355L145.49 96.3027C145.49 96.3027 131.237 100.261 122.527 125.596C122.527 125.596 70.2666 192.89 78.9767 203.974C87.6868 215.058 89.2704 214.266 103.523 205.558C112.465 200.174 122.04 195.919 132.029 192.89L170.037 196.849L193 168.348C193 168.348 227.048 146.18 221.505 120.846L212.004 108.178L209.628 122.429Z" fill="#575A89"/>
<path d="M203.689 201.995L208.44 205.162C208.44 205.162 234.571 237.621 221.901 243.955C209.232 250.289 196.563 212.287 196.563 212.287L203.689 201.995Z" fill="#A0616A"/>
<path d="M167.782 97.1816C168.726 97.2522 169.645 97.5191 170.48 97.9651C171.314 98.4111 172.047 99.0265 172.63 99.7718C175.772 103.768 180.454 113.168 173.6 129.158C168.04 141.964 163.537 155.203 160.139 168.743C160.139 168.743 164.098 167.952 164.098 171.118C164.098 174.285 160.931 172.702 164.098 174.285C167.265 175.869 166.474 173.494 167.265 175.869C168.092 178.349 167.192 178.239 169.074 179.146C170.966 180.19 172.615 181.624 173.912 183.351C174.268 183.825 174.697 184.239 175.184 184.577L204.481 199.62C204.481 199.62 208.44 215.454 196.563 215.454C196.563 215.454 123.715 194.87 125.299 179.036C126.847 163.555 129.909 94.3465 167.782 97.1816Z" fill="#D0CDE1"/>
<path d="M152.221 296.999V317.584L130.05 316L134.801 295.416L152.221 296.999Z" fill="#A0616A"/>
<path d="M136.384 306.5C136.384 306.5 154.596 297.791 154.596 304.125C154.596 310.458 167.265 328.667 167.265 328.667C167.265 328.667 188.645 361.919 160.931 356.377C133.217 350.835 134.009 338.96 134.009 338.96C134.009 338.96 123.715 331.834 123.715 327.876C123.715 323.917 129.326 306.469 132.063 307.276C132.788 307.535 133.569 307.599 134.327 307.463C135.085 307.327 135.794 306.995 136.384 306.5Z" fill="#2F2E41"/>
<path d="M114.213 194.078C114.213 194.078 170.433 181.411 168.057 201.995C165.682 222.579 163.306 234.455 163.306 234.455L153.804 301.749L131.633 299.374L130.049 286.707C130.049 286.707 125.299 281.957 127.674 278.79C130.049 275.623 123.715 244.747 123.715 244.747C123.715 244.747 85.7072 252.664 82.5399 229.704C79.3726 206.745 87.2908 199.62 87.2908 199.62L114.213 194.078Z" fill="#2F2E41"/>
<path d="M473.218 99.3401H331.381V100.934H473.218V99.3401Z" fill="#3F3D56"/>
<path d="M473.218 110.494H331.381V112.088H473.218V110.494Z" fill="#3F3D56"/>
<path d="M473.218 121.648H331.381V123.242H473.218V121.648Z" fill="#3F3D56"/>
<g clip-path="url(#clip1)">
<path d="M359.992 58.8668H356.725V53.1501L351.009 60.5001H354.275L353.459 67.0335L359.992 58.8668Z" fill="#DC691D"/>
<path d="M342.077 76.4643C338.591 76.4643 335.926 75.4419 334.625 73.3251C331.389 68.0576 338.024 58.2984 349.729 51.1068C361.434 43.9136 373.139 42.4077 376.375 47.6752C379.611 52.9427 372.976 62.7019 361.271 69.8934V69.8943C354.269 74.1965 347.266 76.4643 342.077 76.4643ZM369.022 46.1676C364.161 46.1676 357.251 48.402 350.584 52.4984C340.023 58.986 333.352 68.1327 336.016 72.47C338.681 76.8074 349.854 74.9903 360.416 68.5019C370.977 62.0142 377.648 52.8676 374.983 48.5303C374.001 46.9312 371.861 46.1676 369.022 46.1676Z" fill="#488DD7"/>
<path d="M368.924 76.4642C363.735 76.4642 356.732 74.1963 349.729 69.8941C344.247 66.5253 339.65 62.4265 336.785 58.3538C333.784 54.0851 333.017 50.2933 334.625 47.6751C335.187 46.7588 336.028 46.0262 337.122 45.497L337.796 45.1712L338.179 45.8131C338.479 46.3161 339.001 46.6167 339.575 46.6167C340.381 46.6167 341.056 46.0352 341.18 45.234L341.286 44.544L341.985 44.5415C342.002 44.5415 342.02 44.5415 342.037 44.5415C347.391 44.5415 354.575 46.9931 361.271 51.1067C366.753 54.4746 371.35 58.5735 374.215 62.6462C377.216 66.9149 377.983 70.7067 376.375 73.3249C375.075 75.4409 372.408 76.4642 368.924 76.4642ZM337.266 47.2847C336.733 47.6277 336.314 48.045 336.017 48.5293C334.79 50.5277 335.557 53.7658 338.121 57.4138C340.861 61.3093 345.286 65.2473 350.584 68.5017C361.145 74.9893 372.32 76.808 374.984 72.469C376.211 70.4707 375.444 67.2326 372.88 63.5845C370.14 59.689 365.714 55.7511 360.417 52.4975C354.206 48.6812 347.609 46.3504 342.607 46.1838C342.127 47.4154 340.946 48.25 339.575 48.25C338.691 48.25 337.87 47.8988 337.266 47.2847Z" fill="#DDAF08"/>
<path d="M355.5 85C349.318 85 344.475 74.238 344.475 60.5C344.475 46.762 349.318 36 355.5 36C361.683 36 366.525 46.762 366.525 60.5C366.525 67.7267 365.136 74.5279 362.714 79.1608L362.326 79.9024L361.594 79.4973C360.467 78.8734 359.175 79.7521 359.175 80.9167C359.175 81.3577 359.35 81.7717 359.669 82.0829L360.299 82.7011L359.634 83.2817C358.329 84.4218 356.939 85 355.5 85ZM355.5 37.6333C350.41 37.6333 346.109 48.1046 346.109 60.5C346.109 72.8954 350.41 83.3667 355.5 83.3667C356.328 83.3667 357.153 83.0816 357.963 82.5198C357.688 82.0355 357.542 81.4875 357.542 80.9167C357.542 79.1151 359.007 77.65 360.809 77.65C361.074 77.65 361.336 77.6835 361.594 77.7496C363.695 73.365 364.892 67.1338 364.892 60.5C364.892 48.1046 360.591 37.6333 355.5 37.6333Z" fill="#EC2827"/>
<path d="M339.575 48.2499C337.774 48.2499 336.309 46.7848 336.309 44.9832C336.309 43.1817 337.774 41.7166 339.575 41.7166C341.377 41.7166 342.842 43.1817 342.842 44.9832C342.842 46.7848 341.376 48.2499 339.575 48.2499ZM339.575 43.3499C338.675 43.3499 337.942 44.0824 337.942 44.9832C337.942 45.884 338.675 46.6166 339.575 46.6166C340.476 46.6166 341.209 45.884 341.209 44.9832C341.209 44.0824 340.476 43.3499 339.575 43.3499Z" fill="#636DB5"/>
<path d="M360.809 84.1835C359.007 84.1835 357.542 82.7184 357.542 80.9168C357.542 79.1152 359.007 77.6501 360.809 77.6501C362.61 77.6501 364.075 79.1152 364.075 80.9168C364.075 82.7184 362.609 84.1835 360.809 84.1835ZM360.809 79.2835C359.908 79.2835 359.175 80.016 359.175 80.9168C359.175 81.8176 359.908 82.5502 360.809 82.5502C361.71 82.5502 362.442 81.8176 362.442 80.9168C362.442 80.016 361.71 79.2835 360.809 79.2835Z" fill="#636DB5"/>
</g>
<path d="M302.669 74.2344C306.167 74.2344 309.003 71.3987 309.003 67.9008C309.003 64.4028 306.167 61.5671 302.669 61.5671C299.17 61.5671 296.334 64.4028 296.334 67.9008C296.334 71.3987 299.17 74.2344 302.669 74.2344Z" fill="#F04B5D"/>
<path d="M579.335 238.15H437.497V239.744H579.335V238.15Z" fill="#3F3D56"/>
<path d="M579.335 249.304H437.497V250.898H579.335V249.304Z" fill="#3F3D56"/>
<path d="M579.335 260.458H437.497V262.052H579.335V260.458Z" fill="#3F3D56"/>
<path d="M408.785 213.044C412.284 213.044 415.12 210.209 415.12 206.711C415.12 203.213 412.284 200.377 408.785 200.377C405.287 200.377 402.45 203.213 402.45 206.711C402.45 210.209 405.287 213.044 408.785 213.044Z" fill="#F04B5D"/>
<g clip-path="url(#clip2)">
<path d="M453.378 162.827C452.512 162.237 449.513 160.701 445.738 164.358C441.962 160.701 438.963 162.237 438.097 162.827C435.59 164.536 434.828 168.277 436.362 171.345C439.133 176.887 445.194 178.961 445.45 179.046C445.636 179.108 445.84 179.108 446.025 179.046C446.282 178.961 452.343 176.887 455.114 171.345C456.647 168.277 455.885 164.536 453.378 162.827Z" fill="#FFB1BB"/>
<path d="M443.231 191.26C442.189 190.55 440.539 190.403 438.819 191.882C437.099 190.403 435.449 190.55 434.407 191.26C432.869 192.308 432.392 194.585 433.322 196.444C434.913 199.627 438.385 200.814 438.532 200.863C438.717 200.925 438.921 200.925 439.107 200.863C439.254 200.814 442.725 199.627 444.317 196.444C445.246 194.585 444.769 192.308 443.231 191.26Z" fill="#FFD8DD"/>
<path d="M477.068 214.322L462.843 193.358V183.638C462.843 183.136 462.436 182.729 461.934 182.729H452.843C452.341 182.729 451.934 183.136 451.934 183.638V193.358L437.709 214.322C436.951 215.439 436.873 216.874 437.505 218.067C438.137 219.259 439.368 220 440.718 220H474.059C475.409 220 476.64 219.259 477.272 218.066C477.904 216.874 477.826 215.439 477.068 214.322Z" fill="#EFECF1"/>
<path d="M453.752 193.638V188.183C453.752 187.179 454.566 186.365 455.57 186.365H462.843V182.729H452.843C452.341 182.729 451.934 183.136 451.934 183.638V193.358L446.193 201.819H448.24L453.752 193.638Z" fill="#EBE3EF"/>
<path d="M477.068 214.322L468.584 201.819H446.193L437.709 214.322C436.951 215.439 436.873 216.874 437.505 218.066C438.137 219.259 439.368 220 440.718 220H474.059C475.409 220 476.64 219.259 477.272 218.066C477.904 216.874 477.826 215.439 477.068 214.322Z" fill="#FE5578"/>
<path d="M441.45 215.339C440.818 214.146 440.897 212.712 441.654 211.595L448.241 201.819H446.193L437.709 214.322C436.951 215.439 436.873 216.874 437.505 218.066C438.137 219.259 439.368 220 440.718 220H474.059C475.409 220 476.64 219.259 477.272 218.066C477.407 217.811 477.508 217.544 477.579 217.273H444.663C443.313 217.273 442.082 216.532 441.45 215.339Z" fill="#FE3F67"/>
<path d="M464.661 180.911H450.116C449.614 180.911 449.207 181.318 449.207 181.82V183.638C449.207 184.14 449.614 184.547 450.116 184.547H464.661C465.163 184.547 465.57 184.14 465.57 183.638V181.82C465.57 181.318 465.163 180.911 464.661 180.911Z" fill="#EFECF1"/>
<path d="M461.8 205.804C460.759 205.094 459.109 204.947 457.389 206.427C455.668 204.947 454.018 205.095 452.977 205.804C451.439 206.853 450.962 209.13 451.891 210.988C453.483 214.171 456.954 215.359 457.101 215.408C457.287 215.47 457.491 215.47 457.676 215.408C457.823 215.359 461.295 214.171 462.886 210.988C463.815 209.13 463.338 206.853 461.8 205.804Z" fill="#EFECF1"/>
<path d="M479.593 176.715C478.551 176.005 476.901 175.858 475.181 177.337C473.461 175.858 471.811 176.005 470.769 176.715C469.231 177.763 468.754 180.04 469.683 181.899C471.275 185.082 474.747 186.27 474.893 186.319C475.079 186.381 475.283 186.381 475.469 186.319C475.615 186.27 479.087 185.082 480.678 181.899C481.608 180.04 481.131 177.763 479.593 176.715Z" fill="#FE6A89"/>
</g>
</g>
<defs>
<clipPath id="clip0">
<rect width="630" height="357" fill="white"/>
</clipPath>
<clipPath id="clip1">
<rect x="331" y="36" width="49" height="49" fill="white"/>
</clipPath>
<clipPath id="clip2">
<rect x="428" y="162" width="58" height="58" fill="white"/>
</clipPath>
</defs>
</svg>
