<svg width="144" height="187" viewBox="0 0 144 187" fill="none" xmlns="http://www.w3.org/2000/svg">
<path d="M144 114.845C144.013 129.038 139.842 142.919 132.008 154.748C124.175 166.577 113.028 175.828 99.9651 181.341C86.9023 186.853 72.5048 188.382 58.5775 185.736C44.6502 183.091 31.813 176.387 21.675 166.467C11.537 156.547 4.54948 143.851 1.58835 129.971C-1.37278 116.091 -0.175724 101.645 5.02945 88.4435C10.2346 75.2419 19.2163 63.8725 30.8485 55.7606C42.4806 47.6486 56.2457 43.155 70.4181 42.8432C70.6417 42.8383 70.8652 42.8335 71.0937 42.8286C71.4145 42.8237 71.7401 42.8237 72.0658 42.8237C72.8823 42.8237 73.6989 42.8383 74.5106 42.8675C76.2992 42.9259 78.0684 43.0492 79.8181 43.2374C80.8291 43.3444 81.8255 43.4758 82.8219 43.6218C82.9337 43.6413 83.0503 43.6559 83.1621 43.6753C87.2738 44.31 91.3218 45.3049 95.2597 46.6486C109.475 51.5027 121.818 60.6878 130.558 72.9172C139.299 85.1465 143.999 99.8072 144 114.845Z" fill="#F04B5D"/>
<path d="M17.0236 118.733C17.1659 118.508 16.7955 118.017 16.1962 117.637C15.5969 117.257 14.9958 117.132 14.8535 117.357C14.7112 117.582 15.0816 118.072 15.6809 118.452C16.2801 118.832 16.8813 118.958 17.0236 118.733Z" fill="#3F3D56"/>
<path d="M14.9211 114.546C15.24 114.042 15.7459 113.685 16.3275 113.554C16.9091 113.423 17.5188 113.529 18.0224 113.849L46.505 131.907C47.0086 132.226 47.3649 132.733 47.4955 133.315C47.6261 133.898 47.5204 134.508 47.2014 135.012L14.9211 114.546Z" fill="#D0CDE1"/>
<path d="M12.2267 115.501L13.1228 114.084C13.3407 113.74 13.6865 113.496 14.0839 113.407C14.4813 113.317 14.898 113.39 15.2421 113.608L47.672 134.169C47.8738 134.297 48.0484 134.463 48.186 134.659C48.3235 134.854 48.4213 135.075 48.4736 135.308C48.5259 135.542 48.5319 135.783 48.491 136.019C48.4502 136.254 48.3634 136.48 48.2356 136.682L47.491 137.859L12.2267 115.501Z" fill="#2F2E41"/>
<path d="M17.0552 116.279L16.7116 116.822L18.8817 118.198L19.2253 117.655L17.0552 116.279Z" fill="#D0CDE1"/>
<path d="M20.0391 118.171L19.6955 118.714L21.8656 120.09L22.2092 119.547L20.0391 118.171Z" fill="#D0CDE1"/>
<path d="M63.0231 52.1842C74.2039 52.1842 83.2677 43.1094 83.2677 31.9151C83.2677 20.7208 74.2039 11.646 63.0231 11.646C51.8424 11.646 42.7786 20.7208 42.7786 31.9151C42.7786 43.1094 51.8424 52.1842 63.0231 52.1842Z" fill="#FFB8B8"/>
<path d="M64.2576 46.2518C64.2576 46.2518 74.133 61.8244 71.6641 66.2737C69.1953 70.723 61.5419 82.835 61.5419 82.835C61.5419 82.835 95.612 57.6223 91.1681 52.1842C91.1681 52.1842 81.0458 43.5328 80.552 38.0947L64.2576 46.2518Z" fill="#FFB8B8"/>
<path d="M91.5367 184.2C75.1122 188.792 57.5947 187.422 42.0819 180.331L43.6372 138.724L43.7539 135.488L43.7977 134.437L43.8511 132.889L43.89 131.901C43.89 131.901 43.9531 131.897 44.0746 131.892C44.4052 131.867 45.1682 131.814 46.2618 131.751C47.5304 131.678 49.2364 131.585 51.2243 131.502C51.6958 131.483 52.1818 131.463 52.6825 131.439C63.1518 131.05 79.5023 130.967 81.6651 134.125L81.9373 135.984L82.3748 138.987L83.2691 145.123C83.2691 145.123 93.4371 165.367 91.5367 184.2Z" fill="#2F2E41"/>
<path d="M110.178 77.3966L92.6888 116.138L85.0946 132.956L82.2801 139.193L41.5441 138.698L45.7412 110.272C39.816 94.9466 53.8884 88.767 53.8884 88.767L65.7389 76.1236V78.1381C65.7389 78.1381 77.3425 64.2958 82.527 56.386C87.7116 48.4761 94.8713 51.4423 94.8713 51.4423C107.216 50.2063 110.178 77.3966 110.178 77.3966Z" fill="#575A89"/>
<path opacity="0.2" d="M92.6889 116.138L85.0947 132.956C82.6555 128.388 80.7989 123.215 80.7989 120.159C80.7989 111.755 89.193 116.205 89.193 116.205C89.193 116.205 82.4037 79.0034 82.4037 67.8801C82.4037 60.4918 88.556 93.2807 92.6889 116.138Z" fill="black"/>
<path d="M85.9834 118.924L49.1976 118.182C49.1976 118.182 22.2871 120.407 26.2373 131.283C30.1874 142.159 51.6664 131.283 51.6664 131.283L94.6244 137.957L85.9834 118.924Z" fill="#FFB8B8"/>
<path d="M92.8962 53.4199C92.8962 53.4199 80.0582 54.4086 80.0582 65.5319C80.0582 76.6552 91.6618 116.205 91.6618 116.205C91.6618 116.205 83.2677 111.755 83.2677 120.16C83.2677 128.564 97.3402 153.035 98.8215 136.721C98.8215 136.721 120.054 147.103 118.819 127.575C117.585 108.048 104.253 66.7678 104.253 66.7678C104.253 66.7678 102.772 52.6783 92.8962 53.4199Z" fill="#575A89"/>
<path d="M63.6966 29.7102C62.2789 28.3366 62.305 26.0198 61.1625 24.4095C59.3683 21.8809 55.6328 22.0504 52.5656 22.4869C50.5268 22.7771 48.4582 23.0757 46.5662 23.8826C45.7194 24.2314 44.9652 24.7724 44.3629 25.4629C43.7607 26.1535 43.3268 26.9746 43.0957 27.8616C42.8554 28.8578 42.3257 26.0314 41.7867 22.3708C41.2344 18.6358 41.8806 14.8217 43.6323 11.478C45.3839 8.13431 48.1506 5.43369 51.5336 3.76525C51.5738 3.74548 51.6137 3.72598 51.6532 3.70675C55.1225 2.01879 58.7569 0.528075 62.5914 0.109198C66.4258 -0.309679 70.5174 0.44874 73.5248 2.86701C74.8993 3.97227 76.0173 5.39117 77.4909 6.36C80.08 8.06223 83.3587 8.14467 86.4353 8.50353C89.9148 8.90938 93.4022 9.76161 96.4061 11.5661C99.41 13.3705 101.899 16.2172 102.734 19.6234C103.708 23.5966 102.118 28.2934 98.2163 30.0175C97.535 30.3046 96.9308 30.7484 96.4529 31.3131C93.249 35.2344 98.4212 37.38 99.1712 40.7933C99.7971 43.6414 97.0616 46.2201 94.2561 47.0043C89.0311 48.4649 82.9491 45.5555 80.8011 40.5681C79.8388 38.3338 79.6197 35.8623 79.3579 33.4433C79.0583 30.6743 71.8045 25.6591 76.7015 29.4316C77.6518 30.1441 78.4004 31.0921 78.8737 32.1822C80.3633 35.7527 77.2716 37.7793 75.6133 40.3285C74.7106 41.7623 74.2274 43.4206 74.2183 45.1155C74.2093 46.8103 74.6748 48.4737 75.5621 49.9171C71.2637 47.6685 69.0895 42.0323 70.7624 37.4746C71.2071 36.2632 71.8812 35.1432 72.2852 33.9175C72.9158 32.005 72.3585 28.2884 69.5392 29.0419C67.5268 29.5797 65.807 31.7551 63.6966 29.7102Z" fill="#2F2E41"/>
</svg>
