<svg width="444" height="399" viewBox="0 0 444 399" fill="none" xmlns="http://www.w3.org/2000/svg">
<path d="M362.1 311.752H341.253L289.88 291.65C289.88 291.65 253.397 276.759 256.375 305.051C259.354 333.343 264.565 371.313 264.565 371.313C264.565 371.313 280.945 363.868 289.88 366.101C298.814 368.335 292.858 320.686 292.858 320.686C292.858 320.686 365.823 355.678 372.524 351.211C379.225 346.744 380.714 315.474 380.714 315.474L362.1 311.752Z" fill="#2F2E41"/>
<path opacity="0.1" d="M362.1 311.752H341.253L289.88 291.65C289.88 291.65 253.397 276.759 256.375 305.051C259.354 333.343 264.565 371.313 264.565 371.313C264.565 371.313 280.945 363.868 289.88 366.101C298.814 368.335 292.858 320.686 292.858 320.686C292.858 320.686 365.823 355.678 372.524 351.211C379.225 346.744 380.714 315.474 380.714 315.474L362.1 311.752Z" fill="black"/>
<path d="M329.256 246.468L304.026 282.715L245.207 331.854C245.207 331.854 190.856 344.51 198.301 353.445C205.747 362.379 251.164 344.51 251.164 344.51C251.164 344.51 318.917 295.372 321.151 291.65C323.384 287.927 347.954 252.935 347.954 252.935L329.256 246.468Z" fill="#A0616A"/>
<path opacity="0.1" d="M329.256 246.468L304.026 282.715L245.207 331.854C245.207 331.854 190.856 344.51 198.301 353.445C205.747 362.379 251.164 344.51 251.164 344.51C251.164 344.51 318.917 295.372 321.151 291.65C323.384 287.927 347.954 252.935 347.954 252.935L329.256 246.468Z" fill="black"/>
<path d="M344.231 217.198L327.851 249.212C327.851 249.212 331.574 264.847 337.531 266.336C343.487 267.825 368.801 246.979 368.801 246.979L344.231 217.198Z" fill="#D0CDE1"/>
<path opacity="0.1" d="M344.231 217.198L327.851 249.212C327.851 249.212 331.574 264.847 337.531 266.336C343.487 267.825 368.801 246.979 368.801 246.979L344.231 217.198Z" fill="black"/>
<path d="M144.403 295.176L139.565 315.134C139.511 315.356 139.519 315.59 139.589 315.808L161.537 384.394C161.624 384.666 161.802 384.899 162.04 385.056C162.278 385.213 162.563 385.283 162.847 385.255C163.131 385.227 163.397 385.102 163.6 384.902C163.803 384.702 163.931 384.438 163.963 384.155L167 357.436C167.02 357.259 167.002 357.079 166.946 356.909L146.8 295.083C146.716 294.825 146.55 294.602 146.328 294.447C146.105 294.292 145.838 294.213 145.567 294.224C145.296 294.234 145.035 294.333 144.825 294.505C144.615 294.677 144.467 294.912 144.403 295.176Z" fill="#2F2E41"/>
<path d="M146.183 296.861L141.716 313.985L161.074 376.525L165.541 357.167L146.183 296.861Z" fill="#F2F2F2"/>
<path d="M243.718 389.926C242.974 392.16 166.286 389.181 165.541 388.437C164.892 387.505 164.343 386.506 163.903 385.459C163.203 383.97 162.563 382.481 162.563 382.481L165.541 358.373L241.485 355.678C241.485 355.678 243.383 376.108 243.77 385.459C243.867 387.819 243.867 389.479 243.718 389.926Z" fill="#2F2E41"/>
<path opacity="0.1" d="M175.22 361.635L173.731 382.481H207.236V361.635H175.22Z" fill="black"/>
<path opacity="0.1" d="M218.404 368.335L218.204 368.295L219.148 377.269H237.762V368.335H218.404Z" fill="black"/>
<path opacity="0.1" d="M243.718 389.926C242.974 392.159 166.286 389.181 165.541 388.437C164.892 387.504 164.343 386.506 163.903 385.459H243.77C243.867 387.819 243.867 389.479 243.718 389.926Z" fill="black"/>
<path d="M333.063 206.775C314.559 206.775 299.559 191.775 299.559 173.272C299.559 154.768 314.559 139.768 333.063 139.768C351.567 139.768 366.568 154.768 366.568 173.272C366.568 191.775 351.567 206.775 333.063 206.775Z" fill="#A0616A"/>
<path d="M313.393 180.908C313.393 180.908 311.182 182.958 309.152 183.441C307.558 183.82 306 183.181 306 183.181" stroke="#222224" stroke-width="1.5"/>
<path d="M335.297 203.052C335.297 203.052 346.465 222.41 348.699 232.833C350.932 243.256 382.203 211.986 382.203 211.986L386.298 201.191C386.298 201.191 356.889 187.417 359.122 176.249C361.356 165.082 335.297 203.052 335.297 203.052Z" fill="#A0616A"/>
<path d="M329.341 261.125L298.814 301.328L225.849 355.678C225.849 355.678 172.987 366.846 184.899 375.036C196.812 383.225 231.061 367.59 231.061 367.59C231.061 367.59 304.771 328.131 320.406 311.752C336.041 295.372 365.079 267.825 365.079 267.825L329.341 261.125Z" fill="#A0616A"/>
<path d="M370.29 323.664L361.356 337.81L308.034 321.035C296.334 317.354 283.505 318.709 273.128 325.246C263.821 331.109 257.864 340.416 271.266 354.189C298.07 381.736 315.939 366.846 315.939 366.846C315.939 366.846 406.028 409.283 420.919 388.437C435.81 367.59 436.555 357.167 436.555 357.167C436.555 357.167 379.225 321.43 370.29 323.664Z" fill="#2F2E41"/>
<path d="M258.609 372.802C258.609 372.802 234.784 388.437 263.076 395.882C291.369 403.327 312.216 392.904 312.216 392.904C312.216 392.904 336.786 392.904 336.786 380.247C336.786 367.59 328.596 366.101 328.596 366.101L303.282 369.824C303.282 369.824 272.755 361.634 258.609 372.802Z" fill="#D0CDE1"/>
<path d="M305.578 164.844C303.298 165.86 301.036 167.064 298.557 167.359C296.078 167.654 293.255 166.788 292.082 164.584C291.448 163.394 291.375 161.994 291.346 160.645C291.256 156.557 291.552 152.138 294.143 148.974C295.792 146.96 298.199 145.691 299.905 143.726C301.128 142.318 301.942 140.612 302.818 138.966C306.138 132.732 311.052 126.741 317.883 124.944C320.735 124.193 323.727 124.23 326.676 124.272L343.877 124.514C346.66 124.554 349.487 124.599 352.151 125.405C357.688 127.079 361.719 131.734 365.411 136.187C368.173 139.517 370.942 142.883 373.015 146.681C375.987 152.224 377.49 158.436 377.38 164.724C377.403 166.337 377.195 167.945 376.762 169.498C376.255 170.923 375.627 172.302 374.885 173.62C371.66 179.956 369.744 187.869 373.377 193.981C367.067 191.403 360.823 188.023 356.66 182.625C354.798 180.211 353.337 177.384 350.856 175.612C348.374 173.84 344.33 173.686 342.738 176.287C342.191 177.339 341.909 178.509 341.917 179.695C341.801 181.647 341.804 183.674 340.976 185.446C340.148 187.217 338.177 188.647 336.295 188.117C333.053 187.204 333.363 182.229 330.866 179.969C328.97 178.252 326.045 178.58 323.609 177.801C320.771 176.894 318.641 174.435 317.428 171.713C316.505 169.644 316.518 164.231 314.773 163.111C312.584 161.706 307.607 163.939 305.578 164.844Z" fill="#2F2E41"/>
<path d="M388.958 197.659C387.45 197.257 385.864 197.261 384.358 197.671C379.579 198.954 368.865 202.351 366.568 207.519C363.59 214.22 353.166 224.643 353.166 224.643C353.166 224.643 339.02 238.789 341.998 248.468C344.976 258.146 356.144 269.314 356.144 269.314C356.144 269.314 353.166 315.474 368.057 327.386C382.948 339.299 388.904 331.109 388.904 342.277C388.904 353.445 435.065 388.437 444 366.846C444 366.846 439.533 326.642 441.022 312.496C442.489 298.554 440.341 211.57 388.958 197.659Z" fill="#D0CDE1"/>
<path d="M365.079 216.453C365.079 216.453 319.661 249.957 327.851 264.102C327.851 264.102 355.4 277.504 361.356 276.759C367.312 276.015 390.393 249.957 396.349 247.723C402.306 245.49 405.284 205.286 365.079 216.453Z" fill="#D0CDE1"/>
<path d="M180.816 76.3788L164.683 84.0278L178.961 73.3323C176.641 69.7036 174.034 66.267 171.165 63.0553L101.199 80.4768L164.398 56.3255C161.51 53.7729 158.443 51.431 155.221 49.3179L48.6083 66.5208C37.2887 80.701 31.1181 98.3153 31.1094 116.472H191.59C191.584 102.391 187.867 88.5604 180.816 76.3788Z" fill="#F2F2F2"/>
<path d="M146.495 44.3518C130.354 36.4873 112.048 34.2672 94.5003 38.046C76.9522 41.8248 61.1739 51.3845 49.6847 65.1989C74.8892 59.6665 118.772 50.0897 146.495 44.3518Z" fill="#F2F2F2"/>
<path d="M131.949 45.904C129.203 54.05 124.992 61.4723 116.409 61.4723C107.826 61.4723 101.352 54.4885 100.868 45.904C100.25 34.9348 107.628 30.2903 116.409 30.3358C126.782 30.3894 135.209 36.2367 131.949 45.904Z" fill="#2F2E41"/>
<path d="M129.007 43.8328H103.587V80.9433H129.007V43.8328Z" fill="#2F2E41"/>
<path d="M112.505 65.1406C112.505 65.1406 113.318 76.815 111.421 78.7155C109.524 80.616 128.224 82.2449 127.953 80.073C127.682 77.901 124.159 63.7831 125.243 60.7966C126.327 57.8102 112.505 65.1406 112.505 65.1406Z" fill="#FFB8B8"/>
<path opacity="0.1" d="M112.505 65.1406C112.505 65.1406 113.318 76.815 111.421 78.7155C109.524 80.616 128.224 82.2449 127.953 80.073C127.682 77.901 124.159 63.7831 125.243 60.7966C126.327 57.8102 112.505 65.1406 112.505 65.1406Z" fill="black"/>
<path d="M94.6205 95.0067L84.8825 127.993L84.4923 129.322H68.106C74.6261 109.104 90.7449 79.2885 90.7449 79.2885L93.2613 78.717L94.6205 95.0067Z" fill="#F04B5D"/>
<path opacity="0.1" d="M94.6205 95.0067L84.8825 127.993L84.4923 129.322H68.106C74.6261 109.104 90.7449 79.2885 90.7449 79.2885L93.2613 78.717L94.6205 95.0067Z" fill="black"/>
<path d="M115.757 69.2131C122.493 69.2131 127.953 63.7432 127.953 56.9957C127.953 50.2482 122.493 44.7783 115.757 44.7783C109.022 44.7783 103.562 50.2482 103.562 56.9957C103.562 63.7432 109.022 69.2131 115.757 69.2131Z" fill="#FFB8B8"/>
<path d="M112.694 55.061C112.694 55.061 111.587 55.5446 110.506 55.5652C109.428 55.5857 108.016 54.86 108.016 54.86" stroke="#222224"/>
<path d="M123.316 54.6997C123.316 54.6997 122.254 55.2759 121.179 55.3884C120.107 55.5006 118.638 54.8979 118.638 54.8979" stroke="#222224"/>
<path d="M128.766 76.5435C128.766 76.5435 124.43 80.616 119.552 79.8015C114.673 78.987 112.625 73.0442 112.625 73.0442L107.898 76.5435C107.898 76.5435 106.543 86.3175 112.776 87.4034C119.01 88.4894 127.953 88.7609 129.85 87.4034C131.747 86.0459 128.766 76.5435 128.766 76.5435Z" fill="#3F3D56"/>
<path d="M143.673 90.9302L142.895 93.4619L131.915 129.322H84.6614C84.7619 128.884 84.8358 128.44 84.8825 127.993C85.4939 122.889 85.1336 110.011 85.1336 109.125C85.1336 108.037 89.7378 81.1613 90.8268 79.2584C90.9955 79.0282 91.2175 78.8424 91.4736 78.717C92.7373 77.9898 95.532 77.175 98.5451 76.4559C98.5478 76.4532 98.5478 76.4532 98.5505 76.4532C100.234 76.0431 101.992 75.6658 103.586 75.3459H103.589C105.153 75.0315 106.555 74.7745 107.582 74.605C108.135 74.4987 108.693 74.4211 109.255 74.3726C109.506 74.3726 109.689 74.6706 109.811 75.1272C110.223 76.6145 110.065 79.7997 110.065 79.7997C110.431 80.221 110.839 80.6039 111.282 80.9426C112.324 81.7629 113.467 82.4456 114.683 82.974C115.725 83.4318 116.805 83.8004 117.909 84.0758H117.912C119.073 84.3705 120.254 84.5762 121.446 84.691C122.418 84.8031 123.4 84.7838 124.366 84.6336H124.372C127.246 84.1578 128.299 82.3697 128.79 80.9426C128.878 80.6828 128.946 80.434 129.006 80.2071C129.006 80.2044 129.009 80.1989 129.009 80.1962C129.189 79.499 129.265 79.0096 129.456 79.0178H129.459C129.953 79.0642 136.184 84.4148 140.231 87.9281C142.153 89.5932 143.58 90.8509 143.667 90.9274L143.673 90.9302Z" fill="#F04B5D"/>
<path opacity="0.1" d="M142.895 93.4616L131.915 129.322H127.464C127.864 128.734 128.038 128.021 127.953 127.315C127.811 126.314 130.903 116.119 133.88 106.632C136.588 98.0112 139.2 89.9839 139.2 89.9839L141.773 91.2033C141.773 91.2033 142.235 92.0755 142.895 93.4616Z" fill="black"/>
<path d="M150.72 125.954C150.185 126.088 150.242 127.679 150.212 129.322H129.181C129.437 129.005 129.628 128.64 129.743 128.249C129.858 127.858 129.895 127.448 129.852 127.042C129.713 126.082 131.787 116.188 133.88 106.632C135.526 99.075 137.186 91.7285 137.761 89.1722C137.903 88.5543 137.98 88.2207 137.98 88.2207L138.228 88.3383L138.234 88.341L143.667 90.9274L143.673 90.9302C143.673 90.9302 152.074 106.952 149.366 110.752C146.653 114.553 146.653 114.553 147.737 116.456C148.82 118.353 151.801 125.683 150.72 125.954Z" fill="#F04B5D"/>
<path d="M116.409 33.6132C119.797 33.6132 122.543 30.8618 122.543 27.4679C122.543 24.0739 119.797 21.3225 116.409 21.3225C113.021 21.3225 110.274 24.0739 110.274 27.4679C110.274 30.8618 113.021 33.6132 116.409 33.6132Z" fill="#2F2E41"/>
<path d="M109.047 24.1903C109.047 22.6669 109.612 21.1978 110.633 20.0681C111.653 18.9383 113.055 18.2284 114.568 18.076C114.367 18.0559 114.162 18.0449 113.955 18.0449C112.328 18.0449 110.768 18.6924 109.617 19.8449C108.467 20.9973 107.82 22.5604 107.82 24.1903C107.82 25.8201 108.467 27.3832 109.617 28.5357C110.768 29.6882 112.328 30.3356 113.955 30.3356C114.162 30.3356 114.367 30.3247 114.568 30.3046C113.055 30.1522 111.653 29.4423 110.633 28.3125C109.612 27.1827 109.047 25.7137 109.047 24.1903Z" fill="#2F2E41"/>
<path d="M111.896 41.6028C111.896 41.6028 111.768 40.8885 106.758 42.7704C101.749 44.6524 98.7458 58.5406 101.251 66.6958C102.26 69.9823 101.439 72.3519 100.099 74.0099C95.0692 80.2315 97.0491 89.5763 104.375 92.7756C104.582 92.8659 104.793 92.9552 105.008 93.0435L108.139 94.9254C108.139 94.9254 104.148 89.6642 106.145 82.9341C107.88 77.1999 108.094 71.1119 106.767 65.2695C106.537 64.2839 106.277 63.268 105.981 62.2312C103.477 53.4487 104.695 54.4629 113.462 45.6804C113.462 45.6804 118.472 49.4443 122.855 51.3263C127.239 53.2083 130.996 55.0903 127.865 61.3635C124.734 67.6368 117.219 73.2827 122.229 81.4379C127.239 89.5931 127.865 86.4565 127.239 89.5931L126.612 92.7298L130.37 88.9658L127.865 93.9844C127.865 93.9844 136.005 93.9844 138.51 87.7112L139.763 88.9658C139.763 88.9658 144.772 80.1833 135.379 72.0281C135.379 72.0281 132.248 70.1461 136.632 63.8728C141.015 57.5996 137.649 44.1121 132.013 41.6028C126.377 39.0935 111.896 41.6028 111.896 41.6028Z" fill="#2F2E41"/>
<path d="M115.757 81.1091L105.323 99.2137H107.762V101.657L119.621 81.1091H115.757Z" fill="#3F3D56"/>
<path d="M251.906 117.292H209.603V133.97H251.906V117.292Z" fill="#F2F2F2"/>
<path d="M246.584 138.618H214.925V141.352H246.584V138.618Z" fill="#F2F2F2"/>
<path d="M246.584 143.539H214.925V145.727H246.584V143.539Z" fill="#F2F2F2"/>
<path d="M7.36678 4.37452C7.9697 4.37452 8.45847 3.88489 8.45847 3.28089C8.45847 2.67689 7.9697 2.18726 7.36678 2.18726C6.76385 2.18726 6.27509 2.67689 6.27509 3.28089C6.27509 3.88489 6.76385 4.37452 7.36678 4.37452Z" fill="#F04B5D"/>
<path d="M10.3689 4.37452C10.9718 4.37452 11.4606 3.88489 11.4606 3.28089C11.4606 2.67689 10.9718 2.18726 10.3689 2.18726C9.76599 2.18726 9.27722 2.67689 9.27722 3.28089C9.27722 3.88489 9.76599 4.37452 10.3689 4.37452Z" fill="#F04B5D"/>
<path d="M13.3711 4.37452C13.974 4.37452 14.4628 3.88489 14.4628 3.28089C14.4628 2.67689 13.974 2.18726 13.3711 2.18726C12.7682 2.18726 12.2794 2.67689 12.2794 3.28089C12.2794 3.88489 12.7682 4.37452 13.3711 4.37452Z" fill="#F04B5D"/>
<path d="M256 146H3V0H256V146ZM3.54585 145.453H255.454V0.546816H3.54585V145.453Z" fill="#2F2E41"/>
<path d="M255.727 5.4917H3.27295V6.03851H255.727V5.4917Z" fill="#2F2E41"/>
<path d="M14.4628 10.116H6.27509V10.6628H14.4628V10.116Z" fill="#2F2E41"/>
<path d="M14.4628 12.3035H6.27509V12.8503H14.4628V12.3035Z" fill="#2F2E41"/>
<path d="M14.4628 14.4907H6.27509V15.0375H14.4628V14.4907Z" fill="#2F2E41"/>
<path d="M177.398 15.0373H75.8705V10.116H177.398V15.0373ZM76.4164 14.4905H176.852V10.6628H76.4164V14.4905Z" fill="#2F2E41"/>
<path d="M173.304 13.2603C173.088 13.2603 172.877 13.1961 172.698 13.076C172.518 12.9558 172.378 12.785 172.296 12.5851C172.213 12.3853 172.191 12.1654 172.233 11.9533C172.276 11.7411 172.38 11.5463 172.532 11.3933C172.685 11.2404 172.879 11.1362 173.091 11.094C173.303 11.0518 173.523 11.0735 173.722 11.1562C173.921 11.239 174.092 11.3792 174.212 11.559C174.332 11.7389 174.396 11.9503 174.396 12.1666C174.396 12.4566 174.28 12.7346 174.076 12.9396C173.871 13.1446 173.594 13.26 173.304 13.2603ZM173.304 11.6198C173.196 11.6198 173.091 11.6519 173.001 11.712C172.911 11.7721 172.841 11.8575 172.8 11.9574C172.759 12.0573 172.748 12.1672 172.769 12.2733C172.79 12.3794 172.842 12.4768 172.918 12.5533C172.995 12.6298 173.092 12.6818 173.198 12.7029C173.304 12.724 173.413 12.7132 173.513 12.6718C173.613 12.6304 173.698 12.5604 173.758 12.4704C173.818 12.3805 173.85 12.2748 173.85 12.1666C173.85 12.0217 173.792 11.8827 173.69 11.7802C173.588 11.6776 173.449 11.62 173.304 11.6198Z" fill="#2F2E41"/>
<path d="M174.056 12.5658L173.676 12.9583L174.752 14.0034L175.132 13.6109L174.056 12.5658Z" fill="#2F2E41"/>
<path d="M238.533 15.0373H233.074V10.116H238.533V15.0373ZM233.62 14.4905H237.987V10.6628H233.62V14.4905Z" fill="#2F2E41"/>
<path d="M245.356 15.0373H239.897V10.116H245.356V15.0373ZM240.443 14.4905H244.81V10.6628H240.443V14.4905Z" fill="#2F2E41"/>
<path d="M252.179 15.0373H246.721V10.116H252.179V15.0373ZM247.266 14.4905H251.633V10.6628H247.266V14.4905Z" fill="#2F2E41"/>
<path d="M189.407 132.603H184.494V136.978H189.407V132.603Z" fill="#FF6584"/>
<path d="M196.23 132.603H191.317V136.978H196.23V132.603Z" fill="#F2F2F2"/>
<path d="M203.053 132.603H198.14V136.978H203.053V132.603Z" fill="#F2F2F2"/>
<path d="M202.78 129.596H16.6462V23.5132H202.78V129.596ZM17.192 129.049H202.234V24.06H17.192V129.049Z" fill="#2F2E41"/>
<path d="M44.9247 119.856V122.425L40.6653 119.82C40.6426 119.807 40.6168 119.8 40.5905 119.8C40.5642 119.8 40.5384 119.806 40.5155 119.819C40.4927 119.832 40.4737 119.851 40.4604 119.874C40.4472 119.897 40.4402 119.923 40.4401 119.949V125.579C40.4402 125.605 40.4472 125.631 40.4604 125.654C40.4737 125.676 40.4927 125.695 40.5155 125.708C40.5384 125.721 40.5642 125.728 40.5905 125.728C40.6168 125.728 40.6426 125.721 40.6653 125.707L44.9247 123.103V125.672C44.9248 125.692 44.9327 125.711 44.9466 125.725C44.9606 125.739 44.9795 125.746 44.9992 125.747H46.3204C46.3401 125.746 46.359 125.739 46.3729 125.725C46.3869 125.711 46.3948 125.692 46.3948 125.672V119.856C46.3948 119.836 46.3869 119.817 46.3729 119.803C46.359 119.789 46.3401 119.781 46.3204 119.781H44.9992C44.9795 119.781 44.9606 119.789 44.9466 119.803C44.9327 119.817 44.9248 119.836 44.9247 119.856Z" fill="#3F3D56"/>
<path d="M33.5655 125.747H32.3783C32.3587 125.747 32.3391 125.743 32.3209 125.735C32.3027 125.728 32.2861 125.717 32.2721 125.703C32.2581 125.689 32.247 125.673 32.2393 125.655C32.2317 125.637 32.2277 125.617 32.2276 125.597V119.93C32.2277 119.911 32.2317 119.891 32.2393 119.873C32.247 119.855 32.2581 119.838 32.2721 119.825C32.2861 119.811 32.3027 119.8 32.3209 119.792C32.3391 119.785 32.3587 119.781 32.3783 119.781H33.5655C33.5852 119.781 33.6047 119.785 33.623 119.792C33.6412 119.8 33.6578 119.811 33.6718 119.825C33.6858 119.838 33.6969 119.855 33.7045 119.873C33.7122 119.891 33.7162 119.911 33.7163 119.93V125.597C33.7162 125.617 33.7122 125.637 33.7045 125.655C33.6969 125.673 33.6858 125.689 33.6718 125.703C33.6578 125.717 33.6412 125.728 33.623 125.735C33.6047 125.743 33.5852 125.747 33.5655 125.747ZM36.8406 125.747H35.6534C35.6337 125.747 35.6142 125.743 35.596 125.735C35.5778 125.728 35.5612 125.717 35.5472 125.703C35.5332 125.689 35.5221 125.673 35.5144 125.655C35.5068 125.637 35.5028 125.617 35.5027 125.597V119.93C35.5028 119.911 35.5068 119.891 35.5144 119.873C35.5221 119.855 35.5332 119.838 35.5472 119.825C35.5612 119.811 35.5778 119.8 35.596 119.792C35.6142 119.785 35.6337 119.781 35.6534 119.781H36.8406C36.8603 119.781 36.8798 119.785 36.898 119.792C36.9163 119.8 36.9329 119.811 36.9469 119.825C36.9609 119.838 36.972 119.855 36.9796 119.873C36.9873 119.891 36.9912 119.911 36.9914 119.93V125.597C36.9912 125.617 36.9873 125.637 36.9796 125.655C36.972 125.673 36.9609 125.689 36.9469 125.703C36.9329 125.717 36.9163 125.728 36.898 125.735C36.8798 125.743 36.8603 125.747 36.8406 125.747Z" fill="#3F3D56"/>
<path d="M24.5609 119.936V125.592C24.5595 125.618 24.5651 125.644 24.5773 125.667C24.5894 125.69 24.6076 125.71 24.6299 125.724C24.6522 125.737 24.6778 125.745 24.704 125.745C24.7301 125.746 24.756 125.739 24.7786 125.726L29.254 122.898C29.2759 122.883 29.2938 122.863 29.3062 122.84C29.3187 122.817 29.3252 122.791 29.3252 122.765C29.3252 122.738 29.3187 122.712 29.3062 122.689C29.2938 122.666 29.2759 122.646 29.254 122.631L24.7786 119.803C24.7562 119.79 24.7304 119.783 24.7042 119.783C24.678 119.783 24.6524 119.79 24.63 119.804C24.6076 119.817 24.5893 119.837 24.5771 119.86C24.565 119.883 24.5594 119.91 24.5609 119.936Z" fill="#F04B5D"/>
<path d="M193.91 115.925H25.5162V117.019H193.91V115.925Z" fill="#2F2E41"/>
<path d="M54.8554 115.925H25.5162V117.019H54.8554V115.925Z" fill="#F04B5D"/>
<path d="M94.1564 133.15H16.9191V136.157H94.1564V133.15Z" fill="#F2F2F2"/>
<path d="M33.8403 139.985H16.9191V142.993H33.8403V139.985Z" fill="#F2F2F2"/>
<path d="M251.906 29.2546H209.603V45.9325H251.906V29.2546Z" fill="#F2F2F2"/>
<path d="M246.584 50.5806H214.925V53.3147H246.584V50.5806Z" fill="#F2F2F2"/>
<path d="M246.584 55.502H214.925V58.236H246.584V55.502Z" fill="#F2F2F2"/>
<path d="M246.584 60.4231H214.925V63.1572H246.584V60.4231Z" fill="#F2F2F2"/>
<path d="M251.906 73.2734H209.603V89.9513H251.906V73.2734Z" fill="#F2F2F2"/>
<path d="M246.584 94.5991H214.925V97.3332H246.584V94.5991Z" fill="#F2F2F2"/>
<path d="M246.584 99.5205H214.925V102.255H246.584V99.5205Z" fill="#F2F2F2"/>
<path d="M246.584 104.442H214.925V107.176H246.584V104.442Z" fill="#F2F2F2"/>
<path d="M183.638 116.425L183.074 115.999C181.071 114.456 179.75 113.456 179.63 112.078C179.602 111.816 179.628 111.551 179.704 111.299C179.781 111.047 179.907 110.813 180.075 110.61C180.244 110.408 180.451 110.242 180.685 110.121C180.918 110 181.174 109.928 181.436 109.908C181.745 109.883 182.056 109.925 182.348 110.032C182.639 110.139 182.903 110.308 183.123 110.528C183.301 110.274 183.532 110.061 183.8 109.905C184.069 109.749 184.368 109.653 184.677 109.624C184.938 109.598 185.202 109.625 185.454 109.703C185.705 109.781 185.938 109.909 186.138 110.079C186.339 110.249 186.504 110.458 186.623 110.692C186.742 110.927 186.813 111.184 186.831 111.446C186.952 112.825 185.824 114.04 184.119 115.908L183.638 116.425Z" fill="#FF6584"/>
<path d="M190.305 109.396L189.996 108.76C188.911 106.475 188.187 104.983 188.705 103.7C188.799 103.454 188.941 103.229 189.124 103.04C189.306 102.85 189.525 102.699 189.766 102.595C190.008 102.491 190.268 102.437 190.531 102.436C190.794 102.435 191.054 102.487 191.297 102.588C191.584 102.706 191.842 102.885 192.053 103.113C192.264 103.341 192.423 103.612 192.519 103.908C192.793 103.762 193.095 103.678 193.405 103.661C193.715 103.644 194.025 103.694 194.313 103.809C194.558 103.905 194.781 104.049 194.969 104.233C195.158 104.417 195.307 104.637 195.409 104.88C195.511 105.122 195.564 105.383 195.563 105.647C195.563 105.91 195.51 106.171 195.407 106.413C194.889 107.696 193.334 108.265 190.968 109.154L190.305 109.396Z" fill="#FF6584"/>
<path d="M187.576 127.715L187.267 127.079C186.181 124.793 185.458 123.301 185.975 122.018C186.07 121.772 186.212 121.548 186.394 121.358C186.577 121.168 186.795 121.017 187.037 120.913C187.279 120.81 187.539 120.756 187.802 120.755C188.065 120.753 188.325 120.805 188.568 120.907C188.855 121.025 189.113 121.204 189.324 121.432C189.535 121.66 189.694 121.931 189.79 122.226C190.064 122.081 190.366 121.996 190.676 121.979C190.986 121.962 191.296 122.013 191.584 122.128C191.829 122.224 192.052 122.368 192.24 122.552C192.428 122.735 192.578 122.955 192.68 123.198C192.782 123.441 192.834 123.702 192.834 123.965C192.833 124.228 192.78 124.489 192.678 124.731C192.16 126.015 190.605 126.584 188.239 127.472L187.576 127.715Z" fill="#FF6584"/>
<g clip-path="url(#clip0)">
<path d="M53.2058 41.2188C52.0437 41.2188 51.0983 40.2726 51.0983 39.1094C51.0983 37.9462 52.0437 37 53.2058 37C54.3679 37 55.3132 37.9462 55.3132 39.1094C55.3132 40.2726 54.3679 41.2188 53.2058 41.2188ZM53.2058 38.4062C52.8185 38.4062 52.5032 38.7216 52.5032 39.1094C52.5032 39.4972 52.8185 39.8125 53.2058 39.8125C53.593 39.8125 53.9084 39.4972 53.9084 39.1094C53.9084 38.7216 53.593 38.4062 53.2058 38.4062Z" fill="#F04B5D"/>
<path d="M67.3027 61.7102C66.7742 60.3932 66.0142 59.1471 65.2677 58.074C64.8057 57.4099 64.2875 56.7381 63.7186 56.0641C64.2864 55.3909 64.8038 54.7202 65.2655 54.0563C67.0143 51.5352 68.9006 47.8364 67.482 44.7556C67.1546 44.0417 66.6613 43.4237 66.0159 42.9189C63.4794 40.9353 59.8325 41.277 56.9008 41.981C54.2432 42.619 51.6826 43.7061 49.279 44.9956C47.7539 44.2532 46.2616 43.6503 44.8186 43.1936C45.3168 42.0598 45.8878 41.1021 46.5206 40.3412C47.2342 39.4813 48.0027 38.8998 48.8044 38.6128C49.1708 38.4813 49.3598 38.0822 49.2285 37.7144C49.1288 37.4351 48.8624 37.248 48.5668 37.248C48.4866 37.248 48.4073 37.2615 48.3301 37.2895C47.2883 37.6636 46.3155 38.3879 45.4401 39.4417C44.8106 40.202 44.236 41.1246 43.7345 42.1848C43.6398 42.385 43.548 42.5918 43.4582 42.8022C43.3231 42.7673 43.1885 42.7338 43.0545 42.7017C43.0012 42.689 42.9462 42.6819 42.8916 42.6819C42.565 42.6819 42.284 42.9041 42.2088 43.2227C42.1651 43.4048 42.1948 43.5938 42.2931 43.7536C42.3914 43.9137 42.5461 44.0255 42.7287 44.0692C42.8015 44.0865 42.8751 44.1054 42.9484 44.1238C42.7672 44.6457 42.5988 45.1901 42.4455 45.7567C42.0866 47.0899 41.8097 48.5381 41.6238 50.0611C41.6199 50.0911 41.6169 50.1213 41.6133 50.1512C40.2722 51.2455 39.0409 52.3633 37.9455 53.4834C37.4632 53.9764 37.0065 54.4708 36.5764 54.9646C36.3179 54.6314 36.0735 54.3002 35.8444 53.9714C34.2654 51.7102 33.3986 49.5261 33.4049 47.8205C33.4076 46.8303 33.671 46.0231 34.2105 45.3518C34.4541 45.0503 34.4071 44.6067 34.1061 44.3628C33.802 44.1162 33.3609 44.167 33.1181 44.4672C32.3837 45.3727 31.9973 46.5323 32 47.8205C32.0055 50.3144 33.3038 52.7772 34.6919 54.7756C34.9908 55.2047 35.3135 55.6367 35.6576 56.0707C35.319 56.4988 35.0012 56.9257 34.7065 57.3492C33.3068 59.3668 32.0154 61.8105 32.0085 64.3255C32.0058 65.6307 32.4018 66.7999 33.1541 67.7082C33.2876 67.8708 33.4859 67.9642 33.6958 67.9636C33.8589 67.9636 34.0177 67.9065 34.1426 67.8032C34.4412 67.5558 34.484 67.1122 34.2374 66.8134C33.6859 66.141 33.4162 65.3275 33.4134 64.3255C33.4071 62.6155 34.2761 60.4232 35.8595 58.1528C36.0847 57.829 36.3248 57.5027 36.578 57.1751C37.0043 57.6626 37.4564 58.1509 37.9337 58.6382C39.134 59.8634 40.4979 61.0881 41.9937 62.2845C42.3994 64.3642 42.9819 66.2198 43.7271 67.7983C43.7285 67.8016 43.7301 67.8049 43.7318 67.8082C43.4096 67.9007 43.0899 67.9859 42.774 68.062C42.3934 68.1534 42.1646 68.5313 42.2547 68.9098C42.3313 69.2271 42.6123 69.4484 42.9375 69.4484C42.9921 69.4484 43.0476 69.4421 43.1025 69.4295C43.5315 69.3259 43.966 69.2078 44.405 69.0763C45.0108 70.0953 45.6871 70.9316 46.4259 71.5704C47.4042 72.4169 48.6611 73 49.9676 73H49.9816C51.2893 73 52.5486 72.4147 53.5228 71.5704C54.1138 71.0579 54.6667 70.4196 55.1727 69.6665C55.7612 69.8527 56.3389 70.0142 56.9035 70.1496C59.7012 70.8195 63.5618 71.1321 66.0186 69.2122C66.6635 68.7066 67.1574 68.0886 67.4848 67.375C68.328 65.5367 68.0426 63.5543 67.3027 61.7102ZM60.9723 42.8599H60.9863C62.7411 42.8599 64.1812 43.2628 65.1499 44.0258C65.6226 44.3977 65.9681 44.8286 66.2062 45.3441C66.4394 45.8523 66.5583 46.4367 66.5583 47.08C66.5646 48.7906 65.6965 50.9832 64.1122 53.2535C63.7123 53.8289 63.2657 54.4117 62.7777 54.9978C62.5354 54.7344 62.2857 54.471 62.0289 54.2082C60.9501 53.1054 59.7397 52.0043 58.4221 50.926C58.3307 49.9875 58.2073 49.0768 58.0516 48.1987C57.7432 46.4637 57.3133 44.8753 56.7714 43.4638C58.2881 43.0661 59.7056 42.8599 60.9723 42.8599ZM54.5563 67.9746C54.0048 67.7752 53.4442 67.5541 52.8765 67.311C52.197 67.0205 51.5098 66.6977 50.819 66.3486C52.6961 65.3313 54.5722 64.1289 56.4196 62.7608C56.0507 64.4178 55.5585 65.9163 54.9521 67.1979C54.8252 67.467 54.6931 67.726 54.5563 67.9746ZM56.7173 60.7679C54.285 62.6765 51.776 64.2928 49.3197 65.5513C47.2878 64.4142 45.2449 63.0497 43.28 61.5105C42.9237 59.5003 42.7386 57.2995 42.7392 55C42.7389 53.5751 42.8081 52.1985 42.9435 50.8846C43.0465 50.8024 43.1503 50.7203 43.2547 50.6385C45.2256 49.0927 47.2754 47.7224 49.3136 46.5815C51.7762 47.8394 54.2877 49.4552 56.7195 51.3636C56.8385 51.4569 56.9566 51.5506 57.0741 51.6443C57.1639 52.7311 57.2101 53.8539 57.2098 55C57.2103 56.9993 57.0703 58.9186 56.8014 60.7014C56.7734 60.7236 56.7456 60.7456 56.7173 60.7679ZM58.5639 52.8838C59.7751 53.9344 60.8768 55.0014 61.8474 56.0641C60.8292 57.1792 59.6674 58.299 58.3859 59.3992C58.5372 57.9891 58.6147 56.5148 58.6147 55C58.6147 54.2829 58.5974 53.5773 58.5639 52.8838ZM52.8735 44.8201C53.7411 44.4488 54.5915 44.1296 55.419 43.8613C56.0744 45.5386 56.5616 47.5227 56.861 49.6986C54.8735 48.1957 52.8452 46.8828 50.813 45.7842C51.5049 45.4342 52.1932 45.111 52.8735 44.8201ZM47.7791 45.841C47.6597 45.9113 47.5399 45.9808 47.4204 46.0528C46.0037 46.9048 44.5898 47.863 43.205 48.9051C43.4653 47.3113 43.8331 45.8339 44.3025 44.504C45.4338 44.8569 46.5975 45.3049 47.7791 45.841ZM37.4805 56.069C38.6036 54.7611 39.9327 53.4392 41.4293 52.1425C41.367 53.0747 41.3343 54.0297 41.3343 55C41.3348 56.8048 41.4428 58.5396 41.6548 60.1815C40.0656 58.8233 38.6591 57.4376 37.4805 56.069ZM44.0627 64.7743C43.9457 64.3999 43.8367 64.0135 43.7348 63.6177C44.9504 64.509 46.1858 65.3338 47.4232 66.0784C47.5443 66.1514 47.6657 66.222 47.7868 66.2932C46.873 66.7093 45.9705 67.0718 45.0861 67.3789C44.7021 66.595 44.3574 65.7208 44.0627 64.7743ZM52.6051 70.5053C51.7554 71.2359 50.8948 71.5916 49.9745 71.5938C49.0544 71.5916 48.1939 71.2359 47.3432 70.5053C46.789 70.0296 46.2622 69.3932 45.7777 68.625C46.9219 68.2171 48.0944 67.7208 49.287 67.1383C50.3063 67.6849 51.3225 68.1754 52.3242 68.6041C52.8175 68.8148 53.3066 69.0104 53.7897 69.19C53.4135 69.7085 53.0158 70.1521 52.6051 70.5053ZM66.2084 66.7864C65.3045 68.7481 62.9468 69.2713 60.9891 69.2713H60.9743C59.4705 69.2713 57.7542 68.9807 55.9109 68.4231C56.41 67.4742 56.8519 66.3915 57.2274 65.194C57.5877 64.039 57.8808 62.786 58.1038 61.4608C59.5441 60.3015 60.8616 59.1133 62.0259 57.9229C62.2841 57.659 62.5346 57.3948 62.7779 57.1306C63.2671 57.7175 63.7142 58.3012 64.1152 58.8777C65.4515 60.794 67.2889 64.4414 66.2084 66.7864Z" fill="#F04B5D"/>
<path d="M37.898 66.4609C36.3487 66.4609 35.0883 67.7227 35.0883 69.2734C35.0883 70.8242 36.3487 72.0859 37.898 72.0859C39.4474 72.0859 40.708 70.8242 40.708 69.2734C40.708 67.7227 39.4474 66.4609 37.898 66.4609ZM37.898 70.6797C37.1235 70.6797 36.4931 70.0488 36.4931 69.2734C36.4931 68.4981 37.1235 67.8672 37.898 67.8672C38.6728 67.8672 39.3029 68.4981 39.3029 69.2734C39.3029 70.0488 38.6728 70.6797 37.898 70.6797Z" fill="#F04B5D"/>
<path d="M37.9092 45.3208C39.2647 45.3208 40.3677 44.2167 40.3677 42.8599C40.3677 41.5028 39.2647 40.3989 37.9092 40.3989C36.5535 40.3989 35.4505 41.5028 35.4505 42.8599C35.4505 44.2167 36.5535 45.3208 37.9092 45.3208ZM37.9092 41.8052C38.4901 41.8052 38.9628 42.2781 38.9628 42.8599C38.9628 43.4413 38.4901 43.9146 37.9092 43.9146C37.3281 43.9146 36.8554 43.4413 36.8554 42.8599C36.8554 42.2781 37.3281 41.8052 37.9092 41.8052Z" fill="#F04B5D"/>
<path d="M54.002 54.5862C54.1482 54.1953 54.2141 53.7751 54.1913 53.3458C54.1476 52.5251 53.7875 51.7709 53.177 51.2216C52.5667 50.6723 51.7787 50.3946 50.9594 50.4377C50.3694 50.4693 49.8267 50.6665 49.3738 50.9818C48.8533 50.6374 48.2232 50.4498 47.5531 50.4852C45.8906 50.5739 44.6098 52 44.6983 53.6641C44.7301 54.2607 44.9339 54.8081 45.2586 55.2607C44.7842 55.9001 44.5208 56.7016 44.5664 57.5571C44.6667 59.4435 46.232 60.9107 48.0977 60.9107C48.1609 60.9107 48.2243 60.9091 48.288 60.9055C49.2848 60.8525 50.1637 60.3883 50.7712 59.6871C51.2318 59.9706 51.7721 60.1337 52.3458 60.1337C52.3997 60.1337 52.4538 60.1321 52.5082 60.1293C54.1709 60.0406 55.4514 58.6146 55.363 56.9504C55.31 55.9539 54.7774 55.0962 54.002 54.5862ZM51.0341 51.842C51.0646 51.8404 51.0948 51.8396 51.125 51.8396C51.537 51.8396 51.9292 51.9898 52.2379 52.2678C52.5691 52.5658 52.7647 52.9753 52.7883 53.4205C52.8122 53.8657 52.6612 54.2936 52.3631 54.6254C52.0654 54.9569 51.6565 55.1528 51.2115 55.1764C50.7663 55.1997 50.3389 55.049 50.0077 54.7509C49.6764 54.4529 49.4809 54.0434 49.4573 53.5979C49.4084 52.6786 50.1156 51.8909 51.0341 51.842ZM47.6278 51.8896C47.6569 51.8879 47.6857 51.8874 47.7146 51.8874C47.9659 51.8874 48.2048 51.9461 48.4185 52.0508C48.1584 52.532 48.0233 53.0879 48.0543 53.6729C48.0571 53.7245 48.0612 53.7762 48.0664 53.8273C48.015 53.8278 47.9634 53.8295 47.9118 53.8319C47.3295 53.863 46.7876 54.0349 46.3163 54.3115C46.1924 54.0978 46.1152 53.8528 46.1012 53.5894C46.054 52.6995 46.7387 51.9371 47.6278 51.8896ZM48.2133 59.5014C47.644 59.5325 47.0974 59.3383 46.6733 58.9571C46.2498 58.5758 45.9996 58.0521 45.9694 57.4824C45.9068 56.3063 46.8115 55.2989 47.9862 55.2363C48.0249 55.2343 48.0631 55.2332 48.101 55.2332C48.2806 55.2332 48.4556 55.256 48.6231 55.2986C48.7033 55.3189 48.881 55.6153 48.9497 55.684C49.2425 55.9773 49.5993 56.2132 49.9838 56.367C50.1258 56.6335 50.2131 56.9342 50.2302 57.2553C50.2928 58.4311 49.3881 59.4388 48.2133 59.5014ZM52.4335 58.725C52.0772 58.7448 51.7419 58.6456 51.4645 58.463C51.5955 58.0603 51.657 57.628 51.6331 57.1806C51.6218 56.9663 51.5914 56.7573 51.5438 56.5557C52.1756 56.4692 52.7573 56.1918 53.222 55.7551C53.6422 56.0265 53.9314 56.4882 53.96 57.0251C54.0075 57.915 53.3225 58.6777 52.4335 58.725Z" fill="#F04B5D"/>
</g>
<path d="M2.752 214H6.88V204.816H14.4V201.264H6.88V194.832H15.808V191.28H2.752V214ZM17.2465 205.84C17.2465 210.48 20.6385 214.384 26.0465 214.384C28.3825 214.384 30.9425 213.52 32.6065 212.048L31.0065 209.136C29.6945 210.192 27.9985 210.928 26.3345 210.928C23.8705 210.928 21.6945 209.456 21.4385 206.608H32.6705C32.7345 206.096 32.7985 205.552 32.7985 205.04C32.7985 200.72 30.2385 197.296 25.5665 197.296C20.6705 197.296 17.2465 200.816 17.2465 205.84ZM21.5345 203.824C21.9185 201.744 23.3905 200.368 25.4705 200.368C27.2945 200.368 28.7025 201.648 28.7345 203.824H21.5345ZM35.376 219.024H45.136V216.368H38.608C38.864 214.032 44.944 213.584 44.944 209.008C44.944 206.224 42.64 204.656 40.08 204.656C38.128 204.656 36.304 205.744 35.376 207.184L37.36 208.944C38 208.208 38.864 207.472 39.92 207.472C41.008 207.472 41.872 208.144 41.872 209.136C41.872 211.92 35.248 212.176 35.248 217.712C35.248 218.096 35.312 218.576 35.376 219.024ZM47.9393 202.48C47.9393 209.168 52.8033 214.384 59.6833 214.384C66.5633 214.384 71.4273 209.168 71.4273 202.48C71.4273 195.984 66.5633 190.896 59.6833 190.896C52.8033 190.896 47.9393 195.984 47.9393 202.48ZM52.1953 202.48C52.1953 198.064 55.3313 194.672 59.6833 194.672C64.0353 194.672 67.1713 198.064 67.1713 202.48C67.1713 207.088 64.0353 210.608 59.6833 210.608C55.3313 210.608 52.1953 207.088 52.1953 202.48ZM78.7318 219.344C81.9638 219.344 83.9478 217.04 83.9478 214.576C83.9478 212.272 82.4758 210.896 80.4598 210.512L83.5958 206.928V204.976H74.6358V207.664H78.7638C79.2758 207.664 79.9158 207.568 79.9158 207.568V207.632C79.9158 207.632 79.4038 208.08 79.1158 208.4L76.6198 211.28L77.2598 212.72H78.3798C79.6278 212.72 80.8758 213.328 80.8758 214.544C80.8758 215.696 79.8518 216.56 78.5718 216.56C77.2918 216.56 76.0758 215.888 75.4358 215.056L73.8678 217.2C75.0198 218.64 76.9718 219.344 78.7318 219.344Z" fill="#F04B5D"/>
<path d="M341.096 40H345.74V29.272H357.44V40H362.048V14.44H357.44V25.276H345.74V14.44H341.096V40ZM366.689 45.652H377.669V42.664H370.325C370.613 40.036 377.453 39.532 377.453 34.384C377.453 31.252 374.861 29.488 371.981 29.488C369.785 29.488 367.733 30.712 366.689 32.332L368.921 34.312C369.641 33.484 370.613 32.656 371.801 32.656C373.025 32.656 373.997 33.412 373.997 34.528C373.997 37.66 366.545 37.948 366.545 44.176C366.545 44.608 366.617 45.148 366.689 45.652ZM380.498 36.94C382.802 39.244 386.078 40.432 389.246 40.432C394.718 40.432 397.742 37.012 397.742 32.872C397.742 24.736 385.826 25.96 385.826 21.208C385.826 19.444 387.374 18.292 389.714 18.292C391.73 18.292 393.926 19.264 395.33 20.524L397.382 16.744C395.366 14.908 392.558 14.008 389.894 14.008C384.926 14.008 381.182 16.924 381.182 21.424C381.182 29.38 393.098 28.372 393.098 33.232C393.098 34.96 391.658 36.148 389.354 36.148C386.978 36.148 384.53 34.816 383.018 33.448L380.498 36.94ZM400.861 27.04C400.861 34.564 406.333 40.432 414.073 40.432C421.813 40.432 427.285 34.564 427.285 27.04C427.285 19.732 421.813 14.008 414.073 14.008C406.333 14.008 400.861 19.732 400.861 27.04ZM405.649 27.04C405.649 22.072 409.177 18.256 414.073 18.256C418.969 18.256 422.497 22.072 422.497 27.04C422.497 32.224 418.969 36.184 414.073 36.184C409.177 36.184 405.649 32.224 405.649 27.04ZM436.727 45.652H440.111V42.088H442.199V39.136H440.111V29.848H436.223L429.419 39.784V42.088H436.727V45.652ZM432.875 39.136V39.064L435.863 34.888C436.367 34.168 436.799 33.196 436.799 33.196H436.871C436.871 33.196 436.727 34.24 436.727 35.176V39.136H432.875Z" fill="#F04B5D"/>
<defs>
<clipPath id="clip0">
<rect x="32" y="37" width="36" height="36" fill="white"/>
</clipPath>
</defs>
</svg>
