<svg width="531" height="601" viewBox="0 0 531 601" fill="none" xmlns="http://www.w3.org/2000/svg">
<path d="M217.674 506.687L216.891 506.392C216.719 506.327 199.594 499.754 191.571 484.849C183.549 469.943 187.477 451.997 187.518 451.817L187.702 451L188.485 451.294C188.657 451.359 205.782 457.933 213.805 472.838C221.827 487.743 217.899 505.69 217.858 505.869L217.674 506.687ZM192.856 484.155C199.638 496.757 213.171 503.217 216.6 504.692C217.252 501.01 219.297 486.122 212.52 473.531C205.744 460.943 192.206 454.473 188.776 452.994C188.124 456.678 186.08 471.566 192.856 484.155Z" fill="#3F3D56"/>
<path d="M197.702 479.62C212.119 488.31 217.672 505.571 217.672 505.571C217.672 505.571 199.849 508.742 185.432 500.052C171.015 491.362 165.463 474.102 165.463 474.102C165.463 474.102 183.285 470.93 197.702 479.62Z" fill="#D0CDE1"/>
<path d="M472.143 505.869C472.102 505.69 468.174 487.743 476.197 472.838C484.219 457.933 501.344 451.359 501.516 451.294L502.299 451L502.484 451.817C502.524 451.997 506.453 469.943 498.43 484.849C490.408 499.754 473.282 506.327 473.11 506.392L472.327 506.687L472.143 505.869ZM501.225 452.994C497.795 454.473 484.257 460.943 477.481 473.531C470.705 486.122 472.749 501.01 473.401 504.692C476.83 503.217 490.363 496.757 497.145 484.155C503.922 471.566 501.878 456.678 501.225 452.994Z" fill="#3F3D56"/>
<path d="M492.299 479.62C477.882 488.31 472.33 505.571 472.33 505.571C472.33 505.571 490.152 508.742 504.569 500.052C518.986 491.362 524.538 474.102 524.538 474.102C524.538 474.102 506.716 470.93 492.299 479.62Z" fill="#F04B5D"/>
<path d="M502.635 505.135H159V506.597H502.635V505.135Z" fill="#3F3D56"/>
<g clip-path="url(#clip0)">
<path d="M375.743 438.518L364.129 484.214L367.664 487.768L388.871 466.443L394.931 445.626L375.743 438.518Z" fill="#A0616A"/>
<path d="M463.604 438.518L451.99 484.214L455.525 487.768L476.733 466.443L482.792 445.626L463.604 438.518Z" fill="#A0616A"/>
<path d="M472.693 204.448L403.01 217.142L402.505 223.742L370.693 440.548C370.693 440.548 407.555 459.334 431.287 450.195L440.881 300.411L454.01 450.195C454.01 450.195 483.802 465.935 504 444.61C504 444.61 491.376 216.634 472.693 204.448Z" fill="#2F2E41"/>
<path d="M392.406 457.811L369.683 455.781L359.584 489.291C359.584 489.291 353.24 497.87 349.623 505.907C349.109 507.06 348.908 508.33 349.039 509.587C349.171 510.844 349.631 512.043 350.373 513.064C351.114 514.084 352.112 514.889 353.263 515.397C354.414 515.905 355.678 516.097 356.927 515.954C363.789 515.192 372.062 513.74 373.218 511.124C374.779 507.31 376.128 503.411 377.258 499.446L382.812 503L386.852 500.969L389.376 481.168C389.376 481.168 393.921 476.09 389.881 466.951L392.406 457.811Z" fill="#2F2E41"/>
<path d="M480.267 457.811L457.545 455.781L447.446 489.291C447.446 489.291 441.102 497.87 437.485 505.907C436.97 507.06 436.769 508.33 436.9 509.587C437.032 510.844 437.492 512.043 438.234 513.064C438.976 514.084 439.973 514.889 441.124 515.397C442.275 515.905 443.54 516.097 444.789 515.954C451.651 515.192 459.923 513.74 461.079 511.124C462.64 507.31 463.989 503.411 465.119 499.446L470.673 503L474.713 500.969L477.238 481.168C477.238 481.168 481.782 476.09 477.743 466.951L480.267 457.811Z" fill="#2F2E41"/>
<path d="M429.52 102.646C443.464 102.646 454.767 91.2797 454.767 77.2588C454.767 63.2379 443.464 51.8717 429.52 51.8717C415.576 51.8717 404.272 63.2379 404.272 77.2588C404.272 91.2797 415.576 102.646 429.52 102.646Z" fill="#A0616A"/>
<path d="M427.753 97.3145C427.753 97.3145 433.307 112.547 426.238 116.101C421.884 118.273 417.314 119.975 412.604 121.178L413.614 144.535L438.861 178.553L468.653 121.178C468.653 121.178 452.495 125.748 449.97 89.6984L427.753 97.3145Z" fill="#A0616A"/>
<path d="M383.822 213.08L378.267 278.071C378.267 278.071 367.159 316.659 382.307 312.089C397.456 307.52 389.376 276.04 389.376 276.04L403.01 213.08H383.822Z" fill="#A0616A"/>
<path d="M437.347 166.368L426.743 132.349L423.713 135.903C423.713 135.903 406.821 127.632 421.326 118.312C421.326 118.312 389.376 120.671 389.376 130.826C389.376 140.98 403.515 172.46 403.515 172.46C403.515 172.46 399.475 219.173 402 219.173C404.525 219.173 471.683 205.464 471.683 205.464L473.703 181.6C473.703 181.6 493.396 136.919 487.842 129.81C482.287 122.702 462.833 118.055 461.199 119.617C461.199 119.617 471.683 128.287 444.416 140.473L446.436 144.535L437.347 166.368Z" fill="#D0CDE1"/>
<path d="M391.901 128.795C391.901 128.795 385.842 134.38 385.842 150.12C385.842 165.86 382.307 197.847 382.307 197.847L376.753 216.126L397.456 217.142L403.515 221.204C403.515 221.204 411.594 164.844 412.604 163.321C413.614 161.798 391.901 128.795 391.901 128.795Z" fill="#D0CDE1"/>
<path d="M482.287 128.287C482.287 128.287 490.871 126.764 492.386 141.488C493.901 156.213 494.911 207.495 494.911 207.495C494.911 207.495 501.98 211.049 498.446 217.142C494.911 223.235 490.871 224.758 490.871 224.758L475.723 215.618L472.693 168.906L482.287 128.287Z" fill="#D0CDE1"/>
<path d="M478.752 214.603C478.752 214.603 457.04 223.742 460.069 227.804C463.099 231.866 470.673 226.789 470.673 226.789C470.673 226.789 478.752 248.114 483.297 243.544C487.842 238.975 490.871 221.204 490.871 221.204L478.752 214.603Z" fill="#A0616A"/>
<path opacity="0.2" d="M475.325 204.448C475.325 204.448 483.422 193.532 494.847 204.448C494.847 204.448 482.755 199.117 475.325 204.448Z" fill="black"/>
<path d="M426.445 81.9787C424.851 79.6371 425.55 76.3834 424.408 73.7878C422.616 69.712 417.332 68.8756 412.908 68.6075C409.968 68.4293 406.983 68.2543 404.1 68.8457C402.814 69.0931 401.602 69.6376 400.561 70.4363C399.519 71.235 398.676 72.2661 398.099 73.4483C397.477 74.7814 397.543 70.6503 397.833 65.3423C398.127 59.9257 400.123 54.7426 403.534 50.5398C406.945 46.337 411.595 43.3316 416.813 41.9565C416.875 41.9402 416.937 41.9242 416.998 41.9085C422.343 40.5308 427.863 39.4782 433.357 39.992C438.851 40.5057 444.369 42.7508 447.893 47.0204C449.504 48.9718 450.666 51.2908 452.454 53.0787C455.597 56.22 460.168 57.2795 464.378 58.67C469.139 60.2426 473.784 62.4459 477.478 65.8504C481.173 69.2548 483.847 73.9782 484.044 79.0133C484.274 84.8867 480.703 91.0407 474.741 92.345C473.704 92.553 472.73 93.004 471.899 93.6613C466.288 98.2593 472.924 102.768 473 107.789C473.063 111.978 468.491 114.821 464.335 115.117C456.594 115.67 448.901 109.824 447.316 102.185C446.606 98.7632 447.005 95.221 447.33 91.7405C447.701 87.7565 438.967 78.6092 444.753 85.3289C445.881 86.6054 446.659 88.1552 447.011 89.826C448.079 95.2807 443.166 97.2439 440.113 100.355C438.438 102.114 437.287 104.309 436.789 106.692C436.292 109.075 436.469 111.551 437.3 113.838C431.918 109.436 430.482 100.876 434.13 94.9418C435.099 93.3644 436.364 91.9819 437.281 90.3728C438.711 87.8621 438.992 82.4699 434.825 82.7192C431.851 82.8972 428.819 85.4645 426.445 81.9787Z" fill="#2F2E41"/>
<path d="M436.805 37H431.4C429.07 37 427.182 38.8988 427.182 41.241V74.5119C427.182 76.8541 429.07 78.7529 431.4 78.7529H436.805C439.135 78.7529 441.023 76.8541 441.023 74.5119V41.241C441.023 38.8988 439.135 37 436.805 37Z" fill="#D0CDE1"/>
<path d="M434.102 97.5417C440.982 97.5417 446.559 91.9336 446.559 85.0158C446.559 78.0979 440.982 72.4899 434.102 72.4899C427.223 72.4899 421.645 78.0979 421.645 85.0158C421.645 91.9336 427.223 97.5417 434.102 97.5417Z" fill="#F04B5D"/>
<path d="M434.102 91.2787C437.542 91.2787 440.331 88.4747 440.331 85.0158C440.331 81.5569 437.542 78.7529 434.102 78.7529C430.663 78.7529 427.874 81.5569 427.874 85.0158C427.874 88.4747 430.663 91.2787 434.102 91.2787Z" fill="#D0CDE1"/>
<path d="M434.102 87.7994C435.631 87.7994 436.871 86.5531 436.871 85.0158C436.871 83.4785 435.631 82.2323 434.102 82.2323C432.574 82.2323 431.334 83.4785 431.334 85.0158C431.334 86.5531 432.574 87.7994 434.102 87.7994Z" fill="#F04B5D"/>
</g>
<path d="M326 135H37C34.2386 135 32 137.239 32 140V290.798C32 293.56 34.2386 295.798 37 295.798H326C328.761 295.798 331 293.56 331 290.798V140C331 137.239 328.761 135 326 135Z" fill="#3F3D56"/>
<path d="M317.5 280.428H49C47.8954 280.428 47 281.323 47 282.428V284.94C47 286.044 47.8954 286.94 49 286.94H317.5C318.605 286.94 319.5 286.044 319.5 284.94V282.428C319.5 281.323 318.605 280.428 317.5 280.428Z" fill="#D0CDE1"/>
<path d="M202 280.428H49C47.8954 280.428 47 281.323 47 282.428V284.94C47 286.044 47.8954 286.94 49 286.94H202C203.105 286.94 204 286.044 204 284.94V282.428C204 281.323 203.105 280.428 202 280.428Z" fill="#F04B5D"/>
<path d="M48.6735 273.263C48.0079 273.68 47.1426 273.203 47.1418 272.417L47.1345 265.217C47.1337 264.432 47.9967 263.952 48.6632 264.368L54.4227 267.956C55.0497 268.346 55.0513 269.258 54.4256 269.651L48.6735 273.263Z" fill="#F04B5D"/>
<path d="M63.4271 264.495H62.1843C61.6321 264.495 61.1843 264.943 61.1843 265.495V272.142C61.1843 272.694 61.6321 273.142 62.1843 273.142H63.4271C63.9793 273.142 64.4271 272.694 64.4271 272.142V265.495C64.4271 264.943 63.9793 264.495 63.4271 264.495Z" fill="#F04B5D"/>
<path d="M68.8316 264.495H67.5889C67.0366 264.495 66.5889 264.943 66.5889 265.495V272.142C66.5889 272.694 67.0366 273.142 67.5889 273.142H68.8316C69.3838 273.142 69.8316 272.694 69.8316 272.142V265.495C69.8316 264.943 69.3838 264.495 68.8316 264.495Z" fill="#F04B5D"/>
<path d="M319.52 255.009C319.52 256.666 318.177 258.009 316.52 258.009H50.1326C48.4758 258.009 47.1326 256.666 47.1326 255.009V148.596C47.1326 146.939 48.4758 145.596 50.1326 145.596H316.52C318.177 145.596 319.52 146.939 319.52 148.596V255.009ZM48.1566 253.992C48.1566 255.649 49.4998 256.992 51.1566 256.992H315.496C317.153 256.992 318.496 255.649 318.496 253.992V149.613C318.496 147.956 317.153 146.613 315.496 146.613H51.1566C49.4998 146.613 48.1566 147.956 48.1566 149.613V253.992Z" fill="#D0CDE1"/>
<path d="M269.499 188.183H240.501C240.224 188.183 240 188.407 240 188.684C240 188.96 240.224 189.184 240.501 189.184H269.499C269.776 189.184 270 188.96 270 188.684C270 188.407 269.776 188.183 269.499 188.183Z" fill="#D0CDE1"/>
<path d="M118.499 227.756H89.5009C89.2243 227.756 89 227.98 89 228.257C89 228.534 89.2243 228.758 89.5009 228.758H118.499C118.776 228.758 119 228.534 119 228.257C119 227.98 118.776 227.756 118.499 227.756Z" fill="#D0CDE1"/>
<path d="M281 193.192C280.11 193.192 279.24 192.928 278.5 192.432C277.76 191.937 277.183 191.233 276.843 190.409C276.502 189.585 276.413 188.679 276.586 187.804C276.76 186.93 277.189 186.126 277.818 185.496C278.447 184.865 279.249 184.436 280.122 184.262C280.995 184.088 281.9 184.177 282.722 184.518C283.544 184.86 284.247 185.437 284.742 186.179C285.236 186.92 285.5 187.792 285.5 188.684C285.499 189.879 285.024 191.025 284.18 191.87C283.337 192.715 282.193 193.191 281 193.192ZM281 185.177C280.308 185.177 279.631 185.383 279.056 185.768C278.48 186.153 278.031 186.701 277.766 187.342C277.502 187.982 277.432 188.687 277.567 189.368C277.702 190.048 278.036 190.673 278.525 191.163C279.015 191.653 279.638 191.987 280.317 192.123C280.996 192.258 281.7 192.189 282.339 191.923C282.979 191.658 283.526 191.208 283.91 190.632C284.295 190.055 284.5 189.377 284.5 188.684C284.499 187.754 284.13 186.863 283.474 186.205C282.818 185.548 281.928 185.178 281 185.177Z" fill="#D0CDE1"/>
<path d="M281 237.775C280.11 237.775 279.24 237.51 278.5 237.015C277.76 236.519 277.183 235.815 276.843 234.992C276.502 234.168 276.413 233.261 276.586 232.387C276.76 231.512 277.189 230.709 277.818 230.078C278.447 229.448 279.249 229.019 280.122 228.845C280.995 228.671 281.9 228.76 282.722 229.101C283.544 229.442 284.247 230.02 284.742 230.762C285.236 231.503 285.5 232.375 285.5 233.266C285.499 234.462 285.024 235.608 284.181 236.453C283.337 237.298 282.193 237.773 281 237.775ZM281 229.76C280.308 229.76 279.631 229.965 279.056 230.351C278.48 230.736 278.031 231.284 277.766 231.924C277.502 232.565 277.432 233.27 277.567 233.95C277.702 234.631 278.036 235.255 278.525 235.746C279.015 236.236 279.638 236.57 280.317 236.705C280.996 236.841 281.7 236.771 282.339 236.506C282.979 236.24 283.526 235.791 283.91 235.214C284.295 234.638 284.5 233.96 284.5 233.266C284.499 232.337 284.13 231.445 283.474 230.788C282.818 230.131 281.928 229.761 281 229.76Z" fill="#D0CDE1"/>
<path d="M297 237.775C296.11 237.775 295.24 237.51 294.5 237.015C293.76 236.519 293.183 235.815 292.843 234.992C292.502 234.168 292.413 233.261 292.586 232.387C292.76 231.512 293.189 230.709 293.818 230.078C294.447 229.448 295.249 229.019 296.122 228.845C296.995 228.671 297.9 228.76 298.722 229.101C299.544 229.442 300.247 230.02 300.742 230.762C301.236 231.503 301.5 232.375 301.5 233.266C301.499 234.462 301.024 235.608 300.181 236.453C299.337 237.298 298.193 237.773 297 237.775ZM297 229.76C296.308 229.76 295.631 229.965 295.056 230.351C294.48 230.736 294.031 231.284 293.766 231.924C293.502 232.565 293.432 233.27 293.567 233.95C293.702 234.631 294.036 235.255 294.525 235.746C295.015 236.236 295.638 236.57 296.317 236.705C296.996 236.841 297.7 236.771 298.339 236.506C298.979 236.24 299.526 235.791 299.91 235.214C300.295 234.638 300.5 233.96 300.5 233.266C300.499 232.337 300.13 231.445 299.474 230.788C298.818 230.131 297.928 229.761 297 229.76Z" fill="#D0CDE1"/>
<path d="M265 237.775C264.11 237.775 263.24 237.51 262.5 237.015C261.76 236.519 261.183 235.815 260.843 234.992C260.502 234.168 260.413 233.261 260.586 232.387C260.76 231.512 261.189 230.709 261.818 230.078C262.447 229.448 263.249 229.019 264.122 228.845C264.995 228.671 265.9 228.76 266.722 229.101C267.544 229.442 268.247 230.02 268.742 230.762C269.236 231.503 269.5 232.375 269.5 233.266C269.499 234.462 269.024 235.608 268.18 236.453C267.337 237.298 266.193 237.773 265 237.775ZM265 229.76C264.308 229.76 263.631 229.965 263.055 230.351C262.48 230.736 262.031 231.284 261.766 231.924C261.501 232.565 261.432 233.27 261.567 233.95C261.702 234.631 262.036 235.255 262.525 235.746C263.015 236.236 263.638 236.57 264.317 236.705C264.996 236.841 265.7 236.771 266.339 236.506C266.979 236.24 267.526 235.791 267.91 235.214C268.295 234.638 268.5 233.96 268.5 233.266C268.499 232.337 268.13 231.445 267.474 230.788C266.818 230.131 265.928 229.761 265 229.76Z" fill="#D0CDE1"/>
<path d="M76.5 232.765C75.61 232.765 74.7399 232.501 73.9999 232.006C73.2599 231.51 72.6831 230.806 72.3425 229.982C72.0019 229.159 71.9128 228.252 72.0865 227.378C72.2601 226.503 72.6887 225.7 73.318 225.069C73.9473 224.439 74.7492 224.009 75.6221 223.835C76.495 223.661 77.3998 223.751 78.2221 224.092C79.0443 224.433 79.7471 225.011 80.2416 225.752C80.7361 226.494 81 227.365 81 228.257C80.9987 229.452 80.5241 230.598 79.6805 231.443C78.8369 232.289 77.6931 232.764 76.5 232.765ZM76.5 224.751C75.8078 224.751 75.1311 224.956 74.5555 225.342C73.9799 225.727 73.5313 226.274 73.2664 226.915C73.0015 227.556 72.9322 228.261 73.0672 228.941C73.2023 229.621 73.5356 230.246 74.0251 230.737C74.5146 231.227 75.1382 231.561 75.8172 231.696C76.4961 231.832 77.1998 231.762 77.8394 231.497C78.4789 231.231 79.0256 230.782 79.4101 230.205C79.7947 229.629 80 228.951 80 228.257C79.9989 227.327 79.6298 226.436 78.9737 225.779C78.3175 225.121 77.4279 224.752 76.5 224.751Z" fill="#D0CDE1"/>
<path d="M60.5 232.765C59.61 232.765 58.74 232.501 57.9999 232.006C57.2599 231.51 56.6831 230.806 56.3425 229.982C56.002 229.159 55.9128 228.252 56.0865 227.378C56.2601 226.503 56.6887 225.7 57.318 225.069C57.9474 224.439 58.7492 224.009 59.6221 223.835C60.495 223.661 61.3998 223.751 62.2221 224.092C63.0443 224.433 63.7472 225.011 64.2416 225.752C64.7361 226.494 65 227.365 65 228.257C64.9987 229.452 64.5241 230.598 63.6805 231.443C62.8369 232.289 61.6931 232.764 60.5 232.765ZM60.5 224.751C59.8078 224.751 59.1311 224.956 58.5555 225.342C57.9799 225.727 57.5313 226.274 57.2664 226.915C57.0015 227.556 56.9322 228.261 57.0673 228.941C57.2023 229.621 57.5356 230.246 58.0251 230.737C58.5146 231.227 59.1383 231.561 59.8172 231.696C60.4961 231.832 61.1999 231.762 61.8394 231.497C62.4789 231.231 63.0256 230.782 63.4101 230.205C63.7947 229.629 64 228.951 64 228.257C63.9989 227.327 63.6298 226.436 62.9737 225.779C62.3175 225.121 61.4279 224.752 60.5 224.751Z" fill="#D0CDE1"/>
<path d="M281.5 221.746V197.699C281.5 197.423 281.276 197.199 281 197.199C280.724 197.199 280.5 197.423 280.5 197.699V221.746C280.5 222.022 280.724 222.246 281 222.246C281.276 222.246 281.5 222.022 281.5 221.746Z" fill="#D0CDE1"/>
<path d="M221.5 94C223.985 94 226 91.9853 226 89.5C226 87.0147 223.985 85 221.5 85C219.015 85 217 87.0147 217 89.5C217 91.9853 219.015 94 221.5 94Z" fill="#F04B5D"/>
<path d="M306.5 9C308.985 9 311 6.98528 311 4.5C311 2.01472 308.985 0 306.5 0C304.015 0 302 2.01472 302 4.5C302 6.98528 304.015 9 306.5 9Z" fill="#F04B5D"/>
<path d="M74.5 416C76.9853 416 79 413.985 79 411.5C79 409.015 76.9853 407 74.5 407C72.0147 407 70 409.015 70 411.5C70 413.985 72.0147 416 74.5 416Z" fill="#F04B5D"/>
<path d="M83.5 61C85.9853 61 88 58.9853 88 56.5C88 54.0147 85.9853 52 83.5 52C81.0147 52 79 54.0147 79 56.5C79 58.9853 81.0147 61 83.5 61Z" fill="#F04B5D"/>
<path d="M180.418 225.52L178.47 228.636C177.962 229.449 177.883 230.364 178.131 231.166H163.599C162.869 233.941 164.941 236.812 167.965 236.812H181.124V225.52H180.418Z" fill="#2580A6"/>
<path d="M184.116 231.166C184.206 230.883 184.252 230.59 184.252 230.285C184.252 229.732 184.105 229.167 183.777 228.636L181.829 225.52H181.124V236.812H194.282C197.306 236.812 199.378 233.941 198.649 231.166H184.116Z" fill="#20557D"/>
<path d="M183.777 203.794C185.08 205.878 183.581 208.581 181.123 208.581V217.615H182.253V219.173C183.081 218.226 184.283 217.615 185.64 217.615H187.899C187.899 220.11 185.876 222.132 183.382 222.132H182.253V225.52H181.829L183.777 228.636C184.105 229.167 184.251 229.732 184.251 230.285C184.251 230.59 184.206 230.883 184.116 231.166H198.649C198.576 230.891 198.486 230.616 198.357 230.346L189.028 210.84V197.289C190.275 197.289 191.287 196.278 191.287 195.031C191.287 193.783 190.275 192.772 189.028 192.772H181.124V199.548L183.777 203.794Z" fill="#AEBBC4"/>
<path d="M182.253 217.615H181.123V225.52H181.829H182.253V222.132H183.382C185.876 222.132 187.899 220.11 187.899 217.615H185.64C184.283 217.615 183.081 218.226 182.253 219.173V217.615Z" fill="#AEBBC4"/>
<path d="M178.47 228.636L180.418 225.52H179.994V219.874H178.865C176.371 219.874 174.348 217.851 174.348 215.357H176.607C178.274 215.357 179.715 216.271 180.497 217.615H181.124V208.581C178.666 208.581 177.167 205.878 178.47 203.794L181.124 199.548V192.772H173.219C171.972 192.772 170.961 193.783 170.961 195.031C170.961 196.278 171.972 197.289 173.219 197.289V210.84L163.89 230.346C163.761 230.616 163.671 230.891 163.599 231.166H178.131C177.883 230.364 177.962 229.449 178.47 228.636Z" fill="#D0DFEA"/>
<path d="M179.994 225.52H180.418H181.124V217.615H180.497C179.715 216.271 178.274 215.357 176.607 215.357H174.348C174.348 217.851 176.371 219.874 178.865 219.874H179.994V225.52Z" fill="#D0DFEA"/>
<path d="M178.47 203.794C177.167 205.878 178.666 208.581 181.123 208.581V199.548L178.47 203.794Z" fill="#2580A6"/>
<path d="M183.777 203.794L181.123 199.548V208.581C183.581 208.581 185.08 205.878 183.777 203.794Z" fill="#20557D"/>
<path d="M190.488 182.279L188.794 180.585L182.253 187.126H181.124V188.256H184.511L190.488 182.279Z" fill="#D0DFEA"/>
<path d="M194.674 177.004L191.526 180.124L193.218 181.815L196.933 178.133C198.492 176.574 198.492 174.046 196.933 172.487C196.301 171.855 195.508 171.492 194.687 171.373C196.232 172.933 196.229 175.449 194.674 177.004Z" fill="#20557D"/>
<path d="M188.794 180.585L187.1 178.891L181.124 184.868V187.126H182.253L188.794 180.585Z" fill="white"/>
<path d="M194.674 177.004C196.229 175.449 196.232 172.933 194.687 171.373C193.482 171.197 192.214 171.56 191.287 172.487L187.572 176.169L191.526 180.124L194.674 177.004Z" fill="#2580A6"/>
<path d="M190.488 182.279L192.746 184.537L194.343 182.94L193.218 181.815L191.526 180.123L187.572 176.169L186.439 175.036L184.842 176.633L187.1 178.891L188.794 180.585L190.488 182.279Z" fill="#F04B5D"/>
<path d="M212.742 172.447V170.188H210.483V172.447H208.225V174.705H210.483V176.963H212.742V174.705H215V172.447H212.742Z" fill="#F04B5D"/>
<path d="M152.893 183.739H155.152V181.48H157.41V179.222H155.152V176.963H152.893V179.222H150.635V181.48H152.893V183.739Z" fill="#F04B5D"/>
<defs>
<clipPath id="clip0">
<rect x="349" y="37" width="155" height="479" fill="white"/>
</clipPath>
</defs>
</svg>
