<svg width="416" height="361" viewBox="0 0 416 361" fill="none" xmlns="http://www.w3.org/2000/svg">
<g clip-path="url(#clip0)">
<path d="M36.9207 308.891C52.9685 308.891 65.9779 306.875 65.9779 304.389C65.9779 301.902 52.9685 299.886 36.9207 299.886C20.8728 299.886 7.86346 301.902 7.86346 304.389C7.86346 306.875 20.8728 308.891 36.9207 308.891Z" fill="#3F3D56"/>
<path d="M242.987 323.593C324.889 323.593 391.284 257.11 391.284 175.099C391.284 93.0881 324.889 26.6052 242.987 26.6052C161.084 26.6052 94.6893 93.0881 94.6893 175.099C94.6893 257.11 161.084 323.593 242.987 323.593Z" fill="#F2F2F2"/>
<path d="M238.5 268C237.545 268 236.581 267.985 235.634 267.955L235.656 267.268C237.015 267.31 238.402 267.322 239.768 267.303L239.777 267.991C239.352 267.997 238.926 268 238.5 268ZM243.918 267.84L243.878 267.154C245.239 267.073 246.618 266.96 247.976 266.818L248.048 267.502C246.679 267.646 245.29 267.76 243.918 267.84H243.918ZM231.497 267.733C230.124 267.628 228.737 267.49 227.374 267.323L227.458 266.64C228.811 266.806 230.187 266.943 231.55 267.047L231.497 267.733ZM252.157 266.976L252.054 266.296C253.406 266.091 254.769 265.853 256.104 265.588L256.238 266.262C254.893 266.529 253.52 266.77 252.157 266.976H252.157ZM223.274 266.725C221.918 266.495 220.549 266.231 219.206 265.939L219.352 265.266C220.685 265.556 222.044 265.818 223.389 266.046L223.274 266.725ZM260.283 265.361L260.117 264.693C261.445 264.365 262.78 264.002 264.086 263.615L264.281 264.275C262.965 264.665 261.62 265.031 260.283 265.361ZM215.178 264.967C213.848 264.613 212.51 264.224 211.2 263.81L211.407 263.154C212.707 263.565 214.035 263.951 215.355 264.302L215.178 264.967ZM268.225 263.005L267.999 262.355C269.288 261.907 270.584 261.423 271.851 260.916L272.107 261.555C270.83 262.066 269.524 262.554 268.225 263.005H268.225ZM207.268 262.466C205.976 261.991 204.676 261.479 203.405 260.943L203.672 260.309C204.934 260.84 206.224 261.349 207.506 261.82L207.268 262.466ZM275.909 259.931L275.624 259.304C276.861 258.742 278.105 258.142 279.32 257.521L279.633 258.133C278.409 258.76 277.156 259.364 275.909 259.931H275.909ZM199.617 259.244C198.375 258.653 197.128 258.023 195.912 257.373L196.237 256.766C197.444 257.411 198.68 258.036 199.913 258.623L199.617 259.244ZM283.272 256.167L282.931 255.569C284.118 254.892 285.303 254.18 286.451 253.453L286.819 254.035C285.661 254.767 284.468 255.485 283.272 256.167ZM192.299 255.335C191.117 254.632 189.935 253.891 188.783 253.132L189.162 252.558C190.304 253.311 191.478 254.046 192.65 254.743L192.299 255.335ZM290.266 251.742L289.872 251.178C290.989 250.398 292.104 249.58 293.186 248.749L293.605 249.295C292.515 250.132 291.392 250.956 290.266 251.742ZM185.373 250.773C184.262 249.966 183.153 249.121 182.075 248.261L182.504 247.723C183.574 248.577 184.675 249.416 185.777 250.216L185.373 250.773ZM296.83 246.697L296.387 246.171C297.428 245.292 298.464 244.376 299.467 243.449L299.934 243.954C298.924 244.889 297.88 245.812 296.83 246.697ZM178.895 245.601C177.861 244.695 176.833 243.753 175.841 242.8L176.317 242.303C177.302 243.249 178.322 244.184 179.348 245.083L178.895 245.601ZM302.911 241.072L302.421 240.589C303.382 239.616 304.331 238.609 305.244 237.597L305.755 238.057C304.836 239.078 303.879 240.092 302.911 241.072ZM172.917 239.864C171.968 238.866 171.031 237.834 170.131 236.798L170.651 236.347C171.544 237.375 172.474 238.399 173.416 239.389L172.917 239.864ZM308.458 234.915L307.927 234.479C308.794 233.423 309.648 232.334 310.466 231.241L311.017 231.653C310.193 232.754 309.333 233.852 308.458 234.915ZM167.488 233.609C166.636 232.532 165.796 231.42 164.993 230.304L165.552 229.902C166.349 231.009 167.182 232.113 168.028 233.182L167.488 233.609ZM313.423 228.276L312.854 227.89C313.622 226.76 314.373 225.597 315.088 224.432L315.675 224.792C314.954 225.966 314.197 227.138 313.423 228.276ZM162.653 226.89C161.903 225.74 161.169 224.557 160.471 223.373L161.064 223.024C161.757 224.199 162.485 225.373 163.229 226.513L162.653 226.89ZM317.764 221.208L317.162 220.876C317.823 219.68 318.465 218.452 319.071 217.226L319.688 217.531C319.077 218.766 318.43 220.004 317.764 221.208ZM158.453 219.761C157.811 218.548 157.189 217.303 156.604 216.062L157.226 215.768C157.807 217 158.425 218.236 159.061 219.439L158.453 219.761ZM321.44 213.768L320.809 213.492C321.358 212.24 321.884 210.957 322.375 209.68L323.017 209.927C322.523 211.214 321.992 212.506 321.44 213.768ZM154.926 212.283C154.398 211.017 153.893 209.722 153.424 208.433L154.071 208.197C154.536 209.477 155.038 210.762 155.561 212.019L154.926 212.283ZM324.416 206.015L323.762 205.799C324.192 204.505 324.597 203.182 324.967 201.867L325.63 202.053C325.257 203.378 324.848 204.711 324.416 206.015V206.015ZM152.099 204.507C151.689 203.195 151.304 201.856 150.955 200.524L151.621 200.349C151.967 201.671 152.349 203 152.755 204.302L152.099 204.507ZM326.659 198.04L325.988 197.884C326.297 196.557 326.578 195.203 326.826 193.858L327.503 193.982C327.253 195.338 326.969 196.702 326.659 198.04V198.04ZM149.997 196.493C149.71 195.149 149.45 193.78 149.225 192.422L149.904 192.309C150.127 193.657 150.385 195.015 150.67 196.349L149.997 196.493ZM328.159 189.892L327.476 189.798C327.662 188.451 327.818 187.076 327.941 185.713L328.627 185.775C328.502 187.149 328.345 188.534 328.159 189.892V189.892ZM148.64 188.321C148.478 186.958 148.345 185.571 148.244 184.197L148.931 184.146C149.03 185.51 149.163 186.887 149.324 188.239L148.64 188.321ZM328.907 181.642L328.219 181.611C328.281 180.247 328.312 178.864 328.312 177.5H329C329 178.874 328.969 180.268 328.907 181.642V181.642ZM148.036 180.058C148.012 179.214 148 178.354 148 177.5C148 176.97 148.005 176.442 148.014 175.914L148.702 175.926C148.693 176.45 148.688 176.974 148.688 177.5C148.688 178.347 148.7 179.202 148.723 180.039L148.036 180.058ZM328.307 176.54C328.293 175.175 328.247 173.792 328.171 172.429L328.858 172.391C328.934 173.765 328.98 175.158 328.995 176.533L328.307 176.54ZM148.865 171.818L148.178 171.775C148.264 170.4 148.383 169.011 148.53 167.647L149.215 167.721C149.068 169.075 148.95 170.453 148.865 171.818ZM327.849 168.33C327.712 166.973 327.541 165.601 327.341 164.25L328.022 164.149C328.223 165.511 328.395 166.894 328.534 168.261L327.849 168.33ZM149.75 163.644L149.07 163.539C149.281 162.178 149.526 160.805 149.798 159.46L150.473 159.596C150.203 160.931 149.96 162.293 149.75 163.644ZM326.647 160.198C326.384 158.855 326.088 157.504 325.766 156.181L326.435 156.019C326.759 157.351 327.058 158.713 327.322 160.066L326.647 160.198ZM151.381 155.586L150.713 155.419C151.047 154.086 151.417 152.742 151.813 151.424L152.472 151.622C152.08 152.93 151.712 154.264 151.381 155.586ZM324.702 152.209C324.318 150.899 323.899 149.581 323.455 148.291L324.106 148.067C324.553 149.367 324.976 150.695 325.362 152.016L324.702 152.209ZM153.75 147.702L153.1 147.473C153.558 146.172 154.052 144.865 154.568 143.588L155.206 143.846C154.694 145.113 154.203 146.411 153.75 147.702H153.75ZM322.029 144.434C321.527 143.168 320.989 141.897 320.431 140.656L321.059 140.374C321.622 141.624 322.163 142.905 322.669 144.181L322.029 144.434ZM156.839 140.063L156.213 139.776C156.788 138.524 157.4 137.269 158.032 136.045L158.643 136.361C158.016 137.575 157.409 138.821 156.839 140.063ZM318.661 136.954C318.045 135.739 317.392 134.522 316.721 133.336L317.32 132.997C317.997 134.192 318.654 135.419 319.275 136.643L318.661 136.954ZM160.616 132.746L160.019 132.402C160.706 131.21 161.43 130.017 162.171 128.856L162.751 129.226C162.016 130.379 161.297 131.563 160.616 132.746ZM314.618 129.809C313.891 128.651 313.129 127.498 312.355 126.381L312.92 125.989C313.7 127.114 314.468 128.276 315.2 129.443L314.618 129.809ZM165.046 125.809L164.483 125.413C165.276 124.287 166.106 123.166 166.949 122.079L167.493 122.501C166.656 123.579 165.833 124.692 165.046 125.809ZM309.936 123.059C309.107 121.973 308.243 120.893 307.369 119.849L307.896 119.407C308.777 120.459 309.648 121.547 310.483 122.641L309.936 123.059ZM170.088 119.309L169.564 118.862C170.454 117.817 171.382 116.776 172.322 115.769L172.825 116.238C171.893 117.238 170.972 118.271 170.088 119.309ZM304.657 116.759C303.733 115.753 302.774 114.756 301.808 113.795L302.293 113.307C303.267 114.275 304.233 115.28 305.164 116.294L304.657 116.759ZM175.698 113.296L175.217 112.804C176.201 111.842 177.22 110.89 178.244 109.975L178.702 110.489C177.686 111.396 176.675 112.341 175.698 113.296ZM298.826 110.963C297.813 110.044 296.767 109.138 295.717 108.27L296.156 107.739C297.213 108.614 298.267 109.528 299.288 110.454L298.826 110.963ZM181.83 107.821L181.395 107.287C182.46 106.421 183.56 105.566 184.665 104.746L185.075 105.299C183.978 106.112 182.886 106.961 181.83 107.821ZM292.488 105.72C291.395 104.896 290.27 104.089 289.145 103.319L289.534 102.751C290.667 103.527 291.801 104.34 292.902 105.17L292.488 105.72ZM188.43 102.929L188.046 102.358C189.186 101.591 190.358 100.841 191.532 100.126L191.89 100.715C190.725 101.423 189.561 102.168 188.43 102.929ZM285.695 101.074C284.532 100.354 283.338 99.6521 282.146 98.9878L282.48 98.3866C283.682 99.056 284.885 99.7632 286.058 100.488L285.695 101.074ZM195.446 98.6613L195.116 98.0574C196.321 97.398 197.557 96.7581 198.789 96.1554L199.091 96.7738C197.869 97.3717 196.642 98.0067 195.446 98.6613L195.446 98.6613ZM278.503 97.0668C277.279 96.4567 276.024 95.8673 274.775 95.315L275.053 94.6856C276.312 95.2421 277.576 95.836 278.81 96.4508L278.503 97.0668ZM202.817 95.0557L202.544 94.4243C203.803 93.8784 205.092 93.3549 206.373 92.8681L206.617 93.5116C205.346 93.9945 204.067 94.5141 202.817 95.0557ZM270.968 93.7363C269.694 93.2421 268.39 92.7707 267.092 92.3352L267.311 91.6826C268.619 92.1216 269.933 92.5966 271.217 93.0948L270.968 93.7363ZM210.494 92.1408L210.28 91.4868C211.587 91.058 212.922 90.6543 214.246 90.2872L214.43 90.9502C213.116 91.3146 211.792 91.7152 210.494 92.1408ZM263.164 91.1175C261.852 90.7433 260.513 90.3949 259.185 90.0818L259.343 89.4121C260.681 89.7275 262.03 90.0786 263.353 90.4555L263.164 91.1175ZM218.416 89.9422L218.263 89.2713C219.604 88.965 220.969 88.6859 222.322 88.4419L222.444 89.1191C221.102 89.3614 219.747 89.6383 218.416 89.9422ZM255.162 89.231C253.822 88.9794 252.457 88.7557 251.105 88.5658L251.2 87.8843C252.563 88.0757 253.939 88.3011 255.289 88.5545L255.162 89.231ZM226.507 88.4821L226.416 87.7999C227.778 87.6181 229.163 87.4652 230.533 87.346L230.593 88.0315C229.234 88.1501 227.859 88.3017 226.507 88.4821ZM247.021 88.0873C245.665 87.9596 244.286 87.8611 242.92 87.7951L242.953 87.1075C244.329 87.1742 245.72 87.2734 247.086 87.4021L247.021 88.0873ZM234.697 87.7675L234.668 87.08C235.933 87.0272 237.222 87.0003 238.5 87L238.812 87.0005L238.809 87.6887L238.5 87.6882C237.232 87.6885 235.952 87.7153 234.697 87.7675Z" fill="#3F3D56"/>
<path d="M53.7293 280.362C50.0201 294.092 37.3154 302.595 37.3154 302.595C37.3154 302.595 30.6244 288.838 34.3336 275.108C38.0428 261.379 50.7475 252.876 50.7475 252.876C50.7475 252.876 57.4385 266.633 53.7293 280.362Z" fill="#F04B5D"/>
<path d="M19.9863 280.362C23.6954 294.092 36.4001 302.595 36.4001 302.595C36.4001 302.595 43.0911 288.838 39.382 275.108C35.6728 261.379 22.9681 252.876 22.9681 252.876C22.9681 252.876 16.2771 266.633 19.9863 280.362Z" fill="#F04B5D"/>
<path d="M25.4366 277.411C35.6146 287.332 36.8578 302.583 36.8578 302.583C36.8578 302.583 21.5992 301.749 11.4212 291.828C1.24316 281.907 0 266.656 0 266.656C0 266.656 15.2586 267.49 25.4366 277.411Z" fill="#3F3D56"/>
<path d="M48.279 277.411C38.101 287.332 36.8578 302.583 36.8578 302.583C36.8578 302.583 52.1164 301.749 62.2944 291.828C72.4724 281.907 73.7156 266.656 73.7156 266.656C73.7156 266.656 58.457 267.49 48.279 277.411Z" fill="#3F3D56"/>
<path d="M367.049 361C387.819 361 404.658 358.391 404.658 355.173C404.658 351.954 387.819 349.345 367.049 349.345C346.278 349.345 329.44 351.954 329.44 355.173C329.44 358.391 346.278 361 367.049 361Z" fill="#3F3D56"/>
<path d="M388.804 324.075C384.003 341.845 367.559 352.85 367.559 352.85C367.559 352.85 358.899 335.045 363.7 317.275C368.501 299.505 384.945 288.499 384.945 288.499C384.945 288.499 393.605 306.305 388.804 324.075Z" fill="#F04B5D"/>
<path d="M345.13 324.075C349.931 341.845 366.375 352.85 366.375 352.85C366.375 352.85 375.035 335.045 370.234 317.275C365.433 299.505 348.99 288.499 348.99 288.499C348.99 288.499 340.329 306.305 345.13 324.075Z" fill="#F04B5D"/>
<path d="M352.185 320.256C365.358 333.097 366.967 352.836 366.967 352.836C366.967 352.836 347.218 351.756 334.044 338.916C320.871 326.075 319.262 306.335 319.262 306.335C319.262 306.335 339.011 307.415 352.185 320.256Z" fill="#3F3D56"/>
<path d="M381.75 320.256C368.576 333.097 366.967 352.836 366.967 352.836C366.967 352.836 386.717 351.756 399.89 338.916C413.063 326.075 414.672 306.335 414.672 306.335C414.672 306.335 394.923 307.415 381.75 320.256Z" fill="#3F3D56"/>
<path d="M181.62 339.694C241.129 339.694 289.37 332.219 289.37 322.999C289.37 313.778 241.129 306.303 181.62 306.303C122.111 306.303 73.8699 313.778 73.8699 322.999C73.8699 332.219 122.111 339.694 181.62 339.694Z" fill="#3F3D56"/>
<path d="M233.052 109.86C237.119 109.86 240.416 106.559 240.416 102.486C240.416 98.4131 237.119 95.1116 233.052 95.1116C228.985 95.1116 225.688 98.4131 225.688 102.486C225.688 106.559 228.985 109.86 233.052 109.86Z" fill="#2F2E41"/>
<path d="M225.161 99.3252C225.162 97.5064 225.833 95.7519 227.047 94.3987C228.261 93.0456 229.931 92.1894 231.737 91.9945C230.708 91.882 229.668 91.9878 228.683 92.3049C227.698 92.622 226.791 93.1434 226.021 93.835C225.25 94.5266 224.634 95.373 224.213 96.3189C223.791 97.2649 223.573 98.2892 223.573 99.3252C223.573 100.361 223.791 101.385 224.213 102.331C224.634 103.277 225.25 104.124 226.021 104.815C226.791 105.507 227.698 106.028 228.683 106.345C229.668 106.663 230.708 106.768 231.737 106.656C229.931 106.461 228.261 105.605 227.047 104.252C225.833 102.899 225.162 101.144 225.161 99.3252Z" fill="#2F2E41"/>
<path d="M225.688 102.486C225.688 102.486 224.544 107.753 231.691 109.86L225.688 102.486Z" fill="#F04B5D"/>
<path d="M236.098 152.575C249.752 152.575 260.821 141.491 260.821 127.819C260.821 114.146 249.752 103.062 236.098 103.062C222.443 103.062 211.374 114.146 211.374 127.819C211.374 141.491 222.443 152.575 236.098 152.575Z" fill="#2F2E41"/>
<path d="M212.226 205.04L211.341 223.65L253.822 237.829C253.822 237.829 251.609 214.345 252.937 212.129L212.226 205.04Z" fill="#A0616A"/>
<path d="M143.195 287.898L139.213 303.406H157.798V287.898H143.195Z" fill="#A0616A"/>
<path d="M239.662 292.021L248.069 294.987L252.494 283.862L244.972 277.928L239.662 292.021Z" fill="#A0616A"/>
<path d="M254.56 272.71C254.56 272.71 267.097 271.06 267.097 281.695C267.097 292.329 268.867 318.471 251.167 315.37C251.167 315.37 243.201 316.256 246.299 306.951C246.299 306.951 249.452 303.166 248.318 300.849C247.184 298.532 240.546 296.76 241.431 295.43C242.316 294.101 252.052 283.467 252.052 283.467L254.56 272.71Z" fill="#2F2E41"/>
<path d="M254.707 235.613L211.341 220.548L208.686 231.182C208.686 231.182 143.638 193.519 139.655 219.219C139.655 219.219 136.115 240.044 141.425 267.516L141.868 289.67C141.868 289.67 152.93 292.329 158.24 290.113L158.683 266.186C158.683 266.186 163.108 250.678 160.895 238.715C160.895 238.715 194.083 264.857 209.128 267.959C209.128 267.959 156.47 308.723 162.665 321.573C168.86 334.423 176.383 336.638 186.118 334.423C192.827 332.896 222.862 308.643 240.887 293.712C253.353 283.386 260.432 267.794 259.544 251.619C259.222 245.741 257.867 240.044 254.707 235.613Z" fill="#2F2E41"/>
<path d="M142.31 297.646C142.31 297.646 141.868 292.329 139.213 294.544C136.558 296.76 127.265 305.179 127.265 305.179C127.265 305.179 93.6345 314.041 113.99 322.459C113.99 322.459 127.265 325.118 141.425 318.915C141.425 318.915 164.042 319.563 163.575 313.922C163.108 308.28 157.798 298.859 157.798 298.859C157.798 298.859 151.603 303.406 144.523 297.203L142.31 297.646Z" fill="#2F2E41"/>
<path d="M229.926 154.084C238.969 154.084 246.299 146.744 246.299 137.69C246.299 128.635 238.969 121.295 229.926 121.295C220.884 121.295 213.554 128.635 213.554 137.69C213.554 146.744 220.884 154.084 229.926 154.084Z" fill="#A0616A"/>
<path d="M243.201 138.576C243.201 138.576 245.857 151.869 250.724 154.97L223.731 186.873L213.554 177.125L221.076 163.832C221.076 163.832 229.484 158.958 226.829 152.312L243.201 138.576Z" fill="#A0616A"/>
<path d="M252.937 156.3C252.937 156.3 272.407 160.287 274.619 173.137C276.832 185.987 272.407 209.471 272.407 209.471L263.114 278.593C263.114 278.593 262.672 307.837 251.167 302.963C239.661 298.089 254.264 275.934 254.264 275.934L258.247 232.511C258.247 232.511 260.017 195.735 256.477 191.304L242.316 186.873C242.316 186.873 245.414 157.629 252.937 156.3Z" fill="#A0616A"/>
<path d="M221.076 163.832C221.076 163.832 207.801 163.389 199.393 174.023C190.986 184.658 170.631 192.633 170.631 192.633L119.742 212.572C119.742 212.572 110.45 196.178 104.697 201.938C98.9446 207.698 115.317 222.32 122.84 220.548C130.363 218.776 175.941 205.04 175.941 205.04L212.226 188.645L221.076 163.832Z" fill="#A0616A"/>
<path d="M250.038 153.915C250.038 153.915 233.024 176.682 225.501 176.239C217.979 175.796 223.045 162.333 223.045 162.333L217.735 163.663C217.735 163.663 210.456 177.568 209.571 178.454C209.571 178.454 198.951 195.735 210.899 199.723L211.341 209.028C211.341 209.028 240.989 207.698 253.822 214.345L256.477 191.304C256.477 191.304 239.661 182.885 248.954 166.491C248.954 166.491 252.251 157.902 255.791 157.016L250.038 153.915Z" fill="#D0CDE1"/>
<path opacity="0.1" d="M254.485 275.713L186.782 325.339C186.782 325.339 254.928 285.018 254.485 275.713Z" fill="black"/>
<path d="M230.816 118.446C222.1 118.446 215.035 122.573 215.035 127.664C215.035 129.942 216.455 132.024 218.799 133.632L221.837 131.428L221.011 134.881C221.354 135.04 221.704 135.194 222.069 135.336L226.607 130.034V136.548C227.999 136.771 229.406 136.883 230.816 136.882C239.531 136.882 246.597 132.755 246.597 127.664C246.597 122.573 239.531 118.446 230.816 118.446Z" fill="#2F2E41"/>
<path d="M263.142 121.38C267.21 121.38 270.507 118.079 270.507 114.006C270.507 109.933 267.21 106.632 263.142 106.632C259.075 106.632 255.778 109.933 255.778 114.006C255.778 118.079 259.075 121.38 263.142 121.38Z" fill="#2F2E41"/>
<path d="M255.252 110.846C255.252 109.027 255.924 107.272 257.137 105.919C258.351 104.566 260.021 103.71 261.827 103.515C260.799 103.403 259.758 103.508 258.773 103.825C257.788 104.143 256.881 104.664 256.111 105.356C255.341 106.047 254.725 106.893 254.303 107.839C253.881 108.785 253.663 109.81 253.663 110.846C253.663 111.882 253.881 112.906 254.303 113.852C254.725 114.798 255.341 115.644 256.111 116.336C256.881 117.028 257.788 117.549 258.773 117.866C259.758 118.183 260.799 118.289 261.827 118.176C260.021 117.982 258.351 117.125 257.137 115.772C255.924 114.419 255.252 112.664 255.252 110.846Z" fill="#2F2E41"/>
<path d="M255.778 114.006C255.778 114.006 254.634 119.273 261.782 121.38L255.778 114.006Z" fill="#F04B5D"/>
<path d="M246.963 139.24C247.669 139.24 248.241 137.951 248.241 136.36C248.241 134.77 247.669 133.48 246.963 133.48C246.257 133.48 245.684 134.77 245.684 136.36C245.684 137.951 246.257 139.24 246.963 139.24Z" fill="#A0616A"/>
<path d="M105.874 147.502L86.4702 152.21L86.407 152.225L84.2978 154.137L83.6907 154.686L82.3893 154.45L80.0854 154.033L81.6909 148.608L81.9919 138.258L80.8881 131.928L87.0091 127.708C87.0091 127.708 98.9499 127.005 105.874 147.502Z" fill="#D0CDE1"/>
<path opacity="0.1" d="M86.4702 152.21C86.2073 152.771 86.7582 152.401 86.4572 152.978L83.6476 153.883L82.3893 154.45L80.0854 154.033L81.6909 148.608L81.9919 138.259L80.8881 131.929L87.0091 127.708C87.0091 127.708 93.5785 137.025 86.4702 152.21Z" fill="black"/>
<path d="M128.752 132.632C128.752 132.632 103.265 144.488 92.9294 146.297C82.594 148.105 83.4971 158.454 83.4971 158.454L141.395 149.412C141.395 149.412 139.388 140.067 128.752 132.632Z" fill="#D0CDE1"/>
<path d="M79.5837 130.623C79.5837 130.623 83.9988 141.373 79.082 154.737L84.8015 157.349L87.0091 154.737L87.0593 154.486L80.9885 153.933C80.9885 153.933 86.0057 140.469 81.8916 131.125C81.8916 131.125 80.9885 129.115 79.5837 130.623Z" fill="#F04B5D"/>
<path d="M163.772 210.3C141.194 205.276 120.173 215.676 120.173 215.676L120.115 215.624L111.744 208.14L79.0318 154.687L87.0091 154.737C109.185 141.474 140.392 143.283 140.392 143.283C153.838 158.555 163.772 210.3 163.772 210.3Z" fill="#F04B5D"/>
<path opacity="0.1" d="M120.115 215.624L111.744 208.14L79.0318 154.687L87.0091 154.737C87.0091 154.737 118.804 196.785 120.115 215.624Z" fill="black"/>
<path d="M123.789 173.917C130.624 171.818 135.084 166.59 133.752 162.239C132.419 157.889 125.799 156.064 118.964 158.163C112.129 160.262 107.669 165.491 109.001 169.841C110.334 174.191 116.955 176.016 123.789 173.917Z" fill="#D0CDE1"/>
<path d="M185.667 318.269C221.684 303.787 263.291 275.532 301.912 236.912C340.532 198.291 368.787 156.684 383.269 120.667C390.511 102.657 394.29 86.0917 394.233 72.0234C394.175 57.9612 390.289 46.4674 382.28 38.458C374.282 30.4782 362.795 26.6092 348.737 26.5616C334.672 26.514 318.108 30.2951 300.096 37.5332C264.078 52.0079 222.459 80.2328 183.825 118.825C183.825 118.825 183.825 118.825 183.825 118.825M185.667 318.269L382.986 37.7505C415.986 70.7498 380.004 160.234 302.619 237.619C225.234 315.004 135.75 350.986 102.751 317.986C69.7512 284.987 105.733 195.503 183.118 118.118L183.825 118.825M185.667 318.269C167.657 325.511 151.092 329.29 137.023 329.233C122.961 329.175 111.467 325.289 103.458 317.279C95.4482 309.27 91.5614 297.776 91.5041 283.713C91.4466 269.645 95.226 253.08 102.468 235.07C116.95 199.053 145.204 157.446 183.825 118.825M185.667 318.269L183.825 118.825" stroke="#DF1515" stroke-width="2"/>
<circle cx="394" cy="70" r="7" fill="#2D7EEC"/>
</g>
<defs>
<clipPath id="clip0">
<rect width="416" height="361" fill="white"/>
</clipPath>
</defs>
</svg>
