<svg width="181" height="257" viewBox="0 0 181 257" fill="none" xmlns="http://www.w3.org/2000/svg">
<path d="M9.15527e-05 142.75C-0.00334167 161.001 5.46532 178.831 15.6937 193.916C25.9221 209.001 40.4361 220.642 57.345 227.323C58.6714 227.857 60.0222 228.355 61.3791 228.815C62.895 229.337 64.4271 229.816 65.9755 230.252C67.0512 230.553 68.1372 230.835 69.2333 231.099C85.7338 235.071 103.011 234.331 119.115 228.962C120.38 228.539 121.633 228.084 122.874 227.612C124.543 226.967 126.193 226.273 127.813 225.53C127.935 225.481 128.051 225.426 128.167 225.371C128.803 225.076 129.42 224.781 130.05 224.468H130.056C130.918 224.051 131.772 223.617 132.617 223.167C134.561 222.135 136.462 221.036 138.32 219.87C139.286 219.268 140.237 218.644 141.174 217.997C155.925 207.993 167.409 193.839 174.187 177.308C180.964 160.777 182.735 142.605 179.276 125.068C175.817 107.531 167.283 91.409 154.742 78.7225C142.202 66.0361 126.213 57.3491 108.779 53.7502C107.184 53.4186 105.572 53.1321 103.945 52.8906C102.924 52.731 101.891 52.5959 100.858 52.4793C100.118 52.3933 99.3788 52.3135 98.627 52.2521H98.6209C96.6099 52.0679 94.5807 51.9533 92.5331 51.9083C92.2519 51.9021 91.9707 51.896 91.6835 51.8898C91.5246 51.8898 91.3656 51.8837 91.2067 51.8898H91.2006C90.9561 51.8837 90.7116 51.8837 90.461 51.8837C89.4342 51.8837 88.4073 51.9021 87.3866 51.939C85.1373 52.0126 82.9124 52.1682 80.712 52.4056C79.4407 52.5407 78.1877 52.7064 76.9347 52.8906C76.7941 52.9152 76.6474 52.9336 76.5068 52.9581C76.0912 53.0257 75.6694 53.0932 75.2538 53.1669C74.3736 53.3081 73.4996 53.4739 72.6255 53.6519C71.8065 53.8177 70.9936 53.9896 70.1807 54.1738C67.1762 54.8623 64.2097 55.7087 61.2935 56.7094C41.5295 63.4965 24.7028 76.9267 13.6548 94.7321C13.343 95.2294 13.0374 95.7328 12.7379 96.2424C12.5057 96.6231 12.2856 97.0037 12.0656 97.3905C11.9861 97.5194 11.9128 97.6484 11.8456 97.7773C11.7967 97.851 11.76 97.9247 11.7172 97.9983C11.3138 98.7044 10.9226 99.4227 10.5437 100.141C3.59915 113.259 -0.0220184 127.893 9.15527e-05 142.75Z" fill="#F04B5D"/>
<path d="M41.4178 110.296C41.4178 110.296 20.4199 91.7544 12.6195 104.714C4.8192 117.674 34.4741 122.92 36.1873 122.25C37.9005 121.58 41.4178 110.296 41.4178 110.296Z" fill="#A0616A"/>
<path d="M82.2617 124.047C82.2617 124.047 57.4128 115.93 53.1753 112.633C48.9378 109.336 45.0338 106.9 44.1772 107.235C43.3207 107.57 37.7035 105.803 37.7035 105.803L31.0478 124.261C31.0478 124.261 57.6098 131.707 58.2769 133.428C58.944 135.149 82.2617 124.047 82.2617 124.047Z" fill="#575A89"/>
<path d="M69.2333 231.099C85.7338 235.071 103.011 234.331 119.115 228.962L118.015 218.513L116.994 208.751L101.683 184.972L96.775 177.353L76.5496 184.739L74.4898 197.785L71.2075 218.593L69.2333 231.099Z" fill="#2F2E41"/>
<path d="M57.345 227.323C58.6713 227.857 60.0222 228.355 61.3791 228.815C62.8949 229.337 64.427 229.816 65.9755 230.252C67.0512 230.553 68.1371 230.835 69.2333 231.099C85.7338 235.071 103.011 234.331 119.115 228.962C120.38 228.539 121.633 228.084 122.874 227.612C122.705 231.247 122.815 234.891 123.204 238.51C124.97 234.269 126.508 229.936 127.813 225.53C127.905 225.236 127.99 224.941 128.076 224.646C128.504 223.161 128.883 221.742 129.225 220.41C129.616 218.869 129.952 217.438 130.233 216.131C131.352 210.998 131.706 207.824 131.706 207.824L119.757 182.897L117.367 183.173L116.377 183.284L110.387 183.971L101.683 184.972L87.5822 186.587L74.4898 197.786L62.7604 207.824C62.7604 207.824 61.7825 211.164 60.2483 216.696C59.417 219.667 58.433 223.271 57.345 227.323Z" fill="#2F2E41"/>
<path d="M78.7252 55.9855C67.0485 55.9855 57.5827 46.4772 57.5827 34.7482C57.5827 23.0192 67.0485 13.5109 78.7252 13.5109C90.4019 13.5109 99.8678 23.0192 99.8678 34.7482C99.8678 46.4772 90.4019 55.9855 78.7252 55.9855Z" fill="#FFB8B8"/>
<path d="M96.0002 35.8165L107.065 59.594L75.9998 81.2082C75.9998 81.2082 79.6565 55.4668 72.7677 48.9481C65.8789 42.4294 96.0002 35.8165 96.0002 35.8165Z" fill="#FFB8B8"/>
<path d="M71.9539 83.1709C71.9539 83.1709 86.6618 52.7 98.6119 52.7C110.562 52.7 141.816 73.9373 140.897 78.5541C139.978 83.1709 139.978 84.0942 139.978 86.8643C139.978 89.6344 146.413 89.6344 140.897 91.4811C135.382 93.3279 134.462 95.1746 134.462 95.1746L139.059 213.365C139.059 213.365 118.835 220.752 111.481 217.982C104.127 215.212 96.7734 196.744 96.7734 196.744C96.7734 196.744 98.6119 221.675 91.258 220.752C83.9041 219.828 56.3268 217.982 55.4075 214.288C54.4883 210.595 60.923 129.339 60.923 129.339L71.9539 83.1709Z" fill="#575A89"/>
<path d="M123.204 238.51V238.522C124.146 246.706 127 255.001 134.463 256.763C147.14 259.759 142.274 233.592 139.988 223.603C139.451 221.276 139.059 219.827 139.059 219.827L138.32 219.87L129.225 220.41L123.43 220.754C123.43 220.754 123.192 222.442 123.009 225.088C122.954 225.856 122.905 226.703 122.874 227.612C122.705 231.247 122.815 234.891 123.204 238.51Z" fill="#FFB8B8"/>
<path d="M119.754 75.7839L146.412 144.113C146.412 144.113 150.089 151.5 146.412 157.04C142.736 162.58 148.251 195.821 144.574 203.208C140.897 210.595 140.897 223.522 140.897 223.522L119.754 225.368L115.158 144.113L91.2579 92.4044C91.2579 92.4044 93.0964 71.1671 119.754 75.7839Z" fill="#575A89"/>
<path opacity="0.1" d="M112.86 73.4756C112.86 73.4756 129.407 78.0924 134.922 94.7129L112.86 73.4756Z" fill="black"/>
<path d="M92.5807 44.4372C90.5237 44.3139 88.5152 45.0122 86.4725 45.2846C79.1641 46.2592 71.5612 40.9322 69.9475 33.7062C69.8182 32.744 69.5327 31.8095 69.1023 30.94C67.9775 29.0954 65.4159 28.7437 63.3042 29.1679C61.1925 29.592 59.1908 30.5848 57.0402 30.6981C53.7197 30.8731 50.5319 28.8198 48.7623 25.9921C46.9927 23.1644 46.4916 19.685 46.7305 16.3537L48.3224 18.0318C48.9692 16.6573 49.2189 15.128 49.0431 13.6179C49.8867 13.3923 50.7737 13.3879 51.6194 13.6053C52.4651 13.8227 53.2411 14.2544 53.8731 14.8593C55.2767 15.0094 54.2173 12.2442 55.2601 11.2886C55.6968 10.8885 56.3662 10.964 56.9573 10.9697C59.9433 10.9986 62.3588 8.70447 64.7118 6.85767C68.7888 3.66493 73.5564 1.4805 78.6293 0.480924C82.0011 -0.179698 85.5866 -0.285828 88.7843 0.975365C91.4103 2.01112 93.6084 3.89756 95.642 5.8618C100.648 10.6972 105.081 16.3787 107.164 23.034C108.857 28.4852 108.905 34.318 107.302 39.7966C106.463 42.6417 103.934 52.3857 100.231 52.6126C95.5784 52.8977 98.3717 44.7843 92.5807 44.4372Z" fill="#2F2E41"/>
<path opacity="0.1" d="M91.0784 112.359L112.729 144.255L119.652 218.342L91.0784 112.359Z" fill="black"/>
<path d="M33.6933 127.839C34.3035 127.402 34.7158 126.739 34.8394 125.996C34.963 125.254 34.7879 124.492 34.3525 123.879L9.72862 89.2124C9.29324 88.5995 8.63329 88.1854 7.89395 88.0612C7.1546 87.937 6.39643 88.113 5.78622 88.5503L33.6933 127.839L33.6933 127.839Z" fill="#D0CDE1"/>
<path d="M32.6824 131.304L34.1071 130.283C34.601 129.929 34.9346 129.393 35.0347 128.792C35.1347 128.19 34.993 127.574 34.6406 127.078L6.60429 87.607C6.30677 87.1881 5.85579 86.9051 5.35056 86.8202C4.84533 86.7354 4.32722 86.8556 3.91022 87.1545L2.19564 88.3833L32.6824 131.304L32.6824 131.304Z" fill="#2F2E41"/>
<path d="M11.9067 97.8653L11.2493 98.3364L9.37314 95.6951L10.0305 95.224L11.9067 97.8653Z" fill="#D0CDE1"/>
</svg>
