<svg width="140" height="51" viewBox="0 0 140 51" fill="none" xmlns="http://www.w3.org/2000/svg">
<path d="M10.6001 13.7959C12.7564 13.7959 14.6229 14.154 16.1996 14.8699C17.7994 15.5859 19.0283 16.6022 19.8862 17.9187C20.744 19.2352 21.173 20.7942 21.173 22.5957C21.173 24.3742 20.744 25.9332 19.8862 27.2728C19.0283 28.5893 17.7994 29.6056 16.1996 30.3215C14.6229 31.0144 12.7564 31.3609 10.6001 31.3609H5.69624V38.0473H0.0619812V13.7959H10.6001ZM10.2871 26.7877C11.9797 26.7877 13.2665 26.4297 14.1476 25.7138C15.0287 24.9746 15.4692 23.9353 15.4692 22.5957C15.4692 21.233 15.0287 20.1936 14.1476 19.4777C13.2665 18.7385 11.9797 18.369 10.2871 18.369H5.69624V26.7877H10.2871Z" fill="#F04B5D"/>
<path d="M39.3158 38.0473L34.6206 31.2916H34.3424H29.4385V38.0473H23.8043V13.7959H34.3424C36.4987 13.7959 38.3653 14.154 39.9419 14.8699C41.5417 15.5859 42.7706 16.6022 43.6285 17.9187C44.4865 19.2352 44.9153 20.7942 44.9153 22.5957C44.9153 24.3972 44.4748 25.9563 43.5937 27.2728C42.7359 28.5662 41.5069 29.5593 39.9071 30.2522L45.3674 38.0473H39.3158ZM39.2115 22.5957C39.2115 21.233 38.771 20.1936 37.8899 19.4777C37.0089 18.7385 35.7221 18.369 34.0294 18.369H29.4385V26.8224H34.0294C35.7221 26.8224 37.0089 26.4529 37.8899 25.7138C38.771 24.9746 39.2115 23.9353 39.2115 22.5957Z" fill="#F04B5D"/>
<path d="M59.7784 38.4629C57.251 38.4629 54.9672 37.9201 52.9269 36.8346C50.9097 35.749 49.3213 34.2592 48.1621 32.3654C47.0259 30.4483 46.4579 28.3003 46.4579 25.9214C46.4579 23.5425 47.0259 21.406 48.1621 19.5121C49.3213 17.5951 50.9097 16.0939 52.9269 15.0083C54.9672 13.9227 57.251 13.38 59.7784 13.38C62.3057 13.38 64.578 13.9227 66.5952 15.0083C68.6124 16.0939 70.2006 17.5951 71.3599 19.5121C72.5191 21.406 73.0989 23.5425 73.0989 25.9214C73.0989 28.3003 72.5191 30.4483 71.3599 32.3654C70.2006 34.2592 68.6124 35.749 66.5952 36.8346C64.578 37.9201 62.3057 38.4629 59.7784 38.4629ZM59.7784 33.6819C61.2158 33.6819 62.5143 33.3585 63.6737 32.7118C64.8329 32.042 65.7372 31.1182 66.3865 29.9402C67.0588 28.7623 67.3951 27.4228 67.3951 25.9214C67.3951 24.4201 67.0588 23.0806 66.3865 21.9026C65.7372 20.7247 64.8329 19.8123 63.6737 19.1657C62.5143 18.4958 61.2158 18.161 59.7784 18.161C58.3408 18.161 57.0423 18.4958 55.8831 19.1657C54.7238 19.8123 53.8079 20.7247 53.1356 21.9026C52.4862 23.0806 52.1618 24.4201 52.1618 25.9214C52.1618 27.4228 52.4862 28.7623 53.1356 29.9402C53.8079 31.1182 54.7238 32.042 55.8831 32.7118C57.0423 33.3585 58.3408 33.6819 59.7784 33.6819Z" fill="#F04B5D"/>
<path d="M83.4972 35.8187V38.0472H74.5315V36.2745L79.1076 31.9694C79.5934 31.508 79.9211 31.114 80.0906 30.7876C80.2601 30.45 80.3448 30.118 80.3448 29.7916C80.3448 29.3188 80.181 28.9587 79.8533 28.7111C79.537 28.4522 79.068 28.3228 78.4466 28.3228C77.9269 28.3228 77.458 28.4241 77.0399 28.6266C76.6218 28.818 76.2716 29.1106 75.9891 29.5046L73.9892 28.2215C74.4525 27.5349 75.0908 27.0003 75.9044 26.6176C76.7179 26.2237 77.65 26.0267 78.7008 26.0267C79.5821 26.0267 80.3505 26.173 81.0058 26.4657C81.6724 26.747 82.1865 27.1522 82.5481 27.6812C82.921 28.199 83.1074 28.8124 83.1074 29.5214C83.1074 30.163 82.9718 30.7651 82.7006 31.3279C82.4295 31.8906 81.9041 32.5322 81.1244 33.2525L78.3958 35.8187H83.4972Z" fill="#F04B5D"/>
<path d="M114.401 37.1681C115.376 37.1681 116.166 37.9554 116.166 38.9267C116.166 39.898 115.376 40.6853 114.401 40.6853C113.426 40.6853 112.636 39.898 112.636 38.9267C112.636 37.9554 113.426 37.1681 114.401 37.1681Z" fill="#F04B5D"/>
<path d="M114.401 10.2611C115.376 10.2611 116.166 11.0485 116.166 12.0197C116.166 12.9911 115.376 13.7784 114.401 13.7784C113.426 13.7784 112.636 12.9911 112.636 12.0197C112.636 11.0485 113.426 10.2611 114.401 10.2611Z" fill="#F04B5D"/>
<path d="M126.141 25.4734C126.141 24.5021 126.932 23.7148 127.907 23.7148C128.882 23.7148 129.672 24.5021 129.672 25.4734C129.672 26.4447 128.882 27.232 127.907 27.232C126.932 27.232 126.141 26.4447 126.141 25.4734Z" fill="#F04B5D"/>
<path d="M99.1299 25.4734C99.1299 24.5021 99.9203 23.7148 100.895 23.7148C101.87 23.7148 102.661 24.5021 102.661 25.4734C102.661 26.4447 101.87 27.232 100.895 27.232C99.9203 27.232 99.1299 26.4447 99.1299 25.4734Z" fill="#F04B5D"/>
<path d="M122.703 17.2038C122.013 16.5171 122.013 15.4035 122.703 14.7168C123.392 14.03 124.51 14.03 125.199 14.7168C125.889 15.4035 125.889 16.5171 125.199 17.2038C124.51 17.8906 123.392 17.8906 122.703 17.2038Z" fill="#F04B5D"/>
<path d="M103.603 36.2295C102.913 35.5428 102.913 34.4294 103.603 33.7425C104.292 33.0558 105.41 33.0558 106.099 33.7425C106.789 34.4294 106.789 35.5428 106.099 36.2295C105.41 36.9165 104.292 36.9165 103.603 36.2295Z" fill="#F04B5D"/>
<path d="M106.1 17.2035C105.41 17.8903 104.292 17.8903 103.603 17.2035C102.913 16.5166 102.913 15.4032 103.603 14.7163C104.292 14.0295 105.41 14.0295 106.1 14.7163C106.789 15.4032 106.789 16.5166 106.1 17.2035Z" fill="#F04B5D"/>
<path d="M125.199 36.2295C124.51 36.9163 123.392 36.9163 122.703 36.2295C122.013 35.5428 122.013 34.4292 122.703 33.7425C123.392 33.0558 124.51 33.0558 125.199 33.7425C125.889 34.4292 125.889 35.5428 125.199 36.2295Z" fill="#F04B5D"/>
<path d="M103.574 20.952C103.197 21.8477 102.162 22.2696 101.263 21.8939C100.364 21.5184 99.9402 20.4881 100.317 19.5922C100.694 18.6966 101.729 18.2747 102.628 18.6501C103.527 19.0256 103.95 20.0561 103.574 20.952Z" fill="#F04B5D"/>
<path d="M128.485 31.3539C128.108 32.2498 127.073 32.6715 126.174 32.296C125.275 31.9206 124.852 30.89 125.229 29.9943C125.605 29.0985 126.64 28.6768 127.539 29.0523C128.438 29.4277 128.862 30.4583 128.485 31.3539Z" fill="#F04B5D"/>
<path d="M109.862 36.2586C110.762 36.634 111.185 37.6646 110.808 38.5602C110.431 39.4559 109.397 39.8778 108.497 39.5023C107.598 39.1269 107.175 38.0963 107.552 37.2005C107.929 36.3048 108.963 35.8831 109.862 36.2586Z" fill="#F04B5D"/>
<path d="M120.305 11.4439C121.204 11.8194 121.627 12.8499 121.25 13.7457C120.873 14.6414 119.839 15.0631 118.94 14.6876C118.04 14.3122 117.617 13.2816 117.994 12.3859C118.371 11.4902 119.405 11.0684 120.305 11.4439Z" fill="#F04B5D"/>
<path d="M118.848 36.2964C119.75 35.9285 120.781 36.359 121.15 37.2579C121.52 38.1567 121.088 39.1837 120.185 39.5516C119.283 39.9195 118.252 39.489 117.883 38.5902C117.513 37.6912 117.946 36.6643 118.848 36.2964Z" fill="#F04B5D"/>
<path d="M108.617 11.3945C109.519 11.0266 110.55 11.4571 110.919 12.356C111.289 13.2549 110.857 14.2818 109.954 14.6497C109.052 15.0176 108.021 14.587 107.652 13.6882C107.282 12.7893 107.714 11.7624 108.617 11.3945Z" fill="#F04B5D"/>
<path d="M125.266 21.0434C124.897 20.1446 125.329 19.1177 126.232 18.7498C127.134 18.3819 128.165 18.8124 128.534 19.7113C128.904 20.6101 128.471 21.6371 127.569 22.005C126.667 22.3729 125.636 21.9424 125.266 21.0434Z" fill="#F04B5D"/>
<path d="M100.268 31.2354C99.8984 30.3364 100.331 29.3095 101.233 28.9416C102.135 28.5737 103.166 29.0042 103.536 29.9031C103.905 30.8019 103.473 31.8289 102.57 32.1968C101.668 32.5647 100.637 32.1342 100.268 31.2354Z" fill="#F04B5D"/>
<path d="M97.9373 22.3728C97.8072 23.0402 97.1584 23.4761 96.4884 23.3463C95.8184 23.2167 95.3809 22.5704 95.5112 21.903C95.6414 21.2356 96.2902 20.7999 96.9602 20.9295C97.6301 21.0592 98.0676 21.7055 97.9373 22.3728Z" fill="#F04B5D"/>
<path d="M133.291 29.218C133.161 29.8854 132.512 30.3213 131.842 30.1915C131.172 30.0618 130.734 29.4156 130.865 28.7482C130.995 28.0808 131.644 27.6451 132.314 27.7747C132.984 27.9045 133.421 28.5506 133.291 29.218Z" fill="#F04B5D"/>
<path d="M111.201 41.9607C111.871 42.0903 112.308 42.7366 112.178 43.404C112.048 44.0714 111.399 44.5072 110.729 44.3774C110.059 44.2478 109.622 43.6015 109.752 42.9341C109.882 42.2667 110.531 41.8309 111.201 41.9607Z" fill="#F04B5D"/>
<path d="M118.073 6.74386C118.743 6.87357 119.18 7.51978 119.05 8.18716C118.92 8.85455 118.271 9.29041 117.601 9.16068C116.931 9.03096 116.494 8.38477 116.624 7.71738C116.754 7.04998 117.403 6.61412 118.073 6.74386Z" fill="#F04B5D"/>
<path d="M100.496 34.903C100.878 35.4666 100.729 36.2316 100.163 36.6118C99.5972 36.992 98.8292 36.8433 98.4475 36.2796C98.0658 35.716 98.2152 34.951 98.781 34.5708C99.3468 34.1905 100.115 34.3393 100.496 34.903Z" fill="#F04B5D"/>
<path d="M130.354 14.8412C130.736 15.4049 130.587 16.1699 130.021 16.5501C129.455 16.9303 128.687 16.7815 128.305 16.2179C127.924 15.6543 128.073 14.8891 128.639 14.509C129.205 14.1288 129.973 14.2774 130.354 14.8412Z" fill="#F04B5D"/>
<path d="M123.78 39.4114C124.345 39.0312 125.114 39.18 125.495 39.7436C125.877 40.3072 125.728 41.0724 125.162 41.4526C124.596 41.8327 123.828 41.6841 123.446 41.1204C123.064 40.5568 123.214 39.7916 123.78 39.4114Z" fill="#F04B5D"/>
<path d="M103.64 9.66853C104.206 9.28835 104.974 9.43708 105.356 10.0007C105.737 10.5644 105.588 11.3295 105.022 11.7097C104.457 12.0899 103.688 11.9411 103.307 11.3775C102.925 10.8138 103.074 10.0487 103.64 9.66853Z" fill="#F04B5D"/>
<path d="M97.9705 28.9146C98.1075 29.5808 97.6765 30.2313 97.008 30.3678C96.3394 30.5042 95.6862 30.0749 95.5492 29.409C95.4122 28.7428 95.8431 28.0923 96.5119 27.9558C97.1805 27.8193 97.8335 28.2486 97.9705 28.9146Z" fill="#F04B5D"/>
<path d="M133.253 21.713C133.39 22.379 132.959 23.0297 132.29 23.1662C131.621 23.3027 130.968 22.8734 130.831 22.2072C130.694 21.5412 131.125 20.8907 131.794 20.7542C132.462 20.6178 133.116 21.0471 133.253 21.713Z" fill="#F04B5D"/>
<path d="M117.768 41.9277C118.436 41.7912 119.089 42.2205 119.226 42.8865C119.363 43.5527 118.932 44.2032 118.264 44.3396C117.595 44.4761 116.942 44.0468 116.805 43.3809C116.668 42.7147 117.099 42.0642 117.768 41.9277Z" fill="#F04B5D"/>
<path d="M110.538 6.78216C111.207 6.6457 111.86 7.07499 111.997 7.74103C112.134 8.40708 111.703 9.05764 111.034 9.19413C110.366 9.3306 109.713 8.9013 109.576 8.23526C109.439 7.56922 109.869 6.91865 110.538 6.78216Z" fill="#F04B5D"/>
<path d="M105.163 39.5056C105.733 39.88 105.89 40.6436 105.514 41.2111C105.138 41.7786 104.372 41.9349 103.802 41.5605C103.233 41.1861 103.076 40.4225 103.451 39.855C103.827 39.2875 104.594 39.1311 105.163 39.5056Z" fill="#F04B5D"/>
<path d="M125 9.56144C125.569 9.9359 125.726 10.6995 125.351 11.267C124.974 11.8344 124.208 11.9909 123.638 11.6164C123.069 11.242 122.912 10.4784 123.287 9.91091C123.663 9.34344 124.43 9.18698 125 9.56144Z" fill="#F04B5D"/>
<path d="M128.4 34.7626C128.775 34.1951 129.542 34.0388 130.112 34.4132C130.681 34.7876 130.838 35.5512 130.463 36.1187C130.087 36.6862 129.32 36.8427 128.75 36.4682C128.181 36.0937 128.024 35.3302 128.4 34.7626Z" fill="#F04B5D"/>
<path d="M98.3393 15.0034C98.7152 14.4359 99.4817 14.2794 100.051 14.654C100.621 15.0284 100.778 15.792 100.402 16.3595C100.026 16.9268 99.2598 17.0833 98.6901 16.7089C98.1204 16.3345 97.9634 15.5709 98.3393 15.0034Z" fill="#F04B5D"/>
<path d="M94.0984 25.5609C94.0984 26.0465 93.7031 26.4402 93.2156 26.4402C92.728 26.4402 92.3329 26.0465 92.3329 25.5609C92.3329 25.0752 92.728 24.6816 93.2156 24.6816C93.7031 24.6816 94.0984 25.0752 94.0984 25.5609Z" fill="#F04B5D"/>
<path d="M136.469 25.5609C136.469 26.0465 136.074 26.4402 135.586 26.4402C135.099 26.4402 134.704 26.0465 134.704 25.5609C134.704 25.0752 135.099 24.6816 135.586 24.6816C136.074 24.6816 136.469 25.0752 136.469 25.5609Z" fill="#F04B5D"/>
<path d="M114.401 45.7853C114.888 45.7853 115.284 46.1789 115.284 46.6646C115.284 47.1502 114.888 47.5439 114.401 47.5439C113.913 47.5439 113.518 47.1502 113.518 46.6646C113.518 46.1789 113.913 45.7853 114.401 45.7853Z" fill="#F04B5D"/>
<path d="M114.401 3.57819C114.888 3.57819 115.284 3.97187 115.284 4.4575C115.284 4.94314 114.888 5.33681 114.401 5.33681C113.913 5.33681 113.518 4.94314 113.518 4.4575C113.518 3.97187 113.913 3.57819 114.401 3.57819Z" fill="#F04B5D"/>
<path d="M100.045 39.8616C100.389 40.2049 100.389 40.7617 100.045 41.1051C99.6998 41.4484 99.141 41.4484 98.7962 41.1051C98.4514 40.7617 98.4514 40.2049 98.7962 39.8616C99.141 39.5181 99.6998 39.5181 100.045 39.8616Z" fill="#F04B5D"/>
<path d="M130.005 10.0166C130.35 10.36 130.35 10.9168 130.005 11.2601C129.66 11.6035 129.102 11.6035 128.757 11.2601C128.412 10.9168 128.412 10.36 128.757 10.0166C129.102 9.67322 129.66 9.67322 130.005 10.0166Z" fill="#F04B5D"/>
<path d="M128.757 39.8619C129.102 39.5185 129.661 39.5185 130.005 39.8619C130.35 40.2052 130.35 40.762 130.005 41.1055C129.661 41.4489 129.102 41.4489 128.757 41.1055C128.412 40.762 128.412 40.2052 128.757 39.8619Z" fill="#F04B5D"/>
<path d="M98.7964 10.0169C99.1412 9.67349 99.7001 9.67349 100.045 10.0169C100.39 10.3603 100.39 10.917 100.045 11.2604C99.7001 11.6038 99.1412 11.6038 98.7964 11.2604C98.4518 10.917 98.4518 10.3603 98.7964 10.0169Z" fill="#F04B5D"/>
<path d="M95.6555 33.3287C95.8426 33.7772 95.6295 34.2917 95.1795 34.4783C94.7293 34.6647 94.2126 34.4525 94.0254 34.0042C93.8381 33.5557 94.0512 33.041 94.5014 32.8546C94.9514 32.668 95.4682 32.8803 95.6555 33.3287Z" fill="#F04B5D"/>
<path d="M134.776 17.1175C134.964 17.566 134.75 18.0807 134.3 18.2671C133.85 18.4537 133.333 18.2414 133.146 17.793C132.959 17.3446 133.172 16.83 133.622 16.6434C134.072 16.457 134.589 16.6692 134.776 17.1175Z" fill="#F04B5D"/>
<path d="M122.199 44.2342C122.649 44.0478 123.166 44.2601 123.353 44.7084C123.54 45.1568 123.327 45.6716 122.877 45.858C122.427 46.0446 121.91 45.8323 121.723 45.3839C121.536 44.9356 121.749 44.4208 122.199 44.2342Z" fill="#F04B5D"/>
<path d="M105.925 5.26433C106.375 5.07781 106.892 5.29009 107.079 5.73847C107.266 6.18685 107.053 6.70154 106.603 6.88806C106.153 7.07458 105.636 6.86232 105.449 6.41392C105.262 5.96554 105.475 5.45086 105.925 5.26433Z" fill="#F04B5D"/>
<path d="M106.66 44.2572C107.11 44.4423 107.325 44.9564 107.139 45.4054C106.953 45.8542 106.437 46.068 105.987 45.8828C105.536 45.6978 105.321 45.1838 105.507 44.7348C105.693 44.2858 106.209 44.072 106.66 44.2572Z" fill="#F04B5D"/>
<path d="M122.815 5.23871C123.266 5.42387 123.48 5.93792 123.294 6.38687C123.108 6.83582 122.592 7.04965 122.142 6.86448C121.691 6.67932 121.476 6.16527 121.662 5.71633C121.848 5.26739 122.364 5.05356 122.815 5.23871Z" fill="#F04B5D"/>
<path d="M133.17 33.2725C133.356 32.8235 133.872 32.6096 134.322 32.7948C134.773 32.98 134.988 33.494 134.802 33.943C134.616 34.3918 134.1 34.6057 133.649 34.4205C133.199 34.2355 132.984 33.7214 133.17 33.2725Z" fill="#F04B5D"/>
<path d="M93.9998 17.1796C94.1857 16.7306 94.7018 16.5168 95.1525 16.702C95.6032 16.8872 95.8179 17.4012 95.632 17.8502C95.4461 18.2992 94.93 18.513 94.4793 18.3278C94.0286 18.1426 93.8139 17.6286 93.9998 17.1796Z" fill="#F04B5D"/>
<path d="M90.3122 30.2255C90.3865 30.6068 90.1365 30.9761 89.7536 31.0501C89.3708 31.1244 89.0001 30.8753 88.9258 30.4939C88.8513 30.1126 89.1013 29.7433 89.4842 29.6691C89.8671 29.5951 90.2377 29.8441 90.3122 30.2255Z" fill="#F04B5D"/>
<path d="M139.876 20.6282C139.951 21.0097 139.701 21.379 139.318 21.453C138.935 21.5272 138.564 21.278 138.49 20.8968C138.415 20.5153 138.665 20.1462 139.048 20.072C139.431 19.9979 139.802 20.2469 139.876 20.6282Z" fill="#F04B5D"/>
<path d="M119.083 49.5565C119.466 49.4823 119.837 49.7315 119.911 50.1127C119.986 50.4942 119.736 50.8633 119.353 50.9375C118.97 51.0116 118.599 50.7625 118.525 50.3813C118.451 49.9998 118.701 49.6305 119.083 49.5565Z" fill="#F04B5D"/>
<path d="M109.449 0.184258C109.832 0.110133 110.203 0.359188 110.277 0.740563C110.351 1.12192 110.101 1.49118 109.719 1.5653C109.336 1.63943 108.965 1.39037 108.891 1.009C108.816 0.627642 109.066 0.258384 109.449 0.184258Z" fill="#F04B5D"/>
<path d="M100.679 45.8265C101.002 46.0437 101.087 46.4809 100.869 46.8031C100.651 47.1251 100.212 47.2102 99.8889 46.9929C99.5654 46.7757 99.4802 46.3385 99.6982 46.0163C99.9164 45.6943 100.355 45.6094 100.679 45.8265Z" fill="#F04B5D"/>
<path d="M128.913 4.12892C129.237 4.34616 129.322 4.78337 129.104 5.10546C128.886 5.42755 128.447 5.51253 128.123 5.29529C127.8 5.07803 127.715 4.64082 127.933 4.31872C128.151 3.99665 128.59 3.91166 128.913 4.12892Z" fill="#F04B5D"/>
<path d="M134.745 39.2307C134.964 38.9085 135.402 38.8236 135.726 39.0408C136.049 39.258 136.134 39.6953 135.916 40.0173C135.698 40.3395 135.259 40.4245 134.936 40.2071C134.613 39.9899 134.527 39.5527 134.745 39.2307Z" fill="#F04B5D"/>
<path d="M92.8857 11.1051C93.1039 10.783 93.5428 10.698 93.866 10.9153C94.1894 11.1325 94.2747 11.5697 94.0567 11.8918C93.8385 12.2139 93.3996 12.2989 93.0763 12.0817C92.7529 11.8644 92.6676 11.4272 92.8857 11.1051Z" fill="#F04B5D"/>
<path d="M93.9651 39.0943C94.181 39.4177 94.0927 39.8543 93.768 40.0694C93.4432 40.2845 93.0048 40.1966 92.7889 39.873C92.573 39.5496 92.6613 39.1129 92.9861 38.8978C93.3108 38.6827 93.7491 38.7707 93.9651 39.0943Z" fill="#F04B5D"/>
<path d="M136.013 11.2488C136.229 11.5724 136.141 12.009 135.816 12.2241C135.491 12.4392 135.053 12.3513 134.837 12.0277C134.621 11.7042 134.709 11.2675 135.034 11.0525C135.359 10.8374 135.797 10.9253 136.013 11.2488Z" fill="#F04B5D"/>
<path d="M127.987 45.9178C128.312 45.7027 128.75 45.7906 128.966 46.1141C129.182 46.4376 129.093 46.8743 128.769 47.0894C128.444 47.3045 128.006 47.2165 127.79 46.893C127.574 46.5695 127.662 46.1329 127.987 45.9178Z" fill="#F04B5D"/>
<path d="M100.033 4.03266C100.358 3.81758 100.796 3.90549 101.012 4.22903C101.228 4.55256 101.14 4.98919 100.815 5.20427C100.491 5.41937 100.052 5.33144 99.8362 5.0079C99.6203 4.68437 99.7086 4.24774 100.033 4.03266Z" fill="#F04B5D"/>
<path d="M109.557 49.5248C109.94 49.6015 110.187 49.9724 110.11 50.3533C110.033 50.7341 109.661 50.9808 109.278 50.9041C108.896 50.8275 108.648 50.4564 108.725 50.0756C108.802 49.6947 109.175 49.4482 109.557 49.5248Z" fill="#F04B5D"/>
<path d="M119.524 0.217831C119.906 0.294524 120.154 0.665435 120.077 1.0463C120 1.42715 119.627 1.67374 119.245 1.59705C118.862 1.52037 118.615 1.14944 118.692 0.768596C118.769 0.387731 119.141 0.141155 119.524 0.217831Z" fill="#F04B5D"/>
<path d="M138.458 30.3861C138.535 30.0052 138.907 29.7586 139.29 29.8353C139.672 29.912 139.919 30.2829 139.843 30.6638C139.766 31.0447 139.393 31.2913 139.011 31.2146C138.629 31.1379 138.381 30.7668 138.458 30.3861Z" fill="#F04B5D"/>
<path d="M88.9597 20.4582C89.0367 20.0773 89.409 19.8307 89.7912 19.9074C90.1736 19.9841 90.4211 20.355 90.3441 20.7359C90.2672 21.1166 89.8948 21.3634 89.5124 21.2865C89.1302 21.2098 88.8825 20.8389 88.9597 20.4582Z" fill="#F04B5D"/>
</svg>
