<svg width="1110" height="298" viewBox="0 0 1110 298" fill="none" xmlns="http://www.w3.org/2000/svg">
<path d="M636.296 84.968C636.296 92.528 641.984 98.432 649.76 98.432C657.536 98.432 663.224 92.528 663.224 84.968C663.224 77.588 657.536 71.828 649.76 71.828C641.984 71.828 636.296 77.588 636.296 84.968ZM642.812 84.968C642.812 80.756 645.908 77.588 649.76 77.588C653.612 77.588 656.708 80.756 656.708 84.968C656.708 89.36 653.612 92.672 649.76 92.672C645.908 92.672 642.812 89.36 642.812 84.968ZM665.791 86.912C665.791 93.716 669.139 98.432 675.835 98.432C681.703 98.432 685.411 94.544 685.411 89.432C685.411 84.464 682.387 80.936 677.419 80.936C675.799 80.936 673.567 81.368 671.983 82.7H671.911C672.019 80.036 674.539 79.028 676.915 78.236L683.899 76.004L682.135 71L676.123 73.016C668.887 75.5 665.791 79.352 665.791 86.912ZM671.983 89.54C671.983 87.128 673.639 85.616 675.583 85.616C677.527 85.616 679.183 87.128 679.183 89.54C679.183 91.916 677.527 93.356 675.583 93.356C673.639 93.356 671.983 91.916 671.983 89.54ZM691.506 98H700.758C705.942 98 708.102 95.444 708.102 91.664C708.102 87.92 705.942 85.256 700.758 85.256H697.734V79.46H686.826V84.68H691.506V98ZM697.734 93.932V89.288H699.498C701.082 89.288 701.874 90.332 701.874 91.628C701.874 92.924 701.082 93.932 699.606 93.932H697.734ZM709.047 98H715.635L719.199 92.348H720.495V98H726.723V79.46H717.003C712.899 79.46 710.307 81.836 710.307 85.724C710.307 88.1 711.639 90.224 713.655 91.232V91.268C713.655 91.268 713.295 91.628 712.791 92.384L709.047 98ZM719.019 88.208C717.543 88.208 716.499 87.452 716.499 85.688C716.499 83.96 717.543 83.312 718.983 83.312H720.495V88.208H719.019ZM729.841 88.712C729.841 93.824 733.549 98.432 740.173 98.432C743.269 98.432 746.293 97.244 748.129 95.372L745.861 91.016C744.529 92.168 742.585 93.248 740.785 93.248C737.653 93.248 736.141 90.836 736.141 88.64C736.141 86.444 737.617 84.212 740.569 84.212C742.189 84.212 743.845 84.968 744.925 86.012L747.553 81.836C745.717 79.856 742.765 79.028 740.173 79.028C733.513 79.028 729.841 83.744 729.841 88.712ZM750.748 98H756.976V91.232H762.7V98H768.928V79.46H762.7V86.012H756.976V79.46H750.748V98ZM771.344 98H777.932L781.496 92.348H782.792V98H789.02V79.46H779.3C775.196 79.46 772.604 81.836 772.604 85.724C772.604 88.1 773.936 90.224 775.952 91.232V91.268C775.952 91.268 775.592 91.628 775.088 92.384L771.344 98ZM781.316 88.208C779.84 88.208 778.796 87.452 778.796 85.688C778.796 83.96 779.84 83.312 781.28 83.312H782.792V88.208H781.316ZM792.138 88.712C792.138 93.644 795.702 98.432 802.326 98.432C805.17 98.432 808.23 97.46 810.246 95.732L807.942 91.376C806.43 92.384 804.666 93.248 802.83 93.248C800.85 93.248 798.978 92.204 798.51 89.936H810.21C810.282 89.288 810.354 88.64 810.354 87.992C810.354 82.844 807.258 79.028 801.786 79.028C795.81 79.028 792.138 83.276 792.138 88.712ZM798.654 86.372C798.978 84.896 799.842 83.6 801.642 83.6C803.226 83.6 804.198 84.86 804.198 86.372H798.654ZM812.816 98H818.756L819.188 89.468C819.26 88.028 819.152 86.3 819.152 86.3H819.224C819.224 86.3 819.908 87.848 820.304 89.036L822.752 95.516H827.792L830.24 89.036C830.708 87.884 831.248 86.3 831.248 86.3H831.32C831.32 86.3 831.248 88.028 831.284 89.468L831.716 98H837.692L835.928 79.46H828.764L826.028 87.596C825.704 88.532 825.272 89.756 825.272 89.756H825.236C825.236 89.756 824.84 88.532 824.516 87.596L821.78 79.46H814.58L812.816 98ZM850.065 98H856.293V84.68H861.801V98H868.029V79.46H850.065V98ZM872.213 105.2H878.441V98.252C878.441 97.316 878.369 96.668 878.369 96.668H878.441C879.773 97.82 881.429 98.432 883.157 98.432C888.089 98.432 891.797 94.616 891.797 88.748C891.797 82.988 888.485 79.028 883.445 79.028C881.213 79.028 879.089 79.892 877.829 81.584H877.757C877.757 81.584 877.829 81.008 877.829 80.396V79.46H872.213V105.2ZM878.261 88.856C878.261 85.652 880.025 84.284 881.897 84.284C884.057 84.284 885.533 86.084 885.533 88.856C885.533 91.7 883.841 93.284 881.897 93.284C879.449 93.284 878.261 91.088 878.261 88.856ZM893.95 88.784C893.95 94.58 898.63 98.432 904.462 98.432C910.294 98.432 914.974 94.58 914.974 88.784C914.974 82.952 910.294 79.028 904.426 79.028C898.63 79.028 893.95 82.952 893.95 88.784ZM900.25 88.784C900.25 85.976 902.194 84.212 904.462 84.212C906.73 84.212 908.674 85.976 908.674 88.784C908.674 91.556 906.73 93.248 904.462 93.248C902.194 93.248 900.25 91.556 900.25 88.784ZM917.048 88.712C917.048 93.824 920.756 98.432 927.38 98.432C930.476 98.432 933.5 97.244 935.336 95.372L933.068 91.016C931.736 92.168 929.792 93.248 927.992 93.248C924.86 93.248 923.348 90.836 923.348 88.64C923.348 86.444 924.824 84.212 927.776 84.212C929.396 84.212 931.052 84.968 932.132 86.012L934.76 81.836C932.924 79.856 929.972 79.028 927.38 79.028C920.72 79.028 917.048 83.744 917.048 88.712ZM942.023 98H948.251V84.68H953.903V79.46H936.407V84.68H942.023V98ZM975.022 98H981.25V79.46H975.022V98ZM956.518 98H965.554C970.738 98 972.898 95.444 972.898 91.664C972.898 87.92 970.738 85.256 965.554 85.256H962.746V79.46H956.518V98ZM962.746 93.932V89.288H964.294C965.878 89.288 966.67 90.332 966.67 91.628C966.67 92.924 965.878 93.932 964.402 93.932H962.746ZM984.624 98H990.564L990.996 89.468C991.068 88.028 990.96 86.3 990.96 86.3H991.032C991.032 86.3 991.716 87.848 992.112 89.036L994.56 95.516H999.6L1002.05 89.036C1002.52 87.884 1003.06 86.3 1003.06 86.3H1003.13C1003.13 86.3 1003.06 88.028 1003.09 89.468L1003.52 98H1009.5L1007.74 79.46H1000.57L997.836 87.596C997.512 88.532 997.08 89.756 997.08 89.756H997.044C997.044 89.756 996.648 88.532 996.324 87.596L993.588 79.46H986.388L984.624 98ZM635.324 140H641.912L645.476 134.348H646.772V140H653V121.46H643.28C639.176 121.46 636.584 123.836 636.584 127.724C636.584 130.1 637.916 132.224 639.932 133.232V133.268C639.932 133.268 639.572 133.628 639.068 134.384L635.324 140ZM645.296 130.208C643.82 130.208 642.776 129.452 642.776 127.688C642.776 125.96 643.82 125.312 645.26 125.312H646.772V130.208H645.296ZM655.614 137.696C657.63 139.496 660.618 140.432 663.354 140.432C667.746 140.432 671.022 138.452 671.022 134.528C671.022 132.368 669.546 131.072 668.142 130.424V130.352C669.258 129.74 670.446 128.48 670.446 126.176C670.446 122.972 667.422 121.028 663.606 121.028C660.222 121.028 657.846 121.928 656.118 123.116L657.918 126.968C659.862 125.816 661.302 125.564 662.31 125.564C663.894 125.564 664.254 126.248 664.254 127.04C664.254 128.192 663.354 128.48 662.382 128.48H660.51V132.584H662.778C664.47 132.584 664.794 133.232 664.794 134.132C664.794 134.996 664.29 135.752 662.562 135.752C661.086 135.752 659.25 134.852 658.098 133.808L655.614 137.696ZM692.682 140H698.91V121.46H692.682V140ZM674.178 140H683.214C688.398 140 690.558 137.444 690.558 133.664C690.558 129.92 688.398 127.256 683.214 127.256H680.406V121.46H674.178V140ZM680.406 135.932V131.288H681.954C683.538 131.288 684.33 132.332 684.33 133.628C684.33 134.924 683.538 135.932 682.062 135.932H680.406ZM703.076 140H709.304V133.196H711.248L715.172 140H722.264L716.072 130.352V130.28L721.508 121.46H714.74L711.068 127.976H709.304V121.46H703.076V140ZM722.528 130.784C722.528 136.58 727.208 140.432 733.04 140.432C738.872 140.432 743.552 136.58 743.552 130.784C743.552 124.952 738.872 121.028 733.004 121.028C727.208 121.028 722.528 124.952 722.528 130.784ZM728.828 130.784C728.828 127.976 730.772 126.212 733.04 126.212C735.308 126.212 737.252 127.976 737.252 130.784C737.252 133.556 735.308 135.248 733.04 135.248C730.772 135.248 728.828 133.556 728.828 130.784ZM745.878 140H751.818L752.25 131.468C752.322 130.028 752.214 128.3 752.214 128.3H752.286C752.286 128.3 752.97 129.848 753.366 131.036L755.814 137.516H760.854L763.302 131.036C763.77 129.884 764.31 128.3 764.31 128.3H764.382C764.382 128.3 764.31 130.028 764.346 131.468L764.778 140H770.754L768.99 121.46H761.826L759.09 129.596C758.766 130.532 758.334 131.756 758.334 131.756H758.298C758.298 131.756 757.902 130.532 757.578 129.596L754.842 121.46H747.642L745.878 140ZM782.083 130.712C782.083 135.824 785.791 140.432 792.415 140.432C795.511 140.432 798.535 139.244 800.371 137.372L798.103 133.016C796.771 134.168 794.827 135.248 793.027 135.248C789.895 135.248 788.383 132.836 788.383 130.64C788.383 128.444 789.859 126.212 792.811 126.212C794.431 126.212 796.087 126.968 797.167 128.012L799.795 123.836C797.959 121.856 795.007 121.028 792.415 121.028C785.755 121.028 782.083 125.744 782.083 130.712ZM801.622 140.18C808.822 140.18 810.982 134.996 810.982 127.436V126.392H814.078V140H820.306V121.46H805.114V127.4C805.114 133.772 803.278 134.528 801.622 134.744V140.18ZM823.427 130.784C823.427 136.58 828.107 140.432 833.939 140.432C839.771 140.432 844.451 136.58 844.451 130.784C844.451 124.952 839.771 121.028 833.903 121.028C828.107 121.028 823.427 124.952 823.427 130.784ZM829.727 130.784C829.727 127.976 831.671 126.212 833.939 126.212C836.207 126.212 838.151 127.976 838.151 130.784C838.151 133.556 836.207 135.248 833.939 135.248C831.671 135.248 829.727 133.556 829.727 130.784ZM845.205 140H851.937L855.249 133.268H857.085V140H862.881V133.268H864.753L868.065 140H874.797L869.577 130.424V130.352L874.401 121.46H867.993L864.573 128.048H862.881V121.46H857.085V128.048H855.429L852.009 121.46H845.601L850.425 130.352V130.424L845.205 140ZM877.135 140H883.363V133.232H889.087V140H895.315V121.46H889.087V128.012H883.363V121.46H877.135V140ZM917.998 140H924.226V121.46H917.998V140ZM899.494 140H908.53C913.714 140 915.874 137.444 915.874 133.664C915.874 129.92 913.714 127.256 908.53 127.256H905.722V121.46H899.494V140ZM905.722 135.932V131.288H907.27C908.854 131.288 909.646 132.332 909.646 133.628C909.646 134.924 908.854 135.932 907.378 135.932H905.722ZM927.349 130.712C927.349 135.644 930.913 140.432 937.537 140.432C940.381 140.432 943.441 139.46 945.457 137.732L943.153 133.376C941.641 134.384 939.877 135.248 938.041 135.248C936.061 135.248 934.189 134.204 933.721 131.936H945.421C945.493 131.288 945.565 130.64 945.565 129.992C945.565 124.844 942.469 121.028 936.997 121.028C931.021 121.028 927.349 125.276 927.349 130.712ZM933.865 128.372C934.189 126.896 935.053 125.6 936.853 125.6C938.437 125.6 939.409 126.86 939.409 128.372H933.865ZM957.818 140H964.046V126.68H969.554V140H975.782V121.46H957.818V140ZM979.967 147.2H986.195V140.252C986.195 139.316 986.123 138.668 986.123 138.668H986.195C987.527 139.82 989.183 140.432 990.911 140.432C995.843 140.432 999.551 136.616 999.551 130.748C999.551 124.988 996.239 121.028 991.199 121.028C988.967 121.028 986.843 121.892 985.583 123.584H985.511C985.511 123.584 985.583 123.008 985.583 122.396V121.46H979.967V147.2ZM986.015 130.856C986.015 127.652 987.779 126.284 989.651 126.284C991.811 126.284 993.287 128.084 993.287 130.856C993.287 133.7 991.595 135.284 989.651 135.284C987.203 135.284 986.015 133.088 986.015 130.856ZM1001.42 134.78C1001.42 137.984 1003.9 140.432 1007.46 140.432C1009.59 140.432 1011.75 139.46 1012.97 137.732H1013.04C1013.04 137.732 1012.97 138.272 1012.97 138.884V140H1018.66V128.588C1018.66 123.872 1015.49 121.028 1010.38 121.028C1007.36 121.028 1004.12 122.216 1002.53 123.44L1004.69 127.832C1006.17 126.86 1008 126.068 1009.8 126.068C1011.17 126.068 1012.43 126.572 1012.43 128.12V128.444H1011.89C1007.32 128.444 1001.42 129.812 1001.42 134.78ZM1007.57 134.204C1007.57 132.512 1010.02 132.008 1011.93 132.008H1012.5V132.512C1012.5 134.024 1011.14 135.788 1009.34 135.788C1008.18 135.788 1007.57 135.068 1007.57 134.204ZM1022.61 140H1032.73C1036.4 140 1039.78 138.56 1039.78 134.492C1039.78 132.872 1038.99 131.036 1036.87 130.388V130.352C1038.27 129.524 1039.03 127.868 1039.03 126.32C1039.03 123.116 1036.44 121.46 1032.73 121.46H1022.61V140ZM1028.84 128.768V125.312H1031.11C1032.33 125.312 1032.84 126.068 1032.84 126.932C1032.84 127.904 1032.33 128.768 1031.18 128.768H1028.84ZM1028.84 136.112V132.404H1031.61C1032.94 132.404 1033.56 133.268 1033.56 134.276C1033.56 135.212 1032.91 136.112 1031.58 136.112H1028.84ZM1043 140H1049.05L1054.2 131.864C1054.49 131.36 1054.88 130.784 1055.21 130.028H1055.28C1055.21 130.748 1055.21 131.468 1055.21 131.9V140H1061.07V121.46H1055.03L1049.88 129.632C1049.55 130.172 1049.19 130.712 1048.87 131.468H1048.8C1048.83 131 1048.87 130.28 1048.87 129.632V121.46H1043V140ZM1063.89 140.18C1071.09 140.18 1073.25 134.996 1073.25 127.436V126.392H1076.34V140H1082.57V121.46H1067.38V127.4C1067.38 133.772 1065.54 134.528 1063.89 134.744V140.18ZM1085.4 134.78C1085.4 137.984 1087.89 140.432 1091.45 140.432C1093.58 140.432 1095.74 139.46 1096.96 137.732H1097.03C1097.03 137.732 1096.96 138.272 1096.96 138.884V140H1102.65V128.588C1102.65 123.872 1099.48 121.028 1094.37 121.028C1091.34 121.028 1088.1 122.216 1086.52 123.44L1088.68 127.832C1090.16 126.86 1091.99 126.068 1093.79 126.068C1095.16 126.068 1096.42 126.572 1096.42 128.12V128.444H1095.88C1091.31 128.444 1085.4 129.812 1085.4 134.78ZM1091.56 134.204C1091.56 132.512 1094.01 132.008 1095.92 132.008H1096.49V132.512C1096.49 134.024 1095.12 135.788 1093.32 135.788C1092.17 135.788 1091.56 135.068 1091.56 134.204Z" fill="#222224"/>
<path d="M636.674 195H638.42L644.09 186.756C644.54 186.054 645.152 184.902 645.152 184.902H645.188C645.188 184.902 645.08 186.036 645.08 186.756V195H646.844V182.292H645.098L639.464 190.518C639.014 191.202 638.384 192.39 638.384 192.39H638.348C638.348 192.39 638.456 191.256 638.456 190.536V182.292H636.674V195ZM649.78 195H651.526V191.094H656.134V195H657.88V185.892H656.134V189.6H651.526V185.892H649.78V195ZM662.355 193.56C663.507 191.76 663.651 189.168 663.651 187.8V187.314H666.387V193.56H662.355ZM659.439 193.56V197.16H661.077V195H667.827V197.16H669.429V193.56H668.133V185.892H661.977V187.566C661.977 188.97 661.833 191.814 660.555 193.56H659.439ZM671.26 195H672.934L676.876 189.564C677.164 189.132 677.614 188.52 677.668 188.358H677.704C677.704 188.502 677.65 189.132 677.65 189.564V195H679.342V185.892H677.65L673.726 191.328C673.42 191.76 672.988 192.39 672.916 192.552H672.88C672.898 192.462 672.934 191.814 672.934 191.328V185.892H671.26V195ZM682.018 195H685.906C687.886 195 689.254 194.1 689.254 192.408C689.254 191.4 688.66 190.518 687.526 190.248V190.23C688.354 189.87 688.822 189.114 688.822 188.232C688.822 186.702 687.616 185.892 685.78 185.892H682.018V195ZM683.764 189.744V187.098H685.42C686.518 187.098 687.04 187.53 687.04 188.358C687.04 189.204 686.518 189.744 685.474 189.744H683.764ZM683.764 193.776V190.914H685.618C686.824 190.914 687.49 191.454 687.49 192.354C687.49 193.2 686.896 193.776 685.636 193.776H683.764ZM691.37 195H693.044L696.986 189.564C697.274 189.132 697.724 188.52 697.778 188.358H697.814C697.814 188.502 697.76 189.132 697.76 189.564V195H699.452V185.892H697.76L693.836 191.328C693.53 191.76 693.098 192.39 693.026 192.552H692.99C693.008 192.462 693.044 191.814 693.044 191.328V185.892H691.37V195ZM703.909 193.56C705.061 191.76 705.205 189.168 705.205 187.8V187.314H707.941V193.56H703.909ZM700.993 193.56V197.16H702.631V195H709.381V197.16H710.983V193.56H709.687V185.892H703.531V187.566C703.531 188.97 703.387 191.814 702.109 193.56H700.993ZM712.119 196.89L711.507 198.222C711.507 198.222 712.245 198.78 713.253 198.78C714.531 198.78 715.665 198.06 716.205 196.638L720.489 185.892H718.599L716.385 191.868C716.223 192.336 716.079 192.948 716.079 192.948H716.043C716.043 192.948 715.881 192.3 715.701 191.85L713.415 185.892H711.453L715.269 194.892L714.819 195.936C714.477 196.764 713.883 197.286 713.163 197.286C712.623 197.286 712.119 196.89 712.119 196.89ZM721.235 192.516C721.235 194.226 722.693 195.216 724.277 195.216C725.627 195.216 726.743 194.406 727.265 193.362H727.301C727.301 193.362 727.247 193.668 727.247 194.082V195H728.885V189.24C728.885 186.936 727.571 185.676 725.285 185.676C724.007 185.676 722.621 186.144 721.883 186.756L722.585 188.034C723.323 187.512 724.241 187.152 725.141 187.152C726.275 187.152 727.139 187.656 727.139 189.15V189.33H726.671C724.781 189.33 721.235 189.654 721.235 192.516ZM722.981 192.372C722.981 190.698 725.393 190.59 726.689 190.59H727.139V190.932C727.139 192.282 726.221 193.83 724.691 193.83C723.557 193.83 722.981 193.092 722.981 192.372ZM730.475 195.09C733.157 194.946 734.201 192.822 734.201 188.7V187.332H736.883V195H738.629V185.892H732.527V188.7C732.527 191.994 731.807 193.326 730.475 193.524V195.09ZM741.327 195H744.873C747.177 195 748.221 193.83 748.221 192.12C748.221 190.05 746.799 189.186 744.909 189.186H743.073V185.892H741.327V195ZM743.073 193.74V190.446H744.639C745.899 190.446 746.439 191.13 746.439 192.102C746.439 193.056 745.899 193.74 744.639 193.74H743.073ZM750.098 195H751.844V191.094H756.452V195H758.198V185.892H756.452V189.6H751.844V185.892H750.098V195ZM769.135 195H770.881V185.892H769.135V195ZM760.891 195H764.401C766.687 195 767.731 193.83 767.731 192.12C767.731 190.05 766.309 189.186 764.419 189.186H762.637V185.892H760.891V195ZM762.637 193.74V190.446H764.149C765.409 190.446 765.967 191.13 765.967 192.102C765.967 193.056 765.427 193.74 764.167 193.74H762.637ZM777.596 184.848C779 184.848 780.26 184.02 780.26 182.544V182.274H778.874V182.508C778.874 183.318 778.226 183.714 777.596 183.714C776.966 183.714 776.336 183.318 776.336 182.526V182.274H774.932V182.544C774.932 184.02 776.21 184.848 777.596 184.848ZM773.582 195H775.256L779.198 189.564C779.486 189.132 779.936 188.52 779.99 188.358H780.026C780.026 188.502 779.972 189.132 779.972 189.564V195H781.664V185.892H779.972L776.048 191.328C775.742 191.76 775.31 192.39 775.238 192.552H775.202C775.22 192.462 775.256 191.814 775.256 191.328V185.892H773.582V195ZM788.84 195H790.586V187.386H795.05V195H796.796V185.892H788.84V195ZM798.899 190.428C798.899 193.2 801.095 195.216 803.813 195.216C806.513 195.216 808.709 193.2 808.709 190.428C808.709 187.674 806.513 185.676 803.795 185.676C801.095 185.676 798.899 187.674 798.899 190.428ZM800.681 190.428C800.681 188.538 802.085 187.188 803.813 187.188C805.523 187.188 806.945 188.538 806.945 190.428C806.945 192.336 805.523 193.704 803.813 193.704C802.085 193.704 800.681 192.336 800.681 190.428ZM812.366 193.56C813.518 191.76 813.662 189.168 813.662 187.8V187.314H816.398V193.56H812.366ZM809.45 193.56V197.16H811.088V195H817.838V197.16H819.44V193.56H818.144V185.892H811.988V187.566C811.988 188.97 811.844 191.814 810.566 193.56H809.45ZM820.228 195H822.208L824.116 191.958C824.26 191.742 824.386 191.472 824.386 191.472H824.422C824.422 191.472 824.566 191.742 824.71 191.958L826.618 195H828.598L825.484 190.32L828.418 185.892H826.42L824.728 188.664C824.602 188.898 824.422 189.204 824.422 189.204H824.386C824.386 189.204 824.224 188.898 824.098 188.664L822.406 185.892H820.408L823.342 190.32L820.228 195ZM829.361 190.428C829.361 193.2 831.557 195.216 834.275 195.216C836.975 195.216 839.171 193.2 839.171 190.428C839.171 187.674 836.975 185.676 834.257 185.676C831.557 185.676 829.361 187.674 829.361 190.428ZM831.143 190.428C831.143 188.538 832.547 187.188 834.275 187.188C835.985 187.188 837.407 188.538 837.407 190.428C837.407 192.336 835.985 193.704 834.275 193.704C832.547 193.704 831.143 192.336 831.143 190.428ZM842.829 193.56C843.981 191.76 844.125 189.168 844.125 187.8V187.314H846.861V193.56H842.829ZM839.913 193.56V197.16H841.551V195H848.301V197.16H849.903V193.56H848.607V185.892H842.451V187.566C842.451 188.97 842.307 191.814 841.029 193.56H839.913ZM855.641 190.446C855.641 193.182 857.639 195.216 860.519 195.216C861.941 195.216 863.327 194.64 864.155 193.758L863.453 192.48C862.751 193.218 861.653 193.704 860.645 193.704C858.755 193.704 857.423 192.282 857.423 190.428C857.423 188.574 858.755 187.188 860.591 187.188C861.545 187.188 862.499 187.62 863.111 188.232L863.939 187.008C863.075 186.09 861.725 185.676 860.519 185.676C857.657 185.676 855.641 187.746 855.641 190.446ZM869.949 190.446C869.949 193.182 871.947 195.216 874.827 195.216C876.249 195.216 877.635 194.64 878.463 193.758L877.761 192.48C877.059 193.218 875.961 193.704 874.953 193.704C873.063 193.704 871.731 192.282 871.731 190.428C871.731 188.574 873.063 187.188 874.899 187.188C875.853 187.188 876.807 187.62 877.419 188.232L878.247 187.008C877.383 186.09 876.033 185.676 874.827 185.676C871.965 185.676 869.949 187.746 869.949 190.446ZM879.547 190.428C879.547 193.2 881.743 195.216 884.461 195.216C887.161 195.216 889.357 193.2 889.357 190.428C889.357 187.674 887.161 185.676 884.443 185.676C881.743 185.676 879.547 187.674 879.547 190.428ZM881.329 190.428C881.329 188.538 882.733 187.188 884.461 187.188C886.171 187.188 887.593 188.538 887.593 190.428C887.593 192.336 886.171 193.704 884.461 193.704C882.733 193.704 881.329 192.336 881.329 190.428ZM891.065 189.762C891.065 192.912 892.451 195.216 895.529 195.216C898.103 195.216 899.831 193.416 899.831 190.896C899.831 188.322 898.247 186.702 895.961 186.702C894.755 186.702 893.549 187.098 892.739 188.322H892.703C892.829 186.576 893.693 185.514 895.511 184.686L899.003 183.228L898.427 181.788L895.169 183.192C892.001 184.524 891.065 186.504 891.065 189.762ZM892.883 190.896C892.883 189.294 893.981 188.088 895.529 188.088C896.897 188.088 898.067 189.15 898.067 190.932C898.067 192.696 896.897 193.74 895.457 193.74C894.053 193.74 892.883 192.696 892.883 190.896ZM901.414 190.446C901.414 193.182 903.412 195.216 906.292 195.216C907.714 195.216 909.1 194.64 909.928 193.758L909.226 192.48C908.524 193.218 907.426 193.704 906.418 193.704C904.528 193.704 903.196 192.282 903.196 190.428C903.196 188.574 904.528 187.188 906.364 187.188C907.318 187.188 908.272 187.62 908.884 188.232L909.712 187.008C908.848 186.09 907.498 185.676 906.292 185.676C903.43 185.676 901.414 187.746 901.414 190.446ZM914.013 195H915.741V187.386H918.927V185.892H910.845V187.386H914.013V195ZM920.641 195H924.529C926.509 195 927.877 194.1 927.877 192.408C927.877 191.4 927.283 190.518 926.149 190.248V190.23C926.977 189.87 927.445 189.114 927.445 188.232C927.445 186.702 926.239 185.892 924.403 185.892H920.641V195ZM922.387 189.744V187.098H924.043C925.141 187.098 925.663 187.53 925.663 188.358C925.663 189.204 925.141 189.744 924.097 189.744H922.387ZM922.387 193.776V190.914H924.241C925.447 190.914 926.113 191.454 926.113 192.354C926.113 193.2 925.519 193.776 924.259 193.776H922.387ZM929.399 190.446C929.399 193.146 931.379 195.216 934.241 195.216C935.501 195.216 936.887 194.73 937.769 193.92L937.031 192.642C936.311 193.29 935.321 193.704 934.349 193.704C932.711 193.704 931.307 192.642 931.217 190.68H937.841C937.877 190.428 937.913 190.176 937.913 189.942C937.913 187.602 936.545 185.676 933.971 185.676C931.379 185.676 929.399 187.548 929.399 190.446ZM931.271 189.42C931.523 187.908 932.585 187.026 933.935 187.026C935.123 187.026 936.095 187.854 936.149 189.42H931.271ZM940.012 195H941.758V191.094H946.366V195H948.112V185.892H946.366V189.6H941.758V185.892H940.012V195ZM950.805 195H952.551V191.094H957.159V195H958.905V185.892H957.159V189.6H952.551V185.892H950.805V195ZM961.004 190.428C961.004 193.2 963.2 195.216 965.918 195.216C968.618 195.216 970.814 193.2 970.814 190.428C970.814 187.674 968.618 185.676 965.9 185.676C963.2 185.676 961.004 187.674 961.004 190.428ZM962.786 190.428C962.786 188.538 964.19 187.188 965.918 187.188C967.628 187.188 969.05 188.538 969.05 190.428C969.05 192.336 967.628 193.704 965.918 193.704C964.19 193.704 962.786 192.336 962.786 190.428ZM976.932 184.848C978.336 184.848 979.596 184.02 979.596 182.544V182.274H978.21V182.508C978.21 183.318 977.562 183.714 976.932 183.714C976.302 183.714 975.672 183.318 975.672 182.526V182.274H974.268V182.544C974.268 184.02 975.546 184.848 976.932 184.848ZM972.918 195H974.592L978.534 189.564C978.822 189.132 979.272 188.52 979.326 188.358H979.362C979.362 188.502 979.308 189.132 979.308 189.564V195H981V185.892H979.308L975.384 191.328C975.078 191.76 974.646 192.39 974.574 192.552H974.538C974.556 192.462 974.592 191.814 974.592 191.328V185.892H972.918V195ZM635.972 223H637.664L638.06 217.582C638.096 217.042 638.042 216.016 638.042 216.016H638.078C638.078 216.016 638.366 216.7 638.654 217.366L640.814 221.902H642.308L644.468 217.348C644.81 216.646 645.044 216.016 645.044 216.016H645.08C645.08 216.016 645.044 217.042 645.062 217.582L645.458 223H647.15L646.358 213.892H644.45L642.074 219.04C641.84 219.598 641.57 220.264 641.57 220.264H641.534C641.534 220.264 641.282 219.58 641.03 219.04L638.708 213.892H636.764L635.972 223ZM648.904 218.446C648.904 221.146 650.884 223.216 653.746 223.216C655.006 223.216 656.392 222.73 657.274 221.92L656.536 220.642C655.816 221.29 654.826 221.704 653.854 221.704C652.216 221.704 650.812 220.642 650.722 218.68H657.346C657.382 218.428 657.418 218.176 657.418 217.942C657.418 215.602 656.05 213.676 653.476 213.676C650.884 213.676 648.904 215.548 648.904 218.446ZM650.776 217.42C651.028 215.908 652.09 215.026 653.44 215.026C654.628 215.026 655.6 215.854 655.654 217.42H650.776ZM661.609 223H663.337V215.386H666.523V213.892H658.441V215.386H661.609V223ZM667.344 218.428C667.344 221.2 669.54 223.216 672.258 223.216C674.958 223.216 677.154 221.2 677.154 218.428C677.154 215.674 674.958 213.676 672.24 213.676C669.54 213.676 667.344 215.674 667.344 218.428ZM669.126 218.428C669.126 216.538 670.53 215.188 672.258 215.188C673.968 215.188 675.39 216.538 675.39 218.428C675.39 220.336 673.968 221.704 672.258 221.704C670.53 221.704 669.126 220.336 669.126 218.428ZM680.812 221.56C681.964 219.76 682.108 217.168 682.108 215.8V215.314H684.844V221.56H680.812ZM677.896 221.56V225.16H679.534V223H686.284V225.16H687.886V221.56H686.59V213.892H680.434V215.566C680.434 216.97 680.29 219.814 679.012 221.56H677.896ZM689.717 223H691.391L695.333 217.564C695.621 217.132 696.071 216.52 696.125 216.358H696.161C696.161 216.502 696.107 217.132 696.107 217.564V223H697.799V213.892H696.107L692.183 219.328C691.877 219.76 691.445 220.39 691.373 220.552H691.337C691.355 220.462 691.391 219.814 691.391 219.328V213.892H689.717V223ZM700.475 223H702.221V219.058H703.535L706.253 223H708.323L704.921 218.266V218.23L707.963 213.892H705.983L703.499 217.564H702.221V213.892H700.475V223ZM708.899 218.428C708.899 221.2 711.095 223.216 713.813 223.216C716.513 223.216 718.709 221.2 718.709 218.428C718.709 215.674 716.513 213.676 713.795 213.676C711.095 213.676 708.899 215.674 708.899 218.428ZM710.681 218.428C710.681 216.538 712.085 215.188 713.813 215.188C715.523 215.188 716.945 216.538 716.945 218.428C716.945 220.336 715.523 221.704 713.813 221.704C712.085 221.704 710.681 220.336 710.681 218.428ZM724.827 212.848C726.231 212.848 727.491 212.02 727.491 210.544V210.274H726.105V210.508C726.105 211.318 725.457 211.714 724.827 211.714C724.197 211.714 723.567 211.318 723.567 210.526V210.274H722.163V210.544C722.163 212.02 723.441 212.848 724.827 212.848ZM720.813 223H722.487L726.429 217.564C726.717 217.132 727.167 216.52 727.221 216.358H727.257C727.257 216.502 727.203 217.132 727.203 217.564V223H728.895V213.892H727.203L723.279 219.328C722.973 219.76 722.541 220.39 722.469 220.552H722.433C722.451 220.462 722.487 219.814 722.487 219.328V213.892H720.813V223ZM736.071 223H737.745L741.687 217.564C741.975 217.132 742.425 216.52 742.479 216.358H742.515C742.515 216.502 742.461 217.132 742.461 217.564V223H744.153V213.892H742.461L738.537 219.328C738.231 219.76 737.799 220.39 737.727 220.552H737.691C737.709 220.462 737.745 219.814 737.745 219.328V213.892H736.071V223ZM750.447 221.884C751.203 222.604 752.391 223.216 753.795 223.216C755.667 223.216 757.287 222.262 757.287 220.39C757.287 219.22 756.567 218.536 755.649 218.248V218.212C756.369 217.906 756.981 217.276 756.981 216.142C756.981 214.522 755.631 213.676 753.903 213.676C752.463 213.676 751.437 214.144 750.735 214.666L751.383 215.836C752.085 215.314 752.805 215.044 753.597 215.044C754.605 215.044 755.217 215.512 755.217 216.358C755.217 217.276 754.515 217.672 753.489 217.672H752.535V218.932H753.651C754.929 218.932 755.523 219.436 755.523 220.318C755.523 221.308 754.677 221.812 753.633 221.812C752.535 221.812 751.671 221.164 751.257 220.732L750.447 221.884ZM758.641 220.516C758.641 222.226 760.099 223.216 761.683 223.216C763.033 223.216 764.149 222.406 764.671 221.362H764.707C764.707 221.362 764.653 221.668 764.653 222.082V223H766.291V217.24C766.291 214.936 764.977 213.676 762.691 213.676C761.413 213.676 760.027 214.144 759.289 214.756L759.991 216.034C760.729 215.512 761.647 215.152 762.547 215.152C763.681 215.152 764.545 215.656 764.545 217.15V217.33H764.077C762.187 217.33 758.641 217.654 758.641 220.516ZM760.387 220.372C760.387 218.698 762.799 218.59 764.095 218.59H764.545V218.932C764.545 220.282 763.627 221.83 762.097 221.83C760.963 221.83 760.387 221.092 760.387 220.372ZM770.653 221.56C771.805 219.76 771.949 217.168 771.949 215.8V215.314H774.685V221.56H770.653ZM767.737 221.56V225.16H769.375V223H776.125V225.16H777.727V221.56H776.431V213.892H770.275V215.566C770.275 216.97 770.131 219.814 768.853 221.56H767.737ZM778.803 220.516C778.803 222.226 780.261 223.216 781.845 223.216C783.195 223.216 784.311 222.406 784.833 221.362H784.869C784.869 221.362 784.815 221.668 784.815 222.082V223H786.453V217.24C786.453 214.936 785.139 213.676 782.853 213.676C781.575 213.676 780.189 214.144 779.451 214.756L780.153 216.034C780.891 215.512 781.809 215.152 782.709 215.152C783.843 215.152 784.707 215.656 784.707 217.15V217.33H784.239C782.349 217.33 778.803 217.654 778.803 220.516ZM780.549 220.372C780.549 218.698 782.961 218.59 784.257 218.59H784.707V218.932C784.707 220.282 783.789 221.83 782.259 221.83C781.125 221.83 780.549 221.092 780.549 220.372ZM791.518 219.832C792.418 219.832 793.408 219.526 793.984 219.166H794.02C794.02 219.166 794.002 219.454 794.002 219.706V223H795.748V213.892H794.002V217.672C793.624 217.942 792.886 218.32 791.986 218.32C790.492 218.32 790.168 217.51 790.168 216.61V213.892H788.458V216.862C788.458 218.806 789.574 219.832 791.518 219.832ZM798.455 223H800.201V219.058H801.515L804.233 223H806.303L802.901 218.266V218.23L805.943 213.892H803.963L801.479 217.564H800.201V213.892H798.455V223ZM807.016 220.516C807.016 222.226 808.474 223.216 810.058 223.216C811.408 223.216 812.524 222.406 813.046 221.362H813.082C813.082 221.362 813.028 221.668 813.028 222.082V223H814.666V217.24C814.666 214.936 813.352 213.676 811.066 213.676C809.788 213.676 808.402 214.144 807.664 214.756L808.366 216.034C809.104 215.512 810.022 215.152 810.922 215.152C812.056 215.152 812.92 215.656 812.92 217.15V217.33H812.452C810.562 217.33 807.016 217.654 807.016 220.516ZM808.762 220.372C808.762 218.698 811.174 218.59 812.47 218.59H812.92V218.932C812.92 220.282 812.002 221.83 810.472 221.83C809.338 221.83 808.762 221.092 808.762 220.372ZM816.868 223H818.56L818.956 217.582C818.992 217.042 818.938 216.016 818.938 216.016H818.974C818.974 216.016 819.262 216.7 819.55 217.366L821.71 221.902H823.204L825.364 217.348C825.706 216.646 825.94 216.016 825.94 216.016H825.976C825.976 216.016 825.94 217.042 825.958 217.582L826.354 223H828.046L827.254 213.892H825.346L822.97 219.04C822.736 219.598 822.466 220.264 822.466 220.264H822.43C822.43 220.264 822.178 219.58 821.926 219.04L819.604 213.892H817.66L816.868 223ZM830.395 223H832.069L836.011 217.564C836.299 217.132 836.749 216.52 836.803 216.358H836.839C836.839 216.502 836.785 217.132 836.785 217.564V223H838.477V213.892H836.785L832.861 219.328C832.555 219.76 832.123 220.39 832.051 220.552H832.015C832.033 220.462 832.069 219.814 832.069 219.328V213.892H830.395V223ZM845.653 223H847.327L851.269 217.564C851.557 217.132 852.007 216.52 852.061 216.358H852.097C852.097 216.502 852.043 217.132 852.043 217.564V223H853.735V213.892H852.043L848.119 219.328C847.813 219.76 847.381 220.39 847.309 220.552H847.273C847.291 220.462 847.327 219.814 847.327 219.328V213.892H845.653V223ZM855.529 221.884C856.285 222.604 857.473 223.216 858.877 223.216C860.749 223.216 862.369 222.262 862.369 220.39C862.369 219.22 861.649 218.536 860.731 218.248V218.212C861.451 217.906 862.063 217.276 862.063 216.142C862.063 214.522 860.713 213.676 858.985 213.676C857.545 213.676 856.519 214.144 855.817 214.666L856.465 215.836C857.167 215.314 857.887 215.044 858.679 215.044C859.687 215.044 860.299 215.512 860.299 216.358C860.299 217.276 859.597 217.672 858.571 217.672H857.617V218.932H858.733C860.011 218.932 860.605 219.436 860.605 220.318C860.605 221.308 859.759 221.812 858.715 221.812C857.617 221.812 856.753 221.164 856.339 220.732L855.529 221.884ZM867.935 223H869.879L872.273 219.112H873.569V223H875.225V219.112H876.539L878.915 223H880.877L877.943 218.32V218.284L880.607 213.892H878.771L876.521 217.618H875.225V213.892H873.569V217.618H872.273L870.041 213.892H868.187L870.869 218.284V218.32L867.935 223ZM882.514 223H884.188L888.13 217.564C888.418 217.132 888.868 216.52 888.922 216.358H888.958C888.958 216.502 888.904 217.132 888.904 217.564V223H890.596V213.892H888.904L884.98 219.328C884.674 219.76 884.242 220.39 884.17 220.552H884.134C884.152 220.462 884.188 219.814 884.188 219.328V213.892H882.514V223ZM892.39 221.884C893.146 222.604 894.334 223.216 895.738 223.216C897.61 223.216 899.23 222.262 899.23 220.39C899.23 219.22 898.51 218.536 897.592 218.248V218.212C898.312 217.906 898.924 217.276 898.924 216.142C898.924 214.522 897.574 213.676 895.846 213.676C894.406 213.676 893.38 214.144 892.678 214.666L893.326 215.836C894.028 215.314 894.748 215.044 895.54 215.044C896.548 215.044 897.16 215.512 897.16 216.358C897.16 217.276 896.458 217.672 895.432 217.672H894.478V218.932H895.594C896.872 218.932 897.466 219.436 897.466 220.318C897.466 221.308 896.62 221.812 895.576 221.812C894.478 221.812 893.614 221.164 893.2 220.732L892.39 221.884ZM901.34 223H903.086V219.094H907.694V223H909.44V213.892H907.694V217.6H903.086V213.892H901.34V223ZM912.133 223H913.807L917.749 217.564C918.037 217.132 918.487 216.52 918.541 216.358H918.577C918.577 216.502 918.523 217.132 918.523 217.564V223H920.215V213.892H918.523L914.599 219.328C914.293 219.76 913.861 220.39 913.789 220.552H913.753C913.771 220.462 913.807 219.814 913.807 219.328V213.892H912.133V223Z" fill="#424754"/>
<path d="M0 4.40122C0 2.86065 0 2.09037 0.299609 1.50195C0.563153 0.984356 0.983678 0.563541 1.50091 0.299816C2.08893 0 2.85869 0 4.3982 0H504.602C506.141 0 506.911 0 507.499 0.299816C508.016 0.563541 508.437 0.984356 508.7 1.50195C509 2.09037 509 2.86066 509 4.40123V293.599C509 295.139 509 295.91 508.7 296.498C508.437 297.016 508.016 297.436 507.499 297.7C506.911 298 506.141 298 504.602 298H4.39818C2.85868 298 2.08893 298 1.50091 297.7C0.983678 297.436 0.563153 297.016 0.299609 296.498C0 295.91 0 295.139 0 293.599V4.40122Z" fill="#F3F3F3"/>
<path d="M147 42.3991C147 40.8592 147 40.0893 147.142 39.5012C147.266 38.9839 147.465 38.5633 147.709 38.2997C147.987 38 148.351 38 149.079 38H301.921C302.649 38 303.013 38 303.291 38.2997C303.535 38.5633 303.734 38.9839 303.858 39.5012C304 40.0893 304 40.8592 304 42.399V225.601C304 227.141 304 227.911 303.858 228.499C303.734 229.016 303.535 229.437 303.291 229.7C303.013 230 302.649 230 301.921 230H149.079C148.351 230 147.987 230 147.709 229.7C147.465 229.437 147.266 229.016 147.142 228.499C147 227.911 147 227.141 147 225.601V42.3991Z" fill="white"/>
<path d="M322 42.3991C322 40.8592 322 40.0893 322.142 39.5012C322.266 38.9839 322.465 38.5633 322.709 38.2997C322.987 38 323.351 38 324.079 38H476.921C477.649 38 478.013 38 478.291 38.2997C478.535 38.5633 478.734 38.9839 478.858 39.5012C479 40.0893 479 40.8592 479 42.399V225.601C479 227.141 479 227.911 478.858 228.499C478.734 229.016 478.535 229.437 478.291 229.7C478.013 230 477.649 230 476.921 230H324.079C323.351 230 322.987 230 322.709 229.7C322.465 229.437 322.266 229.016 322.142 228.499C322 227.911 322 227.141 322 225.601V42.3991Z" fill="white"/>
<path d="M147 21.8444C147 20.8488 147 20.351 147.199 19.9707C147.374 19.6362 147.653 19.3642 147.996 19.1938C148.386 19 148.897 19 149.918 19H201.082C202.103 19 202.614 19 203.004 19.1938C203.347 19.3642 203.626 19.6362 203.801 19.9707C204 20.351 204 20.8488 204 21.8444V24.1556C204 25.1512 204 25.649 203.801 26.0293C203.626 26.3638 203.347 26.6358 203.004 26.8062C202.614 27 202.103 27 201.082 27H149.918C148.897 27 148.386 27 147.996 26.8062C147.653 26.6358 147.374 26.3638 147.199 26.0293C147 25.649 147 25.1512 147 24.1556V21.8444Z" fill="#424754"/>
<path d="M167 65.4545C167 64.9454 167 64.6908 167.099 64.4964C167.187 64.3253 167.326 64.1862 167.498 64.0991C167.693 64 167.948 64 168.459 64H222.541C223.052 64 223.307 64 223.502 64.0991C223.674 64.1862 223.813 64.3253 223.901 64.4964C224 64.6908 224 64.9454 224 65.4545V67.5455C224 68.0546 224 68.3092 223.901 68.5036C223.813 68.6747 223.674 68.8138 223.502 68.9009C223.307 69 223.052 69 222.541 69H168.459C167.948 69 167.693 69 167.498 68.9009C167.326 68.8138 167.187 68.6747 167.099 68.5036C167 68.3092 167 68.0546 167 67.5455V65.4545Z" fill="#5D6372"/>
<path d="M342 65.4545C342 64.9454 342 64.6908 342.099 64.4964C342.187 64.3253 342.326 64.1862 342.498 64.0991C342.693 64 342.948 64 343.459 64H397.541C398.052 64 398.307 64 398.502 64.0991C398.674 64.1862 398.813 64.3253 398.901 64.4964C399 64.6908 399 64.9454 399 65.4545V67.5455C399 68.0546 399 68.3092 398.901 68.5036C398.813 68.6747 398.674 68.8138 398.502 68.9009C398.307 69 398.052 69 397.541 69H343.459C342.948 69 342.693 69 342.498 68.9009C342.326 68.8138 342.187 68.6747 342.099 68.5036C342 68.3092 342 68.0546 342 67.5455V65.4545Z" fill="#424754"/>
<path d="M167 86.4545C167 85.9454 167 85.6908 167.05 85.4964C167.094 85.3253 167.164 85.1862 167.251 85.0991C167.349 85 167.478 85 167.735 85H282.265C282.522 85 282.651 85 282.749 85.0991C282.836 85.1862 282.906 85.3253 282.95 85.4964C283 85.6908 283 85.9454 283 86.4545V88.5455C283 89.0546 283 89.3092 282.95 89.5036C282.906 89.6747 282.836 89.8138 282.749 89.9009C282.651 90 282.522 90 282.265 90H167.735C167.478 90 167.349 90 167.251 89.9009C167.164 89.8138 167.094 89.6747 167.05 89.5036C167 89.3092 167 89.0546 167 88.5455V86.4545Z" fill="#C0C4CB"/>
<path d="M167 108.455C167 107.945 167 107.691 167.05 107.496C167.094 107.325 167.164 107.186 167.251 107.099C167.349 107 167.478 107 167.735 107H282.265C282.522 107 282.651 107 282.749 107.099C282.836 107.186 282.906 107.325 282.95 107.496C283 107.691 283 107.945 283 108.455V110.545C283 111.055 283 111.309 282.95 111.504C282.906 111.675 282.836 111.814 282.749 111.901C282.651 112 282.522 112 282.265 112H167.735C167.478 112 167.349 112 167.251 111.901C167.164 111.814 167.094 111.675 167.05 111.504C167 111.309 167 111.055 167 110.545V108.455Z" fill="#C0C4CB"/>
<path d="M167 97.4545C167 96.9454 167 96.6908 167.05 96.4964C167.094 96.3253 167.164 96.1862 167.251 96.0991C167.349 96 167.478 96 167.735 96H282.265C282.522 96 282.651 96 282.749 96.0991C282.836 96.1862 282.906 96.3253 282.95 96.4964C283 96.6908 283 96.9454 283 97.4545V99.5455C283 100.055 283 100.309 282.95 100.504C282.906 100.675 282.836 100.814 282.749 100.901C282.651 101 282.522 101 282.265 101H167.735C167.478 101 167.349 101 167.251 100.901C167.164 100.814 167.094 100.675 167.05 100.504C167 100.309 167 100.055 167 99.5455V97.4545Z" fill="#C0C4CB"/>
<path d="M167 119.455C167 118.945 167 118.691 167.039 118.496C167.074 118.325 167.129 118.186 167.197 118.099C167.274 118 167.375 118 167.577 118H257.423C257.625 118 257.726 118 257.803 118.099C257.871 118.186 257.926 118.325 257.961 118.496C258 118.691 258 118.945 258 119.455V121.545C258 122.055 258 122.309 257.961 122.504C257.926 122.675 257.871 122.814 257.803 122.901C257.726 123 257.625 123 257.423 123H167.577C167.375 123 167.274 123 167.197 122.901C167.129 122.814 167.074 122.675 167.039 122.504C167 122.309 167 122.055 167 121.545V119.455Z" fill="#C0C4CB"/>
<path d="M342 95.1818C342 91.6178 342 89.8359 342.051 88.4746C342.095 87.2772 342.166 86.3037 342.253 85.6936C342.352 85 342.482 85 342.741 85H458.259C458.518 85 458.648 85 458.747 85.6936C458.834 86.3037 458.905 87.2772 458.949 88.4746C459 89.8359 459 91.6178 459 95.1818V109.818C459 113.382 459 115.164 458.949 116.525C458.905 117.723 458.834 118.696 458.747 119.306C458.648 120 458.518 120 458.259 120H342.741C342.482 120 342.352 120 342.253 119.306C342.166 118.696 342.095 117.723 342.051 116.525C342 115.164 342 113.382 342 109.818V95.1818Z" fill="#F3F3F3"/>
<path d="M358 100.2C358 99.0799 358 98.5198 358.037 98.092C358.069 97.7157 358.12 97.4097 358.184 97.218C358.256 97 358.35 97 358.539 97H442.461C442.65 97 442.744 97 442.816 97.218C442.88 97.4097 442.931 97.7157 442.963 98.092C443 98.5198 443 99.0799 443 100.2V104.8C443 105.92 443 106.48 442.963 106.908C442.931 107.284 442.88 107.59 442.816 107.782C442.744 108 442.65 108 442.461 108H358.539C358.35 108 358.256 108 358.184 107.782C358.12 107.59 358.069 107.284 358.037 106.908C358 106.48 358 105.92 358 104.8V100.2Z" fill="#424754"/>
<path d="M342 138.182C342 134.618 342 132.836 342.051 131.475C342.095 130.277 342.166 129.304 342.253 128.694C342.352 128 342.482 128 342.741 128H458.259C458.518 128 458.648 128 458.747 128.694C458.834 129.304 458.905 130.277 458.949 131.475C459 132.836 459 134.618 459 138.182V152.818C459 156.382 459 158.164 458.949 159.525C458.905 160.723 458.834 161.696 458.747 162.306C458.648 163 458.518 163 458.259 163H342.741C342.482 163 342.352 163 342.253 162.306C342.166 161.696 342.095 160.723 342.051 159.525C342 158.164 342 156.382 342 152.818V138.182Z" fill="#F3F3F3"/>
<path d="M358 143.2C358 142.08 358 141.52 358.037 141.092C358.069 140.716 358.12 140.41 358.184 140.218C358.256 140 358.35 140 358.539 140H442.461C442.65 140 442.744 140 442.816 140.218C442.88 140.41 442.931 140.716 442.963 141.092C443 141.52 443 142.08 443 143.2V147.8C443 148.92 443 149.48 442.963 149.908C442.931 150.284 442.88 150.59 442.816 150.782C442.744 151 442.65 151 442.461 151H358.539C358.35 151 358.256 151 358.184 150.782C358.12 150.59 358.069 150.284 358.037 149.908C358 149.48 358 148.92 358 147.8V143.2Z" fill="#424754"/>
<path d="M342 181.182C342 177.618 342 175.836 342.051 174.475C342.095 173.277 342.166 172.304 342.253 171.694C342.352 171 342.482 171 342.741 171H458.259C458.518 171 458.648 171 458.747 171.694C458.834 172.304 458.905 173.277 458.949 174.475C459 175.836 459 177.618 459 181.182V195.818C459 199.382 459 201.164 458.949 202.525C458.905 203.723 458.834 204.696 458.747 205.306C458.648 206 458.518 206 458.259 206H342.741C342.482 206 342.352 206 342.253 205.306C342.166 204.696 342.095 203.723 342.051 202.525C342 201.164 342 199.382 342 195.818V181.182Z" fill="#FFEAEC"/>
<path d="M358 186.2C358 185.08 358 184.52 358.037 184.092C358.069 183.716 358.12 183.41 358.184 183.218C358.256 183 358.35 183 358.539 183H442.461C442.65 183 442.744 183 442.816 183.218C442.88 183.41 442.931 183.716 442.963 184.092C443 184.52 443 185.08 443 186.2V190.8C443 191.92 443 192.48 442.963 192.908C442.931 193.284 442.88 193.59 442.816 193.782C442.744 194 442.65 194 442.461 194H358.539C358.35 194 358.256 194 358.184 193.782C358.12 193.59 358.069 193.284 358.037 192.908C358 192.48 358 191.92 358 190.8V186.2Z" fill="#F04B5D"/>
<path d="M0 4.40122C0 2.86065 0 2.09037 0.298881 1.50195C0.561783 0.984356 0.981285 0.563541 1.49726 0.299816C2.08385 0 2.85173 0 4.3875 0H112.612C114.148 0 114.916 0 115.503 0.299816C116.019 0.563541 116.438 0.984356 116.701 1.50195C117 2.09037 117 2.86066 117 4.40123V293.599C117 295.139 117 295.91 116.701 296.498C116.438 297.016 116.019 297.436 115.503 297.7C114.916 298 114.148 298 112.612 298H4.3875C2.85173 298 2.08385 298 1.49726 297.7C0.981285 297.436 0.561783 297.016 0.298881 296.498C0 295.91 0 295.139 0 293.599V4.40122Z" fill="#FFEAEC"/>
<path d="M0 60.4979C0 59.9736 0 59.7114 0.100018 59.5112C0.187995 59.335 0.328378 59.1918 0.501044 59.102C0.697339 59 0.954305 59 1.46824 59H115.532C116.046 59 116.303 59 116.499 59.102C116.672 59.1918 116.812 59.335 116.9 59.5112C117 59.7114 117 59.9736 117 60.4979V79.5021C117 80.0264 117 80.2886 116.9 80.4888C116.812 80.665 116.672 80.8082 116.499 80.898C116.303 81 116.046 81 115.532 81H1.46823C0.954303 81 0.697339 81 0.501044 80.898C0.328378 80.8082 0.187995 80.665 0.100018 80.4888C0 80.2886 0 80.0264 0 79.5021V60.4979Z" fill="#FFEAEC"/>
<path d="M30 68.4545C30 67.9454 30 67.6908 30.0994 67.4964C30.1868 67.3253 30.3264 67.1862 30.498 67.0991C30.693 67 30.9484 67 31.4592 67H85.5408C86.0516 67 86.307 67 86.502 67.0991C86.6736 67.1862 86.8132 67.3253 86.9006 67.4964C87 67.6908 87 67.9454 87 68.4545V70.5455C87 71.0546 87 71.3092 86.9006 71.5036C86.8132 71.6747 86.6736 71.8138 86.502 71.9009C86.307 72 86.0516 72 85.5408 72H31.4592C30.9484 72 30.693 72 30.498 71.9009C30.3264 71.8138 30.1868 71.6747 30.0994 71.5036C30 71.3092 30 71.0546 30 70.5455V68.4545Z" fill="#F04B5D"/>
<path d="M55 20.4545C55 19.9454 55 19.6908 55.0987 19.4964C55.1855 19.3253 55.3239 19.1862 55.4943 19.0991C55.6879 19 55.9414 19 56.4484 19H96.5516C97.0586 19 97.3121 19 97.5057 19.0991C97.6761 19.1862 97.8145 19.3253 97.9013 19.4964C98 19.6908 98 19.9454 98 20.4545V22.5455C98 23.0546 98 23.3092 97.9013 23.5036C97.8145 23.6747 97.6761 23.8138 97.5057 23.9009C97.3121 24 97.0586 24 96.5516 24H56.4484C55.9414 24 55.6879 24 55.4943 23.9009C55.3239 23.8138 55.1855 23.6747 55.0987 23.5036C55 23.3092 55 23.0546 55 22.5455V20.4545Z" fill="#424754"/>
<path d="M30 15.4452C30 14.9393 30 14.6864 30.1017 14.4932C30.1912 14.3232 30.334 14.185 30.5096 14.0984C30.7093 14 30.9706 14 31.4933 14H42.5067C43.0294 14 43.2907 14 43.4904 14.0984C43.666 14.185 43.8088 14.3232 43.8983 14.4932C44 14.6864 44 14.9393 44 15.4452V26.5548C44 27.0607 44 27.3136 43.8983 27.5068C43.8088 27.6768 43.666 27.815 43.4904 27.9016C43.2907 28 43.0294 28 42.5067 28H31.4933C30.9706 28 30.7093 28 30.5096 27.9016C30.334 27.815 30.1912 27.6768 30.1017 27.5068C30 27.3136 30 27.0607 30 26.5548V15.4452Z" fill="#424754"/>
<path d="M30 90.4545C30 89.9454 30 89.6908 30.0994 89.4964C30.1868 89.3253 30.3264 89.1862 30.498 89.0991C30.693 89 30.9484 89 31.4592 89H85.5408C86.0516 89 86.307 89 86.502 89.0991C86.6736 89.1862 86.8132 89.3253 86.9006 89.4964C87 89.6908 87 89.9454 87 90.4545V92.5455C87 93.0546 87 93.3092 86.9006 93.5036C86.8132 93.6747 86.6736 93.8138 86.502 93.9009C86.307 94 86.0516 94 85.5408 94H31.4592C30.9484 94 30.693 94 30.498 93.9009C30.3264 93.8138 30.1868 93.6747 30.0994 93.5036C30 93.3092 30 93.0546 30 92.5455V90.4545Z" fill="#424754"/>
<path d="M30 111.455C30 110.945 30 110.691 30.0994 110.496C30.1868 110.325 30.3264 110.186 30.498 110.099C30.693 110 30.9484 110 31.4592 110H85.5408C86.0516 110 86.307 110 86.502 110.099C86.6736 110.186 86.8132 110.325 86.9006 110.496C87 110.691 87 110.945 87 111.455V113.545C87 114.055 87 114.309 86.9006 114.504C86.8132 114.675 86.6736 114.814 86.502 114.901C86.307 115 86.0516 115 85.5408 115H31.4592C30.9484 115 30.693 115 30.498 114.901C30.3264 114.814 30.1868 114.675 30.0994 114.504C30 114.309 30 114.055 30 113.545V111.455Z" fill="#424754"/>
<path d="M30 133.455C30 132.945 30 132.691 30.0994 132.496C30.1868 132.325 30.3264 132.186 30.498 132.099C30.693 132 30.9484 132 31.4592 132H85.5408C86.0516 132 86.307 132 86.502 132.099C86.6736 132.186 86.8132 132.325 86.9006 132.496C87 132.691 87 132.945 87 133.455V135.545C87 136.055 87 136.309 86.9006 136.504C86.8132 136.675 86.6736 136.814 86.502 136.901C86.307 137 86.0516 137 85.5408 137H31.4592C30.9484 137 30.693 137 30.498 136.901C30.3264 136.814 30.1868 136.675 30.0994 136.504C30 136.309 30 136.055 30 135.545V133.455Z" fill="#424754"/>
<path d="M30 154.745C30 154.134 30 153.829 30.0994 153.596C30.1868 153.39 30.3264 153.223 30.498 153.119C30.693 153 30.9484 153 31.4592 153H85.5408C86.0516 153 86.307 153 86.502 153.119C86.6736 153.223 86.8132 153.39 86.9006 153.596C87 153.829 87 154.134 87 154.745V157.255C87 157.866 87 158.171 86.9006 158.404C86.8132 158.61 86.6736 158.777 86.502 158.881C86.307 159 86.0516 159 85.5408 159H31.4592C30.9484 159 30.693 159 30.498 158.881C30.3264 158.777 30.1868 158.61 30.0994 158.404C30 158.171 30 157.866 30 157.255V154.745Z" fill="#424754"/>
</svg>
