<svg width="1111" height="298" viewBox="0 0 1111 298" fill="none" xmlns="http://www.w3.org/2000/svg">
<path d="M2.944 99.488C4.744 100.748 6.544 101.432 8.812 101.432C13.348 101.432 15.328 97.58 16.516 94.556L24.112 75.26H17.488L14.32 84.548C13.708 86.348 13.312 87.968 13.312 87.968H13.24C13.24 87.968 12.7 86.348 11.836 84.512L7.552 75.26H0.64L10.576 94.736C10.216 95.6 9.532 96.068 8.524 96.068C7.336 96.068 6.364 95.348 5.68 94.772L2.944 99.488ZM30.3538 96.068C31.6498 93.584 32.0098 90.884 32.0098 88.076V87.392H35.2138V96.068H30.3538ZM21.9298 96.068V105.32H27.6898V101H38.5618V105.32H44.1058V96.068H41.4418V82.46H26.1418V86.924C26.1418 90.668 25.4578 93.98 24.2338 96.068H21.9298ZM45.7081 91.784C45.7081 97.58 50.3881 101.432 56.2201 101.432C62.0521 101.432 66.7321 97.58 66.7321 91.784C66.7321 85.952 62.0521 82.028 56.1841 82.028C50.3881 82.028 45.7081 85.952 45.7081 91.784ZM52.0081 91.784C52.0081 88.976 53.9521 87.212 56.2201 87.212C58.4881 87.212 60.4321 88.976 60.4321 91.784C60.4321 94.556 58.4881 96.248 56.2201 96.248C53.9521 96.248 52.0081 94.556 52.0081 91.784ZM69.0217 89.912C69.0217 96.716 72.3697 101.432 79.0657 101.432C84.9337 101.432 88.6417 97.544 88.6417 92.432C88.6417 87.464 85.6177 83.936 80.6497 83.936C79.0297 83.936 76.7977 84.368 75.2137 85.7H75.1417C75.2497 83.036 77.7697 82.028 80.1457 81.236L87.1297 79.004L85.3657 74L79.3537 76.016C72.1177 78.5 69.0217 82.352 69.0217 89.912ZM75.2137 92.54C75.2137 90.128 76.8697 88.616 78.8137 88.616C80.7577 88.616 82.4137 90.128 82.4137 92.54C82.4137 94.916 80.7577 96.356 78.8137 96.356C76.8697 96.356 75.2137 94.916 75.2137 92.54ZM91.8927 101H98.1207V94.232H103.845V101H110.073V82.46H103.845V89.012H98.1207V82.46H91.8927V101ZM113.208 91.784C113.208 97.58 117.888 101.432 123.72 101.432C129.552 101.432 134.232 97.58 134.232 91.784C134.232 85.952 129.552 82.028 123.684 82.028C117.888 82.028 113.208 85.952 113.208 91.784ZM119.508 91.784C119.508 88.976 121.452 87.212 123.72 87.212C125.988 87.212 127.932 88.976 127.932 91.784C127.932 94.556 125.988 96.248 123.72 96.248C121.452 96.248 119.508 94.556 119.508 91.784ZM136.306 91.712C136.306 96.644 139.87 101.432 146.494 101.432C149.338 101.432 152.398 100.46 154.414 98.732L152.11 94.376C150.598 95.384 148.834 96.248 146.998 96.248C145.018 96.248 143.146 95.204 142.678 92.936H154.378C154.45 92.288 154.522 91.64 154.522 90.992C154.522 85.844 151.426 82.028 145.954 82.028C139.978 82.028 136.306 86.276 136.306 91.712ZM142.822 89.372C143.146 87.896 144.01 86.6 145.81 86.6C147.394 86.6 148.366 87.86 148.366 89.372H142.822ZM166.776 108.2H173.004V101.252C173.004 100.316 172.932 99.668 172.932 99.668H173.004C174.336 100.82 175.992 101.432 177.72 101.432C182.652 101.432 186.36 97.616 186.36 91.748C186.36 85.988 183.048 82.028 178.008 82.028C175.776 82.028 173.652 82.892 172.392 84.584H172.32C172.32 84.584 172.392 84.008 172.392 83.396V82.46H166.776V108.2ZM172.824 91.856C172.824 88.652 174.588 87.284 176.46 87.284C178.62 87.284 180.096 89.084 180.096 91.856C180.096 94.7 178.404 96.284 176.46 96.284C174.012 96.284 172.824 94.088 172.824 91.856ZM188.225 95.78C188.225 98.984 190.709 101.432 194.273 101.432C196.397 101.432 198.557 100.46 199.781 98.732H199.853C199.853 98.732 199.781 99.272 199.781 99.884V101H205.469V89.588C205.469 84.872 202.301 82.028 197.189 82.028C194.165 82.028 190.925 83.216 189.341 84.44L191.501 88.832C192.977 87.86 194.813 87.068 196.613 87.068C197.981 87.068 199.241 87.572 199.241 89.12V89.444H198.701C194.129 89.444 188.225 90.812 188.225 95.78ZM194.381 95.204C194.381 93.512 196.829 93.008 198.737 93.008H199.313V93.512C199.313 95.024 197.945 96.788 196.145 96.788C194.993 96.788 194.381 96.068 194.381 95.204ZM208.376 91.712C208.376 96.824 212.084 101.432 218.708 101.432C221.804 101.432 224.828 100.244 226.664 98.372L224.396 94.016C223.064 95.168 221.12 96.248 219.32 96.248C216.188 96.248 214.676 93.836 214.676 91.64C214.676 89.444 216.152 87.212 219.104 87.212C220.724 87.212 222.38 87.968 223.46 89.012L226.088 84.836C224.252 82.856 221.3 82.028 218.708 82.028C212.048 82.028 208.376 86.744 208.376 91.712ZM229.283 101H235.511V87.68H241.019V101H247.247V82.46H229.283V101ZM251.432 101H257.48L262.628 92.864C262.916 92.36 263.312 91.784 263.636 91.028H263.708C263.636 91.748 263.636 92.468 263.636 92.9V101H269.504V82.46H263.456L258.308 90.632C257.984 91.172 257.624 91.712 257.3 92.468H257.228C257.264 92 257.3 91.28 257.3 90.632V82.46H251.432V101ZM272.642 91.712C272.642 96.824 276.35 101.432 282.974 101.432C286.07 101.432 289.094 100.244 290.93 98.372L288.662 94.016C287.33 95.168 285.386 96.248 283.586 96.248C280.454 96.248 278.942 93.836 278.942 91.64C278.942 89.444 280.418 87.212 283.37 87.212C284.99 87.212 286.646 87.968 287.726 89.012L290.354 84.836C288.518 82.856 285.566 82.028 282.974 82.028C276.314 82.028 272.642 86.744 272.642 91.712ZM292.217 95.78C292.217 98.984 294.701 101.432 298.265 101.432C300.389 101.432 302.549 100.46 303.773 98.732H303.845C303.845 98.732 303.773 99.272 303.773 99.884V101H309.461V89.588C309.461 84.872 306.293 82.028 301.181 82.028C298.157 82.028 294.917 83.216 293.333 84.44L295.493 88.832C296.969 87.86 298.805 87.068 300.605 87.068C301.973 87.068 303.233 87.572 303.233 89.12V89.444H302.693C298.121 89.444 292.217 90.812 292.217 95.78ZM298.373 95.204C298.373 93.512 300.821 93.008 302.729 93.008H303.305V93.512C303.305 95.024 301.937 96.788 300.137 96.788C298.985 96.788 298.373 96.068 298.373 95.204ZM313.412 101H319.64V94.232H325.364V101H331.592V82.46H325.364V89.012H319.64V82.46H313.412V101ZM335.772 101H341.82L346.968 92.864C347.256 92.36 347.652 91.784 347.976 91.028H348.048C347.976 91.748 347.976 92.468 347.976 92.9V101H353.844V82.46H347.796L342.648 90.632C342.324 91.172 341.964 91.712 341.64 92.468H341.568C341.604 92 341.64 91.28 341.64 90.632V82.46H335.772V101ZM356.982 91.712C356.982 96.644 360.546 101.432 367.17 101.432C370.014 101.432 373.074 100.46 375.09 98.732L372.786 94.376C371.274 95.384 369.51 96.248 367.674 96.248C365.694 96.248 363.822 95.204 363.354 92.936H375.054C375.126 92.288 375.198 91.64 375.198 90.992C375.198 85.844 372.102 82.028 366.63 82.028C360.654 82.028 356.982 86.276 356.982 91.712ZM363.498 89.372C363.822 87.896 364.686 86.6 366.486 86.6C368.07 86.6 369.042 87.86 369.042 89.372H363.498ZM3.088 143H9.136L14.284 134.864C14.572 134.36 14.968 133.784 15.292 133.028H15.364C15.292 133.748 15.292 134.468 15.292 134.9V143H21.16V124.46H15.112L9.964 132.632C9.64 133.172 9.28 133.712 8.956 134.468H8.884C8.92 134 8.956 133.28 8.956 132.632V124.46H3.088V143ZM34.3419 143H40.3899L45.5379 134.864C45.8259 134.36 46.2219 133.784 46.5459 133.028H46.6179C46.5459 133.748 46.5459 134.468 46.5459 134.9V143H52.4139V124.46H46.3659L41.2179 132.632C40.8939 133.172 40.5339 133.712 40.2099 134.468H40.1379C40.1739 134 40.2099 133.28 40.2099 132.632V124.46H34.3419V143ZM56.5958 143H62.8238V136.232H68.5478V143H74.7758V124.46H68.5478V131.012H62.8238V124.46H56.5958V143ZM83.0232 143H89.2512V129.68H94.9032V124.46H77.4072V129.68H83.0232V143ZM96.2628 133.712C96.2628 138.644 99.8268 143.432 106.451 143.432C109.295 143.432 112.355 142.46 114.371 140.732L112.067 136.376C110.555 137.384 108.791 138.248 106.955 138.248C104.975 138.248 103.103 137.204 102.635 134.936H114.335C114.407 134.288 114.479 133.64 114.479 132.992C114.479 127.844 111.383 124.028 105.911 124.028C99.9348 124.028 96.2628 128.276 96.2628 133.712ZM102.779 131.372C103.103 129.896 103.967 128.6 105.767 128.6C107.351 128.6 108.323 129.86 108.323 131.372H102.779ZM117.733 150.2H123.961V143.252C123.961 142.316 123.889 141.668 123.889 141.668H123.961C125.293 142.82 126.949 143.432 128.677 143.432C133.609 143.432 137.317 139.616 137.317 133.748C137.317 127.988 134.005 124.028 128.965 124.028C126.733 124.028 124.609 124.892 123.349 126.584H123.277C123.277 126.584 123.349 126.008 123.349 125.396V124.46H117.733V150.2ZM123.781 133.856C123.781 130.652 125.545 129.284 127.417 129.284C129.577 129.284 131.053 131.084 131.053 133.856C131.053 136.7 129.361 138.284 127.417 138.284C124.969 138.284 123.781 136.088 123.781 133.856ZM139.47 133.712C139.47 138.644 143.034 143.432 149.658 143.432C152.502 143.432 155.562 142.46 157.578 140.732L155.274 136.376C153.762 137.384 151.998 138.248 150.162 138.248C148.182 138.248 146.31 137.204 145.842 134.936H157.542C157.614 134.288 157.686 133.64 157.686 132.992C157.686 127.844 154.59 124.028 149.118 124.028C143.142 124.028 139.47 128.276 139.47 133.712ZM145.986 131.372C146.31 129.896 147.174 128.6 148.974 128.6C150.558 128.6 151.53 129.86 151.53 131.372H145.986ZM159.896 133.712C159.896 138.824 163.604 143.432 170.228 143.432C173.324 143.432 176.348 142.244 178.184 140.372L175.916 136.016C174.584 137.168 172.64 138.248 170.84 138.248C167.708 138.248 166.196 135.836 166.196 133.64C166.196 131.444 167.672 129.212 170.624 129.212C172.244 129.212 173.9 129.968 174.98 131.012L177.608 126.836C175.772 124.856 172.82 124.028 170.228 124.028C163.568 124.028 159.896 128.744 159.896 133.712ZM180.803 143H187.031V136.232H192.755V143H198.983V124.46H192.755V131.012H187.031V124.46H180.803V143ZM221.666 143H227.894V124.46H221.666V143ZM203.162 143H212.198C217.382 143 219.542 140.444 219.542 136.664C219.542 132.92 217.382 130.256 212.198 130.256H209.39V124.46H203.162V143ZM209.39 138.932V134.288H210.938C212.522 134.288 213.314 135.332 213.314 136.628C213.314 137.924 212.522 138.932 211.046 138.932H209.39ZM231.017 133.712C231.017 138.644 234.581 143.432 241.205 143.432C244.049 143.432 247.109 142.46 249.125 140.732L246.821 136.376C245.309 137.384 243.545 138.248 241.709 138.248C239.729 138.248 237.857 137.204 237.389 134.936H249.089C249.161 134.288 249.233 133.64 249.233 132.992C249.233 127.844 246.137 124.028 240.665 124.028C234.689 124.028 231.017 128.276 231.017 133.712ZM237.533 131.372C237.857 129.896 238.721 128.6 240.521 128.6C242.105 128.6 243.077 129.86 243.077 131.372H237.533ZM259.938 140.696C261.954 142.496 264.942 143.432 267.678 143.432C272.07 143.432 275.346 141.452 275.346 137.528C275.346 135.368 273.87 134.072 272.466 133.424V133.352C273.582 132.74 274.77 131.48 274.77 129.176C274.77 125.972 271.746 124.028 267.93 124.028C264.546 124.028 262.17 124.928 260.442 126.116L262.242 129.968C264.186 128.816 265.626 128.564 266.634 128.564C268.218 128.564 268.578 129.248 268.578 130.04C268.578 131.192 267.678 131.48 266.706 131.48H264.834V135.584H267.102C268.794 135.584 269.118 136.232 269.118 137.132C269.118 137.996 268.614 138.752 266.886 138.752C265.41 138.752 263.574 137.852 262.422 136.808L259.938 140.696ZM277.17 137.78C277.17 140.984 279.654 143.432 283.218 143.432C285.342 143.432 287.502 142.46 288.726 140.732H288.798C288.798 140.732 288.726 141.272 288.726 141.884V143H294.414V131.588C294.414 126.872 291.246 124.028 286.134 124.028C283.11 124.028 279.87 125.216 278.286 126.44L280.446 130.832C281.922 129.86 283.758 129.068 285.558 129.068C286.926 129.068 288.186 129.572 288.186 131.12V131.444H287.646C283.074 131.444 277.17 132.812 277.17 137.78ZM283.326 137.204C283.326 135.512 285.774 135.008 287.682 135.008H288.258V135.512C288.258 137.024 286.89 138.788 285.09 138.788C283.938 138.788 283.326 138.068 283.326 137.204ZM298.365 143H304.593V136.232H310.317V143H316.545V124.46H310.317V131.012H304.593V124.46H298.365V143ZM318.961 143H325.549L329.113 137.348H330.409V143H336.637V124.46H326.917C322.813 124.46 320.221 126.836 320.221 130.724C320.221 133.1 321.553 135.224 323.569 136.232V136.268C323.569 136.268 323.209 136.628 322.705 137.384L318.961 143ZM328.933 133.208C327.457 133.208 326.413 132.452 326.413 130.688C326.413 128.96 327.457 128.312 328.897 128.312H330.409V133.208H328.933ZM344.867 143H351.095V129.68H356.747V124.46H339.251V129.68H344.867V143ZM359.361 143H365.409L370.557 134.864C370.845 134.36 371.241 133.784 371.565 133.028H371.637C371.565 133.748 371.565 134.468 371.565 134.9V143H377.433V124.46H371.385L366.237 132.632C365.913 133.172 365.553 133.712 365.229 134.468H365.157C365.193 134 365.229 133.28 365.229 132.632V124.46H359.361V143ZM379.851 143H386.439L390.003 137.348H391.299V143H397.527V124.46H387.807C383.703 124.46 381.111 126.836 381.111 130.724C381.111 133.1 382.443 135.224 384.459 136.232V136.268C384.459 136.268 384.099 136.628 383.595 137.384L379.851 143ZM389.823 133.208C388.347 133.208 387.303 132.452 387.303 130.688C387.303 128.96 388.347 128.312 389.787 128.312H391.299V133.208H389.823Z" fill="#222224"/>
<path d="M1.882 203.556C1.882 207.3 4.744 210.216 8.416 210.216C12.088 210.216 14.932 207.3 14.932 203.556C14.932 199.902 12.088 197.076 8.416 197.076C4.744 197.076 1.882 199.902 1.882 203.556ZM3.718 203.556C3.718 200.802 5.806 198.696 8.416 198.696C11.008 198.696 13.096 200.802 13.096 203.556C13.096 206.4 11.008 208.578 8.416 208.578C5.806 208.578 3.718 206.4 3.718 203.556ZM17.0629 210H18.8089V206.094H23.4169V210H25.1629V200.892H23.4169V204.6H18.8089V200.892H17.0629V210ZM26.8659 210.09C29.5479 209.946 30.5919 207.822 30.5919 203.7V202.332H33.2739V210H35.0199V200.892H28.9179V203.7C28.9179 206.994 28.1979 208.326 26.8659 208.524V210.09ZM36.9612 207.516C36.9612 209.226 38.4192 210.216 40.0032 210.216C41.3532 210.216 42.4692 209.406 42.9912 208.362H43.0272C43.0272 208.362 42.9732 208.668 42.9732 209.082V210H44.6112V204.24C44.6112 201.936 43.2972 200.676 41.0112 200.676C39.7332 200.676 38.3472 201.144 37.6092 201.756L38.3112 203.034C39.0492 202.512 39.9672 202.152 40.8672 202.152C42.0012 202.152 42.8652 202.656 42.8652 204.15V204.33H42.3972C40.5072 204.33 36.9612 204.654 36.9612 207.516ZM38.7072 207.372C38.7072 205.698 41.1192 205.59 42.4152 205.59H42.8652V205.932C42.8652 207.282 41.9472 208.83 40.4172 208.83C39.2832 208.83 38.7072 208.092 38.7072 207.372ZM51.2058 199.848C52.6098 199.848 53.8698 199.02 53.8698 197.544V197.274H52.4838V197.508C52.4838 198.318 51.8358 198.714 51.2058 198.714C50.5758 198.714 49.9458 198.318 49.9458 197.526V197.274H48.5418V197.544C48.5418 199.02 49.8198 199.848 51.2058 199.848ZM47.1918 210H48.8658L52.8078 204.564C53.0958 204.132 53.5458 203.52 53.5998 203.358H53.6358C53.6358 203.502 53.5818 204.132 53.5818 204.564V210H55.2738V200.892H53.5818L49.6578 206.328C49.3518 206.76 48.9198 207.39 48.8478 207.552H48.8118C48.8298 207.462 48.8658 206.814 48.8658 206.328V200.892H47.1918V210ZM57.9496 210H59.6956V206.094H64.3036V210H66.0496V200.892H64.3036V204.6H59.6956V200.892H57.9496V210ZM73.2426 210H74.9886V202.386H78.9486V200.892H73.2426V210ZM81.5812 208.56C82.7332 206.76 82.8772 204.168 82.8772 202.8V202.314H85.6132V208.56H81.5812ZM78.6652 208.56V212.16H80.3032V210H87.0532V212.16H88.6552V208.56H87.3592V200.892H81.2032V202.566C81.2032 203.97 81.0592 206.814 79.7812 208.56H78.6652ZM89.7873 205.446C89.7873 208.146 91.7673 210.216 94.6293 210.216C95.8893 210.216 97.2753 209.73 98.1573 208.92L97.4193 207.642C96.6993 208.29 95.7093 208.704 94.7373 208.704C93.0993 208.704 91.6953 207.642 91.6053 205.68H98.2293C98.2653 205.428 98.3013 205.176 98.3013 204.942C98.3013 202.602 96.9333 200.676 94.3593 200.676C91.7673 200.676 89.7873 202.548 89.7873 205.446ZM91.6593 204.42C91.9113 202.908 92.9733 202.026 94.3232 202.026C95.5113 202.026 96.4833 202.854 96.5373 204.42H91.6593ZM104.901 210H106.575L110.517 204.564C110.805 204.132 111.255 203.52 111.309 203.358H111.345C111.345 203.502 111.291 204.132 111.291 204.564V210H112.983V200.892H111.291L107.367 206.328C107.061 206.76 106.629 207.39 106.557 207.552H106.521C106.539 207.462 106.575 206.814 106.575 206.328V200.892H104.901V210ZM120.159 210H121.905V206.058H123.219L125.937 210H128.007L124.605 205.266V205.23L127.647 200.892H125.667L123.183 204.564H121.905V200.892H120.159V210ZM128.582 205.428C128.582 208.2 130.778 210.216 133.496 210.216C136.196 210.216 138.392 208.2 138.392 205.428C138.392 202.674 136.196 200.676 133.478 200.676C130.778 200.676 128.582 202.674 128.582 205.428ZM130.364 205.428C130.364 203.538 131.768 202.188 133.496 202.188C135.206 202.188 136.628 203.538 136.628 205.428C136.628 207.336 135.206 208.704 133.496 208.704C131.768 208.704 130.364 207.336 130.364 205.428ZM140.496 210H142.242V202.386H146.202V200.892H140.496V210ZM148.835 208.56C149.987 206.76 150.131 204.168 150.131 202.8V202.314H152.867V208.56H148.835ZM145.919 208.56V212.16H147.557V210H154.307V212.16H155.909V208.56H154.613V200.892H148.457V202.566C148.457 203.97 148.313 206.814 147.035 208.56H145.919ZM156.985 207.516C156.985 209.226 158.443 210.216 160.027 210.216C161.377 210.216 162.493 209.406 163.015 208.362H163.051C163.051 208.362 162.997 208.668 162.997 209.082V210H164.635V204.24C164.635 201.936 163.321 200.676 161.035 200.676C159.757 200.676 158.371 201.144 157.633 201.756L158.335 203.034C159.073 202.512 159.991 202.152 160.891 202.152C162.025 202.152 162.889 202.656 162.889 204.15V204.33H162.421C160.531 204.33 156.985 204.654 156.985 207.516ZM158.731 207.372C158.731 205.698 161.143 205.59 162.439 205.59H162.889V205.932C162.889 207.282 161.971 208.83 160.441 208.83C159.307 208.83 158.731 208.092 158.731 207.372ZM171.265 211.89L170.653 213.222C170.653 213.222 171.391 213.78 172.399 213.78C173.677 213.78 174.811 213.06 175.351 211.638L179.635 200.892H177.745L175.531 206.868C175.369 207.336 175.225 207.948 175.225 207.948H175.189C175.189 207.948 175.027 207.3 174.847 206.85L172.561 200.892H170.599L174.415 209.892L173.965 210.936C173.623 211.764 173.029 212.286 172.309 212.286C171.769 212.286 171.265 211.89 171.265 211.89ZM182.48 208.56C183.632 206.76 183.776 204.168 183.776 202.8V202.314H186.512V208.56H182.48ZM179.564 208.56V212.16H181.202V210H187.952V212.16H189.554V208.56H188.258V200.892H182.102V202.566C182.102 203.97 181.958 206.814 180.68 208.56H179.564ZM190.686 205.428C190.686 208.2 192.882 210.216 195.6 210.216C198.3 210.216 200.496 208.2 200.496 205.428C200.496 202.674 198.3 200.676 195.582 200.676C192.882 200.676 190.686 202.674 190.686 205.428ZM192.468 205.428C192.468 203.538 193.872 202.188 195.6 202.188C197.31 202.188 198.732 203.538 198.732 205.428C198.732 207.336 197.31 208.704 195.6 208.704C193.872 208.704 192.468 207.336 192.468 205.428ZM202.204 204.762C202.204 207.912 203.59 210.216 206.668 210.216C209.242 210.216 210.97 208.416 210.97 205.896C210.97 203.322 209.386 201.702 207.1 201.702C205.894 201.702 204.688 202.098 203.878 203.322H203.842C203.968 201.576 204.832 200.514 206.65 199.686L210.142 198.228L209.566 196.788L206.308 198.192C203.14 199.524 202.204 201.504 202.204 204.762ZM204.022 205.896C204.022 204.294 205.12 203.088 206.668 203.088C208.036 203.088 209.206 204.15 209.206 205.932C209.206 207.696 208.036 208.74 206.596 208.74C205.192 208.74 204.022 207.696 204.022 205.896ZM213.147 210H214.893V206.094H219.501V210H221.247V200.892H219.501V204.6H214.893V200.892H213.147V210ZM223.346 205.428C223.346 208.2 225.542 210.216 228.26 210.216C230.96 210.216 233.156 208.2 233.156 205.428C233.156 202.674 230.96 200.676 228.242 200.676C225.542 200.676 223.346 202.674 223.346 205.428ZM225.128 205.428C225.128 203.538 226.532 202.188 228.26 202.188C229.97 202.188 231.392 203.538 231.392 205.428C231.392 207.336 229.97 208.704 228.26 208.704C226.532 208.704 225.128 207.336 225.128 205.428Z" fill="#424754"/>
<path d="M602 4.40122C602 2.86065 602 2.09037 602.3 1.50195C602.563 0.984356 602.984 0.563541 603.501 0.299816C604.089 0 604.859 0 606.398 0H1106.6C1108.14 0 1108.91 0 1109.5 0.299816C1110.02 0.563541 1110.44 0.984356 1110.7 1.50195C1111 2.09037 1111 2.86066 1111 4.40123V293.599C1111 295.139 1111 295.91 1110.7 296.498C1110.44 297.016 1110.02 297.436 1109.5 297.7C1108.91 298 1108.14 298 1106.6 298H606.398C604.859 298 604.089 298 603.501 297.7C602.984 297.436 602.563 297.016 602.3 296.498C602 295.91 602 295.139 602 293.599V4.40122Z" fill="#F3F3F3"/>
<path d="M749 58.2049C749 57.0831 749 56.5222 749.194 56.0937C749.365 55.7168 749.638 55.4104 749.973 55.2183C750.354 55 750.853 55 751.851 55H1076.15C1077.15 55 1077.65 55 1078.03 55.2183C1078.36 55.4104 1078.63 55.7168 1078.81 56.0937C1079 56.5222 1079 57.0831 1079 58.2049V268.795C1079 269.917 1079 270.478 1078.81 270.906C1078.63 271.283 1078.36 271.59 1078.03 271.782C1077.65 272 1077.15 272 1076.15 272H751.851C750.853 272 750.354 272 749.973 271.782C749.638 271.59 749.365 271.283 749.194 270.906C749 270.478 749 269.917 749 268.795V58.2049Z" fill="white"/>
<path d="M749 21.8444C749 20.8488 749 20.351 749.101 19.9707C749.19 19.6362 749.332 19.3642 749.507 19.1938C749.705 19 749.965 19 750.485 19H776.515C777.035 19 777.295 19 777.493 19.1938C777.668 19.3642 777.81 19.6362 777.899 19.9707C778 20.351 778 20.8488 778 21.8444V24.1556C778 25.1512 778 25.649 777.899 26.0293C777.81 26.3638 777.668 26.6358 777.493 26.8062C777.295 27 777.035 27 776.515 27H750.485C749.965 27 749.705 27 749.507 26.8062C749.332 26.6358 749.19 26.3638 749.101 26.0293C749 25.649 749 25.1512 749 24.1556V21.8444Z" fill="#424754"/>
<path d="M770 86.5818C770 86.3782 770 86.2763 770.01 86.1985C770.02 86.1301 770.034 86.0745 770.052 86.0396C770.073 86 770.1 86 770.154 86H775.846C775.9 86 775.927 86 775.948 86.0396C775.966 86.0745 775.98 86.1301 775.99 86.1985C776 86.2763 776 86.3782 776 86.5818V87.4182C776 87.6218 776 87.7237 775.99 87.8015C775.98 87.8699 775.966 87.9255 775.948 87.9604C775.927 88 775.9 88 775.846 88H770.154C770.1 88 770.073 88 770.052 87.9604C770.034 87.9255 770.02 87.8699 770.01 87.8015C770 87.7237 770 87.6218 770 87.4182V86.5818Z" fill="#97999D"/>
<path d="M800 86.5818C800 86.3782 800 86.2763 800.01 86.1985C800.02 86.1301 800.034 86.0745 800.052 86.0396C800.073 86 800.1 86 800.154 86H805.846C805.9 86 805.927 86 805.948 86.0396C805.966 86.0745 805.98 86.1301 805.99 86.1985C806 86.2763 806 86.3782 806 86.5818V87.4182C806 87.6218 806 87.7237 805.99 87.8015C805.98 87.8699 805.966 87.9255 805.948 87.9604C805.927 88 805.9 88 805.846 88H800.154C800.1 88 800.073 88 800.052 87.9604C800.034 87.9255 800.02 87.8699 800.01 87.8015C800 87.7237 800 87.6218 800 87.4182V86.5818Z" fill="#97999D"/>
<path d="M830 86.5818C830 86.3782 830 86.2763 830.01 86.1985C830.02 86.1301 830.034 86.0745 830.052 86.0396C830.073 86 830.1 86 830.154 86H835.846C835.9 86 835.927 86 835.948 86.0396C835.966 86.0745 835.98 86.1301 835.99 86.1985C836 86.2763 836 86.3782 836 86.5818V87.4182C836 87.6218 836 87.7237 835.99 87.8015C835.98 87.8699 835.966 87.9255 835.948 87.9604C835.927 88 835.9 88 835.846 88H830.154C830.1 88 830.073 88 830.052 87.9604C830.034 87.9255 830.02 87.8699 830.01 87.8015C830 87.7237 830 87.6218 830 87.4182V86.5818Z" fill="#97999D"/>
<path d="M860 86.5818C860 86.3782 860 86.2763 860.01 86.1985C860.02 86.1301 860.034 86.0745 860.052 86.0396C860.073 86 860.1 86 860.154 86H865.846C865.9 86 865.927 86 865.948 86.0396C865.966 86.0745 865.98 86.1301 865.99 86.1985C866 86.2763 866 86.3782 866 86.5818V87.4182C866 87.6218 866 87.7237 865.99 87.8015C865.98 87.8699 865.966 87.9255 865.948 87.9604C865.927 88 865.9 88 865.846 88H860.154C860.1 88 860.073 88 860.052 87.9604C860.034 87.9255 860.02 87.8699 860.01 87.8015C860 87.7237 860 87.6218 860 87.4182V86.5818Z" fill="#97999D"/>
<path d="M890 86.5818C890 86.3782 890 86.2763 890.01 86.1985C890.02 86.1301 890.034 86.0745 890.052 86.0396C890.073 86 890.1 86 890.154 86H895.846C895.9 86 895.927 86 895.948 86.0396C895.966 86.0745 895.98 86.1301 895.99 86.1985C896 86.2763 896 86.3782 896 86.5818V87.4182C896 87.6218 896 87.7237 895.99 87.8015C895.98 87.8699 895.966 87.9255 895.948 87.9604C895.927 88 895.9 88 895.846 88H890.154C890.1 88 890.073 88 890.052 87.9604C890.034 87.9255 890.02 87.8699 890.01 87.8015C890 87.7237 890 87.6218 890 87.4182V86.5818Z" fill="#424754"/>
<path d="M920 86.5818C920 86.3782 920 86.2763 920.01 86.1985C920.02 86.1301 920.034 86.0745 920.052 86.0396C920.073 86 920.1 86 920.154 86H925.846C925.9 86 925.927 86 925.948 86.0396C925.966 86.0745 925.98 86.1301 925.99 86.1985C926 86.2763 926 86.3782 926 86.5818V87.4182C926 87.6218 926 87.7237 925.99 87.8015C925.98 87.8699 925.966 87.9255 925.948 87.9604C925.927 88 925.9 88 925.846 88H920.154C920.1 88 920.073 88 920.052 87.9604C920.034 87.9255 920.02 87.8699 920.01 87.8015C920 87.7237 920 87.6218 920 87.4182V86.5818Z" fill="#424754"/>
<path d="M950 86.5818C950 86.3782 950 86.2763 950.01 86.1985C950.02 86.1301 950.034 86.0745 950.052 86.0396C950.073 86 950.1 86 950.154 86H955.846C955.9 86 955.927 86 955.948 86.0396C955.966 86.0745 955.98 86.1301 955.99 86.1985C956 86.2763 956 86.3782 956 86.5818V87.4182C956 87.6218 956 87.7237 955.99 87.8015C955.98 87.8699 955.966 87.9255 955.948 87.9604C955.927 88 955.9 88 955.846 88H950.154C950.1 88 950.073 88 950.052 87.9604C950.034 87.9255 950.02 87.8699 950.01 87.8015C950 87.7237 950 87.6218 950 87.4182V86.5818Z" fill="#424754"/>
<path d="M980 86.5818C980 86.3782 980 86.2763 980.01 86.1985C980.02 86.1301 980.034 86.0745 980.052 86.0396C980.073 86 980.1 86 980.154 86H985.846C985.9 86 985.927 86 985.948 86.0396C985.966 86.0745 985.98 86.1301 985.99 86.1985C986 86.2763 986 86.3782 986 86.5818V87.4182C986 87.6218 986 87.7237 985.99 87.8015C985.98 87.8699 985.966 87.9255 985.948 87.9604C985.927 88 985.9 88 985.846 88H980.154C980.1 88 980.073 88 980.052 87.9604C980.034 87.9255 980.02 87.8699 980.01 87.8015C980 87.7237 980 87.6218 980 87.4182V86.5818Z" fill="#424754"/>
<path d="M1010 86.5818C1010 86.3782 1010 86.2763 1010.01 86.1985C1010.02 86.1301 1010.03 86.0745 1010.05 86.0396C1010.07 86 1010.1 86 1010.15 86H1015.85C1015.9 86 1015.93 86 1015.95 86.0396C1015.97 86.0745 1015.98 86.1301 1015.99 86.1985C1016 86.2763 1016 86.3782 1016 86.5818V87.4182C1016 87.6218 1016 87.7237 1015.99 87.8015C1015.98 87.8699 1015.97 87.9255 1015.95 87.9604C1015.93 88 1015.9 88 1015.85 88H1010.15C1010.1 88 1010.07 88 1010.05 87.9604C1010.03 87.9255 1010.02 87.8699 1010.01 87.8015C1010 87.7237 1010 87.6218 1010 87.4182V86.5818Z" fill="#424754"/>
<path d="M1040 86.5818C1040 86.3782 1040 86.2763 1040.01 86.1985C1040.02 86.1301 1040.03 86.0745 1040.05 86.0396C1040.07 86 1040.1 86 1040.15 86H1045.85C1045.9 86 1045.93 86 1045.95 86.0396C1045.97 86.0745 1045.98 86.1301 1045.99 86.1985C1046 86.2763 1046 86.3782 1046 86.5818V87.4182C1046 87.6218 1046 87.7237 1045.99 87.8015C1045.98 87.8699 1045.97 87.9255 1045.95 87.9604C1045.93 88 1045.9 88 1045.85 88H1040.15C1040.1 88 1040.07 88 1040.05 87.9604C1040.03 87.9255 1040.02 87.8699 1040.01 87.8015C1040 87.7237 1040 87.6218 1040 87.4182V86.5818Z" fill="#424754"/>
<path d="M1070 86.5818C1070 86.3782 1070 86.2763 1070.01 86.1985C1070.02 86.1301 1070.03 86.0745 1070.05 86.0396C1070.07 86 1070.1 86 1070.15 86H1075.85C1075.9 86 1075.93 86 1075.95 86.0396C1075.97 86.0745 1075.98 86.1301 1075.99 86.1985C1076 86.2763 1076 86.3782 1076 86.5818V87.4182C1076 87.6218 1076 87.7237 1075.99 87.8015C1075.98 87.8699 1075.97 87.9255 1075.95 87.9604C1075.93 88 1075.9 88 1075.85 88H1070.15C1070.1 88 1070.07 88 1070.05 87.9604C1070.03 87.9255 1070.02 87.8699 1070.01 87.8015C1070 87.7237 1070 87.6218 1070 87.4182V86.5818Z" fill="#424754"/>
<path d="M770 116.582C770 116.378 770 116.276 770.01 116.199C770.02 116.13 770.034 116.074 770.052 116.04C770.073 116 770.1 116 770.154 116H775.846C775.9 116 775.927 116 775.948 116.04C775.966 116.074 775.98 116.13 775.99 116.199C776 116.276 776 116.378 776 116.582V117.418C776 117.622 776 117.724 775.99 117.801C775.98 117.87 775.966 117.926 775.948 117.96C775.927 118 775.9 118 775.846 118H770.154C770.1 118 770.073 118 770.052 117.96C770.034 117.926 770.02 117.87 770.01 117.801C770 117.724 770 117.622 770 117.418V116.582Z" fill="#424754"/>
<path d="M800 116.582C800 116.378 800 116.276 800.01 116.199C800.02 116.13 800.034 116.074 800.052 116.04C800.073 116 800.1 116 800.154 116H805.846C805.9 116 805.927 116 805.948 116.04C805.966 116.074 805.98 116.13 805.99 116.199C806 116.276 806 116.378 806 116.582V117.418C806 117.622 806 117.724 805.99 117.801C805.98 117.87 805.966 117.926 805.948 117.96C805.927 118 805.9 118 805.846 118H800.154C800.1 118 800.073 118 800.052 117.96C800.034 117.926 800.02 117.87 800.01 117.801C800 117.724 800 117.622 800 117.418V116.582Z" fill="#424754"/>
<path d="M830 116.582C830 116.378 830 116.276 830.01 116.199C830.02 116.13 830.034 116.074 830.052 116.04C830.073 116 830.1 116 830.154 116H835.846C835.9 116 835.927 116 835.948 116.04C835.966 116.074 835.98 116.13 835.99 116.199C836 116.276 836 116.378 836 116.582V117.418C836 117.622 836 117.724 835.99 117.801C835.98 117.87 835.966 117.926 835.948 117.96C835.927 118 835.9 118 835.846 118H830.154C830.1 118 830.073 118 830.052 117.96C830.034 117.926 830.02 117.87 830.01 117.801C830 117.724 830 117.622 830 117.418V116.582Z" fill="#424754"/>
<path d="M860 116.582C860 116.378 860 116.276 860.01 116.199C860.02 116.13 860.034 116.074 860.052 116.04C860.073 116 860.1 116 860.154 116H865.846C865.9 116 865.927 116 865.948 116.04C865.966 116.074 865.98 116.13 865.99 116.199C866 116.276 866 116.378 866 116.582V117.418C866 117.622 866 117.724 865.99 117.801C865.98 117.87 865.966 117.926 865.948 117.96C865.927 118 865.9 118 865.846 118H860.154C860.1 118 860.073 118 860.052 117.96C860.034 117.926 860.02 117.87 860.01 117.801C860 117.724 860 117.622 860 117.418V116.582Z" fill="#424754"/>
<path d="M890 116.582C890 116.378 890 116.276 890.01 116.199C890.02 116.13 890.034 116.074 890.052 116.04C890.073 116 890.1 116 890.154 116H895.846C895.9 116 895.927 116 895.948 116.04C895.966 116.074 895.98 116.13 895.99 116.199C896 116.276 896 116.378 896 116.582V117.418C896 117.622 896 117.724 895.99 117.801C895.98 117.87 895.966 117.926 895.948 117.96C895.927 118 895.9 118 895.846 118H890.154C890.1 118 890.073 118 890.052 117.96C890.034 117.926 890.02 117.87 890.01 117.801C890 117.724 890 117.622 890 117.418V116.582Z" fill="#F04B5D"/>
<path d="M871 122.582C871 122.378 871 122.276 871.044 122.199C871.082 122.13 871.143 122.074 871.218 122.04C871.304 122 871.416 122 871.64 122H895.36C895.584 122 895.696 122 895.782 122.04C895.857 122.074 895.918 122.13 895.956 122.199C896 122.276 896 122.378 896 122.582V123.418C896 123.622 896 123.724 895.956 123.801C895.918 123.87 895.857 123.926 895.782 123.96C895.696 124 895.584 124 895.36 124H871.64C871.416 124 871.304 124 871.218 123.96C871.143 123.926 871.082 123.87 871.044 123.801C871 123.724 871 123.622 871 123.418V122.582Z" fill="#424754"/>
<path d="M871 126.582C871 126.378 871 126.276 871.044 126.199C871.082 126.13 871.143 126.074 871.218 126.04C871.304 126 871.416 126 871.64 126H895.36C895.584 126 895.696 126 895.782 126.04C895.857 126.074 895.918 126.13 895.956 126.199C896 126.276 896 126.378 896 126.582V127.418C896 127.622 896 127.724 895.956 127.801C895.918 127.87 895.857 127.926 895.782 127.96C895.696 128 895.584 128 895.36 128H871.64C871.416 128 871.304 128 871.218 127.96C871.143 127.926 871.082 127.87 871.044 127.801C871 127.724 871 127.622 871 127.418V126.582Z" fill="#424754"/>
<path d="M920 116.582C920 116.378 920 116.276 920.01 116.199C920.02 116.13 920.034 116.074 920.052 116.04C920.073 116 920.1 116 920.154 116H925.846C925.9 116 925.927 116 925.948 116.04C925.966 116.074 925.98 116.13 925.99 116.199C926 116.276 926 116.378 926 116.582V117.418C926 117.622 926 117.724 925.99 117.801C925.98 117.87 925.966 117.926 925.948 117.96C925.927 118 925.9 118 925.846 118H920.154C920.1 118 920.073 118 920.052 117.96C920.034 117.926 920.02 117.87 920.01 117.801C920 117.724 920 117.622 920 117.418V116.582Z" fill="#424754"/>
<path d="M950 116.582C950 116.378 950 116.276 950.01 116.199C950.02 116.13 950.034 116.074 950.052 116.04C950.073 116 950.1 116 950.154 116H955.846C955.9 116 955.927 116 955.948 116.04C955.966 116.074 955.98 116.13 955.99 116.199C956 116.276 956 116.378 956 116.582V117.418C956 117.622 956 117.724 955.99 117.801C955.98 117.87 955.966 117.926 955.948 117.96C955.927 118 955.9 118 955.846 118H950.154C950.1 118 950.073 118 950.052 117.96C950.034 117.926 950.02 117.87 950.01 117.801C950 117.724 950 117.622 950 117.418V116.582Z" fill="#424754"/>
<path d="M980 116.582C980 116.378 980 116.276 980.01 116.199C980.02 116.13 980.034 116.074 980.052 116.04C980.073 116 980.1 116 980.154 116H985.846C985.9 116 985.927 116 985.948 116.04C985.966 116.074 985.98 116.13 985.99 116.199C986 116.276 986 116.378 986 116.582V117.418C986 117.622 986 117.724 985.99 117.801C985.98 117.87 985.966 117.926 985.948 117.96C985.927 118 985.9 118 985.846 118H980.154C980.1 118 980.073 118 980.052 117.96C980.034 117.926 980.02 117.87 980.01 117.801C980 117.724 980 117.622 980 117.418V116.582Z" fill="#424754"/>
<path d="M1010 116.582C1010 116.378 1010 116.276 1010.01 116.199C1010.02 116.13 1010.03 116.074 1010.05 116.04C1010.07 116 1010.1 116 1010.15 116H1015.85C1015.9 116 1015.93 116 1015.95 116.04C1015.97 116.074 1015.98 116.13 1015.99 116.199C1016 116.276 1016 116.378 1016 116.582V117.418C1016 117.622 1016 117.724 1015.99 117.801C1015.98 117.87 1015.97 117.926 1015.95 117.96C1015.93 118 1015.9 118 1015.85 118H1010.15C1010.1 118 1010.07 118 1010.05 117.96C1010.03 117.926 1010.02 117.87 1010.01 117.801C1010 117.724 1010 117.622 1010 117.418V116.582Z" fill="#424754"/>
<path d="M1040 116.582C1040 116.378 1040 116.276 1040.01 116.199C1040.02 116.13 1040.03 116.074 1040.05 116.04C1040.07 116 1040.1 116 1040.15 116H1045.85C1045.9 116 1045.93 116 1045.95 116.04C1045.97 116.074 1045.98 116.13 1045.99 116.199C1046 116.276 1046 116.378 1046 116.582V117.418C1046 117.622 1046 117.724 1045.99 117.801C1045.98 117.87 1045.97 117.926 1045.95 117.96C1045.93 118 1045.9 118 1045.85 118H1040.15C1040.1 118 1040.07 118 1040.05 117.96C1040.03 117.926 1040.02 117.87 1040.01 117.801C1040 117.724 1040 117.622 1040 117.418V116.582Z" fill="#424754"/>
<path d="M1070 116.582C1070 116.378 1070 116.276 1070.01 116.199C1070.02 116.13 1070.03 116.074 1070.05 116.04C1070.07 116 1070.1 116 1070.15 116H1075.85C1075.9 116 1075.93 116 1075.95 116.04C1075.97 116.074 1075.98 116.13 1075.99 116.199C1076 116.276 1076 116.378 1076 116.582V117.418C1076 117.622 1076 117.724 1075.99 117.801C1075.98 117.87 1075.97 117.926 1075.95 117.96C1075.93 118 1075.9 118 1075.85 118H1070.15C1070.1 118 1070.07 118 1070.05 117.96C1070.03 117.926 1070.02 117.87 1070.01 117.801C1070 117.724 1070 117.622 1070 117.418V116.582Z" fill="#424754"/>
<path d="M770 146.582C770 146.378 770 146.276 770.01 146.199C770.02 146.13 770.034 146.074 770.052 146.04C770.073 146 770.1 146 770.154 146H775.846C775.9 146 775.927 146 775.948 146.04C775.966 146.074 775.98 146.13 775.99 146.199C776 146.276 776 146.378 776 146.582V147.418C776 147.622 776 147.724 775.99 147.801C775.98 147.87 775.966 147.926 775.948 147.96C775.927 148 775.9 148 775.846 148H770.154C770.1 148 770.073 148 770.052 147.96C770.034 147.926 770.02 147.87 770.01 147.801C770 147.724 770 147.622 770 147.418V146.582Z" fill="#424754"/>
<path d="M800 146.582C800 146.378 800 146.276 800.01 146.199C800.02 146.13 800.034 146.074 800.052 146.04C800.073 146 800.1 146 800.154 146H805.846C805.9 146 805.927 146 805.948 146.04C805.966 146.074 805.98 146.13 805.99 146.199C806 146.276 806 146.378 806 146.582V147.418C806 147.622 806 147.724 805.99 147.801C805.98 147.87 805.966 147.926 805.948 147.96C805.927 148 805.9 148 805.846 148H800.154C800.1 148 800.073 148 800.052 147.96C800.034 147.926 800.02 147.87 800.01 147.801C800 147.724 800 147.622 800 147.418V146.582Z" fill="#424754"/>
<path d="M830 146.582C830 146.378 830 146.276 830.01 146.199C830.02 146.13 830.034 146.074 830.052 146.04C830.073 146 830.1 146 830.154 146H835.846C835.9 146 835.927 146 835.948 146.04C835.966 146.074 835.98 146.13 835.99 146.199C836 146.276 836 146.378 836 146.582V147.418C836 147.622 836 147.724 835.99 147.801C835.98 147.87 835.966 147.926 835.948 147.96C835.927 148 835.9 148 835.846 148H830.154C830.1 148 830.073 148 830.052 147.96C830.034 147.926 830.02 147.87 830.01 147.801C830 147.724 830 147.622 830 147.418V146.582Z" fill="#424754"/>
<path d="M860 146.582C860 146.378 860 146.276 860.01 146.199C860.02 146.13 860.034 146.074 860.052 146.04C860.073 146 860.1 146 860.154 146H865.846C865.9 146 865.927 146 865.948 146.04C865.966 146.074 865.98 146.13 865.99 146.199C866 146.276 866 146.378 866 146.582V147.418C866 147.622 866 147.724 865.99 147.801C865.98 147.87 865.966 147.926 865.948 147.96C865.927 148 865.9 148 865.846 148H860.154C860.1 148 860.073 148 860.052 147.96C860.034 147.926 860.02 147.87 860.01 147.801C860 147.724 860 147.622 860 147.418V146.582Z" fill="#424754"/>
<path d="M890 146.582C890 146.378 890 146.276 890.01 146.199C890.02 146.13 890.034 146.074 890.052 146.04C890.073 146 890.1 146 890.154 146H895.846C895.9 146 895.927 146 895.948 146.04C895.966 146.074 895.98 146.13 895.99 146.199C896 146.276 896 146.378 896 146.582V147.418C896 147.622 896 147.724 895.99 147.801C895.98 147.87 895.966 147.926 895.948 147.96C895.927 148 895.9 148 895.846 148H890.154C890.1 148 890.073 148 890.052 147.96C890.034 147.926 890.02 147.87 890.01 147.801C890 147.724 890 147.622 890 147.418V146.582Z" fill="#424754"/>
<path d="M920 146.582C920 146.378 920 146.276 920.01 146.199C920.02 146.13 920.034 146.074 920.052 146.04C920.073 146 920.1 146 920.154 146H925.846C925.9 146 925.927 146 925.948 146.04C925.966 146.074 925.98 146.13 925.99 146.199C926 146.276 926 146.378 926 146.582V147.418C926 147.622 926 147.724 925.99 147.801C925.98 147.87 925.966 147.926 925.948 147.96C925.927 148 925.9 148 925.846 148H920.154C920.1 148 920.073 148 920.052 147.96C920.034 147.926 920.02 147.87 920.01 147.801C920 147.724 920 147.622 920 147.418V146.582Z" fill="#424754"/>
<path d="M950 146.582C950 146.378 950 146.276 950.01 146.199C950.02 146.13 950.034 146.074 950.052 146.04C950.073 146 950.1 146 950.154 146H955.846C955.9 146 955.927 146 955.948 146.04C955.966 146.074 955.98 146.13 955.99 146.199C956 146.276 956 146.378 956 146.582V147.418C956 147.622 956 147.724 955.99 147.801C955.98 147.87 955.966 147.926 955.948 147.96C955.927 148 955.9 148 955.846 148H950.154C950.1 148 950.073 148 950.052 147.96C950.034 147.926 950.02 147.87 950.01 147.801C950 147.724 950 147.622 950 147.418V146.582Z" fill="#424754"/>
<path d="M980 146.582C980 146.378 980 146.276 980.01 146.199C980.02 146.13 980.034 146.074 980.052 146.04C980.073 146 980.1 146 980.154 146H985.846C985.9 146 985.927 146 985.948 146.04C985.966 146.074 985.98 146.13 985.99 146.199C986 146.276 986 146.378 986 146.582V147.418C986 147.622 986 147.724 985.99 147.801C985.98 147.87 985.966 147.926 985.948 147.96C985.927 148 985.9 148 985.846 148H980.154C980.1 148 980.073 148 980.052 147.96C980.034 147.926 980.02 147.87 980.01 147.801C980 147.724 980 147.622 980 147.418V146.582Z" fill="#424754"/>
<path d="M1010 146.582C1010 146.378 1010 146.276 1010.01 146.199C1010.02 146.13 1010.03 146.074 1010.05 146.04C1010.07 146 1010.1 146 1010.15 146H1015.85C1015.9 146 1015.93 146 1015.95 146.04C1015.97 146.074 1015.98 146.13 1015.99 146.199C1016 146.276 1016 146.378 1016 146.582V147.418C1016 147.622 1016 147.724 1015.99 147.801C1015.98 147.87 1015.97 147.926 1015.95 147.96C1015.93 148 1015.9 148 1015.85 148H1010.15C1010.1 148 1010.07 148 1010.05 147.96C1010.03 147.926 1010.02 147.87 1010.01 147.801C1010 147.724 1010 147.622 1010 147.418V146.582Z" fill="#424754"/>
<path d="M1040 146.582C1040 146.378 1040 146.276 1040.01 146.199C1040.02 146.13 1040.03 146.074 1040.05 146.04C1040.07 146 1040.1 146 1040.15 146H1045.85C1045.9 146 1045.93 146 1045.95 146.04C1045.97 146.074 1045.98 146.13 1045.99 146.199C1046 146.276 1046 146.378 1046 146.582V147.418C1046 147.622 1046 147.724 1045.99 147.801C1045.98 147.87 1045.97 147.926 1045.95 147.96C1045.93 148 1045.9 148 1045.85 148H1040.15C1040.1 148 1040.07 148 1040.05 147.96C1040.03 147.926 1040.02 147.87 1040.01 147.801C1040 147.724 1040 147.622 1040 147.418V146.582Z" fill="#424754"/>
<path d="M1070 146.582C1070 146.378 1070 146.276 1070.01 146.199C1070.02 146.13 1070.03 146.074 1070.05 146.04C1070.07 146 1070.1 146 1070.15 146H1075.85C1075.9 146 1075.93 146 1075.95 146.04C1075.97 146.074 1075.98 146.13 1075.99 146.199C1076 146.276 1076 146.378 1076 146.582V147.418C1076 147.622 1076 147.724 1075.99 147.801C1075.98 147.87 1075.97 147.926 1075.95 147.96C1075.93 148 1075.9 148 1075.85 148H1070.15C1070.1 148 1070.07 148 1070.05 147.96C1070.03 147.926 1070.02 147.87 1070.01 147.801C1070 147.724 1070 147.622 1070 147.418V146.582Z" fill="#424754"/>
<path d="M770 176.582C770 176.378 770 176.276 770.01 176.199C770.02 176.13 770.034 176.074 770.052 176.04C770.073 176 770.1 176 770.154 176H775.846C775.9 176 775.927 176 775.948 176.04C775.966 176.074 775.98 176.13 775.99 176.199C776 176.276 776 176.378 776 176.582V177.418C776 177.622 776 177.724 775.99 177.801C775.98 177.87 775.966 177.926 775.948 177.96C775.927 178 775.9 178 775.846 178H770.154C770.1 178 770.073 178 770.052 177.96C770.034 177.926 770.02 177.87 770.01 177.801C770 177.724 770 177.622 770 177.418V176.582Z" fill="#424754"/>
<path d="M800 176.582C800 176.378 800 176.276 800.01 176.199C800.02 176.13 800.034 176.074 800.052 176.04C800.073 176 800.1 176 800.154 176H805.846C805.9 176 805.927 176 805.948 176.04C805.966 176.074 805.98 176.13 805.99 176.199C806 176.276 806 176.378 806 176.582V177.418C806 177.622 806 177.724 805.99 177.801C805.98 177.87 805.966 177.926 805.948 177.96C805.927 178 805.9 178 805.846 178H800.154C800.1 178 800.073 178 800.052 177.96C800.034 177.926 800.02 177.87 800.01 177.801C800 177.724 800 177.622 800 177.418V176.582Z" fill="#424754"/>
<path d="M830 176.582C830 176.378 830 176.276 830.01 176.199C830.02 176.13 830.034 176.074 830.052 176.04C830.073 176 830.1 176 830.154 176H835.846C835.9 176 835.927 176 835.948 176.04C835.966 176.074 835.98 176.13 835.99 176.199C836 176.276 836 176.378 836 176.582V177.418C836 177.622 836 177.724 835.99 177.801C835.98 177.87 835.966 177.926 835.948 177.96C835.927 178 835.9 178 835.846 178H830.154C830.1 178 830.073 178 830.052 177.96C830.034 177.926 830.02 177.87 830.01 177.801C830 177.724 830 177.622 830 177.418V176.582Z" fill="#424754"/>
<path d="M860 176.582C860 176.378 860 176.276 860.01 176.199C860.02 176.13 860.034 176.074 860.052 176.04C860.073 176 860.1 176 860.154 176H865.846C865.9 176 865.927 176 865.948 176.04C865.966 176.074 865.98 176.13 865.99 176.199C866 176.276 866 176.378 866 176.582V177.418C866 177.622 866 177.724 865.99 177.801C865.98 177.87 865.966 177.926 865.948 177.96C865.927 178 865.9 178 865.846 178H860.154C860.1 178 860.073 178 860.052 177.96C860.034 177.926 860.02 177.87 860.01 177.801C860 177.724 860 177.622 860 177.418V176.582Z" fill="#424754"/>
<path d="M890 176.582C890 176.378 890 176.276 890.01 176.199C890.02 176.13 890.034 176.074 890.052 176.04C890.073 176 890.1 176 890.154 176H895.846C895.9 176 895.927 176 895.948 176.04C895.966 176.074 895.98 176.13 895.99 176.199C896 176.276 896 176.378 896 176.582V177.418C896 177.622 896 177.724 895.99 177.801C895.98 177.87 895.966 177.926 895.948 177.96C895.927 178 895.9 178 895.846 178H890.154C890.1 178 890.073 178 890.052 177.96C890.034 177.926 890.02 177.87 890.01 177.801C890 177.724 890 177.622 890 177.418V176.582Z" fill="#424754"/>
<path d="M920 176.582C920 176.378 920 176.276 920.01 176.199C920.02 176.13 920.034 176.074 920.052 176.04C920.073 176 920.1 176 920.154 176H925.846C925.9 176 925.927 176 925.948 176.04C925.966 176.074 925.98 176.13 925.99 176.199C926 176.276 926 176.378 926 176.582V177.418C926 177.622 926 177.724 925.99 177.801C925.98 177.87 925.966 177.926 925.948 177.96C925.927 178 925.9 178 925.846 178H920.154C920.1 178 920.073 178 920.052 177.96C920.034 177.926 920.02 177.87 920.01 177.801C920 177.724 920 177.622 920 177.418V176.582Z" fill="#424754"/>
<path d="M950 176.582C950 176.378 950 176.276 950.01 176.199C950.02 176.13 950.034 176.074 950.052 176.04C950.073 176 950.1 176 950.154 176H955.846C955.9 176 955.927 176 955.948 176.04C955.966 176.074 955.98 176.13 955.99 176.199C956 176.276 956 176.378 956 176.582V177.418C956 177.622 956 177.724 955.99 177.801C955.98 177.87 955.966 177.926 955.948 177.96C955.927 178 955.9 178 955.846 178H950.154C950.1 178 950.073 178 950.052 177.96C950.034 177.926 950.02 177.87 950.01 177.801C950 177.724 950 177.622 950 177.418V176.582Z" fill="#424754"/>
<path d="M980 176.582C980 176.378 980 176.276 980.01 176.199C980.02 176.13 980.034 176.074 980.052 176.04C980.073 176 980.1 176 980.154 176H985.846C985.9 176 985.927 176 985.948 176.04C985.966 176.074 985.98 176.13 985.99 176.199C986 176.276 986 176.378 986 176.582V177.418C986 177.622 986 177.724 985.99 177.801C985.98 177.87 985.966 177.926 985.948 177.96C985.927 178 985.9 178 985.846 178H980.154C980.1 178 980.073 178 980.052 177.96C980.034 177.926 980.02 177.87 980.01 177.801C980 177.724 980 177.622 980 177.418V176.582Z" fill="#424754"/>
<path d="M1010 176.582C1010 176.378 1010 176.276 1010.01 176.199C1010.02 176.13 1010.03 176.074 1010.05 176.04C1010.07 176 1010.1 176 1010.15 176H1015.85C1015.9 176 1015.93 176 1015.95 176.04C1015.97 176.074 1015.98 176.13 1015.99 176.199C1016 176.276 1016 176.378 1016 176.582V177.418C1016 177.622 1016 177.724 1015.99 177.801C1015.98 177.87 1015.97 177.926 1015.95 177.96C1015.93 178 1015.9 178 1015.85 178H1010.15C1010.1 178 1010.07 178 1010.05 177.96C1010.03 177.926 1010.02 177.87 1010.01 177.801C1010 177.724 1010 177.622 1010 177.418V176.582Z" fill="#424754"/>
<path d="M1040 176.582C1040 176.378 1040 176.276 1040.01 176.199C1040.02 176.13 1040.03 176.074 1040.05 176.04C1040.07 176 1040.1 176 1040.15 176H1045.85C1045.9 176 1045.93 176 1045.95 176.04C1045.97 176.074 1045.98 176.13 1045.99 176.199C1046 176.276 1046 176.378 1046 176.582V177.418C1046 177.622 1046 177.724 1045.99 177.801C1045.98 177.87 1045.97 177.926 1045.95 177.96C1045.93 178 1045.9 178 1045.85 178H1040.15C1040.1 178 1040.07 178 1040.05 177.96C1040.03 177.926 1040.02 177.87 1040.01 177.801C1040 177.724 1040 177.622 1040 177.418V176.582Z" fill="#424754"/>
<path d="M1070 176.582C1070 176.378 1070 176.276 1070.01 176.199C1070.02 176.13 1070.03 176.074 1070.05 176.04C1070.07 176 1070.1 176 1070.15 176H1075.85C1075.9 176 1075.93 176 1075.95 176.04C1075.97 176.074 1075.98 176.13 1075.99 176.199C1076 176.276 1076 176.378 1076 176.582V177.418C1076 177.622 1076 177.724 1075.99 177.801C1075.98 177.87 1075.97 177.926 1075.95 177.96C1075.93 178 1075.9 178 1075.85 178H1070.15C1070.1 178 1070.07 178 1070.05 177.96C1070.03 177.926 1070.02 177.87 1070.01 177.801C1070 177.724 1070 177.622 1070 177.418V176.582Z" fill="#424754"/>
<path d="M770 206.582C770 206.378 770 206.276 770.01 206.199C770.02 206.13 770.034 206.074 770.052 206.04C770.073 206 770.1 206 770.154 206H775.846C775.9 206 775.927 206 775.948 206.04C775.966 206.074 775.98 206.13 775.99 206.199C776 206.276 776 206.378 776 206.582V207.418C776 207.622 776 207.724 775.99 207.801C775.98 207.87 775.966 207.926 775.948 207.96C775.927 208 775.9 208 775.846 208H770.154C770.1 208 770.073 208 770.052 207.96C770.034 207.926 770.02 207.87 770.01 207.801C770 207.724 770 207.622 770 207.418V206.582Z" fill="#424754"/>
<path d="M800 206.582C800 206.378 800 206.276 800.01 206.199C800.02 206.13 800.034 206.074 800.052 206.04C800.073 206 800.1 206 800.154 206H805.846C805.9 206 805.927 206 805.948 206.04C805.966 206.074 805.98 206.13 805.99 206.199C806 206.276 806 206.378 806 206.582V207.418C806 207.622 806 207.724 805.99 207.801C805.98 207.87 805.966 207.926 805.948 207.96C805.927 208 805.9 208 805.846 208H800.154C800.1 208 800.073 208 800.052 207.96C800.034 207.926 800.02 207.87 800.01 207.801C800 207.724 800 207.622 800 207.418V206.582Z" fill="#424754"/>
<path d="M830 206.582C830 206.378 830 206.276 830.01 206.199C830.02 206.13 830.034 206.074 830.052 206.04C830.073 206 830.1 206 830.154 206H835.846C835.9 206 835.927 206 835.948 206.04C835.966 206.074 835.98 206.13 835.99 206.199C836 206.276 836 206.378 836 206.582V207.418C836 207.622 836 207.724 835.99 207.801C835.98 207.87 835.966 207.926 835.948 207.96C835.927 208 835.9 208 835.846 208H830.154C830.1 208 830.073 208 830.052 207.96C830.034 207.926 830.02 207.87 830.01 207.801C830 207.724 830 207.622 830 207.418V206.582Z" fill="#424754"/>
<path d="M860 206.582C860 206.378 860 206.276 860.01 206.199C860.02 206.13 860.034 206.074 860.052 206.04C860.073 206 860.1 206 860.154 206H865.846C865.9 206 865.927 206 865.948 206.04C865.966 206.074 865.98 206.13 865.99 206.199C866 206.276 866 206.378 866 206.582V207.418C866 207.622 866 207.724 865.99 207.801C865.98 207.87 865.966 207.926 865.948 207.96C865.927 208 865.9 208 865.846 208H860.154C860.1 208 860.073 208 860.052 207.96C860.034 207.926 860.02 207.87 860.01 207.801C860 207.724 860 207.622 860 207.418V206.582Z" fill="#424754"/>
<path d="M890 206.582C890 206.378 890 206.276 890.01 206.199C890.02 206.13 890.034 206.074 890.052 206.04C890.073 206 890.1 206 890.154 206H895.846C895.9 206 895.927 206 895.948 206.04C895.966 206.074 895.98 206.13 895.99 206.199C896 206.276 896 206.378 896 206.582V207.418C896 207.622 896 207.724 895.99 207.801C895.98 207.87 895.966 207.926 895.948 207.96C895.927 208 895.9 208 895.846 208H890.154C890.1 208 890.073 208 890.052 207.96C890.034 207.926 890.02 207.87 890.01 207.801C890 207.724 890 207.622 890 207.418V206.582Z" fill="#424754"/>
<path d="M920 206.582C920 206.378 920 206.276 920.01 206.199C920.02 206.13 920.034 206.074 920.052 206.04C920.073 206 920.1 206 920.154 206H925.846C925.9 206 925.927 206 925.948 206.04C925.966 206.074 925.98 206.13 925.99 206.199C926 206.276 926 206.378 926 206.582V207.418C926 207.622 926 207.724 925.99 207.801C925.98 207.87 925.966 207.926 925.948 207.96C925.927 208 925.9 208 925.846 208H920.154C920.1 208 920.073 208 920.052 207.96C920.034 207.926 920.02 207.87 920.01 207.801C920 207.724 920 207.622 920 207.418V206.582Z" fill="#424754"/>
<path d="M950 206.582C950 206.378 950 206.276 950.01 206.199C950.02 206.13 950.034 206.074 950.052 206.04C950.073 206 950.1 206 950.154 206H955.846C955.9 206 955.927 206 955.948 206.04C955.966 206.074 955.98 206.13 955.99 206.199C956 206.276 956 206.378 956 206.582V207.418C956 207.622 956 207.724 955.99 207.801C955.98 207.87 955.966 207.926 955.948 207.96C955.927 208 955.9 208 955.846 208H950.154C950.1 208 950.073 208 950.052 207.96C950.034 207.926 950.02 207.87 950.01 207.801C950 207.724 950 207.622 950 207.418V206.582Z" fill="#424754"/>
<path d="M980 206.582C980 206.378 980 206.276 980.01 206.199C980.02 206.13 980.034 206.074 980.052 206.04C980.073 206 980.1 206 980.154 206H985.846C985.9 206 985.927 206 985.948 206.04C985.966 206.074 985.98 206.13 985.99 206.199C986 206.276 986 206.378 986 206.582V207.418C986 207.622 986 207.724 985.99 207.801C985.98 207.87 985.966 207.926 985.948 207.96C985.927 208 985.9 208 985.846 208H980.154C980.1 208 980.073 208 980.052 207.96C980.034 207.926 980.02 207.87 980.01 207.801C980 207.724 980 207.622 980 207.418V206.582Z" fill="#424754"/>
<path d="M1010 206.582C1010 206.378 1010 206.276 1010.01 206.199C1010.02 206.13 1010.03 206.074 1010.05 206.04C1010.07 206 1010.1 206 1010.15 206H1015.85C1015.9 206 1015.93 206 1015.95 206.04C1015.97 206.074 1015.98 206.13 1015.99 206.199C1016 206.276 1016 206.378 1016 206.582V207.418C1016 207.622 1016 207.724 1015.99 207.801C1015.98 207.87 1015.97 207.926 1015.95 207.96C1015.93 208 1015.9 208 1015.85 208H1010.15C1010.1 208 1010.07 208 1010.05 207.96C1010.03 207.926 1010.02 207.87 1010.01 207.801C1010 207.724 1010 207.622 1010 207.418V206.582Z" fill="#424754"/>
<path d="M1040 206.582C1040 206.378 1040 206.276 1040.01 206.199C1040.02 206.13 1040.03 206.074 1040.05 206.04C1040.07 206 1040.1 206 1040.15 206H1045.85C1045.9 206 1045.93 206 1045.95 206.04C1045.97 206.074 1045.98 206.13 1045.99 206.199C1046 206.276 1046 206.378 1046 206.582V207.418C1046 207.622 1046 207.724 1045.99 207.801C1045.98 207.87 1045.97 207.926 1045.95 207.96C1045.93 208 1045.9 208 1045.85 208H1040.15C1040.1 208 1040.07 208 1040.05 207.96C1040.03 207.926 1040.02 207.87 1040.01 207.801C1040 207.724 1040 207.622 1040 207.418V206.582Z" fill="#424754"/>
<path d="M1070 206.582C1070 206.378 1070 206.276 1070.01 206.199C1070.02 206.13 1070.03 206.074 1070.05 206.04C1070.07 206 1070.1 206 1070.15 206H1075.85C1075.9 206 1075.93 206 1075.95 206.04C1075.97 206.074 1075.98 206.13 1075.99 206.199C1076 206.276 1076 206.378 1076 206.582V207.418C1076 207.622 1076 207.724 1075.99 207.801C1075.98 207.87 1075.97 207.926 1075.95 207.96C1075.93 208 1075.9 208 1075.85 208H1070.15C1070.1 208 1070.07 208 1070.05 207.96C1070.03 207.926 1070.02 207.87 1070.01 207.801C1070 207.724 1070 207.622 1070 207.418V206.582Z" fill="#424754"/>
<path d="M762 68.4545C762 67.9454 762 67.6908 762.02 67.4964C762.038 67.3253 762.067 67.1862 762.102 67.0991C762.141 67 762.194 67 762.298 67H808.702C808.806 67 808.859 67 808.898 67.0991C808.933 67.1862 808.962 67.3253 808.98 67.4964C809 67.6908 809 67.9454 809 68.4545V70.5455C809 71.0546 809 71.3092 808.98 71.5036C808.962 71.6747 808.933 71.8138 808.898 71.9009C808.859 72 808.806 72 808.702 72H762.298C762.194 72 762.141 72 762.102 71.9009C762.067 71.8138 762.038 71.6747 762.02 71.5036C762 71.3092 762 71.0546 762 70.5455V68.4545Z" fill="#424754"/>
<path d="M602 4.40122C602 2.86065 602 2.09037 602.299 1.50195C602.562 0.984356 602.981 0.563541 603.497 0.299816C604.084 0 604.852 0 606.388 0H714.612C716.148 0 716.916 0 717.503 0.299816C718.019 0.563541 718.438 0.984356 718.701 1.50195C719 2.09037 719 2.86066 719 4.40123V293.599C719 295.139 719 295.91 718.701 296.498C718.438 297.016 718.019 297.436 717.503 297.7C716.916 298 716.148 298 714.612 298H606.388C604.852 298 604.084 298 603.497 297.7C602.981 297.436 602.562 297.016 602.299 296.498C602 295.91 602 295.139 602 293.599V4.40122Z" fill="#FFEAEC"/>
<path d="M602 60.4979C602 59.9736 602 59.7114 602.1 59.5112C602.188 59.335 602.328 59.1918 602.501 59.102C602.697 59 602.954 59 603.468 59H717.532C718.046 59 718.303 59 718.499 59.102C718.672 59.1918 718.812 59.335 718.9 59.5112C719 59.7114 719 59.9736 719 60.4979V79.5021C719 80.0264 719 80.2886 718.9 80.4888C718.812 80.665 718.672 80.8082 718.499 80.898C718.303 81 718.046 81 717.532 81H603.468C602.954 81 602.697 81 602.501 80.898C602.328 80.8082 602.188 80.665 602.1 80.4888C602 80.2886 602 80.0264 602 79.5021V60.4979Z" fill="#FFEAEC"/>
<path d="M632 68.4545C632 67.9454 632 67.6908 632.099 67.4964C632.187 67.3253 632.326 67.1862 632.498 67.0991C632.693 67 632.948 67 633.459 67H687.541C688.052 67 688.307 67 688.502 67.0991C688.674 67.1862 688.813 67.3253 688.901 67.4964C689 67.6908 689 67.9454 689 68.4545V70.5455C689 71.0546 689 71.3092 688.901 71.5036C688.813 71.6747 688.674 71.8138 688.502 71.9009C688.307 72 688.052 72 687.541 72H633.459C632.948 72 632.693 72 632.498 71.9009C632.326 71.8138 632.187 71.6747 632.099 71.5036C632 71.3092 632 71.0546 632 70.5455V68.4545Z" fill="#F04B5D"/>
<path d="M657 20.4545C657 19.9454 657 19.6908 657.099 19.4964C657.185 19.3253 657.324 19.1862 657.494 19.0991C657.688 19 657.941 19 658.448 19H698.552C699.059 19 699.312 19 699.506 19.0991C699.676 19.1862 699.815 19.3253 699.901 19.4964C700 19.6908 700 19.9454 700 20.4545V22.5455C700 23.0546 700 23.3092 699.901 23.5036C699.815 23.6747 699.676 23.8138 699.506 23.9009C699.312 24 699.059 24 698.552 24H658.448C657.941 24 657.688 24 657.494 23.9009C657.324 23.8138 657.185 23.6747 657.099 23.5036C657 23.3092 657 23.0546 657 22.5455V20.4545Z" fill="#424754"/>
<path d="M632 15.4452C632 14.9393 632 14.6864 632.102 14.4932C632.191 14.3232 632.334 14.185 632.51 14.0984C632.709 14 632.971 14 633.493 14H644.507C645.029 14 645.291 14 645.49 14.0984C645.666 14.185 645.809 14.3232 645.898 14.4932C646 14.6864 646 14.9393 646 15.4452V26.5548C646 27.0607 646 27.3136 645.898 27.5068C645.809 27.6768 645.666 27.815 645.49 27.9016C645.291 28 645.029 28 644.507 28H633.493C632.971 28 632.709 28 632.51 27.9016C632.334 27.815 632.191 27.6768 632.102 27.5068C632 27.3136 632 27.0607 632 26.5548V15.4452Z" fill="#424754"/>
<path d="M632 90.4545C632 89.9454 632 89.6908 632.099 89.4964C632.187 89.3253 632.326 89.1862 632.498 89.0991C632.693 89 632.948 89 633.459 89H687.541C688.052 89 688.307 89 688.502 89.0991C688.674 89.1862 688.813 89.3253 688.901 89.4964C689 89.6908 689 89.9454 689 90.4545V92.5455C689 93.0546 689 93.3092 688.901 93.5036C688.813 93.6747 688.674 93.8138 688.502 93.9009C688.307 94 688.052 94 687.541 94H633.459C632.948 94 632.693 94 632.498 93.9009C632.326 93.8138 632.187 93.6747 632.099 93.5036C632 93.3092 632 93.0546 632 92.5455V90.4545Z" fill="#424754"/>
<path d="M632 111.455C632 110.945 632 110.691 632.099 110.496C632.187 110.325 632.326 110.186 632.498 110.099C632.693 110 632.948 110 633.459 110H687.541C688.052 110 688.307 110 688.502 110.099C688.674 110.186 688.813 110.325 688.901 110.496C689 110.691 689 110.945 689 111.455V113.545C689 114.055 689 114.309 688.901 114.504C688.813 114.675 688.674 114.814 688.502 114.901C688.307 115 688.052 115 687.541 115H633.459C632.948 115 632.693 115 632.498 114.901C632.326 114.814 632.187 114.675 632.099 114.504C632 114.309 632 114.055 632 113.545V111.455Z" fill="#424754"/>
<path d="M632 133.455C632 132.945 632 132.691 632.099 132.496C632.187 132.325 632.326 132.186 632.498 132.099C632.693 132 632.948 132 633.459 132H687.541C688.052 132 688.307 132 688.502 132.099C688.674 132.186 688.813 132.325 688.901 132.496C689 132.691 689 132.945 689 133.455V135.545C689 136.055 689 136.309 688.901 136.504C688.813 136.675 688.674 136.814 688.502 136.901C688.307 137 688.052 137 687.541 137H633.459C632.948 137 632.693 137 632.498 136.901C632.326 136.814 632.187 136.675 632.099 136.504C632 136.309 632 136.055 632 135.545V133.455Z" fill="#424754"/>
<path d="M632 154.745C632 154.134 632 153.829 632.099 153.596C632.187 153.39 632.326 153.223 632.498 153.119C632.693 153 632.948 153 633.459 153H687.541C688.052 153 688.307 153 688.502 153.119C688.674 153.223 688.813 153.39 688.901 153.596C689 153.829 689 154.134 689 154.745V157.255C689 157.866 689 158.171 688.901 158.404C688.813 158.61 688.674 158.777 688.502 158.881C688.307 159 688.052 159 687.541 159H633.459C632.948 159 632.693 159 632.498 158.881C632.326 158.777 632.187 158.61 632.099 158.404C632 158.171 632 157.866 632 157.255V154.745Z" fill="#424754"/>
<line x1="749" y1="83.5" x2="1079" y2="83.5" stroke="#DADADB"/>
<line x1="749" y1="113.5" x2="1079" y2="113.5" stroke="#DADADB"/>
<line x1="749" y1="143.5" x2="1079" y2="143.5" stroke="#DADADB"/>
<line x1="749" y1="173.5" x2="1079" y2="173.5" stroke="#DADADB"/>
<line x1="749" y1="203.5" x2="1079" y2="203.5" stroke="#DADADB"/>
<line x1="749" y1="233.5" x2="1079" y2="233.5" stroke="#DADADB"/>
<line x1="778.5" y1="234" x2="778.5" y2="84" stroke="#DADADB"/>
<line x1="808.5" y1="234" x2="808.5" y2="84" stroke="#DADADB"/>
<line x1="838.5" y1="234" x2="838.5" y2="84" stroke="#DADADB"/>
<line x1="958.5" y1="234" x2="958.5" y2="84" stroke="#DADADB"/>
<line x1="868.5" y1="234" x2="868.5" y2="84" stroke="#DADADB"/>
<line x1="988.5" y1="234" x2="988.5" y2="84" stroke="#DADADB"/>
<line x1="898.5" y1="234" x2="898.5" y2="84" stroke="#DADADB"/>
<line x1="1018.5" y1="234" x2="1018.5" y2="84" stroke="#DADADB"/>
<line x1="928.5" y1="234" x2="928.5" y2="84" stroke="#DADADB"/>
<line x1="1048.5" y1="234" x2="1048.5" y2="84" stroke="#DADADB"/>
</svg>
