<svg width="1111" height="298" viewBox="0 0 1111 298" fill="none" xmlns="http://www.w3.org/2000/svg">
<path d="M2.944 105.488C4.744 106.748 6.544 107.432 8.812 107.432C13.348 107.432 15.328 103.58 16.516 100.556L24.112 81.26H17.488L14.32 90.548C13.708 92.348 13.312 93.968 13.312 93.968H13.24C13.24 93.968 12.7 92.348 11.836 90.512L7.552 81.26H0.64L10.576 100.736C10.216 101.6 9.532 102.068 8.524 102.068C7.336 102.068 6.364 101.348 5.68 100.772L2.944 105.488ZM30.3538 102.068C31.6498 99.584 32.0098 96.884 32.0098 94.076V93.392H35.2138V102.068H30.3538ZM21.9298 102.068V111.32H27.6898V107H38.5618V111.32H44.1058V102.068H41.4418V88.46H26.1418V92.924C26.1418 96.668 25.4578 99.98 24.2338 102.068H21.9298ZM45.7081 97.784C45.7081 103.58 50.3881 107.432 56.2201 107.432C62.0521 107.432 66.7321 103.58 66.7321 97.784C66.7321 91.952 62.0521 88.028 56.1841 88.028C50.3881 88.028 45.7081 91.952 45.7081 97.784ZM52.0081 97.784C52.0081 94.976 53.9521 93.212 56.2201 93.212C58.4881 93.212 60.4321 94.976 60.4321 97.784C60.4321 100.556 58.4881 102.248 56.2201 102.248C53.9521 102.248 52.0081 100.556 52.0081 97.784ZM69.0217 95.912C69.0217 102.716 72.3697 107.432 79.0657 107.432C84.9337 107.432 88.6417 103.544 88.6417 98.432C88.6417 93.464 85.6177 89.936 80.6497 89.936C79.0297 89.936 76.7977 90.368 75.2137 91.7H75.1417C75.2497 89.036 77.7697 88.028 80.1457 87.236L87.1297 85.004L85.3657 80L79.3537 82.016C72.1177 84.5 69.0217 88.352 69.0217 95.912ZM75.2137 98.54C75.2137 96.128 76.8697 94.616 78.8137 94.616C80.7577 94.616 82.4137 96.128 82.4137 98.54C82.4137 100.916 80.7577 102.356 78.8137 102.356C76.8697 102.356 75.2137 100.916 75.2137 98.54ZM91.8927 107H98.1207V100.232H103.845V107H110.073V88.46H103.845V95.012H98.1207V88.46H91.8927V107ZM113.208 97.784C113.208 103.58 117.888 107.432 123.72 107.432C129.552 107.432 134.232 103.58 134.232 97.784C134.232 91.952 129.552 88.028 123.684 88.028C117.888 88.028 113.208 91.952 113.208 97.784ZM119.508 97.784C119.508 94.976 121.452 93.212 123.72 93.212C125.988 93.212 127.932 94.976 127.932 97.784C127.932 100.556 125.988 102.248 123.72 102.248C121.452 102.248 119.508 100.556 119.508 97.784ZM136.306 97.712C136.306 102.644 139.87 107.432 146.494 107.432C149.338 107.432 152.398 106.46 154.414 104.732L152.11 100.376C150.598 101.384 148.834 102.248 146.998 102.248C145.018 102.248 143.146 101.204 142.678 98.936H154.378C154.45 98.288 154.522 97.64 154.522 96.992C154.522 91.844 151.426 88.028 145.954 88.028C139.978 88.028 136.306 92.276 136.306 97.712ZM142.822 95.372C143.146 93.896 144.01 92.6 145.81 92.6C147.394 92.6 148.366 93.86 148.366 95.372H142.822ZM166.776 114.2H173.004V107.252C173.004 106.316 172.932 105.668 172.932 105.668H173.004C174.336 106.82 175.992 107.432 177.72 107.432C182.652 107.432 186.36 103.616 186.36 97.748C186.36 91.988 183.048 88.028 178.008 88.028C175.776 88.028 173.652 88.892 172.392 90.584H172.32C172.32 90.584 172.392 90.008 172.392 89.396V88.46H166.776V114.2ZM172.824 97.856C172.824 94.652 174.588 93.284 176.46 93.284C178.62 93.284 180.096 95.084 180.096 97.856C180.096 100.7 178.404 102.284 176.46 102.284C174.012 102.284 172.824 100.088 172.824 97.856ZM188.225 101.78C188.225 104.984 190.709 107.432 194.273 107.432C196.397 107.432 198.557 106.46 199.781 104.732H199.853C199.853 104.732 199.781 105.272 199.781 105.884V107H205.469V95.588C205.469 90.872 202.301 88.028 197.189 88.028C194.165 88.028 190.925 89.216 189.341 90.44L191.501 94.832C192.977 93.86 194.813 93.068 196.613 93.068C197.981 93.068 199.241 93.572 199.241 95.12V95.444H198.701C194.129 95.444 188.225 96.812 188.225 101.78ZM194.381 101.204C194.381 99.512 196.829 99.008 198.737 99.008H199.313V99.512C199.313 101.024 197.945 102.788 196.145 102.788C194.993 102.788 194.381 102.068 194.381 101.204ZM208.376 97.712C208.376 102.824 212.084 107.432 218.708 107.432C221.804 107.432 224.828 106.244 226.664 104.372L224.396 100.016C223.064 101.168 221.12 102.248 219.32 102.248C216.188 102.248 214.676 99.836 214.676 97.64C214.676 95.444 216.152 93.212 219.104 93.212C220.724 93.212 222.38 93.968 223.46 95.012L226.088 90.836C224.252 88.856 221.3 88.028 218.708 88.028C212.048 88.028 208.376 92.744 208.376 97.712ZM229.283 107H235.511V93.68H241.019V107H247.247V88.46H229.283V107ZM251.432 107H257.48L262.628 98.864C262.916 98.36 263.312 97.784 263.636 97.028H263.708C263.636 97.748 263.636 98.468 263.636 98.9V107H269.504V88.46H263.456L258.308 96.632C257.984 97.172 257.624 97.712 257.3 98.468H257.228C257.264 98 257.3 97.28 257.3 96.632V88.46H251.432V107ZM272.642 97.712C272.642 102.824 276.35 107.432 282.974 107.432C286.07 107.432 289.094 106.244 290.93 104.372L288.662 100.016C287.33 101.168 285.386 102.248 283.586 102.248C280.454 102.248 278.942 99.836 278.942 97.64C278.942 95.444 280.418 93.212 283.37 93.212C284.99 93.212 286.646 93.968 287.726 95.012L290.354 90.836C288.518 88.856 285.566 88.028 282.974 88.028C276.314 88.028 272.642 92.744 272.642 97.712ZM292.217 101.78C292.217 104.984 294.701 107.432 298.265 107.432C300.389 107.432 302.549 106.46 303.773 104.732H303.845C303.845 104.732 303.773 105.272 303.773 105.884V107H309.461V95.588C309.461 90.872 306.293 88.028 301.181 88.028C298.157 88.028 294.917 89.216 293.333 90.44L295.493 94.832C296.969 93.86 298.805 93.068 300.605 93.068C301.973 93.068 303.233 93.572 303.233 95.12V95.444H302.693C298.121 95.444 292.217 96.812 292.217 101.78ZM298.373 101.204C298.373 99.512 300.821 99.008 302.729 99.008H303.305V99.512C303.305 101.024 301.937 102.788 300.137 102.788C298.985 102.788 298.373 102.068 298.373 101.204ZM313.412 107H319.64V100.232H325.364V107H331.592V88.46H325.364V95.012H319.64V88.46H313.412V107ZM335.772 107H341.82L346.968 98.864C347.256 98.36 347.652 97.784 347.976 97.028H348.048C347.976 97.748 347.976 98.468 347.976 98.9V107H353.844V88.46H347.796L342.648 96.632C342.324 97.172 341.964 97.712 341.64 98.468H341.568C341.604 98 341.64 97.28 341.64 96.632V88.46H335.772V107ZM356.982 97.712C356.982 102.644 360.546 107.432 367.17 107.432C370.014 107.432 373.074 106.46 375.09 104.732L372.786 100.376C371.274 101.384 369.51 102.248 367.674 102.248C365.694 102.248 363.822 101.204 363.354 98.936H375.054C375.126 98.288 375.198 97.64 375.198 96.992C375.198 91.844 372.102 88.028 366.63 88.028C360.654 88.028 356.982 92.276 356.982 97.712ZM363.498 95.372C363.822 93.896 364.686 92.6 366.486 92.6C368.07 92.6 369.042 93.86 369.042 95.372H363.498ZM376.759 110.996H381.331L385.399 101.024H379.459L376.759 110.996ZM1.756 143.78C1.756 146.984 4.24 149.432 7.804 149.432C9.928 149.432 12.088 148.46 13.312 146.732H13.384C13.384 146.732 13.312 147.272 13.312 147.884V149H19V137.588C19 132.872 15.832 130.028 10.72 130.028C7.696 130.028 4.456 131.216 2.872 132.44L5.032 136.832C6.508 135.86 8.344 135.068 10.144 135.068C11.512 135.068 12.772 135.572 12.772 137.12V137.444H12.232C7.66 137.444 1.756 138.812 1.756 143.78ZM7.912 143.204C7.912 141.512 10.36 141.008 12.268 141.008H12.844V141.512C12.844 143.024 11.476 144.788 9.676 144.788C8.524 144.788 7.912 144.068 7.912 143.204ZM31.9513 149H38.1793V135.68H43.6873V149H49.9153V130.46H31.9513V149ZM54.0997 156.2H60.3277V149.252C60.3277 148.316 60.2557 147.668 60.2557 147.668H60.3277C61.6597 148.82 63.3157 149.432 65.0437 149.432C69.9757 149.432 73.6837 145.616 73.6837 139.748C73.6837 133.988 70.3717 130.028 65.3317 130.028C63.0997 130.028 60.9757 130.892 59.7157 132.584H59.6437C59.6437 132.584 59.7157 132.008 59.7157 131.396V130.46H54.0997V156.2ZM60.1477 139.856C60.1477 136.652 61.9117 135.284 63.7837 135.284C65.9437 135.284 67.4197 137.084 67.4197 139.856C67.4197 142.7 65.7277 144.284 63.7837 144.284C61.3357 144.284 60.1477 142.088 60.1477 139.856ZM75.837 139.712C75.837 144.644 79.401 149.432 86.025 149.432C88.869 149.432 91.929 148.46 93.945 146.732L91.641 142.376C90.129 143.384 88.365 144.248 86.529 144.248C84.549 144.248 82.677 143.204 82.209 140.936H93.909C93.981 140.288 94.053 139.64 94.053 138.992C94.053 133.844 90.957 130.028 85.485 130.028C79.509 130.028 75.837 134.276 75.837 139.712ZM82.353 137.372C82.677 135.896 83.541 134.6 85.341 134.6C86.925 134.6 87.897 135.86 87.897 137.372H82.353ZM97.3068 149H103.535V135.68H109.043V149H115.271V130.46H97.3068V149ZM118.411 139.784C118.411 145.58 123.091 149.432 128.923 149.432C134.755 149.432 139.435 145.58 139.435 139.784C139.435 133.952 134.755 130.028 128.887 130.028C123.091 130.028 118.411 133.952 118.411 139.784ZM124.711 139.784C124.711 136.976 126.655 135.212 128.923 135.212C131.191 135.212 133.135 136.976 133.135 139.784C133.135 142.556 131.191 144.248 128.923 144.248C126.655 144.248 124.711 142.556 124.711 139.784ZM149.041 144.068C150.337 141.584 150.697 138.884 150.697 136.076V135.392H153.901V144.068H149.041ZM140.617 144.068V153.32H146.377V149H157.249V153.32H162.793V144.068H160.129V130.46H144.829V134.924C144.829 138.668 144.145 141.98 142.921 144.068H140.617ZM164.319 143.78C164.319 146.984 166.803 149.432 170.367 149.432C172.491 149.432 174.651 148.46 175.875 146.732H175.947C175.947 146.732 175.875 147.272 175.875 147.884V149H181.562V137.588C181.562 132.872 178.395 130.028 173.283 130.028C170.259 130.028 167.019 131.216 165.435 132.44L167.595 136.832C169.071 135.86 170.907 135.068 172.707 135.068C174.075 135.068 175.335 135.572 175.335 137.12V137.444H174.795C170.223 137.444 164.319 138.812 164.319 143.78ZM170.475 143.204C170.475 141.512 172.923 141.008 174.831 141.008H175.407V141.512C175.407 143.024 174.039 144.788 172.239 144.788C171.087 144.788 170.475 144.068 170.475 143.204ZM185.514 149H195.63C199.302 149 202.686 147.56 202.686 143.492C202.686 141.872 201.894 140.036 199.77 139.388V139.352C201.174 138.524 201.93 136.868 201.93 135.32C201.93 132.116 199.338 130.46 195.63 130.46H185.514V149ZM191.742 137.768V134.312H194.01C195.234 134.312 195.738 135.068 195.738 135.932C195.738 136.904 195.234 137.768 194.082 137.768H191.742ZM191.742 145.112V141.404H194.514C195.846 141.404 196.458 142.268 196.458 143.276C196.458 144.212 195.81 145.112 194.478 145.112H191.742ZM204.572 143.78C204.572 146.984 207.056 149.432 210.62 149.432C212.744 149.432 214.904 148.46 216.128 146.732H216.2C216.2 146.732 216.128 147.272 216.128 147.884V149H221.816V137.588C221.816 132.872 218.648 130.028 213.536 130.028C210.512 130.028 207.272 131.216 205.688 132.44L207.848 136.832C209.324 135.86 211.16 135.068 212.96 135.068C214.328 135.068 215.588 135.572 215.588 137.12V137.444H215.048C210.476 137.444 204.572 138.812 204.572 143.78ZM210.728 143.204C210.728 141.512 213.176 141.008 215.084 141.008H215.66V141.512C215.66 143.024 214.292 144.788 212.492 144.788C211.34 144.788 210.728 144.068 210.728 143.204ZM229.836 149H236.064V135.68H241.716V130.46H224.22V135.68H229.836V149ZM243.075 139.712C243.075 144.644 246.639 149.432 253.263 149.432C256.107 149.432 259.167 148.46 261.183 146.732L258.879 142.376C257.367 143.384 255.603 144.248 253.767 144.248C251.787 144.248 249.915 143.204 249.447 140.936H261.147C261.219 140.288 261.291 139.64 261.291 138.992C261.291 133.844 258.195 130.028 252.723 130.028C246.747 130.028 243.075 134.276 243.075 139.712ZM249.591 137.372C249.915 135.896 250.779 134.6 252.579 134.6C254.163 134.6 255.135 135.86 255.135 137.372H249.591ZM263.036 149.18C270.236 149.18 272.396 143.996 272.396 136.436V135.392H275.492V149H281.72V130.46H266.528V136.4C266.528 142.772 264.692 143.528 263.036 143.744V149.18ZM285.885 149H295.137C300.321 149 302.481 146.444 302.481 142.664C302.481 138.92 300.321 136.256 295.137 136.256H292.113V130.46H285.885V149ZM292.113 144.932V140.288H293.877C295.461 140.288 296.253 141.332 296.253 142.628C296.253 143.924 295.461 144.932 293.985 144.932H292.113ZM313.177 139.712C313.177 144.824 316.885 149.432 323.509 149.432C326.605 149.432 329.629 148.244 331.465 146.372L329.197 142.016C327.865 143.168 325.921 144.248 324.121 144.248C320.989 144.248 319.477 141.836 319.477 139.64C319.477 137.444 320.953 135.212 323.905 135.212C325.525 135.212 327.181 135.968 328.261 137.012L330.889 132.836C329.053 130.856 326.101 130.028 323.509 130.028C316.849 130.028 313.177 134.744 313.177 139.712ZM338.152 149H344.38V135.68H350.032V130.46H332.536V135.68H338.152V149ZM351.104 143.78C351.104 146.984 353.588 149.432 357.152 149.432C359.276 149.432 361.436 148.46 362.66 146.732H362.732C362.732 146.732 362.66 147.272 362.66 147.884V149H368.348V137.588C368.348 132.872 365.18 130.028 360.068 130.028C357.044 130.028 353.804 131.216 352.22 132.44L354.38 136.832C355.856 135.86 357.692 135.068 359.492 135.068C360.86 135.068 362.12 135.572 362.12 137.12V137.444H361.58C357.008 137.444 351.104 138.812 351.104 143.78ZM357.26 143.204C357.26 141.512 359.708 141.008 361.616 141.008H362.192V141.512C362.192 143.024 360.824 144.788 359.024 144.788C357.872 144.788 357.26 144.068 357.26 143.204ZM372.299 149H378.527V142.232H384.251V149H390.479V130.46H384.251V137.012H378.527V130.46H372.299V149ZM393.614 139.712C393.614 144.644 397.178 149.432 403.802 149.432C406.646 149.432 409.706 148.46 411.722 146.732L409.418 142.376C407.906 143.384 406.142 144.248 404.306 144.248C402.326 144.248 400.454 143.204 399.986 140.936H411.686C411.758 140.288 411.83 139.64 411.83 138.992C411.83 133.844 408.734 130.028 403.262 130.028C397.286 130.028 393.614 134.276 393.614 139.712ZM400.13 137.372C400.454 135.896 401.318 134.6 403.118 134.6C404.702 134.6 405.674 135.86 405.674 137.372H400.13ZM419.152 149H425.38V135.68H431.032V130.46H413.536V135.68H419.152V149ZM3.088 191H13.204C16.876 191 20.26 189.56 20.26 185.492C20.26 183.872 19.468 182.036 17.344 181.388V181.352C18.748 180.524 19.504 178.868 19.504 177.32C19.504 174.116 16.912 172.46 13.204 172.46H3.088V191ZM9.316 179.768V176.312H11.584C12.808 176.312 13.312 177.068 13.312 177.932C13.312 178.904 12.808 179.768 11.656 179.768H9.316ZM9.316 187.112V183.404H12.088C13.42 183.404 14.032 184.268 14.032 185.276C14.032 186.212 13.384 187.112 12.052 187.112H9.316ZM22.1466 185.78C22.1466 188.984 24.6306 191.432 28.1946 191.432C30.3186 191.432 32.4786 190.46 33.7026 188.732H33.7746C33.7746 188.732 33.7026 189.272 33.7026 189.884V191H39.3906V179.588C39.3906 174.872 36.2226 172.028 31.1106 172.028C28.0866 172.028 24.8466 173.216 23.2626 174.44L25.4226 178.832C26.8986 177.86 28.7346 177.068 30.5346 177.068C31.9026 177.068 33.1626 177.572 33.1626 179.12V179.444H32.6226C28.0506 179.444 22.1466 180.812 22.1466 185.78ZM28.3026 185.204C28.3026 183.512 30.7506 183.008 32.6586 183.008H33.2346V183.512C33.2346 185.024 31.8666 186.788 30.0666 186.788C28.9146 186.788 28.3026 186.068 28.3026 185.204ZM43.3419 191H69.2979V172.46H63.4299V185.78H59.2539V172.46H53.3859V185.78H49.2099V172.46H43.3419V191ZM73.4708 191H79.5188L84.6668 182.864C84.9548 182.36 85.3508 181.784 85.6748 181.028H85.7468C85.6748 181.748 85.6748 182.468 85.6748 182.9V191H91.5428V172.46H85.4948L80.3468 180.632C80.0228 181.172 79.6628 181.712 79.3388 182.468H79.2668C79.3028 182 79.3388 181.28 79.3388 180.632V172.46H73.4708V191ZM94.9327 191H100.873L101.305 182.468C101.377 181.028 101.269 179.3 101.269 179.3H101.341C101.341 179.3 102.025 180.848 102.421 182.036L104.869 188.516H109.909L112.357 182.036C112.825 180.884 113.365 179.3 113.365 179.3H113.437C113.437 179.3 113.365 181.028 113.401 182.468L113.833 191H119.809L118.045 172.46H110.881L108.145 180.596C107.821 181.532 107.389 182.756 107.389 182.756H107.353C107.353 182.756 106.957 181.532 106.633 180.596L103.897 172.46H96.6967L94.9327 191ZM139.022 186.068C140.318 183.584 140.678 180.884 140.678 178.076V177.392H143.882V186.068H139.022ZM130.598 186.068V195.32H136.358V191H147.23V195.32H152.774V186.068H150.11V172.46H134.81V176.924C134.81 180.668 134.126 183.98 132.902 186.068H130.598ZM155.631 198.2H161.859V191.252C161.859 190.316 161.787 189.668 161.787 189.668H161.859C163.191 190.82 164.847 191.432 166.575 191.432C171.507 191.432 175.215 187.616 175.215 181.748C175.215 175.988 171.903 172.028 166.863 172.028C164.631 172.028 162.507 172.892 161.247 174.584H161.175C161.175 174.584 161.247 174.008 161.247 173.396V172.46H155.631V198.2ZM161.679 181.856C161.679 178.652 163.443 177.284 165.315 177.284C167.475 177.284 168.951 179.084 168.951 181.856C168.951 184.7 167.259 186.284 165.315 186.284C162.867 186.284 161.679 184.088 161.679 181.856ZM178.135 192.692L176.155 197.264C176.155 197.264 178.027 198.56 180.475 198.56C183.427 198.56 186.667 197.12 188.215 192.98L195.811 172.46H189.007L186.667 181.1C186.415 182.108 186.055 183.872 186.055 183.872H185.983C185.983 183.872 185.623 182 185.299 180.992L182.563 172.46H175.507L183.391 190.64L183.031 191.504C182.383 193.088 181.051 193.376 180.043 193.376C179.143 193.376 178.135 192.692 178.135 192.692ZM198.135 191H204.363V177.68H211.203V172.46H198.135V191ZM212.524 181.784C212.524 187.58 217.204 191.432 223.036 191.432C228.868 191.432 233.548 187.58 233.548 181.784C233.548 175.952 228.868 172.028 223 172.028C217.204 172.028 212.524 175.952 212.524 181.784ZM218.824 181.784C218.824 178.976 220.768 177.212 223.036 177.212C225.304 177.212 227.248 178.976 227.248 181.784C227.248 184.556 225.304 186.248 223.036 186.248C220.768 186.248 218.824 184.556 218.824 181.784ZM235.874 191H241.814L242.246 182.468C242.318 181.028 242.21 179.3 242.21 179.3H242.282C242.282 179.3 242.966 180.848 243.362 182.036L245.81 188.516H250.85L253.298 182.036C253.766 180.884 254.306 179.3 254.306 179.3H254.378C254.378 179.3 254.306 181.028 254.342 182.468L254.774 191H260.75L258.986 172.46H251.822L249.086 180.596C248.762 181.532 248.33 182.756 248.33 182.756H248.294C248.294 182.756 247.898 181.532 247.574 180.596L244.838 172.46H237.638L235.874 191Z" fill="#222224"/>
<path d="M1.882 251.556C1.882 255.3 4.744 258.216 8.416 258.216C12.088 258.216 14.932 255.3 14.932 251.556C14.932 247.902 12.088 245.076 8.416 245.076C4.744 245.076 1.882 247.902 1.882 251.556ZM3.718 251.556C3.718 248.802 5.806 246.696 8.416 246.696C11.008 246.696 13.096 248.802 13.096 251.556C13.096 254.4 11.008 256.578 8.416 256.578C5.806 256.578 3.718 254.4 3.718 251.556ZM17.0629 258H18.8089V254.094H23.4169V258H25.1629V248.892H23.4169V252.6H18.8089V248.892H17.0629V258ZM26.8659 258.09C29.5479 257.946 30.5919 255.822 30.5919 251.7V250.332H33.2739V258H35.0199V248.892H28.9179V251.7C28.9179 254.994 28.1979 256.326 26.8659 256.524V258.09ZM36.9612 255.516C36.9612 257.226 38.4192 258.216 40.0032 258.216C41.3532 258.216 42.4692 257.406 42.9912 256.362H43.0272C43.0272 256.362 42.9732 256.668 42.9732 257.082V258H44.6112V252.24C44.6112 249.936 43.2972 248.676 41.0112 248.676C39.7332 248.676 38.3472 249.144 37.6092 249.756L38.3112 251.034C39.0492 250.512 39.9672 250.152 40.8672 250.152C42.0012 250.152 42.8652 250.656 42.8652 252.15V252.33H42.3972C40.5072 252.33 36.9612 252.654 36.9612 255.516ZM38.7072 255.372C38.7072 253.698 41.1192 253.59 42.4152 253.59H42.8652V253.932C42.8652 255.282 41.9472 256.83 40.4172 256.83C39.2832 256.83 38.7072 256.092 38.7072 255.372ZM51.2058 247.848C52.6098 247.848 53.8698 247.02 53.8698 245.544V245.274H52.4838V245.508C52.4838 246.318 51.8358 246.714 51.2058 246.714C50.5758 246.714 49.9458 246.318 49.9458 245.526V245.274H48.5418V245.544C48.5418 247.02 49.8198 247.848 51.2058 247.848ZM47.1918 258H48.8658L52.8078 252.564C53.0958 252.132 53.5458 251.52 53.5998 251.358H53.6358C53.6358 251.502 53.5818 252.132 53.5818 252.564V258H55.2738V248.892H53.5818L49.6578 254.328C49.3518 254.76 48.9198 255.39 48.8478 255.552H48.8118C48.8298 255.462 48.8658 254.814 48.8658 254.328V248.892H47.1918V258ZM57.9496 258H59.6956V254.094H64.3036V258H66.0496V248.892H64.3036V252.6H59.6956V248.892H57.9496V258ZM73.2426 258H74.9886V250.386H78.9486V248.892H73.2426V258ZM81.5812 256.56C82.7332 254.76 82.8772 252.168 82.8772 250.8V250.314H85.6132V256.56H81.5812ZM78.6652 256.56V260.16H80.3032V258H87.0532V260.16H88.6552V256.56H87.3592V248.892H81.2032V250.566C81.2032 251.97 81.0592 254.814 79.7812 256.56H78.6652ZM89.7873 253.446C89.7873 256.146 91.7673 258.216 94.6293 258.216C95.8893 258.216 97.2753 257.73 98.1573 256.92L97.4193 255.642C96.6993 256.29 95.7093 256.704 94.7373 256.704C93.0993 256.704 91.6953 255.642 91.6053 253.68H98.2293C98.2653 253.428 98.3013 253.176 98.3013 252.942C98.3013 250.602 96.9333 248.676 94.3593 248.676C91.7673 248.676 89.7873 250.548 89.7873 253.446ZM91.6593 252.42C91.9113 250.908 92.9733 250.026 94.3232 250.026C95.5113 250.026 96.4833 250.854 96.5373 252.42H91.6593ZM104.901 258H106.575L110.517 252.564C110.805 252.132 111.255 251.52 111.309 251.358H111.345C111.345 251.502 111.291 252.132 111.291 252.564V258H112.983V248.892H111.291L107.367 254.328C107.061 254.76 106.629 255.39 106.557 255.552H106.521C106.539 255.462 106.575 254.814 106.575 254.328V248.892H104.901V258ZM120.159 258H121.905V254.058H123.219L125.937 258H128.007L124.605 253.266V253.23L127.647 248.892H125.667L123.183 252.564H121.905V248.892H120.159V258ZM128.582 253.428C128.582 256.2 130.778 258.216 133.496 258.216C136.196 258.216 138.392 256.2 138.392 253.428C138.392 250.674 136.196 248.676 133.478 248.676C130.778 248.676 128.582 250.674 128.582 253.428ZM130.364 253.428C130.364 251.538 131.768 250.188 133.496 250.188C135.206 250.188 136.628 251.538 136.628 253.428C136.628 255.336 135.206 256.704 133.496 256.704C131.768 256.704 130.364 255.336 130.364 253.428ZM140.496 258H142.242V250.386H146.202V248.892H140.496V258ZM148.835 256.56C149.987 254.76 150.131 252.168 150.131 250.8V250.314H152.867V256.56H148.835ZM145.919 256.56V260.16H147.557V258H154.307V260.16H155.909V256.56H154.613V248.892H148.457V250.566C148.457 251.97 148.313 254.814 147.035 256.56H145.919ZM156.985 255.516C156.985 257.226 158.443 258.216 160.027 258.216C161.377 258.216 162.493 257.406 163.015 256.362H163.051C163.051 256.362 162.997 256.668 162.997 257.082V258H164.635V252.24C164.635 249.936 163.321 248.676 161.035 248.676C159.757 248.676 158.371 249.144 157.633 249.756L158.335 251.034C159.073 250.512 159.991 250.152 160.891 250.152C162.025 250.152 162.889 250.656 162.889 252.15V252.33H162.421C160.531 252.33 156.985 252.654 156.985 255.516ZM158.731 255.372C158.731 253.698 161.143 253.59 162.439 253.59H162.889V253.932C162.889 255.282 161.971 256.83 160.441 256.83C159.307 256.83 158.731 256.092 158.731 255.372ZM171.265 259.89L170.653 261.222C170.653 261.222 171.391 261.78 172.399 261.78C173.677 261.78 174.811 261.06 175.351 259.638L179.635 248.892H177.745L175.531 254.868C175.369 255.336 175.225 255.948 175.225 255.948H175.189C175.189 255.948 175.027 255.3 174.847 254.85L172.561 248.892H170.599L174.415 257.892L173.965 258.936C173.623 259.764 173.029 260.286 172.309 260.286C171.769 260.286 171.265 259.89 171.265 259.89ZM182.48 256.56C183.632 254.76 183.776 252.168 183.776 250.8V250.314H186.512V256.56H182.48ZM179.564 256.56V260.16H181.202V258H187.952V260.16H189.554V256.56H188.258V248.892H182.102V250.566C182.102 251.97 181.958 254.814 180.68 256.56H179.564ZM190.686 253.428C190.686 256.2 192.882 258.216 195.6 258.216C198.3 258.216 200.496 256.2 200.496 253.428C200.496 250.674 198.3 248.676 195.582 248.676C192.882 248.676 190.686 250.674 190.686 253.428ZM192.468 253.428C192.468 251.538 193.872 250.188 195.6 250.188C197.31 250.188 198.732 251.538 198.732 253.428C198.732 255.336 197.31 256.704 195.6 256.704C193.872 256.704 192.468 255.336 192.468 253.428ZM202.204 252.762C202.204 255.912 203.59 258.216 206.668 258.216C209.242 258.216 210.97 256.416 210.97 253.896C210.97 251.322 209.386 249.702 207.1 249.702C205.894 249.702 204.688 250.098 203.878 251.322H203.842C203.968 249.576 204.832 248.514 206.65 247.686L210.142 246.228L209.566 244.788L206.308 246.192C203.14 247.524 202.204 249.504 202.204 252.762ZM204.022 253.896C204.022 252.294 205.12 251.088 206.668 251.088C208.036 251.088 209.206 252.15 209.206 253.932C209.206 255.696 208.036 256.74 206.596 256.74C205.192 256.74 204.022 255.696 204.022 253.896ZM213.147 258H214.893V254.094H219.501V258H221.247V248.892H219.501V252.6H214.893V248.892H213.147V258ZM223.346 253.428C223.346 256.2 225.542 258.216 228.26 258.216C230.96 258.216 233.156 256.2 233.156 253.428C233.156 250.674 230.96 248.676 228.242 248.676C225.542 248.676 223.346 250.674 223.346 253.428ZM225.128 253.428C225.128 251.538 226.532 250.188 228.26 250.188C229.97 250.188 231.392 251.538 231.392 253.428C231.392 255.336 229.97 256.704 228.26 256.704C226.532 256.704 225.128 255.336 225.128 253.428Z" fill="#424754"/>
<path d="M602 4.40122C602 2.86065 602 2.09037 602.3 1.50195C602.563 0.984356 602.984 0.563541 603.501 0.299816C604.089 0 604.859 0 606.398 0H1106.6C1108.14 0 1108.91 0 1109.5 0.299816C1110.02 0.563541 1110.44 0.984356 1110.7 1.50195C1111 2.09037 1111 2.86066 1111 4.40123V293.599C1111 295.139 1111 295.91 1110.7 296.498C1110.44 297.016 1110.02 297.436 1109.5 297.7C1108.91 298 1108.14 298 1106.6 298H606.398C604.859 298 604.089 298 603.501 297.7C602.984 297.436 602.563 297.016 602.3 296.498C602 295.91 602 295.139 602 293.599V4.40122Z" fill="#F3F3F3"/>
<path d="M749 58.2049C749 57.0831 749 56.5222 749.194 56.0937C749.365 55.7168 749.638 55.4104 749.973 55.2183C750.354 55 750.853 55 751.851 55H1076.15C1077.15 55 1077.65 55 1078.03 55.2183C1078.36 55.4104 1078.63 55.7168 1078.81 56.0937C1079 56.5222 1079 57.0831 1079 58.2049V268.795C1079 269.917 1079 270.478 1078.81 270.906C1078.63 271.283 1078.36 271.59 1078.03 271.782C1077.65 272 1077.15 272 1076.15 272H751.851C750.853 272 750.354 272 749.973 271.782C749.638 271.59 749.365 271.283 749.194 270.906C749 270.478 749 269.917 749 268.795V58.2049Z" fill="white"/>
<path d="M749 21.8444C749 20.8488 749 20.351 749.101 19.9707C749.19 19.6362 749.332 19.3642 749.507 19.1938C749.705 19 749.965 19 750.485 19H776.515C777.035 19 777.295 19 777.493 19.1938C777.668 19.3642 777.81 19.6362 777.899 19.9707C778 20.351 778 20.8488 778 21.8444V24.1556C778 25.1512 778 25.649 777.899 26.0293C777.81 26.3638 777.668 26.6358 777.493 26.8062C777.295 27 777.035 27 776.515 27H750.485C749.965 27 749.705 27 749.507 26.8062C749.332 26.6358 749.19 26.3638 749.101 26.0293C749 25.649 749 25.1512 749 24.1556V21.8444Z" fill="#424754"/>
<path d="M770 86.5818C770 86.3782 770 86.2763 770.01 86.1985C770.02 86.1301 770.034 86.0745 770.052 86.0396C770.073 86 770.1 86 770.154 86H775.846C775.9 86 775.927 86 775.948 86.0396C775.966 86.0745 775.98 86.1301 775.99 86.1985C776 86.2763 776 86.3782 776 86.5818V87.4182C776 87.6218 776 87.7237 775.99 87.8015C775.98 87.8699 775.966 87.9255 775.948 87.9604C775.927 88 775.9 88 775.846 88H770.154C770.1 88 770.073 88 770.052 87.9604C770.034 87.9255 770.02 87.8699 770.01 87.8015C770 87.7237 770 87.6218 770 87.4182V86.5818Z" fill="#97999D"/>
<path d="M800 86.5818C800 86.3782 800 86.2763 800.01 86.1985C800.02 86.1301 800.034 86.0745 800.052 86.0396C800.073 86 800.1 86 800.154 86H805.846C805.9 86 805.927 86 805.948 86.0396C805.966 86.0745 805.98 86.1301 805.99 86.1985C806 86.2763 806 86.3782 806 86.5818V87.4182C806 87.6218 806 87.7237 805.99 87.8015C805.98 87.8699 805.966 87.9255 805.948 87.9604C805.927 88 805.9 88 805.846 88H800.154C800.1 88 800.073 88 800.052 87.9604C800.034 87.9255 800.02 87.8699 800.01 87.8015C800 87.7237 800 87.6218 800 87.4182V86.5818Z" fill="#97999D"/>
<path d="M830 86.5818C830 86.3782 830 86.2763 830.01 86.1985C830.02 86.1301 830.034 86.0745 830.052 86.0396C830.073 86 830.1 86 830.154 86H835.846C835.9 86 835.927 86 835.948 86.0396C835.966 86.0745 835.98 86.1301 835.99 86.1985C836 86.2763 836 86.3782 836 86.5818V87.4182C836 87.6218 836 87.7237 835.99 87.8015C835.98 87.8699 835.966 87.9255 835.948 87.9604C835.927 88 835.9 88 835.846 88H830.154C830.1 88 830.073 88 830.052 87.9604C830.034 87.9255 830.02 87.8699 830.01 87.8015C830 87.7237 830 87.6218 830 87.4182V86.5818Z" fill="#97999D"/>
<path d="M860 86.5818C860 86.3782 860 86.2763 860.01 86.1985C860.02 86.1301 860.034 86.0745 860.052 86.0396C860.073 86 860.1 86 860.154 86H865.846C865.9 86 865.927 86 865.948 86.0396C865.966 86.0745 865.98 86.1301 865.99 86.1985C866 86.2763 866 86.3782 866 86.5818V87.4182C866 87.6218 866 87.7237 865.99 87.8015C865.98 87.8699 865.966 87.9255 865.948 87.9604C865.927 88 865.9 88 865.846 88H860.154C860.1 88 860.073 88 860.052 87.9604C860.034 87.9255 860.02 87.8699 860.01 87.8015C860 87.7237 860 87.6218 860 87.4182V86.5818Z" fill="#97999D"/>
<path d="M890 86.5818C890 86.3782 890 86.2763 890.01 86.1985C890.02 86.1301 890.034 86.0745 890.052 86.0396C890.073 86 890.1 86 890.154 86H895.846C895.9 86 895.927 86 895.948 86.0396C895.966 86.0745 895.98 86.1301 895.99 86.1985C896 86.2763 896 86.3782 896 86.5818V87.4182C896 87.6218 896 87.7237 895.99 87.8015C895.98 87.8699 895.966 87.9255 895.948 87.9604C895.927 88 895.9 88 895.846 88H890.154C890.1 88 890.073 88 890.052 87.9604C890.034 87.9255 890.02 87.8699 890.01 87.8015C890 87.7237 890 87.6218 890 87.4182V86.5818Z" fill="#424754"/>
<path d="M920 86.5818C920 86.3782 920 86.2763 920.01 86.1985C920.02 86.1301 920.034 86.0745 920.052 86.0396C920.073 86 920.1 86 920.154 86H925.846C925.9 86 925.927 86 925.948 86.0396C925.966 86.0745 925.98 86.1301 925.99 86.1985C926 86.2763 926 86.3782 926 86.5818V87.4182C926 87.6218 926 87.7237 925.99 87.8015C925.98 87.8699 925.966 87.9255 925.948 87.9604C925.927 88 925.9 88 925.846 88H920.154C920.1 88 920.073 88 920.052 87.9604C920.034 87.9255 920.02 87.8699 920.01 87.8015C920 87.7237 920 87.6218 920 87.4182V86.5818Z" fill="#424754"/>
<path d="M950 86.5818C950 86.3782 950 86.2763 950.01 86.1985C950.02 86.1301 950.034 86.0745 950.052 86.0396C950.073 86 950.1 86 950.154 86H955.846C955.9 86 955.927 86 955.948 86.0396C955.966 86.0745 955.98 86.1301 955.99 86.1985C956 86.2763 956 86.3782 956 86.5818V87.4182C956 87.6218 956 87.7237 955.99 87.8015C955.98 87.8699 955.966 87.9255 955.948 87.9604C955.927 88 955.9 88 955.846 88H950.154C950.1 88 950.073 88 950.052 87.9604C950.034 87.9255 950.02 87.8699 950.01 87.8015C950 87.7237 950 87.6218 950 87.4182V86.5818Z" fill="#424754"/>
<path d="M980 86.5818C980 86.3782 980 86.2763 980.01 86.1985C980.02 86.1301 980.034 86.0745 980.052 86.0396C980.073 86 980.1 86 980.154 86H985.846C985.9 86 985.927 86 985.948 86.0396C985.966 86.0745 985.98 86.1301 985.99 86.1985C986 86.2763 986 86.3782 986 86.5818V87.4182C986 87.6218 986 87.7237 985.99 87.8015C985.98 87.8699 985.966 87.9255 985.948 87.9604C985.927 88 985.9 88 985.846 88H980.154C980.1 88 980.073 88 980.052 87.9604C980.034 87.9255 980.02 87.8699 980.01 87.8015C980 87.7237 980 87.6218 980 87.4182V86.5818Z" fill="#424754"/>
<path d="M1010 86.5818C1010 86.3782 1010 86.2763 1010.01 86.1985C1010.02 86.1301 1010.03 86.0745 1010.05 86.0396C1010.07 86 1010.1 86 1010.15 86H1015.85C1015.9 86 1015.93 86 1015.95 86.0396C1015.97 86.0745 1015.98 86.1301 1015.99 86.1985C1016 86.2763 1016 86.3782 1016 86.5818V87.4182C1016 87.6218 1016 87.7237 1015.99 87.8015C1015.98 87.8699 1015.97 87.9255 1015.95 87.9604C1015.93 88 1015.9 88 1015.85 88H1010.15C1010.1 88 1010.07 88 1010.05 87.9604C1010.03 87.9255 1010.02 87.8699 1010.01 87.8015C1010 87.7237 1010 87.6218 1010 87.4182V86.5818Z" fill="#424754"/>
<path d="M1040 86.5818C1040 86.3782 1040 86.2763 1040.01 86.1985C1040.02 86.1301 1040.03 86.0745 1040.05 86.0396C1040.07 86 1040.1 86 1040.15 86H1045.85C1045.9 86 1045.93 86 1045.95 86.0396C1045.97 86.0745 1045.98 86.1301 1045.99 86.1985C1046 86.2763 1046 86.3782 1046 86.5818V87.4182C1046 87.6218 1046 87.7237 1045.99 87.8015C1045.98 87.8699 1045.97 87.9255 1045.95 87.9604C1045.93 88 1045.9 88 1045.85 88H1040.15C1040.1 88 1040.07 88 1040.05 87.9604C1040.03 87.9255 1040.02 87.8699 1040.01 87.8015C1040 87.7237 1040 87.6218 1040 87.4182V86.5818Z" fill="#424754"/>
<path d="M1070 86.5818C1070 86.3782 1070 86.2763 1070.01 86.1985C1070.02 86.1301 1070.03 86.0745 1070.05 86.0396C1070.07 86 1070.1 86 1070.15 86H1075.85C1075.9 86 1075.93 86 1075.95 86.0396C1075.97 86.0745 1075.98 86.1301 1075.99 86.1985C1076 86.2763 1076 86.3782 1076 86.5818V87.4182C1076 87.6218 1076 87.7237 1075.99 87.8015C1075.98 87.8699 1075.97 87.9255 1075.95 87.9604C1075.93 88 1075.9 88 1075.85 88H1070.15C1070.1 88 1070.07 88 1070.05 87.9604C1070.03 87.9255 1070.02 87.8699 1070.01 87.8015C1070 87.7237 1070 87.6218 1070 87.4182V86.5818Z" fill="#424754"/>
<path d="M770 116.582C770 116.378 770 116.276 770.01 116.199C770.02 116.13 770.034 116.074 770.052 116.04C770.073 116 770.1 116 770.154 116H775.846C775.9 116 775.927 116 775.948 116.04C775.966 116.074 775.98 116.13 775.99 116.199C776 116.276 776 116.378 776 116.582V117.418C776 117.622 776 117.724 775.99 117.801C775.98 117.87 775.966 117.926 775.948 117.96C775.927 118 775.9 118 775.846 118H770.154C770.1 118 770.073 118 770.052 117.96C770.034 117.926 770.02 117.87 770.01 117.801C770 117.724 770 117.622 770 117.418V116.582Z" fill="#424754"/>
<path d="M800 116.582C800 116.378 800 116.276 800.01 116.199C800.02 116.13 800.034 116.074 800.052 116.04C800.073 116 800.1 116 800.154 116H805.846C805.9 116 805.927 116 805.948 116.04C805.966 116.074 805.98 116.13 805.99 116.199C806 116.276 806 116.378 806 116.582V117.418C806 117.622 806 117.724 805.99 117.801C805.98 117.87 805.966 117.926 805.948 117.96C805.927 118 805.9 118 805.846 118H800.154C800.1 118 800.073 118 800.052 117.96C800.034 117.926 800.02 117.87 800.01 117.801C800 117.724 800 117.622 800 117.418V116.582Z" fill="#424754"/>
<path d="M830 116.582C830 116.378 830 116.276 830.01 116.199C830.02 116.13 830.034 116.074 830.052 116.04C830.073 116 830.1 116 830.154 116H835.846C835.9 116 835.927 116 835.948 116.04C835.966 116.074 835.98 116.13 835.99 116.199C836 116.276 836 116.378 836 116.582V117.418C836 117.622 836 117.724 835.99 117.801C835.98 117.87 835.966 117.926 835.948 117.96C835.927 118 835.9 118 835.846 118H830.154C830.1 118 830.073 118 830.052 117.96C830.034 117.926 830.02 117.87 830.01 117.801C830 117.724 830 117.622 830 117.418V116.582Z" fill="#424754"/>
<path d="M860 116.582C860 116.378 860 116.276 860.01 116.199C860.02 116.13 860.034 116.074 860.052 116.04C860.073 116 860.1 116 860.154 116H865.846C865.9 116 865.927 116 865.948 116.04C865.966 116.074 865.98 116.13 865.99 116.199C866 116.276 866 116.378 866 116.582V117.418C866 117.622 866 117.724 865.99 117.801C865.98 117.87 865.966 117.926 865.948 117.96C865.927 118 865.9 118 865.846 118H860.154C860.1 118 860.073 118 860.052 117.96C860.034 117.926 860.02 117.87 860.01 117.801C860 117.724 860 117.622 860 117.418V116.582Z" fill="#424754"/>
<path d="M890 116.582C890 116.378 890 116.276 890.01 116.199C890.02 116.13 890.034 116.074 890.052 116.04C890.073 116 890.1 116 890.154 116H895.846C895.9 116 895.927 116 895.948 116.04C895.966 116.074 895.98 116.13 895.99 116.199C896 116.276 896 116.378 896 116.582V117.418C896 117.622 896 117.724 895.99 117.801C895.98 117.87 895.966 117.926 895.948 117.96C895.927 118 895.9 118 895.846 118H890.154C890.1 118 890.073 118 890.052 117.96C890.034 117.926 890.02 117.87 890.01 117.801C890 117.724 890 117.622 890 117.418V116.582Z" fill="#F04B5D"/>
<path d="M871 122.582C871 122.378 871 122.276 871.044 122.199C871.082 122.13 871.143 122.074 871.218 122.04C871.304 122 871.416 122 871.64 122H895.36C895.584 122 895.696 122 895.782 122.04C895.857 122.074 895.918 122.13 895.956 122.199C896 122.276 896 122.378 896 122.582V123.418C896 123.622 896 123.724 895.956 123.801C895.918 123.87 895.857 123.926 895.782 123.96C895.696 124 895.584 124 895.36 124H871.64C871.416 124 871.304 124 871.218 123.96C871.143 123.926 871.082 123.87 871.044 123.801C871 123.724 871 123.622 871 123.418V122.582Z" fill="#424754"/>
<path d="M871 126.582C871 126.378 871 126.276 871.044 126.199C871.082 126.13 871.143 126.074 871.218 126.04C871.304 126 871.416 126 871.64 126H895.36C895.584 126 895.696 126 895.782 126.04C895.857 126.074 895.918 126.13 895.956 126.199C896 126.276 896 126.378 896 126.582V127.418C896 127.622 896 127.724 895.956 127.801C895.918 127.87 895.857 127.926 895.782 127.96C895.696 128 895.584 128 895.36 128H871.64C871.416 128 871.304 128 871.218 127.96C871.143 127.926 871.082 127.87 871.044 127.801C871 127.724 871 127.622 871 127.418V126.582Z" fill="#424754"/>
<path d="M920 116.582C920 116.378 920 116.276 920.01 116.199C920.02 116.13 920.034 116.074 920.052 116.04C920.073 116 920.1 116 920.154 116H925.846C925.9 116 925.927 116 925.948 116.04C925.966 116.074 925.98 116.13 925.99 116.199C926 116.276 926 116.378 926 116.582V117.418C926 117.622 926 117.724 925.99 117.801C925.98 117.87 925.966 117.926 925.948 117.96C925.927 118 925.9 118 925.846 118H920.154C920.1 118 920.073 118 920.052 117.96C920.034 117.926 920.02 117.87 920.01 117.801C920 117.724 920 117.622 920 117.418V116.582Z" fill="#424754"/>
<path d="M950 116.582C950 116.378 950 116.276 950.01 116.199C950.02 116.13 950.034 116.074 950.052 116.04C950.073 116 950.1 116 950.154 116H955.846C955.9 116 955.927 116 955.948 116.04C955.966 116.074 955.98 116.13 955.99 116.199C956 116.276 956 116.378 956 116.582V117.418C956 117.622 956 117.724 955.99 117.801C955.98 117.87 955.966 117.926 955.948 117.96C955.927 118 955.9 118 955.846 118H950.154C950.1 118 950.073 118 950.052 117.96C950.034 117.926 950.02 117.87 950.01 117.801C950 117.724 950 117.622 950 117.418V116.582Z" fill="#424754"/>
<path d="M980 116.582C980 116.378 980 116.276 980.01 116.199C980.02 116.13 980.034 116.074 980.052 116.04C980.073 116 980.1 116 980.154 116H985.846C985.9 116 985.927 116 985.948 116.04C985.966 116.074 985.98 116.13 985.99 116.199C986 116.276 986 116.378 986 116.582V117.418C986 117.622 986 117.724 985.99 117.801C985.98 117.87 985.966 117.926 985.948 117.96C985.927 118 985.9 118 985.846 118H980.154C980.1 118 980.073 118 980.052 117.96C980.034 117.926 980.02 117.87 980.01 117.801C980 117.724 980 117.622 980 117.418V116.582Z" fill="#424754"/>
<path d="M1010 116.582C1010 116.378 1010 116.276 1010.01 116.199C1010.02 116.13 1010.03 116.074 1010.05 116.04C1010.07 116 1010.1 116 1010.15 116H1015.85C1015.9 116 1015.93 116 1015.95 116.04C1015.97 116.074 1015.98 116.13 1015.99 116.199C1016 116.276 1016 116.378 1016 116.582V117.418C1016 117.622 1016 117.724 1015.99 117.801C1015.98 117.87 1015.97 117.926 1015.95 117.96C1015.93 118 1015.9 118 1015.85 118H1010.15C1010.1 118 1010.07 118 1010.05 117.96C1010.03 117.926 1010.02 117.87 1010.01 117.801C1010 117.724 1010 117.622 1010 117.418V116.582Z" fill="#424754"/>
<path d="M1040 116.582C1040 116.378 1040 116.276 1040.01 116.199C1040.02 116.13 1040.03 116.074 1040.05 116.04C1040.07 116 1040.1 116 1040.15 116H1045.85C1045.9 116 1045.93 116 1045.95 116.04C1045.97 116.074 1045.98 116.13 1045.99 116.199C1046 116.276 1046 116.378 1046 116.582V117.418C1046 117.622 1046 117.724 1045.99 117.801C1045.98 117.87 1045.97 117.926 1045.95 117.96C1045.93 118 1045.9 118 1045.85 118H1040.15C1040.1 118 1040.07 118 1040.05 117.96C1040.03 117.926 1040.02 117.87 1040.01 117.801C1040 117.724 1040 117.622 1040 117.418V116.582Z" fill="#424754"/>
<path d="M1070 116.582C1070 116.378 1070 116.276 1070.01 116.199C1070.02 116.13 1070.03 116.074 1070.05 116.04C1070.07 116 1070.1 116 1070.15 116H1075.85C1075.9 116 1075.93 116 1075.95 116.04C1075.97 116.074 1075.98 116.13 1075.99 116.199C1076 116.276 1076 116.378 1076 116.582V117.418C1076 117.622 1076 117.724 1075.99 117.801C1075.98 117.87 1075.97 117.926 1075.95 117.96C1075.93 118 1075.9 118 1075.85 118H1070.15C1070.1 118 1070.07 118 1070.05 117.96C1070.03 117.926 1070.02 117.87 1070.01 117.801C1070 117.724 1070 117.622 1070 117.418V116.582Z" fill="#424754"/>
<path d="M770 146.582C770 146.378 770 146.276 770.01 146.199C770.02 146.13 770.034 146.074 770.052 146.04C770.073 146 770.1 146 770.154 146H775.846C775.9 146 775.927 146 775.948 146.04C775.966 146.074 775.98 146.13 775.99 146.199C776 146.276 776 146.378 776 146.582V147.418C776 147.622 776 147.724 775.99 147.801C775.98 147.87 775.966 147.926 775.948 147.96C775.927 148 775.9 148 775.846 148H770.154C770.1 148 770.073 148 770.052 147.96C770.034 147.926 770.02 147.87 770.01 147.801C770 147.724 770 147.622 770 147.418V146.582Z" fill="#424754"/>
<path d="M800 146.582C800 146.378 800 146.276 800.01 146.199C800.02 146.13 800.034 146.074 800.052 146.04C800.073 146 800.1 146 800.154 146H805.846C805.9 146 805.927 146 805.948 146.04C805.966 146.074 805.98 146.13 805.99 146.199C806 146.276 806 146.378 806 146.582V147.418C806 147.622 806 147.724 805.99 147.801C805.98 147.87 805.966 147.926 805.948 147.96C805.927 148 805.9 148 805.846 148H800.154C800.1 148 800.073 148 800.052 147.96C800.034 147.926 800.02 147.87 800.01 147.801C800 147.724 800 147.622 800 147.418V146.582Z" fill="#424754"/>
<path d="M830 146.582C830 146.378 830 146.276 830.01 146.199C830.02 146.13 830.034 146.074 830.052 146.04C830.073 146 830.1 146 830.154 146H835.846C835.9 146 835.927 146 835.948 146.04C835.966 146.074 835.98 146.13 835.99 146.199C836 146.276 836 146.378 836 146.582V147.418C836 147.622 836 147.724 835.99 147.801C835.98 147.87 835.966 147.926 835.948 147.96C835.927 148 835.9 148 835.846 148H830.154C830.1 148 830.073 148 830.052 147.96C830.034 147.926 830.02 147.87 830.01 147.801C830 147.724 830 147.622 830 147.418V146.582Z" fill="#424754"/>
<path d="M860 146.582C860 146.378 860 146.276 860.01 146.199C860.02 146.13 860.034 146.074 860.052 146.04C860.073 146 860.1 146 860.154 146H865.846C865.9 146 865.927 146 865.948 146.04C865.966 146.074 865.98 146.13 865.99 146.199C866 146.276 866 146.378 866 146.582V147.418C866 147.622 866 147.724 865.99 147.801C865.98 147.87 865.966 147.926 865.948 147.96C865.927 148 865.9 148 865.846 148H860.154C860.1 148 860.073 148 860.052 147.96C860.034 147.926 860.02 147.87 860.01 147.801C860 147.724 860 147.622 860 147.418V146.582Z" fill="#424754"/>
<path d="M890 146.582C890 146.378 890 146.276 890.01 146.199C890.02 146.13 890.034 146.074 890.052 146.04C890.073 146 890.1 146 890.154 146H895.846C895.9 146 895.927 146 895.948 146.04C895.966 146.074 895.98 146.13 895.99 146.199C896 146.276 896 146.378 896 146.582V147.418C896 147.622 896 147.724 895.99 147.801C895.98 147.87 895.966 147.926 895.948 147.96C895.927 148 895.9 148 895.846 148H890.154C890.1 148 890.073 148 890.052 147.96C890.034 147.926 890.02 147.87 890.01 147.801C890 147.724 890 147.622 890 147.418V146.582Z" fill="#424754"/>
<path d="M920 146.582C920 146.378 920 146.276 920.01 146.199C920.02 146.13 920.034 146.074 920.052 146.04C920.073 146 920.1 146 920.154 146H925.846C925.9 146 925.927 146 925.948 146.04C925.966 146.074 925.98 146.13 925.99 146.199C926 146.276 926 146.378 926 146.582V147.418C926 147.622 926 147.724 925.99 147.801C925.98 147.87 925.966 147.926 925.948 147.96C925.927 148 925.9 148 925.846 148H920.154C920.1 148 920.073 148 920.052 147.96C920.034 147.926 920.02 147.87 920.01 147.801C920 147.724 920 147.622 920 147.418V146.582Z" fill="#424754"/>
<path d="M950 146.582C950 146.378 950 146.276 950.01 146.199C950.02 146.13 950.034 146.074 950.052 146.04C950.073 146 950.1 146 950.154 146H955.846C955.9 146 955.927 146 955.948 146.04C955.966 146.074 955.98 146.13 955.99 146.199C956 146.276 956 146.378 956 146.582V147.418C956 147.622 956 147.724 955.99 147.801C955.98 147.87 955.966 147.926 955.948 147.96C955.927 148 955.9 148 955.846 148H950.154C950.1 148 950.073 148 950.052 147.96C950.034 147.926 950.02 147.87 950.01 147.801C950 147.724 950 147.622 950 147.418V146.582Z" fill="#424754"/>
<path d="M980 146.582C980 146.378 980 146.276 980.01 146.199C980.02 146.13 980.034 146.074 980.052 146.04C980.073 146 980.1 146 980.154 146H985.846C985.9 146 985.927 146 985.948 146.04C985.966 146.074 985.98 146.13 985.99 146.199C986 146.276 986 146.378 986 146.582V147.418C986 147.622 986 147.724 985.99 147.801C985.98 147.87 985.966 147.926 985.948 147.96C985.927 148 985.9 148 985.846 148H980.154C980.1 148 980.073 148 980.052 147.96C980.034 147.926 980.02 147.87 980.01 147.801C980 147.724 980 147.622 980 147.418V146.582Z" fill="#424754"/>
<path d="M1010 146.582C1010 146.378 1010 146.276 1010.01 146.199C1010.02 146.13 1010.03 146.074 1010.05 146.04C1010.07 146 1010.1 146 1010.15 146H1015.85C1015.9 146 1015.93 146 1015.95 146.04C1015.97 146.074 1015.98 146.13 1015.99 146.199C1016 146.276 1016 146.378 1016 146.582V147.418C1016 147.622 1016 147.724 1015.99 147.801C1015.98 147.87 1015.97 147.926 1015.95 147.96C1015.93 148 1015.9 148 1015.85 148H1010.15C1010.1 148 1010.07 148 1010.05 147.96C1010.03 147.926 1010.02 147.87 1010.01 147.801C1010 147.724 1010 147.622 1010 147.418V146.582Z" fill="#424754"/>
<path d="M1040 146.582C1040 146.378 1040 146.276 1040.01 146.199C1040.02 146.13 1040.03 146.074 1040.05 146.04C1040.07 146 1040.1 146 1040.15 146H1045.85C1045.9 146 1045.93 146 1045.95 146.04C1045.97 146.074 1045.98 146.13 1045.99 146.199C1046 146.276 1046 146.378 1046 146.582V147.418C1046 147.622 1046 147.724 1045.99 147.801C1045.98 147.87 1045.97 147.926 1045.95 147.96C1045.93 148 1045.9 148 1045.85 148H1040.15C1040.1 148 1040.07 148 1040.05 147.96C1040.03 147.926 1040.02 147.87 1040.01 147.801C1040 147.724 1040 147.622 1040 147.418V146.582Z" fill="#424754"/>
<path d="M1070 146.582C1070 146.378 1070 146.276 1070.01 146.199C1070.02 146.13 1070.03 146.074 1070.05 146.04C1070.07 146 1070.1 146 1070.15 146H1075.85C1075.9 146 1075.93 146 1075.95 146.04C1075.97 146.074 1075.98 146.13 1075.99 146.199C1076 146.276 1076 146.378 1076 146.582V147.418C1076 147.622 1076 147.724 1075.99 147.801C1075.98 147.87 1075.97 147.926 1075.95 147.96C1075.93 148 1075.9 148 1075.85 148H1070.15C1070.1 148 1070.07 148 1070.05 147.96C1070.03 147.926 1070.02 147.87 1070.01 147.801C1070 147.724 1070 147.622 1070 147.418V146.582Z" fill="#424754"/>
<path d="M770 176.582C770 176.378 770 176.276 770.01 176.199C770.02 176.13 770.034 176.074 770.052 176.04C770.073 176 770.1 176 770.154 176H775.846C775.9 176 775.927 176 775.948 176.04C775.966 176.074 775.98 176.13 775.99 176.199C776 176.276 776 176.378 776 176.582V177.418C776 177.622 776 177.724 775.99 177.801C775.98 177.87 775.966 177.926 775.948 177.96C775.927 178 775.9 178 775.846 178H770.154C770.1 178 770.073 178 770.052 177.96C770.034 177.926 770.02 177.87 770.01 177.801C770 177.724 770 177.622 770 177.418V176.582Z" fill="#424754"/>
<path d="M800 176.582C800 176.378 800 176.276 800.01 176.199C800.02 176.13 800.034 176.074 800.052 176.04C800.073 176 800.1 176 800.154 176H805.846C805.9 176 805.927 176 805.948 176.04C805.966 176.074 805.98 176.13 805.99 176.199C806 176.276 806 176.378 806 176.582V177.418C806 177.622 806 177.724 805.99 177.801C805.98 177.87 805.966 177.926 805.948 177.96C805.927 178 805.9 178 805.846 178H800.154C800.1 178 800.073 178 800.052 177.96C800.034 177.926 800.02 177.87 800.01 177.801C800 177.724 800 177.622 800 177.418V176.582Z" fill="#424754"/>
<path d="M830 176.582C830 176.378 830 176.276 830.01 176.199C830.02 176.13 830.034 176.074 830.052 176.04C830.073 176 830.1 176 830.154 176H835.846C835.9 176 835.927 176 835.948 176.04C835.966 176.074 835.98 176.13 835.99 176.199C836 176.276 836 176.378 836 176.582V177.418C836 177.622 836 177.724 835.99 177.801C835.98 177.87 835.966 177.926 835.948 177.96C835.927 178 835.9 178 835.846 178H830.154C830.1 178 830.073 178 830.052 177.96C830.034 177.926 830.02 177.87 830.01 177.801C830 177.724 830 177.622 830 177.418V176.582Z" fill="#424754"/>
<path d="M860 176.582C860 176.378 860 176.276 860.01 176.199C860.02 176.13 860.034 176.074 860.052 176.04C860.073 176 860.1 176 860.154 176H865.846C865.9 176 865.927 176 865.948 176.04C865.966 176.074 865.98 176.13 865.99 176.199C866 176.276 866 176.378 866 176.582V177.418C866 177.622 866 177.724 865.99 177.801C865.98 177.87 865.966 177.926 865.948 177.96C865.927 178 865.9 178 865.846 178H860.154C860.1 178 860.073 178 860.052 177.96C860.034 177.926 860.02 177.87 860.01 177.801C860 177.724 860 177.622 860 177.418V176.582Z" fill="#424754"/>
<path d="M890 176.582C890 176.378 890 176.276 890.01 176.199C890.02 176.13 890.034 176.074 890.052 176.04C890.073 176 890.1 176 890.154 176H895.846C895.9 176 895.927 176 895.948 176.04C895.966 176.074 895.98 176.13 895.99 176.199C896 176.276 896 176.378 896 176.582V177.418C896 177.622 896 177.724 895.99 177.801C895.98 177.87 895.966 177.926 895.948 177.96C895.927 178 895.9 178 895.846 178H890.154C890.1 178 890.073 178 890.052 177.96C890.034 177.926 890.02 177.87 890.01 177.801C890 177.724 890 177.622 890 177.418V176.582Z" fill="#424754"/>
<path d="M920 176.582C920 176.378 920 176.276 920.01 176.199C920.02 176.13 920.034 176.074 920.052 176.04C920.073 176 920.1 176 920.154 176H925.846C925.9 176 925.927 176 925.948 176.04C925.966 176.074 925.98 176.13 925.99 176.199C926 176.276 926 176.378 926 176.582V177.418C926 177.622 926 177.724 925.99 177.801C925.98 177.87 925.966 177.926 925.948 177.96C925.927 178 925.9 178 925.846 178H920.154C920.1 178 920.073 178 920.052 177.96C920.034 177.926 920.02 177.87 920.01 177.801C920 177.724 920 177.622 920 177.418V176.582Z" fill="#424754"/>
<path d="M950 176.582C950 176.378 950 176.276 950.01 176.199C950.02 176.13 950.034 176.074 950.052 176.04C950.073 176 950.1 176 950.154 176H955.846C955.9 176 955.927 176 955.948 176.04C955.966 176.074 955.98 176.13 955.99 176.199C956 176.276 956 176.378 956 176.582V177.418C956 177.622 956 177.724 955.99 177.801C955.98 177.87 955.966 177.926 955.948 177.96C955.927 178 955.9 178 955.846 178H950.154C950.1 178 950.073 178 950.052 177.96C950.034 177.926 950.02 177.87 950.01 177.801C950 177.724 950 177.622 950 177.418V176.582Z" fill="#424754"/>
<path d="M980 176.582C980 176.378 980 176.276 980.01 176.199C980.02 176.13 980.034 176.074 980.052 176.04C980.073 176 980.1 176 980.154 176H985.846C985.9 176 985.927 176 985.948 176.04C985.966 176.074 985.98 176.13 985.99 176.199C986 176.276 986 176.378 986 176.582V177.418C986 177.622 986 177.724 985.99 177.801C985.98 177.87 985.966 177.926 985.948 177.96C985.927 178 985.9 178 985.846 178H980.154C980.1 178 980.073 178 980.052 177.96C980.034 177.926 980.02 177.87 980.01 177.801C980 177.724 980 177.622 980 177.418V176.582Z" fill="#424754"/>
<path d="M1010 176.582C1010 176.378 1010 176.276 1010.01 176.199C1010.02 176.13 1010.03 176.074 1010.05 176.04C1010.07 176 1010.1 176 1010.15 176H1015.85C1015.9 176 1015.93 176 1015.95 176.04C1015.97 176.074 1015.98 176.13 1015.99 176.199C1016 176.276 1016 176.378 1016 176.582V177.418C1016 177.622 1016 177.724 1015.99 177.801C1015.98 177.87 1015.97 177.926 1015.95 177.96C1015.93 178 1015.9 178 1015.85 178H1010.15C1010.1 178 1010.07 178 1010.05 177.96C1010.03 177.926 1010.02 177.87 1010.01 177.801C1010 177.724 1010 177.622 1010 177.418V176.582Z" fill="#424754"/>
<path d="M1040 176.582C1040 176.378 1040 176.276 1040.01 176.199C1040.02 176.13 1040.03 176.074 1040.05 176.04C1040.07 176 1040.1 176 1040.15 176H1045.85C1045.9 176 1045.93 176 1045.95 176.04C1045.97 176.074 1045.98 176.13 1045.99 176.199C1046 176.276 1046 176.378 1046 176.582V177.418C1046 177.622 1046 177.724 1045.99 177.801C1045.98 177.87 1045.97 177.926 1045.95 177.96C1045.93 178 1045.9 178 1045.85 178H1040.15C1040.1 178 1040.07 178 1040.05 177.96C1040.03 177.926 1040.02 177.87 1040.01 177.801C1040 177.724 1040 177.622 1040 177.418V176.582Z" fill="#424754"/>
<path d="M1070 176.582C1070 176.378 1070 176.276 1070.01 176.199C1070.02 176.13 1070.03 176.074 1070.05 176.04C1070.07 176 1070.1 176 1070.15 176H1075.85C1075.9 176 1075.93 176 1075.95 176.04C1075.97 176.074 1075.98 176.13 1075.99 176.199C1076 176.276 1076 176.378 1076 176.582V177.418C1076 177.622 1076 177.724 1075.99 177.801C1075.98 177.87 1075.97 177.926 1075.95 177.96C1075.93 178 1075.9 178 1075.85 178H1070.15C1070.1 178 1070.07 178 1070.05 177.96C1070.03 177.926 1070.02 177.87 1070.01 177.801C1070 177.724 1070 177.622 1070 177.418V176.582Z" fill="#424754"/>
<path d="M770 206.582C770 206.378 770 206.276 770.01 206.199C770.02 206.13 770.034 206.074 770.052 206.04C770.073 206 770.1 206 770.154 206H775.846C775.9 206 775.927 206 775.948 206.04C775.966 206.074 775.98 206.13 775.99 206.199C776 206.276 776 206.378 776 206.582V207.418C776 207.622 776 207.724 775.99 207.801C775.98 207.87 775.966 207.926 775.948 207.96C775.927 208 775.9 208 775.846 208H770.154C770.1 208 770.073 208 770.052 207.96C770.034 207.926 770.02 207.87 770.01 207.801C770 207.724 770 207.622 770 207.418V206.582Z" fill="#424754"/>
<path d="M800 206.582C800 206.378 800 206.276 800.01 206.199C800.02 206.13 800.034 206.074 800.052 206.04C800.073 206 800.1 206 800.154 206H805.846C805.9 206 805.927 206 805.948 206.04C805.966 206.074 805.98 206.13 805.99 206.199C806 206.276 806 206.378 806 206.582V207.418C806 207.622 806 207.724 805.99 207.801C805.98 207.87 805.966 207.926 805.948 207.96C805.927 208 805.9 208 805.846 208H800.154C800.1 208 800.073 208 800.052 207.96C800.034 207.926 800.02 207.87 800.01 207.801C800 207.724 800 207.622 800 207.418V206.582Z" fill="#424754"/>
<path d="M830 206.582C830 206.378 830 206.276 830.01 206.199C830.02 206.13 830.034 206.074 830.052 206.04C830.073 206 830.1 206 830.154 206H835.846C835.9 206 835.927 206 835.948 206.04C835.966 206.074 835.98 206.13 835.99 206.199C836 206.276 836 206.378 836 206.582V207.418C836 207.622 836 207.724 835.99 207.801C835.98 207.87 835.966 207.926 835.948 207.96C835.927 208 835.9 208 835.846 208H830.154C830.1 208 830.073 208 830.052 207.96C830.034 207.926 830.02 207.87 830.01 207.801C830 207.724 830 207.622 830 207.418V206.582Z" fill="#424754"/>
<path d="M860 206.582C860 206.378 860 206.276 860.01 206.199C860.02 206.13 860.034 206.074 860.052 206.04C860.073 206 860.1 206 860.154 206H865.846C865.9 206 865.927 206 865.948 206.04C865.966 206.074 865.98 206.13 865.99 206.199C866 206.276 866 206.378 866 206.582V207.418C866 207.622 866 207.724 865.99 207.801C865.98 207.87 865.966 207.926 865.948 207.96C865.927 208 865.9 208 865.846 208H860.154C860.1 208 860.073 208 860.052 207.96C860.034 207.926 860.02 207.87 860.01 207.801C860 207.724 860 207.622 860 207.418V206.582Z" fill="#424754"/>
<path d="M890 206.582C890 206.378 890 206.276 890.01 206.199C890.02 206.13 890.034 206.074 890.052 206.04C890.073 206 890.1 206 890.154 206H895.846C895.9 206 895.927 206 895.948 206.04C895.966 206.074 895.98 206.13 895.99 206.199C896 206.276 896 206.378 896 206.582V207.418C896 207.622 896 207.724 895.99 207.801C895.98 207.87 895.966 207.926 895.948 207.96C895.927 208 895.9 208 895.846 208H890.154C890.1 208 890.073 208 890.052 207.96C890.034 207.926 890.02 207.87 890.01 207.801C890 207.724 890 207.622 890 207.418V206.582Z" fill="#424754"/>
<path d="M920 206.582C920 206.378 920 206.276 920.01 206.199C920.02 206.13 920.034 206.074 920.052 206.04C920.073 206 920.1 206 920.154 206H925.846C925.9 206 925.927 206 925.948 206.04C925.966 206.074 925.98 206.13 925.99 206.199C926 206.276 926 206.378 926 206.582V207.418C926 207.622 926 207.724 925.99 207.801C925.98 207.87 925.966 207.926 925.948 207.96C925.927 208 925.9 208 925.846 208H920.154C920.1 208 920.073 208 920.052 207.96C920.034 207.926 920.02 207.87 920.01 207.801C920 207.724 920 207.622 920 207.418V206.582Z" fill="#424754"/>
<path d="M950 206.582C950 206.378 950 206.276 950.01 206.199C950.02 206.13 950.034 206.074 950.052 206.04C950.073 206 950.1 206 950.154 206H955.846C955.9 206 955.927 206 955.948 206.04C955.966 206.074 955.98 206.13 955.99 206.199C956 206.276 956 206.378 956 206.582V207.418C956 207.622 956 207.724 955.99 207.801C955.98 207.87 955.966 207.926 955.948 207.96C955.927 208 955.9 208 955.846 208H950.154C950.1 208 950.073 208 950.052 207.96C950.034 207.926 950.02 207.87 950.01 207.801C950 207.724 950 207.622 950 207.418V206.582Z" fill="#424754"/>
<path d="M980 206.582C980 206.378 980 206.276 980.01 206.199C980.02 206.13 980.034 206.074 980.052 206.04C980.073 206 980.1 206 980.154 206H985.846C985.9 206 985.927 206 985.948 206.04C985.966 206.074 985.98 206.13 985.99 206.199C986 206.276 986 206.378 986 206.582V207.418C986 207.622 986 207.724 985.99 207.801C985.98 207.87 985.966 207.926 985.948 207.96C985.927 208 985.9 208 985.846 208H980.154C980.1 208 980.073 208 980.052 207.96C980.034 207.926 980.02 207.87 980.01 207.801C980 207.724 980 207.622 980 207.418V206.582Z" fill="#424754"/>
<path d="M1010 206.582C1010 206.378 1010 206.276 1010.01 206.199C1010.02 206.13 1010.03 206.074 1010.05 206.04C1010.07 206 1010.1 206 1010.15 206H1015.85C1015.9 206 1015.93 206 1015.95 206.04C1015.97 206.074 1015.98 206.13 1015.99 206.199C1016 206.276 1016 206.378 1016 206.582V207.418C1016 207.622 1016 207.724 1015.99 207.801C1015.98 207.87 1015.97 207.926 1015.95 207.96C1015.93 208 1015.9 208 1015.85 208H1010.15C1010.1 208 1010.07 208 1010.05 207.96C1010.03 207.926 1010.02 207.87 1010.01 207.801C1010 207.724 1010 207.622 1010 207.418V206.582Z" fill="#424754"/>
<path d="M1040 206.582C1040 206.378 1040 206.276 1040.01 206.199C1040.02 206.13 1040.03 206.074 1040.05 206.04C1040.07 206 1040.1 206 1040.15 206H1045.85C1045.9 206 1045.93 206 1045.95 206.04C1045.97 206.074 1045.98 206.13 1045.99 206.199C1046 206.276 1046 206.378 1046 206.582V207.418C1046 207.622 1046 207.724 1045.99 207.801C1045.98 207.87 1045.97 207.926 1045.95 207.96C1045.93 208 1045.9 208 1045.85 208H1040.15C1040.1 208 1040.07 208 1040.05 207.96C1040.03 207.926 1040.02 207.87 1040.01 207.801C1040 207.724 1040 207.622 1040 207.418V206.582Z" fill="#424754"/>
<path d="M1070 206.582C1070 206.378 1070 206.276 1070.01 206.199C1070.02 206.13 1070.03 206.074 1070.05 206.04C1070.07 206 1070.1 206 1070.15 206H1075.85C1075.9 206 1075.93 206 1075.95 206.04C1075.97 206.074 1075.98 206.13 1075.99 206.199C1076 206.276 1076 206.378 1076 206.582V207.418C1076 207.622 1076 207.724 1075.99 207.801C1075.98 207.87 1075.97 207.926 1075.95 207.96C1075.93 208 1075.9 208 1075.85 208H1070.15C1070.1 208 1070.07 208 1070.05 207.96C1070.03 207.926 1070.02 207.87 1070.01 207.801C1070 207.724 1070 207.622 1070 207.418V206.582Z" fill="#424754"/>
<path d="M762 68.4545C762 67.9454 762 67.6908 762.02 67.4964C762.038 67.3253 762.067 67.1862 762.102 67.0991C762.141 67 762.194 67 762.298 67H808.702C808.806 67 808.859 67 808.898 67.0991C808.933 67.1862 808.962 67.3253 808.98 67.4964C809 67.6908 809 67.9454 809 68.4545V70.5455C809 71.0546 809 71.3092 808.98 71.5036C808.962 71.6747 808.933 71.8138 808.898 71.9009C808.859 72 808.806 72 808.702 72H762.298C762.194 72 762.141 72 762.102 71.9009C762.067 71.8138 762.038 71.6747 762.02 71.5036C762 71.3092 762 71.0546 762 70.5455V68.4545Z" fill="#424754"/>
<path d="M602 4.40122C602 2.86065 602 2.09037 602.299 1.50195C602.562 0.984356 602.981 0.563541 603.497 0.299816C604.084 0 604.852 0 606.388 0H714.612C716.148 0 716.916 0 717.503 0.299816C718.019 0.563541 718.438 0.984356 718.701 1.50195C719 2.09037 719 2.86066 719 4.40123V293.599C719 295.139 719 295.91 718.701 296.498C718.438 297.016 718.019 297.436 717.503 297.7C716.916 298 716.148 298 714.612 298H606.388C604.852 298 604.084 298 603.497 297.7C602.981 297.436 602.562 297.016 602.299 296.498C602 295.91 602 295.139 602 293.599V4.40122Z" fill="#FFEAEC"/>
<path d="M602 60.4979C602 59.9736 602 59.7114 602.1 59.5112C602.188 59.335 602.328 59.1918 602.501 59.102C602.697 59 602.954 59 603.468 59H717.532C718.046 59 718.303 59 718.499 59.102C718.672 59.1918 718.812 59.335 718.9 59.5112C719 59.7114 719 59.9736 719 60.4979V79.5021C719 80.0264 719 80.2886 718.9 80.4888C718.812 80.665 718.672 80.8082 718.499 80.898C718.303 81 718.046 81 717.532 81H603.468C602.954 81 602.697 81 602.501 80.898C602.328 80.8082 602.188 80.665 602.1 80.4888C602 80.2886 602 80.0264 602 79.5021V60.4979Z" fill="#FFEAEC"/>
<path d="M632 68.4545C632 67.9454 632 67.6908 632.099 67.4964C632.187 67.3253 632.326 67.1862 632.498 67.0991C632.693 67 632.948 67 633.459 67H687.541C688.052 67 688.307 67 688.502 67.0991C688.674 67.1862 688.813 67.3253 688.901 67.4964C689 67.6908 689 67.9454 689 68.4545V70.5455C689 71.0546 689 71.3092 688.901 71.5036C688.813 71.6747 688.674 71.8138 688.502 71.9009C688.307 72 688.052 72 687.541 72H633.459C632.948 72 632.693 72 632.498 71.9009C632.326 71.8138 632.187 71.6747 632.099 71.5036C632 71.3092 632 71.0546 632 70.5455V68.4545Z" fill="#F04B5D"/>
<path d="M657 20.4545C657 19.9454 657 19.6908 657.099 19.4964C657.185 19.3253 657.324 19.1862 657.494 19.0991C657.688 19 657.941 19 658.448 19H698.552C699.059 19 699.312 19 699.506 19.0991C699.676 19.1862 699.815 19.3253 699.901 19.4964C700 19.6908 700 19.9454 700 20.4545V22.5455C700 23.0546 700 23.3092 699.901 23.5036C699.815 23.6747 699.676 23.8138 699.506 23.9009C699.312 24 699.059 24 698.552 24H658.448C657.941 24 657.688 24 657.494 23.9009C657.324 23.8138 657.185 23.6747 657.099 23.5036C657 23.3092 657 23.0546 657 22.5455V20.4545Z" fill="#424754"/>
<path d="M632 15.4452C632 14.9393 632 14.6864 632.102 14.4932C632.191 14.3232 632.334 14.185 632.51 14.0984C632.709 14 632.971 14 633.493 14H644.507C645.029 14 645.291 14 645.49 14.0984C645.666 14.185 645.809 14.3232 645.898 14.4932C646 14.6864 646 14.9393 646 15.4452V26.5548C646 27.0607 646 27.3136 645.898 27.5068C645.809 27.6768 645.666 27.815 645.49 27.9016C645.291 28 645.029 28 644.507 28H633.493C632.971 28 632.709 28 632.51 27.9016C632.334 27.815 632.191 27.6768 632.102 27.5068C632 27.3136 632 27.0607 632 26.5548V15.4452Z" fill="#424754"/>
<path d="M632 90.4545C632 89.9454 632 89.6908 632.099 89.4964C632.187 89.3253 632.326 89.1862 632.498 89.0991C632.693 89 632.948 89 633.459 89H687.541C688.052 89 688.307 89 688.502 89.0991C688.674 89.1862 688.813 89.3253 688.901 89.4964C689 89.6908 689 89.9454 689 90.4545V92.5455C689 93.0546 689 93.3092 688.901 93.5036C688.813 93.6747 688.674 93.8138 688.502 93.9009C688.307 94 688.052 94 687.541 94H633.459C632.948 94 632.693 94 632.498 93.9009C632.326 93.8138 632.187 93.6747 632.099 93.5036C632 93.3092 632 93.0546 632 92.5455V90.4545Z" fill="#424754"/>
<path d="M632 111.455C632 110.945 632 110.691 632.099 110.496C632.187 110.325 632.326 110.186 632.498 110.099C632.693 110 632.948 110 633.459 110H687.541C688.052 110 688.307 110 688.502 110.099C688.674 110.186 688.813 110.325 688.901 110.496C689 110.691 689 110.945 689 111.455V113.545C689 114.055 689 114.309 688.901 114.504C688.813 114.675 688.674 114.814 688.502 114.901C688.307 115 688.052 115 687.541 115H633.459C632.948 115 632.693 115 632.498 114.901C632.326 114.814 632.187 114.675 632.099 114.504C632 114.309 632 114.055 632 113.545V111.455Z" fill="#424754"/>
<path d="M632 133.455C632 132.945 632 132.691 632.099 132.496C632.187 132.325 632.326 132.186 632.498 132.099C632.693 132 632.948 132 633.459 132H687.541C688.052 132 688.307 132 688.502 132.099C688.674 132.186 688.813 132.325 688.901 132.496C689 132.691 689 132.945 689 133.455V135.545C689 136.055 689 136.309 688.901 136.504C688.813 136.675 688.674 136.814 688.502 136.901C688.307 137 688.052 137 687.541 137H633.459C632.948 137 632.693 137 632.498 136.901C632.326 136.814 632.187 136.675 632.099 136.504C632 136.309 632 136.055 632 135.545V133.455Z" fill="#424754"/>
<path d="M632 154.745C632 154.134 632 153.829 632.099 153.596C632.187 153.39 632.326 153.223 632.498 153.119C632.693 153 632.948 153 633.459 153H687.541C688.052 153 688.307 153 688.502 153.119C688.674 153.223 688.813 153.39 688.901 153.596C689 153.829 689 154.134 689 154.745V157.255C689 157.866 689 158.171 688.901 158.404C688.813 158.61 688.674 158.777 688.502 158.881C688.307 159 688.052 159 687.541 159H633.459C632.948 159 632.693 159 632.498 158.881C632.326 158.777 632.187 158.61 632.099 158.404C632 158.171 632 157.866 632 157.255V154.745Z" fill="#424754"/>
<line x1="749" y1="83.5" x2="1079" y2="83.5" stroke="#DADADB"/>
<line x1="749" y1="113.5" x2="1079" y2="113.5" stroke="#DADADB"/>
<line x1="749" y1="143.5" x2="1079" y2="143.5" stroke="#DADADB"/>
<line x1="749" y1="173.5" x2="1079" y2="173.5" stroke="#DADADB"/>
<line x1="749" y1="203.5" x2="1079" y2="203.5" stroke="#DADADB"/>
<line x1="749" y1="233.5" x2="1079" y2="233.5" stroke="#DADADB"/>
<line x1="778.5" y1="234" x2="778.5" y2="84" stroke="#DADADB"/>
<line x1="808.5" y1="234" x2="808.5" y2="84" stroke="#DADADB"/>
<line x1="838.5" y1="234" x2="838.5" y2="84" stroke="#DADADB"/>
<line x1="958.5" y1="234" x2="958.5" y2="84" stroke="#DADADB"/>
<line x1="868.5" y1="234" x2="868.5" y2="84" stroke="#DADADB"/>
<line x1="988.5" y1="234" x2="988.5" y2="84" stroke="#DADADB"/>
<line x1="898.5" y1="234" x2="898.5" y2="84" stroke="#DADADB"/>
<line x1="1018.5" y1="234" x2="1018.5" y2="84" stroke="#DADADB"/>
<line x1="928.5" y1="234" x2="928.5" y2="84" stroke="#DADADB"/>
<line x1="1048.5" y1="234" x2="1048.5" y2="84" stroke="#DADADB"/>
</svg>
