<svg width="1110" height="298" viewBox="0 0 1110 298" fill="none" xmlns="http://www.w3.org/2000/svg">
<path d="M636.296 75.968C636.296 83.528 641.984 89.432 649.76 89.432C657.536 89.432 663.224 83.528 663.224 75.968C663.224 68.588 657.536 62.828 649.76 62.828C641.984 62.828 636.296 68.588 636.296 75.968ZM642.812 75.968C642.812 71.756 645.908 68.588 649.76 68.588C653.612 68.588 656.708 71.756 656.708 75.968C656.708 80.36 653.612 83.672 649.76 83.672C645.908 83.672 642.812 80.36 642.812 75.968ZM666.373 89H672.601V75.68H678.109V89H684.337V70.46H666.373V89ZM688.522 96.2H694.75V89.252C694.75 88.316 694.678 87.668 694.678 87.668H694.75C696.082 88.82 697.738 89.432 699.466 89.432C704.398 89.432 708.106 85.616 708.106 79.748C708.106 73.988 704.794 70.028 699.754 70.028C697.522 70.028 695.398 70.892 694.138 72.584H694.066C694.066 72.584 694.138 72.008 694.138 71.396V70.46H688.522V96.2ZM694.57 79.856C694.57 76.652 696.334 75.284 698.206 75.284C700.366 75.284 701.842 77.084 701.842 79.856C701.842 82.7 700.15 84.284 698.206 84.284C695.758 84.284 694.57 82.088 694.57 79.856ZM710.259 79.712C710.259 84.644 713.823 89.432 720.447 89.432C723.291 89.432 726.351 88.46 728.367 86.732L726.063 82.376C724.551 83.384 722.787 84.248 720.951 84.248C718.971 84.248 717.099 83.204 716.631 80.936H728.331C728.403 80.288 728.475 79.64 728.475 78.992C728.475 73.844 725.379 70.028 719.907 70.028C713.931 70.028 710.259 74.276 710.259 79.712ZM716.775 77.372C717.099 75.896 717.963 74.6 719.763 74.6C721.347 74.6 722.319 75.86 722.319 77.372H716.775ZM738.428 84.068C739.724 81.584 740.084 78.884 740.084 76.076V75.392H743.288V84.068H738.428ZM730.004 84.068V93.32H735.764V89H746.636V93.32H752.18V84.068H749.516V70.46H734.216V74.924C734.216 78.668 733.532 81.98 732.308 84.068H730.004ZM753.782 79.712C753.782 84.644 757.346 89.432 763.97 89.432C766.814 89.432 769.874 88.46 771.89 86.732L769.586 82.376C768.074 83.384 766.31 84.248 764.474 84.248C762.494 84.248 760.622 83.204 760.154 80.936H771.854C771.926 80.288 771.998 79.64 771.998 78.992C771.998 73.844 768.902 70.028 763.43 70.028C757.454 70.028 753.782 74.276 753.782 79.712ZM760.298 77.372C760.622 75.896 761.486 74.6 763.286 74.6C764.87 74.6 765.842 75.86 765.842 77.372H760.298ZM773.743 89.18C780.943 89.18 783.103 83.996 783.103 76.436V75.392H786.199V89H792.427V70.46H777.235V76.4C777.235 82.772 775.399 83.528 773.743 83.744V89.18ZM796.592 89H802.64L807.788 80.864C808.076 80.36 808.472 79.784 808.796 79.028H808.868C808.796 79.748 808.796 80.468 808.796 80.9V89H814.664V70.46H808.616L803.468 78.632C803.144 79.172 802.784 79.712 802.46 80.468H802.388C802.424 80 802.46 79.28 802.46 78.632V70.46H796.592V89ZM818.054 89H823.994L824.426 80.468C824.498 79.028 824.39 77.3 824.39 77.3H824.462C824.462 77.3 825.146 78.848 825.542 80.036L827.99 86.516H833.03L835.478 80.036C835.946 78.884 836.486 77.3 836.486 77.3H836.558C836.558 77.3 836.486 79.028 836.522 80.468L836.954 89H842.93L841.166 70.46H834.002L831.266 78.596C830.942 79.532 830.51 80.756 830.51 80.756H830.474C830.474 80.756 830.078 79.532 829.754 78.596L827.018 70.46H819.818L818.054 89ZM855.483 90.692L853.503 95.264C853.503 95.264 855.375 96.56 857.823 96.56C860.775 96.56 864.015 95.12 865.563 90.98L873.159 70.46H866.355L864.015 79.1C863.763 80.108 863.403 81.872 863.403 81.872H863.331C863.331 81.872 862.971 80 862.647 78.992L859.911 70.46H852.855L860.739 88.64L860.379 89.504C859.731 91.088 858.399 91.376 857.391 91.376C856.491 91.376 855.483 90.692 855.483 90.692ZM875.483 96.2H881.711V89.252C881.711 88.316 881.639 87.668 881.639 87.668H881.711C883.043 88.82 884.699 89.432 886.427 89.432C891.359 89.432 895.067 85.616 895.067 79.748C895.067 73.988 891.755 70.028 886.715 70.028C884.483 70.028 882.359 70.892 881.099 72.584H881.027C881.027 72.584 881.099 72.008 881.099 71.396V70.46H875.483V96.2ZM881.531 79.856C881.531 76.652 883.295 75.284 885.167 75.284C887.327 75.284 888.803 77.084 888.803 79.856C888.803 82.7 887.111 84.284 885.167 84.284C882.719 84.284 881.531 82.088 881.531 79.856ZM897.22 79.784C897.22 85.58 901.9 89.432 907.732 89.432C913.564 89.432 918.244 85.58 918.244 79.784C918.244 73.952 913.564 70.028 907.696 70.028C901.9 70.028 897.22 73.952 897.22 79.784ZM903.52 79.784C903.52 76.976 905.464 75.212 907.732 75.212C910 75.212 911.944 76.976 911.944 79.784C911.944 82.556 910 84.248 907.732 84.248C905.464 84.248 903.52 82.556 903.52 79.784ZM921.361 89H931.477C935.149 89 938.533 87.56 938.533 83.492C938.533 81.872 937.741 80.036 935.617 79.388V79.352C937.021 78.524 937.777 76.868 937.777 75.32C937.777 72.116 935.185 70.46 931.477 70.46H921.361V89ZM927.589 77.768V74.312H929.857C931.081 74.312 931.585 75.068 931.585 75.932C931.585 76.904 931.081 77.768 929.929 77.768H927.589ZM927.589 85.112V81.404H930.361C931.693 81.404 932.305 82.268 932.305 83.276C932.305 84.212 931.657 85.112 930.325 85.112H927.589ZM940.708 79.712C940.708 84.644 944.272 89.432 950.896 89.432C953.74 89.432 956.8 88.46 958.816 86.732L956.512 82.376C955 83.384 953.236 84.248 951.4 84.248C949.42 84.248 947.548 83.204 947.08 80.936H958.78C958.852 80.288 958.924 79.64 958.924 78.992C958.924 73.844 955.828 70.028 950.356 70.028C944.38 70.028 940.708 74.276 940.708 79.712ZM947.224 77.372C947.548 75.896 948.412 74.6 950.212 74.6C951.796 74.6 952.768 75.86 952.768 77.372H947.224ZM962.178 89H968.406V82.232H974.13V89H980.358V70.46H974.13V77.012H968.406V70.46H962.178V89ZM984.537 89H993.789C998.973 89 1001.13 86.444 1001.13 82.664C1001.13 78.92 998.973 76.256 993.789 76.256H990.765V70.46H984.537V89ZM990.765 84.932V80.288H992.529C994.113 80.288 994.905 81.332 994.905 82.628C994.905 83.924 994.113 84.932 992.637 84.932H990.765ZM637.088 131H643.136L648.284 122.864C648.572 122.36 648.968 121.784 649.292 121.028H649.364C649.292 121.748 649.292 122.468 649.292 122.9V131H655.16V112.46H649.112L643.964 120.632C643.64 121.172 643.28 121.712 642.956 122.468H642.884C642.92 122 642.956 121.28 642.956 120.632V112.46H637.088V131ZM668.342 131H674.57V117.68H680.078V131H686.306V112.46H668.342V131ZM689.446 121.784C689.446 127.58 694.126 131.432 699.958 131.432C705.79 131.432 710.47 127.58 710.47 121.784C710.47 115.952 705.79 112.028 699.922 112.028C694.126 112.028 689.446 115.952 689.446 121.784ZM695.746 121.784C695.746 118.976 697.69 117.212 699.958 117.212C702.226 117.212 704.17 118.976 704.17 121.784C704.17 124.556 702.226 126.248 699.958 126.248C697.69 126.248 695.746 124.556 695.746 121.784ZM720.076 126.068C721.372 123.584 721.732 120.884 721.732 118.076V117.392H724.936V126.068H720.076ZM711.652 126.068V135.32H717.412V131H728.284V135.32H733.828V126.068H731.164V112.46H715.864V116.924C715.864 120.668 715.18 123.98 713.956 126.068H711.652ZM735.612 119.912C735.612 126.716 738.96 131.432 745.656 131.432C751.524 131.432 755.232 127.544 755.232 122.432C755.232 117.464 752.208 113.936 747.24 113.936C745.62 113.936 743.388 114.368 741.804 115.7H741.732C741.84 113.036 744.36 112.028 746.736 111.236L753.72 109.004L751.956 104L745.944 106.016C738.708 108.5 735.612 112.352 735.612 119.912ZM741.804 122.54C741.804 120.128 743.46 118.616 745.404 118.616C747.348 118.616 749.004 120.128 749.004 122.54C749.004 124.916 747.348 126.356 745.404 126.356C743.46 126.356 741.804 124.916 741.804 122.54ZM757.439 121.712C757.439 126.644 761.003 131.432 767.627 131.432C770.471 131.432 773.531 130.46 775.547 128.732L773.243 124.376C771.731 125.384 769.967 126.248 768.131 126.248C766.151 126.248 764.279 125.204 763.811 122.936H775.511C775.583 122.288 775.655 121.64 775.655 120.992C775.655 115.844 772.559 112.028 767.087 112.028C761.111 112.028 757.439 116.276 757.439 121.712ZM763.955 119.372C764.279 117.896 765.143 116.6 766.943 116.6C768.527 116.6 769.499 117.86 769.499 119.372H763.955ZM778.908 138.2H785.136V131.252C785.136 130.316 785.064 129.668 785.064 129.668H785.136C786.468 130.82 788.124 131.432 789.852 131.432C794.784 131.432 798.492 127.616 798.492 121.748C798.492 115.988 795.18 112.028 790.14 112.028C787.908 112.028 785.784 112.892 784.524 114.584H784.452C784.452 114.584 784.524 114.008 784.524 113.396V112.46H778.908V138.2ZM784.956 121.856C784.956 118.652 786.72 117.284 788.592 117.284C790.752 117.284 792.228 119.084 792.228 121.856C792.228 124.7 790.536 126.284 788.592 126.284C786.144 126.284 784.956 124.088 784.956 121.856ZM800.646 121.712C800.646 126.644 804.21 131.432 810.834 131.432C813.678 131.432 816.738 130.46 818.754 128.732L816.45 124.376C814.938 125.384 813.174 126.248 811.338 126.248C809.358 126.248 807.486 125.204 807.018 122.936H818.718C818.79 122.288 818.862 121.64 818.862 120.992C818.862 115.844 815.766 112.028 810.294 112.028C804.318 112.028 800.646 116.276 800.646 121.712ZM807.162 119.372C807.486 117.896 808.35 116.6 810.15 116.6C811.734 116.6 812.706 117.86 812.706 119.372H807.162ZM821.323 131H827.263L827.695 122.468C827.767 121.028 827.659 119.3 827.659 119.3H827.731C827.731 119.3 828.415 120.848 828.811 122.036L831.259 128.516H836.299L838.747 122.036C839.215 120.884 839.755 119.3 839.755 119.3H839.827C839.827 119.3 839.755 121.028 839.791 122.468L840.223 131H846.199L844.435 112.46H837.271L834.535 120.596C834.211 121.532 833.779 122.756 833.779 122.756H833.743C833.743 122.756 833.347 121.532 833.023 120.596L830.287 112.46H823.087L821.323 131ZM858.572 131H864.8V117.68H870.308V131H876.536V112.46H858.572V131ZM879.677 121.784C879.677 127.58 884.357 131.432 890.189 131.432C896.021 131.432 900.701 127.58 900.701 121.784C900.701 115.952 896.021 112.028 890.153 112.028C884.357 112.028 879.677 115.952 879.677 121.784ZM885.977 121.784C885.977 118.976 887.921 117.212 890.189 117.212C892.457 117.212 894.401 118.976 894.401 121.784C894.401 124.556 892.457 126.248 890.189 126.248C887.921 126.248 885.977 124.556 885.977 121.784ZM910.307 126.068C911.603 123.584 911.963 120.884 911.963 118.076V117.392H915.167V126.068H910.307ZM901.883 126.068V135.32H907.643V131H918.515V135.32H924.059V126.068H921.395V112.46H906.095V116.924C906.095 120.668 905.411 123.98 904.187 126.068H901.883ZM925.224 131H932.064L934.26 126.824C934.44 126.5 934.692 125.888 934.692 125.888H934.764C934.764 125.888 935.016 126.5 935.196 126.824L937.428 131H944.268L938.436 121.82L944.376 112.46H937.356L935.34 116.6C935.124 117.068 934.764 117.824 934.764 117.824H934.692C934.692 117.824 934.368 117.068 934.116 116.6L932.1 112.46H925.08L931.056 121.82L925.224 131ZM944.997 121.784C944.997 127.58 949.677 131.432 955.509 131.432C961.341 131.432 966.021 127.58 966.021 121.784C966.021 115.952 961.341 112.028 955.473 112.028C949.677 112.028 944.997 115.952 944.997 121.784ZM951.297 121.784C951.297 118.976 953.241 117.212 955.509 117.212C957.777 117.212 959.721 118.976 959.721 121.784C959.721 124.556 957.777 126.248 955.509 126.248C953.241 126.248 951.297 124.556 951.297 121.784ZM975.627 126.068C976.923 123.584 977.283 120.884 977.283 118.076V117.392H980.487V126.068H975.627ZM967.203 126.068V135.32H972.963V131H983.835V135.32H989.379V126.068H986.715V112.46H971.415V116.924C971.415 120.668 970.731 123.98 969.507 126.068H967.203ZM990.472 131H997.06L1000.62 125.348H1001.92V131H1008.15V112.46H998.428C994.324 112.46 991.732 114.836 991.732 118.724C991.732 121.1 993.064 123.224 995.08 124.232V124.268C995.08 124.268 994.72 124.628 994.216 125.384L990.472 131ZM1000.44 121.208C998.968 121.208 997.924 120.452 997.924 118.688C997.924 116.96 998.968 116.312 1000.41 116.312H1001.92V121.208H1000.44ZM1012.31 131H1035.39V135.32H1040.93V125.78H1038.27V112.46H1032.4V125.78H1028.22V112.46H1022.35V125.78H1018.18V112.46H1012.31V131ZM1043.43 132.692L1041.45 137.264C1041.45 137.264 1043.32 138.56 1045.77 138.56C1048.72 138.56 1051.96 137.12 1053.51 132.98L1061.1 112.46H1054.3L1051.96 121.1C1051.71 122.108 1051.35 123.872 1051.35 123.872H1051.28C1051.28 123.872 1050.92 122 1050.59 120.992L1047.86 112.46H1040.8L1048.68 130.64L1048.32 131.504C1047.68 133.088 1046.34 133.376 1045.34 133.376C1044.44 133.376 1043.43 132.692 1043.43 132.692ZM1063.43 131H1069.66V124.088H1072.18C1073.15 128.588 1077.04 131.432 1082 131.432C1087.76 131.432 1092.23 127.58 1092.23 121.784C1092.23 115.952 1087.76 112.028 1081.97 112.028C1077.14 112.028 1073.33 114.8 1072.25 119.156H1069.66V112.46H1063.43V131ZM1078.08 121.784C1078.08 118.976 1079.81 117.212 1082 117.212C1084.2 117.212 1085.93 118.976 1085.93 121.784C1085.93 124.556 1084.2 126.248 1082 126.248C1079.81 126.248 1078.08 124.556 1078.08 121.784ZM637.088 173H643.316V159.68H648.824V173H655.052V154.46H637.088V173ZM659.236 180.2H665.464V173.252C665.464 172.316 665.392 171.668 665.392 171.668H665.464C666.796 172.82 668.452 173.432 670.18 173.432C675.112 173.432 678.82 169.616 678.82 163.748C678.82 157.988 675.508 154.028 670.468 154.028C668.236 154.028 666.112 154.892 664.852 156.584H664.78C664.78 156.584 664.852 156.008 664.852 155.396V154.46H659.236V180.2ZM665.284 163.856C665.284 160.652 667.048 159.284 668.92 159.284C671.08 159.284 672.556 161.084 672.556 163.856C672.556 166.7 670.864 168.284 668.92 168.284C666.472 168.284 665.284 166.088 665.284 163.856ZM680.974 163.784C680.974 169.58 685.654 173.432 691.486 173.432C697.318 173.432 701.998 169.58 701.998 163.784C701.998 157.952 697.318 154.028 691.45 154.028C685.654 154.028 680.974 157.952 680.974 163.784ZM687.274 163.784C687.274 160.976 689.218 159.212 691.486 159.212C693.754 159.212 695.698 160.976 695.698 163.784C695.698 166.556 693.754 168.248 691.486 168.248C689.218 168.248 687.274 166.556 687.274 163.784ZM705.115 173H711.343V159.68H718.183V154.46H705.115V173ZM720.795 180.2H727.023V173.252C727.023 172.316 726.951 171.668 726.951 171.668H727.023C728.355 172.82 730.011 173.432 731.739 173.432C736.671 173.432 740.379 169.616 740.379 163.748C740.379 157.988 737.067 154.028 732.027 154.028C729.795 154.028 727.671 154.892 726.411 156.584H726.339C726.339 156.584 726.411 156.008 726.411 155.396V154.46H720.795V180.2ZM726.843 163.856C726.843 160.652 728.607 159.284 730.479 159.284C732.639 159.284 734.115 161.084 734.115 163.856C734.115 166.7 732.423 168.284 730.479 168.284C728.031 168.284 726.843 166.088 726.843 163.856ZM742.244 167.78C742.244 170.984 744.728 173.432 748.292 173.432C750.416 173.432 752.576 172.46 753.8 170.732H753.872C753.872 170.732 753.8 171.272 753.8 171.884V173H759.488V161.588C759.488 156.872 756.32 154.028 751.208 154.028C748.184 154.028 744.944 155.216 743.36 156.44L745.52 160.832C746.996 159.86 748.832 159.068 750.632 159.068C752 159.068 753.26 159.572 753.26 161.12V161.444H752.72C748.148 161.444 742.244 162.812 742.244 167.78ZM748.4 167.204C748.4 165.512 750.848 165.008 752.756 165.008H753.332V165.512C753.332 167.024 751.964 168.788 750.164 168.788C749.012 168.788 748.4 168.068 748.4 167.204ZM762.648 173H768.588L769.02 164.468C769.092 163.028 768.984 161.3 768.984 161.3H769.056C769.056 161.3 769.74 162.848 770.136 164.036L772.584 170.516H777.624L780.072 164.036C780.54 162.884 781.08 161.3 781.08 161.3H781.152C781.152 161.3 781.08 163.028 781.116 164.468L781.548 173H787.524L785.76 154.46H778.596L775.86 162.596C775.536 163.532 775.104 164.756 775.104 164.756H775.068C775.068 164.756 774.672 163.532 774.348 162.596L771.612 154.46H764.412L762.648 173ZM790.105 173H796.045L796.477 164.468C796.549 163.028 796.441 161.3 796.441 161.3H796.513C796.513 161.3 797.197 162.848 797.593 164.036L800.041 170.516H805.081L807.529 164.036C807.997 162.884 808.537 161.3 808.537 161.3H808.609C808.609 161.3 808.537 163.028 808.573 164.468L809.005 173H814.981L813.217 154.46H806.053L803.317 162.596C802.993 163.532 802.561 164.756 802.561 164.756H802.525C802.525 164.756 802.129 163.532 801.805 162.596L799.069 154.46H791.869L790.105 173ZM818.217 174.692L816.237 179.264C816.237 179.264 818.109 180.56 820.557 180.56C823.509 180.56 826.749 179.12 828.297 174.98L835.893 154.46H829.089L826.749 163.1C826.497 164.108 826.137 165.872 826.137 165.872H826.065C826.065 165.872 825.705 164 825.381 162.992L822.645 154.46H815.589L823.473 172.64L823.113 173.504C822.465 175.088 821.133 175.376 820.125 175.376C819.225 175.376 818.217 174.692 818.217 174.692ZM846.173 163.784C846.173 169.58 850.853 173.432 856.685 173.432C862.517 173.432 867.197 169.58 867.197 163.784C867.197 157.952 862.517 154.028 856.649 154.028C850.853 154.028 846.173 157.952 846.173 163.784ZM852.473 163.784C852.473 160.976 854.417 159.212 856.685 159.212C858.953 159.212 860.897 160.976 860.897 163.784C860.897 166.556 858.953 168.248 856.685 168.248C854.417 168.248 852.473 166.556 852.473 163.784ZM869.487 161.912C869.487 168.716 872.835 173.432 879.531 173.432C885.399 173.432 889.107 169.544 889.107 164.432C889.107 159.464 886.083 155.936 881.115 155.936C879.495 155.936 877.263 156.368 875.679 157.7H875.607C875.715 155.036 878.235 154.028 880.611 153.236L887.595 151.004L885.831 146L879.819 148.016C872.583 150.5 869.487 154.352 869.487 161.912ZM875.679 164.54C875.679 162.128 877.335 160.616 879.279 160.616C881.223 160.616 882.879 162.128 882.879 164.54C882.879 166.916 881.223 168.356 879.279 168.356C877.335 168.356 875.679 166.916 875.679 164.54ZM891.87 174.692L889.89 179.264C889.89 179.264 891.762 180.56 894.21 180.56C897.162 180.56 900.402 179.12 901.95 174.98L909.546 154.46H902.742L900.402 163.1C900.15 164.108 899.79 165.872 899.79 165.872H899.718C899.718 165.872 899.358 164 899.034 162.992L896.298 154.46H889.242L897.126 172.64L896.766 173.504C896.118 175.088 894.786 175.376 893.778 175.376C892.878 175.376 891.87 174.692 891.87 174.692ZM917.197 167.312C919.465 167.312 921.121 166.808 922.165 166.34H922.237C922.237 166.34 922.201 166.808 922.201 167.204V173H928.429V154.46H922.201V161.336C921.589 161.768 920.653 162.236 919.393 162.236C917.845 162.236 917.017 161.336 917.017 159.752V154.46H910.897V160.94C910.897 165.8 914.209 167.312 917.197 167.312ZM931.567 163.712C931.567 168.644 935.131 173.432 941.755 173.432C944.599 173.432 947.659 172.46 949.675 170.732L947.371 166.376C945.859 167.384 944.095 168.248 942.259 168.248C940.279 168.248 938.407 167.204 937.939 164.936H949.639C949.711 164.288 949.783 163.64 949.783 162.992C949.783 157.844 946.687 154.028 941.215 154.028C935.239 154.028 931.567 158.276 931.567 163.712ZM938.083 161.372C938.407 159.896 939.271 158.6 941.071 158.6C942.655 158.6 943.627 159.86 943.627 161.372H938.083ZM953.037 173H959.265V166.232H964.989V173H971.217V154.46H964.989V161.012H959.265V154.46H953.037V173ZM975.397 173H981.445L986.593 164.864C986.881 164.36 987.277 163.784 987.601 163.028H987.673C987.601 163.748 987.601 164.468 987.601 164.9V173H993.469V154.46H987.421L982.273 162.632C981.949 163.172 981.589 163.712 981.265 164.468H981.193C981.229 164 981.265 163.28 981.265 162.632V154.46H975.397V173ZM995.887 173H1002.47L1006.04 167.348H1007.33V173H1013.56V154.46H1003.84C999.739 154.46 997.147 156.836 997.147 160.724C997.147 163.1 998.479 165.224 1000.49 166.232V166.268C1000.49 166.268 1000.13 166.628 999.631 167.384L995.887 173ZM1005.86 163.208C1004.38 163.208 1003.34 162.452 1003.34 160.688C1003.34 158.96 1004.38 158.312 1005.82 158.312H1007.33V163.208H1005.86Z" fill="#222224"/>
<path d="M636.35 232.388C637.052 232.874 637.808 233.216 638.672 233.216C640.256 233.216 641.066 231.938 641.57 230.66L645.62 220.292H643.748L641.39 226.7C641.12 227.474 640.85 228.356 640.85 228.356H640.814C640.814 228.356 640.49 227.474 640.094 226.682L636.998 220.292H635.036L640.058 230.246C639.716 231.128 639.356 231.668 638.618 231.668C638.006 231.668 637.466 231.272 637.16 231.038L636.35 232.388ZM647.888 231.56C649.04 229.76 649.184 227.168 649.184 225.8V225.314H651.92V231.56H647.888ZM644.972 231.56V235.16H646.61V233H653.36V235.16H654.962V231.56H653.666V223.892H647.51V225.566C647.51 226.97 647.366 229.814 646.088 231.56H644.972ZM656.094 228.446C656.094 231.146 658.074 233.216 660.936 233.216C662.196 233.216 663.582 232.73 664.464 231.92L663.726 230.642C663.006 231.29 662.016 231.704 661.044 231.704C659.406 231.704 658.002 230.642 657.912 228.68H664.536C664.572 228.428 664.608 228.176 664.608 227.942C664.608 225.602 663.24 223.676 660.666 223.676C658.074 223.676 656.094 225.548 656.094 228.446ZM657.966 227.42C658.218 225.908 659.28 225.026 660.63 225.026C661.818 225.026 662.79 225.854 662.844 227.42H657.966ZM665.717 233.09C668.399 232.946 669.443 230.822 669.443 226.7V225.332H672.125V233H673.871V223.892H667.769V226.7C667.769 229.994 667.049 231.326 665.717 231.524V233.09ZM675.651 233H677.577L679.809 229.706H681.339V233H683.085V223.892H679.449C677.523 223.892 676.191 224.882 676.191 226.754C676.191 228.14 677.127 229.112 678.171 229.4V229.418C678.171 229.418 677.955 229.652 677.757 229.976L675.651 233ZM679.827 228.428C678.765 228.428 677.955 227.87 677.955 226.736C677.955 225.566 678.711 225.098 679.881 225.098H681.339V228.428H679.827ZM685.186 228.446C685.186 231.146 687.166 233.216 690.028 233.216C691.288 233.216 692.674 232.73 693.556 231.92L692.818 230.642C692.098 231.29 691.108 231.704 690.136 231.704C688.498 231.704 687.094 230.642 687.004 228.68H693.628C693.664 228.428 693.7 228.176 693.7 227.942C693.7 225.602 692.332 223.676 689.758 223.676C687.166 223.676 685.186 225.548 685.186 228.446ZM687.058 227.42C687.31 225.908 688.372 225.026 689.722 225.026C690.91 225.026 691.882 225.854 691.936 227.42H687.058ZM695.421 233H697.113L697.509 227.582C697.545 227.042 697.491 226.016 697.491 226.016H697.527C697.527 226.016 697.815 226.7 698.103 227.366L700.263 231.902H701.757L703.917 227.348C704.259 226.646 704.493 226.016 704.493 226.016H704.529C704.529 226.016 704.493 227.042 704.511 227.582L704.907 233H706.599L705.807 223.892H703.899L701.523 229.04C701.289 229.598 701.019 230.264 701.019 230.264H700.983C700.983 230.264 700.731 229.58 700.479 229.04L698.157 223.892H696.213L695.421 233ZM713.448 233H717.336C719.316 233 720.684 232.1 720.684 230.408C720.684 229.4 720.09 228.518 718.956 228.248V228.23C719.784 227.87 720.252 227.114 720.252 226.232C720.252 224.702 719.046 223.892 717.21 223.892H713.448V233ZM715.194 227.744V225.098H716.85C717.948 225.098 718.47 225.53 718.47 226.358C718.47 227.204 717.948 227.744 716.904 227.744H715.194ZM715.194 231.776V228.914H717.048C718.254 228.914 718.92 229.454 718.92 230.354C718.92 231.2 718.326 231.776 717.066 231.776H715.194ZM722.799 233H724.545V229.094H729.153V233H730.899V223.892H729.153V227.6H724.545V223.892H722.799V233ZM733.592 233H735.266L739.208 227.564C739.496 227.132 739.946 226.52 740 226.358H740.036C740.036 226.502 739.982 227.132 739.982 227.564V233H741.674V223.892H739.982L736.058 229.328C735.752 229.76 735.32 230.39 735.248 230.552H735.212C735.23 230.462 735.266 229.814 735.266 229.328V223.892H733.592V233ZM743.972 233H745.664L746.06 227.582C746.096 227.042 746.042 226.016 746.042 226.016H746.078C746.078 226.016 746.366 226.7 746.654 227.366L748.814 231.902H750.308L752.468 227.348C752.81 226.646 753.044 226.016 753.044 226.016H753.08C753.08 226.016 753.044 227.042 753.062 227.582L753.458 233H755.15L754.358 223.892H752.45L750.074 229.04C749.84 229.598 749.57 230.264 749.57 230.264H749.534C749.534 230.264 749.282 229.58 749.03 229.04L746.708 223.892H744.764L743.972 233ZM756.742 230.516C756.742 232.226 758.2 233.216 759.784 233.216C761.134 233.216 762.25 232.406 762.772 231.362H762.808C762.808 231.362 762.754 231.668 762.754 232.082V233H764.392V227.24C764.392 224.936 763.078 223.676 760.792 223.676C759.514 223.676 758.128 224.144 757.39 224.756L758.092 226.034C758.83 225.512 759.748 225.152 760.648 225.152C761.782 225.152 762.646 225.656 762.646 227.15V227.33H762.178C760.288 227.33 756.742 227.654 756.742 230.516ZM758.488 230.372C758.488 228.698 760.9 228.59 762.196 228.59H762.646V228.932C762.646 230.282 761.728 231.83 760.198 231.83C759.064 231.83 758.488 231.092 758.488 230.372ZM766.973 233H768.719V229.094H773.327V233H775.073V223.892H773.327V227.6H768.719V223.892H766.973V233ZM777.766 233H779.44L783.382 227.564C783.67 227.132 784.12 226.52 784.174 226.358H784.21C784.21 226.502 784.156 227.132 784.156 227.564V233H785.848V223.892H784.156L780.232 229.328C779.926 229.76 779.494 230.39 779.422 230.552H779.386C779.404 230.462 779.44 229.814 779.44 229.328V223.892H777.766V233ZM787.93 228.446C787.93 231.146 789.91 233.216 792.772 233.216C794.032 233.216 795.418 232.73 796.3 231.92L795.562 230.642C794.842 231.29 793.852 231.704 792.88 231.704C791.242 231.704 789.838 230.642 789.748 228.68H796.372C796.408 228.428 796.444 228.176 796.444 227.942C796.444 225.602 795.076 223.676 792.502 223.676C789.91 223.676 787.93 225.548 787.93 228.446ZM789.802 227.42C790.054 225.908 791.116 225.026 792.466 225.026C793.654 225.026 794.626 225.854 794.68 227.42H789.802ZM803.043 233H804.789V229.058H806.103L808.821 233H810.891L807.489 228.266V228.23L810.531 223.892H808.551L806.067 227.564H804.789V223.892H803.043V233ZM811.604 230.516C811.604 232.226 813.062 233.216 814.646 233.216C815.996 233.216 817.112 232.406 817.634 231.362H817.67C817.67 231.362 817.616 231.668 817.616 232.082V233H819.254V227.24C819.254 224.936 817.94 223.676 815.654 223.676C814.376 223.676 812.99 224.144 812.252 224.756L812.954 226.034C813.692 225.512 814.61 225.152 815.51 225.152C816.644 225.152 817.508 225.656 817.508 227.15V227.33H817.04C815.15 227.33 811.604 227.654 811.604 230.516ZM813.35 230.372C813.35 228.698 815.762 228.59 817.058 228.59H817.508V228.932C817.508 230.282 816.59 231.83 815.06 231.83C813.926 231.83 813.35 231.092 813.35 230.372ZM820.79 233H822.734L825.128 229.112H826.424V233H828.08V229.112H829.394L831.77 233H833.732L830.798 228.32V228.284L833.462 223.892H831.626L829.376 227.618H828.08V223.892H826.424V227.618H825.128L822.896 223.892H821.042L823.724 228.284V228.32L820.79 233ZM837.152 231.56C838.304 229.76 838.448 227.168 838.448 225.8V225.314H841.184V231.56H837.152ZM834.236 231.56V235.16H835.874V233H842.624V235.16H844.226V231.56H842.93V223.892H836.774V225.566C836.774 226.97 836.63 229.814 835.352 231.56H834.236ZM845.358 228.428C845.358 231.2 847.554 233.216 850.272 233.216C852.972 233.216 855.168 231.2 855.168 228.428C855.168 225.674 852.972 223.676 850.254 223.676C847.554 223.676 845.358 225.674 845.358 228.428ZM847.14 228.428C847.14 226.538 848.544 225.188 850.272 225.188C851.982 225.188 853.404 226.538 853.404 228.428C853.404 230.336 851.982 231.704 850.272 231.704C848.544 231.704 847.14 230.336 847.14 228.428ZM856.894 233H858.586L858.982 227.582C859.018 227.042 858.964 226.016 858.964 226.016H859C859 226.016 859.288 226.7 859.576 227.366L861.736 231.902H863.23L865.39 227.348C865.732 226.646 865.966 226.016 865.966 226.016H866.002C866.002 226.016 865.966 227.042 865.984 227.582L866.38 233H868.072L867.28 223.892H865.372L862.996 229.04C862.762 229.598 862.492 230.264 862.492 230.264H862.456C862.456 230.264 862.204 229.58 861.952 229.04L859.63 223.892H857.686L856.894 233ZM869.83 234.89L869.218 236.222C869.218 236.222 869.956 236.78 870.964 236.78C872.242 236.78 873.376 236.06 873.916 234.638L878.2 223.892H876.31L874.096 229.868C873.934 230.336 873.79 230.948 873.79 230.948H873.754C873.754 230.948 873.592 230.3 873.412 229.85L871.126 223.892H869.164L872.98 232.892L872.53 233.936C872.188 234.764 871.594 235.286 870.874 235.286C870.334 235.286 869.83 234.89 869.83 234.89ZM883.963 234.89L883.351 236.222C883.351 236.222 884.089 236.78 885.097 236.78C886.375 236.78 887.509 236.06 888.049 234.638L892.333 223.892H890.443L888.229 229.868C888.067 230.336 887.923 230.948 887.923 230.948H887.887C887.887 230.948 887.725 230.3 887.545 229.85L885.259 223.892H883.297L887.113 232.892L886.663 233.936C886.321 234.764 885.727 235.286 885.007 235.286C884.467 235.286 883.963 234.89 883.963 234.89ZM896.529 229.832C897.429 229.832 898.419 229.526 898.995 229.166H899.031C899.031 229.166 899.013 229.454 899.013 229.706V233H900.759V223.892H899.013V227.672C898.635 227.942 897.897 228.32 896.997 228.32C895.503 228.32 895.179 227.51 895.179 226.61V223.892H893.469V226.862C893.469 228.806 894.585 229.832 896.529 229.832ZM902.873 228.446C902.873 231.146 904.853 233.216 907.715 233.216C908.975 233.216 910.361 232.73 911.243 231.92L910.505 230.642C909.785 231.29 908.795 231.704 907.823 231.704C906.185 231.704 904.781 230.642 904.691 228.68H911.315C911.351 228.428 911.387 228.176 911.387 227.942C911.387 225.602 910.019 223.676 907.445 223.676C904.853 223.676 902.873 225.548 902.873 228.446ZM904.745 227.42C904.997 225.908 906.059 225.026 907.409 225.026C908.597 225.026 909.569 225.854 909.623 227.42H904.745ZM913.487 233H915.233V229.094H919.841V233H921.587V223.892H919.841V227.6H915.233V223.892H913.487V233ZM924.28 233H925.954L929.896 227.564C930.184 227.132 930.634 226.52 930.688 226.358H930.724C930.724 226.502 930.67 227.132 930.67 227.564V233H932.362V223.892H930.67L926.746 229.328C926.44 229.76 926.008 230.39 925.936 230.552H925.9C925.918 230.462 925.954 229.814 925.954 229.328V223.892H924.28V233ZM935.038 233H936.784V229.058H938.098L940.816 233H942.886L939.484 228.266V228.23L942.526 223.892H940.546L938.062 227.564H936.784V223.892H935.038V233ZM943.992 234.89L943.38 236.222C943.38 236.222 944.118 236.78 945.126 236.78C946.404 236.78 947.538 236.06 948.078 234.638L952.362 223.892H950.472L948.258 229.868C948.096 230.336 947.952 230.948 947.952 230.948H947.916C947.916 230.948 947.754 230.3 947.574 229.85L945.288 223.892H943.326L947.142 232.892L946.692 233.936C946.35 234.764 945.756 235.286 945.036 235.286C944.496 235.286 943.992 234.89 943.992 234.89Z" fill="#424754"/>
<g clip-path="url(#clip0)">
<path d="M0 4.40122C0 2.86065 0 2.09037 0.299609 1.50195C0.563153 0.984356 0.983678 0.563541 1.50091 0.299816C2.08893 0 2.85869 0 4.3982 0H504.602C506.141 0 506.911 0 507.499 0.299816C508.016 0.563541 508.437 0.984356 508.7 1.50195C509 2.09037 509 2.86066 509 4.40123V293.599C509 295.139 509 295.91 508.7 296.498C508.437 297.016 508.016 297.436 507.499 297.7C506.911 298 506.141 298 504.602 298H4.39818C2.85868 298 2.08893 298 1.50091 297.7C0.983678 297.436 0.563153 297.016 0.299609 296.498C0 295.91 0 295.139 0 293.599V4.40122Z" fill="#F3F3F3"/>
<path d="M0 4.40122C0 2.86065 0 2.09037 0.111838 1.50195C0.210214 0.984356 0.367188 0.563541 0.560262 0.299816C0.779757 0 1.06709 0 1.64176 0H188.358C188.933 0 189.22 0 189.44 0.299816C189.633 0.563541 189.79 0.984356 189.888 1.50195C190 2.09037 190 2.86066 190 4.40123V293.599C190 295.139 190 295.91 189.888 296.498C189.79 297.016 189.633 297.436 189.44 297.7C189.22 298 188.933 298 188.358 298H1.64176C1.06709 298 0.779757 298 0.560262 297.7C0.367188 297.436 0.210214 297.016 0.111838 296.498C0 295.91 0 295.139 0 293.599V4.40122Z" fill="#EDEDED"/>
<path d="M30 76.88C30 75.8719 30 75.3679 30.0765 74.9828C30.1438 74.6441 30.2512 74.3688 30.3833 74.1962C30.5335 74 30.7301 74 31.1233 74H158.877C159.27 74 159.466 74 159.617 74.1962C159.749 74.3688 159.856 74.6441 159.923 74.9828C160 75.3679 160 75.8719 160 76.88V266.12C160 267.128 160 267.632 159.923 268.017C159.856 268.356 159.749 268.631 159.617 268.804C159.466 269 159.27 269 158.877 269H31.1233C30.7301 269 30.5335 269 30.3833 268.804C30.2512 268.631 30.1438 268.356 30.0765 268.017C30 267.632 30 267.128 30 266.12V76.88Z" fill="white"/>
<path d="M52 238.491C52 237.269 52 236.658 52.0715 236.191C52.1344 235.781 52.2347 235.447 52.3582 235.238C52.4985 235 52.6822 235 53.0496 235H91.9504C92.3178 235 92.5015 235 92.6418 235.238C92.7653 235.447 92.8656 235.781 92.9285 236.191C93 236.658 93 237.269 93 238.491V243.509C93 244.731 93 245.342 92.9285 245.809C92.8656 246.219 92.7653 246.553 92.6418 246.762C92.5015 247 92.3178 247 91.9504 247H53.0496C52.6822 247 52.4985 247 52.3582 246.762C52.2347 246.553 52.1344 246.219 52.0715 245.809C52 245.342 52 244.731 52 243.509V238.491Z" fill="#222224"/>
<path d="M52 92.4545C52 91.9454 52 91.6908 52.0488 91.4964C52.0918 91.3253 52.1603 91.1862 52.2446 91.0991C52.3404 91 52.4659 91 52.7168 91H79.2832C79.5341 91 79.6596 91 79.7554 91.0991C79.8397 91.1862 79.9082 91.3253 79.9512 91.4964C80 91.6908 80 91.9454 80 92.4545V94.5455C80 95.0546 80 95.3092 79.9512 95.5036C79.9082 95.6747 79.8397 95.8138 79.7554 95.9009C79.6596 96 79.5341 96 79.2832 96H52.7168C52.4659 96 52.3404 96 52.2446 95.9009C52.1603 95.8138 52.0918 95.6747 52.0488 95.5036C52 95.3092 52 95.0546 52 94.5455V92.4545Z" fill="#424754"/>
<path d="M52 100.455C52 99.9454 52 99.6908 52.0994 99.4964C52.1868 99.3253 52.3264 99.1862 52.498 99.0991C52.693 99 52.9484 99 53.4592 99H107.541C108.052 99 108.307 99 108.502 99.0991C108.674 99.1862 108.813 99.3253 108.901 99.4964C109 99.6908 109 99.9454 109 100.455V102.545C109 103.055 109 103.309 108.901 103.504C108.813 103.675 108.674 103.814 108.502 103.901C108.307 104 108.052 104 107.541 104H53.4592C52.9484 104 52.693 104 52.498 103.901C52.3264 103.814 52.1868 103.675 52.0994 103.504C52 103.309 52 103.055 52 102.545V100.455Z" fill="#424754"/>
<path d="M57.1156 147.821C56.2264 147.439 55.1923 147.849 54.8466 148.753C51.7663 156.809 51.1654 165.618 53.1439 174.041C55.2562 183.033 60.1972 191.111 67.2407 197.087C74.2842 203.063 83.0589 206.622 92.2752 207.242C101.492 207.861 110.663 205.508 118.443 200.528C126.223 195.548 132.2 188.204 135.496 179.575C138.793 170.946 139.234 161.487 136.756 152.589C134.278 143.69 129.011 135.821 121.73 130.138C114.909 124.815 106.657 121.672 98.0514 121.096C97.0858 121.032 96.2805 121.799 96.2551 122.767C96.2297 123.734 96.9941 124.535 97.9595 124.603C105.816 125.157 113.344 128.039 119.573 132.901C126.264 138.122 131.103 145.353 133.38 153.529C135.657 161.705 135.251 170.396 132.222 178.324C129.194 186.252 123.702 193 116.554 197.576C109.406 202.152 100.978 204.314 92.5102 203.745C84.0421 203.176 75.9798 199.906 69.5081 194.415C63.0364 188.924 58.4966 181.502 56.5557 173.24C54.7487 165.547 55.2834 157.504 58.0696 150.137C58.412 149.232 58.0048 148.203 57.1156 147.821Z" fill="#27AE60"/>
<path d="M82.1367 161.548C82.1367 160.47 82.1367 159.931 82.1808 159.519C82.2195 159.157 82.2813 158.862 82.3573 158.678C82.4437 158.468 82.5569 158.468 82.7831 158.468H106.74C106.967 158.468 107.08 158.468 107.166 158.678C107.242 158.862 107.304 159.157 107.343 159.519C107.387 159.931 107.387 160.47 107.387 161.548V165.976C107.387 167.054 107.387 167.593 107.343 168.005C107.304 168.368 107.242 168.662 107.166 168.847C107.08 169.056 106.967 169.056 106.74 169.056H82.7831C82.5569 169.056 82.4437 169.056 82.3573 168.847C82.2813 168.662 82.2195 168.368 82.1808 168.005C82.1367 167.593 82.1367 167.054 82.1367 165.976V161.548Z" fill="#424754"/>
<path d="M52 219.112C52 218.698 52 218.49 52.1122 218.332C52.2109 218.193 52.3684 218.079 52.5621 218.008C52.7824 217.928 53.0707 217.928 53.6473 217.928H114.699C115.276 217.928 115.564 217.928 115.785 218.008C115.978 218.079 116.136 218.193 116.235 218.332C116.347 218.49 116.347 218.698 116.347 219.112V220.816C116.347 221.23 116.347 221.438 116.235 221.596C116.136 221.735 115.978 221.849 115.785 221.92C115.564 222 115.276 222 114.699 222H53.6473C53.0707 222 52.7824 222 52.5621 221.92C52.3684 221.849 52.2109 221.735 52.1122 221.596C52 221.438 52 221.23 52 220.816V219.112Z" fill="#97999D"/>
<path d="M219 76.88C219 75.8719 219 75.3679 219.061 74.9828C219.115 74.6441 219.201 74.3688 219.307 74.1962C219.427 74 219.584 74 219.899 74H322.101C322.416 74 322.573 74 322.693 74.1962C322.799 74.3688 322.885 74.6441 322.939 74.9828C323 75.3679 323 75.8719 323 76.88V266.12C323 267.128 323 267.632 322.939 268.017C322.885 268.356 322.799 268.631 322.693 268.804C322.573 269 322.416 269 322.101 269H219.899C219.584 269 219.427 269 219.307 268.804C219.201 268.631 219.115 268.356 219.061 268.017C219 267.632 219 267.128 219 266.12V76.88Z" fill="white"/>
<path d="M239 232.109C239 229.971 239 228.902 239.112 228.085C239.21 227.366 239.366 226.782 239.559 226.416C239.778 226 240.065 226 240.638 226H301.362C301.935 226 302.222 226 302.441 226.416C302.634 226.782 302.79 227.366 302.888 228.085C303 228.902 303 229.971 303 232.109V240.891C303 243.029 303 244.098 302.888 244.915C302.79 245.634 302.634 246.218 302.441 246.584C302.222 247 301.935 247 301.362 247H240.638C240.065 247 239.778 247 239.559 246.584C239.366 246.218 239.21 245.634 239.112 244.915C239 244.098 239 243.029 239 240.891V232.109Z" fill="#F04B5D"/>
<path d="M239 92.4545C239 91.9454 239 91.6908 239.061 91.4964C239.115 91.3253 239.2 91.1862 239.306 91.0991C239.426 91 239.582 91 239.896 91H273.104C273.418 91 273.574 91 273.694 91.0991C273.8 91.1862 273.885 91.3253 273.939 91.4964C274 91.6908 274 91.9454 274 92.4545V94.5455C274 95.0546 274 95.3092 273.939 95.5036C273.885 95.6747 273.8 95.8138 273.694 95.9009C273.574 96 273.418 96 273.104 96H239.896C239.582 96 239.426 96 239.306 95.9009C239.2 95.8138 239.115 95.6747 239.061 95.5036C239 95.3092 239 95.0546 239 94.5455V92.4545Z" fill="#424754"/>
<path d="M248 117.164C248 116.756 248 116.553 248.087 116.397C248.164 116.26 248.286 116.149 248.437 116.079C248.608 116 248.832 116 249.28 116H296.72C297.168 116 297.392 116 297.563 116.079C297.714 116.149 297.836 116.26 297.913 116.397C298 116.553 298 116.756 298 117.164V118.836C298 119.244 298 119.447 297.913 119.603C297.836 119.74 297.714 119.851 297.563 119.921C297.392 120 297.168 120 296.72 120H249.28C248.832 120 248.608 120 248.437 119.921C248.286 119.851 248.164 119.74 248.087 119.603C248 119.447 248 119.244 248 118.836V117.164Z" fill="#97999D"/>
<path d="M239 117.164C239 116.756 239 116.553 239.007 116.397C239.013 116.26 239.023 116.149 239.035 116.079C239.049 116 239.067 116 239.102 116H242.898C242.933 116 242.951 116 242.965 116.079C242.977 116.149 242.987 116.26 242.993 116.397C243 116.553 243 116.756 243 117.164V118.836C243 119.244 243 119.447 242.993 119.603C242.987 119.74 242.977 119.851 242.965 119.921C242.951 120 242.933 120 242.898 120H239.102C239.067 120 239.049 120 239.035 119.921C239.023 119.851 239.013 119.74 239.007 119.603C239 119.447 239 119.244 239 118.836V117.164Z" fill="#F04B5D"/>
<path d="M248 134.164C248 133.756 248 133.553 248.087 133.397C248.164 133.26 248.286 133.149 248.437 133.079C248.608 133 248.832 133 249.28 133H296.72C297.168 133 297.392 133 297.563 133.079C297.714 133.149 297.836 133.26 297.913 133.397C298 133.553 298 133.756 298 134.164V135.836C298 136.244 298 136.447 297.913 136.603C297.836 136.74 297.714 136.851 297.563 136.921C297.392 137 297.168 137 296.72 137H249.28C248.832 137 248.608 137 248.437 136.921C248.286 136.851 248.164 136.74 248.087 136.603C248 136.447 248 136.244 248 135.836V134.164Z" fill="#97999D"/>
<path d="M239 134.164C239 133.756 239 133.553 239.007 133.397C239.013 133.26 239.023 133.149 239.035 133.079C239.049 133 239.067 133 239.102 133H242.898C242.933 133 242.951 133 242.965 133.079C242.977 133.149 242.987 133.26 242.993 133.397C243 133.553 243 133.756 243 134.164V135.836C243 136.244 243 136.447 242.993 136.603C242.987 136.74 242.977 136.851 242.965 136.921C242.951 137 242.933 137 242.898 137H239.102C239.067 137 239.049 137 239.035 136.921C239.023 136.851 239.013 136.74 239.007 136.603C239 136.447 239 136.244 239 135.836V134.164Z" fill="#F04B5D"/>
<path d="M248 151.164C248 150.756 248 150.553 248.087 150.397C248.164 150.26 248.286 150.149 248.437 150.079C248.608 150 248.832 150 249.28 150H296.72C297.168 150 297.392 150 297.563 150.079C297.714 150.149 297.836 150.26 297.913 150.397C298 150.553 298 150.756 298 151.164V152.836C298 153.244 298 153.447 297.913 153.603C297.836 153.74 297.714 153.851 297.563 153.921C297.392 154 297.168 154 296.72 154H249.28C248.832 154 248.608 154 248.437 153.921C248.286 153.851 248.164 153.74 248.087 153.603C248 153.447 248 153.244 248 152.836V151.164Z" fill="#97999D"/>
<path d="M239 151.164C239 150.756 239 150.553 239.007 150.397C239.013 150.26 239.023 150.149 239.035 150.079C239.049 150 239.067 150 239.102 150H242.898C242.933 150 242.951 150 242.965 150.079C242.977 150.149 242.987 150.26 242.993 150.397C243 150.553 243 150.756 243 151.164V152.836C243 153.244 243 153.447 242.993 153.603C242.987 153.74 242.977 153.851 242.965 153.921C242.951 154 242.933 154 242.898 154H239.102C239.067 154 239.049 154 239.035 153.921C239.023 153.851 239.013 153.74 239.007 153.603C239 153.447 239 153.244 239 152.836V151.164Z" fill="#F04B5D"/>
<path d="M248 168.164C248 167.756 248 167.553 248.087 167.397C248.164 167.26 248.286 167.149 248.437 167.079C248.608 167 248.832 167 249.28 167H296.72C297.168 167 297.392 167 297.563 167.079C297.714 167.149 297.836 167.26 297.913 167.397C298 167.553 298 167.756 298 168.164V169.836C298 170.244 298 170.447 297.913 170.603C297.836 170.74 297.714 170.851 297.563 170.921C297.392 171 297.168 171 296.72 171H249.28C248.832 171 248.608 171 248.437 170.921C248.286 170.851 248.164 170.74 248.087 170.603C248 170.447 248 170.244 248 169.836V168.164Z" fill="#97999D"/>
<path d="M239 168.164C239 167.756 239 167.553 239.007 167.397C239.013 167.26 239.023 167.149 239.035 167.079C239.049 167 239.067 167 239.102 167H242.898C242.933 167 242.951 167 242.965 167.079C242.977 167.149 242.987 167.26 242.993 167.397C243 167.553 243 167.756 243 168.164V169.836C243 170.244 243 170.447 242.993 170.603C242.987 170.74 242.977 170.851 242.965 170.921C242.951 171 242.933 171 242.898 171H239.102C239.067 171 239.049 171 239.035 170.921C239.023 170.851 239.013 170.74 239.007 170.603C239 170.447 239 170.244 239 169.836V168.164Z" fill="#F04B5D"/>
<path d="M343 76.88C343 75.8719 343 75.3679 343.061 74.9828C343.115 74.6441 343.201 74.3688 343.307 74.1962C343.427 74 343.584 74 343.899 74H446.101C446.416 74 446.573 74 446.693 74.1962C446.799 74.3688 446.885 74.6441 446.939 74.9828C447 75.3679 447 75.8719 447 76.88V266.12C447 267.128 447 267.632 446.939 268.017C446.885 268.356 446.799 268.631 446.693 268.804C446.573 269 446.416 269 446.101 269H343.899C343.584 269 343.427 269 343.307 268.804C343.201 268.631 343.115 268.356 343.061 268.017C343 267.632 343 267.128 343 266.12V76.88Z" fill="white"/>
<path d="M363 232.109C363 229.971 363 228.902 363.112 228.085C363.21 227.366 363.366 226.782 363.559 226.416C363.778 226 364.065 226 364.638 226H425.362C425.935 226 426.222 226 426.441 226.416C426.634 226.782 426.79 227.366 426.888 228.085C427 228.902 427 229.971 427 232.109V240.891C427 243.029 427 244.098 426.888 244.915C426.79 245.634 426.634 246.218 426.441 246.584C426.222 247 425.935 247 425.362 247H364.638C364.065 247 363.778 247 363.559 246.584C363.366 246.218 363.21 245.634 363.112 244.915C363 244.098 363 243.029 363 240.891V232.109Z" fill="#F04B5D"/>
<path d="M373 253.582C373 253.378 373 253.276 373.077 253.199C373.144 253.13 373.252 253.074 373.384 253.04C373.535 253 373.732 253 374.126 253H415.874C416.268 253 416.465 253 416.616 253.04C416.748 253.074 416.856 253.13 416.923 253.199C417 253.276 417 253.378 417 253.582V254.418C417 254.622 417 254.724 416.923 254.801C416.856 254.87 416.748 254.926 416.616 254.96C416.465 255 416.268 255 415.874 255H374.126C373.732 255 373.535 255 373.384 254.96C373.252 254.926 373.144 254.87 373.077 254.801C373 254.724 373 254.622 373 254.418V253.582Z" fill="#97999D"/>
<path d="M219 282.582C219 282.378 219 282.276 219.448 282.199C219.842 282.13 220.471 282.074 221.245 282.04C222.125 282 223.276 282 225.579 282H469.421C471.724 282 472.875 282 473.755 282.04C474.529 282.074 475.158 282.13 475.552 282.199C476 282.276 476 282.378 476 282.582V283.418C476 283.622 476 283.724 475.552 283.801C475.158 283.87 474.529 283.926 473.755 283.96C472.875 284 471.724 284 469.421 284H225.579C223.276 284 222.125 284 221.245 283.96C220.471 283.926 219.842 283.87 219.448 283.801C219 283.724 219 283.622 219 283.418V282.582Z" fill="#DBE0E8"/>
<path d="M219 282.582C219 282.378 219 282.276 219.063 282.199C219.118 282.13 219.206 282.074 219.315 282.04C219.438 282 219.599 282 219.922 282H254.078C254.401 282 254.562 282 254.685 282.04C254.794 282.074 254.882 282.13 254.937 282.199C255 282.276 255 282.378 255 282.582V283.418C255 283.622 255 283.724 254.937 283.801C254.882 283.87 254.794 283.926 254.685 283.96C254.562 284 254.401 284 254.078 284H219.922C219.599 284 219.438 284 219.315 283.96C219.206 283.926 219.118 283.87 219.063 283.801C219 283.724 219 283.622 219 283.418V282.582Z" fill="#5F646A"/>
<path d="M363 92.4545C363 91.9454 363 91.6908 363.061 91.4964C363.115 91.3253 363.2 91.1862 363.306 91.0991C363.426 91 363.582 91 363.896 91H397.104C397.418 91 397.574 91 397.694 91.0991C397.8 91.1862 397.885 91.3253 397.939 91.4964C398 91.6908 398 91.9454 398 92.4545V94.5455C398 95.0546 398 95.3092 397.939 95.5036C397.885 95.6747 397.8 95.8138 397.694 95.9009C397.574 96 397.418 96 397.104 96H363.896C363.582 96 363.426 96 363.306 95.9009C363.2 95.8138 363.115 95.6747 363.061 95.5036C363 95.3092 363 95.0546 363 94.5455V92.4545Z" fill="#424754"/>
<path d="M429 83.9091C429 82.8908 429 82.3817 429.017 81.9927C429.033 81.6506 429.057 81.3725 429.087 81.1982C429.122 81 429.166 81 429.256 81H438.744C438.834 81 438.878 81 438.913 81.1982C438.943 81.3725 438.967 81.6506 438.983 81.9927C439 82.3817 439 82.8908 439 83.9091V88.0909C439 89.1092 439 89.6183 438.983 90.0073C438.967 90.3494 438.943 90.6275 438.913 90.8018C438.878 91 438.834 91 438.744 91H429.256C429.166 91 429.122 91 429.087 90.8018C429.057 90.6275 429.033 90.3494 429.017 90.0073C429 89.6183 429 89.1092 429 88.0909V83.9091Z" fill="#F04B5D"/>
<path d="M372 117.164C372 116.756 372 116.553 372.087 116.397C372.164 116.26 372.286 116.149 372.437 116.079C372.608 116 372.832 116 373.28 116H420.72C421.168 116 421.392 116 421.563 116.079C421.714 116.149 421.836 116.26 421.913 116.397C422 116.553 422 116.756 422 117.164V118.836C422 119.244 422 119.447 421.913 119.603C421.836 119.74 421.714 119.851 421.563 119.921C421.392 120 421.168 120 420.72 120H373.28C372.832 120 372.608 120 372.437 119.921C372.286 119.851 372.164 119.74 372.087 119.603C372 119.447 372 119.244 372 118.836V117.164Z" fill="#97999D"/>
<path d="M363 117.164C363 116.756 363 116.553 363.007 116.397C363.013 116.26 363.023 116.149 363.035 116.079C363.049 116 363.067 116 363.102 116H366.898C366.933 116 366.951 116 366.965 116.079C366.977 116.149 366.987 116.26 366.993 116.397C367 116.553 367 116.756 367 117.164V118.836C367 119.244 367 119.447 366.993 119.603C366.987 119.74 366.977 119.851 366.965 119.921C366.951 120 366.933 120 366.898 120H363.102C363.067 120 363.049 120 363.035 119.921C363.023 119.851 363.013 119.74 363.007 119.603C363 119.447 363 119.244 363 118.836V117.164Z" fill="#F04B5D"/>
<path d="M372 134.164C372 133.756 372 133.553 372.087 133.397C372.164 133.26 372.286 133.149 372.437 133.079C372.608 133 372.832 133 373.28 133H420.72C421.168 133 421.392 133 421.563 133.079C421.714 133.149 421.836 133.26 421.913 133.397C422 133.553 422 133.756 422 134.164V135.836C422 136.244 422 136.447 421.913 136.603C421.836 136.74 421.714 136.851 421.563 136.921C421.392 137 421.168 137 420.72 137H373.28C372.832 137 372.608 137 372.437 136.921C372.286 136.851 372.164 136.74 372.087 136.603C372 136.447 372 136.244 372 135.836V134.164Z" fill="#97999D"/>
<path d="M363 134.164C363 133.756 363 133.553 363.007 133.397C363.013 133.26 363.023 133.149 363.035 133.079C363.049 133 363.067 133 363.102 133H366.898C366.933 133 366.951 133 366.965 133.079C366.977 133.149 366.987 133.26 366.993 133.397C367 133.553 367 133.756 367 134.164V135.836C367 136.244 367 136.447 366.993 136.603C366.987 136.74 366.977 136.851 366.965 136.921C366.951 137 366.933 137 366.898 137H363.102C363.067 137 363.049 137 363.035 136.921C363.023 136.851 363.013 136.74 363.007 136.603C363 136.447 363 136.244 363 135.836V134.164Z" fill="#F04B5D"/>
<path d="M467 76.88C467 75.8719 467 75.3679 467.061 74.9828C467.115 74.6441 467.201 74.3688 467.307 74.1962C467.427 74 467.584 74 467.899 74H570.101C570.416 74 570.573 74 570.693 74.1962C570.799 74.3688 570.885 74.6441 570.939 74.9828C571 75.3679 571 75.8719 571 76.88V266.12C571 267.128 571 267.632 570.939 268.017C570.885 268.356 570.799 268.631 570.693 268.804C570.573 269 570.416 269 570.101 269H467.899C467.584 269 467.427 269 467.307 268.804C467.201 268.631 467.115 268.356 467.061 268.017C467 267.632 467 267.128 467 266.12V76.88Z" fill="white"/>
<path d="M487 232.109C487 229.971 487 228.902 487.112 228.085C487.21 227.366 487.366 226.782 487.559 226.416C487.778 226 488.065 226 488.638 226H549.362C549.935 226 550.222 226 550.441 226.416C550.634 226.782 550.79 227.366 550.888 228.085C551 228.902 551 229.971 551 232.109V240.891C551 243.029 551 244.098 550.888 244.915C550.79 245.634 550.634 246.218 550.441 246.584C550.222 247 549.935 247 549.362 247H488.638C488.065 247 487.778 247 487.559 246.584C487.366 246.218 487.21 245.634 487.112 244.915C487 244.098 487 243.029 487 240.891V232.109Z" fill="#F04B5D"/>
<path d="M487 92.4545C487 91.9454 487 91.6908 487.061 91.4964C487.115 91.3253 487.2 91.1862 487.306 91.0991C487.426 91 487.582 91 487.896 91H521.104C521.418 91 521.574 91 521.694 91.0991C521.8 91.1862 521.885 91.3253 521.939 91.4964C522 91.6908 522 91.9454 522 92.4545V94.5455C522 95.0546 522 95.3092 521.939 95.5036C521.885 95.6747 521.8 95.8138 521.694 95.9009C521.574 96 521.418 96 521.104 96H487.896C487.582 96 487.426 96 487.306 95.9009C487.2 95.8138 487.115 95.6747 487.061 95.5036C487 95.3092 487 95.0546 487 94.5455V92.4545Z" fill="#424754"/>
<path d="M496 117.164C496 116.756 496 116.553 496.087 116.397C496.164 116.26 496.286 116.149 496.437 116.079C496.608 116 496.832 116 497.28 116H544.72C545.168 116 545.392 116 545.563 116.079C545.714 116.149 545.836 116.26 545.913 116.397C546 116.553 546 116.756 546 117.164V118.836C546 119.244 546 119.447 545.913 119.603C545.836 119.74 545.714 119.851 545.563 119.921C545.392 120 545.168 120 544.72 120H497.28C496.832 120 496.608 120 496.437 119.921C496.286 119.851 496.164 119.74 496.087 119.603C496 119.447 496 119.244 496 118.836V117.164Z" fill="#97999D"/>
<path d="M487 117.164C487 116.756 487 116.553 487.007 116.397C487.013 116.26 487.023 116.149 487.035 116.079C487.049 116 487.067 116 487.102 116H490.898C490.933 116 490.951 116 490.965 116.079C490.977 116.149 490.987 116.26 490.993 116.397C491 116.553 491 116.756 491 117.164V118.836C491 119.244 491 119.447 490.993 119.603C490.987 119.74 490.977 119.851 490.965 119.921C490.951 120 490.933 120 490.898 120H487.102C487.067 120 487.049 120 487.035 119.921C487.023 119.851 487.013 119.74 487.007 119.603C487 119.447 487 119.244 487 118.836V117.164Z" fill="#F04B5D"/>
<path d="M496 134.164C496 133.756 496 133.553 496.087 133.397C496.164 133.26 496.286 133.149 496.437 133.079C496.608 133 496.832 133 497.28 133H544.72C545.168 133 545.392 133 545.563 133.079C545.714 133.149 545.836 133.26 545.913 133.397C546 133.553 546 133.756 546 134.164V135.836C546 136.244 546 136.447 545.913 136.603C545.836 136.74 545.714 136.851 545.563 136.921C545.392 137 545.168 137 544.72 137H497.28C496.832 137 496.608 137 496.437 136.921C496.286 136.851 496.164 136.74 496.087 136.603C496 136.447 496 136.244 496 135.836V134.164Z" fill="#97999D"/>
<path d="M487 134.164C487 133.756 487 133.553 487.007 133.397C487.013 133.26 487.023 133.149 487.035 133.079C487.049 133 487.067 133 487.102 133H490.898C490.933 133 490.951 133 490.965 133.079C490.977 133.149 490.987 133.26 490.993 133.397C491 133.553 491 133.756 491 134.164V135.836C491 136.244 491 136.447 490.993 136.603C490.987 136.74 490.977 136.851 490.965 136.921C490.951 137 490.933 137 490.898 137H487.102C487.067 137 487.049 137 487.035 136.921C487.023 136.851 487.013 136.74 487.007 136.603C487 136.447 487 136.244 487 135.836V134.164Z" fill="#F04B5D"/>
<path d="M496 151.164C496 150.756 496 150.553 496.087 150.397C496.164 150.26 496.286 150.149 496.437 150.079C496.608 150 496.832 150 497.28 150H544.72C545.168 150 545.392 150 545.563 150.079C545.714 150.149 545.836 150.26 545.913 150.397C546 150.553 546 150.756 546 151.164V152.836C546 153.244 546 153.447 545.913 153.603C545.836 153.74 545.714 153.851 545.563 153.921C545.392 154 545.168 154 544.72 154H497.28C496.832 154 496.608 154 496.437 153.921C496.286 153.851 496.164 153.74 496.087 153.603C496 153.447 496 153.244 496 152.836V151.164Z" fill="#97999D"/>
<path d="M487 151.164C487 150.756 487 150.553 487.007 150.397C487.013 150.26 487.023 150.149 487.035 150.079C487.049 150 487.067 150 487.102 150H490.898C490.933 150 490.951 150 490.965 150.079C490.977 150.149 490.987 150.26 490.993 150.397C491 150.553 491 150.756 491 151.164V152.836C491 153.244 491 153.447 490.993 153.603C490.987 153.74 490.977 153.851 490.965 153.921C490.951 154 490.933 154 490.898 154H487.102C487.067 154 487.049 154 487.035 153.921C487.023 153.851 487.013 153.74 487.007 153.603C487 153.447 487 153.244 487 152.836V151.164Z" fill="#F04B5D"/>
<path d="M496 168.164C496 167.756 496 167.553 496.087 167.397C496.164 167.26 496.286 167.149 496.437 167.079C496.608 167 496.832 167 497.28 167H544.72C545.168 167 545.392 167 545.563 167.079C545.714 167.149 545.836 167.26 545.913 167.397C546 167.553 546 167.756 546 168.164V169.836C546 170.244 546 170.447 545.913 170.603C545.836 170.74 545.714 170.851 545.563 170.921C545.392 171 545.168 171 544.72 171H497.28C496.832 171 496.608 171 496.437 170.921C496.286 170.851 496.164 170.74 496.087 170.603C496 170.447 496 170.244 496 169.836V168.164Z" fill="#97999D"/>
<path d="M487 168.164C487 167.756 487 167.553 487.007 167.397C487.013 167.26 487.023 167.149 487.035 167.079C487.049 167 487.067 167 487.102 167H490.898C490.933 167 490.951 167 490.965 167.079C490.977 167.149 490.987 167.26 490.993 167.397C491 167.553 491 167.756 491 168.164V169.836C491 170.244 491 170.447 490.993 170.603C490.987 170.74 490.977 170.851 490.965 170.921C490.951 171 490.933 171 490.898 171H487.102C487.067 171 487.049 171 487.035 170.921C487.023 170.851 487.013 170.74 487.007 170.603C487 170.447 487 170.244 487 169.836V168.164Z" fill="#F04B5D"/>
<path d="M496 185.164C496 184.756 496 184.553 496.087 184.397C496.164 184.26 496.286 184.149 496.437 184.079C496.608 184 496.832 184 497.28 184H544.72C545.168 184 545.392 184 545.563 184.079C545.714 184.149 545.836 184.26 545.913 184.397C546 184.553 546 184.756 546 185.164V186.836C546 187.244 546 187.447 545.913 187.603C545.836 187.74 545.714 187.851 545.563 187.921C545.392 188 545.168 188 544.72 188H497.28C496.832 188 496.608 188 496.437 187.921C496.286 187.851 496.164 187.74 496.087 187.603C496 187.447 496 187.244 496 186.836V185.164Z" fill="#97999D"/>
<path d="M487 185.164C487 184.756 487 184.553 487.007 184.397C487.013 184.26 487.023 184.149 487.035 184.079C487.049 184 487.067 184 487.102 184H490.898C490.933 184 490.951 184 490.965 184.079C490.977 184.149 490.987 184.26 490.993 184.397C491 184.553 491 184.756 491 185.164V186.836C491 187.244 491 187.447 490.993 187.603C490.987 187.74 490.977 187.851 490.965 187.921C490.951 188 490.933 188 490.898 188H487.102C487.067 188 487.049 188 487.035 187.921C487.023 187.851 487.013 187.74 487.007 187.603C487 187.447 487 187.244 487 186.836V185.164Z" fill="#F04B5D"/>
<path d="M496 202.164C496 201.756 496 201.553 496.087 201.397C496.164 201.26 496.286 201.149 496.437 201.079C496.608 201 496.832 201 497.28 201H544.72C545.168 201 545.392 201 545.563 201.079C545.714 201.149 545.836 201.26 545.913 201.397C546 201.553 546 201.756 546 202.164V203.836C546 204.244 546 204.447 545.913 204.603C545.836 204.74 545.714 204.851 545.563 204.921C545.392 205 545.168 205 544.72 205H497.28C496.832 205 496.608 205 496.437 204.921C496.286 204.851 496.164 204.74 496.087 204.603C496 204.447 496 204.244 496 203.836V202.164Z" fill="#97999D"/>
<path d="M487 202.164C487 201.756 487 201.553 487.007 201.397C487.013 201.26 487.023 201.149 487.035 201.079C487.049 201 487.067 201 487.102 201H490.898C490.933 201 490.951 201 490.965 201.079C490.977 201.149 490.987 201.26 490.993 201.397C491 201.553 491 201.756 491 202.164V203.836C491 204.244 491 204.447 490.993 204.603C490.987 204.74 490.977 204.851 490.965 204.921C490.951 205 490.933 205 490.898 205H487.102C487.067 205 487.049 205 487.035 204.921C487.023 204.851 487.013 204.74 487.007 204.603C487 204.447 487 204.244 487 203.836V202.164Z" fill="#F04B5D"/>
<path d="M30 24.4545C30 23.9454 30 23.6908 30.0994 23.4964C30.1868 23.3253 30.3264 23.1862 30.498 23.0991C30.693 23 30.9484 23 31.4592 23H85.5408C86.0516 23 86.307 23 86.502 23.0991C86.6736 23.1862 86.8132 23.3253 86.9006 23.4964C87 23.6908 87 23.9454 87 24.4545V26.5455C87 27.0546 87 27.3092 86.9006 27.5036C86.8132 27.6747 86.6736 27.8138 86.502 27.9009C86.307 28 86.0516 28 85.5408 28H31.4592C30.9484 28 30.693 28 30.498 27.9009C30.3264 27.8138 30.1868 27.6747 30.0994 27.5036C30 27.3092 30 27.0546 30 26.5455V24.4545Z" fill="#424754"/>
<path d="M447 24.4545C447 23.9454 447 23.6908 447.031 23.4964C447.059 23.3253 447.103 23.1862 447.157 23.0991C447.219 23 447.3 23 447.461 23H464.539C464.7 23 464.781 23 464.843 23.0991C464.897 23.1862 464.941 23.3253 464.969 23.4964C465 23.6908 465 23.9454 465 24.4545V26.5455C465 27.0546 465 27.3092 464.969 27.5036C464.941 27.6747 464.897 27.8138 464.843 27.9009C464.781 28 464.7 28 464.539 28H447.461C447.3 28 447.219 28 447.157 27.9009C447.103 27.8138 447.059 27.6747 447.031 27.5036C447 27.3092 447 27.0546 447 26.5455V24.4545Z" fill="#97999D"/>
</g>
<defs>
<clipPath id="clip0">
<rect width="509" height="298" fill="white"/>
</clipPath>
</defs>
</svg>
