<svg width="1110" height="298" viewBox="0 0 1110 298" fill="none" xmlns="http://www.w3.org/2000/svg">
<path d="M2.7 74H9V53.624H18.144V74H24.444V48.26H2.7V74ZM27.7979 64.784C27.7979 70.58 32.4779 74.432 38.3099 74.432C44.1419 74.432 48.8219 70.58 48.8219 64.784C48.8219 58.952 44.1419 55.028 38.2739 55.028C32.4779 55.028 27.7979 58.952 27.7979 64.784ZM34.0979 64.784C34.0979 61.976 36.0419 60.212 38.3099 60.212C40.5779 60.212 42.5219 61.976 42.5219 64.784C42.5219 67.556 40.5779 69.248 38.3099 69.248C36.0419 69.248 34.0979 67.556 34.0979 64.784ZM58.428 69.068C59.724 66.584 60.084 63.884 60.084 61.076V60.392H63.288V69.068H58.428ZM50.004 69.068V78.32H55.764V74H66.636V78.32H72.18V69.068H69.516V55.46H54.216V59.924C54.216 63.668 53.532 66.98 52.308 69.068H50.004ZM75.0372 74H81.2652V60.68H88.1052V55.46H75.0372V74ZM89.4268 64.784C89.4268 70.58 94.1068 74.432 99.9388 74.432C105.771 74.432 110.451 70.58 110.451 64.784C110.451 58.952 105.771 55.028 99.9028 55.028C94.1068 55.028 89.4268 58.952 89.4268 64.784ZM95.7268 64.784C95.7268 61.976 97.6708 60.212 99.9388 60.212C102.207 60.212 104.151 61.976 104.151 64.784C104.151 67.556 102.207 69.248 99.9388 69.248C97.6708 69.248 95.7268 67.556 95.7268 64.784ZM117.426 74H123.654V60.68H129.306V55.46H111.81V60.68H117.426V74ZM130.665 64.784C130.665 70.58 135.345 74.432 141.177 74.432C147.009 74.432 151.689 70.58 151.689 64.784C151.689 58.952 147.009 55.028 141.141 55.028C135.345 55.028 130.665 58.952 130.665 64.784ZM136.965 64.784C136.965 61.976 138.909 60.212 141.177 60.212C143.445 60.212 145.389 61.976 145.389 64.784C145.389 67.556 143.445 69.248 141.177 69.248C138.909 69.248 136.965 67.556 136.965 64.784ZM154.807 74H164.923C168.595 74 171.979 72.56 171.979 68.492C171.979 66.872 171.187 65.036 169.063 64.388V64.352C170.467 63.524 171.223 61.868 171.223 60.32C171.223 57.116 168.631 55.46 164.923 55.46H154.807V74ZM161.035 62.768V59.312H163.303C164.527 59.312 165.031 60.068 165.031 60.932C165.031 61.904 164.527 62.768 163.375 62.768H161.035ZM161.035 70.112V66.404H163.807C165.139 66.404 165.751 67.268 165.751 68.276C165.751 69.212 165.103 70.112 163.771 70.112H161.035ZM175.197 74H181.245L186.393 65.864C186.681 65.36 187.077 64.784 187.401 64.028H187.473C187.401 64.748 187.401 65.468 187.401 65.9V74H193.269V55.46H187.221L182.073 63.632C181.749 64.172 181.389 64.712 181.065 65.468H180.993C181.029 65 181.065 64.28 181.065 63.632V55.46H175.197V74ZM196.659 74H202.599L203.031 65.468C203.103 64.028 202.995 62.3 202.995 62.3H203.067C203.067 62.3 203.751 63.848 204.147 65.036L206.595 71.516H211.635L214.083 65.036C214.551 63.884 215.091 62.3 215.091 62.3H215.163C215.163 62.3 215.091 64.028 215.127 65.468L215.559 74H221.535L219.771 55.46H212.607L209.871 63.596C209.547 64.532 209.115 65.756 209.115 65.756H209.079C209.079 65.756 208.683 64.532 208.359 63.596L205.623 55.46H198.423L196.659 74ZM233.908 74H240.136V67.196H242.08L246.004 74H253.096L246.904 64.352V64.28L252.34 55.46H245.572L241.9 61.976H240.136V55.46H233.908V74ZM264.178 74H274.294C277.966 74 281.35 72.56 281.35 68.492C281.35 66.872 280.558 65.036 278.434 64.388V64.352C279.838 63.524 280.594 61.868 280.594 60.32C280.594 57.116 278.002 55.46 274.294 55.46H264.178V74ZM270.406 62.768V59.312H272.674C273.898 59.312 274.402 60.068 274.402 60.932C274.402 61.904 273.898 62.768 272.746 62.768H270.406ZM270.406 70.112V66.404H273.178C274.51 66.404 275.122 67.268 275.122 68.276C275.122 69.212 274.474 70.112 273.142 70.112H270.406ZM303.072 74H309.3V55.46H303.072V74ZM284.568 74H293.604C298.788 74 300.948 71.444 300.948 67.664C300.948 63.92 298.788 61.256 293.604 61.256H290.796V55.46H284.568V74ZM290.796 69.932V65.288H292.344C293.928 65.288 294.72 66.332 294.72 67.628C294.72 68.924 293.928 69.932 292.452 69.932H290.796ZM313.467 74H319.695V60.68H325.203V74H331.431V55.46H313.467V74ZM335.795 75.692L333.815 80.264C333.815 80.264 335.687 81.56 338.135 81.56C341.087 81.56 344.327 80.12 345.875 75.98L353.471 55.46H346.667L344.327 64.1C344.075 65.108 343.715 66.872 343.715 66.872H343.643C343.643 66.872 343.283 65 342.959 63.992L340.223 55.46H333.167L341.051 73.64L340.691 74.504C340.043 76.088 338.711 76.376 337.703 76.376C336.803 76.376 335.795 75.692 335.795 75.692ZM354.118 64.712C354.118 69.824 357.826 74.432 364.45 74.432C367.546 74.432 370.57 73.244 372.406 71.372L370.138 67.016C368.806 68.168 366.862 69.248 365.062 69.248C361.93 69.248 360.418 66.836 360.418 64.64C360.418 62.444 361.894 60.212 364.846 60.212C366.466 60.212 368.122 60.968 369.202 62.012L371.83 57.836C369.994 55.856 367.042 55.028 364.45 55.028C357.79 55.028 354.118 59.744 354.118 64.712ZM375.026 74H381.254V67.196H383.198L387.122 74H394.214L388.022 64.352V64.28L393.458 55.46H386.69L383.018 61.976H381.254V55.46H375.026V74ZM396.295 74H402.523V67.232H408.247V74H414.475V55.46H408.247V62.012H402.523V55.46H396.295V74ZM437.158 74H443.386V55.46H437.158V74ZM418.654 74H427.69C432.874 74 435.034 71.444 435.034 67.664C435.034 63.92 432.874 61.256 427.69 61.256H424.882V55.46H418.654V74ZM424.882 69.932V65.288H426.43C428.014 65.288 428.806 66.332 428.806 67.628C428.806 68.924 428.014 69.932 426.538 69.932H424.882ZM446.761 74H452.701L453.133 65.468C453.205 64.028 453.097 62.3 453.097 62.3H453.169C453.169 62.3 453.853 63.848 454.249 65.036L456.697 71.516H461.737L464.185 65.036C464.653 63.884 465.193 62.3 465.193 62.3H465.265C465.265 62.3 465.193 64.028 465.229 65.468L465.661 74H471.637L469.873 55.46H462.709L459.973 63.596C459.649 64.532 459.217 65.756 459.217 65.756H459.181C459.181 65.756 458.785 64.532 458.461 63.596L455.725 55.46H448.525L446.761 74ZM2.088 116H8.136L13.284 107.864C13.572 107.36 13.968 106.784 14.292 106.028H14.364C14.292 106.748 14.292 107.468 14.292 107.9V116H20.16V97.46H14.112L8.964 105.632C8.64 106.172 8.28 106.712 7.956 107.468H7.884C7.92 107 7.956 106.28 7.956 105.632V97.46H2.088V116ZM33.3419 116H43.4579C47.1299 116 50.5139 114.56 50.5139 110.492C50.5139 108.872 49.7219 107.036 47.5979 106.388V106.352C49.0019 105.524 49.7579 103.868 49.7579 102.32C49.7579 99.116 47.1659 97.46 43.4579 97.46H33.3419V116ZM39.5699 104.768V101.312H41.8379C43.0619 101.312 43.5659 102.068 43.5659 102.932C43.5659 103.904 43.0619 104.768 41.9099 104.768H39.5699ZM39.5699 112.112V108.404H42.3419C43.6739 108.404 44.2859 109.268 44.2859 110.276C44.2859 111.212 43.6379 112.112 42.3059 112.112H39.5699ZM52.6885 106.712C52.6885 111.824 56.3965 116.432 63.0205 116.432C66.1165 116.432 69.1405 115.244 70.9765 113.372L68.7085 109.016C67.3765 110.168 65.4325 111.248 63.6325 111.248C60.5005 111.248 58.9885 108.836 58.9885 106.64C58.9885 104.444 60.4645 102.212 63.4165 102.212C65.0365 102.212 66.6925 102.968 67.7725 104.012L70.4005 99.836C68.5645 97.856 65.6125 97.028 63.0205 97.028C56.3605 97.028 52.6885 101.744 52.6885 106.712ZM77.6638 116H83.8918V102.68H89.5438V97.46H72.0478V102.68H77.6638V116ZM92.3383 117.692L90.3583 122.264C90.3583 122.264 92.2303 123.56 94.6783 123.56C97.6303 123.56 100.87 122.12 102.418 117.98L110.014 97.46H103.21L100.87 106.1C100.618 107.108 100.258 108.872 100.258 108.872H100.186C100.186 108.872 99.8263 107 99.5023 105.992L96.7663 97.46H89.7103L97.5943 115.64L97.2343 116.504C96.5863 118.088 95.2543 118.376 94.2463 118.376C93.3463 118.376 92.3383 117.692 92.3383 117.692ZM112.338 116H118.566V102.68H124.074V116H130.302V97.46H112.338V116ZM134.486 116H140.534L145.682 107.864C145.97 107.36 146.366 106.784 146.69 106.028H146.762C146.69 106.748 146.69 107.468 146.69 107.9V116H152.558V97.46H146.51L141.362 105.632C141.038 106.172 140.678 106.712 140.354 107.468H140.282C140.318 107 140.354 106.28 140.354 105.632V97.46H134.486V116ZM160.808 116H167.036V102.68H172.688V97.46H155.192V102.68H160.808V116ZM174.048 106.712C174.048 111.644 177.612 116.432 184.236 116.432C187.08 116.432 190.14 115.46 192.156 113.732L189.852 109.376C188.34 110.384 186.576 111.248 184.74 111.248C182.76 111.248 180.888 110.204 180.42 107.936H192.12C192.192 107.288 192.264 106.64 192.264 105.992C192.264 100.844 189.168 97.028 183.696 97.028C177.72 97.028 174.048 101.276 174.048 106.712ZM180.564 104.372C180.888 102.896 181.752 101.6 183.552 101.6C185.136 101.6 186.108 102.86 186.108 104.372H180.564ZM194.009 116.18C201.209 116.18 203.369 110.996 203.369 103.436V102.392H206.465V116H212.693V97.46H197.501V103.4C197.501 109.772 195.665 110.528 194.009 110.744V116.18ZM216.858 116H226.11C231.294 116 233.454 113.444 233.454 109.664C233.454 105.92 231.294 103.256 226.11 103.256H223.086V97.46H216.858V116ZM223.086 111.932V107.288H224.85C226.434 107.288 227.226 108.332 227.226 109.628C227.226 110.924 226.434 111.932 224.958 111.932H223.086ZM236.193 116H242.421V109.232H248.145V116H254.373V97.46H248.145V104.012H242.421V97.46H236.193V116ZM277.057 116H283.285V97.46H277.057V116ZM258.553 116H267.589C272.773 116 274.933 113.444 274.933 109.664C274.933 105.92 272.773 103.256 267.589 103.256H264.781V97.46H258.553V116ZM264.781 111.932V107.288H266.329C267.913 107.288 268.705 108.332 268.705 109.628C268.705 110.924 267.913 111.932 266.437 111.932H264.781ZM286.659 116H292.599L293.031 107.468C293.103 106.028 292.995 104.3 292.995 104.3H293.067C293.067 104.3 293.751 105.848 294.147 107.036L296.595 113.516H301.635L304.083 107.036C304.551 105.884 305.091 104.3 305.091 104.3H305.163C305.163 104.3 305.091 106.028 305.127 107.468L305.559 116H311.535L309.771 97.46H302.607L299.871 105.596C299.547 106.532 299.115 107.756 299.115 107.756H299.079C299.079 107.756 298.683 106.532 298.359 105.596L295.623 97.46H288.423L286.659 116ZM322.396 113.768C324.592 115.604 327.436 116.432 330.244 116.432C336.868 116.432 340.576 111.824 340.576 106.712C340.576 101.744 337.048 97.028 330.388 97.028C327.652 97.028 324.592 97.82 322.72 99.584L325.24 103.616C326.536 102.5 328.264 101.852 330.064 101.852C332.368 101.852 333.988 102.932 334.636 104.624H327.616V108.728H334.6C333.988 110.348 332.368 111.608 329.812 111.608C327.796 111.608 326.032 110.816 324.556 109.592L322.396 113.768ZM343.701 116H349.929V109.196H351.873L355.797 116H362.889L356.697 106.352V106.28L362.133 97.46H355.365L351.693 103.976H349.929V97.46H343.701V116ZM363.423 113.696C365.439 115.496 368.427 116.432 371.163 116.432C375.555 116.432 378.831 114.452 378.831 110.528C378.831 108.368 377.355 107.072 375.951 106.424V106.352C377.067 105.74 378.255 104.48 378.255 102.176C378.255 98.972 375.231 97.028 371.415 97.028C368.031 97.028 365.655 97.928 363.927 99.116L365.727 102.968C367.671 101.816 369.111 101.564 370.119 101.564C371.703 101.564 372.063 102.248 372.063 103.04C372.063 104.192 371.163 104.48 370.191 104.48H368.319V108.584H370.587C372.279 108.584 372.603 109.232 372.603 110.132C372.603 110.996 372.099 111.752 370.371 111.752C368.895 111.752 367.059 110.852 365.907 109.808L363.423 113.696ZM380.654 110.78C380.654 113.984 383.138 116.432 386.702 116.432C388.826 116.432 390.986 115.46 392.21 113.732H392.282C392.282 113.732 392.21 114.272 392.21 114.884V116H397.898V104.588C397.898 99.872 394.73 97.028 389.618 97.028C386.594 97.028 383.354 98.216 381.77 99.44L383.93 103.832C385.406 102.86 387.242 102.068 389.042 102.068C390.41 102.068 391.67 102.572 391.67 104.12V104.444H391.13C386.558 104.444 380.654 105.812 380.654 110.78ZM386.81 110.204C386.81 108.512 389.258 108.008 391.166 108.008H391.742V108.512C391.742 110.024 390.374 111.788 388.574 111.788C387.422 111.788 386.81 111.068 386.81 110.204ZM401.058 116H406.998L407.43 107.468C407.502 106.028 407.394 104.3 407.394 104.3H407.466C407.466 104.3 408.15 105.848 408.546 107.036L410.994 113.516H416.034L418.482 107.036C418.95 105.884 419.49 104.3 419.49 104.3H419.562C419.562 104.3 419.49 106.028 419.526 107.468L419.958 116H425.934L424.17 97.46H417.006L414.27 105.596C413.946 106.532 413.514 107.756 413.514 107.756H413.478C413.478 107.756 413.082 106.532 412.758 105.596L410.022 97.46H402.822L401.058 116ZM428.263 106.712C428.263 111.644 431.827 116.432 438.451 116.432C441.295 116.432 444.355 115.46 446.371 113.732L444.067 109.376C442.555 110.384 440.791 111.248 438.955 111.248C436.975 111.248 435.103 110.204 434.635 107.936H446.335C446.407 107.288 446.479 106.64 446.479 105.992C446.479 100.844 443.383 97.028 437.911 97.028C431.935 97.028 428.263 101.276 428.263 106.712ZM434.779 104.372C435.103 102.896 435.967 101.6 437.767 101.6C439.351 101.6 440.323 102.86 440.323 104.372H434.779ZM449.733 116H455.961V109.232H461.685V116H467.913V97.46H461.685V104.012H455.961V97.46H449.733V116ZM470.76 110.78C470.76 113.984 473.244 116.432 476.808 116.432C478.932 116.432 481.092 115.46 482.316 113.732H482.388C482.388 113.732 482.316 114.272 482.316 114.884V116H488.004V104.588C488.004 99.872 484.836 97.028 479.724 97.028C476.7 97.028 473.46 98.216 471.876 99.44L474.036 103.832C475.512 102.86 477.348 102.068 479.148 102.068C480.516 102.068 481.776 102.572 481.776 104.12V104.444H481.236C476.664 104.444 470.76 105.812 470.76 110.78ZM476.916 110.204C476.916 108.512 479.364 108.008 481.272 108.008H481.848V108.512C481.848 110.024 480.48 111.788 478.68 111.788C477.528 111.788 476.916 111.068 476.916 110.204ZM491.163 116H497.103L497.535 107.468C497.607 106.028 497.499 104.3 497.499 104.3H497.571C497.571 104.3 498.255 105.848 498.651 107.036L501.099 113.516H506.139L508.587 107.036C509.055 105.884 509.595 104.3 509.595 104.3H509.667C509.667 104.3 509.595 106.028 509.631 107.468L510.063 116H516.039L514.275 97.46H507.111L504.375 105.596C504.051 106.532 503.619 107.756 503.619 107.756H503.583C503.583 107.756 503.187 106.532 502.863 105.596L500.127 97.46H492.927L491.163 116Z" fill="#222224"/>
<path d="M1.674 191H3.456V179.84H9.9V191H11.682V178.292H1.674V191ZM13.9396 186.428C13.9396 189.2 16.1356 191.216 18.8536 191.216C21.5536 191.216 23.7496 189.2 23.7496 186.428C23.7496 183.674 21.5536 181.676 18.8356 181.676C16.1356 181.676 13.9396 183.674 13.9396 186.428ZM15.7216 186.428C15.7216 184.538 17.1256 183.188 18.8536 183.188C20.5636 183.188 21.9856 184.538 21.9856 186.428C21.9856 188.336 20.5636 189.704 18.8536 189.704C17.1256 189.704 15.7216 188.336 15.7216 186.428ZM25.8539 191H29.7419C31.7219 191 33.0899 190.1 33.0899 188.408C33.0899 187.4 32.4959 186.518 31.3619 186.248V186.23C32.1899 185.87 32.6579 185.114 32.6579 184.232C32.6579 182.702 31.4519 181.892 29.6159 181.892H25.8539V191ZM27.5999 185.744V183.098H29.2559C30.3539 183.098 30.8759 183.53 30.8759 184.358C30.8759 185.204 30.3539 185.744 29.3099 185.744H27.5999ZM27.5999 189.776V186.914H29.4539C30.6599 186.914 31.3259 187.454 31.3259 188.354C31.3259 189.2 30.7319 189.776 29.4719 189.776H27.5999ZM43.4495 191H45.1955V181.892H43.4495V191ZM35.2055 191H38.7155C41.0015 191 42.0455 189.83 42.0455 188.12C42.0455 186.05 40.6235 185.186 38.7335 185.186H36.9515V181.892H35.2055V191ZM36.9515 189.74V186.446H38.4635C39.7235 186.446 40.2815 187.13 40.2815 188.102C40.2815 189.056 39.7415 189.74 38.4815 189.74H36.9515ZM47.3029 186.446C47.3029 189.182 49.3009 191.216 52.1809 191.216C53.6029 191.216 54.9889 190.64 55.8169 189.758L55.1149 188.48C54.4129 189.218 53.3149 189.704 52.3069 189.704C50.4169 189.704 49.0849 188.282 49.0849 186.428C49.0849 184.574 50.4169 183.188 52.2529 183.188C53.2069 183.188 54.1609 183.62 54.7729 184.232L55.6009 183.008C54.7369 182.09 53.3869 181.676 52.1809 181.676C49.3189 181.676 47.3029 183.746 47.3029 186.446ZM57.7055 191H59.3795L63.3215 185.564C63.6095 185.132 64.0595 184.52 64.1135 184.358H64.1495C64.1495 184.502 64.0955 185.132 64.0955 185.564V191H65.7875V181.892H64.0955L60.1715 187.328C59.8655 187.76 59.4335 188.39 59.3615 188.552H59.3255C59.3435 188.462 59.3795 187.814 59.3795 187.328V181.892H57.7055V191ZM68.0853 191H69.7773L70.1733 185.582C70.2093 185.042 70.1553 184.016 70.1553 184.016H70.1913C70.1913 184.016 70.4793 184.7 70.7673 185.366L72.9273 189.902H74.4213L76.5813 185.348C76.9233 184.646 77.1573 184.016 77.1573 184.016H77.1933C77.1933 184.016 77.1573 185.042 77.1753 185.582L77.5713 191H79.2633L78.4713 181.892H76.5633L74.1873 187.04C73.9533 187.598 73.6833 188.264 73.6833 188.264H73.6473C73.6473 188.264 73.3953 187.58 73.1433 187.04L70.8213 181.892H68.8773L68.0853 191ZM85.6617 192.89L85.0497 194.222C85.0497 194.222 85.7877 194.78 86.7957 194.78C88.0737 194.78 89.2077 194.06 89.7477 192.638L94.0317 181.892H92.1417L89.9277 187.868C89.7657 188.336 89.6217 188.948 89.6217 188.948H89.5857C89.5857 188.948 89.4237 188.3 89.2437 187.85L86.9577 181.892H84.9957L88.8117 190.892L88.3617 191.936C88.0197 192.764 87.4257 193.286 86.7057 193.286C86.1657 193.286 85.6617 192.89 85.6617 192.89ZM94.8341 186.446C94.8341 189.182 96.8321 191.216 99.7121 191.216C101.134 191.216 102.52 190.64 103.348 189.758L102.646 188.48C101.944 189.218 100.846 189.704 99.8381 189.704C97.9481 189.704 96.6161 188.282 96.6161 186.428C96.6161 184.574 97.9481 183.188 99.7841 183.188C100.738 183.188 101.692 183.62 102.304 184.232L103.132 183.008C102.268 182.09 100.918 181.676 99.7121 181.676C96.8501 181.676 94.8341 183.746 94.8341 186.446ZM105.237 191H106.983V183.386H111.447V191H113.193V181.892H105.237V191ZM115.295 186.446C115.295 189.146 117.275 191.216 120.137 191.216C121.397 191.216 122.783 190.73 123.665 189.92L122.927 188.642C122.207 189.29 121.217 189.704 120.245 189.704C118.607 189.704 117.203 188.642 117.113 186.68H123.737C123.773 186.428 123.809 186.176 123.809 185.942C123.809 183.602 122.441 181.676 119.867 181.676C117.275 181.676 115.295 183.548 115.295 186.446ZM117.167 185.42C117.419 183.908 118.481 183.026 119.831 183.026C121.019 183.026 121.991 183.854 122.045 185.42H117.167ZM125.909 191H129.797C131.777 191 133.145 190.1 133.145 188.408C133.145 187.4 132.551 186.518 131.417 186.248V186.23C132.245 185.87 132.713 185.114 132.713 184.232C132.713 182.702 131.507 181.892 129.671 181.892H125.909V191ZM127.655 185.744V183.098H129.311C130.409 183.098 130.931 183.53 130.931 184.358C130.931 185.204 130.409 185.744 129.365 185.744H127.655ZM127.655 189.776V186.914H129.509C130.715 186.914 131.381 187.454 131.381 188.354C131.381 189.2 130.787 189.776 129.527 189.776H127.655ZM134.504 188.516C134.504 190.226 135.962 191.216 137.546 191.216C138.896 191.216 140.012 190.406 140.534 189.362H140.57C140.57 189.362 140.516 189.668 140.516 190.082V191H142.154V185.24C142.154 182.936 140.84 181.676 138.554 181.676C137.276 181.676 135.89 182.144 135.152 182.756L135.854 184.034C136.592 183.512 137.51 183.152 138.41 183.152C139.544 183.152 140.408 183.656 140.408 185.15V185.33H139.94C138.05 185.33 134.504 185.654 134.504 188.516ZM136.25 188.372C136.25 186.698 138.662 186.59 139.958 186.59H140.408V186.932C140.408 188.282 139.49 189.83 137.96 189.83C136.826 189.83 136.25 189.092 136.25 188.372ZM144.141 186.446C144.141 189.146 146.121 191.216 148.983 191.216C150.243 191.216 151.629 190.73 152.511 189.92L151.773 188.642C151.053 189.29 150.063 189.704 149.091 189.704C147.453 189.704 146.049 188.642 145.959 186.68H152.583C152.619 186.428 152.655 186.176 152.655 185.942C152.655 183.602 151.287 181.676 148.713 181.676C146.121 181.676 144.141 183.548 144.141 186.446ZM146.013 185.42C146.265 183.908 147.327 183.026 148.677 183.026C149.865 183.026 150.837 183.854 150.891 185.42H146.013ZM154.376 191H156.068L156.464 185.582C156.5 185.042 156.446 184.016 156.446 184.016H156.482C156.482 184.016 156.77 184.7 157.058 185.366L159.218 189.902H160.712L162.872 185.348C163.214 184.646 163.448 184.016 163.448 184.016H163.484C163.484 184.016 163.448 185.042 163.466 185.582L163.862 191H165.554L164.762 181.892H162.854L160.478 187.04C160.244 187.598 159.974 188.264 159.974 188.264H159.938C159.938 188.264 159.686 187.58 159.434 187.04L157.112 181.892H155.168L154.376 191ZM167.309 186.428C167.309 189.2 169.505 191.216 172.223 191.216C174.923 191.216 177.119 189.2 177.119 186.428C177.119 183.674 174.923 181.676 172.205 181.676C169.505 181.676 167.309 183.674 167.309 186.428ZM169.091 186.428C169.091 184.538 170.495 183.188 172.223 183.188C173.933 183.188 175.355 184.538 175.355 186.428C175.355 188.336 173.933 189.704 172.223 189.704C170.495 189.704 169.091 188.336 169.091 186.428ZM178.629 186.446C178.629 189.182 180.627 191.216 183.507 191.216C184.929 191.216 186.315 190.64 187.143 189.758L186.441 188.48C185.739 189.218 184.641 189.704 183.633 189.704C181.743 189.704 180.411 188.282 180.411 186.428C180.411 184.574 181.743 183.188 183.579 183.188C184.533 183.188 185.487 183.62 186.099 184.232L186.927 183.008C186.063 182.09 184.713 181.676 183.507 181.676C180.645 181.676 178.629 183.746 178.629 186.446ZM191.228 191H192.956V183.386H196.142V181.892H188.06V183.386H191.228V191ZM197.856 191H201.402C203.706 191 204.75 189.83 204.75 188.12C204.75 186.05 203.328 185.186 201.438 185.186H199.602V181.892H197.856V191ZM199.602 189.74V186.446H201.168C202.428 186.446 202.968 187.13 202.968 188.102C202.968 189.056 202.428 189.74 201.168 189.74H199.602ZM211.127 191H222.899V181.892H221.225V189.488H217.859V181.892H216.167V189.488H212.801V181.892H211.127V191ZM225.594 191H227.34V187.058H228.654L231.372 191H233.442L230.04 186.266V186.23L233.082 181.892H231.102L228.618 185.564H227.34V181.892H225.594V191ZM234.018 186.428C234.018 189.2 236.214 191.216 238.932 191.216C241.632 191.216 243.828 189.2 243.828 186.428C243.828 183.674 241.632 181.676 238.914 181.676C236.214 181.676 234.018 183.674 234.018 186.428ZM235.8 186.428C235.8 184.538 237.204 183.188 238.932 183.188C240.642 183.188 242.064 184.538 242.064 186.428C242.064 188.336 240.642 189.704 238.932 189.704C237.204 189.704 235.8 188.336 235.8 186.428ZM244.696 191.09C247.378 190.946 248.422 188.822 248.422 184.7V183.332H251.104V191H252.85V181.892H246.748V184.7C246.748 187.994 246.028 189.326 244.696 189.524V191.09ZM255.547 191H259.093C261.397 191 262.441 189.83 262.441 188.12C262.441 186.05 261.019 185.186 259.129 185.186H257.293V181.892H255.547V191ZM257.293 189.74V186.446H258.859C260.119 186.446 260.659 187.13 260.659 188.102C260.659 189.056 260.119 189.74 258.859 189.74H257.293ZM264.319 191H266.065V187.094H270.673V191H272.419V181.892H270.673V185.6H266.065V181.892H264.319V191ZM275.112 191H276.786L280.728 185.564C281.016 185.132 281.466 184.52 281.52 184.358H281.556C281.556 184.502 281.502 185.132 281.502 185.564V191H283.194V181.892H281.502L277.578 187.328C277.272 187.76 276.84 188.39 276.768 188.552H276.732C276.75 188.462 276.786 187.814 276.786 187.328V181.892H275.112V191ZM285.87 191H287.616V187.058H288.93L291.648 191H293.718L290.316 186.266V186.23L293.358 181.892H291.378L288.894 185.564H287.616V181.892H285.87V191ZM294.293 186.428C294.293 189.2 296.489 191.216 299.207 191.216C301.907 191.216 304.103 189.2 304.103 186.428C304.103 183.674 301.907 181.676 299.189 181.676C296.489 181.676 294.293 183.674 294.293 186.428ZM296.075 186.428C296.075 184.538 297.479 183.188 299.207 183.188C300.917 183.188 302.339 184.538 302.339 186.428C302.339 188.336 300.917 189.704 299.207 189.704C297.479 189.704 296.075 188.336 296.075 186.428ZM306.207 191H310.095C312.075 191 313.443 190.1 313.443 188.408C313.443 187.4 312.849 186.518 311.715 186.248V186.23C312.543 185.87 313.011 185.114 313.011 184.232C313.011 182.702 311.805 181.892 309.969 181.892H306.207V191ZM307.953 185.744V183.098H309.609C310.707 183.098 311.229 183.53 311.229 184.358C311.229 185.204 310.707 185.744 309.663 185.744H307.953ZM307.953 189.776V186.914H309.807C311.013 186.914 311.679 187.454 311.679 188.354C311.679 189.2 311.085 189.776 309.825 189.776H307.953ZM320.059 191H321.733L325.675 185.564C325.963 185.132 326.413 184.52 326.467 184.358H326.503C326.503 184.502 326.449 185.132 326.449 185.564V191H328.141V181.892H326.449L322.525 187.328C322.219 187.76 321.787 188.39 321.715 188.552H321.679C321.697 188.462 321.733 187.814 321.733 187.328V181.892H320.059V191ZM0.756 214.446C0.756 217.182 2.754 219.216 5.634 219.216C7.056 219.216 8.442 218.64 9.27 217.758L8.568 216.48C7.866 217.218 6.768 217.704 5.76 217.704C3.87 217.704 2.538 216.282 2.538 214.428C2.538 212.574 3.87 211.188 5.706 211.188C6.66 211.188 7.614 211.62 8.226 212.232L9.054 211.008C8.19 210.09 6.84 209.676 5.634 209.676C2.772 209.676 0.756 211.746 0.756 214.446ZM13.3546 219H15.0826V211.386H18.2686V209.892H10.1866V211.386H13.3546V219ZM19.5328 220.89L18.9208 222.222C18.9208 222.222 19.6588 222.78 20.6668 222.78C21.9448 222.78 23.0788 222.06 23.6188 220.638L27.9028 209.892H26.0128L23.7988 215.868C23.6368 216.336 23.4928 216.948 23.4928 216.948H23.4568C23.4568 216.948 23.2948 216.3 23.1148 215.85L20.8288 209.892H18.8668L22.6828 218.892L22.2328 219.936C21.8908 220.764 21.2968 221.286 20.5768 221.286C20.0368 221.286 19.5328 220.89 19.5328 220.89ZM30.7472 217.56C31.8992 215.76 32.0432 213.168 32.0432 211.8V211.314H34.7792V217.56H30.7472ZM27.8312 217.56V221.16H29.4692V219H36.2192V221.16H37.8212V217.56H36.5252V209.892H30.3692V211.566C30.3692 212.97 30.2252 215.814 28.9472 217.56H27.8312ZM38.9533 214.446C38.9533 217.146 40.9333 219.216 43.7953 219.216C45.0553 219.216 46.4413 218.73 47.3233 217.92L46.5853 216.642C45.8653 217.29 44.8753 217.704 43.9033 217.704C42.2653 217.704 40.8613 216.642 40.7713 214.68H47.3953C47.4313 214.428 47.4673 214.176 47.4673 213.942C47.4673 211.602 46.0993 209.676 43.5253 209.676C40.9333 209.676 38.9533 211.548 38.9533 214.446ZM40.8253 213.42C41.0773 211.908 42.1393 211.026 43.4893 211.026C44.6773 211.026 45.6493 211.854 45.7033 213.42H40.8253ZM49.5668 219H51.3128V215.094H55.9208V219H57.6668V209.892H55.9208V213.6H51.3128V209.892H49.5668V219ZM62.5558 219H64.2838V211.386H67.4698V209.892H59.3878V211.386H62.5558V219ZM68.2912 214.428C68.2912 217.2 70.4872 219.216 73.2052 219.216C75.9052 219.216 78.1012 217.2 78.1012 214.428C78.1012 211.674 75.9052 209.676 73.1872 209.676C70.4872 209.676 68.2912 211.674 68.2912 214.428ZM70.0732 214.428C70.0732 212.538 71.4772 211.188 73.2052 211.188C74.9152 211.188 76.3372 212.538 76.3372 214.428C76.3372 216.336 74.9152 217.704 73.2052 217.704C71.4772 217.704 70.0732 216.336 70.0732 214.428ZM80.2055 219H84.0935C86.0735 219 87.4415 218.1 87.4415 216.408C87.4415 215.4 86.8475 214.518 85.7135 214.248V214.23C86.5415 213.87 87.0095 213.114 87.0095 212.232C87.0095 210.702 85.8035 209.892 83.9675 209.892H80.2055V219ZM81.9515 213.744V211.098H83.6075C84.7055 211.098 85.2275 211.53 85.2275 212.358C85.2275 213.204 84.7055 213.744 83.6615 213.744H81.9515ZM81.9515 217.776V214.914H83.8055C85.0115 214.914 85.6775 215.454 85.6775 216.354C85.6775 217.2 85.0835 217.776 83.8235 217.776H81.9515ZM94.057 219H95.731L99.673 213.564C99.961 213.132 100.411 212.52 100.465 212.358H100.501C100.501 212.502 100.447 213.132 100.447 213.564V219H102.139V209.892H100.447L96.523 215.328C96.217 215.76 95.785 216.39 95.713 216.552H95.677C95.695 216.462 95.731 215.814 95.731 215.328V209.892H94.057V219ZM109.315 219H111.061V211.386H115.525V219H117.271V209.892H109.315V219ZM119.373 214.428C119.373 217.2 121.569 219.216 124.287 219.216C126.987 219.216 129.183 217.2 129.183 214.428C129.183 211.674 126.987 209.676 124.269 209.676C121.569 209.676 119.373 211.674 119.373 214.428ZM121.155 214.428C121.155 212.538 122.559 211.188 124.287 211.188C125.997 211.188 127.419 212.538 127.419 214.428C127.419 216.336 125.997 217.704 124.287 217.704C122.559 217.704 121.155 216.336 121.155 214.428ZM130.91 219H132.602L132.998 213.582C133.034 213.042 132.98 212.016 132.98 212.016H133.016C133.016 212.016 133.304 212.7 133.592 213.366L135.752 217.902H137.246L139.406 213.348C139.748 212.646 139.982 212.016 139.982 212.016H140.018C140.018 212.016 139.982 213.042 140 213.582L140.396 219H142.088L141.296 209.892H139.388L137.012 215.04C136.778 215.598 136.508 216.264 136.508 216.264H136.472C136.472 216.264 136.22 215.58 135.968 215.04L133.646 209.892H131.702L130.91 219ZM143.842 214.428C143.842 217.2 146.038 219.216 148.756 219.216C151.456 219.216 153.652 217.2 153.652 214.428C153.652 211.674 151.456 209.676 148.738 209.676C146.038 209.676 143.842 211.674 143.842 214.428ZM145.624 214.428C145.624 212.538 147.028 211.188 148.756 211.188C150.466 211.188 151.888 212.538 151.888 214.428C151.888 216.336 150.466 217.704 148.756 217.704C147.028 217.704 145.624 216.336 145.624 214.428ZM154.431 219H156.375L158.769 215.112H160.065V219H161.721V215.112H163.035L165.411 219H167.373L164.439 214.32V214.284L167.103 209.892H165.267L163.017 213.618H161.721V209.892H160.065V213.618H158.769L156.537 209.892H154.683L157.365 214.284V214.32L154.431 219ZM168.135 214.446C168.135 217.146 170.115 219.216 172.977 219.216C174.237 219.216 175.623 218.73 176.505 217.92L175.767 216.642C175.047 217.29 174.057 217.704 173.085 217.704C171.447 217.704 170.043 216.642 169.953 214.68H176.577C176.613 214.428 176.649 214.176 176.649 213.942C176.649 211.602 175.281 209.676 172.707 209.676C170.115 209.676 168.135 211.548 168.135 214.446ZM170.007 213.42C170.259 211.908 171.321 211.026 172.671 211.026C173.859 211.026 174.831 211.854 174.885 213.42H170.007ZM178.37 219H180.062L180.458 213.582C180.494 213.042 180.44 212.016 180.44 212.016H180.476C180.476 212.016 180.764 212.7 181.052 213.366L183.212 217.902H184.706L186.866 213.348C187.208 212.646 187.442 212.016 187.442 212.016H187.478C187.478 212.016 187.442 213.042 187.46 213.582L187.856 219H189.548L188.756 209.892H186.848L184.472 215.04C184.238 215.598 183.968 216.264 183.968 216.264H183.932C183.932 216.264 183.68 215.58 183.428 215.04L181.106 209.892H179.162L178.37 219ZM195.803 214.428C195.803 217.2 197.999 219.216 200.717 219.216C203.417 219.216 205.613 217.2 205.613 214.428C205.613 211.674 203.417 209.676 200.699 209.676C197.999 209.676 195.803 211.674 195.803 214.428ZM197.585 214.428C197.585 212.538 198.989 211.188 200.717 211.188C202.427 211.188 203.849 212.538 203.849 214.428C203.849 216.336 202.427 217.704 200.717 217.704C198.989 217.704 197.585 216.336 197.585 214.428ZM207.717 219H209.463V211.386H213.927V219H215.673V209.892H207.717V219ZM218.37 222.6H220.116V218.46C220.116 217.992 220.044 217.668 220.044 217.668H220.08C220.71 218.64 221.754 219.216 222.906 219.216C225.3 219.216 227.028 217.344 227.028 214.446C227.028 211.62 225.498 209.676 223.032 209.676C221.7 209.676 220.548 210.288 219.972 211.386H219.936C219.936 211.386 219.99 211.08 219.99 210.702V209.892H218.37V222.6ZM220.062 214.482C220.062 212.178 221.322 211.206 222.69 211.206C224.202 211.206 225.264 212.484 225.264 214.464C225.264 216.534 224.076 217.704 222.636 217.704C220.962 217.704 220.062 216.102 220.062 214.482ZM228.586 214.446C228.586 217.146 230.566 219.216 233.428 219.216C234.688 219.216 236.074 218.73 236.956 217.92L236.218 216.642C235.498 217.29 234.508 217.704 233.536 217.704C231.898 217.704 230.494 216.642 230.404 214.68H237.028C237.064 214.428 237.1 214.176 237.1 213.942C237.1 211.602 235.732 209.676 233.158 209.676C230.566 209.676 228.586 211.548 228.586 214.446ZM230.458 213.42C230.71 211.908 231.772 211.026 233.122 211.026C234.31 211.026 235.282 211.854 235.336 213.42H230.458ZM240.982 217.56C242.134 215.76 242.278 213.168 242.278 211.8V211.314H245.014V217.56H240.982ZM238.066 217.56V221.16H239.704V219H246.454V221.16H248.056V217.56H246.76V209.892H240.604V211.566C240.604 212.97 240.46 215.814 239.182 217.56H238.066ZM249.188 214.446C249.188 217.146 251.168 219.216 254.03 219.216C255.29 219.216 256.676 218.73 257.558 217.92L256.82 216.642C256.1 217.29 255.11 217.704 254.138 217.704C252.5 217.704 251.096 216.642 251.006 214.68H257.63C257.666 214.428 257.702 214.176 257.702 213.942C257.702 211.602 256.334 209.676 253.76 209.676C251.168 209.676 249.188 211.548 249.188 214.446ZM251.06 213.42C251.312 211.908 252.374 211.026 253.724 211.026C254.912 211.026 255.884 211.854 255.938 213.42H251.06ZM258.811 219.09C261.493 218.946 262.537 216.822 262.537 212.7V211.332H265.219V219H266.965V209.892H260.863V212.7C260.863 215.994 260.143 217.326 258.811 217.524V219.09ZM269.663 219H271.337L275.279 213.564C275.567 213.132 276.017 212.52 276.071 212.358H276.107C276.107 212.502 276.053 213.132 276.053 213.564V219H277.745V209.892H276.053L272.129 215.328C271.823 215.76 271.391 216.39 271.319 216.552H271.283C271.301 216.462 271.337 215.814 271.337 215.328V209.892H269.663V219ZM282.616 219H284.344V211.386H287.53V209.892H279.448V211.386H282.616V219ZM289.245 219H292.791C295.095 219 296.139 217.83 296.139 216.12C296.139 214.05 294.717 213.186 292.827 213.186H290.991V209.892H289.245V219ZM290.991 217.74V214.446H292.557C293.817 214.446 294.357 215.13 294.357 216.102C294.357 217.056 293.817 217.74 292.557 217.74H290.991ZM297.422 214.446C297.422 217.182 299.42 219.216 302.3 219.216C303.722 219.216 305.108 218.64 305.936 217.758L305.234 216.48C304.532 217.218 303.434 217.704 302.426 217.704C300.536 217.704 299.204 216.282 299.204 214.428C299.204 212.574 300.536 211.188 302.372 211.188C303.326 211.188 304.28 211.62 304.892 212.232L305.72 211.008C304.856 210.09 303.506 209.676 302.3 209.676C299.438 209.676 297.422 211.746 297.422 214.446ZM306.907 219H308.833L311.065 215.706H312.595V219H314.341V209.892H310.705C308.779 209.892 307.447 210.882 307.447 212.754C307.447 214.14 308.383 215.112 309.427 215.4V215.418C309.427 215.418 309.211 215.652 309.013 215.976L306.907 219ZM311.083 214.428C310.021 214.428 309.211 213.87 309.211 212.736C309.211 211.566 309.967 211.098 311.137 211.098H312.595V214.428H311.083ZM320.942 214.446C320.942 217.182 322.94 219.216 325.82 219.216C327.242 219.216 328.628 218.64 329.456 217.758L328.754 216.48C328.052 217.218 326.954 217.704 325.946 217.704C324.056 217.704 322.724 216.282 322.724 214.428C322.724 212.574 324.056 211.188 325.892 211.188C326.846 211.188 327.8 211.62 328.412 212.232L329.24 211.008C328.376 210.09 327.026 209.676 325.82 209.676C322.958 209.676 320.942 211.746 320.942 214.446ZM1.35 247H3.096V243.094H7.704V247H9.45V237.892H7.704V241.6H3.096V237.892H1.35V247ZM11.387 244.516C11.387 246.226 12.845 247.216 14.429 247.216C15.779 247.216 16.895 246.406 17.417 245.362H17.453C17.453 245.362 17.399 245.668 17.399 246.082V247H19.037V241.24C19.037 238.936 17.723 237.676 15.437 237.676C14.159 237.676 12.773 238.144 12.035 238.756L12.737 240.034C13.475 239.512 14.393 239.152 15.293 239.152C16.427 239.152 17.291 239.656 17.291 241.15V241.33H16.823C14.933 241.33 11.387 241.654 11.387 244.516ZM13.133 244.372C13.133 242.698 15.545 242.59 16.841 242.59H17.291V242.932C17.291 244.282 16.373 245.83 14.843 245.83C13.709 245.83 13.133 245.092 13.133 244.372ZM21.6176 247H23.3636V239.386H27.8276V247H29.5736V237.892H21.6176V247ZM32.2699 250.6H34.0159V246.46C34.0159 245.992 33.9439 245.668 33.9439 245.668H33.9799C34.6099 246.64 35.6539 247.216 36.8059 247.216C39.1999 247.216 40.9279 245.344 40.9279 242.446C40.9279 239.62 39.3979 237.676 36.9319 237.676C35.5999 237.676 34.4479 238.288 33.8719 239.386H33.8359C33.8359 239.386 33.8899 239.08 33.8899 238.702V237.892H32.2699V250.6ZM33.9619 242.482C33.9619 240.178 35.2219 239.206 36.5899 239.206C38.1019 239.206 39.1639 240.484 39.1639 242.464C39.1639 244.534 37.9759 245.704 36.5359 245.704C34.8619 245.704 33.9619 244.102 33.9619 242.482ZM42.3245 244.516C42.3245 246.226 43.7825 247.216 45.3665 247.216C46.7165 247.216 47.8325 246.406 48.3545 245.362H48.3905C48.3905 245.362 48.3365 245.668 48.3365 246.082V247H49.9745V241.24C49.9745 238.936 48.6605 237.676 46.3745 237.676C45.0965 237.676 43.7105 238.144 42.9725 238.756L43.6745 240.034C44.4125 239.512 45.3305 239.152 46.2305 239.152C47.3645 239.152 48.2285 239.656 48.2285 241.15V241.33H47.7605C45.8705 241.33 42.3245 241.654 42.3245 244.516ZM44.0705 244.372C44.0705 242.698 46.4825 242.59 47.7785 242.59H48.2285V242.932C48.2285 244.282 47.3105 245.83 45.7805 245.83C44.6465 245.83 44.0705 245.092 44.0705 244.372ZM52.5551 247H56.4431C58.4231 247 59.7911 246.1 59.7911 244.408C59.7911 243.4 59.1971 242.518 58.0631 242.248V242.23C58.8911 241.87 59.3591 241.114 59.3591 240.232C59.3591 238.702 58.1531 237.892 56.3171 237.892H52.5551V247ZM54.3011 241.744V239.098H55.9571C57.0551 239.098 57.5771 239.53 57.5771 240.358C57.5771 241.204 57.0551 241.744 56.0111 241.744H54.3011ZM54.3011 245.776V242.914H56.1551C57.3611 242.914 58.0271 243.454 58.0271 244.354C58.0271 245.2 57.4331 245.776 56.1731 245.776H54.3011ZM60.9166 247.09C63.5986 246.946 64.6426 244.822 64.6426 240.7V239.332H67.3246V247H69.0706V237.892H62.9686V240.7C62.9686 243.994 62.2486 245.326 60.9166 245.524V247.09ZM71.174 242.446C71.174 245.146 73.154 247.216 76.016 247.216C77.276 247.216 78.662 246.73 79.544 245.92L78.806 244.642C78.086 245.29 77.096 245.704 76.124 245.704C74.486 245.704 73.082 244.642 72.992 242.68H79.616C79.652 242.428 79.688 242.176 79.688 241.942C79.688 239.602 78.32 237.676 75.746 237.676C73.154 237.676 71.174 239.548 71.174 242.446ZM73.046 241.42C73.298 239.908 74.36 239.026 75.71 239.026C76.898 239.026 77.87 239.854 77.924 241.42H73.046ZM81.7875 247H83.5335V243.094H88.1415V247H89.8875V237.892H88.1415V241.6H83.5335V237.892H81.7875V247ZM92.5805 247H94.2545L98.1965 241.564C98.4845 241.132 98.9345 240.52 98.9885 240.358H99.0245C99.0245 240.502 98.9705 241.132 98.9705 241.564V247H100.662V237.892H98.9705L95.0465 243.328C94.7405 243.76 94.3085 244.39 94.2365 244.552H94.2005C94.2185 244.462 94.2545 243.814 94.2545 243.328V237.892H92.5805V247ZM102.744 242.446C102.744 245.146 104.724 247.216 107.586 247.216C108.846 247.216 110.232 246.73 111.114 245.92L110.376 244.642C109.656 245.29 108.666 245.704 107.694 245.704C106.056 245.704 104.652 244.642 104.562 242.68H111.186C111.222 242.428 111.258 242.176 111.258 241.942C111.258 239.602 109.89 237.676 107.316 237.676C104.724 237.676 102.744 239.548 102.744 242.446ZM104.616 241.42C104.868 239.908 105.93 239.026 107.28 239.026C108.468 239.026 109.44 239.854 109.494 241.42H104.616ZM112.98 247H114.672L115.068 241.582C115.104 241.042 115.05 240.016 115.05 240.016H115.086C115.086 240.016 115.374 240.7 115.662 241.366L117.822 245.902H119.316L121.476 241.348C121.818 240.646 122.052 240.016 122.052 240.016H122.088C122.088 240.016 122.052 241.042 122.07 241.582L122.466 247H124.158L123.366 237.892H121.458L119.082 243.04C118.848 243.598 118.578 244.264 118.578 244.264H118.542C118.542 244.264 118.29 243.58 118.038 243.04L115.716 237.892H113.772L112.98 247Z" fill="#424754"/>
<path d="M601 4.40122C601 2.86065 601 2.09037 601.3 1.50195C601.563 0.984356 601.984 0.563541 602.501 0.299816C603.089 0 603.859 0 605.398 0H1105.6C1107.14 0 1107.91 0 1108.5 0.299816C1109.02 0.563541 1109.44 0.984356 1109.7 1.50195C1110 2.09037 1110 2.86066 1110 4.40123V293.599C1110 295.139 1110 295.91 1109.7 296.498C1109.44 297.016 1109.02 297.436 1108.5 297.7C1107.91 298 1107.14 298 1105.6 298H605.398C603.859 298 603.089 298 602.501 297.7C601.984 297.436 601.563 297.016 601.3 296.498C601 295.91 601 295.139 601 293.599V4.40122Z" fill="#F3F3F3"/>
<path d="M646.28 124.928C645.189 124.459 643.919 124.963 643.495 126.073C639.713 135.964 638.975 146.779 641.404 157.12C643.998 168.16 650.064 178.077 658.711 185.414C667.359 192.751 678.132 197.12 689.447 197.881C700.762 198.641 712.022 195.752 721.574 189.638C731.125 183.524 738.463 174.507 742.51 163.913C746.557 153.32 747.1 141.707 744.057 130.782C741.015 119.857 734.549 110.196 725.609 103.219C717.235 96.6832 707.104 92.8251 696.538 92.1182C695.353 92.0389 694.364 92.9811 694.333 94.1689C694.302 95.3567 695.24 96.3399 696.425 96.4234C706.071 97.1035 715.313 100.642 722.961 106.611C731.176 113.022 737.117 121.898 739.912 131.936C742.707 141.974 742.209 152.644 738.491 162.378C734.772 172.112 728.03 180.396 719.254 186.014C710.478 191.632 700.132 194.286 689.735 193.588C679.339 192.889 669.441 188.874 661.495 182.133C653.55 175.392 647.976 166.28 645.593 156.136C643.375 146.691 644.031 136.816 647.452 127.773C647.872 126.661 647.372 125.397 646.28 124.928Z" fill="#27AE60"/>
<path d="M677 141.782C677 140.458 677 139.796 677.054 139.291C677.102 138.846 677.177 138.484 677.271 138.258C677.377 138 677.516 138 677.794 138H707.206C707.484 138 707.623 138 707.729 138.258C707.823 138.484 707.898 138.846 707.946 139.291C708 139.796 708 140.458 708 141.782V147.218C708 148.542 708 149.204 707.946 149.709C707.898 150.154 707.823 150.516 707.729 150.742C707.623 151 707.484 151 707.206 151H677.794C677.516 151 677.377 151 677.271 150.742C677.177 150.516 677.102 150.154 677.054 149.709C677 149.204 677 148.542 677 147.218V141.782Z" fill="#424754"/>
<path d="M653 212.455C653 211.945 653 211.691 653.138 211.496C653.259 211.325 653.452 211.186 653.69 211.099C653.961 211 654.314 211 655.022 211H729.978C730.686 211 731.039 211 731.31 211.099C731.548 211.186 731.741 211.325 731.862 211.496C732 211.691 732 211.945 732 212.455V214.545C732 215.055 732 215.309 731.862 215.504C731.741 215.675 731.548 215.814 731.31 215.901C731.039 216 730.686 216 729.978 216H655.022C654.314 216 653.961 216 653.69 215.901C653.452 215.814 653.259 215.675 653.138 215.504C653 215.309 653 215.055 653 214.545V212.455Z" fill="#97999D"/>
<path d="M801.704 157.47C800.552 157.761 799.85 158.933 800.188 160.072C802.806 168.896 807.68 176.899 814.346 183.282C821.531 190.161 830.506 194.879 840.246 196.898C849.986 198.916 860.098 198.152 869.424 194.694C878.751 191.237 886.916 185.224 892.986 177.344C899.057 169.464 902.787 160.035 903.751 150.135C904.714 140.235 902.873 130.263 898.436 121.36C893.999 112.458 887.147 104.983 878.662 99.7916C870.79 94.9748 861.808 92.3036 852.608 92.0244C851.42 91.9883 850.467 92.966 850.479 94.1541C850.491 95.3422 851.465 96.2906 852.652 96.3309C861.044 96.6157 869.233 99.0666 876.416 103.462C884.212 108.232 890.508 115.1 894.585 123.28C898.661 131.46 900.354 140.621 899.468 149.718C898.583 158.814 895.155 167.478 889.578 174.718C884 181.958 876.498 187.483 867.929 190.66C859.359 193.837 850.069 194.539 841.119 192.684C832.17 190.83 823.923 186.494 817.322 180.174C811.239 174.35 806.78 167.057 804.363 159.016C804.021 157.878 802.856 157.178 801.704 157.47Z" fill="#F2994A"/>
<path d="M835 141.782C835 140.458 835 139.796 835.054 139.291C835.102 138.846 835.177 138.484 835.271 138.258C835.377 138 835.516 138 835.794 138H865.206C865.484 138 865.623 138 865.729 138.258C865.823 138.484 865.898 138.846 865.946 139.291C866 139.796 866 140.458 866 141.782V147.218C866 148.542 866 149.204 865.946 149.709C865.898 150.154 865.823 150.516 865.729 150.742C865.623 151 865.484 151 865.206 151H835.794C835.516 151 835.377 151 835.271 150.742C835.177 150.516 835.102 150.154 835.054 149.709C835 149.204 835 148.542 835 147.218V141.782Z" fill="#424754"/>
<path d="M811 212.455C811 211.945 811 211.691 811.138 211.496C811.259 211.325 811.452 211.186 811.69 211.099C811.961 211 812.314 211 813.022 211H887.978C888.686 211 889.039 211 889.31 211.099C889.548 211.186 889.741 211.325 889.862 211.496C890 211.691 890 211.945 890 212.455V214.545C890 215.055 890 215.309 889.862 215.504C889.741 215.675 889.548 215.814 889.31 215.901C889.039 216 888.686 216 887.978 216H813.022C812.314 216 811.961 216 811.69 215.901C811.452 215.814 811.259 215.675 811.138 215.504C811 215.309 811 215.055 811 214.545V212.455Z" fill="#97999D"/>
<path d="M973.045 109.045C972.204 108.204 970.839 108.202 970.033 109.075C962.235 117.533 957.387 128.317 956.255 139.805C955.053 152.008 958.12 164.25 964.932 174.445C971.744 184.641 981.881 192.158 993.615 195.718C1005.35 199.277 1017.95 198.658 1029.28 193.966C1040.61 189.273 1049.96 180.798 1055.74 169.984C1061.52 159.17 1063.37 146.686 1060.98 134.66C1058.59 122.634 1052.1 111.809 1042.62 104.03C1033.7 96.7074 1022.65 92.5103 1011.15 92.0436C1009.96 91.9954 1009 92.9632 1009 94.1514C1009 95.3396 1009.96 96.2979 1011.15 96.3503C1021.65 96.8143 1031.74 100.665 1039.89 107.357C1048.6 114.504 1054.56 124.45 1056.76 135.5C1058.96 146.55 1057.26 158.02 1051.95 167.956C1046.64 177.892 1038.04 185.679 1027.64 189.99C1017.23 194.302 1005.65 194.871 994.864 191.6C984.083 188.33 974.769 181.422 968.51 172.055C962.251 162.687 959.433 151.439 960.537 140.227C961.571 129.73 965.983 119.872 973.079 112.12C973.881 111.244 973.885 109.885 973.045 109.045Z" fill="#219653"/>
<path d="M993 141.782C993 140.458 993 139.796 993.054 139.291C993.102 138.846 993.177 138.484 993.271 138.258C993.377 138 993.516 138 993.794 138H1023.21C1023.48 138 1023.62 138 1023.73 138.258C1023.82 138.484 1023.9 138.846 1023.95 139.291C1024 139.796 1024 140.458 1024 141.782V147.218C1024 148.542 1024 149.204 1023.95 149.709C1023.9 150.154 1023.82 150.516 1023.73 150.742C1023.62 151 1023.48 151 1023.21 151H993.794C993.516 151 993.377 151 993.271 150.742C993.177 150.516 993.102 150.154 993.054 149.709C993 149.204 993 148.542 993 147.218V141.782Z" fill="#424754"/>
<path d="M969 212.455C969 211.945 969 211.691 969.138 211.496C969.259 211.325 969.452 211.186 969.69 211.099C969.961 211 970.314 211 971.022 211H1045.98C1046.69 211 1047.04 211 1047.31 211.099C1047.55 211.186 1047.74 211.325 1047.86 211.496C1048 211.691 1048 211.945 1048 212.455V214.545C1048 215.055 1048 215.309 1047.86 215.504C1047.74 215.675 1047.55 215.814 1047.31 215.901C1047.04 216 1046.69 216 1045.98 216H971.022C970.314 216 969.961 216 969.69 215.901C969.452 215.814 969.259 215.675 969.138 215.504C969 215.309 969 215.055 969 214.545V212.455Z" fill="#97999D"/>
<path d="M640 24.4545C640 23.9454 640 23.6908 640.099 23.4964C640.187 23.3253 640.326 23.1862 640.498 23.0991C640.693 23 640.948 23 641.459 23H695.541C696.052 23 696.307 23 696.502 23.0991C696.674 23.1862 696.813 23.3253 696.901 23.4964C697 23.6908 697 23.9454 697 24.4545V26.5455C697 27.0546 697 27.3092 696.901 27.5036C696.813 27.6747 696.674 27.8138 696.502 27.9009C696.307 28 696.052 28 695.541 28H641.459C640.948 28 640.693 28 640.498 27.9009C640.326 27.8138 640.187 27.6747 640.099 27.5036C640 27.3092 640 27.0546 640 26.5455V24.4545Z" fill="#424754"/>
<path d="M1048 24.4545C1048 23.9454 1048 23.6908 1048.03 23.4964C1048.06 23.3253 1048.1 23.1862 1048.16 23.0991C1048.22 23 1048.3 23 1048.46 23H1065.54C1065.7 23 1065.78 23 1065.84 23.0991C1065.9 23.1862 1065.94 23.3253 1065.97 23.4964C1066 23.6908 1066 23.9454 1066 24.4545V26.5455C1066 27.0546 1066 27.3092 1065.97 27.5036C1065.94 27.6747 1065.9 27.8138 1065.84 27.9009C1065.78 28 1065.7 28 1065.54 28H1048.46C1048.3 28 1048.22 28 1048.16 27.9009C1048.1 27.8138 1048.06 27.6747 1048.03 27.5036C1048 27.3092 1048 27.0546 1048 26.5455V24.4545Z" fill="#97999D"/>
<path d="M640 262.527C640 260.593 640 259.625 640.099 258.886C640.187 258.236 640.326 257.708 640.498 257.377C640.693 257 640.948 257 641.459 257H695.541C696.052 257 696.307 257 696.502 257.377C696.674 257.708 696.813 258.236 696.901 258.886C697 259.625 697 260.593 697 262.527V270.473C697 272.407 697 273.375 696.901 274.114C696.813 274.764 696.674 275.292 696.502 275.623C696.307 276 696.052 276 695.541 276H641.459C640.948 276 640.693 276 640.498 275.623C640.326 275.292 640.187 274.764 640.099 274.114C640 273.375 640 272.407 640 270.473V262.527Z" fill="#F04B5D"/>
</svg>
