<svg width="1110" height="298" viewBox="0 0 1110 298" fill="none" xmlns="http://www.w3.org/2000/svg">
<path d="M2.7 74H9V53.624H18.144V74H24.444V48.26H2.7V74ZM27.7979 64.784C27.7979 70.58 32.4779 74.432 38.3099 74.432C44.1419 74.432 48.8219 70.58 48.8219 64.784C48.8219 58.952 44.1419 55.028 38.2739 55.028C32.4779 55.028 27.7979 58.952 27.7979 64.784ZM34.0979 64.784C34.0979 61.976 36.0419 60.212 38.3099 60.212C40.5779 60.212 42.5219 61.976 42.5219 64.784C42.5219 67.556 40.5779 69.248 38.3099 69.248C36.0419 69.248 34.0979 67.556 34.0979 64.784ZM58.428 69.068C59.724 66.584 60.084 63.884 60.084 61.076V60.392H63.288V69.068H58.428ZM50.004 69.068V78.32H55.764V74H66.636V78.32H72.18V69.068H69.516V55.46H54.216V59.924C54.216 63.668 53.532 66.98 52.308 69.068H50.004ZM75.0372 74H81.2652V60.68H88.1052V55.46H75.0372V74ZM89.4268 64.784C89.4268 70.58 94.1068 74.432 99.9388 74.432C105.771 74.432 110.451 70.58 110.451 64.784C110.451 58.952 105.771 55.028 99.9028 55.028C94.1068 55.028 89.4268 58.952 89.4268 64.784ZM95.7268 64.784C95.7268 61.976 97.6708 60.212 99.9388 60.212C102.207 60.212 104.151 61.976 104.151 64.784C104.151 67.556 102.207 69.248 99.9388 69.248C97.6708 69.248 95.7268 67.556 95.7268 64.784ZM117.426 74H123.654V60.68H129.306V55.46H111.81V60.68H117.426V74ZM130.665 64.784C130.665 70.58 135.345 74.432 141.177 74.432C147.009 74.432 151.689 70.58 151.689 64.784C151.689 58.952 147.009 55.028 141.141 55.028C135.345 55.028 130.665 58.952 130.665 64.784ZM136.965 64.784C136.965 61.976 138.909 60.212 141.177 60.212C143.445 60.212 145.389 61.976 145.389 64.784C145.389 67.556 143.445 69.248 141.177 69.248C138.909 69.248 136.965 67.556 136.965 64.784ZM154.807 74H164.923C168.595 74 171.979 72.56 171.979 68.492C171.979 66.872 171.187 65.036 169.063 64.388V64.352C170.467 63.524 171.223 61.868 171.223 60.32C171.223 57.116 168.631 55.46 164.923 55.46H154.807V74ZM161.035 62.768V59.312H163.303C164.527 59.312 165.031 60.068 165.031 60.932C165.031 61.904 164.527 62.768 163.375 62.768H161.035ZM161.035 70.112V66.404H163.807C165.139 66.404 165.751 67.268 165.751 68.276C165.751 69.212 165.103 70.112 163.771 70.112H161.035ZM175.197 74H181.245L186.393 65.864C186.681 65.36 187.077 64.784 187.401 64.028H187.473C187.401 64.748 187.401 65.468 187.401 65.9V74H193.269V55.46H187.221L182.073 63.632C181.749 64.172 181.389 64.712 181.065 65.468H180.993C181.029 65 181.065 64.28 181.065 63.632V55.46H175.197V74ZM196.659 74H202.599L203.031 65.468C203.103 64.028 202.995 62.3 202.995 62.3H203.067C203.067 62.3 203.751 63.848 204.147 65.036L206.595 71.516H211.635L214.083 65.036C214.551 63.884 215.091 62.3 215.091 62.3H215.163C215.163 62.3 215.091 64.028 215.127 65.468L215.559 74H221.535L219.771 55.46H212.607L209.871 63.596C209.547 64.532 209.115 65.756 209.115 65.756H209.079C209.079 65.756 208.683 64.532 208.359 63.596L205.623 55.46H198.423L196.659 74ZM233.908 74H240.136V67.196H242.08L246.004 74H253.096L246.904 64.352V64.28L252.34 55.46H245.572L241.9 61.976H240.136V55.46H233.908V74ZM264.178 74H274.294C277.966 74 281.35 72.56 281.35 68.492C281.35 66.872 280.558 65.036 278.434 64.388V64.352C279.838 63.524 280.594 61.868 280.594 60.32C280.594 57.116 278.002 55.46 274.294 55.46H264.178V74ZM270.406 62.768V59.312H272.674C273.898 59.312 274.402 60.068 274.402 60.932C274.402 61.904 273.898 62.768 272.746 62.768H270.406ZM270.406 70.112V66.404H273.178C274.51 66.404 275.122 67.268 275.122 68.276C275.122 69.212 274.474 70.112 273.142 70.112H270.406ZM303.072 74H309.3V55.46H303.072V74ZM284.568 74H293.604C298.788 74 300.948 71.444 300.948 67.664C300.948 63.92 298.788 61.256 293.604 61.256H290.796V55.46H284.568V74ZM290.796 69.932V65.288H292.344C293.928 65.288 294.72 66.332 294.72 67.628C294.72 68.924 293.928 69.932 292.452 69.932H290.796ZM313.467 74H319.695V60.68H325.203V74H331.431V55.46H313.467V74ZM335.795 75.692L333.815 80.264C333.815 80.264 335.687 81.56 338.135 81.56C341.087 81.56 344.327 80.12 345.875 75.98L353.471 55.46H346.667L344.327 64.1C344.075 65.108 343.715 66.872 343.715 66.872H343.643C343.643 66.872 343.283 65 342.959 63.992L340.223 55.46H333.167L341.051 73.64L340.691 74.504C340.043 76.088 338.711 76.376 337.703 76.376C336.803 76.376 335.795 75.692 335.795 75.692ZM354.118 64.712C354.118 69.824 357.826 74.432 364.45 74.432C367.546 74.432 370.57 73.244 372.406 71.372L370.138 67.016C368.806 68.168 366.862 69.248 365.062 69.248C361.93 69.248 360.418 66.836 360.418 64.64C360.418 62.444 361.894 60.212 364.846 60.212C366.466 60.212 368.122 60.968 369.202 62.012L371.83 57.836C369.994 55.856 367.042 55.028 364.45 55.028C357.79 55.028 354.118 59.744 354.118 64.712ZM375.026 74H381.254V67.196H383.198L387.122 74H394.214L388.022 64.352V64.28L393.458 55.46H386.69L383.018 61.976H381.254V55.46H375.026V74ZM396.295 74H402.523V67.232H408.247V74H414.475V55.46H408.247V62.012H402.523V55.46H396.295V74ZM437.158 74H443.386V55.46H437.158V74ZM418.654 74H427.69C432.874 74 435.034 71.444 435.034 67.664C435.034 63.92 432.874 61.256 427.69 61.256H424.882V55.46H418.654V74ZM424.882 69.932V65.288H426.43C428.014 65.288 428.806 66.332 428.806 67.628C428.806 68.924 428.014 69.932 426.538 69.932H424.882ZM446.761 74H452.701L453.133 65.468C453.205 64.028 453.097 62.3 453.097 62.3H453.169C453.169 62.3 453.853 63.848 454.249 65.036L456.697 71.516H461.737L464.185 65.036C464.653 63.884 465.193 62.3 465.193 62.3H465.265C465.265 62.3 465.193 64.028 465.229 65.468L465.661 74H471.637L469.873 55.46H462.709L459.973 63.596C459.649 64.532 459.217 65.756 459.217 65.756H459.181C459.181 65.756 458.785 64.532 458.461 63.596L455.725 55.46H448.525L446.761 74ZM2.088 116H8.136L13.284 107.864C13.572 107.36 13.968 106.784 14.292 106.028H14.364C14.292 106.748 14.292 107.468 14.292 107.9V116H20.16V97.46H14.112L8.964 105.632C8.64 106.172 8.28 106.712 7.956 107.468H7.884C7.92 107 7.956 106.28 7.956 105.632V97.46H2.088V116ZM33.3419 116H43.4579C47.1299 116 50.5139 114.56 50.5139 110.492C50.5139 108.872 49.7219 107.036 47.5979 106.388V106.352C49.0019 105.524 49.7579 103.868 49.7579 102.32C49.7579 99.116 47.1659 97.46 43.4579 97.46H33.3419V116ZM39.5699 104.768V101.312H41.8379C43.0619 101.312 43.5659 102.068 43.5659 102.932C43.5659 103.904 43.0619 104.768 41.9099 104.768H39.5699ZM39.5699 112.112V108.404H42.3419C43.6739 108.404 44.2859 109.268 44.2859 110.276C44.2859 111.212 43.6379 112.112 42.3059 112.112H39.5699ZM52.6885 106.712C52.6885 111.824 56.3965 116.432 63.0205 116.432C66.1165 116.432 69.1405 115.244 70.9765 113.372L68.7085 109.016C67.3765 110.168 65.4325 111.248 63.6325 111.248C60.5005 111.248 58.9885 108.836 58.9885 106.64C58.9885 104.444 60.4645 102.212 63.4165 102.212C65.0365 102.212 66.6925 102.968 67.7725 104.012L70.4005 99.836C68.5645 97.856 65.6125 97.028 63.0205 97.028C56.3605 97.028 52.6885 101.744 52.6885 106.712ZM77.6638 116H83.8918V102.68H89.5438V97.46H72.0478V102.68H77.6638V116ZM92.3383 117.692L90.3583 122.264C90.3583 122.264 92.2303 123.56 94.6783 123.56C97.6303 123.56 100.87 122.12 102.418 117.98L110.014 97.46H103.21L100.87 106.1C100.618 107.108 100.258 108.872 100.258 108.872H100.186C100.186 108.872 99.8263 107 99.5023 105.992L96.7663 97.46H89.7103L97.5943 115.64L97.2343 116.504C96.5863 118.088 95.2543 118.376 94.2463 118.376C93.3463 118.376 92.3383 117.692 92.3383 117.692ZM112.338 116H118.566V102.68H124.074V116H130.302V97.46H112.338V116ZM134.486 116H140.534L145.682 107.864C145.97 107.36 146.366 106.784 146.69 106.028H146.762C146.69 106.748 146.69 107.468 146.69 107.9V116H152.558V97.46H146.51L141.362 105.632C141.038 106.172 140.678 106.712 140.354 107.468H140.282C140.318 107 140.354 106.28 140.354 105.632V97.46H134.486V116ZM160.808 116H167.036V102.68H172.688V97.46H155.192V102.68H160.808V116ZM174.048 106.712C174.048 111.644 177.612 116.432 184.236 116.432C187.08 116.432 190.14 115.46 192.156 113.732L189.852 109.376C188.34 110.384 186.576 111.248 184.74 111.248C182.76 111.248 180.888 110.204 180.42 107.936H192.12C192.192 107.288 192.264 106.64 192.264 105.992C192.264 100.844 189.168 97.028 183.696 97.028C177.72 97.028 174.048 101.276 174.048 106.712ZM180.564 104.372C180.888 102.896 181.752 101.6 183.552 101.6C185.136 101.6 186.108 102.86 186.108 104.372H180.564ZM194.009 116.18C201.209 116.18 203.369 110.996 203.369 103.436V102.392H206.465V116H212.693V97.46H197.501V103.4C197.501 109.772 195.665 110.528 194.009 110.744V116.18ZM216.858 116H226.11C231.294 116 233.454 113.444 233.454 109.664C233.454 105.92 231.294 103.256 226.11 103.256H223.086V97.46H216.858V116ZM223.086 111.932V107.288H224.85C226.434 107.288 227.226 108.332 227.226 109.628C227.226 110.924 226.434 111.932 224.958 111.932H223.086ZM236.193 116H242.421V109.232H248.145V116H254.373V97.46H248.145V104.012H242.421V97.46H236.193V116ZM277.057 116H283.285V97.46H277.057V116ZM258.553 116H267.589C272.773 116 274.933 113.444 274.933 109.664C274.933 105.92 272.773 103.256 267.589 103.256H264.781V97.46H258.553V116ZM264.781 111.932V107.288H266.329C267.913 107.288 268.705 108.332 268.705 109.628C268.705 110.924 267.913 111.932 266.437 111.932H264.781ZM286.659 116H292.599L293.031 107.468C293.103 106.028 292.995 104.3 292.995 104.3H293.067C293.067 104.3 293.751 105.848 294.147 107.036L296.595 113.516H301.635L304.083 107.036C304.551 105.884 305.091 104.3 305.091 104.3H305.163C305.163 104.3 305.091 106.028 305.127 107.468L305.559 116H311.535L309.771 97.46H302.607L299.871 105.596C299.547 106.532 299.115 107.756 299.115 107.756H299.079C299.079 107.756 298.683 106.532 298.359 105.596L295.623 97.46H288.423L286.659 116ZM322.396 113.768C324.592 115.604 327.436 116.432 330.244 116.432C336.868 116.432 340.576 111.824 340.576 106.712C340.576 101.744 337.048 97.028 330.388 97.028C327.652 97.028 324.592 97.82 322.72 99.584L325.24 103.616C326.536 102.5 328.264 101.852 330.064 101.852C332.368 101.852 333.988 102.932 334.636 104.624H327.616V108.728H334.6C333.988 110.348 332.368 111.608 329.812 111.608C327.796 111.608 326.032 110.816 324.556 109.592L322.396 113.768ZM343.701 116H349.929V109.196H351.873L355.797 116H362.889L356.697 106.352V106.28L362.133 97.46H355.365L351.693 103.976H349.929V97.46H343.701V116ZM363.423 113.696C365.439 115.496 368.427 116.432 371.163 116.432C375.555 116.432 378.831 114.452 378.831 110.528C378.831 108.368 377.355 107.072 375.951 106.424V106.352C377.067 105.74 378.255 104.48 378.255 102.176C378.255 98.972 375.231 97.028 371.415 97.028C368.031 97.028 365.655 97.928 363.927 99.116L365.727 102.968C367.671 101.816 369.111 101.564 370.119 101.564C371.703 101.564 372.063 102.248 372.063 103.04C372.063 104.192 371.163 104.48 370.191 104.48H368.319V108.584H370.587C372.279 108.584 372.603 109.232 372.603 110.132C372.603 110.996 372.099 111.752 370.371 111.752C368.895 111.752 367.059 110.852 365.907 109.808L363.423 113.696ZM380.654 110.78C380.654 113.984 383.138 116.432 386.702 116.432C388.826 116.432 390.986 115.46 392.21 113.732H392.282C392.282 113.732 392.21 114.272 392.21 114.884V116H397.898V104.588C397.898 99.872 394.73 97.028 389.618 97.028C386.594 97.028 383.354 98.216 381.77 99.44L383.93 103.832C385.406 102.86 387.242 102.068 389.042 102.068C390.41 102.068 391.67 102.572 391.67 104.12V104.444H391.13C386.558 104.444 380.654 105.812 380.654 110.78ZM386.81 110.204C386.81 108.512 389.258 108.008 391.166 108.008H391.742V108.512C391.742 110.024 390.374 111.788 388.574 111.788C387.422 111.788 386.81 111.068 386.81 110.204ZM401.058 116H406.998L407.43 107.468C407.502 106.028 407.394 104.3 407.394 104.3H407.466C407.466 104.3 408.15 105.848 408.546 107.036L410.994 113.516H416.034L418.482 107.036C418.95 105.884 419.49 104.3 419.49 104.3H419.562C419.562 104.3 419.49 106.028 419.526 107.468L419.958 116H425.934L424.17 97.46H417.006L414.27 105.596C413.946 106.532 413.514 107.756 413.514 107.756H413.478C413.478 107.756 413.082 106.532 412.758 105.596L410.022 97.46H402.822L401.058 116ZM428.263 106.712C428.263 111.644 431.827 116.432 438.451 116.432C441.295 116.432 444.355 115.46 446.371 113.732L444.067 109.376C442.555 110.384 440.791 111.248 438.955 111.248C436.975 111.248 435.103 110.204 434.635 107.936H446.335C446.407 107.288 446.479 106.64 446.479 105.992C446.479 100.844 443.383 97.028 437.911 97.028C431.935 97.028 428.263 101.276 428.263 106.712ZM434.779 104.372C435.103 102.896 435.967 101.6 437.767 101.6C439.351 101.6 440.323 102.86 440.323 104.372H434.779ZM449.733 116H455.961V109.232H461.685V116H467.913V97.46H461.685V104.012H455.961V97.46H449.733V116ZM470.76 110.78C470.76 113.984 473.244 116.432 476.808 116.432C478.932 116.432 481.092 115.46 482.316 113.732H482.388C482.388 113.732 482.316 114.272 482.316 114.884V116H488.004V104.588C488.004 99.872 484.836 97.028 479.724 97.028C476.7 97.028 473.46 98.216 471.876 99.44L474.036 103.832C475.512 102.86 477.348 102.068 479.148 102.068C480.516 102.068 481.776 102.572 481.776 104.12V104.444H481.236C476.664 104.444 470.76 105.812 470.76 110.78ZM476.916 110.204C476.916 108.512 479.364 108.008 481.272 108.008H481.848V108.512C481.848 110.024 480.48 111.788 478.68 111.788C477.528 111.788 476.916 111.068 476.916 110.204ZM491.163 116H497.103L497.535 107.468C497.607 106.028 497.499 104.3 497.499 104.3H497.571C497.571 104.3 498.255 105.848 498.651 107.036L501.099 113.516H506.139L508.587 107.036C509.055 105.884 509.595 104.3 509.595 104.3H509.667C509.667 104.3 509.595 106.028 509.631 107.468L510.063 116H516.039L514.275 97.46H507.111L504.375 105.596C504.051 106.532 503.619 107.756 503.619 107.756H503.583C503.583 107.756 503.187 106.532 502.863 105.596L500.127 97.46H492.927L491.163 116Z" fill="#222224"/>
<path d="M1.674 191H3.456V179.84H9.9V191H11.682V178.292H1.674V191ZM13.9396 186.428C13.9396 189.2 16.1356 191.216 18.8536 191.216C21.5536 191.216 23.7496 189.2 23.7496 186.428C23.7496 183.674 21.5536 181.676 18.8356 181.676C16.1356 181.676 13.9396 183.674 13.9396 186.428ZM15.7216 186.428C15.7216 184.538 17.1256 183.188 18.8536 183.188C20.5636 183.188 21.9856 184.538 21.9856 186.428C21.9856 188.336 20.5636 189.704 18.8536 189.704C17.1256 189.704 15.7216 188.336 15.7216 186.428ZM25.8539 191H29.7419C31.7219 191 33.0899 190.1 33.0899 188.408C33.0899 187.4 32.4959 186.518 31.3619 186.248V186.23C32.1899 185.87 32.6579 185.114 32.6579 184.232C32.6579 182.702 31.4519 181.892 29.6159 181.892H25.8539V191ZM27.5999 185.744V183.098H29.2559C30.3539 183.098 30.8759 183.53 30.8759 184.358C30.8759 185.204 30.3539 185.744 29.3099 185.744H27.5999ZM27.5999 189.776V186.914H29.4539C30.6599 186.914 31.3259 187.454 31.3259 188.354C31.3259 189.2 30.7319 189.776 29.4719 189.776H27.5999ZM43.4495 191H45.1955V181.892H43.4495V191ZM35.2055 191H38.7155C41.0015 191 42.0455 189.83 42.0455 188.12C42.0455 186.05 40.6235 185.186 38.7335 185.186H36.9515V181.892H35.2055V191ZM36.9515 189.74V186.446H38.4635C39.7235 186.446 40.2815 187.13 40.2815 188.102C40.2815 189.056 39.7415 189.74 38.4815 189.74H36.9515ZM47.3029 186.446C47.3029 189.182 49.3009 191.216 52.1809 191.216C53.6029 191.216 54.9889 190.64 55.8169 189.758L55.1149 188.48C54.4129 189.218 53.3149 189.704 52.3069 189.704C50.4169 189.704 49.0849 188.282 49.0849 186.428C49.0849 184.574 50.4169 183.188 52.2529 183.188C53.2069 183.188 54.1609 183.62 54.7729 184.232L55.6009 183.008C54.7369 182.09 53.3869 181.676 52.1809 181.676C49.3189 181.676 47.3029 183.746 47.3029 186.446ZM57.7055 191H59.3795L63.3215 185.564C63.6095 185.132 64.0595 184.52 64.1135 184.358H64.1495C64.1495 184.502 64.0955 185.132 64.0955 185.564V191H65.7875V181.892H64.0955L60.1715 187.328C59.8655 187.76 59.4335 188.39 59.3615 188.552H59.3255C59.3435 188.462 59.3795 187.814 59.3795 187.328V181.892H57.7055V191ZM68.0853 191H69.7773L70.1733 185.582C70.2093 185.042 70.1553 184.016 70.1553 184.016H70.1913C70.1913 184.016 70.4793 184.7 70.7673 185.366L72.9273 189.902H74.4213L76.5813 185.348C76.9233 184.646 77.1573 184.016 77.1573 184.016H77.1933C77.1933 184.016 77.1573 185.042 77.1753 185.582L77.5713 191H79.2633L78.4713 181.892H76.5633L74.1873 187.04C73.9533 187.598 73.6833 188.264 73.6833 188.264H73.6473C73.6473 188.264 73.3953 187.58 73.1433 187.04L70.8213 181.892H68.8773L68.0853 191ZM86.1117 191H89.9997C91.9797 191 93.3477 190.1 93.3477 188.408C93.3477 187.4 92.7537 186.518 91.6197 186.248V186.23C92.4477 185.87 92.9157 185.114 92.9157 184.232C92.9157 182.702 91.7097 181.892 89.8737 181.892H86.1117V191ZM87.8577 185.744V183.098H89.5137C90.6117 183.098 91.1337 183.53 91.1337 184.358C91.1337 185.204 90.6117 185.744 89.5677 185.744H87.8577ZM87.8577 189.776V186.914H89.7117C90.9177 186.914 91.5837 187.454 91.5837 188.354C91.5837 189.2 90.9897 189.776 89.7297 189.776H87.8577ZM94.7073 188.516C94.7073 190.226 96.1653 191.216 97.7493 191.216C99.0993 191.216 100.215 190.406 100.737 189.362H100.773C100.773 189.362 100.719 189.668 100.719 190.082V191H102.357V185.24C102.357 182.936 101.043 181.676 98.7573 181.676C97.4793 181.676 96.0933 182.144 95.3553 182.756L96.0573 184.034C96.7953 183.512 97.7133 183.152 98.6133 183.152C99.7473 183.152 100.611 183.656 100.611 185.15V185.33H100.143C98.2533 185.33 94.7073 185.654 94.7073 188.516ZM96.4533 188.372C96.4533 186.698 98.8653 186.59 100.161 186.59H100.611V186.932C100.611 188.282 99.6933 189.83 98.1633 189.83C97.0293 189.83 96.4533 189.092 96.4533 188.372ZM104.938 191H116.71V181.892H115.036V189.488H111.67V181.892H109.978V189.488H106.612V181.892H104.938V191ZM118.955 192.89L118.343 194.222C118.343 194.222 119.081 194.78 120.089 194.78C121.367 194.78 122.501 194.06 123.041 192.638L127.325 181.892H125.435L123.221 187.868C123.059 188.336 122.915 188.948 122.915 188.948H122.879C122.879 188.948 122.717 188.3 122.537 187.85L120.251 181.892H118.289L122.105 190.892L121.655 191.936C121.313 192.764 120.719 193.286 119.999 193.286C119.459 193.286 118.955 192.89 118.955 192.89ZM133.088 192.89L132.476 194.222C132.476 194.222 133.214 194.78 134.222 194.78C135.5 194.78 136.634 194.06 137.174 192.638L141.458 181.892H139.568L137.354 187.868C137.192 188.336 137.048 188.948 137.048 188.948H137.012C137.012 188.948 136.85 188.3 136.67 187.85L134.384 181.892H132.422L136.238 190.892L135.788 191.936C135.446 192.764 134.852 193.286 134.132 193.286C133.592 193.286 133.088 192.89 133.088 192.89ZM142.26 186.446C142.26 189.182 144.258 191.216 147.138 191.216C148.56 191.216 149.946 190.64 150.774 189.758L150.072 188.48C149.37 189.218 148.272 189.704 147.264 189.704C145.374 189.704 144.042 188.282 144.042 186.428C144.042 184.574 145.374 183.188 147.21 183.188C148.164 183.188 149.118 183.62 149.73 184.232L150.558 183.008C149.694 182.09 148.344 181.676 147.138 181.676C144.276 181.676 142.26 183.746 142.26 186.446ZM152.663 191H154.409V183.386H158.873V191H160.619V181.892H152.663V191ZM162.721 186.446C162.721 189.146 164.701 191.216 167.563 191.216C168.823 191.216 170.209 190.73 171.091 189.92L170.353 188.642C169.633 189.29 168.643 189.704 167.671 189.704C166.033 189.704 164.629 188.642 164.539 186.68H171.163C171.199 186.428 171.235 186.176 171.235 185.942C171.235 183.602 169.867 181.676 167.293 181.676C164.701 181.676 162.721 183.548 162.721 186.446ZM164.593 185.42C164.845 183.908 165.907 183.026 167.257 183.026C168.445 183.026 169.417 183.854 169.471 185.42H164.593ZM173.334 191H177.222C179.202 191 180.57 190.1 180.57 188.408C180.57 187.4 179.976 186.518 178.842 186.248V186.23C179.67 185.87 180.138 185.114 180.138 184.232C180.138 182.702 178.932 181.892 177.096 181.892H173.334V191ZM175.08 185.744V183.098H176.736C177.834 183.098 178.356 183.53 178.356 184.358C178.356 185.204 177.834 185.744 176.79 185.744H175.08ZM175.08 189.776V186.914H176.934C178.14 186.914 178.806 187.454 178.806 188.354C178.806 189.2 178.212 189.776 176.952 189.776H175.08ZM181.93 188.516C181.93 190.226 183.388 191.216 184.972 191.216C186.322 191.216 187.438 190.406 187.96 189.362H187.996C187.996 189.362 187.942 189.668 187.942 190.082V191H189.58V185.24C189.58 182.936 188.266 181.676 185.98 181.676C184.702 181.676 183.316 182.144 182.578 182.756L183.28 184.034C184.018 183.512 184.936 183.152 185.836 183.152C186.97 183.152 187.834 183.656 187.834 185.15V185.33H187.366C185.476 185.33 181.93 185.654 181.93 188.516ZM183.676 188.372C183.676 186.698 186.088 186.59 187.384 186.59H187.834V186.932C187.834 188.282 186.916 189.83 185.386 189.83C184.252 189.83 183.676 189.092 183.676 188.372ZM191.567 186.446C191.567 189.146 193.547 191.216 196.409 191.216C197.669 191.216 199.055 190.73 199.937 189.92L199.199 188.642C198.479 189.29 197.489 189.704 196.517 189.704C194.879 189.704 193.475 188.642 193.385 186.68H200.009C200.045 186.428 200.081 186.176 200.081 185.942C200.081 183.602 198.713 181.676 196.139 181.676C193.547 181.676 191.567 183.548 191.567 186.446ZM193.439 185.42C193.691 183.908 194.753 183.026 196.103 183.026C197.291 183.026 198.263 183.854 198.317 185.42H193.439ZM201.802 191H203.494L203.89 185.582C203.926 185.042 203.872 184.016 203.872 184.016H203.908C203.908 184.016 204.196 184.7 204.484 185.366L206.644 189.902H208.138L210.298 185.348C210.64 184.646 210.874 184.016 210.874 184.016H210.91C210.91 184.016 210.874 185.042 210.892 185.582L211.288 191H212.98L212.188 181.892H210.28L207.904 187.04C207.67 187.598 207.4 188.264 207.4 188.264H207.364C207.364 188.264 207.112 187.58 206.86 187.04L204.538 181.892H202.594L201.802 191ZM214.735 186.428C214.735 189.2 216.931 191.216 219.649 191.216C222.349 191.216 224.545 189.2 224.545 186.428C224.545 183.674 222.349 181.676 219.631 181.676C216.931 181.676 214.735 183.674 214.735 186.428ZM216.517 186.428C216.517 184.538 217.921 183.188 219.649 183.188C221.359 183.188 222.781 184.538 222.781 186.428C222.781 188.336 221.359 189.704 219.649 189.704C217.921 189.704 216.517 188.336 216.517 186.428ZM226.055 186.446C226.055 189.182 228.053 191.216 230.933 191.216C232.355 191.216 233.741 190.64 234.569 189.758L233.867 188.48C233.165 189.218 232.067 189.704 231.059 189.704C229.169 189.704 227.837 188.282 227.837 186.428C227.837 184.574 229.169 183.188 231.005 183.188C231.959 183.188 232.913 183.62 233.525 184.232L234.353 183.008C233.489 182.09 232.139 181.676 230.933 181.676C228.071 181.676 226.055 183.746 226.055 186.446ZM238.653 191H240.381V183.386H243.567V181.892H235.485V183.386H238.653V191ZM245.282 191H248.828C251.132 191 252.176 189.83 252.176 188.12C252.176 186.05 250.754 185.186 248.864 185.186H247.028V181.892H245.282V191ZM247.028 189.74V186.446H248.594C249.854 186.446 250.394 187.13 250.394 188.102C250.394 189.056 249.854 189.74 248.594 189.74H247.028ZM1.35 219H3.024L6.966 213.564C7.254 213.132 7.704 212.52 7.758 212.358H7.794C7.794 212.502 7.74 213.132 7.74 213.564V219H9.432V209.892H7.74L3.816 215.328C3.51 215.76 3.078 216.39 3.006 216.552H2.97C2.988 216.462 3.024 215.814 3.024 215.328V209.892H1.35V219ZM16.6078 219H18.3538V211.386H22.8178V219H24.5638V209.892H16.6078V219ZM26.6662 214.428C26.6662 217.2 28.8622 219.216 31.5802 219.216C34.2802 219.216 36.4762 217.2 36.4762 214.428C36.4762 211.674 34.2802 209.676 31.5622 209.676C28.8622 209.676 26.6662 211.674 26.6662 214.428ZM28.4482 214.428C28.4482 212.538 29.8522 211.188 31.5802 211.188C33.2902 211.188 34.7122 212.538 34.7122 214.428C34.7122 216.336 33.2902 217.704 31.5802 217.704C29.8522 217.704 28.4482 216.336 28.4482 214.428ZM38.2025 219H39.8945L40.2905 213.582C40.3265 213.042 40.2725 212.016 40.2725 212.016H40.3085C40.3085 212.016 40.5965 212.7 40.8845 213.366L43.0445 217.902H44.5385L46.6985 213.348C47.0405 212.646 47.2745 212.016 47.2745 212.016H47.3105C47.3105 212.016 47.2745 213.042 47.2925 213.582L47.6885 219H49.3805L48.5885 209.892H46.6805L44.3045 215.04C44.0705 215.598 43.8005 216.264 43.8005 216.264H43.7645C43.7645 216.264 43.5125 215.58 43.2605 215.04L40.9385 209.892H38.9945L38.2025 219ZM51.1349 214.428C51.1349 217.2 53.3309 219.216 56.0489 219.216C58.7489 219.216 60.9449 217.2 60.9449 214.428C60.9449 211.674 58.7489 209.676 56.0309 209.676C53.3309 209.676 51.1349 211.674 51.1349 214.428ZM52.9169 214.428C52.9169 212.538 54.3209 211.188 56.0489 211.188C57.7589 211.188 59.1809 212.538 59.1809 214.428C59.1809 216.336 57.7589 217.704 56.0489 217.704C54.3209 217.704 52.9169 216.336 52.9169 214.428ZM61.724 219H63.668L66.062 215.112H67.358V219H69.014V215.112H70.328L72.704 219H74.666L71.732 214.32V214.284L74.396 209.892H72.56L70.31 213.618H69.014V209.892H67.358V213.618H66.062L63.83 209.892H61.976L64.658 214.284V214.32L61.724 219ZM75.4279 214.446C75.4279 217.146 77.4079 219.216 80.2699 219.216C81.5299 219.216 82.9159 218.73 83.7979 217.92L83.0599 216.642C82.3399 217.29 81.3499 217.704 80.3779 217.704C78.7399 217.704 77.3359 216.642 77.2459 214.68H83.8699C83.9059 214.428 83.9419 214.176 83.9419 213.942C83.9419 211.602 82.5739 209.676 79.9999 209.676C77.4079 209.676 75.4279 211.548 75.4279 214.446ZM77.2999 213.42C77.5519 211.908 78.6139 211.026 79.9639 211.026C81.1519 211.026 82.1239 211.854 82.1779 213.42H77.2999ZM85.6634 219H87.3554L87.7514 213.582C87.7874 213.042 87.7334 212.016 87.7334 212.016H87.7694C87.7694 212.016 88.0574 212.7 88.3454 213.366L90.5054 217.902H91.9994L94.1594 213.348C94.5014 212.646 94.7354 212.016 94.7354 212.016H94.7714C94.7714 212.016 94.7354 213.042 94.7534 213.582L95.1494 219H96.8414L96.0494 209.892H94.1414L91.7654 215.04C91.5314 215.598 91.2614 216.264 91.2614 216.264H91.2254C91.2254 216.264 90.9734 215.58 90.7214 215.04L88.3994 209.892H86.4554L85.6634 219ZM103.096 214.428C103.096 217.2 105.292 219.216 108.01 219.216C110.71 219.216 112.906 217.2 112.906 214.428C112.906 211.674 110.71 209.676 107.992 209.676C105.292 209.676 103.096 211.674 103.096 214.428ZM104.878 214.428C104.878 212.538 106.282 211.188 108.01 211.188C109.72 211.188 111.142 212.538 111.142 214.428C111.142 216.336 109.72 217.704 108.01 217.704C106.282 217.704 104.878 216.336 104.878 214.428ZM115.01 219H116.756V211.386H121.22V219H122.966V209.892H115.01V219ZM125.663 222.6H127.409V218.46C127.409 217.992 127.337 217.668 127.337 217.668H127.373C128.003 218.64 129.047 219.216 130.199 219.216C132.593 219.216 134.321 217.344 134.321 214.446C134.321 211.62 132.791 209.676 130.325 209.676C128.993 209.676 127.841 210.288 127.265 211.386H127.229C127.229 211.386 127.283 211.08 127.283 210.702V209.892H125.663V222.6ZM127.355 214.482C127.355 212.178 128.615 211.206 129.983 211.206C131.495 211.206 132.557 212.484 132.557 214.464C132.557 216.534 131.369 217.704 129.929 217.704C128.255 217.704 127.355 216.102 127.355 214.482ZM135.879 214.446C135.879 217.146 137.859 219.216 140.721 219.216C141.981 219.216 143.367 218.73 144.249 217.92L143.511 216.642C142.791 217.29 141.801 217.704 140.829 217.704C139.191 217.704 137.787 216.642 137.697 214.68H144.321C144.357 214.428 144.393 214.176 144.393 213.942C144.393 211.602 143.025 209.676 140.451 209.676C137.859 209.676 135.879 211.548 135.879 214.446ZM137.751 213.42C138.003 211.908 139.065 211.026 140.415 211.026C141.603 211.026 142.575 211.854 142.629 213.42H137.751ZM148.275 217.56C149.427 215.76 149.571 213.168 149.571 211.8V211.314H152.307V217.56H148.275ZM145.359 217.56V221.16H146.997V219H153.747V221.16H155.349V217.56H154.053V209.892H147.897V211.566C147.897 212.97 147.753 215.814 146.475 217.56H145.359ZM156.481 214.446C156.481 217.146 158.461 219.216 161.323 219.216C162.583 219.216 163.969 218.73 164.851 217.92L164.113 216.642C163.393 217.29 162.403 217.704 161.431 217.704C159.793 217.704 158.389 216.642 158.299 214.68H164.923C164.959 214.428 164.995 214.176 164.995 213.942C164.995 211.602 163.627 209.676 161.053 209.676C158.461 209.676 156.481 211.548 156.481 214.446ZM158.353 213.42C158.605 211.908 159.667 211.026 161.017 211.026C162.205 211.026 163.177 211.854 163.231 213.42H158.353ZM166.104 219.09C168.786 218.946 169.83 216.822 169.83 212.7V211.332H172.512V219H174.258V209.892H168.156V212.7C168.156 215.994 167.436 217.326 166.104 217.524V219.09ZM176.955 219H178.629L182.571 213.564C182.859 213.132 183.309 212.52 183.363 212.358H183.399C183.399 212.502 183.345 213.132 183.345 213.564V219H185.037V209.892H183.345L179.421 215.328C179.115 215.76 178.683 216.39 178.611 216.552H178.575C178.593 216.462 178.629 215.814 178.629 215.328V209.892H176.955V219ZM189.909 219H191.637V211.386H194.823V209.892H186.741V211.386H189.909V219ZM196.538 219H200.084C202.388 219 203.432 217.83 203.432 216.12C203.432 214.05 202.01 213.186 200.12 213.186H198.284V209.892H196.538V219ZM198.284 217.74V214.446H199.85C201.11 214.446 201.65 215.13 201.65 216.102C201.65 217.056 201.11 217.74 199.85 217.74H198.284ZM204.715 214.446C204.715 217.182 206.713 219.216 209.593 219.216C211.015 219.216 212.401 218.64 213.229 217.758L212.527 216.48C211.825 217.218 210.727 217.704 209.719 217.704C207.829 217.704 206.497 216.282 206.497 214.428C206.497 212.574 207.829 211.188 209.665 211.188C210.619 211.188 211.573 211.62 212.185 212.232L213.013 211.008C212.149 210.09 210.799 209.676 209.593 209.676C206.731 209.676 204.715 211.746 204.715 214.446ZM214.2 219H216.126L218.358 215.706H219.888V219H221.634V209.892H217.998C216.072 209.892 214.74 210.882 214.74 212.754C214.74 214.14 215.676 215.112 216.72 215.4V215.418C216.72 215.418 216.504 215.652 216.306 215.976L214.2 219ZM218.376 214.428C217.314 214.428 216.504 213.87 216.504 212.736C216.504 211.566 217.26 211.098 218.43 211.098H219.888V214.428H218.376ZM228.235 214.446C228.235 217.182 230.233 219.216 233.113 219.216C234.535 219.216 235.921 218.64 236.749 217.758L236.047 216.48C235.345 217.218 234.247 217.704 233.239 217.704C231.349 217.704 230.017 216.282 230.017 214.428C230.017 212.574 231.349 211.188 233.185 211.188C234.139 211.188 235.093 211.62 235.705 212.232L236.533 211.008C235.669 210.09 234.319 209.676 233.113 209.676C230.251 209.676 228.235 211.746 228.235 214.446ZM243.137 219H244.883V215.094H249.491V219H251.237V209.892H249.491V213.6H244.883V209.892H243.137V219ZM253.174 216.516C253.174 218.226 254.632 219.216 256.216 219.216C257.566 219.216 258.682 218.406 259.204 217.362H259.24C259.24 217.362 259.186 217.668 259.186 218.082V219H260.824V213.24C260.824 210.936 259.51 209.676 257.224 209.676C255.946 209.676 254.56 210.144 253.822 210.756L254.524 212.034C255.262 211.512 256.18 211.152 257.08 211.152C258.214 211.152 259.078 211.656 259.078 213.15V213.33H258.61C256.72 213.33 253.174 213.654 253.174 216.516ZM254.92 216.372C254.92 214.698 257.332 214.59 258.628 214.59H259.078V214.932C259.078 216.282 258.16 217.83 256.63 217.83C255.496 217.83 254.92 217.092 254.92 216.372ZM263.405 219H265.151V211.386H269.615V219H271.361V209.892H263.405V219ZM274.057 222.6H275.803V218.46C275.803 217.992 275.731 217.668 275.731 217.668H275.767C276.397 218.64 277.441 219.216 278.593 219.216C280.987 219.216 282.715 217.344 282.715 214.446C282.715 211.62 281.185 209.676 278.719 209.676C277.387 209.676 276.235 210.288 275.659 211.386H275.623C275.623 211.386 275.677 211.08 275.677 210.702V209.892H274.057V222.6ZM275.749 214.482C275.749 212.178 277.009 211.206 278.377 211.206C279.889 211.206 280.951 212.484 280.951 214.464C280.951 216.534 279.763 217.704 278.323 217.704C276.649 217.704 275.749 216.102 275.749 214.482ZM284.112 216.516C284.112 218.226 285.57 219.216 287.154 219.216C288.504 219.216 289.62 218.406 290.142 217.362H290.178C290.178 217.362 290.124 217.668 290.124 218.082V219H291.762V213.24C291.762 210.936 290.448 209.676 288.162 209.676C286.884 209.676 285.498 210.144 284.76 210.756L285.462 212.034C286.2 211.512 287.118 211.152 288.018 211.152C289.152 211.152 290.016 211.656 290.016 213.15V213.33H289.548C287.658 213.33 284.112 213.654 284.112 216.516ZM285.858 216.372C285.858 214.698 288.27 214.59 289.566 214.59H290.016V214.932C290.016 216.282 289.098 217.83 287.568 217.83C286.434 217.83 285.858 217.092 285.858 216.372ZM294.342 219H298.23C300.21 219 301.578 218.1 301.578 216.408C301.578 215.4 300.984 214.518 299.85 214.248V214.23C300.678 213.87 301.146 213.114 301.146 212.232C301.146 210.702 299.94 209.892 298.104 209.892H294.342V219ZM296.088 213.744V211.098H297.744C298.842 211.098 299.364 211.53 299.364 212.358C299.364 213.204 298.842 213.744 297.798 213.744H296.088ZM296.088 217.776V214.914H297.942C299.148 214.914 299.814 215.454 299.814 216.354C299.814 217.2 299.22 217.776 297.96 217.776H296.088ZM302.704 219.09C305.386 218.946 306.43 216.822 306.43 212.7V211.332H309.112V219H310.858V209.892H304.756V212.7C304.756 215.994 304.036 217.326 302.704 217.524V219.09ZM312.961 214.446C312.961 217.146 314.941 219.216 317.803 219.216C319.063 219.216 320.449 218.73 321.331 217.92L320.593 216.642C319.873 217.29 318.883 217.704 317.911 217.704C316.273 217.704 314.869 216.642 314.779 214.68H321.403C321.439 214.428 321.475 214.176 321.475 213.942C321.475 211.602 320.107 209.676 317.533 209.676C314.941 209.676 312.961 211.548 312.961 214.446ZM314.833 213.42C315.085 211.908 316.147 211.026 317.497 211.026C318.685 211.026 319.657 211.854 319.711 213.42H314.833ZM323.575 219H325.321V215.094H329.929V219H331.675V209.892H329.929V213.6H325.321V209.892H323.575V219ZM334.368 219H336.042L339.984 213.564C340.272 213.132 340.722 212.52 340.776 212.358H340.812C340.812 212.502 340.758 213.132 340.758 213.564V219H342.45V209.892H340.758L336.834 215.328C336.528 215.76 336.096 216.39 336.024 216.552H335.988C336.006 216.462 336.042 215.814 336.042 215.328V209.892H334.368V219ZM344.531 214.446C344.531 217.146 346.511 219.216 349.373 219.216C350.633 219.216 352.019 218.73 352.901 217.92L352.163 216.642C351.443 217.29 350.453 217.704 349.481 217.704C347.843 217.704 346.439 216.642 346.349 214.68H352.973C353.009 214.428 353.045 214.176 353.045 213.942C353.045 211.602 351.677 209.676 349.103 209.676C346.511 209.676 344.531 211.548 344.531 214.446ZM346.403 213.42C346.655 211.908 347.717 211.026 349.067 211.026C350.255 211.026 351.227 211.854 351.281 213.42H346.403ZM354.767 219H356.459L356.855 213.582C356.891 213.042 356.837 212.016 356.837 212.016H356.873C356.873 212.016 357.161 212.7 357.449 213.366L359.609 217.902H361.103L363.263 213.348C363.605 212.646 363.839 212.016 363.839 212.016H363.875C363.875 212.016 363.839 213.042 363.857 213.582L364.253 219H365.945L365.153 209.892H363.245L360.869 215.04C360.635 215.598 360.365 216.264 360.365 216.264H360.329C360.329 216.264 360.077 215.58 359.825 215.04L357.503 209.892H355.559L354.767 219Z" fill="#424754"/>
<path d="M601 4.40122C601 2.86065 601 2.09037 601.3 1.50195C601.563 0.984356 601.984 0.563541 602.501 0.299816C603.089 0 603.859 0 605.398 0H1105.6C1107.14 0 1107.91 0 1108.5 0.299816C1109.02 0.563541 1109.44 0.984356 1109.7 1.50195C1110 2.09037 1110 2.86066 1110 4.40123V293.599C1110 295.139 1110 295.91 1109.7 296.498C1109.44 297.016 1109.02 297.436 1108.5 297.7C1107.91 298 1107.14 298 1105.6 298H605.398C603.859 298 603.089 298 602.501 297.7C601.984 297.436 601.563 297.016 601.3 296.498C601 295.91 601 295.139 601 293.599V4.40122Z" fill="#F3F3F3"/>
<path d="M646.28 124.928C645.189 124.459 643.919 124.963 643.495 126.073C639.713 135.964 638.975 146.779 641.404 157.12C643.998 168.16 650.064 178.077 658.711 185.414C667.359 192.751 678.132 197.12 689.447 197.881C700.762 198.641 712.022 195.752 721.574 189.638C731.125 183.524 738.463 174.507 742.51 163.913C746.557 153.32 747.1 141.707 744.057 130.782C741.015 119.857 734.549 110.196 725.609 103.219C717.235 96.6832 707.104 92.8251 696.538 92.1182C695.353 92.0389 694.364 92.9811 694.333 94.1689C694.302 95.3567 695.24 96.3399 696.425 96.4234C706.071 97.1035 715.313 100.642 722.961 106.611C731.176 113.022 737.117 121.898 739.912 131.936C742.707 141.974 742.209 152.644 738.491 162.378C734.772 172.112 728.03 180.396 719.254 186.014C710.478 191.632 700.132 194.286 689.735 193.588C679.339 192.889 669.441 188.874 661.495 182.133C653.55 175.392 647.976 166.28 645.593 156.136C643.375 146.691 644.031 136.816 647.452 127.773C647.872 126.661 647.372 125.397 646.28 124.928Z" fill="#27AE60"/>
<path d="M677 141.782C677 140.458 677 139.796 677.054 139.291C677.102 138.846 677.177 138.484 677.271 138.258C677.377 138 677.516 138 677.794 138H707.206C707.484 138 707.623 138 707.729 138.258C707.823 138.484 707.898 138.846 707.946 139.291C708 139.796 708 140.458 708 141.782V147.218C708 148.542 708 149.204 707.946 149.709C707.898 150.154 707.823 150.516 707.729 150.742C707.623 151 707.484 151 707.206 151H677.794C677.516 151 677.377 151 677.271 150.742C677.177 150.516 677.102 150.154 677.054 149.709C677 149.204 677 148.542 677 147.218V141.782Z" fill="#424754"/>
<path d="M653 212.455C653 211.945 653 211.691 653.138 211.496C653.259 211.325 653.452 211.186 653.69 211.099C653.961 211 654.314 211 655.022 211H729.978C730.686 211 731.039 211 731.31 211.099C731.548 211.186 731.741 211.325 731.862 211.496C732 211.691 732 211.945 732 212.455V214.545C732 215.055 732 215.309 731.862 215.504C731.741 215.675 731.548 215.814 731.31 215.901C731.039 216 730.686 216 729.978 216H655.022C654.314 216 653.961 216 653.69 215.901C653.452 215.814 653.259 215.675 653.138 215.504C653 215.309 653 215.055 653 214.545V212.455Z" fill="#97999D"/>
<path d="M801.704 157.47C800.552 157.761 799.85 158.933 800.188 160.072C802.806 168.896 807.68 176.899 814.346 183.282C821.531 190.161 830.506 194.879 840.246 196.898C849.986 198.916 860.098 198.152 869.424 194.694C878.751 191.237 886.916 185.224 892.986 177.344C899.057 169.464 902.787 160.035 903.751 150.135C904.714 140.235 902.873 130.263 898.436 121.36C893.999 112.458 887.147 104.983 878.662 99.7916C870.79 94.9748 861.808 92.3036 852.608 92.0244C851.42 91.9883 850.467 92.966 850.479 94.1541C850.491 95.3422 851.465 96.2906 852.652 96.3309C861.044 96.6157 869.233 99.0666 876.416 103.462C884.212 108.232 890.508 115.1 894.585 123.28C898.661 131.46 900.354 140.621 899.468 149.718C898.583 158.814 895.155 167.478 889.578 174.718C884 181.958 876.498 187.483 867.929 190.66C859.359 193.837 850.069 194.539 841.119 192.684C832.17 190.83 823.923 186.494 817.322 180.174C811.239 174.35 806.78 167.057 804.363 159.016C804.021 157.878 802.856 157.178 801.704 157.47Z" fill="#F2994A"/>
<path d="M835 141.782C835 140.458 835 139.796 835.054 139.291C835.102 138.846 835.177 138.484 835.271 138.258C835.377 138 835.516 138 835.794 138H865.206C865.484 138 865.623 138 865.729 138.258C865.823 138.484 865.898 138.846 865.946 139.291C866 139.796 866 140.458 866 141.782V147.218C866 148.542 866 149.204 865.946 149.709C865.898 150.154 865.823 150.516 865.729 150.742C865.623 151 865.484 151 865.206 151H835.794C835.516 151 835.377 151 835.271 150.742C835.177 150.516 835.102 150.154 835.054 149.709C835 149.204 835 148.542 835 147.218V141.782Z" fill="#424754"/>
<path d="M811 212.455C811 211.945 811 211.691 811.138 211.496C811.259 211.325 811.452 211.186 811.69 211.099C811.961 211 812.314 211 813.022 211H887.978C888.686 211 889.039 211 889.31 211.099C889.548 211.186 889.741 211.325 889.862 211.496C890 211.691 890 211.945 890 212.455V214.545C890 215.055 890 215.309 889.862 215.504C889.741 215.675 889.548 215.814 889.31 215.901C889.039 216 888.686 216 887.978 216H813.022C812.314 216 811.961 216 811.69 215.901C811.452 215.814 811.259 215.675 811.138 215.504C811 215.309 811 215.055 811 214.545V212.455Z" fill="#97999D"/>
<path d="M973.045 109.045C972.204 108.204 970.839 108.202 970.033 109.075C962.235 117.533 957.387 128.317 956.255 139.805C955.053 152.008 958.12 164.25 964.932 174.445C971.744 184.641 981.881 192.158 993.615 195.718C1005.35 199.277 1017.95 198.658 1029.28 193.966C1040.61 189.273 1049.96 180.798 1055.74 169.984C1061.52 159.17 1063.37 146.686 1060.98 134.66C1058.59 122.634 1052.1 111.809 1042.62 104.03C1033.7 96.7074 1022.65 92.5103 1011.15 92.0436C1009.96 91.9954 1009 92.9632 1009 94.1514C1009 95.3396 1009.96 96.2979 1011.15 96.3503C1021.65 96.8143 1031.74 100.665 1039.89 107.357C1048.6 114.504 1054.56 124.45 1056.76 135.5C1058.96 146.55 1057.26 158.02 1051.95 167.956C1046.64 177.892 1038.04 185.679 1027.64 189.99C1017.23 194.302 1005.65 194.871 994.864 191.6C984.083 188.33 974.769 181.422 968.51 172.055C962.251 162.687 959.433 151.439 960.537 140.227C961.571 129.73 965.983 119.872 973.079 112.12C973.881 111.244 973.885 109.885 973.045 109.045Z" fill="#219653"/>
<path d="M993 141.782C993 140.458 993 139.796 993.054 139.291C993.102 138.846 993.177 138.484 993.271 138.258C993.377 138 993.516 138 993.794 138H1023.21C1023.48 138 1023.62 138 1023.73 138.258C1023.82 138.484 1023.9 138.846 1023.95 139.291C1024 139.796 1024 140.458 1024 141.782V147.218C1024 148.542 1024 149.204 1023.95 149.709C1023.9 150.154 1023.82 150.516 1023.73 150.742C1023.62 151 1023.48 151 1023.21 151H993.794C993.516 151 993.377 151 993.271 150.742C993.177 150.516 993.102 150.154 993.054 149.709C993 149.204 993 148.542 993 147.218V141.782Z" fill="#424754"/>
<path d="M969 212.455C969 211.945 969 211.691 969.138 211.496C969.259 211.325 969.452 211.186 969.69 211.099C969.961 211 970.314 211 971.022 211H1045.98C1046.69 211 1047.04 211 1047.31 211.099C1047.55 211.186 1047.74 211.325 1047.86 211.496C1048 211.691 1048 211.945 1048 212.455V214.545C1048 215.055 1048 215.309 1047.86 215.504C1047.74 215.675 1047.55 215.814 1047.31 215.901C1047.04 216 1046.69 216 1045.98 216H971.022C970.314 216 969.961 216 969.69 215.901C969.452 215.814 969.259 215.675 969.138 215.504C969 215.309 969 215.055 969 214.545V212.455Z" fill="#97999D"/>
<path d="M640 24.4545C640 23.9454 640 23.6908 640.099 23.4964C640.187 23.3253 640.326 23.1862 640.498 23.0991C640.693 23 640.948 23 641.459 23H695.541C696.052 23 696.307 23 696.502 23.0991C696.674 23.1862 696.813 23.3253 696.901 23.4964C697 23.6908 697 23.9454 697 24.4545V26.5455C697 27.0546 697 27.3092 696.901 27.5036C696.813 27.6747 696.674 27.8138 696.502 27.9009C696.307 28 696.052 28 695.541 28H641.459C640.948 28 640.693 28 640.498 27.9009C640.326 27.8138 640.187 27.6747 640.099 27.5036C640 27.3092 640 27.0546 640 26.5455V24.4545Z" fill="#424754"/>
<path d="M1048 24.4545C1048 23.9454 1048 23.6908 1048.03 23.4964C1048.06 23.3253 1048.1 23.1862 1048.16 23.0991C1048.22 23 1048.3 23 1048.46 23H1065.54C1065.7 23 1065.78 23 1065.84 23.0991C1065.9 23.1862 1065.94 23.3253 1065.97 23.4964C1066 23.6908 1066 23.9454 1066 24.4545V26.5455C1066 27.0546 1066 27.3092 1065.97 27.5036C1065.94 27.6747 1065.9 27.8138 1065.84 27.9009C1065.78 28 1065.7 28 1065.54 28H1048.46C1048.3 28 1048.22 28 1048.16 27.9009C1048.1 27.8138 1048.06 27.6747 1048.03 27.5036C1048 27.3092 1048 27.0546 1048 26.5455V24.4545Z" fill="#97999D"/>
<path d="M640 262.527C640 260.593 640 259.625 640.099 258.886C640.187 258.236 640.326 257.708 640.498 257.377C640.693 257 640.948 257 641.459 257H695.541C696.052 257 696.307 257 696.502 257.377C696.674 257.708 696.813 258.236 696.901 258.886C697 259.625 697 260.593 697 262.527V270.473C697 272.407 697 273.375 696.901 274.114C696.813 274.764 696.674 275.292 696.502 275.623C696.307 276 696.052 276 695.541 276H641.459C640.948 276 640.693 276 640.498 275.623C640.326 275.292 640.187 274.764 640.099 274.114C640 273.375 640 272.407 640 270.473V262.527Z" fill="#F04B5D"/>
</svg>
