<svg width="970" height="298" viewBox="0 0 970 298" fill="none" xmlns="http://www.w3.org/2000/svg">
<path d="M571.692 98H578.028L578.82 86.408C578.964 84.464 578.82 82.088 578.82 82.088H578.892C578.892 82.088 579.756 84.788 580.332 86.408L583.032 93.86H588.432L591.132 86.408C591.708 84.788 592.572 82.088 592.572 82.088H592.644C592.644 82.088 592.5 84.464 592.644 86.408L593.436 98H599.736L597.648 72.26H590.808L587.064 83.132C586.488 84.788 585.768 87.38 585.768 87.38H585.696C585.696 87.38 584.976 84.788 584.4 83.132L580.656 72.26H573.816L571.692 98ZM602.221 92.78C602.221 95.984 604.705 98.432 608.269 98.432C610.393 98.432 612.553 97.46 613.777 95.732H613.849C613.849 95.732 613.777 96.272 613.777 96.884V98H619.465V86.588C619.465 81.872 616.297 79.028 611.185 79.028C608.161 79.028 604.921 80.216 603.337 81.44L605.497 85.832C606.973 84.86 608.809 84.068 610.609 84.068C611.977 84.068 613.237 84.572 613.237 86.12V86.444H612.697C608.125 86.444 602.221 87.812 602.221 92.78ZM608.377 92.204C608.377 90.512 610.825 90.008 612.733 90.008H613.309V90.512C613.309 92.024 611.941 93.788 610.141 93.788C608.989 93.788 608.377 93.068 608.377 92.204ZM627.484 98H633.712V84.68H639.364V79.46H621.868V84.68H627.484V98ZM640.724 88.712C640.724 93.644 644.288 98.432 650.912 98.432C653.756 98.432 656.816 97.46 658.832 95.732L656.528 91.376C655.016 92.384 653.252 93.248 651.416 93.248C649.436 93.248 647.564 92.204 647.096 89.936H658.796C658.868 89.288 658.94 88.64 658.94 87.992C658.94 82.844 655.844 79.028 650.372 79.028C644.396 79.028 640.724 83.276 640.724 88.712ZM647.24 86.372C647.564 84.896 648.428 83.6 650.228 83.6C651.812 83.6 652.784 84.86 652.784 86.372H647.24ZM661.401 98H667.341L667.773 89.468C667.845 88.028 667.737 86.3 667.737 86.3H667.809C667.809 86.3 668.493 87.848 668.889 89.036L671.337 95.516H676.377L678.825 89.036C679.293 87.884 679.833 86.3 679.833 86.3H679.905C679.905 86.3 679.833 88.028 679.869 89.468L680.301 98H686.277L684.513 79.46H677.349L674.613 87.596C674.289 88.532 673.857 89.756 673.857 89.756H673.821C673.821 89.756 673.425 88.532 673.101 87.596L670.365 79.46H663.165L661.401 98ZM688.319 92.78C688.319 95.984 690.803 98.432 694.367 98.432C696.491 98.432 698.651 97.46 699.875 95.732H699.947C699.947 95.732 699.875 96.272 699.875 96.884V98H705.562V86.588C705.562 81.872 702.395 79.028 697.283 79.028C694.259 79.028 691.019 80.216 689.435 81.44L691.595 85.832C693.071 84.86 694.907 84.068 696.707 84.068C698.075 84.068 699.335 84.572 699.335 86.12V86.444H698.795C694.223 86.444 688.319 87.812 688.319 92.78ZM694.475 92.204C694.475 90.512 696.923 90.008 698.831 90.008H699.407V90.512C699.407 92.024 698.039 93.788 696.239 93.788C695.087 93.788 694.475 93.068 694.475 92.204ZM713.582 98H719.81V84.68H725.462V79.46H707.966V84.68H713.582V98ZM728.076 98H734.124L739.272 89.864C739.56 89.36 739.956 88.784 740.28 88.028H740.352C740.28 88.748 740.28 89.468 740.28 89.9V98H746.148V79.46H740.1L734.952 87.632C734.628 88.172 734.268 88.712 733.944 89.468H733.872C733.908 89 733.944 88.28 733.944 87.632V79.46H728.076V98ZM750.33 98H756.558V91.196H758.502L762.426 98H769.518L763.326 88.352V88.28L768.762 79.46H761.994L758.322 85.976H756.558V79.46H750.33V98ZM770.127 92.78C770.127 95.984 772.611 98.432 776.175 98.432C778.299 98.432 780.459 97.46 781.683 95.732H781.755C781.755 95.732 781.683 96.272 781.683 96.884V98H787.371V86.588C787.371 81.872 784.203 79.028 779.091 79.028C776.067 79.028 772.827 80.216 771.243 81.44L773.403 85.832C774.879 84.86 776.715 84.068 778.515 84.068C779.883 84.068 781.143 84.572 781.143 86.12V86.444H780.603C776.031 86.444 770.127 87.812 770.127 92.78ZM776.283 92.204C776.283 90.512 778.731 90.008 780.639 90.008H781.215V90.512C781.215 92.024 779.847 93.788 778.047 93.788C776.895 93.788 776.283 93.068 776.283 92.204ZM578.928 135.068C580.224 132.584 580.584 129.884 580.584 127.076V126.392H583.788V135.068H578.928ZM570.504 135.068V144.32H576.264V140H587.136V144.32H592.68V135.068H590.016V121.46H574.716V125.924C574.716 129.668 574.032 132.98 572.808 135.068H570.504ZM594.169 140.18C601.369 140.18 603.529 134.996 603.529 127.436V126.392H606.625V140H612.853V121.46H597.661V127.4C597.661 133.772 595.825 134.528 594.169 134.744V140.18ZM615.254 140H621.842L625.406 134.348H626.702V140H632.93V121.46H623.21C619.106 121.46 616.514 123.836 616.514 127.724C616.514 130.1 617.846 132.224 619.862 133.232V133.268C619.862 133.268 619.502 133.628 618.998 134.384L615.254 140ZM625.226 130.208C623.75 130.208 622.706 129.452 622.706 127.688C622.706 125.96 623.75 125.312 625.19 125.312H626.702V130.208H625.226ZM646.092 147.2H652.32V140.252C652.32 139.316 652.248 138.668 652.248 138.668H652.32C653.652 139.82 655.308 140.432 657.036 140.432C661.968 140.432 665.676 136.616 665.676 130.748C665.676 124.988 662.364 121.028 657.324 121.028C655.092 121.028 652.968 121.892 651.708 123.584H651.636C651.636 123.584 651.708 123.008 651.708 122.396V121.46H646.092V147.2ZM652.14 130.856C652.14 127.652 653.904 126.284 655.776 126.284C657.936 126.284 659.412 128.084 659.412 130.856C659.412 133.7 657.72 135.284 655.776 135.284C653.328 135.284 652.14 133.088 652.14 130.856ZM667.541 134.78C667.541 137.984 670.025 140.432 673.589 140.432C675.713 140.432 677.873 139.46 679.097 137.732H679.169C679.169 137.732 679.097 138.272 679.097 138.884V140H684.785V128.588C684.785 123.872 681.617 121.028 676.505 121.028C673.481 121.028 670.241 122.216 668.657 123.44L670.817 127.832C672.293 126.86 674.129 126.068 675.929 126.068C677.297 126.068 678.557 126.572 678.557 128.12V128.444H678.017C673.445 128.444 667.541 129.812 667.541 134.78ZM673.697 134.204C673.697 132.512 676.145 132.008 678.053 132.008H678.629V132.512C678.629 134.024 677.261 135.788 675.461 135.788C674.309 135.788 673.697 135.068 673.697 134.204ZM687.908 128.912C687.908 135.716 691.256 140.432 697.952 140.432C703.82 140.432 707.528 136.544 707.528 131.432C707.528 126.464 704.504 122.936 699.536 122.936C697.916 122.936 695.684 123.368 694.1 124.7H694.028C694.136 122.036 696.656 121.028 699.032 120.236L706.016 118.004L704.252 113L698.24 115.016C691.004 117.5 687.908 121.352 687.908 128.912ZM694.1 131.54C694.1 129.128 695.756 127.616 697.7 127.616C699.644 127.616 701.3 129.128 701.3 131.54C701.3 133.916 699.644 135.356 697.7 135.356C695.756 135.356 694.1 133.916 694.1 131.54ZM709.735 130.784C709.735 136.58 714.415 140.432 720.247 140.432C726.079 140.432 730.759 136.58 730.759 130.784C730.759 124.952 726.079 121.028 720.211 121.028C714.415 121.028 709.735 124.952 709.735 130.784ZM716.035 130.784C716.035 127.976 717.979 126.212 720.247 126.212C722.515 126.212 724.459 127.976 724.459 130.784C724.459 133.556 722.515 135.248 720.247 135.248C717.979 135.248 716.035 133.556 716.035 130.784ZM737.734 140H743.962V126.68H749.614V121.46H732.118V126.68H737.734V140ZM770.733 140H776.961V121.46H770.733V140ZM752.229 140H761.265C766.449 140 768.609 137.444 768.609 133.664C768.609 129.92 766.449 127.256 761.265 127.256H758.457V121.46H752.229V140ZM758.457 135.932V131.288H760.005C761.589 131.288 762.381 132.332 762.381 133.628C762.381 134.924 761.589 135.932 760.113 135.932H758.457Z" fill="#222224"/>
<path d="M570.882 188.556C570.882 192.3 573.744 195.216 577.416 195.216C581.088 195.216 583.932 192.3 583.932 188.556C583.932 184.902 581.088 182.076 577.416 182.076C573.744 182.076 570.882 184.902 570.882 188.556ZM572.718 188.556C572.718 185.802 574.806 183.696 577.416 183.696C580.008 183.696 582.096 185.802 582.096 188.556C582.096 191.4 580.008 193.578 577.416 193.578C574.806 193.578 572.718 191.4 572.718 188.556ZM585.772 189.762C585.772 192.912 587.158 195.216 590.236 195.216C592.81 195.216 594.538 193.416 594.538 190.896C594.538 188.322 592.954 186.702 590.668 186.702C589.462 186.702 588.256 187.098 587.446 188.322H587.41C587.536 186.576 588.4 185.514 590.218 184.686L593.71 183.228L593.134 181.788L589.876 183.192C586.708 184.524 585.772 186.504 585.772 189.762ZM587.59 190.896C587.59 189.294 588.688 188.088 590.236 188.088C591.604 188.088 592.774 189.15 592.774 190.932C592.774 192.696 591.604 193.74 590.164 193.74C588.76 193.74 587.59 192.696 587.59 190.896ZM596.715 195H598.461V191.094H603.069V195H604.815V185.892H603.069V189.6H598.461V185.892H596.715V195ZM606.914 190.428C606.914 193.2 609.11 195.216 611.828 195.216C614.528 195.216 616.724 193.2 616.724 190.428C616.724 187.674 614.528 185.676 611.81 185.676C609.11 185.676 606.914 187.674 606.914 190.428ZM608.696 190.428C608.696 188.538 610.1 187.188 611.828 187.188C613.538 187.188 614.96 188.538 614.96 190.428C614.96 192.336 613.538 193.704 611.828 193.704C610.1 193.704 608.696 192.336 608.696 190.428ZM618.829 195H622.717C624.697 195 626.065 194.1 626.065 192.408C626.065 191.4 625.471 190.518 624.337 190.248V190.23C625.165 189.87 625.633 189.114 625.633 188.232C625.633 186.702 624.427 185.892 622.591 185.892H618.829V195ZM620.575 189.744V187.098H622.231C623.329 187.098 623.851 187.53 623.851 188.358C623.851 189.204 623.329 189.744 622.285 189.744H620.575ZM620.575 193.776V190.914H622.429C623.635 190.914 624.301 191.454 624.301 192.354C624.301 193.2 623.707 193.776 622.447 193.776H620.575ZM628.18 195H629.854L633.796 189.564C634.084 189.132 634.534 188.52 634.588 188.358H634.624C634.624 188.502 634.57 189.132 634.57 189.564V195H636.262V185.892H634.57L630.646 191.328C630.34 191.76 629.908 192.39 629.836 192.552H629.8C629.818 192.462 629.854 191.814 629.854 191.328V185.892H628.18V195ZM638.56 195H640.252L640.648 189.582C640.684 189.042 640.63 188.016 640.63 188.016H640.666C640.666 188.016 640.954 188.7 641.242 189.366L643.402 193.902H644.896L647.056 189.348C647.398 188.646 647.632 188.016 647.632 188.016H647.668C647.668 188.016 647.632 189.042 647.65 189.582L648.046 195H649.738L648.946 185.892H647.038L644.662 191.04C644.428 191.598 644.158 192.264 644.158 192.264H644.122C644.122 192.264 643.87 191.58 643.618 191.04L641.296 185.892H639.352L638.56 195ZM656.19 189.762C656.19 192.912 657.576 195.216 660.654 195.216C663.228 195.216 664.956 193.416 664.956 190.896C664.956 188.322 663.372 186.702 661.086 186.702C659.88 186.702 658.674 187.098 657.864 188.322H657.828C657.954 186.576 658.818 185.514 660.636 184.686L664.128 183.228L663.552 181.788L660.294 183.192C657.126 184.524 656.19 186.504 656.19 189.762ZM658.008 190.896C658.008 189.294 659.106 188.088 660.654 188.088C662.022 188.088 663.192 189.15 663.192 190.932C663.192 192.696 662.022 193.74 660.582 193.74C659.178 193.74 658.008 192.696 658.008 190.896ZM666.377 192.516C666.377 194.226 667.835 195.216 669.419 195.216C670.769 195.216 671.885 194.406 672.407 193.362H672.443C672.443 193.362 672.389 193.668 672.389 194.082V195H674.027V189.24C674.027 186.936 672.713 185.676 670.427 185.676C669.149 185.676 667.763 186.144 667.025 186.756L667.727 188.034C668.465 187.512 669.383 187.152 670.283 187.152C671.417 187.152 672.281 187.656 672.281 189.15V189.33H671.813C669.923 189.33 666.377 189.654 666.377 192.516ZM668.123 192.372C668.123 190.698 670.535 190.59 671.831 190.59H672.281V190.932C672.281 192.282 671.363 193.83 669.833 193.83C668.699 193.83 668.123 193.092 668.123 192.372ZM675.726 193.884C676.482 194.604 677.67 195.216 679.074 195.216C680.946 195.216 682.566 194.262 682.566 192.39C682.566 191.22 681.846 190.536 680.928 190.248V190.212C681.648 189.906 682.26 189.276 682.26 188.142C682.26 186.522 680.91 185.676 679.182 185.676C677.742 185.676 676.716 186.144 676.014 186.666L676.662 187.836C677.364 187.314 678.084 187.044 678.876 187.044C679.884 187.044 680.496 187.512 680.496 188.358C680.496 189.276 679.794 189.672 678.768 189.672H677.814V190.932H678.93C680.208 190.932 680.802 191.436 680.802 192.318C680.802 193.308 679.956 193.812 678.912 193.812C677.814 193.812 676.95 193.164 676.536 192.732L675.726 193.884ZM684.082 190.428C684.082 193.2 686.278 195.216 688.996 195.216C691.696 195.216 693.892 193.2 693.892 190.428C693.892 187.674 691.696 185.676 688.978 185.676C686.278 185.676 684.082 187.674 684.082 190.428ZM685.864 190.428C685.864 188.538 687.268 187.188 688.996 187.188C690.706 187.188 692.128 188.538 692.128 190.428C692.128 192.336 690.706 193.704 688.996 193.704C687.268 193.704 685.864 192.336 685.864 190.428ZM695.996 195H699.884C701.864 195 703.232 194.1 703.232 192.408C703.232 191.4 702.638 190.518 701.504 190.248V190.23C702.332 189.87 702.8 189.114 702.8 188.232C702.8 186.702 701.594 185.892 699.758 185.892H695.996V195ZM697.742 189.744V187.098H699.398C700.496 187.098 701.018 187.53 701.018 188.358C701.018 189.204 700.496 189.744 699.452 189.744H697.742ZM697.742 193.776V190.914H699.596C700.802 190.914 701.468 191.454 701.468 192.354C701.468 193.2 700.874 193.776 699.614 193.776H697.742ZM713.592 195H715.338V185.892H713.592V195ZM705.348 195H708.858C711.144 195 712.188 193.83 712.188 192.12C712.188 190.05 710.766 189.186 708.876 189.186H707.094V185.892H705.348V195ZM707.094 193.74V190.446H708.606C709.866 190.446 710.424 191.13 710.424 192.102C710.424 193.056 709.884 193.74 708.624 193.74H707.094ZM717.445 190.446C717.445 193.146 719.425 195.216 722.287 195.216C723.547 195.216 724.933 194.73 725.815 193.92L725.077 192.642C724.357 193.29 723.367 193.704 722.395 193.704C720.757 193.704 719.353 192.642 719.263 190.68H725.887C725.923 190.428 725.959 190.176 725.959 189.942C725.959 187.602 724.591 185.676 722.017 185.676C719.425 185.676 717.445 187.548 717.445 190.446ZM719.317 189.42C719.569 187.908 720.631 187.026 721.981 187.026C723.169 187.026 724.141 187.854 724.195 189.42H719.317ZM731.677 193.884C732.433 194.604 733.621 195.216 735.025 195.216C736.897 195.216 738.517 194.262 738.517 192.39C738.517 191.22 737.797 190.536 736.879 190.248V190.212C737.599 189.906 738.211 189.276 738.211 188.142C738.211 186.522 736.861 185.676 735.133 185.676C733.693 185.676 732.667 186.144 731.965 186.666L732.613 187.836C733.315 187.314 734.035 187.044 734.827 187.044C735.835 187.044 736.447 187.512 736.447 188.358C736.447 189.276 735.745 189.672 734.719 189.672H733.765V190.932H734.881C736.159 190.932 736.753 191.436 736.753 192.318C736.753 193.308 735.907 193.812 734.863 193.812C733.765 193.812 732.901 193.164 732.487 192.732L731.677 193.884ZM740.627 195H742.373V191.094H746.981V195H748.727V185.892H746.981V189.6H742.373V185.892H740.627V195ZM750.664 192.516C750.664 194.226 752.122 195.216 753.706 195.216C755.056 195.216 756.172 194.406 756.694 193.362H756.73C756.73 193.362 756.676 193.668 756.676 194.082V195H758.314V189.24C758.314 186.936 757 185.676 754.714 185.676C753.436 185.676 752.05 186.144 751.312 186.756L752.014 188.034C752.752 187.512 753.67 187.152 754.57 187.152C755.704 187.152 756.568 187.656 756.568 189.15V189.33H756.1C754.21 189.33 750.664 189.654 750.664 192.516ZM752.41 192.372C752.41 190.698 754.822 190.59 756.118 190.59H756.568V190.932C756.568 192.282 755.65 193.83 754.12 193.83C752.986 193.83 752.41 193.092 752.41 192.372ZM760.895 195H762.641V191.094H767.249V195H768.995V185.892H767.249V189.6H762.641V185.892H760.895V195ZM771.688 195H773.362L777.304 189.564C777.592 189.132 778.042 188.52 778.096 188.358H778.132C778.132 188.502 778.078 189.132 778.078 189.564V195H779.77V185.892H778.078L774.154 191.328C773.848 191.76 773.416 192.39 773.344 192.552H773.308C773.326 192.462 773.362 191.814 773.362 191.328V185.892H771.688V195ZM781.528 195H783.454L785.686 191.706H787.216V195H788.962V185.892H785.326C783.4 185.892 782.068 186.882 782.068 188.754C782.068 190.14 783.004 191.112 784.048 191.4V191.418C784.048 191.418 783.832 191.652 783.634 191.976L781.528 195ZM785.704 190.428C784.642 190.428 783.832 189.87 783.832 188.736C783.832 187.566 784.588 187.098 785.758 187.098H787.216V190.428H785.704ZM796.157 195H797.831L801.773 189.564C802.061 189.132 802.511 188.52 802.565 188.358H802.601C802.601 188.502 802.547 189.132 802.547 189.564V195H804.239V185.892H802.547L798.623 191.328C798.317 191.76 797.885 192.39 797.813 192.552H797.777C797.795 192.462 797.831 191.814 797.831 191.328V185.892H796.157V195ZM811.414 195H813.16V191.094H817.768V195H819.514V185.892H817.768V189.6H813.16V185.892H811.414V195ZM821.451 192.516C821.451 194.226 822.909 195.216 824.493 195.216C825.843 195.216 826.959 194.406 827.481 193.362H827.517C827.517 193.362 827.463 193.668 827.463 194.082V195H829.101V189.24C829.101 186.936 827.787 185.676 825.501 185.676C824.223 185.676 822.837 186.144 822.099 186.756L822.801 188.034C823.539 187.512 824.457 187.152 825.357 187.152C826.491 187.152 827.355 187.656 827.355 189.15V189.33H826.887C824.997 189.33 821.451 189.654 821.451 192.516ZM823.197 192.372C823.197 190.698 825.609 190.59 826.905 190.59H827.355V190.932C827.355 192.282 826.437 193.83 824.907 193.83C823.773 193.83 823.197 193.092 823.197 192.372ZM831.056 196.89L830.444 198.222C830.444 198.222 831.182 198.78 832.19 198.78C833.468 198.78 834.602 198.06 835.142 196.638L839.426 185.892H837.536L835.322 191.868C835.16 192.336 835.016 192.948 835.016 192.948H834.98C834.98 192.948 834.818 192.3 834.638 191.85L832.352 185.892H830.39L834.206 194.892L833.756 195.936C833.414 196.764 832.82 197.286 832.1 197.286C831.56 197.286 831.056 196.89 831.056 196.89ZM843.623 191.832C844.523 191.832 845.513 191.526 846.089 191.166H846.125C846.125 191.166 846.107 191.454 846.107 191.706V195H847.853V185.892H846.107V189.672C845.729 189.942 844.991 190.32 844.091 190.32C842.597 190.32 842.273 189.51 842.273 188.61V185.892H840.563V188.862C840.563 190.806 841.679 191.832 843.623 191.832ZM850.561 195H852.235L856.177 189.564C856.465 189.132 856.915 188.52 856.969 188.358H857.005C857.005 188.502 856.951 189.132 856.951 189.564V195H858.643V185.892H856.951L853.027 191.328C852.721 191.76 852.289 192.39 852.217 192.552H852.181C852.199 192.462 852.235 191.814 852.235 191.328V185.892H850.561V195ZM860.941 195H862.633L863.029 189.582C863.065 189.042 863.011 188.016 863.011 188.016H863.047C863.047 188.016 863.335 188.7 863.623 189.366L865.783 193.902H867.277L869.437 189.348C869.779 188.646 870.013 188.016 870.013 188.016H870.049C870.049 188.016 870.013 189.042 870.031 189.582L870.427 195H872.119L871.327 185.892H869.419L867.043 191.04C866.809 191.598 866.539 192.264 866.539 192.264H866.503C866.503 192.264 866.251 191.58 865.999 191.04L863.677 185.892H861.733L860.941 195ZM570.756 218.446C570.756 221.182 572.754 223.216 575.634 223.216C577.056 223.216 578.442 222.64 579.27 221.758L578.568 220.48C577.866 221.218 576.768 221.704 575.76 221.704C573.87 221.704 572.538 220.282 572.538 218.428C572.538 216.574 573.87 215.188 575.706 215.188C576.66 215.188 577.614 215.62 578.226 216.232L579.054 215.008C578.19 214.09 576.84 213.676 575.634 213.676C572.772 213.676 570.756 215.746 570.756 218.446ZM583.643 219.832C584.543 219.832 585.533 219.526 586.109 219.166H586.145C586.145 219.166 586.127 219.454 586.127 219.706V223H587.873V213.892H586.127V217.672C585.749 217.942 585.011 218.32 584.111 218.32C582.617 218.32 582.293 217.51 582.293 216.61V213.892H580.583V216.862C580.583 218.806 581.699 219.832 583.643 219.832ZM590.58 223H592.254L596.196 217.564C596.484 217.132 596.934 216.52 596.988 216.358H597.024C597.024 216.502 596.97 217.132 596.97 217.564V223H598.662V213.892H596.97L593.046 219.328C592.74 219.76 592.308 220.39 592.236 220.552H592.2C592.218 220.462 592.254 219.814 592.254 219.328V213.892H590.58V223ZM603.534 223H605.262V215.386H608.448V213.892H600.366V215.386H603.534V223ZM609.319 220.516C609.319 222.226 610.777 223.216 612.361 223.216C613.711 223.216 614.827 222.406 615.349 221.362H615.385C615.385 221.362 615.331 221.668 615.331 222.082V223H616.969V217.24C616.969 214.936 615.655 213.676 613.369 213.676C612.091 213.676 610.705 214.144 609.967 214.756L610.669 216.034C611.407 215.512 612.325 215.152 613.225 215.152C614.359 215.152 615.223 215.656 615.223 217.15V217.33H614.755C612.865 217.33 609.319 217.654 609.319 220.516ZM611.065 220.372C611.065 218.698 613.477 218.59 614.773 218.59H615.223V218.932C615.223 220.282 614.305 221.83 612.775 221.83C611.641 221.83 611.065 221.092 611.065 220.372ZM621.622 223H623.35V215.386H626.536V213.892H618.454V215.386H621.622V223ZM628.25 223H631.796C634.1 223 635.144 221.83 635.144 220.12C635.144 218.05 633.722 217.186 631.832 217.186H629.996V213.892H628.25V223ZM629.996 221.74V218.446H631.562C632.822 218.446 633.362 219.13 633.362 220.102C633.362 221.056 632.822 221.74 631.562 221.74H629.996ZM641.126 217.762C641.126 220.912 642.512 223.216 645.59 223.216C648.164 223.216 649.892 221.416 649.892 218.896C649.892 216.322 648.308 214.702 646.022 214.702C644.816 214.702 643.61 215.098 642.8 216.322H642.764C642.89 214.576 643.754 213.514 645.572 212.686L649.064 211.228L648.488 209.788L645.23 211.192C642.062 212.524 641.126 214.504 641.126 217.762ZM642.944 218.896C642.944 217.294 644.042 216.088 645.59 216.088C646.958 216.088 648.128 217.15 648.128 218.932C648.128 220.696 646.958 221.74 645.518 221.74C644.114 221.74 642.944 220.696 642.944 218.896ZM660.313 223H662.059V213.892H660.313V223ZM652.069 223H655.579C657.865 223 658.909 221.83 658.909 220.12C658.909 218.05 657.487 217.186 655.597 217.186H653.815V213.892H652.069V223ZM653.815 221.74V218.446H655.327C656.587 218.446 657.145 219.13 657.145 220.102C657.145 221.056 656.605 221.74 655.345 221.74H653.815ZM664.166 218.446C664.166 221.182 666.164 223.216 669.044 223.216C670.466 223.216 671.852 222.64 672.68 221.758L671.978 220.48C671.276 221.218 670.178 221.704 669.17 221.704C667.28 221.704 665.948 220.282 665.948 218.428C665.948 216.574 667.28 215.188 669.116 215.188C670.07 215.188 671.024 215.62 671.636 216.232L672.464 215.008C671.6 214.09 670.25 213.676 669.044 213.676C666.182 213.676 664.166 215.746 664.166 218.446ZM676.765 223H678.493V215.386H681.679V213.892H673.597V215.386H676.765V223ZM683.393 226.6H685.139V222.46C685.139 221.992 685.067 221.668 685.067 221.668H685.103C685.733 222.64 686.777 223.216 687.929 223.216C690.323 223.216 692.051 221.344 692.051 218.446C692.051 215.62 690.521 213.676 688.055 213.676C686.723 213.676 685.571 214.288 684.995 215.386H684.959C684.959 215.386 685.013 215.08 685.013 214.702V213.892H683.393V226.6ZM685.085 218.482C685.085 216.178 686.345 215.206 687.713 215.206C689.225 215.206 690.287 216.484 690.287 218.464C690.287 220.534 689.099 221.704 687.659 221.704C685.985 221.704 685.085 220.102 685.085 218.482ZM693.61 218.446C693.61 221.146 695.59 223.216 698.452 223.216C699.712 223.216 701.098 222.73 701.98 221.92L701.242 220.642C700.522 221.29 699.532 221.704 698.56 221.704C696.922 221.704 695.518 220.642 695.428 218.68H702.052C702.088 218.428 702.124 218.176 702.124 217.942C702.124 215.602 700.756 213.676 698.182 213.676C695.59 213.676 693.61 215.548 693.61 218.446ZM695.482 217.42C695.734 215.908 696.796 215.026 698.146 215.026C699.334 215.026 700.306 215.854 700.36 217.42H695.482ZM703.629 218.446C703.629 221.146 705.609 223.216 708.471 223.216C709.731 223.216 711.117 222.73 711.999 221.92L711.261 220.642C710.541 221.29 709.551 221.704 708.579 221.704C706.941 221.704 705.537 220.642 705.447 218.68H712.071C712.107 218.428 712.143 218.176 712.143 217.942C712.143 215.602 710.775 213.676 708.201 213.676C705.609 213.676 703.629 215.548 703.629 218.446ZM705.501 217.42C705.753 215.908 706.815 215.026 708.165 215.026C709.353 215.026 710.325 215.854 710.379 217.42H705.501Z" fill="#424754"/>
<g clip-path="url(#clip0)">
<path d="M0 4.40122C0 2.86065 0 2.09037 0.299609 1.50195C0.563153 0.984356 0.983678 0.563541 1.50091 0.299816C2.08893 0 2.85869 0 4.3982 0H504.602C506.141 0 506.911 0 507.499 0.299816C508.016 0.563541 508.437 0.984356 508.7 1.50195C509 2.09037 509 2.86066 509 4.40123V293.599C509 295.139 509 295.91 508.7 296.498C508.437 297.016 508.016 297.436 507.499 297.7C506.911 298 506.141 298 504.602 298H4.39818C2.85868 298 2.08893 298 1.50091 297.7C0.983678 297.436 0.563153 297.016 0.299609 296.498C0 295.91 0 295.139 0 293.599V4.40122Z" fill="#F3F3F3"/>
<rect x="93" y="189" width="285" height="122" rx="4" fill="white"/>
<rect x="160" y="26" width="250" height="140" rx="2" fill="white"/>
<path d="M177 40.4545C177 39.9454 177 39.6908 177.058 39.4964C177.108 39.3253 177.189 39.1862 177.288 39.0991C177.401 39 177.549 39 177.845 39H209.155C209.451 39 209.599 39 209.712 39.0991C209.811 39.1862 209.892 39.3253 209.942 39.4964C210 39.6908 210 39.9454 210 40.4545V42.5455C210 43.0546 210 43.3092 209.942 43.5036C209.892 43.6747 209.811 43.8138 209.712 43.9009C209.599 44 209.451 44 209.155 44H177.845C177.549 44 177.401 44 177.288 43.9009C177.189 43.8138 177.108 43.6747 177.058 43.5036C177 43.3092 177 43.0546 177 42.5455V40.4545Z" fill="#424754"/>
<path d="M380 40.4545C380 39.9454 380 39.6908 380.026 39.4964C380.049 39.3253 380.086 39.1862 380.131 39.0991C380.182 39 380.25 39 380.384 39H394.616C394.75 39 394.818 39 394.869 39.0991C394.914 39.1862 394.951 39.3253 394.974 39.4964C395 39.6908 395 39.9454 395 40.4545V42.5455C395 43.0546 395 43.3092 394.974 43.5036C394.951 43.6747 394.914 43.8138 394.869 43.9009C394.818 44 394.75 44 394.616 44H380.384C380.25 44 380.182 44 380.131 43.9009C380.086 43.8138 380.049 43.6747 380.026 43.5036C380 43.3092 380 43.0546 380 42.5455V40.4545Z" fill="#97999D"/>
<path d="M177 138.945C177 137.214 177 136.349 177.03 135.688C177.056 135.106 177.097 134.633 177.149 134.337C177.207 134 177.283 134 177.435 134H193.565C193.717 134 193.793 134 193.851 134.337C193.903 134.633 193.944 135.106 193.97 135.688C194 136.349 194 137.214 194 138.945V146.055C194 147.786 194 148.651 193.97 149.312C193.944 149.894 193.903 150.367 193.851 150.663C193.793 151 193.717 151 193.565 151H177.435C177.283 151 177.207 151 177.149 150.663C177.097 150.367 177.056 149.894 177.03 149.312C177 148.651 177 147.786 177 146.055V138.945Z" fill="#F04B5D"/>
<path d="M201 138.945C201 137.214 201 136.349 201.03 135.688C201.056 135.106 201.097 134.633 201.149 134.337C201.207 134 201.283 134 201.435 134H217.565C217.717 134 217.793 134 217.851 134.337C217.903 134.633 217.944 135.106 217.97 135.688C218 136.349 218 137.214 218 138.945V146.055C218 147.786 218 148.651 217.97 149.312C217.944 149.894 217.903 150.367 217.851 150.663C217.793 151 217.717 151 217.565 151H201.435C201.283 151 201.207 151 201.149 150.663C201.097 150.367 201.056 149.894 201.03 149.312C201 148.651 201 147.786 201 146.055V138.945Z" fill="#E0E0E0"/>
<path d="M225 138.945C225 137.214 225 136.349 225.03 135.688C225.056 135.106 225.097 134.633 225.149 134.337C225.207 134 225.283 134 225.435 134H241.565C241.717 134 241.793 134 241.851 134.337C241.903 134.633 241.944 135.106 241.97 135.688C242 136.349 242 137.214 242 138.945V146.055C242 147.786 242 148.651 241.97 149.312C241.944 149.894 241.903 150.367 241.851 150.663C241.793 151 241.717 151 241.565 151H225.435C225.283 151 225.207 151 225.149 150.663C225.097 150.367 225.056 149.894 225.03 149.312C225 148.651 225 147.786 225 146.055V138.945Z" fill="#E0E0E0"/>
<path d="M250 138.945C250 137.214 250 136.349 250.03 135.688C250.056 135.106 250.097 134.633 250.149 134.337C250.207 134 250.283 134 250.435 134H266.565C266.717 134 266.793 134 266.851 134.337C266.903 134.633 266.944 135.106 266.97 135.688C267 136.349 267 137.214 267 138.945V146.055C267 147.786 267 148.651 266.97 149.312C266.944 149.894 266.903 150.367 266.851 150.663C266.793 151 266.717 151 266.565 151H250.435C250.283 151 250.207 151 250.149 150.663C250.097 150.367 250.056 149.894 250.03 149.312C250 148.651 250 147.786 250 146.055V138.945Z" fill="#E0E0E0"/>
<path d="M182 62.8727C182 62.5672 182 62.4145 182.01 62.2978C182.02 62.1952 182.034 62.1117 182.052 62.0595C182.073 62 182.1 62 182.154 62H187.846C187.9 62 187.927 62 187.948 62.0595C187.966 62.1117 187.98 62.1952 187.99 62.2978C188 62.4145 188 62.5672 188 62.8727V64.1273C188 64.4328 188 64.5855 187.99 64.7022C187.98 64.8048 187.966 64.8883 187.948 64.9405C187.927 65 187.9 65 187.846 65H182.154C182.1 65 182.073 65 182.052 64.9405C182.034 64.8883 182.02 64.8048 182.01 64.7022C182 64.5855 182 64.4328 182 64.1273V62.8727Z" fill="#424754"/>
<path d="M182 76.8727C182 76.5672 182 76.4145 182.01 76.2978C182.02 76.1952 182.034 76.1117 182.052 76.0595C182.073 76 182.1 76 182.154 76H187.846C187.9 76 187.927 76 187.948 76.0595C187.966 76.1117 187.98 76.1952 187.99 76.2978C188 76.4145 188 76.5672 188 76.8727V78.1273C188 78.4328 188 78.5855 187.99 78.7022C187.98 78.8048 187.966 78.8883 187.948 78.9405C187.927 79 187.9 79 187.846 79H182.154C182.1 79 182.073 79 182.052 78.9405C182.034 78.8883 182.02 78.8048 182.01 78.7022C182 78.5855 182 78.4328 182 78.1273V76.8727Z" fill="#424754"/>
<path d="M177 70.2909C177 70.1891 177 70.1382 177.028 70.0993C177.052 70.0651 177.092 70.0372 177.14 70.0198C177.195 70 177.266 70 177.41 70H192.59C192.734 70 192.805 70 192.86 70.0198C192.908 70.0372 192.948 70.0651 192.972 70.0993C193 70.1382 193 70.1891 193 70.2909V70.7091C193 70.8109 193 70.8618 192.972 70.9007C192.948 70.9349 192.908 70.9628 192.86 70.9802C192.805 71 192.734 71 192.59 71H177.41C177.266 71 177.195 71 177.14 70.9802C177.092 70.9628 177.052 70.9349 177.028 70.9007C177 70.8618 177 70.8109 177 70.7091V70.2909Z" fill="#97999D"/>
<path d="M197 69.2909C197 69.1891 197 69.1382 197.007 69.0993C197.013 69.0651 197.023 69.0372 197.035 69.0198C197.049 69 197.067 69 197.102 69H200.898C200.933 69 200.951 69 200.965 69.0198C200.977 69.0372 200.987 69.0651 200.993 69.0993C201 69.1382 201 69.1891 201 69.2909V69.7091C201 69.8109 201 69.8618 200.993 69.9007C200.987 69.9349 200.977 69.9628 200.965 69.9802C200.951 70 200.933 70 200.898 70H197.102C197.067 70 197.049 70 197.035 69.9802C197.023 69.9628 197.013 69.9349 197.007 69.9007C197 69.8618 197 69.8109 197 69.7091V69.2909Z" fill="#97999D"/>
<path d="M225 69.2909C225 69.1891 225 69.1382 225.007 69.0993C225.013 69.0651 225.023 69.0372 225.035 69.0198C225.049 69 225.067 69 225.102 69H228.898C228.933 69 228.951 69 228.965 69.0198C228.977 69.0372 228.987 69.0651 228.993 69.0993C229 69.1382 229 69.1891 229 69.2909V69.7091C229 69.8109 229 69.8618 228.993 69.9007C228.987 69.9349 228.977 69.9628 228.965 69.9802C228.951 70 228.933 70 228.898 70H225.102C225.067 70 225.049 70 225.035 69.9802C225.023 69.9628 225.013 69.9349 225.007 69.9007C225 69.8618 225 69.8109 225 69.7091V69.2909Z" fill="#97999D"/>
<path d="M197 71.2909C197 71.1891 197 71.1382 197.007 71.0993C197.013 71.0651 197.023 71.0372 197.035 71.0198C197.049 71 197.067 71 197.102 71H200.898C200.933 71 200.951 71 200.965 71.0198C200.977 71.0372 200.987 71.0651 200.993 71.0993C201 71.1382 201 71.1891 201 71.2909V71.7091C201 71.8109 201 71.8618 200.993 71.9007C200.987 71.9349 200.977 71.9628 200.965 71.9802C200.951 72 200.933 72 200.898 72H197.102C197.067 72 197.049 72 197.035 71.9802C197.023 71.9628 197.013 71.9349 197.007 71.9007C197 71.8618 197 71.8109 197 71.7091V71.2909Z" fill="#97999D"/>
<path d="M225 71.2909C225 71.1891 225 71.1382 225.007 71.0993C225.013 71.0651 225.023 71.0372 225.035 71.0198C225.049 71 225.067 71 225.102 71H228.898C228.933 71 228.951 71 228.965 71.0198C228.977 71.0372 228.987 71.0651 228.993 71.0993C229 71.1382 229 71.1891 229 71.2909V71.7091C229 71.8109 229 71.8618 228.993 71.9007C228.987 71.9349 228.977 71.9628 228.965 71.9802C228.951 72 228.933 72 228.898 72H225.102C225.067 72 225.049 72 225.035 71.9802C225.023 71.9628 225.013 71.9349 225.007 71.9007C225 71.8618 225 71.8109 225 71.7091V71.2909Z" fill="#97999D"/>
<path d="M182 98.8727C182 98.5672 182 98.4145 182.01 98.2978C182.02 98.1952 182.034 98.1117 182.052 98.0595C182.073 98 182.1 98 182.154 98H187.846C187.9 98 187.927 98 187.948 98.0595C187.966 98.1117 187.98 98.1952 187.99 98.2978C188 98.4145 188 98.5672 188 98.8727V100.127C188 100.433 188 100.585 187.99 100.702C187.98 100.805 187.966 100.888 187.948 100.941C187.927 101 187.9 101 187.846 101H182.154C182.1 101 182.073 101 182.052 100.941C182.034 100.888 182.02 100.805 182.01 100.702C182 100.585 182 100.433 182 100.127V98.8727Z" fill="#424754"/>
<path d="M197 98.2909C197 98.1891 197 98.1382 197.007 98.0993C197.013 98.0651 197.023 98.0372 197.035 98.0198C197.049 98 197.067 98 197.102 98H200.898C200.933 98 200.951 98 200.965 98.0198C200.977 98.0372 200.987 98.0651 200.993 98.0993C201 98.1382 201 98.1891 201 98.2909V98.7091C201 98.8109 201 98.8618 200.993 98.9007C200.987 98.9349 200.977 98.9628 200.965 98.9802C200.951 99 200.933 99 200.898 99H197.102C197.067 99 197.049 99 197.035 98.9802C197.023 98.9628 197.013 98.9349 197.007 98.9007C197 98.8618 197 98.8109 197 98.7091V98.2909Z" fill="#97999D"/>
<path d="M225 98.2909C225 98.1891 225 98.1382 225.007 98.0993C225.013 98.0651 225.023 98.0372 225.035 98.0198C225.049 98 225.067 98 225.102 98H228.898C228.933 98 228.951 98 228.965 98.0198C228.977 98.0372 228.987 98.0651 228.993 98.0993C229 98.1382 229 98.1891 229 98.2909V98.7091C229 98.8109 229 98.8618 228.993 98.9007C228.987 98.9349 228.977 98.9628 228.965 98.9802C228.951 99 228.933 99 228.898 99H225.102C225.067 99 225.049 99 225.035 98.9802C225.023 98.9628 225.013 98.9349 225.007 98.9007C225 98.8618 225 98.8109 225 98.7091V98.2909Z" fill="#97999D"/>
<path d="M197 100.291C197 100.189 197 100.138 197.007 100.099C197.013 100.065 197.023 100.037 197.035 100.02C197.049 100 197.067 100 197.102 100H200.898C200.933 100 200.951 100 200.965 100.02C200.977 100.037 200.987 100.065 200.993 100.099C201 100.138 201 100.189 201 100.291V100.709C201 100.811 201 100.862 200.993 100.901C200.987 100.935 200.977 100.963 200.965 100.98C200.951 101 200.933 101 200.898 101H197.102C197.067 101 197.049 101 197.035 100.98C197.023 100.963 197.013 100.935 197.007 100.901C197 100.862 197 100.811 197 100.709V100.291Z" fill="#97999D"/>
<path d="M225 100.291C225 100.189 225 100.138 225.007 100.099C225.013 100.065 225.023 100.037 225.035 100.02C225.049 100 225.067 100 225.102 100H228.898C228.933 100 228.951 100 228.965 100.02C228.977 100.037 228.987 100.065 228.993 100.099C229 100.138 229 100.189 229 100.291V100.709C229 100.811 229 100.862 228.993 100.901C228.987 100.935 228.977 100.963 228.965 100.98C228.951 101 228.933 101 228.898 101H225.102C225.067 101 225.049 101 225.035 100.98C225.023 100.963 225.013 100.935 225.007 100.901C225 100.862 225 100.811 225 100.709V100.291Z" fill="#97999D"/>
<path d="M210 62.8727C210 62.5672 210 62.4145 210.01 62.2978C210.02 62.1952 210.034 62.1117 210.052 62.0595C210.073 62 210.1 62 210.154 62H215.846C215.9 62 215.927 62 215.948 62.0595C215.966 62.1117 215.98 62.1952 215.99 62.2978C216 62.4145 216 62.5672 216 62.8727V64.1273C216 64.4328 216 64.5855 215.99 64.7022C215.98 64.8048 215.966 64.8883 215.948 64.9405C215.927 65 215.9 65 215.846 65H210.154C210.1 65 210.073 65 210.052 64.9405C210.034 64.8883 210.02 64.8048 210.01 64.7022C210 64.5855 210 64.4328 210 64.1273V62.8727Z" fill="#424754"/>
<path d="M210 76.8727C210 76.5672 210 76.4145 210.01 76.2978C210.02 76.1952 210.034 76.1117 210.052 76.0595C210.073 76 210.1 76 210.154 76H215.846C215.9 76 215.927 76 215.948 76.0595C215.966 76.1117 215.98 76.1952 215.99 76.2978C216 76.4145 216 76.5672 216 76.8727V78.1273C216 78.4328 216 78.5855 215.99 78.7022C215.98 78.8048 215.966 78.8883 215.948 78.9405C215.927 79 215.9 79 215.846 79H210.154C210.1 79 210.073 79 210.052 78.9405C210.034 78.8883 210.02 78.8048 210.01 78.7022C210 78.5855 210 78.4328 210 78.1273V76.8727Z" fill="#424754"/>
<path d="M205 70.2909C205 70.1891 205 70.1382 205.028 70.0993C205.052 70.0651 205.092 70.0372 205.14 70.0198C205.195 70 205.266 70 205.41 70H220.59C220.734 70 220.805 70 220.86 70.0198C220.908 70.0372 220.948 70.0651 220.972 70.0993C221 70.1382 221 70.1891 221 70.2909V70.7091C221 70.8109 221 70.8618 220.972 70.9007C220.948 70.9349 220.908 70.9628 220.86 70.9802C220.805 71 220.734 71 220.59 71H205.41C205.266 71 205.195 71 205.14 70.9802C205.092 70.9628 205.052 70.9349 205.028 70.9007C205 70.8618 205 70.8109 205 70.7091V70.2909Z" fill="#97999D"/>
<path d="M210 91.8727C210 91.5672 210 91.4145 210.01 91.2978C210.02 91.1952 210.034 91.1117 210.052 91.0595C210.073 91 210.1 91 210.154 91H215.846C215.9 91 215.927 91 215.948 91.0595C215.966 91.1117 215.98 91.1952 215.99 91.2978C216 91.4145 216 91.5672 216 91.8727V93.1273C216 93.4328 216 93.5855 215.99 93.7022C215.98 93.8048 215.966 93.8883 215.948 93.9405C215.927 94 215.9 94 215.846 94H210.154C210.1 94 210.073 94 210.052 93.9405C210.034 93.8883 210.02 93.8048 210.01 93.7022C210 93.5855 210 93.4328 210 93.1273V91.8727Z" fill="#424754"/>
<path d="M210 105.873C210 105.567 210 105.415 210.01 105.298C210.02 105.195 210.034 105.112 210.052 105.059C210.073 105 210.1 105 210.154 105H215.846C215.9 105 215.927 105 215.948 105.059C215.966 105.112 215.98 105.195 215.99 105.298C216 105.415 216 105.567 216 105.873V107.127C216 107.433 216 107.585 215.99 107.702C215.98 107.805 215.966 107.888 215.948 107.941C215.927 108 215.9 108 215.846 108H210.154C210.1 108 210.073 108 210.052 107.941C210.034 107.888 210.02 107.805 210.01 107.702C210 107.585 210 107.433 210 107.127V105.873Z" fill="#424754"/>
<path d="M205 99.2909C205 99.1891 205 99.1382 205.028 99.0993C205.052 99.0651 205.092 99.0372 205.14 99.0198C205.195 99 205.266 99 205.41 99H220.59C220.734 99 220.805 99 220.86 99.0198C220.908 99.0372 220.948 99.0651 220.972 99.0993C221 99.1382 221 99.1891 221 99.2909V99.7091C221 99.8109 221 99.8618 220.972 99.9007C220.948 99.9349 220.908 99.9628 220.86 99.9802C220.805 100 220.734 100 220.59 100H205.41C205.266 100 205.195 100 205.14 99.9802C205.092 99.9628 205.052 99.9349 205.028 99.9007C205 99.8618 205 99.8109 205 99.7091V99.2909Z" fill="#97999D"/>
<path d="M238 62.8727C238 62.5672 238 62.4145 238.01 62.2978C238.02 62.1952 238.034 62.1117 238.052 62.0595C238.073 62 238.1 62 238.154 62H243.846C243.9 62 243.927 62 243.948 62.0595C243.966 62.1117 243.98 62.1952 243.99 62.2978C244 62.4145 244 62.5672 244 62.8727V64.1273C244 64.4328 244 64.5855 243.99 64.7022C243.98 64.8048 243.966 64.8883 243.948 64.9405C243.927 65 243.9 65 243.846 65H238.154C238.1 65 238.073 65 238.052 64.9405C238.034 64.8883 238.02 64.8048 238.01 64.7022C238 64.5855 238 64.4328 238 64.1273V62.8727Z" fill="#424754"/>
<path d="M238 76.8727C238 76.5672 238 76.4145 238.01 76.2978C238.02 76.1952 238.034 76.1117 238.052 76.0595C238.073 76 238.1 76 238.154 76H243.846C243.9 76 243.927 76 243.948 76.0595C243.966 76.1117 243.98 76.1952 243.99 76.2978C244 76.4145 244 76.5672 244 76.8727V78.1273C244 78.4328 244 78.5855 243.99 78.7022C243.98 78.8048 243.966 78.8883 243.948 78.9405C243.927 79 243.9 79 243.846 79H238.154C238.1 79 238.073 79 238.052 78.9405C238.034 78.8883 238.02 78.8048 238.01 78.7022C238 78.5855 238 78.4328 238 78.1273V76.8727Z" fill="#424754"/>
<path d="M233 70.2909C233 70.1891 233 70.1382 233.028 70.0993C233.052 70.0651 233.092 70.0372 233.14 70.0198C233.195 70 233.266 70 233.41 70H248.59C248.734 70 248.805 70 248.86 70.0198C248.908 70.0372 248.948 70.0651 248.972 70.0993C249 70.1382 249 70.1891 249 70.2909V70.7091C249 70.8109 249 70.8618 248.972 70.9007C248.948 70.9349 248.908 70.9628 248.86 70.9802C248.805 71 248.734 71 248.59 71H233.41C233.266 71 233.195 71 233.14 70.9802C233.092 70.9628 233.052 70.9349 233.028 70.9007C233 70.8618 233 70.8109 233 70.7091V70.2909Z" fill="#97999D"/>
<path d="M238 91.8727C238 91.5672 238 91.4145 238.01 91.2978C238.02 91.1952 238.034 91.1117 238.052 91.0595C238.073 91 238.1 91 238.154 91H243.846C243.9 91 243.927 91 243.948 91.0595C243.966 91.1117 243.98 91.1952 243.99 91.2978C244 91.4145 244 91.5672 244 91.8727V93.1273C244 93.4328 244 93.5855 243.99 93.7022C243.98 93.8048 243.966 93.8883 243.948 93.9405C243.927 94 243.9 94 243.846 94H238.154C238.1 94 238.073 94 238.052 93.9405C238.034 93.8883 238.02 93.8048 238.01 93.7022C238 93.5855 238 93.4328 238 93.1273V91.8727Z" fill="#424754"/>
<path d="M243 105.873C243 105.567 243 105.415 243.01 105.298C243.02 105.195 243.034 105.112 243.052 105.059C243.073 105 243.1 105 243.154 105H248.846C248.9 105 248.927 105 248.948 105.059C248.966 105.112 248.98 105.195 248.99 105.298C249 105.415 249 105.567 249 105.873V107.127C249 107.433 249 107.585 248.99 107.702C248.98 107.805 248.966 107.888 248.948 107.941C248.927 108 248.9 108 248.846 108H243.154C243.1 108 243.073 108 243.052 107.941C243.034 107.888 243.02 107.805 243.01 107.702C243 107.585 243 107.433 243 107.127V105.873Z" fill="#424754"/>
<path d="M233 105.873C233 105.567 233 105.415 233.01 105.298C233.02 105.195 233.034 105.112 233.052 105.059C233.073 105 233.1 105 233.154 105H238.846C238.9 105 238.927 105 238.948 105.059C238.966 105.112 238.98 105.195 238.99 105.298C239 105.415 239 105.567 239 105.873V107.127C239 107.433 239 107.585 238.99 107.702C238.98 107.805 238.966 107.888 238.948 107.941C238.927 108 238.9 108 238.846 108H233.154C233.1 108 233.073 108 233.052 107.941C233.034 107.888 233.02 107.805 233.01 107.702C233 107.585 233 107.433 233 107.127V105.873Z" fill="#424754"/>
<path d="M233 99.2909C233 99.1891 233 99.1382 233.028 99.0993C233.052 99.0651 233.092 99.0372 233.14 99.0198C233.195 99 233.266 99 233.41 99H248.59C248.734 99 248.805 99 248.86 99.0198C248.908 99.0372 248.948 99.0651 248.972 99.0993C249 99.1382 249 99.1891 249 99.2909V99.7091C249 99.8109 249 99.8618 248.972 99.9007C248.948 99.9349 248.908 99.9628 248.86 99.9802C248.805 100 248.734 100 248.59 100H233.41C233.266 100 233.195 100 233.14 99.9802C233.092 99.9628 233.052 99.9349 233.028 99.9007C233 99.8618 233 99.8109 233 99.7091V99.2909Z" fill="#97999D"/>
<path d="M383.728 164.163H377.465C377.465 164.163 370.576 169.173 371.202 174.809C371.829 180.445 359.93 229.294 359.93 235.557C359.93 241.819 357.425 243.698 357.425 247.456C357.425 251.213 358.677 253.718 357.425 255.597C356.172 257.476 353.667 268.749 354.293 273.132C354.657 276.044 354.657 278.989 354.293 281.9H369.95C369.95 281.9 381.223 243.698 383.728 241.819C386.233 239.941 387.485 236.809 387.485 234.93C387.485 233.052 386.233 233.052 389.364 230.547C392.495 228.041 390.616 216.769 390.616 216.769L395 205.496L383.728 164.163Z" fill="#D6D3E8"/>
<path d="M296.051 262.799C296.051 262.799 290.415 290.355 299.809 287.85C309.202 285.345 305.445 261.547 305.445 261.547L296.051 262.799Z" fill="#A0616A"/>
<path d="M316.091 255.284C316.091 255.284 308.576 265.304 308.576 270.941C308.576 276.577 306.071 326.678 306.071 326.678C306.071 326.678 292.293 390.557 296.051 394.314C299.808 398.072 311.081 403.708 312.96 401.83C314.839 399.951 327.99 331.688 327.99 331.688L343.647 289.728L358.051 349.85C358.051 349.85 357.425 401.83 359.93 402.456C362.435 403.082 363.687 403.708 362.435 406.213C361.182 408.719 359.303 413.729 359.303 413.729C359.303 413.729 374.96 417.486 378.091 414.981C381.223 412.476 381.849 351.729 378.091 330.436C374.334 309.143 378.717 260.294 378.717 260.294L316.091 255.284Z" fill="#2F2E41"/>
<path d="M338.95 134.102C349.326 134.102 357.738 125.69 357.738 115.314C357.738 104.938 349.326 96.5261 338.95 96.5261C328.574 96.5261 320.162 104.938 320.162 115.314C320.162 125.69 328.574 134.102 338.95 134.102Z" fill="#A0616A"/>
<path d="M333.313 127.213C333.313 127.213 335.818 140.365 333.313 144.122C330.808 147.88 367.132 145.375 367.132 145.375C367.132 145.375 349.596 125.334 351.475 121.577C353.354 117.819 333.313 127.213 333.313 127.213Z" fill="#A0616A"/>
<path d="M317.344 148.819C317.344 148.819 329.869 132.536 345.526 135.668C349.753 136.513 353.615 137.358 357 138.142C368.93 140.904 378.85 149.406 382.926 160.953C383.983 163.947 384.511 166.824 384.041 169.173C382.162 178.567 383.102 252.779 383.102 252.779C383.102 252.779 378.092 254.658 378.718 257.163C379.344 259.668 383.728 262.799 379.344 262.799C374.96 262.799 308.576 260.294 309.829 258.415C311.082 256.536 317.344 148.819 317.344 148.819Z" fill="#D0CDE1"/>
<path d="M323.606 148.819H317.343C317.343 148.819 310.454 153.829 311.08 159.466C311.707 165.102 299.807 213.951 299.807 220.213C299.807 226.476 297.302 228.355 297.302 232.112C297.302 235.87 298.555 238.375 297.302 240.254C296.05 242.132 293.545 253.405 294.171 257.789C294.535 260.7 294.535 263.645 294.171 266.557H309.828C309.828 266.557 321.1 228.355 323.606 226.476C326.111 224.597 327.363 221.466 327.363 219.587C327.363 217.708 326.111 217.708 329.242 215.203C332.373 212.698 330.494 201.425 330.494 201.425L334.878 190.152L323.606 148.819Z" fill="#D0CDE1"/>
<path opacity="0.1" d="M314.476 257.589L333.313 216.142L323.895 260.221L314.476 257.589Z" fill="black"/>
<path d="M332.395 86.9022L332.405 85.3519C333.7 85.1872 335.012 85.2332 336.292 85.4881C336.306 84.5522 336.112 83.625 335.723 82.7734C337.013 82.9431 338.268 83.3165 339.44 83.8796L339.872 81L351.089 84.9311C355.115 86.3422 359.371 87.9134 361.984 91.2861C364.897 95.0461 365.109 100.307 363.99 104.931C362.872 109.554 360.597 113.802 358.899 118.245C358.28 120.142 357.482 121.976 356.516 123.722C353.126 129.188 345.472 131.138 339.474 128.816C337.261 127.959 335.17 126.531 334.049 124.439C333.475 123.141 332.986 121.807 332.586 120.446C331.544 117.685 330.022 111.908 327.492 110.388C326.379 109.72 324.681 112.591 323.719 111.718C321.249 109.474 321.234 105.552 322.212 102.361C323.134 99.1628 324.286 96.0357 325.658 93.0039C326.247 91.7805 332.397 86.7162 332.395 86.9022Z" fill="#2F2E41"/>
<rect x="62" y="69" width="82" height="97" rx="2" fill="white"/>
<rect x="137.143" y="129" width="20" height="20" rx="2" transform="rotate(45 137.143 129)" fill="white"/>
<path d="M73 77.1636C73 76.7563 73 76.5527 73.0244 76.3971C73.0459 76.2603 73.0802 76.149 73.1223 76.0793C73.1702 76 73.2329 76 73.3584 76H86.6416C86.7671 76 86.8298 76 86.8777 76.0793C86.9198 76.149 86.9541 76.2603 86.9756 76.3971C87 76.5527 87 76.7563 87 77.1636V78.8364C87 79.2437 87 79.4473 86.9756 79.6029C86.9541 79.7397 86.9198 79.851 86.8777 79.9207C86.8298 80 86.7671 80 86.6416 80H73.3584C73.2329 80 73.1702 80 73.1223 79.9207C73.0802 79.851 73.0459 79.7397 73.0244 79.6029C73 79.4473 73 79.2437 73 78.8364V77.1636Z" fill="#424754"/>
<g filter="url(#filter0_d)">
<path d="M82.7255 110.29C82.2517 110.086 81.7008 110.305 81.5166 110.786C79.8755 115.079 79.5553 119.772 80.6094 124.26C81.7348 129.051 84.3673 133.354 88.12 136.538C91.8727 139.722 96.5477 141.618 101.458 141.948C106.368 142.278 111.255 141.024 115.4 138.371C119.545 135.718 122.729 131.805 124.486 127.208C126.242 122.61 126.477 117.571 125.157 112.83C123.837 108.089 121.031 103.896 117.151 100.868C113.517 98.0324 109.121 96.358 104.536 96.0513C104.021 96.0169 103.592 96.4258 103.578 96.9412C103.565 97.4567 103.972 97.8833 104.487 97.9196C108.672 98.2147 112.683 99.7502 116.002 102.341C119.567 105.123 122.145 108.975 123.358 113.331C124.571 117.687 124.355 122.317 122.741 126.541C121.128 130.765 118.202 134.361 114.393 136.798C110.585 139.236 106.095 140.388 101.583 140.085C97.0716 139.782 92.7761 138.04 89.3281 135.114C85.88 132.189 83.4613 128.235 82.4272 123.833C81.4645 119.734 81.7494 115.449 83.2338 111.524C83.4162 111.042 83.1993 110.493 82.7255 110.29Z" fill="#27AE60"/>
</g>
<path d="M96.0566 117.603C96.0566 117.029 96.0566 116.742 96.0801 116.522C96.1007 116.329 96.1337 116.172 96.1742 116.074C96.2202 115.962 96.2805 115.962 96.401 115.962H109.165C109.286 115.962 109.346 115.962 109.392 116.074C109.432 116.172 109.465 116.329 109.486 116.522C109.509 116.742 109.509 117.029 109.509 117.603V119.963C109.509 120.537 109.509 120.824 109.486 121.044C109.465 121.237 109.432 121.394 109.392 121.492C109.346 121.604 109.286 121.604 109.165 121.604H96.401C96.2805 121.604 96.2202 121.604 96.1742 121.492C96.1337 121.394 96.1007 121.237 96.0801 121.044C96.0566 120.824 96.0566 120.537 96.0566 119.963V117.603Z" fill="#424754"/>
<path d="M85.6416 148.273C85.6416 148.052 85.6416 147.941 85.7014 147.857C85.754 147.783 85.8379 147.722 85.9411 147.685C86.0584 147.642 86.212 147.642 86.5192 147.642H119.047C119.354 147.642 119.508 147.642 119.625 147.685C119.728 147.722 119.812 147.783 119.865 147.857C119.925 147.941 119.925 148.052 119.925 148.273V149.18C119.925 149.401 119.925 149.512 119.865 149.596C119.812 149.67 119.728 149.731 119.625 149.768C119.508 149.811 119.354 149.811 119.047 149.811H86.5192C86.212 149.811 86.0584 149.811 85.9411 149.768C85.8379 149.731 85.754 149.67 85.7014 149.596C85.6416 149.512 85.6416 149.401 85.6416 149.18V148.273Z" fill="#97999D"/>
<path d="M236 220.929H194V273.506H236V220.929Z" fill="#3F3D56"/>
<path d="M222 233H200V236H222V233Z" fill="white"/>
<path d="M230 244H200V246H230V244Z" fill="white"/>
<path d="M230 249H200V251H230V249Z" fill="white"/>
<path d="M230 254H200V256H230V254Z" fill="white"/>
<path d="M230 259H200V261H230V259Z" fill="white"/>
<path d="M218.036 220.183V218.82C218.036 218.072 217.738 217.355 217.209 216.826C216.68 216.297 215.962 216 215.214 216C214.466 216 213.749 216.297 213.219 216.826C212.69 217.355 212.393 218.072 212.392 218.82V220.183H207.04V223.199H223.389V220.183H218.036ZM215.214 216.777C215.542 216.777 215.861 216.874 216.133 217.056C216.405 217.237 216.617 217.496 216.743 217.798C216.868 218.1 216.901 218.433 216.837 218.754C216.773 219.075 216.615 219.37 216.384 219.601C216.153 219.832 215.858 219.99 215.537 220.054C215.216 220.117 214.884 220.085 214.581 219.96C214.279 219.834 214.021 219.622 213.839 219.35C213.657 219.078 213.56 218.758 213.56 218.431C213.56 218.214 213.603 217.999 213.686 217.798C213.769 217.597 213.891 217.415 214.045 217.261C214.198 217.108 214.381 216.986 214.581 216.903C214.782 216.82 214.997 216.777 215.214 216.777Z" fill="#F04B5D"/>
</g>
<defs>
<filter id="filter0_d" x="60" y="80.0493" width="86" height="85.9507" filterUnits="userSpaceOnUse" color-interpolation-filters="sRGB">
<feFlood flood-opacity="0" result="BackgroundImageFix"/>
<feColorMatrix in="SourceAlpha" type="matrix" values="0 0 0 0 0 0 0 0 0 0 0 0 0 0 0 0 0 0 127 0"/>
<feOffset dy="4"/>
<feGaussianBlur stdDeviation="10"/>
<feColorMatrix type="matrix" values="0 0 0 0 0 0 0 0 0 0 0 0 0 0 0 0 0 0 0.19 0"/>
<feBlend mode="normal" in2="BackgroundImageFix" result="effect1_dropShadow"/>
<feBlend mode="normal" in="SourceGraphic" in2="effect1_dropShadow" result="shape"/>
</filter>
<clipPath id="clip0">
<rect width="509" height="298" fill="white"/>
</clipPath>
</defs>
</svg>
