<svg width="1034" height="267" viewBox="0 0 1034 267" fill="none" xmlns="http://www.w3.org/2000/svg">
<path d="M1.296 79.968C1.296 87.528 6.984 93.432 14.76 93.432C22.536 93.432 28.224 87.528 28.224 79.968C28.224 72.588 22.536 66.828 14.76 66.828C6.984 66.828 1.296 72.588 1.296 79.968ZM7.812 79.968C7.812 75.756 10.908 72.588 14.76 72.588C18.612 72.588 21.708 75.756 21.708 79.968C21.708 84.36 18.612 87.672 14.76 87.672C10.908 87.672 7.812 84.36 7.812 79.968ZM35.6873 93H41.9153V79.68H47.5673V74.46H30.0713V79.68H35.6873V93ZM48.9268 83.712C48.9268 88.824 52.6348 93.432 59.2588 93.432C62.3548 93.432 65.3788 92.244 67.2148 90.372L64.9468 86.016C63.6148 87.168 61.6708 88.248 59.8708 88.248C56.7388 88.248 55.2268 85.836 55.2268 83.64C55.2268 81.444 56.7028 79.212 59.6548 79.212C61.2748 79.212 62.9308 79.968 64.0108 81.012L66.6388 76.836C64.8028 74.856 61.8508 74.028 59.2588 74.028C52.5988 74.028 48.9268 78.744 48.9268 83.712ZM68.4661 93.18C75.6661 93.18 77.8261 87.996 77.8261 80.436V79.392H80.9221V93H87.1501V74.46H71.9581V80.4C71.9581 86.772 70.1221 87.528 68.4661 87.744V93.18ZM90.2706 83.712C90.2706 88.644 93.8346 93.432 100.459 93.432C103.303 93.432 106.363 92.46 108.379 90.732L106.075 86.376C104.563 87.384 102.799 88.248 100.963 88.248C98.9826 88.248 97.1106 87.204 96.6426 84.936H108.343C108.415 84.288 108.487 83.64 108.487 82.992C108.487 77.844 105.391 74.028 99.9186 74.028C93.9426 74.028 90.2706 78.276 90.2706 83.712ZM96.7866 81.372C97.1106 79.896 97.9746 78.6 99.7746 78.6C101.359 78.6 102.331 79.86 102.331 81.372H96.7866ZM109.904 93H116.636L119.948 86.268H121.784V93H127.58V86.268H129.452L132.764 93H139.496L134.276 83.424V83.352L139.1 74.46H132.692L129.272 81.048H127.58V74.46H121.784V81.048H120.128L116.708 74.46H110.3L115.124 83.352V83.424L109.904 93ZM141.834 93H147.882L153.03 84.864C153.318 84.36 153.714 83.784 154.038 83.028H154.11C154.038 83.748 154.038 84.468 154.038 84.9V93H159.906V74.46H153.858L148.71 82.632C148.386 83.172 148.026 83.712 147.702 84.468H147.63C147.666 84 147.702 83.28 147.702 82.632V74.46H141.834V93ZM164.088 93H174.204C177.876 93 181.26 91.56 181.26 87.492C181.26 85.872 180.468 84.036 178.344 83.388V83.352C179.748 82.524 180.504 80.868 180.504 79.32C180.504 76.116 177.912 74.46 174.204 74.46H164.088V93ZM170.316 81.768V78.312H172.584C173.808 78.312 174.312 79.068 174.312 79.932C174.312 80.904 173.808 81.768 172.656 81.768H170.316ZM170.316 89.112V85.404H173.088C174.42 85.404 175.032 86.268 175.032 87.276C175.032 88.212 174.384 89.112 173.052 89.112H170.316ZM183.147 87.78C183.147 90.984 185.631 93.432 189.195 93.432C191.319 93.432 193.479 92.46 194.703 90.732H194.775C194.775 90.732 194.703 91.272 194.703 91.884V93H200.391V81.588C200.391 76.872 197.223 74.028 192.111 74.028C189.087 74.028 185.847 75.216 184.263 76.44L186.423 80.832C187.899 79.86 189.735 79.068 191.535 79.068C192.903 79.068 194.163 79.572 194.163 81.12V81.444H193.623C189.051 81.444 183.147 82.812 183.147 87.78ZM189.303 87.204C189.303 85.512 191.751 85.008 193.659 85.008H194.235V85.512C194.235 87.024 192.867 88.788 191.067 88.788C189.915 88.788 189.303 88.068 189.303 87.204ZM203.298 83.712C203.298 88.644 206.862 93.432 213.486 93.432C216.33 93.432 219.39 92.46 221.406 90.732L219.102 86.376C217.59 87.384 215.826 88.248 213.99 88.248C212.01 88.248 210.138 87.204 209.67 84.936H221.37C221.442 84.288 221.514 83.64 221.514 82.992C221.514 77.844 218.418 74.028 212.946 74.028C206.97 74.028 203.298 78.276 203.298 83.712ZM209.814 81.372C210.138 79.896 211.002 78.6 212.802 78.6C214.386 78.6 215.358 79.86 215.358 81.372H209.814ZM223.976 93H229.916L230.348 84.468C230.42 83.028 230.312 81.3 230.312 81.3H230.384C230.384 81.3 231.068 82.848 231.464 84.036L233.912 90.516H238.952L241.4 84.036C241.868 82.884 242.408 81.3 242.408 81.3H242.48C242.48 81.3 242.408 83.028 242.444 84.468L242.876 93H248.852L247.088 74.46H239.924L237.188 82.596C236.864 83.532 236.432 84.756 236.432 84.756H236.396C236.396 84.756 236 83.532 235.676 82.596L232.94 74.46H225.74L223.976 93ZM261.225 93H271.341C275.013 93 278.397 91.56 278.397 87.492C278.397 85.872 277.605 84.036 275.481 83.388V83.352C276.885 82.524 277.641 80.868 277.641 79.32C277.641 76.116 275.049 74.46 271.341 74.46H261.225V93ZM267.453 81.768V78.312H269.721C270.945 78.312 271.449 79.068 271.449 79.932C271.449 80.904 270.945 81.768 269.793 81.768H267.453ZM267.453 89.112V85.404H270.225C271.557 85.404 272.169 86.268 272.169 87.276C272.169 88.212 271.521 89.112 270.189 89.112H267.453ZM280.283 87.78C280.283 90.984 282.767 93.432 286.331 93.432C288.455 93.432 290.615 92.46 291.839 90.732H291.911C291.911 90.732 291.839 91.272 291.839 91.884V93H297.527V81.588C297.527 76.872 294.359 74.028 289.247 74.028C286.223 74.028 282.983 75.216 281.399 76.44L283.559 80.832C285.035 79.86 286.871 79.068 288.671 79.068C290.039 79.068 291.299 79.572 291.299 81.12V81.444H290.759C286.187 81.444 280.283 82.812 280.283 87.78ZM286.439 87.204C286.439 85.512 288.887 85.008 290.795 85.008H291.371V85.512C291.371 87.024 290.003 88.788 288.203 88.788C287.051 88.788 286.439 88.068 286.439 87.204ZM301.479 93H327.435V74.46H321.567V87.78H317.391V74.46H311.523V87.78H307.347V74.46H301.479V93ZM340.608 93H346.836V79.68H352.344V93H358.572V74.46H340.608V93ZM362.756 100.2H368.984V93.252C368.984 92.316 368.912 91.668 368.912 91.668H368.984C370.316 92.82 371.972 93.432 373.7 93.432C378.632 93.432 382.34 89.616 382.34 83.748C382.34 77.988 379.028 74.028 373.988 74.028C371.756 74.028 369.632 74.892 368.372 76.584H368.3C368.3 76.584 368.372 76.008 368.372 75.396V74.46H362.756V100.2ZM368.804 83.856C368.804 80.652 370.568 79.284 372.44 79.284C374.6 79.284 376.076 81.084 376.076 83.856C376.076 86.7 374.384 88.284 372.44 88.284C369.992 88.284 368.804 86.088 368.804 83.856ZM384.493 83.784C384.493 89.58 389.173 93.432 395.005 93.432C400.837 93.432 405.517 89.58 405.517 83.784C405.517 77.952 400.837 74.028 394.969 74.028C389.173 74.028 384.493 77.952 384.493 83.784ZM390.793 83.784C390.793 80.976 392.737 79.212 395.005 79.212C397.273 79.212 399.217 80.976 399.217 83.784C399.217 86.556 397.273 88.248 395.005 88.248C392.737 88.248 390.793 86.556 390.793 83.784ZM408.635 93H414.863V79.68H421.703V74.46H408.635V93ZM424.315 100.2H430.543V93.252C430.543 92.316 430.471 91.668 430.471 91.668H430.543C431.875 92.82 433.531 93.432 435.259 93.432C440.191 93.432 443.899 89.616 443.899 83.748C443.899 77.988 440.587 74.028 435.547 74.028C433.315 74.028 431.191 74.892 429.931 76.584H429.859C429.859 76.584 429.931 76.008 429.931 75.396V74.46H424.315V100.2ZM430.363 83.856C430.363 80.652 432.127 79.284 433.999 79.284C436.159 79.284 437.635 81.084 437.635 83.856C437.635 86.7 435.943 88.284 433.999 88.284C431.551 88.284 430.363 86.088 430.363 83.856ZM446.052 83.712C446.052 88.644 449.616 93.432 456.24 93.432C459.084 93.432 462.144 92.46 464.16 90.732L461.856 86.376C460.344 87.384 458.58 88.248 456.744 88.248C454.764 88.248 452.892 87.204 452.424 84.936H464.124C464.196 84.288 464.268 83.64 464.268 82.992C464.268 77.844 461.172 74.028 455.7 74.028C449.724 74.028 446.052 78.276 446.052 83.712ZM452.568 81.372C452.892 79.896 453.756 78.6 455.556 78.6C457.14 78.6 458.112 79.86 458.112 81.372H452.568ZM466.478 83.712C466.478 88.824 470.186 93.432 476.81 93.432C479.906 93.432 482.93 92.244 484.766 90.372L482.498 86.016C481.166 87.168 479.222 88.248 477.422 88.248C474.29 88.248 472.778 85.836 472.778 83.64C472.778 81.444 474.254 79.212 477.206 79.212C478.826 79.212 480.482 79.968 481.562 81.012L484.19 76.836C482.354 74.856 479.402 74.028 476.81 74.028C470.15 74.028 466.478 78.744 466.478 83.712ZM485.954 83.712C485.954 88.824 489.662 93.432 496.286 93.432C499.382 93.432 502.406 92.244 504.242 90.372L501.974 86.016C500.642 87.168 498.698 88.248 496.898 88.248C493.766 88.248 492.254 85.836 492.254 83.64C492.254 81.444 493.73 79.212 496.682 79.212C498.302 79.212 499.958 79.968 501.038 81.012L503.666 76.836C501.83 74.856 498.878 74.028 496.286 74.028C489.626 74.028 485.954 78.744 485.954 83.712ZM2.088 135H8.136L13.284 126.864C13.572 126.36 13.968 125.784 14.292 125.028H14.364C14.292 125.748 14.292 126.468 14.292 126.9V135H20.16V116.46H14.112L8.964 124.632C8.64 125.172 8.28 125.712 7.956 126.468H7.884C7.92 126 7.956 125.28 7.956 124.632V116.46H2.088V135ZM33.3419 135H43.4579C47.1299 135 50.5139 133.56 50.5139 129.492C50.5139 127.872 49.7219 126.036 47.5979 125.388V125.352C49.0019 124.524 49.7579 122.868 49.7579 121.32C49.7579 118.116 47.1659 116.46 43.4579 116.46H33.3419V135ZM39.5699 123.768V120.312H41.8379C43.0619 120.312 43.5659 121.068 43.5659 121.932C43.5659 122.904 43.0619 123.768 41.9099 123.768H39.5699ZM39.5699 131.112V127.404H42.3419C43.6739 127.404 44.2859 128.268 44.2859 129.276C44.2859 130.212 43.6379 131.112 42.3059 131.112H39.5699ZM52.6885 125.712C52.6885 130.824 56.3965 135.432 63.0205 135.432C66.1165 135.432 69.1405 134.244 70.9765 132.372L68.7085 128.016C67.3765 129.168 65.4325 130.248 63.6325 130.248C60.5005 130.248 58.9885 127.836 58.9885 125.64C58.9885 123.444 60.4645 121.212 63.4165 121.212C65.0365 121.212 66.6925 121.968 67.7725 123.012L70.4005 118.836C68.5645 116.856 65.6125 116.028 63.0205 116.028C56.3605 116.028 52.6885 120.744 52.6885 125.712ZM72.1651 125.712C72.1651 130.644 75.7291 135.432 82.3531 135.432C85.1971 135.432 88.2571 134.46 90.2731 132.732L87.9691 128.376C86.4571 129.384 84.6931 130.248 82.8571 130.248C80.8771 130.248 79.0051 129.204 78.5371 126.936H90.2371C90.3091 126.288 90.3811 125.64 90.3811 124.992C90.3811 119.844 87.2851 116.028 81.8131 116.028C75.8371 116.028 72.1651 120.276 72.1651 125.712ZM78.6811 123.372C79.0051 121.896 79.8691 120.6 81.6691 120.6C83.2531 120.6 84.2251 121.86 84.2251 123.372H78.6811ZM93.6349 135H99.8629V121.68H106.703V116.46H93.6349V135ZM114.643 130.068C115.939 127.584 116.299 124.884 116.299 122.076V121.392H119.503V130.068H114.643ZM106.219 130.068V139.32H111.979V135H122.851V139.32H128.395V130.068H125.731V116.46H110.431V120.924C110.431 124.668 109.747 127.98 108.523 130.068H106.219ZM129.92 129.78C129.92 132.984 132.404 135.432 135.968 135.432C138.092 135.432 140.252 134.46 141.476 132.732H141.548C141.548 132.732 141.476 133.272 141.476 133.884V135H147.164V123.588C147.164 118.872 143.996 116.028 138.884 116.028C135.86 116.028 132.62 117.216 131.036 118.44L133.196 122.832C134.672 121.86 136.508 121.068 138.308 121.068C139.676 121.068 140.936 121.572 140.936 123.12V123.444H140.396C135.824 123.444 129.92 124.812 129.92 129.78ZM136.076 129.204C136.076 127.512 138.524 127.008 140.432 127.008H141.008V127.512C141.008 129.024 139.64 130.788 137.84 130.788C136.688 130.788 136.076 130.068 136.076 129.204ZM160.115 135H166.343V121.68H173.183V116.46H160.115V135ZM174.505 125.784C174.505 131.58 179.185 135.432 185.017 135.432C190.849 135.432 195.529 131.58 195.529 125.784C195.529 119.952 190.849 116.028 184.981 116.028C179.185 116.028 174.505 119.952 174.505 125.784ZM180.805 125.784C180.805 122.976 182.749 121.212 185.017 121.212C187.285 121.212 189.229 122.976 189.229 125.784C189.229 128.556 187.285 130.248 185.017 130.248C182.749 130.248 180.805 128.556 180.805 125.784ZM202.504 135H208.732V121.68H214.384V116.46H196.888V121.68H202.504V135ZM215.743 125.784C215.743 131.58 220.423 135.432 226.255 135.432C232.087 135.432 236.767 131.58 236.767 125.784C236.767 119.952 232.087 116.028 226.219 116.028C220.423 116.028 215.743 119.952 215.743 125.784ZM222.043 125.784C222.043 122.976 223.987 121.212 226.255 121.212C228.523 121.212 230.467 122.976 230.467 125.784C230.467 128.556 228.523 130.248 226.255 130.248C223.987 130.248 222.043 128.556 222.043 125.784ZM239.885 135H250.001C253.673 135 257.057 133.56 257.057 129.492C257.057 127.872 256.265 126.036 254.141 125.388V125.352C255.545 124.524 256.301 122.868 256.301 121.32C256.301 118.116 253.709 116.46 250.001 116.46H239.885V135ZM246.113 123.768V120.312H248.381C249.605 120.312 250.109 121.068 250.109 121.932C250.109 122.904 249.605 123.768 248.453 123.768H246.113ZM246.113 131.112V127.404H248.885C250.217 127.404 250.829 128.268 250.829 129.276C250.829 130.212 250.181 131.112 248.849 131.112H246.113ZM278.78 135H285.008V116.46H278.78V135ZM260.276 135H269.312C274.496 135 276.656 132.444 276.656 128.664C276.656 124.92 274.496 122.256 269.312 122.256H266.504V116.46H260.276V135ZM266.504 130.932V126.288H268.052C269.636 126.288 270.428 127.332 270.428 128.628C270.428 129.924 269.636 130.932 268.16 130.932H266.504ZM288.382 135H294.322L294.754 126.468C294.826 125.028 294.718 123.3 294.718 123.3H294.79C294.79 123.3 295.474 124.848 295.87 126.036L298.318 132.516H303.358L305.806 126.036C306.274 124.884 306.814 123.3 306.814 123.3H306.886C306.886 123.3 306.814 125.028 306.85 126.468L307.282 135H313.258L311.494 116.46H304.33L301.594 124.596C301.27 125.532 300.838 126.756 300.838 126.756H300.802C300.802 126.756 300.406 125.532 300.082 124.596L297.346 116.46H290.146L288.382 135ZM325.631 135H335.747C339.419 135 342.803 133.56 342.803 129.492C342.803 127.872 342.011 126.036 339.887 125.388V125.352C341.291 124.524 342.047 122.868 342.047 121.32C342.047 118.116 339.455 116.46 335.747 116.46H325.631V135ZM331.859 123.768V120.312H334.127C335.351 120.312 335.855 121.068 335.855 121.932C335.855 122.904 335.351 123.768 334.199 123.768H331.859ZM331.859 131.112V127.404H334.631C335.963 127.404 336.575 128.268 336.575 129.276C336.575 130.212 335.927 131.112 334.595 131.112H331.859ZM344.69 129.78C344.69 132.984 347.174 135.432 350.738 135.432C352.862 135.432 355.022 134.46 356.246 132.732H356.318C356.318 132.732 356.246 133.272 356.246 133.884V135H361.934V123.588C361.934 118.872 358.766 116.028 353.654 116.028C350.63 116.028 347.39 117.216 345.806 118.44L347.966 122.832C349.442 121.86 351.278 121.068 353.078 121.068C354.446 121.068 355.706 121.572 355.706 123.12V123.444H355.166C350.594 123.444 344.69 124.812 344.69 129.78ZM350.846 129.204C350.846 127.512 353.294 127.008 355.202 127.008H355.778V127.512C355.778 129.024 354.41 130.788 352.61 130.788C351.458 130.788 350.846 130.068 350.846 129.204ZM365.093 135H371.033L371.465 126.468C371.537 125.028 371.429 123.3 371.429 123.3H371.501C371.501 123.3 372.185 124.848 372.581 126.036L375.029 132.516H380.069L382.517 126.036C382.985 124.884 383.525 123.3 383.525 123.3H383.597C383.597 123.3 383.525 125.028 383.561 126.468L383.993 135H389.969L388.205 116.46H381.041L378.305 124.596C377.981 125.532 377.549 126.756 377.549 126.756H377.513C377.513 126.756 377.117 125.532 376.793 124.596L374.057 116.46H366.857L365.093 135ZM402.342 135H408.57V121.68H414.078V135H420.306V116.46H402.342V135ZM423.446 125.784C423.446 131.58 428.126 135.432 433.958 135.432C439.79 135.432 444.47 131.58 444.47 125.784C444.47 119.952 439.79 116.028 433.922 116.028C428.126 116.028 423.446 119.952 423.446 125.784ZM429.746 125.784C429.746 122.976 431.69 121.212 433.958 121.212C436.226 121.212 438.17 122.976 438.17 125.784C438.17 128.556 436.226 130.248 433.958 130.248C431.69 130.248 429.746 128.556 429.746 125.784ZM446.796 135H452.736L453.168 126.468C453.24 125.028 453.132 123.3 453.132 123.3H453.204C453.204 123.3 453.888 124.848 454.284 126.036L456.732 132.516H461.772L464.22 126.036C464.688 124.884 465.228 123.3 465.228 123.3H465.3C465.3 123.3 465.228 125.028 465.264 126.468L465.696 135H471.672L469.908 116.46H462.744L460.008 124.596C459.684 125.532 459.252 126.756 459.252 126.756H459.216C459.216 126.756 458.82 125.532 458.496 124.596L455.76 116.46H448.56L446.796 135ZM474.001 125.784C474.001 131.58 478.681 135.432 484.513 135.432C490.345 135.432 495.025 131.58 495.025 125.784C495.025 119.952 490.345 116.028 484.477 116.028C478.681 116.028 474.001 119.952 474.001 125.784ZM480.301 125.784C480.301 122.976 482.245 121.212 484.513 121.212C486.781 121.212 488.725 122.976 488.725 125.784C488.725 128.556 486.781 130.248 484.513 130.248C482.245 130.248 480.301 128.556 480.301 125.784ZM503.471 129.312C505.739 129.312 507.395 128.808 508.439 128.34H508.511C508.511 128.34 508.475 128.808 508.475 129.204V135H514.703V116.46H508.475V123.336C507.863 123.768 506.927 124.236 505.667 124.236C504.119 124.236 503.291 123.336 503.291 121.752V116.46H497.171V122.94C497.171 127.8 500.483 129.312 503.471 129.312ZM518.885 135H528.137C533.321 135 535.481 132.444 535.481 128.664C535.481 124.92 533.321 122.256 528.137 122.256H525.113V116.46H518.885V135ZM525.113 130.932V126.288H526.877C528.461 126.288 529.253 127.332 529.253 128.628C529.253 129.924 528.461 130.932 526.985 130.932H525.113Z" fill="#222224"/>
<path d="M0.486 188.488C1.476 189.586 3.078 190.216 4.608 190.216C7.002 190.216 8.928 188.758 8.928 186.4C8.928 184.834 8.028 183.736 6.696 183.358V183.322C7.596 182.872 8.532 182.008 8.532 180.46C8.532 178.336 6.894 177.076 4.716 177.076C3.636 177.076 2.214 177.274 0.864 178.39L1.62 179.722C2.556 178.93 3.564 178.642 4.464 178.642C6.03 178.642 6.714 179.578 6.714 180.676C6.714 181.882 5.706 182.728 4.428 182.728H3.168V184.204H4.734C6.12 184.204 7.11 184.978 7.11 186.31C7.11 187.75 6.012 188.614 4.464 188.614C3.276 188.614 2.142 188.002 1.476 187.282L0.486 188.488ZM10.4202 187.516C10.4202 189.226 11.8782 190.216 13.4622 190.216C14.8122 190.216 15.9282 189.406 16.4502 188.362H16.4862C16.4862 188.362 16.4322 188.668 16.4322 189.082V190H18.0702V184.24C18.0702 181.936 16.7562 180.676 14.4702 180.676C13.1922 180.676 11.8062 181.144 11.0682 181.756L11.7702 183.034C12.5082 182.512 13.4262 182.152 14.3262 182.152C15.4602 182.152 16.3242 182.656 16.3242 184.15V184.33H15.8562C13.9662 184.33 10.4202 184.654 10.4202 187.516ZM12.1662 187.372C12.1662 185.698 14.5782 185.59 15.8742 185.59H16.3242V185.932C16.3242 187.282 15.4062 188.83 13.8762 188.83C12.7422 188.83 12.1662 188.092 12.1662 187.372ZM22.4328 188.56C23.5848 186.76 23.7288 184.168 23.7288 182.8V182.314H26.4648V188.56H22.4328ZM19.5168 188.56V192.16H21.1548V190H27.9048V192.16H29.5068V188.56H28.2108V180.892H22.0548V182.566C22.0548 183.97 21.9108 186.814 20.6328 188.56H19.5168ZM30.5823 187.516C30.5823 189.226 32.0403 190.216 33.6243 190.216C34.9743 190.216 36.0903 189.406 36.6123 188.362H36.6483C36.6483 188.362 36.5943 188.668 36.5943 189.082V190H38.2323V184.24C38.2323 181.936 36.9183 180.676 34.6323 180.676C33.3543 180.676 31.9683 181.144 31.2303 181.756L31.9323 183.034C32.6703 182.512 33.5883 182.152 34.4883 182.152C35.6223 182.152 36.4863 182.656 36.4863 184.15V184.33H36.0183C34.1283 184.33 30.5823 184.654 30.5823 187.516ZM32.3283 187.372C32.3283 185.698 34.7403 185.59 36.0363 185.59H36.4863V185.932C36.4863 187.282 35.5683 188.83 34.0383 188.83C32.9043 188.83 32.3283 188.092 32.3283 187.372ZM40.8129 190H44.7009C46.6809 190 48.0489 189.1 48.0489 187.408C48.0489 186.4 47.4549 185.518 46.3209 185.248V185.23C47.1489 184.87 47.6169 184.114 47.6169 183.232C47.6169 181.702 46.4109 180.892 44.5749 180.892H40.8129V190ZM42.5589 184.744V182.098H44.2149C45.3129 182.098 45.8349 182.53 45.8349 183.358C45.8349 184.204 45.3129 184.744 44.2689 184.744H42.5589ZM42.5589 188.776V185.914H44.4129C45.6189 185.914 46.2849 186.454 46.2849 187.354C46.2849 188.2 45.6909 188.776 44.4309 188.776H42.5589ZM49.4085 187.516C49.4085 189.226 50.8665 190.216 52.4505 190.216C53.8005 190.216 54.9165 189.406 55.4385 188.362H55.4745C55.4745 188.362 55.4205 188.668 55.4205 189.082V190H57.0585V184.24C57.0585 181.936 55.7445 180.676 53.4585 180.676C52.1805 180.676 50.7945 181.144 50.0565 181.756L50.7585 183.034C51.4965 182.512 52.4145 182.152 53.3145 182.152C54.4485 182.152 55.3125 182.656 55.3125 184.15V184.33H54.8445C52.9545 184.33 49.4085 184.654 49.4085 187.516ZM51.1545 187.372C51.1545 185.698 53.5665 185.59 54.8625 185.59H55.3125V185.932C55.3125 187.282 54.3945 188.83 52.8645 188.83C51.7305 188.83 51.1545 188.092 51.1545 187.372ZM63.6531 179.848C65.0571 179.848 66.3171 179.02 66.3171 177.544V177.274H64.9311V177.508C64.9311 178.318 64.2831 178.714 63.6531 178.714C63.0231 178.714 62.3931 178.318 62.3931 177.526V177.274H60.9891V177.544C60.9891 179.02 62.2671 179.848 63.6531 179.848ZM59.6391 190H61.3131L65.2551 184.564C65.5431 184.132 65.9931 183.52 66.0471 183.358H66.0831C66.0831 183.502 66.0291 184.132 66.0291 184.564V190H67.7211V180.892H66.0291L62.1051 186.328C61.7991 186.76 61.3671 187.39 61.2951 187.552H61.2591C61.2771 187.462 61.3131 186.814 61.3131 186.328V180.892H59.6391V190ZM72.5929 190H74.3209V182.386H77.5069V180.892H69.4249V182.386H72.5929V190ZM78.3283 185.446C78.3283 188.146 80.3083 190.216 83.1703 190.216C84.4303 190.216 85.8163 189.73 86.6983 188.92L85.9603 187.642C85.2403 188.29 84.2503 188.704 83.2783 188.704C81.6403 188.704 80.2363 187.642 80.1463 185.68H86.7703C86.8063 185.428 86.8423 185.176 86.8423 184.942C86.8423 182.602 85.4743 180.676 82.9003 180.676C80.3083 180.676 78.3283 182.548 78.3283 185.446ZM80.2003 184.42C80.4523 182.908 81.5143 182.026 82.8643 182.026C84.0523 182.026 85.0243 182.854 85.0783 184.42H80.2003ZM92.4518 190.09C95.1338 189.946 96.1778 187.822 96.1778 183.7V182.332H98.8598V190H100.606V180.892H94.5038V183.7C94.5038 186.994 93.7838 188.326 92.4518 188.524V190.09ZM103.303 190H105.049V186.148H106.705C107.029 188.524 108.955 190.216 111.367 190.216C113.995 190.216 116.101 188.2 116.101 185.428C116.101 182.674 113.995 180.676 111.349 180.676C108.955 180.676 107.029 182.35 106.705 184.708H105.049V180.892H103.303V190ZM108.397 185.428C108.397 183.538 109.711 182.188 111.367 182.188C113.005 182.188 114.319 183.538 114.319 185.428C114.319 187.336 113.005 188.704 111.367 188.704C109.711 188.704 108.397 187.336 108.397 185.428ZM117.813 184.762C117.813 187.912 119.199 190.216 122.277 190.216C124.851 190.216 126.579 188.416 126.579 185.896C126.579 183.322 124.995 181.702 122.709 181.702C121.503 181.702 120.297 182.098 119.487 183.322H119.451C119.577 181.576 120.441 180.514 122.259 179.686L125.751 178.228L125.175 176.788L121.917 178.192C118.749 179.524 117.813 181.504 117.813 184.762ZM119.631 185.896C119.631 184.294 120.729 183.088 122.277 183.088C123.645 183.088 124.815 184.15 124.815 185.932C124.815 187.696 123.645 188.74 122.205 188.74C120.801 188.74 119.631 187.696 119.631 185.896ZM137 190H138.746V180.892H137V190ZM128.756 190H132.266C134.552 190 135.596 188.83 135.596 187.12C135.596 185.05 134.174 184.186 132.284 184.186H130.502V180.892H128.756V190ZM130.502 188.74V185.446H132.014C133.274 185.446 133.832 186.13 133.832 187.102C133.832 188.056 133.292 188.74 132.032 188.74H130.502ZM140.854 185.446C140.854 188.146 142.834 190.216 145.696 190.216C146.956 190.216 148.342 189.73 149.224 188.92L148.486 187.642C147.766 188.29 146.776 188.704 145.804 188.704C144.166 188.704 142.762 187.642 142.672 185.68H149.296C149.332 185.428 149.368 185.176 149.368 184.942C149.368 182.602 148 180.676 145.426 180.676C142.834 180.676 140.854 182.548 140.854 185.446ZM142.726 184.42C142.978 182.908 144.04 182.026 145.39 182.026C146.578 182.026 147.55 182.854 147.604 184.42H142.726ZM155.967 190H159.855C161.835 190 163.203 189.1 163.203 187.408C163.203 186.4 162.609 185.518 161.475 185.248V185.23C162.303 184.87 162.771 184.114 162.771 183.232C162.771 181.702 161.565 180.892 159.729 180.892H155.967V190ZM157.713 184.744V182.098H159.369C160.467 182.098 160.989 182.53 160.989 183.358C160.989 184.204 160.467 184.744 159.423 184.744H157.713ZM157.713 188.776V185.914H159.567C160.773 185.914 161.439 186.454 161.439 187.354C161.439 188.2 160.845 188.776 159.585 188.776H157.713ZM164.725 185.428C164.725 188.2 166.921 190.216 169.639 190.216C172.339 190.216 174.535 188.2 174.535 185.428C174.535 182.674 172.339 180.676 169.621 180.676C166.921 180.676 164.725 182.674 164.725 185.428ZM166.507 185.428C166.507 183.538 167.911 182.188 169.639 182.188C171.349 182.188 172.771 183.538 172.771 185.428C172.771 187.336 171.349 188.704 169.639 188.704C167.911 188.704 166.507 187.336 166.507 185.428ZM176.639 190H178.385V182.386H182.849V190H184.595V180.892H176.639V190ZM187.291 193.6H189.037V189.46C189.037 188.992 188.965 188.668 188.965 188.668H189.001C189.631 189.64 190.675 190.216 191.827 190.216C194.221 190.216 195.949 188.344 195.949 185.446C195.949 182.62 194.419 180.676 191.953 180.676C190.621 180.676 189.469 181.288 188.893 182.386H188.857C188.857 182.386 188.911 182.08 188.911 181.702V180.892H187.291V193.6ZM188.983 185.482C188.983 183.178 190.243 182.206 191.611 182.206C193.123 182.206 194.185 183.484 194.185 185.464C194.185 187.534 192.997 188.704 191.557 188.704C189.883 188.704 188.983 187.102 188.983 185.482ZM197.508 185.428C197.508 188.2 199.704 190.216 202.422 190.216C205.122 190.216 207.318 188.2 207.318 185.428C207.318 182.674 205.122 180.676 202.404 180.676C199.704 180.676 197.508 182.674 197.508 185.428ZM199.29 185.428C199.29 183.538 200.694 182.188 202.422 182.188C204.132 182.188 205.554 183.538 205.554 185.428C205.554 187.336 204.132 188.704 202.422 188.704C200.694 188.704 199.29 187.336 199.29 185.428ZM208.828 185.446C208.828 188.182 210.826 190.216 213.706 190.216C215.128 190.216 216.514 189.64 217.342 188.758L216.64 187.48C215.938 188.218 214.84 188.704 213.832 188.704C211.942 188.704 210.61 187.282 210.61 185.428C210.61 183.574 211.942 182.188 213.778 182.188C214.732 182.188 215.686 182.62 216.298 183.232L217.126 182.008C216.262 181.09 214.912 180.676 213.706 180.676C210.844 180.676 208.828 182.746 208.828 185.446ZM227.475 190H229.221V180.892H227.475V190ZM219.231 190H222.741C225.027 190 226.071 188.83 226.071 187.12C226.071 185.05 224.649 184.186 222.759 184.186H220.977V180.892H219.231V190ZM220.977 188.74V185.446H222.489C223.749 185.446 224.307 186.13 224.307 187.102C224.307 188.056 223.767 188.74 222.507 188.74H220.977ZM231.202 191.818H232.588L234.154 188.11H232.318L231.202 191.818ZM0.594 215.516C0.594 217.226 2.052 218.216 3.636 218.216C4.986 218.216 6.102 217.406 6.624 216.362H6.66C6.66 216.362 6.606 216.668 6.606 217.082V218H8.244V212.24C8.244 209.936 6.93 208.676 4.644 208.676C3.366 208.676 1.98 209.144 1.242 209.756L1.944 211.034C2.682 210.512 3.6 210.152 4.5 210.152C5.634 210.152 6.498 210.656 6.498 212.15V212.33H6.03C4.14 212.33 0.594 212.654 0.594 215.516ZM2.34 215.372C2.34 213.698 4.752 213.59 6.048 213.59H6.498V213.932C6.498 215.282 5.58 216.83 4.05 216.83C2.916 216.83 2.34 216.092 2.34 215.372ZM14.9466 218H16.6386L17.0346 212.582C17.0706 212.042 17.0166 211.016 17.0166 211.016H17.0526C17.0526 211.016 17.3406 211.7 17.6286 212.366L19.7886 216.902H21.2826L23.4426 212.348C23.7846 211.646 24.0186 211.016 24.0186 211.016H24.0546C24.0546 211.016 24.0186 212.042 24.0366 212.582L24.4326 218H26.1246L25.3326 208.892H23.4246L21.0486 214.04C20.8146 214.598 20.5446 215.264 20.5446 215.264H20.5086C20.5086 215.264 20.2566 214.58 20.0046 214.04L17.6826 208.892H15.7386L14.9466 218ZM36.717 218H38.463V208.892H36.717V218ZM28.473 218H31.983C34.269 218 35.313 216.83 35.313 215.12C35.313 213.05 33.891 212.186 32.001 212.186H30.219V208.892H28.473V218ZM30.219 216.74V213.446H31.731C32.991 213.446 33.549 214.13 33.549 215.102C33.549 216.056 33.009 216.74 31.749 216.74H30.219ZM45.0705 213.446C45.0705 216.182 47.0685 218.216 49.9485 218.216C51.3705 218.216 52.7565 217.64 53.5845 216.758L52.8825 215.48C52.1805 216.218 51.0825 216.704 50.0745 216.704C48.1845 216.704 46.8525 215.282 46.8525 213.428C46.8525 211.574 48.1845 210.188 50.0205 210.188C50.9745 210.188 51.9285 210.62 52.5405 211.232L53.3685 210.008C52.5045 209.09 51.1545 208.676 49.9485 208.676C47.0865 208.676 45.0705 210.746 45.0705 213.446ZM59.523 219.89L58.911 221.222C58.911 221.222 59.649 221.78 60.657 221.78C61.935 221.78 63.069 221.06 63.609 219.638L67.893 208.892H66.003L63.789 214.868C63.627 215.336 63.483 215.948 63.483 215.948H63.447C63.447 215.948 63.285 215.3 63.105 214.85L60.819 208.892H58.857L62.673 217.892L62.223 218.936C61.881 219.764 61.287 220.286 60.567 220.286C60.027 220.286 59.523 219.89 59.523 219.89ZM70.7375 216.56C71.8895 214.76 72.0335 212.168 72.0335 210.8V210.314H74.7695V216.56H70.7375ZM67.8215 216.56V220.16H69.4595V218H76.2095V220.16H77.8115V216.56H76.5155V208.892H70.3595V210.566C70.3595 211.97 70.2155 214.814 68.9375 216.56H67.8215ZM78.9435 213.428C78.9435 216.2 81.1395 218.216 83.8575 218.216C86.5575 218.216 88.7535 216.2 88.7535 213.428C88.7535 210.674 86.5575 208.676 83.8395 208.676C81.1395 208.676 78.9435 210.674 78.9435 213.428ZM80.7255 213.428C80.7255 211.538 82.1295 210.188 83.8575 210.188C85.5675 210.188 86.9895 211.538 86.9895 213.428C86.9895 215.336 85.5675 216.704 83.8575 216.704C82.1295 216.704 80.7255 215.336 80.7255 213.428ZM90.8578 218H94.7458C96.7258 218 98.0938 217.1 98.0938 215.408C98.0938 214.4 97.4998 213.518 96.3658 213.248V213.23C97.1938 212.87 97.6618 212.114 97.6618 211.232C97.6618 209.702 96.4558 208.892 94.6198 208.892H90.8578V218ZM92.6038 212.744V210.098H94.2598C95.3578 210.098 95.8798 210.53 95.8798 211.358C95.8798 212.204 95.3578 212.744 94.3138 212.744H92.6038ZM92.6038 216.776V213.914H94.4578C95.6638 213.914 96.3298 214.454 96.3298 215.354C96.3298 216.2 95.7358 216.776 94.4758 216.776H92.6038ZM99.6154 213.428C99.6154 216.2 101.811 218.216 104.529 218.216C107.229 218.216 109.425 216.2 109.425 213.428C109.425 210.674 107.229 208.676 104.511 208.676C101.811 208.676 99.6154 210.674 99.6154 213.428ZM101.397 213.428C101.397 211.538 102.801 210.188 104.529 210.188C106.239 210.188 107.661 211.538 107.661 213.428C107.661 215.336 106.239 216.704 104.529 216.704C102.801 216.704 101.397 215.336 101.397 213.428ZM110.294 218.09C112.976 217.946 114.02 215.822 114.02 211.7V210.332H116.702V218H118.448V208.892H112.346V211.7C112.346 214.994 111.626 216.326 110.294 216.524V218.09ZM121.145 218H124.691C126.995 218 128.039 216.83 128.039 215.12C128.039 213.05 126.617 212.186 124.727 212.186H122.891V208.892H121.145V218ZM122.891 216.74V213.446H124.457C125.717 213.446 126.257 214.13 126.257 215.102C126.257 216.056 125.717 216.74 124.457 216.74H122.891ZM129.322 213.446C129.322 216.182 131.32 218.216 134.2 218.216C135.622 218.216 137.008 217.64 137.836 216.758L137.134 215.48C136.432 216.218 135.334 216.704 134.326 216.704C132.436 216.704 131.104 215.282 131.104 213.428C131.104 211.574 132.436 210.188 134.272 210.188C135.226 210.188 136.18 210.62 136.792 211.232L137.62 210.008C136.756 209.09 135.406 208.676 134.2 208.676C131.338 208.676 129.322 210.746 129.322 213.446ZM141.921 218H143.649V210.386H146.835V208.892H138.753V210.386H141.921V218ZM148.549 218H152.437C154.417 218 155.785 217.1 155.785 215.408C155.785 214.4 155.191 213.518 154.057 213.248V213.23C154.885 212.87 155.353 212.114 155.353 211.232C155.353 209.702 154.147 208.892 152.311 208.892H148.549V218ZM150.295 212.744V210.098H151.951C153.049 210.098 153.571 210.53 153.571 211.358C153.571 212.204 153.049 212.744 152.005 212.744H150.295ZM150.295 216.776V213.914H152.149C153.355 213.914 154.021 214.454 154.021 215.354C154.021 216.2 153.427 216.776 152.167 216.776H150.295ZM157.901 218H159.575L163.517 212.564C163.805 212.132 164.255 211.52 164.309 211.358H164.345C164.345 211.502 164.291 212.132 164.291 212.564V218H165.983V208.892H164.291L160.367 214.328C160.061 214.76 159.629 215.39 159.557 215.552H159.521C159.539 215.462 159.575 214.814 159.575 214.328V208.892H157.901V218ZM168.065 213.446C168.065 216.146 170.045 218.216 172.907 218.216C174.167 218.216 175.553 217.73 176.435 216.92L175.697 215.642C174.977 216.29 173.987 216.704 173.015 216.704C171.377 216.704 169.973 215.642 169.883 213.68H176.507C176.543 213.428 176.579 213.176 176.579 212.942C176.579 210.602 175.211 208.676 172.637 208.676C170.045 208.676 168.065 210.548 168.065 213.446ZM169.937 212.42C170.189 210.908 171.251 210.026 172.601 210.026C173.789 210.026 174.761 210.854 174.815 212.42H169.937ZM178.3 218H179.992L180.388 212.582C180.424 212.042 180.37 211.016 180.37 211.016H180.406C180.406 211.016 180.694 211.7 180.982 212.366L183.142 216.902H184.636L186.796 212.348C187.138 211.646 187.372 211.016 187.372 211.016H187.408C187.408 211.016 187.372 212.042 187.39 212.582L187.786 218H189.478L188.686 208.892H186.778L184.402 214.04C184.168 214.598 183.898 215.264 183.898 215.264H183.862C183.862 215.264 183.61 214.58 183.358 214.04L181.036 208.892H179.092L178.3 218ZM196.327 218H198.073V214.094H202.681V218H204.427V208.892H202.681V212.6H198.073V208.892H196.327V218ZM206.364 215.516C206.364 217.226 207.822 218.216 209.406 218.216C210.756 218.216 211.872 217.406 212.394 216.362H212.43C212.43 216.362 212.376 216.668 212.376 217.082V218H214.014V212.24C214.014 209.936 212.7 208.676 210.414 208.676C209.136 208.676 207.75 209.144 207.012 209.756L207.714 211.034C208.452 210.512 209.37 210.152 210.27 210.152C211.404 210.152 212.268 210.656 212.268 212.15V212.33H211.8C209.91 212.33 206.364 212.654 206.364 215.516ZM208.11 215.372C208.11 213.698 210.522 213.59 211.818 213.59H212.268V213.932C212.268 215.282 211.35 216.83 209.82 216.83C208.686 216.83 208.11 216.092 208.11 215.372ZM221.094 218H222.84V214.094H227.448V218H229.194V208.892H227.448V212.6H222.84V208.892H221.094V218ZM231.887 218H233.561L237.503 212.564C237.791 212.132 238.241 211.52 238.295 211.358H238.331C238.331 211.502 238.277 212.132 238.277 212.564V218H239.969V208.892H238.277L234.353 214.328C234.047 214.76 233.615 215.39 233.543 215.552H233.507C233.525 215.462 233.561 214.814 233.561 214.328V208.892H231.887V218ZM241.601 218H243.581L245.489 214.958C245.633 214.742 245.759 214.472 245.759 214.472H245.795C245.795 214.472 245.939 214.742 246.083 214.958L247.991 218H249.971L246.857 213.32L249.791 208.892H247.793L246.101 211.664C245.975 211.898 245.795 212.204 245.795 212.204H245.759C245.759 212.204 245.597 211.898 245.471 211.664L243.779 208.892H241.781L244.715 213.32L241.601 218ZM255.533 213.428C255.533 216.2 257.729 218.216 260.447 218.216C263.147 218.216 265.343 216.2 265.343 213.428C265.343 210.674 263.147 208.676 260.429 208.676C257.729 208.676 255.533 210.674 255.533 213.428ZM257.315 213.428C257.315 211.538 258.719 210.188 260.447 210.188C262.157 210.188 263.579 211.538 263.579 213.428C263.579 215.336 262.157 216.704 260.447 216.704C258.719 216.704 257.315 215.336 257.315 213.428ZM269.345 218H271.073V210.386H274.259V208.892H266.177V210.386H269.345V218ZM275.973 218H279.861C281.841 218 283.209 217.1 283.209 215.408C283.209 214.4 282.615 213.518 281.481 213.248V213.23C282.309 212.87 282.777 212.114 282.777 211.232C282.777 209.702 281.571 208.892 279.735 208.892H275.973V218ZM277.719 212.744V210.098H279.375C280.473 210.098 280.995 210.53 280.995 211.358C280.995 212.204 280.473 212.744 279.429 212.744H277.719ZM277.719 216.776V213.914H279.573C280.779 213.914 281.445 214.454 281.445 215.354C281.445 216.2 280.851 216.776 279.591 216.776H277.719ZM284.731 213.446C284.731 216.146 286.711 218.216 289.573 218.216C290.833 218.216 292.219 217.73 293.101 216.92L292.363 215.642C291.643 216.29 290.653 216.704 289.681 216.704C288.043 216.704 286.639 215.642 286.549 213.68H293.173C293.209 213.428 293.245 213.176 293.245 212.942C293.245 210.602 291.877 208.676 289.303 208.676C286.711 208.676 284.731 210.548 284.731 213.446ZM286.603 212.42C286.855 210.908 287.917 210.026 289.267 210.026C290.455 210.026 291.427 210.854 291.481 212.42H286.603ZM297.435 218H299.163V210.386H302.349V208.892H294.267V210.386H297.435V218ZM304.063 218H305.737L309.679 212.564C309.967 212.132 310.417 211.52 310.471 211.358H310.507C310.507 211.502 310.453 212.132 310.453 212.564V218H312.145V208.892H310.453L306.529 214.328C306.223 214.76 305.791 215.39 305.719 215.552H305.683C305.701 215.462 305.737 214.814 305.737 214.328V208.892H304.063V218ZM314.443 218H316.135L316.531 212.582C316.567 212.042 316.513 211.016 316.513 211.016H316.549C316.549 211.016 316.837 211.7 317.125 212.366L319.285 216.902H320.779L322.939 212.348C323.281 211.646 323.515 211.016 323.515 211.016H323.551C323.551 211.016 323.515 212.042 323.533 212.582L323.929 218H325.621L324.829 208.892H322.921L320.545 214.04C320.311 214.598 320.041 215.264 320.041 215.264H320.005C320.005 215.264 319.753 214.58 319.501 214.04L317.179 208.892H315.235L314.443 218Z" fill="#424754"/>
<path d="M713 53.2049C713 52.0831 713 51.5222 713.189 51.0937C713.355 50.7168 713.62 50.4104 713.947 50.2183C714.317 50 714.803 50 715.774 50H1031.23C1032.2 50 1032.68 50 1033.05 50.2183C1033.38 50.4104 1033.64 50.7168 1033.81 51.0937C1034 51.5222 1034 52.0831 1034 53.2049V263.795C1034 264.917 1034 265.478 1033.81 265.906C1033.64 266.283 1033.38 266.59 1033.05 266.782C1032.68 267 1032.2 267 1031.23 267H715.774C714.803 267 714.317 267 713.947 266.782C713.62 266.59 713.355 266.283 713.189 265.906C713 265.478 713 264.917 713 263.795V53.2049Z" fill="#F3F3F3"/>
<path d="M726 211.321C726 211.208 726 211.152 726.023 211.109C726.042 211.072 726.074 211.041 726.113 211.022C726.157 211 726.215 211 726.331 211H750.669C750.785 211 750.843 211 750.887 211.022C750.926 211.041 750.958 211.072 750.977 211.109C751 211.152 751 211.208 751 211.321V224.679C751 224.792 751 224.848 750.977 224.891C750.958 224.928 750.926 224.959 750.887 224.978C750.843 225 750.785 225 750.669 225H726.331C726.215 225 726.157 225 726.113 224.978C726.074 224.959 726.042 224.928 726.023 224.891C726 224.848 726 224.792 726 224.679V211.321Z" fill="white"/>
<path d="M756 197.642C756 197.417 756 197.305 756.023 197.219C756.042 197.143 756.074 197.082 756.113 197.044C756.157 197 756.215 197 756.331 197H780.669C780.785 197 780.843 197 780.887 197.044C780.926 197.082 780.958 197.143 780.977 197.219C781 197.305 781 197.417 781 197.642V224.358C781 224.583 781 224.695 780.977 224.781C780.958 224.857 780.926 224.918 780.887 224.956C780.843 225 780.785 225 780.669 225H756.331C756.215 225 756.157 225 756.113 224.956C756.074 224.918 756.042 224.857 756.023 224.781C756 224.695 756 224.583 756 224.358V197.642Z" fill="white"/>
<path d="M816 170.283C816 169.834 816 169.609 816.023 169.438C816.042 169.287 816.074 169.164 816.113 169.087C816.157 169 816.215 169 816.331 169H840.669C840.785 169 840.843 169 840.887 169.087C840.926 169.164 840.958 169.287 840.977 169.438C841 169.609 841 169.834 841 170.283V223.717C841 224.166 841 224.391 840.977 224.562C840.958 224.713 840.926 224.836 840.887 224.913C840.843 225 840.785 225 840.669 225H816.331C816.215 225 816.157 225 816.113 224.913C816.074 224.836 816.042 224.713 816.023 224.562C816 224.391 816 224.166 816 223.717V170.283Z" fill="white"/>
<path d="M786 183.962C786 183.625 786 183.457 786.023 183.328C786.042 183.215 786.074 183.123 786.113 183.066C786.157 183 786.215 183 786.331 183H810.669C810.785 183 810.843 183 810.887 183.066C810.926 183.123 810.958 183.215 810.977 183.328C811 183.457 811 183.625 811 183.962V224.038C811 224.375 811 224.543 810.977 224.672C810.958 224.785 810.926 224.877 810.887 224.934C810.843 225 810.785 225 810.669 225H786.331C786.215 225 786.157 225 786.113 224.934C786.074 224.877 786.042 224.785 786.023 224.672C786 224.543 786 224.375 786 224.038V183.962Z" fill="white"/>
<path d="M846 156.604C846 156.042 846 155.762 846.023 155.547C846.042 155.359 846.074 155.205 846.113 155.109C846.157 155 846.215 155 846.331 155H870.669C870.785 155 870.843 155 870.887 155.109C870.926 155.205 870.958 155.359 870.977 155.547C871 155.762 871 156.042 871 156.604V223.396C871 223.958 871 224.238 870.977 224.453C870.958 224.641 870.926 224.795 870.887 224.891C870.843 225 870.785 225 870.669 225H846.331C846.215 225 846.157 225 846.113 224.891C846.074 224.795 846.042 224.641 846.023 224.453C846 224.238 846 223.958 846 223.396V156.604Z" fill="white"/>
<path d="M876 142.925C876 142.251 876 141.914 876.023 141.657C876.042 141.43 876.074 141.246 876.113 141.131C876.157 141 876.215 141 876.331 141H900.669C900.785 141 900.843 141 900.887 141.131C900.926 141.246 900.958 141.43 900.977 141.657C901 141.914 901 142.251 901 142.925V223.075C901 223.749 901 224.086 900.977 224.343C900.958 224.57 900.926 224.754 900.887 224.869C900.843 225 900.785 225 900.669 225H876.331C876.215 225 876.157 225 876.113 224.869C876.074 224.754 876.042 224.57 876.023 224.343C876 224.086 876 223.749 876 223.075V142.925Z" fill="white"/>
<path d="M906 129.245C906 128.459 906 128.066 906.023 127.766C906.042 127.502 906.074 127.287 906.113 127.153C906.157 127 906.215 127 906.331 127H930.669C930.785 127 930.843 127 930.887 127.153C930.926 127.287 930.958 127.502 930.977 127.766C931 128.066 931 128.459 931 129.245V222.755C931 223.541 931 223.934 930.977 224.234C930.958 224.498 930.926 224.713 930.887 224.847C930.843 225 930.785 225 930.669 225H906.331C906.215 225 906.157 225 906.113 224.847C906.074 224.713 906.042 224.498 906.023 224.234C906 223.934 906 223.541 906 222.755V129.245Z" fill="white"/>
<path d="M936 115.566C936 114.668 936 114.219 936.023 113.876C936.042 113.574 936.074 113.329 936.113 113.175C936.157 113 936.215 113 936.331 113H960.669C960.785 113 960.843 113 960.887 113.175C960.926 113.329 960.958 113.574 960.977 113.876C961 114.219 961 114.668 961 115.566V222.434C961 223.332 961 223.781 960.977 224.124C960.958 224.426 960.926 224.671 960.887 224.825C960.843 225 960.785 225 960.669 225H936.331C936.215 225 936.157 225 936.113 224.825C936.074 224.671 936.042 224.426 936.023 224.124C936 223.781 936 223.332 936 222.434V115.566Z" fill="white"/>
<path d="M966 101.887C966 100.876 966 100.371 966.023 99.9852C966.042 99.6457 966.074 99.3696 966.113 99.1967C966.157 99 966.215 99 966.331 99H990.669C990.785 99 990.843 99 990.887 99.1967C990.926 99.3696 990.958 99.6457 990.977 99.9852C991 100.371 991 100.876 991 101.887V222.113C991 223.124 991 223.629 990.977 224.015C990.958 224.354 990.926 224.63 990.887 224.803C990.843 225 990.785 225 990.669 225H966.331C966.215 225 966.157 225 966.113 224.803C966.074 224.63 966.042 224.354 966.023 224.015C966 223.629 966 223.124 966 222.113V101.887Z" fill="white"/>
<path d="M996 88.2076C996 87.0849 996 86.5235 996.023 86.0946C996.042 85.7174 996.074 85.4107 996.113 85.2185C996.157 85 996.215 85 996.331 85H1020.67C1020.78 85 1020.84 85 1020.89 85.2185C1020.93 85.4107 1020.96 85.7174 1020.98 86.0946C1021 86.5235 1021 87.0849 1021 88.2076V221.792C1021 222.915 1021 223.477 1020.98 223.905C1020.96 224.283 1020.93 224.589 1020.89 224.781C1020.84 225 1020.78 225 1020.67 225H996.331C996.215 225 996.157 225 996.113 224.781C996.074 224.589 996.042 224.283 996.023 223.905C996 223.477 996 222.915 996 221.792V88.2076Z" fill="#F04B5D"/>
<path d="M1004 74.5L1006.67 77L1012 72" stroke="#222224" stroke-width="2"/>
<path d="M736 233.873C736 233.567 736 233.415 736.01 233.298C736.02 233.195 736.034 233.112 736.052 233.059C736.073 233 736.1 233 736.154 233H741.846C741.9 233 741.927 233 741.948 233.059C741.966 233.112 741.98 233.195 741.99 233.298C742 233.415 742 233.567 742 233.873V235.127C742 235.433 742 235.585 741.99 235.702C741.98 235.805 741.966 235.888 741.948 235.941C741.927 236 741.9 236 741.846 236H736.154C736.1 236 736.073 236 736.052 235.941C736.034 235.888 736.02 235.805 736.01 235.702C736 235.585 736 235.433 736 235.127V233.873Z" fill="#424754"/>
<path d="M766 233.873C766 233.567 766 233.415 766.01 233.298C766.02 233.195 766.034 233.112 766.052 233.059C766.073 233 766.1 233 766.154 233H771.846C771.9 233 771.927 233 771.948 233.059C771.966 233.112 771.98 233.195 771.99 233.298C772 233.415 772 233.567 772 233.873V235.127C772 235.433 772 235.585 771.99 235.702C771.98 235.805 771.966 235.888 771.948 235.941C771.927 236 771.9 236 771.846 236H766.154C766.1 236 766.073 236 766.052 235.941C766.034 235.888 766.02 235.805 766.01 235.702C766 235.585 766 235.433 766 235.127V233.873Z" fill="#424754"/>
<path d="M796 233.873C796 233.567 796 233.415 796.01 233.298C796.02 233.195 796.034 233.112 796.052 233.059C796.073 233 796.1 233 796.154 233H801.846C801.9 233 801.927 233 801.948 233.059C801.966 233.112 801.98 233.195 801.99 233.298C802 233.415 802 233.567 802 233.873V235.127C802 235.433 802 235.585 801.99 235.702C801.98 235.805 801.966 235.888 801.948 235.941C801.927 236 801.9 236 801.846 236H796.154C796.1 236 796.073 236 796.052 235.941C796.034 235.888 796.02 235.805 796.01 235.702C796 235.585 796 235.433 796 235.127V233.873Z" fill="#424754"/>
<path d="M826 233.873C826 233.567 826 233.415 826.01 233.298C826.02 233.195 826.034 233.112 826.052 233.059C826.073 233 826.1 233 826.154 233H831.846C831.9 233 831.927 233 831.948 233.059C831.966 233.112 831.98 233.195 831.99 233.298C832 233.415 832 233.567 832 233.873V235.127C832 235.433 832 235.585 831.99 235.702C831.98 235.805 831.966 235.888 831.948 235.941C831.927 236 831.9 236 831.846 236H826.154C826.1 236 826.073 236 826.052 235.941C826.034 235.888 826.02 235.805 826.01 235.702C826 235.585 826 235.433 826 235.127V233.873Z" fill="#424754"/>
<path d="M856 233.873C856 233.567 856 233.415 856.01 233.298C856.02 233.195 856.034 233.112 856.052 233.059C856.073 233 856.1 233 856.154 233H861.846C861.9 233 861.927 233 861.948 233.059C861.966 233.112 861.98 233.195 861.99 233.298C862 233.415 862 233.567 862 233.873V235.127C862 235.433 862 235.585 861.99 235.702C861.98 235.805 861.966 235.888 861.948 235.941C861.927 236 861.9 236 861.846 236H856.154C856.1 236 856.073 236 856.052 235.941C856.034 235.888 856.02 235.805 856.01 235.702C856 235.585 856 235.433 856 235.127V233.873Z" fill="#424754"/>
<path d="M886 233.873C886 233.567 886 233.415 886.01 233.298C886.02 233.195 886.034 233.112 886.052 233.059C886.073 233 886.1 233 886.154 233H891.846C891.9 233 891.927 233 891.948 233.059C891.966 233.112 891.98 233.195 891.99 233.298C892 233.415 892 233.567 892 233.873V235.127C892 235.433 892 235.585 891.99 235.702C891.98 235.805 891.966 235.888 891.948 235.941C891.927 236 891.9 236 891.846 236H886.154C886.1 236 886.073 236 886.052 235.941C886.034 235.888 886.02 235.805 886.01 235.702C886 235.585 886 235.433 886 235.127V233.873Z" fill="#424754"/>
<path d="M916 233.873C916 233.567 916 233.415 916.01 233.298C916.02 233.195 916.034 233.112 916.052 233.059C916.073 233 916.1 233 916.154 233H921.846C921.9 233 921.927 233 921.948 233.059C921.966 233.112 921.98 233.195 921.99 233.298C922 233.415 922 233.567 922 233.873V235.127C922 235.433 922 235.585 921.99 235.702C921.98 235.805 921.966 235.888 921.948 235.941C921.927 236 921.9 236 921.846 236H916.154C916.1 236 916.073 236 916.052 235.941C916.034 235.888 916.02 235.805 916.01 235.702C916 235.585 916 235.433 916 235.127V233.873Z" fill="#424754"/>
<path d="M946 233.873C946 233.567 946 233.415 946.01 233.298C946.02 233.195 946.034 233.112 946.052 233.059C946.073 233 946.1 233 946.154 233H951.846C951.9 233 951.927 233 951.948 233.059C951.966 233.112 951.98 233.195 951.99 233.298C952 233.415 952 233.567 952 233.873V235.127C952 235.433 952 235.585 951.99 235.702C951.98 235.805 951.966 235.888 951.948 235.941C951.927 236 951.9 236 951.846 236H946.154C946.1 236 946.073 236 946.052 235.941C946.034 235.888 946.02 235.805 946.01 235.702C946 235.585 946 235.433 946 235.127V233.873Z" fill="#424754"/>
<path d="M976 233.873C976 233.567 976 233.415 976.01 233.298C976.02 233.195 976.034 233.112 976.052 233.059C976.073 233 976.1 233 976.154 233H981.846C981.9 233 981.927 233 981.948 233.059C981.966 233.112 981.98 233.195 981.99 233.298C982 233.415 982 233.567 982 233.873V235.127C982 235.433 982 235.585 981.99 235.702C981.98 235.805 981.966 235.888 981.948 235.941C981.927 236 981.9 236 981.846 236H976.154C976.1 236 976.073 236 976.052 235.941C976.034 235.888 976.02 235.805 976.01 235.702C976 235.585 976 235.433 976 235.127V233.873Z" fill="#424754"/>
<path d="M1006 233.873C1006 233.567 1006 233.415 1006.01 233.298C1006.02 233.195 1006.03 233.112 1006.05 233.059C1006.07 233 1006.1 233 1006.15 233H1011.85C1011.9 233 1011.93 233 1011.95 233.059C1011.97 233.112 1011.98 233.195 1011.99 233.298C1012 233.415 1012 233.567 1012 233.873V235.127C1012 235.433 1012 235.585 1011.99 235.702C1011.98 235.805 1011.97 235.888 1011.95 235.941C1011.93 236 1011.9 236 1011.85 236H1006.15C1006.1 236 1006.07 236 1006.05 235.941C1006.03 235.888 1006.02 235.805 1006.01 235.702C1006 235.585 1006 235.433 1006 235.127V233.873Z" fill="#424754"/>
<path d="M726 251.455C726 250.945 726 250.691 726.043 250.496C726.081 250.325 726.142 250.186 726.216 250.099C726.301 250 726.412 250 726.634 250H825.366C825.588 250 825.699 250 825.784 250.099C825.858 250.186 825.919 250.325 825.957 250.496C826 250.691 826 250.945 826 251.455V253.545C826 254.055 826 254.309 825.957 254.504C825.919 254.675 825.858 254.814 825.784 254.901C825.699 255 825.588 255 825.366 255H726.634C726.412 255 726.301 255 726.216 254.901C726.142 254.814 726.081 254.675 726.043 254.504C726 254.309 726 254.055 726 253.545V251.455Z" fill="#97999D"/>
<path d="M1004 251.873C1004 251.567 1004 251.415 1004.01 251.298C1004.01 251.195 1004.02 251.112 1004.04 251.059C1004.05 251 1004.07 251 1004.11 251H1020.89C1020.93 251 1020.95 251 1020.96 251.059C1020.98 251.112 1020.99 251.195 1020.99 251.298C1021 251.415 1021 251.567 1021 251.873V253.127C1021 253.433 1021 253.585 1020.99 253.702C1020.99 253.805 1020.98 253.888 1020.96 253.941C1020.95 254 1020.93 254 1020.89 254H1004.11C1004.07 254 1004.05 254 1004.04 253.941C1004.02 253.888 1004.01 253.805 1004.01 253.702C1004 253.585 1004 253.433 1004 253.127V251.873Z" fill="#97999D"/>
<rect x="665" width="131.031" height="155" rx="2" fill="#424754"/>
<path d="M682.577 13.045C682.577 12.3941 682.577 12.0687 682.616 11.8201C682.65 11.6014 682.705 11.4236 682.773 11.3122C682.849 11.1855 682.949 11.1855 683.15 11.1855H704.376C704.576 11.1855 704.676 11.1855 704.753 11.3122C704.82 11.4236 704.875 11.6014 704.909 11.8201C704.948 12.0687 704.948 12.3941 704.948 13.045V15.7179C704.948 16.3687 704.948 16.6942 704.909 16.9428C704.875 17.1614 704.82 17.3392 704.753 17.4506C704.676 17.5773 704.576 17.5773 704.376 17.5773H683.15C682.949 17.5773 682.849 17.5773 682.773 17.4506C682.705 17.3392 682.65 17.1614 682.616 16.9428C682.577 16.6942 682.577 16.3687 682.577 15.7179V13.045Z" fill="white"/>
<g filter="url(#filter0_d)">
<path d="M698.118 65.9786C697.361 65.6534 696.48 66.0024 696.186 66.7721C693.564 73.631 693.052 81.1308 694.737 88.3016C696.535 95.9572 700.741 102.834 706.738 107.922C712.735 113.01 720.205 116.04 728.051 116.567C735.898 117.094 743.706 115.091 750.33 110.851C756.953 106.611 762.042 100.359 764.848 93.0126C767.654 85.6663 768.03 77.6135 765.921 70.0377C763.811 62.4619 759.327 55.7625 753.128 50.9241C747.321 46.3921 740.296 43.7167 732.969 43.2265C732.147 43.1715 731.461 43.8249 731.44 44.6485C731.418 45.4722 732.069 46.154 732.891 46.2119C739.579 46.6835 745.988 49.1372 751.292 53.2763C756.988 57.7219 761.108 63.8774 763.046 70.8381C764.985 77.7989 764.639 85.1979 762.061 91.9478C759.482 98.6977 754.807 104.442 748.721 108.338C742.635 112.234 735.461 114.074 728.251 113.59C721.042 113.106 714.178 110.321 708.668 105.647C703.159 100.972 699.294 94.6534 697.641 87.6192C696.103 81.0701 696.558 74.2222 698.93 67.9509C699.222 67.1802 698.875 66.3038 698.118 65.9786Z" fill="#27AE60"/>
</g>
<path d="M719.42 77.6655C719.42 76.7475 719.42 76.2885 719.457 75.9379C719.49 75.6295 719.543 75.3788 719.608 75.2216C719.681 75.043 719.778 75.043 719.97 75.043H740.366C740.559 75.043 740.655 75.043 740.729 75.2216C740.794 75.3788 740.846 75.6295 740.879 75.9379C740.917 76.2885 740.917 76.7475 740.917 77.6655V81.4353C740.917 82.3532 740.917 82.8122 740.879 83.1628C740.846 83.4712 740.794 83.722 740.729 83.8791C740.655 84.0578 740.559 84.0578 740.366 84.0578H719.97C719.778 84.0578 719.681 84.0578 719.608 83.8791C719.543 83.722 719.49 83.4712 719.457 83.1628C719.42 82.8122 719.42 82.3532 719.42 81.4353V77.6655Z" fill="white"/>
<path d="M702.777 126.674C702.777 126.321 702.777 126.144 702.873 126.009C702.957 125.891 703.091 125.794 703.256 125.734C703.443 125.665 703.689 125.665 704.18 125.665H756.157C756.648 125.665 756.893 125.665 757.081 125.734C757.246 125.794 757.38 125.891 757.464 126.009C757.559 126.144 757.559 126.321 757.559 126.674V128.124C757.559 128.477 757.559 128.653 757.464 128.788C757.38 128.907 757.246 129.003 757.081 129.064C756.893 129.132 756.648 129.132 756.157 129.132H704.18C703.689 129.132 703.443 129.132 703.256 129.064C703.091 129.003 702.957 128.907 702.873 128.788C702.777 128.653 702.777 128.477 702.777 128.124V126.674Z" fill="#97999D"/>
<defs>
<filter id="filter0_d" x="673.763" y="27.2236" width="113.505" height="113.426" filterUnits="userSpaceOnUse" color-interpolation-filters="sRGB">
<feFlood flood-opacity="0" result="BackgroundImageFix"/>
<feColorMatrix in="SourceAlpha" type="matrix" values="0 0 0 0 0 0 0 0 0 0 0 0 0 0 0 0 0 0 127 0"/>
<feOffset dy="4"/>
<feGaussianBlur stdDeviation="10"/>
<feColorMatrix type="matrix" values="0 0 0 0 0 0 0 0 0 0 0 0 0 0 0 0 0 0 0.19 0"/>
<feBlend mode="normal" in2="BackgroundImageFix" result="effect1_dropShadow"/>
<feBlend mode="normal" in="SourceGraphic" in2="effect1_dropShadow" result="shape"/>
</filter>
</defs>
</svg>
