<svg width="1034" height="267" viewBox="0 0 1034 267" fill="none" xmlns="http://www.w3.org/2000/svg">
<path d="M2.7 73H12.168C17.28 73 21.96 70.948 21.96 65.332C21.96 63.064 20.88 60.436 17.928 59.536V59.464C19.872 58.348 20.916 56.152 20.916 53.992C20.916 49.564 17.316 47.26 12.168 47.26H2.7V73ZM9 57.232V52.66H12.132C13.824 52.66 14.508 53.668 14.508 54.856C14.508 56.08 13.824 57.232 12.24 57.232H9ZM9 67.6V62.272H12.816C14.652 62.272 15.516 63.46 15.516 64.9C15.516 66.34 14.616 67.6 12.78 67.6H9ZM24.1768 63.712C24.1768 68.644 27.7408 73.432 34.3648 73.432C37.2088 73.432 40.2688 72.46 42.2848 70.732L39.9808 66.376C38.4688 67.384 36.7048 68.248 34.8688 68.248C32.8888 68.248 31.0168 67.204 30.5488 64.936H42.2488C42.3208 64.288 42.3928 63.64 42.3928 62.992C42.3928 57.844 39.2968 54.028 33.8248 54.028C27.8488 54.028 24.1768 58.276 24.1768 63.712ZM30.6928 61.372C31.0168 59.896 31.8808 58.6 33.6808 58.6C35.2648 58.6 36.2368 59.86 36.2368 61.372H30.6928ZM52.346 68.068C53.642 65.584 54.002 62.884 54.002 60.076V59.392H57.206V68.068H52.346ZM43.922 68.068V77.32H49.682V73H60.554V77.32H66.098V68.068H63.434V54.46H48.134V58.924C48.134 62.668 47.45 65.98 46.226 68.068H43.922ZM67.7003 63.712C67.7003 68.644 71.2643 73.432 77.8883 73.432C80.7323 73.432 83.7923 72.46 85.8083 70.732L83.5043 66.376C81.9923 67.384 80.2283 68.248 78.3923 68.248C76.4123 68.248 74.5403 67.204 74.0723 64.936H85.7723C85.8443 64.288 85.9163 63.64 85.9163 62.992C85.9163 57.844 82.8203 54.028 77.3483 54.028C71.3723 54.028 67.7003 58.276 67.7003 63.712ZM74.2163 61.372C74.5403 59.896 75.4043 58.6 77.2043 58.6C78.7883 58.6 79.7603 59.86 79.7603 61.372H74.2163ZM88.378 73H94.318L94.75 64.468C94.822 63.028 94.714 61.3 94.714 61.3H94.786C94.786 61.3 95.47 62.848 95.866 64.036L98.314 70.516H103.354L105.802 64.036C106.27 62.884 106.81 61.3 106.81 61.3H106.882C106.882 61.3 106.81 63.028 106.846 64.468L107.278 73H113.254L111.49 54.46H104.326L101.59 62.596C101.266 63.532 100.834 64.756 100.834 64.756H100.798C100.798 64.756 100.402 63.532 100.078 62.596L97.342 54.46H90.142L88.378 73ZM125.627 80.2H131.855V73.252C131.855 72.316 131.783 71.668 131.783 71.668H131.855C133.187 72.82 134.843 73.432 136.571 73.432C141.503 73.432 145.211 69.616 145.211 63.748C145.211 57.988 141.899 54.028 136.859 54.028C134.627 54.028 132.503 54.892 131.243 56.584H131.171C131.171 56.584 131.243 56.008 131.243 55.396V54.46H125.627V80.2ZM131.675 63.856C131.675 60.652 133.439 59.284 135.311 59.284C137.471 59.284 138.947 61.084 138.947 63.856C138.947 66.7 137.255 68.284 135.311 68.284C132.863 68.284 131.675 66.088 131.675 63.856ZM147.364 63.712C147.364 68.644 150.928 73.432 157.552 73.432C160.396 73.432 163.456 72.46 165.472 70.732L163.168 66.376C161.656 67.384 159.892 68.248 158.056 68.248C156.076 68.248 154.204 67.204 153.736 64.936H165.436C165.508 64.288 165.58 63.64 165.58 62.992C165.58 57.844 162.484 54.028 157.012 54.028C151.036 54.028 147.364 58.276 147.364 63.712ZM153.88 61.372C154.204 59.896 155.068 58.6 156.868 58.6C158.452 58.6 159.424 59.86 159.424 61.372H153.88ZM177.906 53.164C181.542 53.164 184.71 51.184 184.71 47.656V47.26H180.138V47.692C180.138 49.168 178.95 49.816 177.906 49.816C176.826 49.816 175.674 49.168 175.674 47.692V47.26H171.066V47.656C171.066 51.184 174.234 53.164 177.906 53.164ZM168.834 73H174.882L180.03 64.864C180.318 64.36 180.714 63.784 181.038 63.028H181.11C181.038 63.748 181.038 64.468 181.038 64.9V73H186.906V54.46H180.858L175.71 62.632C175.386 63.172 175.026 63.712 174.702 64.468H174.63C174.666 64 174.702 63.28 174.702 62.632V54.46H168.834V73ZM195.156 73H201.384V59.68H207.036V54.46H189.54V59.68H195.156V73ZM209.651 73H215.699L220.847 64.864C221.135 64.36 221.531 63.784 221.855 63.028H221.927C221.855 63.748 221.855 64.468 221.855 64.9V73H227.723V54.46H221.675L216.527 62.632C216.203 63.172 215.843 63.712 215.519 64.468H215.447C215.483 64 215.519 63.28 215.519 62.632V54.46H209.651V73ZM231.904 73H238.132V66.232H243.856V73H250.084V54.46H243.856V61.012H238.132V54.46H231.904V73ZM254.264 73H260.492V59.68H267.332V54.46H254.264V73ZM278.943 73H285.171V59.68H290.679V73H296.907V54.46H278.943V73ZM301.092 80.2H307.32V73.252C307.32 72.316 307.248 71.668 307.248 71.668H307.32C308.652 72.82 310.308 73.432 312.036 73.432C316.968 73.432 320.676 69.616 320.676 63.748C320.676 57.988 317.364 54.028 312.324 54.028C310.092 54.028 307.968 54.892 306.708 56.584H306.636C306.636 56.584 306.708 56.008 306.708 55.396V54.46H301.092V80.2ZM307.14 63.856C307.14 60.652 308.904 59.284 310.776 59.284C312.936 59.284 314.412 61.084 314.412 63.856C314.412 66.7 312.72 68.284 310.776 68.284C308.328 68.284 307.14 66.088 307.14 63.856ZM322.829 63.784C322.829 69.58 327.509 73.432 333.341 73.432C339.173 73.432 343.853 69.58 343.853 63.784C343.853 57.952 339.173 54.028 333.305 54.028C327.509 54.028 322.829 57.952 322.829 63.784ZM329.129 63.784C329.129 60.976 331.073 59.212 333.341 59.212C335.609 59.212 337.553 60.976 337.553 63.784C337.553 66.556 335.609 68.248 333.341 68.248C331.073 68.248 329.129 66.556 329.129 63.784ZM346.971 73H353.199V59.68H360.039V54.46H346.971V73ZM362.651 80.2H368.879V73.252C368.879 72.316 368.807 71.668 368.807 71.668H368.879C370.211 72.82 371.867 73.432 373.595 73.432C378.527 73.432 382.235 69.616 382.235 63.748C382.235 57.988 378.923 54.028 373.883 54.028C371.651 54.028 369.527 54.892 368.267 56.584H368.195C368.195 56.584 368.267 56.008 368.267 55.396V54.46H362.651V80.2ZM368.699 63.856C368.699 60.652 370.463 59.284 372.335 59.284C374.495 59.284 375.971 61.084 375.971 63.856C375.971 66.7 374.279 68.284 372.335 68.284C369.887 68.284 368.699 66.088 368.699 63.856ZM384.388 63.712C384.388 68.644 387.952 73.432 394.576 73.432C397.42 73.432 400.48 72.46 402.496 70.732L400.192 66.376C398.68 67.384 396.916 68.248 395.08 68.248C393.1 68.248 391.228 67.204 390.76 64.936H402.46C402.532 64.288 402.604 63.64 402.604 62.992C402.604 57.844 399.508 54.028 394.036 54.028C388.06 54.028 384.388 58.276 384.388 63.712ZM390.904 61.372C391.228 59.896 392.092 58.6 393.892 58.6C395.476 58.6 396.448 59.86 396.448 61.372H390.904ZM404.814 63.712C404.814 68.824 408.522 73.432 415.146 73.432C418.242 73.432 421.266 72.244 423.102 70.372L420.834 66.016C419.502 67.168 417.558 68.248 415.758 68.248C412.626 68.248 411.114 65.836 411.114 63.64C411.114 61.444 412.59 59.212 415.542 59.212C417.162 59.212 418.818 59.968 419.898 61.012L422.526 56.836C420.69 54.856 417.738 54.028 415.146 54.028C408.486 54.028 404.814 58.744 404.814 63.712ZM424.29 63.712C424.29 68.824 427.998 73.432 434.622 73.432C437.718 73.432 440.742 72.244 442.578 70.372L440.31 66.016C438.978 67.168 437.034 68.248 435.234 68.248C432.102 68.248 430.59 65.836 430.59 63.64C430.59 61.444 432.066 59.212 435.018 59.212C436.638 59.212 438.294 59.968 439.374 61.012L442.002 56.836C440.166 54.856 437.214 54.028 434.622 54.028C427.962 54.028 424.29 58.744 424.29 63.712ZM443.865 67.78C443.865 70.984 446.349 73.432 449.913 73.432C452.037 73.432 454.197 72.46 455.421 70.732H455.493C455.493 70.732 455.421 71.272 455.421 71.884V73H461.109V61.588C461.109 56.872 457.941 54.028 452.829 54.028C449.805 54.028 446.565 55.216 444.981 56.44L447.141 60.832C448.617 59.86 450.453 59.068 452.253 59.068C453.621 59.068 454.881 59.572 454.881 61.12V61.444H454.341C449.769 61.444 443.865 62.812 443.865 67.78ZM450.021 67.204C450.021 65.512 452.469 65.008 454.377 65.008H454.953V65.512C454.953 67.024 453.585 68.788 451.785 68.788C450.633 68.788 450.021 68.068 450.021 67.204ZM2.088 115H8.136L13.284 106.864C13.572 106.36 13.968 105.784 14.292 105.028H14.364C14.292 105.748 14.292 106.468 14.292 106.9V115H20.16V96.46H14.112L8.964 104.632C8.64 105.172 8.28 105.712 7.956 106.468H7.884C7.92 106 7.956 105.28 7.956 104.632V96.46H2.088V115ZM33.3419 115H43.4579C47.1299 115 50.5139 113.56 50.5139 109.492C50.5139 107.872 49.7219 106.036 47.5979 105.388V105.352C49.0019 104.524 49.7579 102.868 49.7579 101.32C49.7579 98.116 47.1659 96.46 43.4579 96.46H33.3419V115ZM39.5699 103.768V100.312H41.8379C43.0619 100.312 43.5659 101.068 43.5659 101.932C43.5659 102.904 43.0619 103.768 41.9099 103.768H39.5699ZM39.5699 111.112V107.404H42.3419C43.6739 107.404 44.2859 108.268 44.2859 109.276C44.2859 110.212 43.6379 111.112 42.3059 111.112H39.5699ZM52.6885 105.712C52.6885 110.824 56.3965 115.432 63.0205 115.432C66.1165 115.432 69.1405 114.244 70.9765 112.372L68.7085 108.016C67.3765 109.168 65.4325 110.248 63.6325 110.248C60.5005 110.248 58.9885 107.836 58.9885 105.64C58.9885 103.444 60.4645 101.212 63.4165 101.212C65.0365 101.212 66.6925 101.968 67.7725 103.012L70.4005 98.836C68.5645 96.856 65.6125 96.028 63.0205 96.028C56.3605 96.028 52.6885 100.744 52.6885 105.712ZM72.1651 105.712C72.1651 110.644 75.7291 115.432 82.3531 115.432C85.1971 115.432 88.2571 114.46 90.2731 112.732L87.9691 108.376C86.4571 109.384 84.6931 110.248 82.8571 110.248C80.8771 110.248 79.0051 109.204 78.5371 106.936H90.2371C90.3091 106.288 90.3811 105.64 90.3811 104.992C90.3811 99.844 87.2851 96.028 81.8131 96.028C75.8371 96.028 72.1651 100.276 72.1651 105.712ZM78.6811 103.372C79.0051 101.896 79.8691 100.6 81.6691 100.6C83.2531 100.6 84.2251 101.86 84.2251 103.372H78.6811ZM93.6349 115H99.8629V101.68H106.703V96.46H93.6349V115ZM114.643 110.068C115.939 107.584 116.299 104.884 116.299 102.076V101.392H119.503V110.068H114.643ZM106.219 110.068V119.32H111.979V115H122.851V119.32H128.395V110.068H125.731V96.46H110.431V100.924C110.431 104.668 109.747 107.98 108.523 110.068H106.219ZM129.92 109.78C129.92 112.984 132.404 115.432 135.968 115.432C138.092 115.432 140.252 114.46 141.476 112.732H141.548C141.548 112.732 141.476 113.272 141.476 113.884V115H147.164V103.588C147.164 98.872 143.996 96.028 138.884 96.028C135.86 96.028 132.62 97.216 131.036 98.44L133.196 102.832C134.672 101.86 136.508 101.068 138.308 101.068C139.676 101.068 140.936 101.572 140.936 103.12V103.444H140.396C135.824 103.444 129.92 104.812 129.92 109.78ZM136.076 109.204C136.076 107.512 138.524 107.008 140.432 107.008H141.008V107.512C141.008 109.024 139.64 110.788 137.84 110.788C136.688 110.788 136.076 110.068 136.076 109.204ZM160.115 115H166.343V108.232H172.067V115H178.295V96.46H172.067V103.012H166.343V96.46H160.115V115ZM181.143 109.78C181.143 112.984 183.627 115.432 187.191 115.432C189.315 115.432 191.475 114.46 192.699 112.732H192.771C192.771 112.732 192.699 113.272 192.699 113.884V115H198.387V103.588C198.387 98.872 195.219 96.028 190.107 96.028C187.083 96.028 183.843 97.216 182.259 98.44L184.419 102.832C185.895 101.86 187.731 101.068 189.531 101.068C190.899 101.068 192.159 101.572 192.159 103.12V103.444H191.619C187.047 103.444 181.143 104.812 181.143 109.78ZM187.299 109.204C187.299 107.512 189.747 107.008 191.655 107.008H192.231V107.512C192.231 109.024 190.863 110.788 189.063 110.788C187.911 110.788 187.299 110.068 187.299 109.204ZM200.646 115H207.486L209.682 110.824C209.862 110.5 210.114 109.888 210.114 109.888H210.186C210.186 109.888 210.438 110.5 210.618 110.824L212.85 115H219.69L213.858 105.82L219.798 96.46H212.778L210.762 100.6C210.546 101.068 210.186 101.824 210.186 101.824H210.114C210.114 101.824 209.79 101.068 209.538 100.6L207.522 96.46H200.502L206.478 105.82L200.646 115ZM220.419 105.784C220.419 111.58 225.099 115.432 230.931 115.432C236.763 115.432 241.443 111.58 241.443 105.784C241.443 99.952 236.763 96.028 230.895 96.028C225.099 96.028 220.419 99.952 220.419 105.784ZM226.719 105.784C226.719 102.976 228.663 101.212 230.931 101.212C233.199 101.212 235.143 102.976 235.143 105.784C235.143 108.556 233.199 110.248 230.931 110.248C228.663 110.248 226.719 108.556 226.719 105.784ZM251.049 110.068C252.345 107.584 252.705 104.884 252.705 102.076V101.392H255.909V110.068H251.049ZM242.625 110.068V119.32H248.385V115H259.257V119.32H264.801V110.068H262.137V96.46H246.837V100.924C246.837 104.668 246.153 107.98 244.929 110.068H242.625ZM267.658 115H273.706L278.854 106.864C279.142 106.36 279.538 105.784 279.862 105.028H279.934C279.862 105.748 279.862 106.468 279.862 106.9V115H285.73V96.46H279.682L274.534 104.632C274.21 105.172 273.85 105.712 273.526 106.468H273.454C273.49 106 273.526 105.28 273.526 104.632V96.46H267.658V115ZM289.12 115H295.06L295.492 106.468C295.564 105.028 295.456 103.3 295.456 103.3H295.528C295.528 103.3 296.212 104.848 296.608 106.036L299.056 112.516H304.096L306.544 106.036C307.012 104.884 307.552 103.3 307.552 103.3H307.624C307.624 103.3 307.552 105.028 307.588 106.468L308.02 115H313.996L312.232 96.46H305.068L302.332 104.596C302.008 105.532 301.576 106.756 301.576 106.756H301.54C301.54 106.756 301.144 105.532 300.82 104.596L298.084 96.46H290.884L289.12 115ZM316.325 105.712C316.325 110.824 320.033 115.432 326.657 115.432C329.753 115.432 332.777 114.244 334.613 112.372L332.345 108.016C331.013 109.168 329.069 110.248 327.269 110.248C324.137 110.248 322.625 107.836 322.625 105.64C322.625 103.444 324.101 101.212 327.053 101.212C328.673 101.212 330.329 101.968 331.409 103.012L334.037 98.836C332.201 96.856 329.249 96.028 326.657 96.028C319.997 96.028 316.325 100.744 316.325 105.712ZM335.293 115H341.881L345.445 109.348H346.741V115H352.969V96.46H343.249C339.145 96.46 336.553 98.836 336.553 102.724C336.553 105.1 337.885 107.224 339.901 108.232V108.268C339.901 108.268 339.541 108.628 339.037 109.384L335.293 115ZM345.265 105.208C343.789 105.208 342.745 104.452 342.745 102.688C342.745 100.96 343.789 100.312 345.229 100.312H346.741V105.208H345.265ZM366.131 122.2H372.359V115.252C372.359 114.316 372.287 113.668 372.287 113.668H372.359C373.691 114.82 375.347 115.432 377.075 115.432C382.007 115.432 385.715 111.616 385.715 105.748C385.715 99.988 382.403 96.028 377.363 96.028C375.131 96.028 373.007 96.892 371.747 98.584H371.675C371.675 98.584 371.747 98.008 371.747 97.396V96.46H366.131V122.2ZM372.179 105.856C372.179 102.652 373.943 101.284 375.815 101.284C377.975 101.284 379.451 103.084 379.451 105.856C379.451 108.7 377.759 110.284 375.815 110.284C373.367 110.284 372.179 108.088 372.179 105.856ZM387.148 115H393.736L397.3 109.348H398.596V115H404.824V96.46H395.104C391 96.46 388.408 98.836 388.408 102.724C388.408 105.1 389.74 107.224 391.756 108.232V108.268C391.756 108.268 391.396 108.628 390.892 109.384L387.148 115ZM397.12 105.208C395.644 105.208 394.6 104.452 394.6 102.688C394.6 100.96 395.644 100.312 397.084 100.312H398.596V105.208H397.12ZM415.826 110.068C417.122 107.584 417.482 104.884 417.482 102.076V101.392H420.686V110.068H415.826ZM407.402 110.068V119.32H413.162V115H424.034V119.32H429.578V110.068H426.914V96.46H411.614V100.924C411.614 104.668 410.93 107.98 409.706 110.068H407.402ZM431.181 105.784C431.181 111.58 435.861 115.432 441.693 115.432C447.525 115.432 452.205 111.58 452.205 105.784C452.205 99.952 447.525 96.028 441.657 96.028C435.861 96.028 431.181 99.952 431.181 105.784ZM437.481 105.784C437.481 102.976 439.425 101.212 441.693 101.212C443.961 101.212 445.905 102.976 445.905 105.784C445.905 108.556 443.961 110.248 441.693 110.248C439.425 110.248 437.481 108.556 437.481 105.784ZM454.53 115H460.47L460.902 106.468C460.974 105.028 460.866 103.3 460.866 103.3H460.938C460.938 103.3 461.622 104.848 462.018 106.036L464.466 112.516H469.506L471.954 106.036C472.422 104.884 472.962 103.3 472.962 103.3H473.034C473.034 103.3 472.962 105.028 472.998 106.468L473.43 115H479.406L477.642 96.46H470.478L467.742 104.596C467.418 105.532 466.986 106.756 466.986 106.756H466.95C466.95 106.756 466.554 105.532 466.23 104.596L463.494 96.46H456.294L454.53 115Z" fill="#222224"/>
<path d="M0.486 188.488C1.476 189.586 3.078 190.216 4.608 190.216C7.002 190.216 8.928 188.758 8.928 186.4C8.928 184.834 8.028 183.736 6.696 183.358V183.322C7.596 182.872 8.532 182.008 8.532 180.46C8.532 178.336 6.894 177.076 4.716 177.076C3.636 177.076 2.214 177.274 0.864 178.39L1.62 179.722C2.556 178.93 3.564 178.642 4.464 178.642C6.03 178.642 6.714 179.578 6.714 180.676C6.714 181.882 5.706 182.728 4.428 182.728H3.168V184.204H4.734C6.12 184.204 7.11 184.978 7.11 186.31C7.11 187.75 6.012 188.614 4.464 188.614C3.276 188.614 2.142 188.002 1.476 187.282L0.486 188.488ZM10.4202 187.516C10.4202 189.226 11.8782 190.216 13.4622 190.216C14.8122 190.216 15.9282 189.406 16.4502 188.362H16.4862C16.4862 188.362 16.4322 188.668 16.4322 189.082V190H18.0702V184.24C18.0702 181.936 16.7562 180.676 14.4702 180.676C13.1922 180.676 11.8062 181.144 11.0682 181.756L11.7702 183.034C12.5082 182.512 13.4262 182.152 14.3262 182.152C15.4602 182.152 16.3242 182.656 16.3242 184.15V184.33H15.8562C13.9662 184.33 10.4202 184.654 10.4202 187.516ZM12.1662 187.372C12.1662 185.698 14.5782 185.59 15.8742 185.59H16.3242V185.932C16.3242 187.282 15.4062 188.83 13.8762 188.83C12.7422 188.83 12.1662 188.092 12.1662 187.372ZM22.4328 188.56C23.5848 186.76 23.7288 184.168 23.7288 182.8V182.314H26.4648V188.56H22.4328ZM19.5168 188.56V192.16H21.1548V190H27.9048V192.16H29.5068V188.56H28.2108V180.892H22.0548V182.566C22.0548 183.97 21.9108 186.814 20.6328 188.56H19.5168ZM30.5823 187.516C30.5823 189.226 32.0403 190.216 33.6243 190.216C34.9743 190.216 36.0903 189.406 36.6123 188.362H36.6483C36.6483 188.362 36.5943 188.668 36.5943 189.082V190H38.2323V184.24C38.2323 181.936 36.9183 180.676 34.6323 180.676C33.3543 180.676 31.9683 181.144 31.2303 181.756L31.9323 183.034C32.6703 182.512 33.5883 182.152 34.4883 182.152C35.6223 182.152 36.4863 182.656 36.4863 184.15V184.33H36.0183C34.1283 184.33 30.5823 184.654 30.5823 187.516ZM32.3283 187.372C32.3283 185.698 34.7403 185.59 36.0363 185.59H36.4863V185.932C36.4863 187.282 35.5683 188.83 34.0383 188.83C32.9043 188.83 32.3283 188.092 32.3283 187.372ZM40.8129 190H44.7009C46.6809 190 48.0489 189.1 48.0489 187.408C48.0489 186.4 47.4549 185.518 46.3209 185.248V185.23C47.1489 184.87 47.6169 184.114 47.6169 183.232C47.6169 181.702 46.4109 180.892 44.5749 180.892H40.8129V190ZM42.5589 184.744V182.098H44.2149C45.3129 182.098 45.8349 182.53 45.8349 183.358C45.8349 184.204 45.3129 184.744 44.2689 184.744H42.5589ZM42.5589 188.776V185.914H44.4129C45.6189 185.914 46.2849 186.454 46.2849 187.354C46.2849 188.2 45.6909 188.776 44.4309 188.776H42.5589ZM49.4085 187.516C49.4085 189.226 50.8665 190.216 52.4505 190.216C53.8005 190.216 54.9165 189.406 55.4385 188.362H55.4745C55.4745 188.362 55.4205 188.668 55.4205 189.082V190H57.0585V184.24C57.0585 181.936 55.7445 180.676 53.4585 180.676C52.1805 180.676 50.7945 181.144 50.0565 181.756L50.7585 183.034C51.4965 182.512 52.4145 182.152 53.3145 182.152C54.4485 182.152 55.3125 182.656 55.3125 184.15V184.33H54.8445C52.9545 184.33 49.4085 184.654 49.4085 187.516ZM51.1545 187.372C51.1545 185.698 53.5665 185.59 54.8625 185.59H55.3125V185.932C55.3125 187.282 54.3945 188.83 52.8645 188.83C51.7305 188.83 51.1545 188.092 51.1545 187.372ZM63.6531 179.848C65.0571 179.848 66.3171 179.02 66.3171 177.544V177.274H64.9311V177.508C64.9311 178.318 64.2831 178.714 63.6531 178.714C63.0231 178.714 62.3931 178.318 62.3931 177.526V177.274H60.9891V177.544C60.9891 179.02 62.2671 179.848 63.6531 179.848ZM59.6391 190H61.3131L65.2551 184.564C65.5431 184.132 65.9931 183.52 66.0471 183.358H66.0831C66.0831 183.502 66.0291 184.132 66.0291 184.564V190H67.7211V180.892H66.0291L62.1051 186.328C61.7991 186.76 61.3671 187.39 61.2951 187.552H61.2591C61.2771 187.462 61.3131 186.814 61.3131 186.328V180.892H59.6391V190ZM72.5929 190H74.3209V182.386H77.5069V180.892H69.4249V182.386H72.5929V190ZM78.3283 185.446C78.3283 188.146 80.3083 190.216 83.1703 190.216C84.4303 190.216 85.8163 189.73 86.6983 188.92L85.9603 187.642C85.2403 188.29 84.2503 188.704 83.2783 188.704C81.6403 188.704 80.2363 187.642 80.1463 185.68H86.7703C86.8063 185.428 86.8423 185.176 86.8423 184.942C86.8423 182.602 85.4743 180.676 82.9003 180.676C80.3083 180.676 78.3283 182.548 78.3283 185.446ZM80.2003 184.42C80.4523 182.908 81.5143 182.026 82.8643 182.026C84.0523 182.026 85.0243 182.854 85.0783 184.42H80.2003ZM92.4518 190.09C95.1338 189.946 96.1778 187.822 96.1778 183.7V182.332H98.8598V190H100.606V180.892H94.5038V183.7C94.5038 186.994 93.7838 188.326 92.4518 188.524V190.09ZM103.303 190H105.049V186.148H106.705C107.029 188.524 108.955 190.216 111.367 190.216C113.995 190.216 116.101 188.2 116.101 185.428C116.101 182.674 113.995 180.676 111.349 180.676C108.955 180.676 107.029 182.35 106.705 184.708H105.049V180.892H103.303V190ZM108.397 185.428C108.397 183.538 109.711 182.188 111.367 182.188C113.005 182.188 114.319 183.538 114.319 185.428C114.319 187.336 113.005 188.704 111.367 188.704C109.711 188.704 108.397 187.336 108.397 185.428ZM117.813 184.762C117.813 187.912 119.199 190.216 122.277 190.216C124.851 190.216 126.579 188.416 126.579 185.896C126.579 183.322 124.995 181.702 122.709 181.702C121.503 181.702 120.297 182.098 119.487 183.322H119.451C119.577 181.576 120.441 180.514 122.259 179.686L125.751 178.228L125.175 176.788L121.917 178.192C118.749 179.524 117.813 181.504 117.813 184.762ZM119.631 185.896C119.631 184.294 120.729 183.088 122.277 183.088C123.645 183.088 124.815 184.15 124.815 185.932C124.815 187.696 123.645 188.74 122.205 188.74C120.801 188.74 119.631 187.696 119.631 185.896ZM137 190H138.746V180.892H137V190ZM128.756 190H132.266C134.552 190 135.596 188.83 135.596 187.12C135.596 185.05 134.174 184.186 132.284 184.186H130.502V180.892H128.756V190ZM130.502 188.74V185.446H132.014C133.274 185.446 133.832 186.13 133.832 187.102C133.832 188.056 133.292 188.74 132.032 188.74H130.502ZM140.854 185.446C140.854 188.146 142.834 190.216 145.696 190.216C146.956 190.216 148.342 189.73 149.224 188.92L148.486 187.642C147.766 188.29 146.776 188.704 145.804 188.704C144.166 188.704 142.762 187.642 142.672 185.68H149.296C149.332 185.428 149.368 185.176 149.368 184.942C149.368 182.602 148 180.676 145.426 180.676C142.834 180.676 140.854 182.548 140.854 185.446ZM142.726 184.42C142.978 182.908 144.04 182.026 145.39 182.026C146.578 182.026 147.55 182.854 147.604 184.42H142.726ZM155.967 190H159.855C161.835 190 163.203 189.1 163.203 187.408C163.203 186.4 162.609 185.518 161.475 185.248V185.23C162.303 184.87 162.771 184.114 162.771 183.232C162.771 181.702 161.565 180.892 159.729 180.892H155.967V190ZM157.713 184.744V182.098H159.369C160.467 182.098 160.989 182.53 160.989 183.358C160.989 184.204 160.467 184.744 159.423 184.744H157.713ZM157.713 188.776V185.914H159.567C160.773 185.914 161.439 186.454 161.439 187.354C161.439 188.2 160.845 188.776 159.585 188.776H157.713ZM164.725 185.428C164.725 188.2 166.921 190.216 169.639 190.216C172.339 190.216 174.535 188.2 174.535 185.428C174.535 182.674 172.339 180.676 169.621 180.676C166.921 180.676 164.725 182.674 164.725 185.428ZM166.507 185.428C166.507 183.538 167.911 182.188 169.639 182.188C171.349 182.188 172.771 183.538 172.771 185.428C172.771 187.336 171.349 188.704 169.639 188.704C167.911 188.704 166.507 187.336 166.507 185.428ZM176.639 190H178.385V182.386H182.849V190H184.595V180.892H176.639V190ZM187.291 193.6H189.037V189.46C189.037 188.992 188.965 188.668 188.965 188.668H189.001C189.631 189.64 190.675 190.216 191.827 190.216C194.221 190.216 195.949 188.344 195.949 185.446C195.949 182.62 194.419 180.676 191.953 180.676C190.621 180.676 189.469 181.288 188.893 182.386H188.857C188.857 182.386 188.911 182.08 188.911 181.702V180.892H187.291V193.6ZM188.983 185.482C188.983 183.178 190.243 182.206 191.611 182.206C193.123 182.206 194.185 183.484 194.185 185.464C194.185 187.534 192.997 188.704 191.557 188.704C189.883 188.704 188.983 187.102 188.983 185.482ZM197.508 185.428C197.508 188.2 199.704 190.216 202.422 190.216C205.122 190.216 207.318 188.2 207.318 185.428C207.318 182.674 205.122 180.676 202.404 180.676C199.704 180.676 197.508 182.674 197.508 185.428ZM199.29 185.428C199.29 183.538 200.694 182.188 202.422 182.188C204.132 182.188 205.554 183.538 205.554 185.428C205.554 187.336 204.132 188.704 202.422 188.704C200.694 188.704 199.29 187.336 199.29 185.428ZM208.828 185.446C208.828 188.182 210.826 190.216 213.706 190.216C215.128 190.216 216.514 189.64 217.342 188.758L216.64 187.48C215.938 188.218 214.84 188.704 213.832 188.704C211.942 188.704 210.61 187.282 210.61 185.428C210.61 183.574 211.942 182.188 213.778 182.188C214.732 182.188 215.686 182.62 216.298 183.232L217.126 182.008C216.262 181.09 214.912 180.676 213.706 180.676C210.844 180.676 208.828 182.746 208.828 185.446ZM227.475 190H229.221V180.892H227.475V190ZM219.231 190H222.741C225.027 190 226.071 188.83 226.071 187.12C226.071 185.05 224.649 184.186 222.759 184.186H220.977V180.892H219.231V190ZM220.977 188.74V185.446H222.489C223.749 185.446 224.307 186.13 224.307 187.102C224.307 188.056 223.767 188.74 222.507 188.74H220.977ZM231.202 191.818H232.588L234.154 188.11H232.318L231.202 191.818ZM0.594 215.516C0.594 217.226 2.052 218.216 3.636 218.216C4.986 218.216 6.102 217.406 6.624 216.362H6.66C6.66 216.362 6.606 216.668 6.606 217.082V218H8.244V212.24C8.244 209.936 6.93 208.676 4.644 208.676C3.366 208.676 1.98 209.144 1.242 209.756L1.944 211.034C2.682 210.512 3.6 210.152 4.5 210.152C5.634 210.152 6.498 210.656 6.498 212.15V212.33H6.03C4.14 212.33 0.594 212.654 0.594 215.516ZM2.34 215.372C2.34 213.698 4.752 213.59 6.048 213.59H6.498V213.932C6.498 215.282 5.58 216.83 4.05 216.83C2.916 216.83 2.34 216.092 2.34 215.372ZM14.9466 218H16.6386L17.0346 212.582C17.0706 212.042 17.0166 211.016 17.0166 211.016H17.0526C17.0526 211.016 17.3406 211.7 17.6286 212.366L19.7886 216.902H21.2826L23.4426 212.348C23.7846 211.646 24.0186 211.016 24.0186 211.016H24.0546C24.0546 211.016 24.0186 212.042 24.0366 212.582L24.4326 218H26.1246L25.3326 208.892H23.4246L21.0486 214.04C20.8146 214.598 20.5446 215.264 20.5446 215.264H20.5086C20.5086 215.264 20.2566 214.58 20.0046 214.04L17.6826 208.892H15.7386L14.9466 218ZM36.717 218H38.463V208.892H36.717V218ZM28.473 218H31.983C34.269 218 35.313 216.83 35.313 215.12C35.313 213.05 33.891 212.186 32.001 212.186H30.219V208.892H28.473V218ZM30.219 216.74V213.446H31.731C32.991 213.446 33.549 214.13 33.549 215.102C33.549 216.056 33.009 216.74 31.749 216.74H30.219ZM45.0705 213.446C45.0705 216.182 47.0685 218.216 49.9485 218.216C51.3705 218.216 52.7565 217.64 53.5845 216.758L52.8825 215.48C52.1805 216.218 51.0825 216.704 50.0745 216.704C48.1845 216.704 46.8525 215.282 46.8525 213.428C46.8525 211.574 48.1845 210.188 50.0205 210.188C50.9745 210.188 51.9285 210.62 52.5405 211.232L53.3685 210.008C52.5045 209.09 51.1545 208.676 49.9485 208.676C47.0865 208.676 45.0705 210.746 45.0705 213.446ZM59.523 219.89L58.911 221.222C58.911 221.222 59.649 221.78 60.657 221.78C61.935 221.78 63.069 221.06 63.609 219.638L67.893 208.892H66.003L63.789 214.868C63.627 215.336 63.483 215.948 63.483 215.948H63.447C63.447 215.948 63.285 215.3 63.105 214.85L60.819 208.892H58.857L62.673 217.892L62.223 218.936C61.881 219.764 61.287 220.286 60.567 220.286C60.027 220.286 59.523 219.89 59.523 219.89ZM70.7375 216.56C71.8895 214.76 72.0335 212.168 72.0335 210.8V210.314H74.7695V216.56H70.7375ZM67.8215 216.56V220.16H69.4595V218H76.2095V220.16H77.8115V216.56H76.5155V208.892H70.3595V210.566C70.3595 211.97 70.2155 214.814 68.9375 216.56H67.8215ZM78.9435 213.428C78.9435 216.2 81.1395 218.216 83.8575 218.216C86.5575 218.216 88.7535 216.2 88.7535 213.428C88.7535 210.674 86.5575 208.676 83.8395 208.676C81.1395 208.676 78.9435 210.674 78.9435 213.428ZM80.7255 213.428C80.7255 211.538 82.1295 210.188 83.8575 210.188C85.5675 210.188 86.9895 211.538 86.9895 213.428C86.9895 215.336 85.5675 216.704 83.8575 216.704C82.1295 216.704 80.7255 215.336 80.7255 213.428ZM90.8578 218H94.7458C96.7258 218 98.0938 217.1 98.0938 215.408C98.0938 214.4 97.4998 213.518 96.3658 213.248V213.23C97.1938 212.87 97.6618 212.114 97.6618 211.232C97.6618 209.702 96.4558 208.892 94.6198 208.892H90.8578V218ZM92.6038 212.744V210.098H94.2598C95.3578 210.098 95.8798 210.53 95.8798 211.358C95.8798 212.204 95.3578 212.744 94.3138 212.744H92.6038ZM92.6038 216.776V213.914H94.4578C95.6638 213.914 96.3298 214.454 96.3298 215.354C96.3298 216.2 95.7358 216.776 94.4758 216.776H92.6038ZM99.6154 213.428C99.6154 216.2 101.811 218.216 104.529 218.216C107.229 218.216 109.425 216.2 109.425 213.428C109.425 210.674 107.229 208.676 104.511 208.676C101.811 208.676 99.6154 210.674 99.6154 213.428ZM101.397 213.428C101.397 211.538 102.801 210.188 104.529 210.188C106.239 210.188 107.661 211.538 107.661 213.428C107.661 215.336 106.239 216.704 104.529 216.704C102.801 216.704 101.397 215.336 101.397 213.428ZM110.294 218.09C112.976 217.946 114.02 215.822 114.02 211.7V210.332H116.702V218H118.448V208.892H112.346V211.7C112.346 214.994 111.626 216.326 110.294 216.524V218.09ZM121.145 218H124.691C126.995 218 128.039 216.83 128.039 215.12C128.039 213.05 126.617 212.186 124.727 212.186H122.891V208.892H121.145V218ZM122.891 216.74V213.446H124.457C125.717 213.446 126.257 214.13 126.257 215.102C126.257 216.056 125.717 216.74 124.457 216.74H122.891ZM129.322 213.446C129.322 216.182 131.32 218.216 134.2 218.216C135.622 218.216 137.008 217.64 137.836 216.758L137.134 215.48C136.432 216.218 135.334 216.704 134.326 216.704C132.436 216.704 131.104 215.282 131.104 213.428C131.104 211.574 132.436 210.188 134.272 210.188C135.226 210.188 136.18 210.62 136.792 211.232L137.62 210.008C136.756 209.09 135.406 208.676 134.2 208.676C131.338 208.676 129.322 210.746 129.322 213.446ZM141.921 218H143.649V210.386H146.835V208.892H138.753V210.386H141.921V218ZM148.549 218H152.437C154.417 218 155.785 217.1 155.785 215.408C155.785 214.4 155.191 213.518 154.057 213.248V213.23C154.885 212.87 155.353 212.114 155.353 211.232C155.353 209.702 154.147 208.892 152.311 208.892H148.549V218ZM150.295 212.744V210.098H151.951C153.049 210.098 153.571 210.53 153.571 211.358C153.571 212.204 153.049 212.744 152.005 212.744H150.295ZM150.295 216.776V213.914H152.149C153.355 213.914 154.021 214.454 154.021 215.354C154.021 216.2 153.427 216.776 152.167 216.776H150.295ZM157.901 218H159.575L163.517 212.564C163.805 212.132 164.255 211.52 164.309 211.358H164.345C164.345 211.502 164.291 212.132 164.291 212.564V218H165.983V208.892H164.291L160.367 214.328C160.061 214.76 159.629 215.39 159.557 215.552H159.521C159.539 215.462 159.575 214.814 159.575 214.328V208.892H157.901V218ZM168.065 213.446C168.065 216.146 170.045 218.216 172.907 218.216C174.167 218.216 175.553 217.73 176.435 216.92L175.697 215.642C174.977 216.29 173.987 216.704 173.015 216.704C171.377 216.704 169.973 215.642 169.883 213.68H176.507C176.543 213.428 176.579 213.176 176.579 212.942C176.579 210.602 175.211 208.676 172.637 208.676C170.045 208.676 168.065 210.548 168.065 213.446ZM169.937 212.42C170.189 210.908 171.251 210.026 172.601 210.026C173.789 210.026 174.761 210.854 174.815 212.42H169.937ZM178.3 218H179.992L180.388 212.582C180.424 212.042 180.37 211.016 180.37 211.016H180.406C180.406 211.016 180.694 211.7 180.982 212.366L183.142 216.902H184.636L186.796 212.348C187.138 211.646 187.372 211.016 187.372 211.016H187.408C187.408 211.016 187.372 212.042 187.39 212.582L187.786 218H189.478L188.686 208.892H186.778L184.402 214.04C184.168 214.598 183.898 215.264 183.898 215.264H183.862C183.862 215.264 183.61 214.58 183.358 214.04L181.036 208.892H179.092L178.3 218ZM196.327 218H198.073V214.094H202.681V218H204.427V208.892H202.681V212.6H198.073V208.892H196.327V218ZM206.364 215.516C206.364 217.226 207.822 218.216 209.406 218.216C210.756 218.216 211.872 217.406 212.394 216.362H212.43C212.43 216.362 212.376 216.668 212.376 217.082V218H214.014V212.24C214.014 209.936 212.7 208.676 210.414 208.676C209.136 208.676 207.75 209.144 207.012 209.756L207.714 211.034C208.452 210.512 209.37 210.152 210.27 210.152C211.404 210.152 212.268 210.656 212.268 212.15V212.33H211.8C209.91 212.33 206.364 212.654 206.364 215.516ZM208.11 215.372C208.11 213.698 210.522 213.59 211.818 213.59H212.268V213.932C212.268 215.282 211.35 216.83 209.82 216.83C208.686 216.83 208.11 216.092 208.11 215.372ZM221.094 218H222.84V214.094H227.448V218H229.194V208.892H227.448V212.6H222.84V208.892H221.094V218ZM231.887 218H233.561L237.503 212.564C237.791 212.132 238.241 211.52 238.295 211.358H238.331C238.331 211.502 238.277 212.132 238.277 212.564V218H239.969V208.892H238.277L234.353 214.328C234.047 214.76 233.615 215.39 233.543 215.552H233.507C233.525 215.462 233.561 214.814 233.561 214.328V208.892H231.887V218ZM241.601 218H243.581L245.489 214.958C245.633 214.742 245.759 214.472 245.759 214.472H245.795C245.795 214.472 245.939 214.742 246.083 214.958L247.991 218H249.971L246.857 213.32L249.791 208.892H247.793L246.101 211.664C245.975 211.898 245.795 212.204 245.795 212.204H245.759C245.759 212.204 245.597 211.898 245.471 211.664L243.779 208.892H241.781L244.715 213.32L241.601 218ZM255.533 213.428C255.533 216.2 257.729 218.216 260.447 218.216C263.147 218.216 265.343 216.2 265.343 213.428C265.343 210.674 263.147 208.676 260.429 208.676C257.729 208.676 255.533 210.674 255.533 213.428ZM257.315 213.428C257.315 211.538 258.719 210.188 260.447 210.188C262.157 210.188 263.579 211.538 263.579 213.428C263.579 215.336 262.157 216.704 260.447 216.704C258.719 216.704 257.315 215.336 257.315 213.428ZM269.345 218H271.073V210.386H274.259V208.892H266.177V210.386H269.345V218ZM275.973 218H279.861C281.841 218 283.209 217.1 283.209 215.408C283.209 214.4 282.615 213.518 281.481 213.248V213.23C282.309 212.87 282.777 212.114 282.777 211.232C282.777 209.702 281.571 208.892 279.735 208.892H275.973V218ZM277.719 212.744V210.098H279.375C280.473 210.098 280.995 210.53 280.995 211.358C280.995 212.204 280.473 212.744 279.429 212.744H277.719ZM277.719 216.776V213.914H279.573C280.779 213.914 281.445 214.454 281.445 215.354C281.445 216.2 280.851 216.776 279.591 216.776H277.719ZM284.731 213.446C284.731 216.146 286.711 218.216 289.573 218.216C290.833 218.216 292.219 217.73 293.101 216.92L292.363 215.642C291.643 216.29 290.653 216.704 289.681 216.704C288.043 216.704 286.639 215.642 286.549 213.68H293.173C293.209 213.428 293.245 213.176 293.245 212.942C293.245 210.602 291.877 208.676 289.303 208.676C286.711 208.676 284.731 210.548 284.731 213.446ZM286.603 212.42C286.855 210.908 287.917 210.026 289.267 210.026C290.455 210.026 291.427 210.854 291.481 212.42H286.603ZM297.435 218H299.163V210.386H302.349V208.892H294.267V210.386H297.435V218ZM304.063 218H305.737L309.679 212.564C309.967 212.132 310.417 211.52 310.471 211.358H310.507C310.507 211.502 310.453 212.132 310.453 212.564V218H312.145V208.892H310.453L306.529 214.328C306.223 214.76 305.791 215.39 305.719 215.552H305.683C305.701 215.462 305.737 214.814 305.737 214.328V208.892H304.063V218ZM314.443 218H316.135L316.531 212.582C316.567 212.042 316.513 211.016 316.513 211.016H316.549C316.549 211.016 316.837 211.7 317.125 212.366L319.285 216.902H320.779L322.939 212.348C323.281 211.646 323.515 211.016 323.515 211.016H323.551C323.551 211.016 323.515 212.042 323.533 212.582L323.929 218H325.621L324.829 208.892H322.921L320.545 214.04C320.311 214.598 320.041 215.264 320.041 215.264H320.005C320.005 215.264 319.753 214.58 319.501 214.04L317.179 208.892H315.235L314.443 218Z" fill="#424754"/>
<path d="M713 53.2049C713 52.0831 713 51.5222 713.189 51.0937C713.355 50.7168 713.62 50.4104 713.947 50.2183C714.317 50 714.803 50 715.774 50H1031.23C1032.2 50 1032.68 50 1033.05 50.2183C1033.38 50.4104 1033.64 50.7168 1033.81 51.0937C1034 51.5222 1034 52.0831 1034 53.2049V263.795C1034 264.917 1034 265.478 1033.81 265.906C1033.64 266.283 1033.38 266.59 1033.05 266.782C1032.68 267 1032.2 267 1031.23 267H715.774C714.803 267 714.317 267 713.947 266.782C713.62 266.59 713.355 266.283 713.189 265.906C713 265.478 713 264.917 713 263.795V53.2049Z" fill="#F3F3F3"/>
<path d="M726 211.321C726 211.208 726 211.152 726.023 211.109C726.042 211.072 726.074 211.041 726.113 211.022C726.157 211 726.215 211 726.331 211H750.669C750.785 211 750.843 211 750.887 211.022C750.926 211.041 750.958 211.072 750.977 211.109C751 211.152 751 211.208 751 211.321V224.679C751 224.792 751 224.848 750.977 224.891C750.958 224.928 750.926 224.959 750.887 224.978C750.843 225 750.785 225 750.669 225H726.331C726.215 225 726.157 225 726.113 224.978C726.074 224.959 726.042 224.928 726.023 224.891C726 224.848 726 224.792 726 224.679V211.321Z" fill="white"/>
<path d="M756 197.642C756 197.417 756 197.305 756.023 197.219C756.042 197.143 756.074 197.082 756.113 197.044C756.157 197 756.215 197 756.331 197H780.669C780.785 197 780.843 197 780.887 197.044C780.926 197.082 780.958 197.143 780.977 197.219C781 197.305 781 197.417 781 197.642V224.358C781 224.583 781 224.695 780.977 224.781C780.958 224.857 780.926 224.918 780.887 224.956C780.843 225 780.785 225 780.669 225H756.331C756.215 225 756.157 225 756.113 224.956C756.074 224.918 756.042 224.857 756.023 224.781C756 224.695 756 224.583 756 224.358V197.642Z" fill="white"/>
<path d="M816 170.283C816 169.834 816 169.609 816.023 169.438C816.042 169.287 816.074 169.164 816.113 169.087C816.157 169 816.215 169 816.331 169H840.669C840.785 169 840.843 169 840.887 169.087C840.926 169.164 840.958 169.287 840.977 169.438C841 169.609 841 169.834 841 170.283V223.717C841 224.166 841 224.391 840.977 224.562C840.958 224.713 840.926 224.836 840.887 224.913C840.843 225 840.785 225 840.669 225H816.331C816.215 225 816.157 225 816.113 224.913C816.074 224.836 816.042 224.713 816.023 224.562C816 224.391 816 224.166 816 223.717V170.283Z" fill="white"/>
<path d="M786 183.962C786 183.625 786 183.457 786.023 183.328C786.042 183.215 786.074 183.123 786.113 183.066C786.157 183 786.215 183 786.331 183H810.669C810.785 183 810.843 183 810.887 183.066C810.926 183.123 810.958 183.215 810.977 183.328C811 183.457 811 183.625 811 183.962V224.038C811 224.375 811 224.543 810.977 224.672C810.958 224.785 810.926 224.877 810.887 224.934C810.843 225 810.785 225 810.669 225H786.331C786.215 225 786.157 225 786.113 224.934C786.074 224.877 786.042 224.785 786.023 224.672C786 224.543 786 224.375 786 224.038V183.962Z" fill="white"/>
<path d="M846 156.604C846 156.042 846 155.762 846.023 155.547C846.042 155.359 846.074 155.205 846.113 155.109C846.157 155 846.215 155 846.331 155H870.669C870.785 155 870.843 155 870.887 155.109C870.926 155.205 870.958 155.359 870.977 155.547C871 155.762 871 156.042 871 156.604V223.396C871 223.958 871 224.238 870.977 224.453C870.958 224.641 870.926 224.795 870.887 224.891C870.843 225 870.785 225 870.669 225H846.331C846.215 225 846.157 225 846.113 224.891C846.074 224.795 846.042 224.641 846.023 224.453C846 224.238 846 223.958 846 223.396V156.604Z" fill="white"/>
<path d="M876 142.925C876 142.251 876 141.914 876.023 141.657C876.042 141.43 876.074 141.246 876.113 141.131C876.157 141 876.215 141 876.331 141H900.669C900.785 141 900.843 141 900.887 141.131C900.926 141.246 900.958 141.43 900.977 141.657C901 141.914 901 142.251 901 142.925V223.075C901 223.749 901 224.086 900.977 224.343C900.958 224.57 900.926 224.754 900.887 224.869C900.843 225 900.785 225 900.669 225H876.331C876.215 225 876.157 225 876.113 224.869C876.074 224.754 876.042 224.57 876.023 224.343C876 224.086 876 223.749 876 223.075V142.925Z" fill="white"/>
<path d="M906 129.245C906 128.459 906 128.066 906.023 127.766C906.042 127.502 906.074 127.287 906.113 127.153C906.157 127 906.215 127 906.331 127H930.669C930.785 127 930.843 127 930.887 127.153C930.926 127.287 930.958 127.502 930.977 127.766C931 128.066 931 128.459 931 129.245V222.755C931 223.541 931 223.934 930.977 224.234C930.958 224.498 930.926 224.713 930.887 224.847C930.843 225 930.785 225 930.669 225H906.331C906.215 225 906.157 225 906.113 224.847C906.074 224.713 906.042 224.498 906.023 224.234C906 223.934 906 223.541 906 222.755V129.245Z" fill="white"/>
<path d="M936 115.566C936 114.668 936 114.219 936.023 113.876C936.042 113.574 936.074 113.329 936.113 113.175C936.157 113 936.215 113 936.331 113H960.669C960.785 113 960.843 113 960.887 113.175C960.926 113.329 960.958 113.574 960.977 113.876C961 114.219 961 114.668 961 115.566V222.434C961 223.332 961 223.781 960.977 224.124C960.958 224.426 960.926 224.671 960.887 224.825C960.843 225 960.785 225 960.669 225H936.331C936.215 225 936.157 225 936.113 224.825C936.074 224.671 936.042 224.426 936.023 224.124C936 223.781 936 223.332 936 222.434V115.566Z" fill="white"/>
<path d="M966 101.887C966 100.876 966 100.371 966.023 99.9852C966.042 99.6457 966.074 99.3696 966.113 99.1967C966.157 99 966.215 99 966.331 99H990.669C990.785 99 990.843 99 990.887 99.1967C990.926 99.3696 990.958 99.6457 990.977 99.9852C991 100.371 991 100.876 991 101.887V222.113C991 223.124 991 223.629 990.977 224.015C990.958 224.354 990.926 224.63 990.887 224.803C990.843 225 990.785 225 990.669 225H966.331C966.215 225 966.157 225 966.113 224.803C966.074 224.63 966.042 224.354 966.023 224.015C966 223.629 966 223.124 966 222.113V101.887Z" fill="white"/>
<path d="M996 88.2076C996 87.0849 996 86.5235 996.023 86.0946C996.042 85.7174 996.074 85.4107 996.113 85.2185C996.157 85 996.215 85 996.331 85H1020.67C1020.78 85 1020.84 85 1020.89 85.2185C1020.93 85.4107 1020.96 85.7174 1020.98 86.0946C1021 86.5235 1021 87.0849 1021 88.2076V221.792C1021 222.915 1021 223.477 1020.98 223.905C1020.96 224.283 1020.93 224.589 1020.89 224.781C1020.84 225 1020.78 225 1020.67 225H996.331C996.215 225 996.157 225 996.113 224.781C996.074 224.589 996.042 224.283 996.023 223.905C996 223.477 996 222.915 996 221.792V88.2076Z" fill="#F04B5D"/>
<path d="M1004 74.5L1006.67 77L1012 72" stroke="#222224" stroke-width="2"/>
<path d="M736 233.873C736 233.567 736 233.415 736.01 233.298C736.02 233.195 736.034 233.112 736.052 233.059C736.073 233 736.1 233 736.154 233H741.846C741.9 233 741.927 233 741.948 233.059C741.966 233.112 741.98 233.195 741.99 233.298C742 233.415 742 233.567 742 233.873V235.127C742 235.433 742 235.585 741.99 235.702C741.98 235.805 741.966 235.888 741.948 235.941C741.927 236 741.9 236 741.846 236H736.154C736.1 236 736.073 236 736.052 235.941C736.034 235.888 736.02 235.805 736.01 235.702C736 235.585 736 235.433 736 235.127V233.873Z" fill="#424754"/>
<path d="M766 233.873C766 233.567 766 233.415 766.01 233.298C766.02 233.195 766.034 233.112 766.052 233.059C766.073 233 766.1 233 766.154 233H771.846C771.9 233 771.927 233 771.948 233.059C771.966 233.112 771.98 233.195 771.99 233.298C772 233.415 772 233.567 772 233.873V235.127C772 235.433 772 235.585 771.99 235.702C771.98 235.805 771.966 235.888 771.948 235.941C771.927 236 771.9 236 771.846 236H766.154C766.1 236 766.073 236 766.052 235.941C766.034 235.888 766.02 235.805 766.01 235.702C766 235.585 766 235.433 766 235.127V233.873Z" fill="#424754"/>
<path d="M796 233.873C796 233.567 796 233.415 796.01 233.298C796.02 233.195 796.034 233.112 796.052 233.059C796.073 233 796.1 233 796.154 233H801.846C801.9 233 801.927 233 801.948 233.059C801.966 233.112 801.98 233.195 801.99 233.298C802 233.415 802 233.567 802 233.873V235.127C802 235.433 802 235.585 801.99 235.702C801.98 235.805 801.966 235.888 801.948 235.941C801.927 236 801.9 236 801.846 236H796.154C796.1 236 796.073 236 796.052 235.941C796.034 235.888 796.02 235.805 796.01 235.702C796 235.585 796 235.433 796 235.127V233.873Z" fill="#424754"/>
<path d="M826 233.873C826 233.567 826 233.415 826.01 233.298C826.02 233.195 826.034 233.112 826.052 233.059C826.073 233 826.1 233 826.154 233H831.846C831.9 233 831.927 233 831.948 233.059C831.966 233.112 831.98 233.195 831.99 233.298C832 233.415 832 233.567 832 233.873V235.127C832 235.433 832 235.585 831.99 235.702C831.98 235.805 831.966 235.888 831.948 235.941C831.927 236 831.9 236 831.846 236H826.154C826.1 236 826.073 236 826.052 235.941C826.034 235.888 826.02 235.805 826.01 235.702C826 235.585 826 235.433 826 235.127V233.873Z" fill="#424754"/>
<path d="M856 233.873C856 233.567 856 233.415 856.01 233.298C856.02 233.195 856.034 233.112 856.052 233.059C856.073 233 856.1 233 856.154 233H861.846C861.9 233 861.927 233 861.948 233.059C861.966 233.112 861.98 233.195 861.99 233.298C862 233.415 862 233.567 862 233.873V235.127C862 235.433 862 235.585 861.99 235.702C861.98 235.805 861.966 235.888 861.948 235.941C861.927 236 861.9 236 861.846 236H856.154C856.1 236 856.073 236 856.052 235.941C856.034 235.888 856.02 235.805 856.01 235.702C856 235.585 856 235.433 856 235.127V233.873Z" fill="#424754"/>
<path d="M886 233.873C886 233.567 886 233.415 886.01 233.298C886.02 233.195 886.034 233.112 886.052 233.059C886.073 233 886.1 233 886.154 233H891.846C891.9 233 891.927 233 891.948 233.059C891.966 233.112 891.98 233.195 891.99 233.298C892 233.415 892 233.567 892 233.873V235.127C892 235.433 892 235.585 891.99 235.702C891.98 235.805 891.966 235.888 891.948 235.941C891.927 236 891.9 236 891.846 236H886.154C886.1 236 886.073 236 886.052 235.941C886.034 235.888 886.02 235.805 886.01 235.702C886 235.585 886 235.433 886 235.127V233.873Z" fill="#424754"/>
<path d="M916 233.873C916 233.567 916 233.415 916.01 233.298C916.02 233.195 916.034 233.112 916.052 233.059C916.073 233 916.1 233 916.154 233H921.846C921.9 233 921.927 233 921.948 233.059C921.966 233.112 921.98 233.195 921.99 233.298C922 233.415 922 233.567 922 233.873V235.127C922 235.433 922 235.585 921.99 235.702C921.98 235.805 921.966 235.888 921.948 235.941C921.927 236 921.9 236 921.846 236H916.154C916.1 236 916.073 236 916.052 235.941C916.034 235.888 916.02 235.805 916.01 235.702C916 235.585 916 235.433 916 235.127V233.873Z" fill="#424754"/>
<path d="M946 233.873C946 233.567 946 233.415 946.01 233.298C946.02 233.195 946.034 233.112 946.052 233.059C946.073 233 946.1 233 946.154 233H951.846C951.9 233 951.927 233 951.948 233.059C951.966 233.112 951.98 233.195 951.99 233.298C952 233.415 952 233.567 952 233.873V235.127C952 235.433 952 235.585 951.99 235.702C951.98 235.805 951.966 235.888 951.948 235.941C951.927 236 951.9 236 951.846 236H946.154C946.1 236 946.073 236 946.052 235.941C946.034 235.888 946.02 235.805 946.01 235.702C946 235.585 946 235.433 946 235.127V233.873Z" fill="#424754"/>
<path d="M976 233.873C976 233.567 976 233.415 976.01 233.298C976.02 233.195 976.034 233.112 976.052 233.059C976.073 233 976.1 233 976.154 233H981.846C981.9 233 981.927 233 981.948 233.059C981.966 233.112 981.98 233.195 981.99 233.298C982 233.415 982 233.567 982 233.873V235.127C982 235.433 982 235.585 981.99 235.702C981.98 235.805 981.966 235.888 981.948 235.941C981.927 236 981.9 236 981.846 236H976.154C976.1 236 976.073 236 976.052 235.941C976.034 235.888 976.02 235.805 976.01 235.702C976 235.585 976 235.433 976 235.127V233.873Z" fill="#424754"/>
<path d="M1006 233.873C1006 233.567 1006 233.415 1006.01 233.298C1006.02 233.195 1006.03 233.112 1006.05 233.059C1006.07 233 1006.1 233 1006.15 233H1011.85C1011.9 233 1011.93 233 1011.95 233.059C1011.97 233.112 1011.98 233.195 1011.99 233.298C1012 233.415 1012 233.567 1012 233.873V235.127C1012 235.433 1012 235.585 1011.99 235.702C1011.98 235.805 1011.97 235.888 1011.95 235.941C1011.93 236 1011.9 236 1011.85 236H1006.15C1006.1 236 1006.07 236 1006.05 235.941C1006.03 235.888 1006.02 235.805 1006.01 235.702C1006 235.585 1006 235.433 1006 235.127V233.873Z" fill="#424754"/>
<path d="M726 251.455C726 250.945 726 250.691 726.043 250.496C726.081 250.325 726.142 250.186 726.216 250.099C726.301 250 726.412 250 726.634 250H825.366C825.588 250 825.699 250 825.784 250.099C825.858 250.186 825.919 250.325 825.957 250.496C826 250.691 826 250.945 826 251.455V253.545C826 254.055 826 254.309 825.957 254.504C825.919 254.675 825.858 254.814 825.784 254.901C825.699 255 825.588 255 825.366 255H726.634C726.412 255 726.301 255 726.216 254.901C726.142 254.814 726.081 254.675 726.043 254.504C726 254.309 726 254.055 726 253.545V251.455Z" fill="#97999D"/>
<path d="M1004 251.873C1004 251.567 1004 251.415 1004.01 251.298C1004.01 251.195 1004.02 251.112 1004.04 251.059C1004.05 251 1004.07 251 1004.11 251H1020.89C1020.93 251 1020.95 251 1020.96 251.059C1020.98 251.112 1020.99 251.195 1020.99 251.298C1021 251.415 1021 251.567 1021 251.873V253.127C1021 253.433 1021 253.585 1020.99 253.702C1020.99 253.805 1020.98 253.888 1020.96 253.941C1020.95 254 1020.93 254 1020.89 254H1004.11C1004.07 254 1004.05 254 1004.04 253.941C1004.02 253.888 1004.01 253.805 1004.01 253.702C1004 253.585 1004 253.433 1004 253.127V251.873Z" fill="#97999D"/>
<rect x="665" width="131.031" height="155" rx="2" fill="#424754"/>
<path d="M682.577 13.045C682.577 12.3941 682.577 12.0687 682.616 11.8201C682.65 11.6014 682.705 11.4236 682.773 11.3122C682.849 11.1855 682.949 11.1855 683.15 11.1855H704.376C704.576 11.1855 704.676 11.1855 704.753 11.3122C704.82 11.4236 704.875 11.6014 704.909 11.8201C704.948 12.0687 704.948 12.3941 704.948 13.045V15.7179C704.948 16.3687 704.948 16.6942 704.909 16.9428C704.875 17.1614 704.82 17.3392 704.753 17.4506C704.676 17.5773 704.576 17.5773 704.376 17.5773H683.15C682.949 17.5773 682.849 17.5773 682.773 17.4506C682.705 17.3392 682.65 17.1614 682.616 16.9428C682.577 16.6942 682.577 16.3687 682.577 15.7179V13.045Z" fill="white"/>
<g filter="url(#filter0_d)">
<path d="M698.118 65.9784C697.361 65.6531 696.48 66.0022 696.186 66.7718C693.564 73.6307 693.052 81.1305 694.737 88.3013C696.535 95.957 700.741 102.834 706.738 107.922C712.735 113.009 720.205 116.04 728.051 116.567C735.898 117.094 743.706 115.091 750.33 110.851C756.953 106.611 762.042 100.359 764.848 93.0123C767.654 85.666 768.03 77.6133 765.921 70.0374C763.811 62.4616 759.327 55.7623 753.128 50.9238C747.321 46.3919 740.296 43.7164 732.969 43.2263C732.147 43.1713 731.461 43.8246 731.44 44.6483C731.418 45.472 732.069 46.1538 732.891 46.2117C739.579 46.6833 745.988 49.1369 751.292 53.276C756.988 57.7216 761.108 63.8771 763.046 70.8379C764.985 77.7987 764.639 85.1976 762.061 91.9475C759.482 98.6974 754.807 104.442 748.721 108.338C742.635 112.233 735.461 114.074 728.251 113.59C721.042 113.105 714.178 110.321 708.668 105.647C703.159 100.972 699.294 94.6532 697.641 87.619C696.103 81.0698 696.558 74.222 698.93 67.9506C699.222 67.18 698.875 66.3036 698.118 65.9784Z" fill="#27AE60"/>
</g>
<path d="M719.42 77.6652C719.42 76.7473 719.42 76.2883 719.457 75.9377C719.49 75.6293 719.543 75.3785 719.608 75.2214C719.681 75.0427 719.778 75.0427 719.97 75.0427H740.366C740.559 75.0427 740.655 75.0427 740.729 75.2214C740.794 75.3785 740.846 75.6293 740.879 75.9377C740.917 76.2883 740.917 76.7473 740.917 77.6652V81.435C740.917 82.353 740.917 82.812 740.879 83.1626C740.846 83.471 740.794 83.7217 740.729 83.8789C740.655 84.0575 740.559 84.0575 740.366 84.0575H719.97C719.778 84.0575 719.681 84.0575 719.608 83.8789C719.543 83.7217 719.49 83.471 719.457 83.1626C719.42 82.812 719.42 82.353 719.42 81.435V77.6652Z" fill="white"/>
<path d="M702.777 126.673C702.777 126.32 702.777 126.143 702.873 126.009C702.957 125.89 703.091 125.793 703.256 125.733C703.443 125.664 703.689 125.664 704.18 125.664H756.157C756.648 125.664 756.893 125.664 757.081 125.733C757.246 125.793 757.38 125.89 757.464 126.009C757.559 126.143 757.559 126.32 757.559 126.673V128.123C757.559 128.476 757.559 128.652 757.464 128.787C757.38 128.906 757.246 129.002 757.081 129.063C756.893 129.132 756.648 129.132 756.157 129.132H704.18C703.689 129.132 703.443 129.132 703.256 129.063C703.091 129.002 702.957 128.906 702.873 128.787C702.777 128.652 702.777 128.476 702.777 128.123V126.673Z" fill="#97999D"/>
<defs>
<filter id="filter0_d" x="673.763" y="27.2231" width="113.505" height="113.426" filterUnits="userSpaceOnUse" color-interpolation-filters="sRGB">
<feFlood flood-opacity="0" result="BackgroundImageFix"/>
<feColorMatrix in="SourceAlpha" type="matrix" values="0 0 0 0 0 0 0 0 0 0 0 0 0 0 0 0 0 0 127 0"/>
<feOffset dy="4"/>
<feGaussianBlur stdDeviation="10"/>
<feColorMatrix type="matrix" values="0 0 0 0 0 0 0 0 0 0 0 0 0 0 0 0 0 0 0.19 0"/>
<feBlend mode="normal" in2="BackgroundImageFix" result="effect1_dropShadow"/>
<feBlend mode="normal" in="SourceGraphic" in2="effect1_dropShadow" result="shape"/>
</filter>
</defs>
</svg>
