<svg width="1250" height="512" viewBox="0 0 1250 512" fill="none" xmlns="http://www.w3.org/2000/svg">
<path d="M5.7 34H12V13.624H21.144V34H27.444V8.26H5.7V34ZM32.0177 41.2H38.2457V34.252C38.2457 33.316 38.1737 32.668 38.1737 32.668H38.2457C39.5777 33.82 41.2337 34.432 42.9617 34.432C47.8937 34.432 51.6017 30.616 51.6017 24.748C51.6017 18.988 48.2897 15.028 43.2497 15.028C41.0177 15.028 38.8937 15.892 37.6337 17.584H37.5617C37.5617 17.584 37.6337 17.008 37.6337 16.396V15.46H32.0177V41.2ZM38.0657 24.856C38.0657 21.652 39.8297 20.284 41.7017 20.284C43.8617 20.284 45.3377 22.084 45.3377 24.856C45.3377 27.7 43.6457 29.284 41.7017 29.284C39.2537 29.284 38.0657 27.088 38.0657 24.856ZM53.7549 24.712C53.7549 29.644 57.3189 34.432 63.9429 34.432C66.7869 34.432 69.8469 33.46 71.8629 31.732L69.5589 27.376C68.0469 28.384 66.2829 29.248 64.4469 29.248C62.4669 29.248 60.5949 28.204 60.1269 25.936H71.8269C71.8989 25.288 71.9709 24.64 71.9709 23.992C71.9709 18.844 68.8749 15.028 63.4029 15.028C57.4269 15.028 53.7549 19.276 53.7549 24.712ZM60.2709 22.372C60.5949 20.896 61.4589 19.6 63.2589 19.6C64.8429 19.6 65.8149 20.86 65.8149 22.372H60.2709ZM75.2247 34H81.4527V20.68H86.9607V34H93.1887V15.46H75.2247V34ZM96.3292 24.784C96.3292 30.58 101.009 34.432 106.841 34.432C112.673 34.432 117.353 30.58 117.353 24.784C117.353 18.952 112.673 15.028 106.805 15.028C101.009 15.028 96.3292 18.952 96.3292 24.784ZM102.629 24.784C102.629 21.976 104.573 20.212 106.841 20.212C109.109 20.212 111.053 21.976 111.053 24.784C111.053 27.556 109.109 29.248 106.841 29.248C104.573 29.248 102.629 27.556 102.629 24.784ZM126.959 29.068C128.255 26.584 128.615 23.884 128.615 21.076V20.392H131.819V29.068H126.959ZM118.535 29.068V38.32H124.295V34H135.167V38.32H140.711V29.068H138.047V15.46H122.747V19.924C122.747 23.668 122.063 26.98 120.839 29.068H118.535ZM142.236 28.78C142.236 31.984 144.72 34.432 148.284 34.432C150.408 34.432 152.568 33.46 153.792 31.732H153.864C153.864 31.732 153.792 32.272 153.792 32.884V34H159.48V22.588C159.48 17.872 156.312 15.028 151.2 15.028C148.176 15.028 144.936 16.216 143.352 17.44L145.512 21.832C146.988 20.86 148.824 20.068 150.624 20.068C151.992 20.068 153.252 20.572 153.252 22.12V22.444H152.712C148.14 22.444 142.236 23.812 142.236 28.78ZM148.392 28.204C148.392 26.512 150.84 26.008 152.748 26.008H153.324V26.512C153.324 28.024 151.956 29.788 150.156 29.788C149.004 29.788 148.392 29.068 148.392 28.204ZM163.432 34H173.548C177.22 34 180.604 32.56 180.604 28.492C180.604 26.872 179.812 25.036 177.688 24.388V24.352C179.092 23.524 179.848 21.868 179.848 20.32C179.848 17.116 177.256 15.46 173.548 15.46H163.432V34ZM169.66 22.768V19.312H171.928C173.152 19.312 173.656 20.068 173.656 20.932C173.656 21.904 173.152 22.768 172 22.768H169.66ZM169.66 30.112V26.404H172.432C173.764 26.404 174.376 27.268 174.376 28.276C174.376 29.212 173.728 30.112 172.396 30.112H169.66ZM182.49 28.78C182.49 31.984 184.974 34.432 188.538 34.432C190.662 34.432 192.822 33.46 194.046 31.732H194.118C194.118 31.732 194.046 32.272 194.046 32.884V34H199.734V22.588C199.734 17.872 196.566 15.028 191.454 15.028C188.43 15.028 185.19 16.216 183.606 17.44L185.766 21.832C187.242 20.86 189.078 20.068 190.878 20.068C192.246 20.068 193.506 20.572 193.506 22.12V22.444H192.966C188.394 22.444 182.49 23.812 182.49 28.78ZM188.646 28.204C188.646 26.512 191.094 26.008 193.002 26.008H193.578V26.512C193.578 28.024 192.21 29.788 190.41 29.788C189.258 29.788 188.646 29.068 188.646 28.204ZM207.754 34H213.982V20.68H219.634V15.46H202.138V20.68H207.754V34ZM220.993 24.712C220.993 29.644 224.557 34.432 231.181 34.432C234.025 34.432 237.085 33.46 239.101 31.732L236.797 27.376C235.285 28.384 233.521 29.248 231.685 29.248C229.705 29.248 227.833 28.204 227.365 25.936H239.065C239.137 25.288 239.209 24.64 239.209 23.992C239.209 18.844 236.113 15.028 230.641 15.028C224.665 15.028 220.993 19.276 220.993 24.712ZM227.509 22.372C227.833 20.896 228.697 19.6 230.497 19.6C232.081 19.6 233.053 20.86 233.053 22.372H227.509ZM240.954 34.18C248.154 34.18 250.314 28.996 250.314 21.436V20.392H253.41V34H259.638V15.46H244.446V21.4C244.446 27.772 242.61 28.528 240.954 28.744V34.18ZM263.803 34H273.055C278.239 34 280.399 31.444 280.399 27.664C280.399 23.92 278.239 21.256 273.055 21.256H270.031V15.46H263.803V34ZM270.031 29.932V25.288H271.795C273.379 25.288 274.171 26.332 274.171 27.628C274.171 28.924 273.379 29.932 271.903 29.932H270.031ZM282.095 24.712C282.095 29.824 285.803 34.432 292.427 34.432C295.523 34.432 298.547 33.244 300.383 31.372L298.115 27.016C296.783 28.168 294.839 29.248 293.039 29.248C289.907 29.248 288.395 26.836 288.395 24.64C288.395 22.444 289.871 20.212 292.823 20.212C294.443 20.212 296.099 20.968 297.179 22.012L299.807 17.836C297.971 15.856 295.019 15.028 292.427 15.028C285.767 15.028 282.095 19.744 282.095 24.712ZM303.002 34H309.23V27.196H311.174L315.098 34H322.19L315.998 24.352V24.28L321.434 15.46H314.666L310.994 21.976H309.23V15.46H303.002V34ZM324.272 34H330.32L335.468 25.864C335.756 25.36 336.152 24.784 336.476 24.028H336.548C336.476 24.748 336.476 25.468 336.476 25.9V34H342.344V15.46H336.296L331.148 23.632C330.824 24.172 330.464 24.712 330.14 25.468H330.068C330.104 25 330.14 24.28 330.14 23.632V15.46H324.272V34ZM355.598 14.164C359.234 14.164 362.402 12.184 362.402 8.656V8.26H357.83V8.692C357.83 10.168 356.642 10.816 355.598 10.816C354.518 10.816 353.366 10.168 353.366 8.692V8.26H348.758V8.656C348.758 12.184 351.926 14.164 355.598 14.164ZM346.526 34H352.574L357.722 25.864C358.01 25.36 358.406 24.784 358.73 24.028H358.802C358.73 24.748 358.73 25.468 358.73 25.9V34H364.598V15.46H358.55L353.402 23.632C353.078 24.172 352.718 24.712 352.394 25.468H352.322C352.358 25 352.394 24.28 352.394 23.632V15.46H346.526V34ZM376.735 24.712C376.735 29.824 380.443 34.432 387.067 34.432C390.163 34.432 393.187 33.244 395.023 31.372L392.755 27.016C391.423 28.168 389.479 29.248 387.679 29.248C384.547 29.248 383.035 26.836 383.035 24.64C383.035 22.444 384.511 20.212 387.463 20.212C389.083 20.212 390.739 20.968 391.819 22.012L394.447 17.836C392.611 15.856 389.659 15.028 387.067 15.028C380.407 15.028 376.735 19.744 376.735 24.712ZM396.212 24.784C396.212 30.58 400.892 34.432 406.724 34.432C412.556 34.432 417.236 30.58 417.236 24.784C417.236 18.952 412.556 15.028 406.688 15.028C400.892 15.028 396.212 18.952 396.212 24.784ZM402.512 24.784C402.512 21.976 404.456 20.212 406.724 20.212C408.992 20.212 410.936 21.976 410.936 24.784C410.936 27.556 408.992 29.248 406.724 29.248C404.456 29.248 402.512 27.556 402.512 24.784ZM419.31 24.712C419.31 29.824 423.018 34.432 429.642 34.432C432.738 34.432 435.762 33.244 437.598 31.372L435.33 27.016C433.998 28.168 432.054 29.248 430.254 29.248C427.122 29.248 425.61 26.836 425.61 24.64C425.61 22.444 427.086 20.212 430.038 20.212C431.658 20.212 433.314 20.968 434.394 22.012L437.022 17.836C435.186 15.856 432.234 15.028 429.642 15.028C422.982 15.028 419.31 19.744 419.31 24.712ZM444.285 34H450.513V20.68H456.165V15.46H438.669V20.68H444.285V34ZM457.236 28.78C457.236 31.984 459.72 34.432 463.284 34.432C465.408 34.432 467.568 33.46 468.792 31.732H468.864C468.864 31.732 468.792 32.272 468.792 32.884V34H474.48V22.588C474.48 17.872 471.312 15.028 466.2 15.028C463.176 15.028 459.936 16.216 458.352 17.44L460.512 21.832C461.988 20.86 463.824 20.068 465.624 20.068C466.992 20.068 468.252 20.572 468.252 22.12V22.444H467.712C463.14 22.444 457.236 23.812 457.236 28.78ZM463.392 28.204C463.392 26.512 465.84 26.008 467.748 26.008H468.324V26.512C468.324 28.024 466.956 29.788 465.156 29.788C464.004 29.788 463.392 29.068 463.392 28.204ZM478.432 34H488.548C492.22 34 495.604 32.56 495.604 28.492C495.604 26.872 494.812 25.036 492.688 24.388V24.352C494.092 23.524 494.848 21.868 494.848 20.32C494.848 17.116 492.256 15.46 488.548 15.46H478.432V34ZM484.66 22.768V19.312H486.928C488.152 19.312 488.656 20.068 488.656 20.932C488.656 21.904 488.152 22.768 487 22.768H484.66ZM484.66 30.112V26.404H487.432C488.764 26.404 489.376 27.268 489.376 28.276C489.376 29.212 488.728 30.112 487.396 30.112H484.66ZM4.044 66.712C4.044 71.824 7.752 76.432 14.376 76.432C17.472 76.432 20.496 75.244 22.332 73.372L20.064 69.016C18.732 70.168 16.788 71.248 14.988 71.248C11.856 71.248 10.344 68.836 10.344 66.64C10.344 64.444 11.82 62.212 14.772 62.212C16.392 62.212 18.048 62.968 19.128 64.012L21.756 59.836C19.92 57.856 16.968 57.028 14.376 57.028C7.716 57.028 4.044 61.744 4.044 66.712ZM32.9073 66.784C32.9073 72.58 37.5873 76.432 43.4193 76.432C49.2513 76.432 53.9313 72.58 53.9313 66.784C53.9313 60.952 49.2513 57.028 43.3833 57.028C37.5873 57.028 32.9073 60.952 32.9073 66.784ZM39.2073 66.784C39.2073 63.976 41.1513 62.212 43.4193 62.212C45.6873 62.212 47.6313 63.976 47.6313 66.784C47.6313 69.556 45.6873 71.248 43.4193 71.248C41.1513 71.248 39.2073 69.556 39.2073 66.784ZM57.0489 76H63.2769V62.68H68.7849V76H75.0129V57.46H57.0489V76ZM97.7014 76H103.929V57.46H97.7014V76ZM79.1974 76H88.2334C93.4174 76 95.5774 73.444 95.5774 69.664C95.5774 65.92 93.4174 63.256 88.2334 63.256H85.4254V57.46H79.1974V76ZM85.4254 71.932V67.288H86.9734C88.5574 67.288 89.3494 68.332 89.3494 69.628C89.3494 70.924 88.5574 71.932 87.0814 71.932H85.4254ZM112.164 76H118.392V62.68H124.044V57.46H106.548V62.68H112.164V76ZM125.403 66.784C125.403 72.58 130.083 76.432 135.915 76.432C141.747 76.432 146.427 72.58 146.427 66.784C146.427 60.952 141.747 57.028 135.879 57.028C130.083 57.028 125.403 60.952 125.403 66.784ZM131.703 66.784C131.703 63.976 133.647 62.212 135.915 62.212C138.183 62.212 140.127 63.976 140.127 66.784C140.127 69.556 138.183 71.248 135.915 71.248C133.647 71.248 131.703 69.556 131.703 66.784ZM148.753 76H154.693L155.125 67.468C155.197 66.028 155.089 64.3 155.089 64.3H155.161C155.161 64.3 155.845 65.848 156.241 67.036L158.689 73.516H163.729L166.177 67.036C166.645 65.884 167.185 64.3 167.185 64.3H167.257C167.257 64.3 167.185 66.028 167.221 67.468L167.653 76H173.629L171.865 57.46H164.701L161.965 65.596C161.641 66.532 161.209 67.756 161.209 67.756H161.173C161.173 67.756 160.777 66.532 160.453 65.596L157.717 57.46H150.517L148.753 76ZM186.002 83.2H192.23V76.252C192.23 75.316 192.158 74.668 192.158 74.668H192.23C193.562 75.82 195.218 76.432 196.946 76.432C201.878 76.432 205.586 72.616 205.586 66.748C205.586 60.988 202.274 57.028 197.234 57.028C195.002 57.028 192.878 57.892 191.618 59.584H191.546C191.546 59.584 191.618 59.008 191.618 58.396V57.46H186.002V83.2ZM192.05 66.856C192.05 63.652 193.814 62.284 195.686 62.284C197.846 62.284 199.322 64.084 199.322 66.856C199.322 69.7 197.63 71.284 195.686 71.284C193.238 71.284 192.05 69.088 192.05 66.856ZM207.451 70.78C207.451 73.984 209.935 76.432 213.499 76.432C215.623 76.432 217.783 75.46 219.007 73.732H219.079C219.079 73.732 219.007 74.272 219.007 74.884V76H224.695V64.588C224.695 59.872 221.527 57.028 216.415 57.028C213.391 57.028 210.151 58.216 208.567 59.44L210.727 63.832C212.203 62.86 214.039 62.068 215.839 62.068C217.207 62.068 218.467 62.572 218.467 64.12V64.444H217.927C213.355 64.444 207.451 65.812 207.451 70.78ZM213.607 70.204C213.607 68.512 216.055 68.008 217.963 68.008H218.539V68.512C218.539 70.024 217.171 71.788 215.371 71.788C214.219 71.788 213.607 71.068 213.607 70.204ZM227.819 64.912C227.819 71.716 231.167 76.432 237.863 76.432C243.731 76.432 247.439 72.544 247.439 67.432C247.439 62.464 244.415 58.936 239.447 58.936C237.827 58.936 235.595 59.368 234.011 60.7H233.939C234.047 58.036 236.567 57.028 238.943 56.236L245.927 54.004L244.163 49L238.151 51.016C230.915 53.5 227.819 57.352 227.819 64.912ZM234.011 67.54C234.011 65.128 235.667 63.616 237.611 63.616C239.555 63.616 241.211 65.128 241.211 67.54C241.211 69.916 239.555 71.356 237.611 71.356C235.667 71.356 234.011 69.916 234.011 67.54ZM249.646 66.784C249.646 72.58 254.326 76.432 260.158 76.432C265.99 76.432 270.67 72.58 270.67 66.784C270.67 60.952 265.99 57.028 260.122 57.028C254.326 57.028 249.646 60.952 249.646 66.784ZM255.946 66.784C255.946 63.976 257.89 62.212 260.158 62.212C262.426 62.212 264.37 63.976 264.37 66.784C264.37 69.556 262.426 71.248 260.158 71.248C257.89 71.248 255.946 69.556 255.946 66.784ZM277.644 76H283.872V62.68H289.524V57.46H272.028V62.68H277.644V76ZM310.643 76H316.871V57.46H310.643V76ZM292.139 76H301.175C306.359 76 308.519 73.444 308.519 69.664C308.519 65.92 306.359 63.256 301.175 63.256H298.367V57.46H292.139V76ZM298.367 71.932V67.288H299.915C301.499 67.288 302.291 68.332 302.291 69.628C302.291 70.924 301.499 71.932 300.023 71.932H298.367ZM330.037 76H340.153C343.825 76 347.209 74.56 347.209 70.492C347.209 68.872 346.417 67.036 344.293 66.388V66.352C345.697 65.524 346.453 63.868 346.453 62.32C346.453 59.116 343.861 57.46 340.153 57.46H330.037V76ZM336.265 64.768V61.312H338.533C339.757 61.312 340.261 62.068 340.261 62.932C340.261 63.904 339.757 64.768 338.605 64.768H336.265ZM336.265 72.112V68.404H339.037C340.369 68.404 340.981 69.268 340.981 70.276C340.981 71.212 340.333 72.112 339.001 72.112H336.265ZM350.464 63.364H356.368V57.46H350.464V63.364ZM350.464 76H356.368V70.096H350.464V76Z" fill="#222224"/>
<path d="M4.674 135H6.456V129.42H13.062V135H14.826V122.292H13.062V127.872H6.456V122.292H4.674V135ZM18.174 135H19.92L25.59 126.756C26.04 126.054 26.652 124.902 26.652 124.902H26.688C26.688 124.902 26.58 126.036 26.58 126.756V135H28.344V122.292H26.598L20.964 130.518C20.514 131.202 19.884 132.39 19.884 132.39H19.848C19.848 132.39 19.956 131.256 19.956 130.536V122.292H18.174V135ZM31.7092 135H46.4332V122.292H44.6692V133.452H39.9712V122.292H38.1892V133.452H33.4912V122.292H31.7092V135Z" fill="#424754"/>
<path d="M4.674 176H6.456V171.302H9.336C11.658 171.302 13.314 169.682 13.314 167.27C13.314 164.858 11.658 163.292 9.336 163.292H4.674V176ZM6.456 169.754V164.84H9.066C10.56 164.84 11.514 165.758 11.514 167.27C11.514 168.8 10.56 169.754 9.048 169.754H6.456ZM14.5653 169.232C14.5653 172.454 16.9593 174.596 20.4693 174.596V176.216H22.2513V174.596C25.7613 174.596 28.1553 172.454 28.1553 169.232C28.1553 166.064 25.7433 163.958 22.2513 163.958V162.5H20.4693V163.958C16.9593 163.958 14.5653 166.064 14.5653 169.232ZM22.2513 173.084V165.47C24.6993 165.47 26.3373 166.91 26.3373 169.232C26.3373 171.608 24.6993 173.084 22.2513 173.084ZM16.3833 169.232C16.3833 166.91 18.0213 165.47 20.4693 165.47V173.084C18.0213 173.084 16.3833 171.608 16.3833 169.232ZM30.0278 176H31.8098L32.4218 167.99C32.4938 167.216 32.4578 166.082 32.4578 166.082H32.4938C32.4938 166.082 32.8898 167.306 33.1778 167.99L35.6978 173.714H37.2818L39.8198 167.99C40.1078 167.288 40.5038 166.118 40.5038 166.118H40.5398C40.5398 166.118 40.5038 167.216 40.5758 167.99L41.1878 176H42.9518L41.9258 163.292H40.0718L37.1378 170.168C36.8498 170.87 36.5078 171.878 36.5078 171.878H36.4718C36.4718 171.878 36.1478 170.87 35.8598 170.168L32.9258 163.292H31.0718L30.0278 176ZM45.8244 176H60.5484V163.292H58.7844V174.452H54.0864V163.292H52.3044V174.452H47.6064V163.292H45.8244V176Z" fill="#424754"/>
<path d="M4.674 217H6.456V211.186H8.346L11.73 217H13.764L9.822 210.358V210.322L13.53 204.292H11.568L8.346 209.638H6.456V204.292H4.674V217ZM18.7006 217H20.4646V205.84H24.8386V204.292H14.3266V205.84H18.7006V217ZM24.5031 215.506V217.144C28.0131 216.946 29.0931 213.418 29.0931 207.316V205.84H33.0351V217H34.8171V204.292H27.4011V207.298C27.4011 212.464 26.6451 215.218 24.5031 215.506Z" fill="#424754"/>
<path d="M4.674 258H6.456V252.42H13.062V258H14.826V245.292H13.062V250.872H6.456V245.292H4.674V258ZM16.971 255.516C16.971 257.226 18.429 258.216 20.013 258.216C21.363 258.216 22.479 257.406 23.001 256.362H23.037C23.037 256.362 22.983 256.668 22.983 257.082V258H24.621V252.24C24.621 249.936 23.307 248.676 21.021 248.676C19.743 248.676 18.357 249.144 17.619 249.756L18.321 251.034C19.059 250.512 19.977 250.152 20.877 250.152C22.011 250.152 22.875 250.656 22.875 252.15V252.33H22.407C20.517 252.33 16.971 252.654 16.971 255.516ZM18.717 255.372C18.717 253.698 21.129 253.59 22.425 253.59H22.875V253.932C22.875 255.282 21.957 256.83 20.427 256.83C19.293 256.83 18.717 256.092 18.717 255.372ZM26.3196 256.884C27.0756 257.604 28.2636 258.216 29.6676 258.216C31.5396 258.216 33.1596 257.262 33.1596 255.39C33.1596 254.22 32.4396 253.536 31.5216 253.248V253.212C32.2416 252.906 32.8536 252.276 32.8536 251.142C32.8536 249.522 31.5036 248.676 29.7756 248.676C28.3356 248.676 27.3096 249.144 26.6076 249.666L27.2556 250.836C27.9576 250.314 28.6776 250.044 29.4696 250.044C30.4776 250.044 31.0896 250.512 31.0896 251.358C31.0896 252.276 30.3876 252.672 29.3616 252.672H28.4076V253.932H29.5236C30.8016 253.932 31.3956 254.436 31.3956 255.318C31.3956 256.308 30.5496 256.812 29.5056 256.812C28.4076 256.812 27.5436 256.164 27.1296 255.732L26.3196 256.884ZM34.5139 255.516C34.5139 257.226 35.9719 258.216 37.5559 258.216C38.9059 258.216 40.0219 257.406 40.5439 256.362H40.5799C40.5799 256.362 40.5259 256.668 40.5259 257.082V258H42.1639V252.24C42.1639 249.936 40.8499 248.676 38.5639 248.676C37.2859 248.676 35.8999 249.144 35.1619 249.756L35.8639 251.034C36.6019 250.512 37.5199 250.152 38.4199 250.152C39.5539 250.152 40.4179 250.656 40.4179 252.15V252.33H39.9499C38.0599 252.33 34.5139 252.654 34.5139 255.516ZM36.2599 255.372C36.2599 253.698 38.6719 253.59 39.9679 253.59H40.4179V253.932C40.4179 255.282 39.4999 256.83 37.9699 256.83C36.8359 256.83 36.2599 256.092 36.2599 255.372ZM44.7445 261.6H46.4905V257.46C46.4905 256.992 46.4185 256.668 46.4185 256.668H46.4545C47.0845 257.64 48.1285 258.216 49.2805 258.216C51.6745 258.216 53.4025 256.344 53.4025 253.446C53.4025 250.62 51.8725 248.676 49.4065 248.676C48.0745 248.676 46.9225 249.288 46.3465 250.386H46.3105C46.3105 250.386 46.3645 250.08 46.3645 249.702V248.892H44.7445V261.6ZM46.4365 253.482C46.4365 251.178 47.6965 250.206 49.0645 250.206C50.5765 250.206 51.6385 251.484 51.6385 253.464C51.6385 255.534 50.4505 256.704 49.0105 256.704C47.3365 256.704 46.4365 255.102 46.4365 253.482ZM55.1591 252.762C55.1591 255.912 56.5451 258.216 59.6231 258.216C62.1971 258.216 63.9251 256.416 63.9251 253.896C63.9251 251.322 62.3411 249.702 60.0551 249.702C58.8491 249.702 57.6431 250.098 56.8331 251.322H56.7971C56.9231 249.576 57.7871 248.514 59.6051 247.686L63.0971 246.228L62.5211 244.788L59.2631 246.192C56.0951 247.524 55.1591 249.504 55.1591 252.762ZM56.9771 253.896C56.9771 252.294 58.0751 251.088 59.6231 251.088C60.9911 251.088 62.1611 252.15 62.1611 253.932C62.1611 255.696 60.9911 256.74 59.5511 256.74C58.1471 256.74 56.9771 255.696 56.9771 253.896ZM65.346 255.516C65.346 257.226 66.804 258.216 68.388 258.216C69.738 258.216 70.854 257.406 71.376 256.362H71.412C71.412 256.362 71.358 256.668 71.358 257.082V258H72.996V252.24C72.996 249.936 71.682 248.676 69.396 248.676C68.118 248.676 66.732 249.144 65.994 249.756L66.696 251.034C67.434 250.512 68.352 250.152 69.252 250.152C70.386 250.152 71.25 250.656 71.25 252.15V252.33H70.782C68.892 252.33 65.346 252.654 65.346 255.516ZM67.092 255.372C67.092 253.698 69.504 253.59 70.8 253.59H71.25V253.932C71.25 255.282 70.332 256.83 68.802 256.83C67.668 256.83 67.092 256.092 67.092 255.372ZM74.9826 253.446C74.9826 256.146 76.9626 258.216 79.8246 258.216C81.0846 258.216 82.4706 257.73 83.3526 256.92L82.6146 255.642C81.8946 256.29 80.9046 256.704 79.9326 256.704C78.2946 256.704 76.8906 255.642 76.8006 253.68H83.4246C83.4606 253.428 83.4966 253.176 83.4966 252.942C83.4966 250.602 82.1286 248.676 79.5546 248.676C76.9626 248.676 74.9826 250.548 74.9826 253.446ZM76.8546 252.42C77.1066 250.908 78.1686 250.026 79.5186 250.026C80.7066 250.026 81.6786 250.854 81.7326 252.42H76.8546ZM85.5961 258H89.4841C91.4641 258 92.8321 257.1 92.8321 255.408C92.8321 254.4 92.2381 253.518 91.1041 253.248V253.23C91.9321 252.87 92.4001 252.114 92.4001 251.232C92.4001 249.702 91.1941 248.892 89.3581 248.892H85.5961V258ZM87.3421 252.744V250.098H88.9981C90.0961 250.098 90.6181 250.53 90.6181 251.358C90.6181 252.204 90.0961 252.744 89.0521 252.744H87.3421ZM87.3421 256.776V253.914H89.1961C90.4021 253.914 91.0681 254.454 91.0681 255.354C91.0681 256.2 90.4741 256.776 89.2141 256.776H87.3421ZM99.4477 257.388C100.15 257.874 100.906 258.216 101.77 258.216C103.354 258.216 104.164 256.938 104.668 255.66L108.718 245.292H106.846L104.488 251.7C104.218 252.474 103.948 253.356 103.948 253.356H103.912C103.912 253.356 103.588 252.474 103.192 251.682L100.096 245.292H98.1337L103.156 255.246C102.814 256.128 102.454 256.668 101.716 256.668C101.104 256.668 100.564 256.272 100.258 256.038L99.4477 257.388ZM109.52 258H111.266V254.094H115.874V258H117.62V248.892H115.874V252.6H111.266V248.892H109.52V258ZM120.313 258H121.987L125.929 252.564C126.217 252.132 126.667 251.52 126.721 251.358H126.757C126.757 251.502 126.703 252.132 126.703 252.564V258H128.395V248.892H126.703L122.779 254.328C122.473 254.76 122.041 255.39 121.969 255.552H121.933C121.951 255.462 121.987 254.814 121.987 254.328V248.892H120.313V258ZM131.071 258H134.959C136.939 258 138.307 257.1 138.307 255.408C138.307 254.4 137.713 253.518 136.579 253.248V253.23C137.407 252.87 137.875 252.114 137.875 251.232C137.875 249.702 136.669 248.892 134.833 248.892H131.071V258ZM132.817 252.744V250.098H134.473C135.571 250.098 136.093 250.53 136.093 251.358C136.093 252.204 135.571 252.744 134.527 252.744H132.817ZM132.817 256.776V253.914H134.671C135.877 253.914 136.543 254.454 136.543 255.354C136.543 256.2 135.949 256.776 134.689 256.776H132.817ZM139.828 253.446C139.828 256.146 141.808 258.216 144.67 258.216C145.93 258.216 147.316 257.73 148.198 256.92L147.46 255.642C146.74 256.29 145.75 256.704 144.778 256.704C143.14 256.704 141.736 255.642 141.646 253.68H148.27C148.306 253.428 148.342 253.176 148.342 252.942C148.342 250.602 146.974 248.676 144.4 248.676C141.808 248.676 139.828 250.548 139.828 253.446ZM141.7 252.42C141.952 250.908 143.014 250.026 144.364 250.026C145.552 250.026 146.524 250.854 146.578 252.42H141.7ZM150.442 261.6H152.188V257.46C152.188 256.992 152.116 256.668 152.116 256.668H152.152C152.782 257.64 153.826 258.216 154.978 258.216C157.372 258.216 159.1 256.344 159.1 253.446C159.1 250.62 157.57 248.676 155.104 248.676C153.772 248.676 152.62 249.288 152.044 250.386H152.008C152.008 250.386 152.062 250.08 152.062 249.702V248.892H150.442V261.6ZM152.134 253.482C152.134 251.178 153.394 250.206 154.762 250.206C156.274 250.206 157.336 251.484 157.336 253.464C157.336 255.534 156.148 256.704 154.708 256.704C153.034 256.704 152.134 255.102 152.134 253.482ZM160.658 253.446C160.658 256.182 162.656 258.216 165.536 258.216C166.958 258.216 168.344 257.64 169.172 256.758L168.47 255.48C167.768 256.218 166.67 256.704 165.662 256.704C163.772 256.704 162.44 255.282 162.44 253.428C162.44 251.574 163.772 250.188 165.608 250.188C166.562 250.188 167.516 250.62 168.128 251.232L168.956 250.008C168.092 249.09 166.742 248.676 165.536 248.676C162.674 248.676 160.658 250.746 160.658 253.446ZM171.061 258H172.735L176.677 252.564C176.965 252.132 177.415 251.52 177.469 251.358H177.505C177.505 251.502 177.451 252.132 177.451 252.564V258H179.143V248.892H177.451L173.527 254.328C173.221 254.76 172.789 255.39 172.717 255.552H172.681C172.699 255.462 172.735 254.814 172.735 254.328V248.892H171.061V258ZM184.015 258H185.743V250.386H188.929V248.892H180.847V250.386H184.015V258ZM189.75 253.446C189.75 256.146 191.73 258.216 194.592 258.216C195.852 258.216 197.238 257.73 198.12 256.92L197.382 255.642C196.662 256.29 195.672 256.704 194.7 256.704C193.062 256.704 191.658 255.642 191.568 253.68H198.192C198.228 253.428 198.264 253.176 198.264 252.942C198.264 250.602 196.896 248.676 194.322 248.676C191.73 248.676 189.75 250.548 189.75 253.446ZM191.622 252.42C191.874 250.908 192.936 250.026 194.286 250.026C195.474 250.026 196.446 250.854 196.5 252.42H191.622ZM202.454 258H204.182V250.386H207.368V248.892H199.286V250.386H202.454V258Z" fill="#424754"/>
<path d="M1.632 352H4.584L9.12 345.472C9.432 344.992 9.888 344.344 10.032 344.008H10.08C10.056 344.32 10.008 345.016 10.008 345.472V352H12.912V339.76H9.96L5.424 346.312C5.112 346.792 4.656 347.464 4.512 347.776H4.464C4.488 347.584 4.536 346.864 4.536 346.312V339.76H1.632V352ZM21.4427 345.88C21.4427 349.432 24.0347 352.288 28.0907 352.288C30.0587 352.288 31.9787 351.52 33.1307 350.296L31.9547 348.136C31.0427 349.024 29.6507 349.696 28.3547 349.696C26.0027 349.696 24.5387 347.92 24.5387 345.856C24.5387 343.768 26.0027 342.064 28.2587 342.064C29.4587 342.064 30.6587 342.616 31.4267 343.384L32.7947 341.296C31.6187 340.024 29.7467 339.472 28.0907 339.472C24.0347 339.472 21.4427 342.4 21.4427 345.88ZM34.3991 348.616C34.3991 350.848 36.2231 352.288 38.4311 352.288C40.0871 352.288 41.5511 351.376 42.2951 350.08H42.3431C42.3431 350.08 42.2711 350.464 42.2711 350.968V352H45.1031V344.344C45.1031 341.248 43.2071 339.472 40.0151 339.472C38.1911 339.472 36.2231 340.168 35.2151 340.984L36.3431 343.168C37.3271 342.496 38.5511 341.992 39.7511 341.992C41.0231 341.992 42.0551 342.544 42.0551 344.152V344.32H41.5271C38.8151 344.32 34.3991 344.944 34.3991 348.616ZM37.4231 348.352C37.4231 346.624 40.0151 346.408 41.5511 346.408H42.0791V346.744C42.0791 348.232 40.9751 349.96 39.2711 349.96C38.0471 349.96 37.4231 349.168 37.4231 348.352ZM47.6983 352H50.6263L51.0583 345.376C51.1063 344.56 51.0343 343.288 51.0343 343.288H51.0823C51.0823 343.288 51.4903 344.248 51.8263 345.088L54.2263 350.464H56.7463L59.1463 345.064C59.5303 344.2 59.8663 343.288 59.8663 343.288H59.9143C59.9143 343.288 59.8663 344.56 59.8903 345.376L60.3223 352H63.2503L62.1463 339.76H58.7383L56.0983 346.072C55.8343 346.768 55.4983 347.632 55.4983 347.632H55.4503C55.4503 347.632 55.1383 346.744 54.8503 346.072L52.2583 339.76H48.8023L47.6983 352ZM66.0383 352H68.9903L73.5263 345.472C73.8383 344.992 74.2943 344.344 74.4383 344.008H74.4863C74.4623 344.32 74.4143 345.016 74.4143 345.472V352H77.3183V339.76H74.3663L69.8303 346.312C69.5183 346.792 69.0623 347.464 68.9183 347.776H68.8703C68.8943 347.584 68.9423 346.864 68.9423 346.312V339.76H66.0383V352ZM86.5929 352H92.4009C94.9689 352 96.9609 350.896 96.9609 348.448C96.9609 347.224 96.2649 346.024 94.8009 345.64V345.616C95.8329 345.112 96.4089 344.056 96.4089 342.928C96.4089 340.864 94.7529 339.76 92.2809 339.76H86.5929V352ZM89.6409 344.8V341.752H91.5849C92.7849 341.752 93.3369 342.304 93.3369 343.192C93.3369 344.128 92.7849 344.8 91.6329 344.8H89.6409ZM89.6409 349.984V346.696H91.8729C93.1929 346.696 93.8889 347.368 93.8889 348.352C93.8889 349.288 93.2409 349.984 91.8729 349.984H89.6409ZM111.027 352H114.075V339.76H111.027V352ZM99.507 352H104.715C107.931 352 109.347 350.392 109.347 348.016C109.347 345.352 107.619 343.96 104.739 343.96H102.555V339.76H99.507V352ZM102.555 349.912V346.024H104.187C105.627 346.024 106.275 346.864 106.275 347.992C106.275 349.096 105.627 349.912 104.235 349.912H102.555ZM117.343 352H120.391V342.352H125.455V352H128.503V339.76H117.343V352ZM131.445 353.968L130.437 356.248C130.437 356.248 131.517 357.04 132.981 357.04C134.781 357.04 136.557 356.08 137.397 353.848L142.845 339.76H139.533L137.133 346.864C136.941 347.512 136.725 348.472 136.725 348.472H136.677C136.677 348.472 136.461 347.464 136.221 346.816L133.653 339.76H130.221L135.381 351.808L134.925 352.888C134.469 353.968 133.629 354.472 132.789 354.472C132.117 354.472 131.445 353.968 131.445 353.968ZM143.669 345.88C143.669 349.432 146.261 352.288 150.317 352.288C152.285 352.288 154.205 351.52 155.357 350.296L154.181 348.136C153.269 349.024 151.877 349.696 150.581 349.696C148.229 349.696 146.765 347.92 146.765 345.856C146.765 343.768 148.229 342.064 150.485 342.064C151.685 342.064 152.885 342.616 153.653 343.384L155.021 341.296C153.845 340.024 151.973 339.472 150.317 339.472C146.261 339.472 143.669 342.4 143.669 345.88ZM157.562 352H160.61V347.032H162.194L165.41 352H168.938L164.57 345.64V345.592L168.458 339.76H165.074L162.098 344.44H160.61V339.76H157.562V352ZM170.734 352H173.782V347.056H179.014V352H182.062V339.76H179.014V344.488H173.782V339.76H170.734V352ZM185.335 352H188.287L192.823 345.472C193.135 344.992 193.591 344.344 193.735 344.008H193.783C193.759 344.32 193.711 345.016 193.711 345.472V352H196.615V339.76H193.663L189.127 346.312C188.815 346.792 188.359 347.464 188.215 347.776H188.167C188.191 347.584 188.239 346.864 188.239 346.312V339.76H185.335V352ZM199.89 352H202.938V347.032H204.522L207.738 352H211.266L206.898 345.64V345.592L210.786 339.76H207.402L204.426 344.44H202.938V339.76H199.89V352ZM213.062 352H216.014L220.55 345.472C220.862 344.992 221.318 344.344 221.462 344.008H221.51C221.486 344.32 221.438 345.016 221.438 345.472V352H224.342V339.76H221.39L216.854 346.312C216.542 346.792 216.086 347.464 215.942 347.776H215.894C215.918 347.584 215.966 346.864 215.966 346.312V339.76H213.062V352ZM227.568 342.808H230.592V339.76H227.568V342.808ZM227.568 352H230.592V348.952H227.568V352Z" fill="#222224"/>
<path d="M1.188 412H2.97L3.582 403.99C3.654 403.216 3.618 402.082 3.618 402.082H3.654C3.654 402.082 4.05 403.306 4.338 403.99L6.858 409.714H8.442L10.98 403.99C11.268 403.288 11.664 402.118 11.664 402.118H11.7C11.7 402.118 11.664 403.216 11.736 403.99L12.348 412H14.112L13.086 399.292H11.232L8.298 406.168C8.01 406.87 7.668 407.878 7.668 407.878H7.632C7.632 407.878 7.308 406.87 7.02 406.168L4.086 399.292H2.232L1.188 412ZM16.9845 412H18.7665V400.84H23.9865V399.292H16.9845V412ZM25.5727 411.388C26.2747 411.874 27.0307 412.216 27.8947 412.216C29.4787 412.216 30.2887 410.938 30.7927 409.66L34.8427 399.292H32.9707L30.6127 405.7C30.3427 406.474 30.0727 407.356 30.0727 407.356H30.0367C30.0367 407.356 29.7127 406.474 29.3167 405.682L26.2207 399.292H24.2587L29.2807 409.246C28.9387 410.128 28.5787 410.668 27.8407 410.668C27.2287 410.668 26.6887 410.272 26.3827 410.038L25.5727 411.388ZM40.848 412H42.522L46.464 406.564C46.752 406.132 47.202 405.52 47.256 405.358H47.292C47.292 405.502 47.238 406.132 47.238 406.564V412H48.93V402.892H47.238L43.314 408.328C43.008 408.76 42.576 409.39 42.504 409.552H42.468C42.486 409.462 42.522 408.814 42.522 408.328V402.892H40.848V412ZM51.2279 412H52.9199L53.3159 406.582C53.3519 406.042 53.2979 405.016 53.2979 405.016H53.3339C53.3339 405.016 53.6219 405.7 53.9099 406.366L56.0699 410.902H57.5639L59.7239 406.348C60.0659 405.646 60.2999 405.016 60.2999 405.016H60.3359C60.3359 405.016 60.2999 406.042 60.3179 406.582L60.7139 412H62.4059L61.6139 402.892H59.7059L57.3299 408.04C57.0959 408.598 56.8259 409.264 56.8259 409.264H56.7899C56.7899 409.264 56.5379 408.58 56.2859 408.04L53.9639 402.892H52.0199L51.2279 412ZM64.1603 407.446C64.1603 410.146 66.1403 412.216 69.0023 412.216C70.2623 412.216 71.6483 411.73 72.5303 410.92L71.7923 409.642C71.0723 410.29 70.0823 410.704 69.1103 410.704C67.4723 410.704 66.0683 409.642 65.9783 407.68H72.6023C72.6383 407.428 72.6743 407.176 72.6743 406.942C72.6743 404.602 71.3063 402.676 68.7323 402.676C66.1403 402.676 64.1603 404.548 64.1603 407.446ZM66.0323 406.42C66.2843 404.908 67.3463 404.026 68.6963 404.026C69.8843 404.026 70.8563 404.854 70.9103 406.42H66.0323ZM74.7738 412H76.5198V408.094H81.1278V412H82.8738V402.892H81.1278V406.6H76.5198V402.892H74.7738V412ZM85.5668 412H87.2408L91.1828 406.564C91.4708 406.132 91.9208 405.52 91.9748 405.358H92.0108C92.0108 405.502 91.9568 406.132 91.9568 406.564V412H93.6488V402.892H91.9568L88.0328 408.328C87.7268 408.76 87.2948 409.39 87.2228 409.552H87.1868C87.2048 409.462 87.2408 408.814 87.2408 408.328V402.892H85.5668V412ZM100.663 412H102.445L103.057 403.99C103.129 403.216 103.093 402.082 103.093 402.082H103.129C103.129 402.082 103.525 403.306 103.813 403.99L106.333 409.714H107.917L110.455 403.99C110.743 403.288 111.139 402.118 111.139 402.118H111.175C111.175 402.118 111.139 403.216 111.211 403.99L111.823 412H113.587L112.561 399.292H110.707L107.773 406.168C107.485 406.87 107.143 407.878 107.143 407.878H107.107C107.107 407.878 106.783 406.87 106.495 406.168L103.561 399.292H101.707L100.663 412ZM116.045 412H117.917V410.11H116.045V412ZM120.854 412H125.408C127.64 412 129.512 410.776 129.512 408.382C129.512 406.96 128.756 405.7 127.406 405.304V405.268C128.378 404.764 128.99 403.774 128.99 402.532C128.99 400.48 127.46 399.292 125.3 399.292H120.854V412ZM122.636 404.638V400.84H125.282C126.488 400.84 127.172 401.596 127.172 402.712C127.172 403.828 126.452 404.638 125.3 404.638H122.636ZM122.636 410.452V406.114H125.498C126.83 406.114 127.676 406.996 127.676 408.274C127.676 409.588 126.866 410.452 125.498 410.452H122.636ZM131.672 412H133.544V410.11H131.672V412ZM139.523 410.506V412.144C143.033 411.946 144.113 408.418 144.113 402.316V400.84H148.055V412H149.837V399.292H142.421V402.298C142.421 407.464 141.665 410.218 139.523 410.506ZM152.086 407.428C152.086 410.2 154.282 412.216 157 412.216C159.7 412.216 161.896 410.2 161.896 407.428C161.896 404.674 159.7 402.676 156.982 402.676C154.282 402.676 152.086 404.674 152.086 407.428ZM153.868 407.428C153.868 405.538 155.272 404.188 157 404.188C158.71 404.188 160.132 405.538 160.132 407.428C160.132 409.336 158.71 410.704 157 410.704C155.272 410.704 153.868 409.336 153.868 407.428ZM163.622 412H165.314L165.71 406.582C165.746 406.042 165.692 405.016 165.692 405.016H165.728C165.728 405.016 166.016 405.7 166.304 406.366L168.464 410.902H169.958L172.118 406.348C172.46 405.646 172.694 405.016 172.694 405.016H172.73C172.73 405.016 172.694 406.042 172.712 406.582L173.108 412H174.8L174.008 402.892H172.1L169.724 408.04C169.49 408.598 169.22 409.264 169.22 409.264H169.184C169.184 409.264 168.932 408.58 168.68 408.04L166.358 402.892H164.414L163.622 412ZM176.555 407.428C176.555 410.2 178.751 412.216 181.469 412.216C184.169 412.216 186.365 410.2 186.365 407.428C186.365 404.674 184.169 402.676 181.451 402.676C178.751 402.676 176.555 404.674 176.555 407.428ZM178.337 407.428C178.337 405.538 179.741 404.188 181.469 404.188C183.179 404.188 184.601 405.538 184.601 407.428C184.601 409.336 183.179 410.704 181.469 410.704C179.741 410.704 178.337 409.336 178.337 407.428ZM188.469 412H190.215V408.094H194.823V412H196.569V402.892H194.823V406.6H190.215V402.892H188.469V412ZM198.668 407.428C198.668 410.2 200.864 412.216 203.582 412.216C206.282 412.216 208.478 410.2 208.478 407.428C208.478 404.674 206.282 402.676 203.564 402.676C200.864 402.676 198.668 404.674 198.668 407.428ZM200.45 407.428C200.45 405.538 201.854 404.188 203.582 404.188C205.292 404.188 206.714 405.538 206.714 407.428C206.714 409.336 205.292 410.704 203.582 410.704C201.854 410.704 200.45 409.336 200.45 407.428ZM209.988 407.446C209.988 410.182 211.986 412.216 214.866 412.216C216.288 412.216 217.674 411.64 218.502 410.758L217.8 409.48C217.098 410.218 216 410.704 214.992 410.704C213.102 410.704 211.77 409.282 211.77 407.428C211.77 405.574 213.102 404.188 214.938 404.188C215.892 404.188 216.846 404.62 217.458 405.232L218.286 404.008C217.422 403.09 216.072 402.676 214.866 402.676C212.004 402.676 209.988 404.746 209.988 407.446ZM219.586 407.428C219.586 410.2 221.782 412.216 224.5 412.216C227.2 412.216 229.396 410.2 229.396 407.428C229.396 404.674 227.2 402.676 224.482 402.676C221.782 402.676 219.586 404.674 219.586 407.428ZM221.368 407.428C221.368 405.538 222.772 404.188 224.5 404.188C226.21 404.188 227.632 405.538 227.632 407.428C227.632 409.336 226.21 410.704 224.5 410.704C222.772 410.704 221.368 409.336 221.368 407.428ZM231.5 412H235.388C237.368 412 238.736 411.1 238.736 409.408C238.736 408.4 238.142 407.518 237.008 407.248V407.23C237.836 406.87 238.304 406.114 238.304 405.232C238.304 403.702 237.098 402.892 235.262 402.892H231.5V412ZM233.246 406.744V404.098H234.902C236 404.098 236.522 404.53 236.522 405.358C236.522 406.204 236 406.744 234.956 406.744H233.246ZM233.246 410.776V407.914H235.1C236.306 407.914 236.972 408.454 236.972 409.354C236.972 410.2 236.378 410.776 235.118 410.776H233.246ZM240.096 409.516C240.096 411.226 241.554 412.216 243.138 412.216C244.488 412.216 245.604 411.406 246.126 410.362H246.162C246.162 410.362 246.108 410.668 246.108 411.082V412H247.746V406.24C247.746 403.936 246.432 402.676 244.146 402.676C242.868 402.676 241.482 403.144 240.744 403.756L241.446 405.034C242.184 404.512 243.102 404.152 244.002 404.152C245.136 404.152 246 404.656 246 406.15V406.33H245.532C243.642 406.33 240.096 406.654 240.096 409.516ZM241.842 409.372C241.842 407.698 244.254 407.59 245.55 407.59H246V407.932C246 409.282 245.082 410.83 243.552 410.83C242.418 410.83 241.842 410.092 241.842 409.372Z" fill="#424754"/>
<path d="M1.674 453H3.456V447.42H10.062V453H11.826V440.292H10.062V445.872H3.456V440.292H1.674V453ZM13.971 450.516C13.971 452.226 15.429 453.216 17.013 453.216C18.363 453.216 19.479 452.406 20.001 451.362H20.037C20.037 451.362 19.983 451.668 19.983 452.082V453H21.621V447.24C21.621 444.936 20.307 443.676 18.021 443.676C16.743 443.676 15.357 444.144 14.619 444.756L15.321 446.034C16.059 445.512 16.977 445.152 17.877 445.152C19.011 445.152 19.875 445.656 19.875 447.15V447.33H19.407C17.517 447.33 13.971 447.654 13.971 450.516ZM15.717 450.372C15.717 448.698 18.129 448.59 19.425 448.59H19.875V448.932C19.875 450.282 18.957 451.83 17.427 451.83C16.293 451.83 15.717 451.092 15.717 450.372ZM23.3196 451.884C24.0756 452.604 25.2636 453.216 26.6676 453.216C28.5396 453.216 30.1596 452.262 30.1596 450.39C30.1596 449.22 29.4396 448.536 28.5216 448.248V448.212C29.2416 447.906 29.8536 447.276 29.8536 446.142C29.8536 444.522 28.5036 443.676 26.7756 443.676C25.3356 443.676 24.3096 444.144 23.6076 444.666L24.2556 445.836C24.9576 445.314 25.6776 445.044 26.4696 445.044C27.4776 445.044 28.0896 445.512 28.0896 446.358C28.0896 447.276 27.3876 447.672 26.3616 447.672H25.4076V448.932H26.5236C27.8016 448.932 28.3956 449.436 28.3956 450.318C28.3956 451.308 27.5496 451.812 26.5056 451.812C25.4076 451.812 24.5436 451.164 24.1296 450.732L23.3196 451.884ZM31.5139 450.516C31.5139 452.226 32.9719 453.216 34.5559 453.216C35.9059 453.216 37.0219 452.406 37.5439 451.362H37.5799C37.5799 451.362 37.5259 451.668 37.5259 452.082V453H39.1639V447.24C39.1639 444.936 37.8499 443.676 35.5639 443.676C34.2859 443.676 32.8999 444.144 32.1619 444.756L32.8639 446.034C33.6019 445.512 34.5199 445.152 35.4199 445.152C36.5539 445.152 37.4179 445.656 37.4179 447.15V447.33H36.9499C35.0599 447.33 31.5139 447.654 31.5139 450.516ZM33.2599 450.372C33.2599 448.698 35.6719 448.59 36.9679 448.59H37.4179V448.932C37.4179 450.282 36.4999 451.83 34.9699 451.83C33.8359 451.83 33.2599 451.092 33.2599 450.372ZM41.7445 456.6H43.4905V452.46C43.4905 451.992 43.4185 451.668 43.4185 451.668H43.4545C44.0845 452.64 45.1285 453.216 46.2805 453.216C48.6745 453.216 50.4025 451.344 50.4025 448.446C50.4025 445.62 48.8725 443.676 46.4065 443.676C45.0745 443.676 43.9225 444.288 43.3465 445.386H43.3105C43.3105 445.386 43.3645 445.08 43.3645 444.702V443.892H41.7445V456.6ZM43.4365 448.482C43.4365 446.178 44.6965 445.206 46.0645 445.206C47.5765 445.206 48.6385 446.484 48.6385 448.464C48.6385 450.534 47.4505 451.704 46.0105 451.704C44.3365 451.704 43.4365 450.102 43.4365 448.482ZM52.1591 447.762C52.1591 450.912 53.5451 453.216 56.6231 453.216C59.1971 453.216 60.9251 451.416 60.9251 448.896C60.9251 446.322 59.3411 444.702 57.0551 444.702C55.8491 444.702 54.6431 445.098 53.8331 446.322H53.7971C53.9231 444.576 54.7871 443.514 56.6051 442.686L60.0971 441.228L59.5211 439.788L56.2631 441.192C53.0951 442.524 52.1591 444.504 52.1591 447.762ZM53.9771 448.896C53.9771 447.294 55.0751 446.088 56.6231 446.088C57.9911 446.088 59.1611 447.15 59.1611 448.932C59.1611 450.696 57.9911 451.74 56.5511 451.74C55.1471 451.74 53.9771 450.696 53.9771 448.896ZM62.346 450.516C62.346 452.226 63.804 453.216 65.388 453.216C66.738 453.216 67.854 452.406 68.376 451.362H68.412C68.412 451.362 68.358 451.668 68.358 452.082V453H69.996V447.24C69.996 444.936 68.682 443.676 66.396 443.676C65.118 443.676 63.732 444.144 62.994 444.756L63.696 446.034C64.434 445.512 65.352 445.152 66.252 445.152C67.386 445.152 68.25 445.656 68.25 447.15V447.33H67.782C65.892 447.33 62.346 447.654 62.346 450.516ZM64.092 450.372C64.092 448.698 66.504 448.59 67.8 448.59H68.25V448.932C68.25 450.282 67.332 451.83 65.802 451.83C64.668 451.83 64.092 451.092 64.092 450.372ZM71.9826 448.446C71.9826 451.146 73.9626 453.216 76.8246 453.216C78.0846 453.216 79.4706 452.73 80.3526 451.92L79.6146 450.642C78.8946 451.29 77.9046 451.704 76.9326 451.704C75.2946 451.704 73.8906 450.642 73.8006 448.68H80.4246C80.4606 448.428 80.4966 448.176 80.4966 447.942C80.4966 445.602 79.1286 443.676 76.5546 443.676C73.9626 443.676 71.9826 445.548 71.9826 448.446ZM73.8546 447.42C74.1066 445.908 75.1686 445.026 76.5186 445.026C77.7066 445.026 78.6786 445.854 78.7326 447.42H73.8546ZM82.5961 453H86.4841C88.4641 453 89.8321 452.1 89.8321 450.408C89.8321 449.4 89.2381 448.518 88.1041 448.248V448.23C88.9321 447.87 89.4001 447.114 89.4001 446.232C89.4001 444.702 88.1941 443.892 86.3581 443.892H82.5961V453ZM84.3421 447.744V445.098H85.9981C87.0961 445.098 87.6181 445.53 87.6181 446.358C87.6181 447.204 87.0961 447.744 86.0521 447.744H84.3421ZM84.3421 451.776V448.914H86.1961C87.4021 448.914 88.0681 449.454 88.0681 450.354C88.0681 451.2 87.4741 451.776 86.2141 451.776H84.3421ZM96.4477 452.388C97.1497 452.874 97.9057 453.216 98.7697 453.216C100.354 453.216 101.164 451.938 101.668 450.66L105.718 440.292H103.846L101.488 446.7C101.218 447.474 100.948 448.356 100.948 448.356H100.912C100.912 448.356 100.588 447.474 100.192 446.682L97.0957 440.292H95.1337L100.156 450.246C99.8137 451.128 99.4537 451.668 98.7157 451.668C98.1037 451.668 97.5637 451.272 97.2577 451.038L96.4477 452.388ZM106.52 453H108.266V449.094H112.874V453H114.62V443.892H112.874V447.6H108.266V443.892H106.52V453ZM117.313 453H118.987L122.929 447.564C123.217 447.132 123.667 446.52 123.721 446.358H123.757C123.757 446.502 123.703 447.132 123.703 447.564V453H125.395V443.892H123.703L119.779 449.328C119.473 449.76 119.041 450.39 118.969 450.552H118.933C118.951 450.462 118.987 449.814 118.987 449.328V443.892H117.313V453ZM128.071 453H131.959C133.939 453 135.307 452.1 135.307 450.408C135.307 449.4 134.713 448.518 133.579 448.248V448.23C134.407 447.87 134.875 447.114 134.875 446.232C134.875 444.702 133.669 443.892 131.833 443.892H128.071V453ZM129.817 447.744V445.098H131.473C132.571 445.098 133.093 445.53 133.093 446.358C133.093 447.204 132.571 447.744 131.527 447.744H129.817ZM129.817 451.776V448.914H131.671C132.877 448.914 133.543 449.454 133.543 450.354C133.543 451.2 132.949 451.776 131.689 451.776H129.817ZM136.828 448.446C136.828 451.146 138.808 453.216 141.67 453.216C142.93 453.216 144.316 452.73 145.198 451.92L144.46 450.642C143.74 451.29 142.75 451.704 141.778 451.704C140.14 451.704 138.736 450.642 138.646 448.68H145.27C145.306 448.428 145.342 448.176 145.342 447.942C145.342 445.602 143.974 443.676 141.4 443.676C138.808 443.676 136.828 445.548 136.828 448.446ZM138.7 447.42C138.952 445.908 140.014 445.026 141.364 445.026C142.552 445.026 143.524 445.854 143.578 447.42H138.7ZM147.442 456.6H149.188V452.46C149.188 451.992 149.116 451.668 149.116 451.668H149.152C149.782 452.64 150.826 453.216 151.978 453.216C154.372 453.216 156.1 451.344 156.1 448.446C156.1 445.62 154.57 443.676 152.104 443.676C150.772 443.676 149.62 444.288 149.044 445.386H149.008C149.008 445.386 149.062 445.08 149.062 444.702V443.892H147.442V456.6ZM149.134 448.482C149.134 446.178 150.394 445.206 151.762 445.206C153.274 445.206 154.336 446.484 154.336 448.464C154.336 450.534 153.148 451.704 151.708 451.704C150.034 451.704 149.134 450.102 149.134 448.482ZM157.658 448.446C157.658 451.182 159.656 453.216 162.536 453.216C163.958 453.216 165.344 452.64 166.172 451.758L165.47 450.48C164.768 451.218 163.67 451.704 162.662 451.704C160.772 451.704 159.44 450.282 159.44 448.428C159.44 446.574 160.772 445.188 162.608 445.188C163.562 445.188 164.516 445.62 165.128 446.232L165.956 445.008C165.092 444.09 163.742 443.676 162.536 443.676C159.674 443.676 157.658 445.746 157.658 448.446ZM168.061 453H169.735L173.677 447.564C173.965 447.132 174.415 446.52 174.469 446.358H174.505C174.505 446.502 174.451 447.132 174.451 447.564V453H176.143V443.892H174.451L170.527 449.328C170.221 449.76 169.789 450.39 169.717 450.552H169.681C169.699 450.462 169.735 449.814 169.735 449.328V443.892H168.061V453ZM181.015 453H182.743V445.386H185.929V443.892H177.847V445.386H181.015V453ZM186.75 448.446C186.75 451.146 188.73 453.216 191.592 453.216C192.852 453.216 194.238 452.73 195.12 451.92L194.382 450.642C193.662 451.29 192.672 451.704 191.7 451.704C190.062 451.704 188.658 450.642 188.568 448.68H195.192C195.228 448.428 195.264 448.176 195.264 447.942C195.264 445.602 193.896 443.676 191.322 443.676C188.73 443.676 186.75 445.548 186.75 448.446ZM188.622 447.42C188.874 445.908 189.936 445.026 191.286 445.026C192.474 445.026 193.446 445.854 193.5 447.42H188.622ZM199.454 453H201.182V445.386H204.368V443.892H196.286V445.386H199.454V453Z" fill="#424754"/>
<path d="M1.35 494H3.024L6.966 488.564C7.254 488.132 7.704 487.52 7.758 487.358H7.794C7.794 487.502 7.74 488.132 7.74 488.564V494H9.432V484.892H7.74L3.816 490.328C3.51 490.76 3.078 491.39 3.006 491.552H2.97C2.988 491.462 3.024 490.814 3.024 490.328V484.892H1.35V494ZM18.3898 492.56C19.5418 490.76 19.6858 488.168 19.6858 486.8V486.314H22.4218V492.56H18.3898ZM15.4738 492.56V496.16H17.1118V494H23.8618V496.16H25.4638V492.56H24.1678V484.892H18.0118V486.566C18.0118 487.97 17.8678 490.814 16.5898 492.56H15.4738ZM27.2953 497.6H29.0413V493.46C29.0413 492.992 28.9693 492.668 28.9693 492.668H29.0053C29.6353 493.64 30.6793 494.216 31.8313 494.216C34.2253 494.216 35.9533 492.344 35.9533 489.446C35.9533 486.62 34.4233 484.676 31.9573 484.676C30.6253 484.676 29.4733 485.288 28.8973 486.386H28.8613C28.8613 486.386 28.9153 486.08 28.9153 485.702V484.892H27.2953V497.6ZM28.9873 489.482C28.9873 487.178 30.2473 486.206 31.6153 486.206C33.1273 486.206 34.1893 487.484 34.1893 489.464C34.1893 491.534 33.0013 492.704 31.5613 492.704C29.8873 492.704 28.9873 491.102 28.9873 489.482ZM37.3922 495.89L36.7802 497.222C36.7802 497.222 37.5182 497.78 38.5262 497.78C39.8042 497.78 40.9382 497.06 41.4782 495.638L45.7622 484.892H43.8722L41.6582 490.868C41.4962 491.336 41.3522 491.948 41.3522 491.948H41.3162C41.3162 491.948 41.1542 491.3 40.9742 490.85L38.6882 484.892H36.7262L40.5422 493.892L40.0922 494.936C39.7502 495.764 39.1562 496.286 38.4362 496.286C37.8962 496.286 37.3922 495.89 37.3922 495.89ZM47.475 494H49.221V486.386H53.181V484.892H47.475V494ZM54.9105 494H56.5845L60.5265 488.564C60.8145 488.132 61.2645 487.52 61.3185 487.358H61.3545C61.3545 487.502 61.3005 488.132 61.3005 488.564V494H62.9925V484.892H61.3005L57.3765 490.328C57.0705 490.76 56.6385 491.39 56.5665 491.552H56.5305C56.5485 491.462 56.5845 490.814 56.5845 490.328V484.892H54.9105V494ZM65.0744 489.446C65.0744 492.146 67.0544 494.216 69.9164 494.216C71.1764 494.216 72.5624 493.73 73.4444 492.92L72.7064 491.642C71.9864 492.29 70.9964 492.704 70.0244 492.704C68.3864 492.704 66.9824 491.642 66.8924 489.68H73.5164C73.5524 489.428 73.5884 489.176 73.5884 488.942C73.5884 486.602 72.2204 484.676 69.6464 484.676C67.0544 484.676 65.0744 486.548 65.0744 489.446ZM66.9464 488.42C67.1984 486.908 68.2604 486.026 69.6104 486.026C70.7984 486.026 71.7704 486.854 71.8244 488.42H66.9464Z" fill="#424754"/>
<g clip-path="url(#clip0)">
<path d="M1099.31 246.393C1098.04 243.125 1099.86 241.491 1100.58 238.586C1101.31 235.681 1098.95 226.603 1098.95 226.603C1098.95 226.603 1091.32 195.193 1088.96 189.02C1087.96 186.408 1085.79 184.611 1083.62 183.404C1083.47 182.603 1083.26 182.086 1082.96 181.939C1080.86 180.887 1075.62 178.603 1072.12 177.971C1071.47 176.849 1070.7 175.802 1069.81 174.849C1070.43 173.672 1070.71 172.352 1070.64 171.027C1070.41 167.602 1067.82 164.532 1068.16 161.116C1068.41 158.526 1070.31 156.397 1071.04 153.899C1071.34 152.777 1071.42 151.603 1071.25 150.452C1071.09 149.301 1070.68 148.196 1070.07 147.206C1070.61 147.777 1071.15 148.348 1071.68 148.92C1072.42 147.825 1072.77 146.521 1072.69 145.207C1072.61 143.893 1072.1 142.642 1071.24 141.645C1069.53 139.767 1066.69 139.062 1065.37 136.899C1064.01 134.676 1064.74 131.655 1063.46 129.388C1060.32 123.836 1052.27 127.772 1047.45 125.834C1045.47 125.038 1043.97 124.161 1041.74 124.224C1039.85 124.333 1037.97 124.683 1036.17 125.265C1033.58 126.014 1031.32 127.629 1029.78 129.84C1029.93 129.667 1030.1 129.508 1030.28 129.364C1031.45 128.449 1033.49 128.525 1034.11 129.874C1034.26 130.213 1034.32 130.582 1034.29 130.951C1034.19 132.576 1032.77 133.79 1031.36 134.604C1029.95 135.417 1028.36 136.098 1027.44 137.441C1025.91 139.658 1026.81 142.634 1026.81 145.322C1026.8 147.03 1026.4 148.714 1025.65 150.249C1024.9 151.784 1023.82 153.132 1022.48 154.192L1027.6 152.098C1025.16 156.379 1023.55 161.089 1022.87 165.973L1029.8 160.25C1027.23 164.333 1025.67 168.967 1025.25 173.771L1030.81 168.074C1031.06 168.519 1031.19 169.025 1031.18 169.536L1030.6 171.773C1030.39 172.217 1030.17 172.65 1029.92 173.071C1029.02 174.607 1028.1 176.498 1028.93 178.067L1028.94 178.065C1028.06 181.028 1026.73 183.994 1023.77 185.435C1027.05 185.778 1030.47 184.138 1031.96 181.529C1032.2 181.999 1032.49 182.441 1032.83 182.847C1032.92 182.966 1033.02 183.085 1033.11 183.203L1032.29 183.748L1030.1 185.208C1030.1 185.208 1015.75 188.112 1016.66 193.559C1016.7 193.783 1016.74 194.051 1016.79 194.351L1012.66 201.366L1006.67 221.701C1006.67 221.701 1003.58 228.237 1004.12 230.961C1004.67 233.684 1004.12 234.773 1004.12 239.675C1004.12 244.578 1001.76 246.575 1004.12 250.569C1006.49 254.563 1013.57 266.183 1013.57 266.183L1015.13 267.35C1015.05 268.05 1015.08 268.758 1015.21 269.451C1016.66 276.714 1030.28 346.251 1030.28 346.251C1030.28 346.251 1023.38 401.264 1037.37 404.713C1039.12 405.146 1040.84 405.538 1042.52 405.888L1044.63 419.783L1043.36 437.394C1043.36 437.394 1033.73 459.181 1051.35 460.452C1068.97 461.723 1060.98 441.57 1060.98 441.57C1061.91 439.849 1062.29 437.885 1062.07 435.942C1061.89 434.325 1060.38 425.915 1058.9 417.826C1065.58 417.024 1064.33 409.931 1063.44 406.812C1063.83 406.587 1064.12 406.228 1064.25 405.803C1064.45 405.078 1063.98 402.229 1063.13 398.237C1062.44 394.268 1061.26 387.842 1060.45 383.49L1064.8 384.197L1083.14 276.714C1083.14 276.714 1083.26 275.003 1083.21 272.5C1085.72 271.203 1088.3 270.064 1090.95 269.088C1096.95 266.728 1099.31 258.013 1101.31 254.382C1103.31 250.751 1100.58 249.661 1099.31 246.393ZM1034.17 177.958C1034.76 177.549 1035.46 177.313 1036.18 177.277C1036.02 178.122 1034.57 178.368 1033.35 178.811C1033.58 178.483 1033.85 178.195 1034.17 177.958ZM1025.01 232.05C1026.49 234.467 1023.82 241.015 1021.42 246.212C1020.04 245.027 1018.61 245.4 1020.29 242.036C1021.44 239.904 1022.12 237.552 1022.29 235.137C1022.29 234.721 1022.5 231.671 1024.29 230.404C1024.48 230.974 1024.72 231.525 1025.01 232.05ZM1019.5 252.907C1020.33 252.569 1021.6 252.048 1023.3 251.469C1022.48 252.54 1021.55 253.815 1020.61 255.207C1020.26 254.939 1019.98 254.591 1019.78 254.191C1019.59 253.791 1019.49 253.351 1019.5 252.907ZM1078.42 255.29C1077.32 254.117 1076.42 253.068 1075.69 252.129C1077.06 252.49 1078.45 252.877 1079.87 253.292C1080.58 253.398 1081.3 253.35 1081.99 253.152C1082.05 254.407 1082.05 256.197 1082.05 256.197L1080.06 257.574C1079.61 256.749 1079.06 255.982 1078.42 255.29V255.29ZM1084.06 248.993C1084.04 249.011 1084.01 249.033 1083.99 249.052C1083.89 248.334 1083.73 247.627 1083.51 246.938C1082.32 243.185 1081.68 236.527 1081.34 230.845L1084.78 242.399C1084.78 242.399 1084.96 248.209 1084.06 248.993Z" fill="#D0CDE1"/>
<path d="M1013.5 201.271C1013.5 201.271 994.86 169.256 994.277 165.764C993.695 162.271 984.377 155.868 984.377 155.868C981.193 152.686 975.969 151.68 970.472 151.732C972.542 150.02 965.151 148.869 964.575 147.719C963.993 146.555 962.246 146.555 959.916 144.809C957.587 143.063 951.772 144.518 951.772 144.518C950.897 142.679 950.289 140.726 949.965 138.717C952.447 135.782 953.806 132.062 953.801 128.219C953.801 128.177 953.799 128.136 953.798 128.095C953.946 128.325 954.095 128.557 954.243 128.796C955.334 122.265 957.26 116.835 953.589 110.877C950.988 106.654 946.915 103.542 942.155 102.14L938.659 104.936L940.018 101.675C938.875 101.501 937.719 101.434 936.563 101.476L933.418 105.518L934.72 101.614C931.99 101.953 929.361 102.854 926.997 104.259C924.633 105.664 922.586 107.544 920.986 109.779C916.982 115.549 917.25 123.569 921.188 129.383C921.201 129.343 921.211 129.303 921.224 129.262C921.398 131.982 922.252 134.616 923.708 136.921C925.163 139.225 927.174 141.129 929.556 142.456L930.545 150.364C929.655 151.19 928.513 151.694 927.303 151.794C925.556 151.794 923.809 156.451 923.809 156.451C923.809 156.451 922.818 156.95 921.751 159.308C919.002 161.179 910.616 167.055 907.504 171.161C905.664 172.066 903.686 174.08 904.007 178.57C904.59 186.719 904.007 224.555 904.007 224.555C904.007 224.555 898.766 256.57 900.513 258.898C902.26 261.227 899.931 268.794 899.931 268.794L901.678 269.182V271.122C901.678 271.122 896.423 295.47 904.59 294.406C917.985 292.659 908.084 272.868 908.084 272.868V270.605L910.414 271.122C910.414 271.122 911.578 262.973 913.908 262.391C914.718 262.188 915.669 260.012 916.565 257.262C917.088 261.553 917.402 264.137 917.402 264.137L921.046 263.328L922.061 267.047C922.312 267.188 922.573 267.306 922.844 267.402L922.061 271.704C922.061 271.704 921.479 276.361 922.061 279.271C922.355 280.739 933.166 312.113 943.811 342.855L943.61 350.286C943.61 350.286 938.368 356.107 939.533 360.182C940.698 364.256 936.621 398.017 936.621 398.017L933.127 414.898L934.006 415.168L933.199 418.126C932.504 418.477 931.885 418.963 931.38 419.555C926.72 424.793 920.897 439.928 920.897 439.928C920.897 439.928 910.414 455.644 926.72 455.062C943.027 454.48 944.192 448.659 944.192 448.659C944.192 448.659 946.522 433.525 946.522 432.943C946.522 432.361 945.357 426.377 945.357 426.377L944.904 425.878L945.22 418.617L948.269 419.555C948.269 419.555 951.181 404.42 953.51 402.674C954.324 402.064 956.491 395.265 958.964 386.533C961.491 393.808 963.939 418.963 964.734 421.246C964.452 421.63 964.204 422.038 963.993 422.465C961.375 427.486 958.458 432.346 955.257 437.017C955.257 437.017 936.621 448.077 955.257 450.987C955.257 450.987 965.74 451.569 970.982 448.077C976.223 444.584 990.201 439.346 990.201 438.181C990.201 437.017 986.706 419.904 983.212 421.767L980.871 416.386L983.212 415.48L968.467 349.332C968.816 347.922 969.072 346.491 969.235 345.047C969.235 341.999 976.776 282.645 978.695 267.59C987.14 269.981 994.86 252.495 994.86 252.495L996.774 249.051L999.519 250.749C999.519 250.749 1001.85 244.928 1005.34 244.346C1008.84 243.764 1015.24 212.913 1015.24 208.839C1015.19 206.223 1014.59 203.646 1013.5 201.271ZM986.361 246.877C985.788 245.968 985.123 245.12 984.377 244.346C985.899 240.382 987.069 236.292 987.871 232.122C989.036 225.719 986.124 204.764 986.124 204.764L986.073 203.341C988.931 207.091 992.53 212.091 992.53 213.495C992.53 214.173 992.688 214.841 992.991 215.448C993.294 216.054 993.735 216.581 994.277 216.988L990.783 229.212C990.783 229.212 988.453 235.032 987.871 237.943C987.522 239.668 987.327 241.422 987.289 243.182L988.114 243.692L986.361 246.877Z" fill="#D0CDE1"/>
<path d="M746.877 212.045L749.985 211.346L737.172 175.257L709.509 165.07C709.509 165.07 709.403 165.188 709.207 165.39C706.848 163.108 705.846 159.796 705.428 157.189C707.652 156.291 709.651 154.913 711.282 153.154C712.912 151.394 714.134 149.297 714.86 147.011C715.586 144.726 715.798 142.308 715.481 139.931C715.165 137.554 714.327 135.276 713.028 133.26C715.307 132.713 716.121 130.646 716.886 128.182C716.413 128.042 715.93 127.937 715.441 127.867C715.799 127.063 716.158 126.26 716.516 125.457C715.886 125.4 715.256 125.343 714.626 125.287C714.787 124.536 714.948 123.785 715.109 123.034C714.306 123.588 713.502 124.142 712.699 124.697C712.972 123.908 713.04 123.063 712.896 122.242C712.753 121.42 712.402 120.648 711.878 119.998C710.811 118.71 709.42 117.729 707.847 117.157C704.771 115.948 701.422 115.609 698.166 116.178C694.91 116.746 691.874 118.201 689.391 120.381L689.217 119.703C684.3 123.481 681.083 129.053 680.27 135.198C679.499 141.273 682.419 147.458 686.213 152.265C686.181 152.055 686.147 151.845 686.112 151.636C686.276 151.862 686.446 152.084 686.62 152.301L687.087 170.018L685.919 171.019C685.917 171.02 666.317 179.883 665.553 190.469L665.55 190.477C664.374 195.63 663.792 222.406 663.792 222.406H665.404L663.792 232.884L653.309 273.63C653.309 273.63 639.914 291.093 651.561 294.585C658.799 296.755 660.864 288.362 661.391 281.695C661.81 283.348 663.065 284.465 665.539 284.69C665.733 284.707 665.941 284.722 666.142 284.738C660.635 298.964 664.374 345.227 664.374 345.227C661.462 351.048 695.823 391.212 695.823 391.212L697.892 390.109L698.339 391.004C697.188 391.114 696.405 391.212 696.405 391.212V409.257C696.405 409.257 691.164 427.301 698.152 430.794C699.961 431.698 701.847 431.04 703.65 429.572C703.305 435.141 702.811 443.451 702.811 445.346C702.811 448.256 710.382 453.495 710.382 453.495C710.382 453.495 712.13 459.898 726.107 459.898C740.084 459.898 729.601 443.018 729.601 443.018L722.03 426.137C722.03 426.137 721.464 426.414 719.749 425.019L720.363 418.269L723.777 418.57L728.436 350.466C728.436 350.466 732.513 289.928 733.095 280.615C733.232 277.629 733.162 274.637 732.885 271.661L749.985 236.376L746.877 212.045ZM734.26 234.63L732.513 240.715V227.257L734.26 234.63ZM661.553 277.797C661.568 275.664 661.462 274.212 661.462 274.212L672.848 251.452L672.527 258.496C672.527 258.496 663.409 270.024 661.553 277.797ZM688.252 343.481L699.317 304.481L705.723 351.63L705.264 368.771C704.484 367.196 703.858 365.549 703.394 363.854C701.647 356.869 688.252 343.481 688.252 343.481Z" fill="#D0CDE1"/>
<path d="M845.853 436.124C840.397 433.878 829.804 429.065 828.52 426.499C827.236 423.932 820.817 404.041 820.817 404.041L819.163 404.162C818.95 395.126 818.04 360.105 816.644 355.918C816.644 355.918 823.384 300.416 809.903 278.28L807.474 268.472C808.271 264.54 808.169 255.435 807.656 253.897C807.014 251.973 815.039 245.877 812.792 242.027C810.545 238.177 804.446 225.024 804.446 225.024C804.446 225.024 805.088 216.682 796.422 208.983C796.422 208.983 793.889 194.652 782.477 194.438C780.934 191.747 778.774 187.468 779.41 185.563C780.09 183.523 782.691 177.163 784.161 173.603C784.941 173.251 785.691 172.834 786.401 172.357C795.478 168.292 801.876 158.521 801.876 147.107C801.876 134.888 794.547 124.547 784.446 121.079C784.896 119.894 785.079 118.624 784.985 117.36C784.89 116.096 784.518 114.868 783.896 113.763C783.274 112.658 782.417 111.703 781.386 110.966C780.354 110.228 779.173 109.726 777.926 109.495C776.679 109.264 775.396 109.309 774.169 109.628C772.941 109.947 771.798 110.531 770.821 111.34C769.845 112.148 769.057 113.161 768.515 114.307C767.973 115.453 767.689 116.704 767.684 117.972C767.128 116.656 766.908 115.223 767.041 113.801C767.175 112.379 767.659 111.012 768.45 109.822C769.24 108.632 770.314 107.657 771.574 106.983C772.833 106.309 774.241 105.957 775.67 105.959C776.232 105.96 776.794 106.015 777.345 106.124C775.442 105.219 773.275 105.04 771.249 105.618C769.222 106.196 767.477 107.493 766.339 109.266C765.201 111.039 764.749 113.165 765.067 115.247C765.385 117.329 766.453 119.224 768.068 120.576C768.168 120.892 768.286 121.203 768.422 121.506C758.917 125.34 752.137 135.355 752.137 147.107C752.137 158.008 757.972 167.411 766.403 171.776C766.358 175.322 765.479 181.3 760.586 184.944C758.058 183.789 754.551 182.522 752.3 183.097C751.136 182.19 749.38 181.891 746.99 184.279C742.175 189.092 738.003 201.604 738.003 209.303C738.003 217.003 738.966 261.597 738.966 261.597C738.966 261.597 733.83 263.522 737.361 266.409C738.09 267.017 739.005 267.356 739.954 267.373L743.459 293.358C743.459 293.358 741.212 318.382 749.879 318.703C750.559 318.741 751.234 318.575 751.819 318.227L745.385 347.256C745.385 347.256 730.62 356.881 719.065 375.809C713.113 385.559 710.145 391.556 708.663 395.087L706.546 393.775L699.163 407.891C699.163 407.891 682.793 417.837 686.324 425.216C689.855 432.595 693.065 434.52 693.065 434.52L695.312 433.557L699.484 441.257C699.484 441.257 710.398 456.977 728.052 448.956C728.881 447.844 729.328 446.494 729.328 445.107C729.328 443.72 728.881 442.37 728.052 441.257C725.163 437.086 717.781 428.103 717.781 428.103L722.595 403.721L721.599 403.103L752.126 366.185C752.126 366.185 761.113 360.731 764.323 355.918C767.533 351.106 787.434 301.379 787.434 301.379L798.669 353.352C798.669 353.352 798.027 372.28 800.916 384.472C802.49 391.31 803.517 398.263 803.986 405.265L803.163 405.325L805.088 419.762C805.088 419.762 796.743 440.294 802.521 441.898C806.631 442.96 810.816 443.71 815.039 444.144L815.681 441.898C815.681 441.898 840.397 455.373 849.384 445.427C849.384 445.427 851.31 438.369 845.853 436.124ZM757.904 278.601C758.867 279.563 758.546 284.055 758.546 284.055L756.62 296.567L754.696 305.245C754.43 301.145 753.893 297.067 753.089 293.038L752.2 269.06C752.375 269.17 752.567 269.25 752.768 269.297C753.41 269.297 753.089 263.843 753.089 263.843C753.089 263.843 753.463 262.869 753.931 261.332C755.179 265.066 756.702 267.502 758.546 268.014L758.867 272.184C758.867 272.184 754.694 274.109 758.546 274.109C758.769 274.101 758.991 274.068 759.207 274.011L758.867 275.713C758.867 275.713 756.941 277.638 757.904 278.601Z" fill="#D0CDE1"/>
<path d="M840.367 451.069C982.871 451.069 1098.39 449.166 1098.39 446.818C1098.39 444.47 982.871 442.567 840.367 442.567C697.863 442.567 582.341 444.47 582.341 446.818C582.341 449.166 697.863 451.069 840.367 451.069Z" fill="#3F3D56"/>
<path d="M930.674 468.781C1087.43 468.781 1214.5 463.865 1214.5 457.8C1214.5 451.735 1087.43 446.818 930.674 446.818C773.92 446.818 646.847 451.735 646.847 457.8C646.847 463.865 773.92 468.781 930.674 468.781Z" fill="#3F3D56"/>
<path d="M878.291 485.077C955.219 485.077 1017.58 480.16 1017.58 474.095C1017.58 468.03 955.219 463.113 878.291 463.113C801.362 463.113 738.999 468.03 738.999 474.095C738.999 480.16 801.362 485.077 878.291 485.077Z" fill="#3F3D56"/>
<path d="M1079.61 492.87C1113.86 492.87 1141.63 490.333 1141.63 487.202C1141.63 484.072 1113.86 481.534 1079.61 481.534C1045.35 481.534 1017.58 484.072 1017.58 487.202C1017.58 490.333 1045.35 492.87 1079.61 492.87Z" fill="#3F3D56"/>
<path d="M994.545 512C1010.79 512 1023.96 509.462 1023.96 506.332C1023.96 503.202 1010.79 500.664 994.545 500.664C978.298 500.664 965.127 503.202 965.127 506.332C965.127 509.462 978.298 512 994.545 512Z" fill="#3F3D56"/>
<path d="M754.949 487.911C771.196 487.911 784.367 485.373 784.367 482.243C784.367 479.112 771.196 476.575 754.949 476.575C738.702 476.575 725.531 479.112 725.531 482.243C725.531 485.373 738.702 487.911 754.949 487.911Z" fill="#3F3D56"/>
<path d="M900.266 418.124L903.101 437.962L917.278 436.545L915.861 415.998L900.266 418.124Z" fill="#FFB8B8"/>
<path d="M832.924 418.124L830.088 437.962L815.911 436.545L817.329 415.998L832.924 418.124Z" fill="#FFB8B8"/>
<path d="M812.366 212.658C812.366 212.658 799.607 227.537 802.442 250.918C805.278 274.298 810.24 327.436 810.24 327.436L813.784 421.666L836.468 420.249L840.012 340.189L851.354 275.715L881.835 350.816C881.835 350.816 896.721 420.958 897.43 420.958C898.139 420.958 918.696 418.832 918.696 418.832L908.772 335.938C908.772 335.938 893.177 215.492 883.962 213.367C874.746 211.241 812.366 212.658 812.366 212.658Z" fill="#2F2E41"/>
<path d="M918.696 433.711C918.696 433.711 905.937 425.209 900.975 435.128C896.013 445.047 900.266 452.132 900.266 452.132C900.266 452.132 904.519 454.966 902.392 457.8C900.266 460.634 899.557 479.055 917.987 476.221C936.418 473.387 927.203 454.257 927.203 454.257L918.696 433.711Z" fill="#2F2E41"/>
<path d="M814.494 433.711C814.494 433.711 827.253 425.209 832.215 435.128C837.177 445.047 832.924 452.132 832.924 452.132C832.924 452.132 828.671 454.966 830.798 457.8C832.924 460.634 833.633 479.055 815.203 476.221C796.772 473.387 805.987 454.257 805.987 454.257L814.494 433.711Z" fill="#2F2E41"/>
<path d="M829.733 74.855C829.733 74.855 836.113 92.5675 831.151 102.487C826.189 112.406 838.949 123.742 838.949 123.742C838.949 123.742 872.265 106.738 868.012 98.2355C863.759 89.7335 856.67 78.3975 858.088 71.3125L829.733 74.855Z" fill="#FFB8B8"/>
<path d="M842.139 81.5858C854.667 81.5858 864.822 71.4351 864.822 58.9137C864.822 46.3923 854.667 36.2417 842.139 36.2417C829.611 36.2417 819.455 46.3923 819.455 58.9137C819.455 71.4351 829.611 81.5858 842.139 81.5858Z" fill="#FFB8B8"/>
<path d="M825.835 101.424C825.835 101.424 848.595 120.354 865.57 93.5303L883.253 103.549L892.468 211.241C892.468 211.241 840.721 240.998 815.911 215.492L819.455 115.594L825.835 101.424Z" fill="#D0CDE1"/>
<path d="M832.982 90.8193L801.025 112.051L812.367 164.48L797.48 245.958L821.582 209.824L832.982 90.8193Z" fill="#575A89"/>
<path d="M861.227 84.9097L869.076 90.0877L900.975 101.424L896.013 189.278L909.481 245.958L890.342 255.877C890.342 255.877 886.798 228.954 864.823 215.492C842.848 202.031 856.213 88.9421 861.227 84.9097Z" fill="#575A89"/>
<path d="M808.114 222.577L817.329 228.954C817.329 228.954 805.633 241.352 803.506 239.227C802.891 238.636 802.413 237.918 802.107 237.122C801.8 236.326 801.673 235.472 801.734 234.622L799.607 229.662L808.114 222.577Z" fill="#FFB8B8"/>
<path d="M869.373 221.199L866.24 226.12C866.24 226.12 857.025 230.371 859.152 233.205C861.278 236.039 879 242.416 882.544 236.039L886.088 229.663L869.373 221.199Z" fill="#FFB8B8"/>
<path d="M805.278 111.343L800.316 112.051L792.164 164.835C792.164 164.835 788.974 174.399 792.518 197.071C796.063 219.743 799.573 234.507 799.573 234.507L815.202 223.286L808.113 204.865L817.329 137.557L805.278 111.343Z" fill="#575A89"/>
<path d="M889.633 100.007L900.975 101.424C900.975 101.424 913.734 114.885 915.861 129.055C917.987 143.225 917.278 183.61 917.278 183.61L884.671 235.33L866.949 222.577L891.759 178.65L879.709 126.221L889.633 100.007Z" fill="#575A89"/>
<path d="M863.77 38.4081C860.34 32.8407 854.971 28.7382 848.696 26.8901L844.087 30.5752L845.879 26.2769C844.372 26.0472 842.847 25.9591 841.324 26.0138L837.177 31.3426L838.894 26.1963C835.295 26.6432 831.829 27.8305 828.712 29.6832C825.596 31.5359 822.898 34.0139 820.787 36.9609C815.51 44.567 814.619 55.1448 819.81 62.8105C821.235 58.4336 822.964 54.3267 824.389 49.9498C825.509 50.1024 826.644 50.1079 827.766 49.9662L829.499 45.9231L829.984 49.7952C835.357 49.3273 843.327 48.3 848.422 47.3588L847.926 44.3883L850.89 46.8568C852.451 46.4976 853.377 46.172 853.301 45.9231C857.089 52.0278 860.844 55.927 864.632 62.0317C866.07 53.4208 868.609 46.2632 863.77 38.4081Z" fill="#2F2E41"/>
<path d="M862.514 61.271C863.362 61.271 864.05 59.8967 864.05 58.2014C864.05 56.5061 863.362 55.1318 862.514 55.1318C861.666 55.1318 860.979 56.5061 860.979 58.2014C860.979 59.8967 861.666 61.271 862.514 61.271Z" fill="#FFB8B8"/>
<path d="M1107.87 458.919C1108.52 481.278 1095.45 489.472 1079.05 489.951C1078.67 489.962 1078.29 489.969 1077.91 489.971C1077.15 489.977 1076.4 489.965 1075.65 489.933C1060.81 489.318 1049.07 481.447 1048.46 460.653C1047.84 439.134 1074.56 411.174 1076.56 409.106L1076.57 409.104C1076.64 409.025 1076.68 408.986 1076.68 408.986C1076.68 408.986 1107.22 436.562 1107.87 458.919Z" fill="#F04B5D"/>
<path d="M1077.87 486.562L1088.29 471.074L1077.89 488.229L1077.91 489.971C1077.15 489.977 1076.4 489.965 1075.65 489.933L1076.17 467.531L1076.15 467.358L1076.17 467.325L1076.22 465.208L1064.81 448.649L1076.21 463.624L1076.25 464.071L1076.64 447.145L1066.78 429.977L1076.67 444.172L1076.56 409.106L1076.56 408.989L1076.57 409.104L1077.22 436.741L1086.2 425.515L1077.25 439.122L1077.45 454.261L1085.71 439.485L1077.48 456.487L1077.59 464.906L1089.61 444.323L1077.62 467.842L1077.87 486.562Z" fill="#3F3D56"/>
<path d="M727.918 425.62C728.572 447.979 715.501 456.173 699.097 456.652C698.716 456.663 698.337 456.67 697.959 456.672C697.198 456.678 696.445 456.665 695.699 456.634C680.864 456.019 669.12 448.148 668.513 427.354C667.884 405.835 694.608 377.875 696.613 375.807L696.616 375.805C696.692 375.726 696.731 375.687 696.731 375.687C696.731 375.687 727.265 403.263 727.918 425.62Z" fill="#F04B5D"/>
<path d="M697.916 453.263L708.337 437.775L697.938 454.929L697.959 456.672C697.199 456.678 696.445 456.665 695.7 456.634L696.216 434.232L696.202 434.059L696.221 434.026L696.271 431.909L684.859 415.349L696.257 430.324L696.298 430.772L696.688 413.846L686.832 396.678L696.716 410.873L696.613 375.807L696.613 375.69L696.617 375.805L697.271 403.441L706.254 392.215L697.3 405.822L697.496 420.962L705.762 406.186L697.527 423.188L697.636 431.606L709.657 411.024L697.672 434.543L697.916 453.263Z" fill="#3F3D56"/>
<path d="M1011.83 490.441C1012.21 503.565 1004.54 508.375 994.914 508.656C994.69 508.663 994.467 508.667 994.246 508.668C993.799 508.671 993.357 508.664 992.919 508.646C984.211 508.284 977.318 503.664 976.961 491.459C976.592 478.828 992.278 462.416 993.455 461.202L993.457 461.201C993.502 461.155 993.525 461.131 993.525 461.131C993.525 461.131 1011.45 477.318 1011.83 490.441Z" fill="#F04B5D"/>
<path d="M994.22 506.667L1000.34 497.576L994.232 507.645L994.245 508.668C993.799 508.671 993.356 508.664 992.919 508.646L993.222 495.496L993.214 495.395L993.225 495.375L993.254 494.132L986.556 484.412L993.246 493.202L993.27 493.465L993.499 483.53L987.713 473.453L993.515 481.785L993.455 461.202L993.455 461.133L993.457 461.201L993.841 477.423L999.114 470.833L993.858 478.82L993.973 487.707L998.825 479.034L993.991 489.013L994.055 493.955L1001.11 481.873L994.077 495.679L994.22 506.667Z" fill="#3F3D56"/>
<path d="M1249.94 62.2661C1249.96 62.2015 1249.98 62.1361 1250 62.0713C1249.99 62.0997 1249.98 62.127 1249.97 62.1555L1249.94 62.2661Z" fill="#2F2E41"/>
<path d="M1150.88 438.211L1203.38 360.173L1150.99 446.607L1151.1 455.388C1147.26 455.417 1143.47 455.354 1139.71 455.197L1142.31 342.319L1142.24 341.448L1142.34 341.28L1142.59 330.613L1085.09 247.175L1142.52 322.63L1142.72 324.885L1144.69 239.601L1095.03 153.095L1144.83 224.619L1144.31 47.9328L1144.31 47.3447L1144.33 47.9231L1147.63 187.176L1192.89 130.611L1147.77 199.172L1148.76 275.456L1190.41 201.006L1148.92 286.671L1149.47 329.089L1210.04 225.38L1149.65 343.887L1150.88 438.211Z" fill="#3F3D56"/>
<path d="M614.768 435.186L650.496 382.083L614.841 440.899L614.916 446.875C612.308 446.895 609.725 446.851 607.167 446.745L608.939 369.934L608.891 369.342L608.956 369.227L609.126 361.969L570 305.192L609.08 356.537L609.218 358.071L610.557 300.038L576.763 241.173L610.653 289.843L610.299 169.613L610.3 169.213L610.312 169.606L612.555 264.364L643.354 225.873L612.656 272.527L613.328 324.436L641.67 273.775L613.432 332.068L613.806 360.932L655.023 290.361L613.931 371.002L614.768 435.186Z" fill="#3F3D56"/>
</g>
<defs>
<clipPath id="clip0">
<rect x="570" y="26" width="680" height="486" fill="white"/>
</clipPath>
</defs>
</svg>
