<svg width="1110" height="298" viewBox="0 0 1110 298" fill="none" xmlns="http://www.w3.org/2000/svg">
<path d="M637.7 98H644V90.044H648.392C653.396 90.044 656.78 86.3 656.78 81.116C656.78 75.932 653.396 72.26 648.392 72.26H637.7V98ZM644 84.644V77.66H647.204C649.292 77.66 650.372 79.064 650.372 81.116C650.372 83.168 649.292 84.644 647.096 84.644H644ZM659.693 91.16C659.693 97.388 663.221 98.18 666.533 98.18C667.325 98.18 667.973 98.108 668.405 98.072V92.672C668.117 92.708 667.829 92.708 667.649 92.708C666.245 92.708 665.921 92.096 665.921 90.332V72.26H659.693V91.16ZM670.069 92.78C670.069 95.984 672.553 98.432 676.117 98.432C678.241 98.432 680.401 97.46 681.625 95.732H681.697C681.697 95.732 681.625 96.272 681.625 96.884V98H687.313V86.588C687.313 81.872 684.145 79.028 679.033 79.028C676.009 79.028 672.769 80.216 671.185 81.44L673.345 85.832C674.821 84.86 676.657 84.068 678.457 84.068C679.825 84.068 681.085 84.572 681.085 86.12V86.444H680.545C675.973 86.444 670.069 87.812 670.069 92.78ZM676.225 92.204C676.225 90.512 678.673 90.008 680.581 90.008H681.157V90.512C681.157 92.024 679.789 93.788 677.989 93.788C676.837 93.788 676.225 93.068 676.225 92.204ZM691.336 77.12H697.42V72.26H691.336V77.12ZM691.264 98H697.492V79.46H691.264V98ZM701.67 98H707.898V89.612C707.898 86.984 709.158 84.68 711.93 84.68C713.298 84.68 713.982 85.4 713.982 87.128V98H720.21V85.976C720.21 80.756 717.294 79.028 713.55 79.028C710.274 79.028 708.51 80.792 707.646 82.232H707.574C707.574 82.232 707.646 81.692 707.646 81.08V79.46H701.67V98ZM733.169 91.16C733.169 97.388 736.697 98.18 740.009 98.18C740.801 98.18 741.449 98.108 741.881 98.072V92.672C741.593 92.708 741.305 92.708 741.125 92.708C739.721 92.708 739.397 92.096 739.397 90.332V72.26H733.169V91.16ZM743.546 92.78C743.546 95.984 746.03 98.432 749.594 98.432C751.718 98.432 753.878 97.46 755.102 95.732H755.174C755.174 95.732 755.102 96.272 755.102 96.884V98H760.79V86.588C760.79 81.872 757.622 79.028 752.51 79.028C749.486 79.028 746.246 80.216 744.662 81.44L746.822 85.832C748.298 84.86 750.134 84.068 751.934 84.068C753.302 84.068 754.562 84.572 754.562 86.12V86.444H754.022C749.45 86.444 743.546 87.812 743.546 92.78ZM749.702 92.204C749.702 90.512 752.15 90.008 754.058 90.008H754.634V90.512C754.634 92.024 753.266 93.788 751.466 93.788C750.314 93.788 749.702 93.068 749.702 92.204ZM764.74 98H770.968V89.612C770.968 86.984 772.228 84.68 775 84.68C776.368 84.68 777.052 85.4 777.052 87.128V98H783.28V85.976C783.28 80.756 780.364 79.028 776.62 79.028C773.344 79.028 771.58 80.792 770.716 82.232H770.644C770.644 82.232 770.716 81.692 770.716 81.08V79.46H764.74V98ZM789.868 99.188L788.104 103.904C789.904 104.84 792.64 105.56 795.124 105.56C800.2 105.56 805.6 103.076 805.6 96.308V79.46H799.768V80.396C799.768 80.612 799.804 80.828 799.804 80.828H799.696C798.4 79.532 796.42 79.028 794.656 79.028C789.04 79.028 786.34 83.42 786.34 88.136C786.34 92.888 789.112 97.46 794.691 97.46C796.852 97.46 798.256 96.812 799.336 95.516H799.408C799.408 95.516 799.372 95.984 799.372 96.2V96.812C799.372 99.548 797.32 100.376 795.088 100.376C793.216 100.376 791.416 99.944 789.868 99.188ZM792.604 87.92C792.604 85.796 793.72 84.212 795.916 84.212C797.788 84.212 799.516 84.932 799.516 88.208C799.516 91.448 797.788 92.276 796.168 92.276C793.684 92.276 792.604 90.224 792.604 87.92ZM809.596 91.484C809.596 96.704 812.512 98.432 816.184 98.432C818.668 98.432 820.972 97.208 821.98 95.228H822.052C822.052 95.228 821.98 95.768 821.98 96.38V98H827.956V79.46H821.728V87.668C821.728 90.44 820.468 92.78 817.804 92.78C816.508 92.78 815.824 92.06 815.824 90.332V79.46H809.596V91.484ZM830.839 92.78C830.839 95.984 833.323 98.432 836.887 98.432C839.011 98.432 841.171 97.46 842.395 95.732H842.467C842.467 95.732 842.395 96.272 842.395 96.884V98H848.083V86.588C848.083 81.872 844.915 79.028 839.803 79.028C836.779 79.028 833.539 80.216 831.955 81.44L834.115 85.832C835.591 84.86 837.427 84.068 839.227 84.068C840.595 84.068 841.855 84.572 841.855 86.12V86.444H841.315C836.743 86.444 830.839 87.812 830.839 92.78ZM836.995 92.204C836.995 90.512 839.443 90.008 841.351 90.008H841.927V90.512C841.927 92.024 840.559 93.788 838.759 93.788C837.607 93.788 836.995 93.068 836.995 92.204ZM854.625 99.188L852.861 103.904C854.661 104.84 857.397 105.56 859.881 105.56C864.957 105.56 870.357 103.076 870.357 96.308V79.46H864.525V80.396C864.525 80.612 864.561 80.828 864.561 80.828H864.453C863.157 79.532 861.177 79.028 859.413 79.028C853.797 79.028 851.097 83.42 851.097 88.136C851.097 92.888 853.869 97.46 859.449 97.46C861.609 97.46 863.013 96.812 864.093 95.516H864.165C864.165 95.516 864.129 95.984 864.129 96.2V96.812C864.129 99.548 862.077 100.376 859.845 100.376C857.973 100.376 856.173 99.944 854.625 99.188ZM857.361 87.92C857.361 85.796 858.477 84.212 860.673 84.212C862.545 84.212 864.273 84.932 864.273 88.208C864.273 91.448 862.545 92.276 860.925 92.276C858.441 92.276 857.361 90.224 857.361 87.92ZM873.489 88.712C873.489 93.644 877.053 98.432 883.677 98.432C886.521 98.432 889.581 97.46 891.597 95.732L889.293 91.376C887.781 92.384 886.017 93.248 884.181 93.248C882.201 93.248 880.329 92.204 879.861 89.936H891.561C891.633 89.288 891.705 88.64 891.705 87.992C891.705 82.844 888.609 79.028 883.137 79.028C877.161 79.028 873.489 83.276 873.489 88.712ZM880.005 86.372C880.329 84.896 881.193 83.6 882.993 83.6C884.577 83.6 885.549 84.86 885.549 86.372H880.005ZM635.792 134.78C635.792 137.984 638.276 140.432 641.84 140.432C643.964 140.432 646.124 139.46 647.348 137.732H647.42C647.42 137.732 647.348 138.272 647.348 138.884V140H653.036V128.588C653.036 123.872 649.868 121.028 644.756 121.028C641.732 121.028 638.492 122.216 636.908 123.44L639.068 127.832C640.544 126.86 642.38 126.068 644.18 126.068C645.548 126.068 646.808 126.572 646.808 128.12V128.444H646.268C641.696 128.444 635.792 129.812 635.792 134.78ZM641.948 134.204C641.948 132.512 644.396 132.008 646.304 132.008H646.88V132.512C646.88 134.024 645.512 135.788 643.712 135.788C642.56 135.788 641.948 135.068 641.948 134.204ZM656.986 140H663.214V131.612C663.214 128.984 664.474 126.68 667.246 126.68C668.614 126.68 669.298 127.4 669.298 129.128V140H675.526V127.976C675.526 122.756 672.61 121.028 668.866 121.028C665.59 121.028 663.826 122.792 662.962 124.232H662.89C662.89 124.232 662.962 123.692 662.962 123.08V121.46H656.986V140ZM678.55 130.712C678.55 136.472 681.862 140.432 686.902 140.432C689.098 140.432 691.114 139.496 692.266 137.732H692.338C692.338 137.732 692.302 138.2 692.302 138.776V140H698.134V114.26H691.906V121.676C691.906 122.144 691.942 122.504 691.942 122.504H691.87C690.646 121.28 688.666 121.028 687.01 121.028C682.078 121.028 678.55 124.844 678.55 130.712ZM684.814 130.712C684.814 127.868 686.506 126.284 688.45 126.284C690.898 126.284 692.086 128.48 692.086 130.712C692.086 133.916 690.322 135.284 688.45 135.284C686.29 135.284 684.814 133.484 684.814 130.712ZM711.303 140H717.531V131.612C717.531 128.984 718.791 126.68 721.563 126.68C722.931 126.68 723.615 127.4 723.615 129.128V140H729.843V127.976C729.843 122.756 726.927 121.028 723.183 121.028C719.907 121.028 718.143 122.792 717.279 124.232H717.207C717.207 124.232 717.279 123.692 717.279 123.08V121.46H711.303V140ZM732.794 130.784C732.794 136.58 737.474 140.432 743.306 140.432C749.138 140.432 753.818 136.58 753.818 130.784C753.818 124.952 749.138 121.028 743.27 121.028C737.474 121.028 732.794 124.952 732.794 130.784ZM739.094 130.784C739.094 127.976 741.038 126.212 743.306 126.212C745.574 126.212 747.518 127.976 747.518 130.784C747.518 133.556 745.574 135.248 743.306 135.248C741.038 135.248 739.094 133.556 739.094 130.784ZM765.936 140H771.66V139.28C771.66 138.704 771.624 138.236 771.624 138.236H771.696C772.956 139.748 775.008 140.432 776.88 140.432C781.812 140.432 785.52 136.616 785.52 130.748C785.52 124.988 782.208 121.028 777.168 121.028C775.296 121.028 773.244 121.784 772.164 123.008H772.092C772.092 123.008 772.164 122.36 772.164 121.424V114.26H765.936V140ZM771.984 130.856C771.984 127.652 773.748 126.284 775.62 126.284C777.78 126.284 779.256 128.084 779.256 130.856C779.256 133.7 777.564 135.284 775.62 135.284C773.172 135.284 771.984 133.088 771.984 130.856ZM788.537 133.484C788.537 138.704 791.453 140.432 795.125 140.432C797.609 140.432 799.913 139.208 800.921 137.228H800.993C800.993 137.228 800.921 137.768 800.921 138.38V140H806.897V121.46H800.669V129.668C800.669 132.44 799.409 134.78 796.745 134.78C795.449 134.78 794.765 134.06 794.765 132.332V121.46H788.537V133.484ZM810.212 140H827.24V134.78H820.292C819.104 134.78 818.636 134.888 818.636 134.888V134.816C818.636 134.816 819.392 134.24 820.292 133.124L827.06 124.592V121.46H810.5V126.68H817.016C818.168 126.68 818.636 126.608 818.636 126.608V126.68C818.636 126.68 817.952 127.22 817.016 128.372L810.212 136.904V140ZM829.794 140H846.822V134.78H839.874C838.686 134.78 838.218 134.888 838.218 134.888V134.816C838.218 134.816 838.974 134.24 839.874 133.124L846.642 124.592V121.46H830.082V126.68H836.598C837.75 126.68 838.218 126.608 838.218 126.608V126.68C838.218 126.68 837.534 127.22 836.598 128.372L829.794 136.904V140ZM853.732 140H860.752L862.84 131.432C863.092 130.424 863.2 129.452 863.2 129.452H863.272C863.272 129.452 863.38 130.424 863.632 131.432L865.72 140H872.668L877.852 121.46H871.372L869.068 132.404C868.852 133.412 868.816 134.348 868.816 134.348H868.744C868.744 134.348 868.708 133.412 868.456 132.404L865.9 121.46H860.572L858.016 132.404C857.764 133.412 857.692 134.348 857.692 134.348H857.62C857.62 134.348 857.62 133.412 857.404 132.404L855.1 121.46H848.548L853.732 140ZM878.974 130.784C878.974 136.58 883.654 140.432 889.486 140.432C895.318 140.432 899.998 136.58 899.998 130.784C899.998 124.952 895.318 121.028 889.45 121.028C883.654 121.028 878.974 124.952 878.974 130.784ZM885.274 130.784C885.274 127.976 887.218 126.212 889.486 126.212C891.754 126.212 893.698 127.976 893.698 130.784C893.698 133.556 891.754 135.248 889.486 135.248C887.218 135.248 885.274 133.556 885.274 130.784ZM903.115 140H909.343V132.8C909.343 129.416 910.999 127.22 914.455 127.22C914.887 127.22 915.499 127.256 915.715 127.328V121.208C915.499 121.172 915.247 121.136 914.995 121.136C912.223 121.136 909.883 123.224 909.091 125.744H909.019C909.019 125.744 909.091 125.204 909.091 124.592V121.46H903.115V140ZM917.471 130.712C917.471 136.472 920.783 140.432 925.823 140.432C928.019 140.432 930.035 139.496 931.187 137.732H931.259C931.259 137.732 931.223 138.2 931.223 138.776V140H937.055V114.26H930.827V121.676C930.827 122.144 930.863 122.504 930.863 122.504H930.791C929.567 121.28 927.587 121.028 925.931 121.028C920.999 121.028 917.471 124.844 917.471 130.712ZM923.735 130.712C923.735 127.868 925.427 126.284 927.371 126.284C929.819 126.284 931.007 128.48 931.007 130.712C931.007 133.916 929.243 135.284 927.371 135.284C925.211 135.284 923.735 133.484 923.735 130.712ZM939.821 137.696C941.873 139.532 944.717 140.432 947.381 140.432C952.133 140.432 955.013 137.804 955.013 134.348C955.013 128.336 946.337 128.804 946.337 126.86C946.337 126.356 946.733 125.96 948.065 125.96C949.649 125.96 951.665 126.608 952.745 127.472L954.869 123.152C952.997 121.64 950.621 121.028 948.245 121.028C943.961 121.028 940.541 123.08 940.541 126.896C940.541 132.98 949.217 132.548 949.217 134.528C949.217 135.104 948.785 135.5 947.525 135.5C945.761 135.5 943.853 134.78 942.485 133.628L939.821 137.696Z" fill="#222224"/>
<path d="M636.674 195H638.456V182.292H636.674V195ZM641.395 195H643.141V190.626C643.141 188.754 644.401 187.278 646.183 187.278C647.641 187.278 647.893 188.286 647.893 189.564V195H649.639V189.168C649.639 186.846 648.667 185.676 646.525 185.676C644.527 185.676 643.411 187.026 643.069 187.818H643.033C643.033 187.818 643.087 187.512 643.087 187.134V185.892H641.395V195ZM651.683 190.446C651.683 193.272 653.249 195.216 655.697 195.216C657.137 195.216 658.199 194.46 658.721 193.47H658.757C658.757 193.47 658.703 193.722 658.703 194.082V195H660.359V182.292H658.631V186.558C658.631 186.9 658.667 187.17 658.667 187.17H658.631C658.055 186.198 656.957 185.676 655.805 185.676C653.393 185.676 651.683 187.548 651.683 190.446ZM653.465 190.446C653.465 188.376 654.653 187.206 656.075 187.206C657.821 187.206 658.667 188.79 658.667 190.428C658.667 192.732 657.389 193.704 656.039 193.704C654.527 193.704 653.465 192.426 653.465 190.446ZM663.015 184.056H664.815V182.292H663.015V184.056ZM663.051 195H664.797V185.892H663.051V195ZM669.893 195H671.891L675.257 185.892H673.421L671.207 192.048C671.045 192.552 670.901 193.29 670.901 193.29H670.865C670.865 193.29 670.703 192.552 670.541 192.048L668.327 185.892H666.473L669.893 195ZM676.955 184.056H678.755V182.292H676.955V184.056ZM676.991 195H678.737V185.892H676.991V195ZM680.862 190.446C680.862 193.272 682.428 195.216 684.876 195.216C686.316 195.216 687.378 194.46 687.9 193.47H687.936C687.936 193.47 687.882 193.722 687.882 194.082V195H689.538V182.292H687.81V186.558C687.81 186.9 687.846 187.17 687.846 187.17H687.81C687.234 186.198 686.136 185.676 684.984 185.676C682.572 185.676 680.862 187.548 680.862 190.446ZM682.644 190.446C682.644 188.376 683.832 187.206 685.254 187.206C687 187.206 687.846 188.79 687.846 190.428C687.846 192.732 686.568 193.704 685.218 193.704C683.706 193.704 682.644 192.426 682.644 190.446ZM692.123 191.724C692.123 194.136 693.185 195.216 695.237 195.216C697.019 195.216 698.225 193.974 698.621 193.074H698.657C698.657 193.074 698.585 193.38 698.585 193.74V195H700.277V185.892H698.549V190.158C698.549 191.958 697.451 193.596 695.579 193.596C694.139 193.596 693.869 192.588 693.869 191.328V185.892H692.123V191.724ZM702.215 192.516C702.215 194.226 703.673 195.216 705.257 195.216C706.607 195.216 707.723 194.406 708.245 193.362H708.281C708.281 193.362 708.227 193.668 708.227 194.082V195H709.865V189.24C709.865 186.936 708.551 185.676 706.265 185.676C704.987 185.676 703.601 186.144 702.863 186.756L703.565 188.034C704.303 187.512 705.221 187.152 706.121 187.152C707.255 187.152 708.119 187.656 708.119 189.15V189.33H707.651C705.761 189.33 702.215 189.654 702.215 192.516ZM703.961 192.372C703.961 190.698 706.373 190.59 707.669 190.59H708.119V190.932C708.119 192.282 707.201 193.83 705.671 193.83C704.537 193.83 703.961 193.092 703.961 192.372ZM712.463 192.498C712.463 194.802 713.903 195.09 714.911 195.09C715.163 195.09 715.361 195.054 715.487 195.036V193.488C715.379 193.506 715.253 193.506 715.181 193.506C714.641 193.506 714.191 193.29 714.191 192.21V182.292H712.463V192.498ZM721.006 192.516C721.006 194.226 722.464 195.216 724.048 195.216C725.398 195.216 726.514 194.406 727.036 193.362H727.072C727.072 193.362 727.018 193.668 727.018 194.082V195H728.656V189.24C728.656 186.936 727.342 185.676 725.056 185.676C723.778 185.676 722.392 186.144 721.654 186.756L722.356 188.034C723.094 187.512 724.012 187.152 724.912 187.152C726.046 187.152 726.91 187.656 726.91 189.15V189.33H726.442C724.552 189.33 721.006 189.654 721.006 192.516ZM722.752 192.372C722.752 190.698 725.164 190.59 726.46 190.59H726.91V190.932C726.91 192.282 725.992 193.83 724.462 193.83C723.328 193.83 722.752 193.092 722.752 192.372ZM731.254 198.6H733V194.46C733 193.992 732.928 193.668 732.928 193.668H732.964C733.594 194.64 734.638 195.216 735.79 195.216C738.184 195.216 739.912 193.344 739.912 190.446C739.912 187.62 738.382 185.676 735.916 185.676C734.584 185.676 733.432 186.288 732.856 187.386H732.82C732.82 187.386 732.874 187.08 732.874 186.702V185.892H731.254V198.6ZM732.946 190.482C732.946 188.178 734.206 187.206 735.574 187.206C737.086 187.206 738.148 188.484 738.148 190.464C738.148 192.534 736.96 193.704 735.52 193.704C733.846 193.704 732.946 192.102 732.946 190.482ZM742.065 198.6H743.811V194.46C743.811 193.992 743.739 193.668 743.739 193.668H743.775C744.405 194.64 745.449 195.216 746.601 195.216C748.995 195.216 750.723 193.344 750.723 190.446C750.723 187.62 749.193 185.676 746.727 185.676C745.395 185.676 744.243 186.288 743.667 187.386H743.631C743.631 187.386 743.685 187.08 743.685 186.702V185.892H742.065V198.6ZM743.757 190.482C743.757 188.178 745.017 187.206 746.385 187.206C747.897 187.206 748.959 188.484 748.959 190.464C748.959 192.534 747.771 193.704 746.331 193.704C744.657 193.704 743.757 192.102 743.757 190.482ZM752.875 195H754.621V191.22C754.621 189.456 755.449 187.512 757.411 187.512C757.591 187.512 757.843 187.53 757.915 187.548V185.82C757.771 185.802 757.609 185.784 757.447 185.784C756.043 185.784 754.981 186.882 754.549 188.196H754.513C754.513 188.196 754.567 187.908 754.567 187.53V185.892H752.875V195ZM758.768 190.428C758.768 193.2 760.964 195.216 763.682 195.216C766.382 195.216 768.578 193.2 768.578 190.428C768.578 187.674 766.382 185.676 763.664 185.676C760.964 185.676 758.768 187.674 758.768 190.428ZM760.55 190.428C760.55 188.538 761.954 187.188 763.682 187.188C765.392 187.188 766.814 188.538 766.814 190.428C766.814 192.336 765.392 193.704 763.682 193.704C761.954 193.704 760.55 192.336 760.55 190.428ZM769.926 192.516C769.926 194.226 771.384 195.216 772.968 195.216C774.318 195.216 775.434 194.406 775.956 193.362H775.992C775.992 193.362 775.938 193.668 775.938 194.082V195H777.576V189.24C777.576 186.936 776.262 185.676 773.976 185.676C772.698 185.676 771.312 186.144 770.574 186.756L771.276 188.034C772.014 187.512 772.932 187.152 773.832 187.152C774.966 187.152 775.83 187.656 775.83 189.15V189.33H775.362C773.472 189.33 769.926 189.654 769.926 192.516ZM771.672 192.372C771.672 190.698 774.084 190.59 775.38 190.59H775.83V190.932C775.83 192.282 774.912 193.83 773.382 193.83C772.248 193.83 771.672 193.092 771.672 192.372ZM779.58 190.446C779.58 193.182 781.578 195.216 784.458 195.216C785.88 195.216 787.266 194.64 788.094 193.758L787.392 192.48C786.69 193.218 785.592 193.704 784.584 193.704C782.694 193.704 781.362 192.282 781.362 190.428C781.362 188.574 782.694 187.188 784.53 187.188C785.484 187.188 786.438 187.62 787.05 188.232L787.878 187.008C787.014 186.09 785.664 185.676 784.458 185.676C781.596 185.676 779.58 187.746 779.58 190.446ZM789.983 195H791.729V190.68C791.729 188.718 793.007 187.278 794.771 187.278C796.229 187.278 796.481 188.286 796.481 189.564V195H798.227V189.168C798.227 186.846 797.255 185.676 795.113 185.676C793.295 185.676 792.107 186.9 791.693 187.764H791.657C791.657 187.764 791.729 187.44 791.729 187.008V182.292H789.983V195ZM806.905 195H808.849L810.721 189.15C810.865 188.682 810.973 188.16 810.973 188.16H811.009C811.009 188.16 811.117 188.682 811.279 189.15L813.151 195H815.095L818.011 185.892H816.193L814.285 192.282C814.141 192.75 814.051 193.254 814.051 193.254H814.015C814.015 193.254 813.907 192.75 813.781 192.282L811.819 185.91H810.199L808.237 192.282C808.093 192.75 807.985 193.254 807.985 193.254H807.949C807.949 193.254 807.859 192.75 807.715 192.282L805.825 185.892H803.971L806.905 195ZM819.759 184.056H821.559V182.292H819.759V184.056ZM819.795 195H821.541V185.892H819.795V195ZM824.603 191.67C824.603 194.712 826.925 195.09 828.095 195.09C828.365 195.09 828.563 195.054 828.707 195.036V193.488C828.527 193.524 828.419 193.524 828.293 193.524C827.627 193.524 826.349 193.29 826.349 191.472V187.404H828.545V185.982H826.349V183.39H824.639V185.982H823.415V187.404H824.603V191.67ZM830.5 195H832.246V190.68C832.246 188.718 833.524 187.278 835.288 187.278C836.746 187.278 836.998 188.286 836.998 189.564V195H838.744V189.168C838.744 186.846 837.772 185.676 835.63 185.676C833.812 185.676 832.624 186.9 832.21 187.764H832.174C832.174 187.764 832.246 187.44 832.246 187.008V182.292H830.5V195ZM845.252 190.428C845.252 193.2 847.448 195.216 850.166 195.216C852.866 195.216 855.062 193.2 855.062 190.428C855.062 187.674 852.866 185.676 850.148 185.676C847.448 185.676 845.252 187.674 845.252 190.428ZM847.034 190.428C847.034 188.538 848.438 187.188 850.166 187.188C851.876 187.188 853.298 188.538 853.298 190.428C853.298 192.336 851.876 193.704 850.166 193.704C848.438 193.704 847.034 192.336 847.034 190.428ZM858.971 195H860.915L862.787 189.15C862.931 188.682 863.039 188.16 863.039 188.16H863.075C863.075 188.16 863.183 188.682 863.345 189.15L865.217 195H867.161L870.077 185.892H868.259L866.351 192.282C866.207 192.75 866.117 193.254 866.117 193.254H866.081C866.081 193.254 865.973 192.75 865.847 192.282L863.885 185.91H862.265L860.303 192.282C860.159 192.75 860.051 193.254 860.051 193.254H860.015C860.015 193.254 859.925 192.75 859.781 192.282L857.891 185.892H856.037L858.971 195ZM871.862 195H873.608V190.626C873.608 188.754 874.868 187.278 876.65 187.278C878.108 187.278 878.36 188.286 878.36 189.564V195H880.106V189.168C880.106 186.846 879.134 185.676 876.992 185.676C874.994 185.676 873.878 187.026 873.536 187.818H873.5C873.5 187.818 873.554 187.512 873.554 187.134V185.892H871.862V195ZM635.756 218.446C635.756 221.182 637.754 223.216 640.634 223.216C642.056 223.216 643.442 222.64 644.27 221.758L643.568 220.48C642.866 221.218 641.768 221.704 640.76 221.704C638.87 221.704 637.538 220.282 637.538 218.428C637.538 216.574 638.87 215.188 640.706 215.188C641.66 215.188 642.614 215.62 643.226 216.232L644.054 215.008C643.19 214.09 641.84 213.676 640.634 213.676C637.772 213.676 635.756 215.746 635.756 218.446ZM645.354 218.428C645.354 221.2 647.55 223.216 650.268 223.216C652.968 223.216 655.164 221.2 655.164 218.428C655.164 215.674 652.968 213.676 650.25 213.676C647.55 213.676 645.354 215.674 645.354 218.428ZM647.136 218.428C647.136 216.538 648.54 215.188 650.268 215.188C651.978 215.188 653.4 216.538 653.4 218.428C653.4 220.336 651.978 221.704 650.268 221.704C648.54 221.704 647.136 220.336 647.136 218.428ZM657.268 223H659.014V218.626C659.014 216.754 660.274 215.278 662.056 215.278C663.514 215.278 663.766 216.286 663.766 217.564V223H665.512V217.168C665.512 214.846 664.54 213.676 662.398 213.676C660.4 213.676 659.284 215.026 658.942 215.818H658.906C658.906 215.818 658.96 215.512 658.96 215.134V213.892H657.268V223ZM668.492 219.67C668.492 222.712 670.814 223.09 671.984 223.09C672.254 223.09 672.452 223.054 672.596 223.036V221.488C672.416 221.524 672.308 221.524 672.182 221.524C671.516 221.524 670.238 221.29 670.238 219.472V215.404H672.434V213.982H670.238V211.39H668.528V213.982H667.304V215.404H668.492V219.67ZM673.707 218.446C673.707 221.146 675.687 223.216 678.549 223.216C679.809 223.216 681.195 222.73 682.077 221.92L681.339 220.642C680.619 221.29 679.629 221.704 678.657 221.704C677.019 221.704 675.615 220.642 675.525 218.68H682.149C682.185 218.428 682.221 218.176 682.221 217.942C682.221 215.602 680.853 213.676 678.279 213.676C675.687 213.676 673.707 215.548 673.707 218.446ZM675.579 217.42C675.831 215.908 676.893 215.026 678.243 215.026C679.431 215.026 680.403 215.854 680.457 217.42H675.579ZM684.321 223H686.067V218.626C686.067 216.754 687.327 215.278 689.109 215.278C690.567 215.278 690.819 216.286 690.819 217.564V223H692.565V217.168C692.565 214.846 691.593 213.676 689.451 213.676C687.453 213.676 686.337 215.026 685.995 215.818H685.959C685.959 215.818 686.013 215.512 686.013 215.134V213.892H684.321V223ZM695.544 219.67C695.544 222.712 697.866 223.09 699.036 223.09C699.306 223.09 699.504 223.054 699.648 223.036V221.488C699.468 221.524 699.36 221.524 699.234 221.524C698.568 221.524 697.29 221.29 697.29 219.472V215.404H699.486V213.982H697.29V211.39H695.58V213.982H694.356V215.404H695.544V219.67ZM705.186 220.516C705.186 222.226 706.644 223.216 708.228 223.216C709.578 223.216 710.694 222.406 711.216 221.362H711.252C711.252 221.362 711.198 221.668 711.198 222.082V223H712.836V217.24C712.836 214.936 711.522 213.676 709.236 213.676C707.958 213.676 706.572 214.144 705.834 214.756L706.536 216.034C707.274 215.512 708.192 215.152 709.092 215.152C710.226 215.152 711.09 215.656 711.09 217.15V217.33H710.622C708.732 217.33 705.186 217.654 705.186 220.516ZM706.932 220.372C706.932 218.698 709.344 218.59 710.64 218.59H711.09V218.932C711.09 220.282 710.172 221.83 708.642 221.83C707.508 221.83 706.932 221.092 706.932 220.372ZM715.434 223H717.18V218.626C717.18 216.754 718.44 215.278 720.222 215.278C721.68 215.278 721.932 216.286 721.932 217.564V223H723.678V217.168C723.678 214.846 722.706 213.676 720.564 213.676C718.566 213.676 717.45 215.026 717.108 215.818H717.072C717.072 215.818 717.126 215.512 717.126 215.134V213.892H715.434V223ZM725.722 218.446C725.722 221.272 727.288 223.216 729.736 223.216C731.176 223.216 732.238 222.46 732.76 221.47H732.796C732.796 221.47 732.742 221.722 732.742 222.082V223H734.398V210.292H732.67V214.558C732.67 214.9 732.706 215.17 732.706 215.17H732.67C732.094 214.198 730.996 213.676 729.844 213.676C727.432 213.676 725.722 215.548 725.722 218.446ZM727.504 218.446C727.504 216.376 728.692 215.206 730.114 215.206C731.86 215.206 732.706 216.79 732.706 218.428C732.706 220.732 731.428 221.704 730.078 221.704C728.566 221.704 727.504 220.426 727.504 218.446ZM741.59 223H743.336V219.22C743.336 217.456 744.164 215.512 746.126 215.512C746.306 215.512 746.558 215.53 746.63 215.548V213.82C746.486 213.802 746.324 213.784 746.162 213.784C744.758 213.784 743.696 214.882 743.264 216.196H743.228C743.228 216.196 743.282 215.908 743.282 215.53V213.892H741.59V223ZM747.535 218.446C747.535 221.146 749.515 223.216 752.377 223.216C753.637 223.216 755.023 222.73 755.905 221.92L755.167 220.642C754.447 221.29 753.457 221.704 752.485 221.704C750.847 221.704 749.443 220.642 749.353 218.68H755.977C756.013 218.428 756.049 218.176 756.049 217.942C756.049 215.602 754.681 213.676 752.107 213.676C749.515 213.676 747.535 215.548 747.535 218.446ZM749.407 217.42C749.659 215.908 750.721 215.026 752.071 215.026C753.259 215.026 754.231 215.854 754.285 217.42H749.407ZM757.393 220.516C757.393 222.226 758.851 223.216 760.435 223.216C761.785 223.216 762.901 222.406 763.423 221.362H763.459C763.459 221.362 763.405 221.668 763.405 222.082V223H765.043V217.24C765.043 214.936 763.729 213.676 761.443 213.676C760.165 213.676 758.779 214.144 758.041 214.756L758.743 216.034C759.481 215.512 760.399 215.152 761.299 215.152C762.433 215.152 763.297 215.656 763.297 217.15V217.33H762.829C760.939 217.33 757.393 217.654 757.393 220.516ZM759.139 220.372C759.139 218.698 761.551 218.59 762.847 218.59H763.297V218.932C763.297 220.282 762.379 221.83 760.849 221.83C759.715 221.83 759.139 221.092 759.139 220.372ZM767.641 220.498C767.641 222.802 769.081 223.09 770.089 223.09C770.341 223.09 770.539 223.054 770.665 223.036V221.488C770.557 221.506 770.431 221.506 770.359 221.506C769.819 221.506 769.369 221.29 769.369 220.21V210.292H767.641V220.498ZM776.94 226.6H778.686V222.46C778.686 221.992 778.614 221.668 778.614 221.668H778.65C779.28 222.64 780.324 223.216 781.476 223.216C783.87 223.216 785.598 221.344 785.598 218.446C785.598 215.62 784.068 213.676 781.602 213.676C780.27 213.676 779.118 214.288 778.542 215.386H778.506C778.506 215.386 778.56 215.08 778.56 214.702V213.892H776.94V226.6ZM778.632 218.482C778.632 216.178 779.892 215.206 781.26 215.206C782.772 215.206 783.834 216.484 783.834 218.464C783.834 220.534 782.646 221.704 781.206 221.704C779.532 221.704 778.632 220.102 778.632 218.482ZM787.75 223H789.496V219.22C789.496 217.456 790.324 215.512 792.286 215.512C792.466 215.512 792.718 215.53 792.79 215.548V213.82C792.646 213.802 792.484 213.784 792.322 213.784C790.918 213.784 789.856 214.882 789.424 216.196H789.388C789.388 216.196 789.442 215.908 789.442 215.53V213.892H787.75V223ZM793.643 218.428C793.643 221.2 795.839 223.216 798.557 223.216C801.257 223.216 803.453 221.2 803.453 218.428C803.453 215.674 801.257 213.676 798.539 213.676C795.839 213.676 793.643 215.674 793.643 218.428ZM795.425 218.428C795.425 216.538 796.829 215.188 798.557 215.188C800.267 215.188 801.689 216.538 801.689 218.428C801.689 220.336 800.267 221.704 798.557 221.704C796.829 221.704 795.425 220.336 795.425 218.428ZM805.557 223H807.195V222.262C807.195 221.848 807.141 221.578 807.141 221.578H807.177C807.771 222.604 808.887 223.216 810.075 223.216C812.487 223.216 814.215 221.344 814.215 218.446C814.215 215.62 812.685 213.676 810.219 213.676C808.959 213.676 807.807 214.306 807.267 215.278H807.231C807.231 215.278 807.303 214.954 807.303 214.504V210.292H805.557V223ZM807.249 218.482C807.249 216.178 808.509 215.206 809.877 215.206C811.389 215.206 812.451 216.484 812.451 218.464C812.451 220.534 811.263 221.704 809.823 221.704C808.095 221.704 807.249 220.102 807.249 218.482ZM816.368 220.498C816.368 222.802 817.808 223.09 818.816 223.09C819.068 223.09 819.266 223.054 819.392 223.036V221.488C819.284 221.506 819.158 221.506 819.086 221.506C818.546 221.506 818.096 221.29 818.096 220.21V210.292H816.368V220.498ZM820.572 218.446C820.572 221.146 822.552 223.216 825.414 223.216C826.674 223.216 828.06 222.73 828.942 221.92L828.204 220.642C827.484 221.29 826.494 221.704 825.522 221.704C823.884 221.704 822.48 220.642 822.39 218.68H829.014C829.05 218.428 829.086 218.176 829.086 217.942C829.086 215.602 827.718 213.676 825.144 213.676C822.552 213.676 820.572 215.548 820.572 218.446ZM822.444 217.42C822.696 215.908 823.758 215.026 825.108 215.026C826.296 215.026 827.268 215.854 827.322 217.42H822.444ZM831.186 223H832.932V218.752C832.932 217.06 833.94 215.26 835.668 215.26C837.054 215.26 837.234 216.358 837.234 217.546V223H838.98V218.752C838.98 217.006 839.988 215.26 841.68 215.26C843.03 215.26 843.282 216.268 843.282 217.546V223H845.028V217.168C845.028 214.846 844.092 213.676 842.022 213.676C840.546 213.676 839.286 214.684 838.782 215.746H838.746C838.44 214.378 837.558 213.676 836.028 213.676C834.588 213.676 833.292 214.756 832.86 215.818H832.824C832.824 215.818 832.878 215.512 832.878 215.134V213.892H831.186V223ZM846.865 221.884C847.765 222.802 849.115 223.216 850.339 223.216C852.283 223.216 853.615 222.082 853.615 220.534C853.615 217.528 848.917 218.05 848.917 216.268C848.917 215.494 849.583 215.134 850.465 215.134C851.275 215.134 852.229 215.44 852.769 215.944L853.471 214.684C852.679 213.964 851.563 213.676 850.519 213.676C848.737 213.676 847.243 214.576 847.243 216.304C847.243 219.292 851.923 218.824 851.923 220.57C851.923 221.326 851.293 221.758 850.375 221.758C849.421 221.758 848.377 221.362 847.693 220.696L846.865 221.884ZM860.622 223H862.368V215.404H864.51V213.982H862.368V213.604C862.368 211.93 863.592 211.732 864.276 211.732C864.474 211.732 864.654 211.75 864.726 211.768V210.256C864.492 210.22 864.294 210.202 864.06 210.202C862.908 210.202 860.622 210.58 860.622 213.586V213.982H859.488V215.404H860.622V223ZM866.289 223H868.035V219.22C868.035 217.456 868.863 215.512 870.825 215.512C871.005 215.512 871.257 215.53 871.329 215.548V213.82C871.185 213.802 871.023 213.784 870.861 213.784C869.457 213.784 868.395 214.882 867.963 216.196H867.927C867.927 216.196 867.981 215.908 867.981 215.53V213.892H866.289V223ZM872.182 218.428C872.182 221.2 874.378 223.216 877.096 223.216C879.796 223.216 881.992 221.2 881.992 218.428C881.992 215.674 879.796 213.676 877.078 213.676C874.378 213.676 872.182 215.674 872.182 218.428ZM873.964 218.428C873.964 216.538 875.368 215.188 877.096 215.188C878.806 215.188 880.228 216.538 880.228 218.428C880.228 220.336 878.806 221.704 877.096 221.704C875.368 221.704 873.964 220.336 873.964 218.428ZM884.096 223H885.842V218.752C885.842 217.06 886.85 215.26 888.578 215.26C889.964 215.26 890.144 216.358 890.144 217.546V223H891.89V218.752C891.89 217.006 892.898 215.26 894.59 215.26C895.94 215.26 896.192 216.268 896.192 217.546V223H897.938V217.168C897.938 214.846 897.002 213.676 894.932 213.676C893.456 213.676 892.196 214.684 891.692 215.746H891.656C891.35 214.378 890.468 213.676 888.938 213.676C887.498 213.676 886.202 214.756 885.77 215.818H885.734C885.734 215.818 885.788 215.512 885.788 215.134V213.892H884.096V223ZM905.049 220.498C905.049 222.802 906.489 223.09 907.497 223.09C907.749 223.09 907.947 223.054 908.073 223.036V221.488C907.965 221.506 907.839 221.506 907.767 221.506C907.227 221.506 906.777 221.29 906.777 220.21V210.292H905.049V220.498ZM909.812 212.056H911.612V210.292H909.812V212.056ZM909.848 223H911.594V213.892H909.848V223ZM914.71 223H916.456V215.404H918.598V213.982H916.456V213.604C916.456 211.93 917.68 211.732 918.364 211.732C918.562 211.732 918.742 211.75 918.814 211.768V210.256C918.58 210.22 918.382 210.202 918.148 210.202C916.996 210.202 914.71 210.58 914.71 213.586V213.982H913.576V215.404H914.71V223ZM919.572 218.446C919.572 221.146 921.552 223.216 924.414 223.216C925.674 223.216 927.06 222.73 927.942 221.92L927.204 220.642C926.484 221.29 925.494 221.704 924.522 221.704C922.884 221.704 921.48 220.642 921.39 218.68H928.014C928.05 218.428 928.086 218.176 928.086 217.942C928.086 215.602 926.718 213.676 924.144 213.676C921.552 213.676 919.572 215.548 919.572 218.446ZM921.444 217.42C921.696 215.908 922.758 215.026 924.108 215.026C925.296 215.026 926.268 215.854 926.322 217.42H921.444Z" fill="#424754"/>
<path d="M0 4.40122C0 2.86065 0 2.09037 0.299609 1.50195C0.563153 0.984356 0.983678 0.563541 1.50091 0.299816C2.08893 0 2.85869 0 4.3982 0H504.602C506.141 0 506.911 0 507.499 0.299816C508.016 0.563541 508.437 0.984356 508.7 1.50195C509 2.09037 509 2.86066 509 4.40123V293.599C509 295.139 509 295.91 508.7 296.498C508.437 297.016 508.016 297.436 507.499 297.7C506.911 298 506.141 298 504.602 298H4.39818C2.85868 298 2.08893 298 1.50091 297.7C0.983678 297.436 0.563153 297.016 0.299609 296.498C0 295.91 0 295.139 0 293.599V4.40122Z" fill="#F3F3F3"/>
<path d="M147 42.3991C147 40.8592 147 40.0893 147.142 39.5012C147.266 38.9839 147.465 38.5633 147.709 38.2997C147.987 38 148.351 38 149.079 38H301.921C302.649 38 303.013 38 303.291 38.2997C303.535 38.5633 303.734 38.9839 303.858 39.5012C304 40.0893 304 40.8592 304 42.399V225.601C304 227.141 304 227.911 303.858 228.499C303.734 229.016 303.535 229.437 303.291 229.7C303.013 230 302.649 230 301.921 230H149.079C148.351 230 147.987 230 147.709 229.7C147.465 229.437 147.266 229.016 147.142 228.499C147 227.911 147 227.141 147 225.601V42.3991Z" fill="white"/>
<path d="M322 42.3991C322 40.8592 322 40.0893 322.142 39.5012C322.266 38.9839 322.465 38.5633 322.709 38.2997C322.987 38 323.351 38 324.079 38H476.921C477.649 38 478.013 38 478.291 38.2997C478.535 38.5633 478.734 38.9839 478.858 39.5012C479 40.0893 479 40.8592 479 42.399V225.601C479 227.141 479 227.911 478.858 228.499C478.734 229.016 478.535 229.437 478.291 229.7C478.013 230 477.649 230 476.921 230H324.079C323.351 230 322.987 230 322.709 229.7C322.465 229.437 322.266 229.016 322.142 228.499C322 227.911 322 227.141 322 225.601V42.3991Z" fill="white"/>
<path d="M147 21.8444C147 20.8488 147 20.351 147.199 19.9707C147.374 19.6362 147.653 19.3642 147.996 19.1938C148.386 19 148.897 19 149.918 19H201.082C202.103 19 202.614 19 203.004 19.1938C203.347 19.3642 203.626 19.6362 203.801 19.9707C204 20.351 204 20.8488 204 21.8444V24.1556C204 25.1512 204 25.649 203.801 26.0293C203.626 26.3638 203.347 26.6358 203.004 26.8062C202.614 27 202.103 27 201.082 27H149.918C148.897 27 148.386 27 147.996 26.8062C147.653 26.6358 147.374 26.3638 147.199 26.0293C147 25.649 147 25.1512 147 24.1556V21.8444Z" fill="#424754"/>
<path d="M167 65.4545C167 64.9454 167 64.6908 167.099 64.4964C167.187 64.3253 167.326 64.1862 167.498 64.0991C167.693 64 167.948 64 168.459 64H222.541C223.052 64 223.307 64 223.502 64.0991C223.674 64.1862 223.813 64.3253 223.901 64.4964C224 64.6908 224 64.9454 224 65.4545V67.5455C224 68.0546 224 68.3092 223.901 68.5036C223.813 68.6747 223.674 68.8138 223.502 68.9009C223.307 69 223.052 69 222.541 69H168.459C167.948 69 167.693 69 167.498 68.9009C167.326 68.8138 167.187 68.6747 167.099 68.5036C167 68.3092 167 68.0546 167 67.5455V65.4545Z" fill="#5D6372"/>
<path d="M342 65.4545C342 64.9454 342 64.6908 342.099 64.4964C342.187 64.3253 342.326 64.1862 342.498 64.0991C342.693 64 342.948 64 343.459 64H397.541C398.052 64 398.307 64 398.502 64.0991C398.674 64.1862 398.813 64.3253 398.901 64.4964C399 64.6908 399 64.9454 399 65.4545V67.5455C399 68.0546 399 68.3092 398.901 68.5036C398.813 68.6747 398.674 68.8138 398.502 68.9009C398.307 69 398.052 69 397.541 69H343.459C342.948 69 342.693 69 342.498 68.9009C342.326 68.8138 342.187 68.6747 342.099 68.5036C342 68.3092 342 68.0546 342 67.5455V65.4545Z" fill="#424754"/>
<path d="M167 86.4545C167 85.9454 167 85.6908 167.05 85.4964C167.094 85.3253 167.164 85.1862 167.251 85.0991C167.349 85 167.478 85 167.735 85H282.265C282.522 85 282.651 85 282.749 85.0991C282.836 85.1862 282.906 85.3253 282.95 85.4964C283 85.6908 283 85.9454 283 86.4545V88.5455C283 89.0546 283 89.3092 282.95 89.5036C282.906 89.6747 282.836 89.8138 282.749 89.9009C282.651 90 282.522 90 282.265 90H167.735C167.478 90 167.349 90 167.251 89.9009C167.164 89.8138 167.094 89.6747 167.05 89.5036C167 89.3092 167 89.0546 167 88.5455V86.4545Z" fill="#C0C4CB"/>
<path d="M167 108.455C167 107.945 167 107.691 167.05 107.496C167.094 107.325 167.164 107.186 167.251 107.099C167.349 107 167.478 107 167.735 107H282.265C282.522 107 282.651 107 282.749 107.099C282.836 107.186 282.906 107.325 282.95 107.496C283 107.691 283 107.945 283 108.455V110.545C283 111.055 283 111.309 282.95 111.504C282.906 111.675 282.836 111.814 282.749 111.901C282.651 112 282.522 112 282.265 112H167.735C167.478 112 167.349 112 167.251 111.901C167.164 111.814 167.094 111.675 167.05 111.504C167 111.309 167 111.055 167 110.545V108.455Z" fill="#C0C4CB"/>
<path d="M167 97.4545C167 96.9454 167 96.6908 167.05 96.4964C167.094 96.3253 167.164 96.1862 167.251 96.0991C167.349 96 167.478 96 167.735 96H282.265C282.522 96 282.651 96 282.749 96.0991C282.836 96.1862 282.906 96.3253 282.95 96.4964C283 96.6908 283 96.9454 283 97.4545V99.5455C283 100.055 283 100.309 282.95 100.504C282.906 100.675 282.836 100.814 282.749 100.901C282.651 101 282.522 101 282.265 101H167.735C167.478 101 167.349 101 167.251 100.901C167.164 100.814 167.094 100.675 167.05 100.504C167 100.309 167 100.055 167 99.5455V97.4545Z" fill="#C0C4CB"/>
<path d="M167 119.455C167 118.945 167 118.691 167.039 118.496C167.074 118.325 167.129 118.186 167.197 118.099C167.274 118 167.375 118 167.577 118H257.423C257.625 118 257.726 118 257.803 118.099C257.871 118.186 257.926 118.325 257.961 118.496C258 118.691 258 118.945 258 119.455V121.545C258 122.055 258 122.309 257.961 122.504C257.926 122.675 257.871 122.814 257.803 122.901C257.726 123 257.625 123 257.423 123H167.577C167.375 123 167.274 123 167.197 122.901C167.129 122.814 167.074 122.675 167.039 122.504C167 122.309 167 122.055 167 121.545V119.455Z" fill="#C0C4CB"/>
<path d="M342 95.1818C342 91.6178 342 89.8359 342.051 88.4746C342.095 87.2772 342.166 86.3037 342.253 85.6936C342.352 85 342.482 85 342.741 85H458.259C458.518 85 458.648 85 458.747 85.6936C458.834 86.3037 458.905 87.2772 458.949 88.4746C459 89.8359 459 91.6178 459 95.1818V109.818C459 113.382 459 115.164 458.949 116.525C458.905 117.723 458.834 118.696 458.747 119.306C458.648 120 458.518 120 458.259 120H342.741C342.482 120 342.352 120 342.253 119.306C342.166 118.696 342.095 117.723 342.051 116.525C342 115.164 342 113.382 342 109.818V95.1818Z" fill="#F3F3F3"/>
<path d="M358 100.2C358 99.0799 358 98.5198 358.037 98.092C358.069 97.7157 358.12 97.4097 358.184 97.218C358.256 97 358.35 97 358.539 97H442.461C442.65 97 442.744 97 442.816 97.218C442.88 97.4097 442.931 97.7157 442.963 98.092C443 98.5198 443 99.0799 443 100.2V104.8C443 105.92 443 106.48 442.963 106.908C442.931 107.284 442.88 107.59 442.816 107.782C442.744 108 442.65 108 442.461 108H358.539C358.35 108 358.256 108 358.184 107.782C358.12 107.59 358.069 107.284 358.037 106.908C358 106.48 358 105.92 358 104.8V100.2Z" fill="#424754"/>
<path d="M342 138.182C342 134.618 342 132.836 342.051 131.475C342.095 130.277 342.166 129.304 342.253 128.694C342.352 128 342.482 128 342.741 128H458.259C458.518 128 458.648 128 458.747 128.694C458.834 129.304 458.905 130.277 458.949 131.475C459 132.836 459 134.618 459 138.182V152.818C459 156.382 459 158.164 458.949 159.525C458.905 160.723 458.834 161.696 458.747 162.306C458.648 163 458.518 163 458.259 163H342.741C342.482 163 342.352 163 342.253 162.306C342.166 161.696 342.095 160.723 342.051 159.525C342 158.164 342 156.382 342 152.818V138.182Z" fill="#F3F3F3"/>
<path d="M358 143.2C358 142.08 358 141.52 358.037 141.092C358.069 140.716 358.12 140.41 358.184 140.218C358.256 140 358.35 140 358.539 140H442.461C442.65 140 442.744 140 442.816 140.218C442.88 140.41 442.931 140.716 442.963 141.092C443 141.52 443 142.08 443 143.2V147.8C443 148.92 443 149.48 442.963 149.908C442.931 150.284 442.88 150.59 442.816 150.782C442.744 151 442.65 151 442.461 151H358.539C358.35 151 358.256 151 358.184 150.782C358.12 150.59 358.069 150.284 358.037 149.908C358 149.48 358 148.92 358 147.8V143.2Z" fill="#424754"/>
<path d="M342 181.182C342 177.618 342 175.836 342.051 174.475C342.095 173.277 342.166 172.304 342.253 171.694C342.352 171 342.482 171 342.741 171H458.259C458.518 171 458.648 171 458.747 171.694C458.834 172.304 458.905 173.277 458.949 174.475C459 175.836 459 177.618 459 181.182V195.818C459 199.382 459 201.164 458.949 202.525C458.905 203.723 458.834 204.696 458.747 205.306C458.648 206 458.518 206 458.259 206H342.741C342.482 206 342.352 206 342.253 205.306C342.166 204.696 342.095 203.723 342.051 202.525C342 201.164 342 199.382 342 195.818V181.182Z" fill="#FFEAEC"/>
<path d="M358 186.2C358 185.08 358 184.52 358.037 184.092C358.069 183.716 358.12 183.41 358.184 183.218C358.256 183 358.35 183 358.539 183H442.461C442.65 183 442.744 183 442.816 183.218C442.88 183.41 442.931 183.716 442.963 184.092C443 184.52 443 185.08 443 186.2V190.8C443 191.92 443 192.48 442.963 192.908C442.931 193.284 442.88 193.59 442.816 193.782C442.744 194 442.65 194 442.461 194H358.539C358.35 194 358.256 194 358.184 193.782C358.12 193.59 358.069 193.284 358.037 192.908C358 192.48 358 191.92 358 190.8V186.2Z" fill="#F04B5D"/>
<path d="M0 4.40122C0 2.86065 0 2.09037 0.298881 1.50195C0.561783 0.984356 0.981285 0.563541 1.49726 0.299816C2.08385 0 2.85173 0 4.3875 0H112.612C114.148 0 114.916 0 115.503 0.299816C116.019 0.563541 116.438 0.984356 116.701 1.50195C117 2.09037 117 2.86066 117 4.40123V293.599C117 295.139 117 295.91 116.701 296.498C116.438 297.016 116.019 297.436 115.503 297.7C114.916 298 114.148 298 112.612 298H4.3875C2.85173 298 2.08385 298 1.49726 297.7C0.981285 297.436 0.561783 297.016 0.298881 296.498C0 295.91 0 295.139 0 293.599V4.40122Z" fill="#FFEAEC"/>
<path d="M0 60.4979C0 59.9736 0 59.7114 0.100018 59.5112C0.187995 59.335 0.328378 59.1918 0.501044 59.102C0.697339 59 0.954305 59 1.46824 59H115.532C116.046 59 116.303 59 116.499 59.102C116.672 59.1918 116.812 59.335 116.9 59.5112C117 59.7114 117 59.9736 117 60.4979V79.5021C117 80.0264 117 80.2886 116.9 80.4888C116.812 80.665 116.672 80.8082 116.499 80.898C116.303 81 116.046 81 115.532 81H1.46823C0.954303 81 0.697339 81 0.501044 80.898C0.328378 80.8082 0.187995 80.665 0.100018 80.4888C0 80.2886 0 80.0264 0 79.5021V60.4979Z" fill="#FFEAEC"/>
<path d="M30 68.4545C30 67.9454 30 67.6908 30.0994 67.4964C30.1868 67.3253 30.3264 67.1862 30.498 67.0991C30.693 67 30.9484 67 31.4592 67H85.5408C86.0516 67 86.307 67 86.502 67.0991C86.6736 67.1862 86.8132 67.3253 86.9006 67.4964C87 67.6908 87 67.9454 87 68.4545V70.5455C87 71.0546 87 71.3092 86.9006 71.5036C86.8132 71.6747 86.6736 71.8138 86.502 71.9009C86.307 72 86.0516 72 85.5408 72H31.4592C30.9484 72 30.693 72 30.498 71.9009C30.3264 71.8138 30.1868 71.6747 30.0994 71.5036C30 71.3092 30 71.0546 30 70.5455V68.4545Z" fill="#F04B5D"/>
<path d="M55 20.4545C55 19.9454 55 19.6908 55.0987 19.4964C55.1855 19.3253 55.3239 19.1862 55.4943 19.0991C55.6879 19 55.9414 19 56.4484 19H96.5516C97.0586 19 97.3121 19 97.5057 19.0991C97.6761 19.1862 97.8145 19.3253 97.9013 19.4964C98 19.6908 98 19.9454 98 20.4545V22.5455C98 23.0546 98 23.3092 97.9013 23.5036C97.8145 23.6747 97.6761 23.8138 97.5057 23.9009C97.3121 24 97.0586 24 96.5516 24H56.4484C55.9414 24 55.6879 24 55.4943 23.9009C55.3239 23.8138 55.1855 23.6747 55.0987 23.5036C55 23.3092 55 23.0546 55 22.5455V20.4545Z" fill="#424754"/>
<path d="M30 15.4452C30 14.9393 30 14.6864 30.1017 14.4932C30.1912 14.3232 30.334 14.185 30.5096 14.0984C30.7093 14 30.9706 14 31.4933 14H42.5067C43.0294 14 43.2907 14 43.4904 14.0984C43.666 14.185 43.8088 14.3232 43.8983 14.4932C44 14.6864 44 14.9393 44 15.4452V26.5548C44 27.0607 44 27.3136 43.8983 27.5068C43.8088 27.6768 43.666 27.815 43.4904 27.9016C43.2907 28 43.0294 28 42.5067 28H31.4933C30.9706 28 30.7093 28 30.5096 27.9016C30.334 27.815 30.1912 27.6768 30.1017 27.5068C30 27.3136 30 27.0607 30 26.5548V15.4452Z" fill="#424754"/>
<path d="M30 90.4545C30 89.9454 30 89.6908 30.0994 89.4964C30.1868 89.3253 30.3264 89.1862 30.498 89.0991C30.693 89 30.9484 89 31.4592 89H85.5408C86.0516 89 86.307 89 86.502 89.0991C86.6736 89.1862 86.8132 89.3253 86.9006 89.4964C87 89.6908 87 89.9454 87 90.4545V92.5455C87 93.0546 87 93.3092 86.9006 93.5036C86.8132 93.6747 86.6736 93.8138 86.502 93.9009C86.307 94 86.0516 94 85.5408 94H31.4592C30.9484 94 30.693 94 30.498 93.9009C30.3264 93.8138 30.1868 93.6747 30.0994 93.5036C30 93.3092 30 93.0546 30 92.5455V90.4545Z" fill="#424754"/>
<path d="M30 111.455C30 110.945 30 110.691 30.0994 110.496C30.1868 110.325 30.3264 110.186 30.498 110.099C30.693 110 30.9484 110 31.4592 110H85.5408C86.0516 110 86.307 110 86.502 110.099C86.6736 110.186 86.8132 110.325 86.9006 110.496C87 110.691 87 110.945 87 111.455V113.545C87 114.055 87 114.309 86.9006 114.504C86.8132 114.675 86.6736 114.814 86.502 114.901C86.307 115 86.0516 115 85.5408 115H31.4592C30.9484 115 30.693 115 30.498 114.901C30.3264 114.814 30.1868 114.675 30.0994 114.504C30 114.309 30 114.055 30 113.545V111.455Z" fill="#424754"/>
<path d="M30 133.455C30 132.945 30 132.691 30.0994 132.496C30.1868 132.325 30.3264 132.186 30.498 132.099C30.693 132 30.9484 132 31.4592 132H85.5408C86.0516 132 86.307 132 86.502 132.099C86.6736 132.186 86.8132 132.325 86.9006 132.496C87 132.691 87 132.945 87 133.455V135.545C87 136.055 87 136.309 86.9006 136.504C86.8132 136.675 86.6736 136.814 86.502 136.901C86.307 137 86.0516 137 85.5408 137H31.4592C30.9484 137 30.693 137 30.498 136.901C30.3264 136.814 30.1868 136.675 30.0994 136.504C30 136.309 30 136.055 30 135.545V133.455Z" fill="#424754"/>
<path d="M30 154.745C30 154.134 30 153.829 30.0994 153.596C30.1868 153.39 30.3264 153.223 30.498 153.119C30.693 153 30.9484 153 31.4592 153H85.5408C86.0516 153 86.307 153 86.502 153.119C86.6736 153.223 86.8132 153.39 86.9006 153.596C87 153.829 87 154.134 87 154.745V157.255C87 157.866 87 158.171 86.9006 158.404C86.8132 158.61 86.6736 158.777 86.502 158.881C86.307 159 86.0516 159 85.5408 159H31.4592C30.9484 159 30.693 159 30.498 158.881C30.3264 158.777 30.1868 158.61 30.0994 158.404C30 158.171 30 157.866 30 157.255V154.745Z" fill="#424754"/>
</svg>
