<svg width="1111" height="298" viewBox="0 0 1111 298" fill="none" xmlns="http://www.w3.org/2000/svg">
<path d="M2.332 94.076C2.332 101.708 7.552 107.432 15.832 107.432C20.548 107.432 23.932 105.452 26.2 103.112L22.96 98.504C21.196 100.268 18.676 101.672 16.12 101.672C11.152 101.672 8.848 97.748 8.848 93.932C8.848 90.224 10.972 86.588 16.12 86.588C18.424 86.588 20.908 87.776 22.564 89.216L25.48 84.464C22.96 81.98 19.288 80.828 15.832 80.828C7.876 80.828 2.332 86.588 2.332 94.076ZM27.3213 97.784C27.3213 103.58 32.0013 107.432 37.8333 107.432C43.6653 107.432 48.3453 103.58 48.3453 97.784C48.3453 91.952 43.6653 88.028 37.7973 88.028C32.0013 88.028 27.3213 91.952 27.3213 97.784ZM33.6213 97.784C33.6213 94.976 35.5653 93.212 37.8333 93.212C40.1013 93.212 42.0453 94.976 42.0453 97.784C42.0453 100.556 40.1013 102.248 37.8333 102.248C35.5653 102.248 33.6213 100.556 33.6213 97.784ZM51.463 107H57.691V98.612C57.691 95.984 58.951 93.68 61.723 93.68C63.091 93.68 63.775 94.4 63.775 96.128V107H70.003V94.976C70.003 89.756 67.087 88.028 63.343 88.028C60.067 88.028 58.303 89.792 57.439 91.232H57.367C57.367 91.232 57.439 90.692 57.439 90.08V88.46H51.463V107ZM78.2504 107H85.8464L92.1464 88.46H85.5584L82.7144 98.324C82.3544 99.548 82.0304 101.528 82.0304 101.528H81.9584C81.9584 101.528 81.6344 99.512 81.2744 98.324L78.3944 88.46H71.8424L78.2504 107ZM92.9932 97.712C92.9932 102.644 96.5572 107.432 103.181 107.432C106.025 107.432 109.085 106.46 111.101 104.732L108.797 100.376C107.285 101.384 105.521 102.248 103.685 102.248C101.705 102.248 99.8332 101.204 99.3652 98.936H111.065C111.137 98.288 111.209 97.64 111.209 96.992C111.209 91.844 108.113 88.028 102.641 88.028C96.6652 88.028 92.9932 92.276 92.9932 97.712ZM99.5092 95.372C99.8332 93.896 100.697 92.6 102.497 92.6C104.081 92.6 105.053 93.86 105.053 95.372H99.5092ZM114.463 107H120.691V98.612C120.691 95.984 121.951 93.68 124.723 93.68C126.091 93.68 126.775 94.4 126.775 96.128V107H133.003V94.976C133.003 89.756 130.087 88.028 126.343 88.028C123.067 88.028 121.303 89.792 120.439 91.232H120.367C120.367 91.232 120.439 90.692 120.439 90.08V88.46H114.463V107ZM137.07 86.12H143.154V81.26H137.07V86.12ZM136.998 107H143.226V88.46H136.998V107ZM146.36 97.712C146.36 102.644 149.924 107.432 156.548 107.432C159.392 107.432 162.452 106.46 164.468 104.732L162.164 100.376C160.652 101.384 158.888 102.248 157.052 102.248C155.072 102.248 153.2 101.204 152.732 98.936H164.432C164.504 98.288 164.576 97.64 164.576 96.992C164.576 91.844 161.48 88.028 156.008 88.028C150.032 88.028 146.36 92.276 146.36 97.712ZM152.876 95.372C153.2 93.896 154.064 92.6 155.864 92.6C157.448 92.6 158.42 93.86 158.42 95.372H152.876ZM167.83 107H174.058V98.612C174.058 95.984 175.318 93.68 178.09 93.68C179.458 93.68 180.142 94.4 180.142 96.128V107H186.37V94.976C186.37 89.756 183.454 88.028 179.71 88.028C176.434 88.028 174.67 89.792 173.806 91.232H173.734C173.734 91.232 173.806 90.692 173.806 90.08V88.46H167.83V107ZM191.445 100.16C191.445 106.388 197.169 107.18 200.121 107.18C200.841 107.18 201.345 107.108 201.813 107.072V101.672C201.417 101.708 201.201 101.708 200.985 101.708C199.797 101.708 197.673 101.42 197.673 99.332V93.644H201.561V88.784H197.673V83.456H191.625V88.784H189.069V93.644H191.445V100.16ZM212.762 104.696C214.814 106.532 217.658 107.432 220.322 107.432C225.074 107.432 227.954 104.804 227.954 101.348C227.954 95.336 219.278 95.804 219.278 93.86C219.278 93.356 219.674 92.96 221.006 92.96C222.59 92.96 224.606 93.608 225.686 94.472L227.81 90.152C225.938 88.64 223.562 88.028 221.186 88.028C216.902 88.028 213.482 90.08 213.482 93.896C213.482 99.98 222.158 99.548 222.158 101.528C222.158 102.104 221.726 102.5 220.466 102.5C218.702 102.5 216.794 101.78 215.426 100.628L212.762 104.696ZM230.067 97.712C230.067 102.824 233.775 107.432 240.399 107.432C243.495 107.432 246.519 106.244 248.355 104.372L246.087 100.016C244.755 101.168 242.811 102.248 241.011 102.248C237.879 102.248 236.367 99.836 236.367 97.64C236.367 95.444 237.843 93.212 240.795 93.212C242.415 93.212 244.071 93.968 245.151 95.012L247.779 90.836C245.943 88.856 242.991 88.028 240.399 88.028C233.739 88.028 230.067 92.744 230.067 97.712ZM250.975 107H257.203V98.648C257.203 95.804 258.535 93.68 261.235 93.68C262.603 93.68 263.287 94.4 263.287 96.128V107H269.515V94.976C269.515 89.756 266.599 88.028 262.855 88.028C260.407 88.028 258.247 89.144 257.203 90.98H257.131C257.131 90.98 257.203 90.332 257.203 89.396V81.26H250.975V107ZM272.466 97.712C272.466 102.644 276.03 107.432 282.654 107.432C285.498 107.432 288.558 106.46 290.574 104.732L288.27 100.376C286.758 101.384 284.994 102.248 283.158 102.248C281.178 102.248 279.306 101.204 278.838 98.936H290.538C290.61 98.288 290.682 97.64 290.682 96.992C290.682 91.844 287.586 88.028 282.114 88.028C276.138 88.028 272.466 92.276 272.466 97.712ZM278.982 95.372C279.306 93.896 280.17 92.6 281.97 92.6C283.554 92.6 284.526 93.86 284.526 95.372H278.982ZM292.964 97.712C292.964 103.472 296.276 107.432 301.316 107.432C303.512 107.432 305.528 106.496 306.68 104.732H306.752C306.752 104.732 306.716 105.2 306.716 105.776V107H312.548V81.26H306.32V88.676C306.32 89.144 306.356 89.504 306.356 89.504H306.284C305.06 88.28 303.08 88.028 301.424 88.028C296.492 88.028 292.964 91.844 292.964 97.712ZM299.228 97.712C299.228 94.868 300.92 93.284 302.864 93.284C305.312 93.284 306.5 95.48 306.5 97.712C306.5 100.916 304.736 102.284 302.864 102.284C300.704 102.284 299.228 100.484 299.228 97.712ZM316.537 100.484C316.537 105.704 319.453 107.432 323.125 107.432C325.609 107.432 327.913 106.208 328.921 104.228H328.993C328.993 104.228 328.921 104.768 328.921 105.38V107H334.897V88.46H328.669V96.668C328.669 99.44 327.409 101.78 324.745 101.78C323.449 101.78 322.765 101.06 322.765 99.332V88.46H316.537V100.484ZM339.04 100.16C339.04 106.388 342.568 107.18 345.88 107.18C346.672 107.18 347.32 107.108 347.752 107.072V101.672C347.464 101.708 347.176 101.708 346.996 101.708C345.592 101.708 345.268 101.096 345.268 99.332V81.26H339.04V100.16ZM349.669 97.712C349.669 102.644 353.233 107.432 359.857 107.432C362.701 107.432 365.761 106.46 367.777 104.732L365.473 100.376C363.961 101.384 362.197 102.248 360.361 102.248C358.381 102.248 356.509 101.204 356.041 98.936H367.741C367.813 98.288 367.885 97.64 367.885 96.992C367.885 91.844 364.789 88.028 359.317 88.028C353.341 88.028 349.669 92.276 349.669 97.712ZM356.185 95.372C356.509 93.896 357.373 92.6 359.173 92.6C360.757 92.6 361.729 93.86 361.729 95.372H356.185ZM1.792 143.78C1.792 146.984 4.276 149.432 7.84 149.432C9.964 149.432 12.124 148.46 13.348 146.732H13.42C13.42 146.732 13.348 147.272 13.348 147.884V149H19.036V137.588C19.036 132.872 15.868 130.028 10.756 130.028C7.732 130.028 4.492 131.216 2.908 132.44L5.068 136.832C6.544 135.86 8.38 135.068 10.18 135.068C11.548 135.068 12.808 135.572 12.808 137.12V137.444H12.268C7.696 137.444 1.792 138.812 1.792 143.78ZM7.948 143.204C7.948 141.512 10.396 141.008 12.304 141.008H12.88V141.512C12.88 143.024 11.512 144.788 9.712 144.788C8.56 144.788 7.948 144.068 7.948 143.204ZM22.9864 149H29.2144V140.612C29.2144 137.984 30.4744 135.68 33.2464 135.68C34.6144 135.68 35.2984 136.4 35.2984 138.128V149H41.5264V136.976C41.5264 131.756 38.6104 130.028 34.8664 130.028C31.5904 130.028 29.8264 131.792 28.9624 133.232H28.8904C28.8904 133.232 28.9624 132.692 28.9624 132.08V130.46H22.9864V149ZM44.5496 139.712C44.5496 145.472 47.8616 149.432 52.9016 149.432C55.0976 149.432 57.1136 148.496 58.2656 146.732H58.3376C58.3376 146.732 58.3016 147.2 58.3016 147.776V149H64.1336V123.26H57.9056V130.676C57.9056 131.144 57.9416 131.504 57.9416 131.504H57.8696C56.6456 130.28 54.6656 130.028 53.0096 130.028C48.0776 130.028 44.5496 133.844 44.5496 139.712ZM50.8136 139.712C50.8136 136.868 52.5056 135.284 54.4496 135.284C56.8976 135.284 58.0856 137.48 58.0856 139.712C58.0856 142.916 56.3216 144.284 54.4496 144.284C52.2896 144.284 50.8136 142.484 50.8136 139.712ZM77.7149 142.16C77.7149 148.388 83.4389 149.18 86.3909 149.18C87.1109 149.18 87.6149 149.108 88.0829 149.072V143.672C87.6869 143.708 87.4709 143.708 87.2549 143.708C86.0669 143.708 83.9429 143.42 83.9429 141.332V135.644H87.8309V130.784H83.9429V125.456H77.8949V130.784H75.3389V135.644H77.7149V142.16ZM90.3917 139.712C90.3917 144.644 93.9557 149.432 100.58 149.432C103.424 149.432 106.484 148.46 108.5 146.732L106.196 142.376C104.684 143.384 102.92 144.248 101.084 144.248C99.1037 144.248 97.2317 143.204 96.7637 140.936H108.464C108.536 140.288 108.608 139.64 108.608 138.992C108.608 133.844 105.512 130.028 100.04 130.028C94.0637 130.028 90.3917 134.276 90.3917 139.712ZM96.9077 137.372C97.2317 135.896 98.0957 134.6 99.8957 134.6C101.48 134.6 102.452 135.86 102.452 137.372H96.9077ZM110.565 143.78C110.565 146.984 113.049 149.432 116.613 149.432C118.737 149.432 120.897 148.46 122.121 146.732H122.193C122.193 146.732 122.121 147.272 122.121 147.884V149H127.809V137.588C127.809 132.872 124.641 130.028 119.529 130.028C116.505 130.028 113.265 131.216 111.681 132.44L113.841 136.832C115.317 135.86 117.153 135.068 118.953 135.068C120.321 135.068 121.581 135.572 121.581 137.12V137.444H121.041C116.469 137.444 110.565 138.812 110.565 143.78ZM116.721 143.204C116.721 141.512 119.169 141.008 121.077 141.008H121.653V141.512C121.653 143.024 120.285 144.788 118.485 144.788C117.333 144.788 116.721 144.068 116.721 143.204ZM130.716 139.712C130.716 144.824 134.424 149.432 141.048 149.432C144.144 149.432 147.168 148.244 149.004 146.372L146.736 142.016C145.404 143.168 143.46 144.248 141.66 144.248C138.528 144.248 137.016 141.836 137.016 139.64C137.016 137.444 138.492 135.212 141.444 135.212C143.064 135.212 144.72 135.968 145.8 137.012L148.428 132.836C146.592 130.856 143.64 130.028 141.048 130.028C134.388 130.028 130.716 134.744 130.716 139.712ZM151.623 149H157.851V140.648C157.851 137.804 159.183 135.68 161.883 135.68C163.251 135.68 163.935 136.4 163.935 138.128V149H170.163V136.976C170.163 131.756 167.247 130.028 163.503 130.028C161.055 130.028 158.895 131.144 157.851 132.98H157.779C157.779 132.98 157.851 132.332 157.851 131.396V123.26H151.623V149ZM173.114 139.712C173.114 144.644 176.678 149.432 183.302 149.432C186.146 149.432 189.206 148.46 191.222 146.732L188.918 142.376C187.406 143.384 185.642 144.248 183.806 144.248C181.826 144.248 179.954 143.204 179.486 140.936H191.186C191.258 140.288 191.33 139.64 191.33 138.992C191.33 133.844 188.234 130.028 182.762 130.028C176.786 130.028 173.114 134.276 173.114 139.712ZM179.63 137.372C179.954 135.896 180.818 134.6 182.618 134.6C184.202 134.6 185.174 135.86 185.174 137.372H179.63ZM194.584 149H200.812V141.8C200.812 138.416 202.468 136.22 205.924 136.22C206.356 136.22 206.968 136.256 207.184 136.328V130.208C206.968 130.172 206.716 130.136 206.464 130.136C203.692 130.136 201.352 132.224 200.56 134.744H200.488C200.488 134.744 200.56 134.204 200.56 133.592V130.46H194.584V149ZM220.893 149H227.913L230.001 140.432C230.253 139.424 230.361 138.452 230.361 138.452H230.433C230.433 138.452 230.541 139.424 230.793 140.432L232.881 149H239.829L245.013 130.46H238.533L236.229 141.404C236.013 142.412 235.977 143.348 235.977 143.348H235.905C235.905 143.348 235.869 142.412 235.617 141.404L233.061 130.46H227.733L225.177 141.404C224.925 142.412 224.853 143.348 224.853 143.348H224.781C224.781 143.348 224.781 142.412 224.564 141.404L222.261 130.46H215.709L220.893 149ZM247.566 128.12H253.65V123.26H247.566V128.12ZM247.494 149H253.722V130.46H247.494V149ZM257.865 142.16C257.865 148.388 261.393 149.18 264.705 149.18C265.497 149.18 266.145 149.108 266.577 149.072V143.672C266.289 143.708 266.001 143.708 265.821 143.708C264.417 143.708 264.093 143.096 264.093 141.332V123.26H257.865V142.16ZM269.501 142.16C269.501 148.388 273.029 149.18 276.341 149.18C277.133 149.18 277.781 149.108 278.213 149.072V143.672C277.925 143.708 277.637 143.708 277.457 143.708C276.053 143.708 275.729 143.096 275.729 141.332V123.26H269.501V142.16ZM290.174 149H295.898V148.28C295.898 147.704 295.862 147.236 295.862 147.236H295.934C297.194 148.748 299.246 149.432 301.118 149.432C306.05 149.432 309.758 145.616 309.758 139.748C309.758 133.988 306.446 130.028 301.406 130.028C299.534 130.028 297.482 130.784 296.402 132.008H296.33C296.33 132.008 296.402 131.36 296.402 130.424V123.26H290.174V149ZM296.222 139.856C296.222 136.652 297.986 135.284 299.858 135.284C302.018 135.284 303.494 137.084 303.494 139.856C303.494 142.7 301.802 144.284 299.858 144.284C297.41 144.284 296.222 142.088 296.222 139.856ZM311.911 139.712C311.911 144.644 315.475 149.432 322.099 149.432C324.943 149.432 328.003 148.46 330.019 146.732L327.715 142.376C326.203 143.384 324.439 144.248 322.603 144.248C320.623 144.248 318.751 143.204 318.283 140.936H329.983C330.055 140.288 330.127 139.64 330.127 138.992C330.127 133.844 327.031 130.028 321.559 130.028C315.583 130.028 311.911 134.276 311.911 139.712ZM318.427 137.372C318.751 135.896 319.615 134.6 321.415 134.6C322.999 134.6 323.971 135.86 323.971 137.372H318.427ZM332.337 139.712C332.337 144.824 336.045 149.432 342.669 149.432C345.765 149.432 348.789 148.244 350.625 146.372L348.357 142.016C347.025 143.168 345.081 144.248 343.281 144.248C340.149 144.248 338.637 141.836 338.637 139.64C338.637 137.444 340.113 135.212 343.065 135.212C344.685 135.212 346.341 135.968 347.421 137.012L350.049 132.836C348.213 130.856 345.261 130.028 342.669 130.028C336.009 130.028 332.337 134.744 332.337 139.712ZM351.814 139.784C351.814 145.58 356.494 149.432 362.326 149.432C368.158 149.432 372.838 145.58 372.838 139.784C372.838 133.952 368.158 130.028 362.29 130.028C356.494 130.028 351.814 133.952 351.814 139.784ZM358.114 139.784C358.114 136.976 360.058 135.212 362.326 135.212C364.594 135.212 366.538 136.976 366.538 139.784C366.538 142.556 364.594 144.248 362.326 144.248C360.058 144.248 358.114 142.556 358.114 139.784ZM375.955 149H382.183V141.152C382.183 138.596 382.903 135.68 385.747 135.68C386.935 135.68 387.187 136.652 387.187 138.02V149H393.415V141.152C393.415 138.38 394.279 135.68 396.979 135.68C398.167 135.68 398.419 136.652 398.419 138.02V149H404.647V136.976C404.647 131.864 402.019 130.028 398.635 130.028C395.863 130.028 393.667 131.612 392.695 133.16H392.623C391.651 131.072 389.779 130.028 387.439 130.028C384.523 130.028 382.795 131.936 381.931 133.232H381.859C381.859 133.232 381.931 132.692 381.931 132.08V130.46H375.955V149ZM407.642 139.712C407.642 144.644 411.206 149.432 417.83 149.432C420.674 149.432 423.734 148.46 425.75 146.732L423.446 142.376C421.934 143.384 420.17 144.248 418.334 144.248C416.354 144.248 414.482 143.204 414.014 140.936H425.714C425.786 140.288 425.858 139.64 425.858 138.992C425.858 133.844 422.762 130.028 417.29 130.028C411.314 130.028 407.642 134.276 407.642 139.712ZM414.158 137.372C414.482 135.896 415.346 134.6 417.146 134.6C418.73 134.6 419.702 135.86 419.702 137.372H414.158ZM3.268 192.692L1.288 197.264C1.288 197.264 3.16 198.56 5.608 198.56C8.56 198.56 11.8 197.12 13.348 192.98L20.944 172.46H14.14L11.8 181.1C11.548 182.108 11.188 183.872 11.188 183.872H11.116C11.116 183.872 10.756 182 10.432 180.992L7.696 172.46H0.64L8.524 190.64L8.164 191.504C7.516 193.088 6.184 193.376 5.176 193.376C4.276 193.376 3.268 192.692 3.268 192.692ZM21.5909 181.784C21.5909 187.58 26.2709 191.432 32.1029 191.432C37.9349 191.432 42.6149 187.58 42.6149 181.784C42.6149 175.952 37.9349 172.028 32.0669 172.028C26.2709 172.028 21.5909 175.952 21.5909 181.784ZM27.8909 181.784C27.8909 178.976 29.8349 177.212 32.1029 177.212C34.3709 177.212 36.3149 178.976 36.3149 181.784C36.3149 184.556 34.3709 186.248 32.1029 186.248C29.8349 186.248 27.8909 184.556 27.8909 181.784ZM45.5525 184.484C45.5525 189.704 48.4685 191.432 52.1405 191.432C54.6245 191.432 56.9285 190.208 57.9365 188.228H58.0085C58.0085 188.228 57.9365 188.768 57.9365 189.38V191H63.9125V172.46H57.6845V180.668C57.6845 183.44 56.4245 185.78 53.7605 185.78C52.4645 185.78 51.7805 185.06 51.7805 183.332V172.46H45.5525V184.484ZM68.0919 191H74.3199V183.8C74.3199 180.416 75.9759 178.22 79.4319 178.22C79.8639 178.22 80.4759 178.256 80.6919 178.328V172.208C80.4759 172.172 80.2239 172.136 79.9719 172.136C77.1999 172.136 74.8599 174.224 74.0679 176.744H73.9959C73.9959 176.744 74.0679 176.204 74.0679 175.592V172.46H68.0919V191ZM93.0489 191H99.2769V177.644H102.697V172.784H99.2769V172.208C99.2769 170.624 101.185 170.408 102.409 170.408C102.877 170.408 103.273 170.444 103.417 170.48V165.224C102.769 165.116 102.193 165.116 101.545 165.116C98.5569 165.116 93.0489 165.944 93.0489 172.028V172.784H90.7809V177.644H93.0489V191ZM105.463 191H111.691V183.8C111.691 180.416 113.347 178.22 116.803 178.22C117.235 178.22 117.847 178.256 118.063 178.328V172.208C117.847 172.172 117.595 172.136 117.343 172.136C114.571 172.136 112.231 174.224 111.439 176.744H111.367C111.367 176.744 111.439 176.204 111.439 175.592V172.46H105.463V191ZM120.863 170.12H126.947V165.26H120.863V170.12ZM120.791 191H127.019V172.46H120.791V191ZM130.153 181.712C130.153 186.644 133.717 191.432 140.341 191.432C143.185 191.432 146.245 190.46 148.261 188.732L145.957 184.376C144.445 185.384 142.681 186.248 140.845 186.248C138.865 186.248 136.993 185.204 136.525 182.936H148.225C148.297 182.288 148.369 181.64 148.369 180.992C148.369 175.844 145.273 172.028 139.801 172.028C133.825 172.028 130.153 176.276 130.153 181.712ZM136.669 179.372C136.993 177.896 137.857 176.6 139.657 176.6C141.241 176.6 142.213 177.86 142.213 179.372H136.669ZM151.623 191H157.851V182.612C157.851 179.984 159.111 177.68 161.883 177.68C163.251 177.68 163.935 178.4 163.935 180.128V191H170.163V178.976C170.163 173.756 167.247 172.028 163.503 172.028C160.227 172.028 158.463 173.792 157.599 175.232H157.527C157.527 175.232 157.599 174.692 157.599 174.08V172.46H151.623V191ZM173.186 181.712C173.186 187.472 176.498 191.432 181.538 191.432C183.734 191.432 185.75 190.496 186.902 188.732H186.974C186.974 188.732 186.938 189.2 186.938 189.776V191H192.77V165.26H186.542V172.676C186.542 173.144 186.578 173.504 186.578 173.504H186.506C185.282 172.28 183.302 172.028 181.646 172.028C176.714 172.028 173.186 175.844 173.186 181.712ZM179.45 181.712C179.45 178.868 181.142 177.284 183.086 177.284C185.534 177.284 186.722 179.48 186.722 181.712C186.722 184.916 184.958 186.284 183.086 186.284C180.926 186.284 179.45 184.484 179.45 181.712Z" fill="#222224"/>
<path d="M1.882 251.556C1.882 255.3 4.636 258.216 8.416 258.216C12.196 258.216 14.932 255.3 14.932 251.556C14.932 247.902 12.196 245.076 8.416 245.076C4.636 245.076 1.882 247.902 1.882 251.556ZM3.718 251.556C3.718 248.802 5.698 246.696 8.416 246.696C11.116 246.696 13.096 248.802 13.096 251.556C13.096 254.4 11.116 256.578 8.416 256.578C5.698 256.578 3.718 254.4 3.718 251.556ZM17.0629 258H18.8089V253.626C18.8089 251.754 20.0689 250.278 21.8509 250.278C23.3089 250.278 23.5609 251.286 23.5609 252.564V258H25.3069V252.168C25.3069 249.846 24.3349 248.676 22.1929 248.676C20.1949 248.676 19.0789 250.026 18.7369 250.818H18.7009C18.7009 250.818 18.7549 250.512 18.7549 250.134V248.892H17.0629V258ZM27.9086 255.498C27.9086 257.802 29.3486 258.09 30.3566 258.09C30.6086 258.09 30.8066 258.054 30.9326 258.036V256.488C30.8246 256.506 30.6986 256.506 30.6266 256.506C30.0866 256.506 29.6366 256.29 29.6366 255.21V245.292H27.9086V255.498ZM32.6714 247.056H34.4714V245.292H32.6714V247.056ZM32.7074 258H34.4534V248.892H32.7074V258ZM37.1371 258H38.8831V253.626C38.8831 251.754 40.1431 250.278 41.9251 250.278C43.3831 250.278 43.6351 251.286 43.6351 252.564V258H45.3811V252.168C45.3811 249.846 44.4091 248.676 42.2671 248.676C40.2691 248.676 39.1531 250.026 38.8111 250.818H38.7751C38.7751 250.818 38.8291 250.512 38.8291 250.134V248.892H37.1371V258ZM47.3888 253.446C47.3888 256.146 49.3688 258.216 52.2308 258.216C53.4908 258.216 54.8768 257.73 55.7588 256.92L55.0208 255.642C54.3008 256.29 53.3108 256.704 52.3388 256.704C50.7008 256.704 49.2968 255.642 49.2068 253.68H55.8308C55.8668 253.428 55.9028 253.176 55.9028 252.942C55.9028 250.602 54.5348 248.676 51.9608 248.676C49.3688 248.676 47.3888 250.548 47.3888 253.446ZM49.2608 252.42C49.5128 250.908 50.5748 250.026 51.9248 250.026C53.1128 250.026 54.0848 250.854 54.1388 252.42H49.2608ZM62.5023 255.498C62.5023 257.802 63.9423 258.09 64.9503 258.09C65.2023 258.09 65.4003 258.054 65.5263 258.036V256.488C65.4183 256.506 65.2923 256.506 65.2203 256.506C64.6803 256.506 64.2303 256.29 64.2303 255.21V245.292H62.5023V255.498ZM66.7072 253.446C66.7072 256.146 68.6872 258.216 71.5492 258.216C72.8092 258.216 74.1952 257.73 75.0772 256.92L74.3392 255.642C73.6192 256.29 72.6292 256.704 71.6572 256.704C70.0192 256.704 68.6152 255.642 68.5252 253.68H75.1492C75.1852 253.428 75.2212 253.176 75.2212 252.942C75.2212 250.602 73.8532 248.676 71.2792 248.676C68.6872 248.676 66.7072 250.548 66.7072 253.446ZM68.5792 252.42C68.8312 250.908 69.8932 250.026 71.2432 250.026C72.4312 250.026 73.4032 250.854 73.4572 252.42H68.5792ZM76.5647 255.516C76.5647 257.226 78.0227 258.216 79.6067 258.216C80.9567 258.216 82.0727 257.406 82.5947 256.362H82.6307C82.6307 256.362 82.5767 256.668 82.5767 257.082V258H84.2147V252.24C84.2147 249.936 82.9007 248.676 80.6147 248.676C79.3367 248.676 77.9507 249.144 77.2127 249.756L77.9147 251.034C78.6527 250.512 79.5707 250.152 80.4707 250.152C81.6047 250.152 82.4687 250.656 82.4687 252.15V252.33H82.0007C80.1107 252.33 76.5647 252.654 76.5647 255.516ZM78.3107 255.372C78.3107 253.698 80.7227 253.59 82.0187 253.59H82.4687V253.932C82.4687 255.282 81.5507 256.83 80.0207 256.83C78.8867 256.83 78.3107 256.092 78.3107 255.372ZM86.8129 258H88.5589V254.22C88.5589 252.456 89.3869 250.512 91.3489 250.512C91.5289 250.512 91.7809 250.53 91.8529 250.548V248.82C91.7089 248.802 91.5469 248.784 91.3849 248.784C89.9809 248.784 88.9189 249.882 88.4869 251.196H88.4509C88.4509 251.196 88.5049 250.908 88.5049 250.53V248.892H86.8129V258ZM93.5805 258H95.3265V253.626C95.3265 251.754 96.5865 250.278 98.3685 250.278C99.8265 250.278 100.078 251.286 100.078 252.564V258H101.824V252.168C101.824 249.846 100.852 248.676 98.7105 248.676C96.7125 248.676 95.5965 250.026 95.2545 250.818H95.2185C95.2185 250.818 95.2725 250.512 95.2725 250.134V248.892H93.5805V258ZM104.39 247.056H106.19V245.292H104.39V247.056ZM104.426 258H106.172V248.892H104.426V258ZM108.856 258H110.602V253.626C110.602 251.754 111.862 250.278 113.644 250.278C115.102 250.278 115.354 251.286 115.354 252.564V258H117.1V252.168C117.1 249.846 116.128 248.676 113.986 248.676C111.988 248.676 110.872 250.026 110.53 250.818H110.494C110.494 250.818 110.548 250.512 110.548 250.134V248.892H108.856V258ZM120.566 259.656L119.99 261.024C120.89 261.474 122.006 261.78 123.104 261.78C125.408 261.78 127.694 260.628 127.694 257.622V248.892H126.02V249.792C126.02 249.954 126.074 250.062 126.074 250.062H126.02C125.444 249.09 124.274 248.676 123.14 248.676C120.602 248.676 119.162 250.62 119.162 253.248C119.162 255.858 120.692 257.892 123.23 257.892C124.544 257.892 125.426 257.316 125.966 256.416H126.002C126.002 256.416 125.948 256.704 125.948 256.992V257.73C125.948 259.548 124.652 260.268 123.068 260.268C122.186 260.268 121.286 260.016 120.566 259.656ZM120.926 253.194C120.926 251.34 121.844 250.188 123.41 250.188C124.832 250.188 125.984 250.872 125.984 253.248C125.984 255.624 124.832 256.38 123.572 256.38C121.934 256.38 120.926 255.084 120.926 253.194ZM134.133 255.516C134.133 257.226 135.591 258.216 137.175 258.216C138.525 258.216 139.641 257.406 140.163 256.362H140.199C140.199 256.362 140.145 256.668 140.145 257.082V258H141.783V252.24C141.783 249.936 140.469 248.676 138.183 248.676C136.905 248.676 135.519 249.144 134.781 249.756L135.483 251.034C136.221 250.512 137.139 250.152 138.039 250.152C139.173 250.152 140.037 250.656 140.037 252.15V252.33H139.569C137.679 252.33 134.133 252.654 134.133 255.516ZM135.879 255.372C135.879 253.698 138.291 253.59 139.587 253.59H140.037V253.932C140.037 255.282 139.119 256.83 137.589 256.83C136.455 256.83 135.879 256.092 135.879 255.372ZM144.381 258H146.127V253.626C146.127 251.754 147.387 250.278 149.169 250.278C150.627 250.278 150.879 251.286 150.879 252.564V258H152.625V252.168C152.625 249.846 151.653 248.676 149.511 248.676C147.513 248.676 146.397 250.026 146.055 250.818H146.019C146.019 250.818 146.073 250.512 146.073 250.134V248.892H144.381V258ZM154.636 259.89L154.024 261.222C154.024 261.222 154.762 261.78 155.77 261.78C157.048 261.78 158.182 261.06 158.722 259.638L163.006 248.892H161.116L158.902 254.868C158.74 255.336 158.596 255.948 158.596 255.948H158.56C158.56 255.948 158.398 255.3 158.218 254.85L155.932 248.892H153.97L157.786 257.892L157.336 258.936C156.994 259.764 156.4 260.286 155.68 260.286C155.14 260.286 154.636 259.89 154.636 259.89ZM165.097 254.67C165.097 257.712 167.419 258.09 168.589 258.09C168.859 258.09 169.057 258.054 169.201 258.036V256.488C169.021 256.524 168.913 256.524 168.787 256.524C168.121 256.524 166.843 256.29 166.843 254.472V250.404H169.039V248.982H166.843V246.39H165.133V248.982H163.909V250.404H165.097V254.67ZM170.959 247.056H172.759V245.292H170.959V247.056ZM170.995 258H172.741V248.892H170.995V258ZM175.424 258H177.17V253.752C177.17 252.06 178.178 250.26 179.906 250.26C181.292 250.26 181.472 251.358 181.472 252.546V258H183.218V253.752C183.218 252.006 184.226 250.26 185.918 250.26C187.268 250.26 187.52 251.268 187.52 252.546V258H189.266V252.168C189.266 249.846 188.33 248.676 186.26 248.676C184.784 248.676 183.524 249.684 183.02 250.746H182.984C182.678 249.378 181.796 248.676 180.266 248.676C178.826 248.676 177.53 249.756 177.098 250.818H177.062C177.062 250.818 177.116 250.512 177.116 250.134V248.892H175.424V258ZM191.283 253.446C191.283 256.146 193.263 258.216 196.125 258.216C197.385 258.216 198.771 257.73 199.653 256.92L198.915 255.642C198.195 256.29 197.205 256.704 196.233 256.704C194.595 256.704 193.191 255.642 193.101 253.68H199.725C199.761 253.428 199.797 253.176 199.797 252.942C199.797 250.602 198.429 248.676 195.855 248.676C193.263 248.676 191.283 250.548 191.283 253.446ZM193.155 252.42C193.407 250.908 194.469 250.026 195.819 250.026C197.007 250.026 197.979 250.854 198.033 252.42H193.155ZM205.641 255.516C205.641 257.226 207.099 258.216 208.683 258.216C210.033 258.216 211.149 257.406 211.671 256.362H211.707C211.707 256.362 211.653 256.668 211.653 257.082V258H213.291V252.24C213.291 249.936 211.977 248.676 209.691 248.676C208.413 248.676 207.027 249.144 206.289 249.756L206.991 251.034C207.729 250.512 208.647 250.152 209.547 250.152C210.681 250.152 211.545 250.656 211.545 252.15V252.33H211.077C209.187 252.33 205.641 252.654 205.641 255.516ZM207.387 255.372C207.387 253.698 209.799 253.59 211.095 253.59H211.545V253.932C211.545 255.282 210.627 256.83 209.097 256.83C207.963 256.83 207.387 256.092 207.387 255.372ZM215.889 258H217.635V253.626C217.635 251.754 218.895 250.278 220.677 250.278C222.135 250.278 222.387 251.286 222.387 252.564V258H224.133V252.168C224.133 249.846 223.161 248.676 221.019 248.676C219.021 248.676 217.905 250.026 217.563 250.818H217.527C217.527 250.818 217.581 250.512 217.581 250.134V248.892H215.889V258ZM226.177 253.446C226.177 256.272 227.743 258.216 230.191 258.216C231.631 258.216 232.693 257.46 233.215 256.47H233.251C233.251 256.47 233.197 256.722 233.197 257.082V258H234.853V245.292H233.125V249.558C233.125 249.9 233.161 250.17 233.161 250.17H233.125C232.549 249.198 231.451 248.676 230.299 248.676C227.887 248.676 226.177 250.548 226.177 253.446ZM227.959 253.446C227.959 251.376 229.147 250.206 230.569 250.206C232.315 250.206 233.161 251.79 233.161 253.428C233.161 255.732 231.883 256.704 230.533 256.704C229.021 256.704 227.959 255.426 227.959 253.446ZM241.451 253.446C241.451 256.146 243.431 258.216 246.293 258.216C247.553 258.216 248.939 257.73 249.821 256.92L249.083 255.642C248.363 256.29 247.373 256.704 246.401 256.704C244.763 256.704 243.359 255.642 243.269 253.68H249.893C249.929 253.428 249.965 253.176 249.965 252.942C249.965 250.602 248.597 248.676 246.023 248.676C243.431 248.676 241.451 250.548 241.451 253.446ZM243.323 252.42C243.575 250.908 244.637 250.026 245.987 250.026C247.175 250.026 248.147 250.854 248.201 252.42H243.323ZM254.283 258H256.281L259.647 248.892H257.811L255.597 255.048C255.435 255.552 255.291 256.29 255.291 256.29H255.255C255.255 256.29 255.093 255.552 254.931 255.048L252.717 248.892H250.863L254.283 258ZM260.541 253.446C260.541 256.146 262.521 258.216 265.383 258.216C266.643 258.216 268.029 257.73 268.911 256.92L268.173 255.642C267.453 256.29 266.463 256.704 265.491 256.704C263.853 256.704 262.449 255.642 262.359 253.68H268.983C269.019 253.428 269.055 253.176 269.055 252.942C269.055 250.602 267.687 248.676 265.113 248.676C262.521 248.676 260.541 250.548 260.541 253.446ZM262.413 252.42C262.665 250.908 263.727 250.026 265.077 250.026C266.265 250.026 267.237 250.854 267.291 252.42H262.413ZM271.155 258H272.901V254.22C272.901 252.456 273.729 250.512 275.691 250.512C275.871 250.512 276.123 250.53 276.195 250.548V248.82C276.051 248.802 275.889 248.784 275.727 248.784C274.323 248.784 273.261 249.882 272.829 251.196H272.793C272.793 251.196 272.847 250.908 272.847 250.53V248.892H271.155V258ZM277.472 259.89L276.86 261.222C276.86 261.222 277.598 261.78 278.606 261.78C279.884 261.78 281.018 261.06 281.558 259.638L285.842 248.892H283.952L281.738 254.868C281.576 255.336 281.432 255.948 281.432 255.948H281.396C281.396 255.948 281.234 255.3 281.054 254.85L278.768 248.892H276.806L280.622 257.892L280.172 258.936C279.83 259.764 279.236 260.286 278.516 260.286C277.976 260.286 277.472 259.89 277.472 259.89ZM289.571 258H291.515L293.387 252.15C293.531 251.682 293.639 251.16 293.639 251.16H293.675C293.675 251.16 293.783 251.682 293.945 252.15L295.817 258H297.761L300.677 248.892H298.859L296.951 255.282C296.807 255.75 296.717 256.254 296.717 256.254H296.681C296.681 256.254 296.573 255.75 296.447 255.282L294.485 248.91H292.865L290.903 255.282C290.759 255.75 290.651 256.254 290.651 256.254H290.615C290.615 256.254 290.525 255.75 290.381 255.282L288.491 248.892H286.637L289.571 258ZM302.461 258H304.207V253.68C304.207 251.718 305.485 250.278 307.249 250.278C308.707 250.278 308.959 251.286 308.959 252.564V258H310.705V252.168C310.705 249.846 309.733 248.676 307.591 248.676C305.773 248.676 304.585 249.9 304.171 250.764H304.135C304.135 250.764 304.207 250.44 304.207 250.008V245.292H302.461V258ZM312.713 253.446C312.713 256.146 314.693 258.216 317.555 258.216C318.815 258.216 320.201 257.73 321.083 256.92L320.345 255.642C319.625 256.29 318.635 256.704 317.663 256.704C316.025 256.704 314.621 255.642 314.531 253.68H321.155C321.191 253.428 321.227 253.176 321.227 252.942C321.227 250.602 319.859 248.676 317.285 248.676C314.693 248.676 312.713 250.548 312.713 253.446ZM314.585 252.42C314.837 250.908 315.899 250.026 317.249 250.026C318.437 250.026 319.409 250.854 319.463 252.42H314.585ZM323.327 258H325.073V254.22C325.073 252.456 325.901 250.512 327.863 250.512C328.043 250.512 328.295 250.53 328.367 250.548V248.82C328.223 248.802 328.061 248.784 327.899 248.784C326.495 248.784 325.433 249.882 325.001 251.196H324.965C324.965 251.196 325.019 250.908 325.019 250.53V248.892H323.327V258ZM329.272 253.446C329.272 256.146 331.252 258.216 334.114 258.216C335.374 258.216 336.76 257.73 337.642 256.92L336.904 255.642C336.184 256.29 335.194 256.704 334.222 256.704C332.584 256.704 331.18 255.642 331.09 253.68H337.714C337.75 253.428 337.786 253.176 337.786 252.942C337.786 250.602 336.418 248.676 333.844 248.676C331.252 248.676 329.272 250.548 329.272 253.446ZM331.144 252.42C331.396 250.908 332.458 250.026 333.808 250.026C334.996 250.026 335.968 250.854 336.022 252.42H331.144Z" fill="#424754"/>
<path d="M602 4.40122C602 2.86065 602 2.09037 602.3 1.50195C602.563 0.984356 602.984 0.563541 603.501 0.299816C604.089 0 604.859 0 606.398 0H1106.6C1108.14 0 1108.91 0 1109.5 0.299816C1110.02 0.563541 1110.44 0.984356 1110.7 1.50195C1111 2.09037 1111 2.86066 1111 4.40123V293.599C1111 295.139 1111 295.91 1110.7 296.498C1110.44 297.016 1110.02 297.436 1109.5 297.7C1108.91 298 1108.14 298 1106.6 298H606.398C604.859 298 604.089 298 603.501 297.7C602.984 297.436 602.563 297.016 602.3 296.498C602 295.91 602 295.139 602 293.599V4.40122Z" fill="#F3F3F3"/>
<path d="M749 58.2049C749 57.0831 749 56.5222 749.194 56.0937C749.365 55.7168 749.638 55.4104 749.973 55.2183C750.354 55 750.853 55 751.851 55H1076.15C1077.15 55 1077.65 55 1078.03 55.2183C1078.36 55.4104 1078.63 55.7168 1078.81 56.0937C1079 56.5222 1079 57.0831 1079 58.2049V268.795C1079 269.917 1079 270.478 1078.81 270.906C1078.63 271.283 1078.36 271.59 1078.03 271.782C1077.65 272 1077.15 272 1076.15 272H751.851C750.853 272 750.354 272 749.973 271.782C749.638 271.59 749.365 271.283 749.194 270.906C749 270.478 749 269.917 749 268.795V58.2049Z" fill="white"/>
<path d="M749 21.8444C749 20.8488 749 20.351 749.101 19.9707C749.19 19.6362 749.332 19.3642 749.507 19.1938C749.705 19 749.965 19 750.485 19H776.515C777.035 19 777.295 19 777.493 19.1938C777.668 19.3642 777.81 19.6362 777.899 19.9707C778 20.351 778 20.8488 778 21.8444V24.1556C778 25.1512 778 25.649 777.899 26.0293C777.81 26.3638 777.668 26.6358 777.493 26.8062C777.295 27 777.035 27 776.515 27H750.485C749.965 27 749.705 27 749.507 26.8062C749.332 26.6358 749.19 26.3638 749.101 26.0293C749 25.649 749 25.1512 749 24.1556V21.8444Z" fill="#424754"/>
<path d="M770 86.5818C770 86.3782 770 86.2763 770.01 86.1985C770.02 86.1301 770.034 86.0745 770.052 86.0396C770.073 86 770.1 86 770.154 86H775.846C775.9 86 775.927 86 775.948 86.0396C775.966 86.0745 775.98 86.1301 775.99 86.1985C776 86.2763 776 86.3782 776 86.5818V87.4182C776 87.6218 776 87.7237 775.99 87.8015C775.98 87.8699 775.966 87.9255 775.948 87.9604C775.927 88 775.9 88 775.846 88H770.154C770.1 88 770.073 88 770.052 87.9604C770.034 87.9255 770.02 87.8699 770.01 87.8015C770 87.7237 770 87.6218 770 87.4182V86.5818Z" fill="#97999D"/>
<path d="M800 86.5818C800 86.3782 800 86.2763 800.01 86.1985C800.02 86.1301 800.034 86.0745 800.052 86.0396C800.073 86 800.1 86 800.154 86H805.846C805.9 86 805.927 86 805.948 86.0396C805.966 86.0745 805.98 86.1301 805.99 86.1985C806 86.2763 806 86.3782 806 86.5818V87.4182C806 87.6218 806 87.7237 805.99 87.8015C805.98 87.8699 805.966 87.9255 805.948 87.9604C805.927 88 805.9 88 805.846 88H800.154C800.1 88 800.073 88 800.052 87.9604C800.034 87.9255 800.02 87.8699 800.01 87.8015C800 87.7237 800 87.6218 800 87.4182V86.5818Z" fill="#97999D"/>
<path d="M830 86.5818C830 86.3782 830 86.2763 830.01 86.1985C830.02 86.1301 830.034 86.0745 830.052 86.0396C830.073 86 830.1 86 830.154 86H835.846C835.9 86 835.927 86 835.948 86.0396C835.966 86.0745 835.98 86.1301 835.99 86.1985C836 86.2763 836 86.3782 836 86.5818V87.4182C836 87.6218 836 87.7237 835.99 87.8015C835.98 87.8699 835.966 87.9255 835.948 87.9604C835.927 88 835.9 88 835.846 88H830.154C830.1 88 830.073 88 830.052 87.9604C830.034 87.9255 830.02 87.8699 830.01 87.8015C830 87.7237 830 87.6218 830 87.4182V86.5818Z" fill="#97999D"/>
<path d="M860 86.5818C860 86.3782 860 86.2763 860.01 86.1985C860.02 86.1301 860.034 86.0745 860.052 86.0396C860.073 86 860.1 86 860.154 86H865.846C865.9 86 865.927 86 865.948 86.0396C865.966 86.0745 865.98 86.1301 865.99 86.1985C866 86.2763 866 86.3782 866 86.5818V87.4182C866 87.6218 866 87.7237 865.99 87.8015C865.98 87.8699 865.966 87.9255 865.948 87.9604C865.927 88 865.9 88 865.846 88H860.154C860.1 88 860.073 88 860.052 87.9604C860.034 87.9255 860.02 87.8699 860.01 87.8015C860 87.7237 860 87.6218 860 87.4182V86.5818Z" fill="#97999D"/>
<path d="M890 86.5818C890 86.3782 890 86.2763 890.01 86.1985C890.02 86.1301 890.034 86.0745 890.052 86.0396C890.073 86 890.1 86 890.154 86H895.846C895.9 86 895.927 86 895.948 86.0396C895.966 86.0745 895.98 86.1301 895.99 86.1985C896 86.2763 896 86.3782 896 86.5818V87.4182C896 87.6218 896 87.7237 895.99 87.8015C895.98 87.8699 895.966 87.9255 895.948 87.9604C895.927 88 895.9 88 895.846 88H890.154C890.1 88 890.073 88 890.052 87.9604C890.034 87.9255 890.02 87.8699 890.01 87.8015C890 87.7237 890 87.6218 890 87.4182V86.5818Z" fill="#424754"/>
<path d="M920 86.5818C920 86.3782 920 86.2763 920.01 86.1985C920.02 86.1301 920.034 86.0745 920.052 86.0396C920.073 86 920.1 86 920.154 86H925.846C925.9 86 925.927 86 925.948 86.0396C925.966 86.0745 925.98 86.1301 925.99 86.1985C926 86.2763 926 86.3782 926 86.5818V87.4182C926 87.6218 926 87.7237 925.99 87.8015C925.98 87.8699 925.966 87.9255 925.948 87.9604C925.927 88 925.9 88 925.846 88H920.154C920.1 88 920.073 88 920.052 87.9604C920.034 87.9255 920.02 87.8699 920.01 87.8015C920 87.7237 920 87.6218 920 87.4182V86.5818Z" fill="#424754"/>
<path d="M950 86.5818C950 86.3782 950 86.2763 950.01 86.1985C950.02 86.1301 950.034 86.0745 950.052 86.0396C950.073 86 950.1 86 950.154 86H955.846C955.9 86 955.927 86 955.948 86.0396C955.966 86.0745 955.98 86.1301 955.99 86.1985C956 86.2763 956 86.3782 956 86.5818V87.4182C956 87.6218 956 87.7237 955.99 87.8015C955.98 87.8699 955.966 87.9255 955.948 87.9604C955.927 88 955.9 88 955.846 88H950.154C950.1 88 950.073 88 950.052 87.9604C950.034 87.9255 950.02 87.8699 950.01 87.8015C950 87.7237 950 87.6218 950 87.4182V86.5818Z" fill="#424754"/>
<path d="M980 86.5818C980 86.3782 980 86.2763 980.01 86.1985C980.02 86.1301 980.034 86.0745 980.052 86.0396C980.073 86 980.1 86 980.154 86H985.846C985.9 86 985.927 86 985.948 86.0396C985.966 86.0745 985.98 86.1301 985.99 86.1985C986 86.2763 986 86.3782 986 86.5818V87.4182C986 87.6218 986 87.7237 985.99 87.8015C985.98 87.8699 985.966 87.9255 985.948 87.9604C985.927 88 985.9 88 985.846 88H980.154C980.1 88 980.073 88 980.052 87.9604C980.034 87.9255 980.02 87.8699 980.01 87.8015C980 87.7237 980 87.6218 980 87.4182V86.5818Z" fill="#424754"/>
<path d="M1010 86.5818C1010 86.3782 1010 86.2763 1010.01 86.1985C1010.02 86.1301 1010.03 86.0745 1010.05 86.0396C1010.07 86 1010.1 86 1010.15 86H1015.85C1015.9 86 1015.93 86 1015.95 86.0396C1015.97 86.0745 1015.98 86.1301 1015.99 86.1985C1016 86.2763 1016 86.3782 1016 86.5818V87.4182C1016 87.6218 1016 87.7237 1015.99 87.8015C1015.98 87.8699 1015.97 87.9255 1015.95 87.9604C1015.93 88 1015.9 88 1015.85 88H1010.15C1010.1 88 1010.07 88 1010.05 87.9604C1010.03 87.9255 1010.02 87.8699 1010.01 87.8015C1010 87.7237 1010 87.6218 1010 87.4182V86.5818Z" fill="#424754"/>
<path d="M1040 86.5818C1040 86.3782 1040 86.2763 1040.01 86.1985C1040.02 86.1301 1040.03 86.0745 1040.05 86.0396C1040.07 86 1040.1 86 1040.15 86H1045.85C1045.9 86 1045.93 86 1045.95 86.0396C1045.97 86.0745 1045.98 86.1301 1045.99 86.1985C1046 86.2763 1046 86.3782 1046 86.5818V87.4182C1046 87.6218 1046 87.7237 1045.99 87.8015C1045.98 87.8699 1045.97 87.9255 1045.95 87.9604C1045.93 88 1045.9 88 1045.85 88H1040.15C1040.1 88 1040.07 88 1040.05 87.9604C1040.03 87.9255 1040.02 87.8699 1040.01 87.8015C1040 87.7237 1040 87.6218 1040 87.4182V86.5818Z" fill="#424754"/>
<path d="M1070 86.5818C1070 86.3782 1070 86.2763 1070.01 86.1985C1070.02 86.1301 1070.03 86.0745 1070.05 86.0396C1070.07 86 1070.1 86 1070.15 86H1075.85C1075.9 86 1075.93 86 1075.95 86.0396C1075.97 86.0745 1075.98 86.1301 1075.99 86.1985C1076 86.2763 1076 86.3782 1076 86.5818V87.4182C1076 87.6218 1076 87.7237 1075.99 87.8015C1075.98 87.8699 1075.97 87.9255 1075.95 87.9604C1075.93 88 1075.9 88 1075.85 88H1070.15C1070.1 88 1070.07 88 1070.05 87.9604C1070.03 87.9255 1070.02 87.8699 1070.01 87.8015C1070 87.7237 1070 87.6218 1070 87.4182V86.5818Z" fill="#424754"/>
<path d="M770 116.582C770 116.378 770 116.276 770.01 116.199C770.02 116.13 770.034 116.074 770.052 116.04C770.073 116 770.1 116 770.154 116H775.846C775.9 116 775.927 116 775.948 116.04C775.966 116.074 775.98 116.13 775.99 116.199C776 116.276 776 116.378 776 116.582V117.418C776 117.622 776 117.724 775.99 117.801C775.98 117.87 775.966 117.926 775.948 117.96C775.927 118 775.9 118 775.846 118H770.154C770.1 118 770.073 118 770.052 117.96C770.034 117.926 770.02 117.87 770.01 117.801C770 117.724 770 117.622 770 117.418V116.582Z" fill="#424754"/>
<path d="M800 116.582C800 116.378 800 116.276 800.01 116.199C800.02 116.13 800.034 116.074 800.052 116.04C800.073 116 800.1 116 800.154 116H805.846C805.9 116 805.927 116 805.948 116.04C805.966 116.074 805.98 116.13 805.99 116.199C806 116.276 806 116.378 806 116.582V117.418C806 117.622 806 117.724 805.99 117.801C805.98 117.87 805.966 117.926 805.948 117.96C805.927 118 805.9 118 805.846 118H800.154C800.1 118 800.073 118 800.052 117.96C800.034 117.926 800.02 117.87 800.01 117.801C800 117.724 800 117.622 800 117.418V116.582Z" fill="#424754"/>
<path d="M830 116.582C830 116.378 830 116.276 830.01 116.199C830.02 116.13 830.034 116.074 830.052 116.04C830.073 116 830.1 116 830.154 116H835.846C835.9 116 835.927 116 835.948 116.04C835.966 116.074 835.98 116.13 835.99 116.199C836 116.276 836 116.378 836 116.582V117.418C836 117.622 836 117.724 835.99 117.801C835.98 117.87 835.966 117.926 835.948 117.96C835.927 118 835.9 118 835.846 118H830.154C830.1 118 830.073 118 830.052 117.96C830.034 117.926 830.02 117.87 830.01 117.801C830 117.724 830 117.622 830 117.418V116.582Z" fill="#424754"/>
<path d="M860 116.582C860 116.378 860 116.276 860.01 116.199C860.02 116.13 860.034 116.074 860.052 116.04C860.073 116 860.1 116 860.154 116H865.846C865.9 116 865.927 116 865.948 116.04C865.966 116.074 865.98 116.13 865.99 116.199C866 116.276 866 116.378 866 116.582V117.418C866 117.622 866 117.724 865.99 117.801C865.98 117.87 865.966 117.926 865.948 117.96C865.927 118 865.9 118 865.846 118H860.154C860.1 118 860.073 118 860.052 117.96C860.034 117.926 860.02 117.87 860.01 117.801C860 117.724 860 117.622 860 117.418V116.582Z" fill="#424754"/>
<path d="M890 116.582C890 116.378 890 116.276 890.01 116.199C890.02 116.13 890.034 116.074 890.052 116.04C890.073 116 890.1 116 890.154 116H895.846C895.9 116 895.927 116 895.948 116.04C895.966 116.074 895.98 116.13 895.99 116.199C896 116.276 896 116.378 896 116.582V117.418C896 117.622 896 117.724 895.99 117.801C895.98 117.87 895.966 117.926 895.948 117.96C895.927 118 895.9 118 895.846 118H890.154C890.1 118 890.073 118 890.052 117.96C890.034 117.926 890.02 117.87 890.01 117.801C890 117.724 890 117.622 890 117.418V116.582Z" fill="#F04B5D"/>
<path d="M871 122.582C871 122.378 871 122.276 871.044 122.199C871.082 122.13 871.143 122.074 871.218 122.04C871.304 122 871.416 122 871.64 122H895.36C895.584 122 895.696 122 895.782 122.04C895.857 122.074 895.918 122.13 895.956 122.199C896 122.276 896 122.378 896 122.582V123.418C896 123.622 896 123.724 895.956 123.801C895.918 123.87 895.857 123.926 895.782 123.96C895.696 124 895.584 124 895.36 124H871.64C871.416 124 871.304 124 871.218 123.96C871.143 123.926 871.082 123.87 871.044 123.801C871 123.724 871 123.622 871 123.418V122.582Z" fill="#424754"/>
<path d="M871 126.582C871 126.378 871 126.276 871.044 126.199C871.082 126.13 871.143 126.074 871.218 126.04C871.304 126 871.416 126 871.64 126H895.36C895.584 126 895.696 126 895.782 126.04C895.857 126.074 895.918 126.13 895.956 126.199C896 126.276 896 126.378 896 126.582V127.418C896 127.622 896 127.724 895.956 127.801C895.918 127.87 895.857 127.926 895.782 127.96C895.696 128 895.584 128 895.36 128H871.64C871.416 128 871.304 128 871.218 127.96C871.143 127.926 871.082 127.87 871.044 127.801C871 127.724 871 127.622 871 127.418V126.582Z" fill="#424754"/>
<path d="M920 116.582C920 116.378 920 116.276 920.01 116.199C920.02 116.13 920.034 116.074 920.052 116.04C920.073 116 920.1 116 920.154 116H925.846C925.9 116 925.927 116 925.948 116.04C925.966 116.074 925.98 116.13 925.99 116.199C926 116.276 926 116.378 926 116.582V117.418C926 117.622 926 117.724 925.99 117.801C925.98 117.87 925.966 117.926 925.948 117.96C925.927 118 925.9 118 925.846 118H920.154C920.1 118 920.073 118 920.052 117.96C920.034 117.926 920.02 117.87 920.01 117.801C920 117.724 920 117.622 920 117.418V116.582Z" fill="#424754"/>
<path d="M950 116.582C950 116.378 950 116.276 950.01 116.199C950.02 116.13 950.034 116.074 950.052 116.04C950.073 116 950.1 116 950.154 116H955.846C955.9 116 955.927 116 955.948 116.04C955.966 116.074 955.98 116.13 955.99 116.199C956 116.276 956 116.378 956 116.582V117.418C956 117.622 956 117.724 955.99 117.801C955.98 117.87 955.966 117.926 955.948 117.96C955.927 118 955.9 118 955.846 118H950.154C950.1 118 950.073 118 950.052 117.96C950.034 117.926 950.02 117.87 950.01 117.801C950 117.724 950 117.622 950 117.418V116.582Z" fill="#424754"/>
<path d="M980 116.582C980 116.378 980 116.276 980.01 116.199C980.02 116.13 980.034 116.074 980.052 116.04C980.073 116 980.1 116 980.154 116H985.846C985.9 116 985.927 116 985.948 116.04C985.966 116.074 985.98 116.13 985.99 116.199C986 116.276 986 116.378 986 116.582V117.418C986 117.622 986 117.724 985.99 117.801C985.98 117.87 985.966 117.926 985.948 117.96C985.927 118 985.9 118 985.846 118H980.154C980.1 118 980.073 118 980.052 117.96C980.034 117.926 980.02 117.87 980.01 117.801C980 117.724 980 117.622 980 117.418V116.582Z" fill="#424754"/>
<path d="M1010 116.582C1010 116.378 1010 116.276 1010.01 116.199C1010.02 116.13 1010.03 116.074 1010.05 116.04C1010.07 116 1010.1 116 1010.15 116H1015.85C1015.9 116 1015.93 116 1015.95 116.04C1015.97 116.074 1015.98 116.13 1015.99 116.199C1016 116.276 1016 116.378 1016 116.582V117.418C1016 117.622 1016 117.724 1015.99 117.801C1015.98 117.87 1015.97 117.926 1015.95 117.96C1015.93 118 1015.9 118 1015.85 118H1010.15C1010.1 118 1010.07 118 1010.05 117.96C1010.03 117.926 1010.02 117.87 1010.01 117.801C1010 117.724 1010 117.622 1010 117.418V116.582Z" fill="#424754"/>
<path d="M1040 116.582C1040 116.378 1040 116.276 1040.01 116.199C1040.02 116.13 1040.03 116.074 1040.05 116.04C1040.07 116 1040.1 116 1040.15 116H1045.85C1045.9 116 1045.93 116 1045.95 116.04C1045.97 116.074 1045.98 116.13 1045.99 116.199C1046 116.276 1046 116.378 1046 116.582V117.418C1046 117.622 1046 117.724 1045.99 117.801C1045.98 117.87 1045.97 117.926 1045.95 117.96C1045.93 118 1045.9 118 1045.85 118H1040.15C1040.1 118 1040.07 118 1040.05 117.96C1040.03 117.926 1040.02 117.87 1040.01 117.801C1040 117.724 1040 117.622 1040 117.418V116.582Z" fill="#424754"/>
<path d="M1070 116.582C1070 116.378 1070 116.276 1070.01 116.199C1070.02 116.13 1070.03 116.074 1070.05 116.04C1070.07 116 1070.1 116 1070.15 116H1075.85C1075.9 116 1075.93 116 1075.95 116.04C1075.97 116.074 1075.98 116.13 1075.99 116.199C1076 116.276 1076 116.378 1076 116.582V117.418C1076 117.622 1076 117.724 1075.99 117.801C1075.98 117.87 1075.97 117.926 1075.95 117.96C1075.93 118 1075.9 118 1075.85 118H1070.15C1070.1 118 1070.07 118 1070.05 117.96C1070.03 117.926 1070.02 117.87 1070.01 117.801C1070 117.724 1070 117.622 1070 117.418V116.582Z" fill="#424754"/>
<path d="M770 146.582C770 146.378 770 146.276 770.01 146.199C770.02 146.13 770.034 146.074 770.052 146.04C770.073 146 770.1 146 770.154 146H775.846C775.9 146 775.927 146 775.948 146.04C775.966 146.074 775.98 146.13 775.99 146.199C776 146.276 776 146.378 776 146.582V147.418C776 147.622 776 147.724 775.99 147.801C775.98 147.87 775.966 147.926 775.948 147.96C775.927 148 775.9 148 775.846 148H770.154C770.1 148 770.073 148 770.052 147.96C770.034 147.926 770.02 147.87 770.01 147.801C770 147.724 770 147.622 770 147.418V146.582Z" fill="#424754"/>
<path d="M800 146.582C800 146.378 800 146.276 800.01 146.199C800.02 146.13 800.034 146.074 800.052 146.04C800.073 146 800.1 146 800.154 146H805.846C805.9 146 805.927 146 805.948 146.04C805.966 146.074 805.98 146.13 805.99 146.199C806 146.276 806 146.378 806 146.582V147.418C806 147.622 806 147.724 805.99 147.801C805.98 147.87 805.966 147.926 805.948 147.96C805.927 148 805.9 148 805.846 148H800.154C800.1 148 800.073 148 800.052 147.96C800.034 147.926 800.02 147.87 800.01 147.801C800 147.724 800 147.622 800 147.418V146.582Z" fill="#424754"/>
<path d="M830 146.582C830 146.378 830 146.276 830.01 146.199C830.02 146.13 830.034 146.074 830.052 146.04C830.073 146 830.1 146 830.154 146H835.846C835.9 146 835.927 146 835.948 146.04C835.966 146.074 835.98 146.13 835.99 146.199C836 146.276 836 146.378 836 146.582V147.418C836 147.622 836 147.724 835.99 147.801C835.98 147.87 835.966 147.926 835.948 147.96C835.927 148 835.9 148 835.846 148H830.154C830.1 148 830.073 148 830.052 147.96C830.034 147.926 830.02 147.87 830.01 147.801C830 147.724 830 147.622 830 147.418V146.582Z" fill="#424754"/>
<path d="M860 146.582C860 146.378 860 146.276 860.01 146.199C860.02 146.13 860.034 146.074 860.052 146.04C860.073 146 860.1 146 860.154 146H865.846C865.9 146 865.927 146 865.948 146.04C865.966 146.074 865.98 146.13 865.99 146.199C866 146.276 866 146.378 866 146.582V147.418C866 147.622 866 147.724 865.99 147.801C865.98 147.87 865.966 147.926 865.948 147.96C865.927 148 865.9 148 865.846 148H860.154C860.1 148 860.073 148 860.052 147.96C860.034 147.926 860.02 147.87 860.01 147.801C860 147.724 860 147.622 860 147.418V146.582Z" fill="#424754"/>
<path d="M890 146.582C890 146.378 890 146.276 890.01 146.199C890.02 146.13 890.034 146.074 890.052 146.04C890.073 146 890.1 146 890.154 146H895.846C895.9 146 895.927 146 895.948 146.04C895.966 146.074 895.98 146.13 895.99 146.199C896 146.276 896 146.378 896 146.582V147.418C896 147.622 896 147.724 895.99 147.801C895.98 147.87 895.966 147.926 895.948 147.96C895.927 148 895.9 148 895.846 148H890.154C890.1 148 890.073 148 890.052 147.96C890.034 147.926 890.02 147.87 890.01 147.801C890 147.724 890 147.622 890 147.418V146.582Z" fill="#424754"/>
<path d="M920 146.582C920 146.378 920 146.276 920.01 146.199C920.02 146.13 920.034 146.074 920.052 146.04C920.073 146 920.1 146 920.154 146H925.846C925.9 146 925.927 146 925.948 146.04C925.966 146.074 925.98 146.13 925.99 146.199C926 146.276 926 146.378 926 146.582V147.418C926 147.622 926 147.724 925.99 147.801C925.98 147.87 925.966 147.926 925.948 147.96C925.927 148 925.9 148 925.846 148H920.154C920.1 148 920.073 148 920.052 147.96C920.034 147.926 920.02 147.87 920.01 147.801C920 147.724 920 147.622 920 147.418V146.582Z" fill="#424754"/>
<path d="M950 146.582C950 146.378 950 146.276 950.01 146.199C950.02 146.13 950.034 146.074 950.052 146.04C950.073 146 950.1 146 950.154 146H955.846C955.9 146 955.927 146 955.948 146.04C955.966 146.074 955.98 146.13 955.99 146.199C956 146.276 956 146.378 956 146.582V147.418C956 147.622 956 147.724 955.99 147.801C955.98 147.87 955.966 147.926 955.948 147.96C955.927 148 955.9 148 955.846 148H950.154C950.1 148 950.073 148 950.052 147.96C950.034 147.926 950.02 147.87 950.01 147.801C950 147.724 950 147.622 950 147.418V146.582Z" fill="#424754"/>
<path d="M980 146.582C980 146.378 980 146.276 980.01 146.199C980.02 146.13 980.034 146.074 980.052 146.04C980.073 146 980.1 146 980.154 146H985.846C985.9 146 985.927 146 985.948 146.04C985.966 146.074 985.98 146.13 985.99 146.199C986 146.276 986 146.378 986 146.582V147.418C986 147.622 986 147.724 985.99 147.801C985.98 147.87 985.966 147.926 985.948 147.96C985.927 148 985.9 148 985.846 148H980.154C980.1 148 980.073 148 980.052 147.96C980.034 147.926 980.02 147.87 980.01 147.801C980 147.724 980 147.622 980 147.418V146.582Z" fill="#424754"/>
<path d="M1010 146.582C1010 146.378 1010 146.276 1010.01 146.199C1010.02 146.13 1010.03 146.074 1010.05 146.04C1010.07 146 1010.1 146 1010.15 146H1015.85C1015.9 146 1015.93 146 1015.95 146.04C1015.97 146.074 1015.98 146.13 1015.99 146.199C1016 146.276 1016 146.378 1016 146.582V147.418C1016 147.622 1016 147.724 1015.99 147.801C1015.98 147.87 1015.97 147.926 1015.95 147.96C1015.93 148 1015.9 148 1015.85 148H1010.15C1010.1 148 1010.07 148 1010.05 147.96C1010.03 147.926 1010.02 147.87 1010.01 147.801C1010 147.724 1010 147.622 1010 147.418V146.582Z" fill="#424754"/>
<path d="M1040 146.582C1040 146.378 1040 146.276 1040.01 146.199C1040.02 146.13 1040.03 146.074 1040.05 146.04C1040.07 146 1040.1 146 1040.15 146H1045.85C1045.9 146 1045.93 146 1045.95 146.04C1045.97 146.074 1045.98 146.13 1045.99 146.199C1046 146.276 1046 146.378 1046 146.582V147.418C1046 147.622 1046 147.724 1045.99 147.801C1045.98 147.87 1045.97 147.926 1045.95 147.96C1045.93 148 1045.9 148 1045.85 148H1040.15C1040.1 148 1040.07 148 1040.05 147.96C1040.03 147.926 1040.02 147.87 1040.01 147.801C1040 147.724 1040 147.622 1040 147.418V146.582Z" fill="#424754"/>
<path d="M1070 146.582C1070 146.378 1070 146.276 1070.01 146.199C1070.02 146.13 1070.03 146.074 1070.05 146.04C1070.07 146 1070.1 146 1070.15 146H1075.85C1075.9 146 1075.93 146 1075.95 146.04C1075.97 146.074 1075.98 146.13 1075.99 146.199C1076 146.276 1076 146.378 1076 146.582V147.418C1076 147.622 1076 147.724 1075.99 147.801C1075.98 147.87 1075.97 147.926 1075.95 147.96C1075.93 148 1075.9 148 1075.85 148H1070.15C1070.1 148 1070.07 148 1070.05 147.96C1070.03 147.926 1070.02 147.87 1070.01 147.801C1070 147.724 1070 147.622 1070 147.418V146.582Z" fill="#424754"/>
<path d="M770 176.582C770 176.378 770 176.276 770.01 176.199C770.02 176.13 770.034 176.074 770.052 176.04C770.073 176 770.1 176 770.154 176H775.846C775.9 176 775.927 176 775.948 176.04C775.966 176.074 775.98 176.13 775.99 176.199C776 176.276 776 176.378 776 176.582V177.418C776 177.622 776 177.724 775.99 177.801C775.98 177.87 775.966 177.926 775.948 177.96C775.927 178 775.9 178 775.846 178H770.154C770.1 178 770.073 178 770.052 177.96C770.034 177.926 770.02 177.87 770.01 177.801C770 177.724 770 177.622 770 177.418V176.582Z" fill="#424754"/>
<path d="M800 176.582C800 176.378 800 176.276 800.01 176.199C800.02 176.13 800.034 176.074 800.052 176.04C800.073 176 800.1 176 800.154 176H805.846C805.9 176 805.927 176 805.948 176.04C805.966 176.074 805.98 176.13 805.99 176.199C806 176.276 806 176.378 806 176.582V177.418C806 177.622 806 177.724 805.99 177.801C805.98 177.87 805.966 177.926 805.948 177.96C805.927 178 805.9 178 805.846 178H800.154C800.1 178 800.073 178 800.052 177.96C800.034 177.926 800.02 177.87 800.01 177.801C800 177.724 800 177.622 800 177.418V176.582Z" fill="#424754"/>
<path d="M830 176.582C830 176.378 830 176.276 830.01 176.199C830.02 176.13 830.034 176.074 830.052 176.04C830.073 176 830.1 176 830.154 176H835.846C835.9 176 835.927 176 835.948 176.04C835.966 176.074 835.98 176.13 835.99 176.199C836 176.276 836 176.378 836 176.582V177.418C836 177.622 836 177.724 835.99 177.801C835.98 177.87 835.966 177.926 835.948 177.96C835.927 178 835.9 178 835.846 178H830.154C830.1 178 830.073 178 830.052 177.96C830.034 177.926 830.02 177.87 830.01 177.801C830 177.724 830 177.622 830 177.418V176.582Z" fill="#424754"/>
<path d="M860 176.582C860 176.378 860 176.276 860.01 176.199C860.02 176.13 860.034 176.074 860.052 176.04C860.073 176 860.1 176 860.154 176H865.846C865.9 176 865.927 176 865.948 176.04C865.966 176.074 865.98 176.13 865.99 176.199C866 176.276 866 176.378 866 176.582V177.418C866 177.622 866 177.724 865.99 177.801C865.98 177.87 865.966 177.926 865.948 177.96C865.927 178 865.9 178 865.846 178H860.154C860.1 178 860.073 178 860.052 177.96C860.034 177.926 860.02 177.87 860.01 177.801C860 177.724 860 177.622 860 177.418V176.582Z" fill="#424754"/>
<path d="M890 176.582C890 176.378 890 176.276 890.01 176.199C890.02 176.13 890.034 176.074 890.052 176.04C890.073 176 890.1 176 890.154 176H895.846C895.9 176 895.927 176 895.948 176.04C895.966 176.074 895.98 176.13 895.99 176.199C896 176.276 896 176.378 896 176.582V177.418C896 177.622 896 177.724 895.99 177.801C895.98 177.87 895.966 177.926 895.948 177.96C895.927 178 895.9 178 895.846 178H890.154C890.1 178 890.073 178 890.052 177.96C890.034 177.926 890.02 177.87 890.01 177.801C890 177.724 890 177.622 890 177.418V176.582Z" fill="#424754"/>
<path d="M920 176.582C920 176.378 920 176.276 920.01 176.199C920.02 176.13 920.034 176.074 920.052 176.04C920.073 176 920.1 176 920.154 176H925.846C925.9 176 925.927 176 925.948 176.04C925.966 176.074 925.98 176.13 925.99 176.199C926 176.276 926 176.378 926 176.582V177.418C926 177.622 926 177.724 925.99 177.801C925.98 177.87 925.966 177.926 925.948 177.96C925.927 178 925.9 178 925.846 178H920.154C920.1 178 920.073 178 920.052 177.96C920.034 177.926 920.02 177.87 920.01 177.801C920 177.724 920 177.622 920 177.418V176.582Z" fill="#424754"/>
<path d="M950 176.582C950 176.378 950 176.276 950.01 176.199C950.02 176.13 950.034 176.074 950.052 176.04C950.073 176 950.1 176 950.154 176H955.846C955.9 176 955.927 176 955.948 176.04C955.966 176.074 955.98 176.13 955.99 176.199C956 176.276 956 176.378 956 176.582V177.418C956 177.622 956 177.724 955.99 177.801C955.98 177.87 955.966 177.926 955.948 177.96C955.927 178 955.9 178 955.846 178H950.154C950.1 178 950.073 178 950.052 177.96C950.034 177.926 950.02 177.87 950.01 177.801C950 177.724 950 177.622 950 177.418V176.582Z" fill="#424754"/>
<path d="M980 176.582C980 176.378 980 176.276 980.01 176.199C980.02 176.13 980.034 176.074 980.052 176.04C980.073 176 980.1 176 980.154 176H985.846C985.9 176 985.927 176 985.948 176.04C985.966 176.074 985.98 176.13 985.99 176.199C986 176.276 986 176.378 986 176.582V177.418C986 177.622 986 177.724 985.99 177.801C985.98 177.87 985.966 177.926 985.948 177.96C985.927 178 985.9 178 985.846 178H980.154C980.1 178 980.073 178 980.052 177.96C980.034 177.926 980.02 177.87 980.01 177.801C980 177.724 980 177.622 980 177.418V176.582Z" fill="#424754"/>
<path d="M1010 176.582C1010 176.378 1010 176.276 1010.01 176.199C1010.02 176.13 1010.03 176.074 1010.05 176.04C1010.07 176 1010.1 176 1010.15 176H1015.85C1015.9 176 1015.93 176 1015.95 176.04C1015.97 176.074 1015.98 176.13 1015.99 176.199C1016 176.276 1016 176.378 1016 176.582V177.418C1016 177.622 1016 177.724 1015.99 177.801C1015.98 177.87 1015.97 177.926 1015.95 177.96C1015.93 178 1015.9 178 1015.85 178H1010.15C1010.1 178 1010.07 178 1010.05 177.96C1010.03 177.926 1010.02 177.87 1010.01 177.801C1010 177.724 1010 177.622 1010 177.418V176.582Z" fill="#424754"/>
<path d="M1040 176.582C1040 176.378 1040 176.276 1040.01 176.199C1040.02 176.13 1040.03 176.074 1040.05 176.04C1040.07 176 1040.1 176 1040.15 176H1045.85C1045.9 176 1045.93 176 1045.95 176.04C1045.97 176.074 1045.98 176.13 1045.99 176.199C1046 176.276 1046 176.378 1046 176.582V177.418C1046 177.622 1046 177.724 1045.99 177.801C1045.98 177.87 1045.97 177.926 1045.95 177.96C1045.93 178 1045.9 178 1045.85 178H1040.15C1040.1 178 1040.07 178 1040.05 177.96C1040.03 177.926 1040.02 177.87 1040.01 177.801C1040 177.724 1040 177.622 1040 177.418V176.582Z" fill="#424754"/>
<path d="M1070 176.582C1070 176.378 1070 176.276 1070.01 176.199C1070.02 176.13 1070.03 176.074 1070.05 176.04C1070.07 176 1070.1 176 1070.15 176H1075.85C1075.9 176 1075.93 176 1075.95 176.04C1075.97 176.074 1075.98 176.13 1075.99 176.199C1076 176.276 1076 176.378 1076 176.582V177.418C1076 177.622 1076 177.724 1075.99 177.801C1075.98 177.87 1075.97 177.926 1075.95 177.96C1075.93 178 1075.9 178 1075.85 178H1070.15C1070.1 178 1070.07 178 1070.05 177.96C1070.03 177.926 1070.02 177.87 1070.01 177.801C1070 177.724 1070 177.622 1070 177.418V176.582Z" fill="#424754"/>
<path d="M770 206.582C770 206.378 770 206.276 770.01 206.199C770.02 206.13 770.034 206.074 770.052 206.04C770.073 206 770.1 206 770.154 206H775.846C775.9 206 775.927 206 775.948 206.04C775.966 206.074 775.98 206.13 775.99 206.199C776 206.276 776 206.378 776 206.582V207.418C776 207.622 776 207.724 775.99 207.801C775.98 207.87 775.966 207.926 775.948 207.96C775.927 208 775.9 208 775.846 208H770.154C770.1 208 770.073 208 770.052 207.96C770.034 207.926 770.02 207.87 770.01 207.801C770 207.724 770 207.622 770 207.418V206.582Z" fill="#424754"/>
<path d="M800 206.582C800 206.378 800 206.276 800.01 206.199C800.02 206.13 800.034 206.074 800.052 206.04C800.073 206 800.1 206 800.154 206H805.846C805.9 206 805.927 206 805.948 206.04C805.966 206.074 805.98 206.13 805.99 206.199C806 206.276 806 206.378 806 206.582V207.418C806 207.622 806 207.724 805.99 207.801C805.98 207.87 805.966 207.926 805.948 207.96C805.927 208 805.9 208 805.846 208H800.154C800.1 208 800.073 208 800.052 207.96C800.034 207.926 800.02 207.87 800.01 207.801C800 207.724 800 207.622 800 207.418V206.582Z" fill="#424754"/>
<path d="M830 206.582C830 206.378 830 206.276 830.01 206.199C830.02 206.13 830.034 206.074 830.052 206.04C830.073 206 830.1 206 830.154 206H835.846C835.9 206 835.927 206 835.948 206.04C835.966 206.074 835.98 206.13 835.99 206.199C836 206.276 836 206.378 836 206.582V207.418C836 207.622 836 207.724 835.99 207.801C835.98 207.87 835.966 207.926 835.948 207.96C835.927 208 835.9 208 835.846 208H830.154C830.1 208 830.073 208 830.052 207.96C830.034 207.926 830.02 207.87 830.01 207.801C830 207.724 830 207.622 830 207.418V206.582Z" fill="#424754"/>
<path d="M860 206.582C860 206.378 860 206.276 860.01 206.199C860.02 206.13 860.034 206.074 860.052 206.04C860.073 206 860.1 206 860.154 206H865.846C865.9 206 865.927 206 865.948 206.04C865.966 206.074 865.98 206.13 865.99 206.199C866 206.276 866 206.378 866 206.582V207.418C866 207.622 866 207.724 865.99 207.801C865.98 207.87 865.966 207.926 865.948 207.96C865.927 208 865.9 208 865.846 208H860.154C860.1 208 860.073 208 860.052 207.96C860.034 207.926 860.02 207.87 860.01 207.801C860 207.724 860 207.622 860 207.418V206.582Z" fill="#424754"/>
<path d="M890 206.582C890 206.378 890 206.276 890.01 206.199C890.02 206.13 890.034 206.074 890.052 206.04C890.073 206 890.1 206 890.154 206H895.846C895.9 206 895.927 206 895.948 206.04C895.966 206.074 895.98 206.13 895.99 206.199C896 206.276 896 206.378 896 206.582V207.418C896 207.622 896 207.724 895.99 207.801C895.98 207.87 895.966 207.926 895.948 207.96C895.927 208 895.9 208 895.846 208H890.154C890.1 208 890.073 208 890.052 207.96C890.034 207.926 890.02 207.87 890.01 207.801C890 207.724 890 207.622 890 207.418V206.582Z" fill="#424754"/>
<path d="M920 206.582C920 206.378 920 206.276 920.01 206.199C920.02 206.13 920.034 206.074 920.052 206.04C920.073 206 920.1 206 920.154 206H925.846C925.9 206 925.927 206 925.948 206.04C925.966 206.074 925.98 206.13 925.99 206.199C926 206.276 926 206.378 926 206.582V207.418C926 207.622 926 207.724 925.99 207.801C925.98 207.87 925.966 207.926 925.948 207.96C925.927 208 925.9 208 925.846 208H920.154C920.1 208 920.073 208 920.052 207.96C920.034 207.926 920.02 207.87 920.01 207.801C920 207.724 920 207.622 920 207.418V206.582Z" fill="#424754"/>
<path d="M950 206.582C950 206.378 950 206.276 950.01 206.199C950.02 206.13 950.034 206.074 950.052 206.04C950.073 206 950.1 206 950.154 206H955.846C955.9 206 955.927 206 955.948 206.04C955.966 206.074 955.98 206.13 955.99 206.199C956 206.276 956 206.378 956 206.582V207.418C956 207.622 956 207.724 955.99 207.801C955.98 207.87 955.966 207.926 955.948 207.96C955.927 208 955.9 208 955.846 208H950.154C950.1 208 950.073 208 950.052 207.96C950.034 207.926 950.02 207.87 950.01 207.801C950 207.724 950 207.622 950 207.418V206.582Z" fill="#424754"/>
<path d="M980 206.582C980 206.378 980 206.276 980.01 206.199C980.02 206.13 980.034 206.074 980.052 206.04C980.073 206 980.1 206 980.154 206H985.846C985.9 206 985.927 206 985.948 206.04C985.966 206.074 985.98 206.13 985.99 206.199C986 206.276 986 206.378 986 206.582V207.418C986 207.622 986 207.724 985.99 207.801C985.98 207.87 985.966 207.926 985.948 207.96C985.927 208 985.9 208 985.846 208H980.154C980.1 208 980.073 208 980.052 207.96C980.034 207.926 980.02 207.87 980.01 207.801C980 207.724 980 207.622 980 207.418V206.582Z" fill="#424754"/>
<path d="M1010 206.582C1010 206.378 1010 206.276 1010.01 206.199C1010.02 206.13 1010.03 206.074 1010.05 206.04C1010.07 206 1010.1 206 1010.15 206H1015.85C1015.9 206 1015.93 206 1015.95 206.04C1015.97 206.074 1015.98 206.13 1015.99 206.199C1016 206.276 1016 206.378 1016 206.582V207.418C1016 207.622 1016 207.724 1015.99 207.801C1015.98 207.87 1015.97 207.926 1015.95 207.96C1015.93 208 1015.9 208 1015.85 208H1010.15C1010.1 208 1010.07 208 1010.05 207.96C1010.03 207.926 1010.02 207.87 1010.01 207.801C1010 207.724 1010 207.622 1010 207.418V206.582Z" fill="#424754"/>
<path d="M1040 206.582C1040 206.378 1040 206.276 1040.01 206.199C1040.02 206.13 1040.03 206.074 1040.05 206.04C1040.07 206 1040.1 206 1040.15 206H1045.85C1045.9 206 1045.93 206 1045.95 206.04C1045.97 206.074 1045.98 206.13 1045.99 206.199C1046 206.276 1046 206.378 1046 206.582V207.418C1046 207.622 1046 207.724 1045.99 207.801C1045.98 207.87 1045.97 207.926 1045.95 207.96C1045.93 208 1045.9 208 1045.85 208H1040.15C1040.1 208 1040.07 208 1040.05 207.96C1040.03 207.926 1040.02 207.87 1040.01 207.801C1040 207.724 1040 207.622 1040 207.418V206.582Z" fill="#424754"/>
<path d="M1070 206.582C1070 206.378 1070 206.276 1070.01 206.199C1070.02 206.13 1070.03 206.074 1070.05 206.04C1070.07 206 1070.1 206 1070.15 206H1075.85C1075.9 206 1075.93 206 1075.95 206.04C1075.97 206.074 1075.98 206.13 1075.99 206.199C1076 206.276 1076 206.378 1076 206.582V207.418C1076 207.622 1076 207.724 1075.99 207.801C1075.98 207.87 1075.97 207.926 1075.95 207.96C1075.93 208 1075.9 208 1075.85 208H1070.15C1070.1 208 1070.07 208 1070.05 207.96C1070.03 207.926 1070.02 207.87 1070.01 207.801C1070 207.724 1070 207.622 1070 207.418V206.582Z" fill="#424754"/>
<path d="M762 68.4545C762 67.9454 762 67.6908 762.02 67.4964C762.038 67.3253 762.067 67.1862 762.102 67.0991C762.141 67 762.194 67 762.298 67H808.702C808.806 67 808.859 67 808.898 67.0991C808.933 67.1862 808.962 67.3253 808.98 67.4964C809 67.6908 809 67.9454 809 68.4545V70.5455C809 71.0546 809 71.3092 808.98 71.5036C808.962 71.6747 808.933 71.8138 808.898 71.9009C808.859 72 808.806 72 808.702 72H762.298C762.194 72 762.141 72 762.102 71.9009C762.067 71.8138 762.038 71.6747 762.02 71.5036C762 71.3092 762 71.0546 762 70.5455V68.4545Z" fill="#424754"/>
<path d="M602 4.40122C602 2.86065 602 2.09037 602.299 1.50195C602.562 0.984356 602.981 0.563541 603.497 0.299816C604.084 0 604.852 0 606.388 0H714.612C716.148 0 716.916 0 717.503 0.299816C718.019 0.563541 718.438 0.984356 718.701 1.50195C719 2.09037 719 2.86066 719 4.40123V293.599C719 295.139 719 295.91 718.701 296.498C718.438 297.016 718.019 297.436 717.503 297.7C716.916 298 716.148 298 714.612 298H606.388C604.852 298 604.084 298 603.497 297.7C602.981 297.436 602.562 297.016 602.299 296.498C602 295.91 602 295.139 602 293.599V4.40122Z" fill="#FFEAEC"/>
<path d="M602 60.4979C602 59.9736 602 59.7114 602.1 59.5112C602.188 59.335 602.328 59.1918 602.501 59.102C602.697 59 602.954 59 603.468 59H717.532C718.046 59 718.303 59 718.499 59.102C718.672 59.1918 718.812 59.335 718.9 59.5112C719 59.7114 719 59.9736 719 60.4979V79.5021C719 80.0264 719 80.2886 718.9 80.4888C718.812 80.665 718.672 80.8082 718.499 80.898C718.303 81 718.046 81 717.532 81H603.468C602.954 81 602.697 81 602.501 80.898C602.328 80.8082 602.188 80.665 602.1 80.4888C602 80.2886 602 80.0264 602 79.5021V60.4979Z" fill="#FFEAEC"/>
<path d="M632 68.4545C632 67.9454 632 67.6908 632.099 67.4964C632.187 67.3253 632.326 67.1862 632.498 67.0991C632.693 67 632.948 67 633.459 67H687.541C688.052 67 688.307 67 688.502 67.0991C688.674 67.1862 688.813 67.3253 688.901 67.4964C689 67.6908 689 67.9454 689 68.4545V70.5455C689 71.0546 689 71.3092 688.901 71.5036C688.813 71.6747 688.674 71.8138 688.502 71.9009C688.307 72 688.052 72 687.541 72H633.459C632.948 72 632.693 72 632.498 71.9009C632.326 71.8138 632.187 71.6747 632.099 71.5036C632 71.3092 632 71.0546 632 70.5455V68.4545Z" fill="#F04B5D"/>
<path d="M657 20.4545C657 19.9454 657 19.6908 657.099 19.4964C657.185 19.3253 657.324 19.1862 657.494 19.0991C657.688 19 657.941 19 658.448 19H698.552C699.059 19 699.312 19 699.506 19.0991C699.676 19.1862 699.815 19.3253 699.901 19.4964C700 19.6908 700 19.9454 700 20.4545V22.5455C700 23.0546 700 23.3092 699.901 23.5036C699.815 23.6747 699.676 23.8138 699.506 23.9009C699.312 24 699.059 24 698.552 24H658.448C657.941 24 657.688 24 657.494 23.9009C657.324 23.8138 657.185 23.6747 657.099 23.5036C657 23.3092 657 23.0546 657 22.5455V20.4545Z" fill="#424754"/>
<path d="M632 15.4452C632 14.9393 632 14.6864 632.102 14.4932C632.191 14.3232 632.334 14.185 632.51 14.0984C632.709 14 632.971 14 633.493 14H644.507C645.029 14 645.291 14 645.49 14.0984C645.666 14.185 645.809 14.3232 645.898 14.4932C646 14.6864 646 14.9393 646 15.4452V26.5548C646 27.0607 646 27.3136 645.898 27.5068C645.809 27.6768 645.666 27.815 645.49 27.9016C645.291 28 645.029 28 644.507 28H633.493C632.971 28 632.709 28 632.51 27.9016C632.334 27.815 632.191 27.6768 632.102 27.5068C632 27.3136 632 27.0607 632 26.5548V15.4452Z" fill="#424754"/>
<path d="M632 90.4545C632 89.9454 632 89.6908 632.099 89.4964C632.187 89.3253 632.326 89.1862 632.498 89.0991C632.693 89 632.948 89 633.459 89H687.541C688.052 89 688.307 89 688.502 89.0991C688.674 89.1862 688.813 89.3253 688.901 89.4964C689 89.6908 689 89.9454 689 90.4545V92.5455C689 93.0546 689 93.3092 688.901 93.5036C688.813 93.6747 688.674 93.8138 688.502 93.9009C688.307 94 688.052 94 687.541 94H633.459C632.948 94 632.693 94 632.498 93.9009C632.326 93.8138 632.187 93.6747 632.099 93.5036C632 93.3092 632 93.0546 632 92.5455V90.4545Z" fill="#424754"/>
<path d="M632 111.455C632 110.945 632 110.691 632.099 110.496C632.187 110.325 632.326 110.186 632.498 110.099C632.693 110 632.948 110 633.459 110H687.541C688.052 110 688.307 110 688.502 110.099C688.674 110.186 688.813 110.325 688.901 110.496C689 110.691 689 110.945 689 111.455V113.545C689 114.055 689 114.309 688.901 114.504C688.813 114.675 688.674 114.814 688.502 114.901C688.307 115 688.052 115 687.541 115H633.459C632.948 115 632.693 115 632.498 114.901C632.326 114.814 632.187 114.675 632.099 114.504C632 114.309 632 114.055 632 113.545V111.455Z" fill="#424754"/>
<path d="M632 133.455C632 132.945 632 132.691 632.099 132.496C632.187 132.325 632.326 132.186 632.498 132.099C632.693 132 632.948 132 633.459 132H687.541C688.052 132 688.307 132 688.502 132.099C688.674 132.186 688.813 132.325 688.901 132.496C689 132.691 689 132.945 689 133.455V135.545C689 136.055 689 136.309 688.901 136.504C688.813 136.675 688.674 136.814 688.502 136.901C688.307 137 688.052 137 687.541 137H633.459C632.948 137 632.693 137 632.498 136.901C632.326 136.814 632.187 136.675 632.099 136.504C632 136.309 632 136.055 632 135.545V133.455Z" fill="#424754"/>
<path d="M632 154.745C632 154.134 632 153.829 632.099 153.596C632.187 153.39 632.326 153.223 632.498 153.119C632.693 153 632.948 153 633.459 153H687.541C688.052 153 688.307 153 688.502 153.119C688.674 153.223 688.813 153.39 688.901 153.596C689 153.829 689 154.134 689 154.745V157.255C689 157.866 689 158.171 688.901 158.404C688.813 158.61 688.674 158.777 688.502 158.881C688.307 159 688.052 159 687.541 159H633.459C632.948 159 632.693 159 632.498 158.881C632.326 158.777 632.187 158.61 632.099 158.404C632 158.171 632 157.866 632 157.255V154.745Z" fill="#424754"/>
<line x1="749" y1="83.5" x2="1079" y2="83.5" stroke="#DADADB"/>
<line x1="749" y1="113.5" x2="1079" y2="113.5" stroke="#DADADB"/>
<line x1="749" y1="143.5" x2="1079" y2="143.5" stroke="#DADADB"/>
<line x1="749" y1="173.5" x2="1079" y2="173.5" stroke="#DADADB"/>
<line x1="749" y1="203.5" x2="1079" y2="203.5" stroke="#DADADB"/>
<line x1="749" y1="233.5" x2="1079" y2="233.5" stroke="#DADADB"/>
<line x1="778.5" y1="234" x2="778.5" y2="84" stroke="#DADADB"/>
<line x1="808.5" y1="234" x2="808.5" y2="84" stroke="#DADADB"/>
<line x1="838.5" y1="234" x2="838.5" y2="84" stroke="#DADADB"/>
<line x1="958.5" y1="234" x2="958.5" y2="84" stroke="#DADADB"/>
<line x1="868.5" y1="234" x2="868.5" y2="84" stroke="#DADADB"/>
<line x1="988.5" y1="234" x2="988.5" y2="84" stroke="#DADADB"/>
<line x1="898.5" y1="234" x2="898.5" y2="84" stroke="#DADADB"/>
<line x1="1018.5" y1="234" x2="1018.5" y2="84" stroke="#DADADB"/>
<line x1="928.5" y1="234" x2="928.5" y2="84" stroke="#DADADB"/>
<line x1="1048.5" y1="234" x2="1048.5" y2="84" stroke="#DADADB"/>
</svg>
