<svg width="1110" height="298" viewBox="0 0 1110 298" fill="none" xmlns="http://www.w3.org/2000/svg">
<path d="M636.296 75.968C636.296 83.528 641.984 89.432 649.76 89.432C657.536 89.432 663.224 83.528 663.224 75.968C663.224 68.588 657.536 62.828 649.76 62.828C641.984 62.828 636.296 68.588 636.296 75.968ZM642.812 75.968C642.812 71.756 645.908 68.588 649.76 68.588C653.612 68.588 656.708 71.756 656.708 75.968C656.708 80.36 653.612 83.672 649.76 83.672C645.908 83.672 642.812 80.36 642.812 75.968ZM666.373 89H672.601V75.68H678.109V89H684.337V70.46H666.373V89ZM688.522 96.2H694.75V89.252C694.75 88.316 694.678 87.668 694.678 87.668H694.75C696.082 88.82 697.738 89.432 699.466 89.432C704.398 89.432 708.106 85.616 708.106 79.748C708.106 73.988 704.794 70.028 699.754 70.028C697.522 70.028 695.398 70.892 694.138 72.584H694.066C694.066 72.584 694.138 72.008 694.138 71.396V70.46H688.522V96.2ZM694.57 79.856C694.57 76.652 696.334 75.284 698.206 75.284C700.366 75.284 701.842 77.084 701.842 79.856C701.842 82.7 700.15 84.284 698.206 84.284C695.758 84.284 694.57 82.088 694.57 79.856ZM710.259 79.712C710.259 84.644 713.823 89.432 720.447 89.432C723.291 89.432 726.351 88.46 728.367 86.732L726.063 82.376C724.551 83.384 722.787 84.248 720.951 84.248C718.971 84.248 717.099 83.204 716.631 80.936H728.331C728.403 80.288 728.475 79.64 728.475 78.992C728.475 73.844 725.379 70.028 719.907 70.028C713.931 70.028 710.259 74.276 710.259 79.712ZM716.775 77.372C717.099 75.896 717.963 74.6 719.763 74.6C721.347 74.6 722.319 75.86 722.319 77.372H716.775ZM738.428 84.068C739.724 81.584 740.084 78.884 740.084 76.076V75.392H743.288V84.068H738.428ZM730.004 84.068V93.32H735.764V89H746.636V93.32H752.18V84.068H749.516V70.46H734.216V74.924C734.216 78.668 733.532 81.98 732.308 84.068H730.004ZM753.782 79.712C753.782 84.644 757.346 89.432 763.97 89.432C766.814 89.432 769.874 88.46 771.89 86.732L769.586 82.376C768.074 83.384 766.31 84.248 764.474 84.248C762.494 84.248 760.622 83.204 760.154 80.936H771.854C771.926 80.288 771.998 79.64 771.998 78.992C771.998 73.844 768.902 70.028 763.43 70.028C757.454 70.028 753.782 74.276 753.782 79.712ZM760.298 77.372C760.622 75.896 761.486 74.6 763.286 74.6C764.87 74.6 765.842 75.86 765.842 77.372H760.298ZM773.743 89.18C780.943 89.18 783.103 83.996 783.103 76.436V75.392H786.199V89H792.427V70.46H777.235V76.4C777.235 82.772 775.399 83.528 773.743 83.744V89.18ZM796.592 89H802.64L807.788 80.864C808.076 80.36 808.472 79.784 808.796 79.028H808.868C808.796 79.748 808.796 80.468 808.796 80.9V89H814.664V70.46H808.616L803.468 78.632C803.144 79.172 802.784 79.712 802.46 80.468H802.388C802.424 80 802.46 79.28 802.46 78.632V70.46H796.592V89ZM818.054 89H823.994L824.426 80.468C824.498 79.028 824.39 77.3 824.39 77.3H824.462C824.462 77.3 825.146 78.848 825.542 80.036L827.99 86.516H833.03L835.478 80.036C835.946 78.884 836.486 77.3 836.486 77.3H836.558C836.558 77.3 836.486 79.028 836.522 80.468L836.954 89H842.93L841.166 70.46H834.002L831.266 78.596C830.942 79.532 830.51 80.756 830.51 80.756H830.474C830.474 80.756 830.078 79.532 829.754 78.596L827.018 70.46H819.818L818.054 89ZM855.483 90.692L853.503 95.264C853.503 95.264 855.375 96.56 857.823 96.56C860.775 96.56 864.015 95.12 865.563 90.98L873.159 70.46H866.355L864.015 79.1C863.763 80.108 863.403 81.872 863.403 81.872H863.331C863.331 81.872 862.971 80 862.647 78.992L859.911 70.46H852.855L860.739 88.64L860.379 89.504C859.731 91.088 858.399 91.376 857.391 91.376C856.491 91.376 855.483 90.692 855.483 90.692ZM875.483 96.2H881.711V89.252C881.711 88.316 881.639 87.668 881.639 87.668H881.711C883.043 88.82 884.699 89.432 886.427 89.432C891.359 89.432 895.067 85.616 895.067 79.748C895.067 73.988 891.755 70.028 886.715 70.028C884.483 70.028 882.359 70.892 881.099 72.584H881.027C881.027 72.584 881.099 72.008 881.099 71.396V70.46H875.483V96.2ZM881.531 79.856C881.531 76.652 883.295 75.284 885.167 75.284C887.327 75.284 888.803 77.084 888.803 79.856C888.803 82.7 887.111 84.284 885.167 84.284C882.719 84.284 881.531 82.088 881.531 79.856ZM897.22 79.784C897.22 85.58 901.9 89.432 907.732 89.432C913.564 89.432 918.244 85.58 918.244 79.784C918.244 73.952 913.564 70.028 907.696 70.028C901.9 70.028 897.22 73.952 897.22 79.784ZM903.52 79.784C903.52 76.976 905.464 75.212 907.732 75.212C910 75.212 911.944 76.976 911.944 79.784C911.944 82.556 910 84.248 907.732 84.248C905.464 84.248 903.52 82.556 903.52 79.784ZM921.361 89H931.477C935.149 89 938.533 87.56 938.533 83.492C938.533 81.872 937.741 80.036 935.617 79.388V79.352C937.021 78.524 937.777 76.868 937.777 75.32C937.777 72.116 935.185 70.46 931.477 70.46H921.361V89ZM927.589 77.768V74.312H929.857C931.081 74.312 931.585 75.068 931.585 75.932C931.585 76.904 931.081 77.768 929.929 77.768H927.589ZM927.589 85.112V81.404H930.361C931.693 81.404 932.305 82.268 932.305 83.276C932.305 84.212 931.657 85.112 930.325 85.112H927.589ZM940.708 79.712C940.708 84.644 944.272 89.432 950.896 89.432C953.74 89.432 956.8 88.46 958.816 86.732L956.512 82.376C955 83.384 953.236 84.248 951.4 84.248C949.42 84.248 947.548 83.204 947.08 80.936H958.78C958.852 80.288 958.924 79.64 958.924 78.992C958.924 73.844 955.828 70.028 950.356 70.028C944.38 70.028 940.708 74.276 940.708 79.712ZM947.224 77.372C947.548 75.896 948.412 74.6 950.212 74.6C951.796 74.6 952.768 75.86 952.768 77.372H947.224ZM962.178 89H968.406V82.232H974.13V89H980.358V70.46H974.13V77.012H968.406V70.46H962.178V89ZM984.537 89H993.789C998.973 89 1001.13 86.444 1001.13 82.664C1001.13 78.92 998.973 76.256 993.789 76.256H990.765V70.46H984.537V89ZM990.765 84.932V80.288H992.529C994.113 80.288 994.905 81.332 994.905 82.628C994.905 83.924 994.113 84.932 992.637 84.932H990.765ZM637.088 131H643.136L648.284 122.864C648.572 122.36 648.968 121.784 649.292 121.028H649.364C649.292 121.748 649.292 122.468 649.292 122.9V131H655.16V112.46H649.112L643.964 120.632C643.64 121.172 643.28 121.712 642.956 122.468H642.884C642.92 122 642.956 121.28 642.956 120.632V112.46H637.088V131ZM668.342 131H674.57V117.68H680.078V131H686.306V112.46H668.342V131ZM689.446 121.784C689.446 127.58 694.126 131.432 699.958 131.432C705.79 131.432 710.47 127.58 710.47 121.784C710.47 115.952 705.79 112.028 699.922 112.028C694.126 112.028 689.446 115.952 689.446 121.784ZM695.746 121.784C695.746 118.976 697.69 117.212 699.958 117.212C702.226 117.212 704.17 118.976 704.17 121.784C704.17 124.556 702.226 126.248 699.958 126.248C697.69 126.248 695.746 124.556 695.746 121.784ZM720.076 126.068C721.372 123.584 721.732 120.884 721.732 118.076V117.392H724.936V126.068H720.076ZM711.652 126.068V135.32H717.412V131H728.284V135.32H733.828V126.068H731.164V112.46H715.864V116.924C715.864 120.668 715.18 123.98 713.956 126.068H711.652ZM735.612 119.912C735.612 126.716 738.96 131.432 745.656 131.432C751.524 131.432 755.232 127.544 755.232 122.432C755.232 117.464 752.208 113.936 747.24 113.936C745.62 113.936 743.388 114.368 741.804 115.7H741.732C741.84 113.036 744.36 112.028 746.736 111.236L753.72 109.004L751.956 104L745.944 106.016C738.708 108.5 735.612 112.352 735.612 119.912ZM741.804 122.54C741.804 120.128 743.46 118.616 745.404 118.616C747.348 118.616 749.004 120.128 749.004 122.54C749.004 124.916 747.348 126.356 745.404 126.356C743.46 126.356 741.804 124.916 741.804 122.54ZM757.439 121.712C757.439 126.644 761.003 131.432 767.627 131.432C770.471 131.432 773.531 130.46 775.547 128.732L773.243 124.376C771.731 125.384 769.967 126.248 768.131 126.248C766.151 126.248 764.279 125.204 763.811 122.936H775.511C775.583 122.288 775.655 121.64 775.655 120.992C775.655 115.844 772.559 112.028 767.087 112.028C761.111 112.028 757.439 116.276 757.439 121.712ZM763.955 119.372C764.279 117.896 765.143 116.6 766.943 116.6C768.527 116.6 769.499 117.86 769.499 119.372H763.955ZM778.908 138.2H785.136V131.252C785.136 130.316 785.064 129.668 785.064 129.668H785.136C786.468 130.82 788.124 131.432 789.852 131.432C794.784 131.432 798.492 127.616 798.492 121.748C798.492 115.988 795.18 112.028 790.14 112.028C787.908 112.028 785.784 112.892 784.524 114.584H784.452C784.452 114.584 784.524 114.008 784.524 113.396V112.46H778.908V138.2ZM784.956 121.856C784.956 118.652 786.72 117.284 788.592 117.284C790.752 117.284 792.228 119.084 792.228 121.856C792.228 124.7 790.536 126.284 788.592 126.284C786.144 126.284 784.956 124.088 784.956 121.856ZM800.646 121.712C800.646 126.644 804.21 131.432 810.834 131.432C813.678 131.432 816.738 130.46 818.754 128.732L816.45 124.376C814.938 125.384 813.174 126.248 811.338 126.248C809.358 126.248 807.486 125.204 807.018 122.936H818.718C818.79 122.288 818.862 121.64 818.862 120.992C818.862 115.844 815.766 112.028 810.294 112.028C804.318 112.028 800.646 116.276 800.646 121.712ZM807.162 119.372C807.486 117.896 808.35 116.6 810.15 116.6C811.734 116.6 812.706 117.86 812.706 119.372H807.162ZM821.323 131H827.263L827.695 122.468C827.767 121.028 827.659 119.3 827.659 119.3H827.731C827.731 119.3 828.415 120.848 828.811 122.036L831.259 128.516H836.299L838.747 122.036C839.215 120.884 839.755 119.3 839.755 119.3H839.827C839.827 119.3 839.755 121.028 839.791 122.468L840.223 131H846.199L844.435 112.46H837.271L834.535 120.596C834.211 121.532 833.779 122.756 833.779 122.756H833.743C833.743 122.756 833.347 121.532 833.023 120.596L830.287 112.46H823.087L821.323 131ZM858.572 131H864.8V117.68H870.308V131H876.536V112.46H858.572V131ZM879.677 121.784C879.677 127.58 884.357 131.432 890.189 131.432C896.021 131.432 900.701 127.58 900.701 121.784C900.701 115.952 896.021 112.028 890.153 112.028C884.357 112.028 879.677 115.952 879.677 121.784ZM885.977 121.784C885.977 118.976 887.921 117.212 890.189 117.212C892.457 117.212 894.401 118.976 894.401 121.784C894.401 124.556 892.457 126.248 890.189 126.248C887.921 126.248 885.977 124.556 885.977 121.784ZM910.307 126.068C911.603 123.584 911.963 120.884 911.963 118.076V117.392H915.167V126.068H910.307ZM901.883 126.068V135.32H907.643V131H918.515V135.32H924.059V126.068H921.395V112.46H906.095V116.924C906.095 120.668 905.411 123.98 904.187 126.068H901.883ZM925.224 131H932.064L934.26 126.824C934.44 126.5 934.692 125.888 934.692 125.888H934.764C934.764 125.888 935.016 126.5 935.196 126.824L937.428 131H944.268L938.436 121.82L944.376 112.46H937.356L935.34 116.6C935.124 117.068 934.764 117.824 934.764 117.824H934.692C934.692 117.824 934.368 117.068 934.116 116.6L932.1 112.46H925.08L931.056 121.82L925.224 131ZM944.997 121.784C944.997 127.58 949.677 131.432 955.509 131.432C961.341 131.432 966.021 127.58 966.021 121.784C966.021 115.952 961.341 112.028 955.473 112.028C949.677 112.028 944.997 115.952 944.997 121.784ZM951.297 121.784C951.297 118.976 953.241 117.212 955.509 117.212C957.777 117.212 959.721 118.976 959.721 121.784C959.721 124.556 957.777 126.248 955.509 126.248C953.241 126.248 951.297 124.556 951.297 121.784ZM975.627 126.068C976.923 123.584 977.283 120.884 977.283 118.076V117.392H980.487V126.068H975.627ZM967.203 126.068V135.32H972.963V131H983.835V135.32H989.379V126.068H986.715V112.46H971.415V116.924C971.415 120.668 970.731 123.98 969.507 126.068H967.203ZM990.472 131H997.06L1000.62 125.348H1001.92V131H1008.15V112.46H998.428C994.324 112.46 991.732 114.836 991.732 118.724C991.732 121.1 993.064 123.224 995.08 124.232V124.268C995.08 124.268 994.72 124.628 994.216 125.384L990.472 131ZM1000.44 121.208C998.968 121.208 997.924 120.452 997.924 118.688C997.924 116.96 998.968 116.312 1000.41 116.312H1001.92V121.208H1000.44ZM1012.31 131H1035.39V135.32H1040.93V125.78H1038.27V112.46H1032.4V125.78H1028.22V112.46H1022.35V125.78H1018.18V112.46H1012.31V131ZM1043.43 132.692L1041.45 137.264C1041.45 137.264 1043.32 138.56 1045.77 138.56C1048.72 138.56 1051.96 137.12 1053.51 132.98L1061.1 112.46H1054.3L1051.96 121.1C1051.71 122.108 1051.35 123.872 1051.35 123.872H1051.28C1051.28 123.872 1050.92 122 1050.59 120.992L1047.86 112.46H1040.8L1048.68 130.64L1048.32 131.504C1047.68 133.088 1046.34 133.376 1045.34 133.376C1044.44 133.376 1043.43 132.692 1043.43 132.692ZM1063.43 131H1069.66V124.088H1072.18C1073.15 128.588 1077.04 131.432 1082 131.432C1087.76 131.432 1092.23 127.58 1092.23 121.784C1092.23 115.952 1087.76 112.028 1081.97 112.028C1077.14 112.028 1073.33 114.8 1072.25 119.156H1069.66V112.46H1063.43V131ZM1078.08 121.784C1078.08 118.976 1079.81 117.212 1082 117.212C1084.2 117.212 1085.93 118.976 1085.93 121.784C1085.93 124.556 1084.2 126.248 1082 126.248C1079.81 126.248 1078.08 124.556 1078.08 121.784ZM636.044 163.712C636.044 168.824 639.752 173.432 646.376 173.432C649.472 173.432 652.496 172.244 654.332 170.372L652.064 166.016C650.732 167.168 648.788 168.248 646.988 168.248C643.856 168.248 642.344 165.836 642.344 163.64C642.344 161.444 643.82 159.212 646.772 159.212C648.392 159.212 650.048 159.968 651.128 161.012L653.756 156.836C651.92 154.856 648.968 154.028 646.376 154.028C639.716 154.028 636.044 158.744 636.044 163.712ZM656.951 173H663.179V166.196H665.123L669.047 173H676.139L669.947 163.352V163.28L675.383 154.46H668.615L664.943 160.976H663.179V154.46H656.951V173ZM676.403 163.784C676.403 169.58 681.083 173.432 686.915 173.432C692.747 173.432 697.427 169.58 697.427 163.784C697.427 157.952 692.747 154.028 686.879 154.028C681.083 154.028 676.403 157.952 676.403 163.784ZM682.703 163.784C682.703 160.976 684.647 159.212 686.915 159.212C689.183 159.212 691.127 160.976 691.127 163.784C691.127 166.556 689.183 168.248 686.915 168.248C684.647 168.248 682.703 166.556 682.703 163.784ZM700.545 180.2H706.773V173.252C706.773 172.316 706.701 171.668 706.701 171.668H706.773C708.105 172.82 709.761 173.432 711.489 173.432C716.421 173.432 720.129 169.616 720.129 163.748C720.129 157.988 716.817 154.028 711.777 154.028C709.545 154.028 707.421 154.892 706.161 156.584H706.089C706.089 156.584 706.161 156.008 706.161 155.396V154.46H700.545V180.2ZM706.593 163.856C706.593 160.652 708.357 159.284 710.229 159.284C712.389 159.284 713.865 161.084 713.865 163.856C713.865 166.7 712.173 168.284 710.229 168.284C707.781 168.284 706.593 166.088 706.593 163.856ZM722.282 163.784C722.282 169.58 726.962 173.432 732.794 173.432C738.626 173.432 743.306 169.58 743.306 163.784C743.306 157.952 738.626 154.028 732.758 154.028C726.962 154.028 722.282 157.952 722.282 163.784ZM728.582 163.784C728.582 160.976 730.526 159.212 732.794 159.212C735.062 159.212 737.006 160.976 737.006 163.784C737.006 166.556 735.062 168.248 732.794 168.248C730.526 168.248 728.582 166.556 728.582 163.784ZM745.38 163.712C745.38 168.824 749.088 173.432 755.712 173.432C758.808 173.432 761.832 172.244 763.668 170.372L761.4 166.016C760.068 167.168 758.124 168.248 756.324 168.248C753.192 168.248 751.68 165.836 751.68 163.64C751.68 161.444 753.156 159.212 756.108 159.212C757.728 159.212 759.384 159.968 760.464 161.012L763.092 156.836C761.256 154.856 758.304 154.028 755.712 154.028C749.052 154.028 745.38 158.744 745.38 163.712ZM770.355 173H776.583V159.68H782.235V154.46H764.739V159.68H770.355V173ZM784.85 173H794.102C799.286 173 801.446 170.444 801.446 166.664C801.446 162.92 799.286 160.256 794.102 160.256H791.078V154.46H784.85V173ZM791.078 168.932V164.288H792.842C794.426 164.288 795.218 165.332 795.218 166.628C795.218 167.924 794.426 168.932 792.95 168.932H791.078ZM812.142 163.784C812.142 169.58 816.822 173.432 822.654 173.432C828.486 173.432 833.166 169.58 833.166 163.784C833.166 157.952 828.486 154.028 822.618 154.028C816.822 154.028 812.142 157.952 812.142 163.784ZM818.442 163.784C818.442 160.976 820.386 159.212 822.654 159.212C824.922 159.212 826.866 160.976 826.866 163.784C826.866 166.556 824.922 168.248 822.654 168.248C820.386 168.248 818.442 166.556 818.442 163.784ZM835.455 161.912C835.455 168.716 838.803 173.432 845.499 173.432C851.367 173.432 855.075 169.544 855.075 164.432C855.075 159.464 852.051 155.936 847.083 155.936C845.463 155.936 843.231 156.368 841.647 157.7H841.575C841.683 155.036 844.203 154.028 846.579 153.236L853.563 151.004L851.799 146L845.787 148.016C838.551 150.5 835.455 154.352 835.455 161.912ZM841.647 164.54C841.647 162.128 843.303 160.616 845.247 160.616C847.191 160.616 848.847 162.128 848.847 164.54C848.847 166.916 847.191 168.356 845.247 168.356C843.303 168.356 841.647 166.916 841.647 164.54ZM857.838 174.692L855.858 179.264C855.858 179.264 857.73 180.56 860.178 180.56C863.13 180.56 866.37 179.12 867.918 174.98L875.514 154.46H868.71L866.37 163.1C866.118 164.108 865.758 165.872 865.758 165.872H865.686C865.686 165.872 865.326 164 865.002 162.992L862.266 154.46H855.21L863.094 172.64L862.734 173.504C862.086 175.088 860.754 175.376 859.746 175.376C858.846 175.376 857.838 174.692 857.838 174.692ZM883.166 167.312C885.434 167.312 887.09 166.808 888.134 166.34H888.206C888.206 166.34 888.17 166.808 888.17 167.204V173H894.398V154.46H888.17V161.336C887.558 161.768 886.622 162.236 885.362 162.236C883.814 162.236 882.986 161.336 882.986 159.752V154.46H876.866V160.94C876.866 165.8 880.178 167.312 883.166 167.312ZM897.536 163.712C897.536 168.644 901.1 173.432 907.724 173.432C910.568 173.432 913.628 172.46 915.644 170.732L913.34 166.376C911.828 167.384 910.064 168.248 908.228 168.248C906.248 168.248 904.376 167.204 903.908 164.936H915.608C915.68 164.288 915.752 163.64 915.752 162.992C915.752 157.844 912.656 154.028 907.184 154.028C901.208 154.028 897.536 158.276 897.536 163.712ZM904.052 161.372C904.376 159.896 905.24 158.6 907.04 158.6C908.624 158.6 909.596 159.86 909.596 161.372H904.052ZM919.006 173H925.234V166.232H930.958V173H937.186V154.46H930.958V161.012H925.234V154.46H919.006V173ZM941.365 173H947.413L952.561 164.864C952.849 164.36 953.245 163.784 953.569 163.028H953.641C953.569 163.748 953.569 164.468 953.569 164.9V173H959.437V154.46H953.389L948.241 162.632C947.917 163.172 947.557 163.712 947.233 164.468H947.161C947.197 164 947.233 163.28 947.233 162.632V154.46H941.365V173Z" fill="#222224"/>
<path d="M638.762 233H640.814L643.028 224.756C643.262 223.928 643.424 222.974 643.424 222.974H643.496C643.496 222.974 643.658 223.928 643.874 224.756L646.106 233H648.14L651.488 220.292H649.652L647.294 229.616C647.132 230.3 647.06 230.966 647.06 230.966H647.024C647.024 230.966 646.916 230.318 646.736 229.616L644.252 220.292H642.686L640.184 229.616C640.004 230.318 639.896 230.966 639.896 230.966H639.86C639.86 230.966 639.77 230.3 639.608 229.616L637.394 220.292H635.522L638.762 233ZM652.051 228.446C652.051 231.146 654.031 233.216 656.893 233.216C658.153 233.216 659.539 232.73 660.421 231.92L659.683 230.642C658.963 231.29 657.973 231.704 657.001 231.704C655.363 231.704 653.959 230.642 653.869 228.68H660.493C660.529 228.428 660.565 228.176 660.565 227.942C660.565 225.602 659.197 223.676 656.623 223.676C654.031 223.676 652.051 225.548 652.051 228.446ZM653.923 227.42C654.175 225.908 655.237 225.026 656.587 225.026C657.775 225.026 658.747 225.854 658.801 227.42H653.923ZM667.164 236.6H668.91V232.46C668.91 231.992 668.838 231.668 668.838 231.668H668.874C669.504 232.64 670.548 233.216 671.7 233.216C674.094 233.216 675.822 231.344 675.822 228.446C675.822 225.62 674.292 223.676 671.826 223.676C670.494 223.676 669.342 224.288 668.766 225.386H668.73C668.73 225.386 668.784 225.08 668.784 224.702V223.892H667.164V236.6ZM668.856 228.482C668.856 226.178 670.116 225.206 671.484 225.206C672.996 225.206 674.058 226.484 674.058 228.464C674.058 230.534 672.87 231.704 671.43 231.704C669.756 231.704 668.856 230.102 668.856 228.482ZM677.219 230.516C677.219 232.226 678.677 233.216 680.261 233.216C681.611 233.216 682.727 232.406 683.249 231.362H683.285C683.285 231.362 683.231 231.668 683.231 232.082V233H684.869V227.24C684.869 224.936 683.555 223.676 681.269 223.676C679.991 223.676 678.605 224.144 677.867 224.756L678.569 226.034C679.307 225.512 680.225 225.152 681.125 225.152C682.259 225.152 683.123 225.656 683.123 227.15V227.33H682.655C680.765 227.33 677.219 227.654 677.219 230.516ZM678.965 230.372C678.965 228.698 681.377 228.59 682.673 228.59H683.123V228.932C683.123 230.282 682.205 231.83 680.675 231.83C679.541 231.83 678.965 231.092 678.965 230.372ZM686.841 234.89L686.229 236.222C686.229 236.222 686.967 236.78 687.975 236.78C689.253 236.78 690.387 236.06 690.927 234.638L695.211 223.892H693.321L691.107 229.868C690.945 230.336 690.801 230.948 690.801 230.948H690.765C690.765 230.948 690.603 230.3 690.423 229.85L688.137 223.892H686.175L689.991 232.892L689.541 233.936C689.199 234.764 688.605 235.286 687.885 235.286C687.345 235.286 686.841 234.89 686.841 234.89ZM700.194 230.516C700.194 232.226 701.652 233.216 703.236 233.216C704.586 233.216 705.702 232.406 706.224 231.362H706.26C706.26 231.362 706.206 231.668 706.206 232.082V233H707.844V227.24C707.844 224.936 706.53 223.676 704.244 223.676C702.966 223.676 701.58 224.144 700.842 224.756L701.544 226.034C702.282 225.512 703.2 225.152 704.1 225.152C705.234 225.152 706.098 225.656 706.098 227.15V227.33H705.63C703.74 227.33 700.194 227.654 700.194 230.516ZM701.94 230.372C701.94 228.698 704.352 228.59 705.648 228.59H706.098V228.932C706.098 230.282 705.18 231.83 703.65 231.83C702.516 231.83 701.94 231.092 701.94 230.372ZM710.82 229.67C710.82 232.712 713.142 233.09 714.312 233.09C714.582 233.09 714.78 233.054 714.924 233.036V231.488C714.744 231.524 714.636 231.524 714.51 231.524C713.844 231.524 712.566 231.29 712.566 229.472V225.404H714.762V223.982H712.566V221.39H710.856V223.982H709.632V225.404H710.82V229.67ZM717.095 229.67C717.095 232.712 719.417 233.09 720.587 233.09C720.857 233.09 721.055 233.054 721.199 233.036V231.488C721.019 231.524 720.911 231.524 720.785 231.524C720.119 231.524 718.841 231.29 718.841 229.472V225.404H721.037V223.982H718.841V221.39H717.131V223.982H715.907V225.404H717.095V229.67ZM722.311 228.446C722.311 231.146 724.291 233.216 727.153 233.216C728.413 233.216 729.799 232.73 730.681 231.92L729.943 230.642C729.223 231.29 728.233 231.704 727.261 231.704C725.623 231.704 724.219 230.642 724.129 228.68H730.753C730.789 228.428 730.825 228.176 730.825 227.942C730.825 225.602 729.457 223.676 726.883 223.676C724.291 223.676 722.311 225.548 722.311 228.446ZM724.183 227.42C724.435 225.908 725.497 225.026 726.847 225.026C728.035 225.026 729.007 225.854 729.061 227.42H724.183ZM732.924 233H734.67V228.626C734.67 226.754 735.93 225.278 737.712 225.278C739.17 225.278 739.422 226.286 739.422 227.564V233H741.168V227.168C741.168 224.846 740.196 223.676 738.054 223.676C736.056 223.676 734.94 225.026 734.598 225.818H734.562C734.562 225.818 734.616 225.512 734.616 225.134V223.892H732.924V233ZM744.148 229.67C744.148 232.712 746.47 233.09 747.64 233.09C747.91 233.09 748.108 233.054 748.252 233.036V231.488C748.072 231.524 747.964 231.524 747.838 231.524C747.172 231.524 745.894 231.29 745.894 229.472V225.404H748.09V223.982H745.894V221.39H744.184V223.982H742.96V225.404H744.148V229.67ZM750.009 222.056H751.809V220.292H750.009V222.056ZM750.045 233H751.791V223.892H750.045V233ZM753.881 228.428C753.881 231.2 756.077 233.216 758.795 233.216C761.495 233.216 763.691 231.2 763.691 228.428C763.691 225.674 761.495 223.676 758.777 223.676C756.077 223.676 753.881 225.674 753.881 228.428ZM755.663 228.428C755.663 226.538 757.067 225.188 758.795 225.188C760.505 225.188 761.927 226.538 761.927 228.428C761.927 230.336 760.505 231.704 758.795 231.704C757.067 231.704 755.663 230.336 755.663 228.428ZM765.795 233H767.541V228.626C767.541 226.754 768.801 225.278 770.583 225.278C772.041 225.278 772.293 226.286 772.293 227.564V233H774.039V227.168C774.039 224.846 773.067 223.676 770.925 223.676C768.927 223.676 767.811 225.026 767.469 225.818H767.433C767.433 225.818 767.487 225.512 767.487 225.134V223.892H765.795V233ZM781.167 229.67C781.167 232.712 783.489 233.09 784.659 233.09C784.929 233.09 785.127 233.054 785.271 233.036V231.488C785.091 231.524 784.983 231.524 784.857 231.524C784.191 231.524 782.913 231.29 782.913 229.472V225.404H785.109V223.982H782.913V221.39H781.203V223.982H779.979V225.404H781.167V229.67ZM786.365 228.428C786.365 231.2 788.561 233.216 791.279 233.216C793.979 233.216 796.175 231.2 796.175 228.428C796.175 225.674 793.979 223.676 791.261 223.676C788.561 223.676 786.365 225.674 786.365 228.428ZM788.147 228.428C788.147 226.538 789.551 225.188 791.279 225.188C792.989 225.188 794.411 226.538 794.411 228.428C794.411 230.336 792.989 231.704 791.279 231.704C789.551 231.704 788.147 230.336 788.147 228.428ZM802.186 228.446C802.186 231.146 804.166 233.216 807.028 233.216C808.288 233.216 809.674 232.73 810.556 231.92L809.818 230.642C809.098 231.29 808.108 231.704 807.136 231.704C805.498 231.704 804.094 230.642 804.004 228.68H810.628C810.664 228.428 810.7 228.176 810.7 227.942C810.7 225.602 809.332 223.676 806.758 223.676C804.166 223.676 802.186 225.548 802.186 228.446ZM804.058 227.42C804.31 225.908 805.372 225.026 806.722 225.026C807.91 225.026 808.882 225.854 808.936 227.42H804.058ZM812.043 230.516C812.043 232.226 813.501 233.216 815.085 233.216C816.435 233.216 817.551 232.406 818.073 231.362H818.109C818.109 231.362 818.055 231.668 818.055 232.082V233H819.693V227.24C819.693 224.936 818.379 223.676 816.093 223.676C814.815 223.676 813.429 224.144 812.691 224.756L813.393 226.034C814.131 225.512 815.049 225.152 815.949 225.152C817.083 225.152 817.947 225.656 817.947 227.15V227.33H817.479C815.589 227.33 812.043 227.654 812.043 230.516ZM813.789 230.372C813.789 228.698 816.201 228.59 817.497 228.59H817.947V228.932C817.947 230.282 817.029 231.83 815.499 231.83C814.365 231.83 813.789 231.092 813.789 230.372ZM821.697 228.446C821.697 231.182 823.695 233.216 826.575 233.216C827.997 233.216 829.383 232.64 830.211 231.758L829.509 230.48C828.807 231.218 827.709 231.704 826.701 231.704C824.811 231.704 823.479 230.282 823.479 228.428C823.479 226.574 824.811 225.188 826.647 225.188C827.601 225.188 828.555 225.62 829.167 226.232L829.995 225.008C829.131 224.09 827.781 223.676 826.575 223.676C823.713 223.676 821.697 225.746 821.697 228.446ZM832.1 233H833.846V228.68C833.846 226.718 835.124 225.278 836.888 225.278C838.346 225.278 838.598 226.286 838.598 227.564V233H840.344V227.168C840.344 224.846 839.372 223.676 837.23 223.676C835.412 223.676 834.224 224.9 833.81 225.764H833.774C833.774 225.764 833.846 225.44 833.846 225.008V220.292H832.1V233ZM846.672 231.884C847.572 232.802 848.922 233.216 850.146 233.216C852.09 233.216 853.422 232.082 853.422 230.534C853.422 227.528 848.724 228.05 848.724 226.268C848.724 225.494 849.39 225.134 850.272 225.134C851.082 225.134 852.036 225.44 852.576 225.944L853.278 224.684C852.486 223.964 851.37 223.676 850.326 223.676C848.544 223.676 847.05 224.576 847.05 226.304C847.05 229.292 851.73 228.824 851.73 230.57C851.73 231.326 851.1 231.758 850.182 231.758C849.228 231.758 848.184 231.362 847.5 230.696L846.672 231.884ZM855.874 229.67C855.874 232.712 858.196 233.09 859.366 233.09C859.636 233.09 859.834 233.054 859.978 233.036V231.488C859.798 231.524 859.69 231.524 859.564 231.524C858.898 231.524 857.62 231.29 857.62 229.472V225.404H859.816V223.982H857.62V221.39H855.91V223.982H854.686V225.404H855.874V229.67ZM861.664 229.724C861.664 232.136 862.726 233.216 864.778 233.216C866.56 233.216 867.766 231.974 868.162 231.074H868.198C868.198 231.074 868.126 231.38 868.126 231.74V233H869.818V223.892H868.09V228.158C868.09 229.958 866.992 231.596 865.12 231.596C863.68 231.596 863.41 230.588 863.41 229.328V223.892H861.664V229.724ZM871.954 228.446C871.954 231.272 873.52 233.216 875.968 233.216C877.408 233.216 878.47 232.46 878.992 231.47H879.028C879.028 231.47 878.974 231.722 878.974 232.082V233H880.63V220.292H878.902V224.558C878.902 224.9 878.938 225.17 878.938 225.17H878.902C878.326 224.198 877.228 223.676 876.076 223.676C873.664 223.676 871.954 225.548 871.954 228.446ZM873.736 228.446C873.736 226.376 874.924 225.206 876.346 225.206C878.092 225.206 878.938 226.79 878.938 228.428C878.938 230.732 877.66 231.704 876.31 231.704C874.798 231.704 873.736 230.426 873.736 228.446ZM882.729 228.446C882.729 231.146 884.709 233.216 887.571 233.216C888.831 233.216 890.217 232.73 891.099 231.92L890.361 230.642C889.641 231.29 888.651 231.704 887.679 231.704C886.041 231.704 884.637 230.642 884.547 228.68H891.171C891.207 228.428 891.243 228.176 891.243 227.942C891.243 225.602 889.875 223.676 887.301 223.676C884.709 223.676 882.729 225.548 882.729 228.446ZM884.601 227.42C884.853 225.908 885.915 225.026 887.265 225.026C888.453 225.026 889.425 225.854 889.479 227.42H884.601ZM893.342 233H895.088V228.626C895.088 226.754 896.348 225.278 898.13 225.278C899.588 225.278 899.84 226.286 899.84 227.564V233H901.586V227.168C901.586 224.846 900.614 223.676 898.472 223.676C896.474 223.676 895.358 225.026 895.016 225.818H894.98C894.98 225.818 895.034 225.512 895.034 225.134V223.892H893.342V233ZM904.566 229.67C904.566 232.712 906.888 233.09 908.058 233.09C908.328 233.09 908.526 233.054 908.67 233.036V231.488C908.49 231.524 908.382 231.524 908.256 231.524C907.59 231.524 906.312 231.29 906.312 229.472V225.404H908.508V223.982H906.312V221.39H904.602V223.982H903.378V225.404H904.566V229.67Z" fill="#424754"/>
<g clip-path="url(#clip0)">
<path d="M0 4.40122C0 2.86065 0 2.09037 0.299609 1.50195C0.563153 0.984356 0.983678 0.563541 1.50091 0.299816C2.08893 0 2.85869 0 4.3982 0H504.602C506.141 0 506.911 0 507.499 0.299816C508.016 0.563541 508.437 0.984356 508.7 1.50195C509 2.09037 509 2.86066 509 4.40123V293.599C509 295.139 509 295.91 508.7 296.498C508.437 297.016 508.016 297.436 507.499 297.7C506.911 298 506.141 298 504.602 298H4.39818C2.85868 298 2.08893 298 1.50091 297.7C0.983678 297.436 0.563153 297.016 0.299609 296.498C0 295.91 0 295.139 0 293.599V4.40122Z" fill="#F3F3F3"/>
<path d="M0 4.40122C0 2.86065 0 2.09037 0.111838 1.50195C0.210214 0.984356 0.367188 0.563541 0.560262 0.299816C0.779757 0 1.06709 0 1.64176 0H188.358C188.933 0 189.22 0 189.44 0.299816C189.633 0.563541 189.79 0.984356 189.888 1.50195C190 2.09037 190 2.86066 190 4.40123V293.599C190 295.139 190 295.91 189.888 296.498C189.79 297.016 189.633 297.436 189.44 297.7C189.22 298 188.933 298 188.358 298H1.64176C1.06709 298 0.779757 298 0.560262 297.7C0.367188 297.436 0.210214 297.016 0.111838 296.498C0 295.91 0 295.139 0 293.599V4.40122Z" fill="#EDEDED"/>
<path d="M30 76.88C30 75.8719 30 75.3679 30.0765 74.9828C30.1438 74.6441 30.2512 74.3688 30.3833 74.1962C30.5335 74 30.7301 74 31.1233 74H158.877C159.27 74 159.466 74 159.617 74.1962C159.749 74.3688 159.856 74.6441 159.923 74.9828C160 75.3679 160 75.8719 160 76.88V266.12C160 267.128 160 267.632 159.923 268.017C159.856 268.356 159.749 268.631 159.617 268.804C159.466 269 159.27 269 158.877 269H31.1233C30.7301 269 30.5335 269 30.3833 268.804C30.2512 268.631 30.1438 268.356 30.0765 268.017C30 267.632 30 267.128 30 266.12V76.88Z" fill="white"/>
<path d="M52 238.491C52 237.269 52 236.658 52.0715 236.191C52.1344 235.781 52.2347 235.447 52.3582 235.238C52.4985 235 52.6822 235 53.0496 235H91.9504C92.3178 235 92.5015 235 92.6418 235.238C92.7653 235.447 92.8656 235.781 92.9285 236.191C93 236.658 93 237.269 93 238.491V243.509C93 244.731 93 245.342 92.9285 245.809C92.8656 246.219 92.7653 246.553 92.6418 246.762C92.5015 247 92.3178 247 91.9504 247H53.0496C52.6822 247 52.4985 247 52.3582 246.762C52.2347 246.553 52.1344 246.219 52.0715 245.809C52 245.342 52 244.731 52 243.509V238.491Z" fill="#222224"/>
<path d="M52 92.4545C52 91.9454 52 91.6908 52.0488 91.4964C52.0918 91.3253 52.1603 91.1862 52.2446 91.0991C52.3404 91 52.4659 91 52.7168 91H79.2832C79.5341 91 79.6596 91 79.7554 91.0991C79.8397 91.1862 79.9082 91.3253 79.9512 91.4964C80 91.6908 80 91.9454 80 92.4545V94.5455C80 95.0546 80 95.3092 79.9512 95.5036C79.9082 95.6747 79.8397 95.8138 79.7554 95.9009C79.6596 96 79.5341 96 79.2832 96H52.7168C52.4659 96 52.3404 96 52.2446 95.9009C52.1603 95.8138 52.0918 95.6747 52.0488 95.5036C52 95.3092 52 95.0546 52 94.5455V92.4545Z" fill="#424754"/>
<path d="M52 100.455C52 99.9454 52 99.6908 52.0994 99.4964C52.1868 99.3253 52.3264 99.1862 52.498 99.0991C52.693 99 52.9484 99 53.4592 99H107.541C108.052 99 108.307 99 108.502 99.0991C108.674 99.1862 108.813 99.3253 108.901 99.4964C109 99.6908 109 99.9454 109 100.455V102.545C109 103.055 109 103.309 108.901 103.504C108.813 103.675 108.674 103.814 108.502 103.901C108.307 104 108.052 104 107.541 104H53.4592C52.9484 104 52.693 104 52.498 103.901C52.3264 103.814 52.1868 103.675 52.0994 103.504C52 103.309 52 103.055 52 102.545V100.455Z" fill="#424754"/>
<path d="M57.1156 147.821C56.2264 147.439 55.1923 147.849 54.8466 148.753C51.7663 156.809 51.1654 165.618 53.1439 174.041C55.2562 183.033 60.1972 191.111 67.2407 197.087C74.2842 203.063 83.0589 206.622 92.2752 207.242C101.492 207.861 110.663 205.508 118.443 200.528C126.223 195.548 132.2 188.204 135.496 179.575C138.793 170.946 139.234 161.487 136.756 152.589C134.278 143.69 129.011 135.821 121.73 130.138C114.909 124.815 106.657 121.672 98.0514 121.096C97.0858 121.032 96.2805 121.799 96.2551 122.767C96.2297 123.734 96.9941 124.535 97.9595 124.603C105.816 125.157 113.344 128.039 119.573 132.901C126.264 138.122 131.103 145.353 133.38 153.529C135.657 161.705 135.251 170.396 132.222 178.324C129.194 186.252 123.702 193 116.554 197.576C109.406 202.152 100.978 204.314 92.5102 203.745C84.0421 203.176 75.9798 199.906 69.5081 194.415C63.0364 188.924 58.4966 181.502 56.5557 173.24C54.7487 165.547 55.2834 157.504 58.0696 150.137C58.412 149.232 58.0048 148.203 57.1156 147.821Z" fill="#27AE60"/>
<path d="M82.1367 161.548C82.1367 160.47 82.1367 159.931 82.1808 159.519C82.2195 159.157 82.2813 158.862 82.3573 158.678C82.4437 158.468 82.5569 158.468 82.7831 158.468H106.74C106.967 158.468 107.08 158.468 107.166 158.678C107.242 158.862 107.304 159.157 107.343 159.519C107.387 159.931 107.387 160.47 107.387 161.548V165.976C107.387 167.054 107.387 167.593 107.343 168.005C107.304 168.368 107.242 168.662 107.166 168.847C107.08 169.056 106.967 169.056 106.74 169.056H82.7831C82.5569 169.056 82.4437 169.056 82.3573 168.847C82.2813 168.662 82.2195 168.368 82.1808 168.005C82.1367 167.593 82.1367 167.054 82.1367 165.976V161.548Z" fill="#424754"/>
<path d="M52 219.112C52 218.697 52 218.49 52.1122 218.332C52.2109 218.192 52.3684 218.079 52.5621 218.008C52.7824 217.927 53.0707 217.927 53.6473 217.927H114.699C115.276 217.927 115.564 217.927 115.785 218.008C115.978 218.079 116.136 218.192 116.235 218.332C116.347 218.49 116.347 218.697 116.347 219.112V220.815C116.347 221.23 116.347 221.437 116.235 221.596C116.136 221.735 115.978 221.848 115.785 221.919C115.564 222 115.276 222 114.699 222H53.6473C53.0707 222 52.7824 222 52.5621 221.919C52.3684 221.848 52.2109 221.735 52.1122 221.596C52 221.437 52 221.23 52 220.815V219.112Z" fill="#97999D"/>
<path d="M219 76.88C219 75.8719 219 75.3679 219.061 74.9828C219.115 74.6441 219.201 74.3688 219.307 74.1962C219.427 74 219.584 74 219.899 74H322.101C322.416 74 322.573 74 322.693 74.1962C322.799 74.3688 322.885 74.6441 322.939 74.9828C323 75.3679 323 75.8719 323 76.88V266.12C323 267.128 323 267.632 322.939 268.017C322.885 268.356 322.799 268.631 322.693 268.804C322.573 269 322.416 269 322.101 269H219.899C219.584 269 219.427 269 219.307 268.804C219.201 268.631 219.115 268.356 219.061 268.017C219 267.632 219 267.128 219 266.12V76.88Z" fill="white"/>
<path d="M239 232.109C239 229.971 239 228.902 239.112 228.085C239.21 227.366 239.366 226.782 239.559 226.416C239.778 226 240.065 226 240.638 226H301.362C301.935 226 302.222 226 302.441 226.416C302.634 226.782 302.79 227.366 302.888 228.085C303 228.902 303 229.971 303 232.109V240.891C303 243.029 303 244.098 302.888 244.915C302.79 245.634 302.634 246.218 302.441 246.584C302.222 247 301.935 247 301.362 247H240.638C240.065 247 239.778 247 239.559 246.584C239.366 246.218 239.21 245.634 239.112 244.915C239 244.098 239 243.029 239 240.891V232.109Z" fill="#F04B5D"/>
<path d="M239 92.4545C239 91.9454 239 91.6908 239.061 91.4964C239.115 91.3253 239.2 91.1862 239.306 91.0991C239.426 91 239.582 91 239.896 91H273.104C273.418 91 273.574 91 273.694 91.0991C273.8 91.1862 273.885 91.3253 273.939 91.4964C274 91.6908 274 91.9454 274 92.4545V94.5455C274 95.0546 274 95.3092 273.939 95.5036C273.885 95.6747 273.8 95.8138 273.694 95.9009C273.574 96 273.418 96 273.104 96H239.896C239.582 96 239.426 96 239.306 95.9009C239.2 95.8138 239.115 95.6747 239.061 95.5036C239 95.3092 239 95.0546 239 94.5455V92.4545Z" fill="#424754"/>
<path d="M248 117.164C248 116.756 248 116.553 248.087 116.397C248.164 116.26 248.286 116.149 248.437 116.079C248.608 116 248.832 116 249.28 116H296.72C297.168 116 297.392 116 297.563 116.079C297.714 116.149 297.836 116.26 297.913 116.397C298 116.553 298 116.756 298 117.164V118.836C298 119.244 298 119.447 297.913 119.603C297.836 119.74 297.714 119.851 297.563 119.921C297.392 120 297.168 120 296.72 120H249.28C248.832 120 248.608 120 248.437 119.921C248.286 119.851 248.164 119.74 248.087 119.603C248 119.447 248 119.244 248 118.836V117.164Z" fill="#97999D"/>
<path d="M239 117.164C239 116.756 239 116.553 239.007 116.397C239.013 116.26 239.023 116.149 239.035 116.079C239.049 116 239.067 116 239.102 116H242.898C242.933 116 242.951 116 242.965 116.079C242.977 116.149 242.987 116.26 242.993 116.397C243 116.553 243 116.756 243 117.164V118.836C243 119.244 243 119.447 242.993 119.603C242.987 119.74 242.977 119.851 242.965 119.921C242.951 120 242.933 120 242.898 120H239.102C239.067 120 239.049 120 239.035 119.921C239.023 119.851 239.013 119.74 239.007 119.603C239 119.447 239 119.244 239 118.836V117.164Z" fill="#F04B5D"/>
<path d="M248 134.164C248 133.756 248 133.553 248.087 133.397C248.164 133.26 248.286 133.149 248.437 133.079C248.608 133 248.832 133 249.28 133H296.72C297.168 133 297.392 133 297.563 133.079C297.714 133.149 297.836 133.26 297.913 133.397C298 133.553 298 133.756 298 134.164V135.836C298 136.244 298 136.447 297.913 136.603C297.836 136.74 297.714 136.851 297.563 136.921C297.392 137 297.168 137 296.72 137H249.28C248.832 137 248.608 137 248.437 136.921C248.286 136.851 248.164 136.74 248.087 136.603C248 136.447 248 136.244 248 135.836V134.164Z" fill="#97999D"/>
<path d="M239 134.164C239 133.756 239 133.553 239.007 133.397C239.013 133.26 239.023 133.149 239.035 133.079C239.049 133 239.067 133 239.102 133H242.898C242.933 133 242.951 133 242.965 133.079C242.977 133.149 242.987 133.26 242.993 133.397C243 133.553 243 133.756 243 134.164V135.836C243 136.244 243 136.447 242.993 136.603C242.987 136.74 242.977 136.851 242.965 136.921C242.951 137 242.933 137 242.898 137H239.102C239.067 137 239.049 137 239.035 136.921C239.023 136.851 239.013 136.74 239.007 136.603C239 136.447 239 136.244 239 135.836V134.164Z" fill="#F04B5D"/>
<path d="M248 151.164C248 150.756 248 150.553 248.087 150.397C248.164 150.26 248.286 150.149 248.437 150.079C248.608 150 248.832 150 249.28 150H296.72C297.168 150 297.392 150 297.563 150.079C297.714 150.149 297.836 150.26 297.913 150.397C298 150.553 298 150.756 298 151.164V152.836C298 153.244 298 153.447 297.913 153.603C297.836 153.74 297.714 153.851 297.563 153.921C297.392 154 297.168 154 296.72 154H249.28C248.832 154 248.608 154 248.437 153.921C248.286 153.851 248.164 153.74 248.087 153.603C248 153.447 248 153.244 248 152.836V151.164Z" fill="#97999D"/>
<path d="M239 151.164C239 150.756 239 150.553 239.007 150.397C239.013 150.26 239.023 150.149 239.035 150.079C239.049 150 239.067 150 239.102 150H242.898C242.933 150 242.951 150 242.965 150.079C242.977 150.149 242.987 150.26 242.993 150.397C243 150.553 243 150.756 243 151.164V152.836C243 153.244 243 153.447 242.993 153.603C242.987 153.74 242.977 153.851 242.965 153.921C242.951 154 242.933 154 242.898 154H239.102C239.067 154 239.049 154 239.035 153.921C239.023 153.851 239.013 153.74 239.007 153.603C239 153.447 239 153.244 239 152.836V151.164Z" fill="#F04B5D"/>
<path d="M248 168.164C248 167.756 248 167.553 248.087 167.397C248.164 167.26 248.286 167.149 248.437 167.079C248.608 167 248.832 167 249.28 167H296.72C297.168 167 297.392 167 297.563 167.079C297.714 167.149 297.836 167.26 297.913 167.397C298 167.553 298 167.756 298 168.164V169.836C298 170.244 298 170.447 297.913 170.603C297.836 170.74 297.714 170.851 297.563 170.921C297.392 171 297.168 171 296.72 171H249.28C248.832 171 248.608 171 248.437 170.921C248.286 170.851 248.164 170.74 248.087 170.603C248 170.447 248 170.244 248 169.836V168.164Z" fill="#97999D"/>
<path d="M239 168.164C239 167.756 239 167.553 239.007 167.397C239.013 167.26 239.023 167.149 239.035 167.079C239.049 167 239.067 167 239.102 167H242.898C242.933 167 242.951 167 242.965 167.079C242.977 167.149 242.987 167.26 242.993 167.397C243 167.553 243 167.756 243 168.164V169.836C243 170.244 243 170.447 242.993 170.603C242.987 170.74 242.977 170.851 242.965 170.921C242.951 171 242.933 171 242.898 171H239.102C239.067 171 239.049 171 239.035 170.921C239.023 170.851 239.013 170.74 239.007 170.603C239 170.447 239 170.244 239 169.836V168.164Z" fill="#F04B5D"/>
<path d="M343 76.88C343 75.8719 343 75.3679 343.061 74.9828C343.115 74.6441 343.201 74.3688 343.307 74.1962C343.427 74 343.584 74 343.899 74H446.101C446.416 74 446.573 74 446.693 74.1962C446.799 74.3688 446.885 74.6441 446.939 74.9828C447 75.3679 447 75.8719 447 76.88V266.12C447 267.128 447 267.632 446.939 268.017C446.885 268.356 446.799 268.631 446.693 268.804C446.573 269 446.416 269 446.101 269H343.899C343.584 269 343.427 269 343.307 268.804C343.201 268.631 343.115 268.356 343.061 268.017C343 267.632 343 267.128 343 266.12V76.88Z" fill="white"/>
<path d="M363 232.109C363 229.971 363 228.902 363.112 228.085C363.21 227.366 363.366 226.782 363.559 226.416C363.778 226 364.065 226 364.638 226H425.362C425.935 226 426.222 226 426.441 226.416C426.634 226.782 426.79 227.366 426.888 228.085C427 228.902 427 229.971 427 232.109V240.891C427 243.029 427 244.098 426.888 244.915C426.79 245.634 426.634 246.218 426.441 246.584C426.222 247 425.935 247 425.362 247H364.638C364.065 247 363.778 247 363.559 246.584C363.366 246.218 363.21 245.634 363.112 244.915C363 244.098 363 243.029 363 240.891V232.109Z" fill="#F04B5D"/>
<path d="M373 253.582C373 253.378 373 253.276 373.077 253.199C373.144 253.13 373.252 253.074 373.384 253.04C373.535 253 373.732 253 374.126 253H415.874C416.268 253 416.465 253 416.616 253.04C416.748 253.074 416.856 253.13 416.923 253.199C417 253.276 417 253.378 417 253.582V254.418C417 254.622 417 254.724 416.923 254.801C416.856 254.87 416.748 254.926 416.616 254.96C416.465 255 416.268 255 415.874 255H374.126C373.732 255 373.535 255 373.384 254.96C373.252 254.926 373.144 254.87 373.077 254.801C373 254.724 373 254.622 373 254.418V253.582Z" fill="#97999D"/>
<path d="M219 282.582C219 282.378 219 282.276 219.448 282.199C219.842 282.13 220.471 282.074 221.245 282.04C222.125 282 223.276 282 225.579 282H469.421C471.724 282 472.875 282 473.755 282.04C474.529 282.074 475.158 282.13 475.552 282.199C476 282.276 476 282.378 476 282.582V283.418C476 283.622 476 283.724 475.552 283.801C475.158 283.87 474.529 283.926 473.755 283.96C472.875 284 471.724 284 469.421 284H225.579C223.276 284 222.125 284 221.245 283.96C220.471 283.926 219.842 283.87 219.448 283.801C219 283.724 219 283.622 219 283.418V282.582Z" fill="#DBE0E8"/>
<path d="M219 282.582C219 282.378 219 282.276 219.063 282.199C219.118 282.13 219.206 282.074 219.315 282.04C219.438 282 219.599 282 219.922 282H254.078C254.401 282 254.562 282 254.685 282.04C254.794 282.074 254.882 282.13 254.937 282.199C255 282.276 255 282.378 255 282.582V283.418C255 283.622 255 283.724 254.937 283.801C254.882 283.87 254.794 283.926 254.685 283.96C254.562 284 254.401 284 254.078 284H219.922C219.599 284 219.438 284 219.315 283.96C219.206 283.926 219.118 283.87 219.063 283.801C219 283.724 219 283.622 219 283.418V282.582Z" fill="#5F646A"/>
<path d="M363 92.4545C363 91.9454 363 91.6908 363.061 91.4964C363.115 91.3253 363.2 91.1862 363.306 91.0991C363.426 91 363.582 91 363.896 91H397.104C397.418 91 397.574 91 397.694 91.0991C397.8 91.1862 397.885 91.3253 397.939 91.4964C398 91.6908 398 91.9454 398 92.4545V94.5455C398 95.0546 398 95.3092 397.939 95.5036C397.885 95.6747 397.8 95.8138 397.694 95.9009C397.574 96 397.418 96 397.104 96H363.896C363.582 96 363.426 96 363.306 95.9009C363.2 95.8138 363.115 95.6747 363.061 95.5036C363 95.3092 363 95.0546 363 94.5455V92.4545Z" fill="#424754"/>
<path d="M429 83.9091C429 82.8908 429 82.3817 429.017 81.9927C429.033 81.6506 429.057 81.3725 429.087 81.1982C429.122 81 429.166 81 429.256 81H438.744C438.834 81 438.878 81 438.913 81.1982C438.943 81.3725 438.967 81.6506 438.983 81.9927C439 82.3817 439 82.8908 439 83.9091V88.0909C439 89.1092 439 89.6183 438.983 90.0073C438.967 90.3494 438.943 90.6275 438.913 90.8018C438.878 91 438.834 91 438.744 91H429.256C429.166 91 429.122 91 429.087 90.8018C429.057 90.6275 429.033 90.3494 429.017 90.0073C429 89.6183 429 89.1092 429 88.0909V83.9091Z" fill="#F04B5D"/>
<path d="M372 117.164C372 116.756 372 116.553 372.087 116.397C372.164 116.26 372.286 116.149 372.437 116.079C372.608 116 372.832 116 373.28 116H420.72C421.168 116 421.392 116 421.563 116.079C421.714 116.149 421.836 116.26 421.913 116.397C422 116.553 422 116.756 422 117.164V118.836C422 119.244 422 119.447 421.913 119.603C421.836 119.74 421.714 119.851 421.563 119.921C421.392 120 421.168 120 420.72 120H373.28C372.832 120 372.608 120 372.437 119.921C372.286 119.851 372.164 119.74 372.087 119.603C372 119.447 372 119.244 372 118.836V117.164Z" fill="#97999D"/>
<path d="M363 117.164C363 116.756 363 116.553 363.007 116.397C363.013 116.26 363.023 116.149 363.035 116.079C363.049 116 363.067 116 363.102 116H366.898C366.933 116 366.951 116 366.965 116.079C366.977 116.149 366.987 116.26 366.993 116.397C367 116.553 367 116.756 367 117.164V118.836C367 119.244 367 119.447 366.993 119.603C366.987 119.74 366.977 119.851 366.965 119.921C366.951 120 366.933 120 366.898 120H363.102C363.067 120 363.049 120 363.035 119.921C363.023 119.851 363.013 119.74 363.007 119.603C363 119.447 363 119.244 363 118.836V117.164Z" fill="#F04B5D"/>
<path d="M372 134.164C372 133.756 372 133.553 372.087 133.397C372.164 133.26 372.286 133.149 372.437 133.079C372.608 133 372.832 133 373.28 133H420.72C421.168 133 421.392 133 421.563 133.079C421.714 133.149 421.836 133.26 421.913 133.397C422 133.553 422 133.756 422 134.164V135.836C422 136.244 422 136.447 421.913 136.603C421.836 136.74 421.714 136.851 421.563 136.921C421.392 137 421.168 137 420.72 137H373.28C372.832 137 372.608 137 372.437 136.921C372.286 136.851 372.164 136.74 372.087 136.603C372 136.447 372 136.244 372 135.836V134.164Z" fill="#97999D"/>
<path d="M363 134.164C363 133.756 363 133.553 363.007 133.397C363.013 133.26 363.023 133.149 363.035 133.079C363.049 133 363.067 133 363.102 133H366.898C366.933 133 366.951 133 366.965 133.079C366.977 133.149 366.987 133.26 366.993 133.397C367 133.553 367 133.756 367 134.164V135.836C367 136.244 367 136.447 366.993 136.603C366.987 136.74 366.977 136.851 366.965 136.921C366.951 137 366.933 137 366.898 137H363.102C363.067 137 363.049 137 363.035 136.921C363.023 136.851 363.013 136.74 363.007 136.603C363 136.447 363 136.244 363 135.836V134.164Z" fill="#F04B5D"/>
<path d="M467 76.88C467 75.8719 467 75.3679 467.061 74.9828C467.115 74.6441 467.201 74.3688 467.307 74.1962C467.427 74 467.584 74 467.899 74H570.101C570.416 74 570.573 74 570.693 74.1962C570.799 74.3688 570.885 74.6441 570.939 74.9828C571 75.3679 571 75.8719 571 76.88V266.12C571 267.128 571 267.632 570.939 268.017C570.885 268.356 570.799 268.631 570.693 268.804C570.573 269 570.416 269 570.101 269H467.899C467.584 269 467.427 269 467.307 268.804C467.201 268.631 467.115 268.356 467.061 268.017C467 267.632 467 267.128 467 266.12V76.88Z" fill="white"/>
<path d="M487 232.109C487 229.971 487 228.902 487.112 228.085C487.21 227.366 487.366 226.782 487.559 226.416C487.778 226 488.065 226 488.638 226H549.362C549.935 226 550.222 226 550.441 226.416C550.634 226.782 550.79 227.366 550.888 228.085C551 228.902 551 229.971 551 232.109V240.891C551 243.029 551 244.098 550.888 244.915C550.79 245.634 550.634 246.218 550.441 246.584C550.222 247 549.935 247 549.362 247H488.638C488.065 247 487.778 247 487.559 246.584C487.366 246.218 487.21 245.634 487.112 244.915C487 244.098 487 243.029 487 240.891V232.109Z" fill="#F04B5D"/>
<path d="M487 92.4545C487 91.9454 487 91.6908 487.061 91.4964C487.115 91.3253 487.2 91.1862 487.306 91.0991C487.426 91 487.582 91 487.896 91H521.104C521.418 91 521.574 91 521.694 91.0991C521.8 91.1862 521.885 91.3253 521.939 91.4964C522 91.6908 522 91.9454 522 92.4545V94.5455C522 95.0546 522 95.3092 521.939 95.5036C521.885 95.6747 521.8 95.8138 521.694 95.9009C521.574 96 521.418 96 521.104 96H487.896C487.582 96 487.426 96 487.306 95.9009C487.2 95.8138 487.115 95.6747 487.061 95.5036C487 95.3092 487 95.0546 487 94.5455V92.4545Z" fill="#424754"/>
<path d="M496 117.164C496 116.756 496 116.553 496.087 116.397C496.164 116.26 496.286 116.149 496.437 116.079C496.608 116 496.832 116 497.28 116H544.72C545.168 116 545.392 116 545.563 116.079C545.714 116.149 545.836 116.26 545.913 116.397C546 116.553 546 116.756 546 117.164V118.836C546 119.244 546 119.447 545.913 119.603C545.836 119.74 545.714 119.851 545.563 119.921C545.392 120 545.168 120 544.72 120H497.28C496.832 120 496.608 120 496.437 119.921C496.286 119.851 496.164 119.74 496.087 119.603C496 119.447 496 119.244 496 118.836V117.164Z" fill="#97999D"/>
<path d="M487 117.164C487 116.756 487 116.553 487.007 116.397C487.013 116.26 487.023 116.149 487.035 116.079C487.049 116 487.067 116 487.102 116H490.898C490.933 116 490.951 116 490.965 116.079C490.977 116.149 490.987 116.26 490.993 116.397C491 116.553 491 116.756 491 117.164V118.836C491 119.244 491 119.447 490.993 119.603C490.987 119.74 490.977 119.851 490.965 119.921C490.951 120 490.933 120 490.898 120H487.102C487.067 120 487.049 120 487.035 119.921C487.023 119.851 487.013 119.74 487.007 119.603C487 119.447 487 119.244 487 118.836V117.164Z" fill="#F04B5D"/>
<path d="M496 134.164C496 133.756 496 133.553 496.087 133.397C496.164 133.26 496.286 133.149 496.437 133.079C496.608 133 496.832 133 497.28 133H544.72C545.168 133 545.392 133 545.563 133.079C545.714 133.149 545.836 133.26 545.913 133.397C546 133.553 546 133.756 546 134.164V135.836C546 136.244 546 136.447 545.913 136.603C545.836 136.74 545.714 136.851 545.563 136.921C545.392 137 545.168 137 544.72 137H497.28C496.832 137 496.608 137 496.437 136.921C496.286 136.851 496.164 136.74 496.087 136.603C496 136.447 496 136.244 496 135.836V134.164Z" fill="#97999D"/>
<path d="M487 134.164C487 133.756 487 133.553 487.007 133.397C487.013 133.26 487.023 133.149 487.035 133.079C487.049 133 487.067 133 487.102 133H490.898C490.933 133 490.951 133 490.965 133.079C490.977 133.149 490.987 133.26 490.993 133.397C491 133.553 491 133.756 491 134.164V135.836C491 136.244 491 136.447 490.993 136.603C490.987 136.74 490.977 136.851 490.965 136.921C490.951 137 490.933 137 490.898 137H487.102C487.067 137 487.049 137 487.035 136.921C487.023 136.851 487.013 136.74 487.007 136.603C487 136.447 487 136.244 487 135.836V134.164Z" fill="#F04B5D"/>
<path d="M496 151.164C496 150.756 496 150.553 496.087 150.397C496.164 150.26 496.286 150.149 496.437 150.079C496.608 150 496.832 150 497.28 150H544.72C545.168 150 545.392 150 545.563 150.079C545.714 150.149 545.836 150.26 545.913 150.397C546 150.553 546 150.756 546 151.164V152.836C546 153.244 546 153.447 545.913 153.603C545.836 153.74 545.714 153.851 545.563 153.921C545.392 154 545.168 154 544.72 154H497.28C496.832 154 496.608 154 496.437 153.921C496.286 153.851 496.164 153.74 496.087 153.603C496 153.447 496 153.244 496 152.836V151.164Z" fill="#97999D"/>
<path d="M487 151.164C487 150.756 487 150.553 487.007 150.397C487.013 150.26 487.023 150.149 487.035 150.079C487.049 150 487.067 150 487.102 150H490.898C490.933 150 490.951 150 490.965 150.079C490.977 150.149 490.987 150.26 490.993 150.397C491 150.553 491 150.756 491 151.164V152.836C491 153.244 491 153.447 490.993 153.603C490.987 153.74 490.977 153.851 490.965 153.921C490.951 154 490.933 154 490.898 154H487.102C487.067 154 487.049 154 487.035 153.921C487.023 153.851 487.013 153.74 487.007 153.603C487 153.447 487 153.244 487 152.836V151.164Z" fill="#F04B5D"/>
<path d="M496 168.164C496 167.756 496 167.553 496.087 167.397C496.164 167.26 496.286 167.149 496.437 167.079C496.608 167 496.832 167 497.28 167H544.72C545.168 167 545.392 167 545.563 167.079C545.714 167.149 545.836 167.26 545.913 167.397C546 167.553 546 167.756 546 168.164V169.836C546 170.244 546 170.447 545.913 170.603C545.836 170.74 545.714 170.851 545.563 170.921C545.392 171 545.168 171 544.72 171H497.28C496.832 171 496.608 171 496.437 170.921C496.286 170.851 496.164 170.74 496.087 170.603C496 170.447 496 170.244 496 169.836V168.164Z" fill="#97999D"/>
<path d="M487 168.164C487 167.756 487 167.553 487.007 167.397C487.013 167.26 487.023 167.149 487.035 167.079C487.049 167 487.067 167 487.102 167H490.898C490.933 167 490.951 167 490.965 167.079C490.977 167.149 490.987 167.26 490.993 167.397C491 167.553 491 167.756 491 168.164V169.836C491 170.244 491 170.447 490.993 170.603C490.987 170.74 490.977 170.851 490.965 170.921C490.951 171 490.933 171 490.898 171H487.102C487.067 171 487.049 171 487.035 170.921C487.023 170.851 487.013 170.74 487.007 170.603C487 170.447 487 170.244 487 169.836V168.164Z" fill="#F04B5D"/>
<path d="M496 185.164C496 184.756 496 184.553 496.087 184.397C496.164 184.26 496.286 184.149 496.437 184.079C496.608 184 496.832 184 497.28 184H544.72C545.168 184 545.392 184 545.563 184.079C545.714 184.149 545.836 184.26 545.913 184.397C546 184.553 546 184.756 546 185.164V186.836C546 187.244 546 187.447 545.913 187.603C545.836 187.74 545.714 187.851 545.563 187.921C545.392 188 545.168 188 544.72 188H497.28C496.832 188 496.608 188 496.437 187.921C496.286 187.851 496.164 187.74 496.087 187.603C496 187.447 496 187.244 496 186.836V185.164Z" fill="#97999D"/>
<path d="M487 185.164C487 184.756 487 184.553 487.007 184.397C487.013 184.26 487.023 184.149 487.035 184.079C487.049 184 487.067 184 487.102 184H490.898C490.933 184 490.951 184 490.965 184.079C490.977 184.149 490.987 184.26 490.993 184.397C491 184.553 491 184.756 491 185.164V186.836C491 187.244 491 187.447 490.993 187.603C490.987 187.74 490.977 187.851 490.965 187.921C490.951 188 490.933 188 490.898 188H487.102C487.067 188 487.049 188 487.035 187.921C487.023 187.851 487.013 187.74 487.007 187.603C487 187.447 487 187.244 487 186.836V185.164Z" fill="#F04B5D"/>
<path d="M496 202.164C496 201.756 496 201.553 496.087 201.397C496.164 201.26 496.286 201.149 496.437 201.079C496.608 201 496.832 201 497.28 201H544.72C545.168 201 545.392 201 545.563 201.079C545.714 201.149 545.836 201.26 545.913 201.397C546 201.553 546 201.756 546 202.164V203.836C546 204.244 546 204.447 545.913 204.603C545.836 204.74 545.714 204.851 545.563 204.921C545.392 205 545.168 205 544.72 205H497.28C496.832 205 496.608 205 496.437 204.921C496.286 204.851 496.164 204.74 496.087 204.603C496 204.447 496 204.244 496 203.836V202.164Z" fill="#97999D"/>
<path d="M487 202.164C487 201.756 487 201.553 487.007 201.397C487.013 201.26 487.023 201.149 487.035 201.079C487.049 201 487.067 201 487.102 201H490.898C490.933 201 490.951 201 490.965 201.079C490.977 201.149 490.987 201.26 490.993 201.397C491 201.553 491 201.756 491 202.164V203.836C491 204.244 491 204.447 490.993 204.603C490.987 204.74 490.977 204.851 490.965 204.921C490.951 205 490.933 205 490.898 205H487.102C487.067 205 487.049 205 487.035 204.921C487.023 204.851 487.013 204.74 487.007 204.603C487 204.447 487 204.244 487 203.836V202.164Z" fill="#F04B5D"/>
<path d="M30 24.4545C30 23.9454 30 23.6908 30.0994 23.4964C30.1868 23.3253 30.3264 23.1862 30.498 23.0991C30.693 23 30.9484 23 31.4592 23H85.5408C86.0516 23 86.307 23 86.502 23.0991C86.6736 23.1862 86.8132 23.3253 86.9006 23.4964C87 23.6908 87 23.9454 87 24.4545V26.5455C87 27.0546 87 27.3092 86.9006 27.5036C86.8132 27.6747 86.6736 27.8138 86.502 27.9009C86.307 28 86.0516 28 85.5408 28H31.4592C30.9484 28 30.693 28 30.498 27.9009C30.3264 27.8138 30.1868 27.6747 30.0994 27.5036C30 27.3092 30 27.0546 30 26.5455V24.4545Z" fill="#424754"/>
<path d="M447 24.4545C447 23.9454 447 23.6908 447.031 23.4964C447.059 23.3253 447.103 23.1862 447.157 23.0991C447.219 23 447.3 23 447.461 23H464.539C464.7 23 464.781 23 464.843 23.0991C464.897 23.1862 464.941 23.3253 464.969 23.4964C465 23.6908 465 23.9454 465 24.4545V26.5455C465 27.0546 465 27.3092 464.969 27.5036C464.941 27.6747 464.897 27.8138 464.843 27.9009C464.781 28 464.7 28 464.539 28H447.461C447.3 28 447.219 28 447.157 27.9009C447.103 27.8138 447.059 27.6747 447.031 27.5036C447 27.3092 447 27.0546 447 26.5455V24.4545Z" fill="#97999D"/>
</g>
<defs>
<clipPath id="clip0">
<rect width="509" height="298" fill="white"/>
</clipPath>
</defs>
</svg>
