<svg width="1110" height="298" viewBox="0 0 1110 298" fill="none" xmlns="http://www.w3.org/2000/svg">
<path d="M2.7 74H9V66.044H13.392C18.396 66.044 21.78 62.3 21.78 57.116C21.78 51.932 18.396 48.26 13.392 48.26H2.7V74ZM9 60.644V53.66H12.204C14.292 53.66 15.372 55.064 15.372 57.116C15.372 59.168 14.292 60.644 12.096 60.644H9ZM24.5177 74H30.7457V66.8C30.7457 63.416 32.4017 61.22 35.8577 61.22C36.2897 61.22 36.9017 61.256 37.1177 61.328V55.208C36.9017 55.172 36.6497 55.136 36.3977 55.136C33.6257 55.136 31.2857 57.224 30.4937 59.744H30.4217C30.4217 59.744 30.4937 59.204 30.4937 58.592V55.46H24.5177V74ZM38.8018 64.712C38.8018 69.644 42.3658 74.432 48.9898 74.432C51.8338 74.432 54.8938 73.46 56.9098 71.732L54.6058 67.376C53.0938 68.384 51.3298 69.248 49.4938 69.248C47.5138 69.248 45.6418 68.204 45.1738 65.936H56.8738C56.9458 65.288 57.0178 64.64 57.0178 63.992C57.0178 58.844 53.9218 55.028 48.4498 55.028C42.4738 55.028 38.8018 59.276 38.8018 64.712ZM45.3178 62.372C45.6418 60.896 46.5058 59.6 48.3058 59.6C49.8898 59.6 50.8618 60.86 50.8618 62.372H45.3178ZM60.2716 81.2H66.4996V74.252C66.4996 73.316 66.4276 72.668 66.4276 72.668H66.4996C67.8316 73.82 69.4876 74.432 71.2156 74.432C76.1476 74.432 79.8556 70.616 79.8556 64.748C79.8556 58.988 76.5436 55.028 71.5036 55.028C69.2716 55.028 67.1476 55.892 65.8876 57.584H65.8156C65.8156 57.584 65.8876 57.008 65.8876 56.396V55.46H60.2716V81.2ZM66.3196 64.856C66.3196 61.652 68.0836 60.284 69.9556 60.284C72.1156 60.284 73.5916 62.084 73.5916 64.856C73.5916 67.7 71.8996 69.284 69.9556 69.284C67.5076 69.284 66.3196 67.088 66.3196 64.856ZM81.7568 68.78C81.7568 71.984 84.2408 74.432 87.8048 74.432C89.9288 74.432 92.0888 73.46 93.3128 71.732H93.3848C93.3848 71.732 93.3128 72.272 93.3128 72.884V74H99.0008V62.588C99.0008 57.872 95.8328 55.028 90.7208 55.028C87.6968 55.028 84.4568 56.216 82.8728 57.44L85.0328 61.832C86.5088 60.86 88.3448 60.068 90.1448 60.068C91.5128 60.068 92.7728 60.572 92.7728 62.12V62.444H92.2328C87.6608 62.444 81.7568 63.812 81.7568 68.78ZM87.9128 68.204C87.9128 66.512 90.3608 66.008 92.2688 66.008H92.8448V66.512C92.8448 68.024 91.4768 69.788 89.6768 69.788C88.5248 69.788 87.9128 69.068 87.9128 68.204ZM102.951 74H109.179V66.8C109.179 63.416 110.835 61.22 114.291 61.22C114.723 61.22 115.335 61.256 115.551 61.328V55.208C115.335 55.172 115.083 55.136 114.831 55.136C112.059 55.136 109.719 57.224 108.927 59.744H108.855C108.855 59.744 108.927 59.204 108.927 58.592V55.46H102.951V74ZM117.235 64.712C117.235 69.644 120.799 74.432 127.423 74.432C130.267 74.432 133.327 73.46 135.343 71.732L133.039 67.376C131.527 68.384 129.763 69.248 127.927 69.248C125.947 69.248 124.075 68.204 123.607 65.936H135.307C135.379 65.288 135.451 64.64 135.451 63.992C135.451 58.844 132.355 55.028 126.883 55.028C120.907 55.028 117.235 59.276 117.235 64.712ZM123.751 62.372C124.075 60.896 124.939 59.6 126.739 59.6C128.323 59.6 129.295 60.86 129.295 62.372H123.751ZM148.686 74H154.914V60.644H158.334V55.784H154.914V55.208C154.914 53.624 156.822 53.408 158.046 53.408C158.514 53.408 158.91 53.444 159.054 53.48V48.224C158.406 48.116 157.83 48.116 157.182 48.116C154.194 48.116 148.686 48.944 148.686 55.028V55.784H146.418V60.644H148.686V74ZM159.81 64.784C159.81 70.58 164.49 74.432 170.322 74.432C176.154 74.432 180.834 70.58 180.834 64.784C180.834 58.952 176.154 55.028 170.286 55.028C164.49 55.028 159.81 58.952 159.81 64.784ZM166.11 64.784C166.11 61.976 168.054 60.212 170.322 60.212C172.59 60.212 174.534 61.976 174.534 64.784C174.534 67.556 172.59 69.248 170.322 69.248C168.054 69.248 166.11 67.556 166.11 64.784ZM183.951 74H190.179V66.8C190.179 63.416 191.835 61.22 195.291 61.22C195.723 61.22 196.335 61.256 196.551 61.328V55.208C196.335 55.172 196.083 55.136 195.831 55.136C193.059 55.136 190.719 57.224 189.927 59.744H189.855C189.855 59.744 189.927 59.204 189.927 58.592V55.46H183.951V74ZM208.8 74H215.028V60.32H221.472V74H227.7V55.46H215.028V55.208C215.028 53.624 216.936 53.408 218.16 53.408C218.628 53.408 219.024 53.444 219.168 53.48V48.224C218.52 48.116 217.944 48.116 217.296 48.116C214.308 48.116 208.8 48.944 208.8 55.028V55.46H206.532V60.32H208.8V74ZM221.544 53.12H227.628V48.26H221.544V53.12ZM231.869 74H238.097V65.612C238.097 62.984 239.357 60.68 242.129 60.68C243.497 60.68 244.181 61.4 244.181 63.128V74H250.409V61.976C250.409 56.756 247.493 55.028 243.749 55.028C240.473 55.028 238.709 56.792 237.845 58.232H237.773C237.773 58.232 237.845 57.692 237.845 57.08V55.46H231.869V74ZM253.108 68.78C253.108 71.984 255.592 74.432 259.156 74.432C261.28 74.432 263.44 73.46 264.664 71.732H264.736C264.736 71.732 264.664 72.272 264.664 72.884V74H270.352V62.588C270.352 57.872 267.184 55.028 262.072 55.028C259.048 55.028 255.808 56.216 254.224 57.44L256.384 61.832C257.86 60.86 259.696 60.068 261.496 60.068C262.864 60.068 264.124 60.572 264.124 62.12V62.444H263.584C259.012 62.444 253.108 63.812 253.108 68.78ZM259.264 68.204C259.264 66.512 261.712 66.008 263.62 66.008H264.196V66.512C264.196 68.024 262.828 69.788 261.028 69.788C259.876 69.788 259.264 69.068 259.264 68.204ZM274.267 67.16C274.267 73.388 277.795 74.18 281.107 74.18C281.899 74.18 282.547 74.108 282.979 74.072V68.672C282.691 68.708 282.403 68.708 282.223 68.708C280.819 68.708 280.495 68.096 280.495 66.332V48.26H274.267V67.16ZM0.792 110.78C0.792 113.984 3.276 116.432 6.84 116.432C8.964 116.432 11.124 115.46 12.348 113.732H12.42C12.42 113.732 12.348 114.272 12.348 114.884V116H18.036V104.588C18.036 99.872 14.868 97.028 9.756 97.028C6.732 97.028 3.492 98.216 1.908 99.44L4.068 103.832C5.544 102.86 7.38 102.068 9.18 102.068C10.548 102.068 11.808 102.572 11.808 104.12V104.444H11.268C6.696 104.444 0.792 105.812 0.792 110.78ZM6.948 110.204C6.948 108.512 9.396 108.008 11.304 108.008H11.88V108.512C11.88 110.024 10.512 111.788 8.712 111.788C7.56 111.788 6.948 111.068 6.948 110.204ZM21.9864 116H28.2144V107.612C28.2144 104.984 29.4744 102.68 32.2464 102.68C33.6144 102.68 34.2984 103.4 34.2984 105.128V116H40.5264V103.976C40.5264 98.756 37.6104 97.028 33.8664 97.028C30.5904 97.028 28.8264 98.792 27.9624 100.232H27.8904C27.8904 100.232 27.9624 99.692 27.9624 99.08V97.46H21.9864V116ZM43.5496 106.712C43.5496 112.472 46.8616 116.432 51.9016 116.432C54.0976 116.432 56.1136 115.496 57.2656 113.732H57.3376C57.3376 113.732 57.3016 114.2 57.3016 114.776V116H63.1336V90.26H56.9056V97.676C56.9056 98.144 56.9416 98.504 56.9416 98.504H56.8696C55.6456 97.28 53.6656 97.028 52.0096 97.028C47.0776 97.028 43.5496 100.844 43.5496 106.712ZM49.8136 106.712C49.8136 103.868 51.5056 102.284 53.4496 102.284C55.8976 102.284 57.0856 104.48 57.0856 106.712C57.0856 109.916 55.3216 111.284 53.4496 111.284C51.2896 111.284 49.8136 109.484 49.8136 106.712ZM75.2588 106.712C75.2588 111.644 78.8228 116.432 85.4468 116.432C88.2908 116.432 91.3508 115.46 93.3668 113.732L91.0628 109.376C89.5508 110.384 87.7868 111.248 85.9508 111.248C83.9708 111.248 82.0988 110.204 81.6308 107.936H93.3308C93.4028 107.288 93.4748 106.64 93.4748 105.992C93.4748 100.844 90.3788 97.028 84.9068 97.028C78.9308 97.028 75.2588 101.276 75.2588 106.712ZM81.7748 104.372C82.0988 102.896 82.9628 101.6 84.7628 101.6C86.3468 101.6 87.3188 102.86 87.3188 104.372H81.7748ZM96.7286 116H102.957V107.612C102.957 104.984 104.217 102.68 106.989 102.68C108.357 102.68 109.041 103.4 109.041 105.128V116H115.269V103.976C115.269 98.756 112.353 97.028 108.609 97.028C105.333 97.028 103.569 98.792 102.705 100.232H102.633C102.633 100.232 102.705 99.692 102.705 99.08V97.46H96.7286V116ZM120.344 109.16C120.344 115.388 126.068 116.18 129.02 116.18C129.74 116.18 130.244 116.108 130.712 116.072V110.672C130.316 110.708 130.1 110.708 129.884 110.708C128.696 110.708 126.572 110.42 126.572 108.332V102.644H130.46V97.784H126.572V92.456H120.524V97.784H117.968V102.644H120.344V109.16ZM134.065 116H140.293V108.8C140.293 105.416 141.949 103.22 145.405 103.22C145.837 103.22 146.449 103.256 146.665 103.328V97.208C146.449 97.172 146.197 97.136 145.945 97.136C143.173 97.136 140.833 99.224 140.041 101.744H139.969C139.969 101.744 140.041 101.204 140.041 100.592V97.46H134.065V116ZM147.851 110.78C147.851 113.984 150.335 116.432 153.899 116.432C156.023 116.432 158.183 115.46 159.407 113.732H159.479C159.479 113.732 159.407 114.272 159.407 114.884V116H165.095V104.588C165.095 99.872 161.927 97.028 156.815 97.028C153.791 97.028 150.551 98.216 148.967 99.44L151.127 103.832C152.603 102.86 154.439 102.068 156.239 102.068C157.607 102.068 158.867 102.572 158.867 104.12V104.444H158.327C153.755 104.444 147.851 105.812 147.851 110.78ZM154.007 110.204C154.007 108.512 156.455 108.008 158.363 108.008H158.939V108.512C158.939 110.024 157.571 111.788 155.771 111.788C154.619 111.788 154.007 111.068 154.007 110.204ZM169.045 116H175.273V107.612C175.273 104.984 176.533 102.68 179.305 102.68C180.673 102.68 181.357 103.4 181.357 105.128V116H187.585V103.976C187.585 98.756 184.669 97.028 180.925 97.028C177.649 97.028 175.885 98.792 175.021 100.232H174.949C174.949 100.232 175.021 99.692 175.021 99.08V97.46H169.045V116ZM190.536 106.712C190.536 111.824 194.244 116.432 200.868 116.432C203.964 116.432 206.988 115.244 208.824 113.372L206.556 109.016C205.224 110.168 203.28 111.248 201.48 111.248C198.348 111.248 196.836 108.836 196.836 106.64C196.836 104.444 198.312 102.212 201.264 102.212C202.884 102.212 204.54 102.968 205.62 104.012L208.248 99.836C206.412 97.856 203.46 97.028 200.868 97.028C194.208 97.028 190.536 101.744 190.536 106.712ZM210.048 106.712C210.048 111.644 213.612 116.432 220.236 116.432C223.08 116.432 226.14 115.46 228.156 113.732L225.852 109.376C224.34 110.384 222.576 111.248 220.74 111.248C218.76 111.248 216.888 110.204 216.42 107.936H228.12C228.192 107.288 228.264 106.64 228.264 105.992C228.264 100.844 225.168 97.028 219.696 97.028C213.72 97.028 210.048 101.276 210.048 106.712ZM216.564 104.372C216.888 102.896 217.752 101.6 219.552 101.6C221.136 101.6 222.108 102.86 222.108 104.372H216.564ZM239.122 106.712C239.122 111.644 242.686 116.432 249.31 116.432C252.154 116.432 255.214 115.46 257.23 113.732L254.926 109.376C253.414 110.384 251.65 111.248 249.814 111.248C247.834 111.248 245.962 110.204 245.494 107.936H257.194C257.266 107.288 257.338 106.64 257.338 105.992C257.338 100.844 254.242 97.028 248.77 97.028C242.794 97.028 239.122 101.276 239.122 106.712ZM245.638 104.372C245.962 102.896 246.826 101.6 248.626 101.6C250.21 101.6 251.182 102.86 251.182 104.372H245.638ZM258.724 116H265.564L267.76 111.824C267.94 111.5 268.192 110.888 268.192 110.888H268.264C268.264 110.888 268.516 111.5 268.696 111.824L270.928 116H277.768L271.936 106.82L277.876 97.46H270.856L268.84 101.6C268.624 102.068 268.264 102.824 268.264 102.824H268.192C268.192 102.824 267.868 102.068 267.616 101.6L265.6 97.46H258.58L264.556 106.82L258.724 116ZM278.913 110.78C278.913 113.984 281.397 116.432 284.961 116.432C287.085 116.432 289.245 115.46 290.469 113.732H290.541C290.541 113.732 290.469 114.272 290.469 114.884V116H296.157V104.588C296.157 99.872 292.989 97.028 287.877 97.028C284.853 97.028 281.613 98.216 280.029 99.44L282.189 103.832C283.665 102.86 285.501 102.068 287.301 102.068C288.669 102.068 289.929 102.572 289.929 104.12V104.444H289.389C284.817 104.444 278.913 105.812 278.913 110.78ZM285.069 110.204C285.069 108.512 287.517 108.008 289.425 108.008H290.001V108.512C290.001 110.024 288.633 111.788 286.833 111.788C285.681 111.788 285.069 111.068 285.069 110.204ZM300.108 116H306.336V108.152C306.336 105.596 307.056 102.68 309.9 102.68C311.088 102.68 311.34 103.652 311.34 105.02V116H317.568V108.152C317.568 105.38 318.432 102.68 321.132 102.68C322.32 102.68 322.572 103.652 322.572 105.02V116H328.8V103.976C328.8 98.864 326.172 97.028 322.788 97.028C320.016 97.028 317.82 98.612 316.848 100.16H316.776C315.804 98.072 313.932 97.028 311.592 97.028C308.676 97.028 306.948 98.936 306.084 100.232H306.012C306.012 100.232 306.084 99.692 306.084 99.08V97.46H300.108V116ZM331.434 113.696C333.486 115.532 336.33 116.432 338.994 116.432C343.746 116.432 346.626 113.804 346.626 110.348C346.626 104.336 337.95 104.804 337.95 102.86C337.95 102.356 338.346 101.96 339.678 101.96C341.262 101.96 343.278 102.608 344.358 103.472L346.482 99.152C344.61 97.64 342.234 97.028 339.858 97.028C335.574 97.028 332.154 99.08 332.154 102.896C332.154 108.98 340.83 108.548 340.83 110.528C340.83 111.104 340.398 111.5 339.138 111.5C337.374 111.5 335.466 110.78 334.098 109.628L331.434 113.696Z" fill="#222224"/>
<path d="M1.674 191H3.456V178.292H1.674V191ZM6.39492 191H8.14092V186.752C8.14092 185.06 9.14892 183.26 10.8769 183.26C12.2629 183.26 12.4429 184.358 12.4429 185.546V191H14.1889V186.752C14.1889 185.006 15.1969 183.26 16.8889 183.26C18.2389 183.26 18.4909 184.268 18.4909 185.546V191H20.2369V185.168C20.2369 182.846 19.3009 181.676 17.2309 181.676C15.7549 181.676 14.4949 182.684 13.9909 183.746H13.9549C13.6489 182.378 12.7669 181.676 11.2369 181.676C9.79692 181.676 8.50092 182.756 8.06892 183.818H8.03292C8.03292 183.818 8.08692 183.512 8.08692 183.134V181.892H6.39492V191ZM22.848 194.6H24.594V190.46C24.594 189.992 24.522 189.668 24.522 189.668H24.558C25.188 190.64 26.232 191.216 27.384 191.216C29.778 191.216 31.506 189.344 31.506 186.446C31.506 183.62 29.976 181.676 27.51 181.676C26.178 181.676 25.026 182.288 24.45 183.386H24.414C24.414 183.386 24.468 183.08 24.468 182.702V181.892H22.848V194.6ZM24.54 186.482C24.54 184.178 25.8 183.206 27.168 183.206C28.68 183.206 29.742 184.484 29.742 186.464C29.742 188.534 28.554 189.704 27.114 189.704C25.44 189.704 24.54 188.102 24.54 186.482ZM33.6586 191H35.4046V187.22C35.4046 185.456 36.2326 183.512 38.1946 183.512C38.3746 183.512 38.6266 183.53 38.6986 183.548V181.82C38.5546 181.802 38.3926 181.784 38.2306 181.784C36.8266 181.784 35.7646 182.882 35.3326 184.196H35.2966C35.2966 184.196 35.3506 183.908 35.3506 183.53V181.892H33.6586V191ZM39.5509 186.428C39.5509 189.2 41.7469 191.216 44.4649 191.216C47.1649 191.216 49.3609 189.2 49.3609 186.428C49.3609 183.674 47.1649 181.676 44.4469 181.676C41.7469 181.676 39.5509 183.674 39.5509 186.428ZM41.3329 186.428C41.3329 184.538 42.7369 183.188 44.4649 183.188C46.1749 183.188 47.5969 184.538 47.5969 186.428C47.5969 188.336 46.1749 189.704 44.4649 189.704C42.7369 189.704 41.3329 188.336 41.3329 186.428ZM53.6136 191H55.6116L58.9776 181.892H57.1416L54.9276 188.048C54.7656 188.552 54.6216 189.29 54.6216 189.29H54.5856C54.5856 189.29 54.4236 188.552 54.2616 188.048L52.0476 181.892H50.1936L53.6136 191ZM59.8712 186.446C59.8712 189.146 61.8512 191.216 64.7132 191.216C65.9732 191.216 67.3592 190.73 68.2412 189.92L67.5032 188.642C66.7832 189.29 65.7932 189.704 64.8212 189.704C63.1832 189.704 61.7792 188.642 61.6892 186.68H68.3132C68.3492 186.428 68.3852 186.176 68.3852 185.942C68.3852 183.602 67.0172 181.676 64.4432 181.676C61.8512 181.676 59.8712 183.548 59.8712 186.446ZM61.7432 185.42C61.9952 183.908 63.0572 183.026 64.4072 183.026C65.5952 183.026 66.5672 183.854 66.6212 185.42H61.7432ZM74.0426 192.89L73.4306 194.222C73.4306 194.222 74.1686 194.78 75.1766 194.78C76.4546 194.78 77.5886 194.06 78.1286 192.638L82.4126 181.892H80.5226L78.3086 187.868C78.1466 188.336 78.0026 188.948 78.0026 188.948H77.9666C77.9666 188.948 77.8046 188.3 77.6246 187.85L75.3386 181.892H73.3766L77.1926 190.892L76.7426 191.936C76.4006 192.764 75.8066 193.286 75.0866 193.286C74.5466 193.286 74.0426 192.89 74.0426 192.89ZM83.215 186.428C83.215 189.2 85.411 191.216 88.129 191.216C90.829 191.216 93.025 189.2 93.025 186.428C93.025 183.674 90.829 181.676 88.111 181.676C85.411 181.676 83.215 183.674 83.215 186.428ZM84.997 186.428C84.997 184.538 86.401 183.188 88.129 183.188C89.839 183.188 91.261 184.538 91.261 186.428C91.261 188.336 89.839 189.704 88.129 189.704C86.401 189.704 84.997 188.336 84.997 186.428ZM95.0213 187.724C95.0213 190.136 96.0833 191.216 98.1353 191.216C99.9173 191.216 101.123 189.974 101.519 189.074H101.555C101.555 189.074 101.483 189.38 101.483 189.74V191H103.175V181.892H101.447V186.158C101.447 187.958 100.349 189.596 98.4773 189.596C97.0373 189.596 96.7673 188.588 96.7673 187.328V181.892H95.0213V187.724ZM105.87 191H107.616V187.22C107.616 185.456 108.444 183.512 110.406 183.512C110.586 183.512 110.838 183.53 110.91 183.548V181.82C110.766 181.802 110.604 181.784 110.442 181.784C109.038 181.784 107.976 182.882 107.544 184.196H107.508C107.508 184.196 107.562 183.908 107.562 183.53V181.892H105.87V191ZM115.977 188.516C115.977 190.226 117.435 191.216 119.019 191.216C120.369 191.216 121.485 190.406 122.007 189.362H122.043C122.043 189.362 121.989 189.668 121.989 190.082V191H123.627V185.24C123.627 182.936 122.313 181.676 120.027 181.676C118.749 181.676 117.363 182.144 116.625 182.756L117.327 184.034C118.065 183.512 118.983 183.152 119.883 183.152C121.017 183.152 121.881 183.656 121.881 185.15V185.33H121.413C119.523 185.33 115.977 185.654 115.977 188.516ZM117.723 188.372C117.723 186.698 120.135 186.59 121.431 186.59H121.881V186.932C121.881 188.282 120.963 189.83 119.433 189.83C118.299 189.83 117.723 189.092 117.723 188.372ZM125.631 186.446C125.631 189.182 127.629 191.216 130.509 191.216C131.931 191.216 133.317 190.64 134.145 189.758L133.443 188.48C132.741 189.218 131.643 189.704 130.635 189.704C128.745 189.704 127.413 188.282 127.413 186.428C127.413 184.574 128.745 183.188 130.581 183.188C131.535 183.188 132.489 183.62 133.101 184.232L133.929 183.008C133.065 182.09 131.715 181.676 130.509 181.676C127.647 181.676 125.631 183.746 125.631 186.446ZM135.278 188.516C135.278 190.226 136.736 191.216 138.32 191.216C139.67 191.216 140.786 190.406 141.308 189.362H141.344C141.344 189.362 141.29 189.668 141.29 190.082V191H142.928V185.24C142.928 182.936 141.614 181.676 139.328 181.676C138.05 181.676 136.664 182.144 135.926 182.756L136.628 184.034C137.366 183.512 138.284 183.152 139.184 183.152C140.318 183.152 141.182 183.656 141.182 185.15V185.33H140.714C138.824 185.33 135.278 185.654 135.278 188.516ZM137.024 188.372C137.024 186.698 139.436 186.59 140.732 186.59H141.182V186.932C141.182 188.282 140.264 189.83 138.734 189.83C137.6 189.83 137.024 189.092 137.024 188.372ZM144.968 186.446C144.968 189.272 146.534 191.216 148.982 191.216C150.422 191.216 151.484 190.46 152.006 189.47H152.042C152.042 189.47 151.988 189.722 151.988 190.082V191H153.644V178.292H151.916V182.558C151.916 182.9 151.952 183.17 151.952 183.17H151.916C151.34 182.198 150.242 181.676 149.09 181.676C146.678 181.676 144.968 183.548 144.968 186.446ZM146.75 186.446C146.75 184.376 147.938 183.206 149.36 183.206C151.106 183.206 151.952 184.79 151.952 186.428C151.952 188.732 150.674 189.704 149.324 189.704C147.812 189.704 146.75 188.426 146.75 186.446ZM155.742 186.446C155.742 189.146 157.722 191.216 160.584 191.216C161.844 191.216 163.23 190.73 164.112 189.92L163.374 188.642C162.654 189.29 161.664 189.704 160.692 189.704C159.054 189.704 157.65 188.642 157.56 186.68H164.184C164.22 186.428 164.256 186.176 164.256 185.942C164.256 183.602 162.888 181.676 160.314 181.676C157.722 181.676 155.742 183.548 155.742 186.446ZM157.614 185.42C157.866 183.908 158.928 183.026 160.278 183.026C161.466 183.026 162.438 183.854 162.492 185.42H157.614ZM166.356 191H168.102V186.752C168.102 185.06 169.11 183.26 170.838 183.26C172.224 183.26 172.404 184.358 172.404 185.546V191H174.15V186.752C174.15 185.006 175.158 183.26 176.85 183.26C178.2 183.26 178.452 184.268 178.452 185.546V191H180.198V185.168C180.198 182.846 179.262 181.676 177.192 181.676C175.716 181.676 174.456 182.684 173.952 183.746H173.916C173.61 182.378 172.728 181.676 171.198 181.676C169.758 181.676 168.462 182.756 168.03 183.818H167.994C167.994 183.818 168.048 183.512 168.048 183.134V181.892H166.356V191ZM182.773 180.056H184.573V178.292H182.773V180.056ZM182.809 191H184.555V181.892H182.809V191ZM186.645 186.446C186.645 189.182 188.643 191.216 191.523 191.216C192.945 191.216 194.331 190.64 195.159 189.758L194.457 188.48C193.755 189.218 192.657 189.704 191.649 189.704C189.759 189.704 188.427 188.282 188.427 186.428C188.427 184.574 189.759 183.188 191.595 183.188C192.549 183.188 193.503 183.62 194.115 184.232L194.943 183.008C194.079 182.09 192.729 181.676 191.523 181.676C188.661 181.676 186.645 183.746 186.645 186.446ZM201.547 194.6H203.293V190.46C203.293 189.992 203.221 189.668 203.221 189.668H203.257C203.887 190.64 204.931 191.216 206.083 191.216C208.477 191.216 210.205 189.344 210.205 186.446C210.205 183.62 208.675 181.676 206.209 181.676C204.877 181.676 203.725 182.288 203.149 183.386H203.113C203.113 183.386 203.167 183.08 203.167 182.702V181.892H201.547V194.6ZM203.239 186.482C203.239 184.178 204.499 183.206 205.867 183.206C207.379 183.206 208.441 184.484 208.441 186.464C208.441 188.534 207.253 189.704 205.813 189.704C204.139 189.704 203.239 188.102 203.239 186.482ZM211.764 186.446C211.764 189.146 213.744 191.216 216.606 191.216C217.866 191.216 219.252 190.73 220.134 189.92L219.396 188.642C218.676 189.29 217.686 189.704 216.714 189.704C215.076 189.704 213.672 188.642 213.582 186.68H220.206C220.242 186.428 220.278 186.176 220.278 185.942C220.278 183.602 218.91 181.676 216.336 181.676C213.744 181.676 211.764 183.548 211.764 186.446ZM213.636 185.42C213.888 183.908 214.95 183.026 216.3 183.026C217.488 183.026 218.46 183.854 218.514 185.42H213.636ZM222.377 191H224.123V187.22C224.123 185.456 224.951 183.512 226.913 183.512C227.093 183.512 227.345 183.53 227.417 183.548V181.82C227.273 181.802 227.111 181.784 226.949 181.784C225.545 181.784 224.483 182.882 224.051 184.196H224.015C224.015 184.196 224.069 183.908 224.069 183.53V181.892H222.377V191ZM229.577 191H231.323V183.404H233.465V181.982H231.323V181.604C231.323 179.93 232.547 179.732 233.231 179.732C233.429 179.732 233.609 179.75 233.681 179.768V178.256C233.447 178.22 233.249 178.202 233.015 178.202C231.863 178.202 229.577 178.58 229.577 181.586V181.982H228.443V183.404H229.577V191ZM234.404 186.428C234.404 189.2 236.6 191.216 239.318 191.216C242.018 191.216 244.214 189.2 244.214 186.428C244.214 183.674 242.018 181.676 239.3 181.676C236.6 181.676 234.404 183.674 234.404 186.428ZM236.186 186.428C236.186 184.538 237.59 183.188 239.318 183.188C241.028 183.188 242.45 184.538 242.45 186.428C242.45 188.336 241.028 189.704 239.318 189.704C237.59 189.704 236.186 188.336 236.186 186.428ZM246.319 191H248.065V187.22C248.065 185.456 248.893 183.512 250.855 183.512C251.035 183.512 251.287 183.53 251.359 183.548V181.82C251.215 181.802 251.053 181.784 250.891 181.784C249.487 181.784 248.425 182.882 247.993 184.196H247.957C247.957 184.196 248.011 183.908 248.011 183.53V181.892H246.319V191ZM253.086 191H254.832V186.752C254.832 185.06 255.84 183.26 257.568 183.26C258.954 183.26 259.134 184.358 259.134 185.546V191H260.88V186.752C260.88 185.006 261.888 183.26 263.58 183.26C264.93 183.26 265.182 184.268 265.182 185.546V191H266.928V185.168C266.928 182.846 265.992 181.676 263.922 181.676C262.446 181.676 261.186 182.684 260.682 183.746H260.646C260.34 182.378 259.458 181.676 257.928 181.676C256.488 181.676 255.192 182.756 254.76 183.818H254.724C254.724 183.818 254.778 183.512 254.778 183.134V181.892H253.086V191ZM268.783 188.516C268.783 190.226 270.241 191.216 271.825 191.216C273.175 191.216 274.291 190.406 274.813 189.362H274.849C274.849 189.362 274.795 189.668 274.795 190.082V191H276.433V185.24C276.433 182.936 275.119 181.676 272.833 181.676C271.555 181.676 270.169 182.144 269.431 182.756L270.133 184.034C270.871 183.512 271.789 183.152 272.689 183.152C273.823 183.152 274.687 183.656 274.687 185.15V185.33H274.219C272.329 185.33 268.783 185.654 268.783 188.516ZM270.529 188.372C270.529 186.698 272.941 186.59 274.237 186.59H274.687V186.932C274.687 188.282 273.769 189.83 272.239 189.83C271.105 189.83 270.529 189.092 270.529 188.372ZM279.032 191H280.778V186.626C280.778 184.754 282.038 183.278 283.82 183.278C285.278 183.278 285.53 184.286 285.53 185.564V191H287.276V185.168C287.276 182.846 286.304 181.676 284.162 181.676C282.164 181.676 281.048 183.026 280.706 183.818H280.67C280.67 183.818 280.724 183.512 280.724 183.134V181.892H279.032V191ZM289.283 186.446C289.283 189.182 291.281 191.216 294.161 191.216C295.583 191.216 296.969 190.64 297.797 189.758L297.095 188.48C296.393 189.218 295.295 189.704 294.287 189.704C292.397 189.704 291.065 188.282 291.065 186.428C291.065 184.574 292.397 183.188 294.233 183.188C295.187 183.188 296.141 183.62 296.753 184.232L297.581 183.008C296.717 182.09 295.367 181.676 294.161 181.676C291.299 181.676 289.283 183.746 289.283 186.446ZM298.899 186.446C298.899 189.146 300.879 191.216 303.741 191.216C305.001 191.216 306.387 190.73 307.269 189.92L306.531 188.642C305.811 189.29 304.821 189.704 303.849 189.704C302.211 189.704 300.807 188.642 300.717 186.68H307.341C307.377 186.428 307.413 186.176 307.413 185.942C307.413 183.602 306.045 181.676 303.471 181.676C300.879 181.676 298.899 183.548 298.899 186.446ZM300.771 185.42C301.023 183.908 302.085 183.026 303.435 183.026C304.623 183.026 305.595 183.854 305.649 185.42H300.771ZM0.594 216.516C0.594 218.226 2.052 219.216 3.636 219.216C4.986 219.216 6.102 218.406 6.624 217.362H6.66C6.66 217.362 6.606 217.668 6.606 218.082V219H8.244V213.24C8.244 210.936 6.93 209.676 4.644 209.676C3.366 209.676 1.98 210.144 1.242 210.756L1.944 212.034C2.682 211.512 3.6 211.152 4.5 211.152C5.634 211.152 6.498 211.656 6.498 213.15V213.33H6.03C4.14 213.33 0.594 213.654 0.594 216.516ZM2.34 216.372C2.34 214.698 4.752 214.59 6.048 214.59H6.498V214.932C6.498 216.282 5.58 217.83 4.05 217.83C2.916 217.83 2.34 217.092 2.34 216.372ZM10.8422 219H12.5882V214.626C12.5882 212.754 13.8482 211.278 15.6302 211.278C17.0882 211.278 17.3402 212.286 17.3402 213.564V219H19.0862V213.168C19.0862 210.846 18.1142 209.676 15.9722 209.676C13.9742 209.676 12.8582 211.026 12.5162 211.818H12.4802C12.4802 211.818 12.5342 211.512 12.5342 211.134V209.892H10.8422V219ZM21.1299 214.446C21.1299 217.272 22.6959 219.216 25.1439 219.216C26.5839 219.216 27.6459 218.46 28.1679 217.47H28.2039C28.2039 217.47 28.1499 217.722 28.1499 218.082V219H29.8059V206.292H28.0779V210.558C28.0779 210.9 28.1139 211.17 28.1139 211.17H28.0779C27.5019 210.198 26.4039 209.676 25.2519 209.676C22.8399 209.676 21.1299 211.548 21.1299 214.446ZM22.9119 214.446C22.9119 212.376 24.0999 211.206 25.5219 211.206C27.2679 211.206 28.1139 212.79 28.1139 214.428C28.1139 216.732 26.8359 217.704 25.4859 217.704C23.9739 217.704 22.9119 216.426 22.9119 214.446ZM36.4044 214.446C36.4044 217.182 38.4024 219.216 41.2824 219.216C42.7044 219.216 44.0904 218.64 44.9184 217.758L44.2164 216.48C43.5144 217.218 42.4164 217.704 41.4084 217.704C39.5184 217.704 38.1864 216.282 38.1864 214.428C38.1864 212.574 39.5184 211.188 41.3544 211.188C42.3084 211.188 43.2624 211.62 43.8744 212.232L44.7024 211.008C43.8384 210.09 42.4884 209.676 41.2824 209.676C38.4204 209.676 36.4044 211.746 36.4044 214.446ZM46.807 219H48.553V214.68C48.553 212.718 49.831 211.278 51.595 211.278C53.053 211.278 53.305 212.286 53.305 213.564V219H55.051V213.168C55.051 210.846 54.079 209.676 51.937 209.676C50.119 209.676 48.931 210.9 48.517 211.764H48.481C48.481 211.764 48.553 211.44 48.553 211.008V206.292H46.807V219ZM57.0587 214.428C57.0587 217.2 59.2547 219.216 61.9727 219.216C64.6727 219.216 66.8687 217.2 66.8687 214.428C66.8687 211.674 64.6727 209.676 61.9547 209.676C59.2547 209.676 57.0587 211.674 57.0587 214.428ZM58.8407 214.428C58.8407 212.538 60.2447 211.188 61.9727 211.188C63.6827 211.188 65.1047 212.538 65.1047 214.428C65.1047 216.336 63.6827 217.704 61.9727 217.704C60.2447 217.704 58.8407 216.336 58.8407 214.428ZM68.379 214.428C68.379 217.2 70.575 219.216 73.293 219.216C75.993 219.216 78.189 217.2 78.189 214.428C78.189 211.674 75.993 209.676 73.275 209.676C70.575 209.676 68.379 211.674 68.379 214.428ZM70.161 214.428C70.161 212.538 71.565 211.188 73.293 211.188C75.003 211.188 76.425 212.538 76.425 214.428C76.425 216.336 75.003 217.704 73.293 217.704C71.565 217.704 70.161 216.336 70.161 214.428ZM79.5194 217.884C80.4194 218.802 81.7694 219.216 82.9934 219.216C84.9374 219.216 86.2694 218.082 86.2694 216.534C86.2694 213.528 81.5714 214.05 81.5714 212.268C81.5714 211.494 82.2374 211.134 83.1194 211.134C83.9294 211.134 84.8834 211.44 85.4234 211.944L86.1254 210.684C85.3334 209.964 84.2174 209.676 83.1734 209.676C81.3914 209.676 79.8974 210.576 79.8974 212.304C79.8974 215.292 84.5774 214.824 84.5774 216.57C84.5774 217.326 83.9474 217.758 83.0294 217.758C82.0754 217.758 81.0314 217.362 80.3474 216.696L79.5194 217.884ZM87.7501 214.446C87.7501 217.146 89.7301 219.216 92.5921 219.216C93.8521 219.216 95.2381 218.73 96.1201 217.92L95.3821 216.642C94.6621 217.29 93.6721 217.704 92.7001 217.704C91.0621 217.704 89.6581 216.642 89.5681 214.68H96.1921C96.2281 214.428 96.2641 214.176 96.2641 213.942C96.2641 211.602 94.8961 209.676 92.3221 209.676C89.7301 209.676 87.7501 211.548 87.7501 214.446ZM89.6221 213.42C89.8741 211.908 90.9361 211.026 92.2861 211.026C93.4741 211.026 94.4461 211.854 94.5001 213.42H89.6221ZM101.921 220.89L101.309 222.222C101.309 222.222 102.047 222.78 103.055 222.78C104.333 222.78 105.467 222.06 106.007 220.638L110.291 209.892H108.401L106.187 215.868C106.025 216.336 105.881 216.948 105.881 216.948H105.845C105.845 216.948 105.683 216.3 105.503 215.85L103.217 209.892H101.255L105.071 218.892L104.621 219.936C104.279 220.764 103.685 221.286 102.965 221.286C102.425 221.286 101.921 220.89 101.921 220.89ZM111.094 214.428C111.094 217.2 113.29 219.216 116.008 219.216C118.708 219.216 120.904 217.2 120.904 214.428C120.904 211.674 118.708 209.676 115.99 209.676C113.29 209.676 111.094 211.674 111.094 214.428ZM112.876 214.428C112.876 212.538 114.28 211.188 116.008 211.188C117.718 211.188 119.14 212.538 119.14 214.428C119.14 216.336 117.718 217.704 116.008 217.704C114.28 217.704 112.876 216.336 112.876 214.428ZM122.9 215.724C122.9 218.136 123.962 219.216 126.014 219.216C127.796 219.216 129.002 217.974 129.398 217.074H129.434C129.434 217.074 129.362 217.38 129.362 217.74V219H131.054V209.892H129.326V214.158C129.326 215.958 128.228 217.596 126.356 217.596C124.916 217.596 124.646 216.588 124.646 215.328V209.892H122.9V215.724ZM133.748 219H135.494V215.22C135.494 213.456 136.322 211.512 138.284 211.512C138.464 211.512 138.716 211.53 138.788 211.548V209.82C138.644 209.802 138.482 209.784 138.32 209.784C136.916 209.784 135.854 210.882 135.422 212.196H135.386C135.386 212.196 135.44 211.908 135.44 211.53V209.892H133.748V219ZM144.018 214.446C144.018 217.182 146.016 219.216 148.896 219.216C150.318 219.216 151.704 218.64 152.532 217.758L151.83 216.48C151.128 217.218 150.03 217.704 149.022 217.704C147.132 217.704 145.8 216.282 145.8 214.428C145.8 212.574 147.132 211.188 148.968 211.188C149.922 211.188 150.876 211.62 151.488 212.232L152.316 211.008C151.452 210.09 150.102 209.676 148.896 209.676C146.034 209.676 144.018 211.746 144.018 214.446ZM153.615 214.428C153.615 217.2 155.811 219.216 158.529 219.216C161.229 219.216 163.425 217.2 163.425 214.428C163.425 211.674 161.229 209.676 158.511 209.676C155.811 209.676 153.615 211.674 153.615 214.428ZM155.397 214.428C155.397 212.538 156.801 211.188 158.529 211.188C160.239 211.188 161.661 212.538 161.661 214.428C161.661 216.336 160.239 217.704 158.529 217.704C156.801 217.704 155.397 216.336 155.397 214.428ZM165.422 215.724C165.422 218.136 166.484 219.216 168.536 219.216C170.318 219.216 171.524 217.974 171.92 217.074H171.956C171.956 217.074 171.884 217.38 171.884 217.74V219H173.576V209.892H171.848V214.158C171.848 215.958 170.75 217.596 168.878 217.596C167.438 217.596 167.168 216.588 167.168 215.328V209.892H165.422V215.724ZM176.27 219H178.016V215.22C178.016 213.456 178.844 211.512 180.806 211.512C180.986 211.512 181.238 211.53 181.31 211.548V209.82C181.166 209.802 181.004 209.784 180.842 209.784C179.438 209.784 178.376 210.882 177.944 212.196H177.908C177.908 212.196 177.962 211.908 177.962 211.53V209.892H176.27V219ZM182.264 217.884C183.164 218.802 184.514 219.216 185.738 219.216C187.682 219.216 189.014 218.082 189.014 216.534C189.014 213.528 184.316 214.05 184.316 212.268C184.316 211.494 184.982 211.134 185.864 211.134C186.674 211.134 187.628 211.44 188.168 211.944L188.87 210.684C188.078 209.964 186.962 209.676 185.918 209.676C184.136 209.676 182.642 210.576 182.642 212.304C182.642 215.292 187.322 214.824 187.322 216.57C187.322 217.326 186.692 217.758 185.774 217.758C184.82 217.758 183.776 217.362 183.092 216.696L182.264 217.884ZM190.494 214.446C190.494 217.146 192.474 219.216 195.336 219.216C196.596 219.216 197.982 218.73 198.864 217.92L198.126 216.642C197.406 217.29 196.416 217.704 195.444 217.704C193.806 217.704 192.402 216.642 192.312 214.68H198.936C198.972 214.428 199.008 214.176 199.008 213.942C199.008 211.602 197.64 209.676 195.066 209.676C192.474 209.676 190.494 211.548 190.494 214.446ZM192.366 213.42C192.618 211.908 193.68 211.026 195.03 211.026C196.218 211.026 197.19 211.854 197.244 213.42H192.366Z" fill="#424754"/>
<path d="M601 4.40122C601 2.86065 601 2.09037 601.3 1.50195C601.563 0.984356 601.984 0.563541 602.501 0.299816C603.089 0 603.859 0 605.398 0H1105.6C1107.14 0 1107.91 0 1108.5 0.299816C1109.02 0.563541 1109.44 0.984356 1109.7 1.50195C1110 2.09037 1110 2.86066 1110 4.40123V293.599C1110 295.139 1110 295.91 1109.7 296.498C1109.44 297.016 1109.02 297.436 1108.5 297.7C1107.91 298 1107.14 298 1105.6 298H605.398C603.859 298 603.089 298 602.501 297.7C601.984 297.436 601.563 297.016 601.3 296.498C601 295.91 601 295.139 601 293.599V4.40122Z" fill="#F3F3F3"/>
<path d="M646.28 124.928C645.189 124.459 643.919 124.963 643.495 126.073C639.713 135.964 638.975 146.779 641.404 157.12C643.998 168.16 650.064 178.077 658.711 185.414C667.359 192.751 678.132 197.12 689.447 197.881C700.762 198.641 712.022 195.752 721.574 189.638C731.125 183.524 738.463 174.507 742.51 163.913C746.557 153.32 747.1 141.707 744.057 130.782C741.015 119.857 734.549 110.196 725.609 103.219C717.235 96.6832 707.104 92.8251 696.538 92.1182C695.353 92.0389 694.364 92.9811 694.333 94.1689C694.302 95.3567 695.24 96.3399 696.425 96.4234C706.071 97.1035 715.313 100.642 722.961 106.611C731.176 113.022 737.117 121.898 739.912 131.936C742.707 141.974 742.209 152.644 738.491 162.378C734.772 172.112 728.03 180.396 719.254 186.014C710.478 191.632 700.132 194.286 689.735 193.588C679.339 192.889 669.441 188.874 661.495 182.133C653.55 175.392 647.976 166.28 645.593 156.136C643.375 146.691 644.031 136.816 647.452 127.773C647.872 126.661 647.372 125.397 646.28 124.928Z" fill="#27AE60"/>
<path d="M677 141.782C677 140.458 677 139.796 677.054 139.291C677.102 138.846 677.177 138.484 677.271 138.258C677.377 138 677.516 138 677.794 138H707.206C707.484 138 707.623 138 707.729 138.258C707.823 138.484 707.898 138.846 707.946 139.291C708 139.796 708 140.458 708 141.782V147.218C708 148.542 708 149.204 707.946 149.709C707.898 150.154 707.823 150.516 707.729 150.742C707.623 151 707.484 151 707.206 151H677.794C677.516 151 677.377 151 677.271 150.742C677.177 150.516 677.102 150.154 677.054 149.709C677 149.204 677 148.542 677 147.218V141.782Z" fill="#424754"/>
<path d="M653 212.455C653 211.945 653 211.691 653.138 211.496C653.259 211.325 653.452 211.186 653.69 211.099C653.961 211 654.314 211 655.022 211H729.978C730.686 211 731.039 211 731.31 211.099C731.548 211.186 731.741 211.325 731.862 211.496C732 211.691 732 211.945 732 212.455V214.545C732 215.055 732 215.309 731.862 215.504C731.741 215.675 731.548 215.814 731.31 215.901C731.039 216 730.686 216 729.978 216H655.022C654.314 216 653.961 216 653.69 215.901C653.452 215.814 653.259 215.675 653.138 215.504C653 215.309 653 215.055 653 214.545V212.455Z" fill="#97999D"/>
<path d="M801.704 157.47C800.552 157.761 799.85 158.933 800.188 160.072C802.806 168.896 807.68 176.899 814.346 183.282C821.531 190.161 830.506 194.879 840.246 196.898C849.986 198.916 860.098 198.152 869.424 194.694C878.751 191.237 886.916 185.224 892.986 177.344C899.057 169.464 902.787 160.035 903.751 150.135C904.714 140.235 902.873 130.263 898.436 121.36C893.999 112.458 887.147 104.983 878.662 99.7916C870.79 94.9748 861.808 92.3036 852.608 92.0244C851.42 91.9883 850.467 92.966 850.479 94.1541C850.491 95.3422 851.465 96.2906 852.652 96.3309C861.044 96.6157 869.233 99.0666 876.416 103.462C884.212 108.232 890.508 115.1 894.585 123.28C898.661 131.46 900.354 140.621 899.468 149.718C898.583 158.814 895.155 167.478 889.578 174.718C884 181.958 876.498 187.483 867.929 190.66C859.359 193.837 850.069 194.539 841.119 192.684C832.17 190.83 823.923 186.494 817.322 180.174C811.239 174.35 806.78 167.057 804.363 159.016C804.021 157.878 802.856 157.178 801.704 157.47Z" fill="#F2994A"/>
<path d="M835 141.782C835 140.458 835 139.796 835.054 139.291C835.102 138.846 835.177 138.484 835.271 138.258C835.377 138 835.516 138 835.794 138H865.206C865.484 138 865.623 138 865.729 138.258C865.823 138.484 865.898 138.846 865.946 139.291C866 139.796 866 140.458 866 141.782V147.218C866 148.542 866 149.204 865.946 149.709C865.898 150.154 865.823 150.516 865.729 150.742C865.623 151 865.484 151 865.206 151H835.794C835.516 151 835.377 151 835.271 150.742C835.177 150.516 835.102 150.154 835.054 149.709C835 149.204 835 148.542 835 147.218V141.782Z" fill="#424754"/>
<path d="M811 212.455C811 211.945 811 211.691 811.138 211.496C811.259 211.325 811.452 211.186 811.69 211.099C811.961 211 812.314 211 813.022 211H887.978C888.686 211 889.039 211 889.31 211.099C889.548 211.186 889.741 211.325 889.862 211.496C890 211.691 890 211.945 890 212.455V214.545C890 215.055 890 215.309 889.862 215.504C889.741 215.675 889.548 215.814 889.31 215.901C889.039 216 888.686 216 887.978 216H813.022C812.314 216 811.961 216 811.69 215.901C811.452 215.814 811.259 215.675 811.138 215.504C811 215.309 811 215.055 811 214.545V212.455Z" fill="#97999D"/>
<path d="M973.045 109.045C972.204 108.204 970.839 108.202 970.033 109.075C962.235 117.533 957.387 128.317 956.255 139.805C955.053 152.008 958.12 164.25 964.932 174.445C971.744 184.641 981.881 192.158 993.615 195.718C1005.35 199.277 1017.95 198.658 1029.28 193.966C1040.61 189.273 1049.96 180.798 1055.74 169.984C1061.52 159.17 1063.37 146.686 1060.98 134.66C1058.59 122.634 1052.1 111.809 1042.62 104.03C1033.7 96.7074 1022.65 92.5103 1011.15 92.0436C1009.96 91.9954 1009 92.9632 1009 94.1514C1009 95.3396 1009.96 96.2979 1011.15 96.3503C1021.65 96.8143 1031.74 100.665 1039.89 107.357C1048.6 114.504 1054.56 124.45 1056.76 135.5C1058.96 146.55 1057.26 158.02 1051.95 167.956C1046.64 177.892 1038.04 185.679 1027.64 189.99C1017.23 194.302 1005.65 194.871 994.864 191.6C984.083 188.33 974.769 181.422 968.51 172.055C962.251 162.687 959.433 151.439 960.537 140.227C961.571 129.73 965.983 119.872 973.079 112.12C973.881 111.244 973.885 109.885 973.045 109.045Z" fill="#219653"/>
<path d="M993 141.782C993 140.458 993 139.796 993.054 139.291C993.102 138.846 993.177 138.484 993.271 138.258C993.377 138 993.516 138 993.794 138H1023.21C1023.48 138 1023.62 138 1023.73 138.258C1023.82 138.484 1023.9 138.846 1023.95 139.291C1024 139.796 1024 140.458 1024 141.782V147.218C1024 148.542 1024 149.204 1023.95 149.709C1023.9 150.154 1023.82 150.516 1023.73 150.742C1023.62 151 1023.48 151 1023.21 151H993.794C993.516 151 993.377 151 993.271 150.742C993.177 150.516 993.102 150.154 993.054 149.709C993 149.204 993 148.542 993 147.218V141.782Z" fill="#424754"/>
<path d="M969 212.455C969 211.945 969 211.691 969.138 211.496C969.259 211.325 969.452 211.186 969.69 211.099C969.961 211 970.314 211 971.022 211H1045.98C1046.69 211 1047.04 211 1047.31 211.099C1047.55 211.186 1047.74 211.325 1047.86 211.496C1048 211.691 1048 211.945 1048 212.455V214.545C1048 215.055 1048 215.309 1047.86 215.504C1047.74 215.675 1047.55 215.814 1047.31 215.901C1047.04 216 1046.69 216 1045.98 216H971.022C970.314 216 969.961 216 969.69 215.901C969.452 215.814 969.259 215.675 969.138 215.504C969 215.309 969 215.055 969 214.545V212.455Z" fill="#97999D"/>
<path d="M640 24.4545C640 23.9454 640 23.6908 640.099 23.4964C640.187 23.3253 640.326 23.1862 640.498 23.0991C640.693 23 640.948 23 641.459 23H695.541C696.052 23 696.307 23 696.502 23.0991C696.674 23.1862 696.813 23.3253 696.901 23.4964C697 23.6908 697 23.9454 697 24.4545V26.5455C697 27.0546 697 27.3092 696.901 27.5036C696.813 27.6747 696.674 27.8138 696.502 27.9009C696.307 28 696.052 28 695.541 28H641.459C640.948 28 640.693 28 640.498 27.9009C640.326 27.8138 640.187 27.6747 640.099 27.5036C640 27.3092 640 27.0546 640 26.5455V24.4545Z" fill="#424754"/>
<path d="M1048 24.4545C1048 23.9454 1048 23.6908 1048.03 23.4964C1048.06 23.3253 1048.1 23.1862 1048.16 23.0991C1048.22 23 1048.3 23 1048.46 23H1065.54C1065.7 23 1065.78 23 1065.84 23.0991C1065.9 23.1862 1065.94 23.3253 1065.97 23.4964C1066 23.6908 1066 23.9454 1066 24.4545V26.5455C1066 27.0546 1066 27.3092 1065.97 27.5036C1065.94 27.6747 1065.9 27.8138 1065.84 27.9009C1065.78 28 1065.7 28 1065.54 28H1048.46C1048.3 28 1048.22 28 1048.16 27.9009C1048.1 27.8138 1048.06 27.6747 1048.03 27.5036C1048 27.3092 1048 27.0546 1048 26.5455V24.4545Z" fill="#97999D"/>
<path d="M640 262.527C640 260.593 640 259.625 640.099 258.886C640.187 258.236 640.326 257.708 640.498 257.377C640.693 257 640.948 257 641.459 257H695.541C696.052 257 696.307 257 696.502 257.377C696.674 257.708 696.813 258.236 696.901 258.886C697 259.625 697 260.593 697 262.527V270.473C697 272.407 697 273.375 696.901 274.114C696.813 274.764 696.674 275.292 696.502 275.623C696.307 276 696.052 276 695.541 276H641.459C640.948 276 640.693 276 640.498 275.623C640.326 275.292 640.187 274.764 640.099 274.114C640 273.375 640 272.407 640 270.473V262.527Z" fill="#F04B5D"/>
</svg>
