<svg width="906" height="298" viewBox="0 0 906 298" fill="none" xmlns="http://www.w3.org/2000/svg">
<path d="M571.692 98H578.028L578.82 86.408C578.964 84.464 578.82 82.088 578.82 82.088H578.892C578.892 82.088 579.756 84.788 580.332 86.408L583.032 93.86H588.432L591.132 86.408C591.708 84.788 592.572 82.088 592.572 82.088H592.644C592.644 82.088 592.5 84.464 592.644 86.408L593.436 98H599.736L597.648 72.26H590.808L587.064 83.132C586.488 84.788 585.768 87.38 585.768 87.38H585.696C585.696 87.38 584.976 84.788 584.4 83.132L580.656 72.26H573.816L571.692 98ZM602.257 92.78C602.257 95.984 604.741 98.432 608.305 98.432C610.429 98.432 612.589 97.46 613.813 95.732H613.885C613.885 95.732 613.813 96.272 613.813 96.884V98H619.501V86.588C619.501 81.872 616.333 79.028 611.221 79.028C608.197 79.028 604.957 80.216 603.373 81.44L605.533 85.832C607.009 84.86 608.845 84.068 610.645 84.068C612.013 84.068 613.273 84.572 613.273 86.12V86.444H612.733C608.161 86.444 602.257 87.812 602.257 92.78ZM608.413 92.204C608.413 90.512 610.861 90.008 612.769 90.008H613.345V90.512C613.345 92.024 611.977 93.788 610.177 93.788C609.025 93.788 608.413 93.068 608.413 92.204ZM624.531 91.16C624.531 97.388 630.255 98.18 633.207 98.18C633.927 98.18 634.431 98.108 634.899 98.072V92.672C634.503 92.708 634.287 92.708 634.071 92.708C632.883 92.708 630.759 92.42 630.759 90.332V84.644H634.647V79.784H630.759V74.456H624.711V79.784H622.155V84.644H624.531V91.16ZM638.252 98H644.48V89.648C644.48 86.804 645.812 84.68 648.512 84.68C649.88 84.68 650.564 85.4 650.564 87.128V98H656.792V85.976C656.792 80.756 653.876 79.028 650.132 79.028C647.684 79.028 645.524 80.144 644.48 81.98H644.408C644.408 81.98 644.48 81.332 644.48 80.396V72.26H638.252V98ZM671.119 98H677.347V84.644H680.767V79.784H677.347V79.208C677.347 77.624 679.255 77.408 680.479 77.408C680.947 77.408 681.343 77.444 681.487 77.48V72.224C680.839 72.116 680.263 72.116 679.615 72.116C676.627 72.116 671.119 72.944 671.119 79.028V79.784H668.851V84.644H671.119V98ZM682.243 88.784C682.243 94.58 686.923 98.432 692.755 98.432C698.587 98.432 703.267 94.58 703.267 88.784C703.267 82.952 698.587 79.028 692.719 79.028C686.923 79.028 682.243 82.952 682.243 88.784ZM688.543 88.784C688.543 85.976 690.487 84.212 692.755 84.212C695.023 84.212 696.967 85.976 696.967 88.784C696.967 91.556 695.023 93.248 692.755 93.248C690.487 93.248 688.543 91.556 688.543 88.784ZM706.385 98H712.613V90.8C712.613 87.416 714.269 85.22 717.725 85.22C718.157 85.22 718.769 85.256 718.985 85.328V79.208C718.769 79.172 718.517 79.136 718.265 79.136C715.493 79.136 713.153 81.224 712.361 83.744H712.289C712.289 83.744 712.361 83.204 712.361 82.592V79.46H706.385V98ZM730.01 98H735.734V97.28C735.734 96.704 735.698 96.236 735.698 96.236H735.77C737.03 97.748 739.082 98.432 740.954 98.432C745.886 98.432 749.594 94.616 749.594 88.748C749.594 82.988 746.282 79.028 741.242 79.028C739.37 79.028 737.318 79.784 736.238 81.008H736.166C736.166 81.008 736.238 80.36 736.238 79.424V72.26H730.01V98ZM736.058 88.856C736.058 85.652 737.822 84.284 739.694 84.284C741.854 84.284 743.33 86.084 743.33 88.856C743.33 91.7 741.638 93.284 739.694 93.284C737.246 93.284 736.058 91.088 736.058 88.856ZM752.611 91.484C752.611 96.704 755.527 98.432 759.199 98.432C761.683 98.432 763.987 97.208 764.995 95.228H765.067C765.067 95.228 764.995 95.768 764.995 96.38V98H770.971V79.46H764.743V87.668C764.743 90.44 763.483 92.78 760.819 92.78C759.523 92.78 758.839 92.06 758.839 90.332V79.46H752.611V91.484ZM773.747 95.696C775.799 97.532 778.643 98.432 781.307 98.432C786.059 98.432 788.939 95.804 788.939 92.348C788.939 86.336 780.263 86.804 780.263 84.86C780.263 84.356 780.659 83.96 781.991 83.96C783.575 83.96 785.591 84.608 786.671 85.472L788.795 81.152C786.923 79.64 784.547 79.028 782.171 79.028C777.887 79.028 774.467 81.08 774.467 84.896C774.467 90.98 783.143 90.548 783.143 92.528C783.143 93.104 782.711 93.5 781.451 93.5C779.687 93.5 777.779 92.78 776.411 91.628L773.747 95.696ZM792.168 77.12H798.252V72.26H792.168V77.12ZM792.096 98H798.324V79.46H792.096V98ZM802.502 98H808.73V89.612C808.73 86.984 809.99 84.68 812.762 84.68C814.13 84.68 814.814 85.4 814.814 87.128V98H821.042V85.976C821.042 80.756 818.126 79.028 814.382 79.028C811.106 79.028 809.342 80.792 808.478 82.232H808.406C808.406 82.232 808.478 81.692 808.478 81.08V79.46H802.502V98ZM823.993 88.712C823.993 93.644 827.557 98.432 834.181 98.432C837.025 98.432 840.085 97.46 842.101 95.732L839.797 91.376C838.285 92.384 836.521 93.248 834.685 93.248C832.705 93.248 830.833 92.204 830.365 89.936H842.065C842.137 89.288 842.209 88.64 842.209 87.992C842.209 82.844 839.113 79.028 833.641 79.028C827.665 79.028 823.993 83.276 823.993 88.712ZM830.509 86.372C830.833 84.896 831.697 83.6 833.497 83.6C835.081 83.6 836.053 84.86 836.053 86.372H830.509ZM844.059 95.696C846.111 97.532 848.955 98.432 851.619 98.432C856.371 98.432 859.251 95.804 859.251 92.348C859.251 86.336 850.575 86.804 850.575 84.86C850.575 84.356 850.971 83.96 852.303 83.96C853.887 83.96 855.903 84.608 856.983 85.472L859.107 81.152C857.235 79.64 854.859 79.028 852.483 79.028C848.199 79.028 844.779 81.08 844.779 84.896C844.779 90.98 853.455 90.548 853.455 92.528C853.455 93.104 853.023 93.5 851.763 93.5C849.999 93.5 848.091 92.78 846.723 91.628L844.059 95.696ZM861.004 95.696C863.056 97.532 865.9 98.432 868.564 98.432C873.316 98.432 876.196 95.804 876.196 92.348C876.196 86.336 867.52 86.804 867.52 84.86C867.52 84.356 867.916 83.96 869.248 83.96C870.832 83.96 872.848 84.608 873.928 85.472L876.052 81.152C874.18 79.64 871.804 79.028 869.428 79.028C865.144 79.028 861.724 81.08 861.724 84.896C861.724 90.98 870.4 90.548 870.4 92.528C870.4 93.104 869.968 93.5 868.708 93.5C866.944 93.5 865.036 92.78 863.668 91.628L861.004 95.696ZM570.792 134.78C570.792 137.984 573.276 140.432 576.84 140.432C578.964 140.432 581.124 139.46 582.348 137.732H582.42C582.42 137.732 582.348 138.272 582.348 138.884V140H588.036V128.588C588.036 123.872 584.868 121.028 579.756 121.028C576.732 121.028 573.492 122.216 571.908 123.44L574.068 127.832C575.544 126.86 577.38 126.068 579.18 126.068C580.548 126.068 581.808 126.572 581.808 128.12V128.444H581.268C576.696 128.444 570.792 129.812 570.792 134.78ZM576.948 134.204C576.948 132.512 579.396 132.008 581.304 132.008H581.88V132.512C581.88 134.024 580.512 135.788 578.712 135.788C577.56 135.788 576.948 135.068 576.948 134.204ZM591.986 140H598.214V131.612C598.214 128.984 599.474 126.68 602.246 126.68C603.614 126.68 604.298 127.4 604.298 129.128V140H610.526V127.976C610.526 122.756 607.61 121.028 603.866 121.028C600.59 121.028 598.826 122.792 597.962 124.232H597.89C597.89 124.232 597.962 123.692 597.962 123.08V121.46H591.986V140ZM613.55 130.712C613.55 136.472 616.862 140.432 621.902 140.432C624.098 140.432 626.114 139.496 627.266 137.732H627.338C627.338 137.732 627.302 138.2 627.302 138.776V140H633.134V114.26H626.906V121.676C626.906 122.144 626.942 122.504 626.942 122.504H626.87C625.646 121.28 623.666 121.028 622.01 121.028C617.078 121.028 613.55 124.844 613.55 130.712ZM619.814 130.712C619.814 127.868 621.506 126.284 623.45 126.284C625.898 126.284 627.086 128.48 627.086 130.712C627.086 133.916 625.322 135.284 623.45 135.284C621.29 135.284 619.814 133.484 619.814 130.712ZM648.986 140H656.006L658.094 131.432C658.346 130.424 658.454 129.452 658.454 129.452H658.526C658.526 129.452 658.634 130.424 658.886 131.432L660.974 140H667.922L673.106 121.46H666.626L664.322 132.404C664.106 133.412 664.07 134.348 664.07 134.348H663.998C663.998 134.348 663.962 133.412 663.71 132.404L661.154 121.46H655.826L653.27 132.404C653.018 133.412 652.946 134.348 652.946 134.348H652.874C652.874 134.348 652.874 133.412 652.658 132.404L650.354 121.46H643.802L648.986 140ZM674.228 130.784C674.228 136.58 678.908 140.432 684.74 140.432C690.572 140.432 695.252 136.58 695.252 130.784C695.252 124.952 690.572 121.028 684.704 121.028C678.908 121.028 674.228 124.952 674.228 130.784ZM680.528 130.784C680.528 127.976 682.472 126.212 684.74 126.212C687.008 126.212 688.952 127.976 688.952 130.784C688.952 133.556 687.008 135.248 684.74 135.248C682.472 135.248 680.528 133.556 680.528 130.784ZM698.369 140H704.597V132.8C704.597 129.416 706.253 127.22 709.709 127.22C710.141 127.22 710.753 127.256 710.969 127.328V121.208C710.753 121.172 710.501 121.136 710.249 121.136C707.477 121.136 705.137 123.224 704.345 125.744H704.273C704.273 125.744 704.345 125.204 704.345 124.592V121.46H698.369V140ZM713.697 140H719.925V132.8H721.869L725.793 140H732.885L726.693 129.956V129.884L732.129 121.46H725.361L721.689 127.58H719.925V114.26H713.697V140Z" fill="#222224"/>
<path d="M573.762 195H575.814L578.028 186.756C578.262 185.928 578.424 184.974 578.424 184.974H578.496C578.496 184.974 578.658 185.928 578.874 186.756L581.106 195H583.14L586.488 182.292H584.652L582.294 191.616C582.132 192.3 582.06 192.966 582.06 192.966H582.024C582.024 192.966 581.916 192.318 581.736 191.616L579.252 182.292H577.686L575.184 191.616C575.004 192.318 574.896 192.966 574.896 192.966H574.86C574.86 192.966 574.77 192.3 574.608 191.616L572.394 182.292H570.522L573.762 195ZM587.051 190.446C587.051 193.146 589.031 195.216 591.893 195.216C593.153 195.216 594.539 194.73 595.421 193.92L594.683 192.642C593.963 193.29 592.973 193.704 592.001 193.704C590.363 193.704 588.959 192.642 588.869 190.68H595.493C595.529 190.428 595.565 190.176 595.565 189.942C595.565 187.602 594.197 185.676 591.623 185.676C589.031 185.676 587.051 187.548 587.051 190.446ZM588.923 189.42C589.175 187.908 590.237 187.026 591.587 187.026C592.775 187.026 593.747 187.854 593.801 189.42H588.923ZM597.436 185.46H598.822V182.076H597.436V185.46ZM601.514 192.498C601.514 194.802 602.954 195.09 603.962 195.09C604.214 195.09 604.412 195.054 604.538 195.036V193.488C604.43 193.506 604.304 193.506 604.232 193.506C603.692 193.506 603.242 193.29 603.242 192.21V182.292H601.514V192.498ZM606.313 192.498C606.313 194.802 607.753 195.09 608.761 195.09C609.013 195.09 609.211 195.054 609.337 195.036V193.488C609.229 193.506 609.103 193.506 609.031 193.506C608.491 193.506 608.041 193.29 608.041 192.21V182.292H606.313V192.498ZM615.612 195H617.358V190.68C617.358 188.718 618.636 187.278 620.4 187.278C621.858 187.278 622.11 188.286 622.11 189.564V195H623.856V189.168C623.856 186.846 622.884 185.676 620.742 185.676C618.924 185.676 617.736 186.9 617.322 187.764H617.286C617.286 187.764 617.358 187.44 617.358 187.008V182.292H615.612V195ZM625.863 190.446C625.863 193.146 627.843 195.216 630.705 195.216C631.965 195.216 633.351 194.73 634.233 193.92L633.495 192.642C632.775 193.29 631.785 193.704 630.813 193.704C629.175 193.704 627.771 192.642 627.681 190.68H634.305C634.341 190.428 634.377 190.176 634.377 189.942C634.377 187.602 633.009 185.676 630.435 185.676C627.843 185.676 625.863 187.548 625.863 190.446ZM627.735 189.42C627.987 187.908 629.049 187.026 630.399 187.026C631.587 187.026 632.559 187.854 632.613 189.42H627.735ZM636.477 192.498C636.477 194.802 637.917 195.09 638.925 195.09C639.177 195.09 639.375 195.054 639.501 195.036V193.488C639.393 193.506 639.267 193.506 639.195 193.506C638.655 193.506 638.205 193.29 638.205 192.21V182.292H636.477V192.498ZM641.276 198.6H643.022V194.46C643.022 193.992 642.95 193.668 642.95 193.668H642.986C643.616 194.64 644.66 195.216 645.812 195.216C648.206 195.216 649.934 193.344 649.934 190.446C649.934 187.62 648.404 185.676 645.938 185.676C644.606 185.676 643.454 186.288 642.878 187.386H642.842C642.842 187.386 642.896 187.08 642.896 186.702V185.892H641.276V198.6ZM642.968 190.482C642.968 188.178 644.228 187.206 645.596 187.206C647.108 187.206 648.17 188.484 648.17 190.464C648.17 192.534 646.982 193.704 645.542 193.704C643.868 193.704 642.968 192.102 642.968 190.482ZM656.613 191.67C656.613 194.712 658.935 195.09 660.105 195.09C660.375 195.09 660.573 195.054 660.717 195.036V193.488C660.537 193.524 660.429 193.524 660.303 193.524C659.637 193.524 658.359 193.29 658.359 191.472V187.404H660.555V185.982H658.359V183.39H656.649V185.982H655.425V187.404H656.613V191.67ZM661.811 190.428C661.811 193.2 664.007 195.216 666.725 195.216C669.425 195.216 671.621 193.2 671.621 190.428C671.621 187.674 669.425 185.676 666.707 185.676C664.007 185.676 661.811 187.674 661.811 190.428ZM663.593 190.428C663.593 188.538 664.997 187.188 666.725 187.188C668.435 187.188 669.857 188.538 669.857 190.428C669.857 192.336 668.435 193.704 666.725 193.704C664.997 193.704 663.593 192.336 663.593 190.428ZM678.117 191.724C678.117 194.136 679.179 195.216 681.231 195.216C683.013 195.216 684.219 193.974 684.615 193.074H684.651C684.651 193.074 684.579 193.38 684.579 193.74V195H686.271V185.892H684.543V190.158C684.543 191.958 683.445 193.596 681.573 193.596C680.133 193.596 679.863 192.588 679.863 191.328V185.892H678.117V191.724ZM688.965 198.6H690.711V194.46C690.711 193.992 690.639 193.668 690.639 193.668H690.675C691.305 194.64 692.349 195.216 693.501 195.216C695.895 195.216 697.623 193.344 697.623 190.446C697.623 187.62 696.093 185.676 693.627 185.676C692.295 185.676 691.143 186.288 690.567 187.386H690.531C690.531 187.386 690.585 187.08 690.585 186.702V185.892H688.965V198.6ZM690.657 190.482C690.657 188.178 691.917 187.206 693.285 187.206C694.797 187.206 695.859 188.484 695.859 190.464C695.859 192.534 694.671 193.704 693.231 193.704C691.557 193.704 690.657 192.102 690.657 190.482ZM699.218 190.446C699.218 193.272 700.784 195.216 703.232 195.216C704.672 195.216 705.734 194.46 706.256 193.47H706.292C706.292 193.47 706.238 193.722 706.238 194.082V195H707.894V182.292H706.166V186.558C706.166 186.9 706.202 187.17 706.202 187.17H706.166C705.59 186.198 704.492 185.676 703.34 185.676C700.928 185.676 699.218 187.548 699.218 190.446ZM701 190.446C701 188.376 702.188 187.206 703.61 187.206C705.356 187.206 706.202 188.79 706.202 190.428C706.202 192.732 704.924 193.704 703.574 193.704C702.062 193.704 701 192.426 701 190.446ZM709.83 192.516C709.83 194.226 711.288 195.216 712.872 195.216C714.222 195.216 715.338 194.406 715.86 193.362H715.896C715.896 193.362 715.842 193.668 715.842 194.082V195H717.48V189.24C717.48 186.936 716.166 185.676 713.88 185.676C712.602 185.676 711.216 186.144 710.478 186.756L711.18 188.034C711.918 187.512 712.836 187.152 713.736 187.152C714.87 187.152 715.734 187.656 715.734 189.15V189.33H715.266C713.376 189.33 709.83 189.654 709.83 192.516ZM711.576 192.372C711.576 190.698 713.988 190.59 715.284 190.59H715.734V190.932C715.734 192.282 714.816 193.83 713.286 193.83C712.152 193.83 711.576 193.092 711.576 192.372ZM720.457 191.67C720.457 194.712 722.779 195.09 723.949 195.09C724.219 195.09 724.417 195.054 724.561 195.036V193.488C724.381 193.524 724.273 193.524 724.147 193.524C723.481 193.524 722.203 193.29 722.203 191.472V187.404H724.399V185.982H722.203V183.39H720.493V185.982H719.269V187.404H720.457V191.67ZM725.672 190.446C725.672 193.146 727.652 195.216 730.514 195.216C731.774 195.216 733.16 194.73 734.042 193.92L733.304 192.642C732.584 193.29 731.594 193.704 730.622 193.704C728.984 193.704 727.58 192.642 727.49 190.68H734.114C734.15 190.428 734.186 190.176 734.186 189.942C734.186 187.602 732.818 185.676 730.244 185.676C727.652 185.676 725.672 187.548 725.672 190.446ZM727.544 189.42C727.796 187.908 728.858 187.026 730.208 187.026C731.396 187.026 732.368 187.854 732.422 189.42H727.544ZM740.786 195H742.424V194.262C742.424 193.848 742.37 193.578 742.37 193.578H742.406C743 194.604 744.116 195.216 745.304 195.216C747.716 195.216 749.444 193.344 749.444 190.446C749.444 187.62 747.914 185.676 745.448 185.676C744.188 185.676 743.036 186.306 742.496 187.278H742.46C742.46 187.278 742.532 186.954 742.532 186.504V182.292H740.786V195ZM742.478 190.482C742.478 188.178 743.738 187.206 745.106 187.206C746.618 187.206 747.68 188.484 747.68 190.464C747.68 192.534 746.492 193.704 745.052 193.704C743.324 193.704 742.478 192.102 742.478 190.482ZM750.84 192.516C750.84 194.226 752.298 195.216 753.882 195.216C755.232 195.216 756.348 194.406 756.87 193.362H756.906C756.906 193.362 756.852 193.668 756.852 194.082V195H758.49V189.24C758.49 186.936 757.176 185.676 754.89 185.676C753.612 185.676 752.226 186.144 751.488 186.756L752.19 188.034C752.928 187.512 753.846 187.152 754.746 187.152C755.88 187.152 756.744 187.656 756.744 189.15V189.33H756.276C754.386 189.33 750.84 189.654 750.84 192.516ZM752.586 192.372C752.586 190.698 754.998 190.59 756.294 190.59H756.744V190.932C756.744 192.282 755.826 193.83 754.296 193.83C753.162 193.83 752.586 193.092 752.586 192.372ZM760.314 193.884C761.214 194.802 762.564 195.216 763.788 195.216C765.732 195.216 767.064 194.082 767.064 192.534C767.064 189.528 762.366 190.05 762.366 188.268C762.366 187.494 763.032 187.134 763.914 187.134C764.724 187.134 765.678 187.44 766.218 187.944L766.92 186.684C766.128 185.964 765.012 185.676 763.968 185.676C762.186 185.676 760.692 186.576 760.692 188.304C760.692 191.292 765.372 190.824 765.372 192.57C765.372 193.326 764.742 193.758 763.824 193.758C762.87 193.758 761.826 193.362 761.142 192.696L760.314 193.884ZM769.103 184.056H770.903V182.292H769.103V184.056ZM769.139 195H770.885V185.892H769.139V195ZM772.975 190.446C772.975 193.182 774.973 195.216 777.853 195.216C779.275 195.216 780.661 194.64 781.489 193.758L780.787 192.48C780.085 193.218 778.987 193.704 777.979 193.704C776.089 193.704 774.757 192.282 774.757 190.428C774.757 188.574 776.089 187.188 777.925 187.188C778.879 187.188 779.833 187.62 780.445 188.232L781.273 187.008C780.409 186.09 779.059 185.676 777.853 185.676C774.991 185.676 772.975 187.746 772.975 190.446ZM787.877 195H789.623V190.734H790.955L793.673 195H795.707L792.341 189.942V189.906L795.365 185.892H793.385L790.919 189.24H789.623V182.292H787.877V195ZM797.282 195H799.028V190.626C799.028 188.754 800.288 187.278 802.07 187.278C803.528 187.278 803.78 188.286 803.78 189.564V195H805.526V189.168C805.526 186.846 804.554 185.676 802.412 185.676C800.414 185.676 799.298 187.026 798.956 187.818H798.92C798.92 187.818 798.974 187.512 798.974 187.134V185.892H797.282V195ZM807.533 190.428C807.533 193.2 809.729 195.216 812.447 195.216C815.147 195.216 817.343 193.2 817.343 190.428C817.343 187.674 815.147 185.676 812.429 185.676C809.729 185.676 807.533 187.674 807.533 190.428ZM809.315 190.428C809.315 188.538 810.719 187.188 812.447 187.188C814.157 187.188 815.579 188.538 815.579 190.428C815.579 192.336 814.157 193.704 812.447 193.704C810.719 193.704 809.315 192.336 809.315 190.428ZM821.253 195H823.197L825.069 189.15C825.213 188.682 825.321 188.16 825.321 188.16H825.357C825.357 188.16 825.465 188.682 825.627 189.15L827.499 195H829.443L832.359 185.892H830.541L828.633 192.282C828.489 192.75 828.399 193.254 828.399 193.254H828.363C828.363 193.254 828.255 192.75 828.129 192.282L826.167 185.91H824.547L822.585 192.282C822.441 192.75 822.333 193.254 822.333 193.254H822.297C822.297 193.254 822.207 192.75 822.063 192.282L820.173 185.892H818.319L821.253 195ZM834.143 192.498C834.143 194.802 835.583 195.09 836.591 195.09C836.843 195.09 837.041 195.054 837.167 195.036V193.488C837.059 193.506 836.933 193.506 836.861 193.506C836.321 193.506 835.871 193.29 835.871 192.21V182.292H834.143V192.498ZM838.348 190.446C838.348 193.146 840.328 195.216 843.19 195.216C844.45 195.216 845.836 194.73 846.718 193.92L845.98 192.642C845.26 193.29 844.27 193.704 843.298 193.704C841.66 193.704 840.256 192.642 840.166 190.68H846.79C846.826 190.428 846.862 190.176 846.862 189.942C846.862 187.602 845.494 185.676 842.92 185.676C840.328 185.676 838.348 187.548 838.348 190.446ZM840.22 189.42C840.472 187.908 841.534 187.026 842.884 187.026C844.072 187.026 845.044 187.854 845.098 189.42H840.22ZM848.403 190.446C848.403 193.272 849.969 195.216 852.417 195.216C853.857 195.216 854.919 194.46 855.441 193.47H855.477C855.477 193.47 855.423 193.722 855.423 194.082V195H857.079V182.292H855.351V186.558C855.351 186.9 855.387 187.17 855.387 187.17H855.351C854.775 186.198 853.677 185.676 852.525 185.676C850.113 185.676 848.403 187.548 848.403 190.446ZM850.185 190.446C850.185 188.376 851.373 187.206 852.795 187.206C854.541 187.206 855.387 188.79 855.387 190.428C855.387 192.732 854.109 193.704 852.759 193.704C851.247 193.704 850.185 192.426 850.185 190.446ZM860.636 196.656L860.06 198.024C860.96 198.474 862.076 198.78 863.174 198.78C865.478 198.78 867.764 197.628 867.764 194.622V185.892H866.09V186.792C866.09 186.954 866.144 187.062 866.144 187.062H866.09C865.514 186.09 864.344 185.676 863.21 185.676C860.672 185.676 859.232 187.62 859.232 190.248C859.232 192.858 860.762 194.892 863.3 194.892C864.614 194.892 865.496 194.316 866.036 193.416H866.072C866.072 193.416 866.018 193.704 866.018 193.992V194.73C866.018 196.548 864.722 197.268 863.138 197.268C862.256 197.268 861.356 197.016 860.636 196.656ZM860.996 190.194C860.996 188.34 861.914 187.188 863.48 187.188C864.902 187.188 866.054 187.872 866.054 190.248C866.054 192.624 864.902 193.38 863.642 193.38C862.004 193.38 860.996 192.084 860.996 190.194ZM869.865 190.446C869.865 193.146 871.845 195.216 874.707 195.216C875.967 195.216 877.353 194.73 878.235 193.92L877.497 192.642C876.777 193.29 875.787 193.704 874.815 193.704C873.177 193.704 871.773 192.642 871.683 190.68H878.307C878.343 190.428 878.379 190.176 878.379 189.942C878.379 187.602 877.011 185.676 874.437 185.676C871.845 185.676 869.865 187.548 869.865 190.446ZM871.737 189.42C871.989 187.908 873.051 187.026 874.401 187.026C875.589 187.026 876.561 187.854 876.615 189.42H871.737ZM570.594 220.516C570.594 222.226 572.052 223.216 573.636 223.216C574.986 223.216 576.102 222.406 576.624 221.362H576.66C576.66 221.362 576.606 221.668 576.606 222.082V223H578.244V217.24C578.244 214.936 576.93 213.676 574.644 213.676C573.366 213.676 571.98 214.144 571.242 214.756L571.944 216.034C572.682 215.512 573.6 215.152 574.5 215.152C575.634 215.152 576.498 215.656 576.498 217.15V217.33H576.03C574.14 217.33 570.594 217.654 570.594 220.516ZM572.34 220.372C572.34 218.698 574.752 218.59 576.048 218.59H576.498V218.932C576.498 220.282 575.58 221.83 574.05 221.83C572.916 221.83 572.34 221.092 572.34 220.372ZM580.842 223H582.588V218.626C582.588 216.754 583.848 215.278 585.63 215.278C587.088 215.278 587.34 216.286 587.34 217.564V223H589.086V217.168C589.086 214.846 588.114 213.676 585.972 213.676C583.974 213.676 582.858 215.026 582.516 215.818H582.48C582.48 215.818 582.534 215.512 582.534 215.134V213.892H580.842V223ZM591.13 218.446C591.13 221.272 592.696 223.216 595.144 223.216C596.584 223.216 597.646 222.46 598.168 221.47H598.204C598.204 221.47 598.15 221.722 598.15 222.082V223H599.806V210.292H598.078V214.558C598.078 214.9 598.114 215.17 598.114 215.17H598.078C597.502 214.198 596.404 213.676 595.252 213.676C592.84 213.676 591.13 215.548 591.13 218.446ZM592.912 218.446C592.912 216.376 594.1 215.206 595.522 215.206C597.268 215.206 598.114 216.79 598.114 218.428C598.114 220.732 596.836 221.704 595.486 221.704C593.974 221.704 592.912 220.426 592.912 218.446ZM607.025 219.67C607.025 222.712 609.347 223.09 610.517 223.09C610.787 223.09 610.985 223.054 611.129 223.036V221.488C610.949 221.524 610.841 221.524 610.715 221.524C610.049 221.524 608.771 221.29 608.771 219.472V215.404H610.967V213.982H608.771V211.39H607.061V213.982H605.837V215.404H607.025V219.67ZM612.24 218.446C612.24 221.146 614.22 223.216 617.082 223.216C618.342 223.216 619.728 222.73 620.61 221.92L619.872 220.642C619.152 221.29 618.162 221.704 617.19 221.704C615.552 221.704 614.148 220.642 614.058 218.68H620.682C620.718 218.428 620.754 218.176 620.754 217.942C620.754 215.602 619.386 213.676 616.812 213.676C614.22 213.676 612.24 215.548 612.24 218.446ZM614.112 217.42C614.364 215.908 615.426 215.026 616.776 215.026C617.964 215.026 618.936 215.854 618.99 217.42H614.112ZM622.098 220.516C622.098 222.226 623.556 223.216 625.14 223.216C626.49 223.216 627.606 222.406 628.128 221.362H628.164C628.164 221.362 628.11 221.668 628.11 222.082V223H629.748V217.24C629.748 214.936 628.434 213.676 626.148 213.676C624.87 213.676 623.484 214.144 622.746 214.756L623.448 216.034C624.186 215.512 625.104 215.152 626.004 215.152C627.138 215.152 628.002 215.656 628.002 217.15V217.33H627.534C625.644 217.33 622.098 217.654 622.098 220.516ZM623.844 220.372C623.844 218.698 626.256 218.59 627.552 218.59H628.002V218.932C628.002 220.282 627.084 221.83 625.554 221.83C624.42 221.83 623.844 221.092 623.844 220.372ZM631.752 218.446C631.752 221.182 633.75 223.216 636.63 223.216C638.052 223.216 639.438 222.64 640.266 221.758L639.564 220.48C638.862 221.218 637.764 221.704 636.756 221.704C634.866 221.704 633.534 220.282 633.534 218.428C633.534 216.574 634.866 215.188 636.702 215.188C637.656 215.188 638.61 215.62 639.222 216.232L640.05 215.008C639.186 214.09 637.836 213.676 636.63 213.676C633.768 213.676 631.752 215.746 631.752 218.446ZM642.155 223H643.901V218.68C643.901 216.718 645.179 215.278 646.943 215.278C648.401 215.278 648.653 216.286 648.653 217.564V223H650.399V217.168C650.399 214.846 649.427 213.676 647.285 213.676C645.467 213.676 644.279 214.9 643.865 215.764H643.829C643.829 215.764 643.901 215.44 643.901 215.008V210.292H642.155V223ZM657.527 219.67C657.527 222.712 659.849 223.09 661.019 223.09C661.289 223.09 661.487 223.054 661.631 223.036V221.488C661.451 221.524 661.343 221.524 661.217 221.524C660.551 221.524 659.273 221.29 659.273 219.472V215.404H661.469V213.982H659.273V211.39H657.563V213.982H656.339V215.404H657.527V219.67ZM662.725 218.428C662.725 221.2 664.921 223.216 667.639 223.216C670.339 223.216 672.535 221.2 672.535 218.428C672.535 215.674 670.339 213.676 667.621 213.676C664.921 213.676 662.725 215.674 662.725 218.428ZM664.507 218.428C664.507 216.538 665.911 215.188 667.639 215.188C669.349 215.188 670.771 216.538 670.771 218.428C670.771 220.336 669.349 221.704 667.639 221.704C665.911 221.704 664.507 220.336 664.507 218.428ZM678.581 218.446C678.581 221.272 680.147 223.216 682.595 223.216C684.035 223.216 685.043 222.442 685.529 221.596H685.565C685.565 221.596 685.529 221.92 685.529 222.388V226.6H687.257V213.892H685.601V214.63C685.601 214.99 685.637 215.26 685.637 215.26H685.601C685.025 214.252 683.891 213.676 682.703 213.676C680.291 213.676 678.581 215.548 678.581 218.446ZM680.363 218.446C680.363 216.376 681.551 215.206 682.973 215.206C684.719 215.206 685.565 216.79 685.565 218.428C685.565 220.732 684.287 221.704 682.937 221.704C681.425 221.704 680.363 220.426 680.363 218.446ZM689.842 219.724C689.842 222.136 690.904 223.216 692.956 223.216C694.738 223.216 695.944 221.974 696.34 221.074H696.376C696.376 221.074 696.304 221.38 696.304 221.74V223H697.996V213.892H696.268V218.158C696.268 219.958 695.17 221.596 693.298 221.596C691.858 221.596 691.588 220.588 691.588 219.328V213.892H689.842V219.724ZM700.654 212.056H702.454V210.292H700.654V212.056ZM700.69 223H702.436V213.892H700.69V223ZM704.526 218.446C704.526 221.182 706.524 223.216 709.404 223.216C710.826 223.216 712.212 222.64 713.04 221.758L712.338 220.48C711.636 221.218 710.538 221.704 709.53 221.704C707.64 221.704 706.308 220.282 706.308 218.428C706.308 216.574 707.64 215.188 709.476 215.188C710.43 215.188 711.384 215.62 711.996 216.232L712.824 215.008C711.96 214.09 710.61 213.676 709.404 213.676C706.542 213.676 704.526 215.746 704.526 218.446ZM714.928 223H716.674V218.734H718.006L720.724 223H722.758L719.392 217.942V217.906L722.416 213.892H720.436L717.97 217.24H716.674V210.292H714.928V223ZM724.332 220.498C724.332 222.802 725.772 223.09 726.78 223.09C727.032 223.09 727.23 223.054 727.356 223.036V221.488C727.248 221.506 727.122 221.506 727.05 221.506C726.51 221.506 726.06 221.29 726.06 220.21V210.292H724.332V220.498ZM728.523 224.89L727.911 226.222C727.911 226.222 728.649 226.78 729.657 226.78C730.935 226.78 732.069 226.06 732.609 224.638L736.893 213.892H735.003L732.789 219.868C732.627 220.336 732.483 220.948 732.483 220.948H732.447C732.447 220.948 732.285 220.3 732.105 219.85L729.819 213.892H727.857L731.673 222.892L731.223 223.936C730.881 224.764 730.287 225.286 729.567 225.286C729.027 225.286 728.523 224.89 728.523 224.89ZM742.037 218.446C742.037 221.182 744.035 223.216 746.915 223.216C748.337 223.216 749.723 222.64 750.551 221.758L749.849 220.48C749.147 221.218 748.049 221.704 747.041 221.704C745.151 221.704 743.819 220.282 743.819 218.428C743.819 216.574 745.151 215.188 746.987 215.188C747.941 215.188 748.895 215.62 749.507 216.232L750.335 215.008C749.471 214.09 748.121 213.676 746.915 213.676C744.053 213.676 742.037 215.746 742.037 218.446ZM751.684 220.516C751.684 222.226 753.142 223.216 754.726 223.216C756.076 223.216 757.192 222.406 757.714 221.362H757.75C757.75 221.362 757.696 221.668 757.696 222.082V223H759.334V217.24C759.334 214.936 758.02 213.676 755.734 213.676C754.456 213.676 753.07 214.144 752.332 214.756L753.034 216.034C753.772 215.512 754.69 215.152 755.59 215.152C756.724 215.152 757.588 215.656 757.588 217.15V217.33H757.12C755.23 217.33 751.684 217.654 751.684 220.516ZM753.43 220.372C753.43 218.698 755.842 218.59 757.138 218.59H757.588V218.932C757.588 220.282 756.67 221.83 755.14 221.83C754.006 221.83 753.43 221.092 753.43 220.372ZM761.932 220.498C761.932 222.802 763.372 223.09 764.38 223.09C764.632 223.09 764.83 223.054 764.956 223.036V221.488C764.848 221.506 764.722 221.506 764.65 221.506C764.11 221.506 763.66 221.29 763.66 220.21V210.292H761.932V220.498ZM766.137 218.446C766.137 221.182 768.135 223.216 771.015 223.216C772.437 223.216 773.823 222.64 774.651 221.758L773.949 220.48C773.247 221.218 772.149 221.704 771.141 221.704C769.251 221.704 767.919 220.282 767.919 218.428C767.919 216.574 769.251 215.188 771.087 215.188C772.041 215.188 772.995 215.62 773.607 216.232L774.435 215.008C773.571 214.09 772.221 213.676 771.015 213.676C768.153 213.676 766.137 215.746 766.137 218.446ZM776.431 219.724C776.431 222.136 777.493 223.216 779.545 223.216C781.327 223.216 782.533 221.974 782.929 221.074H782.965C782.965 221.074 782.893 221.38 782.893 221.74V223H784.585V213.892H782.857V218.158C782.857 219.958 781.759 221.596 779.887 221.596C778.447 221.596 778.177 220.588 778.177 219.328V213.892H776.431V219.724ZM787.28 220.498C787.28 222.802 788.72 223.09 789.728 223.09C789.98 223.09 790.178 223.054 790.304 223.036V221.488C790.196 221.506 790.07 221.506 789.998 221.506C789.458 221.506 789.008 221.29 789.008 220.21V210.292H787.28V220.498ZM791.323 220.516C791.323 222.226 792.781 223.216 794.365 223.216C795.715 223.216 796.831 222.406 797.353 221.362H797.389C797.389 221.362 797.335 221.668 797.335 222.082V223H798.973V217.24C798.973 214.936 797.659 213.676 795.373 213.676C794.095 213.676 792.709 214.144 791.971 214.756L792.673 216.034C793.411 215.512 794.329 215.152 795.229 215.152C796.363 215.152 797.227 215.656 797.227 217.15V217.33H796.759C794.869 217.33 791.323 217.654 791.323 220.516ZM793.069 220.372C793.069 218.698 795.481 218.59 796.777 218.59H797.227V218.932C797.227 220.282 796.309 221.83 794.779 221.83C793.645 221.83 793.069 221.092 793.069 220.372ZM801.949 219.67C801.949 222.712 804.271 223.09 805.441 223.09C805.711 223.09 805.909 223.054 806.053 223.036V221.488C805.873 221.524 805.765 221.524 805.639 221.524C804.973 221.524 803.695 221.29 803.695 219.472V215.404H805.891V213.982H803.695V211.39H801.985V213.982H800.761V215.404H801.949V219.67ZM807.164 218.446C807.164 221.146 809.144 223.216 812.006 223.216C813.266 223.216 814.652 222.73 815.534 221.92L814.796 220.642C814.076 221.29 813.086 221.704 812.114 221.704C810.476 221.704 809.072 220.642 808.982 218.68H815.606C815.642 218.428 815.678 218.176 815.678 217.942C815.678 215.602 814.31 213.676 811.736 213.676C809.144 213.676 807.164 215.548 807.164 218.446ZM809.036 217.42C809.288 215.908 810.35 215.026 811.7 215.026C812.888 215.026 813.86 215.854 813.914 217.42H809.036Z" fill="#424754"/>
<g clip-path="url(#clip0)">
<path d="M0 4.40122C0 2.86065 0 2.09037 0.299609 1.50195C0.563153 0.984356 0.983678 0.563541 1.50091 0.299816C2.08893 0 2.85869 0 4.3982 0H504.602C506.141 0 506.911 0 507.499 0.299816C508.016 0.563541 508.437 0.984356 508.7 1.50195C509 2.09037 509 2.86066 509 4.40123V293.599C509 295.139 509 295.91 508.7 296.498C508.437 297.016 508.016 297.436 507.499 297.7C506.911 298 506.141 298 504.602 298H4.39818C2.85868 298 2.08893 298 1.50091 297.7C0.983678 297.436 0.563153 297.016 0.299609 296.498C0 295.91 0 295.139 0 293.599V4.40122Z" fill="#F3F3F3"/>
<rect x="93" y="189" width="285" height="122" rx="4" fill="white"/>
<rect x="160" y="26" width="250" height="140" rx="2" fill="white"/>
<path d="M177 40.4545C177 39.9454 177 39.6908 177.058 39.4964C177.108 39.3253 177.189 39.1862 177.288 39.0991C177.401 39 177.549 39 177.845 39H209.155C209.451 39 209.599 39 209.712 39.0991C209.811 39.1862 209.892 39.3253 209.942 39.4964C210 39.6908 210 39.9454 210 40.4545V42.5455C210 43.0546 210 43.3092 209.942 43.5036C209.892 43.6747 209.811 43.8138 209.712 43.9009C209.599 44 209.451 44 209.155 44H177.845C177.549 44 177.401 44 177.288 43.9009C177.189 43.8138 177.108 43.6747 177.058 43.5036C177 43.3092 177 43.0546 177 42.5455V40.4545Z" fill="#424754"/>
<path d="M380 40.4545C380 39.9454 380 39.6908 380.026 39.4964C380.049 39.3253 380.086 39.1862 380.131 39.0991C380.182 39 380.25 39 380.384 39H394.616C394.75 39 394.818 39 394.869 39.0991C394.914 39.1862 394.951 39.3253 394.974 39.4964C395 39.6908 395 39.9454 395 40.4545V42.5455C395 43.0546 395 43.3092 394.974 43.5036C394.951 43.6747 394.914 43.8138 394.869 43.9009C394.818 44 394.75 44 394.616 44H380.384C380.25 44 380.182 44 380.131 43.9009C380.086 43.8138 380.049 43.6747 380.026 43.5036C380 43.3092 380 43.0546 380 42.5455V40.4545Z" fill="#97999D"/>
<path d="M177 138.945C177 137.214 177 136.349 177.03 135.688C177.056 135.106 177.097 134.633 177.149 134.337C177.207 134 177.283 134 177.435 134H193.565C193.717 134 193.793 134 193.851 134.337C193.903 134.633 193.944 135.106 193.97 135.688C194 136.349 194 137.214 194 138.945V146.055C194 147.786 194 148.651 193.97 149.312C193.944 149.894 193.903 150.367 193.851 150.663C193.793 151 193.717 151 193.565 151H177.435C177.283 151 177.207 151 177.149 150.663C177.097 150.367 177.056 149.894 177.03 149.312C177 148.651 177 147.786 177 146.055V138.945Z" fill="#F04B5D"/>
<path d="M201 138.945C201 137.214 201 136.349 201.03 135.688C201.056 135.106 201.097 134.633 201.149 134.337C201.207 134 201.283 134 201.435 134H217.565C217.717 134 217.793 134 217.851 134.337C217.903 134.633 217.944 135.106 217.97 135.688C218 136.349 218 137.214 218 138.945V146.055C218 147.786 218 148.651 217.97 149.312C217.944 149.894 217.903 150.367 217.851 150.663C217.793 151 217.717 151 217.565 151H201.435C201.283 151 201.207 151 201.149 150.663C201.097 150.367 201.056 149.894 201.03 149.312C201 148.651 201 147.786 201 146.055V138.945Z" fill="#E0E0E0"/>
<path d="M225 138.945C225 137.214 225 136.349 225.03 135.688C225.056 135.106 225.097 134.633 225.149 134.337C225.207 134 225.283 134 225.435 134H241.565C241.717 134 241.793 134 241.851 134.337C241.903 134.633 241.944 135.106 241.97 135.688C242 136.349 242 137.214 242 138.945V146.055C242 147.786 242 148.651 241.97 149.312C241.944 149.894 241.903 150.367 241.851 150.663C241.793 151 241.717 151 241.565 151H225.435C225.283 151 225.207 151 225.149 150.663C225.097 150.367 225.056 149.894 225.03 149.312C225 148.651 225 147.786 225 146.055V138.945Z" fill="#E0E0E0"/>
<path d="M250 138.945C250 137.214 250 136.349 250.03 135.688C250.056 135.106 250.097 134.633 250.149 134.337C250.207 134 250.283 134 250.435 134H266.565C266.717 134 266.793 134 266.851 134.337C266.903 134.633 266.944 135.106 266.97 135.688C267 136.349 267 137.214 267 138.945V146.055C267 147.786 267 148.651 266.97 149.312C266.944 149.894 266.903 150.367 266.851 150.663C266.793 151 266.717 151 266.565 151H250.435C250.283 151 250.207 151 250.149 150.663C250.097 150.367 250.056 149.894 250.03 149.312C250 148.651 250 147.786 250 146.055V138.945Z" fill="#E0E0E0"/>
<path d="M182 62.8727C182 62.5672 182 62.4145 182.01 62.2978C182.02 62.1952 182.034 62.1117 182.052 62.0595C182.073 62 182.1 62 182.154 62H187.846C187.9 62 187.927 62 187.948 62.0595C187.966 62.1117 187.98 62.1952 187.99 62.2978C188 62.4145 188 62.5672 188 62.8727V64.1273C188 64.4328 188 64.5855 187.99 64.7022C187.98 64.8048 187.966 64.8883 187.948 64.9405C187.927 65 187.9 65 187.846 65H182.154C182.1 65 182.073 65 182.052 64.9405C182.034 64.8883 182.02 64.8048 182.01 64.7022C182 64.5855 182 64.4328 182 64.1273V62.8727Z" fill="#424754"/>
<path d="M182 76.8727C182 76.5672 182 76.4145 182.01 76.2978C182.02 76.1952 182.034 76.1117 182.052 76.0595C182.073 76 182.1 76 182.154 76H187.846C187.9 76 187.927 76 187.948 76.0595C187.966 76.1117 187.98 76.1952 187.99 76.2978C188 76.4145 188 76.5672 188 76.8727V78.1273C188 78.4328 188 78.5855 187.99 78.7022C187.98 78.8048 187.966 78.8883 187.948 78.9405C187.927 79 187.9 79 187.846 79H182.154C182.1 79 182.073 79 182.052 78.9405C182.034 78.8883 182.02 78.8048 182.01 78.7022C182 78.5855 182 78.4328 182 78.1273V76.8727Z" fill="#424754"/>
<path d="M177 70.2909C177 70.1891 177 70.1382 177.028 70.0993C177.052 70.0651 177.092 70.0372 177.14 70.0198C177.195 70 177.266 70 177.41 70H192.59C192.734 70 192.805 70 192.86 70.0198C192.908 70.0372 192.948 70.0651 192.972 70.0993C193 70.1382 193 70.1891 193 70.2909V70.7091C193 70.8109 193 70.8618 192.972 70.9007C192.948 70.9349 192.908 70.9628 192.86 70.9802C192.805 71 192.734 71 192.59 71H177.41C177.266 71 177.195 71 177.14 70.9802C177.092 70.9628 177.052 70.9349 177.028 70.9007C177 70.8618 177 70.8109 177 70.7091V70.2909Z" fill="#97999D"/>
<path d="M197 69.2909C197 69.1891 197 69.1382 197.007 69.0993C197.013 69.0651 197.023 69.0372 197.035 69.0198C197.049 69 197.067 69 197.102 69H200.898C200.933 69 200.951 69 200.965 69.0198C200.977 69.0372 200.987 69.0651 200.993 69.0993C201 69.1382 201 69.1891 201 69.2909V69.7091C201 69.8109 201 69.8618 200.993 69.9007C200.987 69.9349 200.977 69.9628 200.965 69.9802C200.951 70 200.933 70 200.898 70H197.102C197.067 70 197.049 70 197.035 69.9802C197.023 69.9628 197.013 69.9349 197.007 69.9007C197 69.8618 197 69.8109 197 69.7091V69.2909Z" fill="#97999D"/>
<path d="M225 69.2909C225 69.1891 225 69.1382 225.007 69.0993C225.013 69.0651 225.023 69.0372 225.035 69.0198C225.049 69 225.067 69 225.102 69H228.898C228.933 69 228.951 69 228.965 69.0198C228.977 69.0372 228.987 69.0651 228.993 69.0993C229 69.1382 229 69.1891 229 69.2909V69.7091C229 69.8109 229 69.8618 228.993 69.9007C228.987 69.9349 228.977 69.9628 228.965 69.9802C228.951 70 228.933 70 228.898 70H225.102C225.067 70 225.049 70 225.035 69.9802C225.023 69.9628 225.013 69.9349 225.007 69.9007C225 69.8618 225 69.8109 225 69.7091V69.2909Z" fill="#97999D"/>
<path d="M197 71.2909C197 71.1891 197 71.1382 197.007 71.0993C197.013 71.0651 197.023 71.0372 197.035 71.0198C197.049 71 197.067 71 197.102 71H200.898C200.933 71 200.951 71 200.965 71.0198C200.977 71.0372 200.987 71.0651 200.993 71.0993C201 71.1382 201 71.1891 201 71.2909V71.7091C201 71.8109 201 71.8618 200.993 71.9007C200.987 71.9349 200.977 71.9628 200.965 71.9802C200.951 72 200.933 72 200.898 72H197.102C197.067 72 197.049 72 197.035 71.9802C197.023 71.9628 197.013 71.9349 197.007 71.9007C197 71.8618 197 71.8109 197 71.7091V71.2909Z" fill="#97999D"/>
<path d="M225 71.2909C225 71.1891 225 71.1382 225.007 71.0993C225.013 71.0651 225.023 71.0372 225.035 71.0198C225.049 71 225.067 71 225.102 71H228.898C228.933 71 228.951 71 228.965 71.0198C228.977 71.0372 228.987 71.0651 228.993 71.0993C229 71.1382 229 71.1891 229 71.2909V71.7091C229 71.8109 229 71.8618 228.993 71.9007C228.987 71.9349 228.977 71.9628 228.965 71.9802C228.951 72 228.933 72 228.898 72H225.102C225.067 72 225.049 72 225.035 71.9802C225.023 71.9628 225.013 71.9349 225.007 71.9007C225 71.8618 225 71.8109 225 71.7091V71.2909Z" fill="#97999D"/>
<path d="M182 98.8727C182 98.5672 182 98.4145 182.01 98.2978C182.02 98.1952 182.034 98.1117 182.052 98.0595C182.073 98 182.1 98 182.154 98H187.846C187.9 98 187.927 98 187.948 98.0595C187.966 98.1117 187.98 98.1952 187.99 98.2978C188 98.4145 188 98.5672 188 98.8727V100.127C188 100.433 188 100.585 187.99 100.702C187.98 100.805 187.966 100.888 187.948 100.941C187.927 101 187.9 101 187.846 101H182.154C182.1 101 182.073 101 182.052 100.941C182.034 100.888 182.02 100.805 182.01 100.702C182 100.585 182 100.433 182 100.127V98.8727Z" fill="#424754"/>
<path d="M197 98.2909C197 98.1891 197 98.1382 197.007 98.0993C197.013 98.0651 197.023 98.0372 197.035 98.0198C197.049 98 197.067 98 197.102 98H200.898C200.933 98 200.951 98 200.965 98.0198C200.977 98.0372 200.987 98.0651 200.993 98.0993C201 98.1382 201 98.1891 201 98.2909V98.7091C201 98.8109 201 98.8618 200.993 98.9007C200.987 98.9349 200.977 98.9628 200.965 98.9802C200.951 99 200.933 99 200.898 99H197.102C197.067 99 197.049 99 197.035 98.9802C197.023 98.9628 197.013 98.9349 197.007 98.9007C197 98.8618 197 98.8109 197 98.7091V98.2909Z" fill="#97999D"/>
<path d="M225 98.2909C225 98.1891 225 98.1382 225.007 98.0993C225.013 98.0651 225.023 98.0372 225.035 98.0198C225.049 98 225.067 98 225.102 98H228.898C228.933 98 228.951 98 228.965 98.0198C228.977 98.0372 228.987 98.0651 228.993 98.0993C229 98.1382 229 98.1891 229 98.2909V98.7091C229 98.8109 229 98.8618 228.993 98.9007C228.987 98.9349 228.977 98.9628 228.965 98.9802C228.951 99 228.933 99 228.898 99H225.102C225.067 99 225.049 99 225.035 98.9802C225.023 98.9628 225.013 98.9349 225.007 98.9007C225 98.8618 225 98.8109 225 98.7091V98.2909Z" fill="#97999D"/>
<path d="M197 100.291C197 100.189 197 100.138 197.007 100.099C197.013 100.065 197.023 100.037 197.035 100.02C197.049 100 197.067 100 197.102 100H200.898C200.933 100 200.951 100 200.965 100.02C200.977 100.037 200.987 100.065 200.993 100.099C201 100.138 201 100.189 201 100.291V100.709C201 100.811 201 100.862 200.993 100.901C200.987 100.935 200.977 100.963 200.965 100.98C200.951 101 200.933 101 200.898 101H197.102C197.067 101 197.049 101 197.035 100.98C197.023 100.963 197.013 100.935 197.007 100.901C197 100.862 197 100.811 197 100.709V100.291Z" fill="#97999D"/>
<path d="M225 100.291C225 100.189 225 100.138 225.007 100.099C225.013 100.065 225.023 100.037 225.035 100.02C225.049 100 225.067 100 225.102 100H228.898C228.933 100 228.951 100 228.965 100.02C228.977 100.037 228.987 100.065 228.993 100.099C229 100.138 229 100.189 229 100.291V100.709C229 100.811 229 100.862 228.993 100.901C228.987 100.935 228.977 100.963 228.965 100.98C228.951 101 228.933 101 228.898 101H225.102C225.067 101 225.049 101 225.035 100.98C225.023 100.963 225.013 100.935 225.007 100.901C225 100.862 225 100.811 225 100.709V100.291Z" fill="#97999D"/>
<path d="M210 62.8727C210 62.5672 210 62.4145 210.01 62.2978C210.02 62.1952 210.034 62.1117 210.052 62.0595C210.073 62 210.1 62 210.154 62H215.846C215.9 62 215.927 62 215.948 62.0595C215.966 62.1117 215.98 62.1952 215.99 62.2978C216 62.4145 216 62.5672 216 62.8727V64.1273C216 64.4328 216 64.5855 215.99 64.7022C215.98 64.8048 215.966 64.8883 215.948 64.9405C215.927 65 215.9 65 215.846 65H210.154C210.1 65 210.073 65 210.052 64.9405C210.034 64.8883 210.02 64.8048 210.01 64.7022C210 64.5855 210 64.4328 210 64.1273V62.8727Z" fill="#424754"/>
<path d="M210 76.8727C210 76.5672 210 76.4145 210.01 76.2978C210.02 76.1952 210.034 76.1117 210.052 76.0595C210.073 76 210.1 76 210.154 76H215.846C215.9 76 215.927 76 215.948 76.0595C215.966 76.1117 215.98 76.1952 215.99 76.2978C216 76.4145 216 76.5672 216 76.8727V78.1273C216 78.4328 216 78.5855 215.99 78.7022C215.98 78.8048 215.966 78.8883 215.948 78.9405C215.927 79 215.9 79 215.846 79H210.154C210.1 79 210.073 79 210.052 78.9405C210.034 78.8883 210.02 78.8048 210.01 78.7022C210 78.5855 210 78.4328 210 78.1273V76.8727Z" fill="#424754"/>
<path d="M205 70.2909C205 70.1891 205 70.1382 205.028 70.0993C205.052 70.0651 205.092 70.0372 205.14 70.0198C205.195 70 205.266 70 205.41 70H220.59C220.734 70 220.805 70 220.86 70.0198C220.908 70.0372 220.948 70.0651 220.972 70.0993C221 70.1382 221 70.1891 221 70.2909V70.7091C221 70.8109 221 70.8618 220.972 70.9007C220.948 70.9349 220.908 70.9628 220.86 70.9802C220.805 71 220.734 71 220.59 71H205.41C205.266 71 205.195 71 205.14 70.9802C205.092 70.9628 205.052 70.9349 205.028 70.9007C205 70.8618 205 70.8109 205 70.7091V70.2909Z" fill="#97999D"/>
<path d="M210 91.8727C210 91.5672 210 91.4145 210.01 91.2978C210.02 91.1952 210.034 91.1117 210.052 91.0595C210.073 91 210.1 91 210.154 91H215.846C215.9 91 215.927 91 215.948 91.0595C215.966 91.1117 215.98 91.1952 215.99 91.2978C216 91.4145 216 91.5672 216 91.8727V93.1273C216 93.4328 216 93.5855 215.99 93.7022C215.98 93.8048 215.966 93.8883 215.948 93.9405C215.927 94 215.9 94 215.846 94H210.154C210.1 94 210.073 94 210.052 93.9405C210.034 93.8883 210.02 93.8048 210.01 93.7022C210 93.5855 210 93.4328 210 93.1273V91.8727Z" fill="#424754"/>
<path d="M210 105.873C210 105.567 210 105.415 210.01 105.298C210.02 105.195 210.034 105.112 210.052 105.059C210.073 105 210.1 105 210.154 105H215.846C215.9 105 215.927 105 215.948 105.059C215.966 105.112 215.98 105.195 215.99 105.298C216 105.415 216 105.567 216 105.873V107.127C216 107.433 216 107.585 215.99 107.702C215.98 107.805 215.966 107.888 215.948 107.941C215.927 108 215.9 108 215.846 108H210.154C210.1 108 210.073 108 210.052 107.941C210.034 107.888 210.02 107.805 210.01 107.702C210 107.585 210 107.433 210 107.127V105.873Z" fill="#424754"/>
<path d="M205 99.2909C205 99.1891 205 99.1382 205.028 99.0993C205.052 99.0651 205.092 99.0372 205.14 99.0198C205.195 99 205.266 99 205.41 99H220.59C220.734 99 220.805 99 220.86 99.0198C220.908 99.0372 220.948 99.0651 220.972 99.0993C221 99.1382 221 99.1891 221 99.2909V99.7091C221 99.8109 221 99.8618 220.972 99.9007C220.948 99.9349 220.908 99.9628 220.86 99.9802C220.805 100 220.734 100 220.59 100H205.41C205.266 100 205.195 100 205.14 99.9802C205.092 99.9628 205.052 99.9349 205.028 99.9007C205 99.8618 205 99.8109 205 99.7091V99.2909Z" fill="#97999D"/>
<path d="M238 62.8727C238 62.5672 238 62.4145 238.01 62.2978C238.02 62.1952 238.034 62.1117 238.052 62.0595C238.073 62 238.1 62 238.154 62H243.846C243.9 62 243.927 62 243.948 62.0595C243.966 62.1117 243.98 62.1952 243.99 62.2978C244 62.4145 244 62.5672 244 62.8727V64.1273C244 64.4328 244 64.5855 243.99 64.7022C243.98 64.8048 243.966 64.8883 243.948 64.9405C243.927 65 243.9 65 243.846 65H238.154C238.1 65 238.073 65 238.052 64.9405C238.034 64.8883 238.02 64.8048 238.01 64.7022C238 64.5855 238 64.4328 238 64.1273V62.8727Z" fill="#424754"/>
<path d="M238 76.8727C238 76.5672 238 76.4145 238.01 76.2978C238.02 76.1952 238.034 76.1117 238.052 76.0595C238.073 76 238.1 76 238.154 76H243.846C243.9 76 243.927 76 243.948 76.0595C243.966 76.1117 243.98 76.1952 243.99 76.2978C244 76.4145 244 76.5672 244 76.8727V78.1273C244 78.4328 244 78.5855 243.99 78.7022C243.98 78.8048 243.966 78.8883 243.948 78.9405C243.927 79 243.9 79 243.846 79H238.154C238.1 79 238.073 79 238.052 78.9405C238.034 78.8883 238.02 78.8048 238.01 78.7022C238 78.5855 238 78.4328 238 78.1273V76.8727Z" fill="#424754"/>
<path d="M233 70.2909C233 70.1891 233 70.1382 233.028 70.0993C233.052 70.0651 233.092 70.0372 233.14 70.0198C233.195 70 233.266 70 233.41 70H248.59C248.734 70 248.805 70 248.86 70.0198C248.908 70.0372 248.948 70.0651 248.972 70.0993C249 70.1382 249 70.1891 249 70.2909V70.7091C249 70.8109 249 70.8618 248.972 70.9007C248.948 70.9349 248.908 70.9628 248.86 70.9802C248.805 71 248.734 71 248.59 71H233.41C233.266 71 233.195 71 233.14 70.9802C233.092 70.9628 233.052 70.9349 233.028 70.9007C233 70.8618 233 70.8109 233 70.7091V70.2909Z" fill="#97999D"/>
<path d="M238 91.8727C238 91.5672 238 91.4145 238.01 91.2978C238.02 91.1952 238.034 91.1117 238.052 91.0595C238.073 91 238.1 91 238.154 91H243.846C243.9 91 243.927 91 243.948 91.0595C243.966 91.1117 243.98 91.1952 243.99 91.2978C244 91.4145 244 91.5672 244 91.8727V93.1273C244 93.4328 244 93.5855 243.99 93.7022C243.98 93.8048 243.966 93.8883 243.948 93.9405C243.927 94 243.9 94 243.846 94H238.154C238.1 94 238.073 94 238.052 93.9405C238.034 93.8883 238.02 93.8048 238.01 93.7022C238 93.5855 238 93.4328 238 93.1273V91.8727Z" fill="#424754"/>
<path d="M243 105.873C243 105.567 243 105.415 243.01 105.298C243.02 105.195 243.034 105.112 243.052 105.059C243.073 105 243.1 105 243.154 105H248.846C248.9 105 248.927 105 248.948 105.059C248.966 105.112 248.98 105.195 248.99 105.298C249 105.415 249 105.567 249 105.873V107.127C249 107.433 249 107.585 248.99 107.702C248.98 107.805 248.966 107.888 248.948 107.941C248.927 108 248.9 108 248.846 108H243.154C243.1 108 243.073 108 243.052 107.941C243.034 107.888 243.02 107.805 243.01 107.702C243 107.585 243 107.433 243 107.127V105.873Z" fill="#424754"/>
<path d="M233 105.873C233 105.567 233 105.415 233.01 105.298C233.02 105.195 233.034 105.112 233.052 105.059C233.073 105 233.1 105 233.154 105H238.846C238.9 105 238.927 105 238.948 105.059C238.966 105.112 238.98 105.195 238.99 105.298C239 105.415 239 105.567 239 105.873V107.127C239 107.433 239 107.585 238.99 107.702C238.98 107.805 238.966 107.888 238.948 107.941C238.927 108 238.9 108 238.846 108H233.154C233.1 108 233.073 108 233.052 107.941C233.034 107.888 233.02 107.805 233.01 107.702C233 107.585 233 107.433 233 107.127V105.873Z" fill="#424754"/>
<path d="M233 99.2909C233 99.1891 233 99.1382 233.028 99.0993C233.052 99.0651 233.092 99.0372 233.14 99.0198C233.195 99 233.266 99 233.41 99H248.59C248.734 99 248.805 99 248.86 99.0198C248.908 99.0372 248.948 99.0651 248.972 99.0993C249 99.1382 249 99.1891 249 99.2909V99.7091C249 99.8109 249 99.8618 248.972 99.9007C248.948 99.9349 248.908 99.9628 248.86 99.9802C248.805 100 248.734 100 248.59 100H233.41C233.266 100 233.195 100 233.14 99.9802C233.092 99.9628 233.052 99.9349 233.028 99.9007C233 99.8618 233 99.8109 233 99.7091V99.2909Z" fill="#97999D"/>
<path d="M383.728 164.163H377.465C377.465 164.163 370.576 169.173 371.202 174.809C371.829 180.445 359.93 229.294 359.93 235.557C359.93 241.819 357.425 243.698 357.425 247.456C357.425 251.213 358.677 253.718 357.425 255.597C356.172 257.476 353.667 268.749 354.293 273.132C354.657 276.044 354.657 278.989 354.293 281.9H369.95C369.95 281.9 381.223 243.698 383.728 241.819C386.233 239.941 387.485 236.809 387.485 234.93C387.485 233.052 386.233 233.052 389.364 230.547C392.495 228.041 390.616 216.769 390.616 216.769L395 205.496L383.728 164.163Z" fill="#D6D3E8"/>
<path d="M296.051 262.799C296.051 262.799 290.415 290.355 299.809 287.85C309.202 285.345 305.445 261.547 305.445 261.547L296.051 262.799Z" fill="#A0616A"/>
<path d="M316.091 255.284C316.091 255.284 308.576 265.304 308.576 270.941C308.576 276.577 306.071 326.678 306.071 326.678C306.071 326.678 292.293 390.557 296.051 394.314C299.808 398.072 311.081 403.708 312.96 401.83C314.839 399.951 327.99 331.688 327.99 331.688L343.647 289.728L358.051 349.85C358.051 349.85 357.425 401.83 359.93 402.456C362.435 403.082 363.687 403.708 362.435 406.213C361.182 408.719 359.303 413.729 359.303 413.729C359.303 413.729 374.96 417.486 378.091 414.981C381.223 412.476 381.849 351.729 378.091 330.436C374.334 309.143 378.717 260.294 378.717 260.294L316.091 255.284Z" fill="#2F2E41"/>
<path d="M338.95 134.102C349.326 134.102 357.738 125.69 357.738 115.314C357.738 104.938 349.326 96.5261 338.95 96.5261C328.574 96.5261 320.162 104.938 320.162 115.314C320.162 125.69 328.574 134.102 338.95 134.102Z" fill="#A0616A"/>
<path d="M333.313 127.213C333.313 127.213 335.818 140.365 333.313 144.122C330.808 147.88 367.132 145.375 367.132 145.375C367.132 145.375 349.596 125.334 351.475 121.577C353.354 117.819 333.313 127.213 333.313 127.213Z" fill="#A0616A"/>
<path d="M317.344 148.819C317.344 148.819 329.869 132.536 345.526 135.668C349.753 136.513 353.615 137.358 357 138.142C368.93 140.904 378.85 149.406 382.926 160.953C383.983 163.947 384.511 166.824 384.041 169.173C382.162 178.567 383.102 252.779 383.102 252.779C383.102 252.779 378.092 254.658 378.718 257.163C379.344 259.668 383.728 262.799 379.344 262.799C374.96 262.799 308.576 260.294 309.829 258.415C311.082 256.536 317.344 148.819 317.344 148.819Z" fill="#D0CDE1"/>
<path d="M323.606 148.819H317.343C317.343 148.819 310.454 153.829 311.08 159.466C311.707 165.102 299.807 213.951 299.807 220.213C299.807 226.476 297.302 228.355 297.302 232.112C297.302 235.87 298.555 238.375 297.302 240.254C296.05 242.132 293.545 253.405 294.171 257.789C294.535 260.7 294.535 263.645 294.171 266.557H309.828C309.828 266.557 321.1 228.355 323.606 226.476C326.111 224.597 327.363 221.466 327.363 219.587C327.363 217.708 326.111 217.708 329.242 215.203C332.373 212.698 330.494 201.425 330.494 201.425L334.878 190.152L323.606 148.819Z" fill="#D0CDE1"/>
<path opacity="0.1" d="M314.476 257.589L333.313 216.142L323.895 260.221L314.476 257.589Z" fill="black"/>
<path d="M332.395 86.9022L332.405 85.3519C333.7 85.1872 335.012 85.2332 336.292 85.4881C336.306 84.5522 336.112 83.625 335.723 82.7734C337.013 82.9431 338.268 83.3165 339.44 83.8796L339.872 81L351.089 84.9311C355.115 86.3422 359.371 87.9134 361.984 91.2861C364.897 95.0461 365.109 100.307 363.99 104.931C362.872 109.554 360.597 113.802 358.899 118.245C358.28 120.142 357.482 121.976 356.516 123.722C353.126 129.188 345.472 131.138 339.474 128.816C337.261 127.959 335.17 126.531 334.049 124.439C333.475 123.141 332.986 121.807 332.586 120.446C331.544 117.685 330.022 111.908 327.492 110.388C326.379 109.72 324.681 112.591 323.719 111.718C321.249 109.474 321.234 105.552 322.212 102.361C323.134 99.1628 324.286 96.0357 325.658 93.0039C326.247 91.7805 332.397 86.7162 332.395 86.9022Z" fill="#2F2E41"/>
<rect x="62" y="69" width="82" height="97" rx="2" fill="white"/>
<rect x="137.143" y="129" width="20" height="20" rx="2" transform="rotate(45 137.143 129)" fill="white"/>
<path d="M73 77.1636C73 76.7563 73 76.5527 73.0244 76.3971C73.0459 76.2603 73.0802 76.149 73.1223 76.0793C73.1702 76 73.2329 76 73.3584 76H86.6416C86.7671 76 86.8298 76 86.8777 76.0793C86.9198 76.149 86.9541 76.2603 86.9756 76.3971C87 76.5527 87 76.7563 87 77.1636V78.8364C87 79.2437 87 79.4473 86.9756 79.6029C86.9541 79.7397 86.9198 79.851 86.8777 79.9207C86.8298 80 86.7671 80 86.6416 80H73.3584C73.2329 80 73.1702 80 73.1223 79.9207C73.0802 79.851 73.0459 79.7397 73.0244 79.6029C73 79.4473 73 79.2437 73 78.8364V77.1636Z" fill="#424754"/>
<g filter="url(#filter0_d)">
<path d="M82.7255 110.29C82.2517 110.086 81.7008 110.305 81.5166 110.786C79.8755 115.079 79.5553 119.772 80.6094 124.26C81.7348 129.051 84.3673 133.354 88.12 136.538C91.8727 139.722 96.5477 141.618 101.458 141.948C106.368 142.278 111.255 141.024 115.4 138.371C119.545 135.718 122.729 131.805 124.486 127.208C126.242 122.61 126.477 117.571 125.157 112.83C123.837 108.089 121.031 103.896 117.151 100.868C113.517 98.0324 109.121 96.358 104.536 96.0513C104.021 96.0169 103.592 96.4258 103.578 96.9412C103.565 97.4567 103.972 97.8833 104.487 97.9196C108.672 98.2147 112.683 99.7502 116.002 102.341C119.567 105.123 122.145 108.975 123.358 113.331C124.571 117.687 124.355 122.317 122.741 126.541C121.128 130.765 118.202 134.361 114.393 136.798C110.585 139.236 106.095 140.388 101.583 140.085C97.0716 139.782 92.7761 138.04 89.3281 135.114C85.88 132.189 83.4613 128.235 82.4272 123.833C81.4645 119.734 81.7494 115.449 83.2338 111.524C83.4162 111.042 83.1993 110.493 82.7255 110.29Z" fill="#27AE60"/>
</g>
<path d="M96.0566 117.603C96.0566 117.029 96.0566 116.742 96.0801 116.522C96.1007 116.329 96.1337 116.172 96.1742 116.074C96.2202 115.962 96.2805 115.962 96.401 115.962H109.165C109.286 115.962 109.346 115.962 109.392 116.074C109.432 116.172 109.465 116.329 109.486 116.522C109.509 116.742 109.509 117.029 109.509 117.603V119.963C109.509 120.537 109.509 120.824 109.486 121.044C109.465 121.237 109.432 121.394 109.392 121.492C109.346 121.604 109.286 121.604 109.165 121.604H96.401C96.2805 121.604 96.2202 121.604 96.1742 121.492C96.1337 121.394 96.1007 121.237 96.0801 121.044C96.0566 120.824 96.0566 120.537 96.0566 119.963V117.603Z" fill="#424754"/>
<path d="M85.6416 148.273C85.6416 148.052 85.6416 147.941 85.7014 147.857C85.754 147.783 85.8379 147.722 85.9411 147.685C86.0584 147.642 86.212 147.642 86.5192 147.642H119.047C119.354 147.642 119.508 147.642 119.625 147.685C119.728 147.722 119.812 147.783 119.865 147.857C119.925 147.941 119.925 148.052 119.925 148.273V149.18C119.925 149.401 119.925 149.512 119.865 149.596C119.812 149.67 119.728 149.731 119.625 149.768C119.508 149.811 119.354 149.811 119.047 149.811H86.5192C86.212 149.811 86.0584 149.811 85.9411 149.768C85.8379 149.731 85.754 149.67 85.7014 149.596C85.6416 149.512 85.6416 149.401 85.6416 149.18V148.273Z" fill="#97999D"/>
<path d="M236 220.929H194V273.506H236V220.929Z" fill="#3F3D56"/>
<path d="M222 233H200V236H222V233Z" fill="white"/>
<path d="M230 244H200V246H230V244Z" fill="white"/>
<path d="M230 249H200V251H230V249Z" fill="white"/>
<path d="M230 254H200V256H230V254Z" fill="white"/>
<path d="M230 259H200V261H230V259Z" fill="white"/>
<path d="M218.036 220.183V218.82C218.036 218.072 217.738 217.355 217.209 216.826C216.68 216.297 215.962 216 215.214 216C214.466 216 213.749 216.297 213.219 216.826C212.69 217.355 212.393 218.072 212.392 218.82V220.183H207.04V223.199H223.389V220.183H218.036ZM215.214 216.777C215.542 216.777 215.861 216.874 216.133 217.056C216.405 217.237 216.617 217.496 216.743 217.798C216.868 218.1 216.901 218.433 216.837 218.754C216.773 219.075 216.615 219.37 216.384 219.601C216.153 219.832 215.858 219.99 215.537 220.054C215.216 220.117 214.884 220.085 214.581 219.96C214.279 219.834 214.021 219.622 213.839 219.35C213.657 219.078 213.56 218.758 213.56 218.431C213.56 218.214 213.603 217.999 213.686 217.798C213.769 217.597 213.891 217.415 214.045 217.261C214.198 217.108 214.381 216.986 214.581 216.903C214.782 216.82 214.997 216.777 215.214 216.777Z" fill="#F04B5D"/>
</g>
<defs>
<filter id="filter0_d" x="60" y="80.0493" width="86" height="85.9507" filterUnits="userSpaceOnUse" color-interpolation-filters="sRGB">
<feFlood flood-opacity="0" result="BackgroundImageFix"/>
<feColorMatrix in="SourceAlpha" type="matrix" values="0 0 0 0 0 0 0 0 0 0 0 0 0 0 0 0 0 0 127 0"/>
<feOffset dy="4"/>
<feGaussianBlur stdDeviation="10"/>
<feColorMatrix type="matrix" values="0 0 0 0 0 0 0 0 0 0 0 0 0 0 0 0 0 0 0.19 0"/>
<feBlend mode="normal" in2="BackgroundImageFix" result="effect1_dropShadow"/>
<feBlend mode="normal" in="SourceGraphic" in2="effect1_dropShadow" result="shape"/>
</filter>
<clipPath id="clip0">
<rect width="509" height="298" fill="white"/>
</clipPath>
</defs>
</svg>
