<svg width="1034" height="267" viewBox="0 0 1034 267" fill="none" xmlns="http://www.w3.org/2000/svg">
<path d="M6.732 73H13.824L17.064 60.004C17.46 58.348 17.568 56.98 17.568 56.98H17.64C17.64 56.98 17.748 58.348 18.144 60.004L21.384 73H28.404L34.92 47.26H28.404L24.876 63.352C24.552 64.936 24.552 66.052 24.552 66.052H24.48C24.48 66.052 24.444 64.936 24.048 63.352L20.196 47.26H15.12L11.16 63.352C10.764 64.936 10.728 66.052 10.728 66.052H10.656C10.656 66.052 10.656 64.936 10.332 63.352L7.092 47.26H0.468L6.732 73ZM34.8995 63.712C34.8995 68.644 38.4635 73.432 45.0875 73.432C47.9315 73.432 50.9915 72.46 53.0075 70.732L50.7035 66.376C49.1915 67.384 47.4275 68.248 45.5915 68.248C43.6115 68.248 41.7395 67.204 41.2715 64.936H52.9715C53.0435 64.288 53.1155 63.64 53.1155 62.992C53.1155 57.844 50.0195 54.028 44.5475 54.028C38.5715 54.028 34.8995 58.276 34.8995 63.712ZM41.4155 61.372C41.7395 59.896 42.6035 58.6 44.4035 58.6C45.9875 58.6 46.9595 59.86 46.9595 61.372H41.4155ZM65.0177 73H71.2457V65.152C71.2457 62.596 71.9657 59.68 74.8097 59.68C75.9977 59.68 76.2497 60.652 76.2497 62.02V73H82.4777V65.152C82.4777 62.38 83.3417 59.68 86.0417 59.68C87.2297 59.68 87.4817 60.652 87.4817 62.02V73H93.7097V60.976C93.7097 55.864 91.0817 54.028 87.6977 54.028C84.9257 54.028 82.7297 55.612 81.7577 57.16H81.6857C80.7137 55.072 78.8417 54.028 76.5017 54.028C73.5857 54.028 71.8577 55.936 70.9937 57.232H70.9217C70.9217 57.232 70.9937 56.692 70.9937 56.08V54.46H65.0177V73ZM96.7042 63.784C96.7042 69.58 101.384 73.432 107.216 73.432C113.048 73.432 117.728 69.58 117.728 63.784C117.728 57.952 113.048 54.028 107.18 54.028C101.384 54.028 96.7042 57.952 96.7042 63.784ZM103.004 63.784C103.004 60.976 104.948 59.212 107.216 59.212C109.484 59.212 111.428 60.976 111.428 63.784C111.428 66.556 109.484 68.248 107.216 68.248C104.948 68.248 103.004 66.556 103.004 63.784ZM120.846 73H127.074V64.612C127.074 61.984 128.334 59.68 131.106 59.68C132.474 59.68 133.158 60.4 133.158 62.128V73H139.386V60.976C139.386 55.756 136.47 54.028 132.726 54.028C129.45 54.028 127.686 55.792 126.822 57.232H126.75C126.75 57.232 126.822 56.692 126.822 56.08V54.46H120.846V73ZM143.453 52.12H149.537V47.26H143.453V52.12ZM143.381 73H149.609V54.46H143.381V73ZM154.867 66.16C154.867 72.388 160.591 73.18 163.543 73.18C164.263 73.18 164.767 73.108 165.235 73.072V67.672C164.839 67.708 164.623 67.708 164.407 67.708C163.219 67.708 161.095 67.42 161.095 65.332V59.644H164.983V54.784H161.095V49.456H155.047V54.784H152.491V59.644H154.867V66.16ZM167.403 63.784C167.403 69.58 172.083 73.432 177.915 73.432C183.747 73.432 188.427 69.58 188.427 63.784C188.427 57.952 183.747 54.028 177.879 54.028C172.083 54.028 167.403 57.952 167.403 63.784ZM173.703 63.784C173.703 60.976 175.647 59.212 177.915 59.212C180.183 59.212 182.127 60.976 182.127 63.784C182.127 66.556 180.183 68.248 177.915 68.248C175.647 68.248 173.703 66.556 173.703 63.784ZM191.545 73H197.773V65.8C197.773 62.416 199.429 60.22 202.885 60.22C203.317 60.22 203.929 60.256 204.145 60.328V54.208C203.929 54.172 203.677 54.136 203.425 54.136C200.653 54.136 198.313 56.224 197.521 58.744H197.449C197.449 58.744 197.521 58.204 197.521 57.592V54.46H191.545V73ZM214.401 74.692L212.421 79.264C212.421 79.264 214.293 80.56 216.741 80.56C219.693 80.56 222.933 79.12 224.481 74.98L232.077 54.46H225.273L222.933 63.1C222.681 64.108 222.321 65.872 222.321 65.872H222.249C222.249 65.872 221.889 64 221.565 62.992L218.829 54.46H211.773L219.657 72.64L219.297 73.504C218.649 75.088 217.317 75.376 216.309 75.376C215.409 75.376 214.401 74.692 214.401 74.692ZM232.724 63.784C232.724 69.58 237.404 73.432 243.236 73.432C249.068 73.432 253.748 69.58 253.748 63.784C253.748 57.952 249.068 54.028 243.2 54.028C237.404 54.028 232.724 57.952 232.724 63.784ZM239.024 63.784C239.024 60.976 240.968 59.212 243.236 59.212C245.504 59.212 247.448 60.976 247.448 63.784C247.448 66.556 245.504 68.248 243.236 68.248C240.968 68.248 239.024 66.556 239.024 63.784ZM256.685 66.484C256.685 71.704 259.601 73.432 263.273 73.432C265.757 73.432 268.061 72.208 269.069 70.228H269.141C269.141 70.228 269.069 70.768 269.069 71.38V73H275.045V54.46H268.817V62.668C268.817 65.44 267.557 67.78 264.893 67.78C263.597 67.78 262.913 67.06 262.913 65.332V54.46H256.685V66.484ZM279.225 73H285.453V65.8C285.453 62.416 287.109 60.22 290.565 60.22C290.997 60.22 291.609 60.256 291.825 60.328V54.208C291.609 54.172 291.357 54.136 291.105 54.136C288.333 54.136 285.993 56.224 285.201 58.744H285.129C285.129 58.744 285.201 58.204 285.201 57.592V54.46H279.225V73ZM302.85 80.2H309.078V73.252C309.078 72.316 309.006 71.668 309.006 71.668H309.078C310.41 72.82 312.066 73.432 313.794 73.432C318.726 73.432 322.434 69.616 322.434 63.748C322.434 57.988 319.122 54.028 314.082 54.028C311.85 54.028 309.726 54.892 308.466 56.584H308.394C308.394 56.584 308.466 56.008 308.466 55.396V54.46H302.85V80.2ZM308.898 63.856C308.898 60.652 310.662 59.284 312.534 59.284C314.694 59.284 316.17 61.084 316.17 63.856C316.17 66.7 314.478 68.284 312.534 68.284C310.086 68.284 308.898 66.088 308.898 63.856ZM325.631 73H331.859V65.8C331.859 62.416 333.515 60.22 336.971 60.22C337.403 60.22 338.015 60.256 338.231 60.328V54.208C338.015 54.172 337.763 54.136 337.511 54.136C334.739 54.136 332.399 56.224 331.607 58.744H331.535C331.535 58.744 331.607 58.204 331.607 57.592V54.46H325.631V73ZM339.774 63.784C339.774 69.58 344.454 73.432 350.286 73.432C356.118 73.432 360.798 69.58 360.798 63.784C360.798 57.952 356.118 54.028 350.25 54.028C344.454 54.028 339.774 57.952 339.774 63.784ZM346.074 63.784C346.074 60.976 348.018 59.212 350.286 59.212C352.554 59.212 354.498 60.976 354.498 63.784C354.498 66.556 352.554 68.248 350.286 68.248C348.018 68.248 346.074 66.556 346.074 63.784ZM366.508 74.188L364.744 78.904C366.544 79.84 369.28 80.56 371.764 80.56C376.84 80.56 382.24 78.076 382.24 71.308V54.46H376.408V55.396C376.408 55.612 376.444 55.828 376.444 55.828H376.336C375.04 54.532 373.06 54.028 371.296 54.028C365.68 54.028 362.98 58.42 362.98 63.136C362.98 67.888 365.752 72.46 371.332 72.46C373.492 72.46 374.896 71.812 375.976 70.516H376.048C376.048 70.516 376.012 70.984 376.012 71.2V71.812C376.012 74.548 373.96 75.376 371.728 75.376C369.856 75.376 368.056 74.944 366.508 74.188ZM369.244 62.92C369.244 60.796 370.36 59.212 372.556 59.212C374.428 59.212 376.156 59.932 376.156 63.208C376.156 66.448 374.428 67.276 372.808 67.276C370.324 67.276 369.244 65.224 369.244 62.92ZM386.416 73H392.644V65.8C392.644 62.416 394.3 60.22 397.756 60.22C398.188 60.22 398.8 60.256 399.016 60.328V54.208C398.8 54.172 398.548 54.136 398.296 54.136C395.524 54.136 393.184 56.224 392.392 58.744H392.32C392.32 58.744 392.392 58.204 392.392 57.592V54.46H386.416V73ZM400.7 63.712C400.7 68.644 404.264 73.432 410.888 73.432C413.732 73.432 416.792 72.46 418.808 70.732L416.504 66.376C414.992 67.384 413.228 68.248 411.392 68.248C409.412 68.248 407.54 67.204 407.072 64.936H418.772C418.844 64.288 418.916 63.64 418.916 62.992C418.916 57.844 415.82 54.028 410.348 54.028C404.372 54.028 400.7 58.276 400.7 63.712ZM407.216 61.372C407.54 59.896 408.404 58.6 410.204 58.6C411.788 58.6 412.76 59.86 412.76 61.372H407.216ZM420.766 70.696C422.818 72.532 425.662 73.432 428.326 73.432C433.078 73.432 435.958 70.804 435.958 67.348C435.958 61.336 427.282 61.804 427.282 59.86C427.282 59.356 427.678 58.96 429.01 58.96C430.594 58.96 432.61 59.608 433.69 60.472L435.814 56.152C433.942 54.64 431.566 54.028 429.19 54.028C424.906 54.028 421.486 56.08 421.486 59.896C421.486 65.98 430.162 65.548 430.162 67.528C430.162 68.104 429.73 68.5 428.47 68.5C426.706 68.5 424.798 67.78 423.43 66.628L420.766 70.696ZM437.711 70.696C439.763 72.532 442.607 73.432 445.271 73.432C450.023 73.432 452.903 70.804 452.903 67.348C452.903 61.336 444.227 61.804 444.227 59.86C444.227 59.356 444.623 58.96 445.955 58.96C447.539 58.96 449.555 59.608 450.635 60.472L452.759 56.152C450.887 54.64 448.511 54.028 446.135 54.028C441.851 54.028 438.431 56.08 438.431 59.896C438.431 65.98 447.107 65.548 447.107 67.528C447.107 68.104 446.675 68.5 445.415 68.5C443.651 68.5 441.743 67.78 440.375 66.628L437.711 70.696ZM0.792 109.78C0.792 112.984 3.276 115.432 6.84 115.432C8.964 115.432 11.124 114.46 12.348 112.732H12.42C12.42 112.732 12.348 113.272 12.348 113.884V115H18.036V103.588C18.036 98.872 14.868 96.028 9.756 96.028C6.732 96.028 3.492 97.216 1.908 98.44L4.068 102.832C5.544 101.86 7.38 101.068 9.18 101.068C10.548 101.068 11.808 101.572 11.808 103.12V103.444H11.268C6.696 103.444 0.792 104.812 0.792 109.78ZM6.948 109.204C6.948 107.512 9.396 107.008 11.304 107.008H11.88V107.512C11.88 109.024 10.512 110.788 8.712 110.788C7.56 110.788 6.948 110.068 6.948 109.204ZM21.9864 115H28.2144V106.612C28.2144 103.984 29.4744 101.68 32.2464 101.68C33.6144 101.68 34.2984 102.4 34.2984 104.128V115H40.5264V102.976C40.5264 97.756 37.6104 96.028 33.8664 96.028C30.5904 96.028 28.8264 97.792 27.9624 99.232H27.8904C27.8904 99.232 27.9624 98.692 27.9624 98.08V96.46H21.9864V115ZM43.5496 105.712C43.5496 111.472 46.8616 115.432 51.9016 115.432C54.0976 115.432 56.1136 114.496 57.2656 112.732H57.3376C57.3376 112.732 57.3016 113.2 57.3016 113.776V115H63.1336V89.26H56.9056V96.676C56.9056 97.144 56.9416 97.504 56.9416 97.504H56.8696C55.6456 96.28 53.6656 96.028 52.0096 96.028C47.0776 96.028 43.5496 99.844 43.5496 105.712ZM49.8136 105.712C49.8136 102.868 51.5056 101.284 53.4496 101.284C55.8976 101.284 57.0856 103.48 57.0856 105.712C57.0856 108.916 55.3216 110.284 53.4496 110.284C51.2896 110.284 49.8136 108.484 49.8136 105.712ZM75.0068 109.78C75.0068 112.984 77.4908 115.432 81.0548 115.432C83.1788 115.432 85.3388 114.46 86.5628 112.732H86.6348C86.6348 112.732 86.5628 113.272 86.5628 113.884V115H92.2508V103.588C92.2508 98.872 89.0828 96.028 83.9708 96.028C80.9468 96.028 77.7068 97.216 76.1228 98.44L78.2828 102.832C79.7588 101.86 81.5948 101.068 83.3948 101.068C84.7628 101.068 86.0228 101.572 86.0228 103.12V103.444H85.4828C80.9108 103.444 75.0068 104.812 75.0068 109.78ZM81.1628 109.204C81.1628 107.512 83.6108 107.008 85.5188 107.008H86.0948V107.512C86.0948 109.024 84.7268 110.788 82.9268 110.788C81.7748 110.788 81.1628 110.068 81.1628 109.204ZM96.1653 108.16C96.1653 114.388 99.6933 115.18 103.005 115.18C103.797 115.18 104.445 115.108 104.877 115.072V109.672C104.589 109.708 104.301 109.708 104.121 109.708C102.717 109.708 102.393 109.096 102.393 107.332V89.26H96.1653V108.16ZM111.049 115H118.069L120.157 106.432C120.409 105.424 120.517 104.452 120.517 104.452H120.589C120.589 104.452 120.697 105.424 120.949 106.432L123.037 115H129.985L135.169 96.46H128.689L126.385 107.404C126.169 108.412 126.133 109.348 126.133 109.348H126.061C126.061 109.348 126.025 108.412 125.773 107.404L123.217 96.46H117.889L115.333 107.404C115.081 108.412 115.009 109.348 115.009 109.348H114.937C114.937 109.348 114.937 108.412 114.721 107.404L112.417 96.46H105.865L111.049 115ZM136.144 109.78C136.144 112.984 138.628 115.432 142.192 115.432C144.316 115.432 146.476 114.46 147.7 112.732H147.772C147.772 112.732 147.7 113.272 147.7 113.884V115H153.388V103.588C153.388 98.872 150.22 96.028 145.108 96.028C142.084 96.028 138.844 97.216 137.26 98.44L139.42 102.832C140.896 101.86 142.732 101.068 144.532 101.068C145.9 101.068 147.16 101.572 147.16 103.12V103.444H146.62C142.048 103.444 136.144 104.812 136.144 109.78ZM142.3 109.204C142.3 107.512 144.748 107.008 146.656 107.008H147.232V107.512C147.232 109.024 145.864 110.788 144.064 110.788C142.912 110.788 142.3 110.068 142.3 109.204ZM157.166 116.692L155.186 121.264C155.186 121.264 157.058 122.56 159.506 122.56C162.458 122.56 165.698 121.12 167.246 116.98L174.842 96.46H168.038L165.698 105.1C165.446 106.108 165.086 107.872 165.086 107.872H165.014C165.014 107.872 164.654 106 164.33 104.992L161.594 96.46H154.538L162.422 114.64L162.062 115.504C161.414 117.088 160.082 117.376 159.074 117.376C158.174 117.376 157.166 116.692 157.166 116.692ZM175.375 112.696C177.427 114.532 180.271 115.432 182.935 115.432C187.687 115.432 190.567 112.804 190.567 109.348C190.567 103.336 181.891 103.804 181.891 101.86C181.891 101.356 182.287 100.96 183.619 100.96C185.203 100.96 187.219 101.608 188.299 102.472L190.423 98.152C188.551 96.64 186.175 96.028 183.799 96.028C179.515 96.028 176.095 98.08 176.095 101.896C176.095 107.98 184.771 107.548 184.771 109.528C184.771 110.104 184.339 110.5 183.079 110.5C181.315 110.5 179.407 109.78 178.039 108.628L175.375 112.696ZM202.725 115H208.953V107.8C208.953 104.416 210.609 102.22 214.065 102.22C214.497 102.22 215.109 102.256 215.325 102.328V96.208C215.109 96.172 214.857 96.136 214.605 96.136C211.833 96.136 209.493 98.224 208.701 100.744H208.629C208.629 100.744 208.701 100.204 208.701 99.592V96.46H202.725V115ZM217.009 105.712C217.009 110.644 220.573 115.432 227.197 115.432C230.041 115.432 233.101 114.46 235.117 112.732L232.813 108.376C231.301 109.384 229.537 110.248 227.701 110.248C225.721 110.248 223.849 109.204 223.381 106.936H235.081C235.153 106.288 235.225 105.64 235.225 104.992C235.225 99.844 232.129 96.028 226.657 96.028C220.681 96.028 217.009 100.276 217.009 105.712ZM223.525 103.372C223.849 101.896 224.713 100.6 226.513 100.6C228.097 100.6 229.069 101.86 229.069 103.372H223.525ZM237.183 109.78C237.183 112.984 239.667 115.432 243.231 115.432C245.355 115.432 247.515 114.46 248.739 112.732H248.811C248.811 112.732 248.739 113.272 248.739 113.884V115H254.427V103.588C254.427 98.872 251.259 96.028 246.147 96.028C243.123 96.028 239.883 97.216 238.299 98.44L240.459 102.832C241.935 101.86 243.771 101.068 245.571 101.068C246.939 101.068 248.199 101.572 248.199 103.12V103.444H247.659C243.087 103.444 237.183 104.812 237.183 109.78ZM243.339 109.204C243.339 107.512 245.787 107.008 247.695 107.008H248.271V107.512C248.271 109.024 246.903 110.788 245.103 110.788C243.951 110.788 243.339 110.068 243.339 109.204ZM257.405 105.712C257.405 111.472 260.717 115.432 265.757 115.432C267.953 115.432 269.969 114.496 271.121 112.732H271.193C271.193 112.732 271.157 113.2 271.157 113.776V115H276.989V89.26H270.761V96.676C270.761 97.144 270.797 97.504 270.797 97.504H270.725C269.501 96.28 267.521 96.028 265.865 96.028C260.933 96.028 257.405 99.844 257.405 105.712ZM263.669 105.712C263.669 102.868 265.361 101.284 267.305 101.284C269.753 101.284 270.941 103.48 270.941 105.712C270.941 108.916 269.177 110.284 267.305 110.284C265.145 110.284 263.669 108.484 263.669 105.712ZM281.338 116.692L279.358 121.264C279.358 121.264 281.23 122.56 283.678 122.56C286.63 122.56 289.87 121.12 291.418 116.98L299.014 96.46H292.21L289.87 105.1C289.618 106.108 289.258 107.872 289.258 107.872H289.186C289.186 107.872 288.826 106 288.502 104.992L285.766 96.46H278.71L286.594 114.64L286.234 115.504C285.586 117.088 284.254 117.376 283.246 117.376C282.346 117.376 281.338 116.692 281.338 116.692ZM309.836 108.16C309.836 114.388 315.56 115.18 318.512 115.18C319.232 115.18 319.736 115.108 320.204 115.072V109.672C319.808 109.708 319.592 109.708 319.376 109.708C318.188 109.708 316.064 109.42 316.064 107.332V101.644H319.952V96.784H316.064V91.456H310.016V96.784H307.46V101.644H309.836V108.16ZM322.372 105.784C322.372 111.58 327.052 115.432 332.884 115.432C338.716 115.432 343.396 111.58 343.396 105.784C343.396 99.952 338.716 96.028 332.848 96.028C327.052 96.028 322.372 99.952 322.372 105.784ZM328.672 105.784C328.672 102.976 330.616 101.212 332.884 101.212C335.152 101.212 337.096 102.976 337.096 105.784C337.096 108.556 335.152 110.248 332.884 110.248C330.616 110.248 328.672 108.556 328.672 105.784ZM355.514 115H361.742V106.648C361.742 103.804 363.074 101.68 365.774 101.68C367.142 101.68 367.826 102.4 367.826 104.128V115H374.054V102.976C374.054 97.756 371.138 96.028 367.394 96.028C364.946 96.028 362.786 97.144 361.742 98.98H361.67C361.67 98.98 361.742 98.332 361.742 97.396V89.26H355.514V115ZM377.005 105.712C377.005 110.644 380.569 115.432 387.193 115.432C390.037 115.432 393.097 114.46 395.113 112.732L392.809 108.376C391.297 109.384 389.533 110.248 387.697 110.248C385.717 110.248 383.845 109.204 383.377 106.936H395.077C395.149 106.288 395.221 105.64 395.221 104.992C395.221 99.844 392.125 96.028 386.653 96.028C380.677 96.028 377.005 100.276 377.005 105.712ZM383.521 103.372C383.845 101.896 384.709 100.6 386.509 100.6C388.093 100.6 389.065 101.86 389.065 103.372H383.521ZM398.439 108.16C398.439 114.388 401.967 115.18 405.279 115.18C406.071 115.18 406.719 115.108 407.151 115.072V109.672C406.863 109.708 406.575 109.708 406.395 109.708C404.991 109.708 404.667 109.096 404.667 107.332V89.26H398.439V108.16ZM410.111 122.2H416.339V115.252C416.339 114.316 416.267 113.668 416.267 113.668H416.339C417.671 114.82 419.327 115.432 421.055 115.432C425.987 115.432 429.695 111.616 429.695 105.748C429.695 99.988 426.383 96.028 421.343 96.028C419.111 96.028 416.987 96.892 415.727 98.584H415.655C415.655 98.584 415.727 98.008 415.727 97.396V96.46H410.111V122.2ZM416.159 105.856C416.159 102.652 417.923 101.284 419.795 101.284C421.955 101.284 423.431 103.084 423.431 105.856C423.431 108.7 421.739 110.284 419.795 110.284C417.347 110.284 416.159 108.088 416.159 105.856Z" fill="#222224"/>
<path d="M3.762 190H5.814L8.028 181.756C8.262 180.928 8.424 179.974 8.424 179.974H8.496C8.496 179.974 8.658 180.928 8.874 181.756L11.106 190H13.14L16.488 177.292H14.652L12.294 186.616C12.132 187.3 12.06 187.966 12.06 187.966H12.024C12.024 187.966 11.916 187.318 11.736 186.616L9.252 177.292H7.686L5.184 186.616C5.004 187.318 4.896 187.966 4.896 187.966H4.86C4.86 187.966 4.77 187.3 4.608 186.616L2.394 177.292H0.522L3.762 190ZM17.0509 185.446C17.0509 188.146 19.0309 190.216 21.8929 190.216C23.1529 190.216 24.5389 189.73 25.4209 188.92L24.6829 187.642C23.9629 188.29 22.9729 188.704 22.0009 188.704C20.3629 188.704 18.9589 187.642 18.8689 185.68H25.4929C25.5289 185.428 25.5649 185.176 25.5649 184.942C25.5649 182.602 24.1969 180.676 21.6229 180.676C19.0309 180.676 17.0509 182.548 17.0509 185.446ZM18.9229 184.42C19.1749 182.908 20.2369 182.026 21.5869 182.026C22.7749 182.026 23.7469 182.854 23.8009 184.42H18.9229ZM27.4355 180.46H28.8215V177.076H27.4355V180.46ZM31.5141 190H33.2601V186.22C33.2601 184.456 34.0881 182.512 36.0501 182.512C36.2301 182.512 36.4821 182.53 36.5541 182.548V180.82C36.4101 180.802 36.2481 180.784 36.0861 180.784C34.6821 180.784 33.6201 181.882 33.1881 183.196H33.1521C33.1521 183.196 33.2061 182.908 33.2061 182.53V180.892H31.5141V190ZM37.4591 185.446C37.4591 188.146 39.4391 190.216 42.3011 190.216C43.5611 190.216 44.9471 189.73 45.8291 188.92L45.0911 187.642C44.3711 188.29 43.3811 188.704 42.4091 188.704C40.7711 188.704 39.3671 187.642 39.2771 185.68H45.9011C45.9371 185.428 45.9731 185.176 45.9731 184.942C45.9731 182.602 44.6051 180.676 42.0311 180.676C39.4391 180.676 37.4591 182.548 37.4591 185.446ZM39.3311 184.42C39.5831 182.908 40.6451 182.026 41.9951 182.026C43.1831 182.026 44.1551 182.854 44.2091 184.42H39.3311ZM53.4367 191.656L52.8607 193.024C53.7607 193.474 54.8767 193.78 55.9747 193.78C58.2787 193.78 60.5647 192.628 60.5647 189.622V180.892H58.8907V181.792C58.8907 181.954 58.9447 182.062 58.9447 182.062H58.8907C58.3147 181.09 57.1447 180.676 56.0107 180.676C53.4727 180.676 52.0327 182.62 52.0327 185.248C52.0327 187.858 53.5627 189.892 56.1007 189.892C57.4147 189.892 58.2967 189.316 58.8367 188.416H58.8727C58.8727 188.416 58.8187 188.704 58.8187 188.992V189.73C58.8187 191.548 57.5227 192.268 55.9387 192.268C55.0567 192.268 54.1567 192.016 53.4367 191.656ZM53.7967 185.194C53.7967 183.34 54.7147 182.188 56.2807 182.188C57.7027 182.188 58.8547 182.872 58.8547 185.248C58.8547 187.624 57.7027 188.38 56.4427 188.38C54.8047 188.38 53.7967 187.084 53.7967 185.194ZM63.2602 187.498C63.2602 189.802 64.7002 190.09 65.7082 190.09C65.9602 190.09 66.1582 190.054 66.2842 190.036V188.488C66.1762 188.506 66.0502 188.506 65.9782 188.506C65.4382 188.506 64.9882 188.29 64.9882 187.21V177.292H63.2602V187.498ZM67.303 187.516C67.303 189.226 68.761 190.216 70.345 190.216C71.695 190.216 72.811 189.406 73.333 188.362H73.369C73.369 188.362 73.315 188.668 73.315 189.082V190H74.953V184.24C74.953 181.936 73.639 180.676 71.353 180.676C70.075 180.676 68.689 181.144 67.951 181.756L68.653 183.034C69.391 182.512 70.309 182.152 71.209 182.152C72.343 182.152 73.207 182.656 73.207 184.15V184.33H72.739C70.849 184.33 67.303 184.654 67.303 187.516ZM69.049 187.372C69.049 185.698 71.461 185.59 72.757 185.59H73.207V185.932C73.207 187.282 72.289 188.83 70.759 188.83C69.625 188.83 69.049 188.092 69.049 187.372ZM76.9932 185.446C76.9932 188.272 78.5592 190.216 81.0072 190.216C82.4472 190.216 83.5092 189.46 84.0312 188.47H84.0672C84.0672 188.47 84.0132 188.722 84.0132 189.082V190H85.6692V177.292H83.9412V181.558C83.9412 181.9 83.9772 182.17 83.9772 182.17H83.9412C83.3652 181.198 82.2672 180.676 81.1152 180.676C78.7032 180.676 76.9932 182.548 76.9932 185.446ZM78.7752 185.446C78.7752 183.376 79.9632 182.206 81.3852 182.206C83.1312 182.206 83.9772 183.79 83.9772 185.428C83.9772 187.732 82.6992 188.704 81.3492 188.704C79.8372 188.704 78.7752 187.426 78.7752 185.446ZM92.8882 186.67C92.8882 189.712 95.2102 190.09 96.3802 190.09C96.6502 190.09 96.8482 190.054 96.9922 190.036V188.488C96.8122 188.524 96.7042 188.524 96.5782 188.524C95.9122 188.524 94.6342 188.29 94.6342 186.472V182.404H96.8302V180.982H94.6342V178.39H92.9242V180.982H91.7002V182.404H92.8882V186.67ZM98.0861 185.428C98.0861 188.2 100.282 190.216 103 190.216C105.7 190.216 107.896 188.2 107.896 185.428C107.896 182.674 105.7 180.676 102.982 180.676C100.282 180.676 98.0861 182.674 98.0861 185.428ZM99.8681 185.428C99.8681 183.538 101.272 182.188 103 182.188C104.71 182.188 106.132 183.538 106.132 185.428C106.132 187.336 104.71 188.704 103 188.704C101.272 188.704 99.8681 187.336 99.8681 185.428ZM113.744 187.516C113.744 189.226 115.202 190.216 116.786 190.216C118.136 190.216 119.252 189.406 119.774 188.362H119.81C119.81 188.362 119.756 188.668 119.756 189.082V190H121.394V184.24C121.394 181.936 120.08 180.676 117.794 180.676C116.516 180.676 115.13 181.144 114.392 181.756L115.094 183.034C115.832 182.512 116.75 182.152 117.65 182.152C118.784 182.152 119.648 182.656 119.648 184.15V184.33H119.18C117.29 184.33 113.744 184.654 113.744 187.516ZM115.49 187.372C115.49 185.698 117.902 185.59 119.198 185.59H119.648V185.932C119.648 187.282 118.73 188.83 117.2 188.83C116.066 188.83 115.49 188.092 115.49 187.372ZM123.993 190H125.739V185.626C125.739 183.754 126.999 182.278 128.781 182.278C130.239 182.278 130.491 183.286 130.491 184.564V190H132.237V184.168C132.237 181.846 131.265 180.676 129.123 180.676C127.125 180.676 126.009 182.026 125.667 182.818H125.631C125.631 182.818 125.685 182.512 125.685 182.134V180.892H123.993V190ZM134.064 188.884C134.964 189.802 136.314 190.216 137.538 190.216C139.482 190.216 140.814 189.082 140.814 187.534C140.814 184.528 136.116 185.05 136.116 183.268C136.116 182.494 136.782 182.134 137.664 182.134C138.474 182.134 139.428 182.44 139.968 182.944L140.67 181.684C139.878 180.964 138.762 180.676 137.718 180.676C135.936 180.676 134.442 181.576 134.442 183.304C134.442 186.292 139.122 185.824 139.122 187.57C139.122 188.326 138.492 188.758 137.574 188.758C136.62 188.758 135.576 188.362 134.892 187.696L134.064 188.884ZM144.817 190H146.761L148.633 184.15C148.777 183.682 148.885 183.16 148.885 183.16H148.921C148.921 183.16 149.029 183.682 149.191 184.15L151.063 190H153.007L155.923 180.892H154.105L152.197 187.282C152.053 187.75 151.963 188.254 151.963 188.254H151.927C151.927 188.254 151.819 187.75 151.693 187.282L149.731 180.91H148.111L146.149 187.282C146.005 187.75 145.897 188.254 145.897 188.254H145.861C145.861 188.254 145.771 187.75 145.627 187.282L143.737 180.892H141.883L144.817 190ZM156.92 185.446C156.92 188.146 158.9 190.216 161.762 190.216C163.022 190.216 164.408 189.73 165.29 188.92L164.552 187.642C163.832 188.29 162.842 188.704 161.87 188.704C160.232 188.704 158.828 187.642 158.738 185.68H165.362C165.398 185.428 165.434 185.176 165.434 184.942C165.434 182.602 164.066 180.676 161.492 180.676C158.9 180.676 156.92 182.548 156.92 185.446ZM158.792 184.42C159.044 182.908 160.106 182.026 161.456 182.026C162.644 182.026 163.616 182.854 163.67 184.42H158.792ZM167.534 190H169.28V186.22C169.28 184.456 170.108 182.512 172.07 182.512C172.25 182.512 172.502 182.53 172.574 182.548V180.82C172.43 180.802 172.268 180.784 172.106 180.784C170.702 180.784 169.64 181.882 169.208 183.196H169.172C169.172 183.196 169.226 182.908 169.226 182.53V180.892H167.534V190ZM177.641 187.516C177.641 189.226 179.099 190.216 180.683 190.216C182.033 190.216 183.149 189.406 183.671 188.362H183.707C183.707 188.362 183.653 188.668 183.653 189.082V190H185.291V184.24C185.291 181.936 183.977 180.676 181.691 180.676C180.413 180.676 179.027 181.144 178.289 181.756L178.991 183.034C179.729 182.512 180.647 182.152 181.547 182.152C182.681 182.152 183.545 182.656 183.545 184.15V184.33H183.077C181.187 184.33 177.641 184.654 177.641 187.516ZM179.387 187.372C179.387 185.698 181.799 185.59 183.095 185.59H183.545V185.932C183.545 187.282 182.627 188.83 181.097 188.83C179.963 188.83 179.387 188.092 179.387 187.372ZM187.889 190H189.635V185.626C189.635 183.754 190.895 182.278 192.677 182.278C194.135 182.278 194.387 183.286 194.387 184.564V190H196.133V184.168C196.133 181.846 195.161 180.676 193.019 180.676C191.021 180.676 189.905 182.026 189.563 182.818H189.527C189.527 182.818 189.581 182.512 189.581 182.134V180.892H187.889V190ZM198.144 191.89L197.532 193.222C197.532 193.222 198.27 193.78 199.278 193.78C200.556 193.78 201.69 193.06 202.23 191.638L206.514 180.892H204.624L202.41 186.868C202.248 187.336 202.104 187.948 202.104 187.948H202.068C202.068 187.948 201.906 187.3 201.726 186.85L199.44 180.892H197.478L201.294 189.892L200.844 190.936C200.502 191.764 199.908 192.286 199.188 192.286C198.648 192.286 198.144 191.89 198.144 191.89ZM211.694 185.446C211.694 188.272 213.26 190.216 215.708 190.216C217.148 190.216 218.156 189.442 218.642 188.596H218.678C218.678 188.596 218.642 188.92 218.642 189.388V193.6H220.37V180.892H218.714V181.63C218.714 181.99 218.75 182.26 218.75 182.26H218.714C218.138 181.252 217.004 180.676 215.816 180.676C213.404 180.676 211.694 182.548 211.694 185.446ZM213.476 185.446C213.476 183.376 214.664 182.206 216.086 182.206C217.832 182.206 218.678 183.79 218.678 185.428C218.678 187.732 217.4 188.704 216.05 188.704C214.538 188.704 213.476 187.426 213.476 185.446ZM222.955 186.724C222.955 189.136 224.017 190.216 226.069 190.216C227.851 190.216 229.057 188.974 229.453 188.074H229.489C229.489 188.074 229.417 188.38 229.417 188.74V190H231.109V180.892H229.381V185.158C229.381 186.958 228.283 188.596 226.411 188.596C224.971 188.596 224.701 187.588 224.701 186.328V180.892H222.955V186.724ZM233.209 185.446C233.209 188.146 235.189 190.216 238.051 190.216C239.311 190.216 240.697 189.73 241.579 188.92L240.841 187.642C240.121 188.29 239.131 188.704 238.159 188.704C236.521 188.704 235.117 187.642 235.027 185.68H241.651C241.687 185.428 241.723 185.176 241.723 184.942C241.723 182.602 240.355 180.676 237.781 180.676C235.189 180.676 233.209 182.548 233.209 185.446ZM235.081 184.42C235.333 182.908 236.395 182.026 237.745 182.026C238.933 182.026 239.905 182.854 239.959 184.42H235.081ZM243.049 188.884C243.949 189.802 245.299 190.216 246.523 190.216C248.467 190.216 249.799 189.082 249.799 187.534C249.799 184.528 245.101 185.05 245.101 183.268C245.101 182.494 245.767 182.134 246.649 182.134C247.459 182.134 248.413 182.44 248.953 182.944L249.655 181.684C248.863 180.964 247.747 180.676 246.703 180.676C244.921 180.676 243.427 181.576 243.427 183.304C243.427 186.292 248.107 185.824 248.107 187.57C248.107 188.326 247.477 188.758 246.559 188.758C245.605 188.758 244.561 188.362 243.877 187.696L243.049 188.884ZM252.251 186.67C252.251 189.712 254.573 190.09 255.743 190.09C256.013 190.09 256.211 190.054 256.355 190.036V188.488C256.175 188.524 256.067 188.524 255.941 188.524C255.275 188.524 253.997 188.29 253.997 186.472V182.404H256.193V180.982H253.997V178.39H252.287V180.982H251.063V182.404H252.251V186.67ZM258.113 179.056H259.913V177.292H258.113V179.056ZM258.149 190H259.895V180.892H258.149V190ZM261.985 185.428C261.985 188.2 264.181 190.216 266.899 190.216C269.599 190.216 271.795 188.2 271.795 185.428C271.795 182.674 269.599 180.676 266.881 180.676C264.181 180.676 261.985 182.674 261.985 185.428ZM263.767 185.428C263.767 183.538 265.171 182.188 266.899 182.188C268.609 182.188 270.031 183.538 270.031 185.428C270.031 187.336 268.609 188.704 266.899 188.704C265.171 188.704 263.767 187.336 263.767 185.428ZM273.899 190H275.645V185.626C275.645 183.754 276.905 182.278 278.687 182.278C280.145 182.278 280.397 183.286 280.397 184.564V190H282.143V184.168C282.143 181.846 281.171 180.676 279.029 180.676C277.031 180.676 275.915 182.026 275.573 182.818H275.537C275.537 182.818 275.591 182.512 275.591 182.134V180.892H273.899V190ZM283.971 188.884C284.871 189.802 286.221 190.216 287.445 190.216C289.389 190.216 290.721 189.082 290.721 187.534C290.721 184.528 286.023 185.05 286.023 183.268C286.023 182.494 286.689 182.134 287.571 182.134C288.381 182.134 289.335 182.44 289.875 182.944L290.577 181.684C289.785 180.964 288.669 180.676 287.625 180.676C285.843 180.676 284.349 181.576 284.349 183.304C284.349 186.292 289.029 185.824 289.029 187.57C289.029 188.326 288.399 188.758 287.481 188.758C286.527 188.758 285.483 188.362 284.799 187.696L283.971 188.884Z" fill="#424754"/>
<path d="M713 53.2049C713 52.0831 713 51.5222 713.189 51.0937C713.355 50.7168 713.62 50.4104 713.947 50.2183C714.317 50 714.803 50 715.774 50H1031.23C1032.2 50 1032.68 50 1033.05 50.2183C1033.38 50.4104 1033.64 50.7168 1033.81 51.0937C1034 51.5222 1034 52.0831 1034 53.2049V263.795C1034 264.917 1034 265.478 1033.81 265.906C1033.64 266.283 1033.38 266.59 1033.05 266.782C1032.68 267 1032.2 267 1031.23 267H715.774C714.803 267 714.317 267 713.947 266.782C713.62 266.59 713.355 266.283 713.189 265.906C713 265.478 713 264.917 713 263.795V53.2049Z" fill="#F3F3F3"/>
<path d="M726 211.321C726 211.208 726 211.152 726.023 211.109C726.042 211.072 726.074 211.041 726.113 211.022C726.157 211 726.215 211 726.331 211H750.669C750.785 211 750.843 211 750.887 211.022C750.926 211.041 750.958 211.072 750.977 211.109C751 211.152 751 211.208 751 211.321V224.679C751 224.792 751 224.848 750.977 224.891C750.958 224.928 750.926 224.959 750.887 224.978C750.843 225 750.785 225 750.669 225H726.331C726.215 225 726.157 225 726.113 224.978C726.074 224.959 726.042 224.928 726.023 224.891C726 224.848 726 224.792 726 224.679V211.321Z" fill="white"/>
<path d="M756 197.642C756 197.417 756 197.305 756.023 197.219C756.042 197.143 756.074 197.082 756.113 197.044C756.157 197 756.215 197 756.331 197H780.669C780.785 197 780.843 197 780.887 197.044C780.926 197.082 780.958 197.143 780.977 197.219C781 197.305 781 197.417 781 197.642V224.358C781 224.583 781 224.695 780.977 224.781C780.958 224.857 780.926 224.918 780.887 224.956C780.843 225 780.785 225 780.669 225H756.331C756.215 225 756.157 225 756.113 224.956C756.074 224.918 756.042 224.857 756.023 224.781C756 224.695 756 224.583 756 224.358V197.642Z" fill="white"/>
<path d="M816 170.283C816 169.834 816 169.609 816.023 169.438C816.042 169.287 816.074 169.164 816.113 169.087C816.157 169 816.215 169 816.331 169H840.669C840.785 169 840.843 169 840.887 169.087C840.926 169.164 840.958 169.287 840.977 169.438C841 169.609 841 169.834 841 170.283V223.717C841 224.166 841 224.391 840.977 224.562C840.958 224.713 840.926 224.836 840.887 224.913C840.843 225 840.785 225 840.669 225H816.331C816.215 225 816.157 225 816.113 224.913C816.074 224.836 816.042 224.713 816.023 224.562C816 224.391 816 224.166 816 223.717V170.283Z" fill="white"/>
<path d="M786 183.962C786 183.625 786 183.457 786.023 183.328C786.042 183.215 786.074 183.123 786.113 183.066C786.157 183 786.215 183 786.331 183H810.669C810.785 183 810.843 183 810.887 183.066C810.926 183.123 810.958 183.215 810.977 183.328C811 183.457 811 183.625 811 183.962V224.038C811 224.375 811 224.543 810.977 224.672C810.958 224.785 810.926 224.877 810.887 224.934C810.843 225 810.785 225 810.669 225H786.331C786.215 225 786.157 225 786.113 224.934C786.074 224.877 786.042 224.785 786.023 224.672C786 224.543 786 224.375 786 224.038V183.962Z" fill="white"/>
<path d="M846 156.604C846 156.042 846 155.762 846.023 155.547C846.042 155.359 846.074 155.205 846.113 155.109C846.157 155 846.215 155 846.331 155H870.669C870.785 155 870.843 155 870.887 155.109C870.926 155.205 870.958 155.359 870.977 155.547C871 155.762 871 156.042 871 156.604V223.396C871 223.958 871 224.238 870.977 224.453C870.958 224.641 870.926 224.795 870.887 224.891C870.843 225 870.785 225 870.669 225H846.331C846.215 225 846.157 225 846.113 224.891C846.074 224.795 846.042 224.641 846.023 224.453C846 224.238 846 223.958 846 223.396V156.604Z" fill="white"/>
<path d="M876 142.925C876 142.251 876 141.914 876.023 141.657C876.042 141.43 876.074 141.246 876.113 141.131C876.157 141 876.215 141 876.331 141H900.669C900.785 141 900.843 141 900.887 141.131C900.926 141.246 900.958 141.43 900.977 141.657C901 141.914 901 142.251 901 142.925V223.075C901 223.749 901 224.086 900.977 224.343C900.958 224.57 900.926 224.754 900.887 224.869C900.843 225 900.785 225 900.669 225H876.331C876.215 225 876.157 225 876.113 224.869C876.074 224.754 876.042 224.57 876.023 224.343C876 224.086 876 223.749 876 223.075V142.925Z" fill="white"/>
<path d="M906 129.245C906 128.459 906 128.066 906.023 127.766C906.042 127.502 906.074 127.287 906.113 127.153C906.157 127 906.215 127 906.331 127H930.669C930.785 127 930.843 127 930.887 127.153C930.926 127.287 930.958 127.502 930.977 127.766C931 128.066 931 128.459 931 129.245V222.755C931 223.541 931 223.934 930.977 224.234C930.958 224.498 930.926 224.713 930.887 224.847C930.843 225 930.785 225 930.669 225H906.331C906.215 225 906.157 225 906.113 224.847C906.074 224.713 906.042 224.498 906.023 224.234C906 223.934 906 223.541 906 222.755V129.245Z" fill="white"/>
<path d="M936 115.566C936 114.668 936 114.219 936.023 113.876C936.042 113.574 936.074 113.329 936.113 113.175C936.157 113 936.215 113 936.331 113H960.669C960.785 113 960.843 113 960.887 113.175C960.926 113.329 960.958 113.574 960.977 113.876C961 114.219 961 114.668 961 115.566V222.434C961 223.332 961 223.781 960.977 224.124C960.958 224.426 960.926 224.671 960.887 224.825C960.843 225 960.785 225 960.669 225H936.331C936.215 225 936.157 225 936.113 224.825C936.074 224.671 936.042 224.426 936.023 224.124C936 223.781 936 223.332 936 222.434V115.566Z" fill="white"/>
<path d="M966 101.887C966 100.876 966 100.371 966.023 99.9852C966.042 99.6457 966.074 99.3696 966.113 99.1967C966.157 99 966.215 99 966.331 99H990.669C990.785 99 990.843 99 990.887 99.1967C990.926 99.3696 990.958 99.6457 990.977 99.9852C991 100.371 991 100.876 991 101.887V222.113C991 223.124 991 223.629 990.977 224.015C990.958 224.354 990.926 224.63 990.887 224.803C990.843 225 990.785 225 990.669 225H966.331C966.215 225 966.157 225 966.113 224.803C966.074 224.63 966.042 224.354 966.023 224.015C966 223.629 966 223.124 966 222.113V101.887Z" fill="white"/>
<path d="M996 88.2076C996 87.0849 996 86.5235 996.023 86.0946C996.042 85.7174 996.074 85.4107 996.113 85.2185C996.157 85 996.215 85 996.331 85H1020.67C1020.78 85 1020.84 85 1020.89 85.2185C1020.93 85.4107 1020.96 85.7174 1020.98 86.0946C1021 86.5235 1021 87.0849 1021 88.2076V221.792C1021 222.915 1021 223.477 1020.98 223.905C1020.96 224.283 1020.93 224.589 1020.89 224.781C1020.84 225 1020.78 225 1020.67 225H996.331C996.215 225 996.157 225 996.113 224.781C996.074 224.589 996.042 224.283 996.023 223.905C996 223.477 996 222.915 996 221.792V88.2076Z" fill="#F04B5D"/>
<path d="M1004 74.5L1006.67 77L1012 72" stroke="#222224" stroke-width="2"/>
<path d="M736 233.873C736 233.567 736 233.415 736.01 233.298C736.02 233.195 736.034 233.112 736.052 233.059C736.073 233 736.1 233 736.154 233H741.846C741.9 233 741.927 233 741.948 233.059C741.966 233.112 741.98 233.195 741.99 233.298C742 233.415 742 233.567 742 233.873V235.127C742 235.433 742 235.585 741.99 235.702C741.98 235.805 741.966 235.888 741.948 235.941C741.927 236 741.9 236 741.846 236H736.154C736.1 236 736.073 236 736.052 235.941C736.034 235.888 736.02 235.805 736.01 235.702C736 235.585 736 235.433 736 235.127V233.873Z" fill="#424754"/>
<path d="M766 233.873C766 233.567 766 233.415 766.01 233.298C766.02 233.195 766.034 233.112 766.052 233.059C766.073 233 766.1 233 766.154 233H771.846C771.9 233 771.927 233 771.948 233.059C771.966 233.112 771.98 233.195 771.99 233.298C772 233.415 772 233.567 772 233.873V235.127C772 235.433 772 235.585 771.99 235.702C771.98 235.805 771.966 235.888 771.948 235.941C771.927 236 771.9 236 771.846 236H766.154C766.1 236 766.073 236 766.052 235.941C766.034 235.888 766.02 235.805 766.01 235.702C766 235.585 766 235.433 766 235.127V233.873Z" fill="#424754"/>
<path d="M796 233.873C796 233.567 796 233.415 796.01 233.298C796.02 233.195 796.034 233.112 796.052 233.059C796.073 233 796.1 233 796.154 233H801.846C801.9 233 801.927 233 801.948 233.059C801.966 233.112 801.98 233.195 801.99 233.298C802 233.415 802 233.567 802 233.873V235.127C802 235.433 802 235.585 801.99 235.702C801.98 235.805 801.966 235.888 801.948 235.941C801.927 236 801.9 236 801.846 236H796.154C796.1 236 796.073 236 796.052 235.941C796.034 235.888 796.02 235.805 796.01 235.702C796 235.585 796 235.433 796 235.127V233.873Z" fill="#424754"/>
<path d="M826 233.873C826 233.567 826 233.415 826.01 233.298C826.02 233.195 826.034 233.112 826.052 233.059C826.073 233 826.1 233 826.154 233H831.846C831.9 233 831.927 233 831.948 233.059C831.966 233.112 831.98 233.195 831.99 233.298C832 233.415 832 233.567 832 233.873V235.127C832 235.433 832 235.585 831.99 235.702C831.98 235.805 831.966 235.888 831.948 235.941C831.927 236 831.9 236 831.846 236H826.154C826.1 236 826.073 236 826.052 235.941C826.034 235.888 826.02 235.805 826.01 235.702C826 235.585 826 235.433 826 235.127V233.873Z" fill="#424754"/>
<path d="M856 233.873C856 233.567 856 233.415 856.01 233.298C856.02 233.195 856.034 233.112 856.052 233.059C856.073 233 856.1 233 856.154 233H861.846C861.9 233 861.927 233 861.948 233.059C861.966 233.112 861.98 233.195 861.99 233.298C862 233.415 862 233.567 862 233.873V235.127C862 235.433 862 235.585 861.99 235.702C861.98 235.805 861.966 235.888 861.948 235.941C861.927 236 861.9 236 861.846 236H856.154C856.1 236 856.073 236 856.052 235.941C856.034 235.888 856.02 235.805 856.01 235.702C856 235.585 856 235.433 856 235.127V233.873Z" fill="#424754"/>
<path d="M886 233.873C886 233.567 886 233.415 886.01 233.298C886.02 233.195 886.034 233.112 886.052 233.059C886.073 233 886.1 233 886.154 233H891.846C891.9 233 891.927 233 891.948 233.059C891.966 233.112 891.98 233.195 891.99 233.298C892 233.415 892 233.567 892 233.873V235.127C892 235.433 892 235.585 891.99 235.702C891.98 235.805 891.966 235.888 891.948 235.941C891.927 236 891.9 236 891.846 236H886.154C886.1 236 886.073 236 886.052 235.941C886.034 235.888 886.02 235.805 886.01 235.702C886 235.585 886 235.433 886 235.127V233.873Z" fill="#424754"/>
<path d="M916 233.873C916 233.567 916 233.415 916.01 233.298C916.02 233.195 916.034 233.112 916.052 233.059C916.073 233 916.1 233 916.154 233H921.846C921.9 233 921.927 233 921.948 233.059C921.966 233.112 921.98 233.195 921.99 233.298C922 233.415 922 233.567 922 233.873V235.127C922 235.433 922 235.585 921.99 235.702C921.98 235.805 921.966 235.888 921.948 235.941C921.927 236 921.9 236 921.846 236H916.154C916.1 236 916.073 236 916.052 235.941C916.034 235.888 916.02 235.805 916.01 235.702C916 235.585 916 235.433 916 235.127V233.873Z" fill="#424754"/>
<path d="M946 233.873C946 233.567 946 233.415 946.01 233.298C946.02 233.195 946.034 233.112 946.052 233.059C946.073 233 946.1 233 946.154 233H951.846C951.9 233 951.927 233 951.948 233.059C951.966 233.112 951.98 233.195 951.99 233.298C952 233.415 952 233.567 952 233.873V235.127C952 235.433 952 235.585 951.99 235.702C951.98 235.805 951.966 235.888 951.948 235.941C951.927 236 951.9 236 951.846 236H946.154C946.1 236 946.073 236 946.052 235.941C946.034 235.888 946.02 235.805 946.01 235.702C946 235.585 946 235.433 946 235.127V233.873Z" fill="#424754"/>
<path d="M976 233.873C976 233.567 976 233.415 976.01 233.298C976.02 233.195 976.034 233.112 976.052 233.059C976.073 233 976.1 233 976.154 233H981.846C981.9 233 981.927 233 981.948 233.059C981.966 233.112 981.98 233.195 981.99 233.298C982 233.415 982 233.567 982 233.873V235.127C982 235.433 982 235.585 981.99 235.702C981.98 235.805 981.966 235.888 981.948 235.941C981.927 236 981.9 236 981.846 236H976.154C976.1 236 976.073 236 976.052 235.941C976.034 235.888 976.02 235.805 976.01 235.702C976 235.585 976 235.433 976 235.127V233.873Z" fill="#424754"/>
<path d="M1006 233.873C1006 233.567 1006 233.415 1006.01 233.298C1006.02 233.195 1006.03 233.112 1006.05 233.059C1006.07 233 1006.1 233 1006.15 233H1011.85C1011.9 233 1011.93 233 1011.95 233.059C1011.97 233.112 1011.98 233.195 1011.99 233.298C1012 233.415 1012 233.567 1012 233.873V235.127C1012 235.433 1012 235.585 1011.99 235.702C1011.98 235.805 1011.97 235.888 1011.95 235.941C1011.93 236 1011.9 236 1011.85 236H1006.15C1006.1 236 1006.07 236 1006.05 235.941C1006.03 235.888 1006.02 235.805 1006.01 235.702C1006 235.585 1006 235.433 1006 235.127V233.873Z" fill="#424754"/>
<path d="M726 251.455C726 250.945 726 250.691 726.043 250.496C726.081 250.325 726.142 250.186 726.216 250.099C726.301 250 726.412 250 726.634 250H825.366C825.588 250 825.699 250 825.784 250.099C825.858 250.186 825.919 250.325 825.957 250.496C826 250.691 826 250.945 826 251.455V253.545C826 254.055 826 254.309 825.957 254.504C825.919 254.675 825.858 254.814 825.784 254.901C825.699 255 825.588 255 825.366 255H726.634C726.412 255 726.301 255 726.216 254.901C726.142 254.814 726.081 254.675 726.043 254.504C726 254.309 726 254.055 726 253.545V251.455Z" fill="#97999D"/>
<path d="M1004 251.873C1004 251.567 1004 251.415 1004.01 251.298C1004.01 251.195 1004.02 251.112 1004.04 251.059C1004.05 251 1004.07 251 1004.11 251H1020.89C1020.93 251 1020.95 251 1020.96 251.059C1020.98 251.112 1020.99 251.195 1020.99 251.298C1021 251.415 1021 251.567 1021 251.873V253.127C1021 253.433 1021 253.585 1020.99 253.702C1020.99 253.805 1020.98 253.888 1020.96 253.941C1020.95 254 1020.93 254 1020.89 254H1004.11C1004.07 254 1004.05 254 1004.04 253.941C1004.02 253.888 1004.01 253.805 1004.01 253.702C1004 253.585 1004 253.433 1004 253.127V251.873Z" fill="#97999D"/>
<rect x="665" width="131.031" height="155" rx="2" fill="#424754"/>
<path d="M682.577 13.045C682.577 12.3941 682.577 12.0687 682.616 11.8201C682.65 11.6014 682.705 11.4236 682.773 11.3122C682.849 11.1855 682.949 11.1855 683.15 11.1855H704.376C704.576 11.1855 704.676 11.1855 704.753 11.3122C704.82 11.4236 704.875 11.6014 704.909 11.8201C704.948 12.0687 704.948 12.3941 704.948 13.045V15.7179C704.948 16.3687 704.948 16.6942 704.909 16.9428C704.875 17.1614 704.82 17.3392 704.753 17.4506C704.676 17.5773 704.576 17.5773 704.376 17.5773H683.15C682.949 17.5773 682.849 17.5773 682.773 17.4506C682.705 17.3392 682.65 17.1614 682.616 16.9428C682.577 16.6942 682.577 16.3687 682.577 15.7179V13.045Z" fill="white"/>
<g filter="url(#filter0_d)">
<path d="M698.118 65.9784C697.361 65.6531 696.48 66.0022 696.186 66.7718C693.564 73.6307 693.052 81.1305 694.737 88.3013C696.535 95.957 700.741 102.834 706.738 107.922C712.735 113.009 720.205 116.04 728.051 116.567C735.898 117.094 743.706 115.091 750.33 110.851C756.953 106.611 762.042 100.359 764.848 93.0123C767.654 85.666 768.03 77.6133 765.921 70.0374C763.811 62.4616 759.327 55.7623 753.128 50.9238C747.321 46.3919 740.296 43.7164 732.969 43.2263C732.147 43.1713 731.461 43.8246 731.44 44.6483C731.418 45.472 732.069 46.1538 732.891 46.2117C739.579 46.6833 745.988 49.1369 751.292 53.276C756.988 57.7216 761.108 63.8771 763.046 70.8379C764.985 77.7987 764.639 85.1976 762.061 91.9475C759.482 98.6974 754.807 104.442 748.721 108.338C742.635 112.233 735.461 114.074 728.251 113.59C721.042 113.105 714.178 110.321 708.668 105.647C703.159 100.972 699.294 94.6532 697.641 87.619C696.103 81.0698 696.558 74.222 698.93 67.9506C699.222 67.18 698.875 66.3036 698.118 65.9784Z" fill="#27AE60"/>
</g>
<path d="M719.42 77.6652C719.42 76.7473 719.42 76.2883 719.457 75.9377C719.49 75.6293 719.543 75.3785 719.608 75.2214C719.681 75.0427 719.778 75.0427 719.97 75.0427H740.366C740.559 75.0427 740.655 75.0427 740.729 75.2214C740.794 75.3785 740.846 75.6293 740.879 75.9377C740.917 76.2883 740.917 76.7473 740.917 77.6652V81.435C740.917 82.353 740.917 82.812 740.879 83.1626C740.846 83.471 740.794 83.7217 740.729 83.8789C740.655 84.0575 740.559 84.0575 740.366 84.0575H719.97C719.778 84.0575 719.681 84.0575 719.608 83.8789C719.543 83.7217 719.49 83.471 719.457 83.1626C719.42 82.812 719.42 82.353 719.42 81.435V77.6652Z" fill="white"/>
<path d="M702.777 126.673C702.777 126.32 702.777 126.143 702.873 126.009C702.957 125.89 703.091 125.793 703.256 125.733C703.443 125.664 703.689 125.664 704.18 125.664H756.157C756.648 125.664 756.893 125.664 757.081 125.733C757.246 125.793 757.38 125.89 757.464 126.009C757.559 126.143 757.559 126.32 757.559 126.673V128.123C757.559 128.476 757.559 128.652 757.464 128.787C757.38 128.906 757.246 129.002 757.081 129.063C756.893 129.132 756.648 129.132 756.157 129.132H704.18C703.689 129.132 703.443 129.132 703.256 129.063C703.091 129.002 702.957 128.906 702.873 128.787C702.777 128.652 702.777 128.476 702.777 128.123V126.673Z" fill="#97999D"/>
<defs>
<filter id="filter0_d" x="673.763" y="27.2231" width="113.505" height="113.426" filterUnits="userSpaceOnUse" color-interpolation-filters="sRGB">
<feFlood flood-opacity="0" result="BackgroundImageFix"/>
<feColorMatrix in="SourceAlpha" type="matrix" values="0 0 0 0 0 0 0 0 0 0 0 0 0 0 0 0 0 0 127 0"/>
<feOffset dy="4"/>
<feGaussianBlur stdDeviation="10"/>
<feColorMatrix type="matrix" values="0 0 0 0 0 0 0 0 0 0 0 0 0 0 0 0 0 0 0.19 0"/>
<feBlend mode="normal" in2="BackgroundImageFix" result="effect1_dropShadow"/>
<feBlend mode="normal" in="SourceGraphic" in2="effect1_dropShadow" result="shape"/>
</filter>
</defs>
</svg>
