<svg width="688" height="91" viewBox="0 0 688 91" fill="none" xmlns="http://www.w3.org/2000/svg">
<path d="M16.7855 17H19.5215L22.4735 6.008C22.7855 4.904 23.0015 3.632 23.0015 3.632H23.0975C23.0975 3.632 23.3135 4.904 23.6015 6.008L26.5775 17H29.2895L33.7535 0.0559993H31.3055L28.1615 12.488C27.9455 13.4 27.8495 14.288 27.8495 14.288H27.8015C27.8015 14.288 27.6575 13.424 27.4175 12.488L24.1055 0.0559993H22.0175L18.6815 12.488C18.4415 13.424 18.2975 14.288 18.2975 14.288H18.2495C18.2495 14.288 18.1295 13.4 17.9135 12.488L14.9615 0.0559993H12.4655L16.7855 17ZM34.5041 10.928C34.5041 14.528 37.1441 17.288 40.9601 17.288C42.6401 17.288 44.4881 16.64 45.6641 15.56L44.6801 13.856C43.7201 14.72 42.4001 15.272 41.1041 15.272C38.9201 15.272 37.0481 13.856 36.9281 11.24H45.7601C45.8081 10.904 45.8561 10.568 45.8561 10.256C45.8561 7.136 44.0321 4.568 40.6001 4.568C37.1441 4.568 34.5041 7.064 34.5041 10.928ZM37.0001 9.56C37.3361 7.544 38.7521 6.368 40.5521 6.368C42.1361 6.368 43.4321 7.472 43.5041 9.56H37.0001ZM54.6555 17H56.9835V11.336C56.9835 9.08 58.3275 6.68 60.6315 6.68C62.4795 6.68 62.7195 8.144 62.7195 9.728V17H65.0475V11.336C65.0475 9.008 66.3915 6.68 68.6475 6.68C70.4475 6.68 70.7835 8.024 70.7835 9.728V17H73.1115V9.224C73.1115 6.128 71.8635 4.568 69.1035 4.568C67.1355 4.568 65.4555 5.912 64.7835 7.328H64.7355C64.3275 5.504 63.1515 4.568 61.1115 4.568C59.1915 4.568 57.4635 6.008 56.8875 7.424H56.8395C56.8395 7.424 56.9115 7.016 56.9115 6.512V4.856H54.6555V17ZM75.585 13.688C75.585 15.968 77.529 17.288 79.641 17.288C81.441 17.288 82.929 16.208 83.625 14.816H83.673C83.673 14.816 83.601 15.224 83.601 15.776V17H85.785V9.32C85.785 6.248 84.033 4.568 80.985 4.568C79.281 4.568 77.433 5.192 76.449 6.008L77.385 7.712C78.369 7.016 79.593 6.536 80.793 6.536C82.305 6.536 83.457 7.208 83.457 9.2V9.44H82.833C80.313 9.44 75.585 9.872 75.585 13.688ZM77.913 13.496C77.913 11.264 81.129 11.12 82.857 11.12H83.457V11.576C83.457 13.376 82.233 15.44 80.193 15.44C78.681 15.44 77.913 14.456 77.913 13.496ZM89.2492 17H91.5772V11.312H93.3532L96.9772 17H99.6892L95.2012 10.256V10.208L99.2332 4.856H96.5932L93.3052 9.32H91.5772V0.0559993H89.2492V17ZM100.528 10.928C100.528 14.528 103.168 17.288 106.984 17.288C108.664 17.288 110.512 16.64 111.688 15.56L110.704 13.856C109.744 14.72 108.424 15.272 107.128 15.272C104.944 15.272 103.072 13.856 102.952 11.24H111.784C111.832 10.904 111.88 10.568 111.88 10.256C111.88 7.136 110.056 4.568 106.624 4.568C103.168 4.568 100.528 7.064 100.528 10.928ZM103.024 9.56C103.36 7.544 104.776 6.368 106.576 6.368C108.16 6.368 109.456 7.472 109.528 9.56H103.024ZM120.679 13.664C120.679 16.736 122.599 17.12 123.943 17.12C124.279 17.12 124.543 17.072 124.711 17.048V14.984C124.567 15.008 124.399 15.008 124.303 15.008C123.583 15.008 122.983 14.72 122.983 13.28V0.0559993H120.679V13.664ZM126.285 10.928C126.285 14.528 128.925 17.288 132.741 17.288C134.421 17.288 136.269 16.64 137.445 15.56L136.461 13.856C135.501 14.72 134.181 15.272 132.885 15.272C130.701 15.272 128.829 13.856 128.709 11.24H137.541C137.589 10.904 137.637 10.568 137.637 10.256C137.637 7.136 135.813 4.568 132.381 4.568C128.925 4.568 126.285 7.064 126.285 10.928ZM128.781 9.56C129.117 7.544 130.533 6.368 132.333 6.368C133.917 6.368 135.213 7.472 135.285 9.56H128.781ZM139.429 13.688C139.429 15.968 141.373 17.288 143.485 17.288C145.285 17.288 146.773 16.208 147.469 14.816H147.517C147.517 14.816 147.445 15.224 147.445 15.776V17H149.629V9.32C149.629 6.248 147.877 4.568 144.829 4.568C143.125 4.568 141.277 5.192 140.293 6.008L141.229 7.712C142.213 7.016 143.437 6.536 144.637 6.536C146.149 6.536 147.301 7.208 147.301 9.2V9.44H146.677C144.157 9.44 139.429 9.872 139.429 13.688ZM141.757 13.496C141.757 11.264 144.973 11.12 146.701 11.12H147.301V11.576C147.301 13.376 146.077 15.44 144.037 15.44C142.525 15.44 141.757 14.456 141.757 13.496ZM153.093 17H155.421V11.96C155.421 9.608 156.525 7.016 159.141 7.016C159.381 7.016 159.717 7.04 159.813 7.064V4.76C159.621 4.736 159.405 4.712 159.189 4.712C157.317 4.712 155.901 6.176 155.325 7.928H155.277C155.277 7.928 155.349 7.544 155.349 7.04V4.856H153.093V17ZM162.116 17H164.444V11.168C164.444 8.672 166.124 6.704 168.5 6.704C170.444 6.704 170.78 8.048 170.78 9.752V17H173.108V9.224C173.108 6.128 171.812 4.568 168.956 4.568C166.292 4.568 164.804 6.368 164.348 7.424H164.3C164.3 7.424 164.372 7.016 164.372 6.512V4.856H162.116V17ZM176.529 2.408H178.929V0.0559993H176.529V2.408ZM176.577 17H178.905V4.856H176.577V17ZM182.484 17H184.812V11.168C184.812 8.672 186.492 6.704 188.868 6.704C190.812 6.704 191.148 8.048 191.148 9.752V17H193.476V9.224C193.476 6.128 192.18 4.568 189.324 4.568C186.66 4.568 185.172 6.368 184.716 7.424H184.668C184.668 7.424 184.74 7.016 184.74 6.512V4.856H182.484V17ZM198.097 19.208L197.329 21.032C198.529 21.632 200.017 22.04 201.481 22.04C204.553 22.04 207.601 20.504 207.601 16.496V4.856H205.369V6.056C205.369 6.272 205.441 6.416 205.441 6.416H205.369C204.601 5.12 203.041 4.568 201.529 4.568C198.145 4.568 196.225 7.16 196.225 10.664C196.225 14.144 198.265 16.856 201.649 16.856C203.401 16.856 204.577 16.088 205.297 14.888H205.345C205.345 14.888 205.273 15.272 205.273 15.656V16.64C205.273 19.064 203.545 20.024 201.433 20.024C200.257 20.024 199.057 19.688 198.097 19.208ZM198.577 10.592C198.577 8.12 199.801 6.584 201.889 6.584C203.785 6.584 205.321 7.496 205.321 10.664C205.321 13.832 203.785 14.84 202.105 14.84C199.921 14.84 198.577 13.112 198.577 10.592ZM217.147 2.408H219.547V0.0559993H217.147V2.408ZM217.195 17H219.523V4.856H217.195V17ZM223.101 17H225.429V11.168C225.429 8.672 227.109 6.704 229.485 6.704C231.429 6.704 231.765 8.048 231.765 9.752V17H234.093V9.224C234.093 6.128 232.797 4.568 229.941 4.568C227.277 4.568 225.789 6.368 225.333 7.424H225.285C225.285 7.424 225.357 7.016 225.357 6.512V4.856H223.101V17ZM238.066 12.56C238.066 16.616 241.162 17.12 242.722 17.12C243.082 17.12 243.346 17.072 243.538 17.048V14.984C243.298 15.032 243.154 15.032 242.986 15.032C242.098 15.032 240.394 14.72 240.394 12.296V6.872H243.322V4.976H240.394V1.52H238.114V4.976H236.482V6.872H238.066V12.56ZM245.02 10.928C245.02 14.528 247.66 17.288 251.476 17.288C253.156 17.288 255.004 16.64 256.18 15.56L255.196 13.856C254.236 14.72 252.916 15.272 251.62 15.272C249.436 15.272 247.564 13.856 247.444 11.24H256.276C256.324 10.904 256.372 10.568 256.372 10.256C256.372 7.136 254.548 4.568 251.116 4.568C247.66 4.568 245.02 7.064 245.02 10.928ZM247.516 9.56C247.852 7.544 249.268 6.368 251.068 6.368C252.652 6.368 253.948 7.472 254.02 9.56H247.516ZM259.171 17H261.499V11.96C261.499 9.608 262.603 7.016 265.219 7.016C265.459 7.016 265.795 7.04 265.891 7.064V4.76C265.699 4.736 265.483 4.712 265.267 4.712C263.395 4.712 261.979 6.176 261.403 7.928H261.355C261.355 7.928 261.427 7.544 261.427 7.04V4.856H259.171V17ZM267.098 10.928C267.098 14.528 269.738 17.288 273.554 17.288C275.234 17.288 277.082 16.64 278.258 15.56L277.274 13.856C276.314 14.72 274.994 15.272 273.698 15.272C271.514 15.272 269.642 13.856 269.522 11.24H278.354C278.402 10.904 278.45 10.568 278.45 10.256C278.45 7.136 276.626 4.568 273.194 4.568C269.738 4.568 267.098 7.064 267.098 10.928ZM269.594 9.56C269.93 7.544 271.346 6.368 273.146 6.368C274.73 6.368 276.026 7.472 276.098 9.56H269.594ZM280.217 15.512C281.417 16.736 283.217 17.288 284.849 17.288C287.441 17.288 289.217 15.776 289.217 13.712C289.217 9.704 282.953 10.4 282.953 8.024C282.953 6.992 283.841 6.512 285.017 6.512C286.097 6.512 287.369 6.92 288.089 7.592L289.025 5.912C287.969 4.952 286.481 4.568 285.089 4.568C282.713 4.568 280.721 5.768 280.721 8.072C280.721 12.056 286.961 11.432 286.961 13.76C286.961 14.768 286.121 15.344 284.897 15.344C283.625 15.344 282.233 14.816 281.321 13.928L280.217 15.512ZM292.488 12.56C292.488 16.616 295.584 17.12 297.144 17.12C297.504 17.12 297.768 17.072 297.96 17.048V14.984C297.72 15.032 297.576 15.032 297.408 15.032C296.52 15.032 294.816 14.72 294.816 12.296V6.872H297.744V4.976H294.816V1.52H292.536V4.976H290.904V6.872H292.488V12.56ZM300.303 2.408H302.703V0.0559993H300.303V2.408ZM300.351 17H302.679V4.856H300.351V17ZM306.257 17H308.585V11.168C308.585 8.672 310.265 6.704 312.641 6.704C314.585 6.704 314.921 8.048 314.921 9.752V17H317.249V9.224C317.249 6.128 315.953 4.568 313.097 4.568C310.433 4.568 308.945 6.368 308.489 7.424H308.441C308.441 7.424 308.513 7.016 308.513 6.512V4.856H306.257V17ZM321.87 19.208L321.102 21.032C322.302 21.632 323.79 22.04 325.254 22.04C328.326 22.04 331.374 20.504 331.374 16.496V4.856H329.142V6.056C329.142 6.272 329.214 6.416 329.214 6.416H329.142C328.374 5.12 326.814 4.568 325.302 4.568C321.918 4.568 319.998 7.16 319.998 10.664C319.998 14.144 322.038 16.856 325.422 16.856C327.174 16.856 328.35 16.088 329.07 14.888H329.118C329.118 14.888 329.046 15.272 329.046 15.656V16.64C329.046 19.064 327.318 20.024 325.206 20.024C324.03 20.024 322.83 19.688 321.87 19.208ZM322.35 10.592C322.35 8.12 323.574 6.584 325.662 6.584C327.558 6.584 329.094 7.496 329.094 10.664C329.094 13.832 327.558 14.84 325.878 14.84C323.694 14.84 322.35 13.112 322.35 10.592ZM339.96 13.688C339.96 15.968 341.904 17.288 344.016 17.288C345.816 17.288 347.304 16.208 348 14.816H348.048C348.048 14.816 347.976 15.224 347.976 15.776V17H350.16V9.32C350.16 6.248 348.408 4.568 345.36 4.568C343.656 4.568 341.808 5.192 340.824 6.008L341.76 7.712C342.744 7.016 343.968 6.536 345.168 6.536C346.68 6.536 347.832 7.208 347.832 9.2V9.44H347.208C344.688 9.44 339.96 9.872 339.96 13.688ZM342.288 13.496C342.288 11.264 345.504 11.12 347.232 11.12H347.832V11.576C347.832 13.376 346.608 15.44 344.568 15.44C343.056 15.44 342.288 14.456 342.288 13.496ZM353.624 17H355.952V11.168C355.952 8.672 357.632 6.704 360.008 6.704C361.952 6.704 362.288 8.048 362.288 9.752V17H364.616V9.224C364.616 6.128 363.32 4.568 360.464 4.568C357.8 4.568 356.312 6.368 355.856 7.424H355.808C355.808 7.424 355.88 7.016 355.88 6.512V4.856H353.624V17ZM367.341 10.928C367.341 14.696 369.429 17.288 372.693 17.288C374.613 17.288 376.029 16.28 376.725 14.96H376.773C376.773 14.96 376.701 15.296 376.701 15.776V17H378.909V0.0559993H376.605V5.744C376.605 6.2 376.653 6.56 376.653 6.56H376.605C375.837 5.264 374.373 4.568 372.837 4.568C369.621 4.568 367.341 7.064 367.341 10.928ZM369.717 10.928C369.717 8.168 371.301 6.608 373.197 6.608C375.525 6.608 376.653 8.72 376.653 10.904C376.653 13.976 374.949 15.272 373.149 15.272C371.133 15.272 369.717 13.568 369.717 10.928ZM387.707 10.928C387.707 14.528 390.347 17.288 394.163 17.288C395.843 17.288 397.691 16.64 398.867 15.56L397.883 13.856C396.923 14.72 395.603 15.272 394.307 15.272C392.123 15.272 390.251 13.856 390.131 11.24H398.963C399.011 10.904 399.059 10.568 399.059 10.256C399.059 7.136 397.235 4.568 393.803 4.568C390.347 4.568 387.707 7.064 387.707 10.928ZM390.203 9.56C390.539 7.544 391.955 6.368 393.755 6.368C395.339 6.368 396.635 7.472 396.707 9.56H390.203ZM400.373 17H403.013L405.557 12.944C405.749 12.656 405.917 12.296 405.917 12.296H405.965C405.965 12.296 406.157 12.656 406.349 12.944L408.893 17H411.533L407.381 10.76L411.293 4.856H408.629L406.373 8.552C406.205 8.864 405.965 9.272 405.965 9.272H405.917C405.917 9.272 405.701 8.864 405.533 8.552L403.277 4.856H400.613L404.525 10.76L400.373 17ZM412.551 10.928C412.551 14.576 415.215 17.288 419.055 17.288C420.951 17.288 422.799 16.52 423.903 15.344L422.967 13.64C422.031 14.624 420.567 15.272 419.223 15.272C416.703 15.272 414.927 13.376 414.927 10.904C414.927 8.432 416.703 6.584 419.151 6.584C420.423 6.584 421.695 7.16 422.511 7.976L423.615 6.344C422.463 5.12 420.663 4.568 419.055 4.568C415.239 4.568 412.551 7.328 412.551 10.928ZM426.373 2.408H428.773V0.0559993H426.373V2.408ZM426.421 17H428.749V4.856H426.421V17ZM432.831 12.56C432.831 16.616 435.927 17.12 437.487 17.12C437.847 17.12 438.111 17.072 438.303 17.048V14.984C438.063 15.032 437.919 15.032 437.751 15.032C436.863 15.032 435.159 14.72 435.159 12.296V6.872H438.087V4.976H435.159V1.52H432.879V4.976H431.247V6.872H432.831V12.56ZM440.647 2.408H443.047V0.0559993H440.647V2.408ZM440.695 17H443.023V4.856H440.695V17ZM446.601 17H448.929V11.168C448.929 8.672 450.609 6.704 452.985 6.704C454.929 6.704 455.265 8.048 455.265 9.752V17H457.593V9.224C457.593 6.128 456.297 4.568 453.441 4.568C450.777 4.568 449.289 6.368 448.833 7.424H448.785C448.785 7.424 448.857 7.016 448.857 6.512V4.856H446.601V17ZM462.214 19.208L461.446 21.032C462.646 21.632 464.134 22.04 465.598 22.04C468.67 22.04 471.718 20.504 471.718 16.496V4.856H469.486V6.056C469.486 6.272 469.558 6.416 469.558 6.416H469.486C468.718 5.12 467.158 4.568 465.646 4.568C462.262 4.568 460.342 7.16 460.342 10.664C460.342 14.144 462.382 16.856 465.766 16.856C467.518 16.856 468.694 16.088 469.414 14.888H469.462C469.462 14.888 469.39 15.272 469.39 15.656V16.64C469.39 19.064 467.662 20.024 465.55 20.024C464.374 20.024 463.174 19.688 462.214 19.208ZM462.694 10.592C462.694 8.12 463.918 6.584 466.006 6.584C467.902 6.584 469.438 7.496 469.438 10.664C469.438 13.832 467.902 14.84 466.222 14.84C464.038 14.84 462.694 13.112 462.694 10.592ZM475.192 17H477.688V14.48H475.192V17ZM489.707 17H492.443L495.395 6.008C495.707 4.904 495.923 3.632 495.923 3.632H496.019C496.019 3.632 496.235 4.904 496.523 6.008L499.499 17H502.211L506.675 0.0559993H504.227L501.083 12.488C500.867 13.4 500.771 14.288 500.771 14.288H500.723C500.723 14.288 500.579 13.424 500.339 12.488L497.027 0.0559993H494.939L491.603 12.488C491.363 13.424 491.219 14.288 491.219 14.288H491.171C491.171 14.288 491.051 13.4 490.835 12.488L487.883 0.0559993H485.387L489.707 17ZM507.426 10.928C507.426 14.528 510.066 17.288 513.882 17.288C515.562 17.288 517.41 16.64 518.586 15.56L517.602 13.856C516.642 14.72 515.322 15.272 514.026 15.272C511.842 15.272 509.97 13.856 509.85 11.24H518.682C518.73 10.904 518.778 10.568 518.778 10.256C518.778 7.136 516.954 4.568 513.522 4.568C510.066 4.568 507.426 7.064 507.426 10.928ZM509.922 9.56C510.258 7.544 511.674 6.368 513.474 6.368C515.058 6.368 516.354 7.472 516.426 9.56H509.922ZM527.613 12.56C527.613 16.616 530.709 17.12 532.269 17.12C532.629 17.12 532.893 17.072 533.085 17.048V14.984C532.845 15.032 532.701 15.032 532.533 15.032C531.645 15.032 529.941 14.72 529.941 12.296V6.872H532.869V4.976H529.941V1.52H527.661V4.976H526.029V6.872H527.613V12.56ZM534.567 10.928C534.567 14.528 537.207 17.288 541.023 17.288C542.703 17.288 544.551 16.64 545.727 15.56L544.743 13.856C543.783 14.72 542.463 15.272 541.167 15.272C538.983 15.272 537.111 13.856 536.991 11.24H545.823C545.871 10.904 545.919 10.568 545.919 10.256C545.919 7.136 544.095 4.568 540.663 4.568C537.207 4.568 534.567 7.064 534.567 10.928ZM537.063 9.56C537.399 7.544 538.815 6.368 540.615 6.368C542.199 6.368 543.495 7.472 543.567 9.56H537.063ZM547.71 13.688C547.71 15.968 549.654 17.288 551.766 17.288C553.566 17.288 555.054 16.208 555.75 14.816H555.798C555.798 14.816 555.726 15.224 555.726 15.776V17H557.91V9.32C557.91 6.248 556.158 4.568 553.11 4.568C551.406 4.568 549.558 5.192 548.574 6.008L549.51 7.712C550.494 7.016 551.718 6.536 552.918 6.536C554.43 6.536 555.582 7.208 555.582 9.2V9.44H554.958C552.438 9.44 547.71 9.872 547.71 13.688ZM550.038 13.496C550.038 11.264 553.254 11.12 554.982 11.12H555.582V11.576C555.582 13.376 554.358 15.44 552.318 15.44C550.806 15.44 550.038 14.456 550.038 13.496ZM560.582 10.928C560.582 14.576 563.246 17.288 567.086 17.288C568.982 17.288 570.83 16.52 571.934 15.344L570.998 13.64C570.062 14.624 568.598 15.272 567.254 15.272C564.734 15.272 562.958 13.376 562.958 10.904C562.958 8.432 564.734 6.584 567.182 6.584C568.454 6.584 569.726 7.16 570.542 7.976L571.646 6.344C570.494 5.12 568.694 4.568 567.086 4.568C563.27 4.568 560.582 7.328 560.582 10.928ZM574.452 17H576.78V11.24C576.78 8.624 578.484 6.704 580.836 6.704C582.78 6.704 583.116 8.048 583.116 9.752V17H585.444V9.224C585.444 6.128 584.148 4.568 581.292 4.568C578.868 4.568 577.284 6.2 576.732 7.352H576.684C576.684 7.352 576.78 6.92 576.78 6.344V0.0559993H574.452V17ZM594.949 12.56C594.949 16.616 598.045 17.12 599.605 17.12C599.965 17.12 600.229 17.072 600.421 17.048V14.984C600.181 15.032 600.037 15.032 599.869 15.032C598.981 15.032 597.277 14.72 597.277 12.296V6.872H600.205V4.976H597.277V1.52H594.997V4.976H593.365V6.872H594.949V12.56ZM601.879 10.904C601.879 14.6 604.807 17.288 608.431 17.288C612.031 17.288 614.959 14.6 614.959 10.904C614.959 7.232 612.031 4.568 608.407 4.568C604.807 4.568 601.879 7.232 601.879 10.904ZM604.255 10.904C604.255 8.384 606.127 6.584 608.431 6.584C610.711 6.584 612.607 8.384 612.607 10.904C612.607 13.448 610.711 15.272 608.431 15.272C606.127 15.272 604.255 13.448 604.255 10.904ZM623.8 12.56C623.8 16.616 626.896 17.12 628.456 17.12C628.816 17.12 629.08 17.072 629.272 17.048V14.984C629.032 15.032 628.888 15.032 628.72 15.032C627.832 15.032 626.128 14.72 626.128 12.296V6.872H629.056V4.976H626.128V1.52H623.848V4.976H622.216V6.872H623.8V12.56ZM631.663 17H633.991V11.24C633.991 8.624 635.695 6.704 638.047 6.704C639.991 6.704 640.327 8.048 640.327 9.752V17H642.655V9.224C642.655 6.128 641.359 4.568 638.503 4.568C636.079 4.568 634.495 6.2 633.943 7.352H633.895C633.895 7.352 633.991 6.92 633.991 6.344V0.0559993H631.663V17ZM646.076 2.408H648.476V0.0559993H646.076V2.408ZM646.124 17H648.452V4.856H646.124V17ZM652.03 17H654.358V11.168C654.358 8.672 656.038 6.704 658.414 6.704C660.358 6.704 660.694 8.048 660.694 9.752V17H663.022V9.224C663.022 6.128 661.726 4.568 658.87 4.568C656.206 4.568 654.718 6.368 654.262 7.424H654.214C654.214 7.424 654.286 7.016 654.286 6.512V4.856H652.03V17ZM666.491 17H668.819V11.312H670.595L674.219 17H676.931L672.443 10.256V10.208L676.475 4.856H673.835L670.547 9.32H668.819V0.0559993H666.491V17ZM0.901375 47.688C0.901375 49.968 2.84538 51.288 4.95738 51.288C6.75738 51.288 8.24538 50.208 8.94138 48.816H8.98938C8.98938 48.816 8.91738 49.224 8.91738 49.776V51H11.1014V43.32C11.1014 40.248 9.34938 38.568 6.30138 38.568C4.59738 38.568 2.74938 39.192 1.76538 40.008L2.70138 41.712C3.68538 41.016 4.90938 40.536 6.10938 40.536C7.62138 40.536 8.77338 41.208 8.77338 43.2V43.44H8.14938C5.62938 43.44 0.901375 43.872 0.901375 47.688ZM3.22938 47.496C3.22938 45.264 6.44537 45.12 8.17338 45.12H8.77338V45.576C8.77338 47.376 7.54938 49.44 5.50938 49.44C3.99738 49.44 3.22938 48.456 3.22938 47.496ZM14.5656 51H16.8936V45.168C16.8936 42.672 18.5736 40.704 20.9496 40.704C22.8936 40.704 23.2296 42.048 23.2296 43.752V51H25.5576V43.224C25.5576 40.128 24.2616 38.568 21.4056 38.568C18.7416 38.568 17.2536 40.368 16.7976 41.424H16.7496C16.7496 41.424 16.8216 41.016 16.8216 40.512V38.856H14.5656V51ZM28.2826 44.928C28.2826 48.696 30.3706 51.288 33.6346 51.288C35.5546 51.288 36.9706 50.28 37.6666 48.96H37.7146C37.7146 48.96 37.6426 49.296 37.6426 49.776V51H39.8506V34.056H37.5466V39.744C37.5466 40.2 37.5946 40.56 37.5946 40.56H37.5466C36.7786 39.264 35.3146 38.568 33.7786 38.568C30.5626 38.568 28.2826 41.064 28.2826 44.928ZM30.6586 44.928C30.6586 42.168 32.2426 40.608 34.1386 40.608C36.4666 40.608 37.5946 42.72 37.5946 44.904C37.5946 47.976 35.8906 49.272 34.0906 49.272C32.0746 49.272 30.6586 47.568 30.6586 44.928ZM49.2966 46.632C49.2966 49.848 50.7126 51.288 53.4486 51.288C55.8246 51.288 57.4326 49.632 57.9606 48.432H58.0086C58.0086 48.432 57.9126 48.84 57.9126 49.32V51H60.1686V38.856H57.8646V44.544C57.8646 46.944 56.4006 49.128 53.9046 49.128C51.9846 49.128 51.6246 47.784 51.6246 46.104V38.856H49.2966V46.632ZM63.7609 51H66.0889V45.168C66.0889 42.672 67.7689 40.704 70.1449 40.704C72.0889 40.704 72.4249 42.048 72.4249 43.752V51H74.7529V43.224C74.7529 40.128 73.4569 38.568 70.6009 38.568C67.9369 38.568 66.4489 40.368 65.9929 41.424H65.9449C65.9449 41.424 66.0169 41.016 66.0169 40.512V38.856H63.7609V51ZM77.4779 44.928C77.4779 48.696 79.5659 51.288 82.8299 51.288C84.7499 51.288 86.1659 50.28 86.8619 48.96H86.9099C86.9099 48.96 86.8379 49.296 86.8379 49.776V51H89.0459V34.056H86.7419V39.744C86.7419 40.2 86.7899 40.56 86.7899 40.56H86.7419C85.9739 39.264 84.5099 38.568 82.9739 38.568C79.7579 38.568 77.4779 41.064 77.4779 44.928ZM79.8539 44.928C79.8539 42.168 81.4379 40.608 83.3339 40.608C85.6619 40.608 86.7899 42.72 86.7899 44.904C86.7899 47.976 85.0859 49.272 83.2859 49.272C81.2699 49.272 79.8539 47.568 79.8539 44.928ZM91.8439 44.928C91.8439 48.528 94.4839 51.288 98.2999 51.288C99.9799 51.288 101.828 50.64 103.004 49.56L102.02 47.856C101.06 48.72 99.7399 49.272 98.4439 49.272C96.2599 49.272 94.3879 47.856 94.2679 45.24H103.1C103.148 44.904 103.196 44.568 103.196 44.256C103.196 41.136 101.372 38.568 97.9399 38.568C94.4839 38.568 91.8439 41.064 91.8439 44.928ZM94.3399 43.56C94.6759 41.544 96.0919 40.368 97.8919 40.368C99.4759 40.368 100.772 41.472 100.844 43.56H94.3399ZM105.995 51H108.323V45.96C108.323 43.608 109.427 41.016 112.043 41.016C112.283 41.016 112.619 41.04 112.715 41.064V38.76C112.523 38.736 112.307 38.712 112.091 38.712C110.219 38.712 108.803 40.176 108.227 41.928H108.179C108.179 41.928 108.251 41.544 108.251 41.04V38.856H105.995V51ZM113.987 49.512C115.187 50.736 116.987 51.288 118.619 51.288C121.211 51.288 122.987 49.776 122.987 47.712C122.987 43.704 116.723 44.4 116.723 42.024C116.723 40.992 117.611 40.512 118.787 40.512C119.867 40.512 121.139 40.92 121.859 41.592L122.795 39.912C121.739 38.952 120.251 38.568 118.859 38.568C116.483 38.568 114.491 39.768 114.491 42.072C114.491 46.056 120.731 45.432 120.731 47.76C120.731 48.768 119.891 49.344 118.667 49.344C117.395 49.344 116.003 48.816 115.091 47.928L113.987 49.512ZM126.257 46.56C126.257 50.616 129.353 51.12 130.913 51.12C131.273 51.12 131.537 51.072 131.729 51.048V48.984C131.489 49.032 131.345 49.032 131.177 49.032C130.289 49.032 128.585 48.72 128.585 46.296V40.872H131.513V38.976H128.585V35.52H126.305V38.976H124.673V40.872H126.257V46.56ZM133.112 47.688C133.112 49.968 135.056 51.288 137.168 51.288C138.968 51.288 140.456 50.208 141.152 48.816H141.2C141.2 48.816 141.128 49.224 141.128 49.776V51H143.312V43.32C143.312 40.248 141.56 38.568 138.512 38.568C136.808 38.568 134.96 39.192 133.976 40.008L134.912 41.712C135.896 41.016 137.12 40.536 138.32 40.536C139.832 40.536 140.984 41.208 140.984 43.2V43.44H140.36C137.84 43.44 133.112 43.872 133.112 47.688ZM135.44 47.496C135.44 45.264 138.656 45.12 140.384 45.12H140.984V45.576C140.984 47.376 139.76 49.44 137.72 49.44C136.208 49.44 135.44 48.456 135.44 47.496ZM146.777 51H149.105V45.168C149.105 42.672 150.785 40.704 153.161 40.704C155.105 40.704 155.441 42.048 155.441 43.752V51H157.769V43.224C157.769 40.128 156.473 38.568 153.617 38.568C150.953 38.568 149.465 40.368 149.009 41.424H148.961C148.961 41.424 149.033 41.016 149.033 40.512V38.856H146.777V51ZM160.494 44.928C160.494 48.696 162.582 51.288 165.846 51.288C167.766 51.288 169.182 50.28 169.878 48.96H169.926C169.926 48.96 169.854 49.296 169.854 49.776V51H172.062V34.056H169.758V39.744C169.758 40.2 169.806 40.56 169.806 40.56H169.758C168.99 39.264 167.526 38.568 165.99 38.568C162.774 38.568 160.494 41.064 160.494 44.928ZM162.87 44.928C162.87 42.168 164.454 40.608 166.35 40.608C168.678 40.608 169.806 42.72 169.806 44.904C169.806 47.976 168.102 49.272 166.302 49.272C164.286 49.272 162.87 47.568 162.87 44.928ZM181.652 51H183.98V45.24C183.98 42.624 185.684 40.704 188.036 40.704C189.98 40.704 190.316 42.048 190.316 43.752V51H192.644V43.224C192.644 40.128 191.348 38.568 188.492 38.568C186.068 38.568 184.484 40.2 183.932 41.352H183.884C183.884 41.352 183.98 40.92 183.98 40.344V34.056H181.652V51ZM195.321 44.904C195.321 48.6 198.249 51.288 201.873 51.288C205.473 51.288 208.401 48.6 208.401 44.904C208.401 41.232 205.473 38.568 201.849 38.568C198.249 38.568 195.321 41.232 195.321 44.904ZM197.697 44.904C197.697 42.384 199.569 40.584 201.873 40.584C204.153 40.584 206.049 42.384 206.049 44.904C206.049 47.448 204.153 49.272 201.873 49.272C199.569 49.272 197.697 47.448 197.697 44.904ZM213.613 51H216.205L218.701 43.2C218.893 42.576 219.037 41.88 219.037 41.88H219.085C219.085 41.88 219.229 42.576 219.445 43.2L221.941 51H224.533L228.421 38.856H225.997L223.453 47.376C223.261 48 223.141 48.672 223.141 48.672H223.093C223.093 48.672 222.949 48 222.781 47.376L220.165 38.88H218.005L215.389 47.376C215.197 48 215.053 48.672 215.053 48.672H215.005C215.005 48.672 214.885 48 214.693 47.376L212.173 38.856H209.701L213.613 51ZM236.249 46.56C236.249 50.616 239.345 51.12 240.905 51.12C241.265 51.12 241.529 51.072 241.721 51.048V48.984C241.481 49.032 241.337 49.032 241.169 49.032C240.281 49.032 238.577 48.72 238.577 46.296V40.872H241.505V38.976H238.577V35.52H236.297V38.976H234.665V40.872H236.249V46.56ZM244.113 51H246.441V45.24C246.441 42.624 248.145 40.704 250.497 40.704C252.441 40.704 252.777 42.048 252.777 43.752V51H255.105V43.224C255.105 40.128 253.809 38.568 250.953 38.568C248.529 38.568 246.945 40.2 246.393 41.352H246.345C246.345 41.352 246.441 40.92 246.441 40.344V34.056H244.113V51ZM258.525 36.408H260.925V34.056H258.525V36.408ZM258.573 51H260.901V38.856H258.573V51ZM264.48 51H266.808V45.168C266.808 42.672 268.488 40.704 270.864 40.704C272.808 40.704 273.144 42.048 273.144 43.752V51H275.472V43.224C275.472 40.128 274.176 38.568 271.32 38.568C268.656 38.568 267.168 40.368 266.712 41.424H266.664C266.664 41.424 266.736 41.016 266.736 40.512V38.856H264.48V51ZM280.093 53.208L279.325 55.032C280.525 55.632 282.013 56.04 283.477 56.04C286.549 56.04 289.597 54.504 289.597 50.496V38.856H287.365V40.056C287.365 40.272 287.437 40.416 287.437 40.416H287.365C286.597 39.12 285.037 38.568 283.525 38.568C280.141 38.568 278.221 41.16 278.221 44.664C278.221 48.144 280.261 50.856 283.645 50.856C285.397 50.856 286.573 50.088 287.293 48.888H287.341C287.341 48.888 287.269 49.272 287.269 49.656V50.64C287.269 53.064 285.541 54.024 283.429 54.024C282.253 54.024 281.053 53.688 280.093 53.208ZM280.573 44.592C280.573 42.12 281.797 40.584 283.885 40.584C285.781 40.584 287.317 41.496 287.317 44.664C287.317 47.832 285.781 48.84 284.101 48.84C281.917 48.84 280.573 47.112 280.573 44.592ZM292.159 49.512C293.359 50.736 295.159 51.288 296.791 51.288C299.383 51.288 301.159 49.776 301.159 47.712C301.159 43.704 294.895 44.4 294.895 42.024C294.895 40.992 295.783 40.512 296.959 40.512C298.039 40.512 299.311 40.92 300.031 41.592L300.967 39.912C299.911 38.952 298.423 38.568 297.031 38.568C294.655 38.568 292.663 39.768 292.663 42.072C292.663 46.056 298.903 45.432 298.903 47.76C298.903 48.768 298.063 49.344 296.839 49.344C295.567 49.344 294.175 48.816 293.263 47.928L292.159 49.512ZM312.027 51H314.619L317.115 43.2C317.307 42.576 317.451 41.88 317.451 41.88H317.499C317.499 41.88 317.643 42.576 317.859 43.2L320.355 51H322.947L326.835 38.856H324.411L321.867 47.376C321.675 48 321.555 48.672 321.555 48.672H321.507C321.507 48.672 321.363 48 321.195 47.376L318.579 38.88H316.419L313.803 47.376C313.611 48 313.467 48.672 313.467 48.672H313.419C313.419 48.672 313.299 48 313.107 47.376L310.587 38.856H308.115L312.027 51ZM328.141 44.904C328.141 48.6 331.069 51.288 334.693 51.288C338.293 51.288 341.221 48.6 341.221 44.904C341.221 41.232 338.293 38.568 334.669 38.568C331.069 38.568 328.141 41.232 328.141 44.904ZM330.517 44.904C330.517 42.384 332.389 40.584 334.693 40.584C336.973 40.584 338.869 42.384 338.869 44.904C338.869 47.448 336.973 49.272 334.693 49.272C332.389 49.272 330.517 47.448 330.517 44.904ZM344.027 51H346.355V45.96C346.355 43.608 347.459 41.016 350.075 41.016C350.315 41.016 350.651 41.04 350.747 41.064V38.76C350.555 38.736 350.339 38.712 350.123 38.712C348.251 38.712 346.835 40.176 346.259 41.928H346.211C346.211 41.928 346.283 41.544 346.283 41.04V38.856H344.027V51ZM353.05 51H355.378V45.312H357.154L360.778 51H363.49L359.002 44.256V44.208L363.034 38.856H360.394L357.106 43.32H355.378V34.056H353.05V51ZM365.469 51H367.965V48.48H365.469V51ZM379.985 51H382.721L385.673 40.008C385.985 38.904 386.201 37.632 386.201 37.632H386.297C386.297 37.632 386.513 38.904 386.801 40.008L389.777 51H392.489L396.953 34.056H394.505L391.361 46.488C391.145 47.4 391.049 48.288 391.049 48.288H391.001C391.001 48.288 390.857 47.424 390.617 46.488L387.305 34.056H385.217L381.881 46.488C381.641 47.424 381.497 48.288 381.497 48.288H381.449C381.449 48.288 381.329 47.4 381.113 46.488L378.161 34.056H375.665L379.985 51ZM397.703 44.928C397.703 48.528 400.343 51.288 404.159 51.288C405.839 51.288 407.687 50.64 408.863 49.56L407.879 47.856C406.919 48.72 405.599 49.272 404.303 49.272C402.119 49.272 400.247 47.856 400.127 45.24H408.959C409.007 44.904 409.055 44.568 409.055 44.256C409.055 41.136 407.231 38.568 403.799 38.568C400.343 38.568 397.703 41.064 397.703 44.928ZM400.199 43.56C400.535 41.544 401.951 40.368 403.751 40.368C405.335 40.368 406.631 41.472 406.703 43.56H400.199ZM417.855 51H420.183V45.24C420.183 42.624 421.887 40.704 424.239 40.704C426.183 40.704 426.519 42.048 426.519 43.752V51H428.847V43.224C428.847 40.128 427.551 38.568 424.695 38.568C422.271 38.568 420.687 40.2 420.135 41.352H420.087C420.087 41.352 420.183 40.92 420.183 40.344V34.056H417.855V51ZM431.524 44.928C431.524 48.528 434.164 51.288 437.98 51.288C439.66 51.288 441.508 50.64 442.684 49.56L441.7 47.856C440.74 48.72 439.42 49.272 438.124 49.272C435.94 49.272 434.068 47.856 433.948 45.24H442.78C442.828 44.904 442.876 44.568 442.876 44.256C442.876 41.136 441.052 38.568 437.62 38.568C434.164 38.568 431.524 41.064 431.524 44.928ZM434.02 43.56C434.356 41.544 435.772 40.368 437.572 40.368C439.156 40.368 440.452 41.472 440.524 43.56H434.02ZM445.675 47.664C445.675 50.736 447.595 51.12 448.939 51.12C449.275 51.12 449.539 51.072 449.707 51.048V48.984C449.563 49.008 449.395 49.008 449.299 49.008C448.579 49.008 447.979 48.72 447.979 47.28V34.056H445.675V47.664ZM452.073 55.8H454.401V50.28C454.401 49.656 454.305 49.224 454.305 49.224H454.353C455.193 50.52 456.585 51.288 458.121 51.288C461.313 51.288 463.617 48.792 463.617 44.928C463.617 41.16 461.577 38.568 458.289 38.568C456.513 38.568 454.977 39.384 454.209 40.848H454.161C454.161 40.848 454.233 40.44 454.233 39.936V38.856H452.073V55.8ZM454.329 44.976C454.329 41.904 456.009 40.608 457.833 40.608C459.849 40.608 461.265 42.312 461.265 44.952C461.265 47.712 459.681 49.272 457.761 49.272C455.529 49.272 454.329 47.136 454.329 44.976ZM472.523 46.56C472.523 50.616 475.619 51.12 477.179 51.12C477.539 51.12 477.803 51.072 477.995 51.048V48.984C477.755 49.032 477.611 49.032 477.443 49.032C476.555 49.032 474.851 48.72 474.851 46.296V40.872H477.779V38.976H474.851V35.52H472.571V38.976H470.939V40.872H472.523V46.56ZM479.453 44.904C479.453 48.6 482.381 51.288 486.005 51.288C489.605 51.288 492.533 48.6 492.533 44.904C492.533 41.232 489.605 38.568 485.981 38.568C482.381 38.568 479.453 41.232 479.453 44.904ZM481.829 44.904C481.829 42.384 483.701 40.584 486.005 40.584C488.285 40.584 490.181 42.384 490.181 44.904C490.181 47.448 488.285 49.272 486.005 49.272C483.701 49.272 481.829 47.448 481.829 44.904ZM500.331 47.688C500.331 49.968 502.275 51.288 504.387 51.288C506.187 51.288 507.675 50.208 508.371 48.816H508.419C508.419 48.816 508.347 49.224 508.347 49.776V51H510.531V43.32C510.531 40.248 508.779 38.568 505.731 38.568C504.027 38.568 502.179 39.192 501.195 40.008L502.131 41.712C503.115 41.016 504.339 40.536 505.539 40.536C507.051 40.536 508.203 41.208 508.203 43.2V43.44H507.579C505.059 43.44 500.331 43.872 500.331 47.688ZM502.659 47.496C502.659 45.264 505.875 45.12 507.603 45.12H508.203V45.576C508.203 47.376 506.979 49.44 504.939 49.44C503.427 49.44 502.659 48.456 502.659 47.496ZM513.995 55.8H516.323V50.28C516.323 49.656 516.227 49.224 516.227 49.224H516.275C517.115 50.52 518.507 51.288 520.043 51.288C523.235 51.288 525.539 48.792 525.539 44.928C525.539 41.16 523.499 38.568 520.211 38.568C518.435 38.568 516.899 39.384 516.131 40.848H516.083C516.083 40.848 516.155 40.44 516.155 39.936V38.856H513.995V55.8ZM516.251 44.976C516.251 41.904 517.931 40.608 519.755 40.608C521.771 40.608 523.187 42.312 523.187 44.952C523.187 47.712 521.603 49.272 519.683 49.272C517.451 49.272 516.251 47.136 516.251 44.976ZM528.409 55.8H530.737V50.28C530.737 49.656 530.641 49.224 530.641 49.224H530.689C531.529 50.52 532.921 51.288 534.457 51.288C537.649 51.288 539.953 48.792 539.953 44.928C539.953 41.16 537.913 38.568 534.625 38.568C532.849 38.568 531.313 39.384 530.545 40.848H530.497C530.497 40.848 530.569 40.44 530.569 39.936V38.856H528.409V55.8ZM530.665 44.976C530.665 41.904 532.345 40.608 534.169 40.608C536.185 40.608 537.601 42.312 537.601 44.952C537.601 47.712 536.017 49.272 534.097 49.272C531.865 49.272 530.665 47.136 530.665 44.976ZM542.823 47.664C542.823 50.736 544.743 51.12 546.087 51.12C546.423 51.12 546.687 51.072 546.855 51.048V48.984C546.711 49.008 546.543 49.008 546.447 49.008C545.727 49.008 545.127 48.72 545.127 47.28V34.056H542.823V47.664ZM548.411 53.52L547.595 55.296C547.595 55.296 548.579 56.04 549.923 56.04C551.627 56.04 553.139 55.08 553.859 53.184L559.571 38.856H557.051L554.099 46.824C553.883 47.448 553.691 48.264 553.691 48.264H553.643C553.643 48.264 553.427 47.4 553.187 46.8L550.139 38.856H547.523L552.611 50.856L552.011 52.248C551.555 53.352 550.763 54.048 549.803 54.048C549.083 54.048 548.411 53.52 548.411 53.52ZM567.222 51H569.55V45.312H571.326L574.95 51H577.662L573.174 44.256V44.208L577.206 38.856H574.566L571.278 43.32H569.55V34.056H567.222V51ZM579.761 51H582.089V45.168C582.089 42.672 583.769 40.704 586.145 40.704C588.089 40.704 588.425 42.048 588.425 43.752V51H590.753V43.224C590.753 40.128 589.457 38.568 586.601 38.568C583.937 38.568 582.449 40.368 581.993 41.424H581.945C581.945 41.424 582.017 41.016 582.017 40.512V38.856H579.761V51ZM593.43 44.904C593.43 48.6 596.358 51.288 599.982 51.288C603.582 51.288 606.51 48.6 606.51 44.904C606.51 41.232 603.582 38.568 599.958 38.568C596.358 38.568 593.43 41.232 593.43 44.904ZM595.806 44.904C595.806 42.384 597.678 40.584 599.982 40.584C602.262 40.584 604.158 42.384 604.158 44.904C604.158 47.448 602.262 49.272 599.982 49.272C597.678 49.272 595.806 47.448 595.806 44.904ZM611.722 51H614.314L616.81 43.2C617.002 42.576 617.146 41.88 617.146 41.88H617.194C617.194 41.88 617.338 42.576 617.554 43.2L620.05 51H622.642L626.53 38.856H624.106L621.562 47.376C621.37 48 621.25 48.672 621.25 48.672H621.202C621.202 48.672 621.058 48 620.89 47.376L618.274 38.88H616.114L613.498 47.376C613.306 48 613.162 48.672 613.162 48.672H613.114C613.114 48.672 612.994 48 612.802 47.376L610.282 38.856H607.81L611.722 51ZM628.909 47.664C628.909 50.736 630.829 51.12 632.173 51.12C632.509 51.12 632.773 51.072 632.941 51.048V48.984C632.797 49.008 632.629 49.008 632.533 49.008C631.813 49.008 631.213 48.72 631.213 47.28V34.056H628.909V47.664ZM634.516 44.928C634.516 48.528 637.156 51.288 640.972 51.288C642.652 51.288 644.5 50.64 645.676 49.56L644.692 47.856C643.732 48.72 642.412 49.272 641.116 49.272C638.932 49.272 637.06 47.856 636.94 45.24H645.772C645.82 44.904 645.868 44.568 645.868 44.256C645.868 41.136 644.044 38.568 640.612 38.568C637.156 38.568 634.516 41.064 634.516 44.928ZM637.012 43.56C637.348 41.544 638.764 40.368 640.564 40.368C642.148 40.368 643.444 41.472 643.516 43.56H637.012ZM647.923 44.928C647.923 48.696 650.011 51.288 653.275 51.288C655.195 51.288 656.611 50.28 657.307 48.96H657.355C657.355 48.96 657.283 49.296 657.283 49.776V51H659.491V34.056H657.187V39.744C657.187 40.2 657.235 40.56 657.235 40.56H657.187C656.419 39.264 654.955 38.568 653.419 38.568C650.203 38.568 647.923 41.064 647.923 44.928ZM650.299 44.928C650.299 42.168 651.883 40.608 653.779 40.608C656.107 40.608 657.235 42.72 657.235 44.904C657.235 47.976 655.531 49.272 653.731 49.272C651.715 49.272 650.299 47.568 650.299 44.928ZM664.233 53.208L663.465 55.032C664.665 55.632 666.153 56.04 667.617 56.04C670.689 56.04 673.737 54.504 673.737 50.496V38.856H671.505V40.056C671.505 40.272 671.577 40.416 671.577 40.416H671.505C670.737 39.12 669.177 38.568 667.665 38.568C664.281 38.568 662.361 41.16 662.361 44.664C662.361 48.144 664.401 50.856 667.785 50.856C669.537 50.856 670.713 50.088 671.433 48.888H671.481C671.481 48.888 671.409 49.272 671.409 49.656V50.64C671.409 53.064 669.681 54.024 667.569 54.024C666.393 54.024 665.193 53.688 664.233 53.208ZM664.713 44.592C664.713 42.12 665.937 40.584 668.025 40.584C669.921 40.584 671.457 41.496 671.457 44.664C671.457 47.832 669.921 48.84 668.241 48.84C666.057 48.84 664.713 47.112 664.713 44.592ZM676.539 44.928C676.539 48.528 679.179 51.288 682.995 51.288C684.675 51.288 686.523 50.64 687.699 49.56L686.715 47.856C685.755 48.72 684.435 49.272 683.139 49.272C680.955 49.272 679.083 47.856 678.963 45.24H687.795C687.843 44.904 687.891 44.568 687.891 44.256C687.891 41.136 686.067 38.568 682.635 38.568C679.179 38.568 676.539 41.064 676.539 44.928ZM679.035 43.56C679.371 41.544 680.787 40.368 682.587 40.368C684.171 40.368 685.467 41.472 685.539 43.56H679.035ZM216.186 70.408H218.586V68.056H216.186V70.408ZM216.234 85H218.562V72.856H216.234V85ZM222.14 85H224.468V79.168C224.468 76.672 226.148 74.704 228.524 74.704C230.468 74.704 230.804 76.048 230.804 77.752V85H233.132V77.224C233.132 74.128 231.836 72.568 228.98 72.568C226.316 72.568 224.828 74.368 224.372 75.424H224.324C224.324 75.424 224.396 75.016 224.396 74.512V72.856H222.14V85ZM242.601 89.8H244.929V84.28C244.929 83.656 244.833 83.224 244.833 83.224H244.881C245.721 84.52 247.113 85.288 248.649 85.288C251.841 85.288 254.145 82.792 254.145 78.928C254.145 75.16 252.105 72.568 248.817 72.568C247.041 72.568 245.505 73.384 244.737 74.848H244.689C244.689 74.848 244.761 74.44 244.761 73.936V72.856H242.601V89.8ZM244.857 78.976C244.857 75.904 246.537 74.608 248.361 74.608C250.377 74.608 251.793 76.312 251.793 78.952C251.793 81.712 250.209 83.272 248.289 83.272C246.057 83.272 244.857 81.136 244.857 78.976ZM257.015 85H259.343V79.96C259.343 77.608 260.447 75.016 263.063 75.016C263.303 75.016 263.639 75.04 263.735 75.064V72.76C263.543 72.736 263.327 72.712 263.111 72.712C261.239 72.712 259.823 74.176 259.247 75.928H259.199C259.199 75.928 259.271 75.544 259.271 75.04V72.856H257.015V85ZM264.89 81.688C264.89 83.968 266.834 85.288 268.946 85.288C270.746 85.288 272.234 84.208 272.93 82.816H272.978C272.978 82.816 272.906 83.224 272.906 83.776V85H275.09V77.32C275.09 74.248 273.338 72.568 270.29 72.568C268.586 72.568 266.738 73.192 265.754 74.008L266.69 75.712C267.674 75.016 268.898 74.536 270.098 74.536C271.61 74.536 272.762 75.208 272.762 77.2V77.44H272.138C269.618 77.44 264.89 77.872 264.89 81.688ZM267.218 81.496C267.218 79.264 270.434 79.12 272.162 79.12H272.762V79.576C272.762 81.376 271.538 83.44 269.498 83.44C267.986 83.44 267.218 82.456 267.218 81.496ZM277.762 78.928C277.762 82.576 280.426 85.288 284.266 85.288C286.162 85.288 288.01 84.52 289.114 83.344L288.178 81.64C287.242 82.624 285.778 83.272 284.434 83.272C281.914 83.272 280.138 81.376 280.138 78.904C280.138 76.432 281.914 74.584 284.362 74.584C285.634 74.584 286.906 75.16 287.722 75.976L288.826 74.344C287.674 73.12 285.874 72.568 284.266 72.568C280.45 72.568 277.762 75.328 277.762 78.928ZM292.136 80.56C292.136 84.616 295.232 85.12 296.792 85.12C297.152 85.12 297.416 85.072 297.608 85.048V82.984C297.368 83.032 297.224 83.032 297.056 83.032C296.168 83.032 294.464 82.72 294.464 80.296V74.872H297.392V72.976H294.464V69.52H292.184V72.976H290.552V74.872H292.136V80.56ZM299.951 70.408H302.351V68.056H299.951V70.408ZM299.999 85H302.327V72.856H299.999V85ZM305.113 78.928C305.113 82.576 307.777 85.288 311.617 85.288C313.513 85.288 315.361 84.52 316.465 83.344L315.529 81.64C314.593 82.624 313.129 83.272 311.785 83.272C309.265 83.272 307.489 81.376 307.489 78.904C307.489 76.432 309.265 74.584 311.713 74.584C312.985 74.584 314.257 75.16 315.073 75.976L316.177 74.344C315.025 73.12 313.225 72.568 311.617 72.568C307.801 72.568 305.113 75.328 305.113 78.928ZM317.934 78.928C317.934 82.528 320.574 85.288 324.39 85.288C326.07 85.288 327.918 84.64 329.094 83.56L328.11 81.856C327.15 82.72 325.83 83.272 324.534 83.272C322.35 83.272 320.478 81.856 320.358 79.24H329.19C329.238 78.904 329.286 78.568 329.286 78.256C329.286 75.136 327.462 72.568 324.03 72.568C320.574 72.568 317.934 75.064 317.934 78.928ZM320.43 77.56C320.766 75.544 322.182 74.368 323.982 74.368C325.566 74.368 326.862 75.472 326.934 77.56H320.43ZM337.077 81.688C337.077 83.968 339.021 85.288 341.133 85.288C342.933 85.288 344.421 84.208 345.117 82.816H345.165C345.165 82.816 345.093 83.224 345.093 83.776V85H347.277V77.32C347.277 74.248 345.525 72.568 342.477 72.568C340.773 72.568 338.925 73.192 337.941 74.008L338.877 75.712C339.861 75.016 341.085 74.536 342.285 74.536C343.797 74.536 344.949 75.208 344.949 77.2V77.44H344.325C341.805 77.44 337.077 77.872 337.077 81.688ZM339.405 81.496C339.405 79.264 342.621 79.12 344.349 79.12H344.949V79.576C344.949 81.376 343.725 83.44 341.685 83.44C340.173 83.44 339.405 82.456 339.405 81.496ZM350.741 85H353.069V79.168C353.069 76.672 354.749 74.704 357.125 74.704C359.069 74.704 359.405 76.048 359.405 77.752V85H361.733V77.224C361.733 74.128 360.437 72.568 357.581 72.568C354.917 72.568 353.429 74.368 352.973 75.424H352.925C352.925 75.424 352.997 75.016 352.997 74.512V72.856H350.741V85ZM364.458 78.928C364.458 82.696 366.546 85.288 369.81 85.288C371.73 85.288 373.146 84.28 373.842 82.96H373.89C373.89 82.96 373.818 83.296 373.818 83.776V85H376.026V68.056H373.722V73.744C373.722 74.2 373.77 74.56 373.77 74.56H373.722C372.954 73.264 371.49 72.568 369.954 72.568C366.738 72.568 364.458 75.064 364.458 78.928ZM366.834 78.928C366.834 76.168 368.418 74.608 370.314 74.608C372.642 74.608 373.77 76.72 373.77 78.904C373.77 81.976 372.066 83.272 370.266 83.272C368.25 83.272 366.834 81.568 366.834 78.928ZM384.872 78.928C384.872 82.696 386.96 85.288 390.224 85.288C392.144 85.288 393.56 84.28 394.256 82.96H394.304C394.304 82.96 394.232 83.296 394.232 83.776V85H396.44V68.056H394.136V73.744C394.136 74.2 394.184 74.56 394.184 74.56H394.136C393.368 73.264 391.904 72.568 390.368 72.568C387.152 72.568 384.872 75.064 384.872 78.928ZM387.248 78.928C387.248 76.168 388.832 74.608 390.728 74.608C393.056 74.608 394.184 76.72 394.184 78.904C394.184 81.976 392.48 83.272 390.68 83.272C388.664 83.272 387.248 81.568 387.248 78.928ZM399.022 81.688C399.022 83.968 400.966 85.288 403.078 85.288C404.878 85.288 406.366 84.208 407.062 82.816H407.11C407.11 82.816 407.038 83.224 407.038 83.776V85H409.222V77.32C409.222 74.248 407.47 72.568 404.422 72.568C402.718 72.568 400.87 73.192 399.886 74.008L400.822 75.712C401.806 75.016 403.03 74.536 404.23 74.536C405.742 74.536 406.894 75.208 406.894 77.2V77.44H406.27C403.75 77.44 399.022 77.872 399.022 81.688ZM401.35 81.496C401.35 79.264 404.566 79.12 406.294 79.12H406.894V79.576C406.894 81.376 405.67 83.44 403.63 83.44C402.118 83.44 401.35 82.456 401.35 81.496ZM412.639 70.408H415.039V68.056H412.639V70.408ZM412.687 85H415.015V72.856H412.687V85ZM418.593 81.664C418.593 84.736 420.513 85.12 421.857 85.12C422.193 85.12 422.457 85.072 422.625 85.048V82.984C422.481 83.008 422.313 83.008 422.217 83.008C421.497 83.008 420.897 82.72 420.897 81.28V68.056H418.593V81.664ZM424.18 87.52L423.364 89.296C423.364 89.296 424.348 90.04 425.692 90.04C427.396 90.04 428.908 89.08 429.628 87.184L435.34 72.856H432.82L429.868 80.824C429.652 81.448 429.46 82.264 429.46 82.264H429.412C429.412 82.264 429.196 81.4 428.956 80.8L425.908 72.856H423.292L428.38 84.856L427.78 86.248C427.324 87.352 426.532 88.048 425.572 88.048C424.852 88.048 424.18 87.52 424.18 87.52ZM442.991 81.664C442.991 84.736 444.911 85.12 446.255 85.12C446.591 85.12 446.855 85.072 447.023 85.048V82.984C446.879 83.008 446.711 83.008 446.615 83.008C445.895 83.008 445.295 82.72 445.295 81.28V68.056H442.991V81.664ZM449.342 70.408H451.742V68.056H449.342V70.408ZM449.39 85H451.718V72.856H449.39V85ZM455.872 85H458.2V74.872H461.056V72.976H458.2V72.472C458.2 70.24 459.832 69.976 460.744 69.976C461.008 69.976 461.248 70 461.344 70.024V68.008C461.032 67.96 460.768 67.936 460.456 67.936C458.92 67.936 455.872 68.44 455.872 72.448V72.976H454.36V74.872H455.872V85ZM462.356 78.928C462.356 82.528 464.996 85.288 468.812 85.288C470.492 85.288 472.34 84.64 473.516 83.56L472.532 81.856C471.572 82.72 470.252 83.272 468.956 83.272C466.772 83.272 464.9 81.856 464.78 79.24H473.612C473.66 78.904 473.708 78.568 473.708 78.256C473.708 75.136 471.884 72.568 468.452 72.568C464.996 72.568 462.356 75.064 462.356 78.928ZM464.852 77.56C465.188 75.544 466.604 74.368 468.404 74.368C469.988 74.368 471.284 75.472 471.356 77.56H464.852ZM476.387 85H478.883V82.48H476.387V85Z" fill="#505257"/>
</svg>
