<svg width="313" height="57" viewBox="0 0 313 57" fill="none" xmlns="http://www.w3.org/2000/svg">
<path d="M5.016 17H7.752L10.704 6.008C11.016 4.904 11.232 3.632 11.232 3.632H11.328C11.328 3.632 11.544 4.904 11.832 6.008L14.808 17H17.52L21.984 0.0559993H19.536L16.392 12.488C16.176 13.4 16.08 14.288 16.08 14.288H16.032C16.032 14.288 15.888 13.424 15.648 12.488L12.336 0.0559993H10.248L6.912 12.488C6.672 13.424 6.528 14.288 6.528 14.288H6.48C6.48 14.288 6.36 13.4 6.144 12.488L3.192 0.0559993H0.696L5.016 17ZM22.7346 10.928C22.7346 14.528 25.3746 17.288 29.1906 17.288C30.8706 17.288 32.7186 16.64 33.8946 15.56L32.9106 13.856C31.9506 14.72 30.6306 15.272 29.3346 15.272C27.1506 15.272 25.2786 13.856 25.1586 11.24H33.9906C34.0386 10.904 34.0866 10.568 34.0866 10.256C34.0866 7.136 32.2626 4.568 28.8306 4.568C25.3746 4.568 22.7346 7.064 22.7346 10.928ZM25.2306 9.56C25.5666 7.544 26.9826 6.368 28.7826 6.368C30.3666 6.368 31.6626 7.472 31.7346 9.56H25.2306ZM41.8539 15.512C43.0539 16.736 44.8539 17.288 46.4859 17.288C49.0779 17.288 50.8539 15.776 50.8539 13.712C50.8539 9.704 44.5899 10.4 44.5899 8.024C44.5899 6.992 45.4779 6.512 46.6539 6.512C47.7339 6.512 49.0059 6.92 49.7259 7.592L50.6619 5.912C49.6059 4.952 48.1179 4.568 46.7259 4.568C44.3499 4.568 42.3579 5.768 42.3579 8.072C42.3579 12.056 48.5979 11.432 48.5979 13.76C48.5979 14.768 47.7579 15.344 46.5339 15.344C45.2619 15.344 43.8699 14.816 42.9579 13.928L41.8539 15.512ZM52.8283 10.928C52.8283 14.528 55.4683 17.288 59.2843 17.288C60.9643 17.288 62.8123 16.64 63.9883 15.56L63.0043 13.856C62.0443 14.72 60.7243 15.272 59.4283 15.272C57.2443 15.272 55.3723 13.856 55.2523 11.24H64.0843C64.1323 10.904 64.1803 10.568 64.1803 10.256C64.1803 7.136 62.3563 4.568 58.9243 4.568C55.4683 4.568 52.8283 7.064 52.8283 10.928ZM55.3243 9.56C55.6603 7.544 57.0763 6.368 58.8763 6.368C60.4603 6.368 61.7563 7.472 61.8283 9.56H55.3243ZM66.9797 13.664C66.9797 16.736 68.8997 17.12 70.2437 17.12C70.5797 17.12 70.8437 17.072 71.0117 17.048V14.984C70.8677 15.008 70.6997 15.008 70.6037 15.008C69.8837 15.008 69.2837 14.72 69.2837 13.28V0.0559993H66.9797V13.664ZM72.5861 10.928C72.5861 14.528 75.2261 17.288 79.0421 17.288C80.7221 17.288 82.5701 16.64 83.7461 15.56L82.7621 13.856C81.8021 14.72 80.4821 15.272 79.1861 15.272C77.0021 15.272 75.1301 13.856 75.0101 11.24H83.8421C83.8901 10.904 83.9381 10.568 83.9381 10.256C83.9381 7.136 82.1141 4.568 78.6821 4.568C75.2261 4.568 72.5861 7.064 72.5861 10.928ZM75.0821 9.56C75.4181 7.544 76.8341 6.368 78.6341 6.368C80.2181 6.368 81.5141 7.472 81.5861 9.56H75.0821ZM85.9455 10.928C85.9455 14.576 88.6095 17.288 92.4495 17.288C94.3455 17.288 96.1935 16.52 97.2975 15.344L96.3615 13.64C95.4255 14.624 93.9615 15.272 92.6175 15.272C90.0975 15.272 88.3215 13.376 88.3215 10.904C88.3215 8.432 90.0975 6.584 92.5455 6.584C93.8175 6.584 95.0895 7.16 95.9055 7.976L97.0095 6.344C95.8575 5.12 94.0575 4.568 92.4495 4.568C88.6335 4.568 85.9455 7.328 85.9455 10.928ZM100.32 12.56C100.32 16.616 103.416 17.12 104.976 17.12C105.336 17.12 105.6 17.072 105.792 17.048V14.984C105.552 15.032 105.408 15.032 105.24 15.032C104.352 15.032 102.648 14.72 102.648 12.296V6.872H105.576V4.976H102.648V1.52H100.368V4.976H98.7356V6.872H100.32V12.56ZM114.218 12.56C114.218 16.616 117.314 17.12 118.874 17.12C119.234 17.12 119.498 17.072 119.69 17.048V14.984C119.45 15.032 119.306 15.032 119.138 15.032C118.25 15.032 116.546 14.72 116.546 12.296V6.872H119.474V4.976H116.546V1.52H114.266V4.976H112.634V6.872H114.218V12.56ZM121.172 10.928C121.172 14.528 123.812 17.288 127.628 17.288C129.308 17.288 131.156 16.64 132.332 15.56L131.348 13.856C130.388 14.72 129.068 15.272 127.772 15.272C125.588 15.272 123.716 13.856 123.596 11.24H132.428C132.476 10.904 132.524 10.568 132.524 10.256C132.524 7.136 130.7 4.568 127.268 4.568C123.812 4.568 121.172 7.064 121.172 10.928ZM123.668 9.56C124.004 7.544 125.42 6.368 127.22 6.368C128.804 6.368 130.1 7.472 130.172 9.56H123.668ZM134.315 13.688C134.315 15.968 136.259 17.288 138.371 17.288C140.171 17.288 141.659 16.208 142.355 14.816H142.403C142.403 14.816 142.331 15.224 142.331 15.776V17H144.515V9.32C144.515 6.248 142.763 4.568 139.715 4.568C138.011 4.568 136.163 5.192 135.179 6.008L136.115 7.712C137.099 7.016 138.323 6.536 139.523 6.536C141.035 6.536 142.187 7.208 142.187 9.2V9.44H141.563C139.043 9.44 134.315 9.872 134.315 13.688ZM136.643 13.496C136.643 11.264 139.859 11.12 141.587 11.12H142.187V11.576C142.187 13.376 140.963 15.44 138.923 15.44C137.411 15.44 136.643 14.456 136.643 13.496ZM147.188 10.928C147.188 14.576 149.852 17.288 153.692 17.288C155.588 17.288 157.436 16.52 158.54 15.344L157.604 13.64C156.668 14.624 155.204 15.272 153.86 15.272C151.34 15.272 149.564 13.376 149.564 10.904C149.564 8.432 151.34 6.584 153.788 6.584C155.06 6.584 156.332 7.16 157.148 7.976L158.252 6.344C157.1 5.12 155.3 4.568 153.692 4.568C149.876 4.568 147.188 7.328 147.188 10.928ZM161.058 17H163.386V11.24C163.386 8.624 165.09 6.704 167.442 6.704C169.386 6.704 169.722 8.048 169.722 9.752V17H172.05V9.224C172.05 6.128 170.754 4.568 167.898 4.568C165.474 4.568 163.89 6.2 163.338 7.352H163.29C163.29 7.352 163.386 6.92 163.386 6.344V0.0559993H161.058V17ZM174.727 10.928C174.727 14.528 177.367 17.288 181.183 17.288C182.863 17.288 184.711 16.64 185.887 15.56L184.903 13.856C183.943 14.72 182.623 15.272 181.327 15.272C179.143 15.272 177.271 13.856 177.151 11.24H185.983C186.031 10.904 186.079 10.568 186.079 10.256C186.079 7.136 184.255 4.568 180.823 4.568C177.367 4.568 174.727 7.064 174.727 10.928ZM177.223 9.56C177.559 7.544 178.975 6.368 180.775 6.368C182.359 6.368 183.655 7.472 183.727 9.56H177.223ZM188.878 17H191.206V11.96C191.206 9.608 192.31 7.016 194.926 7.016C195.166 7.016 195.502 7.04 195.598 7.064V4.76C195.406 4.736 195.19 4.712 194.974 4.712C193.102 4.712 191.686 6.176 191.11 7.928H191.062C191.062 7.928 191.134 7.544 191.134 7.04V4.856H188.878V17ZM196.87 15.512C198.07 16.736 199.87 17.288 201.502 17.288C204.094 17.288 205.87 15.776 205.87 13.712C205.87 9.704 199.606 10.4 199.606 8.024C199.606 6.992 200.494 6.512 201.67 6.512C202.75 6.512 204.022 6.92 204.742 7.592L205.678 5.912C204.622 4.952 203.134 4.568 201.742 4.568C199.366 4.568 197.374 5.768 197.374 8.072C197.374 12.056 203.614 11.432 203.614 13.76C203.614 14.768 202.774 15.344 201.55 15.344C200.278 15.344 198.886 14.816 197.974 13.928L196.87 15.512ZM216.738 17H219.33L221.826 9.2C222.018 8.576 222.162 7.88 222.162 7.88H222.21C222.21 7.88 222.354 8.576 222.57 9.2L225.066 17H227.658L231.546 4.856H229.122L226.578 13.376C226.386 14 226.266 14.672 226.266 14.672H226.218C226.218 14.672 226.074 14 225.906 13.376L223.29 4.88H221.13L218.514 13.376C218.322 14 218.178 14.672 218.178 14.672H218.13C218.13 14.672 218.01 14 217.818 13.376L215.298 4.856H212.826L216.738 17ZM233.877 2.408H236.277V0.0559993H233.877V2.408ZM233.925 17H236.253V4.856H233.925V17ZM240.335 12.56C240.335 16.616 243.431 17.12 244.991 17.12C245.351 17.12 245.615 17.072 245.807 17.048V14.984C245.567 15.032 245.423 15.032 245.255 15.032C244.367 15.032 242.663 14.72 242.663 12.296V6.872H245.591V4.976H242.663V1.52H240.383V4.976H238.751V6.872H240.335V12.56ZM248.198 17H250.526V11.24C250.526 8.624 252.23 6.704 254.582 6.704C256.526 6.704 256.862 8.048 256.862 9.752V17H259.19V9.224C259.19 6.128 257.894 4.568 255.038 4.568C252.614 4.568 251.03 6.2 250.478 7.352H250.43C250.43 7.352 250.526 6.92 250.526 6.344V0.0559993H248.198V17ZM1.008 44.928C1.008 48.576 3.672 51.288 7.512 51.288C9.408 51.288 11.256 50.52 12.36 49.344L11.424 47.64C10.488 48.624 9.024 49.272 7.68 49.272C5.16 49.272 3.384 47.376 3.384 44.904C3.384 42.432 5.16 40.584 7.608 40.584C8.88 40.584 10.152 41.16 10.968 41.976L12.072 40.344C10.92 39.12 9.12 38.568 7.512 38.568C3.696 38.568 1.008 41.328 1.008 44.928ZM13.8049 44.904C13.8049 48.6 16.7329 51.288 20.3569 51.288C23.9569 51.288 26.8849 48.6 26.8849 44.904C26.8849 41.232 23.9569 38.568 20.3329 38.568C16.7329 38.568 13.8049 41.232 13.8049 44.904ZM16.1809 44.904C16.1809 42.384 18.0529 40.584 20.3569 40.584C22.6369 40.584 24.5329 42.384 24.5329 44.904C24.5329 47.448 22.6369 49.272 20.3569 49.272C18.0529 49.272 16.1809 47.448 16.1809 44.904ZM29.6906 51H32.0186V45.336C32.0186 43.08 33.3626 40.68 35.6666 40.68C37.5146 40.68 37.7546 42.144 37.7546 43.728V51H40.0826V45.336C40.0826 43.008 41.4266 40.68 43.6826 40.68C45.4826 40.68 45.8186 42.024 45.8186 43.728V51H48.1466V43.224C48.1466 40.128 46.8986 38.568 44.1386 38.568C42.1706 38.568 40.4906 39.912 39.8186 41.328H39.7706C39.3626 39.504 38.1866 38.568 36.1466 38.568C34.2266 38.568 32.4986 40.008 31.9226 41.424H31.8746C31.8746 41.424 31.9466 41.016 31.9466 40.512V38.856H29.6906V51ZM51.6281 51H53.9561V45.336C53.9561 43.08 55.3001 40.68 57.6041 40.68C59.4521 40.68 59.6921 42.144 59.6921 43.728V51H62.0201V45.336C62.0201 43.008 63.3641 40.68 65.6201 40.68C67.4201 40.68 67.7561 42.024 67.7561 43.728V51H70.0841V43.224C70.0841 40.128 68.8361 38.568 66.0761 38.568C64.1081 38.568 62.4281 39.912 61.7561 41.328H61.7081C61.3001 39.504 60.1241 38.568 58.0841 38.568C56.1641 38.568 54.4361 40.008 53.8601 41.424H53.8121C53.8121 41.424 53.8841 41.016 53.8841 40.512V38.856H51.6281V51ZM72.7736 44.904C72.7736 48.6 75.7016 51.288 79.3256 51.288C82.9256 51.288 85.8536 48.6 85.8536 44.904C85.8536 41.232 82.9256 38.568 79.3016 38.568C75.7016 38.568 72.7736 41.232 72.7736 44.904ZM75.1496 44.904C75.1496 42.384 77.0216 40.584 79.3256 40.584C81.6056 40.584 83.5016 42.384 83.5016 44.904C83.5016 47.448 81.6056 49.272 79.3256 49.272C77.0216 49.272 75.1496 47.448 75.1496 44.904ZM88.6594 51H90.9874V45.168C90.9874 42.672 92.6674 40.704 95.0434 40.704C96.9874 40.704 97.3234 42.048 97.3234 43.752V51H99.6514V43.224C99.6514 40.128 98.3554 38.568 95.4994 38.568C92.8354 38.568 91.3474 40.368 90.8914 41.424H90.8434C90.8434 41.424 90.9154 41.016 90.9154 40.512V38.856H88.6594V51ZM109.072 36.408H111.472V34.056H109.072V36.408ZM109.12 51H111.448V38.856H109.12V51ZM115.027 51H117.355V45.168C117.355 42.672 119.035 40.704 121.411 40.704C123.355 40.704 123.691 42.048 123.691 43.752V51H126.019V43.224C126.019 40.128 124.723 38.568 121.867 38.568C119.203 38.568 117.715 40.368 117.259 41.424H117.211C117.211 41.424 117.283 41.016 117.283 40.512V38.856H115.027V51ZM129.992 46.56C129.992 50.616 133.088 51.12 134.648 51.12C135.008 51.12 135.272 51.072 135.464 51.048V48.984C135.224 49.032 135.08 49.032 134.912 49.032C134.023 49.032 132.32 48.72 132.32 46.296V40.872H135.248V38.976H132.32V35.52H130.04V38.976H128.408V40.872H129.992V46.56ZM136.946 44.928C136.946 48.528 139.586 51.288 143.402 51.288C145.082 51.288 146.93 50.64 148.106 49.56L147.122 47.856C146.162 48.72 144.842 49.272 143.546 49.272C141.362 49.272 139.49 47.856 139.37 45.24H148.202C148.25 44.904 148.298 44.568 148.298 44.256C148.298 41.136 146.474 38.568 143.042 38.568C139.586 38.568 136.946 41.064 136.946 44.928ZM139.442 43.56C139.778 41.544 141.194 40.368 142.993 40.368C144.578 40.368 145.874 41.472 145.946 43.56H139.442ZM151.097 51H153.425V45.96C153.425 43.608 154.529 41.016 157.145 41.016C157.385 41.016 157.721 41.04 157.817 41.064V38.76C157.625 38.736 157.409 38.712 157.193 38.712C155.321 38.712 153.905 40.176 153.329 41.928H153.281C153.281 41.928 153.353 41.544 153.353 41.04V38.856H151.097V51ZM159.024 44.928C159.024 48.528 161.664 51.288 165.48 51.288C167.16 51.288 169.008 50.64 170.184 49.56L169.2 47.856C168.24 48.72 166.92 49.272 165.624 49.272C163.44 49.272 161.568 47.856 161.448 45.24H170.28C170.328 44.904 170.376 44.568 170.376 44.256C170.376 41.136 168.552 38.568 165.12 38.568C161.664 38.568 159.024 41.064 159.024 44.928ZM161.52 43.56C161.856 41.544 163.272 40.368 165.072 40.368C166.656 40.368 167.952 41.472 168.024 43.56H161.52ZM172.143 49.512C173.343 50.736 175.143 51.288 176.775 51.288C179.367 51.288 181.143 49.776 181.143 47.712C181.143 43.704 174.879 44.4 174.879 42.024C174.879 40.992 175.767 40.512 176.943 40.512C178.023 40.512 179.295 40.92 180.015 41.592L180.951 39.912C179.895 38.952 178.407 38.568 177.015 38.568C174.639 38.568 172.647 39.768 172.647 42.072C172.647 46.056 178.887 45.432 178.887 47.76C178.887 48.768 178.047 49.344 176.823 49.344C175.551 49.344 174.159 48.816 173.247 47.928L172.143 49.512ZM184.413 46.56C184.413 50.616 187.509 51.12 189.069 51.12C189.429 51.12 189.693 51.072 189.885 51.048V48.984C189.645 49.032 189.501 49.032 189.333 49.032C188.445 49.032 186.741 48.72 186.741 46.296V40.872H189.669V38.976H186.741V35.52H184.461V38.976H182.829V40.872H184.413V46.56ZM191.245 49.512C192.445 50.736 194.245 51.288 195.877 51.288C198.469 51.288 200.245 49.776 200.245 47.712C200.245 43.704 193.981 44.4 193.981 42.024C193.981 40.992 194.869 40.512 196.045 40.512C197.125 40.512 198.397 40.92 199.117 41.592L200.053 39.912C198.997 38.952 197.509 38.568 196.117 38.568C193.741 38.568 191.749 39.768 191.749 42.072C191.749 46.056 197.989 45.432 197.989 47.76C197.989 48.768 197.149 49.344 195.925 49.344C194.653 49.344 193.261 48.816 192.349 47.928L191.245 49.512ZM208.003 47.688C208.003 49.968 209.947 51.288 212.059 51.288C213.859 51.288 215.347 50.208 216.043 48.816H216.091C216.091 48.816 216.019 49.224 216.019 49.776V51H218.203V43.32C218.203 40.248 216.451 38.568 213.403 38.568C211.699 38.568 209.851 39.192 208.867 40.008L209.803 41.712C210.787 41.016 212.011 40.536 213.211 40.536C214.723 40.536 215.875 41.208 215.875 43.2V43.44H215.251C212.731 43.44 208.003 43.872 208.003 47.688ZM210.331 47.496C210.331 45.264 213.547 45.12 215.275 45.12H215.875V45.576C215.875 47.376 214.651 49.44 212.611 49.44C211.099 49.44 210.331 48.456 210.331 47.496ZM221.667 51H223.995V45.168C223.995 42.672 225.675 40.704 228.051 40.704C229.995 40.704 230.331 42.048 230.331 43.752V51H232.659V43.224C232.659 40.128 231.363 38.568 228.507 38.568C225.843 38.568 224.355 40.368 223.899 41.424H223.851C223.851 41.424 223.923 41.016 223.923 40.512V38.856H221.667V51ZM235.384 44.928C235.384 48.696 237.472 51.288 240.736 51.288C242.656 51.288 244.072 50.28 244.768 48.96H244.816C244.816 48.96 244.744 49.296 244.744 49.776V51H246.952V34.056H244.648V39.744C244.648 40.2 244.696 40.56 244.696 40.56H244.648C243.88 39.264 242.416 38.568 240.88 38.568C237.664 38.568 235.384 41.064 235.384 44.928ZM237.76 44.928C237.76 42.168 239.344 40.608 241.24 40.608C243.568 40.608 244.696 42.72 244.696 44.904C244.696 47.976 242.992 49.272 241.192 49.272C239.176 49.272 237.76 47.568 237.76 44.928ZM257.694 53.208L256.926 55.032C258.126 55.632 259.614 56.04 261.078 56.04C264.15 56.04 267.198 54.504 267.198 50.496V38.856H264.966V40.056C264.966 40.272 265.038 40.416 265.038 40.416H264.966C264.198 39.12 262.638 38.568 261.126 38.568C257.742 38.568 255.822 41.16 255.822 44.664C255.822 48.144 257.862 50.856 261.246 50.856C262.998 50.856 264.174 50.088 264.894 48.888H264.942C264.942 48.888 264.87 49.272 264.87 49.656V50.64C264.87 53.064 263.142 54.024 261.03 54.024C259.854 54.024 258.654 53.688 257.694 53.208ZM258.174 44.592C258.174 42.12 259.398 40.584 261.486 40.584C263.382 40.584 264.918 41.496 264.918 44.664C264.918 47.832 263.382 48.84 261.702 48.84C259.518 48.84 258.174 47.112 258.174 44.592ZM270 44.904C270 48.6 272.928 51.288 276.552 51.288C280.152 51.288 283.08 48.6 283.08 44.904C283.08 41.232 280.152 38.568 276.528 38.568C272.928 38.568 270 41.232 270 44.904ZM272.376 44.904C272.376 42.384 274.248 40.584 276.552 40.584C278.832 40.584 280.728 42.384 280.728 44.904C280.728 47.448 278.832 49.272 276.552 49.272C274.248 49.272 272.376 47.448 272.376 44.904ZM284.878 47.688C284.878 49.968 286.822 51.288 288.934 51.288C290.734 51.288 292.222 50.208 292.918 48.816H292.966C292.966 48.816 292.894 49.224 292.894 49.776V51H295.078V43.32C295.078 40.248 293.326 38.568 290.278 38.568C288.574 38.568 286.726 39.192 285.742 40.008L286.678 41.712C287.662 41.016 288.886 40.536 290.086 40.536C291.598 40.536 292.75 41.208 292.75 43.2V43.44H292.126C289.606 43.44 284.878 43.872 284.878 47.688ZM287.206 47.496C287.206 45.264 290.422 45.12 292.15 45.12H292.75V45.576C292.75 47.376 291.526 49.44 289.486 49.44C287.974 49.44 287.206 48.456 287.206 47.496ZM298.542 47.664C298.542 50.736 300.462 51.12 301.806 51.12C302.142 51.12 302.406 51.072 302.574 51.048V48.984C302.43 49.008 302.262 49.008 302.166 49.008C301.446 49.008 300.846 48.72 300.846 47.28V34.056H298.542V47.664ZM303.909 49.512C305.109 50.736 306.909 51.288 308.541 51.288C311.133 51.288 312.909 49.776 312.909 47.712C312.909 43.704 306.645 44.4 306.645 42.024C306.645 40.992 307.533 40.512 308.709 40.512C309.789 40.512 311.061 40.92 311.781 41.592L312.717 39.912C311.661 38.952 310.173 38.568 308.781 38.568C306.405 38.568 304.413 39.768 304.413 42.072C304.413 46.056 310.653 45.432 310.653 47.76C310.653 48.768 309.813 49.344 308.589 49.344C307.317 49.344 305.925 48.816 305.013 47.928L303.909 49.512Z" fill="#222224"/>
</svg>
