<svg width="730" height="160" viewBox="0 0 730 160" fill="none" xmlns="http://www.w3.org/2000/svg">
<path d="M27.0206 30.04C27.0206 46.84 39.1806 59.96 56.9406 59.96C74.7006 59.96 86.8606 46.84 86.8606 30.04C86.8606 13.64 74.7006 0.839995 56.9406 0.839995C39.1806 0.839995 27.0206 13.64 27.0206 30.04ZM41.5006 30.04C41.5006 20.68 47.9006 13.64 56.9406 13.64C65.9806 13.64 72.3806 20.68 72.3806 30.04C72.3806 39.8 65.9806 47.16 56.9406 47.16C47.9006 47.16 41.5006 39.8 41.5006 30.04ZM93.8588 59H107.699V40.36C107.699 34.52 110.499 29.4 116.659 29.4C119.699 29.4 121.219 31 121.219 34.84V59H135.059V32.28C135.059 20.68 128.579 16.84 120.259 16.84C112.979 16.84 109.059 20.76 107.139 23.96H106.979C106.979 23.96 107.139 22.76 107.139 21.4V17.8H93.8588V59ZM143.857 43.8C143.857 57.64 151.697 59.4 159.057 59.4C160.817 59.4 162.257 59.24 163.217 59.16V47.16C162.577 47.24 161.937 47.24 161.537 47.24C158.417 47.24 157.697 45.88 157.697 41.96V1.8H143.857V43.8ZM169.956 12.6H183.476V1.8H169.956V12.6ZM169.796 59H183.636V17.8H169.796V59ZM192.921 59H206.761V40.36C206.761 34.52 209.561 29.4 215.721 29.4C218.761 29.4 220.281 31 220.281 34.84V59H234.121V32.28C234.121 20.68 227.641 16.84 219.321 16.84C212.041 16.84 208.121 20.76 206.201 23.96H206.041C206.041 23.96 206.201 22.76 206.201 21.4V17.8H192.921V59ZM240.679 38.36C240.679 49.32 248.599 59.96 263.319 59.96C269.639 59.96 276.439 57.8 280.919 53.96L275.799 44.28C272.439 46.52 268.519 48.44 264.439 48.44C260.039 48.44 255.879 46.12 254.839 41.08H280.839C280.999 39.64 281.159 38.2 281.159 36.76C281.159 25.32 274.279 16.84 262.119 16.84C248.839 16.84 240.679 26.28 240.679 38.36ZM255.159 33.16C255.879 29.88 257.799 27 261.799 27C265.319 27 267.479 29.8 267.479 33.16H255.159ZM305.289 38.36C305.289 49.72 313.529 59.96 328.249 59.96C335.129 59.96 341.849 57.32 345.929 53.16L340.889 43.48C337.929 46.04 333.609 48.44 329.609 48.44C322.649 48.44 319.289 43.08 319.289 38.2C319.289 33.32 322.569 28.36 329.129 28.36C332.729 28.36 336.409 30.04 338.809 32.36L344.649 23.08C340.569 18.68 334.009 16.84 328.249 16.84C313.449 16.84 305.289 27.32 305.289 38.36ZM351.749 59H365.589V40.44C365.589 34.12 368.549 29.4 374.549 29.4C377.589 29.4 379.109 31 379.109 34.84V59H392.949V32.28C392.949 20.68 386.469 16.84 378.149 16.84C372.709 16.84 367.909 19.32 365.589 23.4H365.429C365.429 23.4 365.589 21.96 365.589 19.88V1.8H351.749V59ZM399.508 38.36C399.508 49.32 407.428 59.96 422.148 59.96C428.468 59.96 435.268 57.8 439.748 53.96L434.628 44.28C431.268 46.52 427.348 48.44 423.268 48.44C418.868 48.44 414.708 46.12 413.668 41.08H439.668C439.828 39.64 439.988 38.2 439.988 36.76C439.988 25.32 433.108 16.84 420.948 16.84C407.668 16.84 399.508 26.28 399.508 38.36ZM413.988 33.16C414.708 29.88 416.628 27 420.628 27C424.148 27 426.308 29.8 426.308 33.16H413.988ZM447.218 59H461.058V41.56C461.058 35.88 462.658 29.4 468.978 29.4C471.618 29.4 472.178 31.56 472.178 34.6V59H486.018V41.56C486.018 35.4 487.938 29.4 493.938 29.4C496.578 29.4 497.138 31.56 497.138 34.6V59H510.978V32.28C510.978 20.92 505.138 16.84 497.618 16.84C491.458 16.84 486.578 20.36 484.418 23.8H484.258C482.098 19.16 477.938 16.84 472.738 16.84C466.258 16.84 462.418 21.08 460.498 23.96H460.338C460.338 23.96 460.498 22.76 460.498 21.4V17.8H447.218V59ZM520.113 12.6H533.633V1.8H520.113V12.6ZM519.953 59H533.793V17.8H519.953V59ZM539.958 53.88C544.518 57.96 550.838 59.96 556.758 59.96C567.318 59.96 573.718 54.12 573.718 46.44C573.718 33.08 554.438 34.12 554.438 29.8C554.438 28.68 555.318 27.8 558.278 27.8C561.798 27.8 566.278 29.24 568.678 31.16L573.398 21.56C569.238 18.2 563.958 16.84 558.678 16.84C549.158 16.84 541.558 21.4 541.558 29.88C541.558 43.4 560.838 42.44 560.838 46.84C560.838 48.12 559.878 49 557.078 49C553.158 49 548.918 47.4 545.878 44.84L539.958 53.88ZM583.134 43.8C583.134 57.64 595.854 59.4 602.414 59.4C604.014 59.4 605.134 59.24 606.174 59.16V47.16C605.294 47.24 604.814 47.24 604.334 47.24C601.694 47.24 596.974 46.6 596.974 41.96V29.32H605.614V18.52H596.974V6.68H583.534V18.52H577.854V29.32H583.134V43.8ZM613.624 59H627.464V43C627.464 35.48 631.144 30.6 638.824 30.6C639.784 30.6 641.144 30.68 641.624 30.84V17.24C641.144 17.16 640.584 17.08 640.024 17.08C633.864 17.08 628.664 21.72 626.904 27.32H626.744C626.744 27.32 626.904 26.12 626.904 24.76V17.8H613.624V59ZM648.087 62.76L643.687 72.92C643.687 72.92 647.847 75.8 653.287 75.8C659.847 75.8 667.047 72.6 670.487 63.4L687.367 17.8H672.247L667.047 37C666.487 39.24 665.687 43.16 665.687 43.16H665.527C665.527 43.16 664.727 39 664.007 36.76L657.927 17.8H642.247L659.767 58.2L658.967 60.12C657.527 63.64 654.567 64.28 652.327 64.28C650.327 64.28 648.087 62.76 648.087 62.76ZM0.744375 131.4C0.744375 138.52 6.26438 143.96 14.1844 143.96C18.9044 143.96 23.7044 141.8 26.4244 137.96H26.5844C26.5844 137.96 26.4244 139.16 26.4244 140.52V143H39.0644V117.64C39.0644 107.16 32.0244 100.84 20.6644 100.84C13.9444 100.84 6.74438 103.48 3.22438 106.2L8.02438 115.96C11.3044 113.8 15.3844 112.04 19.3844 112.04C22.4244 112.04 25.2244 113.16 25.2244 116.6V117.32H24.0244C13.8644 117.32 0.744375 120.36 0.744375 131.4ZM14.4244 130.12C14.4244 126.36 19.8644 125.24 24.1044 125.24H25.3844V126.36C25.3844 129.72 22.3444 133.64 18.3444 133.64C15.7844 133.64 14.4244 132.04 14.4244 130.12ZM47.8431 143H61.6831V124.36C61.6831 118.52 64.4831 113.4 70.6431 113.4C73.6831 113.4 75.2031 115 75.2031 118.84V143H89.0431V116.28C89.0431 104.68 82.5631 100.84 74.2431 100.84C66.9631 100.84 63.0431 104.76 61.1231 107.96H60.9631C60.9631 107.96 61.1231 106.76 61.1231 105.4V101.8H47.8431V143ZM95.7613 122.36C95.7613 135.16 103.121 143.96 114.321 143.96C119.201 143.96 123.681 141.88 126.241 137.96H126.401C126.401 137.96 126.321 139 126.321 140.28V143H139.281V85.8H125.441V102.28C125.441 103.32 125.521 104.12 125.521 104.12H125.361C122.641 101.4 118.241 100.84 114.561 100.84C103.601 100.84 95.7613 109.32 95.7613 122.36ZM109.681 122.36C109.681 116.04 113.441 112.52 117.761 112.52C123.201 112.52 125.841 117.4 125.841 122.36C125.841 129.48 121.921 132.52 117.761 132.52C112.961 132.52 109.681 128.52 109.681 122.36ZM168.546 159H182.386V143.56C182.386 141.48 182.226 140.04 182.226 140.04H182.386C185.346 142.6 189.026 143.96 192.866 143.96C203.826 143.96 212.066 135.48 212.066 122.44C212.066 109.64 204.706 100.84 193.506 100.84C188.546 100.84 183.826 102.76 181.026 106.52H180.866C180.866 106.52 181.026 105.24 181.026 103.88V101.8H168.546V159ZM181.986 122.68C181.986 115.56 185.906 112.52 190.066 112.52C194.866 112.52 198.146 116.52 198.146 122.68C198.146 129 194.386 132.52 190.066 132.52C184.626 132.52 181.986 127.64 181.986 122.68ZM219.171 143H233.011V124.44C233.011 118.12 235.971 113.4 241.971 113.4C245.011 113.4 246.531 115 246.531 118.84V143H260.371V116.28C260.371 104.68 253.891 100.84 245.571 100.84C240.131 100.84 235.331 103.32 233.011 107.4H232.851C232.851 107.4 233.011 105.96 233.011 103.88V85.8H219.171V143ZM269.103 146.76L264.703 156.92C264.703 156.92 268.863 159.8 274.303 159.8C280.863 159.8 288.063 156.6 291.503 147.4L308.383 101.8H293.263L288.063 121C287.503 123.24 286.703 127.16 286.703 127.16H286.543C286.543 127.16 285.743 123 285.023 120.76L278.943 101.8H263.262L280.783 142.2L279.983 144.12C278.543 147.64 275.583 148.28 273.343 148.28C271.343 148.28 269.103 146.76 269.103 146.76ZM309.567 137.88C314.127 141.96 320.447 143.96 326.367 143.96C336.927 143.96 343.327 138.12 343.327 130.44C343.327 117.08 324.047 118.12 324.047 113.8C324.047 112.68 324.927 111.8 327.887 111.8C331.407 111.8 335.887 113.24 338.287 115.16L343.007 105.56C338.847 102.2 333.567 100.84 328.287 100.84C318.767 100.84 311.167 105.4 311.167 113.88C311.167 127.4 330.447 126.44 330.447 130.84C330.447 132.12 329.487 133 326.687 133C322.767 133 318.527 131.4 315.487 128.84L309.567 137.88ZM350.503 96.6H364.023V85.8H350.503V96.6ZM350.343 143H364.183V101.8H350.343V143ZM371.148 122.36C371.148 133.72 379.388 143.96 394.108 143.96C400.988 143.96 407.708 141.32 411.788 137.16L406.748 127.48C403.788 130.04 399.468 132.44 395.468 132.44C388.508 132.44 385.148 127.08 385.148 122.2C385.148 117.32 388.428 112.36 394.988 112.36C398.588 112.36 402.268 114.04 404.668 116.36L410.508 107.08C406.428 102.68 399.868 100.84 394.108 100.84C379.308 100.84 371.148 111.32 371.148 122.36ZM414.489 137.88C419.049 141.96 425.369 143.96 431.289 143.96C441.849 143.96 448.249 138.12 448.249 130.44C448.249 117.08 428.969 118.12 428.969 113.8C428.969 112.68 429.849 111.8 432.809 111.8C436.329 111.8 440.809 113.24 443.209 115.16L447.929 105.56C443.769 102.2 438.489 100.84 433.209 100.84C423.689 100.84 416.089 105.4 416.089 113.88C416.089 127.4 435.369 126.44 435.369 130.84C435.369 132.12 434.409 133 431.609 133C427.689 133 423.449 131.4 420.409 128.84L414.489 137.88ZM472.145 137.88C476.705 141.96 483.025 143.96 488.945 143.96C499.505 143.96 505.905 138.12 505.905 130.44C505.905 117.08 486.625 118.12 486.625 113.8C486.625 112.68 487.505 111.8 490.465 111.8C493.985 111.8 498.465 113.24 500.865 115.16L505.585 105.56C501.425 102.2 496.145 100.84 490.865 100.84C481.345 100.84 473.745 105.4 473.745 113.88C473.745 127.4 493.025 126.44 493.025 130.84C493.025 132.12 492.065 133 489.265 133C485.345 133 481.105 131.4 478.065 128.84L472.145 137.88ZM510.601 122.36C510.601 133.72 518.841 143.96 533.561 143.96C540.441 143.96 547.161 141.32 551.241 137.16L546.201 127.48C543.241 130.04 538.921 132.44 534.921 132.44C527.961 132.44 524.601 127.08 524.601 122.2C524.601 117.32 527.881 112.36 534.441 112.36C538.041 112.36 541.721 114.04 544.121 116.36L549.961 107.08C545.881 102.68 539.321 100.84 533.561 100.84C518.761 100.84 510.601 111.32 510.601 122.36ZM557.062 143H570.902V124.44C570.902 118.12 573.862 113.4 579.862 113.4C582.902 113.4 584.422 115 584.422 118.84V143H598.262V116.28C598.262 104.68 591.782 100.84 583.462 100.84C578.022 100.84 573.222 103.32 570.902 107.4H570.742C570.742 107.4 570.902 105.96 570.902 103.88V85.8H557.062V143ZM604.82 122.52C604.82 135.4 615.22 143.96 628.18 143.96C641.14 143.96 651.54 135.4 651.54 122.52C651.54 109.56 641.14 100.84 628.1 100.84C615.22 100.84 604.82 109.56 604.82 122.52ZM618.82 122.52C618.82 116.28 623.14 112.36 628.18 112.36C633.22 112.36 637.54 116.28 637.54 122.52C637.54 128.68 633.22 132.44 628.18 132.44C623.14 132.44 618.82 128.68 618.82 122.52ZM656.148 122.52C656.148 135.4 666.548 143.96 679.508 143.96C692.468 143.96 702.868 135.4 702.868 122.52C702.868 109.56 692.468 100.84 679.428 100.84C666.548 100.84 656.148 109.56 656.148 122.52ZM670.148 122.52C670.148 116.28 674.468 112.36 679.508 112.36C684.548 112.36 688.868 116.28 688.868 122.52C688.868 128.68 684.548 132.44 679.508 132.44C674.468 132.44 670.148 128.68 670.148 122.52ZM709.716 127.8C709.716 141.64 717.556 143.4 724.916 143.4C726.676 143.4 728.116 143.24 729.076 143.16V131.16C728.436 131.24 727.796 131.24 727.396 131.24C724.276 131.24 723.556 129.88 723.556 125.96V85.8H709.716V127.8Z" fill="#222224"/>
</svg>
