<svg width="381" height="101" viewBox="0 0 381 101" fill="none" xmlns="http://www.w3.org/2000/svg">
<path d="M7.328 23H12.928V4.92H19.872V0.119999H0.384V4.92H7.328V23ZM22.106 23H27.642V15.576C27.642 13.048 28.826 11.16 31.226 11.16C32.442 11.16 33.05 11.8 33.05 13.336V23H38.586V12.312C38.586 7.672 35.994 6.136 32.666 6.136C30.49 6.136 28.57 7.128 27.642 8.76H27.578C27.578 8.76 27.642 8.184 27.642 7.352V0.119999H22.106V23ZM41.2093 14.744C41.2093 19.128 44.3773 23.384 50.2653 23.384C52.7933 23.384 55.5133 22.52 57.3053 20.984L55.2573 17.112C53.9133 18.008 52.3453 18.776 50.7133 18.776C48.9533 18.776 47.2893 17.848 46.8733 15.832H57.2733C57.3373 15.256 57.4013 14.68 57.4013 14.104C57.4013 9.528 54.6493 6.136 49.7853 6.136C44.4733 6.136 41.2093 9.912 41.2093 14.744ZM47.0013 12.664C47.2893 11.352 48.0573 10.2 49.6573 10.2C51.0653 10.2 51.9293 11.32 51.9293 12.664H47.0013ZM68.3473 16.92C68.3473 22.456 73.4353 23.16 76.0593 23.16C76.6993 23.16 77.1473 23.096 77.5633 23.064V18.264C77.2113 18.296 77.0193 18.296 76.8273 18.296C75.7713 18.296 73.8833 18.04 73.8833 16.184V11.128H77.3393V6.808H73.8833V2.072H68.5073V6.808H66.2353V11.128H68.3473V16.92ZM80.5435 23H86.0795V16.6C86.0795 13.592 87.5515 11.64 90.6235 11.64C91.0075 11.64 91.5515 11.672 91.7435 11.736V6.296C91.5515 6.264 91.3275 6.232 91.1035 6.232C88.6395 6.232 86.5595 8.088 85.8555 10.328H85.7915C85.7915 10.328 85.8555 9.848 85.8555 9.304V6.52H80.5435V23ZM94.0085 17.208C94.0085 21.848 96.6005 23.384 99.8645 23.384C102.073 23.384 104.121 22.296 105.017 20.536H105.081C105.081 20.536 105.017 21.016 105.017 21.56V23H110.329V6.52H104.793V13.816C104.793 16.28 103.673 18.36 101.305 18.36C100.153 18.36 99.5445 17.72 99.5445 16.184V6.52H94.0085V17.208ZM112.796 20.952C114.62 22.584 117.148 23.384 119.516 23.384C123.74 23.384 126.3 21.048 126.3 17.976C126.3 12.632 118.588 13.048 118.588 11.32C118.588 10.872 118.94 10.52 120.124 10.52C121.532 10.52 123.324 11.096 124.284 11.864L126.172 8.024C124.508 6.68 122.396 6.136 120.284 6.136C116.476 6.136 113.436 7.96 113.436 11.352C113.436 16.76 121.148 16.376 121.148 18.136C121.148 18.648 120.764 19 119.644 19C118.076 19 116.38 18.36 115.164 17.336L112.796 20.952ZM130.066 16.92C130.066 22.456 135.154 23.16 137.778 23.16C138.418 23.16 138.866 23.096 139.282 23.064V18.264C138.93 18.296 138.738 18.296 138.546 18.296C137.49 18.296 135.602 18.04 135.602 16.184V11.128H139.058V6.808H135.602V2.072H130.226V6.808H127.954V11.128H130.066V16.92ZM149.014 20.952C150.838 22.584 153.366 23.384 155.734 23.384C159.958 23.384 162.518 21.048 162.518 17.976C162.518 12.632 154.806 13.048 154.806 11.32C154.806 10.872 155.158 10.52 156.342 10.52C157.75 10.52 159.542 11.096 160.502 11.864L162.39 8.024C160.726 6.68 158.614 6.136 156.502 6.136C152.694 6.136 149.654 7.96 149.654 11.352C149.654 16.76 157.366 16.376 157.366 18.136C157.366 18.648 156.982 19 155.862 19C154.294 19 152.598 18.36 151.382 17.336L149.014 20.952ZM165.325 23H170.861V15.576C170.861 13.048 172.045 11.16 174.445 11.16C175.661 11.16 176.269 11.8 176.269 13.336V23H181.805V12.312C181.805 7.672 179.213 6.136 175.885 6.136C173.709 6.136 171.789 7.128 170.861 8.76H170.797C170.797 8.76 170.861 8.184 170.861 7.352V0.119999H165.325V23ZM184.428 14.808C184.428 19.96 188.588 23.384 193.772 23.384C198.956 23.384 203.116 19.96 203.116 14.808C203.116 9.624 198.956 6.136 193.74 6.136C188.588 6.136 184.428 9.624 184.428 14.808ZM190.028 14.808C190.028 12.312 191.756 10.744 193.772 10.744C195.788 10.744 197.516 12.312 197.516 14.808C197.516 17.272 195.788 18.776 193.772 18.776C191.756 18.776 190.028 17.272 190.028 14.808ZM205.727 17.208C205.727 21.848 208.319 23.384 211.583 23.384C213.791 23.384 215.839 22.296 216.735 20.536H216.799C216.799 20.536 216.735 21.016 216.735 21.56V23H222.047V6.52H216.511V13.816C216.511 16.28 215.391 18.36 213.023 18.36C211.871 18.36 211.263 17.72 211.263 16.184V6.52H205.727V17.208ZM225.73 16.92C225.73 22.456 228.866 23.16 231.81 23.16C232.514 23.16 233.09 23.096 233.474 23.064V18.264C233.218 18.296 232.962 18.296 232.802 18.296C231.554 18.296 231.266 17.752 231.266 16.184V0.119999H225.73V16.92ZM235.242 14.744C235.242 19.864 238.186 23.384 242.666 23.384C244.618 23.384 246.41 22.552 247.434 20.984H247.498C247.498 20.984 247.466 21.4 247.466 21.912V23H252.65V0.119999H247.114V6.712C247.114 7.128 247.146 7.448 247.146 7.448H247.082C245.994 6.36 244.234 6.136 242.762 6.136C238.378 6.136 235.242 9.528 235.242 14.744ZM240.81 14.744C240.81 12.216 242.314 10.808 244.042 10.808C246.218 10.808 247.274 12.76 247.274 14.744C247.274 17.592 245.706 18.808 244.042 18.808C242.122 18.808 240.81 17.208 240.81 14.744ZM264.356 23H269.444V22.36C269.444 21.848 269.412 21.432 269.412 21.432H269.476C270.596 22.776 272.42 23.384 274.084 23.384C278.468 23.384 281.764 19.992 281.764 14.776C281.764 9.656 278.82 6.136 274.34 6.136C272.676 6.136 270.852 6.808 269.892 7.896H269.828C269.828 7.896 269.892 7.32 269.892 6.488V0.119999H264.356V23ZM269.732 14.872C269.732 12.024 271.3 10.808 272.964 10.808C274.884 10.808 276.196 12.408 276.196 14.872C276.196 17.4 274.692 18.808 272.964 18.808C270.788 18.808 269.732 16.856 269.732 14.872ZM283.678 14.744C283.678 19.128 286.846 23.384 292.734 23.384C295.262 23.384 297.982 22.52 299.774 20.984L297.726 17.112C296.382 18.008 294.814 18.776 293.182 18.776C291.422 18.776 289.758 17.848 289.342 15.832H299.742C299.806 15.256 299.87 14.68 299.87 14.104C299.87 9.528 297.118 6.136 292.254 6.136C286.942 6.136 283.678 9.912 283.678 14.744ZM289.47 12.664C289.758 11.352 290.526 10.2 292.126 10.2C293.534 10.2 294.398 11.32 294.398 12.664H289.47ZM310.45 23H315.538V22.36C315.538 21.848 315.506 21.432 315.506 21.432H315.57C316.69 22.776 318.514 23.384 320.178 23.384C324.562 23.384 327.858 19.992 327.858 14.776C327.858 9.656 324.914 6.136 320.434 6.136C318.77 6.136 316.946 6.808 315.986 7.896H315.922C315.922 7.896 315.986 7.32 315.986 6.488V0.119999H310.45V23ZM315.826 14.872C315.826 12.024 317.394 10.808 319.058 10.808C320.978 10.808 322.29 12.408 322.29 14.872C322.29 17.4 320.786 18.808 319.058 18.808C316.882 18.808 315.826 16.856 315.826 14.872ZM330.54 17.208C330.54 21.848 333.132 23.384 336.396 23.384C338.604 23.384 340.652 22.296 341.548 20.536H341.612C341.612 20.536 341.548 21.016 341.548 21.56V23H346.86V6.52H341.324V13.816C341.324 16.28 340.204 18.36 337.836 18.36C336.684 18.36 336.076 17.72 336.076 16.184V6.52H330.54V17.208ZM350.639 4.44H356.047V0.119999H350.639V4.44ZM350.575 23H356.111V6.52H350.575V23ZM359.793 16.92C359.793 22.456 362.929 23.16 365.873 23.16C366.577 23.16 367.153 23.096 367.537 23.064V18.264C367.281 18.296 367.025 18.296 366.865 18.296C365.617 18.296 365.329 17.752 365.329 16.184V0.119999H359.793V16.92ZM370.972 16.92C370.972 22.456 376.06 23.16 378.684 23.16C379.324 23.16 379.772 23.096 380.188 23.064V18.264C379.836 18.296 379.644 18.296 379.452 18.296C378.396 18.296 376.508 18.04 376.508 16.184V11.128H379.964V6.808H376.508V2.072H371.132V6.808H368.86V11.128H370.972V16.92ZM1.856 61H6.944V60.36C6.944 59.848 6.912 59.432 6.912 59.432H6.976C8.096 60.776 9.92 61.384 11.584 61.384C15.968 61.384 19.264 57.992 19.264 52.776C19.264 47.656 16.32 44.136 11.84 44.136C10.176 44.136 8.352 44.808 7.392 45.896H7.328C7.328 45.896 7.392 45.32 7.392 44.488V38.12H1.856V61ZM7.232 52.872C7.232 50.024 8.8 48.808 10.464 48.808C12.384 48.808 13.696 50.408 13.696 52.872C13.696 55.4 12.192 56.808 10.464 56.808C8.288 56.808 7.232 54.856 7.232 52.872ZM21.178 52.744C21.178 57.128 24.346 61.384 30.234 61.384C32.762 61.384 35.482 60.52 37.274 58.984L35.226 55.112C33.882 56.008 32.314 56.776 30.682 56.776C28.922 56.776 27.258 55.848 26.842 53.832H37.242C37.306 53.256 37.37 52.68 37.37 52.104C37.37 47.528 34.618 44.136 29.754 44.136C24.442 44.136 21.178 47.912 21.178 52.744ZM26.97 50.664C27.258 49.352 28.026 48.2 29.626 48.2C31.034 48.2 31.898 49.32 31.898 50.664H26.97ZM41.2223 54.92C41.2223 60.456 46.3103 61.16 48.9343 61.16C49.5743 61.16 50.0223 61.096 50.4383 61.064V56.264C50.0863 56.296 49.8943 56.296 49.7023 56.296C48.6463 56.296 46.7583 56.04 46.7583 54.184V49.128H50.2143V44.808H46.7583V40.072H41.3823V44.808H39.1103V49.128H41.2223V54.92ZM56.5225 61H62.7625L64.6185 53.384C64.8425 52.488 64.9385 51.624 64.9385 51.624H65.0025C65.0025 51.624 65.0985 52.488 65.3225 53.384L67.1785 61H73.3545L77.9625 44.52H72.2025L70.1545 54.248C69.9625 55.144 69.9305 55.976 69.9305 55.976H69.8665C69.8665 55.976 69.8345 55.144 69.6105 54.248L67.3385 44.52H62.6025L60.3305 54.248C60.1065 55.144 60.0425 55.976 60.0425 55.976H59.9785C59.9785 55.976 59.9785 55.144 59.7865 54.248L57.7385 44.52H51.9145L56.5225 61ZM78.9593 52.744C78.9593 57.128 82.1273 61.384 88.0153 61.384C90.5433 61.384 93.2633 60.52 95.0553 58.984L93.0073 55.112C91.6633 56.008 90.0953 56.776 88.4633 56.776C86.7033 56.776 85.0393 55.848 84.6233 53.832H95.0233C95.0873 53.256 95.1513 52.68 95.1513 52.104C95.1513 47.528 92.3993 44.136 87.5353 44.136C82.2233 44.136 78.9593 47.912 78.9593 52.744ZM84.7513 50.664C85.0393 49.352 85.8073 48.2 87.4073 48.2C88.8153 48.2 89.6793 49.32 89.6793 50.664H84.7513ZM97.1155 52.744C97.1155 57.128 100.284 61.384 106.172 61.384C108.7 61.384 111.42 60.52 113.212 58.984L111.164 55.112C109.82 56.008 108.252 56.776 106.62 56.776C104.86 56.776 103.196 55.848 102.78 53.832H113.18C113.244 53.256 113.308 52.68 113.308 52.104C113.308 47.528 110.556 44.136 105.692 44.136C100.38 44.136 97.1155 47.912 97.1155 52.744ZM102.908 50.664C103.196 49.352 103.964 48.2 105.564 48.2C106.972 48.2 107.836 49.32 107.836 50.664H102.908ZM116.2 61H121.736V53.544C121.736 51.208 122.856 49.16 125.32 49.16C126.536 49.16 127.144 49.8 127.144 51.336V61H132.68V50.312C132.68 45.672 130.088 44.136 126.76 44.136C123.848 44.136 122.28 45.704 121.512 46.984H121.448C121.448 46.984 121.512 46.504 121.512 45.96V44.52H116.2V61ZM144.597 54.92C144.597 60.456 149.685 61.16 152.309 61.16C152.949 61.16 153.397 61.096 153.813 61.064V56.264C153.461 56.296 153.269 56.296 153.077 56.296C152.021 56.296 150.133 56.04 150.133 54.184V49.128H153.589V44.808H150.133V40.072H144.757V44.808H142.485V49.128H144.597V54.92ZM156.794 61H162.33V53.576C162.33 51.048 163.514 49.16 165.914 49.16C167.13 49.16 167.738 49.8 167.738 51.336V61H173.274V50.312C173.274 45.672 170.682 44.136 167.354 44.136C165.178 44.136 163.258 45.128 162.33 46.76H162.266C162.266 46.76 162.33 46.184 162.33 45.352V38.12H156.794V61ZM175.897 52.744C175.897 57.128 179.065 61.384 184.953 61.384C187.481 61.384 190.201 60.52 191.993 58.984L189.945 55.112C188.601 56.008 187.033 56.776 185.401 56.776C183.641 56.776 181.977 55.848 181.561 53.832H191.961C192.025 53.256 192.089 52.68 192.089 52.104C192.089 47.528 189.337 44.136 184.473 44.136C179.161 44.136 175.897 47.912 175.897 52.744ZM181.689 50.664C181.977 49.352 182.745 48.2 184.345 48.2C185.753 48.2 186.617 49.32 186.617 50.664H181.689ZM203.035 54.92C203.035 60.456 208.123 61.16 210.747 61.16C211.387 61.16 211.835 61.096 212.251 61.064V56.264C211.899 56.296 211.707 56.296 211.515 56.296C210.459 56.296 208.571 56.04 208.571 54.184V49.128H212.027V44.808H208.571V40.072H203.195V44.808H200.923V49.128H203.035V54.92ZM214.303 52.744C214.303 57.128 217.471 61.384 223.359 61.384C225.887 61.384 228.607 60.52 230.399 58.984L228.351 55.112C227.007 56.008 225.439 56.776 223.807 56.776C222.047 56.776 220.383 55.848 219.967 53.832H230.367C230.431 53.256 230.495 52.68 230.495 52.104C230.495 47.528 227.743 44.136 222.879 44.136C217.567 44.136 214.303 47.912 214.303 52.744ZM220.095 50.664C220.383 49.352 221.151 48.2 222.751 48.2C224.159 48.2 225.023 49.32 225.023 50.664H220.095ZM232.235 56.36C232.235 59.208 234.443 61.384 237.611 61.384C239.499 61.384 241.419 60.52 242.507 58.984H242.571C242.571 58.984 242.507 59.464 242.507 60.008V61H247.563V50.856C247.563 46.664 244.747 44.136 240.203 44.136C237.515 44.136 234.635 45.192 233.227 46.28L235.147 50.184C236.459 49.32 238.091 48.616 239.691 48.616C240.907 48.616 242.027 49.064 242.027 50.44V50.728H241.547C237.483 50.728 232.235 51.944 232.235 56.36ZM237.707 55.848C237.707 54.344 239.883 53.896 241.579 53.896H242.091V54.344C242.091 55.688 240.875 57.256 239.275 57.256C238.251 57.256 237.707 56.616 237.707 55.848ZM250.147 52.744C250.147 57.288 253.443 61.384 259.331 61.384C262.083 61.384 264.771 60.328 266.403 58.664L264.387 54.792C263.203 55.816 261.475 56.776 259.875 56.776C257.091 56.776 255.747 54.632 255.747 52.68C255.747 50.728 257.059 48.744 259.683 48.744C261.123 48.744 262.595 49.416 263.555 50.344L265.891 46.632C264.259 44.872 261.635 44.136 259.331 44.136C253.411 44.136 250.147 48.328 250.147 52.744ZM268.731 61H274.267V53.576C274.267 51.048 275.451 49.16 277.851 49.16C279.067 49.16 279.675 49.8 279.675 51.336V61H285.211V50.312C285.211 45.672 282.619 44.136 279.291 44.136C277.115 44.136 275.195 45.128 274.267 46.76H274.203C274.203 46.76 274.267 46.184 274.267 45.352V38.12H268.731V61ZM287.834 52.744C287.834 57.128 291.002 61.384 296.89 61.384C299.418 61.384 302.138 60.52 303.93 58.984L301.882 55.112C300.538 56.008 298.97 56.776 297.338 56.776C295.578 56.776 293.914 55.848 293.498 53.832H303.898C303.962 53.256 304.026 52.68 304.026 52.104C304.026 47.528 301.274 44.136 296.41 44.136C291.098 44.136 287.834 47.912 287.834 52.744ZM293.626 50.664C293.914 49.352 294.682 48.2 296.282 48.2C297.69 48.2 298.554 49.32 298.554 50.664H293.626ZM306.919 61H312.455V54.6C312.455 51.592 313.927 49.64 316.999 49.64C317.383 49.64 317.927 49.672 318.119 49.736V44.296C317.927 44.264 317.703 44.232 317.479 44.232C315.015 44.232 312.935 46.088 312.231 48.328H312.167C312.167 48.328 312.231 47.848 312.231 47.304V44.52H306.919V61ZM0.704 95.36C0.704 98.208 2.912 100.384 6.08 100.384C7.968 100.384 9.888 99.52 10.976 97.984H11.04C11.04 97.984 10.976 98.464 10.976 99.008V100H16.032V89.856C16.032 85.664 13.216 83.136 8.672 83.136C5.984 83.136 3.104 84.192 1.696 85.28L3.616 89.184C4.928 88.32 6.56 87.616 8.16 87.616C9.376 87.616 10.496 88.064 10.496 89.44V89.728H10.016C5.952 89.728 0.704 90.944 0.704 95.36ZM6.176 94.848C6.176 93.344 8.352 92.896 10.048 92.896H10.56V93.344C10.56 94.688 9.344 96.256 7.744 96.256C6.72 96.256 6.176 95.616 6.176 94.848ZM19.5435 100H25.0795V92.544C25.0795 90.208 26.1995 88.16 28.6635 88.16C29.8795 88.16 30.4875 88.8 30.4875 90.336V100H36.0235V89.312C36.0235 84.672 33.4315 83.136 30.1035 83.136C27.1915 83.136 25.6235 84.704 24.8555 85.984H24.7915C24.7915 85.984 24.8555 85.504 24.8555 84.96V83.52H19.5435V100ZM38.7108 91.744C38.7108 96.864 41.6548 100.384 46.1348 100.384C48.0868 100.384 49.8788 99.552 50.9028 97.984H50.9668C50.9668 97.984 50.9348 98.4 50.9348 98.912V100H56.1188V77.12H50.5828V83.712C50.5828 84.128 50.6148 84.448 50.6148 84.448H50.5508C49.4628 83.36 47.7028 83.136 46.2308 83.136C41.8468 83.136 38.7108 86.528 38.7108 91.744ZM44.2788 91.744C44.2788 89.216 45.7828 87.808 47.5108 87.808C49.6868 87.808 50.7428 89.76 50.7428 91.744C50.7428 94.592 49.1748 95.808 47.5108 95.808C45.5908 95.808 44.2788 94.208 44.2788 91.744ZM68.191 93.92C68.191 99.456 73.279 100.16 75.903 100.16C76.543 100.16 76.991 100.096 77.407 100.064V95.264C77.055 95.296 76.863 95.296 76.671 95.296C75.615 95.296 73.727 95.04 73.727 93.184V88.128H77.183V83.808H73.727V79.072H68.351V83.808H66.079V88.128H68.191V93.92ZM80.3873 100H85.9233V92.576C85.9233 90.048 87.1073 88.16 89.5073 88.16C90.7233 88.16 91.3313 88.8 91.3313 90.336V100H96.8673V89.312C96.8673 84.672 94.2753 83.136 90.9473 83.136C88.7713 83.136 86.8513 84.128 85.9233 85.76H85.8593C85.8593 85.76 85.9233 85.184 85.9233 84.352V77.12H80.3873V100ZM99.4905 91.744C99.4905 96.128 102.659 100.384 108.547 100.384C111.075 100.384 113.795 99.52 115.587 97.984L113.539 94.112C112.195 95.008 110.627 95.776 108.995 95.776C107.235 95.776 105.571 94.848 105.155 92.832H115.555C115.619 92.256 115.683 91.68 115.683 91.104C115.683 86.528 112.931 83.136 108.067 83.136C102.755 83.136 99.4905 86.912 99.4905 91.744ZM105.283 89.664C105.571 88.352 106.339 87.2 107.939 87.2C109.347 87.2 110.211 88.32 110.211 89.664H105.283ZM125.014 97.952C126.838 99.584 129.366 100.384 131.734 100.384C135.958 100.384 138.518 98.048 138.518 94.976C138.518 89.632 130.806 90.048 130.806 88.32C130.806 87.872 131.158 87.52 132.342 87.52C133.75 87.52 135.542 88.096 136.502 88.864L138.39 85.024C136.726 83.68 134.614 83.136 132.502 83.136C128.694 83.136 125.654 84.96 125.654 88.352C125.654 93.76 133.366 93.376 133.366 95.136C133.366 95.648 132.982 96 131.862 96C130.294 96 128.598 95.36 127.382 94.336L125.014 97.952ZM142.285 93.92C142.285 99.456 147.373 100.16 149.997 100.16C150.637 100.16 151.085 100.096 151.501 100.064V95.264C151.149 95.296 150.957 95.296 150.765 95.296C149.709 95.296 147.821 95.04 147.821 93.184V88.128H151.277V83.808H147.821V79.072H142.445V83.808H140.173V88.128H142.285V93.92ZM154.321 94.208C154.321 98.848 156.913 100.384 160.177 100.384C162.385 100.384 164.433 99.296 165.329 97.536H165.393C165.393 97.536 165.329 98.016 165.329 98.56V100H170.641V83.52H165.105V90.816C165.105 93.28 163.985 95.36 161.617 95.36C160.465 95.36 159.857 94.72 159.857 93.184V83.52H154.321V94.208ZM173.492 91.744C173.492 96.864 176.436 100.384 180.916 100.384C182.868 100.384 184.66 99.552 185.684 97.984H185.748C185.748 97.984 185.716 98.4 185.716 98.912V100H190.9V77.12H185.364V83.712C185.364 84.128 185.396 84.448 185.396 84.448H185.332C184.244 83.36 182.484 83.136 181.012 83.136C176.628 83.136 173.492 86.528 173.492 91.744ZM179.06 91.744C179.06 89.216 180.564 87.808 182.292 87.808C184.468 87.808 185.524 89.76 185.524 91.744C185.524 94.592 183.956 95.808 182.292 95.808C180.372 95.808 179.06 94.208 179.06 91.744ZM193.678 91.744C193.678 96.128 196.846 100.384 202.734 100.384C205.262 100.384 207.982 99.52 209.774 97.984L207.726 94.112C206.382 95.008 204.814 95.776 203.182 95.776C201.422 95.776 199.758 94.848 199.342 92.832H209.742C209.806 92.256 209.87 91.68 209.87 91.104C209.87 86.528 207.118 83.136 202.254 83.136C196.942 83.136 193.678 86.912 193.678 91.744ZM199.47 89.664C199.758 88.352 200.526 87.2 202.126 87.2C203.534 87.2 204.398 88.32 204.398 89.664H199.47ZM212.762 100H218.298V92.544C218.298 90.208 219.418 88.16 221.882 88.16C223.098 88.16 223.706 88.8 223.706 90.336V100H229.242V89.312C229.242 84.672 226.65 83.136 223.322 83.136C220.41 83.136 218.842 84.704 218.074 85.984H218.01C218.01 85.984 218.074 85.504 218.074 84.96V83.52H212.762V100ZM233.754 93.92C233.754 99.456 238.842 100.16 241.466 100.16C242.106 100.16 242.554 100.096 242.97 100.064V95.264C242.618 95.296 242.426 95.296 242.234 95.296C241.178 95.296 239.29 95.04 239.29 93.184V88.128H242.746V83.808H239.29V79.072H233.914V83.808H231.642V88.128H233.754V93.92Z" fill="#222224"/>
</svg>
