<svg width="1109" height="601" viewBox="0 0 1109 601" fill="none" xmlns="http://www.w3.org/2000/svg">
<path d="M571.7 227H588.512V221.6H578V201.26H571.7V227ZM589.732 217.712C589.732 222.644 593.296 227.432 599.92 227.432C602.764 227.432 605.824 226.46 607.84 224.732L605.536 220.376C604.024 221.384 602.26 222.248 600.424 222.248C598.444 222.248 596.572 221.204 596.104 218.936H607.804C607.876 218.288 607.948 217.64 607.948 216.992C607.948 211.844 604.852 208.028 599.38 208.028C593.404 208.028 589.732 212.276 589.732 217.712ZM596.248 215.372C596.572 213.896 597.436 212.6 599.236 212.6C600.82 212.6 601.792 213.86 601.792 215.372H596.248ZM609.905 221.78C609.905 224.984 612.389 227.432 615.953 227.432C618.077 227.432 620.237 226.46 621.461 224.732H621.533C621.533 224.732 621.461 225.272 621.461 225.884V227H627.149V215.588C627.149 210.872 623.981 208.028 618.869 208.028C615.845 208.028 612.605 209.216 611.021 210.44L613.181 214.832C614.657 213.86 616.493 213.068 618.293 213.068C619.661 213.068 620.921 213.572 620.921 215.12V215.444H620.381C615.809 215.444 609.905 216.812 609.905 221.78ZM616.061 221.204C616.061 219.512 618.509 219.008 620.417 219.008H620.993V219.512C620.993 221.024 619.625 222.788 617.825 222.788C616.673 222.788 616.061 222.068 616.061 221.204ZM631.1 227H637.328V219.8C637.328 216.416 638.984 214.22 642.44 214.22C642.872 214.22 643.484 214.256 643.7 214.328V208.208C643.484 208.172 643.232 208.136 642.98 208.136C640.208 208.136 637.868 210.224 637.076 212.744H637.004C637.004 212.744 637.076 212.204 637.076 211.592V208.46H631.1V227ZM646.428 227H652.656V218.612C652.656 215.984 653.916 213.68 656.688 213.68C658.056 213.68 658.74 214.4 658.74 216.128V227H664.968V214.976C664.968 209.756 662.052 208.028 658.308 208.028C655.032 208.028 653.268 209.792 652.404 211.232H652.332C652.332 211.232 652.404 210.692 652.404 210.08V208.46H646.428V227ZM676.919 217.712C676.919 222.824 680.627 227.432 687.251 227.432C690.347 227.432 693.371 226.244 695.207 224.372L692.939 220.016C691.607 221.168 689.663 222.248 687.863 222.248C684.731 222.248 683.219 219.836 683.219 217.64C683.219 215.444 684.695 213.212 687.647 213.212C689.267 213.212 690.923 213.968 692.003 215.012L694.631 210.836C692.795 208.856 689.843 208.028 687.251 208.028C680.591 208.028 676.919 212.744 676.919 217.712ZM697.826 227H704.054V218.648C704.054 215.804 705.386 213.68 708.086 213.68C709.454 213.68 710.138 214.4 710.138 216.128V227H716.366V214.976C716.366 209.756 713.45 208.028 709.706 208.028C707.258 208.028 705.098 209.144 704.054 210.98H703.982C703.982 210.98 704.054 210.332 704.054 209.396V201.26H697.826V227ZM719.317 217.712C719.317 222.644 722.881 227.432 729.505 227.432C732.349 227.432 735.409 226.46 737.425 224.732L735.121 220.376C733.609 221.384 731.845 222.248 730.009 222.248C728.029 222.248 726.157 221.204 725.689 218.936H737.389C737.461 218.288 737.533 217.64 737.533 216.992C737.533 211.844 734.437 208.028 728.965 208.028C722.989 208.028 719.317 212.276 719.317 217.712ZM725.833 215.372C726.157 213.896 727.021 212.6 728.821 212.6C730.405 212.6 731.377 213.86 731.377 215.372H725.833ZM740.787 227H747.015V219.152C747.015 216.596 747.735 213.68 750.579 213.68C751.767 213.68 752.019 214.652 752.019 216.02V227H758.247V219.152C758.247 216.38 759.111 213.68 761.811 213.68C762.999 213.68 763.251 214.652 763.251 216.02V227H769.479V214.976C769.479 209.864 766.851 208.028 763.467 208.028C760.695 208.028 758.499 209.612 757.527 211.16H757.455C756.483 209.072 754.611 208.028 752.271 208.028C749.355 208.028 747.627 209.936 746.763 211.232H746.691C746.691 211.232 746.763 210.692 746.763 210.08V208.46H740.787V227ZM773.59 206.12H779.674V201.26H773.59V206.12ZM773.518 227H779.746V208.46H773.518V227ZM782.52 224.696C784.572 226.532 787.416 227.432 790.08 227.432C794.832 227.432 797.712 224.804 797.712 221.348C797.712 215.336 789.036 215.804 789.036 213.86C789.036 213.356 789.432 212.96 790.764 212.96C792.348 212.96 794.364 213.608 795.444 214.472L797.568 210.152C795.696 208.64 793.32 208.028 790.944 208.028C786.66 208.028 783.24 210.08 783.24 213.896C783.24 219.98 791.916 219.548 791.916 221.528C791.916 222.104 791.484 222.5 790.224 222.5C788.46 222.5 786.552 221.78 785.184 220.628L782.52 224.696ZM801.949 220.16C801.949 226.388 807.673 227.18 810.625 227.18C811.345 227.18 811.849 227.108 812.317 227.072V221.672C811.921 221.708 811.705 221.708 811.489 221.708C810.301 221.708 808.177 221.42 808.177 219.332V213.644H812.065V208.784H808.177V203.456H802.129V208.784H799.573V213.644H801.949V220.16ZM815.67 227H821.898V219.8C821.898 216.416 823.554 214.22 827.01 214.22C827.442 214.22 828.054 214.256 828.27 214.328V208.208C828.054 208.172 827.802 208.136 827.55 208.136C824.778 208.136 822.438 210.224 821.646 212.744H821.574C821.574 212.744 821.646 212.204 821.646 211.592V208.46H815.67V227ZM831.178 228.692L829.198 233.264C829.198 233.264 831.07 234.56 833.518 234.56C836.47 234.56 839.71 233.12 841.258 228.98L848.854 208.46H842.05L839.71 217.1C839.458 218.108 839.098 219.872 839.098 219.872H839.026C839.026 219.872 838.666 218 838.342 216.992L835.606 208.46H828.55L836.434 226.64L836.074 227.504C835.426 229.088 834.094 229.376 833.086 229.376C832.186 229.376 831.178 228.692 831.178 228.692ZM857.968 221.78C857.968 224.984 860.452 227.432 864.016 227.432C866.14 227.432 868.3 226.46 869.524 224.732H869.596C869.596 224.732 869.524 225.272 869.524 225.884V227H875.212V215.588C875.212 210.872 872.044 208.028 866.932 208.028C863.908 208.028 860.668 209.216 859.084 210.44L861.244 214.832C862.72 213.86 864.556 213.068 866.356 213.068C867.724 213.068 868.984 213.572 868.984 215.12V215.444H868.444C863.872 215.444 857.968 216.812 857.968 221.78ZM864.124 221.204C864.124 219.512 866.572 219.008 868.48 219.008H869.056V219.512C869.056 221.024 867.688 222.788 865.888 222.788C864.736 222.788 864.124 222.068 864.124 221.204ZM879.162 227H885.39V218.612C885.39 215.984 886.65 213.68 889.422 213.68C890.79 213.68 891.474 214.4 891.474 216.128V227H897.702V214.976C897.702 209.756 894.786 208.028 891.042 208.028C887.766 208.028 886.002 209.792 885.138 211.232H885.066C885.066 211.232 885.138 210.692 885.138 210.08V208.46H879.162V227ZM900.725 217.712C900.725 223.472 904.037 227.432 909.077 227.432C911.273 227.432 913.289 226.496 914.441 224.732H914.513C914.513 224.732 914.477 225.2 914.477 225.776V227H920.309V201.26H914.081V208.676C914.081 209.144 914.117 209.504 914.117 209.504H914.045C912.821 208.28 910.841 208.028 909.185 208.028C904.253 208.028 900.725 211.844 900.725 217.712ZM906.989 217.712C906.989 214.868 908.681 213.284 910.625 213.284C913.073 213.284 914.261 215.48 914.261 217.712C914.261 220.916 912.497 222.284 910.625 222.284C908.465 222.284 906.989 220.484 906.989 217.712ZM933.479 234.2H939.707V227.252C939.707 226.316 939.635 225.668 939.635 225.668H939.707C941.039 226.82 942.695 227.432 944.423 227.432C949.355 227.432 953.063 223.616 953.063 217.748C953.063 211.988 949.751 208.028 944.711 208.028C942.479 208.028 940.355 208.892 939.095 210.584H939.023C939.023 210.584 939.095 210.008 939.095 209.396V208.46H933.479V234.2ZM939.527 217.856C939.527 214.652 941.291 213.284 943.163 213.284C945.323 213.284 946.799 215.084 946.799 217.856C946.799 220.7 945.107 222.284 943.163 222.284C940.715 222.284 939.527 220.088 939.527 217.856ZM956.26 227H962.488V218.648C962.488 215.804 963.82 213.68 966.52 213.68C967.888 213.68 968.572 214.4 968.572 216.128V227H974.8V214.976C974.8 209.756 971.884 208.028 968.14 208.028C965.692 208.028 963.532 209.144 962.488 210.98H962.416C962.416 210.98 962.488 210.332 962.488 209.396V201.26H956.26V227ZM978.729 228.692L976.749 233.264C976.749 233.264 978.621 234.56 981.069 234.56C984.021 234.56 987.261 233.12 988.809 228.98L996.405 208.46H989.601L987.261 217.1C987.009 218.108 986.649 219.872 986.649 219.872H986.577C986.577 219.872 986.217 218 985.893 216.992L983.157 208.46H976.101L983.985 226.64L983.625 227.504C982.977 229.088 981.645 229.376 980.637 229.376C979.737 229.376 978.729 228.692 978.729 228.692ZM996.938 224.696C998.99 226.532 1001.83 227.432 1004.5 227.432C1009.25 227.432 1012.13 224.804 1012.13 221.348C1012.13 215.336 1003.45 215.804 1003.45 213.86C1003.45 213.356 1003.85 212.96 1005.18 212.96C1006.77 212.96 1008.78 213.608 1009.86 214.472L1011.99 210.152C1010.11 208.64 1007.74 208.028 1005.36 208.028C1001.08 208.028 997.658 210.08 997.658 213.896C997.658 219.98 1006.33 219.548 1006.33 221.528C1006.33 222.104 1005.9 222.5 1004.64 222.5C1002.88 222.5 1000.97 221.78 999.602 220.628L996.938 224.696ZM1015.36 206.12H1021.44V201.26H1015.36V206.12ZM1015.29 227H1021.52V208.46H1015.29V227ZM1024.65 217.712C1024.65 222.824 1028.36 227.432 1034.98 227.432C1038.08 227.432 1041.1 226.244 1042.94 224.372L1040.67 220.016C1039.34 221.168 1037.39 222.248 1035.59 222.248C1032.46 222.248 1030.95 219.836 1030.95 217.64C1030.95 215.444 1032.43 213.212 1035.38 213.212C1037 213.212 1038.65 213.968 1039.73 215.012L1042.36 210.836C1040.53 208.856 1037.57 208.028 1034.98 208.028C1028.32 208.028 1024.65 212.744 1024.65 217.712ZM1044.15 224.696C1046.2 226.532 1049.05 227.432 1051.71 227.432C1056.46 227.432 1059.34 224.804 1059.34 221.348C1059.34 215.336 1050.67 215.804 1050.67 213.86C1050.67 213.356 1051.06 212.96 1052.4 212.96C1053.98 212.96 1056 213.608 1057.08 214.472L1059.2 210.152C1057.33 208.64 1054.95 208.028 1052.58 208.028C1048.29 208.028 1044.87 210.08 1044.87 213.896C1044.87 219.98 1053.55 219.548 1053.55 221.528C1053.55 222.104 1053.12 222.5 1051.86 222.5C1050.09 222.5 1048.18 221.78 1046.82 220.628L1044.15 224.696Z" fill="#F04B5D"/>
<path d="M570.908 262.484C570.908 267.704 573.824 269.432 577.496 269.432C579.98 269.432 582.284 268.208 583.292 266.228H583.364C583.364 266.228 583.292 266.768 583.292 267.38V269H589.268V250.46H583.04V258.668C583.04 261.44 581.78 263.78 579.116 263.78C577.82 263.78 577.136 263.06 577.136 261.332V250.46H570.908V262.484ZM592.043 266.696C594.095 268.532 596.939 269.432 599.603 269.432C604.355 269.432 607.235 266.804 607.235 263.348C607.235 257.336 598.559 257.804 598.559 255.86C598.559 255.356 598.955 254.96 600.287 254.96C601.871 254.96 603.887 255.608 604.967 256.472L607.091 252.152C605.219 250.64 602.843 250.028 600.467 250.028C596.183 250.028 592.763 252.08 592.763 255.896C592.763 261.98 601.439 261.548 601.439 263.528C601.439 264.104 601.007 264.5 599.747 264.5C597.983 264.5 596.075 263.78 594.707 262.628L592.043 266.696ZM610.465 248.12H616.549V243.26H610.465V248.12ZM610.393 269H616.621V250.46H610.393V269ZM620.799 269H627.027V260.612C627.027 257.984 628.287 255.68 631.059 255.68C632.427 255.68 633.111 256.4 633.111 258.128V269H639.339V256.976C639.339 251.756 636.423 250.028 632.679 250.028C629.403 250.028 627.639 251.792 626.775 253.232H626.703C626.703 253.232 626.775 252.692 626.775 252.08V250.46H620.799V269ZM645.926 270.188L644.162 274.904C645.962 275.84 648.698 276.56 651.182 276.56C656.258 276.56 661.658 274.076 661.658 267.308V250.46H655.826V251.396C655.826 251.612 655.862 251.828 655.862 251.828H655.754C654.458 250.532 652.478 250.028 650.714 250.028C645.098 250.028 642.398 254.42 642.398 259.136C642.398 263.888 645.17 268.46 650.75 268.46C652.91 268.46 654.314 267.812 655.394 266.516H655.466C655.466 266.516 655.43 266.984 655.43 267.2V267.812C655.43 270.548 653.378 271.376 651.146 271.376C649.274 271.376 647.474 270.944 645.926 270.188ZM648.662 258.92C648.662 256.796 649.778 255.212 651.974 255.212C653.846 255.212 655.574 255.932 655.574 259.208C655.574 262.448 653.846 263.276 652.226 263.276C649.742 263.276 648.662 261.224 648.662 258.92ZM673.538 263.78C673.538 266.984 676.022 269.432 679.586 269.432C681.71 269.432 683.87 268.46 685.094 266.732H685.166C685.166 266.732 685.094 267.272 685.094 267.884V269H690.782V257.588C690.782 252.872 687.614 250.028 682.502 250.028C679.478 250.028 676.238 251.216 674.654 252.44L676.814 256.832C678.29 255.86 680.126 255.068 681.926 255.068C683.294 255.068 684.554 255.572 684.554 257.12V257.444H684.014C679.442 257.444 673.538 258.812 673.538 263.78ZM679.694 263.204C679.694 261.512 682.142 261.008 684.05 261.008H684.626V261.512C684.626 263.024 683.258 264.788 681.458 264.788C680.306 264.788 679.694 264.068 679.694 263.204ZM702.689 259.712C702.689 264.824 706.397 269.432 713.021 269.432C716.117 269.432 719.141 268.244 720.977 266.372L718.709 262.016C717.377 263.168 715.433 264.248 713.633 264.248C710.501 264.248 708.989 261.836 708.989 259.64C708.989 257.444 710.465 255.212 713.417 255.212C715.037 255.212 716.693 255.968 717.773 257.012L720.401 252.836C718.565 250.856 715.613 250.028 713.021 250.028C706.361 250.028 702.689 254.744 702.689 259.712ZM722.165 259.784C722.165 265.58 726.845 269.432 732.677 269.432C738.509 269.432 743.189 265.58 743.189 259.784C743.189 253.952 738.509 250.028 732.641 250.028C726.845 250.028 722.165 253.952 722.165 259.784ZM728.465 259.784C728.465 256.976 730.409 255.212 732.677 255.212C734.945 255.212 736.889 256.976 736.889 259.784C736.889 262.556 734.945 264.248 732.677 264.248C730.409 264.248 728.465 262.556 728.465 259.784ZM746.307 269H752.535V261.152C752.535 258.596 753.255 255.68 756.099 255.68C757.287 255.68 757.539 256.652 757.539 258.02V269H763.767V261.152C763.767 258.38 764.631 255.68 767.331 255.68C768.519 255.68 768.771 256.652 768.771 258.02V269H774.999V256.976C774.999 251.864 772.371 250.028 768.987 250.028C766.215 250.028 764.019 251.612 763.047 253.16H762.975C762.003 251.072 760.131 250.028 757.791 250.028C754.875 250.028 753.147 251.936 752.283 253.232H752.211C752.211 253.232 752.283 252.692 752.283 252.08V250.46H746.307V269ZM779.037 276.2H785.265V269.252C785.265 268.316 785.193 267.668 785.193 267.668H785.265C786.597 268.82 788.253 269.432 789.981 269.432C794.913 269.432 798.621 265.616 798.621 259.748C798.621 253.988 795.309 250.028 790.269 250.028C788.037 250.028 785.913 250.892 784.653 252.584H784.581C784.581 252.584 784.653 252.008 784.653 251.396V250.46H779.037V276.2ZM785.085 259.856C785.085 256.652 786.849 255.284 788.721 255.284C790.881 255.284 792.357 257.084 792.357 259.856C792.357 262.7 790.665 264.284 788.721 264.284C786.273 264.284 785.085 262.088 785.085 259.856ZM801.638 262.484C801.638 267.704 804.554 269.432 808.226 269.432C810.71 269.432 813.014 268.208 814.022 266.228H814.094C814.094 266.228 814.022 266.768 814.022 267.38V269H819.998V250.46H813.77V258.668C813.77 261.44 812.51 263.78 809.846 263.78C808.55 263.78 807.866 263.06 807.866 261.332V250.46H801.638V262.484ZM825.258 262.16C825.258 268.388 830.982 269.18 833.934 269.18C834.654 269.18 835.158 269.108 835.626 269.072V263.672C835.23 263.708 835.014 263.708 834.798 263.708C833.61 263.708 831.486 263.42 831.486 261.332V255.644H835.374V250.784H831.486V245.456H825.438V250.784H822.882V255.644H825.258V262.16ZM837.935 259.712C837.935 264.644 841.499 269.432 848.123 269.432C850.967 269.432 854.027 268.46 856.043 266.732L853.739 262.376C852.227 263.384 850.463 264.248 848.627 264.248C846.647 264.248 844.775 263.204 844.307 260.936H856.007C856.079 260.288 856.151 259.64 856.151 258.992C856.151 253.844 853.055 250.028 847.583 250.028C841.607 250.028 837.935 254.276 837.935 259.712ZM844.451 257.372C844.775 255.896 845.639 254.6 847.439 254.6C849.023 254.6 849.995 255.86 849.995 257.372H844.451ZM859.404 269H865.632V261.8C865.632 258.416 867.288 256.22 870.744 256.22C871.176 256.22 871.788 256.256 872.004 256.328V250.208C871.788 250.172 871.536 250.136 871.284 250.136C868.512 250.136 866.172 252.224 865.38 254.744H865.308C865.308 254.744 865.38 254.204 865.38 253.592V250.46H859.404V269ZM570.044 301.784C570.044 307.58 574.724 311.432 580.556 311.432C586.388 311.432 591.068 307.58 591.068 301.784C591.068 295.952 586.388 292.028 580.52 292.028C574.724 292.028 570.044 295.952 570.044 301.784ZM576.344 301.784C576.344 298.976 578.288 297.212 580.556 297.212C582.824 297.212 584.768 298.976 584.768 301.784C584.768 304.556 582.824 306.248 580.556 306.248C578.288 306.248 576.344 304.556 576.344 301.784ZM594.186 311H600.414V303.8C600.414 300.416 602.07 298.22 605.526 298.22C605.958 298.22 606.57 298.256 606.786 298.328V292.208C606.57 292.172 606.318 292.136 606.066 292.136C603.294 292.136 600.954 294.224 600.162 296.744H600.09C600.09 296.744 600.162 296.204 600.162 295.592V292.46H594.186V311ZM616.407 308.696C618.459 310.532 621.303 311.432 623.967 311.432C628.719 311.432 631.599 308.804 631.599 305.348C631.599 299.336 622.923 299.804 622.923 297.86C622.923 297.356 623.319 296.96 624.651 296.96C626.235 296.96 628.251 297.608 629.331 298.472L631.455 294.152C629.583 292.64 627.207 292.028 624.831 292.028C620.547 292.028 617.127 294.08 617.127 297.896C617.127 303.98 625.803 303.548 625.803 305.528C625.803 306.104 625.371 306.5 624.111 306.5C622.347 306.5 620.439 305.78 619.071 304.628L616.407 308.696ZM634.756 311H640.984V303.152C640.984 300.596 641.704 297.68 644.548 297.68C645.736 297.68 645.988 298.652 645.988 300.02V311H652.216V303.152C652.216 300.38 653.08 297.68 655.78 297.68C656.968 297.68 657.22 298.652 657.22 300.02V311H663.448V298.976C663.448 293.864 660.82 292.028 657.436 292.028C654.664 292.028 652.468 293.612 651.496 295.16H651.424C650.452 293.072 648.58 292.028 646.24 292.028C643.324 292.028 641.596 293.936 640.732 295.232H640.66C640.66 295.232 640.732 294.692 640.732 294.08V292.46H634.756V311ZM666.19 305.78C666.19 308.984 668.674 311.432 672.238 311.432C674.362 311.432 676.522 310.46 677.746 308.732H677.818C677.818 308.732 677.746 309.272 677.746 309.884V311H683.434V299.588C683.434 294.872 680.266 292.028 675.154 292.028C672.13 292.028 668.89 293.216 667.306 294.44L669.466 298.832C670.942 297.86 672.778 297.068 674.578 297.068C675.946 297.068 677.206 297.572 677.206 299.12V299.444H676.666C672.094 299.444 666.19 300.812 666.19 305.78ZM672.346 305.204C672.346 303.512 674.794 303.008 676.702 303.008H677.278V303.512C677.278 305.024 675.91 306.788 674.11 306.788C672.958 306.788 672.346 306.068 672.346 305.204ZM687.385 311H693.613V303.8C693.613 300.416 695.269 298.22 698.725 298.22C699.157 298.22 699.769 298.256 699.985 298.328V292.208C699.769 292.172 699.517 292.136 699.265 292.136C696.493 292.136 694.153 294.224 693.361 296.744H693.289C693.289 296.744 693.361 296.204 693.361 295.592V292.46H687.385V311ZM702.713 318.2H708.941V311.252C708.941 310.316 708.869 309.668 708.869 309.668H708.941C710.273 310.82 711.929 311.432 713.657 311.432C718.589 311.432 722.297 307.616 722.297 301.748C722.297 295.988 718.985 292.028 713.945 292.028C711.713 292.028 709.589 292.892 708.329 294.584H708.257C708.257 294.584 708.329 294.008 708.329 293.396V292.46H702.713V318.2ZM708.761 301.856C708.761 298.652 710.525 297.284 712.397 297.284C714.557 297.284 716.033 299.084 716.033 301.856C716.033 304.7 714.341 306.284 712.397 306.284C709.949 306.284 708.761 304.088 708.761 301.856ZM725.494 311H731.722V302.648C731.722 299.804 733.054 297.68 735.754 297.68C737.122 297.68 737.806 298.4 737.806 300.128V311H744.034V298.976C744.034 293.756 741.118 292.028 737.374 292.028C734.926 292.028 732.766 293.144 731.722 294.98H731.65C731.65 294.98 731.722 294.332 731.722 293.396V285.26H725.494V311ZM746.985 301.784C746.985 307.58 751.665 311.432 757.497 311.432C763.329 311.432 768.009 307.58 768.009 301.784C768.009 295.952 763.329 292.028 757.461 292.028C751.665 292.028 746.985 295.952 746.985 301.784ZM753.285 301.784C753.285 298.976 755.229 297.212 757.497 297.212C759.765 297.212 761.709 298.976 761.709 301.784C761.709 304.556 759.765 306.248 757.497 306.248C755.229 306.248 753.285 304.556 753.285 301.784ZM771.127 311H777.355V302.612C777.355 299.984 778.615 297.68 781.387 297.68C782.755 297.68 783.439 298.4 783.439 300.128V311H789.667V298.976C789.667 293.756 786.751 292.028 783.007 292.028C779.731 292.028 777.967 293.792 777.103 295.232H777.031C777.031 295.232 777.103 294.692 777.103 294.08V292.46H771.127V311ZM792.618 301.712C792.618 306.644 796.182 311.432 802.806 311.432C805.65 311.432 808.71 310.46 810.726 308.732L808.422 304.376C806.91 305.384 805.146 306.248 803.31 306.248C801.33 306.248 799.458 305.204 798.99 302.936H810.69C810.762 302.288 810.834 301.64 810.834 300.992C810.834 295.844 807.738 292.028 802.266 292.028C796.29 292.028 792.618 296.276 792.618 301.712ZM799.134 299.372C799.458 297.896 800.322 296.6 802.122 296.6C803.706 296.6 804.678 297.86 804.678 299.372H799.134Z" fill="#222224"/>
<path d="M217.674 506.687L216.891 506.392C216.719 506.327 199.594 499.754 191.571 484.849C183.549 469.943 187.477 451.997 187.518 451.817L187.702 451L188.485 451.294C188.657 451.359 205.782 457.933 213.805 472.838C221.827 487.743 217.899 505.69 217.858 505.869L217.674 506.687ZM192.856 484.155C199.638 496.757 213.171 503.217 216.6 504.692C217.252 501.01 219.297 486.122 212.52 473.531C205.744 460.943 192.206 454.473 188.776 452.994C188.124 456.678 186.08 471.566 192.856 484.155Z" fill="#3F3D56"/>
<path d="M197.702 479.62C212.119 488.31 217.672 505.571 217.672 505.571C217.672 505.571 199.849 508.742 185.432 500.052C171.015 491.362 165.463 474.102 165.463 474.102C165.463 474.102 183.285 470.93 197.702 479.62Z" fill="#D0CDE1"/>
<path d="M472.143 505.869C472.102 505.69 468.174 487.743 476.197 472.838C484.219 457.933 501.344 451.359 501.516 451.294L502.299 451L502.484 451.817C502.524 451.997 506.453 469.943 498.43 484.849C490.408 499.754 473.282 506.327 473.11 506.392L472.327 506.687L472.143 505.869ZM501.225 452.994C497.795 454.473 484.257 460.943 477.481 473.531C470.705 486.122 472.749 501.01 473.401 504.692C476.83 503.217 490.363 496.757 497.145 484.155C503.922 471.566 501.878 456.678 501.225 452.994Z" fill="#3F3D56"/>
<path d="M492.299 479.62C477.882 488.31 472.33 505.571 472.33 505.571C472.33 505.571 490.152 508.742 504.569 500.052C518.986 491.362 524.538 474.102 524.538 474.102C524.538 474.102 506.716 470.93 492.299 479.62Z" fill="#F04B5D"/>
<path d="M502.635 505.135H159V506.597H502.635V505.135Z" fill="#3F3D56"/>
<g clip-path="url(#clip0)">
<path d="M375.743 438.518L364.129 484.214L367.664 487.768L388.871 466.443L394.931 445.626L375.743 438.518Z" fill="#A0616A"/>
<path d="M463.604 438.518L451.99 484.214L455.525 487.768L476.733 466.443L482.792 445.626L463.604 438.518Z" fill="#A0616A"/>
<path d="M472.693 204.448L403.01 217.142L402.505 223.742L370.693 440.548C370.693 440.548 407.555 459.335 431.287 450.195L440.881 300.411L454.01 450.195C454.01 450.195 483.802 465.935 504 444.61C504 444.61 491.376 216.634 472.693 204.448Z" fill="#2F2E41"/>
<path d="M392.406 457.811L369.683 455.78L359.584 489.291C359.584 489.291 353.24 497.87 349.623 505.906C349.109 507.06 348.908 508.329 349.039 509.586C349.171 510.844 349.631 512.043 350.373 513.064C351.114 514.084 352.112 514.889 353.263 515.397C354.414 515.904 355.678 516.097 356.927 515.954C363.789 515.191 372.062 513.74 373.218 511.124C374.779 507.31 376.128 503.411 377.258 499.446L382.812 503L386.852 500.969L389.376 481.167C389.376 481.167 393.921 476.09 389.881 466.951L392.406 457.811Z" fill="#2F2E41"/>
<path d="M480.267 457.811L457.545 455.78L447.446 489.291C447.446 489.291 441.102 497.87 437.485 505.906C436.97 507.06 436.769 508.329 436.9 509.586C437.032 510.844 437.492 512.043 438.234 513.064C438.976 514.084 439.973 514.889 441.124 515.397C442.275 515.904 443.54 516.097 444.789 515.954C451.651 515.191 459.923 513.74 461.079 511.124C462.64 507.31 463.989 503.411 465.119 499.446L470.673 503L474.713 500.969L477.238 481.167C477.238 481.167 481.782 476.09 477.743 466.951L480.267 457.811Z" fill="#2F2E41"/>
<path d="M429.52 102.646C443.464 102.646 454.767 91.2801 454.767 77.2592C454.767 63.2383 443.464 51.8721 429.52 51.8721C415.576 51.8721 404.272 63.2383 404.272 77.2592C404.272 91.2801 415.576 102.646 429.52 102.646Z" fill="#A0616A"/>
<path d="M427.753 97.3144C427.753 97.3144 433.307 112.547 426.238 116.101C421.884 118.273 417.314 119.975 412.604 121.178L413.614 144.534L438.861 178.553L468.653 121.178C468.653 121.178 452.495 125.748 449.97 89.6982L427.753 97.3144Z" fill="#A0616A"/>
<path d="M383.822 213.08L378.267 278.071C378.267 278.071 367.159 316.659 382.307 312.09C397.456 307.52 389.376 276.04 389.376 276.04L403.01 213.08H383.822Z" fill="#A0616A"/>
<path d="M437.347 166.368L426.743 132.349L423.713 135.903C423.713 135.903 406.821 127.632 421.326 118.312C421.326 118.312 389.376 120.671 389.376 130.826C389.376 140.98 403.515 172.46 403.515 172.46C403.515 172.46 399.475 219.173 402 219.173C404.525 219.173 471.683 205.464 471.683 205.464L473.703 181.6C473.703 181.6 493.396 136.919 487.842 129.81C482.287 122.702 462.833 118.055 461.199 119.617C461.199 119.617 471.683 128.287 444.416 140.473L446.436 144.535L437.347 166.368Z" fill="#D0CDE1"/>
<path d="M391.901 128.795C391.901 128.795 385.842 134.38 385.842 150.12C385.842 165.86 382.307 197.848 382.307 197.848L376.753 216.127L397.456 217.142L403.515 221.204C403.515 221.204 411.594 164.845 412.604 163.321C413.614 161.798 391.901 128.795 391.901 128.795Z" fill="#D0CDE1"/>
<path d="M482.287 128.287C482.287 128.287 490.871 126.764 492.386 141.488C493.901 156.213 494.911 207.495 494.911 207.495C494.911 207.495 501.98 211.049 498.446 217.142C494.911 223.235 490.871 224.758 490.871 224.758L475.723 215.619L472.693 168.906L482.287 128.287Z" fill="#D0CDE1"/>
<path d="M478.752 214.604C478.752 214.604 457.04 223.743 460.069 227.805C463.099 231.867 470.673 226.789 470.673 226.789C470.673 226.789 478.752 248.115 483.297 243.545C487.842 238.975 490.871 221.204 490.871 221.204L478.752 214.604Z" fill="#A0616A"/>
<path opacity="0.2" d="M475.325 204.448C475.325 204.448 483.422 193.532 494.847 204.448C494.847 204.448 482.755 199.117 475.325 204.448Z" fill="black"/>
<path d="M426.445 81.9786C424.851 79.637 425.55 76.3833 424.408 73.7877C422.616 69.7118 417.332 68.8755 412.908 68.6074C409.968 68.4291 406.983 68.2541 404.1 68.8456C402.814 69.093 401.602 69.6375 400.561 70.4362C399.519 71.2349 398.676 72.266 398.099 73.4482C397.477 74.7813 397.543 70.6502 397.833 65.3422C398.127 59.9256 400.123 54.7425 403.534 50.5397C406.945 46.3369 411.595 43.3314 416.813 41.9563C416.875 41.9401 416.937 41.9241 416.998 41.9084C422.343 40.5306 427.863 39.4781 433.357 39.9919C438.851 40.5056 444.369 42.7507 447.893 47.0203C449.504 48.9716 450.666 51.2907 452.454 53.0786C455.597 56.2199 460.168 57.2794 464.378 58.6699C469.139 60.2425 473.784 62.4458 477.478 65.8502C481.173 69.2547 483.847 73.9781 484.044 79.0132C484.274 84.8865 480.703 91.0406 474.741 92.3449C473.704 92.5529 472.73 93.0038 471.899 93.6611C466.288 98.2592 472.924 102.768 473 107.788C473.063 111.978 468.491 114.821 464.335 115.117C456.594 115.67 448.901 109.824 447.316 102.185C446.606 98.7631 447.005 95.2209 447.33 91.7404C447.701 87.7563 438.967 78.6091 444.753 85.3288C445.881 86.6053 446.659 88.1551 447.011 89.8259C448.079 95.2806 443.166 97.2437 440.113 100.355C438.438 102.114 437.287 104.309 436.789 106.692C436.292 109.075 436.469 111.551 437.3 113.838C431.918 109.436 430.482 100.876 434.13 94.9417C435.099 93.3643 436.364 91.9818 437.281 90.3727C438.711 87.862 438.992 82.4697 434.825 82.7191C431.851 82.8971 428.819 85.4644 426.445 81.9786Z" fill="#2F2E41"/>
<path d="M436.805 37H431.4C429.07 37 427.182 38.8988 427.182 41.241V74.5119C427.182 76.8541 429.07 78.7529 431.4 78.7529H436.805C439.135 78.7529 441.023 76.8541 441.023 74.5119V41.241C441.023 38.8988 439.135 37 436.805 37Z" fill="#D0CDE1"/>
<path d="M434.102 97.542C440.982 97.542 446.559 91.9339 446.559 85.0161C446.559 78.0983 440.982 72.4902 434.102 72.4902C427.223 72.4902 421.645 78.0983 421.645 85.0161C421.645 91.9339 427.223 97.542 434.102 97.542Z" fill="#F04B5D"/>
<path d="M434.102 91.2788C437.542 91.2788 440.331 88.4748 440.331 85.0159C440.331 81.5569 437.542 78.7529 434.102 78.7529C430.663 78.7529 427.874 81.5569 427.874 85.0159C427.874 88.4748 430.663 91.2788 434.102 91.2788Z" fill="#D0CDE1"/>
<path d="M434.102 87.7995C435.631 87.7995 436.871 86.5533 436.871 85.016C436.871 83.4787 435.631 82.2324 434.102 82.2324C432.574 82.2324 431.334 83.4787 431.334 85.016C431.334 86.5533 432.574 87.7995 434.102 87.7995Z" fill="#F04B5D"/>
</g>
<path d="M326 135H37C34.2386 135 32 137.239 32 140V290.798C32 293.56 34.2386 295.798 37 295.798H326C328.761 295.798 331 293.56 331 290.798V140C331 137.239 328.761 135 326 135Z" fill="#3F3D56"/>
<path d="M317.5 280.428H49C47.8954 280.428 47 281.323 47 282.428V284.94C47 286.044 47.8954 286.94 49 286.94H317.5C318.605 286.94 319.5 286.044 319.5 284.94V282.428C319.5 281.323 318.605 280.428 317.5 280.428Z" fill="#D0CDE1"/>
<path d="M202 280.428H49C47.8954 280.428 47 281.323 47 282.428V284.94C47 286.044 47.8954 286.94 49 286.94H202C203.105 286.94 204 286.044 204 284.94V282.428C204 281.323 203.105 280.428 202 280.428Z" fill="#F04B5D"/>
<path d="M48.6735 273.263C48.0079 273.68 47.1426 273.203 47.1418 272.417L47.1345 265.217C47.1337 264.432 47.9967 263.952 48.6632 264.368L54.4227 267.956C55.0497 268.346 55.0513 269.259 54.4256 269.651L48.6735 273.263Z" fill="#F04B5D"/>
<path d="M63.4271 264.495H62.1843C61.6321 264.495 61.1843 264.943 61.1843 265.495V272.142C61.1843 272.695 61.6321 273.142 62.1843 273.142H63.4271C63.9793 273.142 64.4271 272.695 64.4271 272.142V265.495C64.4271 264.943 63.9793 264.495 63.4271 264.495Z" fill="#F04B5D"/>
<path d="M68.8316 264.495H67.5889C67.0366 264.495 66.5889 264.943 66.5889 265.495V272.142C66.5889 272.695 67.0366 273.142 67.5889 273.142H68.8316C69.3838 273.142 69.8316 272.695 69.8316 272.142V265.495C69.8316 264.943 69.3838 264.495 68.8316 264.495Z" fill="#F04B5D"/>
<path d="M319.52 255.009C319.52 256.666 318.177 258.009 316.52 258.009H50.1326C48.4758 258.009 47.1326 256.666 47.1326 255.009V148.596C47.1326 146.939 48.4758 145.596 50.1326 145.596H316.52C318.177 145.596 319.52 146.939 319.52 148.596V255.009ZM48.1566 253.992C48.1566 255.649 49.4998 256.992 51.1566 256.992H315.496C317.153 256.992 318.496 255.649 318.496 253.992V149.613C318.496 147.956 317.153 146.613 315.496 146.613H51.1566C49.4998 146.613 48.1566 147.956 48.1566 149.613V253.992Z" fill="#D0CDE1"/>
<path d="M269.499 188.183H240.501C240.224 188.183 240 188.407 240 188.684C240 188.96 240.224 189.184 240.501 189.184H269.499C269.776 189.184 270 188.96 270 188.684C270 188.407 269.776 188.183 269.499 188.183Z" fill="#D0CDE1"/>
<path d="M118.499 227.756H89.5009C89.2243 227.756 89 227.98 89 228.257C89 228.533 89.2243 228.758 89.5009 228.758H118.499C118.776 228.758 119 228.533 119 228.257C119 227.98 118.776 227.756 118.499 227.756Z" fill="#D0CDE1"/>
<path d="M281 193.192C280.11 193.192 279.24 192.927 278.5 192.432C277.76 191.936 277.183 191.232 276.843 190.408C276.502 189.585 276.413 188.678 276.586 187.804C276.76 186.929 277.189 186.126 277.818 185.495C278.447 184.865 279.249 184.435 280.122 184.261C280.995 184.087 281.9 184.177 282.722 184.518C283.544 184.859 284.247 185.437 284.742 186.178C285.236 186.92 285.5 187.791 285.5 188.683C285.499 189.878 285.024 191.024 284.18 191.87C283.337 192.715 282.193 193.19 281 193.192ZM281 185.177C280.308 185.177 279.631 185.382 279.056 185.768C278.48 186.153 278.031 186.701 277.766 187.341C277.502 187.982 277.432 188.687 277.567 189.367C277.702 190.047 278.036 190.672 278.525 191.163C279.015 191.653 279.638 191.987 280.317 192.122C280.996 192.258 281.7 192.188 282.339 191.923C282.979 191.657 283.526 191.208 283.91 190.631C284.295 190.055 284.5 189.377 284.5 188.683C284.499 187.754 284.13 186.862 283.474 186.205C282.818 185.548 281.928 185.178 281 185.177Z" fill="#D0CDE1"/>
<path d="M281 237.775C280.11 237.775 279.24 237.51 278.5 237.015C277.76 236.519 277.183 235.815 276.843 234.991C276.502 234.168 276.413 233.261 276.586 232.387C276.76 231.512 277.189 230.709 277.818 230.078C278.447 229.448 279.249 229.018 280.122 228.844C280.995 228.67 281.9 228.76 282.722 229.101C283.544 229.442 284.247 230.02 284.742 230.761C285.236 231.503 285.5 232.375 285.5 233.266C285.499 234.461 285.024 235.607 284.181 236.453C283.337 237.298 282.193 237.773 281 237.775ZM281 229.76C280.308 229.76 279.631 229.965 279.056 230.351C278.48 230.736 278.031 231.284 277.766 231.924C277.502 232.565 277.432 233.27 277.567 233.95C277.702 234.63 278.036 235.255 278.525 235.746C279.015 236.236 279.638 236.57 280.317 236.705C280.996 236.841 281.7 236.771 282.339 236.506C282.979 236.24 283.526 235.791 283.91 235.214C284.295 234.638 284.5 233.96 284.5 233.266C284.499 232.337 284.13 231.445 283.474 230.788C282.818 230.131 281.928 229.761 281 229.76Z" fill="#D0CDE1"/>
<path d="M297 237.775C296.11 237.775 295.24 237.51 294.5 237.015C293.76 236.519 293.183 235.815 292.843 234.991C292.502 234.168 292.413 233.261 292.586 232.387C292.76 231.512 293.189 230.709 293.818 230.078C294.447 229.448 295.249 229.018 296.122 228.844C296.995 228.67 297.9 228.76 298.722 229.101C299.544 229.442 300.247 230.02 300.742 230.761C301.236 231.503 301.5 232.375 301.5 233.266C301.499 234.461 301.024 235.607 300.181 236.453C299.337 237.298 298.193 237.773 297 237.775ZM297 229.76C296.308 229.76 295.631 229.965 295.056 230.351C294.48 230.736 294.031 231.284 293.766 231.924C293.502 232.565 293.432 233.27 293.567 233.95C293.702 234.63 294.036 235.255 294.525 235.746C295.015 236.236 295.638 236.57 296.317 236.705C296.996 236.841 297.7 236.771 298.339 236.506C298.979 236.24 299.526 235.791 299.91 235.214C300.295 234.638 300.5 233.96 300.5 233.266C300.499 232.337 300.13 231.445 299.474 230.788C298.818 230.131 297.928 229.761 297 229.76Z" fill="#D0CDE1"/>
<path d="M265 237.775C264.11 237.775 263.24 237.51 262.5 237.015C261.76 236.519 261.183 235.815 260.843 234.991C260.502 234.168 260.413 233.261 260.586 232.387C260.76 231.512 261.189 230.709 261.818 230.078C262.447 229.448 263.249 229.018 264.122 228.844C264.995 228.67 265.9 228.76 266.722 229.101C267.544 229.442 268.247 230.02 268.742 230.761C269.236 231.503 269.5 232.375 269.5 233.266C269.499 234.461 269.024 235.607 268.18 236.453C267.337 237.298 266.193 237.773 265 237.775ZM265 229.76C264.308 229.76 263.631 229.965 263.055 230.351C262.48 230.736 262.031 231.284 261.766 231.924C261.501 232.565 261.432 233.27 261.567 233.95C261.702 234.63 262.036 235.255 262.525 235.746C263.015 236.236 263.638 236.57 264.317 236.705C264.996 236.841 265.7 236.771 266.339 236.506C266.979 236.24 267.526 235.791 267.91 235.214C268.295 234.638 268.5 233.96 268.5 233.266C268.499 232.337 268.13 231.445 267.474 230.788C266.818 230.131 265.928 229.761 265 229.76Z" fill="#D0CDE1"/>
<path d="M76.5 232.766C75.61 232.766 74.7399 232.501 73.9999 232.006C73.2599 231.511 72.6831 230.806 72.3425 229.983C72.0019 229.159 71.9128 228.252 72.0865 227.378C72.2601 226.503 72.6887 225.7 73.318 225.069C73.9473 224.439 74.7492 224.01 75.6221 223.836C76.495 223.662 77.3998 223.751 78.2221 224.092C79.0443 224.433 79.7471 225.011 80.2416 225.753C80.7361 226.494 81 227.366 81 228.257C80.9987 229.453 80.5241 230.599 79.6805 231.444C78.8369 232.289 77.6931 232.764 76.5 232.766ZM76.5 224.751C75.8078 224.751 75.1311 224.957 74.5555 225.342C73.9799 225.727 73.5313 226.275 73.2664 226.916C73.0015 227.556 72.9322 228.261 73.0672 228.941C73.2023 229.622 73.5356 230.246 74.0251 230.737C74.5146 231.227 75.1382 231.561 75.8172 231.697C76.4961 231.832 77.1998 231.762 77.8394 231.497C78.4789 231.232 79.0256 230.782 79.4101 230.205C79.7947 229.629 80 228.951 80 228.257C79.9989 227.328 79.6298 226.436 78.9737 225.779C78.3175 225.122 77.4279 224.752 76.5 224.751Z" fill="#D0CDE1"/>
<path d="M60.5 232.766C59.61 232.766 58.74 232.501 57.9999 232.006C57.2599 231.511 56.6831 230.806 56.3425 229.983C56.002 229.159 55.9128 228.252 56.0865 227.378C56.2601 226.503 56.6887 225.7 57.318 225.069C57.9474 224.439 58.7492 224.01 59.6221 223.836C60.495 223.662 61.3998 223.751 62.2221 224.092C63.0443 224.433 63.7472 225.011 64.2416 225.753C64.7361 226.494 65 227.366 65 228.257C64.9987 229.453 64.5241 230.599 63.6805 231.444C62.8369 232.289 61.6931 232.764 60.5 232.766ZM60.5 224.751C59.8078 224.751 59.1311 224.957 58.5555 225.342C57.9799 225.727 57.5313 226.275 57.2664 226.916C57.0015 227.556 56.9322 228.261 57.0673 228.941C57.2023 229.622 57.5356 230.246 58.0251 230.737C58.5146 231.227 59.1383 231.561 59.8172 231.697C60.4961 231.832 61.1999 231.762 61.8394 231.497C62.4789 231.232 63.0256 230.782 63.4101 230.205C63.7947 229.629 64 228.951 64 228.257C63.9989 227.328 63.6298 226.436 62.9737 225.779C62.3175 225.122 61.4279 224.752 60.5 224.751Z" fill="#D0CDE1"/>
<path d="M281.5 221.746V197.699C281.5 197.423 281.276 197.199 281 197.199C280.724 197.199 280.5 197.423 280.5 197.699V221.746C280.5 222.022 280.724 222.246 281 222.246C281.276 222.246 281.5 222.022 281.5 221.746Z" fill="#D0CDE1"/>
<path d="M221.5 94C223.985 94 226 91.9853 226 89.5C226 87.0147 223.985 85 221.5 85C219.015 85 217 87.0147 217 89.5C217 91.9853 219.015 94 221.5 94Z" fill="#F04B5D"/>
<path d="M306.5 9C308.985 9 311 6.98528 311 4.5C311 2.01472 308.985 0 306.5 0C304.015 0 302 2.01472 302 4.5C302 6.98528 304.015 9 306.5 9Z" fill="#F04B5D"/>
<path d="M74.5 416C76.9853 416 79 413.985 79 411.5C79 409.015 76.9853 407 74.5 407C72.0147 407 70 409.015 70 411.5C70 413.985 72.0147 416 74.5 416Z" fill="#F04B5D"/>
<path d="M83.5 61C85.9853 61 88 58.9853 88 56.5C88 54.0147 85.9853 52 83.5 52C81.0147 52 79 54.0147 79 56.5C79 58.9853 81.0147 61 83.5 61Z" fill="#F04B5D"/>
<path d="M160.798 215.357L151.764 211.969L158.539 210.84L154.023 200.677L159.669 205.194L163.056 201.806V210.84L168.702 219.874C168.702 219.874 173.219 209.711 167.573 201.806C161.927 193.902 149.506 192.772 149.506 192.772C149.506 192.772 146.118 205.194 149.506 213.098C152.893 221.003 164.185 221.003 164.185 221.003L160.798 215.357Z" fill="#A0D92A"/>
<path d="M180.418 225.52L178.47 228.636C177.962 229.449 177.883 230.364 178.131 231.166H163.599C162.869 233.941 164.941 236.812 167.965 236.812H181.124V225.52H180.418Z" fill="#2580A6"/>
<path d="M184.116 231.166C184.206 230.883 184.252 230.59 184.252 230.285C184.252 229.731 184.105 229.167 183.777 228.636L181.829 225.52H181.124V236.812H194.282C197.306 236.812 199.378 233.941 198.649 231.166H184.116Z" fill="#20557D"/>
<path d="M183.777 203.794C185.08 205.878 183.581 208.581 181.123 208.581V217.615H182.253V219.173C183.081 218.226 184.283 217.615 185.64 217.615H187.899C187.899 220.11 185.876 222.132 183.382 222.132H182.253V225.52H181.829L183.777 228.636C184.105 229.167 184.251 229.732 184.251 230.285C184.251 230.59 184.206 230.883 184.116 231.166H198.649C198.576 230.891 198.486 230.616 198.357 230.346L189.028 210.84V197.289C190.275 197.289 191.287 196.278 191.287 195.031C191.287 193.784 190.275 192.772 189.028 192.772H181.124V199.548L183.777 203.794Z" fill="#AEBBC4"/>
<path d="M178.47 228.636L180.418 225.52H179.994V219.874H178.865C176.371 219.874 174.348 217.851 174.348 215.357H176.607C178.274 215.357 179.715 216.271 180.497 217.615H181.124V208.581C178.666 208.581 177.167 205.878 178.47 203.794L181.124 199.548V192.772H173.219C171.972 192.772 170.961 193.784 170.961 195.031C170.961 196.278 171.972 197.289 173.219 197.289V210.84L163.89 230.346C163.761 230.616 163.671 230.891 163.599 231.166H178.131C177.883 230.364 177.962 229.449 178.47 228.636ZM169.712 229.412L167.692 228.402L168.821 226.144L170.842 227.154L169.712 229.412ZM171.971 224.895L169.95 223.885L172.209 219.369L174.229 220.379L171.971 224.895Z" fill="#D0DFEA"/>
<path d="M178.47 203.794C177.167 205.878 178.666 208.582 181.123 208.582V199.548L178.47 203.794Z" fill="#2580A6"/>
<path d="M183.777 203.794L181.123 199.548V208.582C183.581 208.582 185.08 205.878 183.777 203.794Z" fill="#20557D"/>
<path d="M190.488 182.279L188.794 180.585L182.253 187.126H181.124V188.256H184.511L190.488 182.279Z" fill="#D0DFEA"/>
<path d="M194.674 177.004L191.526 180.124L193.218 181.815L196.933 178.133C198.492 176.574 198.492 174.046 196.933 172.487C196.301 171.855 195.508 171.493 194.687 171.373C196.232 172.933 196.229 175.45 194.674 177.004Z" fill="#20557D"/>
<path d="M188.794 180.585L187.1 178.892L181.124 184.868V187.127H182.253L188.794 180.585Z" fill="white"/>
<path d="M194.674 177.004C196.229 175.449 196.232 172.933 194.687 171.373C193.482 171.197 192.214 171.56 191.287 172.487L187.572 176.169L191.526 180.124L194.674 177.004Z" fill="#2580A6"/>
<path d="M196.933 206.363C190.157 212.009 193.545 219.874 193.545 219.874L198.062 215.397L200.32 208.621L201.449 212.009L209.354 208.621L198.062 221.043C198.062 221.043 203.167 224.129 208.225 219.914C215 214.267 213.871 204.105 213.871 204.105C213.871 204.105 203.708 200.717 196.933 206.363Z" fill="#A0D92A"/>
<path d="M183.382 222.132C185.877 222.132 187.899 220.11 187.899 217.615H185.64C184.284 217.615 183.081 218.226 182.253 219.173V222.132H183.382Z" fill="#F1E200"/>
<path d="M180.497 217.615C179.715 216.27 178.274 215.356 176.607 215.356H174.348C174.348 217.851 176.371 219.873 178.865 219.873H179.994V217.615H180.497Z" fill="#F1E200"/>
<path d="M167.573 180.351C166.597 180.351 165.693 180.081 164.892 179.645C165.848 181.403 167.689 182.609 169.831 182.609C172.95 182.609 175.478 180.082 175.478 176.963C175.478 174.821 174.271 172.98 172.513 172.023C172.949 172.824 173.219 173.729 173.219 174.705C173.219 177.823 170.691 180.351 167.573 180.351Z" fill="#C4B800"/>
<path d="M167.573 180.351C170.691 180.351 173.219 177.823 173.219 174.705C173.219 173.729 172.949 172.825 172.513 172.024C171.712 171.588 170.808 171.317 169.831 171.317C167.976 171.317 166.344 172.225 165.315 173.607C164.614 174.547 164.185 175.701 164.185 176.963C164.185 177.94 164.456 178.844 164.892 179.645C165.693 180.081 166.597 180.351 167.573 180.351ZM166.444 175.834H168.702V178.093H166.444V175.834Z" fill="#F1E200"/>
<path d="M200.32 193.901C199.98 193.901 199.659 193.836 199.349 193.743C199.769 195.137 201.048 196.16 202.579 196.16C204.45 196.16 205.966 194.643 205.966 192.772C205.966 191.241 204.944 189.962 203.55 189.543C203.643 189.853 203.708 190.174 203.708 190.514C203.708 192.385 202.191 193.901 200.32 193.901Z" fill="#C4B800"/>
<path d="M200.32 193.902C202.191 193.902 203.708 192.385 203.708 190.514C203.708 190.174 203.643 189.853 203.55 189.543C203.24 189.45 202.918 189.385 202.579 189.385C200.708 189.385 199.191 190.901 199.191 192.772C199.191 193.112 199.256 193.434 199.349 193.743C199.659 193.836 199.98 193.902 200.32 193.902Z" fill="#F1E200"/>
<path d="M190.488 182.279L192.746 184.537L194.343 182.941L193.218 181.815L191.526 180.124L187.572 176.169L186.439 175.036L184.842 176.633L187.1 178.891L188.794 180.585L190.488 182.279Z" fill="#F1E200"/>
<path d="M182.253 222.132V219.173V217.615H181.124H180.497H179.994V219.874V225.52H180.418H181.124H181.829H182.253V222.132Z" fill="#1D9942"/>
<path d="M171.972 224.894L174.23 220.378L172.21 219.368L169.952 223.885L171.972 224.894Z" fill="white"/>
<path d="M169.714 229.415L170.843 227.156L168.823 226.146L167.694 228.405L169.714 229.415Z" fill="white"/>
<path d="M212.742 172.447V170.188H210.483V172.447H208.225V174.705H210.483V176.964H212.742V174.705H215V172.447H212.742Z" fill="#F1E200"/>
<path d="M168.702 175.834H166.444V178.092H168.702V175.834Z" fill="white"/>
<path d="M152.893 183.739H155.152V181.481H157.41V179.222H155.152V176.964H152.893V179.222H150.635V181.481H152.893V183.739Z" fill="#F1E200"/>
<defs>
<clipPath id="clip0">
<rect x="349" y="37" width="155" height="479" fill="white"/>
</clipPath>
</defs>
</svg>
