<svg width="1309" height="485" viewBox="0 0 1309 485" fill="none" xmlns="http://www.w3.org/2000/svg">
<path d="M6.732 222H13.824L17.064 209.004C17.46 207.348 17.568 205.98 17.568 205.98H17.64C17.64 205.98 17.748 207.348 18.144 209.004L21.384 222H28.404L34.92 196.26H28.404L24.876 212.352C24.552 213.936 24.552 215.052 24.552 215.052H24.48C24.48 215.052 24.444 213.936 24.048 212.352L20.196 196.26H15.12L11.16 212.352C10.764 213.936 10.728 215.052 10.728 215.052H10.656C10.656 215.052 10.656 213.936 10.332 212.352L7.092 196.26H0.468L6.732 222ZM34.8995 212.712C34.8995 217.644 38.4635 222.432 45.0875 222.432C47.9315 222.432 50.9915 221.46 53.0075 219.732L50.7035 215.376C49.1915 216.384 47.4275 217.248 45.5915 217.248C43.6115 217.248 41.7395 216.204 41.2715 213.936H52.9715C53.0435 213.288 53.1155 212.64 53.1155 211.992C53.1155 206.844 50.0195 203.028 44.5475 203.028C38.5715 203.028 34.8995 207.276 34.8995 212.712ZM41.4155 210.372C41.7395 208.896 42.6035 207.6 44.4035 207.6C45.9875 207.6 46.9595 208.86 46.9595 210.372H41.4155ZM65.0177 222H71.2457V214.152C71.2457 211.596 71.9657 208.68 74.8097 208.68C75.9977 208.68 76.2497 209.652 76.2497 211.02V222H82.4777V214.152C82.4777 211.38 83.3417 208.68 86.0417 208.68C87.2297 208.68 87.4817 209.652 87.4817 211.02V222H93.7097V209.976C93.7097 204.864 91.0817 203.028 87.6977 203.028C84.9257 203.028 82.7297 204.612 81.7577 206.16H81.6857C80.7137 204.072 78.8417 203.028 76.5017 203.028C73.5857 203.028 71.8577 204.936 70.9937 206.232H70.9217C70.9217 206.232 70.9937 205.692 70.9937 205.08V203.46H65.0177V222ZM96.7042 212.784C96.7042 218.58 101.384 222.432 107.216 222.432C113.048 222.432 117.728 218.58 117.728 212.784C117.728 206.952 113.048 203.028 107.18 203.028C101.384 203.028 96.7042 206.952 96.7042 212.784ZM103.004 212.784C103.004 209.976 104.948 208.212 107.216 208.212C109.484 208.212 111.428 209.976 111.428 212.784C111.428 215.556 109.484 217.248 107.216 217.248C104.948 217.248 103.004 215.556 103.004 212.784ZM120.846 222H127.074V213.612C127.074 210.984 128.334 208.68 131.106 208.68C132.474 208.68 133.158 209.4 133.158 211.128V222H139.386V209.976C139.386 204.756 136.47 203.028 132.726 203.028C129.45 203.028 127.686 204.792 126.822 206.232H126.75C126.75 206.232 126.822 205.692 126.822 205.08V203.46H120.846V222ZM143.453 201.12H149.537V196.26H143.453V201.12ZM143.381 222H149.609V203.46H143.381V222ZM154.867 215.16C154.867 221.388 160.591 222.18 163.543 222.18C164.263 222.18 164.767 222.108 165.235 222.072V216.672C164.839 216.708 164.623 216.708 164.407 216.708C163.219 216.708 161.095 216.42 161.095 214.332V208.644H164.983V203.784H161.095V198.456H155.047V203.784H152.491V208.644H154.867V215.16ZM167.403 212.784C167.403 218.58 172.083 222.432 177.915 222.432C183.747 222.432 188.427 218.58 188.427 212.784C188.427 206.952 183.747 203.028 177.879 203.028C172.083 203.028 167.403 206.952 167.403 212.784ZM173.703 212.784C173.703 209.976 175.647 208.212 177.915 208.212C180.183 208.212 182.127 209.976 182.127 212.784C182.127 215.556 180.183 217.248 177.915 217.248C175.647 217.248 173.703 215.556 173.703 212.784ZM191.545 222H197.773V214.8C197.773 211.416 199.429 209.22 202.885 209.22C203.317 209.22 203.929 209.256 204.145 209.328V203.208C203.929 203.172 203.677 203.136 203.425 203.136C200.653 203.136 198.313 205.224 197.521 207.744H197.449C197.449 207.744 197.521 207.204 197.521 206.592V203.46H191.545V222ZM214.401 223.692L212.421 228.264C212.421 228.264 214.293 229.56 216.741 229.56C219.693 229.56 222.933 228.12 224.481 223.98L232.077 203.46H225.273L222.933 212.1C222.681 213.108 222.321 214.872 222.321 214.872H222.249C222.249 214.872 221.889 213 221.565 211.992L218.829 203.46H211.773L219.657 221.64L219.297 222.504C218.649 224.088 217.317 224.376 216.309 224.376C215.409 224.376 214.401 223.692 214.401 223.692ZM232.724 212.784C232.724 218.58 237.404 222.432 243.236 222.432C249.068 222.432 253.748 218.58 253.748 212.784C253.748 206.952 249.068 203.028 243.2 203.028C237.404 203.028 232.724 206.952 232.724 212.784ZM239.024 212.784C239.024 209.976 240.968 208.212 243.236 208.212C245.504 208.212 247.448 209.976 247.448 212.784C247.448 215.556 245.504 217.248 243.236 217.248C240.968 217.248 239.024 215.556 239.024 212.784ZM256.685 215.484C256.685 220.704 259.601 222.432 263.273 222.432C265.757 222.432 268.061 221.208 269.069 219.228H269.141C269.141 219.228 269.069 219.768 269.069 220.38V222H275.045V203.46H268.817V211.668C268.817 214.44 267.557 216.78 264.893 216.78C263.597 216.78 262.913 216.06 262.913 214.332V203.46H256.685V215.484ZM279.225 222H285.453V214.8C285.453 211.416 287.109 209.22 290.565 209.22C290.997 209.22 291.609 209.256 291.825 209.328V203.208C291.609 203.172 291.357 203.136 291.105 203.136C288.333 203.136 285.993 205.224 285.201 207.744H285.129C285.129 207.744 285.201 207.204 285.201 206.592V203.46H279.225V222ZM302.85 229.2H309.078V222.252C309.078 221.316 309.006 220.668 309.006 220.668H309.078C310.41 221.82 312.066 222.432 313.794 222.432C318.726 222.432 322.434 218.616 322.434 212.748C322.434 206.988 319.122 203.028 314.082 203.028C311.85 203.028 309.726 203.892 308.466 205.584H308.394C308.394 205.584 308.466 205.008 308.466 204.396V203.46H302.85V229.2ZM308.898 212.856C308.898 209.652 310.662 208.284 312.534 208.284C314.694 208.284 316.17 210.084 316.17 212.856C316.17 215.7 314.478 217.284 312.534 217.284C310.086 217.284 308.898 215.088 308.898 212.856ZM325.631 222H331.859V214.8C331.859 211.416 333.515 209.22 336.971 209.22C337.403 209.22 338.015 209.256 338.231 209.328V203.208C338.015 203.172 337.763 203.136 337.511 203.136C334.739 203.136 332.399 205.224 331.607 207.744H331.535C331.535 207.744 331.607 207.204 331.607 206.592V203.46H325.631V222ZM339.774 212.784C339.774 218.58 344.454 222.432 350.286 222.432C356.118 222.432 360.798 218.58 360.798 212.784C360.798 206.952 356.118 203.028 350.25 203.028C344.454 203.028 339.774 206.952 339.774 212.784ZM346.074 212.784C346.074 209.976 348.018 208.212 350.286 208.212C352.554 208.212 354.498 209.976 354.498 212.784C354.498 215.556 352.554 217.248 350.286 217.248C348.018 217.248 346.074 215.556 346.074 212.784ZM366.508 223.188L364.744 227.904C366.544 228.84 369.28 229.56 371.764 229.56C376.84 229.56 382.24 227.076 382.24 220.308V203.46H376.408V204.396C376.408 204.612 376.444 204.828 376.444 204.828H376.336C375.04 203.532 373.06 203.028 371.296 203.028C365.68 203.028 362.98 207.42 362.98 212.136C362.98 216.888 365.752 221.46 371.332 221.46C373.492 221.46 374.896 220.812 375.976 219.516H376.048C376.048 219.516 376.012 219.984 376.012 220.2V220.812C376.012 223.548 373.96 224.376 371.728 224.376C369.856 224.376 368.056 223.944 366.508 223.188ZM369.244 211.92C369.244 209.796 370.36 208.212 372.556 208.212C374.428 208.212 376.156 208.932 376.156 212.208C376.156 215.448 374.428 216.276 372.808 216.276C370.324 216.276 369.244 214.224 369.244 211.92ZM386.416 222H392.644V214.8C392.644 211.416 394.3 209.22 397.756 209.22C398.188 209.22 398.8 209.256 399.016 209.328V203.208C398.8 203.172 398.548 203.136 398.296 203.136C395.524 203.136 393.184 205.224 392.392 207.744H392.32C392.32 207.744 392.392 207.204 392.392 206.592V203.46H386.416V222ZM400.7 212.712C400.7 217.644 404.264 222.432 410.888 222.432C413.732 222.432 416.792 221.46 418.808 219.732L416.504 215.376C414.992 216.384 413.228 217.248 411.392 217.248C409.412 217.248 407.54 216.204 407.072 213.936H418.772C418.844 213.288 418.916 212.64 418.916 211.992C418.916 206.844 415.82 203.028 410.348 203.028C404.372 203.028 400.7 207.276 400.7 212.712ZM407.216 210.372C407.54 208.896 408.404 207.6 410.204 207.6C411.788 207.6 412.76 208.86 412.76 210.372H407.216ZM420.766 219.696C422.818 221.532 425.662 222.432 428.326 222.432C433.078 222.432 435.958 219.804 435.958 216.348C435.958 210.336 427.282 210.804 427.282 208.86C427.282 208.356 427.678 207.96 429.01 207.96C430.594 207.96 432.61 208.608 433.69 209.472L435.814 205.152C433.942 203.64 431.566 203.028 429.19 203.028C424.906 203.028 421.486 205.08 421.486 208.896C421.486 214.98 430.162 214.548 430.162 216.528C430.162 217.104 429.73 217.5 428.47 217.5C426.706 217.5 424.798 216.78 423.43 215.628L420.766 219.696ZM437.711 219.696C439.763 221.532 442.607 222.432 445.271 222.432C450.023 222.432 452.903 219.804 452.903 216.348C452.903 210.336 444.227 210.804 444.227 208.86C444.227 208.356 444.623 207.96 445.955 207.96C447.539 207.96 449.555 208.608 450.635 209.472L452.759 205.152C450.887 203.64 448.511 203.028 446.135 203.028C441.851 203.028 438.431 205.08 438.431 208.896C438.431 214.98 447.107 214.548 447.107 216.528C447.107 217.104 446.675 217.5 445.415 217.5C443.651 217.5 441.743 216.78 440.375 215.628L437.711 219.696ZM454.369 225.996H458.941L463.009 216.024H457.069L454.369 225.996Z" fill="#F04B5D"/>
<path d="M0.792 258.78C0.792 261.984 3.276 264.432 6.84 264.432C8.964 264.432 11.124 263.46 12.348 261.732H12.42C12.42 261.732 12.348 262.272 12.348 262.884V264H18.036V252.588C18.036 247.872 14.868 245.028 9.756 245.028C6.732 245.028 3.492 246.216 1.908 247.44L4.068 251.832C5.544 250.86 7.38 250.068 9.18 250.068C10.548 250.068 11.808 250.572 11.808 252.12V252.444H11.268C6.696 252.444 0.792 253.812 0.792 258.78ZM6.948 258.204C6.948 256.512 9.396 256.008 11.304 256.008H11.88V256.512C11.88 258.024 10.512 259.788 8.712 259.788C7.56 259.788 6.948 259.068 6.948 258.204ZM21.9864 264H28.2144V255.612C28.2144 252.984 29.4744 250.68 32.2464 250.68C33.6144 250.68 34.2984 251.4 34.2984 253.128V264H40.5264V251.976C40.5264 246.756 37.6104 245.028 33.8664 245.028C30.5904 245.028 28.8264 246.792 27.9624 248.232H27.8904C27.8904 248.232 27.9624 247.692 27.9624 247.08V245.46H21.9864V264ZM43.2256 258.78C43.2256 261.984 45.7096 264.432 49.2736 264.432C51.3976 264.432 53.5576 263.46 54.7816 261.732H54.8536C54.8536 261.732 54.7816 262.272 54.7816 262.884V264H60.4696V252.588C60.4696 247.872 57.3016 245.028 52.1896 245.028C49.1656 245.028 45.9256 246.216 44.3416 247.44L46.5016 251.832C47.9776 250.86 49.8136 250.068 51.6136 250.068C52.9816 250.068 54.2416 250.572 54.2416 252.12V252.444H53.7016C49.1296 252.444 43.2256 253.812 43.2256 258.78ZM49.3816 258.204C49.3816 256.512 51.8296 256.008 53.7376 256.008H54.3136V256.512C54.3136 258.024 52.9456 259.788 51.1456 259.788C49.9936 259.788 49.3816 259.068 49.3816 258.204ZM64.384 257.16C64.384 263.388 67.912 264.18 71.224 264.18C72.016 264.18 72.664 264.108 73.096 264.072V258.672C72.808 258.708 72.52 258.708 72.34 258.708C70.936 258.708 70.612 258.096 70.612 256.332V238.26H64.384V257.16ZM75.85 265.692L73.87 270.264C73.87 270.264 75.742 271.56 78.19 271.56C81.142 271.56 84.382 270.12 85.93 265.98L93.526 245.46H86.722L84.382 254.1C84.13 255.108 83.77 256.872 83.77 256.872H83.698C83.698 256.872 83.338 255 83.014 253.992L80.278 245.46H73.222L81.106 263.64L80.746 264.504C80.098 266.088 78.766 266.376 77.758 266.376C76.858 266.376 75.85 265.692 75.85 265.692ZM94.9857 264H112.014V258.78H105.066C103.878 258.78 103.41 258.888 103.41 258.888V258.816C103.41 258.816 104.166 258.24 105.066 257.124L111.834 248.592V245.46H95.2737V250.68H101.79C102.942 250.68 103.41 250.608 103.41 250.608V250.68C103.41 250.68 102.726 251.22 101.79 252.372L94.9857 260.904V264ZM114.142 254.712C114.142 259.644 117.706 264.432 124.33 264.432C127.174 264.432 130.234 263.46 132.25 261.732L129.946 257.376C128.434 258.384 126.67 259.248 124.834 259.248C122.854 259.248 120.982 258.204 120.514 255.936H132.214C132.286 255.288 132.358 254.64 132.358 253.992C132.358 248.844 129.262 245.028 123.79 245.028C117.814 245.028 114.142 249.276 114.142 254.712ZM120.658 252.372C120.982 250.896 121.846 249.6 123.646 249.6C125.23 249.6 126.202 250.86 126.202 252.372H120.658ZM142.964 258.78C142.964 261.984 145.448 264.432 149.012 264.432C151.136 264.432 153.296 263.46 154.52 261.732H154.592C154.592 261.732 154.52 262.272 154.52 262.884V264H160.208V252.588C160.208 247.872 157.04 245.028 151.928 245.028C148.904 245.028 145.664 246.216 144.08 247.44L146.24 251.832C147.716 250.86 149.552 250.068 151.352 250.068C152.72 250.068 153.98 250.572 153.98 252.12V252.444H153.44C148.868 252.444 142.964 253.812 142.964 258.78ZM149.12 258.204C149.12 256.512 151.568 256.008 153.476 256.008H154.052V256.512C154.052 258.024 152.684 259.788 150.884 259.788C149.732 259.788 149.12 259.068 149.12 258.204ZM164.158 264H170.386V255.612C170.386 252.984 171.646 250.68 174.418 250.68C175.786 250.68 176.47 251.4 176.47 253.128V264H182.698V251.976C182.698 246.756 179.782 245.028 176.038 245.028C172.762 245.028 170.998 246.792 170.134 248.232H170.062C170.062 248.232 170.134 247.692 170.134 247.08V245.46H164.158V264ZM185.721 254.712C185.721 260.472 189.033 264.432 194.073 264.432C196.269 264.432 198.285 263.496 199.437 261.732H199.509C199.509 261.732 199.473 262.2 199.473 262.776V264H205.305V238.26H199.077V245.676C199.077 246.144 199.113 246.504 199.113 246.504H199.041C197.817 245.28 195.837 245.028 194.181 245.028C189.249 245.028 185.721 248.844 185.721 254.712ZM191.985 254.712C191.985 251.868 193.677 250.284 195.621 250.284C198.069 250.284 199.257 252.48 199.257 254.712C199.257 257.916 197.493 259.284 195.621 259.284C193.461 259.284 191.985 257.484 191.985 254.712ZM217.431 254.712C217.431 259.824 221.139 264.432 227.763 264.432C230.859 264.432 233.883 263.244 235.719 261.372L233.451 257.016C232.119 258.168 230.175 259.248 228.375 259.248C225.243 259.248 223.731 256.836 223.731 254.64C223.731 252.444 225.207 250.212 228.159 250.212C229.779 250.212 231.435 250.968 232.515 252.012L235.143 247.836C233.307 245.856 230.355 245.028 227.763 245.028C221.103 245.028 217.431 249.744 217.431 254.712ZM236.907 254.784C236.907 260.58 241.587 264.432 247.419 264.432C253.251 264.432 257.931 260.58 257.931 254.784C257.931 248.952 253.251 245.028 247.383 245.028C241.587 245.028 236.907 248.952 236.907 254.784ZM243.207 254.784C243.207 251.976 245.151 250.212 247.419 250.212C249.687 250.212 251.631 251.976 251.631 254.784C251.631 257.556 249.687 259.248 247.419 259.248C245.151 259.248 243.207 257.556 243.207 254.784ZM261.049 264H267.277V256.8C267.277 253.416 268.933 251.22 272.389 251.22C272.821 251.22 273.433 251.256 273.649 251.328V245.208C273.433 245.172 273.181 245.136 272.929 245.136C270.157 245.136 267.817 247.224 267.025 249.744H266.953C266.953 249.744 267.025 249.204 267.025 248.592V245.46H261.049V264ZM276.377 264H282.605V256.8C282.605 253.416 284.261 251.22 287.717 251.22C288.149 251.22 288.761 251.256 288.977 251.328V245.208C288.761 245.172 288.509 245.136 288.257 245.136C285.485 245.136 283.145 247.224 282.353 249.744H282.281C282.281 249.744 282.353 249.204 282.353 248.592V245.46H276.377V264ZM290.661 254.712C290.661 259.644 294.225 264.432 300.849 264.432C303.693 264.432 306.753 263.46 308.769 261.732L306.465 257.376C304.953 258.384 303.189 259.248 301.353 259.248C299.373 259.248 297.501 258.204 297.033 255.936H308.733C308.805 255.288 308.877 254.64 308.877 253.992C308.877 248.844 305.781 245.028 300.309 245.028C294.333 245.028 290.661 249.276 290.661 254.712ZM297.177 252.372C297.501 250.896 298.365 249.6 300.165 249.6C301.749 249.6 302.721 250.86 302.721 252.372H297.177ZM311.087 254.712C311.087 259.824 314.795 264.432 321.419 264.432C324.515 264.432 327.539 263.244 329.375 261.372L327.107 257.016C325.775 258.168 323.831 259.248 322.031 259.248C318.899 259.248 317.387 256.836 317.387 254.64C317.387 252.444 318.863 250.212 321.815 250.212C323.435 250.212 325.091 250.968 326.171 252.012L328.799 247.836C326.963 245.856 324.011 245.028 321.419 245.028C314.759 245.028 311.087 249.744 311.087 254.712ZM333.074 257.16C333.074 263.388 338.798 264.18 341.75 264.18C342.47 264.18 342.974 264.108 343.442 264.072V258.672C343.046 258.708 342.83 258.708 342.614 258.708C341.426 258.708 339.302 258.42 339.302 256.332V250.644H343.19V245.784H339.302V240.456H333.254V245.784H330.698V250.644H333.074V257.16ZM2.088 306H8.316V298.152C8.316 295.596 9.036 292.68 11.88 292.68C13.068 292.68 13.32 293.652 13.32 295.02V306H19.548V298.152C19.548 295.38 20.412 292.68 23.112 292.68C24.3 292.68 24.552 293.652 24.552 295.02V306H30.78V293.976C30.78 288.864 28.152 287.028 24.768 287.028C21.996 287.028 19.8 288.612 18.828 290.16H18.756C17.784 288.072 15.912 287.028 13.572 287.028C10.656 287.028 8.928 288.936 8.064 290.232H7.992C7.992 290.232 8.064 289.692 8.064 289.08V287.46H2.088V306ZM34.8905 285.12H40.9745V280.26H34.8905V285.12ZM34.8185 306H41.0465V287.46H34.8185V306ZM43.8207 303.696C45.8727 305.532 48.7167 306.432 51.3807 306.432C56.1327 306.432 59.0127 303.804 59.0127 300.348C59.0127 294.336 50.3367 294.804 50.3367 292.86C50.3367 292.356 50.7327 291.96 52.0647 291.96C53.6487 291.96 55.6647 292.608 56.7447 293.472L58.8687 289.152C56.9967 287.64 54.6207 287.028 52.2447 287.028C47.9607 287.028 44.5407 289.08 44.5407 292.896C44.5407 298.98 53.2167 298.548 53.2167 300.528C53.2167 301.104 52.7847 301.5 51.5247 301.5C49.7607 301.5 47.8527 300.78 46.4847 299.628L43.8207 303.696ZM63.25 299.16C63.25 305.388 68.974 306.18 71.926 306.18C72.646 306.18 73.15 306.108 73.618 306.072V300.672C73.222 300.708 73.006 300.708 72.79 300.708C71.602 300.708 69.478 300.42 69.478 298.332V292.644H73.366V287.784H69.478V282.456H63.43V287.784H60.874V292.644H63.25V299.16ZM75.6748 300.78C75.6748 303.984 78.1588 306.432 81.7228 306.432C83.8468 306.432 86.0068 305.46 87.2308 303.732H87.3028C87.3028 303.732 87.2308 304.272 87.2308 304.884V306H92.9188V294.588C92.9188 289.872 89.7508 287.028 84.6388 287.028C81.6148 287.028 78.3748 288.216 76.7908 289.44L78.9508 293.832C80.4268 292.86 82.2628 292.068 84.0628 292.068C85.4308 292.068 86.6908 292.572 86.6908 294.12V294.444H86.1508C81.5788 294.444 75.6748 295.812 75.6748 300.78ZM81.8308 300.204C81.8308 298.512 84.2788 298.008 86.1868 298.008H86.7628V298.512C86.7628 300.024 85.3948 301.788 83.5948 301.788C82.4428 301.788 81.8308 301.068 81.8308 300.204ZM96.8693 306H103.097V298.8H105.041L108.965 306H116.057L109.865 295.956V295.884L115.301 287.46H108.533L104.861 293.58H103.097V280.26H96.8693V306ZM116.392 296.712C116.392 301.644 119.956 306.432 126.58 306.432C129.424 306.432 132.484 305.46 134.5 303.732L132.196 299.376C130.684 300.384 128.92 301.248 127.084 301.248C125.104 301.248 123.232 300.204 122.764 297.936H134.464C134.536 297.288 134.608 296.64 134.608 295.992C134.608 290.844 131.512 287.028 126.04 287.028C120.064 287.028 116.392 291.276 116.392 296.712ZM122.908 294.372C123.232 292.896 124.096 291.6 125.896 291.6C127.48 291.6 128.452 292.86 128.452 294.372H122.908ZM136.457 303.696C138.509 305.532 141.353 306.432 144.017 306.432C148.769 306.432 151.649 303.804 151.649 300.348C151.649 294.336 142.973 294.804 142.973 292.86C142.973 292.356 143.369 291.96 144.701 291.96C146.285 291.96 148.301 292.608 149.381 293.472L151.505 289.152C149.633 287.64 147.257 287.028 144.881 287.028C140.597 287.028 137.177 289.08 137.177 292.896C137.177 298.98 145.853 298.548 145.853 300.528C145.853 301.104 145.421 301.5 144.161 301.5C142.397 301.5 140.489 300.78 139.121 299.628L136.457 303.696ZM153.115 309.996H157.687L161.755 300.024H155.815L153.115 309.996ZM173.125 303.696C175.177 305.532 178.021 306.432 180.685 306.432C185.437 306.432 188.317 303.804 188.317 300.348C188.317 294.336 179.641 294.804 179.641 292.86C179.641 292.356 180.037 291.96 181.369 291.96C182.953 291.96 184.969 292.608 186.049 293.472L188.173 289.152C186.301 287.64 183.925 287.028 181.549 287.028C177.265 287.028 173.845 289.08 173.845 292.896C173.845 298.98 182.521 298.548 182.521 300.528C182.521 301.104 182.089 301.5 180.829 301.5C179.065 301.5 177.157 300.78 175.789 299.628L173.125 303.696ZM190.431 296.712C190.431 301.644 193.995 306.432 200.619 306.432C203.463 306.432 206.523 305.46 208.539 303.732L206.235 299.376C204.723 300.384 202.959 301.248 201.123 301.248C199.143 301.248 197.271 300.204 196.803 297.936H208.503C208.575 297.288 208.647 296.64 208.647 295.992C208.647 290.844 205.551 287.028 200.079 287.028C194.103 287.028 190.431 291.276 190.431 296.712ZM196.947 294.372C197.271 292.896 198.135 291.6 199.935 291.6C201.519 291.6 202.491 292.86 202.491 294.372H196.947ZM211.901 306H218.129V297.612C218.129 294.984 219.389 292.68 222.161 292.68C223.529 292.68 224.213 293.4 224.213 295.128V306H230.441V293.976C230.441 288.756 227.525 287.028 223.781 287.028C220.505 287.028 218.741 288.792 217.877 290.232H217.805C217.805 290.232 217.877 289.692 217.877 289.08V287.46H211.901V306ZM233.464 296.712C233.464 302.472 236.776 306.432 241.816 306.432C244.012 306.432 246.028 305.496 247.18 303.732H247.252C247.252 303.732 247.216 304.2 247.216 304.776V306H253.048V280.26H246.82V287.676C246.82 288.144 246.856 288.504 246.856 288.504H246.784C245.56 287.28 243.58 287.028 241.924 287.028C236.992 287.028 233.464 290.844 233.464 296.712ZM239.728 296.712C239.728 293.868 241.42 292.284 243.364 292.284C245.812 292.284 247 294.48 247 296.712C247 299.916 245.236 301.284 243.364 301.284C241.204 301.284 239.728 299.484 239.728 296.712ZM265.448 307.692L263.468 312.264C263.468 312.264 265.34 313.56 267.788 313.56C270.74 313.56 273.98 312.12 275.528 307.98L283.124 287.46H276.32L273.98 296.1C273.728 297.108 273.368 298.872 273.368 298.872H273.296C273.296 298.872 272.936 297 272.612 295.992L269.876 287.46H262.82L270.704 305.64L270.344 306.504C269.696 308.088 268.364 308.376 267.356 308.376C266.456 308.376 265.448 307.692 265.448 307.692ZM283.771 296.784C283.771 302.58 288.451 306.432 294.283 306.432C300.115 306.432 304.795 302.58 304.795 296.784C304.795 290.952 300.115 287.028 294.247 287.028C288.451 287.028 283.771 290.952 283.771 296.784ZM290.071 296.784C290.071 293.976 292.015 292.212 294.283 292.212C296.551 292.212 298.495 293.976 298.495 296.784C298.495 299.556 296.551 301.248 294.283 301.248C292.015 301.248 290.071 299.556 290.071 296.784ZM307.732 299.484C307.732 304.704 310.648 306.432 314.32 306.432C316.804 306.432 319.108 305.208 320.116 303.228H320.188C320.188 303.228 320.116 303.768 320.116 304.38V306H326.092V287.46H319.864V295.668C319.864 298.44 318.604 300.78 315.94 300.78C314.644 300.78 313.96 300.06 313.96 298.332V287.46H307.732V299.484ZM339.684 299.16C339.684 305.388 345.408 306.18 348.36 306.18C349.08 306.18 349.584 306.108 350.052 306.072V300.672C349.656 300.708 349.44 300.708 349.224 300.708C348.036 300.708 345.912 300.42 345.912 298.332V292.644H349.8V287.784H345.912V282.456H339.864V287.784H337.308V292.644H339.684V299.16ZM353.404 306H359.632V297.648C359.632 294.804 360.964 292.68 363.664 292.68C365.032 292.68 365.716 293.4 365.716 295.128V306H371.944V293.976C371.944 288.756 369.028 287.028 365.284 287.028C362.836 287.028 360.676 288.144 359.632 289.98H359.56C359.56 289.98 359.632 289.332 359.632 288.396V280.26H353.404V306ZM374.896 296.712C374.896 301.644 378.46 306.432 385.084 306.432C387.928 306.432 390.988 305.46 393.004 303.732L390.7 299.376C389.188 300.384 387.424 301.248 385.588 301.248C383.608 301.248 381.736 300.204 381.268 297.936H392.968C393.04 297.288 393.112 296.64 393.112 295.992C393.112 290.844 390.016 287.028 384.544 287.028C378.568 287.028 374.896 291.276 374.896 296.712ZM381.412 294.372C381.736 292.896 382.6 291.6 384.4 291.6C385.984 291.6 386.956 292.86 386.956 294.372H381.412ZM2.088 348H8.316V340.8C8.316 337.416 9.972 335.22 13.428 335.22C13.86 335.22 14.472 335.256 14.688 335.328V329.208C14.472 329.172 14.22 329.136 13.968 329.136C11.196 329.136 8.856 331.224 8.064 333.744H7.992C7.992 333.744 8.064 333.204 8.064 332.592V329.46H2.088V348ZM16.3721 338.712C16.3721 343.644 19.9361 348.432 26.5601 348.432C29.4041 348.432 32.4641 347.46 34.4801 345.732L32.1761 341.376C30.6641 342.384 28.9001 343.248 27.0641 343.248C25.0841 343.248 23.2121 342.204 22.7441 339.936H34.4441C34.5161 339.288 34.5881 338.64 34.5881 337.992C34.5881 332.844 31.4921 329.028 26.0201 329.028C20.0441 329.028 16.3721 333.276 16.3721 338.712ZM22.8881 336.372C23.2121 334.896 24.0761 333.6 25.8761 333.6C27.4601 333.6 28.4321 334.86 28.4321 336.372H22.8881ZM36.4379 345.696C38.4899 347.532 41.3339 348.432 43.9979 348.432C48.7499 348.432 51.6299 345.804 51.6299 342.348C51.6299 336.336 42.9539 336.804 42.9539 334.86C42.9539 334.356 43.3499 333.96 44.6819 333.96C46.2659 333.96 48.2819 334.608 49.3619 335.472L51.4859 331.152C49.6139 329.64 47.2379 329.028 44.8619 329.028C40.5779 329.028 37.1579 331.08 37.1579 334.896C37.1579 340.98 45.8339 340.548 45.8339 342.528C45.8339 343.104 45.4019 343.5 44.1419 343.5C42.3779 343.5 40.4699 342.78 39.1019 341.628L36.4379 345.696ZM54.6072 341.484C54.6072 346.704 57.5232 348.432 61.1952 348.432C63.6792 348.432 65.9832 347.208 66.9912 345.228H67.0632C67.0632 345.228 66.9912 345.768 66.9912 346.38V348H72.9672V329.46H66.7392V337.668C66.7392 340.44 65.4792 342.78 62.8152 342.78C61.5192 342.78 60.8352 342.06 60.8352 340.332V329.46H54.6072V341.484ZM77.1106 341.16C77.1106 347.388 80.6386 348.18 83.9506 348.18C84.7426 348.18 85.3906 348.108 85.8226 348.072V342.672C85.5346 342.708 85.2466 342.708 85.0666 342.708C83.6626 342.708 83.3386 342.096 83.3386 340.332V322.26H77.1106V341.16ZM89.6875 341.16C89.6875 347.388 95.4115 348.18 98.3635 348.18C99.0835 348.18 99.5875 348.108 100.056 348.072V342.672C99.6595 342.708 99.4435 342.708 99.2275 342.708C98.0395 342.708 95.9155 342.42 95.9155 340.332V334.644H99.8035V329.784H95.9155V324.456H89.8675V329.784H87.3115V334.644H89.6875V341.16ZM102.004 345.696C104.056 347.532 106.9 348.432 109.564 348.432C114.316 348.432 117.196 345.804 117.196 342.348C117.196 336.336 108.52 336.804 108.52 334.86C108.52 334.356 108.916 333.96 110.248 333.96C111.832 333.96 113.848 334.608 114.928 335.472L117.052 331.152C115.18 329.64 112.804 329.028 110.428 329.028C106.144 329.028 102.724 331.08 102.724 334.896C102.724 340.98 111.4 340.548 111.4 342.528C111.4 343.104 110.968 343.5 109.708 343.5C107.944 343.5 106.036 342.78 104.668 341.628L102.004 345.696ZM128.31 338.784C128.31 344.58 132.99 348.432 138.822 348.432C144.654 348.432 149.334 344.58 149.334 338.784C149.334 332.952 144.654 329.028 138.786 329.028C132.99 329.028 128.31 332.952 128.31 338.784ZM134.61 338.784C134.61 335.976 136.554 334.212 138.822 334.212C141.09 334.212 143.034 335.976 143.034 338.784C143.034 341.556 141.09 343.248 138.822 343.248C136.554 343.248 134.61 341.556 134.61 338.784ZM153.537 348H159.765V334.644H163.185V329.784H159.765V329.208C159.765 327.624 161.673 327.408 162.897 327.408C163.365 327.408 163.761 327.444 163.905 327.48V322.224C163.257 322.116 162.681 322.116 162.033 322.116C159.045 322.116 153.537 322.944 153.537 329.028V329.784H151.269V334.644H153.537V348ZM173.514 349.692L171.534 354.264C171.534 354.264 173.406 355.56 175.854 355.56C178.806 355.56 182.046 354.12 183.594 349.98L191.19 329.46H184.386L182.046 338.1C181.794 339.108 181.434 340.872 181.434 340.872H181.362C181.362 340.872 181.002 339 180.678 337.992L177.942 329.46H170.886L178.77 347.64L178.41 348.504C177.762 350.088 176.43 350.376 175.422 350.376C174.522 350.376 173.514 349.692 173.514 349.692ZM191.837 338.784C191.837 344.58 196.517 348.432 202.349 348.432C208.181 348.432 212.861 344.58 212.861 338.784C212.861 332.952 208.181 329.028 202.313 329.028C196.517 329.028 191.837 332.952 191.837 338.784ZM198.137 338.784C198.137 335.976 200.081 334.212 202.349 334.212C204.617 334.212 206.561 335.976 206.561 338.784C206.561 341.556 204.617 343.248 202.349 343.248C200.081 343.248 198.137 341.556 198.137 338.784ZM215.799 341.484C215.799 346.704 218.715 348.432 222.387 348.432C224.871 348.432 227.175 347.208 228.183 345.228H228.255C228.255 345.228 228.183 345.768 228.183 346.38V348H234.159V329.46H227.931V337.668C227.931 340.44 226.671 342.78 224.007 342.78C222.711 342.78 222.027 342.06 222.027 340.332V329.46H215.799V341.484ZM238.338 348H244.566V340.8C244.566 337.416 246.222 335.22 249.678 335.22C250.11 335.22 250.722 335.256 250.938 335.328V329.208C250.722 329.172 250.47 329.136 250.218 329.136C247.446 329.136 245.106 331.224 244.314 333.744H244.242C244.242 333.744 244.314 333.204 244.314 332.592V329.46H238.338V348ZM261.963 355.2H268.191V348.252C268.191 347.316 268.119 346.668 268.119 346.668H268.191C269.523 347.82 271.179 348.432 272.907 348.432C277.839 348.432 281.547 344.616 281.547 338.748C281.547 332.988 278.235 329.028 273.195 329.028C270.963 329.028 268.839 329.892 267.579 331.584H267.507C267.507 331.584 267.579 331.008 267.579 330.396V329.46H261.963V355.2ZM268.011 338.856C268.011 335.652 269.775 334.284 271.647 334.284C273.807 334.284 275.283 336.084 275.283 338.856C275.283 341.7 273.591 343.284 271.647 343.284C269.199 343.284 268.011 341.088 268.011 338.856ZM283.7 338.712C283.7 343.644 287.264 348.432 293.888 348.432C296.732 348.432 299.792 347.46 301.808 345.732L299.504 341.376C297.992 342.384 296.228 343.248 294.392 343.248C292.412 343.248 290.54 342.204 290.072 339.936H301.772C301.844 339.288 301.916 338.64 301.916 337.992C301.916 332.844 298.82 329.028 293.348 329.028C287.372 329.028 283.7 333.276 283.7 338.712ZM290.216 336.372C290.54 334.896 291.404 333.6 293.204 333.6C294.788 333.6 295.76 334.86 295.76 336.372H290.216ZM305.17 348H311.398V340.8C311.398 337.416 313.054 335.22 316.51 335.22C316.942 335.22 317.554 335.256 317.77 335.328V329.208C317.554 329.172 317.302 329.136 317.05 329.136C314.278 329.136 311.938 331.224 311.146 333.744H311.074C311.074 333.744 311.146 333.204 311.146 332.592V329.46H305.17V348ZM321.83 348H328.058V334.644H331.478V329.784H328.058V329.208C328.058 327.624 329.966 327.408 331.19 327.408C331.658 327.408 332.054 327.444 332.198 327.48V322.224C331.55 322.116 330.974 322.116 330.326 322.116C327.338 322.116 321.83 322.944 321.83 329.028V329.784H319.562V334.644H321.83V348ZM332.954 338.784C332.954 344.58 337.634 348.432 343.466 348.432C349.298 348.432 353.978 344.58 353.978 338.784C353.978 332.952 349.298 329.028 343.43 329.028C337.634 329.028 332.954 332.952 332.954 338.784ZM339.254 338.784C339.254 335.976 341.198 334.212 343.466 334.212C345.734 334.212 347.678 335.976 347.678 338.784C347.678 341.556 345.734 343.248 343.466 343.248C341.198 343.248 339.254 341.556 339.254 338.784ZM357.096 348H363.324V340.8C363.324 337.416 364.98 335.22 368.436 335.22C368.868 335.22 369.48 335.256 369.696 335.328V329.208C369.48 329.172 369.228 329.136 368.976 329.136C366.204 329.136 363.864 331.224 363.072 333.744H363C363 333.744 363.072 333.204 363.072 332.592V329.46H357.096V348ZM372.424 348H378.652V340.152C378.652 337.596 379.372 334.68 382.216 334.68C383.404 334.68 383.656 335.652 383.656 337.02V348H389.884V340.152C389.884 337.38 390.748 334.68 393.448 334.68C394.636 334.68 394.888 335.652 394.888 337.02V348H401.116V335.976C401.116 330.864 398.488 329.028 395.104 329.028C392.332 329.028 390.136 330.612 389.164 332.16H389.092C388.12 330.072 386.248 329.028 383.908 329.028C380.992 329.028 379.264 330.936 378.4 332.232H378.328C378.328 332.232 378.4 331.692 378.4 331.08V329.46H372.424V348ZM403.858 342.78C403.858 345.984 406.342 348.432 409.906 348.432C412.03 348.432 414.19 347.46 415.414 345.732H415.486C415.486 345.732 415.414 346.272 415.414 346.884V348H421.102V336.588C421.102 331.872 417.934 329.028 412.822 329.028C409.798 329.028 406.558 330.216 404.974 331.44L407.134 335.832C408.61 334.86 410.446 334.068 412.246 334.068C413.614 334.068 414.874 334.572 414.874 336.12V336.444H414.334C409.762 336.444 403.858 337.812 403.858 342.78ZM410.014 342.204C410.014 340.512 412.462 340.008 414.37 340.008H414.946V340.512C414.946 342.024 413.578 343.788 411.778 343.788C410.626 343.788 410.014 343.068 410.014 342.204ZM425.053 348H431.281V339.612C431.281 336.984 432.541 334.68 435.313 334.68C436.681 334.68 437.365 335.4 437.365 337.128V348H443.593V335.976C443.593 330.756 440.677 329.028 436.933 329.028C433.657 329.028 431.893 330.792 431.029 332.232H430.957C430.957 332.232 431.029 331.692 431.029 331.08V329.46H425.053V348ZM446.544 338.712C446.544 343.824 450.252 348.432 456.876 348.432C459.972 348.432 462.996 347.244 464.832 345.372L462.564 341.016C461.232 342.168 459.288 343.248 457.488 343.248C454.356 343.248 452.844 340.836 452.844 338.64C452.844 336.444 454.32 334.212 457.272 334.212C458.892 334.212 460.548 334.968 461.628 336.012L464.256 331.836C462.42 329.856 459.468 329.028 456.876 329.028C450.216 329.028 446.544 333.744 446.544 338.712ZM466.056 338.712C466.056 343.644 469.62 348.432 476.244 348.432C479.088 348.432 482.148 347.46 484.164 345.732L481.86 341.376C480.348 342.384 478.584 343.248 476.748 343.248C474.768 343.248 472.896 342.204 472.428 339.936H484.128C484.2 339.288 484.272 338.64 484.272 337.992C484.272 332.844 481.176 329.028 475.704 329.028C469.728 329.028 466.056 333.276 466.056 338.712ZM472.572 336.372C472.896 334.896 473.76 333.6 475.56 333.6C477.144 333.6 478.116 334.86 478.116 336.372H472.572Z" fill="#222224"/>
<path d="M763.869 0L729.331 56.4091C738.659 62.4633 745.254 71.9163 747.712 82.7561C750.17 93.5958 748.298 104.966 742.493 114.447C736.688 123.928 727.409 130.771 716.631 133.519C705.854 136.266 694.428 134.703 684.787 129.16L648.064 189.137L1002.34 405.728L1118.15 216.591L763.869 0Z" fill="#F2F2F2"/>
<path d="M711.243 119.975C726.606 119.975 739.06 107.53 739.06 92.1777C739.06 76.8259 726.606 64.3809 711.243 64.3809C695.879 64.3809 683.425 76.8259 683.425 92.1777C683.425 107.53 695.879 119.975 711.243 119.975Z" fill="#F2F2F2"/>
<path d="M969.365 464.526C1023.67 464.526 1067.7 461.632 1067.7 458.062C1067.7 454.492 1023.67 451.598 969.365 451.598C915.058 451.598 871.033 454.492 871.033 458.062C871.033 461.632 915.058 464.526 969.365 464.526Z" fill="#F2F2F2"/>
<path d="M803.106 485C828.473 485 849.037 483.648 849.037 481.981C849.037 480.313 828.473 478.961 803.106 478.961C777.739 478.961 757.174 480.313 757.174 481.981C757.174 483.648 777.739 485 803.106 485Z" fill="#F2F2F2"/>
<path d="M1164.74 449.658C1219.04 449.658 1263.07 446.764 1263.07 443.194C1263.07 439.624 1219.04 436.729 1164.74 436.729C1110.43 436.729 1066.4 439.624 1066.4 443.194C1066.4 446.764 1110.43 449.658 1164.74 449.658Z" fill="#F2F2F2"/>
<path d="M652.373 432.852H1309" stroke="#2F2E41" stroke-width="2" stroke-miterlimit="10"/>
<path d="M1238.81 113.834H766.555V432.528H1238.81V113.834Z" fill="#3F3D56"/>
<path d="M766.555 137.144H1238.81" stroke="#2F2E41" stroke-width="2" stroke-miterlimit="10"/>
<path d="M781.111 131.287C784.326 131.287 786.933 128.682 786.933 125.469C786.933 122.256 784.326 119.651 781.111 119.651C777.895 119.651 775.288 122.256 775.288 125.469C775.288 128.682 777.895 131.287 781.111 131.287Z" fill="#F04B5D"/>
<path d="M798.577 131.611C801.793 131.611 804.4 129.006 804.4 125.793C804.4 122.579 801.793 119.975 798.577 119.975C795.362 119.975 792.755 122.579 792.755 125.793C792.755 129.006 795.362 131.611 798.577 131.611Z" fill="#F04B5D"/>
<path d="M816.044 131.934C819.26 131.934 821.867 129.329 821.867 126.116C821.867 122.903 819.26 120.298 816.044 120.298C812.829 120.298 810.222 122.903 810.222 126.116C810.222 129.329 812.829 131.934 816.044 131.934Z" fill="#F04B5D"/>
<path opacity="0.3" d="M1194.49 158.761H795.99V236.333H1194.49V158.761Z" fill="#F04B5D"/>
<path opacity="0.3" d="M795.99 236.333L1194.49 158.761" stroke="#F04B5D" stroke-width="2" stroke-miterlimit="10"/>
<path opacity="0.3" d="M1194.49 236.333L795.99 158.761" stroke="#F04B5D" stroke-width="2" stroke-miterlimit="10"/>
<path opacity="0.3" d="M891.087 285.463H795.99V410.226H891.087V285.463Z" fill="#F04B5D"/>
<path opacity="0.3" d="M1194.49 285.463H1099.4V410.226H1194.49V285.463Z" fill="#F04B5D"/>
<path opacity="0.3" d="M1042.79 285.463H947.693V410.226H1042.79V285.463Z" fill="#F04B5D"/>
<path opacity="0.3" d="M795.99 285.463L891.087 410.226" stroke="#F04B5D" stroke-width="2" stroke-miterlimit="10"/>
<path opacity="0.3" d="M891.087 285.463L795.99 410.226" stroke="#F04B5D" stroke-width="2" stroke-miterlimit="10"/>
<path opacity="0.3" d="M948.017 285.463L1043.11 410.226" stroke="#F04B5D" stroke-width="2" stroke-miterlimit="10"/>
<path opacity="0.3" d="M1043.11 285.463L948.017 410.226" stroke="#F04B5D" stroke-width="2" stroke-miterlimit="10"/>
<path opacity="0.3" d="M1099.4 285.463L1194.49 410.226" stroke="#F04B5D" stroke-width="2" stroke-miterlimit="10"/>
<path opacity="0.3" d="M1194.49 285.463L1099.4 410.226" stroke="#F04B5D" stroke-width="2" stroke-miterlimit="10"/>
<path d="M1247.54 158.761H849.037V236.333H1247.54V158.761Z" fill="#F04B5D"/>
<path d="M1212.61 315.199H1117.51V439.962H1212.61V315.199Z" fill="#F04B5D"/>
<path d="M1198.7 331.684H1131.42V339.441H1198.7V331.684Z" fill="#3F3D56"/>
<path d="M1198.7 348.491H1131.42V356.248H1198.7V348.491Z" fill="#3F3D56"/>
<path d="M1198.7 365.298H1131.42V373.055H1198.7V365.298Z" fill="#3F3D56"/>
<path d="M1198.7 382.105H1131.42V389.863H1198.7V382.105Z" fill="#3F3D56"/>
<path d="M1198.7 398.913H1131.42V406.67H1198.7V398.913Z" fill="#3F3D56"/>
<path d="M1198.7 415.721H1131.42V423.478H1198.7V415.721Z" fill="#3F3D56"/>
<path d="M914.377 302.271H819.279V427.033H914.377V302.271Z" fill="#F04B5D"/>
<path d="M900.468 343.966H833.188V351.723H900.468V343.966Z" fill="#3F3D56"/>
<path d="M900.468 360.773H833.188V368.531H900.468V360.773Z" fill="#3F3D56"/>
<path d="M900.468 377.58H833.188V385.337H900.468V377.58Z" fill="#3F3D56"/>
<path d="M701.197 234.445C709.569 234.445 716.356 227.663 716.356 219.297C716.356 210.931 709.569 204.149 701.197 204.149C692.825 204.149 686.038 210.931 686.038 219.297C686.038 227.663 692.825 234.445 701.197 234.445Z" fill="#2F2E41"/>
<path d="M693.216 229.382C693.216 229.382 693.444 238.732 692.531 238.96C691.618 239.188 705.084 242.837 705.084 242.837L706.453 230.066L693.216 229.382Z" fill="#A0616A"/>
<path d="M799.57 309.202C799.57 309.202 809.612 309.202 809.84 308.061C810.068 306.921 812.122 317.412 812.122 317.412L808.014 318.78C808.014 318.78 800.254 315.359 799.57 315.359C798.885 315.359 799.57 309.202 799.57 309.202Z" fill="#A0616A"/>
<path d="M810.525 313.306C810.525 313.306 808.699 307.149 806.416 306.921C806.416 306.921 814.176 301.903 814.404 300.307C814.633 298.711 817.371 294.606 818.512 295.974C819.654 297.342 819.654 319.008 817.6 321.288C815.546 323.569 806.416 318.083 806.416 318.083C806.416 318.083 812.122 315.587 810.525 313.306Z" fill="#2F2E41"/>
<path d="M686.597 400.651L684.772 410.458L693.216 411.826V400.651H686.597Z" fill="#A0616A"/>
<path d="M686.597 409.318C686.597 409.318 685.228 404.985 684.315 405.669C683.402 406.353 682.033 410.686 682.261 411.826C682.489 412.967 684.087 421.861 683.402 423.457C682.717 425.054 686.826 433.264 692.075 432.58C697.324 431.895 696.868 427.334 696.868 427.334L695.042 420.265L694.357 409.09C694.357 409.09 688.423 408.178 686.597 409.318Z" fill="#2F2E41"/>
<path d="M695.894 209.622C699.359 209.622 702.167 206.816 702.167 203.354C702.167 199.892 699.359 197.086 695.894 197.086C692.43 197.086 689.622 199.892 689.622 203.354C689.622 206.816 692.43 209.622 695.894 209.622Z" fill="#2F2E41"/>
<path d="M687.531 199.959C687.531 198.41 688.105 196.916 689.143 195.764C690.18 194.613 691.608 193.887 693.15 193.725C692.933 193.703 692.715 193.691 692.497 193.691C690.833 193.691 689.237 194.352 688.061 195.527C686.885 196.703 686.224 198.297 686.224 199.959C686.224 201.622 686.885 203.216 688.061 204.392C689.237 205.567 690.833 206.228 692.497 206.228C692.715 206.227 692.933 206.216 693.15 206.194C691.608 206.032 690.18 205.306 689.143 204.154C688.105 203.003 687.531 201.509 687.531 199.959Z" fill="#2F2E41"/>
<path d="M701.204 235.767C706.498 235.767 710.789 231.479 710.789 226.189C710.789 220.899 706.498 216.61 701.204 216.61C695.91 216.61 691.618 220.899 691.618 226.189C691.618 231.479 695.91 235.767 701.204 235.767Z" fill="#A0616A"/>
<path d="M682.261 292.781C682.261 292.781 682.717 304.184 684.543 310.114C686.369 316.043 692.952 358.271 691.582 361.464C690.213 364.657 683.174 399.968 684.771 402.02C686.369 404.073 693.901 403.388 693.901 403.388L704.135 360.552C704.135 360.552 702.117 313.306 719.005 312.166C735.894 311.026 763.51 310.342 763.51 310.342C763.51 310.342 781.311 315.587 789.299 315.359C797.287 315.131 801.852 317.411 801.852 317.411L803.221 308.061L767.846 300.307C767.846 300.307 735.438 289.132 717.636 292.097C699.834 295.062 682.261 292.781 682.261 292.781Z" fill="#2F2E41"/>
<path d="M695.042 235.996C695.042 235.996 692.303 234.399 691.618 235.996C690.934 237.592 686.141 238.96 684.315 237.592C682.489 236.224 677.925 238.048 677.925 238.048L672.904 252.872C672.904 252.872 675.414 265.643 677.696 272.713C679.979 279.782 680.892 294.378 679.979 295.746C679.066 297.115 698.237 302.588 707.594 299.167C716.951 295.746 719.006 291.869 719.006 291.869C719.006 291.869 708.735 277.274 712.159 270.432C715.582 263.59 712.843 255.837 712.843 255.837L714.213 248.083L706.453 243.75C706.453 243.75 705.997 239.645 704.171 239.645C702.345 239.645 695.042 235.996 695.042 235.996Z" fill="#D0CDE1"/>
<path d="M710.789 248.311H714.213C715.162 249.199 715.87 250.313 716.269 251.55C716.669 252.787 716.746 254.105 716.495 255.38C715.582 259.713 711.465 274.079 711.465 274.079L708.051 265.187L710.789 248.311Z" fill="#D0CDE1"/>
<path d="M720.62 284.935C720.62 284.935 727.45 292.325 722.429 296.202C717.408 300.079 716.171 287.308 716.171 287.308L720.62 284.935Z" fill="#A0616A"/>
<path d="M710.789 269.52L712.387 275.905L715.126 280.922C715.126 280.922 724.483 287.08 724.483 289.36C724.483 289.36 720.375 284.115 715.126 289.36L710.447 278.072L710.789 269.52Z" fill="#D0CDE1"/>
<path d="M702.961 222.353C708.735 222.353 713.415 219.547 713.415 216.085C713.415 212.624 708.735 209.817 702.961 209.817C697.187 209.817 692.506 212.624 692.506 216.085C692.506 219.547 697.187 222.353 702.961 222.353Z" fill="#2F2E41"/>
<path d="M682.261 216.61C682.261 216.61 689.564 212.505 692.531 215.47C695.498 218.435 683.63 222.996 683.63 222.996L682.261 216.61Z" fill="#A0616A"/>
<path d="M679.522 239.188L677.925 238.048C677.925 238.048 676.099 235.311 674.501 236.224C672.904 237.136 663.546 232.803 663.546 232.803C663.546 232.803 666.97 234.399 666.97 231.663C666.97 228.926 667.426 229.382 669.708 229.382C671.991 229.382 671.991 230.522 672.904 228.926C673.816 227.329 673.36 226.417 674.958 227.329C676.555 228.242 678.381 227.557 678.837 226.873C679.294 226.189 687.51 225.049 687.51 225.049C687.51 225.049 684.315 215.699 683.63 215.014C682.946 214.33 665.372 222.084 665.372 222.084C665.372 222.084 643.234 228.242 648.94 235.311C654.645 242.381 675.186 253.1 675.186 253.1L679.522 239.188Z" fill="#D0CDE1"/>
<path d="M1021.77 333.3H926.668V458.062H1021.77V333.3Z" fill="#F04B5D"/>
<path d="M1011.74 404.731H936.696V409.903H1011.74V404.731Z" fill="#3F3D56"/>
<path d="M1011.74 418.953H936.696V424.125H1011.74V418.953Z" fill="#3F3D56"/>
<path d="M1011.74 433.174H936.696V438.345H1011.74V433.174Z" fill="#3F3D56"/>
<path d="M817.903 468.685C817.903 478.111 812.296 481.402 805.378 481.402C805.218 481.402 805.058 481.4 804.898 481.396C804.578 481.389 804.26 481.374 803.947 481.353C797.704 480.911 792.854 477.451 792.854 468.685C792.854 459.613 804.455 448.166 805.326 447.319L805.328 447.317C805.362 447.285 805.378 447.269 805.378 447.269C805.378 447.269 817.903 459.259 817.903 468.685Z" fill="#F04B5D"/>
<path d="M804.922 479.96L809.503 473.564L804.911 480.662L804.898 481.396C804.578 481.389 804.26 481.374 803.947 481.353L804.44 471.923L804.437 471.849L804.445 471.836L804.492 470.945L799.888 463.829L804.506 470.277L804.517 470.466L804.89 463.341L800.949 455.988L804.938 462.091L805.326 447.319L805.328 447.269V447.317L805.263 458.966L809.187 454.348L805.247 459.969L805.143 466.349L808.807 460.226L805.128 467.287L805.07 470.834L810.389 462.312L805.05 472.071L804.922 479.96Z" fill="#3F3D56"/>
</svg>
