<svg width="1196" height="357" viewBox="0 0 1196 357" fill="none" xmlns="http://www.w3.org/2000/svg">
<path d="M677.244 135H683.544V114.66H691.356V109.26H669.432V114.66H677.244V135ZM693.869 135H700.097V126.648C700.097 123.804 701.429 121.68 704.129 121.68C705.497 121.68 706.181 122.4 706.181 124.128V135H712.409V122.976C712.409 117.756 709.493 116.028 705.749 116.028C703.301 116.028 701.141 117.144 700.097 118.98H700.025C700.025 118.98 700.097 118.332 700.097 117.396V109.26H693.869V135ZM715.36 125.712C715.36 130.644 718.924 135.432 725.548 135.432C728.392 135.432 731.452 134.46 733.468 132.732L731.164 128.376C729.652 129.384 727.888 130.248 726.052 130.248C724.072 130.248 722.2 129.204 721.732 126.936H733.432C733.504 126.288 733.576 125.64 733.576 124.992C733.576 119.844 730.48 116.028 725.008 116.028C719.032 116.028 715.36 120.276 715.36 125.712ZM721.876 123.372C722.2 121.896 723.064 120.6 724.864 120.6C726.448 120.6 727.42 121.86 727.42 123.372H721.876ZM746.703 135H752.931V121.32H759.375V135H765.603V116.46H752.931V116.208C752.931 114.624 754.839 114.408 756.063 114.408C756.531 114.408 756.927 114.444 757.071 114.48V109.224C756.423 109.116 755.847 109.116 755.199 109.116C752.211 109.116 746.703 109.944 746.703 116.028V116.46H744.435V121.32H746.703V135ZM759.447 114.12H765.531V109.26H759.447V114.12ZM769.772 135H776V127.8C776 124.416 777.656 122.22 781.112 122.22C781.544 122.22 782.156 122.256 782.372 122.328V116.208C782.156 116.172 781.904 116.136 781.652 116.136C778.88 116.136 776.54 118.224 775.748 120.744H775.676C775.676 120.744 775.748 120.204 775.748 119.592V116.46H769.772V135ZM783.696 132.696C785.748 134.532 788.592 135.432 791.256 135.432C796.008 135.432 798.888 132.804 798.888 129.348C798.888 123.336 790.212 123.804 790.212 121.86C790.212 121.356 790.608 120.96 791.94 120.96C793.524 120.96 795.54 121.608 796.62 122.472L798.744 118.152C796.872 116.64 794.496 116.028 792.12 116.028C787.836 116.028 784.416 118.08 784.416 121.896C784.416 127.98 793.092 127.548 793.092 129.528C793.092 130.104 792.66 130.5 791.4 130.5C789.636 130.5 787.728 129.78 786.36 128.628L783.696 132.696ZM803.125 128.16C803.125 134.388 808.849 135.18 811.801 135.18C812.521 135.18 813.025 135.108 813.493 135.072V129.672C813.097 129.708 812.881 129.708 812.665 129.708C811.477 129.708 809.353 129.42 809.353 127.332V121.644H813.241V116.784H809.353V111.456H803.305V116.784H800.749V121.644H803.125V128.16ZM825.81 128.16C825.81 134.388 829.338 135.18 832.65 135.18C833.442 135.18 834.09 135.108 834.522 135.072V129.672C834.234 129.708 833.946 129.708 833.766 129.708C832.362 129.708 832.038 129.096 832.038 127.332V109.26H825.81V128.16ZM836.439 125.712C836.439 130.644 840.003 135.432 846.627 135.432C849.471 135.432 852.531 134.46 854.547 132.732L852.243 128.376C850.731 129.384 848.967 130.248 847.131 130.248C845.151 130.248 843.279 129.204 842.811 126.936H854.511C854.583 126.288 854.655 125.64 854.655 124.992C854.655 119.844 851.559 116.028 846.087 116.028C840.111 116.028 836.439 120.276 836.439 125.712ZM842.955 123.372C843.279 121.896 844.143 120.6 845.943 120.6C847.527 120.6 848.499 121.86 848.499 123.372H842.955ZM856.504 132.696C858.556 134.532 861.4 135.432 864.064 135.432C868.816 135.432 871.696 132.804 871.696 129.348C871.696 123.336 863.02 123.804 863.02 121.86C863.02 121.356 863.416 120.96 864.748 120.96C866.332 120.96 868.348 121.608 869.428 122.472L871.552 118.152C869.68 116.64 867.304 116.028 864.928 116.028C860.644 116.028 857.224 118.08 857.224 121.896C857.224 127.98 865.9 127.548 865.9 129.528C865.9 130.104 865.468 130.5 864.208 130.5C862.444 130.5 860.536 129.78 859.168 128.628L856.504 132.696ZM873.45 132.696C875.502 134.532 878.346 135.432 881.01 135.432C885.762 135.432 888.642 132.804 888.642 129.348C888.642 123.336 879.966 123.804 879.966 121.86C879.966 121.356 880.362 120.96 881.694 120.96C883.278 120.96 885.294 121.608 886.374 122.472L888.498 118.152C886.626 116.64 884.25 116.028 881.874 116.028C877.59 116.028 874.17 118.08 874.17 121.896C874.17 127.98 882.846 127.548 882.846 129.528C882.846 130.104 882.414 130.5 881.154 130.5C879.39 130.5 877.482 129.78 876.114 128.628L873.45 132.696ZM890.755 125.784C890.755 131.58 895.435 135.432 901.267 135.432C907.099 135.432 911.779 131.58 911.779 125.784C911.779 119.952 907.099 116.028 901.231 116.028C895.435 116.028 890.755 119.952 890.755 125.784ZM897.055 125.784C897.055 122.976 898.999 121.212 901.267 121.212C903.535 121.212 905.479 122.976 905.479 125.784C905.479 128.556 903.535 130.248 901.267 130.248C898.999 130.248 897.055 128.556 897.055 125.784ZM914.897 135H921.125V126.612C921.125 123.984 922.385 121.68 925.157 121.68C926.525 121.68 927.209 122.4 927.209 124.128V135H933.437V122.976C933.437 117.756 930.521 116.028 926.777 116.028C923.501 116.028 921.737 117.792 920.873 119.232H920.801C920.801 119.232 920.873 118.692 920.873 118.08V116.46H914.897V135ZM946.504 114.12H952.588V109.26H946.504V114.12ZM946.432 135H952.66V116.46H946.432V135ZM955.434 132.696C957.486 134.532 960.33 135.432 962.994 135.432C967.746 135.432 970.626 132.804 970.626 129.348C970.626 123.336 961.95 123.804 961.95 121.86C961.95 121.356 962.346 120.96 963.678 120.96C965.262 120.96 967.278 121.608 968.358 122.472L970.482 118.152C968.61 116.64 966.234 116.028 963.858 116.028C959.574 116.028 956.154 118.08 956.154 121.896C956.154 127.98 964.83 127.548 964.83 129.528C964.83 130.104 964.398 130.5 963.138 130.5C961.374 130.5 959.466 129.78 958.098 128.628L955.434 132.696ZM984.115 135H990.343V121.644H993.763V116.784H990.343V116.208C990.343 114.624 992.251 114.408 993.475 114.408C993.943 114.408 994.339 114.444 994.483 114.48V109.224C993.835 109.116 993.259 109.116 992.611 109.116C989.623 109.116 984.115 109.944 984.115 116.028V116.784H981.847V121.644H984.115V135ZM996.529 135H1002.76V127.8C1002.76 124.416 1004.41 122.22 1007.87 122.22C1008.3 122.22 1008.91 122.256 1009.13 122.328V116.208C1008.91 116.172 1008.66 116.136 1008.41 116.136C1005.64 116.136 1003.3 118.224 1002.51 120.744H1002.43C1002.43 120.744 1002.51 120.204 1002.51 119.592V116.46H996.529V135ZM1010.81 125.712C1010.81 130.644 1014.38 135.432 1021 135.432C1023.85 135.432 1026.91 134.46 1028.92 132.732L1026.62 128.376C1025.11 129.384 1023.34 130.248 1021.51 130.248C1019.53 130.248 1017.65 129.204 1017.19 126.936H1028.89C1028.96 126.288 1029.03 125.64 1029.03 124.992C1029.03 119.844 1025.93 116.028 1020.46 116.028C1014.49 116.028 1010.81 120.276 1010.81 125.712ZM1017.33 123.372C1017.65 121.896 1018.52 120.6 1020.32 120.6C1021.9 120.6 1022.87 121.86 1022.87 123.372H1017.33ZM1031.24 125.712C1031.24 130.644 1034.8 135.432 1041.43 135.432C1044.27 135.432 1047.33 134.46 1049.35 132.732L1047.04 128.376C1045.53 129.384 1043.77 130.248 1041.93 130.248C1039.95 130.248 1038.08 129.204 1037.61 126.936H1049.31C1049.38 126.288 1049.46 125.64 1049.46 124.992C1049.46 119.844 1046.36 116.028 1040.89 116.028C1034.91 116.028 1031.24 120.276 1031.24 125.712ZM1037.76 123.372C1038.08 121.896 1038.94 120.6 1040.74 120.6C1042.33 120.6 1043.3 121.86 1043.3 123.372H1037.76Z" fill="#F04B5D"/>
<path d="M672.168 170.16C672.168 176.388 677.892 177.18 680.844 177.18C681.564 177.18 682.068 177.108 682.536 177.072V171.672C682.14 171.708 681.924 171.708 681.708 171.708C680.52 171.708 678.396 171.42 678.396 169.332V163.644H682.284V158.784H678.396V153.456H672.348V158.784H669.792V163.644H672.168V170.16ZM684.704 167.784C684.704 173.58 689.384 177.432 695.216 177.432C701.048 177.432 705.728 173.58 705.728 167.784C705.728 161.952 701.048 158.028 695.18 158.028C689.384 158.028 684.704 161.952 684.704 167.784ZM691.004 167.784C691.004 164.976 692.948 163.212 695.216 163.212C697.484 163.212 699.428 164.976 699.428 167.784C699.428 170.556 697.484 172.248 695.216 172.248C692.948 172.248 691.004 170.556 691.004 167.784ZM717.666 170.484C717.666 175.704 720.582 177.432 724.254 177.432C726.738 177.432 729.042 176.208 730.05 174.228H730.122C730.122 174.228 730.05 174.768 730.05 175.38V177H736.026V158.46H729.798V166.668C729.798 169.44 728.538 171.78 725.874 171.78C724.578 171.78 723.894 171.06 723.894 169.332V158.46H717.666V170.484ZM740.205 177H746.433V168.612C746.433 165.984 747.693 163.68 750.465 163.68C751.833 163.68 752.517 164.4 752.517 166.128V177H758.745V164.976C758.745 159.756 755.829 158.028 752.085 158.028C748.809 158.028 747.045 159.792 746.181 161.232H746.109C746.109 161.232 746.181 160.692 746.181 160.08V158.46H740.205V177ZM761.768 167.712C761.768 173.472 765.08 177.432 770.12 177.432C772.316 177.432 774.332 176.496 775.484 174.732H775.556C775.556 174.732 775.52 175.2 775.52 175.776V177H781.352V151.26H775.124V158.676C775.124 159.144 775.16 159.504 775.16 159.504H775.088C773.864 158.28 771.884 158.028 770.228 158.028C765.296 158.028 761.768 161.844 761.768 167.712ZM768.032 167.712C768.032 164.868 769.724 163.284 771.668 163.284C774.116 163.284 775.304 165.48 775.304 167.712C775.304 170.916 773.54 172.284 771.668 172.284C769.508 172.284 768.032 170.484 768.032 167.712ZM784.478 167.712C784.478 172.644 788.042 177.432 794.666 177.432C797.51 177.432 800.57 176.46 802.586 174.732L800.282 170.376C798.77 171.384 797.006 172.248 795.17 172.248C793.19 172.248 791.318 171.204 790.85 168.936H802.55C802.622 168.288 802.694 167.64 802.694 166.992C802.694 161.844 799.598 158.028 794.126 158.028C788.15 158.028 784.478 162.276 784.478 167.712ZM790.994 165.372C791.318 163.896 792.182 162.6 793.982 162.6C795.566 162.6 796.538 163.86 796.538 165.372H790.994ZM805.947 177H812.175V169.8C812.175 166.416 813.831 164.22 817.287 164.22C817.719 164.22 818.331 164.256 818.547 164.328V158.208C818.331 158.172 818.079 158.136 817.827 158.136C815.055 158.136 812.715 160.224 811.923 162.744H811.851C811.851 162.744 811.923 162.204 811.923 161.592V158.46H805.947V177ZM819.872 174.696C821.924 176.532 824.768 177.432 827.432 177.432C832.184 177.432 835.064 174.804 835.064 171.348C835.064 165.336 826.388 165.804 826.388 163.86C826.388 163.356 826.784 162.96 828.116 162.96C829.7 162.96 831.716 163.608 832.796 164.472L834.92 160.152C833.048 158.64 830.672 158.028 828.296 158.028C824.012 158.028 820.592 160.08 820.592 163.896C820.592 169.98 829.268 169.548 829.268 171.528C829.268 172.104 828.836 172.5 827.576 172.5C825.812 172.5 823.904 171.78 822.536 170.628L819.872 174.696ZM839.301 170.16C839.301 176.388 845.025 177.18 847.977 177.18C848.697 177.18 849.201 177.108 849.669 177.072V171.672C849.273 171.708 849.057 171.708 848.841 171.708C847.653 171.708 845.529 171.42 845.529 169.332V163.644H849.417V158.784H845.529V153.456H839.481V158.784H836.925V163.644H839.301V170.16ZM851.726 171.78C851.726 174.984 854.21 177.432 857.774 177.432C859.898 177.432 862.058 176.46 863.282 174.732H863.354C863.354 174.732 863.282 175.272 863.282 175.884V177H868.97V165.588C868.97 160.872 865.802 158.028 860.69 158.028C857.666 158.028 854.426 159.216 852.842 160.44L855.002 164.832C856.478 163.86 858.314 163.068 860.114 163.068C861.482 163.068 862.742 163.572 862.742 165.12V165.444H862.202C857.63 165.444 851.726 166.812 851.726 171.78ZM857.882 171.204C857.882 169.512 860.33 169.008 862.238 169.008H862.814V169.512C862.814 171.024 861.446 172.788 859.646 172.788C858.494 172.788 857.882 172.068 857.882 171.204ZM872.92 177H879.148V168.612C879.148 165.984 880.408 163.68 883.18 163.68C884.548 163.68 885.232 164.4 885.232 166.128V177H891.46V164.976C891.46 159.756 888.544 158.028 884.8 158.028C881.524 158.028 879.76 159.792 878.896 161.232H878.824C878.824 161.232 878.896 160.692 878.896 160.08V158.46H872.92V177ZM894.483 167.712C894.483 173.472 897.795 177.432 902.835 177.432C905.031 177.432 907.047 176.496 908.199 174.732H908.271C908.271 174.732 908.235 175.2 908.235 175.776V177H914.067V151.26H907.839V158.676C907.839 159.144 907.875 159.504 907.875 159.504H907.803C906.579 158.28 904.599 158.028 902.943 158.028C898.011 158.028 894.483 161.844 894.483 167.712ZM900.747 167.712C900.747 164.868 902.439 163.284 904.383 163.284C906.831 163.284 908.019 165.48 908.019 167.712C908.019 170.916 906.255 172.284 904.383 172.284C902.223 172.284 900.747 170.484 900.747 167.712ZM926.467 178.692L924.487 183.264C924.487 183.264 926.359 184.56 928.807 184.56C931.759 184.56 934.999 183.12 936.547 178.98L944.143 158.46H937.339L934.999 167.1C934.747 168.108 934.387 169.872 934.387 169.872H934.315C934.315 169.872 933.955 168 933.631 166.992L930.895 158.46H923.839L931.723 176.64L931.363 177.504C930.715 179.088 929.383 179.376 928.375 179.376C927.475 179.376 926.467 178.692 926.467 178.692ZM944.79 167.784C944.79 173.58 949.47 177.432 955.302 177.432C961.134 177.432 965.814 173.58 965.814 167.784C965.814 161.952 961.134 158.028 955.266 158.028C949.47 158.028 944.79 161.952 944.79 167.784ZM951.09 167.784C951.09 164.976 953.034 163.212 955.302 163.212C957.57 163.212 959.514 164.976 959.514 167.784C959.514 170.556 957.57 172.248 955.302 172.248C953.034 172.248 951.09 170.556 951.09 167.784ZM968.752 170.484C968.752 175.704 971.668 177.432 975.34 177.432C977.824 177.432 980.128 176.208 981.136 174.228H981.208C981.208 174.228 981.136 174.768 981.136 175.38V177H987.112V158.46H980.884V166.668C980.884 169.44 979.624 171.78 976.96 171.78C975.664 171.78 974.98 171.06 974.98 169.332V158.46H968.752V170.484ZM991.291 177H997.519V169.8C997.519 166.416 999.175 164.22 1002.63 164.22C1003.06 164.22 1003.68 164.256 1003.89 164.328V158.208C1003.68 158.172 1003.42 158.136 1003.17 158.136C1000.4 158.136 998.059 160.224 997.267 162.744H997.195C997.195 162.744 997.267 162.204 997.267 161.592V158.46H991.291V177ZM1017.6 177H1024.62L1026.71 168.432C1026.96 167.424 1027.07 166.452 1027.07 166.452H1027.14C1027.14 166.452 1027.25 167.424 1027.5 168.432L1029.59 177H1036.54L1041.72 158.46H1035.24L1032.94 169.404C1032.72 170.412 1032.68 171.348 1032.68 171.348H1032.61C1032.61 171.348 1032.58 170.412 1032.32 169.404L1029.77 158.46H1024.44L1021.88 169.404C1021.63 170.412 1021.56 171.348 1021.56 171.348H1021.49C1021.49 171.348 1021.49 170.412 1021.27 169.404L1018.97 158.46H1012.42L1017.6 177ZM1044.27 156.12H1050.36V151.26H1044.27V156.12ZM1044.2 177H1050.43V158.46H1044.2V177ZM1053.2 174.696C1055.26 176.532 1058.1 177.432 1060.76 177.432C1065.52 177.432 1068.4 174.804 1068.4 171.348C1068.4 165.336 1059.72 165.804 1059.72 163.86C1059.72 163.356 1060.12 162.96 1061.45 162.96C1063.03 162.96 1065.05 163.608 1066.13 164.472L1068.25 160.152C1066.38 158.64 1064 158.028 1061.63 158.028C1057.34 158.028 1053.92 160.08 1053.92 163.896C1053.92 169.98 1062.6 169.548 1062.6 171.528C1062.6 172.104 1062.17 172.5 1060.91 172.5C1059.14 172.5 1057.24 171.78 1055.87 170.628L1053.2 174.696ZM1071.55 177H1077.78V168.648C1077.78 165.804 1079.11 163.68 1081.81 163.68C1083.18 163.68 1083.86 164.4 1083.86 166.128V177H1090.09V164.976C1090.09 159.756 1087.18 158.028 1083.43 158.028C1080.98 158.028 1078.82 159.144 1077.78 160.98H1077.71C1077.71 160.98 1077.78 160.332 1077.78 159.396V151.26H1071.55V177ZM1093.04 167.712C1093.04 172.644 1096.61 177.432 1103.23 177.432C1106.08 177.432 1109.14 176.46 1111.15 174.732L1108.85 170.376C1107.34 171.384 1105.57 172.248 1103.74 172.248C1101.76 172.248 1099.88 171.204 1099.42 168.936H1111.12C1111.19 168.288 1111.26 167.64 1111.26 166.992C1111.26 161.844 1108.16 158.028 1102.69 158.028C1096.72 158.028 1093.04 162.276 1093.04 167.712ZM1099.56 165.372C1099.88 163.896 1100.75 162.6 1102.55 162.6C1104.13 162.6 1105.1 163.86 1105.1 165.372H1099.56ZM1113.11 174.696C1115.16 176.532 1118.01 177.432 1120.67 177.432C1125.42 177.432 1128.3 174.804 1128.3 171.348C1128.3 165.336 1119.63 165.804 1119.63 163.86C1119.63 163.356 1120.02 162.96 1121.35 162.96C1122.94 162.96 1124.95 163.608 1126.03 164.472L1128.16 160.152C1126.29 158.64 1123.91 158.028 1121.53 158.028C1117.25 158.028 1113.83 160.08 1113.83 163.896C1113.83 169.98 1122.51 169.548 1122.51 171.528C1122.51 172.104 1122.07 172.5 1120.81 172.5C1119.05 172.5 1117.14 171.78 1115.77 170.628L1113.11 174.696ZM669.792 213.78C669.792 216.984 672.276 219.432 675.84 219.432C677.964 219.432 680.124 218.46 681.348 216.732H681.42C681.42 216.732 681.348 217.272 681.348 217.884V219H687.036V207.588C687.036 202.872 683.868 200.028 678.756 200.028C675.732 200.028 672.492 201.216 670.908 202.44L673.068 206.832C674.544 205.86 676.38 205.068 678.18 205.068C679.548 205.068 680.808 205.572 680.808 207.12V207.444H680.268C675.696 207.444 669.792 208.812 669.792 213.78ZM675.948 213.204C675.948 211.512 678.396 211.008 680.304 211.008H680.88V211.512C680.88 213.024 679.512 214.788 677.712 214.788C676.56 214.788 675.948 214.068 675.948 213.204ZM690.986 219H697.214V210.612C697.214 207.984 698.474 205.68 701.246 205.68C702.614 205.68 703.298 206.4 703.298 208.128V219H709.526V206.976C709.526 201.756 706.61 200.028 702.866 200.028C699.59 200.028 697.826 201.792 696.962 203.232H696.89C696.89 203.232 696.962 202.692 696.962 202.08V200.46H690.986V219ZM712.55 209.712C712.55 215.472 715.862 219.432 720.902 219.432C723.098 219.432 725.114 218.496 726.266 216.732H726.338C726.338 216.732 726.302 217.2 726.302 217.776V219H732.134V193.26H725.906V200.676C725.906 201.144 725.942 201.504 725.942 201.504H725.87C724.646 200.28 722.666 200.028 721.01 200.028C716.078 200.028 712.55 203.844 712.55 209.712ZM718.814 209.712C718.814 206.868 720.506 205.284 722.45 205.284C724.898 205.284 726.086 207.48 726.086 209.712C726.086 212.916 724.322 214.284 722.45 214.284C720.29 214.284 718.814 212.484 718.814 209.712ZM745.303 219H751.531V210.612C751.531 207.984 752.791 205.68 755.563 205.68C756.931 205.68 757.615 206.4 757.615 208.128V219H763.843V206.976C763.843 201.756 760.927 200.028 757.183 200.028C753.907 200.028 752.143 201.792 751.279 203.232H751.207C751.207 203.232 751.279 202.692 751.279 202.08V200.46H745.303V219ZM766.794 209.712C766.794 214.644 770.358 219.432 776.982 219.432C779.826 219.432 782.886 218.46 784.902 216.732L782.598 212.376C781.086 213.384 779.322 214.248 777.486 214.248C775.506 214.248 773.634 213.204 773.166 210.936H784.866C784.938 210.288 785.01 209.64 785.01 208.992C785.01 203.844 781.914 200.028 776.442 200.028C770.466 200.028 766.794 204.276 766.794 209.712ZM773.31 207.372C773.634 205.896 774.498 204.6 776.298 204.6C777.882 204.6 778.854 205.86 778.854 207.372H773.31ZM787.22 209.712C787.22 214.644 790.784 219.432 797.408 219.432C800.252 219.432 803.312 218.46 805.328 216.732L803.024 212.376C801.512 213.384 799.748 214.248 797.912 214.248C795.932 214.248 794.06 213.204 793.592 210.936H805.292C805.364 210.288 805.436 209.64 805.436 208.992C805.436 203.844 802.34 200.028 796.868 200.028C790.892 200.028 787.22 204.276 787.22 209.712ZM793.736 207.372C794.06 205.896 794.924 204.6 796.724 204.6C798.308 204.6 799.28 205.86 799.28 207.372H793.736ZM807.718 209.712C807.718 215.472 811.03 219.432 816.07 219.432C818.266 219.432 820.282 218.496 821.434 216.732H821.506C821.506 216.732 821.47 217.2 821.47 217.776V219H827.302V193.26H821.074V200.676C821.074 201.144 821.11 201.504 821.11 201.504H821.038C819.814 200.28 817.834 200.028 816.178 200.028C811.246 200.028 807.718 203.844 807.718 209.712ZM813.982 209.712C813.982 206.868 815.674 205.284 817.618 205.284C820.066 205.284 821.254 207.48 821.254 209.712C821.254 212.916 819.49 214.284 817.618 214.284C815.458 214.284 813.982 212.484 813.982 209.712ZM830.067 216.696C832.119 218.532 834.963 219.432 837.627 219.432C842.379 219.432 845.259 216.804 845.259 213.348C845.259 207.336 836.583 207.804 836.583 205.86C836.583 205.356 836.979 204.96 838.311 204.96C839.895 204.96 841.911 205.608 842.991 206.472L845.115 202.152C843.243 200.64 840.867 200.028 838.491 200.028C834.207 200.028 830.787 202.08 830.787 205.896C830.787 211.98 839.463 211.548 839.463 213.528C839.463 214.104 839.031 214.5 837.771 214.5C836.007 214.5 834.099 213.78 832.731 212.628L830.067 216.696Z" fill="#222224"/>
<g clip-path="url(#clip0)">
<path d="M66.1124 328.042L65.109 327.666C64.8885 327.583 42.9438 319.177 32.6639 300.115C22.3836 281.053 27.4174 258.102 27.4695 257.873L27.7064 256.828L28.7093 257.204C28.9298 257.287 50.8741 265.694 61.1544 284.755C71.4347 303.817 66.4009 326.768 66.3489 326.997L66.1124 328.042ZM34.3101 299.228C43.0013 315.345 60.3428 323.606 64.7365 325.492C65.5719 320.783 68.1918 301.743 59.5083 285.642C50.8257 269.543 33.4774 261.269 29.0818 259.379C28.246 264.09 25.6271 283.128 34.3101 299.228Z" fill="#3F3D56"/>
<path d="M41.312 295.012C59.7862 306.125 66.9013 328.198 66.9013 328.198C66.9013 328.198 44.0636 332.254 25.5893 321.141C7.11501 310.028 0 287.954 0 287.954C0 287.954 22.8377 283.899 41.312 295.012Z" fill="#F04B5D"/>
<path d="M153.111 301.843C153.111 331.139 131.308 329.553 104.413 329.553C77.5185 329.553 55.716 331.139 55.716 301.843C55.716 272.548 77.5185 223.465 104.413 223.465C131.308 223.465 153.111 272.548 153.111 301.843Z" fill="#3F3D56"/>
<path d="M587.824 328.762H24.0429V330.345H587.824V328.762Z" fill="#3F3D56"/>
<path d="M267.627 59.9322C267.601 59.8491 267.573 59.765 267.547 59.6816C267.559 59.7182 267.573 59.7533 267.584 59.79L267.627 59.9322Z" fill="#2F2E41"/>
<path d="M177.559 255.039L160.931 270.873L147.47 256.622L168.057 246.33L177.559 255.039Z" fill="#A0616A"/>
<path d="M156.129 258.168C156.129 258.168 176.274 256.852 173.919 262.731C171.565 268.611 176.556 290.224 176.556 290.224C176.556 290.224 184.041 329.039 160.373 313.594C136.706 298.149 141.856 287.418 141.856 287.418C141.856 287.418 134.949 276.978 136.421 273.303C137.892 269.628 149.588 255.515 151.829 257.282C152.407 257.792 153.107 258.142 153.862 258.297C154.616 258.452 155.398 258.408 156.129 258.168Z" fill="#2F2E41"/>
<path d="M149.053 192.494C149.053 192.494 237.738 185.369 244.864 203.578C251.991 221.787 237.738 235.246 237.738 235.246L179.935 263.748L161.498 247.258L172.016 237.621C172.016 237.621 112.629 248.705 111.046 239.997C109.462 231.288 117.38 185.369 149.053 192.494Z" fill="#2F2E41"/>
<path d="M251.991 208.328C251.991 208.328 267.827 252.663 251.991 250.288C236.154 247.913 237.738 212.287 237.738 212.287L251.991 208.328Z" fill="#A0616A"/>
<path d="M216.755 117.679C216.755 117.679 226.652 122.825 225.069 129.158C223.485 135.492 231.403 175.077 231.403 175.077L255.158 209.912L235.362 217.037C235.362 217.037 210.024 200.412 206.065 188.536C202.106 176.661 196.563 158.451 196.563 158.451L216.755 117.679Z" fill="#D0CDE1"/>
<path d="M211.608 99.0737C226.039 99.0737 237.738 87.3766 237.738 72.9475C237.738 58.5184 226.039 46.8213 211.608 46.8213C197.176 46.8213 185.477 58.5184 185.477 72.9475C185.477 87.3766 197.176 99.0737 211.608 99.0737Z" fill="#A0616A"/>
<path d="M213.587 91.5527C213.587 91.5527 210.42 117.679 212.004 127.971C213.587 138.263 180.33 90.761 180.33 90.761C180.33 90.761 194.583 80.4688 194.583 76.5103C194.583 72.5518 213.587 91.5527 213.587 91.5527Z" fill="#A0616A"/>
<path d="M243.225 62.8973C240.686 62.5949 238.12 62.6126 235.586 62.9502C233.028 63.3026 230.697 64.6052 229.057 66.5986C227.249 69.0177 226.649 72.6922 223.817 73.7412C222.129 74.3663 220.176 73.7715 218.487 74.3935C216.46 75.1402 215.43 77.3811 214.891 79.4728C214.352 81.5645 214.039 83.8297 212.659 85.4914C211.279 87.1532 208.307 87.7116 207.085 85.9304C207.311 84.0196 207.213 82.0843 206.795 80.2061C206.575 79.2684 206.126 78.4 205.487 77.6792C204.849 76.9585 204.04 76.4081 203.136 76.0778C200.024 75.1767 197.127 77.8799 195.032 80.3502C192.937 82.8205 190.131 85.5754 186.985 84.8023C183.684 83.991 182.557 79.9304 182.193 76.5509C181.365 68.8518 181.488 60.6764 185.212 53.887C190.602 44.0605 202.905 39.2916 214.008 40.8323C225.11 42.3731 234.91 49.3027 242.072 57.9236C243.237 59.3249 244.383 60.8645 244.632 62.669" fill="#2F2E41"/>
<path d="M209.628 122.429L200.918 113.72L185.873 83.6357L145.49 96.303C145.49 96.303 131.237 100.261 122.527 125.596C122.527 125.596 70.2666 192.891 78.9767 203.975C87.6868 215.058 89.2704 214.267 103.523 205.558C112.465 200.174 122.04 195.919 132.029 192.891L170.037 196.849L193 168.348C193 168.348 227.048 146.18 221.505 120.846L212.004 108.179L209.628 122.429Z" fill="#575A89"/>
<path d="M203.689 201.995L208.44 205.162C208.44 205.162 234.571 237.622 221.901 243.955C209.232 250.289 196.563 212.287 196.563 212.287L203.689 201.995Z" fill="#A0616A"/>
<path d="M167.782 97.1813C168.726 97.252 169.645 97.5188 170.48 97.9649C171.314 98.4109 172.047 99.0262 172.63 99.7715C175.772 103.768 180.454 113.167 173.6 129.158C168.04 141.963 163.537 155.203 160.139 168.743C160.139 168.743 164.098 167.951 164.098 171.118C164.098 174.285 160.931 172.702 164.098 174.285C167.265 175.868 166.474 173.493 167.265 175.868C168.092 178.349 167.192 178.239 169.074 179.146C170.966 180.19 172.615 181.623 173.912 183.351C174.268 183.825 174.697 184.239 175.184 184.577L204.481 199.62C204.481 199.62 208.44 215.454 196.563 215.454C196.563 215.454 123.715 194.869 125.299 179.035C126.847 163.555 129.909 94.3463 167.782 97.1813Z" fill="#D0CDE1"/>
<path d="M152.221 296.999V317.584L130.05 316L134.801 295.416L152.221 296.999Z" fill="#A0616A"/>
<path d="M136.384 306.5C136.384 306.5 154.596 297.791 154.596 304.125C154.596 310.458 167.265 328.667 167.265 328.667C167.265 328.667 188.645 361.919 160.931 356.377C133.217 350.835 134.009 338.96 134.009 338.96C134.009 338.96 123.715 331.834 123.715 327.876C123.715 323.917 129.326 306.469 132.063 307.276C132.788 307.535 133.569 307.599 134.327 307.463C135.085 307.327 135.794 306.995 136.384 306.5Z" fill="#2F2E41"/>
<path d="M114.213 194.078C114.213 194.078 170.433 181.41 168.057 201.995C165.682 222.579 163.306 234.454 163.306 234.454L153.804 301.749L131.633 299.374L130.049 286.707C130.049 286.707 125.299 281.957 127.674 278.79C130.049 275.623 123.715 244.747 123.715 244.747C123.715 244.747 85.7072 252.664 82.5399 229.704C79.3726 206.745 87.2908 199.619 87.2908 199.619L114.213 194.078Z" fill="#2F2E41"/>
<path d="M473.218 99.3398H331.381V100.933H473.218V99.3398Z" fill="#3F3D56"/>
<path d="M473.218 110.494H331.381V112.088H473.218V110.494Z" fill="#3F3D56"/>
<path d="M473.218 121.648H331.381V123.242H473.218V121.648Z" fill="#3F3D56"/>
<g clip-path="url(#clip1)">
<path d="M359.992 58.8671H356.725V53.1504L351.009 60.5004H354.275L353.459 67.0337L359.992 58.8671Z" fill="#DC691D"/>
<path d="M342.077 76.4646C338.591 76.4646 335.926 75.4421 334.625 73.3253C331.389 68.0578 338.024 58.2987 349.729 51.1071C361.434 43.9139 373.139 42.408 376.375 47.6755C379.611 52.943 372.976 62.7021 361.271 69.8937V69.8945C354.269 74.1967 347.266 76.4646 342.077 76.4646ZM369.022 46.1679C364.161 46.1679 357.251 48.4023 350.584 52.4987C340.023 58.9863 333.352 68.133 336.016 72.4703C338.681 76.8076 349.854 74.9905 360.416 68.5021C370.977 62.0145 377.648 52.8678 374.983 48.5305C374.001 46.9315 371.861 46.1679 369.022 46.1679Z" fill="#488DD7"/>
<path d="M368.924 76.4637C363.735 76.4637 356.732 74.1958 349.729 69.8936C344.247 66.5249 339.65 62.426 336.785 58.3533C333.784 54.0846 333.017 50.2928 334.625 47.6746C335.187 46.7583 336.028 46.0257 337.122 45.4965L337.796 45.1707L338.179 45.8126C338.479 46.3156 339.001 46.6162 339.575 46.6162C340.381 46.6162 341.056 46.0347 341.18 45.2335L341.286 44.5435L341.985 44.541C342.002 44.541 342.02 44.541 342.037 44.541C347.391 44.541 354.575 46.9926 361.271 51.1062C366.753 54.4741 371.35 58.573 374.215 62.6457C377.216 66.9144 377.983 70.7062 376.375 73.3244C375.075 75.4404 372.408 76.4637 368.924 76.4637ZM337.266 47.2842C336.733 47.6272 336.314 48.0445 336.017 48.5288C334.79 50.5272 335.557 53.7653 338.121 57.4133C340.861 61.3088 345.286 65.2468 350.584 68.5012C361.145 74.9888 372.32 76.8075 374.984 72.4686C376.211 70.4702 375.444 67.2321 372.88 63.584C370.14 59.6885 365.714 55.7506 360.417 52.497C354.206 48.6807 347.609 46.3499 342.607 46.1833C342.127 47.4149 340.946 48.2495 339.575 48.2495C338.691 48.2495 337.87 47.8983 337.266 47.2842Z" fill="#DDAF08"/>
<path d="M355.5 85C349.318 85 344.475 74.238 344.475 60.5C344.475 46.762 349.318 36 355.5 36C361.683 36 366.525 46.762 366.525 60.5C366.525 67.7267 365.136 74.5279 362.714 79.1608L362.326 79.9024L361.594 79.4973C360.467 78.8734 359.175 79.7521 359.175 80.9167C359.175 81.3577 359.35 81.7717 359.669 82.0829L360.299 82.7011L359.634 83.2817C358.329 84.4218 356.939 85 355.5 85ZM355.5 37.6333C350.41 37.6333 346.109 48.1046 346.109 60.5C346.109 72.8954 350.41 83.3667 355.5 83.3667C356.328 83.3667 357.153 83.0816 357.963 82.5198C357.688 82.0355 357.542 81.4875 357.542 80.9167C357.542 79.1151 359.007 77.65 360.809 77.65C361.074 77.65 361.336 77.6835 361.594 77.7496C363.695 73.365 364.892 67.1338 364.892 60.5C364.892 48.1046 360.591 37.6333 355.5 37.6333Z" fill="#EC2827"/>
<path d="M339.575 48.2501C337.774 48.2501 336.309 46.785 336.309 44.9835C336.309 43.1819 337.774 41.7168 339.575 41.7168C341.377 41.7168 342.842 43.1819 342.842 44.9835C342.842 46.785 341.376 48.2501 339.575 48.2501ZM339.575 43.3501C338.675 43.3501 337.942 44.0827 337.942 44.9835C337.942 45.8843 338.675 46.6168 339.575 46.6168C340.476 46.6168 341.209 45.8843 341.209 44.9835C341.209 44.0827 340.476 43.3501 339.575 43.3501Z" fill="#636DB5"/>
<path d="M360.809 84.1837C359.007 84.1837 357.542 82.7186 357.542 80.9171C357.542 79.1155 359.007 77.6504 360.809 77.6504C362.61 77.6504 364.075 79.1155 364.075 80.9171C364.075 82.7186 362.609 84.1837 360.809 84.1837ZM360.809 79.2837C359.908 79.2837 359.175 80.0163 359.175 80.9171C359.175 81.8178 359.908 82.5504 360.809 82.5504C361.71 82.5504 362.442 81.8178 362.442 80.9171C362.442 80.0163 361.71 79.2837 360.809 79.2837Z" fill="#636DB5"/>
</g>
<path d="M302.669 74.2346C306.167 74.2346 309.003 71.399 309.003 67.901C309.003 64.403 306.167 61.5674 302.669 61.5674C299.17 61.5674 296.334 64.403 296.334 67.901C296.334 71.399 299.17 74.2346 302.669 74.2346Z" fill="#F04B5D"/>
<path d="M579.335 238.15H437.497V239.744H579.335V238.15Z" fill="#3F3D56"/>
<path d="M579.335 249.305H437.497V250.898H579.335V249.305Z" fill="#3F3D56"/>
<path d="M579.335 260.458H437.497V262.051H579.335V260.458Z" fill="#3F3D56"/>
<path d="M408.785 213.044C412.284 213.044 415.12 210.209 415.12 206.711C415.12 203.213 412.284 200.377 408.785 200.377C405.287 200.377 402.45 203.213 402.45 206.711C402.45 210.209 405.287 213.044 408.785 213.044Z" fill="#F04B5D"/>
<g clip-path="url(#clip2)">
<path d="M453.378 162.827C452.512 162.237 449.513 160.701 445.738 164.358C441.962 160.701 438.963 162.237 438.097 162.827C435.59 164.536 434.828 168.277 436.362 171.345C439.133 176.887 445.194 178.961 445.45 179.046C445.636 179.108 445.84 179.108 446.025 179.046C446.282 178.961 452.343 176.887 455.114 171.345C456.647 168.277 455.885 164.536 453.378 162.827Z" fill="#FFB1BB"/>
<path d="M443.231 191.26C442.189 190.55 440.539 190.403 438.819 191.882C437.099 190.403 435.449 190.55 434.407 191.26C432.869 192.308 432.392 194.585 433.322 196.444C434.913 199.627 438.385 200.815 438.532 200.864C438.717 200.926 438.921 200.926 439.107 200.864C439.254 200.815 442.725 199.627 444.317 196.444C445.246 194.585 444.769 192.308 443.231 191.26Z" fill="#FFD8DD"/>
<path d="M477.068 214.322L462.843 193.358V183.638C462.843 183.136 462.436 182.729 461.934 182.729H452.843C452.341 182.729 451.934 183.136 451.934 183.638V193.358L437.709 214.322C436.951 215.439 436.873 216.873 437.505 218.066C438.137 219.259 439.368 220 440.718 220H474.059C475.409 220 476.64 219.259 477.272 218.066C477.904 216.873 477.826 215.439 477.068 214.322Z" fill="#EFECF1"/>
<path d="M453.752 193.638V188.184C453.752 187.18 454.566 186.366 455.57 186.366H462.843V182.729H452.843C452.341 182.729 451.934 183.137 451.934 183.639V193.359L446.193 201.82H448.24L453.752 193.638Z" fill="#EBE3EF"/>
<path d="M477.068 214.322L468.584 201.819H446.193L437.709 214.322C436.951 215.439 436.873 216.874 437.505 218.067C438.137 219.259 439.368 220 440.718 220H474.059C475.409 220 476.64 219.259 477.272 218.067C477.904 216.874 477.826 215.439 477.068 214.322Z" fill="#FE5578"/>
<path d="M441.45 215.34C440.818 214.147 440.897 212.712 441.654 211.595L448.241 201.819H446.193L437.709 214.322C436.951 215.439 436.873 216.874 437.505 218.067C438.137 219.259 439.368 220 440.718 220H474.059C475.409 220 476.64 219.259 477.272 218.067C477.407 217.811 477.508 217.545 477.579 217.273H444.663C443.313 217.273 442.082 216.532 441.45 215.34Z" fill="#FE3F67"/>
<path d="M464.661 180.911H450.116C449.614 180.911 449.207 181.318 449.207 181.82V183.638C449.207 184.14 449.614 184.547 450.116 184.547H464.661C465.163 184.547 465.57 184.14 465.57 183.638V181.82C465.57 181.318 465.163 180.911 464.661 180.911Z" fill="#EFECF1"/>
<path d="M461.8 205.805C460.759 205.095 459.109 204.948 457.389 206.427C455.668 204.948 454.018 205.095 452.977 205.805C451.439 206.853 450.962 209.13 451.891 210.989C453.483 214.172 456.954 215.36 457.101 215.408C457.287 215.47 457.491 215.47 457.676 215.408C457.823 215.36 461.295 214.172 462.886 210.989C463.815 209.13 463.338 206.853 461.8 205.805Z" fill="#EFECF1"/>
<path d="M479.593 176.715C478.551 176.005 476.901 175.858 475.181 177.337C473.461 175.858 471.811 176.005 470.769 176.715C469.231 177.763 468.754 180.04 469.683 181.899C471.275 185.082 474.747 186.27 474.893 186.319C475.079 186.381 475.283 186.381 475.469 186.319C475.615 186.27 479.087 185.082 480.678 181.899C481.608 180.04 481.131 177.763 479.593 176.715Z" fill="#FE6A89"/>
</g>
</g>
<defs>
<clipPath id="clip0">
<rect width="630" height="357" fill="white"/>
</clipPath>
<clipPath id="clip1">
<rect x="331" y="36" width="49" height="49" fill="white"/>
</clipPath>
<clipPath id="clip2">
<rect x="428" y="162" width="58" height="58" fill="white"/>
</clipPath>
</defs>
</svg>
