<svg width="1098" height="361" viewBox="0 0 1098 361" fill="none" xmlns="http://www.w3.org/2000/svg">
<path d="M0.892 155H7.372L8.92 149.6H16.948L18.532 155H25.012L16.264 129.26H9.64L0.892 155ZM10.396 144.56L11.872 139.556C12.34 137.936 12.916 135.128 12.916 135.128H12.988C12.988 135.128 13.564 137.936 14.032 139.556L15.472 144.56H10.396ZM34.7244 148.484C34.7244 153.704 37.6404 155.432 41.3124 155.432C43.7964 155.432 46.1004 154.208 47.1084 152.228H47.1804C47.1804 152.228 47.1084 152.768 47.1084 153.38V155H53.0844V136.46H46.8564V144.668C46.8564 147.44 45.5964 149.78 42.9324 149.78C41.6364 149.78 40.9524 149.06 40.9524 147.332V136.46H34.7244V148.484ZM57.2638 155H63.4918V146.612C63.4918 143.984 64.7518 141.68 67.5238 141.68C68.8918 141.68 69.5758 142.4 69.5758 144.128V155H75.8038V142.976C75.8038 137.756 72.8878 136.028 69.1438 136.028C65.8678 136.028 64.1038 137.792 63.2398 139.232H63.1678C63.1678 139.232 63.2398 138.692 63.2398 138.08V136.46H57.2638V155ZM79.8709 134.12H85.9549V129.26H79.8709V134.12ZM79.7989 155H86.0269V136.46H79.7989V155ZM89.2332 145.712C89.2332 151.472 92.5452 155.432 97.5852 155.432C99.3132 155.432 101.329 154.82 102.589 153.344H102.661C102.661 153.344 102.589 153.992 102.589 154.928V162.2H108.817V136.46H102.985V137C102.985 137.612 103.057 138.008 103.057 138.008H102.985C101.689 136.568 99.5652 136.028 97.6932 136.028C92.7612 136.028 89.2332 139.844 89.2332 145.712ZM95.4972 145.712C95.4972 142.868 97.1892 141.284 99.1332 141.284C101.581 141.284 102.769 143.48 102.769 145.712C102.769 148.916 101.005 150.284 99.1332 150.284C96.9732 150.284 95.4972 148.484 95.4972 145.712ZM112.806 148.484C112.806 153.704 115.722 155.432 119.394 155.432C121.878 155.432 124.182 154.208 125.19 152.228H125.262C125.262 152.228 125.19 152.768 125.19 153.38V155H131.166V136.46H124.938V144.668C124.938 147.44 123.678 149.78 121.014 149.78C119.718 149.78 119.034 149.06 119.034 147.332V136.46H112.806V148.484ZM134.302 145.712C134.302 150.644 137.866 155.432 144.49 155.432C147.334 155.432 150.394 154.46 152.41 152.732L150.106 148.376C148.594 149.384 146.83 150.248 144.994 150.248C143.014 150.248 141.142 149.204 140.674 146.936H152.374C152.446 146.288 152.518 145.64 152.518 144.992C152.518 139.844 149.422 136.028 143.95 136.028C137.974 136.028 134.302 140.276 134.302 145.712ZM140.818 143.372C141.142 141.896 142.006 140.6 143.806 140.6C145.39 140.6 146.362 141.86 146.362 143.372H140.818ZM163.376 145.784C163.376 151.58 168.056 155.432 173.888 155.432C179.72 155.432 184.4 151.58 184.4 145.784C184.4 139.952 179.72 136.028 173.852 136.028C168.056 136.028 163.376 139.952 163.376 145.784ZM169.676 145.784C169.676 142.976 171.62 141.212 173.888 141.212C176.156 141.212 178.1 142.976 178.1 145.784C178.1 148.556 176.156 150.248 173.888 150.248C171.62 150.248 169.676 148.556 169.676 145.784ZM187.518 155H193.746V146.612C193.746 143.984 195.006 141.68 197.778 141.68C199.146 141.68 199.83 142.4 199.83 144.128V155H206.058V142.976C206.058 137.756 203.142 136.028 199.398 136.028C196.122 136.028 194.358 137.792 193.494 139.232H193.422C193.422 139.232 193.494 138.692 193.494 138.08V136.46H187.518V155ZM210.017 148.16C210.017 154.388 213.545 155.18 216.857 155.18C217.649 155.18 218.297 155.108 218.729 155.072V149.672C218.441 149.708 218.153 149.708 217.973 149.708C216.569 149.708 216.245 149.096 216.245 147.332V129.26H210.017V148.16ZM221.762 134.12H227.846V129.26H221.762V134.12ZM221.69 155H227.918V136.46H221.69V155ZM232.096 155H238.324V146.612C238.324 143.984 239.584 141.68 242.356 141.68C243.724 141.68 244.408 142.4 244.408 144.128V155H250.636V142.976C250.636 137.756 247.72 136.028 243.976 136.028C240.7 136.028 238.936 137.792 238.072 139.232H238C238 139.232 238.072 138.692 238.072 138.08V136.46H232.096V155ZM253.587 145.712C253.587 150.644 257.151 155.432 263.775 155.432C266.619 155.432 269.679 154.46 271.695 152.732L269.391 148.376C267.879 149.384 266.115 150.248 264.279 150.248C262.299 150.248 260.427 149.204 259.959 146.936H271.659C271.731 146.288 271.803 145.64 271.803 144.992C271.803 139.844 268.707 136.028 263.235 136.028C257.259 136.028 253.587 140.276 253.587 145.712ZM260.103 143.372C260.427 141.896 261.291 140.6 263.091 140.6C264.675 140.6 265.647 141.86 265.647 143.372H260.103ZM282.301 152.696C284.353 154.532 287.197 155.432 289.861 155.432C294.613 155.432 297.493 152.804 297.493 149.348C297.493 143.336 288.817 143.804 288.817 141.86C288.817 141.356 289.213 140.96 290.545 140.96C292.129 140.96 294.145 141.608 295.225 142.472L297.349 138.152C295.477 136.64 293.101 136.028 290.725 136.028C286.441 136.028 283.021 138.08 283.021 141.896C283.021 147.98 291.697 147.548 291.697 149.528C291.697 150.104 291.265 150.5 290.005 150.5C288.241 150.5 286.333 149.78 284.965 148.628L282.301 152.696ZM299.607 145.712C299.607 150.824 303.314 155.432 309.939 155.432C313.035 155.432 316.059 154.244 317.895 152.372L315.627 148.016C314.295 149.168 312.351 150.248 310.551 150.248C307.419 150.248 305.907 147.836 305.907 145.64C305.907 143.444 307.383 141.212 310.335 141.212C311.955 141.212 313.611 141.968 314.691 143.012L317.319 138.836C315.483 136.856 312.531 136.028 309.939 136.028C303.279 136.028 299.607 140.744 299.607 145.712ZM320.514 155H326.742V146.648C326.742 143.804 328.074 141.68 330.774 141.68C332.142 141.68 332.826 142.4 332.826 144.128V155H339.054V142.976C339.054 137.756 336.138 136.028 332.394 136.028C329.946 136.028 327.786 137.144 326.742 138.98H326.67C326.67 138.98 326.742 138.332 326.742 137.396V129.26H320.514V155ZM342.005 145.784C342.005 151.58 346.685 155.432 352.517 155.432C358.349 155.432 363.029 151.58 363.029 145.784C363.029 139.952 358.349 136.028 352.481 136.028C346.685 136.028 342.005 139.952 342.005 145.784ZM348.305 145.784C348.305 142.976 350.249 141.212 352.517 141.212C354.785 141.212 356.729 142.976 356.729 145.784C356.729 148.556 354.785 150.248 352.517 150.248C350.249 150.248 348.305 148.556 348.305 145.784ZM365.103 145.784C365.103 151.58 369.783 155.432 375.615 155.432C381.447 155.432 386.127 151.58 386.127 145.784C386.127 139.952 381.447 136.028 375.579 136.028C369.783 136.028 365.103 139.952 365.103 145.784ZM371.403 145.784C371.403 142.976 373.347 141.212 375.615 141.212C377.883 141.212 379.827 142.976 379.827 145.784C379.827 148.556 377.883 150.248 375.615 150.248C373.347 150.248 371.403 148.556 371.403 145.784ZM389.208 148.16C389.208 154.388 392.736 155.18 396.048 155.18C396.84 155.18 397.488 155.108 397.92 155.072V149.672C397.632 149.708 397.344 149.708 397.164 149.708C395.76 149.708 395.436 149.096 395.436 147.332V129.26H389.208V148.16Z" fill="#F04B5D"/>
<path d="M6.58 197H13.6L15.688 188.432C15.94 187.424 16.048 186.452 16.048 186.452H16.12C16.12 186.452 16.228 187.424 16.48 188.432L18.568 197H25.516L30.7 178.46H24.22L21.916 189.404C21.7 190.412 21.664 191.348 21.664 191.348H21.592C21.592 191.348 21.556 190.412 21.304 189.404L18.748 178.46H13.42L10.864 189.404C10.612 190.412 10.54 191.348 10.54 191.348H10.468C10.468 191.348 10.468 190.412 10.252 189.404L7.948 178.46H1.396L6.58 197ZM33.2538 176.12H39.3378V171.26H33.2538V176.12ZM33.1818 197H39.4098V178.46H33.1818V197ZM44.668 190.16C44.668 196.388 50.392 197.18 53.344 197.18C54.064 197.18 54.568 197.108 55.036 197.072V191.672C54.64 191.708 54.424 191.708 54.208 191.708C53.02 191.708 50.896 191.42 50.896 189.332V183.644H54.784V178.784H50.896V173.456H44.848V178.784H42.292V183.644H44.668V190.16ZM58.3888 197H64.6168V188.648C64.6168 185.804 65.9488 183.68 68.6488 183.68C70.0168 183.68 70.7008 184.4 70.7008 186.128V197H76.9288V184.976C76.9288 179.756 74.0128 178.028 70.2688 178.028C67.8208 178.028 65.6608 179.144 64.6168 180.98H64.5448C64.5448 180.98 64.6168 180.332 64.6168 179.396V171.26H58.3888V197ZM88.8799 187.712C88.8799 192.824 92.5879 197.432 99.2119 197.432C102.308 197.432 105.332 196.244 107.168 194.372L104.9 190.016C103.568 191.168 101.624 192.248 99.8239 192.248C96.6919 192.248 95.1799 189.836 95.1799 187.64C95.1799 185.444 96.6559 183.212 99.6079 183.212C101.228 183.212 102.884 183.968 103.964 185.012L106.592 180.836C104.756 178.856 101.804 178.028 99.2119 178.028C92.5519 178.028 88.8799 182.744 88.8799 187.712ZM108.357 187.784C108.357 193.58 113.037 197.432 118.869 197.432C124.701 197.432 129.381 193.58 129.381 187.784C129.381 181.952 124.701 178.028 118.833 178.028C113.037 178.028 108.357 181.952 108.357 187.784ZM114.657 187.784C114.657 184.976 116.601 183.212 118.869 183.212C121.137 183.212 123.081 184.976 123.081 187.784C123.081 190.556 121.137 192.248 118.869 192.248C116.601 192.248 114.657 190.556 114.657 187.784ZM131.454 187.784C131.454 193.58 136.134 197.432 141.966 197.432C147.798 197.432 152.478 193.58 152.478 187.784C152.478 181.952 147.798 178.028 141.93 178.028C136.134 178.028 131.454 181.952 131.454 187.784ZM137.754 187.784C137.754 184.976 139.698 183.212 141.966 183.212C144.234 183.212 146.178 184.976 146.178 187.784C146.178 190.556 144.234 192.248 141.966 192.248C139.698 192.248 137.754 190.556 137.754 187.784ZM155.56 190.16C155.56 196.388 159.088 197.18 162.4 197.18C163.192 197.18 163.84 197.108 164.272 197.072V191.672C163.984 191.708 163.696 191.708 163.516 191.708C162.112 191.708 161.788 191.096 161.788 189.332V171.26H155.56V190.16ZM175.189 187.712C175.189 192.644 178.753 197.432 185.377 197.432C188.221 197.432 191.281 196.46 193.297 194.732L190.993 190.376C189.481 191.384 187.717 192.248 185.881 192.248C183.901 192.248 182.029 191.204 181.561 188.936H193.261C193.333 188.288 193.405 187.64 193.405 186.992C193.405 181.844 190.309 178.028 184.837 178.028C178.861 178.028 175.189 182.276 175.189 187.712ZM181.705 185.372C182.029 183.896 182.893 182.6 184.693 182.6C186.277 182.6 187.249 183.86 187.249 185.372H181.705ZM195.686 187.712C195.686 193.472 198.998 197.432 204.038 197.432C206.234 197.432 208.25 196.496 209.402 194.732H209.474C209.474 194.732 209.438 195.2 209.438 195.776V197H215.27V171.26H209.042V178.676C209.042 179.144 209.078 179.504 209.078 179.504H209.006C207.782 178.28 205.802 178.028 204.146 178.028C199.214 178.028 195.686 181.844 195.686 187.712ZM201.95 187.712C201.95 184.868 203.642 183.284 205.586 183.284C208.034 183.284 209.222 185.48 209.222 187.712C209.222 190.916 207.458 192.284 205.586 192.284C203.426 192.284 201.95 190.484 201.95 187.712ZM219.26 190.484C219.26 195.704 222.176 197.432 225.848 197.432C228.332 197.432 230.636 196.208 231.644 194.228H231.716C231.716 194.228 231.644 194.768 231.644 195.38V197H237.62V178.46H231.392V186.668C231.392 189.44 230.132 191.78 227.468 191.78C226.172 191.78 225.488 191.06 225.488 189.332V178.46H219.26V190.484ZM240.755 187.712C240.755 192.824 244.463 197.432 251.087 197.432C254.183 197.432 257.207 196.244 259.043 194.372L256.775 190.016C255.443 191.168 253.499 192.248 251.699 192.248C248.567 192.248 247.055 189.836 247.055 187.64C247.055 185.444 248.531 183.212 251.483 183.212C253.103 183.212 254.759 183.968 255.839 185.012L258.467 180.836C256.631 178.856 253.679 178.028 251.087 178.028C244.427 178.028 240.755 182.744 240.755 187.712ZM260.366 191.78C260.366 194.984 262.85 197.432 266.414 197.432C268.538 197.432 270.698 196.46 271.922 194.732H271.994C271.994 194.732 271.922 195.272 271.922 195.884V197H277.61V185.588C277.61 180.872 274.442 178.028 269.33 178.028C266.306 178.028 263.066 179.216 261.482 180.44L263.642 184.832C265.118 183.86 266.954 183.068 268.754 183.068C270.122 183.068 271.382 183.572 271.382 185.12V185.444H270.842C266.27 185.444 260.366 186.812 260.366 191.78ZM266.522 191.204C266.522 189.512 268.97 189.008 270.878 189.008H271.454V189.512C271.454 191.024 270.086 192.788 268.286 192.788C267.134 192.788 266.522 192.068 266.522 191.204ZM282.641 190.16C282.641 196.388 288.365 197.18 291.317 197.18C292.037 197.18 292.541 197.108 293.009 197.072V191.672C292.613 191.708 292.397 191.708 292.181 191.708C290.993 191.708 288.869 191.42 288.869 189.332V183.644H292.757V178.784H288.869V173.456H282.821V178.784H280.265V183.644H282.641V190.16ZM295.177 187.784C295.177 193.58 299.857 197.432 305.689 197.432C311.521 197.432 316.201 193.58 316.201 187.784C316.201 181.952 311.521 178.028 305.653 178.028C299.857 178.028 295.177 181.952 295.177 187.784ZM301.477 187.784C301.477 184.976 303.421 183.212 305.689 183.212C307.957 183.212 309.901 184.976 309.901 187.784C309.901 190.556 307.957 192.248 305.689 192.248C303.421 192.248 301.477 190.556 301.477 187.784ZM319.318 197H325.546V189.8C325.546 186.416 327.202 184.22 330.658 184.22C331.09 184.22 331.702 184.256 331.918 184.328V178.208C331.702 178.172 331.45 178.136 331.198 178.136C328.426 178.136 326.086 180.224 325.294 182.744H325.222C325.222 182.744 325.294 182.204 325.294 181.592V178.46H319.318V197ZM333.243 194.696C335.295 196.532 338.139 197.432 340.803 197.432C345.555 197.432 348.435 194.804 348.435 191.348C348.435 185.336 339.759 185.804 339.759 183.86C339.759 183.356 340.155 182.96 341.487 182.96C343.071 182.96 345.087 183.608 346.167 184.472L348.291 180.152C346.419 178.64 344.043 178.028 341.667 178.028C337.383 178.028 333.963 180.08 333.963 183.896C333.963 189.98 342.639 189.548 342.639 191.528C342.639 192.104 342.207 192.5 340.947 192.5C339.183 192.5 337.275 191.78 335.907 190.628L333.243 194.696ZM363.275 197H370.295L372.383 188.432C372.635 187.424 372.743 186.452 372.743 186.452H372.815C372.815 186.452 372.923 187.424 373.175 188.432L375.263 197H382.211L387.395 178.46H380.915L378.611 189.404C378.395 190.412 378.359 191.348 378.359 191.348H378.287C378.287 191.348 378.251 190.412 377.999 189.404L375.443 178.46H370.115L367.559 189.404C367.307 190.412 367.235 191.348 367.235 191.348H367.163C367.163 191.348 367.163 190.412 366.947 189.404L364.643 178.46H358.091L363.275 197ZM389.877 197H396.105V188.648C396.105 185.804 397.437 183.68 400.137 183.68C401.505 183.68 402.189 184.4 402.189 186.128V197H408.417V184.976C408.417 179.756 405.501 178.028 401.757 178.028C399.309 178.028 397.149 179.144 396.105 180.98H396.033C396.033 180.98 396.105 180.332 396.105 179.396V171.26H389.877V197ZM411.368 187.784C411.368 193.58 416.048 197.432 421.88 197.432C427.712 197.432 432.392 193.58 432.392 187.784C432.392 181.952 427.712 178.028 421.844 178.028C416.048 178.028 411.368 181.952 411.368 187.784ZM417.668 187.784C417.668 184.976 419.612 183.212 421.88 183.212C424.148 183.212 426.092 184.976 426.092 187.784C426.092 190.556 424.148 192.248 421.88 192.248C419.612 192.248 417.668 190.556 417.668 187.784ZM2.908 232.484C2.908 237.704 5.824 239.432 9.496 239.432C11.98 239.432 14.284 238.208 15.292 236.228H15.364C15.364 236.228 15.292 236.768 15.292 237.38V239H21.268V220.46H15.04V228.668C15.04 231.44 13.78 233.78 11.116 233.78C9.82 233.78 9.136 233.06 9.136 231.332V220.46H2.908V232.484ZM25.4474 239H31.6754V230.612C31.6754 227.984 32.9354 225.68 35.7074 225.68C37.0754 225.68 37.7594 226.4 37.7594 228.128V239H43.9874V226.976C43.9874 221.756 41.0714 220.028 37.3274 220.028C34.0514 220.028 32.2874 221.792 31.4234 223.232H31.3514C31.3514 223.232 31.4234 222.692 31.4234 222.08V220.46H25.4474V239ZM47.0105 229.712C47.0105 235.472 50.3225 239.432 55.3625 239.432C57.5585 239.432 59.5745 238.496 60.7265 236.732H60.7985C60.7985 236.732 60.7625 237.2 60.7625 237.776V239H66.5945V213.26H60.3665V220.676C60.3665 221.144 60.4025 221.504 60.4025 221.504H60.3305C59.1065 220.28 57.1265 220.028 55.4705 220.028C50.5385 220.028 47.0105 223.844 47.0105 229.712ZM53.2745 229.712C53.2745 226.868 54.9665 225.284 56.9105 225.284C59.3585 225.284 60.5465 227.48 60.5465 229.712C60.5465 232.916 58.7825 234.284 56.9105 234.284C54.7505 234.284 53.2745 232.484 53.2745 229.712ZM69.7198 229.712C69.7198 234.644 73.2838 239.432 79.9078 239.432C82.7518 239.432 85.8118 238.46 87.8278 236.732L85.5238 232.376C84.0118 233.384 82.2478 234.248 80.4118 234.248C78.4318 234.248 76.5598 233.204 76.0918 230.936H87.7918C87.8638 230.288 87.9358 229.64 87.9358 228.992C87.9358 223.844 84.8398 220.028 79.3678 220.028C73.3918 220.028 69.7198 224.276 69.7198 229.712ZM76.2358 227.372C76.5598 225.896 77.4238 224.6 79.2238 224.6C80.8078 224.6 81.7798 225.86 81.7798 227.372H76.2358ZM91.1896 239H97.4176V231.8C97.4176 228.416 99.0736 226.22 102.53 226.22C102.962 226.22 103.574 226.256 103.79 226.328V220.208C103.574 220.172 103.322 220.136 103.07 220.136C100.298 220.136 97.9576 222.224 97.1656 224.744H97.0936C97.0936 224.744 97.1656 224.204 97.1656 223.592V220.46H91.1896V239ZM105.114 236.696C107.166 238.532 110.01 239.432 112.674 239.432C117.426 239.432 120.306 236.804 120.306 233.348C120.306 227.336 111.63 227.804 111.63 225.86C111.63 225.356 112.026 224.96 113.358 224.96C114.942 224.96 116.958 225.608 118.038 226.472L120.162 222.152C118.29 220.64 115.914 220.028 113.538 220.028C109.254 220.028 105.834 222.08 105.834 225.896C105.834 231.98 114.51 231.548 114.51 233.528C114.51 234.104 114.078 234.5 112.818 234.5C111.054 234.5 109.146 233.78 107.778 232.628L105.114 236.696ZM124.543 232.16C124.543 238.388 130.267 239.18 133.219 239.18C133.939 239.18 134.443 239.108 134.911 239.072V233.672C134.515 233.708 134.299 233.708 134.083 233.708C132.895 233.708 130.771 233.42 130.771 231.332V225.644H134.659V220.784H130.771V215.456H124.723V220.784H122.167V225.644H124.543V232.16ZM136.968 233.78C136.968 236.984 139.452 239.432 143.016 239.432C145.14 239.432 147.3 238.46 148.524 236.732H148.596C148.596 236.732 148.524 237.272 148.524 237.884V239H154.212V227.588C154.212 222.872 151.044 220.028 145.932 220.028C142.908 220.028 139.668 221.216 138.084 222.44L140.244 226.832C141.72 225.86 143.556 225.068 145.356 225.068C146.724 225.068 147.984 225.572 147.984 227.12V227.444H147.444C142.872 227.444 136.968 228.812 136.968 233.78ZM143.124 233.204C143.124 231.512 145.572 231.008 147.48 231.008H148.056V231.512C148.056 233.024 146.688 234.788 144.888 234.788C143.736 234.788 143.124 234.068 143.124 233.204ZM158.162 239H164.39V230.612C164.39 227.984 165.65 225.68 168.422 225.68C169.79 225.68 170.474 226.4 170.474 228.128V239H176.702V226.976C176.702 221.756 173.786 220.028 170.042 220.028C166.766 220.028 165.002 221.792 164.138 223.232H164.066C164.066 223.232 164.138 222.692 164.138 222.08V220.46H158.162V239ZM179.725 229.712C179.725 235.472 183.037 239.432 188.077 239.432C190.273 239.432 192.289 238.496 193.441 236.732H193.513C193.513 236.732 193.477 237.2 193.477 237.776V239H199.309V213.26H193.081V220.676C193.081 221.144 193.117 221.504 193.117 221.504H193.045C191.821 220.28 189.841 220.028 188.185 220.028C183.253 220.028 179.725 223.844 179.725 229.712ZM185.989 229.712C185.989 226.868 187.681 225.284 189.625 225.284C192.073 225.284 193.261 227.48 193.261 229.712C193.261 232.916 191.497 234.284 189.625 234.284C187.465 234.284 185.989 232.484 185.989 229.712ZM212.891 232.16C212.891 238.388 218.615 239.18 221.567 239.18C222.287 239.18 222.791 239.108 223.259 239.072V233.672C222.863 233.708 222.647 233.708 222.431 233.708C221.243 233.708 219.119 233.42 219.119 231.332V225.644H223.007V220.784H219.119V215.456H213.071V220.784H210.515V225.644H212.891V232.16ZM226.611 239H232.839V230.648C232.839 227.804 234.171 225.68 236.871 225.68C238.239 225.68 238.923 226.4 238.923 228.128V239H245.151V226.976C245.151 221.756 242.235 220.028 238.491 220.028C236.043 220.028 233.883 221.144 232.839 222.98H232.767C232.767 222.98 232.839 222.332 232.839 221.396V213.26H226.611V239ZM248.103 229.712C248.103 234.644 251.667 239.432 258.291 239.432C261.135 239.432 264.195 238.46 266.211 236.732L263.907 232.376C262.395 233.384 260.631 234.248 258.795 234.248C256.815 234.248 254.943 233.204 254.475 230.936H266.175C266.247 230.288 266.319 229.64 266.319 228.992C266.319 223.844 263.223 220.028 257.751 220.028C251.775 220.028 248.103 224.276 248.103 229.712ZM254.619 227.372C254.943 225.896 255.807 224.6 257.607 224.6C259.191 224.6 260.163 225.86 260.163 227.372H254.619ZM278.221 246.2H284.449V239.252C284.449 238.316 284.377 237.668 284.377 237.668H284.449C285.781 238.82 287.437 239.432 289.165 239.432C294.097 239.432 297.805 235.616 297.805 229.748C297.805 223.988 294.493 220.028 289.453 220.028C287.221 220.028 285.097 220.892 283.837 222.584H283.765C283.765 222.584 283.837 222.008 283.837 221.396V220.46H278.221V246.2ZM284.269 229.856C284.269 226.652 286.033 225.284 287.905 225.284C290.065 225.284 291.541 227.084 291.541 229.856C291.541 232.7 289.849 234.284 287.905 234.284C285.457 234.284 284.269 232.088 284.269 229.856ZM299.598 236.696C301.65 238.532 304.494 239.432 307.158 239.432C311.91 239.432 314.79 236.804 314.79 233.348C314.79 227.336 306.114 227.804 306.114 225.86C306.114 225.356 306.51 224.96 307.842 224.96C309.426 224.96 311.442 225.608 312.522 226.472L314.646 222.152C312.774 220.64 310.398 220.028 308.022 220.028C303.738 220.028 300.318 222.08 300.318 225.896C300.318 231.98 308.994 231.548 308.994 233.528C308.994 234.104 308.562 234.5 307.302 234.5C305.538 234.5 303.63 233.78 302.262 232.628L299.598 236.696ZM317.987 240.692L316.007 245.264C316.007 245.264 317.879 246.56 320.327 246.56C323.279 246.56 326.519 245.12 328.067 240.98L335.663 220.46H328.859L326.519 229.1C326.267 230.108 325.907 231.872 325.907 231.872H325.835C325.835 231.872 325.475 230 325.151 228.992L322.415 220.46H315.359L323.243 238.64L322.883 239.504C322.235 241.088 320.903 241.376 319.895 241.376C318.995 241.376 317.987 240.692 317.987 240.692ZM336.31 229.712C336.31 234.824 340.018 239.432 346.642 239.432C349.738 239.432 352.762 238.244 354.598 236.372L352.33 232.016C350.998 233.168 349.054 234.248 347.254 234.248C344.122 234.248 342.61 231.836 342.61 229.64C342.61 227.444 344.086 225.212 347.038 225.212C348.658 225.212 350.314 225.968 351.394 227.012L354.022 222.836C352.186 220.856 349.234 220.028 346.642 220.028C339.982 220.028 336.31 224.744 336.31 229.712ZM357.217 239H363.445V230.648C363.445 227.804 364.777 225.68 367.477 225.68C368.845 225.68 369.529 226.4 369.529 228.128V239H375.757V226.976C375.757 221.756 372.841 220.028 369.097 220.028C366.649 220.028 364.489 221.144 363.445 222.98H363.373C363.373 222.98 363.445 222.332 363.445 221.396V213.26H357.217V239ZM378.708 229.784C378.708 235.58 383.388 239.432 389.22 239.432C395.052 239.432 399.732 235.58 399.732 229.784C399.732 223.952 395.052 220.028 389.184 220.028C383.388 220.028 378.708 223.952 378.708 229.784ZM385.008 229.784C385.008 226.976 386.952 225.212 389.22 225.212C391.488 225.212 393.432 226.976 393.432 229.784C393.432 232.556 391.488 234.248 389.22 234.248C386.952 234.248 385.008 232.556 385.008 229.784ZM402.814 232.16C402.814 238.388 406.342 239.18 409.654 239.18C410.446 239.18 411.094 239.108 411.526 239.072V233.672C411.238 233.708 410.95 233.708 410.77 233.708C409.366 233.708 409.042 233.096 409.042 231.332V213.26H402.814V232.16ZM413.442 229.784C413.442 235.58 418.122 239.432 423.954 239.432C429.786 239.432 434.466 235.58 434.466 229.784C434.466 223.952 429.786 220.028 423.918 220.028C418.122 220.028 413.442 223.952 413.442 229.784ZM419.742 229.784C419.742 226.976 421.686 225.212 423.954 225.212C426.222 225.212 428.166 226.976 428.166 229.784C428.166 232.556 426.222 234.248 423.954 234.248C421.686 234.248 419.742 232.556 419.742 229.784ZM440.176 240.188L438.412 244.904C440.212 245.84 442.948 246.56 445.432 246.56C450.508 246.56 455.908 244.076 455.908 237.308V220.46H450.076V221.396C450.076 221.612 450.112 221.828 450.112 221.828H450.004C448.708 220.532 446.728 220.028 444.964 220.028C439.348 220.028 436.648 224.42 436.648 229.136C436.648 233.888 439.42 238.46 445 238.46C447.16 238.46 448.564 237.812 449.644 236.516H449.716C449.716 236.516 449.68 236.984 449.68 237.2V237.812C449.68 240.548 447.628 241.376 445.396 241.376C443.524 241.376 441.724 240.944 440.176 240.188ZM442.912 228.92C442.912 226.796 444.028 225.212 446.224 225.212C448.096 225.212 449.824 225.932 449.824 229.208C449.824 232.448 448.096 233.276 446.476 233.276C443.992 233.276 442.912 231.224 442.912 228.92ZM460.264 240.692L458.284 245.264C458.284 245.264 460.156 246.56 462.604 246.56C465.556 246.56 468.796 245.12 470.344 240.98L477.94 220.46H471.136L468.796 229.1C468.544 230.108 468.184 231.872 468.184 231.872H468.112C468.112 231.872 467.752 230 467.428 228.992L464.692 220.46H457.636L465.52 238.64L465.16 239.504C464.512 241.088 463.18 241.376 462.172 241.376C461.272 241.376 460.264 240.692 460.264 240.692ZM2.044 271.784C2.044 277.58 6.724 281.432 12.556 281.432C18.388 281.432 23.068 277.58 23.068 271.784C23.068 265.952 18.388 262.028 12.52 262.028C6.724 262.028 2.044 265.952 2.044 271.784ZM8.344 271.784C8.344 268.976 10.288 267.212 12.556 267.212C14.824 267.212 16.768 268.976 16.768 271.784C16.768 274.556 14.824 276.248 12.556 276.248C10.288 276.248 8.344 274.556 8.344 271.784ZM27.2716 281H33.4996V267.644H36.9196V262.784H33.4996V262.208C33.4996 260.624 35.4076 260.408 36.6316 260.408C37.0996 260.408 37.4956 260.444 37.6396 260.48V255.224C36.9916 255.116 36.4156 255.116 35.7676 255.116C32.7796 255.116 27.2716 255.944 27.2716 262.028V262.784H25.0036V267.644H27.2716V281ZM48.0177 288.2H54.2457V281.252C54.2457 280.316 54.1737 279.668 54.1737 279.668H54.2457C55.5777 280.82 57.2337 281.432 58.9617 281.432C63.8937 281.432 67.6017 277.616 67.6017 271.748C67.6017 265.988 64.2897 262.028 59.2497 262.028C57.0177 262.028 54.8937 262.892 53.6337 264.584H53.5617C53.5617 264.584 53.6337 264.008 53.6337 263.396V262.46H48.0177V288.2ZM54.0657 271.856C54.0657 268.652 55.8297 267.284 57.7017 267.284C59.8617 267.284 61.3377 269.084 61.3377 271.856C61.3377 274.7 59.6457 276.284 57.7017 276.284C55.2537 276.284 54.0657 274.088 54.0657 271.856ZM69.7549 271.712C69.7549 276.644 73.3189 281.432 79.9429 281.432C82.7869 281.432 85.8469 280.46 87.8629 278.732L85.5589 274.376C84.0469 275.384 82.2829 276.248 80.4469 276.248C78.4669 276.248 76.5949 275.204 76.1269 272.936H87.8269C87.8989 272.288 87.9709 271.64 87.9709 270.992C87.9709 265.844 84.8749 262.028 79.4029 262.028C73.4269 262.028 69.7549 266.276 69.7549 271.712ZM76.2709 269.372C76.5949 267.896 77.4589 266.6 79.2589 266.6C80.8429 266.6 81.8149 267.86 81.8149 269.372H76.2709ZM90.1807 271.784C90.1807 277.58 94.8607 281.432 100.693 281.432C106.525 281.432 111.205 277.58 111.205 271.784C111.205 265.952 106.525 262.028 100.657 262.028C94.8607 262.028 90.1807 265.952 90.1807 271.784ZM96.4807 271.784C96.4807 268.976 98.4247 267.212 100.693 267.212C102.961 267.212 104.905 268.976 104.905 271.784C104.905 274.556 102.961 276.248 100.693 276.248C98.4247 276.248 96.4807 274.556 96.4807 271.784ZM114.322 288.2H120.55V281.252C120.55 280.316 120.478 279.668 120.478 279.668H120.55C121.882 280.82 123.538 281.432 125.266 281.432C130.198 281.432 133.906 277.616 133.906 271.748C133.906 265.988 130.594 262.028 125.554 262.028C123.322 262.028 121.198 262.892 119.938 264.584H119.866C119.866 264.584 119.938 264.008 119.938 263.396V262.46H114.322V288.2ZM120.37 271.856C120.37 268.652 122.134 267.284 124.006 267.284C126.166 267.284 127.642 269.084 127.642 271.856C127.642 274.7 125.95 276.284 124.006 276.284C121.558 276.284 120.37 274.088 120.37 271.856ZM137.068 274.16C137.068 280.388 140.596 281.18 143.908 281.18C144.7 281.18 145.348 281.108 145.78 281.072V275.672C145.492 275.708 145.204 275.708 145.024 275.708C143.62 275.708 143.296 275.096 143.296 273.332V255.26H137.068V274.16ZM147.696 271.712C147.696 276.644 151.26 281.432 157.884 281.432C160.728 281.432 163.788 280.46 165.804 278.732L163.5 274.376C161.988 275.384 160.224 276.248 158.388 276.248C156.408 276.248 154.536 275.204 154.068 272.936H165.768C165.84 272.288 165.912 271.64 165.912 270.992C165.912 265.844 162.816 262.028 157.344 262.028C151.368 262.028 147.696 266.276 147.696 271.712ZM154.212 269.372C154.536 267.896 155.4 266.6 157.2 266.6C158.784 266.6 159.756 267.86 159.756 269.372H154.212ZM169.202 281H175.106V275.096H169.202V281ZM187.174 277.76C189.622 280.208 193.15 281.432 196.498 281.432C202.438 281.432 205.642 277.724 205.642 273.404C205.642 265.268 194.266 266.132 194.266 262.46C194.266 261.416 195.094 260.624 197.002 260.624C199.018 260.624 201.25 261.632 202.69 262.892L205.354 257.744C203.122 255.764 200.17 254.828 197.29 254.828C191.89 254.828 187.966 257.96 187.966 262.712C187.966 270.776 199.342 270.2 199.342 273.836C199.342 274.844 198.442 275.636 196.678 275.636C194.374 275.636 191.926 274.232 190.486 272.972L187.174 277.76ZM209.691 274.16C209.691 280.388 215.415 281.18 218.367 281.18C219.087 281.18 219.591 281.108 220.059 281.072V275.672C219.663 275.708 219.447 275.708 219.231 275.708C218.043 275.708 215.919 275.42 215.919 273.332V267.644H219.807V262.784H215.919V257.456H209.871V262.784H207.315V267.644H209.691V274.16ZM223.232 274.484C223.232 279.704 226.148 281.432 229.82 281.432C232.304 281.432 234.608 280.208 235.616 278.228H235.688C235.688 278.228 235.616 278.768 235.616 279.38V281H241.592V262.46H235.364V270.668C235.364 273.44 234.104 275.78 231.44 275.78C230.144 275.78 229.46 275.06 229.46 273.332V262.46H223.232V274.484ZM244.8 271.712C244.8 277.472 248.112 281.432 253.152 281.432C255.348 281.432 257.364 280.496 258.516 278.732H258.588C258.588 278.732 258.552 279.2 258.552 279.776V281H264.384V255.26H258.156V262.676C258.156 263.144 258.192 263.504 258.192 263.504H258.12C256.896 262.28 254.916 262.028 253.26 262.028C248.328 262.028 244.8 265.844 244.8 271.712ZM251.064 271.712C251.064 268.868 252.756 267.284 254.7 267.284C257.148 267.284 258.336 269.48 258.336 271.712C258.336 274.916 256.572 276.284 254.7 276.284C252.54 276.284 251.064 274.484 251.064 271.712ZM267.509 271.712C267.509 276.644 271.073 281.432 277.697 281.432C280.541 281.432 283.601 280.46 285.617 278.732L283.313 274.376C281.801 275.384 280.037 276.248 278.201 276.248C276.221 276.248 274.349 275.204 273.881 272.936H285.581C285.653 272.288 285.725 271.64 285.725 270.992C285.725 265.844 282.629 262.028 277.157 262.028C271.181 262.028 267.509 266.276 267.509 271.712ZM274.025 269.372C274.349 267.896 275.213 266.6 277.013 266.6C278.597 266.6 279.569 267.86 279.569 269.372H274.025ZM288.979 281H295.207V272.612C295.207 269.984 296.467 267.68 299.239 267.68C300.607 267.68 301.291 268.4 301.291 270.128V281H307.519V268.976C307.519 263.756 304.603 262.028 300.859 262.028C297.583 262.028 295.819 263.792 294.955 265.232H294.883C294.883 265.232 294.955 264.692 294.955 264.08V262.46H288.979V281ZM312.594 274.16C312.594 280.388 318.318 281.18 321.27 281.18C321.99 281.18 322.494 281.108 322.962 281.072V275.672C322.566 275.708 322.35 275.708 322.134 275.708C320.946 275.708 318.822 275.42 318.822 273.332V267.644H322.71V262.784H318.822V257.456H312.774V262.784H310.218V267.644H312.594V274.16ZM324.911 278.696C326.963 280.532 329.807 281.432 332.471 281.432C337.223 281.432 340.103 278.804 340.103 275.348C340.103 269.336 331.427 269.804 331.427 267.86C331.427 267.356 331.823 266.96 333.155 266.96C334.739 266.96 336.755 267.608 337.835 268.472L339.959 264.152C338.087 262.64 335.711 262.028 333.335 262.028C329.051 262.028 325.631 264.08 325.631 267.896C325.631 273.98 334.307 273.548 334.307 275.528C334.307 276.104 333.875 276.5 332.615 276.5C330.851 276.5 328.943 275.78 327.575 274.628L324.911 278.696ZM352.672 274.16C352.672 280.388 358.396 281.18 361.348 281.18C362.068 281.18 362.572 281.108 363.04 281.072V275.672C362.644 275.708 362.428 275.708 362.212 275.708C361.024 275.708 358.9 275.42 358.9 273.332V267.644H362.788V262.784H358.9V257.456H352.852V262.784H350.296V267.644H352.672V274.16ZM366.393 281H372.621V273.8C372.621 270.416 374.277 268.22 377.733 268.22C378.165 268.22 378.777 268.256 378.993 268.328V262.208C378.777 262.172 378.525 262.136 378.273 262.136C375.501 262.136 373.161 264.224 372.369 266.744H372.297C372.297 266.744 372.369 266.204 372.369 265.592V262.46H366.393V281ZM381.541 274.484C381.541 279.704 384.457 281.432 388.129 281.432C390.613 281.432 392.917 280.208 393.925 278.228H393.997C393.997 278.228 393.925 278.768 393.925 279.38V281H399.901V262.46H393.673V270.668C393.673 273.44 392.413 275.78 389.749 275.78C388.453 275.78 387.769 275.06 387.769 273.332V262.46H381.541V274.484ZM402.676 278.696C404.728 280.532 407.572 281.432 410.236 281.432C414.988 281.432 417.868 278.804 417.868 275.348C417.868 269.336 409.192 269.804 409.192 267.86C409.192 267.356 409.588 266.96 410.92 266.96C412.504 266.96 414.52 267.608 415.6 268.472L417.724 264.152C415.852 262.64 413.476 262.028 411.1 262.028C406.816 262.028 403.396 264.08 403.396 267.896C403.396 273.98 412.072 273.548 412.072 275.528C412.072 276.104 411.64 276.5 410.38 276.5C408.616 276.5 406.708 275.78 405.34 274.628L402.676 278.696ZM422.106 274.16C422.106 280.388 427.83 281.18 430.782 281.18C431.502 281.18 432.006 281.108 432.474 281.072V275.672C432.078 275.708 431.862 275.708 431.646 275.708C430.458 275.708 428.334 275.42 428.334 273.332V267.644H432.222V262.784H428.334V257.456H422.286V262.784H419.73V267.644H422.106V274.16ZM444.646 274.484C444.646 279.704 447.562 281.432 451.234 281.432C453.718 281.432 456.022 280.208 457.03 278.228H457.102C457.102 278.228 457.03 278.768 457.03 279.38V281H463.006V262.46H456.778V270.668C456.778 273.44 455.518 275.78 452.854 275.78C451.558 275.78 450.874 275.06 450.874 273.332V262.46H444.646V274.484ZM465.782 278.696C467.834 280.532 470.678 281.432 473.342 281.432C478.094 281.432 480.974 278.804 480.974 275.348C480.974 269.336 472.298 269.804 472.298 267.86C472.298 267.356 472.694 266.96 474.026 266.96C475.61 266.96 477.626 267.608 478.706 268.472L480.83 264.152C478.958 262.64 476.582 262.028 474.206 262.028C469.922 262.028 466.502 264.08 466.502 267.896C466.502 273.98 475.178 273.548 475.178 275.528C475.178 276.104 474.746 276.5 473.486 276.5C471.722 276.5 469.814 275.78 468.446 274.628L465.782 278.696ZM484.167 281H490.071V275.096H484.167V281Z" fill="#222224"/>
<g clip-path="url(#clip0)">
<path d="M718.921 308.891C734.969 308.891 747.978 306.876 747.978 304.389C747.978 301.902 734.969 299.887 718.921 299.887C702.873 299.887 689.863 301.902 689.863 304.389C689.863 306.876 702.873 308.891 718.921 308.891Z" fill="#3F3D56"/>
<path d="M924.987 323.593C1006.89 323.593 1073.28 257.11 1073.28 175.099C1073.28 93.0884 1006.89 26.6055 924.987 26.6055C843.084 26.6055 776.689 93.0884 776.689 175.099C776.689 257.11 843.084 323.593 924.987 323.593Z" fill="#F2F2F2"/>
<path d="M920.5 268C919.545 268 918.581 267.985 917.634 267.955L917.656 267.268C919.015 267.31 920.402 267.322 921.768 267.303L921.777 267.991C921.352 267.997 920.926 268 920.5 268ZM925.918 267.84L925.878 267.154C927.239 267.073 928.618 266.96 929.976 266.818L930.048 267.502C928.679 267.646 927.29 267.76 925.918 267.84H925.918ZM913.497 267.733C912.124 267.628 910.737 267.49 909.374 267.323L909.458 266.64C910.811 266.806 912.187 266.943 913.55 267.047L913.497 267.733ZM934.157 266.976L934.054 266.296C935.406 266.091 936.769 265.853 938.104 265.588L938.238 266.262C936.893 266.529 935.52 266.77 934.157 266.976H934.157ZM905.274 266.725C903.918 266.495 902.549 266.231 901.206 265.939L901.352 265.266C902.685 265.556 904.044 265.818 905.389 266.046L905.274 266.725ZM942.283 265.361L942.117 264.693C943.445 264.365 944.78 264.002 946.086 263.615L946.281 264.275C944.965 264.665 943.62 265.031 942.283 265.361ZM897.178 264.967C895.848 264.613 894.51 264.224 893.2 263.81L893.407 263.154C894.707 263.565 896.035 263.951 897.355 264.302L897.178 264.967ZM950.225 263.005L949.999 262.355C951.288 261.907 952.584 261.423 953.851 260.916L954.107 261.555C952.83 262.066 951.524 262.554 950.225 263.005H950.225ZM889.268 262.466C887.976 261.991 886.676 261.479 885.405 260.943L885.672 260.309C886.934 260.84 888.224 261.349 889.506 261.82L889.268 262.466ZM957.909 259.931L957.624 259.304C958.861 258.742 960.105 258.142 961.32 257.521L961.633 258.133C960.409 258.76 959.156 259.364 957.909 259.931H957.909ZM881.617 259.244C880.375 258.653 879.128 258.023 877.912 257.373L878.237 256.766C879.444 257.411 880.68 258.036 881.913 258.623L881.617 259.244ZM965.272 256.167L964.931 255.569C966.118 254.892 967.303 254.18 968.451 253.453L968.819 254.035C967.661 254.767 966.468 255.485 965.272 256.167ZM874.299 255.335C873.117 254.632 871.935 253.891 870.783 253.132L871.162 252.558C872.304 253.311 873.478 254.046 874.65 254.743L874.299 255.335ZM972.266 251.742L971.872 251.178C972.989 250.398 974.104 249.58 975.186 248.749L975.605 249.295C974.515 250.132 973.392 250.956 972.266 251.742ZM867.373 250.773C866.262 249.966 865.153 249.121 864.075 248.261L864.504 247.723C865.574 248.577 866.675 249.416 867.777 250.216L867.373 250.773ZM978.83 246.697L978.387 246.171C979.428 245.292 980.464 244.376 981.467 243.449L981.934 243.954C980.924 244.889 979.88 245.812 978.83 246.697ZM860.895 245.601C859.861 244.695 858.833 243.753 857.841 242.8L858.317 242.303C859.302 243.249 860.322 244.184 861.348 245.083L860.895 245.601ZM984.911 241.072L984.421 240.589C985.382 239.616 986.331 238.609 987.244 237.597L987.755 238.057C986.836 239.078 985.879 240.092 984.911 241.072ZM854.917 239.864C853.968 238.866 853.031 237.834 852.131 236.798L852.651 236.347C853.544 237.375 854.474 238.399 855.416 239.389L854.917 239.864ZM990.458 234.915L989.927 234.479C990.794 233.423 991.648 232.334 992.466 231.241L993.017 231.653C992.193 232.754 991.333 233.852 990.458 234.915ZM849.488 233.609C848.636 232.532 847.796 231.42 846.993 230.304L847.552 229.902C848.349 231.009 849.182 232.113 850.028 233.182L849.488 233.609ZM995.423 228.276L994.854 227.89C995.622 226.76 996.373 225.597 997.088 224.432L997.675 224.792C996.954 225.966 996.197 227.138 995.423 228.276ZM844.653 226.89C843.903 225.74 843.169 224.557 842.471 223.373L843.064 223.024C843.757 224.199 844.485 225.373 845.229 226.513L844.653 226.89ZM999.764 221.208L999.162 220.876C999.823 219.68 1000.46 218.452 1001.07 217.226L1001.69 217.531C1001.08 218.766 1000.43 220.004 999.764 221.208ZM840.453 219.761C839.811 218.548 839.189 217.303 838.604 216.062L839.226 215.768C839.807 217 840.425 218.236 841.061 219.439L840.453 219.761ZM1003.44 213.768L1002.81 213.492C1003.36 212.24 1003.88 210.957 1004.37 209.68L1005.02 209.927C1004.52 211.214 1003.99 212.506 1003.44 213.768ZM836.926 212.283C836.398 211.017 835.893 209.722 835.424 208.433L836.071 208.197C836.536 209.477 837.038 210.762 837.561 212.019L836.926 212.283ZM1006.42 206.015L1005.76 205.799C1006.19 204.505 1006.6 203.182 1006.97 201.867L1007.63 202.053C1007.26 203.378 1006.85 204.711 1006.42 206.015V206.015ZM834.099 204.507C833.689 203.195 833.304 201.856 832.955 200.524L833.621 200.349C833.967 201.671 834.349 203 834.755 204.302L834.099 204.507ZM1008.66 198.04L1007.99 197.884C1008.3 196.557 1008.58 195.203 1008.83 193.858L1009.5 193.982C1009.25 195.338 1008.97 196.702 1008.66 198.04V198.04ZM831.997 196.493C831.71 195.149 831.45 193.78 831.225 192.422L831.904 192.309C832.127 193.657 832.385 195.015 832.67 196.349L831.997 196.493ZM1010.16 189.892L1009.48 189.798C1009.66 188.451 1009.82 187.076 1009.94 185.713L1010.63 185.775C1010.5 187.149 1010.34 188.534 1010.16 189.892V189.892ZM830.64 188.321C830.478 186.958 830.345 185.571 830.244 184.197L830.931 184.146C831.03 185.51 831.163 186.887 831.324 188.239L830.64 188.321ZM1010.91 181.642L1010.22 181.611C1010.28 180.247 1010.31 178.864 1010.31 177.5H1011C1011 178.874 1010.97 180.268 1010.91 181.642V181.642ZM830.036 180.058C830.012 179.214 830 178.354 830 177.5C830 176.97 830.005 176.442 830.014 175.914L830.702 175.926C830.693 176.45 830.688 176.974 830.688 177.5C830.688 178.347 830.7 179.202 830.723 180.039L830.036 180.058ZM1010.31 176.54C1010.29 175.175 1010.25 173.792 1010.17 172.429L1010.86 172.391C1010.93 173.765 1010.98 175.158 1010.99 176.533L1010.31 176.54ZM830.865 171.818L830.178 171.775C830.264 170.4 830.383 169.011 830.53 167.647L831.215 167.721C831.068 169.075 830.95 170.453 830.865 171.818ZM1009.85 168.33C1009.71 166.973 1009.54 165.601 1009.34 164.25L1010.02 164.149C1010.22 165.511 1010.4 166.894 1010.53 168.261L1009.85 168.33ZM831.75 163.644L831.07 163.539C831.281 162.178 831.526 160.805 831.798 159.46L832.473 159.596C832.203 160.931 831.96 162.293 831.75 163.644ZM1008.65 160.198C1008.38 158.855 1008.09 157.504 1007.77 156.181L1008.43 156.019C1008.76 157.351 1009.06 158.713 1009.32 160.066L1008.65 160.198ZM833.381 155.586L832.713 155.419C833.047 154.086 833.417 152.742 833.813 151.424L834.472 151.622C834.08 152.93 833.712 154.264 833.381 155.586ZM1006.7 152.209C1006.32 150.899 1005.9 149.581 1005.46 148.291L1006.11 148.067C1006.55 149.367 1006.98 150.695 1007.36 152.016L1006.7 152.209ZM835.75 147.702L835.1 147.473C835.558 146.172 836.052 144.865 836.568 143.588L837.206 143.846C836.694 145.113 836.203 146.411 835.75 147.702H835.75ZM1004.03 144.434C1003.53 143.168 1002.99 141.897 1002.43 140.656L1003.06 140.374C1003.62 141.624 1004.16 142.905 1004.67 144.181L1004.03 144.434ZM838.839 140.063L838.213 139.776C838.788 138.524 839.4 137.269 840.032 136.045L840.643 136.361C840.016 137.575 839.409 138.821 838.839 140.063ZM1000.66 136.954C1000.05 135.739 999.392 134.522 998.721 133.336L999.32 132.997C999.997 134.192 1000.65 135.419 1001.27 136.643L1000.66 136.954ZM842.616 132.746L842.019 132.402C842.706 131.21 843.43 130.017 844.171 128.856L844.751 129.226C844.016 130.379 843.297 131.563 842.616 132.746ZM996.618 129.809C995.891 128.651 995.129 127.498 994.355 126.381L994.92 125.989C995.7 127.114 996.468 128.276 997.2 129.443L996.618 129.809ZM847.046 125.809L846.483 125.413C847.276 124.287 848.106 123.166 848.949 122.079L849.493 122.501C848.656 123.579 847.833 124.692 847.046 125.809ZM991.936 123.059C991.107 121.973 990.243 120.893 989.369 119.849L989.896 119.407C990.777 120.459 991.648 121.547 992.483 122.641L991.936 123.059ZM852.088 119.309L851.564 118.862C852.454 117.817 853.382 116.776 854.322 115.769L854.825 116.238C853.893 117.238 852.972 118.271 852.088 119.309ZM986.657 116.759C985.733 115.753 984.774 114.756 983.808 113.795L984.293 113.307C985.267 114.275 986.233 115.28 987.164 116.294L986.657 116.759ZM857.698 113.296L857.217 112.804C858.201 111.842 859.22 110.89 860.244 109.975L860.702 110.489C859.686 111.396 858.675 112.341 857.698 113.296ZM980.826 110.963C979.813 110.044 978.767 109.138 977.717 108.27L978.156 107.739C979.213 108.614 980.267 109.528 981.288 110.454L980.826 110.963ZM863.83 107.821L863.395 107.287C864.46 106.421 865.56 105.566 866.665 104.746L867.075 105.299C865.978 106.112 864.886 106.961 863.83 107.821ZM974.488 105.72C973.395 104.896 972.27 104.089 971.145 103.319L971.534 102.751C972.667 103.527 973.801 104.34 974.902 105.17L974.488 105.72ZM870.43 102.929L870.046 102.358C871.186 101.591 872.358 100.841 873.532 100.126L873.89 100.715C872.725 101.423 871.561 102.168 870.43 102.929ZM967.695 101.074C966.532 100.354 965.338 99.6521 964.146 98.9878L964.48 98.3866C965.682 99.056 966.885 99.7632 968.058 100.488L967.695 101.074ZM877.446 98.6613L877.116 98.0574C878.321 97.398 879.557 96.7581 880.789 96.1554L881.091 96.7738C879.869 97.3717 878.642 98.0067 877.446 98.6613L877.446 98.6613ZM960.503 97.0668C959.279 96.4567 958.024 95.8673 956.775 95.315L957.053 94.6856C958.312 95.2421 959.576 95.836 960.81 96.4508L960.503 97.0668ZM884.817 95.0557L884.544 94.4243C885.803 93.8784 887.092 93.3549 888.373 92.8681L888.617 93.5116C887.346 93.9945 886.067 94.5141 884.817 95.0557ZM952.968 93.7363C951.694 93.2421 950.39 92.7707 949.092 92.3352L949.311 91.6826C950.619 92.1216 951.933 92.5966 953.217 93.0948L952.968 93.7363ZM892.494 92.1408L892.28 91.4868C893.587 91.058 894.922 90.6543 896.246 90.2872L896.43 90.9502C895.116 91.3146 893.792 91.7152 892.494 92.1408ZM945.164 91.1175C943.852 90.7433 942.513 90.3949 941.185 90.0818L941.343 89.4121C942.681 89.7275 944.03 90.0786 945.353 90.4555L945.164 91.1175ZM900.416 89.9422L900.263 89.2713C901.604 88.965 902.969 88.6859 904.322 88.4419L904.444 89.1191C903.102 89.3614 901.747 89.6383 900.416 89.9422ZM937.162 89.231C935.822 88.9794 934.457 88.7557 933.105 88.5658L933.2 87.8843C934.563 88.0757 935.939 88.3011 937.289 88.5545L937.162 89.231ZM908.507 88.4821L908.416 87.7999C909.778 87.6181 911.163 87.4652 912.533 87.346L912.593 88.0315C911.234 88.1501 909.859 88.3017 908.507 88.4821ZM929.021 88.0873C927.665 87.9596 926.286 87.8611 924.92 87.7951L924.953 87.1075C926.329 87.1742 927.72 87.2734 929.086 87.4021L929.021 88.0873ZM916.697 87.7675L916.668 87.08C917.933 87.0272 919.222 87.0003 920.5 87L920.812 87.0005L920.809 87.6887L920.5 87.6882C919.232 87.6885 917.952 87.7153 916.697 87.7675Z" fill="#3F3D56"/>
<path d="M735.729 280.362C732.02 294.092 719.315 302.595 719.315 302.595C719.315 302.595 712.624 288.838 716.334 275.108C720.043 261.379 732.748 252.876 732.748 252.876C732.748 252.876 739.438 266.633 735.729 280.362Z" fill="#F04B5D"/>
<path d="M701.986 280.362C705.695 294.092 718.4 302.595 718.4 302.595C718.4 302.595 725.091 288.838 721.382 275.108C717.673 261.379 704.968 252.876 704.968 252.876C704.968 252.876 698.277 266.633 701.986 280.362Z" fill="#F04B5D"/>
<path d="M707.437 277.411C717.615 287.332 718.858 302.583 718.858 302.583C718.858 302.583 703.599 301.749 693.421 291.828C683.243 281.907 682 266.656 682 266.656C682 266.656 697.259 267.49 707.437 277.411Z" fill="#3F3D56"/>
<path d="M730.279 277.411C720.101 287.332 718.858 302.583 718.858 302.583C718.858 302.583 734.116 301.749 744.294 291.828C754.472 281.907 755.716 266.656 755.716 266.656C755.716 266.656 740.457 267.49 730.279 277.411Z" fill="#3F3D56"/>
<path d="M1049.05 361C1069.82 361 1086.66 358.391 1086.66 355.173C1086.66 351.955 1069.82 349.346 1049.05 349.346C1028.28 349.346 1011.44 351.955 1011.44 355.173C1011.44 358.391 1028.28 361 1049.05 361Z" fill="#3F3D56"/>
<path d="M1070.8 324.075C1066 341.845 1049.56 352.85 1049.56 352.85C1049.56 352.85 1040.9 335.045 1045.7 317.275C1050.5 299.505 1066.94 288.499 1066.94 288.499C1066.94 288.499 1075.6 306.305 1070.8 324.075Z" fill="#F04B5D"/>
<path d="M1027.13 324.075C1031.93 341.845 1048.37 352.85 1048.37 352.85C1048.37 352.85 1057.03 335.045 1052.23 317.275C1047.43 299.505 1030.99 288.499 1030.99 288.499C1030.99 288.499 1022.33 306.305 1027.13 324.075Z" fill="#F04B5D"/>
<path d="M1034.18 320.256C1047.36 333.096 1048.97 352.836 1048.97 352.836C1048.97 352.836 1029.22 351.756 1016.04 338.915C1002.87 326.074 1001.26 306.335 1001.26 306.335C1001.26 306.335 1021.01 307.415 1034.18 320.256Z" fill="#3F3D56"/>
<path d="M1063.75 320.256C1050.58 333.096 1048.97 352.836 1048.97 352.836C1048.97 352.836 1068.72 351.756 1081.89 338.915C1095.06 326.074 1096.67 306.335 1096.67 306.335C1096.67 306.335 1076.92 307.415 1063.75 320.256Z" fill="#3F3D56"/>
<path d="M863.62 339.694C923.129 339.694 971.37 332.22 971.37 322.999C971.37 313.778 923.129 306.304 863.62 306.304C804.111 306.304 755.87 313.778 755.87 322.999C755.87 332.22 804.111 339.694 863.62 339.694Z" fill="#3F3D56"/>
<path d="M915.052 109.86C919.119 109.86 922.416 106.558 922.416 102.486C922.416 98.4129 919.119 95.1113 915.052 95.1113C910.985 95.1113 907.688 98.4129 907.688 102.486C907.688 106.558 910.985 109.86 915.052 109.86Z" fill="#2F2E41"/>
<path d="M907.161 99.3254C907.162 97.5066 907.833 95.7521 909.047 94.399C910.261 93.0459 911.931 92.1896 913.737 91.9948C912.708 91.8823 911.668 91.988 910.683 92.3052C909.698 92.6223 908.791 93.1436 908.021 93.8353C907.25 94.5269 906.634 95.3732 906.213 96.3192C905.791 97.2651 905.573 98.2895 905.573 99.3254C905.573 100.361 905.791 101.386 906.213 102.332C906.634 103.278 907.25 104.124 908.021 104.816C908.791 105.507 909.698 106.029 910.683 106.346C911.668 106.663 912.708 106.769 913.737 106.656C911.931 106.461 910.261 105.605 909.047 104.252C907.833 102.899 907.162 101.144 907.161 99.3254Z" fill="#2F2E41"/>
<path d="M907.688 102.485C907.688 102.485 906.544 107.753 913.691 109.86L907.688 102.485Z" fill="#F04B5D"/>
<path d="M918.098 152.575C931.752 152.575 942.821 141.492 942.821 127.819C942.821 114.146 931.752 103.062 918.098 103.062C904.443 103.062 893.374 114.146 893.374 127.819C893.374 141.492 904.443 152.575 918.098 152.575Z" fill="#2F2E41"/>
<path d="M894.226 205.04L893.341 223.65L935.822 237.829C935.822 237.829 933.609 214.345 934.937 212.13L894.226 205.04Z" fill="#A0616A"/>
<path d="M825.195 287.897L821.213 303.406H839.798V287.897H825.195Z" fill="#A0616A"/>
<path d="M921.662 292.02L930.069 294.987L934.494 283.862L926.972 277.928L921.662 292.02Z" fill="#A0616A"/>
<path d="M936.56 272.71C936.56 272.71 949.097 271.06 949.097 281.695C949.097 292.329 950.867 318.471 933.167 315.37C933.167 315.37 925.201 316.256 928.299 306.951C928.299 306.951 931.452 303.166 930.318 300.849C929.184 298.532 922.546 296.76 923.431 295.43C924.316 294.101 934.052 283.467 934.052 283.467L936.56 272.71Z" fill="#2F2E41"/>
<path d="M936.707 235.613L893.341 220.548L890.686 231.182C890.686 231.182 825.638 193.52 821.655 219.219C821.655 219.219 818.115 240.044 823.425 267.516L823.868 289.671C823.868 289.671 834.93 292.329 840.24 290.114L840.683 266.187C840.683 266.187 845.108 250.678 842.895 238.715C842.895 238.715 876.083 264.857 891.128 267.959C891.128 267.959 838.47 308.724 844.665 321.573C850.86 334.423 858.383 336.638 868.118 334.423C874.827 332.896 904.862 308.644 922.887 293.712C935.353 283.387 942.432 267.794 941.544 251.619C941.222 245.741 939.867 240.044 936.707 235.613Z" fill="#2F2E41"/>
<path d="M824.31 297.646C824.31 297.646 823.868 292.328 821.213 294.544C818.558 296.759 809.265 305.178 809.265 305.178C809.265 305.178 775.634 314.04 795.99 322.459C795.99 322.459 809.265 325.117 823.425 318.914C823.425 318.914 846.042 319.563 845.575 313.921C845.108 308.28 839.798 298.858 839.798 298.858C839.798 298.858 833.603 303.406 826.523 297.202L824.31 297.646Z" fill="#2F2E41"/>
<path d="M911.926 154.084C920.969 154.084 928.299 146.744 928.299 137.689C928.299 128.635 920.969 121.295 911.926 121.295C902.884 121.295 895.554 128.635 895.554 137.689C895.554 146.744 902.884 154.084 911.926 154.084Z" fill="#A0616A"/>
<path d="M925.201 138.576C925.201 138.576 927.857 151.869 932.724 154.971L905.731 186.873L895.554 177.125L903.076 163.832C903.076 163.832 911.484 158.958 908.829 152.312L925.201 138.576Z" fill="#A0616A"/>
<path d="M934.937 156.3C934.937 156.3 954.407 160.288 956.619 173.137C958.832 185.987 954.407 209.471 954.407 209.471L945.114 278.593C945.114 278.593 944.672 307.837 933.167 302.963C921.661 298.089 936.264 275.935 936.264 275.935L940.247 232.512C940.247 232.512 942.017 195.735 938.477 191.304L924.316 186.873C924.316 186.873 927.414 157.629 934.937 156.3Z" fill="#A0616A"/>
<path d="M903.076 163.832C903.076 163.832 889.801 163.389 881.393 174.023C872.986 184.657 852.631 192.633 852.631 192.633L801.742 212.572C801.742 212.572 792.45 196.177 786.697 201.938C780.945 207.698 797.317 222.32 804.84 220.547C812.363 218.775 857.941 205.039 857.941 205.039L894.226 188.645L903.076 163.832Z" fill="#A0616A"/>
<path d="M932.038 153.914C932.038 153.914 915.024 176.681 907.501 176.238C899.979 175.795 905.045 162.333 905.045 162.333L899.735 163.662C899.735 163.662 892.456 177.568 891.571 178.454C891.571 178.454 880.951 195.734 892.899 199.722L893.341 209.027C893.341 209.027 922.989 207.698 935.822 214.344L938.477 191.303C938.477 191.303 921.661 182.885 930.954 166.49C930.954 166.49 934.251 157.902 937.791 157.016L932.038 153.914Z" fill="#D0CDE1"/>
<path opacity="0.1" d="M936.485 275.713L868.782 325.339C868.782 325.339 936.928 285.018 936.485 275.713Z" fill="black"/>
<path d="M912.816 118.446C904.1 118.446 897.035 122.573 897.035 127.664C897.035 129.942 898.455 132.024 900.799 133.632L903.837 131.428L903.011 134.881C903.354 135.04 903.704 135.194 904.069 135.336L908.607 130.034V136.548C909.999 136.771 911.406 136.883 912.816 136.882C921.531 136.882 928.597 132.755 928.597 127.664C928.597 122.573 921.531 118.446 912.816 118.446Z" fill="#2F2E41"/>
<path d="M945.142 121.38C949.21 121.38 952.507 118.079 952.507 114.006C952.507 109.933 949.21 106.632 945.142 106.632C941.075 106.632 937.778 109.933 937.778 114.006C937.778 118.079 941.075 121.38 945.142 121.38Z" fill="#2F2E41"/>
<path d="M937.252 110.846C937.252 109.027 937.924 107.273 939.137 105.919C940.351 104.566 942.021 103.71 943.827 103.515C942.799 103.403 941.758 103.509 940.773 103.826C939.788 104.143 938.881 104.664 938.111 105.356C937.341 106.047 936.725 106.894 936.303 107.84C935.881 108.786 935.663 109.81 935.663 110.846C935.663 111.882 935.881 112.906 936.303 113.852C936.725 114.798 937.341 115.645 938.111 116.336C938.881 117.028 939.788 117.549 940.773 117.866C941.758 118.183 942.799 118.289 943.827 118.177C942.021 117.982 940.351 117.126 939.137 115.772C937.924 114.419 937.252 112.665 937.252 110.846Z" fill="#2F2E41"/>
<path d="M937.778 114.006C937.778 114.006 936.634 119.273 943.782 121.38L937.778 114.006Z" fill="#F04B5D"/>
<path d="M928.963 139.241C929.669 139.241 930.241 137.951 930.241 136.361C930.241 134.77 929.669 133.48 928.963 133.48C928.257 133.48 927.684 134.77 927.684 136.361C927.684 137.951 928.257 139.241 928.963 139.241Z" fill="#A0616A"/>
<path d="M787.874 147.503L768.47 152.21L768.407 152.225L766.298 154.137L765.691 154.687L764.389 154.451L762.085 154.034L763.691 148.608L763.992 138.259L762.888 131.929L769.009 127.709C769.009 127.709 780.95 127.006 787.874 147.503Z" fill="#D0CDE1"/>
<path opacity="0.1" d="M768.47 152.21C768.207 152.772 768.758 152.401 768.457 152.979L765.648 153.883L764.389 154.451L762.085 154.034L763.691 148.608L763.992 138.259L762.888 131.929L769.009 127.709C769.009 127.709 775.579 137.025 768.47 152.21Z" fill="black"/>
<path d="M810.752 132.632C810.752 132.632 785.265 144.488 774.929 146.297C764.594 148.105 765.497 158.454 765.497 158.454L823.395 149.411C823.395 149.411 821.388 140.067 810.752 132.632Z" fill="#D0CDE1"/>
<path d="M761.584 130.622C761.584 130.622 765.999 141.373 761.082 154.736L766.802 157.349L769.009 154.736L769.059 154.485L762.988 153.933C762.988 153.933 768.006 140.469 763.892 131.124C763.892 131.124 762.988 129.115 761.584 130.622Z" fill="#F04B5D"/>
<path d="M845.772 210.3C823.194 205.276 802.173 215.675 802.173 215.675L802.115 215.624L793.744 208.14L761.032 154.686L769.009 154.737C791.185 141.474 822.392 143.282 822.392 143.282C835.838 158.555 845.772 210.3 845.772 210.3Z" fill="#F04B5D"/>
<path opacity="0.1" d="M802.115 215.624L793.744 208.14L761.032 154.687L769.009 154.737C769.009 154.737 800.804 196.785 802.115 215.624Z" fill="black"/>
<path d="M805.789 173.917C812.624 171.818 817.084 166.589 815.752 162.239C814.419 157.889 807.799 156.064 800.964 158.163C794.129 160.262 789.669 165.49 791.001 169.841C792.334 174.191 798.955 176.016 805.789 173.917Z" fill="#D0CDE1"/>
<path d="M983.912 236.912C945.291 275.532 903.684 303.787 867.667 318.269C849.657 325.511 833.092 329.29 819.023 329.233C804.961 329.175 793.467 325.289 785.458 317.279C777.448 309.27 773.561 297.776 773.504 283.713C773.447 269.645 777.226 253.08 784.468 235.07C798.95 199.053 827.204 157.446 865.825 118.825C904.446 80.2044 946.053 51.9502 982.07 37.4679C1000.08 30.226 1016.65 26.4467 1030.71 26.5041C1044.78 26.5615 1056.27 30.4482 1064.28 38.4576C1072.29 46.4671 1076.18 57.9609 1076.23 72.0234C1076.29 86.0917 1072.51 102.657 1065.27 120.667C1050.79 156.684 1022.53 198.291 983.912 236.912Z" stroke="#DF1515" stroke-width="2"/>
<circle cx="1076" cy="70" r="7" fill="#2D7EEC"/>
</g>
<defs>
<clipPath id="clip0">
<rect x="682" width="416" height="361" fill="white"/>
</clipPath>
</defs>
</svg>
