<svg width="350" height="420" viewBox="0 0 350 420" fill="none" xmlns="http://www.w3.org/2000/svg">
<rect width="350" height="420" rx="6" fill="white"/>
<path d="M32.4 202H60.72V179.12H55.12V197.232H49.36V179.12H43.76V197.232H38V179.12H32.4V202ZM64.7935 202H70.3295V195.952H72.0575L75.5455 202H81.8495L76.3455 193.424V193.36L81.1775 185.52H75.1615L71.8975 191.312H70.3295V185.52H64.7935V202ZM82.0843 193.808C82.0843 198.96 86.2443 202.384 91.4283 202.384C96.6123 202.384 100.772 198.96 100.772 193.808C100.772 188.624 96.6123 185.136 91.3963 185.136C86.2443 185.136 82.0843 188.624 82.0843 193.808ZM87.6843 193.808C87.6843 191.312 89.4123 189.744 91.4283 189.744C93.4443 189.744 95.1723 191.312 95.1723 193.808C95.1723 196.272 93.4443 197.776 91.4283 197.776C89.4123 197.776 87.6843 196.272 87.6843 193.808ZM101.859 202.16C108.259 202.16 110.179 197.552 110.179 190.832V189.904H112.931V202H118.467V185.52H104.963V190.8C104.963 196.464 103.331 197.136 101.859 197.328V202.16ZM122.169 202H130.393C135.001 202 136.921 199.728 136.921 196.368C136.921 193.04 135.001 190.672 130.393 190.672H127.705V185.52H122.169V202ZM127.705 198.384V194.256H129.273C130.681 194.256 131.385 195.184 131.385 196.336C131.385 197.488 130.681 198.384 129.369 198.384H127.705ZM139.356 202H144.892V195.984H149.98V202H155.516V185.52H149.98V191.344H144.892V185.52H139.356V202ZM159.231 202H164.607L169.183 194.768C169.439 194.32 169.791 193.808 170.079 193.136H170.143C170.079 193.776 170.079 194.416 170.079 194.8V202H175.295V185.52H169.919L165.343 192.784C165.055 193.264 164.735 193.744 164.447 194.416H164.383C164.415 194 164.447 193.36 164.447 192.784V185.52H159.231V202ZM179.012 202H184.548V195.952H186.276L189.764 202H196.068L190.564 193.424V193.36L195.396 185.52H189.38L186.116 191.312H184.548V185.52H179.012V202ZM196.61 197.36C196.61 200.208 198.818 202.384 201.986 202.384C203.874 202.384 205.794 201.52 206.882 199.984H206.946C206.946 199.984 206.882 200.464 206.882 201.008V202H211.938V191.856C211.938 187.664 209.122 185.136 204.578 185.136C201.89 185.136 199.01 186.192 197.602 187.28L199.522 191.184C200.834 190.32 202.466 189.616 204.066 189.616C205.282 189.616 206.402 190.064 206.402 191.44V191.728H205.922C201.858 191.728 196.61 192.944 196.61 197.36ZM202.082 196.848C202.082 195.344 204.258 194.896 205.954 194.896H206.466V195.344C206.466 196.688 205.25 198.256 203.65 198.256C202.626 198.256 202.082 197.616 202.082 196.848ZM214.746 202H220.026L220.41 194.416C220.474 193.136 220.378 191.6 220.378 191.6H220.442C220.442 191.6 221.05 192.976 221.402 194.032L223.578 199.792H228.058L230.234 194.032C230.65 193.008 231.13 191.6 231.13 191.6H231.194C231.194 191.6 231.13 193.136 231.162 194.416L231.546 202H236.858L235.29 185.52H228.922L226.49 192.752C226.202 193.584 225.818 194.672 225.818 194.672H225.786C225.786 194.672 225.434 193.584 225.146 192.752L222.714 185.52H216.314L214.746 202Z" fill="#6FCF97"/>
<path d="M51.2 238H52.752V231.232H56.72V238H58.272V229.904H51.2V238ZM60.1408 233.936C60.1408 236.4 62.0928 238.192 64.5088 238.192C66.9088 238.192 68.8608 236.4 68.8608 233.936C68.8608 231.488 66.9088 229.712 64.4928 229.712C62.0928 229.712 60.1408 231.488 60.1408 233.936ZM61.7248 233.936C61.7248 232.256 62.9728 231.056 64.5088 231.056C66.0288 231.056 67.2928 232.256 67.2928 233.936C67.2928 235.632 66.0288 236.848 64.5088 236.848C62.9728 236.848 61.7248 235.632 61.7248 233.936ZM70.7313 238H74.1873C75.9473 238 77.1633 237.2 77.1633 235.696C77.1633 234.8 76.6353 234.016 75.6273 233.776V233.76C76.3633 233.44 76.7793 232.768 76.7793 231.984C76.7793 230.624 75.7073 229.904 74.0753 229.904H70.7313V238ZM72.2833 233.328V230.976H73.7552C74.7313 230.976 75.1953 231.36 75.1953 232.096C75.1953 232.848 74.7313 233.328 73.8033 233.328H72.2833ZM72.2833 236.912V234.368H73.9313C75.0033 234.368 75.5953 234.848 75.5953 235.648C75.5953 236.4 75.0673 236.912 73.9473 236.912H72.2833ZM86.3718 238H87.9238V229.904H86.3718V238ZM79.0438 238H82.1638C84.1958 238 85.1238 236.96 85.1238 235.44C85.1238 233.6 83.8598 232.832 82.1798 232.832H80.5958V229.904H79.0438V238ZM80.5958 236.88V233.952H81.9398C83.0598 233.952 83.5558 234.56 83.5558 235.424C83.5558 236.272 83.0758 236.88 81.9557 236.88H80.5958ZM90.325 238H100.789V229.904H99.301V236.656H96.309V229.904H94.805V236.656H91.813V229.904H90.325V238ZM102.656 233.952C102.656 236.352 104.416 238.192 106.96 238.192C108.08 238.192 109.312 237.76 110.096 237.04L109.44 235.904C108.8 236.48 107.92 236.848 107.056 236.848C105.6 236.848 104.352 235.904 104.272 234.16H110.16C110.192 233.936 110.224 233.712 110.224 233.504C110.224 231.424 109.008 229.712 106.72 229.712C104.416 229.712 102.656 231.376 102.656 233.952ZM104.32 233.04C104.544 231.696 105.488 230.912 106.688 230.912C107.744 230.912 108.608 231.648 108.656 233.04H104.32ZM112.091 238H113.643V234.528H117.739V238H119.291V229.904H117.739V233.2H113.643V229.904H112.091V238ZM121.684 238H123.172L126.676 233.168C126.932 232.784 127.332 232.24 127.38 232.096H127.412C127.412 232.224 127.364 232.784 127.364 233.168V238H128.868V229.904H127.364L123.876 234.736C123.604 235.12 123.22 235.68 123.156 235.824H123.124C123.14 235.744 123.172 235.168 123.172 234.736V229.904H121.684V238ZM130.719 233.952C130.719 236.352 132.479 238.192 135.023 238.192C136.143 238.192 137.375 237.76 138.159 237.04L137.503 235.904C136.863 236.48 135.983 236.848 135.119 236.848C133.663 236.848 132.415 235.904 132.335 234.16H138.223C138.255 233.936 138.287 233.712 138.287 233.504C138.287 231.424 137.071 229.712 134.783 229.712C132.479 229.712 130.719 231.376 130.719 233.952ZM132.383 233.04C132.607 231.696 133.551 230.912 134.751 230.912C135.807 230.912 136.671 231.648 136.719 233.04H132.383ZM143.753 239.68L143.209 240.864C143.209 240.864 143.865 241.36 144.761 241.36C145.897 241.36 146.905 240.72 147.385 239.456L151.193 229.904H149.513L147.545 235.216C147.401 235.632 147.273 236.176 147.273 236.176H147.241C147.241 236.176 147.097 235.6 146.937 235.2L144.905 229.904H143.161L146.553 237.904L146.153 238.832C145.849 239.568 145.321 240.032 144.681 240.032C144.201 240.032 143.753 239.68 143.753 239.68ZM151.906 233.952C151.906 236.384 153.682 238.192 156.242 238.192C157.506 238.192 158.738 237.68 159.474 236.896L158.85 235.76C158.226 236.416 157.25 236.848 156.354 236.848C154.674 236.848 153.49 235.584 153.49 233.936C153.49 232.288 154.674 231.056 156.306 231.056C157.154 231.056 158.002 231.44 158.546 231.984L159.282 230.896C158.514 230.08 157.314 229.712 156.242 229.712C153.698 229.712 151.906 231.552 151.906 233.952ZM161.153 238H162.705V231.232H166.673V238H168.225V229.904H161.153V238ZM170.094 233.952C170.094 236.352 171.854 238.192 174.398 238.192C175.518 238.192 176.75 237.76 177.534 237.04L176.878 235.904C176.238 236.48 175.358 236.848 174.494 236.848C173.038 236.848 171.79 235.904 171.71 234.16H177.598C177.63 233.936 177.662 233.712 177.662 233.504C177.662 231.424 176.446 229.712 174.158 229.712C171.854 229.712 170.094 231.376 170.094 233.952ZM171.758 233.04C171.982 231.696 172.926 230.912 174.126 230.912C175.182 230.912 176.046 231.648 176.094 233.04H171.758ZM179.528 238H182.984C184.744 238 185.96 237.2 185.96 235.696C185.96 234.8 185.432 234.016 184.424 233.776V233.76C185.16 233.44 185.576 232.768 185.576 231.984C185.576 230.624 184.504 229.904 182.872 229.904H179.528V238ZM181.08 233.328V230.976H182.552C183.528 230.976 183.992 231.36 183.992 232.096C183.992 232.848 183.528 233.328 182.6 233.328H181.08ZM181.08 236.912V234.368H182.728C183.8 234.368 184.392 234.848 184.392 235.648C184.392 236.4 183.864 236.912 182.744 236.912H181.08ZM187.169 235.792C187.169 237.312 188.465 238.192 189.873 238.192C191.073 238.192 192.065 237.472 192.529 236.544H192.561C192.561 236.544 192.513 236.816 192.513 237.184V238H193.969V232.88C193.969 230.832 192.801 229.712 190.769 229.712C189.633 229.712 188.401 230.128 187.745 230.672L188.369 231.808C189.025 231.344 189.841 231.024 190.641 231.024C191.649 231.024 192.417 231.472 192.417 232.8V232.96H192.001C190.321 232.96 187.169 233.248 187.169 235.792ZM188.721 235.664C188.721 234.176 190.865 234.08 192.017 234.08H192.417V234.384C192.417 235.584 191.601 236.96 190.241 236.96C189.233 236.96 188.721 236.304 188.721 235.664ZM195.735 233.952C195.735 236.352 197.495 238.192 200.039 238.192C201.159 238.192 202.391 237.76 203.175 237.04L202.519 235.904C201.879 236.48 200.999 236.848 200.135 236.848C198.679 236.848 197.431 235.904 197.351 234.16H203.239C203.271 233.936 203.303 233.712 203.303 233.504C203.303 231.424 202.087 229.712 199.799 229.712C197.495 229.712 195.735 231.376 195.735 233.952ZM197.399 233.04C197.623 231.696 198.567 230.912 199.766 230.912C200.823 230.912 201.687 231.648 201.735 233.04H197.399ZM204.833 238H206.337L206.689 233.184C206.721 232.704 206.673 231.792 206.673 231.792H206.705C206.705 231.792 206.961 232.4 207.217 232.992L209.137 237.024H210.465L212.385 232.976C212.689 232.352 212.897 231.792 212.897 231.792H212.929C212.929 231.792 212.897 232.704 212.913 233.184L213.265 238H214.769L214.065 229.904H212.369L210.257 234.48C210.049 234.976 209.809 235.568 209.809 235.568H209.777C209.777 235.568 209.553 234.96 209.329 234.48L207.265 229.904H205.537L204.833 238ZM216.328 233.936C216.328 236.4 218.28 238.192 220.696 238.192C223.096 238.192 225.048 236.4 225.048 233.936C225.048 231.488 223.096 229.712 220.68 229.712C218.28 229.712 216.328 231.488 216.328 233.936ZM217.912 233.936C217.912 232.256 219.16 231.056 220.696 231.056C222.216 231.056 223.48 232.256 223.48 233.936C223.48 235.632 222.216 236.848 220.696 236.848C219.16 236.848 217.912 235.632 217.912 233.936ZM226.391 233.952C226.391 236.384 228.167 238.192 230.727 238.192C231.991 238.192 233.223 237.68 233.959 236.896L233.335 235.76C232.711 236.416 231.735 236.848 230.839 236.848C229.159 236.848 227.975 235.584 227.975 233.936C227.975 232.288 229.159 231.056 230.791 231.056C231.639 231.056 232.487 231.44 233.031 231.984L233.767 230.896C232.999 230.08 231.799 229.712 230.727 229.712C228.183 229.712 226.391 231.552 226.391 233.952ZM237.59 238H239.126V231.232H241.958V229.904H234.774V231.232H237.59V238ZM243.481 238H244.969L248.473 233.168C248.729 232.784 249.129 232.24 249.177 232.096H249.209C249.209 232.224 249.161 232.784 249.161 233.168V238H250.665V229.904H249.161L245.673 234.736C245.401 235.12 245.017 235.68 244.953 235.824H244.921C244.937 235.744 244.969 235.168 244.969 234.736V229.904H243.481V238Z" fill="#222224"/>
<circle cx="34" cy="234" r="4" fill="#F04B5D"/>
<circle cx="34" cy="268" r="4" fill="#F04B5D"/>
<path d="M51.2 272H52.752V265.232H56.72V272H58.272V263.904H51.2V272ZM60.1408 267.936C60.1408 270.4 62.0928 272.192 64.5088 272.192C66.9088 272.192 68.8608 270.4 68.8608 267.936C68.8608 265.488 66.9088 263.712 64.4928 263.712C62.0928 263.712 60.1408 265.488 60.1408 267.936ZM61.7248 267.936C61.7248 266.256 62.9728 265.056 64.5088 265.056C66.0288 265.056 67.2928 266.256 67.2928 267.936C67.2928 269.632 66.0288 270.848 64.5088 270.848C62.9728 270.848 61.7248 269.632 61.7248 267.936ZM72.1121 270.72C73.1361 269.12 73.2641 266.816 73.2641 265.6V265.168H75.6961V270.72H72.1121ZM69.5201 270.72V273.92H70.9761V272H76.9761V273.92H78.4001V270.72H77.2481V263.904H71.7761V265.392C71.7761 266.64 71.6481 269.168 70.5121 270.72H69.5201ZM80.0281 272H81.5801V265.232H85.1001V263.904H80.0281V272ZM85.8126 267.936C85.8126 270.4 87.7646 272.192 90.1806 272.192C92.5806 272.192 94.5326 270.4 94.5326 267.936C94.5326 265.488 92.5806 263.712 90.1646 263.712C87.7646 263.712 85.8126 265.488 85.8126 267.936ZM87.3966 267.936C87.3966 266.256 88.6446 265.056 90.1806 265.056C91.7006 265.056 92.9646 266.256 92.9646 267.936C92.9646 269.632 91.7006 270.848 90.1806 270.848C88.6446 270.848 87.3966 269.632 87.3966 267.936ZM98.0895 272H99.6255V265.232H102.458V263.904H95.2735V265.232H98.0895V272ZM103.188 267.936C103.188 270.4 105.14 272.192 107.556 272.192C109.956 272.192 111.908 270.4 111.908 267.936C111.908 265.488 109.956 263.712 107.54 263.712C105.14 263.712 103.188 265.488 103.188 267.936ZM104.772 267.936C104.772 266.256 106.02 265.056 107.556 265.056C109.076 265.056 110.34 266.256 110.34 267.936C110.34 269.632 109.076 270.848 107.556 270.848C106.02 270.848 104.772 269.632 104.772 267.936ZM113.778 272H117.234C118.994 272 120.21 271.2 120.21 269.696C120.21 268.8 119.682 268.016 118.674 267.776V267.76C119.41 267.44 119.826 266.768 119.826 265.984C119.826 264.624 118.754 263.904 117.122 263.904H113.778V272ZM115.33 267.328V264.976H116.802C117.778 264.976 118.242 265.36 118.242 266.096C118.242 266.848 117.778 267.328 116.85 267.328H115.33ZM115.33 270.912V268.368H116.978C118.05 268.368 118.642 268.848 118.642 269.648C118.642 270.4 118.114 270.912 116.994 270.912H115.33ZM122.091 272H123.643V268.496H124.811L127.227 272H129.067L126.043 267.792V267.76L128.747 263.904H126.987L124.779 267.168H123.643V263.904H122.091V272ZM129.7 269.792C129.7 271.312 130.996 272.192 132.404 272.192C133.604 272.192 134.596 271.472 135.06 270.544H135.092C135.092 270.544 135.044 270.816 135.044 271.184V272H136.5V266.88C136.5 264.832 135.332 263.712 133.3 263.712C132.164 263.712 130.932 264.128 130.276 264.672L130.9 265.808C131.556 265.344 132.372 265.024 133.172 265.024C134.18 265.024 134.948 265.472 134.948 266.8V266.96H134.532C132.852 266.96 129.7 267.248 129.7 269.792ZM131.252 269.664C131.252 268.176 133.396 268.08 134.548 268.08H134.948V268.384C134.948 269.584 134.132 270.96 132.772 270.96C131.764 270.96 131.252 270.304 131.252 269.664ZM142.794 272H144.346V268.496H145.514L147.93 272H149.77L146.746 267.792V267.76L149.45 263.904H147.69L145.482 267.168H144.346V263.904H142.794V272ZM157.105 272H158.641V265.232H161.473V263.904H154.289V265.232H157.105V272ZM162.203 267.952C162.203 270.352 163.963 272.192 166.507 272.192C167.627 272.192 168.859 271.76 169.643 271.04L168.987 269.904C168.347 270.48 167.467 270.848 166.603 270.848C165.147 270.848 163.899 269.904 163.819 268.16H169.707C169.739 267.936 169.771 267.712 169.771 267.504C169.771 265.424 168.555 263.712 166.267 263.712C163.963 263.712 162.203 265.376 162.203 267.952ZM163.867 267.04C164.091 265.696 165.035 264.912 166.235 264.912C167.291 264.912 168.155 265.648 168.203 267.04H163.867ZM171.11 267.952C171.11 270.384 172.886 272.192 175.446 272.192C176.71 272.192 177.942 271.68 178.678 270.896L178.054 269.76C177.43 270.416 176.454 270.848 175.558 270.848C173.878 270.848 172.694 269.584 172.694 267.936C172.694 266.288 173.878 265.056 175.51 265.056C176.358 265.056 177.206 265.44 177.75 265.984L178.486 264.896C177.718 264.08 176.518 263.712 175.446 263.712C172.902 263.712 171.11 265.552 171.11 267.952ZM182.308 272H183.844V265.232H186.676V263.904H179.492V265.232H182.308V272ZM187.45 269.792C187.45 271.312 188.746 272.192 190.154 272.192C191.354 272.192 192.346 271.472 192.81 270.544H192.842C192.842 270.544 192.794 270.816 192.794 271.184V272H194.25V266.88C194.25 264.832 193.082 263.712 191.05 263.712C189.914 263.712 188.682 264.128 188.026 264.672L188.65 265.808C189.306 265.344 190.122 265.024 190.922 265.024C191.93 265.024 192.698 265.472 192.698 266.8V266.96H192.282C190.602 266.96 187.45 267.248 187.45 269.792ZM189.002 269.664C189.002 268.176 191.146 268.08 192.298 268.08H192.698V268.384C192.698 269.584 191.882 270.96 190.522 270.96C189.514 270.96 189.002 270.304 189.002 269.664ZM196.208 272H197.712L198.064 267.184C198.096 266.704 198.048 265.792 198.048 265.792H198.08C198.08 265.792 198.336 266.4 198.592 266.992L200.512 271.024H201.84L203.76 266.976C204.064 266.352 204.272 265.792 204.272 265.792H204.304C204.304 265.792 204.272 266.704 204.288 267.184L204.64 272H206.144L205.44 263.904H203.744L201.632 268.48C201.424 268.976 201.184 269.568 201.184 269.568H201.152C201.152 269.568 200.928 268.96 200.704 268.48L198.64 263.904H196.912L196.208 272ZM51.2 296H52.688L56.192 291.168C56.448 290.784 56.848 290.24 56.896 290.096H56.928C56.928 290.224 56.88 290.784 56.88 291.168V296H58.384V287.904H56.88L53.392 292.736C53.12 293.12 52.736 293.68 52.672 293.824H52.64C52.656 293.744 52.688 293.168 52.688 292.736V287.904H51.2V296ZM64.0425 294.976C64.8905 295.792 66.0905 296.192 67.2585 296.192C69.8025 296.192 71.5785 294.384 71.5785 291.952C71.5785 289.552 69.8185 287.712 67.2905 287.712C66.1545 287.712 64.9225 288.08 64.2025 288.848L64.9065 289.92C65.5305 289.328 66.3465 288.976 67.2425 288.976C68.6825 288.976 69.8505 289.92 70.0585 291.392H66.1865V292.512H70.0585C69.8505 293.936 68.6985 294.912 67.1945 294.912C66.3145 294.912 65.3545 294.592 64.6505 293.872L64.0425 294.976ZM73.4656 296H75.0176V292.496H76.1856L78.6016 296H80.4416L77.4176 291.792V291.76L80.1216 287.904H78.3616L76.1536 291.168H75.0176V287.904H73.4656V296ZM81.041 295.008C81.713 295.648 82.769 296.192 84.017 296.192C85.681 296.192 87.121 295.344 87.121 293.68C87.121 292.64 86.481 292.032 85.665 291.776V291.744C86.305 291.472 86.849 290.912 86.849 289.904C86.849 288.464 85.649 287.712 84.113 287.712C82.833 287.712 81.921 288.128 81.297 288.592L81.873 289.632C82.497 289.168 83.137 288.928 83.841 288.928C84.737 288.928 85.281 289.344 85.281 290.096C85.281 290.912 84.657 291.264 83.745 291.264H82.897V292.384H83.889C85.025 292.384 85.553 292.832 85.553 293.616C85.553 294.496 84.801 294.944 83.873 294.944C82.897 294.944 82.129 294.368 81.761 293.984L81.041 295.008ZM88.3249 293.792C88.3249 295.312 89.6209 296.192 91.0289 296.192C92.2289 296.192 93.2209 295.472 93.6849 294.544H93.7169C93.7169 294.544 93.6689 294.816 93.6689 295.184V296H95.1249V290.88C95.1249 288.832 93.9569 287.712 91.9249 287.712C90.7889 287.712 89.5569 288.128 88.9009 288.672L89.5249 289.808C90.1809 289.344 90.9969 289.024 91.7969 289.024C92.8049 289.024 93.5729 289.472 93.5729 290.8V290.96H93.1569C91.4769 290.96 88.3249 291.248 88.3249 293.792ZM89.8769 293.664C89.8769 292.176 92.0209 292.08 93.1729 292.08H93.5729V292.384C93.5729 293.584 92.7569 294.96 91.3969 294.96C90.3889 294.96 89.8769 294.304 89.8769 293.664ZM97.0828 296H98.5868L98.9388 291.184C98.9708 290.704 98.9228 289.792 98.9228 289.792H98.9548C98.9548 289.792 99.2108 290.4 99.4668 290.992L101.387 295.024H102.715L104.635 290.976C104.939 290.352 105.147 289.792 105.147 289.792H105.179C105.179 289.792 105.147 290.704 105.163 291.184L105.515 296H107.019L106.315 287.904H104.619L102.507 292.48C102.299 292.976 102.059 293.568 102.059 293.568H102.027C102.027 293.568 101.803 292.96 101.579 292.48L99.5148 287.904H97.7868L97.0828 296ZM108.578 291.952C108.578 294.352 110.338 296.192 112.882 296.192C114.002 296.192 115.234 295.76 116.018 295.04L115.362 293.904C114.722 294.48 113.842 294.848 112.978 294.848C111.522 294.848 110.274 293.904 110.194 292.16H116.082C116.114 291.936 116.146 291.712 116.146 291.504C116.146 289.424 114.93 287.712 112.642 287.712C110.338 287.712 108.578 289.376 108.578 291.952ZM110.242 291.04C110.466 289.696 111.41 288.912 112.61 288.912C113.666 288.912 114.53 289.648 114.578 291.04H110.242ZM118.013 296H119.565V292.528H123.661V296H125.213V287.904H123.661V291.2H119.565V287.904H118.013V296ZM126.934 293.792C126.934 295.312 128.23 296.192 129.638 296.192C130.838 296.192 131.83 295.472 132.294 294.544H132.326C132.326 294.544 132.278 294.816 132.278 295.184V296H133.734V290.88C133.734 288.832 132.566 287.712 130.534 287.712C129.398 287.712 128.166 288.128 127.51 288.672L128.134 289.808C128.79 289.344 129.606 289.024 130.406 289.024C131.414 289.024 132.182 289.472 132.182 290.8V290.96H131.766C130.086 290.96 126.934 291.248 126.934 293.792ZM128.486 293.664C128.486 292.176 130.63 292.08 131.782 292.08H132.182V292.384C132.182 293.584 131.366 294.96 130.006 294.96C128.998 294.96 128.486 294.304 128.486 293.664ZM135.692 296H137.196L137.548 291.184C137.58 290.704 137.532 289.792 137.532 289.792H137.564C137.564 289.792 137.82 290.4 138.076 290.992L139.996 295.024H141.324L143.244 290.976C143.548 290.352 143.756 289.792 143.756 289.792H143.788C143.788 289.792 143.756 290.704 143.772 291.184L144.124 296H145.628L144.924 287.904H143.228L141.116 292.48C140.908 292.976 140.668 293.568 140.668 293.568H140.636C140.636 293.568 140.412 292.96 140.188 292.48L138.124 287.904H136.396L135.692 296Z" fill="#222224"/>
<rect x="30" y="332" width="170" height="48" rx="6" fill="#FFEAEC"/>
<path d="M59.9441 355.96C59.9441 358.886 62.1561 361.168 65.0821 361.168C68.0081 361.168 70.2201 358.886 70.2201 355.96C70.2201 353.118 68.0081 350.892 65.0821 350.892C62.1561 350.892 59.9441 353.118 59.9441 355.96ZM61.8061 355.96C61.8061 354.028 63.2621 352.544 65.0821 352.544C66.9021 352.544 68.3581 354.028 68.3581 355.96C68.3581 357.976 66.9021 359.516 65.0821 359.516C63.2621 359.516 61.8061 357.976 61.8061 355.96ZM71.2895 357.43C71.2895 359.502 72.8015 361.168 75.1675 361.168C76.3155 361.168 77.4355 360.72 78.1075 360.006L77.4215 358.746C76.8895 359.264 76.0775 359.656 75.3215 359.656C73.9495 359.656 73.0955 358.62 73.0955 357.416C73.0955 356.198 73.9495 355.204 75.2655 355.204C75.9655 355.204 76.6655 355.526 77.1135 355.974L77.9115 354.756C77.2255 354.014 76.1335 353.692 75.1675 353.692C72.8015 353.692 71.2895 355.4 71.2895 357.43ZM81.0594 361H82.8234V355.372H85.1894V353.86H78.7074V355.372H81.0594V361ZM85.7654 359.026C85.7654 360.328 86.8294 361.168 88.1174 361.168C89.0834 361.168 89.9374 360.636 90.3714 359.88H90.3994C90.3994 359.88 90.3574 360.104 90.3574 360.398V361H92.0094V356.534C92.0094 354.728 90.9034 353.692 89.0414 353.692C87.9774 353.692 86.8294 354.098 86.2414 354.574L86.8994 355.848C87.4734 355.456 88.1874 355.162 88.8874 355.162C89.6294 355.162 90.2314 355.484 90.2314 356.422V356.52H89.9234C88.3414 356.52 85.7654 356.884 85.7654 359.026ZM87.5294 358.872C87.5294 357.864 89.0414 357.738 89.9374 357.738H90.2454V357.934C90.2454 358.802 89.6014 359.81 88.6074 359.81C87.8934 359.81 87.5294 359.348 87.5294 358.872ZM93.8172 361H97.2052C98.7032 361 99.8652 360.356 99.8652 358.928C99.8652 358.214 99.4592 357.514 98.6052 357.29V357.276C99.2072 356.982 99.5432 356.366 99.5432 355.708C99.5432 354.504 98.5772 353.86 97.1352 353.86H93.8172V361ZM95.5952 356.8V355.022H96.7292C97.4292 355.022 97.7512 355.344 97.7512 355.862C97.7512 356.408 97.4292 356.8 96.7572 356.8H95.5952ZM95.5952 359.824V357.906H96.8972C97.6672 357.906 98.0732 358.298 98.0732 358.872C98.0732 359.418 97.6952 359.824 96.8972 359.824H95.5952ZM101.35 361H103.072L105.718 357.192C105.9 356.912 106.166 356.534 106.25 356.338H106.278C106.264 356.52 106.236 356.926 106.236 357.192V361H107.93V353.86H106.208L103.562 357.682C103.38 357.962 103.114 358.354 103.03 358.536H103.002C103.016 358.424 103.044 358.004 103.044 357.682V353.86H101.35V361ZM111.507 361H113.271V355.372H115.637V353.86H109.155V355.372H111.507V361ZM116.841 361H119.935C121.811 361 122.637 360.062 122.637 358.676C122.637 357.122 121.629 356.31 119.949 356.31H118.619V353.86H116.841V361ZM118.619 359.782V357.514H119.627C120.467 357.514 120.845 358.004 120.845 358.662C120.845 359.306 120.467 359.782 119.655 359.782H118.619ZM126.792 360.118C127.45 360.734 128.472 361.168 129.55 361.168C131.104 361.168 132.364 360.412 132.364 358.928C132.364 358.046 131.804 357.528 131.16 357.29V357.262C131.664 357.024 132.14 356.534 132.14 355.652C132.14 354.392 131.034 353.692 129.634 353.692C128.444 353.692 127.59 354.056 127.002 354.49L127.576 355.624C128.206 355.204 128.766 355.036 129.298 355.036C130.012 355.036 130.362 355.358 130.362 355.89C130.362 356.492 129.886 356.716 129.256 356.716H128.528V357.948H129.396C130.25 357.948 130.586 358.284 130.586 358.83C130.586 359.432 130.11 359.796 129.354 359.796C128.612 359.796 127.926 359.348 127.548 358.984L126.792 360.118ZM133.302 359.026C133.302 360.328 134.366 361.168 135.654 361.168C136.62 361.168 137.474 360.636 137.908 359.88H137.936C137.936 359.88 137.894 360.104 137.894 360.398V361H139.546V356.534C139.546 354.728 138.44 353.692 136.578 353.692C135.514 353.692 134.366 354.098 133.778 354.574L134.436 355.848C135.01 355.456 135.724 355.162 136.424 355.162C137.166 355.162 137.768 355.484 137.768 356.422V356.52H137.46C135.878 356.52 133.302 356.884 133.302 359.026ZM135.066 358.872C135.066 357.864 136.578 357.738 137.474 357.738H137.782V357.934C137.782 358.802 137.138 359.81 136.144 359.81C135.43 359.81 135.066 359.348 135.066 358.872ZM140.654 361H142.572L144.168 358.578H145.092V361H146.87V353.86H143.664C142.124 353.86 141.102 354.7 141.102 356.17C141.102 357.192 141.746 357.976 142.544 358.27V358.284C142.544 358.284 142.39 358.452 142.222 358.718L140.654 361ZM144.154 357.346C143.426 357.346 142.88 356.968 142.88 356.156C142.88 355.344 143.398 355.022 144.168 355.022H145.092V357.346H144.154ZM148.778 361H152.166C153.664 361 154.826 360.356 154.826 358.928C154.826 358.214 154.42 357.514 153.566 357.29V357.276C154.168 356.982 154.504 356.366 154.504 355.708C154.504 354.504 153.538 353.86 152.096 353.86H148.778V361ZM150.556 356.8V355.022H151.69C152.39 355.022 152.712 355.344 152.712 355.862C152.712 356.408 152.39 356.8 151.718 356.8H150.556ZM150.556 359.824V357.906H151.858C152.628 357.906 153.034 358.298 153.034 358.872C153.034 359.418 152.656 359.824 151.858 359.824H150.556ZM156.311 361H158.089V358.102H159.013L160.889 361H162.947L160.399 357.29V357.262L162.667 353.86H160.693L158.957 356.59H158.089V353.86H156.311V361ZM163.813 362.148L163.225 363.478C163.225 363.478 163.855 363.94 164.709 363.94C165.759 363.94 166.795 363.38 167.285 362.078L170.463 353.86H168.531L167.131 358.004C167.019 358.382 166.893 358.942 166.893 358.942H166.865C166.865 358.942 166.739 358.354 166.599 357.976L165.101 353.86H163.099L166.109 360.888L165.843 361.518C165.577 362.148 165.087 362.442 164.597 362.442C164.205 362.442 163.813 362.148 163.813 362.148Z" fill="#F04B5D"/>
<path d="M95 99.6565C95.0012 106.261 93.0373 112.713 89.3641 118.172C85.691 123.631 80.4788 127.843 74.4065 130.261C73.9302 130.454 73.4451 130.634 72.9578 130.801C72.4134 130.99 71.8632 131.163 71.3071 131.321C70.9208 131.429 70.5309 131.532 70.1372 131.627C64.2116 133.064 58.007 132.797 52.2238 130.854C51.7695 130.701 51.3195 130.536 50.8739 130.365C50.2747 130.132 49.682 129.881 49.1003 129.612C49.0564 129.594 49.0147 129.574 48.973 129.554C48.7448 129.448 48.5231 129.341 48.297 129.228H48.2948C47.9853 129.077 47.6787 128.92 47.3751 128.757C46.6771 128.383 45.9944 127.986 45.3272 127.564C44.9803 127.346 44.6387 127.12 44.3021 126.886C39.0048 123.266 34.8808 118.144 32.4468 112.162C30.0128 106.18 29.377 99.604 30.6191 93.2579C31.8613 86.9118 34.9261 81.0778 39.4295 76.487C43.933 71.8962 49.6748 68.7527 55.9356 67.4503C56.5085 67.3303 57.0872 67.2267 57.6718 67.1393C58.0384 67.0815 58.4093 67.0326 58.7803 66.9904C59.0459 66.9593 59.3115 66.9304 59.5815 66.9082H59.5837C60.3058 66.8416 61.0346 66.8001 61.7699 66.7838C61.8709 66.7816 61.9718 66.7793 62.075 66.7771C62.1321 66.7771 62.1891 66.7749 62.2462 66.7771H62.2484C62.3362 66.7749 62.424 66.7749 62.514 66.7749C62.8828 66.7749 63.2515 66.7816 63.6181 66.7949C64.4258 66.8216 65.2248 66.8778 66.015 66.9638C66.4716 67.0126 66.9216 67.0726 67.3715 67.1393C67.422 67.1481 67.4747 67.1548 67.5252 67.1637C67.6744 67.1881 67.8259 67.2126 67.9752 67.2392C68.2912 67.2904 68.6051 67.3503 68.919 67.4148C69.2131 67.4747 69.5051 67.537 69.797 67.6036C70.876 67.8527 71.9413 68.159 72.9885 68.5212C80.0861 70.9772 86.1288 75.8371 90.0964 82.2803C90.2083 82.4603 90.318 82.6425 90.4256 82.8269C90.509 82.9646 90.588 83.1024 90.6671 83.2424C90.6956 83.289 90.7219 83.3357 90.7461 83.3823C90.7636 83.409 90.7768 83.4356 90.7922 83.4623C90.937 83.7178 91.0775 83.9777 91.2136 84.2377C93.7075 88.9846 95.0079 94.2801 95 99.6565Z" fill="#F04B5D"/>
<path d="M80.1262 87.9123C80.1262 87.9123 87.6669 81.2028 90.4681 85.8926C93.2693 90.5823 82.6198 92.4808 82.0045 92.2383C81.3893 91.9958 80.1262 87.9123 80.1262 87.9123Z" fill="#A0616A"/>
<path d="M65.4585 92.8886C65.4585 92.8886 74.3822 89.9513 75.9039 88.7582C77.4257 87.5651 78.8276 86.6834 79.1353 86.8046C79.4429 86.9259 81.4601 86.2866 81.4601 86.2866L83.8502 92.9658C83.8502 92.9658 74.3114 95.6606 74.0718 96.2833C73.8323 96.906 65.4585 92.8886 65.4585 92.8886Z" fill="#575A89"/>
<path d="M70.1372 131.627C64.2116 133.064 58.0071 132.797 52.2238 130.854L52.6189 127.073L52.9855 123.54L58.484 114.935L60.2466 112.178L67.5098 114.851L68.2495 119.572L69.4282 127.102L70.1372 131.627Z" fill="#2F2E41"/>
<path d="M74.4065 130.261C73.9302 130.454 73.4451 130.634 72.9578 130.801C72.4134 130.99 71.8632 131.163 71.3072 131.321C70.9208 131.43 70.5309 131.532 70.1372 131.627C64.2116 133.065 58.0071 132.797 52.2238 130.854C51.7695 130.701 51.3195 130.536 50.8739 130.365C50.9347 131.681 50.8951 132.999 50.7554 134.309C50.1213 132.774 49.5688 131.207 49.1003 129.612C49.0674 129.506 49.0367 129.399 49.006 129.292C48.8523 128.755 48.7162 128.241 48.5933 127.759C48.4528 127.202 48.3321 126.684 48.2311 126.211C47.8294 124.353 47.7021 123.205 47.7021 123.205L51.9934 114.185L52.8516 114.285L53.2072 114.325L55.3583 114.573L58.484 114.936L63.5478 115.52L68.2495 119.572L72.4617 123.205C72.4617 123.205 72.8129 124.413 73.3639 126.415C73.6624 127.49 74.0158 128.795 74.4065 130.261Z" fill="#2F2E41"/>
<path d="M66.7285 68.2594C70.9218 68.2594 74.3211 64.8186 74.3211 60.5743C74.3211 56.3299 70.9218 52.8892 66.7285 52.8892C62.5352 52.8892 59.1359 56.3299 59.1359 60.5743C59.1359 64.8186 62.5352 68.2594 66.7285 68.2594Z" fill="#FFB8B8"/>
<path d="M70.0006 61.1308C70.0006 61.1308 70.3755 61.5376 71.2942 61.8041C72.016 62.0135 72.8681 61.6962 72.8681 61.6962" stroke="#222224" stroke-width="0.5"/>
<path d="M60.5248 60.9609L56.5512 69.5652L67.7072 77.3867C67.7072 77.3867 66.3941 68.0717 68.8679 65.7128C71.3418 63.3539 60.5248 60.9609 60.5248 60.9609Z" fill="#FFB8B8"/>
<path d="M69.1602 78.0967C69.1602 78.0967 63.8784 67.0703 59.5869 67.0703C55.2954 67.0703 44.0715 74.7554 44.4016 76.4261C44.7317 78.0968 44.7317 78.4309 44.7317 79.4333C44.7317 80.4357 42.4209 80.4357 44.4016 81.104C46.3823 81.7722 46.7124 82.4405 46.7124 82.4405L45.0618 125.21C45.0618 125.21 52.3244 127.883 54.9653 126.88C57.6062 125.878 60.2471 119.195 60.2471 119.195C60.2471 119.195 59.5869 128.217 62.2278 127.883C64.8687 127.549 74.7722 126.88 75.1023 125.544C75.4324 124.207 73.1216 94.8035 73.1216 94.8035L69.1602 78.0967Z" fill="#575A89"/>
<path d="M50.7554 134.309V134.314C50.4173 137.275 49.3923 140.277 46.7122 140.914C42.1597 141.998 43.907 132.529 44.7279 128.915C44.9211 128.073 45.0615 127.548 45.0615 127.548L45.3271 127.564L48.5933 127.759L50.6741 127.884C50.6741 127.884 50.7598 128.495 50.8256 129.452C50.8454 129.73 50.8629 130.037 50.8739 130.365C50.9347 131.681 50.8951 133 50.7554 134.309Z" fill="#FFB8B8"/>
<path d="M51.9942 75.4237L42.4209 100.15C42.4209 100.15 41.1005 102.823 42.4209 104.828C43.7414 106.832 41.7607 118.861 43.0812 121.534C44.4016 124.207 44.4016 128.885 44.4016 128.885L51.9942 129.554L53.6448 100.15L62.2278 81.4381C62.2278 81.4381 61.5676 73.753 51.9942 75.4237Z" fill="#575A89"/>
<path opacity="0.1" d="M54.4701 74.5884C54.4701 74.5884 48.528 76.2591 46.5473 82.2735L54.4701 74.5884Z" fill="black"/>
<path d="M61.7528 64.0804C62.4915 64.0358 63.2128 64.2885 63.9464 64.387C66.5709 64.7397 69.3012 62.812 69.8807 60.1972C69.9272 59.849 70.0297 59.5108 70.1843 59.1962C70.5882 58.5287 71.5081 58.4014 72.2665 58.5549C73.0248 58.7084 73.7437 59.0676 74.5159 59.1087C75.7084 59.172 76.8532 58.4289 77.4887 57.4057C78.1242 56.3825 78.3041 55.1234 78.2183 53.9179L77.6467 54.5251C77.4144 54.0277 77.3247 53.4743 77.3878 52.9279C77.0849 52.8462 76.7663 52.8447 76.4626 52.9233C76.1589 53.002 75.8803 53.1582 75.6533 53.3771C75.1493 53.4314 75.5297 52.4308 75.1552 52.085C74.9984 51.9402 74.758 51.9675 74.5457 51.9696C73.4734 51.98 72.606 51.1499 71.761 50.4816C70.2968 49.3262 68.5847 48.5357 66.763 48.174C65.5521 47.935 64.2645 47.8966 63.1162 48.353C62.1731 48.7278 61.3837 49.4104 60.6534 50.1212C58.8556 51.871 57.2636 53.9269 56.5156 56.3353C55.9076 58.3079 55.8904 60.4186 56.4661 62.4011C56.7675 63.4307 57.6758 66.9567 59.0055 67.0388C60.6763 67.142 59.6731 64.206 61.7528 64.0804Z" fill="#2F2E41"/>
<path opacity="0.1" d="M62.2923 88.6592L54.5174 100.201L52.0309 127.011L62.2923 88.6592Z" fill="black"/>
<path d="M82.9002 94.2607C82.6811 94.1025 82.533 93.8626 82.4886 93.5939C82.4442 93.3251 82.5071 93.0495 82.6635 92.8277L91.5063 80.2829C91.6627 80.0611 91.8997 79.9112 92.1652 79.8663C92.4307 79.8214 92.703 79.885 92.9221 80.0433L82.9002 94.2607L82.9002 94.2607Z" fill="#D0CDE1"/>
<path d="M83.2632 95.5146L82.7516 95.1452C82.5742 95.0171 82.4544 94.8229 82.4185 94.6054C82.3825 94.3879 82.4335 94.1649 82.56 93.9853L92.6283 79.702C92.7351 79.5505 92.8971 79.4481 93.0785 79.4174C93.26 79.3866 93.446 79.4301 93.5958 79.5383L94.2115 79.983L83.2632 95.5146L83.2632 95.5146Z" fill="#2F2E41"/>
<path d="M90.7241 83.4145L90.9602 83.585L91.6339 82.6292L91.3979 82.4587L90.7241 83.4145Z" fill="#D0CDE1"/>
</svg>
