<svg width="350" height="420" viewBox="0 0 350 420" fill="none" xmlns="http://www.w3.org/2000/svg">
<rect width="350" height="420" rx="6" fill="white"/>
<path d="M31.184 190.512C31.184 197.296 35.824 202.384 43.184 202.384C47.376 202.384 50.384 200.624 52.4 198.544L49.52 194.448C47.952 196.016 45.712 197.264 43.44 197.264C39.024 197.264 36.976 193.776 36.976 190.384C36.976 187.088 38.864 183.856 43.44 183.856C45.488 183.856 47.696 184.912 49.168 186.192L51.76 181.968C49.52 179.76 46.256 178.736 43.184 178.736C36.112 178.736 31.184 183.856 31.184 190.512ZM57.5658 202H63.1018V190.16H68.1258V185.52H52.5738V190.16H57.5658V202ZM70.6098 203.504L68.8498 207.568C68.8498 207.568 70.5138 208.72 72.6898 208.72C75.3138 208.72 78.1938 207.44 79.5698 203.76L86.3218 185.52H80.2738L78.1938 193.2C77.9698 194.096 77.6498 195.664 77.6498 195.664H77.5858C77.5858 195.664 77.2658 194 76.9778 193.104L74.5458 185.52H68.2737L75.2818 201.68L74.9618 202.448C74.3858 203.856 73.2018 204.112 72.3058 204.112C71.5058 204.112 70.6098 203.504 70.6098 203.504ZM93.3423 197.616C94.4943 195.408 94.8142 193.008 94.8142 190.512V189.904H97.6623V197.616H93.3423ZM85.8543 197.616V205.84H90.9743V202H100.638V205.84H105.566V197.616H103.198V185.52H89.5983V189.488C89.5983 192.816 88.9903 195.76 87.9023 197.616H85.8543ZM106.991 193.744C106.991 198.128 110.159 202.384 116.047 202.384C118.575 202.384 121.295 201.52 123.087 199.984L121.039 196.112C119.695 197.008 118.127 197.776 116.495 197.776C114.735 197.776 113.071 196.848 112.655 194.832H123.055C123.119 194.256 123.183 193.68 123.183 193.104C123.183 188.528 120.431 185.136 115.567 185.136C110.255 185.136 106.991 188.912 106.991 193.744ZM112.783 191.664C113.071 190.352 113.839 189.2 115.439 189.2C116.847 189.2 117.711 190.32 117.711 191.664H112.783ZM126.075 202H131.611V195.984H136.699V202H142.235V185.52H136.699V191.344H131.611V185.52H126.075V202ZM149.566 202H155.102V190.16H160.126V185.52H144.574V190.16H149.566V202ZM161.078 197.36C161.078 200.208 163.286 202.384 166.454 202.384C168.342 202.384 170.262 201.52 171.35 199.984H171.414C171.414 199.984 171.35 200.464 171.35 201.008V202H176.406V191.856C176.406 187.664 173.59 185.136 169.046 185.136C166.358 185.136 163.478 186.192 162.07 187.28L163.99 191.184C165.302 190.32 166.934 189.616 168.534 189.616C169.75 189.616 170.87 190.064 170.87 191.44V191.728H170.39C166.326 191.728 161.078 192.944 161.078 197.36ZM166.55 196.848C166.55 195.344 168.726 194.896 170.422 194.896H170.934V195.344C170.934 196.688 169.718 198.256 168.118 198.256C167.094 198.256 166.55 197.616 166.55 196.848ZM179.215 202H184.495L184.879 194.416C184.943 193.136 184.847 191.6 184.847 191.6H184.911C184.911 191.6 185.519 192.976 185.871 194.032L188.047 199.792H192.527L194.703 194.032C195.119 193.008 195.599 191.6 195.599 191.6H195.663C195.663 191.6 195.599 193.136 195.631 194.416L196.015 202H201.327L199.759 185.52H193.391L190.959 192.752C190.671 193.584 190.287 194.672 190.287 194.672H190.255C190.255 194.672 189.903 193.584 189.615 192.752L187.183 185.52H180.783L179.215 202Z" fill="#2D9CDB"/>
<path d="M50.8 239.68L50.256 240.864C50.256 240.864 50.912 241.36 51.808 241.36C52.944 241.36 53.952 240.72 54.432 239.456L58.24 229.904H56.56L54.592 235.216C54.448 235.632 54.32 236.176 54.32 236.176H54.288C54.288 236.176 54.144 235.6 53.984 235.2L51.952 229.904H50.208L53.6 237.904L53.2 238.832C52.896 239.568 52.368 240.032 51.728 240.032C51.248 240.032 50.8 239.68 50.8 239.68ZM58.9533 233.952C58.9533 236.384 60.7293 238.192 63.2893 238.192C64.5533 238.192 65.7853 237.68 66.5213 236.896L65.8973 235.76C65.2733 236.416 64.2973 236.848 63.4013 236.848C61.7213 236.848 60.5373 235.584 60.5373 233.936C60.5373 232.288 61.7213 231.056 63.3533 231.056C64.2013 231.056 65.0493 231.44 65.5933 231.984L66.3293 230.896C65.5613 230.08 64.3613 229.712 63.2893 229.712C60.7453 229.712 58.9533 231.552 58.9533 233.952ZM70.152 238H71.688V231.232H74.52V229.904H67.336V231.232H70.152V238ZM76.0438 241.2H77.5958V237.52C77.5958 237.104 77.5318 236.816 77.5318 236.816H77.5638C78.1238 237.68 79.0518 238.192 80.0758 238.192C82.2038 238.192 83.7398 236.528 83.7398 233.952C83.7398 231.44 82.3798 229.712 80.1878 229.712C79.0038 229.712 77.9798 230.256 77.4678 231.232H77.4358C77.4358 231.232 77.4838 230.96 77.4838 230.624V229.904H76.0438V241.2ZM77.5478 233.984C77.5478 231.936 78.6678 231.072 79.8838 231.072C81.2278 231.072 82.1718 232.208 82.1718 233.968C82.1718 235.808 81.1158 236.848 79.8358 236.848C78.3478 236.848 77.5478 235.424 77.5478 233.984ZM84.9811 235.792C84.9811 237.312 86.2771 238.192 87.6851 238.192C88.8851 238.192 89.8771 237.472 90.3411 236.544H90.3731C90.3731 236.544 90.3251 236.816 90.3251 237.184V238H91.7811V232.88C91.7811 230.832 90.6131 229.712 88.5811 229.712C87.4451 229.712 86.2131 230.128 85.5571 230.672L86.1811 231.808C86.8371 231.344 87.6531 231.024 88.4531 231.024C89.4611 231.024 90.2291 231.472 90.2291 232.8V232.96H89.8131C88.1331 232.96 84.9811 233.248 84.9811 235.792ZM86.5331 235.664C86.5331 234.176 88.6771 234.08 89.8291 234.08H90.2291V234.384C90.2291 235.584 89.4131 236.96 88.0531 236.96C87.0451 236.96 86.5331 236.304 86.5331 235.664ZM94.075 238H95.627V234.528H99.723V238H101.275V229.904H99.723V233.2H95.627V229.904H94.075V238ZM103.141 233.952C103.141 236.352 104.901 238.192 107.445 238.192C108.565 238.192 109.797 237.76 110.581 237.04L109.925 235.904C109.285 236.48 108.405 236.848 107.541 236.848C106.085 236.848 104.837 235.904 104.757 234.16H110.645C110.677 233.936 110.709 233.712 110.709 233.504C110.709 231.424 109.493 229.712 107.205 229.712C104.901 229.712 103.141 231.376 103.141 233.952ZM104.805 233.04C105.029 231.696 105.973 230.912 107.173 230.912C108.229 230.912 109.093 231.648 109.141 233.04H104.805ZM112.575 238H114.127V234.528H118.223V238H119.775V229.904H118.223V233.2H114.127V229.904H112.575V238ZM122.169 238H123.657L127.161 233.168C127.417 232.784 127.817 232.24 127.865 232.096H127.897C127.897 232.224 127.849 232.784 127.849 233.168V238H129.353V229.904H127.849L124.361 234.736C124.089 235.12 123.705 235.68 123.641 235.824H123.609C123.625 235.744 123.657 235.168 123.657 234.736V229.904H122.169V238ZM131.203 233.952C131.203 236.352 132.963 238.192 135.507 238.192C136.627 238.192 137.859 237.76 138.643 237.04L137.987 235.904C137.347 236.48 136.467 236.848 135.603 236.848C134.147 236.848 132.899 235.904 132.819 234.16H138.707C138.739 233.936 138.771 233.712 138.771 233.504C138.771 231.424 137.555 229.712 135.267 229.712C132.963 229.712 131.203 231.376 131.203 233.952ZM132.867 233.04C133.091 231.696 134.035 230.912 135.235 230.912C136.291 230.912 137.155 231.648 137.203 233.04H132.867ZM144.638 238H146.19V231.232H150.158V238H151.71V229.904H144.638V238ZM154.106 241.2H155.658V237.52C155.658 237.104 155.594 236.816 155.594 236.816H155.626C156.186 237.68 157.114 238.192 158.138 238.192C160.266 238.192 161.802 236.528 161.802 233.952C161.802 231.44 160.442 229.712 158.25 229.712C157.066 229.712 156.042 230.256 155.53 231.232H155.498C155.498 231.232 155.546 230.96 155.546 230.624V229.904H154.106V241.2ZM155.61 233.984C155.61 231.936 156.73 231.072 157.946 231.072C159.29 231.072 160.234 232.208 160.234 233.968C160.234 235.808 159.178 236.848 157.898 236.848C156.41 236.848 155.61 235.424 155.61 233.984ZM163.188 233.936C163.188 236.4 165.14 238.192 167.556 238.192C169.956 238.192 171.908 236.4 171.908 233.936C171.908 231.488 169.956 229.712 167.54 229.712C165.14 229.712 163.188 231.488 163.188 233.936ZM164.772 233.936C164.772 232.256 166.02 231.056 167.556 231.056C169.076 231.056 170.34 232.256 170.34 233.936C170.34 235.632 169.076 236.848 167.556 236.848C166.02 236.848 164.772 235.632 164.772 233.936ZM173.426 233.344C173.426 236.144 174.658 238.192 177.394 238.192C179.682 238.192 181.218 236.592 181.218 234.352C181.218 232.064 179.81 230.624 177.778 230.624C176.706 230.624 175.634 230.976 174.914 232.064H174.882C174.994 230.512 175.762 229.568 177.378 228.832L180.482 227.536L179.97 226.256L177.074 227.504C174.258 228.688 173.426 230.448 173.426 233.344ZM175.042 234.352C175.042 232.928 176.018 231.856 177.394 231.856C178.61 231.856 179.65 232.8 179.65 234.384C179.65 235.952 178.61 236.88 177.33 236.88C176.082 236.88 175.042 235.952 175.042 234.352ZM182.625 233.952C182.625 236.352 184.385 238.192 186.929 238.192C188.049 238.192 189.281 237.76 190.065 237.04L189.409 235.904C188.769 236.48 187.889 236.848 187.025 236.848C185.569 236.848 184.321 235.904 184.241 234.16H190.129C190.161 233.936 190.193 233.712 190.193 233.504C190.193 231.424 188.977 229.712 186.689 229.712C184.385 229.712 182.625 231.376 182.625 233.952ZM184.289 233.04C184.513 231.696 185.457 230.912 186.657 230.912C187.713 230.912 188.577 231.648 188.625 233.04H184.289ZM191.179 238.08C193.563 237.952 194.491 236.064 194.491 232.4V231.184H196.875V238H198.427V229.904H193.003V232.4C193.003 235.328 192.363 236.512 191.179 236.688V238.08ZM200.297 233.936C200.297 236.4 202.249 238.192 204.665 238.192C207.065 238.192 209.017 236.4 209.017 233.936C209.017 231.488 207.065 229.712 204.649 229.712C202.249 229.712 200.297 231.488 200.297 233.936ZM201.881 233.936C201.881 232.256 203.129 231.056 204.665 231.056C206.185 231.056 207.449 232.256 207.449 233.936C207.449 235.632 206.185 236.848 204.665 236.848C203.129 236.848 201.881 235.632 201.881 233.936ZM210.888 238H214.344C216.104 238 217.32 237.2 217.32 235.696C217.32 234.8 216.792 234.016 215.784 233.776V233.76C216.52 233.44 216.936 232.768 216.936 231.984C216.936 230.624 215.864 229.904 214.232 229.904H210.888V238ZM212.44 233.328V230.976H213.911C214.888 230.976 215.352 231.36 215.352 232.096C215.352 232.848 214.888 233.328 213.96 233.328H212.44ZM212.44 236.912V234.368H214.088C215.16 234.368 215.752 234.848 215.752 235.648C215.752 236.4 215.224 236.912 214.104 236.912H212.44Z" fill="#222224"/>
<circle cx="34" cy="234" r="4" fill="#F04B5D"/>
<circle cx="34" cy="268" r="4" fill="#F04B5D"/>
<path d="M51.2 272H52.752V265.232H56.72V272H58.272V263.904H51.2V272ZM60.1408 267.936C60.1408 270.4 62.0928 272.192 64.5088 272.192C66.9088 272.192 68.8608 270.4 68.8608 267.936C68.8608 265.488 66.9088 263.712 64.4928 263.712C62.0928 263.712 60.1408 265.488 60.1408 267.936ZM61.7248 267.936C61.7248 266.256 62.9728 265.056 64.5088 265.056C66.0288 265.056 67.2928 266.256 67.2928 267.936C67.2928 269.632 66.0288 270.848 64.5088 270.848C62.9728 270.848 61.7248 269.632 61.7248 267.936ZM72.1121 270.72C73.1361 269.12 73.2641 266.816 73.2641 265.6V265.168H75.6961V270.72H72.1121ZM69.5201 270.72V273.92H70.9761V272H76.9761V273.92H78.4001V270.72H77.2481V263.904H71.7761V265.392C71.7761 266.64 71.6481 269.168 70.5121 270.72H69.5201ZM80.0281 272H81.5801V265.232H85.1001V263.904H80.0281V272ZM85.8126 267.936C85.8126 270.4 87.7646 272.192 90.1806 272.192C92.5806 272.192 94.5326 270.4 94.5326 267.936C94.5326 265.488 92.5806 263.712 90.1646 263.712C87.7646 263.712 85.8126 265.488 85.8126 267.936ZM87.3966 267.936C87.3966 266.256 88.6446 265.056 90.1806 265.056C91.7006 265.056 92.9646 266.256 92.9646 267.936C92.9646 269.632 91.7006 270.848 90.1806 270.848C88.6446 270.848 87.3966 269.632 87.3966 267.936ZM98.0895 272H99.6255V265.232H102.458V263.904H95.2735V265.232H98.0895V272ZM103.188 267.936C103.188 270.4 105.14 272.192 107.556 272.192C109.956 272.192 111.908 270.4 111.908 267.936C111.908 265.488 109.956 263.712 107.54 263.712C105.14 263.712 103.188 265.488 103.188 267.936ZM104.772 267.936C104.772 266.256 106.02 265.056 107.556 265.056C109.076 265.056 110.34 266.256 110.34 267.936C110.34 269.632 109.076 270.848 107.556 270.848C106.02 270.848 104.772 269.632 104.772 267.936ZM113.778 272H117.234C118.994 272 120.21 271.2 120.21 269.696C120.21 268.8 119.682 268.016 118.674 267.776V267.76C119.41 267.44 119.826 266.768 119.826 265.984C119.826 264.624 118.754 263.904 117.122 263.904H113.778V272ZM115.33 267.328V264.976H116.802C117.778 264.976 118.242 265.36 118.242 266.096C118.242 266.848 117.778 267.328 116.85 267.328H115.33ZM115.33 270.912V268.368H116.978C118.05 268.368 118.642 268.848 118.642 269.648C118.642 270.4 118.114 270.912 116.994 270.912H115.33ZM122.091 272H123.643V268.496H124.811L127.227 272H129.067L126.043 267.792V267.76L128.747 263.904H126.987L124.779 267.168H123.643V263.904H122.091V272ZM129.7 269.792C129.7 271.312 130.996 272.192 132.404 272.192C133.604 272.192 134.596 271.472 135.06 270.544H135.092C135.092 270.544 135.044 270.816 135.044 271.184V272H136.5V266.88C136.5 264.832 135.332 263.712 133.3 263.712C132.164 263.712 130.932 264.128 130.276 264.672L130.9 265.808C131.556 265.344 132.372 265.024 133.172 265.024C134.18 265.024 134.948 265.472 134.948 266.8V266.96H134.532C132.852 266.96 129.7 267.248 129.7 269.792ZM131.252 269.664C131.252 268.176 133.396 268.08 134.548 268.08H134.948V268.384C134.948 269.584 134.132 270.96 132.772 270.96C131.764 270.96 131.252 270.304 131.252 269.664ZM142.794 272H144.346V268.496H145.514L147.93 272H149.77L146.746 267.792V267.76L149.45 263.904H147.69L145.482 267.168H144.346V263.904H142.794V272ZM154.433 270.976C155.281 271.792 156.481 272.192 157.649 272.192C160.193 272.192 161.969 270.384 161.969 267.952C161.969 265.552 160.209 263.712 157.681 263.712C156.545 263.712 155.313 264.08 154.593 264.848L155.297 265.92C155.921 265.328 156.737 264.976 157.633 264.976C159.073 264.976 160.241 265.92 160.449 267.392H156.577V268.512H160.449C160.241 269.936 159.089 270.912 157.585 270.912C156.705 270.912 155.745 270.592 155.041 269.872L154.433 270.976ZM163.856 272H165.408V268.496H166.576L168.992 272H170.832L167.808 267.792V267.76L170.512 263.904H168.752L166.544 267.168H165.408V263.904H163.856V272ZM171.432 271.008C172.104 271.648 173.16 272.192 174.408 272.192C176.072 272.192 177.512 271.344 177.512 269.68C177.512 268.64 176.872 268.032 176.056 267.776V267.744C176.696 267.472 177.24 266.912 177.24 265.904C177.24 264.464 176.04 263.712 174.504 263.712C173.224 263.712 172.312 264.128 171.688 264.592L172.264 265.632C172.888 265.168 173.528 264.928 174.232 264.928C175.128 264.928 175.672 265.344 175.672 266.096C175.672 266.912 175.048 267.264 174.136 267.264H173.288V268.384H174.28C175.416 268.384 175.944 268.832 175.944 269.616C175.944 270.496 175.192 270.944 174.264 270.944C173.288 270.944 172.52 270.368 172.152 269.984L171.432 271.008ZM178.715 269.792C178.715 271.312 180.012 272.192 181.42 272.192C182.62 272.192 183.612 271.472 184.076 270.544H184.108C184.108 270.544 184.06 270.816 184.06 271.184V272H185.516V266.88C185.516 264.832 184.348 263.712 182.316 263.712C181.18 263.712 179.948 264.128 179.292 264.672L179.916 265.808C180.572 265.344 181.388 265.024 182.188 265.024C183.196 265.024 183.964 265.472 183.964 266.8V266.96H183.548C181.868 266.96 178.715 267.248 178.715 269.792ZM180.268 269.664C180.268 268.176 182.411 268.08 183.564 268.08H183.964V268.384C183.964 269.584 183.148 270.96 181.788 270.96C180.78 270.96 180.268 270.304 180.268 269.664ZM187.473 272H188.977L189.329 267.184C189.361 266.704 189.313 265.792 189.313 265.792H189.345C189.345 265.792 189.601 266.4 189.857 266.992L191.777 271.024H193.105L195.025 266.976C195.329 266.352 195.537 265.792 195.537 265.792H195.569C195.569 265.792 195.537 266.704 195.553 267.184L195.905 272H197.409L196.705 263.904H195.009L192.897 268.48C192.689 268.976 192.449 269.568 192.449 269.568H192.417C192.417 269.568 192.193 268.96 191.969 268.48L189.905 263.904H188.177L187.473 272ZM198.969 267.952C198.969 270.352 200.729 272.192 203.273 272.192C204.393 272.192 205.625 271.76 206.409 271.04L205.753 269.904C205.113 270.48 204.233 270.848 203.369 270.848C201.913 270.848 200.665 269.904 200.585 268.16H206.473C206.505 267.936 206.537 267.712 206.537 267.504C206.537 265.424 205.321 263.712 203.033 263.712C200.729 263.712 198.969 265.376 198.969 267.952ZM200.633 267.04C200.857 265.696 201.801 264.912 203.001 264.912C204.057 264.912 204.921 265.648 204.969 267.04H200.633ZM208.403 272H209.955V268.528H214.051V272H215.603V263.904H214.051V267.2H209.955V263.904H208.403V272ZM217.325 269.792C217.325 271.312 218.621 272.192 220.029 272.192C221.229 272.192 222.221 271.472 222.685 270.544H222.717C222.717 270.544 222.669 270.816 222.669 271.184V272H224.125V266.88C224.125 264.832 222.957 263.712 220.925 263.712C219.789 263.712 218.557 264.128 217.901 264.672L218.525 265.808C219.181 265.344 219.997 265.024 220.797 265.024C221.805 265.024 222.573 265.472 222.573 266.8V266.96H222.157C220.477 266.96 217.325 267.248 217.325 269.792ZM218.877 269.664C218.877 268.176 221.021 268.08 222.173 268.08H222.573V268.384C222.573 269.584 221.757 270.96 220.397 270.96C219.389 270.96 218.877 270.304 218.877 269.664ZM226.083 272H227.587L227.939 267.184C227.971 266.704 227.923 265.792 227.923 265.792H227.955C227.955 265.792 228.211 266.4 228.467 266.992L230.387 271.024H231.715L233.635 266.976C233.939 266.352 234.147 265.792 234.147 265.792H234.179C234.179 265.792 234.147 266.704 234.163 267.184L234.515 272H236.019L235.315 263.904H233.619L231.507 268.48C231.299 268.976 231.059 269.568 231.059 269.568H231.027C231.027 269.568 230.803 268.96 230.579 268.48L228.515 263.904H226.787L226.083 272Z" fill="#222224"/>
<path d="M30 100.202C29.994 106.654 31.877 112.963 35.4129 118.34C38.9489 123.717 43.9805 127.922 49.8769 130.428C55.7733 132.933 62.2722 133.628 68.5588 132.426C74.8454 131.223 80.64 128.176 85.2162 123.667C89.7923 119.158 92.9464 113.387 94.283 107.078C95.6197 100.769 95.0793 94.2023 92.7298 88.2016C90.3802 82.2009 86.326 77.033 81.0753 73.3457C75.8247 69.6585 69.6113 67.6159 63.2141 67.4742C63.1131 67.472 63.0122 67.4698 62.9091 67.4675C62.7643 67.4653 62.6173 67.4653 62.4703 67.4653C62.1017 67.4653 61.7331 67.472 61.3668 67.4852C60.5594 67.5118 59.7608 67.5678 58.971 67.6533C58.5146 67.702 58.0649 67.7617 57.6151 67.8281C57.5647 67.8369 57.512 67.8436 57.4616 67.8524C55.6056 68.1409 53.7783 68.5931 52.0008 69.2039C45.5841 71.4103 40.0127 75.5854 36.0674 81.1442C32.1221 86.703 30.0005 93.3669 30 100.202Z" fill="#F04B5D"/>
<path d="M87.3157 101.969C87.2515 101.867 87.4187 101.644 87.6892 101.471C87.9597 101.298 88.2311 101.241 88.2953 101.344C88.3595 101.446 88.1923 101.669 87.9218 101.842C87.6513 102.014 87.38 102.071 87.3157 101.969Z" fill="#3F3D56"/>
<path d="M88.2648 100.066C88.1208 99.8372 87.8925 99.6751 87.6299 99.6156C87.3674 99.5562 87.0922 99.6043 86.8649 99.7495L74.0081 107.958C73.7808 108.103 73.62 108.333 73.561 108.598C73.5021 108.863 73.5498 109.14 73.6938 109.369L88.2648 100.066Z" fill="#D0CDE1"/>
<path d="M89.481 100.5L89.0765 99.8565C88.9781 99.6999 88.8221 99.5891 88.6427 99.5485C88.4633 99.5079 88.2752 99.5408 88.1199 99.6399L73.4814 108.986C73.3903 109.044 73.3115 109.12 73.2494 109.209C73.1873 109.297 73.1432 109.398 73.1196 109.504C73.0959 109.61 73.0933 109.72 73.1117 109.827C73.1301 109.934 73.1693 110.036 73.227 110.128L73.5631 110.663L89.481 100.5Z" fill="#2F2E41"/>
<path d="M87.3015 100.854L87.4566 101.101L86.477 101.726L86.3219 101.48L87.3015 100.854Z" fill="#D0CDE1"/>
<path d="M85.9546 101.714L86.1097 101.961L85.1301 102.586L84.975 102.339L85.9546 101.714Z" fill="#D0CDE1"/>
<path d="M66.552 71.7199C61.5052 71.7199 57.4139 67.595 57.4139 62.5067C57.4139 57.4184 61.5052 53.2935 66.552 53.2935C71.5989 53.2935 75.6902 57.4184 75.6902 62.5067C75.6902 67.595 71.5989 71.7199 66.552 71.7199Z" fill="#FFB8B8"/>
<path d="M70.026 62.9336C70.026 62.9336 70.9178 63.612 71.7134 63.6361C72.3385 63.6551 72.9323 63.242 72.9323 63.242" stroke="#222224" stroke-width="0.5"/>
<path d="M65.9948 69.0237C65.9948 69.0237 61.5372 76.1021 62.6516 78.1245C63.766 80.1469 67.2207 85.6524 67.2207 85.6524C67.2207 85.6524 51.8418 74.1921 53.8478 71.7202C53.8478 71.7202 58.4168 67.7878 58.6397 65.3159L65.9948 69.0237Z" fill="#FFB8B8"/>
<path d="M53.6814 131.727C61.0952 133.814 69.0024 133.192 76.0047 129.968L75.3026 111.056L75.25 109.585L75.2302 109.107L75.2061 108.404L75.1885 107.955C75.1885 107.955 75.1601 107.953 75.1052 107.951C74.956 107.939 74.6116 107.915 74.1179 107.886C73.5453 107.853 72.7752 107.811 71.8779 107.774C71.6651 107.765 71.4457 107.756 71.2197 107.745C66.494 107.568 59.1136 107.53 58.1373 108.966L58.0144 109.811L57.8169 111.176L57.4133 113.965C57.4133 113.965 52.8235 123.167 53.6814 131.727Z" fill="#2F2E41"/>
<path d="M45.2668 83.1803L53.1613 100.79L56.5892 108.435L57.8597 111.269L76.2474 111.045L74.3529 98.1237C77.0275 91.1576 70.6754 88.3487 70.6754 88.3487L65.3262 82.6017V83.5174C65.3262 83.5174 60.0885 77.2254 57.7482 73.63C55.408 70.0346 52.1762 71.3829 52.1762 71.3829C46.6041 70.8211 45.2668 83.1803 45.2668 83.1803Z" fill="#575A89"/>
<path opacity="0.2" d="M53.1613 100.79L56.5892 108.435C57.6903 106.358 58.5283 104.007 58.5283 102.618C58.5283 98.7979 54.7393 100.82 54.7393 100.82C54.7393 100.82 57.8039 83.9107 57.8039 78.8547C57.8039 75.4963 55.0268 90.4004 53.1613 100.79Z" fill="black"/>
<path d="M56.188 102.056L72.7928 101.719C72.7928 101.719 84.9398 102.73 83.1568 107.674C81.3737 112.618 71.6783 107.674 71.6783 107.674L52.2876 110.708L56.188 102.056Z" fill="#FFB8B8"/>
<path d="M53.0677 72.2819C53.0677 72.2819 58.8626 72.7313 58.8626 77.7874C58.8626 82.8434 53.6249 100.82 53.6249 100.82C53.6249 100.82 57.4139 98.798 57.4139 102.618C57.4139 106.438 51.0617 117.562 50.3931 110.146C50.3931 110.146 40.8092 114.865 41.3664 105.989C41.9236 97.1127 47.9414 78.3491 47.9414 78.3491C47.9414 78.3491 48.61 71.9448 53.0677 72.2819Z" fill="#575A89"/>
<path d="M66.2481 61.5047C66.888 60.8803 66.8762 59.8272 67.3919 59.0952C68.2018 57.9458 69.888 58.0229 71.2725 58.2213C72.1927 58.3532 73.1265 58.4889 73.9805 58.8557C74.3627 59.0143 74.7032 59.2602 74.975 59.5741C75.2469 59.8879 75.4427 60.2612 75.5471 60.6644C75.6555 61.1172 75.8946 59.8325 76.1379 58.1686C76.3872 56.4708 76.0955 54.7371 75.3048 53.2173C74.5142 51.6974 73.2653 50.4699 71.7383 49.7115C71.7201 49.7025 71.7021 49.6936 71.6843 49.6849C70.1183 48.9176 68.4778 48.24 66.7469 48.0496C65.0161 47.8592 63.1692 48.204 61.8117 49.3032C61.1913 49.8056 60.6866 50.4505 60.0214 50.8909C58.8528 51.6647 57.3728 51.7021 55.984 51.8652C54.4134 52.0497 52.8393 52.4371 51.4833 53.2573C50.1274 54.0775 49.0041 55.3715 48.6271 56.9197C48.1874 58.7257 48.9051 60.8606 50.6662 61.6443C50.9738 61.7748 51.2465 61.9766 51.4622 62.2332C52.9084 64.0156 50.5738 64.9909 50.2352 66.5424C49.9527 67.837 51.1875 69.0091 52.4538 69.3656C54.8123 70.0295 57.5577 68.7071 58.5273 66.44C58.9616 65.4245 59.0605 64.301 59.1787 63.2015C59.314 61.9429 62.5882 59.6632 60.3778 61.378C59.9488 61.7019 59.6109 62.1328 59.3973 62.6283C58.7249 64.2512 60.1205 65.1724 60.869 66.3311C61.2764 66.9829 61.4946 67.7367 61.4986 68.507C61.5027 69.2774 61.2926 70.0335 60.8921 70.6896C62.8324 69.6675 63.8138 67.1056 63.0586 65.0339C62.8579 64.4833 62.5536 63.9742 62.3712 63.4171C62.0866 62.5477 62.3382 60.8584 63.6108 61.2009C64.5191 61.4453 65.2954 62.4341 66.2481 61.5047Z" fill="#2F2E41"/>
<rect x="30" y="332" width="170" height="48" rx="6" fill="#FFEAEC"/>
<path d="M59.9441 355.96C59.9441 358.886 62.1561 361.168 65.0821 361.168C68.0081 361.168 70.2201 358.886 70.2201 355.96C70.2201 353.118 68.0081 350.892 65.0821 350.892C62.1561 350.892 59.9441 353.118 59.9441 355.96ZM61.8061 355.96C61.8061 354.028 63.2621 352.544 65.0821 352.544C66.9021 352.544 68.3581 354.028 68.3581 355.96C68.3581 357.976 66.9021 359.516 65.0821 359.516C63.2621 359.516 61.8061 357.976 61.8061 355.96ZM71.2895 357.43C71.2895 359.502 72.8015 361.168 75.1675 361.168C76.3155 361.168 77.4355 360.72 78.1075 360.006L77.4215 358.746C76.8895 359.264 76.0775 359.656 75.3215 359.656C73.9495 359.656 73.0955 358.62 73.0955 357.416C73.0955 356.198 73.9495 355.204 75.2655 355.204C75.9655 355.204 76.6655 355.526 77.1135 355.974L77.9115 354.756C77.2255 354.014 76.1335 353.692 75.1675 353.692C72.8015 353.692 71.2895 355.4 71.2895 357.43ZM81.0594 361H82.8234V355.372H85.1894V353.86H78.7074V355.372H81.0594V361ZM85.7654 359.026C85.7654 360.328 86.8294 361.168 88.1174 361.168C89.0834 361.168 89.9374 360.636 90.3714 359.88H90.3994C90.3994 359.88 90.3574 360.104 90.3574 360.398V361H92.0094V356.534C92.0094 354.728 90.9034 353.692 89.0414 353.692C87.9774 353.692 86.8294 354.098 86.2414 354.574L86.8994 355.848C87.4734 355.456 88.1874 355.162 88.8874 355.162C89.6294 355.162 90.2314 355.484 90.2314 356.422V356.52H89.9234C88.3414 356.52 85.7654 356.884 85.7654 359.026ZM87.5294 358.872C87.5294 357.864 89.0414 357.738 89.9374 357.738H90.2454V357.934C90.2454 358.802 89.6014 359.81 88.6074 359.81C87.8934 359.81 87.5294 359.348 87.5294 358.872ZM93.8172 361H97.2052C98.7032 361 99.8652 360.356 99.8652 358.928C99.8652 358.214 99.4592 357.514 98.6052 357.29V357.276C99.2072 356.982 99.5432 356.366 99.5432 355.708C99.5432 354.504 98.5772 353.86 97.1352 353.86H93.8172V361ZM95.5952 356.8V355.022H96.7292C97.4292 355.022 97.7512 355.344 97.7512 355.862C97.7512 356.408 97.4292 356.8 96.7572 356.8H95.5952ZM95.5952 359.824V357.906H96.8972C97.6672 357.906 98.0732 358.298 98.0732 358.872C98.0732 359.418 97.6952 359.824 96.8972 359.824H95.5952ZM101.35 361H103.072L105.718 357.192C105.9 356.912 106.166 356.534 106.25 356.338H106.278C106.264 356.52 106.236 356.926 106.236 357.192V361H107.93V353.86H106.208L103.562 357.682C103.38 357.962 103.114 358.354 103.03 358.536H103.002C103.016 358.424 103.044 358.004 103.044 357.682V353.86H101.35V361ZM111.507 361H113.271V355.372H115.637V353.86H109.155V355.372H111.507V361ZM116.841 361H119.935C121.811 361 122.637 360.062 122.637 358.676C122.637 357.122 121.629 356.31 119.949 356.31H118.619V353.86H116.841V361ZM118.619 359.782V357.514H119.627C120.467 357.514 120.845 358.004 120.845 358.662C120.845 359.306 120.467 359.782 119.655 359.782H118.619ZM126.792 360.118C127.45 360.734 128.472 361.168 129.55 361.168C131.104 361.168 132.364 360.412 132.364 358.928C132.364 358.046 131.804 357.528 131.16 357.29V357.262C131.664 357.024 132.14 356.534 132.14 355.652C132.14 354.392 131.034 353.692 129.634 353.692C128.444 353.692 127.59 354.056 127.002 354.49L127.576 355.624C128.206 355.204 128.766 355.036 129.298 355.036C130.012 355.036 130.362 355.358 130.362 355.89C130.362 356.492 129.886 356.716 129.256 356.716H128.528V357.948H129.396C130.25 357.948 130.586 358.284 130.586 358.83C130.586 359.432 130.11 359.796 129.354 359.796C128.612 359.796 127.926 359.348 127.548 358.984L126.792 360.118ZM133.302 359.026C133.302 360.328 134.366 361.168 135.654 361.168C136.62 361.168 137.474 360.636 137.908 359.88H137.936C137.936 359.88 137.894 360.104 137.894 360.398V361H139.546V356.534C139.546 354.728 138.44 353.692 136.578 353.692C135.514 353.692 134.366 354.098 133.778 354.574L134.436 355.848C135.01 355.456 135.724 355.162 136.424 355.162C137.166 355.162 137.768 355.484 137.768 356.422V356.52H137.46C135.878 356.52 133.302 356.884 133.302 359.026ZM135.066 358.872C135.066 357.864 136.578 357.738 137.474 357.738H137.782V357.934C137.782 358.802 137.138 359.81 136.144 359.81C135.43 359.81 135.066 359.348 135.066 358.872ZM140.654 361H142.572L144.168 358.578H145.092V361H146.87V353.86H143.664C142.124 353.86 141.102 354.7 141.102 356.17C141.102 357.192 141.746 357.976 142.544 358.27V358.284C142.544 358.284 142.39 358.452 142.222 358.718L140.654 361ZM144.154 357.346C143.426 357.346 142.88 356.968 142.88 356.156C142.88 355.344 143.398 355.022 144.168 355.022H145.092V357.346H144.154ZM148.778 361H152.166C153.664 361 154.826 360.356 154.826 358.928C154.826 358.214 154.42 357.514 153.566 357.29V357.276C154.168 356.982 154.504 356.366 154.504 355.708C154.504 354.504 153.538 353.86 152.096 353.86H148.778V361ZM150.556 356.8V355.022H151.69C152.39 355.022 152.712 355.344 152.712 355.862C152.712 356.408 152.39 356.8 151.718 356.8H150.556ZM150.556 359.824V357.906H151.858C152.628 357.906 153.034 358.298 153.034 358.872C153.034 359.418 152.656 359.824 151.858 359.824H150.556ZM156.311 361H158.089V358.102H159.013L160.889 361H162.947L160.399 357.29V357.262L162.667 353.86H160.693L158.957 356.59H158.089V353.86H156.311V361ZM163.813 362.148L163.225 363.478C163.225 363.478 163.855 363.94 164.709 363.94C165.759 363.94 166.795 363.38 167.285 362.078L170.463 353.86H168.531L167.131 358.004C167.019 358.382 166.893 358.942 166.893 358.942H166.865C166.865 358.942 166.739 358.354 166.599 357.976L165.101 353.86H163.099L166.109 360.888L165.843 361.518C165.577 362.148 165.087 362.442 164.597 362.442C164.205 362.442 163.813 362.148 163.813 362.148Z" fill="#F04B5D"/>
</svg>
