<svg width="350" height="420" viewBox="0 0 350 420" fill="none" xmlns="http://www.w3.org/2000/svg">
<rect width="350" height="420" rx="6" fill="white"/>
<path d="M32.4 202H40.816C45.36 202 49.52 200.176 49.52 195.184C49.52 193.168 48.56 190.832 45.936 190.032V189.968C47.664 188.976 48.592 187.024 48.592 185.104C48.592 181.168 45.392 179.12 40.816 179.12H32.4V202ZM38 187.984V183.92H40.784C42.288 183.92 42.896 184.816 42.896 185.872C42.896 186.96 42.288 187.984 40.88 187.984H38ZM38 197.2V192.464H41.392C43.024 192.464 43.792 193.52 43.792 194.8C43.792 196.08 42.992 197.2 41.36 197.2H38ZM50.7613 199.952C52.5533 201.552 55.2093 202.384 57.6413 202.384C61.5453 202.384 64.4573 200.624 64.4573 197.136C64.4573 195.216 63.1453 194.064 61.8973 193.488V193.424C62.8893 192.88 63.9453 191.76 63.9453 189.712C63.9453 186.864 61.2573 185.136 57.8653 185.136C54.8573 185.136 52.7453 185.936 51.2093 186.992L52.8093 190.416C54.5373 189.392 55.8173 189.168 56.7133 189.168C58.1213 189.168 58.4413 189.776 58.4413 190.48C58.4413 191.504 57.6413 191.76 56.7773 191.76H55.1133V195.408H57.1293C58.6333 195.408 58.9213 195.984 58.9213 196.784C58.9213 197.552 58.4733 198.224 56.9373 198.224C55.6253 198.224 53.9933 197.424 52.9693 196.496L50.7613 199.952ZM67.2623 208.4H72.7983V202.224C72.7983 201.392 72.7343 200.816 72.7343 200.816H72.7983C73.9823 201.84 75.4543 202.384 76.9903 202.384C81.3743 202.384 84.6703 198.992 84.6703 193.776C84.6703 188.656 81.7263 185.136 77.2463 185.136C75.2623 185.136 73.3743 185.904 72.2543 187.408H72.1903C72.1903 187.408 72.2543 186.896 72.2543 186.352V185.52H67.2623V208.4ZM72.6383 193.872C72.6383 191.024 74.2063 189.808 75.8703 189.808C77.7903 189.808 79.1023 191.408 79.1023 193.872C79.1023 196.4 77.5983 197.808 75.8703 197.808C73.6943 197.808 72.6383 195.856 72.6383 193.872ZM86.5843 193.808C86.5843 198.96 90.7443 202.384 95.9283 202.384C101.112 202.384 105.272 198.96 105.272 193.808C105.272 188.624 101.112 185.136 95.8963 185.136C90.7443 185.136 86.5843 188.624 86.5843 193.808ZM92.1843 193.808C92.1843 191.312 93.9123 189.744 95.9283 189.744C97.9443 189.744 99.6723 191.312 99.6723 193.808C99.6723 196.272 97.9443 197.776 95.9283 197.776C93.9123 197.776 92.1843 196.272 92.1843 193.808ZM107.116 193.744C107.116 198.288 110.411 202.384 116.3 202.384C119.052 202.384 121.74 201.328 123.372 199.664L121.356 195.792C120.172 196.816 118.444 197.776 116.844 197.776C114.06 197.776 112.716 195.632 112.716 193.68C112.716 191.728 114.028 189.744 116.652 189.744C118.092 189.744 119.564 190.416 120.524 191.344L122.86 187.632C121.228 185.872 118.604 185.136 116.3 185.136C110.38 185.136 107.116 189.328 107.116 193.744ZM124.484 202.16C130.884 202.16 132.804 197.552 132.804 190.832V189.904H135.556V202H141.092V185.52H127.588V190.8C127.588 196.464 125.956 197.136 124.484 197.328V202.16ZM161.242 202H166.778V185.52H161.242V202ZM144.794 202H152.826C157.434 202 159.354 199.728 159.354 196.368C159.354 193.04 157.434 190.672 152.826 190.672H150.33V185.52H144.794V202ZM150.33 198.384V194.256H151.706C153.114 194.256 153.818 195.184 153.818 196.336C153.818 197.488 153.114 198.384 151.802 198.384H150.33ZM169.777 202H175.057L175.441 194.416C175.505 193.136 175.409 191.6 175.409 191.6H175.473C175.473 191.6 176.081 192.976 176.433 194.032L178.609 199.792H183.089L185.265 194.032C185.681 193.008 186.161 191.6 186.161 191.6H186.225C186.225 191.6 186.161 193.136 186.193 194.416L186.577 202H191.889L190.321 185.52H183.953L181.521 192.752C181.233 193.584 180.849 194.672 180.849 194.672H180.817C180.817 194.672 180.465 193.584 180.177 192.752L177.745 185.52H171.345L169.777 202Z" fill="#F2994A"/>
<path d="M50.672 233.936C50.672 236.4 52.624 238.192 55.04 238.192C57.44 238.192 59.392 236.4 59.392 233.936C59.392 231.488 57.44 229.712 55.024 229.712C52.624 229.712 50.672 231.488 50.672 233.936ZM52.256 233.936C52.256 232.256 53.504 231.056 55.04 231.056C56.56 231.056 57.824 232.256 57.824 233.936C57.824 235.632 56.56 236.848 55.04 236.848C53.504 236.848 52.256 235.632 52.256 233.936ZM60.9105 233.344C60.9105 236.144 62.1425 238.192 64.8785 238.192C67.1665 238.192 68.7025 236.592 68.7025 234.352C68.7025 232.064 67.2945 230.624 65.2625 230.624C64.1905 230.624 63.1185 230.976 62.3985 232.064H62.3665C62.4785 230.512 63.2465 229.568 64.8625 228.832L67.9665 227.536L67.4545 226.256L64.5585 227.504C61.7425 228.688 60.9105 230.448 60.9105 233.344ZM62.5265 234.352C62.5265 232.928 63.5025 231.856 64.8785 231.856C66.0945 231.856 67.1345 232.8 67.1345 234.384C67.1345 235.952 66.0945 236.88 64.8145 236.88C63.5665 236.88 62.5265 235.952 62.5265 234.352ZM70.6375 238H72.1895V234.528H76.2855V238H77.8375V229.904H76.2855V233.2H72.1895V229.904H70.6375V238ZM79.7033 233.936C79.7033 236.4 81.6553 238.192 84.0713 238.192C86.4713 238.192 88.4233 236.4 88.4233 233.936C88.4233 231.488 86.4713 229.712 84.0553 229.712C81.6553 229.712 79.7033 231.488 79.7033 233.936ZM81.2873 233.936C81.2873 232.256 82.5353 231.056 84.0713 231.056C85.5913 231.056 86.8553 232.256 86.8553 233.936C86.8553 235.632 85.5913 236.848 84.0713 236.848C82.5353 236.848 81.2873 235.632 81.2873 233.936ZM90.2938 238H93.7498C95.5098 238 96.7258 237.2 96.7258 235.696C96.7258 234.8 96.1978 234.016 95.1898 233.776V233.76C95.9258 233.44 96.3418 232.768 96.3418 231.984C96.3418 230.624 95.2698 229.904 93.6378 229.904H90.2938V238ZM91.8458 233.328V230.976H93.3177C94.2938 230.976 94.7578 231.36 94.7578 232.096C94.7578 232.848 94.2938 233.328 93.3658 233.328H91.8458ZM91.8458 236.912V234.368H93.4938C94.5658 234.368 95.1578 234.848 95.1578 235.648C95.1578 236.4 94.6298 236.912 93.5098 236.912H91.8458ZM97.7263 238.08C100.11 237.952 101.038 236.064 101.038 232.4V231.184H103.422V238H104.974V229.904H99.5503V232.4C99.5503 235.328 98.9103 236.512 97.7263 236.688V238.08ZM106.844 233.952C106.844 236.352 108.604 238.192 111.148 238.192C112.268 238.192 113.5 237.76 114.284 237.04L113.628 235.904C112.988 236.48 112.108 236.848 111.244 236.848C109.788 236.848 108.54 235.904 108.46 234.16H114.348C114.38 233.936 114.412 233.712 114.412 233.504C114.412 231.424 113.196 229.712 110.908 229.712C108.604 229.712 106.844 231.376 106.844 233.952ZM108.508 233.04C108.732 231.696 109.676 230.912 110.876 230.912C111.932 230.912 112.796 231.648 112.844 233.04H108.508ZM116.278 238H117.83V234.528H121.926V238H123.478V229.904H121.926V233.2H117.83V229.904H116.278V238ZM125.872 238H127.36L130.864 233.168C131.12 232.784 131.52 232.24 131.568 232.096H131.6C131.6 232.224 131.552 232.784 131.552 233.168V238H133.056V229.904H131.552L128.064 234.736C127.792 235.12 127.408 235.68 127.344 235.824H127.312C127.328 235.744 127.36 235.168 127.36 234.736V229.904H125.872V238ZM134.906 233.952C134.906 236.352 136.666 238.192 139.21 238.192C140.33 238.192 141.562 237.76 142.346 237.04L141.69 235.904C141.05 236.48 140.17 236.848 139.306 236.848C137.85 236.848 136.602 235.904 136.522 234.16H142.41C142.442 233.936 142.474 233.712 142.474 233.504C142.474 231.424 141.258 229.712 138.97 229.712C136.666 229.712 134.906 231.376 134.906 233.952ZM136.57 233.04C136.794 231.696 137.738 230.912 138.938 230.912C139.994 230.912 140.858 231.648 140.906 233.04H136.57ZM147.989 233.344C147.989 236.144 149.221 238.192 151.957 238.192C154.245 238.192 155.781 236.592 155.781 234.352C155.781 232.064 154.373 230.624 152.341 230.624C151.269 230.624 150.197 230.976 149.477 232.064H149.445C149.557 230.512 150.325 229.568 151.941 228.832L155.045 227.536L154.533 226.256L151.637 227.504C148.821 228.688 147.989 230.448 147.989 233.344ZM149.605 234.352C149.605 232.928 150.581 231.856 151.957 231.856C153.173 231.856 154.213 232.8 154.213 234.384C154.213 235.952 153.173 236.88 151.893 236.88C150.645 236.88 149.605 235.952 149.605 234.352ZM157.044 235.792C157.044 237.312 158.34 238.192 159.748 238.192C160.948 238.192 161.94 237.472 162.404 236.544H162.436C162.436 236.544 162.388 236.816 162.388 237.184V238H163.844V232.88C163.844 230.832 162.676 229.712 160.644 229.712C159.508 229.712 158.276 230.128 157.62 230.672L158.244 231.808C158.9 231.344 159.716 231.024 160.516 231.024C161.524 231.024 162.292 231.472 162.292 232.8V232.96H161.876C160.196 232.96 157.044 233.248 157.044 235.792ZM158.596 235.664C158.596 234.176 160.74 234.08 161.892 234.08H162.292V234.384C162.292 235.584 161.476 236.96 160.116 236.96C159.108 236.96 158.596 236.304 158.596 235.664ZM165.354 237.008C166.026 237.648 167.082 238.192 168.33 238.192C169.994 238.192 171.434 237.344 171.434 235.68C171.434 234.64 170.794 234.032 169.978 233.776V233.744C170.618 233.472 171.162 232.912 171.162 231.904C171.162 230.464 169.962 229.712 168.426 229.712C167.146 229.712 166.234 230.128 165.61 230.592L166.186 231.632C166.81 231.168 167.45 230.928 168.154 230.928C169.049 230.928 169.594 231.344 169.594 232.096C169.594 232.912 168.97 233.264 168.058 233.264H167.21V234.384H168.202C169.338 234.384 169.866 234.832 169.866 235.616C169.866 236.496 169.114 236.944 168.186 236.944C167.21 236.944 166.442 236.368 166.074 235.984L165.354 237.008ZM172.781 233.936C172.781 236.4 174.733 238.192 177.149 238.192C179.549 238.192 181.501 236.4 181.501 233.936C181.501 231.488 179.549 229.712 177.133 229.712C174.733 229.712 172.781 231.488 172.781 233.936ZM174.365 233.936C174.365 232.256 175.613 231.056 177.149 231.056C178.669 231.056 179.933 232.256 179.933 233.936C179.933 235.632 178.669 236.848 177.149 236.848C175.613 236.848 174.365 235.632 174.365 233.936ZM183.372 238H186.828C188.588 238 189.804 237.2 189.804 235.696C189.804 234.8 189.276 234.016 188.268 233.776V233.76C189.004 233.44 189.42 232.768 189.42 231.984C189.42 230.624 188.348 229.904 186.716 229.904H183.372V238ZM184.924 233.328V230.976H186.396C187.372 230.976 187.836 231.36 187.836 232.096C187.836 232.848 187.372 233.328 186.444 233.328H184.924ZM184.924 236.912V234.368H186.572C187.644 234.368 188.236 234.848 188.236 235.648C188.236 236.4 187.708 236.912 186.588 236.912H184.924ZM199.012 238H200.564V229.904H199.012V238ZM191.684 238H194.804C196.836 238 197.764 236.96 197.764 235.44C197.764 233.6 196.5 232.832 194.82 232.832H193.236V229.904H191.684V238ZM193.236 236.88V233.952H194.58C195.7 233.952 196.196 234.56 196.196 235.424C196.196 236.272 195.716 236.88 194.596 236.88H193.236ZM202.038 238H203.798L205.494 235.296C205.622 235.104 205.734 234.864 205.734 234.864H205.766C205.766 234.864 205.894 235.104 206.022 235.296L207.718 238H209.478L206.71 233.84L209.318 229.904H207.542L206.038 232.368C205.926 232.576 205.766 232.848 205.766 232.848H205.734C205.734 232.848 205.59 232.576 205.478 232.368L203.974 229.904H202.198L204.806 233.84L202.038 238ZM214.166 237.008C214.838 237.648 215.894 238.192 217.142 238.192C218.806 238.192 220.246 237.344 220.246 235.68C220.246 234.64 219.606 234.032 218.79 233.776V233.744C219.43 233.472 219.974 232.912 219.974 231.904C219.974 230.464 218.774 229.712 217.238 229.712C215.958 229.712 215.046 230.128 214.422 230.592L214.998 231.632C215.622 231.168 216.262 230.928 216.966 230.928C217.862 230.928 218.406 231.344 218.406 232.096C218.406 232.912 217.782 233.264 216.87 233.264H216.022V234.384H217.014C218.15 234.384 218.678 234.832 218.678 235.616C218.678 236.496 217.926 236.944 216.998 236.944C216.022 236.944 215.254 236.368 214.886 235.984L214.166 237.008ZM222.122 238H223.674V234.528H227.77V238H229.322V229.904H227.77V233.2H223.674V229.904H222.122V238ZM231.044 235.792C231.044 237.312 232.34 238.192 233.748 238.192C234.948 238.192 235.94 237.472 236.404 236.544H236.436C236.436 236.544 236.388 236.816 236.388 237.184V238H237.844V232.88C237.844 230.832 236.676 229.712 234.644 229.712C233.508 229.712 232.276 230.128 231.62 230.672L232.244 231.808C232.9 231.344 233.716 231.024 234.516 231.024C235.524 231.024 236.292 231.472 236.292 232.8V232.96H235.876C234.196 232.96 231.044 233.248 231.044 235.792ZM232.596 235.664C232.596 234.176 234.74 234.08 235.892 234.08H236.292V234.384C236.292 235.584 235.476 236.96 234.116 236.96C233.108 236.96 232.596 236.304 232.596 235.664ZM240.138 238H241.69V234.528H245.786V238H247.338V229.904H245.786V233.2H241.69V229.904H240.138V238ZM249.731 238H251.219L254.723 233.168C254.979 232.784 255.379 232.24 255.427 232.096H255.459C255.459 232.224 255.411 232.784 255.411 233.168V238H256.915V229.904H255.411L251.923 234.736C251.651 235.12 251.267 235.68 251.203 235.824H251.171C251.187 235.744 251.219 235.168 251.219 234.736V229.904H249.731V238ZM262.862 228.976C264.11 228.976 265.23 228.24 265.23 226.928V226.688H263.998V226.896C263.998 227.616 263.422 227.968 262.862 227.968C262.302 227.968 261.742 227.616 261.742 226.912V226.688H260.494V226.928C260.494 228.24 261.63 228.976 262.862 228.976ZM259.294 238H260.782L264.286 233.168C264.542 232.784 264.942 232.24 264.99 232.096H265.022C265.022 232.224 264.974 232.784 264.974 233.168V238H266.478V229.904H264.974L261.486 234.736C261.214 235.12 260.83 235.68 260.766 235.824H260.734C260.75 235.744 260.782 235.168 260.782 234.736V229.904H259.294V238Z" fill="#222224"/>
<circle cx="34" cy="234" r="4" fill="#F04B5D"/>
<circle cx="34" cy="268" r="4" fill="#F04B5D"/>
<path d="M50.48 270.976C51.328 271.792 52.528 272.192 53.696 272.192C56.24 272.192 58.016 270.384 58.016 267.952C58.016 265.552 56.256 263.712 53.728 263.712C52.592 263.712 51.36 264.08 50.64 264.848L51.344 265.92C51.968 265.328 52.784 264.976 53.68 264.976C55.12 264.976 56.288 265.92 56.496 267.392H52.624V268.512H56.496C56.288 269.936 55.136 270.912 53.632 270.912C52.752 270.912 51.792 270.592 51.088 269.872L50.48 270.976ZM59.3911 267.936C59.3911 270.432 61.2631 272.08 63.7751 272.192V275.2H65.2631V272.192C67.7751 272.08 69.6311 270.432 69.6311 267.936C69.6311 265.456 67.7751 263.824 65.2631 263.728V260.8H63.7751V263.728C61.2631 263.824 59.3911 265.456 59.3911 267.936ZM65.2631 270.896V265.008C66.9111 265.104 68.1111 266.176 68.1111 267.936C68.1111 269.68 66.9111 270.784 65.2631 270.896ZM60.9271 267.936C60.9271 266.176 62.1111 265.104 63.7751 265.008V270.896C62.1111 270.784 60.9271 269.68 60.9271 267.936ZM71.0005 267.936C71.0005 270.432 72.8725 272.08 75.3845 272.192V275.2H76.8725V272.192C79.3845 272.08 81.2405 270.432 81.2405 267.936C81.2405 265.456 79.3845 263.824 76.8725 263.728V260.8H75.3845V263.728C72.8725 263.824 71.0005 265.456 71.0005 267.936ZM76.8725 270.896V265.008C78.5205 265.104 79.7205 266.176 79.7205 267.936C79.7205 269.68 78.5205 270.784 76.8725 270.896ZM72.5365 267.936C72.5365 266.176 73.7205 265.104 75.3845 265.008V270.896C73.7205 270.784 72.5365 269.68 72.5365 267.936ZM82.5939 267.952C82.5939 270.352 84.3539 272.192 86.8979 272.192C88.0179 272.192 89.2499 271.76 90.0339 271.04L89.3779 269.904C88.7379 270.48 87.8579 270.848 86.9939 270.848C85.5379 270.848 84.2899 269.904 84.2099 268.16H90.0979C90.1299 267.936 90.1619 267.712 90.1619 267.504C90.1619 265.424 88.9459 263.712 86.6579 263.712C84.3539 263.712 82.5939 265.376 82.5939 267.952ZM84.2579 267.04C84.4819 265.696 85.4259 264.912 86.6259 264.912C87.6819 264.912 88.5459 265.648 88.5939 267.04H84.2579ZM92.0281 272H93.5801V268.496H94.7481L97.1641 272H99.0041L95.9801 267.792V267.76L98.6841 263.904H96.9241L94.7161 267.168H93.5801V263.904H92.0281V272ZM102.34 272H103.876V265.232H106.708V263.904H99.5235V265.232H102.34V272ZM108.231 272H109.719L113.223 267.168C113.479 266.784 113.879 266.24 113.927 266.096H113.959C113.959 266.224 113.911 266.784 113.911 267.168V272H115.415V263.904H113.911L110.423 268.736C110.151 269.12 109.767 269.68 109.703 269.824H109.671C109.687 269.744 109.719 269.168 109.719 268.736V263.904H108.231V272ZM117.794 272H121.25C123.01 272 124.226 271.2 124.226 269.696C124.226 268.8 123.698 268.016 122.69 267.776V267.76C123.426 267.44 123.842 266.768 123.842 265.984C123.842 264.624 122.77 263.904 121.138 263.904H117.794V272ZM119.346 267.328V264.976H120.818C121.794 264.976 122.258 265.36 122.258 266.096C122.258 266.848 121.794 267.328 120.866 267.328H119.346ZM119.346 270.912V268.368H120.994C122.066 268.368 122.658 268.848 122.658 269.648C122.658 270.4 122.13 270.912 121.01 270.912H119.346ZM126.106 272H127.658V268.528H131.754V272H133.306V263.904H131.754V267.2H127.658V263.904H126.106V272ZM143.028 272H144.58V263.904H143.028V272ZM135.7 272H138.82C140.852 272 141.78 270.96 141.78 269.44C141.78 267.6 140.516 266.832 138.836 266.832H137.252V263.904H135.7V272ZM137.252 270.88V267.952H138.596C139.716 267.952 140.212 268.56 140.212 269.424C140.212 270.272 139.732 270.88 138.612 270.88H137.252ZM146.453 267.952C146.453 270.352 148.213 272.192 150.757 272.192C151.877 272.192 153.109 271.76 153.893 271.04L153.237 269.904C152.597 270.48 151.717 270.848 150.853 270.848C149.397 270.848 148.149 269.904 148.069 268.16H153.957C153.989 267.936 154.021 267.712 154.021 267.504C154.021 265.424 152.805 263.712 150.517 263.712C148.213 263.712 146.453 265.376 146.453 267.952ZM148.117 267.04C148.341 265.696 149.285 264.912 150.485 264.912C151.541 264.912 152.405 265.648 152.453 267.04H148.117ZM159.888 272H161.376L164.88 267.168C165.136 266.784 165.536 266.24 165.584 266.096H165.616C165.616 266.224 165.568 266.784 165.568 267.168V272H167.072V263.904H165.568L162.08 268.736C161.808 269.12 161.424 269.68 161.36 269.824H161.328C161.344 269.744 161.376 269.168 161.376 268.736V263.904H159.888V272ZM169.45 272H171.002V268.528H175.098V272H176.65V263.904H175.098V267.2H171.002V263.904H169.45V272ZM178.516 267.952C178.516 270.384 180.292 272.192 182.852 272.192C184.116 272.192 185.348 271.68 186.084 270.896L185.46 269.76C184.836 270.416 183.86 270.848 182.964 270.848C181.284 270.848 180.1 269.584 180.1 267.936C180.1 266.288 181.284 265.056 182.916 265.056C183.764 265.056 184.612 265.44 185.156 265.984L185.892 264.896C185.124 264.08 183.924 263.712 182.852 263.712C180.308 263.712 178.516 265.552 178.516 267.952ZM189.715 272H191.251V265.232H194.083V263.904H186.899V265.232H189.715V272ZM195.606 275.2H197.158V271.52C197.158 271.104 197.094 270.816 197.094 270.816H197.126C197.686 271.68 198.614 272.192 199.638 272.192C201.766 272.192 203.302 270.528 203.302 267.952C203.302 265.44 201.942 263.712 199.75 263.712C198.566 263.712 197.542 264.256 197.03 265.232H196.998C196.998 265.232 197.046 264.96 197.046 264.624V263.904H195.606V275.2ZM197.11 267.984C197.11 265.936 198.23 265.072 199.446 265.072C200.79 265.072 201.734 266.208 201.734 267.968C201.734 269.808 200.678 270.848 199.398 270.848C197.91 270.848 197.11 269.424 197.11 267.984ZM204.581 273.68L204.037 274.864C204.037 274.864 204.693 275.36 205.589 275.36C206.725 275.36 207.733 274.72 208.213 273.456L212.021 263.904H210.341L208.373 269.216C208.229 269.632 208.101 270.176 208.101 270.176H208.069C208.069 270.176 207.925 269.6 207.765 269.2L205.733 263.904H203.989L207.381 271.904L206.981 272.832C206.677 273.568 206.149 274.032 205.509 274.032C205.029 274.032 204.581 273.68 204.581 273.68ZM213.052 272H214.556L214.908 267.184C214.94 266.704 214.892 265.792 214.892 265.792H214.924C214.924 265.792 215.18 266.4 215.436 266.992L217.356 271.024H218.684L220.604 266.976C220.908 266.352 221.116 265.792 221.116 265.792H221.148C221.148 265.792 221.116 266.704 221.132 267.184L221.484 272H222.988L222.284 263.904H220.588L218.476 268.48C218.268 268.976 218.028 269.568 218.028 269.568H217.996C217.996 269.568 217.772 268.96 217.548 268.48L215.484 263.904H213.756L213.052 272ZM224.547 267.952C224.547 270.352 226.307 272.192 228.851 272.192C229.971 272.192 231.203 271.76 231.987 271.04L231.331 269.904C230.691 270.48 229.811 270.848 228.947 270.848C227.491 270.848 226.243 269.904 226.163 268.16H232.051C232.083 267.936 232.115 267.712 232.115 267.504C232.115 265.424 230.899 263.712 228.611 263.712C226.307 263.712 224.547 265.376 224.547 267.952ZM226.211 267.04C226.435 265.696 227.379 264.912 228.579 264.912C229.635 264.912 230.499 265.648 230.547 267.04H226.211ZM233.981 272H235.533V268.528H239.629V272H241.181V263.904H239.629V267.2H235.533V263.904H233.981V272ZM245.527 272H247.063V265.232H249.895V263.904H242.711V265.232H245.527V272ZM258.747 272H260.299V263.904H258.747V272ZM251.419 272H254.539C256.571 272 257.499 270.96 257.499 269.44C257.499 267.6 256.235 266.832 254.555 266.832H252.971V263.904H251.419V272ZM252.971 270.88V267.952H254.315C255.435 267.952 255.931 268.56 255.931 269.424C255.931 270.272 255.451 270.88 254.331 270.88H252.971ZM52.784 294.72C53.808 293.12 53.936 290.816 53.936 289.6V289.168H56.368V294.72H52.784ZM50.192 294.72V297.92H51.648V296H57.648V297.92H59.072V294.72H57.92V287.904H52.448V289.392C52.448 290.64 52.32 293.168 51.184 294.72H50.192ZM59.82 296.08C62.204 295.952 63.132 294.064 63.132 290.4V289.184H65.516V296H67.068V287.904H61.644V290.4C61.644 293.328 61.004 294.512 59.82 294.688V296.08ZM68.6496 296H70.3616L72.3456 293.072H73.7056V296H75.2576V287.904H72.0256C70.3136 287.904 69.1296 288.784 69.1296 290.448C69.1296 291.68 69.9616 292.544 70.8896 292.8V292.816C70.8896 292.816 70.6976 293.024 70.5216 293.312L68.6496 296ZM72.3616 291.936C71.4176 291.936 70.6976 291.44 70.6976 290.432C70.6976 289.392 71.3696 288.976 72.4096 288.976H73.7056V291.936H72.3616ZM81.6531 299.2H83.2051V295.52C83.2051 295.104 83.1411 294.816 83.1411 294.816H83.1731C83.7331 295.68 84.6611 296.192 85.6851 296.192C87.8131 296.192 89.3491 294.528 89.3491 291.952C89.3491 289.44 87.9891 287.712 85.7971 287.712C84.6131 287.712 83.5891 288.256 83.0771 289.232H83.0451C83.0451 289.232 83.0931 288.96 83.0931 288.624V287.904H81.6531V299.2ZM83.1571 291.984C83.1571 289.936 84.2771 289.072 85.4931 289.072C86.8371 289.072 87.7811 290.208 87.7811 291.968C87.7811 293.808 86.7251 294.848 85.4451 294.848C83.9571 294.848 83.1571 293.424 83.1571 291.984ZM90.5905 293.792C90.5905 295.312 91.8865 296.192 93.2945 296.192C94.4945 296.192 95.4865 295.472 95.9505 294.544H95.9825C95.9825 294.544 95.9345 294.816 95.9345 295.184V296H97.3905V290.88C97.3905 288.832 96.2225 287.712 94.1905 287.712C93.0545 287.712 91.8225 288.128 91.1665 288.672L91.7905 289.808C92.4465 289.344 93.2625 289.024 94.0625 289.024C95.0705 289.024 95.8385 289.472 95.8385 290.8V290.96H95.4225C93.7425 290.96 90.5905 291.248 90.5905 293.792ZM92.1425 293.664C92.1425 292.176 94.2865 292.08 95.4385 292.08H95.8385V292.384C95.8385 293.584 95.0225 294.96 93.6625 294.96C92.6545 294.96 92.1425 294.304 92.1425 293.664ZM99.3324 291.344C99.3324 294.144 100.564 296.192 103.3 296.192C105.588 296.192 107.124 294.592 107.124 292.352C107.124 290.064 105.716 288.624 103.684 288.624C102.612 288.624 101.54 288.976 100.82 290.064H100.788C100.9 288.512 101.668 287.568 103.284 286.832L106.388 285.536L105.876 284.256L102.98 285.504C100.164 286.688 99.3324 288.448 99.3324 291.344ZM100.948 292.352C100.948 290.928 101.924 289.856 103.3 289.856C104.516 289.856 105.556 290.8 105.556 292.384C105.556 293.952 104.516 294.88 103.236 294.88C101.988 294.88 100.948 293.952 100.948 292.352ZM108.531 291.936C108.531 294.4 110.483 296.192 112.899 296.192C115.299 296.192 117.251 294.4 117.251 291.936C117.251 289.488 115.299 287.712 112.883 287.712C110.483 287.712 108.531 289.488 108.531 291.936ZM110.115 291.936C110.115 290.256 111.363 289.056 112.899 289.056C114.419 289.056 115.683 290.256 115.683 291.936C115.683 293.632 114.419 294.848 112.899 294.848C111.363 294.848 110.115 293.632 110.115 291.936ZM120.808 296H122.344V289.232H125.176V287.904H117.992V289.232H120.808V296ZM134.028 296H135.58V287.904H134.028V296ZM126.7 296H129.82C131.852 296 132.78 294.96 132.78 293.44C132.78 291.6 131.516 290.832 129.836 290.832H128.252V287.904H126.7V296ZM128.252 294.88V291.952H129.596C130.716 291.952 131.212 292.56 131.212 293.424C131.212 294.272 130.732 294.88 129.612 294.88H128.252Z" fill="#222224"/>
<g clip-path="url(#clip0)">
<path d="M30 100.588C29.994 106.964 31.877 113.199 35.4129 118.513C38.9489 123.826 43.9805 127.982 49.8769 130.458C55.7733 132.934 62.2722 133.621 68.5588 132.432C74.8454 131.244 80.64 128.233 85.2162 123.777C89.7923 119.32 92.9464 113.618 94.283 107.383C95.6197 101.148 95.0793 94.6587 92.7298 88.7286C90.3802 82.7985 86.326 77.6914 81.0753 74.0475C75.8247 70.4036 69.6113 68.3851 63.2141 68.2451C63.1131 68.2429 63.0122 68.2407 62.9091 68.2385C62.7643 68.2363 62.6173 68.2363 62.4703 68.2363C62.1017 68.2363 61.7331 68.2429 61.3668 68.256C60.5594 68.2822 59.7608 68.3376 58.971 68.4221C58.5146 68.4702 58.0649 68.5292 57.6151 68.5948C57.5647 68.6036 57.512 68.6101 57.4616 68.6189C55.6056 68.9039 53.7783 69.3509 52.0008 69.9545C45.5841 72.1349 40.0127 76.2608 36.0674 81.7542C32.1221 87.2476 30.0005 93.8332 30 100.588Z" fill="#F04B5D"/>
<mask id="mask0" mask-type="alpha" maskUnits="userSpaceOnUse" x="30" y="48" width="65" height="86">
<path d="M30 100.588C29.994 106.964 31.877 113.199 35.4129 118.513C38.9489 123.826 43.9805 127.982 49.8769 130.458C55.7733 132.934 62.2721 133.621 68.5588 132.433C74.8454 131.244 80.64 128.233 85.2162 123.777C89.7923 119.321 92.9464 113.618 94.283 107.383C95.6197 101.148 95.0793 94.6589 92.7298 88.7288C90.3802 82.7987 86.326 77.6916 81.0753 74.0477C75.8247 70.4038 74.4618 70.6832 71.5278 68.5949C79.4271 64.4975 84.3924 44.2837 62.7257 49.674C62.7257 49.674 59.566 52.1444 59.1146 53.2675C58.4375 54.3904 61.7331 68.243 61.3668 68.2562C60.5594 68.2824 59.7608 68.3378 58.971 68.4223C58.5146 68.4704 58.0649 68.5294 57.6151 68.595C57.5647 68.6037 57.512 68.6103 57.4615 68.619C55.6056 68.9041 53.7783 69.351 52.0008 69.9546C45.5841 72.135 40.0127 76.261 36.0674 81.7544C32.1221 87.2478 30.0005 93.8334 30 100.588Z" fill="#F04B5D"/>
</mask>
<g mask="url(#mask0)">
<path d="M48.5767 129.87C48.5767 129.87 44.5229 156.729 52.9683 165.569C61.4137 174.409 72.8994 190.048 72.8994 190.048L81.007 179.849L60.4002 157.749L64.454 142.79L81.007 134.97L78.3044 116.271L53.9817 115.931L48.5767 129.87Z" fill="#2F2E41"/>
<path d="M68.5938 67.8665C72.7072 67.8665 76.0417 64.6487 76.0417 60.6793C76.0417 56.71 72.7072 53.4922 68.5938 53.4922C64.4804 53.4922 61.1459 56.71 61.1459 60.6793C61.1459 64.6487 64.4804 67.8665 68.5938 67.8665Z" fill="#FFB8B8"/>
<path d="M70.0095 59.4285C70.0095 59.4285 71.4333 59.8761 72.4401 59.5279C73.2311 59.2544 73.7873 58.4399 73.7873 58.4399" stroke="#222224" stroke-width="0.5"/>
<path d="M62.0383 62.4761C62.0383 62.4761 61.7035 72.9199 60.0298 74.2675C58.356 75.6151 66.0552 81.3424 66.0552 81.3424L71.0764 73.2568V65.8451L62.0383 62.4761Z" fill="#FFB8B8"/>
<path d="M65.6005 76.3724L61.4679 70.1123L59.1329 73.2992L55.7292 82.8605L58.4523 120.081L74.4506 120.422L76.4931 77.7383L71.3871 71.5919L65.6005 76.3724Z" fill="#D0CDE1"/>
<path d="M83.1046 78.5383L85.8661 78.1978C85.8661 78.1978 86.5564 78.5383 86.9016 80.9223C87.2468 83.3063 91.3889 104.422 91.3889 104.422L85.8661 130.305L79.6528 122.131L83.4498 107.827L79.6528 93.5233L83.1046 78.5383Z" fill="#2F2E41"/>
<path d="M48.4659 78.1978H46.4139L41.2847 105.739L46.0721 127.16L50.8594 119.34L49.4915 110.839L50.1756 103.359L52.5695 98.9388L48.4659 78.1978Z" fill="#2F2E41"/>
<path d="M64.1203 60.6392L65.4819 60.2978C65.4819 60.2978 66.5031 54.4945 68.8859 55.1773C71.2687 55.86 77.3959 56.5427 77.3959 53.8118C77.3959 51.0808 71.6091 48.6912 68.2051 49.0326C64.8011 49.374 59.0143 50.3981 59.3547 55.5186C59.6951 60.6391 61.8916 65.6203 61.8916 65.6203L62.069 62.5844L64.1203 60.6392Z" fill="#2F2E41"/>
<path d="M71.3557 80.4439L65.6597 76.5047L71.3557 71.9092L73.3333 74.2338L71.3557 80.4439Z" fill="#D0CDE1"/>
<path d="M60.3143 79.9947L65.6597 76.4165L61.3835 70.5615L58.8889 73.489L60.3143 79.9947Z" fill="#D0CDE1"/>
<path d="M85.0695 78.7484L74.3053 74.3414L71.7824 72.477L64.2138 106.207L59.1681 90.9522L60.6818 71.46L46.7219 78.7484L51.4313 101.8L52.1041 110.614L50.0858 117.733C50.0858 117.733 43.0217 122.818 45.3764 128.242C47.7311 133.666 50.4221 134.005 50.4221 134.005C50.4221 134.005 61.8591 123.157 62.5319 120.445C63.2047 117.733 64.2138 112.987 64.2138 112.987C64.2138 112.987 69.9323 134.683 76.6599 134.344C83.3876 134.005 83.3876 126.886 83.3876 126.886L81.7057 119.428L79.0146 111.631L80.3601 98.7491L85.0695 78.7484Z" fill="#2F2E41"/>
</g>
</g>
<rect x="30" y="332" width="170" height="48" rx="6" fill="#FFEAEC"/>
<path d="M59.9441 355.96C59.9441 358.886 62.1561 361.168 65.0821 361.168C68.0081 361.168 70.2201 358.886 70.2201 355.96C70.2201 353.118 68.0081 350.892 65.0821 350.892C62.1561 350.892 59.9441 353.118 59.9441 355.96ZM61.8061 355.96C61.8061 354.028 63.2621 352.544 65.0821 352.544C66.9021 352.544 68.3581 354.028 68.3581 355.96C68.3581 357.976 66.9021 359.516 65.0821 359.516C63.2621 359.516 61.8061 357.976 61.8061 355.96ZM71.2895 357.43C71.2895 359.502 72.8015 361.168 75.1675 361.168C76.3155 361.168 77.4355 360.72 78.1075 360.006L77.4215 358.746C76.8895 359.264 76.0775 359.656 75.3215 359.656C73.9495 359.656 73.0955 358.62 73.0955 357.416C73.0955 356.198 73.9495 355.204 75.2655 355.204C75.9655 355.204 76.6655 355.526 77.1135 355.974L77.9115 354.756C77.2255 354.014 76.1335 353.692 75.1675 353.692C72.8015 353.692 71.2895 355.4 71.2895 357.43ZM81.0594 361H82.8234V355.372H85.1894V353.86H78.7074V355.372H81.0594V361ZM85.7654 359.026C85.7654 360.328 86.8294 361.168 88.1174 361.168C89.0834 361.168 89.9374 360.636 90.3714 359.88H90.3994C90.3994 359.88 90.3574 360.104 90.3574 360.398V361H92.0094V356.534C92.0094 354.728 90.9034 353.692 89.0414 353.692C87.9774 353.692 86.8294 354.098 86.2414 354.574L86.8994 355.848C87.4734 355.456 88.1874 355.162 88.8874 355.162C89.6294 355.162 90.2314 355.484 90.2314 356.422V356.52H89.9234C88.3414 356.52 85.7654 356.884 85.7654 359.026ZM87.5294 358.872C87.5294 357.864 89.0414 357.738 89.9374 357.738H90.2454V357.934C90.2454 358.802 89.6014 359.81 88.6074 359.81C87.8934 359.81 87.5294 359.348 87.5294 358.872ZM93.8172 361H97.2052C98.7032 361 99.8652 360.356 99.8652 358.928C99.8652 358.214 99.4592 357.514 98.6052 357.29V357.276C99.2072 356.982 99.5432 356.366 99.5432 355.708C99.5432 354.504 98.5772 353.86 97.1352 353.86H93.8172V361ZM95.5952 356.8V355.022H96.7292C97.4292 355.022 97.7512 355.344 97.7512 355.862C97.7512 356.408 97.4292 356.8 96.7572 356.8H95.5952ZM95.5952 359.824V357.906H96.8972C97.6672 357.906 98.0732 358.298 98.0732 358.872C98.0732 359.418 97.6952 359.824 96.8972 359.824H95.5952ZM101.35 361H103.072L105.718 357.192C105.9 356.912 106.166 356.534 106.25 356.338H106.278C106.264 356.52 106.236 356.926 106.236 357.192V361H107.93V353.86H106.208L103.562 357.682C103.38 357.962 103.114 358.354 103.03 358.536H103.002C103.016 358.424 103.044 358.004 103.044 357.682V353.86H101.35V361ZM111.507 361H113.271V355.372H115.637V353.86H109.155V355.372H111.507V361ZM116.841 361H119.935C121.811 361 122.637 360.062 122.637 358.676C122.637 357.122 121.629 356.31 119.949 356.31H118.619V353.86H116.841V361ZM118.619 359.782V357.514H119.627C120.467 357.514 120.845 358.004 120.845 358.662C120.845 359.306 120.467 359.782 119.655 359.782H118.619ZM126.792 360.118C127.45 360.734 128.472 361.168 129.55 361.168C131.104 361.168 132.364 360.412 132.364 358.928C132.364 358.046 131.804 357.528 131.16 357.29V357.262C131.664 357.024 132.14 356.534 132.14 355.652C132.14 354.392 131.034 353.692 129.634 353.692C128.444 353.692 127.59 354.056 127.002 354.49L127.576 355.624C128.206 355.204 128.766 355.036 129.298 355.036C130.012 355.036 130.362 355.358 130.362 355.89C130.362 356.492 129.886 356.716 129.256 356.716H128.528V357.948H129.396C130.25 357.948 130.586 358.284 130.586 358.83C130.586 359.432 130.11 359.796 129.354 359.796C128.612 359.796 127.926 359.348 127.548 358.984L126.792 360.118ZM133.302 359.026C133.302 360.328 134.366 361.168 135.654 361.168C136.62 361.168 137.474 360.636 137.908 359.88H137.936C137.936 359.88 137.894 360.104 137.894 360.398V361H139.546V356.534C139.546 354.728 138.44 353.692 136.578 353.692C135.514 353.692 134.366 354.098 133.778 354.574L134.436 355.848C135.01 355.456 135.724 355.162 136.424 355.162C137.166 355.162 137.768 355.484 137.768 356.422V356.52H137.46C135.878 356.52 133.302 356.884 133.302 359.026ZM135.066 358.872C135.066 357.864 136.578 357.738 137.474 357.738H137.782V357.934C137.782 358.802 137.138 359.81 136.144 359.81C135.43 359.81 135.066 359.348 135.066 358.872ZM140.654 361H142.572L144.168 358.578H145.092V361H146.87V353.86H143.664C142.124 353.86 141.102 354.7 141.102 356.17C141.102 357.192 141.746 357.976 142.544 358.27V358.284C142.544 358.284 142.39 358.452 142.222 358.718L140.654 361ZM144.154 357.346C143.426 357.346 142.88 356.968 142.88 356.156C142.88 355.344 143.398 355.022 144.168 355.022H145.092V357.346H144.154ZM148.778 361H152.166C153.664 361 154.826 360.356 154.826 358.928C154.826 358.214 154.42 357.514 153.566 357.29V357.276C154.168 356.982 154.504 356.366 154.504 355.708C154.504 354.504 153.538 353.86 152.096 353.86H148.778V361ZM150.556 356.8V355.022H151.69C152.39 355.022 152.712 355.344 152.712 355.862C152.712 356.408 152.39 356.8 151.718 356.8H150.556ZM150.556 359.824V357.906H151.858C152.628 357.906 153.034 358.298 153.034 358.872C153.034 359.418 152.656 359.824 151.858 359.824H150.556ZM156.311 361H158.089V358.102H159.013L160.889 361H162.947L160.399 357.29V357.262L162.667 353.86H160.693L158.957 356.59H158.089V353.86H156.311V361ZM163.813 362.148L163.225 363.478C163.225 363.478 163.855 363.94 164.709 363.94C165.759 363.94 166.795 363.38 167.285 362.078L170.463 353.86H168.531L167.131 358.004C167.019 358.382 166.893 358.942 166.893 358.942H166.865C166.865 358.942 166.739 358.354 166.599 357.976L165.101 353.86H163.099L166.109 360.888L165.843 361.518C165.577 362.148 165.087 362.442 164.597 362.442C164.205 362.442 163.813 362.148 163.813 362.148Z" fill="#F04B5D"/>
<defs>
<clipPath id="clip0">
<rect width="65" height="84" transform="matrix(-1 0 0 1 95 49)" fill="white"/>
</clipPath>
</defs>
</svg>
