<svg width="702" height="228" viewBox="0 0 702 228" fill="none" xmlns="http://www.w3.org/2000/svg">
<path d="M55.4581 30.04C55.4581 46.84 68.0981 59.96 85.3781 59.96C102.658 59.96 115.298 46.84 115.298 30.04C115.298 13.64 102.658 0.839995 85.3781 0.839995C68.0981 0.839995 55.4581 13.64 55.4581 30.04ZM69.9381 30.04C69.9381 20.68 76.8181 13.64 85.3781 13.64C93.9381 13.64 100.818 20.68 100.818 30.04C100.818 39.8 93.9381 47.16 85.3781 47.16C76.8181 47.16 69.9381 39.8 69.9381 30.04ZM122.296 59H136.136V43.96H148.856V59H162.696V17.8H148.856V32.36H136.136V17.8H122.296V59ZM168.944 59.4C184.944 59.4 189.744 47.88 189.744 31.08V28.76H196.624V59H210.464V17.8H176.704V31C176.704 45.16 172.624 46.84 168.944 47.32V59.4ZM216.758 47.4C216.758 54.52 222.278 59.96 230.198 59.96C234.918 59.96 239.718 57.8 242.438 53.96H242.598C242.598 53.96 242.438 55.16 242.438 56.52V59H255.078V33.64C255.078 23.16 248.038 16.84 236.678 16.84C229.958 16.84 222.758 19.48 219.238 22.2L224.038 31.96C227.318 29.8 231.398 28.04 235.398 28.04C238.438 28.04 241.238 29.16 241.238 32.6V33.32H240.038C229.878 33.32 216.758 36.36 216.758 47.4ZM230.438 46.12C230.438 42.36 235.878 41.24 240.118 41.24H241.398V42.36C241.398 45.72 238.358 49.64 234.358 49.64C231.798 49.64 230.438 48.04 230.438 46.12ZM284.019 14.92C292.099 14.92 299.139 10.52 299.139 2.68V1.8H288.979V2.76C288.979 6.04 286.339 7.48 284.019 7.48C281.619 7.48 279.059 6.04 279.059 2.76V1.8H268.819V2.68C268.819 10.52 275.859 14.92 284.019 14.92ZM263.859 59H277.299L288.739 40.92C289.379 39.8 290.259 38.52 290.979 36.84H291.139C290.979 38.44 290.979 40.04 290.979 41V59H304.019V17.8H290.579L279.139 35.96C278.419 37.16 277.619 38.36 276.899 40.04H276.739C276.819 39 276.899 37.4 276.899 35.96V17.8H263.859V59ZM313.312 59H327.152V43.96H339.872V59H353.712V17.8H339.872V32.36H327.152V17.8H313.312V59ZM363.079 42.04H388.199V30.04H363.079V42.04ZM397.531 59H455.211V17.8H442.171V47.4H432.891V17.8H419.851V47.4H410.571V17.8H397.531V59ZM464.484 59H478.324V43.88H482.644L491.364 59H507.124L493.364 37.56V37.4L505.444 17.8H490.404L482.244 32.28H478.324V17.8H464.484V59ZM507.711 38.52C507.711 51.4 518.111 59.96 531.071 59.96C544.031 59.96 554.431 51.4 554.431 38.52C554.431 25.56 544.031 16.84 530.991 16.84C518.111 16.84 507.711 25.56 507.711 38.52ZM521.711 38.52C521.711 32.28 526.031 28.36 531.071 28.36C536.111 28.36 540.431 32.28 540.431 38.52C540.431 44.68 536.111 48.44 531.071 48.44C526.031 48.44 521.711 44.68 521.711 38.52ZM557.147 59.4C573.147 59.4 577.947 47.88 577.947 31.08V28.76H584.827V59H598.667V17.8H564.907V31C564.907 45.16 560.827 46.84 557.147 47.32V59.4ZM604.961 47.4C604.961 54.52 610.481 59.96 618.401 59.96C623.121 59.96 627.921 57.8 630.641 53.96H630.801C630.801 53.96 630.641 55.16 630.641 56.52V59H643.281V33.64C643.281 23.16 636.241 16.84 624.881 16.84C618.161 16.84 610.961 19.48 607.441 22.2L612.241 31.96C615.521 29.8 619.601 28.04 623.601 28.04C626.641 28.04 629.441 29.16 629.441 32.6V33.32H628.241C618.081 33.32 604.961 36.36 604.961 47.4ZM618.641 46.12C618.641 42.36 624.081 41.24 628.321 41.24H629.601V42.36C629.601 45.72 626.561 49.64 622.561 49.64C620.001 49.64 618.641 48.04 618.641 46.12ZM0.538438 143H14.3784V113.4H26.6184V143H40.4584V101.8H0.538438V143ZM47.4372 122.52C47.4372 135.4 57.8372 143.96 70.7972 143.96C83.7572 143.96 94.1572 135.4 94.1572 122.52C94.1572 109.56 83.7572 100.84 70.7172 100.84C57.8372 100.84 47.4372 109.56 47.4372 122.52ZM61.4372 122.52C61.4372 116.28 65.7572 112.36 70.7972 112.36C75.8372 112.36 80.1572 116.28 80.1572 122.52C80.1572 128.68 75.8372 132.44 70.7972 132.44C65.7572 132.44 61.4372 128.68 61.4372 122.52ZM117.325 143H132.525L137.405 133.72C137.805 133 138.365 131.64 138.365 131.64H138.525C138.525 131.64 139.085 133 139.485 133.72L144.445 143H159.645L146.685 122.6L159.885 101.8H144.285L139.805 111C139.325 112.04 138.525 113.72 138.525 113.72H138.365C138.365 113.72 137.645 112.04 137.085 111L132.605 101.8H117.005L130.285 122.6L117.325 143ZM165.07 143H178.51L189.95 124.92C190.59 123.8 191.47 122.52 192.19 120.84H192.35C192.19 122.44 192.19 124.04 192.19 125V143H205.23V101.8H191.79L180.35 119.96C179.63 121.16 178.83 122.36 178.11 124.04H177.95C178.03 123 178.11 121.4 178.11 119.96V101.8H165.07V143ZM212.763 143H225.963L226.923 124.04C227.083 120.84 226.843 117 226.843 117H227.003C227.003 117 228.523 120.44 229.403 123.08L234.843 137.48H246.043L251.483 123.08C252.523 120.52 253.723 117 253.723 117H253.883C253.883 117 253.723 120.84 253.803 124.04L254.763 143H268.043L264.123 101.8H248.203L242.123 119.88C241.403 121.96 240.443 124.68 240.443 124.68H240.363C240.363 124.68 239.483 121.96 238.763 119.88L232.683 101.8H216.683L212.763 143ZM275.538 143H288.978L300.418 124.92C301.058 123.8 301.938 122.52 302.658 120.84H302.818C302.658 122.44 302.658 124.04 302.658 125V143H315.698V101.8H302.258L290.818 119.96C290.098 121.16 289.298 122.36 288.578 124.04H288.418C288.498 123 288.578 121.4 288.578 119.96V101.8H275.538V143ZM324.992 143H338.432L349.872 124.92C350.512 123.8 351.392 122.52 352.112 120.84H352.272C352.112 122.44 352.112 124.04 352.112 125V143H365.152V101.8H351.712L340.272 119.96C339.552 121.16 338.752 122.36 338.032 124.04H337.872C337.952 123 338.032 121.4 338.032 119.96V101.8H324.992V143ZM370.685 151.88H380.845L389.885 129.72H376.685L370.685 151.88ZM416.033 122.52C416.033 135.16 425.953 143.56 438.513 143.96V159H451.553V143.96C464.113 143.56 474.033 135.16 474.033 122.52C474.033 109.8 464.113 101.16 451.553 100.84V87H438.513V100.84C425.953 101.16 416.033 109.8 416.033 122.52ZM451.553 133.08V111.72C456.593 112.12 460.673 116.12 460.673 122.52C460.673 128.76 456.593 132.68 451.553 133.08ZM429.393 122.52C429.393 116.12 433.473 112.12 438.513 111.72V133.08C433.473 132.68 429.393 128.76 429.393 122.52ZM481.085 143H494.525L505.965 124.92C506.605 123.8 507.485 122.52 508.205 120.84H508.365C508.205 122.44 508.205 124.04 508.205 125V143H521.245V101.8H507.805L496.365 119.96C495.645 121.16 494.845 122.36 494.125 124.04H493.965C494.045 123 494.125 121.4 494.125 119.96V101.8H481.085V143ZM527.098 137.88C531.578 141.88 538.218 143.96 544.298 143.96C554.058 143.96 561.338 139.56 561.338 130.84C561.338 126.04 558.058 123.16 554.938 121.72V121.56C557.418 120.2 560.058 117.4 560.058 112.28C560.058 105.16 553.338 100.84 544.858 100.84C537.338 100.84 532.058 102.84 528.218 105.48L532.218 114.04C536.538 111.48 539.738 110.92 541.978 110.92C545.498 110.92 546.298 112.44 546.298 114.2C546.298 116.76 544.298 117.4 542.138 117.4H537.978V126.52H543.018C546.778 126.52 547.498 127.96 547.498 129.96C547.498 131.88 546.378 133.56 542.538 133.56C539.258 133.56 535.178 131.56 532.618 129.24L527.098 137.88ZM568.351 143H581.791L593.231 124.92C593.871 123.8 594.751 122.52 595.471 120.84H595.631C595.471 122.44 595.471 124.04 595.471 125V143H608.511V101.8H595.071L583.631 119.96C582.911 121.16 582.111 122.36 581.391 124.04H581.231C581.311 123 581.391 121.4 581.391 119.96V101.8H568.351V143ZM617.804 143H631.644V127.88H635.964L644.684 143H660.444L646.684 121.56V121.4L658.764 101.8H643.724L635.564 116.28H631.644V101.8H617.804V143ZM661.031 122.36C661.031 133.32 668.951 143.96 683.671 143.96C689.991 143.96 696.791 141.8 701.271 137.96L696.151 128.28C692.791 130.52 688.871 132.44 684.791 132.44C680.391 132.44 676.231 130.12 675.191 125.08H701.191C701.351 123.64 701.511 122.2 701.511 120.76C701.511 109.32 694.631 100.84 682.471 100.84C669.191 100.84 661.031 110.28 661.031 122.36ZM675.511 117.16C676.231 113.88 678.151 111 682.151 111C685.671 111 687.831 113.8 687.831 117.16H675.511ZM90.8509 227H104.291L115.731 208.92C116.371 207.8 117.251 206.52 117.971 204.84H118.131C117.971 206.44 117.971 208.04 117.971 209V227H131.011V185.8H117.571L106.131 203.96C105.411 205.16 104.611 206.36 103.891 208.04H103.731C103.811 207 103.891 205.4 103.891 203.96V185.8H90.8509V227ZM158.544 227H171.744L172.704 208.04C172.864 204.84 172.624 201 172.624 201H172.784C172.784 201 174.304 204.44 175.184 207.08L180.624 221.48H191.824L197.264 207.08C198.304 204.52 199.504 201 199.504 201H199.664C199.664 201 199.504 204.84 199.584 208.04L200.544 227H213.824L209.904 185.8H193.984L187.904 203.88C187.184 205.96 186.224 208.68 186.224 208.68H186.144C186.144 208.68 185.264 205.96 184.544 203.88L178.464 185.8H162.464L158.544 227ZM218.36 215.4C218.36 222.52 223.88 227.96 231.8 227.96C236.52 227.96 241.32 225.8 244.04 221.96H244.2C244.2 221.96 244.04 223.16 244.04 224.52V227H256.68V201.64C256.68 191.16 249.64 184.84 238.28 184.84C231.56 184.84 224.36 187.48 220.84 190.2L225.64 199.96C228.92 197.8 233 196.04 237 196.04C240.04 196.04 242.84 197.16 242.84 200.6V201.32H241.64C231.48 201.32 218.36 204.36 218.36 215.4ZM232.04 214.12C232.04 210.36 237.48 209.24 241.72 209.24H243V210.36C243 213.72 239.96 217.64 235.96 217.64C233.4 217.64 232.04 216.04 232.04 214.12ZM274.5 227H288.34V197.4H300.9V185.8H262.02V197.4H274.5V227ZM303.922 206.36C303.922 217.32 311.842 227.96 326.562 227.96C332.882 227.96 339.682 225.8 344.162 221.96L339.042 212.28C335.682 214.52 331.762 216.44 327.682 216.44C323.282 216.44 319.122 214.12 318.082 209.08H344.082C344.242 207.64 344.402 206.2 344.402 204.76C344.402 193.32 337.522 184.84 325.362 184.84C312.082 184.84 303.922 194.28 303.922 206.36ZM318.402 201.16C319.122 197.88 321.042 195 325.042 195C328.562 195 330.722 197.8 330.722 201.16H318.402ZM349.872 227H363.072L364.032 208.04C364.192 204.84 363.952 201 363.952 201H364.112C364.112 201 365.632 204.44 366.512 207.08L371.952 221.48H383.152L388.592 207.08C389.632 204.52 390.832 201 390.832 201H390.992C390.992 201 390.832 204.84 390.912 208.04L391.872 227H405.152L401.232 185.8H385.312L379.232 203.88C378.512 205.96 377.552 208.68 377.552 208.68H377.472C377.472 208.68 376.592 205.96 375.872 203.88L369.792 185.8H353.792L349.872 227ZM409.688 215.4C409.688 222.52 415.208 227.96 423.128 227.96C427.848 227.96 432.648 225.8 435.368 221.96H435.528C435.528 221.96 435.368 223.16 435.368 224.52V227H448.008V201.64C448.008 191.16 440.968 184.84 429.608 184.84C422.888 184.84 415.688 187.48 412.168 190.2L416.968 199.96C420.248 197.8 424.328 196.04 428.328 196.04C431.368 196.04 434.168 197.16 434.168 200.6V201.32H432.968C422.808 201.32 409.688 204.36 409.688 215.4ZM423.368 214.12C423.368 210.36 428.808 209.24 433.048 209.24H434.328V210.36C434.328 213.72 431.288 217.64 427.288 217.64C424.728 217.64 423.368 216.04 423.368 214.12ZM465.828 227H479.668V197.4H492.228V185.8H453.348V197.4H465.828V227ZM498.038 227H511.478L522.918 208.92C523.558 207.8 524.438 206.52 525.158 204.84H525.318C525.158 206.44 525.158 208.04 525.158 209V227H538.198V185.8H524.758L513.318 203.96C512.598 205.16 511.798 206.36 511.078 208.04H510.918C510.998 207 511.078 205.4 511.078 203.96V185.8H498.038V227ZM547.492 227H561.332V211.88H565.652L574.372 227H590.132L576.372 205.56V205.4L588.452 185.8H573.412L565.252 200.28H561.332V185.8H547.492V227ZM590.718 206.36C590.718 217.32 598.638 227.96 613.358 227.96C619.678 227.96 626.478 225.8 630.958 221.96L625.838 212.28C622.478 214.52 618.558 216.44 614.478 216.44C610.078 216.44 605.918 214.12 604.878 209.08H630.878C631.038 207.64 631.198 206.2 631.198 204.76C631.198 193.32 624.318 184.84 612.158 184.84C598.878 184.84 590.718 194.28 590.718 206.36ZM605.198 201.16C605.918 197.88 607.838 195 611.838 195C615.358 195 617.518 197.8 617.518 201.16H605.198Z" fill="#222224"/>
</svg>
