<svg width="723" height="91" viewBox="0 0 723 91" fill="none" xmlns="http://www.w3.org/2000/svg">
<path d="M5.93775 15.936C7.92975 12.888 8.33775 8.4 8.33775 4.68V3.12H13.6418V15.936H5.93775ZM1.73775 15.936V21.36H3.94575V18H15.7538V21.36H17.8898V15.936H16.0178V1.056H6.10575V4.536C6.10575 8.232 5.79375 12.624 3.44175 15.936H1.73775ZM19.5471 11.928C19.5471 15.528 22.1871 18.288 26.0031 18.288C27.6831 18.288 29.5311 17.64 30.7071 16.56L29.7231 14.856C28.7631 15.72 27.4431 16.272 26.1471 16.272C23.9631 16.272 22.0911 14.856 21.9711 12.24H30.8031C30.8511 11.904 30.8991 11.568 30.8991 11.256C30.8991 8.136 29.0751 5.568 25.6431 5.568C22.1871 5.568 19.5471 8.064 19.5471 11.928ZM22.0431 10.56C22.3791 8.544 23.7951 7.368 25.5951 7.368C27.1791 7.368 28.4751 8.472 28.5471 10.56H22.0431ZM32.3784 18.12C35.9544 17.928 37.3464 15.096 37.3464 9.6V7.776H40.9224V18H43.2504V5.856H35.1144V9.6C35.1144 13.992 34.1544 15.768 32.3784 16.032V18.12ZM45.8389 14.688C45.8389 16.968 47.7829 18.288 49.8949 18.288C51.6949 18.288 53.1829 17.208 53.8789 15.816H53.9269C53.9269 15.816 53.8549 16.224 53.8549 16.776V18H56.0389V10.32C56.0389 7.248 54.2869 5.568 51.2389 5.568C49.5349 5.568 47.6869 6.192 46.7029 7.008L47.6389 8.712C48.6229 8.016 49.8469 7.536 51.0469 7.536C52.5589 7.536 53.7109 8.208 53.7109 10.2V10.44H53.0869C50.5669 10.44 45.8389 10.872 45.8389 14.688ZM48.1669 14.496C48.1669 12.264 51.3829 12.12 53.1109 12.12H53.7109V12.576C53.7109 14.376 52.4869 16.44 50.4469 16.44C48.9349 16.44 48.1669 15.456 48.1669 14.496ZM58.6877 11.928C58.6877 15.528 61.3277 18.288 65.1437 18.288C66.8237 18.288 68.6717 17.64 69.8477 16.56L68.8637 14.856C67.9037 15.72 66.5837 16.272 65.2877 16.272C63.1037 16.272 61.2317 14.856 61.1117 12.24H69.9437C69.9917 11.904 70.0397 11.568 70.0397 11.256C70.0397 8.136 68.2157 5.568 64.7837 5.568C61.3277 5.568 58.6877 8.064 58.6877 11.928ZM61.1837 10.56C61.5197 8.544 62.9357 7.368 64.7357 7.368C66.3197 7.368 67.6157 8.472 67.6877 10.56H61.1837ZM72.3351 18H74.5911L75.1191 10.776C75.1671 10.056 75.0951 8.688 75.0951 8.688H75.1431C75.1431 8.688 75.5271 9.6 75.9111 10.488L78.7911 16.536H80.7831L83.6631 10.464C84.1191 9.528 84.4311 8.688 84.4311 8.688H84.4791C84.4791 8.688 84.4311 10.056 84.4551 10.776L84.9831 18H87.2391L86.1831 5.856H83.6391L80.4711 12.72C80.1591 13.464 79.7991 14.352 79.7991 14.352H79.7511C79.7511 14.352 79.4151 13.44 79.0791 12.72L75.9831 5.856H73.3911L72.3351 18ZM95.5783 11.904C95.5783 15.6 98.5063 18.288 102.13 18.288C105.73 18.288 108.658 15.6 108.658 11.904C108.658 8.232 105.73 5.568 102.106 5.568C98.5063 5.568 95.5783 8.232 95.5783 11.904ZM97.9543 11.904C97.9543 9.384 99.8263 7.584 102.13 7.584C104.41 7.584 106.306 9.384 106.306 11.904C106.306 14.448 104.41 16.272 102.13 16.272C99.8263 16.272 97.9543 14.448 97.9543 11.904ZM110.936 11.016C110.936 15.216 112.784 18.288 116.888 18.288C120.32 18.288 122.624 15.888 122.624 12.528C122.624 9.096 120.512 6.936 117.464 6.936C115.856 6.936 114.248 7.464 113.168 9.096H113.12C113.288 6.768 114.44 5.352 116.864 4.248L121.52 2.304L120.752 0.383999L116.408 2.256C112.184 4.032 110.936 6.672 110.936 11.016ZM113.36 12.528C113.36 10.392 114.824 8.784 116.888 8.784C118.712 8.784 120.272 10.2 120.272 12.576C120.272 14.928 118.712 16.32 116.792 16.32C114.92 16.32 113.36 14.928 113.36 12.528ZM124.388 20.52L123.572 22.296C123.572 22.296 124.556 23.04 125.9 23.04C127.604 23.04 129.116 22.08 129.836 20.184L135.548 5.856H133.028L130.076 13.824C129.86 14.448 129.668 15.264 129.668 15.264H129.62C129.62 15.264 129.404 14.4 129.164 13.8L126.116 5.856H123.5L128.588 17.856L127.988 19.248C127.532 20.352 126.74 21.048 125.78 21.048C125.06 21.048 124.388 20.52 124.388 20.52ZM141.143 13.776C142.343 13.776 143.663 13.368 144.431 12.888H144.479C144.479 12.888 144.455 13.272 144.455 13.608V18H146.783V5.856H144.455V10.896C143.951 11.256 142.967 11.76 141.767 11.76C139.775 11.76 139.343 10.68 139.343 9.48V5.856H137.063V9.816C137.063 12.408 138.551 13.776 141.143 13.776ZM149.602 11.928C149.602 15.528 152.242 18.288 156.058 18.288C157.738 18.288 159.586 17.64 160.762 16.56L159.778 14.856C158.818 15.72 157.498 16.272 156.202 16.272C154.018 16.272 152.146 14.856 152.026 12.24H160.858C160.906 11.904 160.954 11.568 160.954 11.256C160.954 8.136 159.13 5.568 155.698 5.568C152.242 5.568 149.602 8.064 149.602 11.928ZM152.098 10.56C152.434 8.544 153.85 7.368 155.65 7.368C157.234 7.368 158.53 8.472 158.602 10.56H152.098ZM163.753 18H166.081V12.792H172.225V18H174.553V5.856H172.225V10.8H166.081V5.856H163.753V18ZM178.144 18H180.376L185.632 10.752C186.016 10.176 186.616 9.36 186.688 9.144H186.736C186.736 9.336 186.664 10.176 186.664 10.752V18H188.92V5.856H186.664L181.432 13.104C181.024 13.68 180.448 14.52 180.352 14.736H180.304C180.328 14.616 180.376 13.752 180.376 13.104V5.856H178.144V18ZM191.696 11.928C191.696 15.528 194.336 18.288 198.152 18.288C199.832 18.288 201.68 17.64 202.856 16.56L201.872 14.856C200.912 15.72 199.592 16.272 198.296 16.272C196.112 16.272 194.24 14.856 194.12 12.24H202.952C203 11.904 203.048 11.568 203.048 11.256C203.048 8.136 201.224 5.568 197.792 5.568C194.336 5.568 191.696 8.064 191.696 11.928ZM194.192 10.56C194.528 8.544 195.944 7.368 197.743 7.368C199.328 7.368 200.624 8.472 200.696 10.56H194.192ZM211.847 18H214.079L219.335 10.752C219.719 10.176 220.319 9.36 220.391 9.144H220.439C220.439 9.336 220.367 10.176 220.367 10.752V18H222.623V5.856H220.367L215.135 13.104C214.727 13.68 214.151 14.52 214.055 14.736H214.007C214.031 14.616 214.079 13.752 214.079 13.104V5.856H211.847V18ZM226.191 18H228.519V12.792H234.663V18H236.991V5.856H234.663V10.8H228.519V5.856H226.191V18ZM243.509 18H245.813V7.848H250.061V5.856H239.285V7.848H243.509V18ZM251.156 11.928C251.156 15.528 253.796 18.288 257.612 18.288C259.292 18.288 261.14 17.64 262.316 16.56L261.332 14.856C260.372 15.72 259.052 16.272 257.756 16.272C255.572 16.272 253.7 14.856 253.58 12.24H262.412C262.46 11.904 262.508 11.568 262.508 11.256C262.508 8.136 260.684 5.568 257.252 5.568C253.796 5.568 251.156 8.064 251.156 11.928ZM253.652 10.56C253.988 8.544 255.404 7.368 257.204 7.368C258.788 7.368 260.084 8.472 260.156 10.56H253.652ZM265.308 22.8H267.636V17.28C267.636 16.656 267.54 16.224 267.54 16.224H267.588C268.428 17.52 269.82 18.288 271.356 18.288C274.548 18.288 276.852 15.792 276.852 11.928C276.852 8.16 274.812 5.568 271.524 5.568C269.748 5.568 268.212 6.384 267.444 7.848H267.396C267.396 7.848 267.468 7.44 267.468 6.936V5.856H265.308V22.8ZM267.564 11.976C267.564 8.904 269.244 7.608 271.068 7.608C273.084 7.608 274.5 9.312 274.5 11.952C274.5 14.712 272.916 16.272 270.996 16.272C268.764 16.272 267.564 14.136 267.564 11.976ZM278.93 11.928C278.93 15.528 281.57 18.288 285.386 18.288C287.066 18.288 288.914 17.64 290.09 16.56L289.106 14.856C288.146 15.72 286.826 16.272 285.53 16.272C283.346 16.272 281.474 14.856 281.354 12.24H290.186C290.234 11.904 290.282 11.568 290.282 11.256C290.282 8.136 288.458 5.568 285.026 5.568C281.57 5.568 278.93 8.064 278.93 11.928ZM281.426 10.56C281.762 8.544 283.178 7.368 284.978 7.368C286.562 7.368 287.858 8.472 287.93 10.56H281.426ZM292.289 11.928C292.289 15.576 294.953 18.288 298.793 18.288C300.689 18.288 302.537 17.52 303.641 16.344L302.705 14.64C301.769 15.624 300.305 16.272 298.961 16.272C296.441 16.272 294.665 14.376 294.665 11.904C294.665 9.432 296.441 7.584 298.889 7.584C300.161 7.584 301.433 8.16 302.249 8.976L303.353 7.344C302.201 6.12 300.401 5.568 298.793 5.568C294.977 5.568 292.289 8.328 292.289 11.928ZM306.159 18H308.487V12.792H314.631V18H316.959V5.856H314.631V10.8H308.487V5.856H306.159V18ZM331.542 18H333.87V5.856H331.542V18ZM320.55 18H325.23C328.278 18 329.67 16.44 329.67 14.16C329.67 11.4 327.774 10.248 325.254 10.248H322.878V5.856H320.55V18ZM322.878 16.32V11.928H324.894C326.574 11.928 327.318 12.84 327.318 14.136C327.318 15.408 326.598 16.32 324.918 16.32H322.878ZM336.968 18H339.224L339.752 10.776C339.8 10.056 339.728 8.688 339.728 8.688H339.776C339.776 8.688 340.16 9.6 340.544 10.488L343.424 16.536H345.416L348.296 10.464C348.752 9.528 349.064 8.688 349.064 8.688H349.112C349.112 8.688 349.064 10.056 349.088 10.776L349.616 18H351.872L350.816 5.856H348.272L345.104 12.72C344.792 13.464 344.432 14.352 344.432 14.352H344.384C344.384 14.352 344.048 13.44 343.712 12.72L340.616 5.856H338.024L336.968 18ZM361.003 18H363.235L368.491 10.752C368.875 10.176 369.475 9.36 369.547 9.144H369.595C369.595 9.336 369.523 10.176 369.523 10.752V18H371.779V5.856H369.523L364.291 13.104C363.883 13.68 363.307 14.52 363.211 14.736H363.163C363.187 14.616 363.235 13.752 363.235 13.104V5.856H361.003V18ZM380.171 16.512C381.179 17.472 382.763 18.288 384.635 18.288C387.131 18.288 389.291 17.016 389.291 14.52C389.291 12.96 388.331 12.048 387.107 11.664V11.616C388.067 11.208 388.883 10.368 388.883 8.856C388.883 6.696 387.083 5.568 384.779 5.568C382.859 5.568 381.491 6.192 380.555 6.888L381.419 8.448C382.355 7.752 383.315 7.392 384.371 7.392C385.715 7.392 386.531 8.016 386.531 9.144C386.531 10.368 385.595 10.896 384.227 10.896H382.955V12.576H384.443C386.147 12.576 386.939 13.248 386.939 14.424C386.939 15.744 385.811 16.416 384.419 16.416C382.955 16.416 381.803 15.552 381.251 14.976L380.171 16.512ZM391.097 14.688C391.097 16.968 393.041 18.288 395.153 18.288C396.953 18.288 398.441 17.208 399.137 15.816H399.185C399.185 15.816 399.113 16.224 399.113 16.776V18H401.297V10.32C401.297 7.248 399.545 5.568 396.497 5.568C394.793 5.568 392.945 6.192 391.961 7.008L392.897 8.712C393.881 8.016 395.105 7.536 396.305 7.536C397.817 7.536 398.969 8.208 398.969 10.2V10.44H398.345C395.825 10.44 391.097 10.872 391.097 14.688ZM393.425 14.496C393.425 12.264 396.641 12.12 398.369 12.12H398.969V12.576C398.969 14.376 397.745 16.44 395.705 16.44C394.193 16.44 393.425 15.456 393.425 14.496ZM403.346 18H405.986L408.53 13.944C408.722 13.656 408.89 13.296 408.89 13.296H408.938C408.938 13.296 409.13 13.656 409.322 13.944L411.866 18H414.506L410.354 11.76L414.266 5.856H411.602L409.346 9.552C409.178 9.864 408.938 10.272 408.938 10.272H408.89C408.89 10.272 408.674 9.864 408.506 9.552L406.25 5.856H403.586L407.498 11.76L403.346 18ZM416.714 18H421.898C424.538 18 426.362 16.8 426.362 14.544C426.362 13.2 425.57 12.024 424.058 11.664V11.64C425.162 11.16 425.786 10.152 425.786 8.976C425.786 6.936 424.178 5.856 421.73 5.856H416.714V18ZM419.042 10.992V7.464H421.25C422.714 7.464 423.41 8.04 423.41 9.144C423.41 10.272 422.714 10.992 421.322 10.992H419.042ZM419.042 16.368V12.552H421.514C423.122 12.552 424.01 13.272 424.01 14.472C424.01 15.6 423.218 16.368 421.538 16.368H419.042ZM428.175 14.688C428.175 16.968 430.119 18.288 432.231 18.288C434.031 18.288 435.519 17.208 436.215 15.816H436.263C436.263 15.816 436.191 16.224 436.191 16.776V18H438.375V10.32C438.375 7.248 436.623 5.568 433.575 5.568C431.871 5.568 430.023 6.192 429.039 7.008L429.975 8.712C430.959 8.016 432.183 7.536 433.383 7.536C434.895 7.536 436.047 8.208 436.047 10.2V10.44H435.423C432.903 10.44 428.175 10.872 428.175 14.688ZM430.503 14.496C430.503 12.264 433.719 12.12 435.447 12.12H436.047V12.576C436.047 14.376 434.823 16.44 432.783 16.44C431.271 16.44 430.503 15.456 430.503 14.496ZM444.58 18H446.884V7.848H451.132V5.856H440.356V7.848H444.58V18ZM464.409 18H466.737V5.856H464.409V18ZM453.417 18H458.097C461.145 18 462.537 16.44 462.537 14.16C462.537 11.4 460.641 10.248 458.121 10.248H455.745V5.856H453.417V18ZM455.745 16.32V11.928H457.761C459.441 11.928 460.185 12.84 460.185 14.136C460.185 15.408 459.465 16.32 457.785 16.32H455.745ZM470.339 18H475.523C478.163 18 479.987 16.8 479.987 14.544C479.987 13.2 479.195 12.024 477.683 11.664V11.64C478.787 11.16 479.411 10.152 479.411 8.976C479.411 6.936 477.803 5.856 475.355 5.856H470.339V18ZM472.667 10.992V7.464H474.875C476.339 7.464 477.035 8.04 477.035 9.144C477.035 10.272 476.339 10.992 474.947 10.992H472.667ZM472.667 16.368V12.552H475.139C476.747 12.552 477.635 13.272 477.635 14.472C477.635 15.6 476.843 16.368 475.163 16.368H472.667ZM481.8 14.688C481.8 16.968 483.744 18.288 485.856 18.288C487.656 18.288 489.144 17.208 489.84 15.816H489.888C489.888 15.816 489.816 16.224 489.816 16.776V18H492V10.32C492 7.248 490.248 5.568 487.2 5.568C485.496 5.568 483.648 6.192 482.664 7.008L483.6 8.712C484.584 8.016 485.808 7.536 487.008 7.536C488.52 7.536 489.672 8.208 489.672 10.2V10.44H489.048C486.528 10.44 481.8 10.872 481.8 14.688ZM484.128 14.496C484.128 12.264 487.344 12.12 489.072 12.12H489.672V12.576C489.672 14.376 488.448 16.44 486.408 16.44C484.896 16.44 484.128 15.456 484.128 14.496ZM495.441 18H497.769V12.864H499.977C500.409 16.032 502.977 18.288 506.193 18.288C509.697 18.288 512.505 15.6 512.505 11.904C512.505 8.232 509.697 5.568 506.169 5.568C502.977 5.568 500.409 7.8 499.977 10.944H497.769V5.856H495.441V18ZM502.233 11.904C502.233 9.384 503.985 7.584 506.193 7.584C508.377 7.584 510.129 9.384 510.129 11.904C510.129 14.448 508.377 16.272 506.193 16.272C503.985 16.272 502.233 14.448 502.233 11.904ZM515.316 18H530.604V20.88H532.74V15.984H531.012V5.856H528.78V15.984H524.292V5.856H522.036V15.984H517.548V5.856H515.316V18ZM535.214 18H537.446L542.702 10.752C543.086 10.176 543.686 9.36 543.758 9.144H543.806C543.806 9.336 543.734 10.176 543.734 10.752V18H545.99V5.856H543.734L538.502 13.104C538.094 13.68 537.518 14.52 537.422 14.736H537.374C537.398 14.616 537.446 13.752 537.446 13.104V5.856H535.214V18ZM549.054 18H551.31L551.838 10.776C551.886 10.056 551.814 8.688 551.814 8.688H551.862C551.862 8.688 552.246 9.6 552.63 10.488L555.51 16.536H557.502L560.382 10.464C560.838 9.528 561.15 8.688 561.15 8.688H561.198C561.198 8.688 561.15 10.056 561.174 10.776L561.702 18H563.958L562.902 5.856H560.358L557.19 12.72C556.878 13.464 556.518 14.352 556.518 14.352H556.47C556.47 14.352 556.134 13.44 555.798 12.72L552.702 5.856H550.11L549.054 18ZM566.969 18H569.465V15.48H566.969V18ZM578.948 17.184C579.884 17.832 580.892 18.288 582.044 18.288C584.156 18.288 585.236 16.584 585.908 14.88L591.308 1.056H588.812L585.668 9.6C585.308 10.632 584.948 11.808 584.948 11.808H584.9C584.9 11.808 584.468 10.632 583.94 9.576L579.812 1.056H577.196L583.892 14.328C583.436 15.504 582.956 16.224 581.972 16.224C581.156 16.224 580.436 15.696 580.028 15.384L578.948 17.184ZM596.089 13.776C597.289 13.776 598.609 13.368 599.377 12.888H599.425C599.425 12.888 599.401 13.272 599.401 13.608V18H601.729V5.856H599.401V10.896C598.897 11.256 597.913 11.76 596.713 11.76C594.721 11.76 594.289 10.68 594.289 9.48V5.856H592.009V9.816C592.009 12.408 593.497 13.776 596.089 13.776ZM605.339 18H607.571L612.827 10.752C613.211 10.176 613.811 9.36 613.883 9.144H613.931C613.931 9.336 613.859 10.176 613.859 10.752V18H616.115V5.856H613.859L608.627 13.104C608.219 13.68 607.643 14.52 607.547 14.736H607.499C607.523 14.616 607.571 13.752 607.571 13.104V5.856H605.339V18ZM619.179 18H621.435L621.963 10.776C622.011 10.056 621.939 8.688 621.939 8.688H621.987C621.987 8.688 622.371 9.6 622.755 10.488L625.635 16.536H627.627L630.507 10.464C630.963 9.528 631.275 8.688 631.275 8.688H631.323C631.323 8.688 631.275 10.056 631.299 10.776L631.827 18H634.083L633.027 5.856H630.483L627.315 12.72C627.003 13.464 626.643 14.352 626.643 14.352H626.595C626.595 14.352 626.259 13.44 625.923 12.72L622.827 5.856H620.235L619.179 18ZM645.59 16.08C647.126 13.68 647.318 10.224 647.318 8.4V7.752H650.966V16.08H645.59ZM641.702 16.08V20.88H643.886V18H652.886V20.88H655.022V16.08H653.294V5.856H645.086V8.088C645.086 9.96 644.894 13.752 643.19 16.08H641.702ZM656.536 20.52L655.72 22.296C655.72 22.296 656.704 23.04 658.048 23.04C659.752 23.04 661.264 22.08 661.984 20.184L667.696 5.856H665.176L662.224 13.824C662.008 14.448 661.816 15.264 661.816 15.264H661.768C661.768 15.264 661.552 14.4 661.312 13.8L658.264 5.856H655.648L660.736 17.856L660.136 19.248C659.68 20.352 658.888 21.048 657.928 21.048C657.208 21.048 656.536 20.52 656.536 20.52ZM669.241 18H671.497L672.025 10.776C672.073 10.056 672.001 8.688 672.001 8.688H672.049C672.049 8.688 672.433 9.6 672.817 10.488L675.697 16.536H677.689L680.569 10.464C681.025 9.528 681.337 8.688 681.337 8.688H681.385C681.385 8.688 681.337 10.056 681.361 10.776L681.889 18H684.145L683.089 5.856H680.545L677.377 12.72C677.065 13.464 676.705 14.352 676.705 14.352H676.657C676.657 14.352 676.321 13.44 675.985 12.72L672.889 5.856H670.297L669.241 18ZM686.269 14.688C686.269 16.968 688.213 18.288 690.325 18.288C692.125 18.288 693.613 17.208 694.309 15.816H694.357C694.357 15.816 694.285 16.224 694.285 16.776V18H696.469V10.32C696.469 7.248 694.717 5.568 691.669 5.568C689.965 5.568 688.117 6.192 687.133 7.008L688.069 8.712C689.053 8.016 690.277 7.536 691.477 7.536C692.989 7.536 694.141 8.208 694.141 10.2V10.44H693.517C690.997 10.44 686.269 10.872 686.269 14.688ZM688.597 14.496C688.597 12.264 691.813 12.12 693.541 12.12H694.141V12.576C694.141 14.376 692.917 16.44 690.877 16.44C689.365 16.44 688.597 15.456 688.597 14.496ZM702.673 18H704.977V7.848H709.225V5.856H698.449V7.848H702.673V18ZM711.511 18H716.239C719.311 18 720.703 16.44 720.703 14.16C720.703 11.4 718.807 10.248 716.287 10.248H713.839V5.856H711.511V18ZM713.839 16.32V11.928H715.927C717.607 11.928 718.327 12.84 718.327 14.136C718.327 15.408 717.607 16.32 715.927 16.32H713.839ZM0.428906 52H2.66091L7.91691 44.752C8.30091 44.176 8.90091 43.36 8.97291 43.144H9.02091C9.02091 43.336 8.94891 44.176 8.94891 44.752V52H11.2049V39.856H8.94891L3.71691 47.104C3.30891 47.68 2.73291 48.52 2.63691 48.736H2.58891C2.61291 48.616 2.66091 47.752 2.66091 47.104V39.856H0.428906V52ZM20.7727 52H25.9567C28.5967 52 30.4207 50.8 30.4207 48.544C30.4207 47.2 29.6287 46.024 28.1167 45.664V45.64C29.2207 45.16 29.8447 44.152 29.8447 42.976C29.8447 40.936 28.2367 39.856 25.7887 39.856H20.7727V52ZM23.1007 44.992V41.464H25.3087C26.7727 41.464 27.4687 42.04 27.4687 43.144C27.4687 44.272 26.7727 44.992 25.3807 44.992H23.1007ZM23.1007 50.368V46.552H25.5727C27.1807 46.552 28.0687 47.272 28.0687 48.472C28.0687 49.6 27.2767 50.368 25.5967 50.368H23.1007ZM33.2414 52H35.4734L40.7294 44.752C41.1134 44.176 41.7134 43.36 41.7854 43.144H41.8334C41.8334 43.336 41.7614 44.176 41.7614 44.752V52H44.0174V39.856H41.7614L36.5294 47.104C36.1214 47.68 35.5454 48.52 35.4494 48.736H35.4014C35.4254 48.616 35.4734 47.752 35.4734 47.104V39.856H33.2414V52ZM49.9612 50.08C51.4972 47.68 51.6892 44.224 51.6892 42.4V41.752H55.3372V50.08H49.9612ZM46.0732 50.08V54.88H48.2572V52H57.2572V54.88H59.3932V50.08H57.6652V39.856H49.4572V42.088C49.4572 43.96 49.2652 47.752 47.5612 50.08H46.0732ZM60.9025 45.928C60.9025 49.528 63.5425 52.288 67.3585 52.288C69.0385 52.288 70.8865 51.64 72.0625 50.56L71.0785 48.856C70.1185 49.72 68.7985 50.272 67.5025 50.272C65.3185 50.272 63.4465 48.856 63.3265 46.24H72.1585C72.2065 45.904 72.2545 45.568 72.2545 45.256C72.2545 42.136 70.4305 39.568 66.9985 39.568C63.5425 39.568 60.9025 42.064 60.9025 45.928ZM63.3985 44.56C63.7345 42.544 65.1505 41.368 66.9505 41.368C68.5345 41.368 69.8305 42.472 69.9025 44.56H63.3985ZM77.8413 52H80.1453V41.848H84.3933V39.856H73.6173V41.848H77.8413V52ZM86.6789 52H91.4069C94.4789 52 95.8709 50.44 95.8709 48.16C95.8709 45.4 93.9749 44.248 91.4549 44.248H89.0069V39.856H86.6789V52ZM89.0069 50.32V45.928H91.0949C92.7749 45.928 93.4949 46.84 93.4949 48.136C93.4949 49.408 92.7749 50.32 91.0949 50.32H89.0069ZM103.582 45.928C103.582 49.576 106.246 52.288 110.086 52.288C111.982 52.288 113.83 51.52 114.934 50.344L113.998 48.64C113.062 49.624 111.598 50.272 110.254 50.272C107.734 50.272 105.958 48.376 105.958 45.904C105.958 43.432 107.734 41.584 110.182 41.584C111.454 41.584 112.726 42.16 113.542 42.976L114.646 41.344C113.494 40.12 111.694 39.568 110.086 39.568C106.27 39.568 103.582 42.328 103.582 45.928ZM116.735 54.52L115.919 56.296C115.919 56.296 116.903 57.04 118.247 57.04C119.951 57.04 121.463 56.08 122.183 54.184L127.895 39.856H125.375L122.423 47.824C122.207 48.448 122.015 49.264 122.015 49.264H121.967C121.967 49.264 121.751 48.4 121.511 47.8L118.463 39.856H115.847L120.935 51.856L120.335 53.248C119.879 54.352 119.087 55.048 118.127 55.048C117.407 55.048 116.735 54.52 116.735 54.52ZM133.107 52H135.411V41.848H139.659V39.856H128.883V41.848H133.107V52ZM141.945 52H146.673C149.745 52 151.137 50.44 151.137 48.16C151.137 45.4 149.241 44.248 146.721 44.248H144.273V39.856H141.945V52ZM144.273 50.32V45.928H146.361C148.041 45.928 148.761 46.84 148.761 48.136C148.761 49.408 148.041 50.32 146.361 50.32H144.273ZM159.64 52H164.824C167.464 52 169.288 50.8 169.288 48.544C169.288 47.2 168.496 46.024 166.984 45.664V45.64C168.088 45.16 168.712 44.152 168.712 42.976C168.712 40.936 167.104 39.856 164.656 39.856H159.64V52ZM161.968 44.992V41.464H164.176C165.64 41.464 166.336 42.04 166.336 43.144C166.336 44.272 165.64 44.992 164.248 44.992H161.968ZM161.968 50.368V46.552H164.44C166.048 46.552 166.936 47.272 166.936 48.472C166.936 49.6 166.144 50.368 164.464 50.368H161.968ZM171.317 45.928C171.317 49.528 173.957 52.288 177.773 52.288C179.453 52.288 181.301 51.64 182.477 50.56L181.493 48.856C180.533 49.72 179.213 50.272 177.917 50.272C175.733 50.272 173.861 48.856 173.741 46.24H182.573C182.621 45.904 182.669 45.568 182.669 45.256C182.669 42.136 180.845 39.568 177.413 39.568C173.957 39.568 171.317 42.064 171.317 45.928ZM173.813 44.56C174.149 42.544 175.565 41.368 177.365 41.368C178.949 41.368 180.245 42.472 180.317 44.56H173.813ZM185.468 52H200.756V54.88H202.892V49.984H201.164V39.856H198.932V49.984H194.444V39.856H192.188V49.984H187.7V39.856H185.468V52ZM204.434 45.928C204.434 49.528 207.074 52.288 210.89 52.288C212.57 52.288 214.418 51.64 215.594 50.56L214.61 48.856C213.65 49.72 212.33 50.272 211.034 50.272C208.85 50.272 206.978 48.856 206.858 46.24H215.69C215.738 45.904 215.786 45.568 215.786 45.256C215.786 42.136 213.962 39.568 210.53 39.568C207.074 39.568 204.434 42.064 204.434 45.928ZM206.93 44.56C207.266 42.544 208.682 41.368 210.482 41.368C212.066 41.368 213.362 42.472 213.434 44.56H206.93ZM223.937 38.464C225.809 38.464 227.489 37.36 227.489 35.392V35.032H225.641V35.344C225.641 36.424 224.777 36.952 223.937 36.952C223.097 36.952 222.257 36.424 222.257 35.368V35.032H220.385V35.392C220.385 37.36 222.089 38.464 223.937 38.464ZM218.585 52H220.817L226.073 44.752C226.457 44.176 227.057 43.36 227.129 43.144H227.177C227.177 43.336 227.105 44.176 227.105 44.752V52H229.361V39.856H227.105L221.873 47.104C221.465 47.68 220.889 48.52 220.793 48.736H220.745C220.769 48.616 220.817 47.752 220.817 47.104V39.856H218.585V52ZM232.809 52H235.305V49.48H232.809V52ZM245.22 52H247.596V37.12H256.188V52H258.564V35.056H245.22V52ZM261.574 45.904C261.574 49.6 264.502 52.288 268.126 52.288C271.726 52.288 274.654 49.6 274.654 45.904C274.654 42.232 271.726 39.568 268.102 39.568C264.502 39.568 261.574 42.232 261.574 45.904ZM263.95 45.904C263.95 43.384 265.822 41.584 268.126 41.584C270.406 41.584 272.302 43.384 272.302 45.904C272.302 48.448 270.406 50.272 268.126 50.272C265.822 50.272 263.95 48.448 263.95 45.904ZM276.956 52H279.212L279.74 44.776C279.788 44.056 279.716 42.688 279.716 42.688H279.764C279.764 42.688 280.148 43.6 280.532 44.488L283.412 50.536H285.404L288.284 44.464C288.74 43.528 289.052 42.688 289.052 42.688H289.1C289.1 42.688 289.052 44.056 289.076 44.776L289.604 52H291.86L290.804 39.856H288.26L285.092 46.72C284.78 47.464 284.42 48.352 284.42 48.352H284.372C284.372 48.352 284.036 47.44 283.7 46.72L280.604 39.856H278.012L276.956 52ZM294.199 45.904C294.199 49.6 297.127 52.288 300.751 52.288C304.351 52.288 307.279 49.6 307.279 45.904C307.279 42.232 304.351 39.568 300.727 39.568C297.127 39.568 294.199 42.232 294.199 45.904ZM296.575 45.904C296.575 43.384 298.447 41.584 300.751 41.584C303.031 41.584 304.927 43.384 304.927 45.904C304.927 48.448 303.031 50.272 300.751 50.272C298.447 50.272 296.575 48.448 296.575 45.904ZM310.085 52H312.413V41.848H317.693V39.856H310.085V52ZM318.851 48.688C318.851 50.968 320.795 52.288 322.907 52.288C324.707 52.288 326.195 51.208 326.891 49.816H326.939C326.939 49.816 326.867 50.224 326.867 50.776V52H329.051V44.32C329.051 41.248 327.299 39.568 324.251 39.568C322.547 39.568 320.699 40.192 319.715 41.008L320.651 42.712C321.635 42.016 322.859 41.536 324.059 41.536C325.571 41.536 326.723 42.208 326.723 44.2V44.44H326.099C323.579 44.44 318.851 44.872 318.851 48.688ZM321.179 48.496C321.179 46.264 324.395 46.12 326.123 46.12H326.723V46.576C326.723 48.376 325.499 50.44 323.459 50.44C321.947 50.44 321.179 49.456 321.179 48.496ZM331.699 45.928C331.699 49.528 334.339 52.288 338.155 52.288C339.835 52.288 341.683 51.64 342.859 50.56L341.875 48.856C340.915 49.72 339.595 50.272 338.299 50.272C336.115 50.272 334.243 48.856 334.123 46.24H342.955C343.003 45.904 343.051 45.568 343.051 45.256C343.051 42.136 341.227 39.568 337.795 39.568C334.339 39.568 331.699 42.064 331.699 45.928ZM334.195 44.56C334.531 42.544 335.947 41.368 337.747 41.368C339.331 41.368 340.627 42.472 340.699 44.56H334.195ZM345.347 52H347.603L348.131 44.776C348.179 44.056 348.107 42.688 348.107 42.688H348.155C348.155 42.688 348.539 43.6 348.923 44.488L351.803 50.536H353.795L356.675 44.464C357.131 43.528 357.443 42.688 357.443 42.688H357.491C357.491 42.688 357.443 44.056 357.467 44.776L357.995 52H360.251L359.195 39.856H356.651L353.483 46.72C353.171 47.464 352.811 48.352 352.811 48.352H352.763C352.763 48.352 352.427 47.44 352.091 46.72L348.995 39.856H346.403L345.347 52ZM369.382 52H371.71V41.848H377.662V52H379.99V39.856H369.382V52ZM383.585 56.8H385.913V51.28C385.913 50.656 385.817 50.224 385.817 50.224H385.865C386.705 51.52 388.097 52.288 389.633 52.288C392.825 52.288 395.129 49.792 395.129 45.928C395.129 42.16 393.089 39.568 389.801 39.568C388.025 39.568 386.489 40.384 385.721 41.848H385.673C385.673 41.848 385.745 41.44 385.745 40.936V39.856H383.585V56.8ZM385.841 45.976C385.841 42.904 387.521 41.608 389.345 41.608C391.361 41.608 392.777 43.312 392.777 45.952C392.777 48.712 391.193 50.272 389.273 50.272C387.041 50.272 385.841 48.136 385.841 45.976ZM397.999 52H400.231L405.487 44.752C405.871 44.176 406.471 43.36 406.543 43.144H406.591C406.591 43.336 406.519 44.176 406.519 44.752V52H408.775V39.856H406.519L401.287 47.104C400.879 47.68 400.303 48.52 400.207 48.736H400.159C400.183 48.616 400.231 47.752 400.231 47.104V39.856H397.999V52ZM411.839 52H414.095L414.623 44.776C414.671 44.056 414.599 42.688 414.599 42.688H414.647C414.647 42.688 415.031 43.6 415.415 44.488L418.295 50.536H420.287L423.167 44.464C423.623 43.528 423.935 42.688 423.935 42.688H423.983C423.983 42.688 423.935 44.056 423.959 44.776L424.487 52H426.743L425.687 39.856H423.143L419.975 46.72C419.663 47.464 419.303 48.352 419.303 48.352H419.255C419.255 48.352 418.919 47.44 418.583 46.72L415.487 39.856H412.895L411.839 52ZM429.082 45.928C429.082 49.528 431.722 52.288 435.538 52.288C437.218 52.288 439.066 51.64 440.242 50.56L439.258 48.856C438.298 49.72 436.978 50.272 435.682 50.272C433.498 50.272 431.626 48.856 431.506 46.24H440.338C440.386 45.904 440.434 45.568 440.434 45.256C440.434 42.136 438.61 39.568 435.178 39.568C431.722 39.568 429.082 42.064 429.082 45.928ZM431.578 44.56C431.914 42.544 433.33 41.368 435.13 41.368C436.714 41.368 438.01 42.472 438.082 44.56H431.578ZM443.234 52H445.562V46.792H451.706V52H454.034V39.856H451.706V44.8H445.562V39.856H443.234V52ZM457.624 52H459.856L465.112 44.752C465.496 44.176 466.096 43.36 466.168 43.144H466.216C466.216 43.336 466.144 44.176 466.144 44.752V52H468.4V39.856H466.144L460.912 47.104C460.504 47.68 459.928 48.52 459.832 48.736H459.784C459.808 48.616 459.856 47.752 459.856 47.104V39.856H457.624V52ZM474.896 52H477.2V41.848H481.448V39.856H470.672V41.848H474.896V52ZM483.734 52H488.462C491.534 52 492.926 50.44 492.926 48.16C492.926 45.4 491.03 44.248 488.51 44.248H486.062V39.856H483.734V52ZM486.062 50.32V45.928H488.15C489.83 45.928 490.55 46.84 490.55 48.136C490.55 49.408 489.83 50.32 488.15 50.32H486.062ZM501.429 52H503.757V41.848H509.709V52H512.037V39.856H501.429V52ZM514.84 45.904C514.84 49.6 517.768 52.288 521.392 52.288C524.992 52.288 527.92 49.6 527.92 45.904C527.92 42.232 524.992 39.568 521.368 39.568C517.768 39.568 514.84 42.232 514.84 45.904ZM517.216 45.904C517.216 43.384 519.088 41.584 521.392 41.584C523.672 41.584 525.568 43.384 525.568 45.904C525.568 48.448 523.672 50.272 521.392 50.272C519.088 50.272 517.216 48.448 517.216 45.904ZM529.078 52.12C532.654 51.928 534.046 49.096 534.046 43.6V41.776H537.622V52H539.95V39.856H531.814V43.6C531.814 47.992 530.854 49.768 529.078 50.032V52.12ZM542.946 54.52L542.13 56.296C542.13 56.296 543.114 57.04 544.458 57.04C546.162 57.04 547.674 56.08 548.394 54.184L554.106 39.856H551.586L548.634 47.824C548.418 48.448 548.226 49.264 548.226 49.264H548.178C548.178 49.264 547.962 48.4 547.722 47.8L544.674 39.856H542.058L547.146 51.856L546.546 53.248C546.09 54.352 545.298 55.048 544.338 55.048C543.618 55.048 542.946 54.52 542.946 54.52ZM559.702 47.776C560.902 47.776 562.222 47.368 562.99 46.888H563.038C563.038 46.888 563.014 47.272 563.014 47.608V52H565.342V39.856H563.014V44.896C562.51 45.256 561.526 45.76 560.326 45.76C558.334 45.76 557.902 44.68 557.902 43.48V39.856H555.622V43.816C555.622 46.408 557.11 47.776 559.702 47.776ZM568.16 45.928C568.16 49.528 570.8 52.288 574.616 52.288C576.296 52.288 578.144 51.64 579.32 50.56L578.336 48.856C577.376 49.72 576.056 50.272 574.76 50.272C572.576 50.272 570.704 48.856 570.584 46.24H579.416C579.464 45.904 579.512 45.568 579.512 45.256C579.512 42.136 577.688 39.568 574.256 39.568C570.8 39.568 568.16 42.064 568.16 45.928ZM570.656 44.56C570.992 42.544 572.408 41.368 574.208 41.368C575.792 41.368 577.088 42.472 577.16 44.56H570.656ZM582.312 52H584.64V46.792H590.784V52H593.112V39.856H590.784V44.8H584.64V39.856H582.312V52ZM596.702 52H599.03V46.792H605.174V52H607.502V39.856H605.174V44.8H599.03V39.856H596.702V52ZM622.085 52H624.413V39.856H622.085V52ZM611.093 52H615.773C618.821 52 620.213 50.44 620.213 48.16C620.213 45.4 618.317 44.248 615.797 44.248H613.421V39.856H611.093V52ZM613.421 50.32V45.928H615.437C617.117 45.928 617.861 46.84 617.861 48.136C617.861 49.408 617.141 50.32 615.461 50.32H613.421ZM627.223 45.928C627.223 49.528 629.863 52.288 633.679 52.288C635.359 52.288 637.207 51.64 638.383 50.56L637.399 48.856C636.439 49.72 635.119 50.272 633.823 50.272C631.639 50.272 629.767 48.856 629.647 46.24H638.479C638.527 45.904 638.575 45.568 638.575 45.256C638.575 42.136 636.751 39.568 633.319 39.568C629.863 39.568 627.223 42.064 627.223 45.928ZM629.719 44.56C630.055 42.544 631.471 41.368 633.271 41.368C634.855 41.368 636.151 42.472 636.223 44.56H629.719ZM646.198 50.512C647.206 51.472 648.79 52.288 650.662 52.288C653.158 52.288 655.318 51.016 655.318 48.52C655.318 46.96 654.358 46.048 653.134 45.664V45.616C654.094 45.208 654.91 44.368 654.91 42.856C654.91 40.696 653.11 39.568 650.806 39.568C648.886 39.568 647.518 40.192 646.582 40.888L647.446 42.448C648.382 41.752 649.342 41.392 650.398 41.392C651.742 41.392 652.558 42.016 652.558 43.144C652.558 44.368 651.622 44.896 650.254 44.896H648.982V46.576H650.47C652.174 46.576 652.966 47.248 652.966 48.424C652.966 49.744 651.838 50.416 650.446 50.416C648.982 50.416 647.83 49.552 647.278 48.976L646.198 50.512ZM658.132 52H660.46V46.792H666.604V52H668.932V39.856H666.604V44.8H660.46V39.856H658.132V52ZM671.515 48.688C671.515 50.968 673.459 52.288 675.571 52.288C677.371 52.288 678.859 51.208 679.555 49.816H679.603C679.603 49.816 679.531 50.224 679.531 50.776V52H681.715V44.32C681.715 41.248 679.963 39.568 676.915 39.568C675.211 39.568 673.363 40.192 672.379 41.008L673.315 42.712C674.299 42.016 675.523 41.536 676.723 41.536C678.235 41.536 679.387 42.208 679.387 44.2V44.44H678.763C676.243 44.44 671.515 44.872 671.515 48.688ZM673.843 48.496C673.843 46.264 677.059 46.12 678.787 46.12H679.387V46.576C679.387 48.376 678.163 50.44 676.123 50.44C674.611 50.44 673.843 49.456 673.843 48.496ZM685.155 52H687.483V46.792H693.627V52H695.955V39.856H693.627V44.8H687.483V39.856H685.155V52ZM699.546 52H701.778L707.034 44.752C707.418 44.176 708.018 43.36 708.09 43.144H708.138C708.138 43.336 708.066 44.176 708.066 44.752V52H710.322V39.856H708.066L702.834 47.104C702.426 47.68 701.85 48.52 701.754 48.736H701.706C701.73 48.616 701.778 47.752 701.778 47.104V39.856H699.546V52ZM712.666 52H715.234L718.21 47.608H720.25V52H722.578V39.856H717.73C715.162 39.856 713.386 41.176 713.386 43.672C713.386 45.52 714.634 46.816 716.026 47.2V47.224C716.026 47.224 715.738 47.536 715.474 47.968L712.666 52ZM718.234 45.904C716.818 45.904 715.738 45.16 715.738 43.648C715.738 42.088 716.746 41.464 718.306 41.464H720.25V45.904H718.234ZM235.87 86H238.198V80.792H244.342V86H246.67V73.856H244.342V78.8H238.198V73.856H235.87V86ZM249.253 82.688C249.253 84.968 251.197 86.288 253.309 86.288C255.109 86.288 256.597 85.208 257.293 83.816H257.341C257.341 83.816 257.269 84.224 257.269 84.776V86H259.453V78.32C259.453 75.248 257.701 73.568 254.653 73.568C252.949 73.568 251.101 74.192 250.117 75.008L251.053 76.712C252.037 76.016 253.261 75.536 254.461 75.536C255.973 75.536 257.125 76.208 257.125 78.2V78.44H256.501C253.981 78.44 249.253 78.872 249.253 82.688ZM251.581 82.496C251.581 80.264 254.797 80.12 256.525 80.12H257.125V80.576C257.125 82.376 255.901 84.44 253.861 84.44C252.349 84.44 251.581 83.456 251.581 82.496ZM268.894 86H271.222V75.848H277.174V86H279.502V73.856H268.894V86ZM283.097 90.8H285.425V85.28C285.425 84.656 285.329 84.224 285.329 84.224H285.377C286.217 85.52 287.609 86.288 289.145 86.288C292.337 86.288 294.641 83.792 294.641 79.928C294.641 76.16 292.601 73.568 289.313 73.568C287.537 73.568 286.001 74.384 285.233 75.848H285.185C285.185 75.848 285.257 75.44 285.257 74.936V73.856H283.097V90.8ZM285.353 79.976C285.353 76.904 287.033 75.608 288.857 75.608C290.873 75.608 292.289 77.312 292.289 79.952C292.289 82.712 290.705 84.272 288.785 84.272C286.553 84.272 285.353 82.136 285.353 79.976ZM296.503 82.688C296.503 84.968 298.447 86.288 300.559 86.288C302.359 86.288 303.847 85.208 304.543 83.816H304.591C304.591 83.816 304.519 84.224 304.519 84.776V86H306.703V78.32C306.703 75.248 304.951 73.568 301.903 73.568C300.199 73.568 298.351 74.192 297.367 75.008L298.303 76.712C299.287 76.016 300.511 75.536 301.711 75.536C303.223 75.536 304.375 76.208 304.375 78.2V78.44H303.751C301.231 78.44 296.503 78.872 296.503 82.688ZM298.831 82.496C298.831 80.264 302.047 80.12 303.775 80.12H304.375V80.576C304.375 82.376 303.151 84.44 301.111 84.44C299.599 84.44 298.831 83.456 298.831 82.496ZM310.144 86H312.472V80.744H314.224L317.848 86H320.608L316.072 79.688V79.64L320.128 73.856H317.488L314.176 78.752H312.472V73.856H310.144V86ZM325.611 86H327.915V75.848H332.163V73.856H321.387V75.848H325.611V86ZM334.448 86H336.68L341.936 78.752C342.32 78.176 342.92 77.36 342.992 77.144H343.04C343.04 77.336 342.968 78.176 342.968 78.752V86H345.224V73.856H342.968L337.736 81.104C337.328 81.68 336.752 82.52 336.656 82.736H336.608C336.632 82.616 336.68 81.752 336.68 81.104V73.856H334.448V86ZM348.792 86H351.12V80.744H352.872L356.496 86H359.256L354.72 79.688V79.64L358.776 73.856H356.136L352.824 78.752H351.12V73.856H348.792V86ZM360.024 79.928C360.024 83.528 362.664 86.288 366.48 86.288C368.16 86.288 370.008 85.64 371.184 84.56L370.2 82.856C369.24 83.72 367.92 84.272 366.624 84.272C364.44 84.272 362.568 82.856 362.448 80.24H371.28C371.328 79.904 371.376 79.568 371.376 79.256C371.376 76.136 369.552 73.568 366.12 73.568C362.664 73.568 360.024 76.064 360.024 79.928ZM362.52 78.56C362.856 76.544 364.272 75.368 366.072 75.368C367.656 75.368 368.952 76.472 369.024 78.56H362.52ZM380.175 86H382.407L387.663 78.752C388.047 78.176 388.647 77.36 388.719 77.144H388.767C388.767 77.336 388.695 78.176 388.695 78.752V86H390.951V73.856H388.695L383.463 81.104C383.055 81.68 382.479 82.52 382.383 82.736H382.335C382.359 82.616 382.407 81.752 382.407 81.104V73.856H380.175V86ZM400.519 86H405.703C408.343 86 410.167 84.8 410.167 82.544C410.167 81.2 409.375 80.024 407.863 79.664V79.64C408.967 79.16 409.591 78.152 409.591 76.976C409.591 74.936 407.983 73.856 405.535 73.856H400.519V86ZM402.847 78.992V75.464H405.055C406.519 75.464 407.215 76.04 407.215 77.144C407.215 78.272 406.519 78.992 405.127 78.992H402.847ZM402.847 84.368V80.552H405.319C406.927 80.552 407.815 81.272 407.815 82.472C407.815 83.6 407.023 84.368 405.343 84.368H402.847ZM417.596 86H420.188L423.38 80.816H425.108V86H427.316V80.816H429.068L432.236 86H434.852L430.94 79.76V79.712L434.492 73.856H432.044L429.044 78.824H427.316V73.856H425.108V78.824H423.38L420.404 73.856H417.932L421.508 79.712V79.76L417.596 86ZM437.034 86H439.266L444.522 78.752C444.906 78.176 445.506 77.36 445.578 77.144H445.626C445.626 77.336 445.554 78.176 445.554 78.752V86H447.81V73.856H445.554L440.322 81.104C439.914 81.68 439.338 82.52 439.242 82.736H439.194C439.218 82.616 439.266 81.752 439.266 81.104V73.856H437.034V86ZM450.202 84.512C451.21 85.472 452.794 86.288 454.666 86.288C457.162 86.288 459.322 85.016 459.322 82.52C459.322 80.96 458.362 80.048 457.138 79.664V79.616C458.098 79.208 458.914 78.368 458.914 76.856C458.914 74.696 457.114 73.568 454.81 73.568C452.89 73.568 451.522 74.192 450.586 74.888L451.45 76.448C452.386 75.752 453.346 75.392 454.402 75.392C455.746 75.392 456.562 76.016 456.562 77.144C456.562 78.368 455.626 78.896 454.258 78.896H452.986V80.576H454.474C456.178 80.576 456.97 81.248 456.97 82.424C456.97 83.744 455.842 84.416 454.45 84.416C452.986 84.416 451.834 83.552 451.282 82.976L450.202 84.512ZM462.136 86H464.464V80.792H470.608V86H472.936V73.856H470.608V78.8H464.464V73.856H462.136V86ZM476.527 86H478.759L484.015 78.752C484.399 78.176 484.999 77.36 485.071 77.144H485.119C485.119 77.336 485.047 78.176 485.047 78.752V86H487.303V73.856H485.047L479.815 81.104C479.407 81.68 478.831 82.52 478.735 82.736H478.687C478.711 82.616 478.759 81.752 478.759 81.104V73.856H476.527V86ZM490.75 86H493.246V83.48H490.75V86Z" fill="#505257"/>
</svg>
