<svg width="1109" height="601" viewBox="0 0 1109 601" fill="none" xmlns="http://www.w3.org/2000/svg">
<path d="M571.7 227H578.036L585.2 215.012C586.208 213.32 587.36 210.62 587.36 210.62H587.432C587.432 210.62 587.144 213.392 587.144 215.012V227H593.444V201.26H587.072L579.944 213.284C578.936 214.976 577.784 217.676 577.784 217.676H577.712C577.712 217.676 578 214.904 578 213.284V201.26H571.7V227ZM596.47 224.696C598.486 226.496 601.474 227.432 604.21 227.432C608.602 227.432 611.878 225.452 611.878 221.528C611.878 219.368 610.402 218.072 608.998 217.424V217.352C610.114 216.74 611.302 215.48 611.302 213.176C611.302 209.972 608.278 208.028 604.462 208.028C601.078 208.028 598.702 208.928 596.974 210.116L598.774 213.968C600.718 212.816 602.158 212.564 603.166 212.564C604.75 212.564 605.11 213.248 605.11 214.04C605.11 215.192 604.21 215.48 603.238 215.48H601.366V219.584H603.634C605.326 219.584 605.65 220.232 605.65 221.132C605.65 221.996 605.146 222.752 603.418 222.752C601.942 222.752 600.106 221.852 598.954 220.808L596.47 224.696ZM614.827 228.692L612.847 233.264C612.847 233.264 614.719 234.56 617.167 234.56C620.119 234.56 623.359 233.12 624.907 228.98L632.503 208.46H625.699L623.359 217.1C623.107 218.108 622.747 219.872 622.747 219.872H622.675C622.675 219.872 622.315 218 621.991 216.992L619.255 208.46H612.199L620.083 226.64L619.723 227.504C619.075 229.088 617.743 229.376 616.735 229.376C615.835 229.376 614.827 228.692 614.827 228.692ZM640.154 221.312C642.422 221.312 644.078 220.808 645.122 220.34H645.194C645.194 220.34 645.158 220.808 645.158 221.204V227H651.386V208.46H645.158V215.336C644.546 215.768 643.61 216.236 642.35 216.236C640.802 216.236 639.974 215.336 639.974 213.752V208.46H633.854V214.94C633.854 219.8 637.166 221.312 640.154 221.312ZM654.236 221.78C654.236 224.984 656.72 227.432 660.284 227.432C662.408 227.432 664.568 226.46 665.792 224.732H665.864C665.864 224.732 665.792 225.272 665.792 225.884V227H671.48V215.588C671.48 210.872 668.312 208.028 663.2 208.028C660.176 208.028 656.936 209.216 655.352 210.44L657.512 214.832C658.988 213.86 660.824 213.068 662.624 213.068C663.992 213.068 665.252 213.572 665.252 215.12V215.444H664.712C660.14 215.444 654.236 216.812 654.236 221.78ZM660.392 221.204C660.392 219.512 662.84 219.008 664.748 219.008H665.324V219.512C665.324 221.024 663.956 222.788 662.156 222.788C661.004 222.788 660.392 222.068 660.392 221.204ZM684.504 207.164C688.14 207.164 691.308 205.184 691.308 201.656V201.26H686.736V201.692C686.736 203.168 685.548 203.816 684.504 203.816C683.424 203.816 682.272 203.168 682.272 201.692V201.26H677.664V201.656C677.664 205.184 680.832 207.164 684.504 207.164ZM675.432 227H681.48L686.628 218.864C686.916 218.36 687.312 217.784 687.636 217.028H687.708C687.636 217.748 687.636 218.468 687.636 218.9V227H693.504V208.46H687.456L682.308 216.632C681.984 217.172 681.624 217.712 681.3 218.468H681.228C681.264 218 681.3 217.28 681.3 216.632V208.46H675.432V227ZM701.754 227H707.982V213.68H713.634V208.46H696.138V213.68H701.754V227ZM714.993 217.712C714.993 222.644 718.557 227.432 725.181 227.432C728.025 227.432 731.085 226.46 733.101 224.732L730.797 220.376C729.285 221.384 727.521 222.248 725.685 222.248C723.705 222.248 721.833 221.204 721.365 218.936H733.065C733.137 218.288 733.209 217.64 733.209 216.992C733.209 211.844 730.113 208.028 724.641 208.028C718.665 208.028 714.993 212.276 714.993 217.712ZM721.509 215.372C721.833 213.896 722.697 212.6 724.497 212.6C726.081 212.6 727.053 213.86 727.053 215.372H721.509ZM749.531 227H755.759V213.68H761.411V208.46H743.915V213.68H749.531V227ZM762.771 217.784C762.771 223.58 767.451 227.432 773.283 227.432C779.115 227.432 783.795 223.58 783.795 217.784C783.795 211.952 779.115 208.028 773.247 208.028C767.451 208.028 762.771 211.952 762.771 217.784ZM769.071 217.784C769.071 214.976 771.015 213.212 773.283 213.212C775.551 213.212 777.495 214.976 777.495 217.784C777.495 220.556 775.551 222.248 773.283 222.248C771.015 222.248 769.071 220.556 769.071 217.784ZM792.24 221.312C794.508 221.312 796.164 220.808 797.208 220.34H797.28C797.28 220.34 797.244 220.808 797.244 221.204V227H803.472V208.46H797.244V215.336C796.632 215.768 795.696 216.236 794.436 216.236C792.888 216.236 792.06 215.336 792.06 213.752V208.46H785.94V214.94C785.94 219.8 789.252 221.312 792.24 221.312ZM807.654 227H813.882V220.232H819.606V227H825.834V208.46H819.606V215.012H813.882V208.46H807.654V227ZM848.518 227H854.746V208.46H848.518V227ZM830.014 227H839.05C844.234 227 846.394 224.444 846.394 220.664C846.394 216.92 844.234 214.256 839.05 214.256H836.242V208.46H830.014V227ZM836.242 222.932V218.288H837.79C839.374 218.288 840.166 219.332 840.166 220.628C840.166 221.924 839.374 222.932 837.898 222.932H836.242ZM857.868 217.712C857.868 222.644 861.432 227.432 868.056 227.432C870.9 227.432 873.96 226.46 875.976 224.732L873.672 220.376C872.16 221.384 870.396 222.248 868.56 222.248C866.58 222.248 864.708 221.204 864.24 218.936H875.94C876.012 218.288 876.084 217.64 876.084 216.992C876.084 211.844 872.988 208.028 867.516 208.028C861.54 208.028 857.868 212.276 857.868 217.712ZM864.384 215.372C864.708 213.896 865.572 212.6 867.372 212.6C868.956 212.6 869.928 213.86 869.928 215.372H864.384ZM888.338 227H894.566V220.232H900.29V227H906.518V208.46H900.29V215.012H894.566V208.46H888.338V227ZM909.365 221.78C909.365 224.984 911.849 227.432 915.413 227.432C917.537 227.432 919.697 226.46 920.921 224.732H920.993C920.993 224.732 920.921 225.272 920.921 225.884V227H926.609V215.588C926.609 210.872 923.441 208.028 918.329 208.028C915.305 208.028 912.065 209.216 910.481 210.44L912.641 214.832C914.117 213.86 915.953 213.068 917.753 213.068C919.121 213.068 920.381 213.572 920.381 215.12V215.444H919.841C915.269 215.444 909.365 216.812 909.365 221.78ZM915.521 221.204C915.521 219.512 917.969 219.008 919.877 219.008H920.453V219.512C920.453 221.024 919.085 222.788 917.285 222.788C916.133 222.788 915.521 222.068 915.521 221.204ZM930.389 228.692L928.409 233.264C928.409 233.264 930.281 234.56 932.729 234.56C935.681 234.56 938.921 233.12 940.469 228.98L948.065 208.46H941.261L938.921 217.1C938.669 218.108 938.309 219.872 938.309 219.872H938.237C938.237 219.872 937.877 218 937.553 216.992L934.817 208.46H927.761L935.645 226.64L935.285 227.504C934.637 229.088 933.305 229.376 932.297 229.376C931.397 229.376 930.389 228.692 930.389 228.692ZM950.389 227H956.617V220.196H958.561L962.485 227H969.577L963.385 217.352V217.28L968.821 208.46H962.053L958.381 214.976H956.617V208.46H950.389V227ZM971.658 227H977.706L982.854 218.864C983.142 218.36 983.538 217.784 983.862 217.028H983.934C983.862 217.748 983.862 218.468 983.862 218.9V227H989.73V208.46H983.682L978.534 216.632C978.21 217.172 977.85 217.712 977.526 218.468H977.454C977.49 218 977.526 217.28 977.526 216.632V208.46H971.658V227Z" fill="#F04B5D"/>
<path d="M571.088 269H581.204C584.876 269 588.26 267.56 588.26 263.492C588.26 261.872 587.468 260.036 585.344 259.388V259.352C586.748 258.524 587.504 256.868 587.504 255.32C587.504 252.116 584.912 250.46 581.204 250.46H571.088V269ZM577.316 257.768V254.312H579.584C580.808 254.312 581.312 255.068 581.312 255.932C581.312 256.904 580.808 257.768 579.656 257.768H577.316ZM577.316 265.112V261.404H580.088C581.42 261.404 582.032 262.268 582.032 263.276C582.032 264.212 581.384 265.112 580.052 265.112H577.316ZM600.659 270.692L598.679 275.264C598.679 275.264 600.551 276.56 602.999 276.56C605.951 276.56 609.191 275.12 610.739 270.98L618.335 250.46H611.531L609.191 259.1C608.939 260.108 608.579 261.872 608.579 261.872H608.507C608.507 261.872 608.147 260 607.823 258.992L605.087 250.46H598.031L605.915 268.64L605.555 269.504C604.907 271.088 603.575 271.376 602.567 271.376C601.667 271.376 600.659 270.692 600.659 270.692ZM626.233 264.068C627.529 261.584 627.889 258.884 627.889 256.076V255.392H631.093V264.068H626.233ZM617.809 264.068V273.32H623.569V269H634.441V273.32H639.985V264.068H637.321V250.46H622.021V254.924C622.021 258.668 621.337 261.98 620.113 264.068H617.809ZM641.587 259.784C641.587 265.58 646.267 269.432 652.099 269.432C657.931 269.432 662.611 265.58 662.611 259.784C662.611 253.952 657.931 250.028 652.063 250.028C646.267 250.028 641.587 253.952 641.587 259.784ZM647.887 259.784C647.887 256.976 649.831 255.212 652.099 255.212C654.367 255.212 656.311 256.976 656.311 259.784C656.311 262.556 654.367 264.248 652.099 264.248C649.831 264.248 647.887 262.556 647.887 259.784ZM664.901 257.912C664.901 264.716 668.249 269.432 674.945 269.432C680.813 269.432 684.521 265.544 684.521 260.432C684.521 255.464 681.497 251.936 676.529 251.936C674.909 251.936 672.677 252.368 671.093 253.7H671.021C671.129 251.036 673.649 250.028 676.025 249.236L683.009 247.004L681.245 242L675.233 244.016C667.997 246.5 664.901 250.352 664.901 257.912ZM671.093 260.54C671.093 258.128 672.749 256.616 674.693 256.616C676.637 256.616 678.293 258.128 678.293 260.54C678.293 262.916 676.637 264.356 674.693 264.356C672.749 264.356 671.093 262.916 671.093 260.54ZM687.772 269H694V262.232H699.724V269H705.952V250.46H699.724V257.012H694V250.46H687.772V269ZM709.087 259.784C709.087 265.58 713.767 269.432 719.599 269.432C725.431 269.432 730.111 265.58 730.111 259.784C730.111 253.952 725.431 250.028 719.563 250.028C713.767 250.028 709.087 253.952 709.087 259.784ZM715.387 259.784C715.387 256.976 717.331 255.212 719.599 255.212C721.867 255.212 723.811 256.976 723.811 259.784C723.811 262.556 721.867 264.248 719.599 264.248C717.331 264.248 715.387 262.556 715.387 259.784ZM732.437 269H738.377L738.809 260.468C738.881 259.028 738.773 257.3 738.773 257.3H738.845C738.845 257.3 739.529 258.848 739.925 260.036L742.373 266.516H747.413L749.861 260.036C750.329 258.884 750.869 257.3 750.869 257.3H750.941C750.941 257.3 750.869 259.028 750.905 260.468L751.337 269H757.313L755.549 250.46H748.385L745.649 258.596C745.325 259.532 744.893 260.756 744.893 260.756H744.857C744.857 260.756 744.461 259.532 744.137 258.596L741.401 250.46H734.201L732.437 269ZM776.526 264.068C777.822 261.584 778.182 258.884 778.182 256.076V255.392H781.386V264.068H776.526ZM768.102 264.068V273.32H773.862V269H784.734V273.32H790.278V264.068H787.614V250.46H772.314V254.924C772.314 258.668 771.63 261.98 770.406 264.068H768.102ZM791.767 269.18C798.967 269.18 801.127 263.996 801.127 256.436V255.392H804.223V269H810.451V250.46H795.259V256.4C795.259 262.772 793.423 263.528 791.767 263.744V269.18ZM812.851 269H819.439L823.003 263.348H824.299V269H830.527V250.46H820.807C816.703 250.46 814.111 252.836 814.111 256.724C814.111 259.1 815.443 261.224 817.459 262.232V262.268C817.459 262.268 817.099 262.628 816.595 263.384L812.851 269ZM822.823 259.208C821.347 259.208 820.303 258.452 820.303 256.688C820.303 254.96 821.347 254.312 822.787 254.312H824.299V259.208H822.823ZM843.69 269H853.806C857.478 269 860.862 267.56 860.862 263.492C860.862 261.872 860.07 260.036 857.946 259.388V259.352C859.35 258.524 860.106 256.868 860.106 255.32C860.106 252.116 857.514 250.46 853.806 250.46H843.69V269ZM849.918 257.768V254.312H852.186C853.41 254.312 853.914 255.068 853.914 255.932C853.914 256.904 853.41 257.768 852.258 257.768H849.918ZM849.918 265.112V261.404H852.69C854.022 261.404 854.634 262.268 854.634 263.276C854.634 264.212 853.986 265.112 852.654 265.112H849.918ZM862.748 263.78C862.748 266.984 865.232 269.432 868.796 269.432C870.92 269.432 873.08 268.46 874.304 266.732H874.376C874.376 266.732 874.304 267.272 874.304 267.884V269H879.992V257.588C879.992 252.872 876.824 250.028 871.712 250.028C868.688 250.028 865.448 251.216 863.864 252.44L866.024 256.832C867.5 255.86 869.336 255.068 871.136 255.068C872.504 255.068 873.764 255.572 873.764 257.12V257.444H873.224C868.652 257.444 862.748 258.812 862.748 263.78ZM868.904 263.204C868.904 261.512 871.352 261.008 873.26 261.008H873.836V261.512C873.836 263.024 872.468 264.788 870.668 264.788C869.516 264.788 868.904 264.068 868.904 263.204ZM882.899 259.712C882.899 264.824 886.607 269.432 893.231 269.432C896.327 269.432 899.351 268.244 901.187 266.372L898.919 262.016C897.587 263.168 895.643 264.248 893.843 264.248C890.711 264.248 889.199 261.836 889.199 259.64C889.199 257.444 890.675 255.212 893.627 255.212C895.247 255.212 896.903 255.968 897.983 257.012L900.611 252.836C898.775 250.856 895.823 250.028 893.231 250.028C886.571 250.028 882.899 254.744 882.899 259.712ZM911.799 259.784C911.799 265.472 916.263 269.252 921.915 269.432V276.2H927.783V269.432C933.435 269.252 937.899 265.472 937.899 259.784C937.899 254.06 933.435 250.172 927.783 250.028V243.8H921.915V250.028C916.263 250.172 911.799 254.06 911.799 259.784ZM927.783 264.536V254.924C930.051 255.104 931.887 256.904 931.887 259.784C931.887 262.592 930.051 264.356 927.783 264.536ZM917.811 259.784C917.811 256.904 919.647 255.104 921.915 254.924V264.536C919.647 264.356 917.811 262.592 917.811 259.784ZM940.028 259.784C940.028 265.58 944.708 269.432 950.54 269.432C956.372 269.432 961.052 265.58 961.052 259.784C961.052 253.952 956.372 250.028 950.504 250.028C944.708 250.028 940.028 253.952 940.028 259.784ZM946.328 259.784C946.328 256.976 948.272 255.212 950.54 255.212C952.808 255.212 954.752 256.976 954.752 259.784C954.752 262.556 952.808 264.248 950.54 264.248C948.272 264.248 946.328 262.556 946.328 259.784ZM964.17 276.2H970.398V269.252C970.398 268.316 970.326 267.668 970.326 267.668H970.398C971.73 268.82 973.386 269.432 975.114 269.432C980.046 269.432 983.754 265.616 983.754 259.748C983.754 253.988 980.442 250.028 975.402 250.028C973.17 250.028 971.046 250.892 969.786 252.584H969.714C969.714 252.584 969.786 252.008 969.786 251.396V250.46H964.17V276.2ZM970.218 259.856C970.218 256.652 971.982 255.284 973.854 255.284C976.014 255.284 977.49 257.084 977.49 259.856C977.49 262.7 975.798 264.284 973.854 264.284C971.406 264.284 970.218 262.088 970.218 259.856ZM986.159 269H992.099L992.531 260.468C992.603 259.028 992.495 257.3 992.495 257.3H992.567C992.567 257.3 993.251 258.848 993.647 260.036L996.095 266.516H1001.14L1003.58 260.036C1004.05 258.884 1004.59 257.3 1004.59 257.3H1004.66C1004.66 257.3 1004.59 259.028 1004.63 260.468L1005.06 269H1011.04L1009.27 250.46H1002.11L999.371 258.596C999.047 259.532 998.615 260.756 998.615 260.756H998.579C998.579 260.756 998.183 259.532 997.859 258.596L995.123 250.46H987.923L986.159 269ZM1013.08 263.78C1013.08 266.984 1015.56 269.432 1019.12 269.432C1021.25 269.432 1023.41 268.46 1024.63 266.732H1024.7C1024.7 266.732 1024.63 267.272 1024.63 267.884V269H1030.32V257.588C1030.32 252.872 1027.15 250.028 1022.04 250.028C1019.02 250.028 1015.78 251.216 1014.19 252.44L1016.35 256.832C1017.83 255.86 1019.66 255.068 1021.46 255.068C1022.83 255.068 1024.09 255.572 1024.09 257.12V257.444H1023.55C1018.98 257.444 1013.08 258.812 1013.08 263.78ZM1019.23 263.204C1019.23 261.512 1021.68 261.008 1023.59 261.008H1024.16V261.512C1024.16 263.024 1022.8 264.788 1021 264.788C1019.84 264.788 1019.23 264.068 1019.23 263.204ZM1038.34 269H1044.57V255.68H1050.22V250.46H1032.72V255.68H1038.34V269ZM1051.58 259.712C1051.58 264.644 1055.14 269.432 1061.77 269.432C1064.61 269.432 1067.67 268.46 1069.69 266.732L1067.38 262.376C1065.87 263.384 1064.11 264.248 1062.27 264.248C1060.29 264.248 1058.42 263.204 1057.95 260.936H1069.65C1069.72 260.288 1069.8 259.64 1069.8 258.992C1069.8 253.844 1066.7 250.028 1061.23 250.028C1055.25 250.028 1051.58 254.276 1051.58 259.712ZM1058.1 257.372C1058.42 255.896 1059.28 254.6 1061.08 254.6C1062.67 254.6 1063.64 255.86 1063.64 257.372H1058.1ZM1071.36 272.996H1075.93L1080 263.024H1074.06L1071.36 272.996ZM571.088 311H577.136L582.284 302.864C582.572 302.36 582.968 301.784 583.292 301.028H583.364C583.292 301.748 583.292 302.468 583.292 302.9V311H589.16V292.46H583.112L577.964 300.632C577.64 301.172 577.28 301.712 576.956 302.468H576.884C576.92 302 576.956 301.28 576.956 300.632V292.46H571.088V311ZM592.298 301.712C592.298 306.824 596.006 311.432 602.63 311.432C605.726 311.432 608.75 310.244 610.586 308.372L608.318 304.016C606.986 305.168 605.042 306.248 603.242 306.248C600.11 306.248 598.598 303.836 598.598 301.64C598.598 299.444 600.074 297.212 603.026 297.212C604.646 297.212 606.302 297.968 607.382 299.012L610.01 294.836C608.174 292.856 605.222 292.028 602.63 292.028C595.97 292.028 592.298 296.744 592.298 301.712ZM613.205 311H619.433V297.68H624.941V311H631.169V292.46H613.205V311ZM634.31 301.784C634.31 307.58 638.99 311.432 644.822 311.432C650.654 311.432 655.334 307.58 655.334 301.784C655.334 295.952 650.654 292.028 644.786 292.028C638.99 292.028 634.31 295.952 634.31 301.784ZM640.61 301.784C640.61 298.976 642.554 297.212 644.822 297.212C647.09 297.212 649.034 298.976 649.034 301.784C649.034 304.556 647.09 306.248 644.822 306.248C642.554 306.248 640.61 304.556 640.61 301.784ZM656.556 311.18C663.756 311.18 665.916 305.996 665.916 298.436V297.392H669.012V311H675.24V292.46H660.048V298.4C660.048 304.772 658.212 305.528 656.556 305.744V311.18ZM679.404 311H688.656C693.84 311 696 308.444 696 304.664C696 300.92 693.84 298.256 688.656 298.256H685.632V292.46H679.404V311ZM685.632 306.932V302.288H687.396C688.98 302.288 689.772 303.332 689.772 304.628C689.772 305.924 688.98 306.932 687.504 306.932H685.632ZM697.192 308.696C699.208 310.496 702.196 311.432 704.932 311.432C709.324 311.432 712.6 309.452 712.6 305.528C712.6 303.368 711.124 302.072 709.72 301.424V301.352C710.836 300.74 712.024 299.48 712.024 297.176C712.024 293.972 709 292.028 705.184 292.028C701.8 292.028 699.424 292.928 697.696 294.116L699.496 297.968C701.44 296.816 702.88 296.564 703.888 296.564C705.472 296.564 705.832 297.248 705.832 298.04C705.832 299.192 704.932 299.48 703.96 299.48H702.088V303.584H704.356C706.048 303.584 706.372 304.232 706.372 305.132C706.372 305.996 705.868 306.752 704.14 306.752C702.664 306.752 700.828 305.852 699.676 304.808L697.192 308.696ZM715.549 312.692L713.569 317.264C713.569 317.264 715.441 318.56 717.889 318.56C720.841 318.56 724.081 317.12 725.629 312.98L733.225 292.46H726.421L724.081 301.1C723.829 302.108 723.469 303.872 723.469 303.872H723.397C723.397 303.872 723.037 302 722.713 300.992L719.977 292.46H712.921L720.805 310.64L720.445 311.504C719.797 313.088 718.465 313.376 717.457 313.376C716.557 313.376 715.549 312.692 715.549 312.692ZM733.293 311H739.881L743.445 305.348H744.741V311H750.969V292.46H741.249C737.145 292.46 734.553 294.836 734.553 298.724C734.553 301.1 735.885 303.224 737.901 304.232V304.268C737.901 304.268 737.541 304.628 737.037 305.384L733.293 311ZM743.265 301.208C741.789 301.208 740.745 300.452 740.745 298.688C740.745 296.96 741.789 296.312 743.229 296.312H744.741V301.208H743.265ZM764.131 311H770.359V304.196H772.303L776.227 311H783.319L777.127 301.352V301.28L782.563 292.46H775.795L772.123 298.976H770.359V292.46H764.131V311ZM783.583 301.784C783.583 307.58 788.263 311.432 794.095 311.432C799.927 311.432 804.607 307.58 804.607 301.784C804.607 295.952 799.927 292.028 794.059 292.028C788.263 292.028 783.583 295.952 783.583 301.784ZM789.883 301.784C789.883 298.976 791.827 297.212 794.095 297.212C796.363 297.212 798.307 298.976 798.307 301.784C798.307 304.556 796.363 306.248 794.095 306.248C791.827 306.248 789.883 304.556 789.883 301.784ZM806.933 311H812.873L813.305 302.468C813.377 301.028 813.269 299.3 813.269 299.3H813.341C813.341 299.3 814.025 300.848 814.421 302.036L816.869 308.516H821.909L824.357 302.036C824.825 300.884 825.365 299.3 825.365 299.3H825.437C825.437 299.3 825.365 301.028 825.401 302.468L825.833 311H831.809L830.045 292.46H822.881L820.145 300.596C819.821 301.532 819.389 302.756 819.389 302.756H819.353C819.353 302.756 818.957 301.532 818.633 300.596L815.897 292.46H808.697L806.933 311ZM835.182 311H841.41V297.68H846.918V311H853.146V292.46H835.182V311ZM857.33 311H866.582C871.766 311 873.926 308.444 873.926 304.664C873.926 300.92 871.766 298.256 866.582 298.256H863.558V292.46H857.33V311ZM863.558 306.932V302.288H865.322C866.906 302.288 867.698 303.332 867.698 304.628C867.698 305.924 866.906 306.932 865.43 306.932H863.558ZM876.666 311H882.894V304.088H885.414C886.386 308.588 890.274 311.432 895.242 311.432C901.002 311.432 905.466 307.58 905.466 301.784C905.466 295.952 901.002 292.028 895.206 292.028C890.382 292.028 886.566 294.8 885.486 299.156H882.894V292.46H876.666V311ZM891.318 301.784C891.318 298.976 893.046 297.212 895.242 297.212C897.438 297.212 899.166 298.976 899.166 301.784C899.166 304.556 897.438 306.248 895.242 306.248C893.046 306.248 891.318 304.556 891.318 301.784ZM912.445 311H918.673V297.68H924.325V292.46H906.829V297.68H912.445V311ZM925.685 301.712C925.685 306.644 929.249 311.432 935.873 311.432C938.717 311.432 941.777 310.46 943.793 308.732L941.489 304.376C939.977 305.384 938.213 306.248 936.377 306.248C934.397 306.248 932.525 305.204 932.057 302.936H943.757C943.829 302.288 943.901 301.64 943.901 300.992C943.901 295.844 940.805 292.028 935.333 292.028C929.357 292.028 925.685 296.276 925.685 301.712ZM932.201 299.372C932.525 297.896 933.389 296.6 935.189 296.6C936.773 296.6 937.745 297.86 937.745 299.372H932.201ZM947.154 318.2H953.382V311.252C953.382 310.316 953.31 309.668 953.31 309.668H953.382C954.714 310.82 956.37 311.432 958.098 311.432C963.03 311.432 966.738 307.616 966.738 301.748C966.738 295.988 963.426 292.028 958.386 292.028C956.154 292.028 954.03 292.892 952.77 294.584H952.698C952.698 294.584 952.77 294.008 952.77 293.396V292.46H947.154V318.2ZM953.202 301.856C953.202 298.652 954.966 297.284 956.838 297.284C958.998 297.284 960.474 299.084 960.474 301.856C960.474 304.7 958.782 306.284 956.838 306.284C954.39 306.284 953.202 304.088 953.202 301.856ZM978.936 311H984.984L990.132 302.864C990.42 302.36 990.816 301.784 991.14 301.028H991.212C991.14 301.748 991.14 302.468 991.14 302.9V311H997.008V292.46H990.96L985.812 300.632C985.488 301.172 985.128 301.712 984.804 302.468H984.732C984.768 302 984.804 301.28 984.804 300.632V292.46H978.936V311ZM999.822 311.18C1007.02 311.18 1009.18 305.996 1009.18 298.436V297.392H1012.28V311H1018.51V292.46H1003.31V298.4C1003.31 304.772 1001.48 305.528 999.822 305.744V311.18ZM1022.67 311H1028.72L1033.87 302.864C1034.15 302.36 1034.55 301.784 1034.87 301.028H1034.95C1034.87 301.748 1034.87 302.468 1034.87 302.9V311H1040.74V292.46H1034.69L1029.55 300.632C1029.22 301.172 1028.86 301.712 1028.54 302.468H1028.47C1028.5 302 1028.54 301.28 1028.54 300.632V292.46H1022.67V311ZM570.044 343.712C570.044 348.824 573.752 353.432 580.376 353.432C583.472 353.432 586.496 352.244 588.332 350.372L586.064 346.016C584.732 347.168 582.788 348.248 580.988 348.248C577.856 348.248 576.344 345.836 576.344 343.64C576.344 341.444 577.82 339.212 580.772 339.212C582.392 339.212 584.048 339.968 585.128 341.012L587.756 336.836C585.92 334.856 582.968 334.028 580.376 334.028C573.716 334.028 570.044 338.744 570.044 343.712ZM590.159 353H596.099L596.531 344.468C596.603 343.028 596.495 341.3 596.495 341.3H596.567C596.567 341.3 597.251 342.848 597.647 344.036L600.095 350.516H605.135L607.583 344.036C608.051 342.884 608.591 341.3 608.591 341.3H608.663C608.663 341.3 608.591 343.028 608.627 344.468L609.059 353H615.035L613.271 334.46H606.107L603.371 342.596C603.047 343.532 602.615 344.756 602.615 344.756H602.579C602.579 344.756 602.183 343.532 601.859 342.596L599.123 334.46H591.923L590.159 353ZM617.076 347.78C617.076 350.984 619.56 353.432 623.124 353.432C625.248 353.432 627.408 352.46 628.632 350.732H628.704C628.704 350.732 628.632 351.272 628.632 351.884V353H634.32V341.588C634.32 336.872 631.152 334.028 626.04 334.028C623.016 334.028 619.776 335.216 618.192 336.44L620.352 340.832C621.828 339.86 623.664 339.068 625.464 339.068C626.832 339.068 628.092 339.572 628.092 341.12V341.444H627.552C622.98 341.444 617.076 342.812 617.076 347.78ZM623.232 347.204C623.232 345.512 625.68 345.008 627.588 345.008H628.164V345.512C628.164 347.024 626.796 348.788 624.996 348.788C623.844 348.788 623.232 348.068 623.232 347.204ZM638.272 360.2H644.5V353.252C644.5 352.316 644.428 351.668 644.428 351.668H644.5C645.832 352.82 647.488 353.432 649.216 353.432C654.148 353.432 657.856 349.616 657.856 343.748C657.856 337.988 654.544 334.028 649.504 334.028C647.272 334.028 645.148 334.892 643.888 336.584H643.816C643.816 336.584 643.888 336.008 643.888 335.396V334.46H638.272V360.2ZM644.32 343.856C644.32 340.652 646.084 339.284 647.956 339.284C650.116 339.284 651.592 341.084 651.592 343.856C651.592 346.7 649.9 348.284 647.956 348.284C645.508 348.284 644.32 346.088 644.32 343.856ZM664.98 353H671.208V339.68H676.86V334.46H659.364V339.68H664.98V353ZM678.256 343.784C678.256 349.472 682.72 353.252 688.372 353.432V360.2H694.24V353.432C699.892 353.252 704.356 349.472 704.356 343.784C704.356 338.06 699.892 334.172 694.24 334.028V327.8H688.372V334.028C682.72 334.172 678.256 338.06 678.256 343.784ZM694.24 348.536V338.924C696.508 339.104 698.344 340.904 698.344 343.784C698.344 346.592 696.508 348.356 694.24 348.536ZM684.268 343.784C684.268 340.904 686.104 339.104 688.372 338.924V348.536C686.104 348.356 684.268 346.592 684.268 343.784ZM706.485 343.784C706.485 349.58 711.165 353.432 716.997 353.432C722.829 353.432 727.509 349.58 727.509 343.784C727.509 337.952 722.829 334.028 716.961 334.028C711.165 334.028 706.485 337.952 706.485 343.784ZM712.785 343.784C712.785 340.976 714.729 339.212 716.997 339.212C719.265 339.212 721.209 340.976 721.209 343.784C721.209 346.556 719.265 348.248 716.997 348.248C714.729 348.248 712.785 346.556 712.785 343.784ZM730.627 353H736.855V346.232H742.579V353H748.807V334.46H742.579V341.012H736.855V334.46H730.627V353Z" fill="#222224"/>
<path d="M217.674 506.687L216.891 506.392C216.719 506.327 199.594 499.754 191.571 484.849C183.549 469.943 187.477 451.997 187.518 451.817L187.702 451L188.485 451.294C188.657 451.359 205.782 457.933 213.805 472.838C221.827 487.743 217.899 505.69 217.858 505.869L217.674 506.687ZM192.856 484.155C199.638 496.757 213.171 503.217 216.6 504.692C217.252 501.01 219.297 486.122 212.52 473.531C205.744 460.943 192.206 454.473 188.776 452.994C188.124 456.678 186.08 471.566 192.856 484.155Z" fill="#3F3D56"/>
<path d="M197.702 479.62C212.119 488.31 217.672 505.571 217.672 505.571C217.672 505.571 199.849 508.742 185.432 500.052C171.015 491.362 165.463 474.102 165.463 474.102C165.463 474.102 183.285 470.93 197.702 479.62Z" fill="#D0CDE1"/>
<path d="M472.143 505.869C472.102 505.69 468.174 487.743 476.197 472.838C484.219 457.933 501.344 451.359 501.516 451.294L502.299 451L502.484 451.817C502.524 451.997 506.453 469.943 498.43 484.849C490.408 499.754 473.282 506.327 473.11 506.392L472.327 506.687L472.143 505.869ZM501.225 452.994C497.795 454.473 484.257 460.943 477.481 473.531C470.705 486.122 472.749 501.01 473.401 504.692C476.83 503.217 490.363 496.757 497.145 484.155C503.922 471.566 501.878 456.678 501.225 452.994Z" fill="#3F3D56"/>
<path d="M492.299 479.62C477.882 488.31 472.33 505.571 472.33 505.571C472.33 505.571 490.152 508.742 504.569 500.052C518.986 491.362 524.538 474.102 524.538 474.102C524.538 474.102 506.716 470.93 492.299 479.62Z" fill="#F04B5D"/>
<path d="M502.635 505.135H159V506.597H502.635V505.135Z" fill="#3F3D56"/>
<g clip-path="url(#clip0)">
<path d="M375.743 438.518L364.129 484.214L367.664 487.768L388.871 466.443L394.931 445.626L375.743 438.518Z" fill="#A0616A"/>
<path d="M463.604 438.518L451.99 484.214L455.525 487.768L476.733 466.443L482.792 445.626L463.604 438.518Z" fill="#A0616A"/>
<path d="M472.693 204.448L403.01 217.142L402.505 223.742L370.693 440.548C370.693 440.548 407.555 459.334 431.287 450.195L440.881 300.411L454.01 450.195C454.01 450.195 483.802 465.935 504 444.61C504 444.61 491.376 216.634 472.693 204.448Z" fill="#2F2E41"/>
<path d="M392.406 457.811L369.683 455.781L359.584 489.291C359.584 489.291 353.24 497.87 349.623 505.907C349.109 507.06 348.908 508.33 349.039 509.587C349.171 510.844 349.631 512.043 350.373 513.064C351.114 514.084 352.112 514.889 353.263 515.397C354.414 515.905 355.678 516.097 356.927 515.954C363.789 515.192 372.062 513.74 373.218 511.124C374.779 507.31 376.128 503.411 377.258 499.446L382.812 503L386.852 500.969L389.376 481.168C389.376 481.168 393.921 476.09 389.881 466.951L392.406 457.811Z" fill="#2F2E41"/>
<path d="M480.267 457.811L457.545 455.781L447.446 489.291C447.446 489.291 441.102 497.87 437.485 505.907C436.97 507.06 436.769 508.33 436.9 509.587C437.032 510.844 437.492 512.043 438.234 513.064C438.976 514.084 439.973 514.889 441.124 515.397C442.275 515.905 443.54 516.097 444.789 515.954C451.651 515.192 459.923 513.74 461.079 511.124C462.64 507.31 463.989 503.411 465.119 499.446L470.673 503L474.713 500.969L477.238 481.168C477.238 481.168 481.782 476.09 477.743 466.951L480.267 457.811Z" fill="#2F2E41"/>
<path d="M429.52 102.646C443.464 102.646 454.767 91.2797 454.767 77.2588C454.767 63.2379 443.464 51.8717 429.52 51.8717C415.576 51.8717 404.272 63.2379 404.272 77.2588C404.272 91.2797 415.576 102.646 429.52 102.646Z" fill="#A0616A"/>
<path d="M414.446 79.3141C414.446 79.3141 411.477 79.8399 409.509 79.1458C407.963 78.6005 407 77.2196 407 77.2196" stroke="#222224"/>
<path d="M427.753 97.3145C427.753 97.3145 433.307 112.547 426.238 116.101C421.884 118.273 417.314 119.975 412.604 121.178L413.614 144.535L438.861 178.553L468.653 121.178C468.653 121.178 452.495 125.748 449.97 89.6984L427.753 97.3145Z" fill="#A0616A"/>
<path d="M383.822 213.08L378.267 278.071C378.267 278.071 367.159 316.659 382.307 312.089C397.456 307.52 389.376 276.04 389.376 276.04L403.01 213.08H383.822Z" fill="#A0616A"/>
<path d="M437.347 166.368L426.743 132.349L423.713 135.903C423.713 135.903 406.821 127.632 421.326 118.312C421.326 118.312 389.376 120.671 389.376 130.826C389.376 140.98 403.515 172.46 403.515 172.46C403.515 172.46 399.475 219.173 402 219.173C404.525 219.173 471.683 205.464 471.683 205.464L473.703 181.6C473.703 181.6 493.396 136.919 487.842 129.81C482.287 122.702 462.833 118.055 461.199 119.617C461.199 119.617 471.683 128.287 444.416 140.473L446.436 144.535L437.347 166.368Z" fill="#D0CDE1"/>
<path d="M391.901 128.795C391.901 128.795 385.842 134.38 385.842 150.12C385.842 165.86 382.307 197.847 382.307 197.847L376.753 216.126L397.456 217.142L403.515 221.204C403.515 221.204 411.594 164.844 412.604 163.321C413.614 161.798 391.901 128.795 391.901 128.795Z" fill="#D0CDE1"/>
<path d="M482.287 128.287C482.287 128.287 490.871 126.764 492.386 141.488C493.901 156.213 494.911 207.495 494.911 207.495C494.911 207.495 501.98 211.049 498.446 217.142C494.911 223.235 490.871 224.758 490.871 224.758L475.723 215.618L472.693 168.906L482.287 128.287Z" fill="#D0CDE1"/>
<path d="M478.752 214.603C478.752 214.603 457.04 223.742 460.069 227.804C463.099 231.866 470.673 226.789 470.673 226.789C470.673 226.789 478.752 248.114 483.297 243.544C487.842 238.975 490.871 221.204 490.871 221.204L478.752 214.603Z" fill="#A0616A"/>
<path opacity="0.2" d="M475.325 204.448C475.325 204.448 483.422 193.532 494.847 204.448C494.847 204.448 482.755 199.117 475.325 204.448Z" fill="black"/>
<path d="M426.445 81.9787C424.851 79.6371 425.55 76.3834 424.408 73.7878C422.616 69.712 417.332 68.8756 412.908 68.6075C409.968 68.4293 406.983 68.2543 404.1 68.8457C402.814 69.0931 401.602 69.6376 400.561 70.4363C399.519 71.235 398.676 72.2661 398.099 73.4483C397.477 74.7814 397.543 70.6503 397.833 65.3423C398.127 59.9257 400.123 54.7426 403.534 50.5398C406.945 46.337 411.595 43.3316 416.813 41.9565C416.875 41.9402 416.937 41.9242 416.998 41.9085C422.343 40.5308 427.863 39.4782 433.357 39.992C438.851 40.5057 444.369 42.7508 447.893 47.0204C449.504 48.9718 450.666 51.2908 452.454 53.0787C455.597 56.22 460.168 57.2795 464.378 58.67C469.139 60.2426 473.784 62.4459 477.478 65.8504C481.173 69.2548 483.847 73.9782 484.044 79.0133C484.274 84.8867 480.703 91.0407 474.741 92.345C473.704 92.553 472.73 93.004 471.899 93.6613C466.288 98.2593 472.924 102.768 473 107.789C473.063 111.978 468.491 114.821 464.335 115.117C456.594 115.67 448.901 109.824 447.316 102.185C446.606 98.7632 447.005 95.221 447.33 91.7405C447.701 87.7565 438.967 78.6092 444.753 85.3289C445.881 86.6054 446.659 88.1552 447.011 89.826C448.079 95.2807 443.166 97.2439 440.113 100.355C438.438 102.114 437.287 104.309 436.789 106.692C436.292 109.075 436.469 111.551 437.3 113.838C431.918 109.436 430.482 100.876 434.13 94.9418C435.099 93.3644 436.364 91.9819 437.281 90.3728C438.711 87.8621 438.992 82.4699 434.825 82.7192C431.851 82.8972 428.819 85.4645 426.445 81.9787Z" fill="#2F2E41"/>
<path d="M436.805 37H431.4C429.07 37 427.182 38.8988 427.182 41.241V74.5119C427.182 76.8541 429.07 78.7529 431.4 78.7529H436.805C439.135 78.7529 441.023 76.8541 441.023 74.5119V41.241C441.023 38.8988 439.135 37 436.805 37Z" fill="#D0CDE1"/>
<path d="M434.102 97.5417C440.982 97.5417 446.559 91.9336 446.559 85.0158C446.559 78.0979 440.982 72.4899 434.102 72.4899C427.223 72.4899 421.645 78.0979 421.645 85.0158C421.645 91.9336 427.223 97.5417 434.102 97.5417Z" fill="#F04B5D"/>
<path d="M434.102 91.2787C437.542 91.2787 440.331 88.4747 440.331 85.0158C440.331 81.5569 437.542 78.7529 434.102 78.7529C430.663 78.7529 427.874 81.5569 427.874 85.0158C427.874 88.4747 430.663 91.2787 434.102 91.2787Z" fill="#D0CDE1"/>
<path d="M434.102 87.7994C435.631 87.7994 436.871 86.5531 436.871 85.0158C436.871 83.4785 435.631 82.2323 434.102 82.2323C432.574 82.2323 431.334 83.4785 431.334 85.0158C431.334 86.5531 432.574 87.7994 434.102 87.7994Z" fill="#F04B5D"/>
</g>
<path d="M326 135H37C34.2386 135 32 137.239 32 140V290.798C32 293.56 34.2386 295.798 37 295.798H326C328.761 295.798 331 293.56 331 290.798V140C331 137.239 328.761 135 326 135Z" fill="#3F3D56"/>
<path d="M317.5 280.428H49C47.8954 280.428 47 281.323 47 282.428V284.94C47 286.044 47.8954 286.94 49 286.94H317.5C318.605 286.94 319.5 286.044 319.5 284.94V282.428C319.5 281.323 318.605 280.428 317.5 280.428Z" fill="#D0CDE1"/>
<path d="M202 280.428H49C47.8954 280.428 47 281.323 47 282.428V284.94C47 286.044 47.8954 286.94 49 286.94H202C203.105 286.94 204 286.044 204 284.94V282.428C204 281.323 203.105 280.428 202 280.428Z" fill="#F04B5D"/>
<path d="M48.6735 273.262C48.0079 273.68 47.1426 273.202 47.1418 272.417L47.1345 265.217C47.1337 264.432 47.9967 263.952 48.6632 264.367L54.4227 267.956C55.0497 268.346 55.0513 269.258 54.4256 269.651L48.6735 273.262Z" fill="#F04B5D"/>
<path d="M63.4271 264.495H62.1843C61.6321 264.495 61.1843 264.943 61.1843 265.495V272.142C61.1843 272.694 61.6321 273.142 62.1843 273.142H63.4271C63.9793 273.142 64.4271 272.694 64.4271 272.142V265.495C64.4271 264.943 63.9793 264.495 63.4271 264.495Z" fill="#F04B5D"/>
<path d="M68.8316 264.495H67.5889C67.0366 264.495 66.5889 264.943 66.5889 265.495V272.142C66.5889 272.694 67.0366 273.142 67.5889 273.142H68.8316C69.3838 273.142 69.8316 272.694 69.8316 272.142V265.495C69.8316 264.943 69.3838 264.495 68.8316 264.495Z" fill="#F04B5D"/>
<path d="M319.52 255.009C319.52 256.666 318.177 258.009 316.52 258.009H50.1326C48.4758 258.009 47.1326 256.666 47.1326 255.009V148.596C47.1326 146.939 48.4758 145.596 50.1326 145.596H316.52C318.177 145.596 319.52 146.939 319.52 148.596V255.009ZM48.1566 253.992C48.1566 255.649 49.4998 256.992 51.1566 256.992H315.496C317.153 256.992 318.496 255.649 318.496 253.992V149.613C318.496 147.956 317.153 146.613 315.496 146.613H51.1566C49.4998 146.613 48.1566 147.956 48.1566 149.613V253.992Z" fill="#D0CDE1"/>
<path d="M269.499 188.183H240.501C240.224 188.183 240 188.407 240 188.684C240 188.96 240.224 189.184 240.501 189.184H269.499C269.776 189.184 270 188.96 270 188.684C270 188.407 269.776 188.183 269.499 188.183Z" fill="#D0CDE1"/>
<path d="M118.499 227.756H89.5009C89.2243 227.756 89 227.98 89 228.257C89 228.534 89.2243 228.758 89.5009 228.758H118.499C118.776 228.758 119 228.534 119 228.257C119 227.98 118.776 227.756 118.499 227.756Z" fill="#D0CDE1"/>
<path d="M281 193.192C280.11 193.192 279.24 192.928 278.5 192.432C277.76 191.937 277.183 191.233 276.843 190.409C276.502 189.585 276.413 188.679 276.586 187.804C276.76 186.93 277.189 186.126 277.818 185.496C278.447 184.865 279.249 184.436 280.122 184.262C280.995 184.088 281.9 184.177 282.722 184.518C283.544 184.86 284.247 185.437 284.742 186.179C285.236 186.92 285.5 187.792 285.5 188.684C285.499 189.879 285.024 191.025 284.18 191.87C283.337 192.715 282.193 193.191 281 193.192ZM281 185.177C280.308 185.177 279.631 185.383 279.056 185.768C278.48 186.153 278.031 186.701 277.766 187.342C277.502 187.982 277.432 188.687 277.567 189.368C277.702 190.048 278.036 190.673 278.525 191.163C279.015 191.653 279.638 191.987 280.317 192.123C280.996 192.258 281.7 192.189 282.339 191.923C282.979 191.658 283.526 191.208 283.91 190.632C284.295 190.055 284.5 189.377 284.5 188.684C284.499 187.754 284.13 186.863 283.474 186.205C282.818 185.548 281.928 185.178 281 185.177Z" fill="#D0CDE1"/>
<path d="M281 237.775C280.11 237.775 279.24 237.51 278.5 237.015C277.76 236.519 277.183 235.815 276.843 234.992C276.502 234.168 276.413 233.261 276.586 232.387C276.76 231.512 277.189 230.709 277.818 230.078C278.447 229.448 279.249 229.019 280.122 228.845C280.995 228.671 281.9 228.76 282.722 229.101C283.544 229.442 284.247 230.02 284.742 230.762C285.236 231.503 285.5 232.375 285.5 233.266C285.499 234.462 285.024 235.608 284.181 236.453C283.337 237.298 282.193 237.773 281 237.775ZM281 229.76C280.308 229.76 279.631 229.965 279.056 230.351C278.48 230.736 278.031 231.284 277.766 231.924C277.502 232.565 277.432 233.27 277.567 233.95C277.702 234.631 278.036 235.255 278.525 235.746C279.015 236.236 279.638 236.57 280.317 236.705C280.996 236.841 281.7 236.771 282.339 236.506C282.979 236.24 283.526 235.791 283.91 235.214C284.295 234.638 284.5 233.96 284.5 233.266C284.499 232.337 284.13 231.445 283.474 230.788C282.818 230.131 281.928 229.761 281 229.76Z" fill="#D0CDE1"/>
<path d="M297 237.775C296.11 237.775 295.24 237.51 294.5 237.015C293.76 236.519 293.183 235.815 292.843 234.992C292.502 234.168 292.413 233.261 292.586 232.387C292.76 231.512 293.189 230.709 293.818 230.078C294.447 229.448 295.249 229.019 296.122 228.845C296.995 228.671 297.9 228.76 298.722 229.101C299.544 229.442 300.247 230.02 300.742 230.762C301.236 231.503 301.5 232.375 301.5 233.266C301.499 234.462 301.024 235.608 300.181 236.453C299.337 237.298 298.193 237.773 297 237.775ZM297 229.76C296.308 229.76 295.631 229.965 295.056 230.351C294.48 230.736 294.031 231.284 293.766 231.924C293.502 232.565 293.432 233.27 293.567 233.95C293.702 234.631 294.036 235.255 294.525 235.746C295.015 236.236 295.638 236.57 296.317 236.705C296.996 236.841 297.7 236.771 298.339 236.506C298.979 236.24 299.526 235.791 299.91 235.214C300.295 234.638 300.5 233.96 300.5 233.266C300.499 232.337 300.13 231.445 299.474 230.788C298.818 230.131 297.928 229.761 297 229.76Z" fill="#D0CDE1"/>
<path d="M265 237.775C264.11 237.775 263.24 237.51 262.5 237.015C261.76 236.519 261.183 235.815 260.843 234.992C260.502 234.168 260.413 233.261 260.586 232.387C260.76 231.512 261.189 230.709 261.818 230.078C262.447 229.448 263.249 229.019 264.122 228.845C264.995 228.671 265.9 228.76 266.722 229.101C267.544 229.442 268.247 230.02 268.742 230.762C269.236 231.503 269.5 232.375 269.5 233.266C269.499 234.462 269.024 235.608 268.18 236.453C267.337 237.298 266.193 237.773 265 237.775ZM265 229.76C264.308 229.76 263.631 229.965 263.055 230.351C262.48 230.736 262.031 231.284 261.766 231.924C261.501 232.565 261.432 233.27 261.567 233.95C261.702 234.631 262.036 235.255 262.525 235.746C263.015 236.236 263.638 236.57 264.317 236.705C264.996 236.841 265.7 236.771 266.339 236.506C266.979 236.24 267.526 235.791 267.91 235.214C268.295 234.638 268.5 233.96 268.5 233.266C268.499 232.337 268.13 231.445 267.474 230.788C266.818 230.131 265.928 229.761 265 229.76Z" fill="#D0CDE1"/>
<path d="M76.5 232.765C75.61 232.765 74.7399 232.501 73.9999 232.006C73.2599 231.51 72.6831 230.806 72.3425 229.982C72.0019 229.159 71.9128 228.252 72.0865 227.378C72.2601 226.503 72.6887 225.7 73.318 225.069C73.9473 224.439 74.7492 224.009 75.6221 223.835C76.495 223.661 77.3998 223.751 78.2221 224.092C79.0443 224.433 79.7471 225.011 80.2416 225.752C80.7361 226.494 81 227.365 81 228.257C80.9987 229.452 80.5241 230.598 79.6805 231.443C78.8369 232.289 77.6931 232.764 76.5 232.765ZM76.5 224.751C75.8078 224.751 75.1311 224.956 74.5555 225.342C73.9799 225.727 73.5313 226.274 73.2664 226.915C73.0015 227.556 72.9322 228.261 73.0672 228.941C73.2023 229.621 73.5356 230.246 74.0251 230.737C74.5146 231.227 75.1382 231.561 75.8172 231.696C76.4961 231.832 77.1998 231.762 77.8394 231.497C78.4789 231.231 79.0256 230.782 79.4101 230.205C79.7947 229.629 80 228.951 80 228.257C79.9989 227.327 79.6298 226.436 78.9737 225.779C78.3175 225.121 77.4279 224.752 76.5 224.751Z" fill="#D0CDE1"/>
<path d="M60.5 232.765C59.61 232.765 58.74 232.501 57.9999 232.006C57.2599 231.51 56.6831 230.806 56.3425 229.982C56.002 229.159 55.9128 228.252 56.0865 227.378C56.2601 226.503 56.6887 225.7 57.318 225.069C57.9474 224.439 58.7492 224.009 59.6221 223.835C60.495 223.661 61.3998 223.751 62.2221 224.092C63.0443 224.433 63.7472 225.011 64.2416 225.752C64.7361 226.494 65 227.365 65 228.257C64.9987 229.452 64.5241 230.598 63.6805 231.443C62.8369 232.289 61.6931 232.764 60.5 232.765ZM60.5 224.751C59.8078 224.751 59.1311 224.956 58.5555 225.342C57.9799 225.727 57.5313 226.274 57.2664 226.915C57.0015 227.556 56.9322 228.261 57.0673 228.941C57.2023 229.621 57.5356 230.246 58.0251 230.737C58.5146 231.227 59.1383 231.561 59.8172 231.696C60.4961 231.832 61.1999 231.762 61.8394 231.497C62.4789 231.231 63.0256 230.782 63.4101 230.205C63.7947 229.629 64 228.951 64 228.257C63.9989 227.327 63.6298 226.436 62.9737 225.779C62.3175 225.121 61.4279 224.752 60.5 224.751Z" fill="#D0CDE1"/>
<path d="M281.5 221.746V197.699C281.5 197.423 281.276 197.199 281 197.199C280.724 197.199 280.5 197.423 280.5 197.699V221.746C280.5 222.022 280.724 222.246 281 222.246C281.276 222.246 281.5 222.022 281.5 221.746Z" fill="#D0CDE1"/>
<path d="M221.5 94C223.985 94 226 91.9853 226 89.5C226 87.0147 223.985 85 221.5 85C219.015 85 217 87.0147 217 89.5C217 91.9853 219.015 94 221.5 94Z" fill="#F04B5D"/>
<path d="M306.5 9C308.985 9 311 6.98528 311 4.5C311 2.01472 308.985 0 306.5 0C304.015 0 302 2.01472 302 4.5C302 6.98528 304.015 9 306.5 9Z" fill="#F04B5D"/>
<path d="M74.5 416C76.9853 416 79 413.985 79 411.5C79 409.015 76.9853 407 74.5 407C72.0147 407 70 409.015 70 411.5C70 413.985 72.0147 416 74.5 416Z" fill="#F04B5D"/>
<path d="M83.5 61C85.9853 61 88 58.9853 88 56.5C88 54.0147 85.9853 52 83.5 52C81.0147 52 79 54.0147 79 56.5C79 58.9853 81.0147 61 83.5 61Z" fill="#F04B5D"/>
<path d="M180.418 225.52L178.47 228.636C177.962 229.449 177.883 230.364 178.131 231.166H163.599C162.869 233.941 164.941 236.812 167.965 236.812H181.124V225.52H180.418Z" fill="#2580A6"/>
<path d="M184.116 231.166C184.206 230.883 184.252 230.59 184.252 230.285C184.252 229.732 184.105 229.167 183.777 228.636L181.829 225.52H181.124V236.812H194.282C197.306 236.812 199.378 233.941 198.649 231.166H184.116Z" fill="#20557D"/>
<path d="M183.777 203.794C185.08 205.878 183.581 208.581 181.123 208.581V217.615H182.253V219.173C183.081 218.226 184.283 217.615 185.64 217.615H187.899C187.899 220.11 185.876 222.132 183.382 222.132H182.253V225.52H181.829L183.777 228.636C184.105 229.167 184.251 229.732 184.251 230.285C184.251 230.59 184.206 230.883 184.116 231.166H198.649C198.576 230.891 198.486 230.616 198.357 230.346L189.028 210.84V197.289C190.275 197.289 191.287 196.278 191.287 195.031C191.287 193.783 190.275 192.772 189.028 192.772H181.124V199.548L183.777 203.794Z" fill="#AEBBC4"/>
<path d="M182.253 217.615H181.123V225.52H181.829H182.253V222.132H183.382C185.876 222.132 187.899 220.11 187.899 217.615H185.64C184.283 217.615 183.081 218.226 182.253 219.173V217.615Z" fill="#AEBBC4"/>
<path d="M178.47 228.636L180.418 225.52H179.994V219.874H178.865C176.371 219.874 174.348 217.851 174.348 215.357H176.607C178.274 215.357 179.715 216.271 180.497 217.615H181.124V208.581C178.666 208.581 177.167 205.878 178.47 203.794L181.124 199.548V192.772H173.219C171.972 192.772 170.961 193.783 170.961 195.031C170.961 196.278 171.972 197.289 173.219 197.289V210.84L163.89 230.346C163.761 230.616 163.671 230.891 163.599 231.166H178.131C177.883 230.364 177.962 229.449 178.47 228.636Z" fill="#D0DFEA"/>
<path d="M179.994 225.52H180.418H181.124V217.615H180.497C179.715 216.271 178.274 215.357 176.607 215.357H174.348C174.348 217.851 176.371 219.874 178.865 219.874H179.994V225.52Z" fill="#D0DFEA"/>
<path d="M178.47 203.794C177.167 205.878 178.666 208.581 181.123 208.581V199.548L178.47 203.794Z" fill="#2580A6"/>
<path d="M183.777 203.794L181.123 199.548V208.581C183.581 208.581 185.08 205.878 183.777 203.794Z" fill="#20557D"/>
<path d="M190.488 182.279L188.794 180.585L182.253 187.126H181.124V188.256H184.511L190.488 182.279Z" fill="#D0DFEA"/>
<path d="M194.674 177.004L191.526 180.124L193.218 181.815L196.933 178.133C198.492 176.574 198.492 174.046 196.933 172.487C196.301 171.855 195.508 171.492 194.687 171.373C196.232 172.933 196.229 175.449 194.674 177.004Z" fill="#20557D"/>
<path d="M188.794 180.585L187.1 178.891L181.124 184.868V187.126H182.253L188.794 180.585Z" fill="white"/>
<path d="M194.674 177.004C196.229 175.449 196.232 172.933 194.687 171.373C193.482 171.197 192.214 171.56 191.287 172.487L187.572 176.169L191.526 180.124L194.674 177.004Z" fill="#2580A6"/>
<path d="M190.488 182.279L192.746 184.537L194.343 182.94L193.218 181.815L191.526 180.123L187.572 176.169L186.439 175.036L184.842 176.633L187.1 178.891L188.794 180.585L190.488 182.279Z" fill="#F04B5D"/>
<path d="M212.742 172.447V170.188H210.483V172.447H208.225V174.705H210.483V176.963H212.742V174.705H215V172.447H212.742Z" fill="#F04B5D"/>
<path d="M152.893 183.739H155.152V181.48H157.41V179.222H155.152V176.963H152.893V179.222H150.635V181.48H152.893V183.739Z" fill="#F04B5D"/>
<defs>
<clipPath id="clip0">
<rect x="349" y="37" width="155" height="479" fill="white"/>
</clipPath>
</defs>
</svg>
