<svg width="1230" height="485" viewBox="0 0 1230 485" fill="none" xmlns="http://www.w3.org/2000/svg">
<path d="M1.332 165.076C1.332 172.708 6.552 178.432 14.832 178.432C19.548 178.432 22.932 176.452 25.2 174.112L21.96 169.504C20.196 171.268 17.676 172.672 15.12 172.672C10.152 172.672 7.848 168.748 7.848 164.932C7.848 161.224 9.972 157.588 15.12 157.588C17.424 157.588 19.908 158.776 21.564 160.216L24.48 155.464C21.96 152.98 18.288 151.828 14.832 151.828C6.876 151.828 1.332 157.588 1.332 165.076ZM26.4192 178.18C33.6192 178.18 35.7792 172.996 35.7792 165.436V164.392H38.8752V178H45.1032V159.46H29.9112V165.4C29.9112 171.772 28.0752 172.528 26.4192 172.744V178.18ZM48.2237 168.712C48.2237 173.644 51.7877 178.432 58.4117 178.432C61.2557 178.432 64.3157 177.46 66.3317 175.732L64.0277 171.376C62.5157 172.384 60.7517 173.248 58.9157 173.248C56.9357 173.248 55.0637 172.204 54.5957 169.936H66.2957C66.3677 169.288 66.4397 168.64 66.4397 167.992C66.4397 162.844 63.3437 159.028 57.8717 159.028C51.8957 159.028 48.2237 163.276 48.2237 168.712ZM54.7397 166.372C55.0637 164.896 55.9277 163.6 57.7277 163.6C59.3117 163.6 60.2837 164.86 60.2837 166.372H54.7397ZM76.3928 173.068C77.6888 170.584 78.0488 167.884 78.0488 165.076V164.392H81.2528V173.068H76.3928ZM67.9688 173.068V182.32H73.7288V178H84.6008V182.32H90.1448V173.068H87.4808V159.46H72.1808V163.924C72.1808 167.668 71.4968 170.98 70.2728 173.068H67.9688ZM93.0021 178H99.0501L104.198 169.864C104.486 169.36 104.882 168.784 105.206 168.028H105.278C105.206 168.748 105.206 169.468 105.206 169.9V178H111.074V159.46H105.026L99.8781 167.632C99.5541 168.172 99.1941 168.712 98.8701 169.468H98.7981C98.8341 169 98.8701 168.28 98.8701 167.632V159.46H93.0021V178ZM114.464 178H120.404L120.836 169.468C120.908 168.028 120.8 166.3 120.8 166.3H120.872C120.872 166.3 121.556 167.848 121.952 169.036L124.4 175.516H129.44L131.888 169.036C132.356 167.884 132.896 166.3 132.896 166.3H132.968C132.968 166.3 132.896 168.028 132.932 169.468L133.364 178H139.34L137.576 159.46H130.412L127.676 167.596C127.352 168.532 126.92 169.756 126.92 169.756H126.884C126.884 169.756 126.488 168.532 126.164 167.596L123.428 159.46H116.228L114.464 178ZM150.165 175.696C152.181 177.496 155.169 178.432 157.905 178.432C162.297 178.432 165.573 176.452 165.573 172.528C165.573 170.368 164.097 169.072 162.693 168.424V168.352C163.809 167.74 164.997 166.48 164.997 164.176C164.997 160.972 161.973 159.028 158.157 159.028C154.773 159.028 152.397 159.928 150.669 161.116L152.469 164.968C154.413 163.816 155.853 163.564 156.861 163.564C158.445 163.564 158.805 164.248 158.805 165.04C158.805 166.192 157.905 166.48 156.933 166.48H155.061V170.584H157.329C159.021 170.584 159.345 171.232 159.345 172.132C159.345 172.996 158.841 173.752 157.113 173.752C155.637 173.752 153.801 172.852 152.649 171.808L150.165 175.696ZM167.397 172.78C167.397 175.984 169.881 178.432 173.445 178.432C175.569 178.432 177.729 177.46 178.953 175.732H179.025C179.025 175.732 178.953 176.272 178.953 176.884V178H184.641V166.588C184.641 161.872 181.473 159.028 176.361 159.028C173.337 159.028 170.097 160.216 168.513 161.44L170.673 165.832C172.149 164.86 173.985 164.068 175.785 164.068C177.153 164.068 178.413 164.572 178.413 166.12V166.444H177.873C173.301 166.444 167.397 167.812 167.397 172.78ZM173.553 172.204C173.553 170.512 176.001 170.008 177.909 170.008H178.485V170.512C178.485 172.024 177.117 173.788 175.317 173.788C174.165 173.788 173.553 173.068 173.553 172.204ZM197.592 178H207.708C211.38 178 214.764 176.56 214.764 172.492C214.764 170.872 213.972 169.036 211.848 168.388V168.352C213.252 167.524 214.008 165.868 214.008 164.32C214.008 161.116 211.416 159.46 207.708 159.46H197.592V178ZM203.82 166.768V163.312H206.088C207.312 163.312 207.816 164.068 207.816 164.932C207.816 165.904 207.312 166.768 206.16 166.768H203.82ZM203.82 174.112V170.404H206.592C207.924 170.404 208.536 171.268 208.536 172.276C208.536 173.212 207.888 174.112 206.556 174.112H203.82ZM216.651 172.78C216.651 175.984 219.135 178.432 222.699 178.432C224.823 178.432 226.983 177.46 228.207 175.732H228.279C228.279 175.732 228.207 176.272 228.207 176.884V178H233.895V166.588C233.895 161.872 230.727 159.028 225.615 159.028C222.591 159.028 219.351 160.216 217.767 161.44L219.927 165.832C221.403 164.86 223.239 164.068 225.039 164.068C226.407 164.068 227.667 164.572 227.667 166.12V166.444H227.127C222.555 166.444 216.651 167.812 216.651 172.78ZM222.807 172.204C222.807 170.512 225.255 170.008 227.163 170.008H227.739V170.512C227.739 172.024 226.371 173.788 224.571 173.788C223.419 173.788 222.807 173.068 222.807 172.204ZM237.846 178H263.802V159.46H257.934V172.78H253.758V159.46H247.89V172.78H243.714V159.46H237.846V178ZM267.975 178H274.023L279.171 169.864C279.459 169.36 279.855 168.784 280.179 168.028H280.251C280.179 168.748 280.179 169.468 280.179 169.9V178H286.047V159.46H279.999L274.851 167.632C274.527 168.172 274.167 168.712 273.843 169.468H273.771C273.807 169 273.843 168.28 273.843 167.632V159.46H267.975V178ZM289.437 178H295.377L295.809 169.468C295.881 168.028 295.773 166.3 295.773 166.3H295.845C295.845 166.3 296.529 167.848 296.925 169.036L299.373 175.516H304.413L306.861 169.036C307.329 167.884 307.869 166.3 307.869 166.3H307.941C307.941 166.3 307.869 168.028 307.905 169.468L308.337 178H314.313L312.549 159.46H305.385L302.649 167.596C302.325 168.532 301.893 169.756 301.893 169.756H301.857C301.857 169.756 301.461 168.532 301.137 167.596L298.401 159.46H291.201L289.437 178ZM2.088 220H8.316V206.68H13.824V220H20.052V201.46H2.088V220ZM24.2364 227.2H30.4644V220.252C30.4644 219.316 30.3924 218.668 30.3924 218.668H30.4644C31.7964 219.82 33.4524 220.432 35.1804 220.432C40.1124 220.432 43.8204 216.616 43.8204 210.748C43.8204 204.988 40.5084 201.028 35.4684 201.028C33.2364 201.028 31.1124 201.892 29.8524 203.584H29.7804C29.7804 203.584 29.8524 203.008 29.8524 202.396V201.46H24.2364V227.2ZM30.2844 210.856C30.2844 207.652 32.0484 206.284 33.9204 206.284C36.0804 206.284 37.5564 208.084 37.5564 210.856C37.5564 213.7 35.8644 215.284 33.9204 215.284C31.4724 215.284 30.2844 213.088 30.2844 210.856ZM45.9737 210.784C45.9737 216.58 50.6537 220.432 56.4857 220.432C62.3177 220.432 66.9977 216.58 66.9977 210.784C66.9977 204.952 62.3177 201.028 56.4497 201.028C50.6537 201.028 45.9737 204.952 45.9737 210.784ZM52.2737 210.784C52.2737 207.976 54.2177 206.212 56.4857 206.212C58.7537 206.212 60.6977 207.976 60.6977 210.784C60.6977 213.556 58.7537 215.248 56.4857 215.248C54.2177 215.248 52.2737 213.556 52.2737 210.784ZM70.1153 220H76.3433V206.68H83.1833V201.46H70.1153V220ZM85.795 227.2H92.023V220.252C92.023 219.316 91.951 218.668 91.951 218.668H92.023C93.355 219.82 95.011 220.432 96.739 220.432C101.671 220.432 105.379 216.616 105.379 210.748C105.379 204.988 102.067 201.028 97.027 201.028C94.795 201.028 92.671 201.892 91.411 203.584H91.339C91.339 203.584 91.411 203.008 91.411 202.396V201.46H85.795V227.2ZM91.843 210.856C91.843 207.652 93.607 206.284 95.479 206.284C97.639 206.284 99.115 208.084 99.115 210.856C99.115 213.7 97.423 215.284 95.479 215.284C93.031 215.284 91.843 213.088 91.843 210.856ZM107.532 210.712C107.532 215.644 111.096 220.432 117.72 220.432C120.564 220.432 123.624 219.46 125.64 217.732L123.336 213.376C121.824 214.384 120.06 215.248 118.224 215.248C116.244 215.248 114.372 214.204 113.904 211.936H125.604C125.676 211.288 125.748 210.64 125.748 209.992C125.748 204.844 122.652 201.028 117.18 201.028C111.204 201.028 107.532 205.276 107.532 210.712ZM114.048 208.372C114.372 206.896 115.236 205.6 117.036 205.6C118.62 205.6 119.592 206.86 119.592 208.372H114.048ZM127.958 210.712C127.958 215.824 131.666 220.432 138.29 220.432C141.386 220.432 144.41 219.244 146.246 217.372L143.978 213.016C142.646 214.168 140.702 215.248 138.902 215.248C135.77 215.248 134.258 212.836 134.258 210.64C134.258 208.444 135.734 206.212 138.686 206.212C140.306 206.212 141.962 206.968 143.042 208.012L145.67 203.836C143.834 201.856 140.882 201.028 138.29 201.028C131.63 201.028 127.958 205.744 127.958 210.712ZM147.435 210.712C147.435 215.824 151.143 220.432 157.767 220.432C160.863 220.432 163.887 219.244 165.723 217.372L163.455 213.016C162.123 214.168 160.179 215.248 158.379 215.248C155.247 215.248 153.735 212.836 153.735 210.64C153.735 208.444 155.211 206.212 158.163 206.212C159.783 206.212 161.439 206.968 162.519 208.012L165.147 203.836C163.311 201.856 160.359 201.028 157.767 201.028C151.107 201.028 147.435 205.744 147.435 210.712ZM166.911 210.784C166.911 216.58 171.591 220.432 177.423 220.432C183.255 220.432 187.935 216.58 187.935 210.784C187.935 204.952 183.255 201.028 177.387 201.028C171.591 201.028 166.911 204.952 166.911 210.784ZM173.211 210.784C173.211 207.976 175.155 206.212 177.423 206.212C179.691 206.212 181.635 207.976 181.635 210.784C181.635 213.556 179.691 215.248 177.423 215.248C175.155 215.248 173.211 213.556 173.211 210.784ZM190.261 220H196.201L196.633 211.468C196.705 210.028 196.597 208.3 196.597 208.3H196.669C196.669 208.3 197.353 209.848 197.749 211.036L200.197 217.516H205.237L207.685 211.036C208.153 209.884 208.693 208.3 208.693 208.3H208.765C208.765 208.3 208.693 210.028 208.729 211.468L209.161 220H215.137L213.373 201.46H206.209L203.473 209.596C203.149 210.532 202.717 211.756 202.717 211.756H202.681C202.681 211.756 202.285 210.532 201.961 209.596L199.225 201.46H192.025L190.261 220ZM216.818 223.996H221.39L225.458 214.024H219.518L216.818 223.996Z" fill="#F04B5D"/>
<path d="M236.901 214.78C236.901 217.984 239.385 220.432 242.949 220.432C245.073 220.432 247.233 219.46 248.457 217.732H248.529C248.529 217.732 248.457 218.272 248.457 218.884V220H254.145V208.588C254.145 203.872 250.977 201.028 245.865 201.028C242.841 201.028 239.601 202.216 238.017 203.44L240.177 207.832C241.653 206.86 243.489 206.068 245.289 206.068C246.657 206.068 247.917 206.572 247.917 208.12V208.444H247.377C242.805 208.444 236.901 209.812 236.901 214.78ZM243.057 214.204C243.057 212.512 245.505 212.008 247.413 212.008H247.989V212.512C247.989 214.024 246.621 215.788 244.821 215.788C243.669 215.788 243.057 215.068 243.057 214.204ZM258.096 220H264.324V213.232H270.048V220H276.276V201.46H270.048V208.012H264.324V201.46H258.096V220ZM279.123 214.78C279.123 217.984 281.607 220.432 285.171 220.432C287.295 220.432 289.455 219.46 290.679 217.732H290.751C290.751 217.732 290.679 218.272 290.679 218.884V220H296.367V208.588C296.367 203.872 293.199 201.028 288.087 201.028C285.063 201.028 281.823 202.216 280.239 203.44L282.399 207.832C283.875 206.86 285.711 206.068 287.511 206.068C288.879 206.068 290.139 206.572 290.139 208.12V208.444H289.599C285.027 208.444 279.123 209.812 279.123 214.78ZM285.279 214.204C285.279 212.512 287.727 212.008 289.635 212.008H290.211V212.512C290.211 214.024 288.843 215.788 287.043 215.788C285.891 215.788 285.279 215.068 285.279 214.204ZM298.95 220.18C306.15 220.18 308.31 214.996 308.31 207.436V206.392H311.406V220H317.634V201.46H302.442V207.4C302.442 213.772 300.606 214.528 298.95 214.744V220.18ZM321.799 220H327.847L332.995 211.864C333.283 211.36 333.679 210.784 334.003 210.028H334.075C334.003 210.748 334.003 211.468 334.003 211.9V220H339.871V201.46H333.823L328.675 209.632C328.351 210.172 327.991 210.712 327.667 211.468H327.595C327.631 211 327.667 210.28 327.667 209.632V201.46H321.799V220ZM342.505 217.696C344.521 219.496 347.509 220.432 350.245 220.432C354.637 220.432 357.913 218.452 357.913 214.528C357.913 212.368 356.437 211.072 355.033 210.424V210.352C356.149 209.74 357.337 208.48 357.337 206.176C357.337 202.972 354.313 201.028 350.497 201.028C347.113 201.028 344.737 201.928 343.009 203.116L344.809 206.968C346.753 205.816 348.193 205.564 349.201 205.564C350.785 205.564 351.145 206.248 351.145 207.04C351.145 208.192 350.245 208.48 349.273 208.48H347.401V212.584H349.669C351.361 212.584 351.685 213.232 351.685 214.132C351.685 214.996 351.181 215.752 349.453 215.752C347.977 215.752 346.141 214.852 344.989 213.808L342.505 217.696ZM361.068 220H367.116L372.264 211.864C372.552 211.36 372.948 210.784 373.272 210.028H373.344C373.272 210.748 373.272 211.468 373.272 211.9V220H379.14V201.46H373.092L367.944 209.632C367.62 210.172 367.26 210.712 366.936 211.468H366.864C366.9 211 366.936 210.28 366.936 209.632V201.46H361.068V220ZM383.322 227.2H389.55V220.252C389.55 219.316 389.478 218.668 389.478 218.668H389.55C390.882 219.82 392.538 220.432 394.266 220.432C399.198 220.432 402.906 216.616 402.906 210.748C402.906 204.988 399.594 201.028 394.554 201.028C392.322 201.028 390.198 201.892 388.938 203.584H388.866C388.866 203.584 388.938 203.008 388.938 202.396V201.46H383.322V227.2ZM389.37 210.856C389.37 207.652 391.134 206.284 393.006 206.284C395.166 206.284 396.642 208.084 396.642 210.856C396.642 213.7 394.95 215.284 393.006 215.284C390.558 215.284 389.37 213.088 389.37 210.856ZM405.827 221.692L403.847 226.264C403.847 226.264 405.719 227.56 408.167 227.56C411.119 227.56 414.359 226.12 415.907 221.98L423.503 201.46H416.699L414.359 210.1C414.107 211.108 413.747 212.872 413.747 212.872H413.675C413.675 212.872 413.315 211 412.991 209.992L410.255 201.46H403.199L411.083 219.64L410.723 220.504C410.075 222.088 408.743 222.376 407.735 222.376C406.835 222.376 405.827 221.692 405.827 221.692ZM424.149 210.712C424.149 215.644 427.713 220.432 434.337 220.432C437.181 220.432 440.241 219.46 442.257 217.732L439.953 213.376C438.441 214.384 436.677 215.248 434.841 215.248C432.861 215.248 430.989 214.204 430.521 211.936H442.221C442.293 211.288 442.365 210.64 442.365 209.992C442.365 204.844 439.269 201.028 433.797 201.028C427.821 201.028 424.149 205.276 424.149 210.712ZM430.665 208.372C430.989 206.896 431.853 205.6 433.653 205.6C435.237 205.6 436.209 206.86 436.209 208.372H430.665ZM444.827 220H450.767L451.199 211.468C451.271 210.028 451.163 208.3 451.163 208.3H451.235C451.235 208.3 451.919 209.848 452.315 211.036L454.763 217.516H459.803L462.251 211.036C462.719 209.884 463.259 208.3 463.259 208.3H463.331C463.331 208.3 463.259 210.028 463.295 211.468L463.727 220H469.703L467.939 201.46H460.775L458.039 209.596C457.715 210.532 457.283 211.756 457.283 211.756H457.247C457.247 211.756 456.851 210.532 456.527 209.596L453.791 201.46H446.591L444.827 220ZM2.088 262H8.136L13.284 253.864C13.572 253.36 13.968 252.784 14.292 252.028H14.364C14.292 252.748 14.292 253.468 14.292 253.9V262H20.16V243.46H14.112L8.964 251.632C8.64 252.172 8.28 252.712 7.956 253.468H7.884C7.92 253 7.956 252.28 7.956 251.632V243.46H2.088V262ZM33.3419 262H39.3899L44.5379 253.864C44.8259 253.36 45.2219 252.784 45.5459 252.028H45.6179C45.5459 252.748 45.5459 253.468 45.5459 253.9V262H51.4139V243.46H45.3659L40.2179 251.632C39.8939 252.172 39.5339 252.712 39.2099 253.468H39.1379C39.1739 253 39.2099 252.28 39.2099 251.632V243.46H33.3419V262ZM54.5518 252.712C54.5518 257.824 58.2598 262.432 64.8838 262.432C67.9798 262.432 71.0038 261.244 72.8398 259.372L70.5718 255.016C69.2398 256.168 67.2958 257.248 65.4958 257.248C62.3638 257.248 60.8518 254.836 60.8518 252.64C60.8518 250.444 62.3278 248.212 65.2798 248.212C66.8998 248.212 68.5558 248.968 69.6358 250.012L72.2638 245.836C70.4278 243.856 67.4758 243.028 64.8838 243.028C58.2238 243.028 54.5518 247.744 54.5518 252.712ZM75.4591 262H81.6871V248.68H87.1951V262H93.4231V243.46H75.4591V262ZM97.6075 269.2H103.836V262.252C103.836 261.316 103.764 260.668 103.764 260.668H103.836C105.168 261.82 106.824 262.432 108.552 262.432C113.484 262.432 117.192 258.616 117.192 252.748C117.192 246.988 113.88 243.028 108.84 243.028C106.608 243.028 104.484 243.892 103.224 245.584H103.152C103.152 245.584 103.224 245.008 103.224 244.396V243.46H97.6075V269.2ZM103.656 252.856C103.656 249.652 105.42 248.284 107.292 248.284C109.452 248.284 110.928 250.084 110.928 252.856C110.928 255.7 109.236 257.284 107.292 257.284C104.844 257.284 103.656 255.088 103.656 252.856ZM119.057 256.78C119.057 259.984 121.541 262.432 125.105 262.432C127.229 262.432 129.389 261.46 130.613 259.732H130.685C130.685 259.732 130.613 260.272 130.613 260.884V262H136.301V250.588C136.301 245.872 133.133 243.028 128.021 243.028C124.997 243.028 121.757 244.216 120.173 245.44L122.333 249.832C123.809 248.86 125.645 248.068 127.445 248.068C128.813 248.068 130.073 248.572 130.073 250.12V250.444H129.533C124.961 250.444 119.057 251.812 119.057 256.78ZM125.213 256.204C125.213 254.512 127.661 254.008 129.569 254.008H130.145V254.512C130.145 256.024 128.777 257.788 126.977 257.788C125.825 257.788 125.213 257.068 125.213 256.204ZM140.252 262H150.368C154.04 262 157.424 260.56 157.424 256.492C157.424 254.872 156.632 253.036 154.508 252.388V252.352C155.912 251.524 156.668 249.868 156.668 248.32C156.668 245.116 154.076 243.46 150.368 243.46H140.252V262ZM146.48 250.768V247.312H148.748C149.972 247.312 150.476 248.068 150.476 248.932C150.476 249.904 149.972 250.768 148.82 250.768H146.48ZM146.48 258.112V254.404H149.252C150.584 254.404 151.196 255.268 151.196 256.276C151.196 257.212 150.548 258.112 149.216 258.112H146.48ZM159.275 262.18C166.475 262.18 168.635 256.996 168.635 249.436V248.392H171.731V262H177.959V243.46H162.767V249.4C162.767 255.772 160.931 256.528 159.275 256.744V262.18ZM180.359 262H186.947L190.511 256.348H191.807V262H198.035V243.46H188.315C184.211 243.46 181.619 245.836 181.619 249.724C181.619 252.1 182.951 254.224 184.967 255.232V255.268C184.967 255.268 184.607 255.628 184.103 256.384L180.359 262ZM190.331 252.208C188.855 252.208 187.811 251.452 187.811 249.688C187.811 247.96 188.855 247.312 190.295 247.312H191.807V252.208H190.331ZM201.153 252.712C201.153 257.644 204.717 262.432 211.341 262.432C214.185 262.432 217.245 261.46 219.261 259.732L216.957 255.376C215.445 256.384 213.681 257.248 211.845 257.248C209.865 257.248 207.993 256.204 207.525 253.936H219.225C219.297 253.288 219.369 252.64 219.369 251.992C219.369 246.844 216.273 243.028 210.801 243.028C204.825 243.028 201.153 247.276 201.153 252.712ZM207.669 250.372C207.993 248.896 208.857 247.6 210.657 247.6C212.241 247.6 213.213 248.86 213.213 250.372H207.669ZM221.831 262H227.771L228.203 253.468C228.275 252.028 228.167 250.3 228.167 250.3H228.239C228.239 250.3 228.923 251.848 229.319 253.036L231.767 259.516H236.807L239.255 253.036C239.723 251.884 240.263 250.3 240.263 250.3H240.335C240.335 250.3 240.263 252.028 240.299 253.468L240.731 262H246.707L244.943 243.46H237.779L235.043 251.596C234.719 252.532 234.287 253.756 234.287 253.756H234.251C234.251 253.756 233.855 252.532 233.531 251.596L230.795 243.46H223.595L221.831 262ZM258.036 252.784C258.036 258.58 262.716 262.432 268.548 262.432C274.38 262.432 279.06 258.58 279.06 252.784C279.06 246.952 274.38 243.028 268.512 243.028C262.716 243.028 258.036 246.952 258.036 252.784ZM264.336 252.784C264.336 249.976 266.28 248.212 268.548 248.212C270.816 248.212 272.76 249.976 272.76 252.784C272.76 255.556 270.816 257.248 268.548 257.248C266.28 257.248 264.336 255.556 264.336 252.784ZM282.178 262H308.134V243.46H302.266V256.78H298.09V243.46H292.222V256.78H288.046V243.46H282.178V262ZM312.307 262H318.355L323.503 253.864C323.791 253.36 324.187 252.784 324.511 252.028H324.583C324.511 252.748 324.511 253.468 324.511 253.9V262H330.379V243.46H324.331L319.183 251.632C318.859 252.172 318.499 252.712 318.175 253.468H318.103C318.139 253 318.175 252.28 318.175 251.632V243.46H312.307V262ZM333.733 250.912C333.733 257.716 337.081 262.432 343.777 262.432C349.645 262.432 353.353 258.544 353.353 253.432C353.353 248.464 350.329 244.936 345.361 244.936C343.741 244.936 341.509 245.368 339.925 246.7H339.853C339.961 244.036 342.481 243.028 344.857 242.236L351.841 240.004L350.077 235L344.065 237.016C336.829 239.5 333.733 243.352 333.733 250.912ZM339.925 253.54C339.925 251.128 341.581 249.616 343.525 249.616C345.469 249.616 347.125 251.128 347.125 253.54C347.125 255.916 345.469 257.356 343.525 257.356C341.581 257.356 339.925 255.916 339.925 253.54ZM356.604 262H362.832V255.196H364.776L368.7 262H375.792L369.6 252.352V252.28L375.036 243.46H368.268L364.596 249.976H362.832V243.46H356.604V262ZM377.873 262H383.921L389.069 253.864C389.357 253.36 389.753 252.784 390.077 252.028H390.149C390.077 252.748 390.077 253.468 390.077 253.9V262H395.945V243.46H389.897L384.749 251.632C384.425 252.172 384.065 252.712 383.741 253.468H383.669C383.705 253 383.741 252.28 383.741 251.632V243.46H377.873V262ZM398.435 265.996H403.007L407.075 256.024H401.135L398.435 265.996ZM2.088 304H8.316V290.68H13.824V304H20.052V285.46H2.088V304ZM24.2364 311.2H30.4644V304.252C30.4644 303.316 30.3924 302.668 30.3924 302.668H30.4644C31.7964 303.82 33.4524 304.432 35.1804 304.432C40.1124 304.432 43.8204 300.616 43.8204 294.748C43.8204 288.988 40.5084 285.028 35.4684 285.028C33.2364 285.028 31.1124 285.892 29.8524 287.584H29.7804C29.7804 287.584 29.8524 287.008 29.8524 286.396V285.46H24.2364V311.2ZM30.2844 294.856C30.2844 291.652 32.0484 290.284 33.9204 290.284C36.0804 290.284 37.5564 292.084 37.5564 294.856C37.5564 297.7 35.8644 299.284 33.9204 299.284C31.4724 299.284 30.2844 297.088 30.2844 294.856ZM47.0177 304H53.0657L58.2137 295.864C58.5017 295.36 58.8977 294.784 59.2217 294.028H59.2937C59.2217 294.748 59.2217 295.468 59.2217 295.9V304H65.0897V285.46H59.0417L53.8937 293.632C53.5697 294.172 53.2097 294.712 52.8857 295.468H52.8137C52.8497 295 52.8857 294.28 52.8857 293.632V285.46H47.0177V304ZM68.2276 294.712C68.2276 299.824 71.9356 304.432 78.5596 304.432C81.6556 304.432 84.6796 303.244 86.5156 301.372L84.2476 297.016C82.9156 298.168 80.9716 299.248 79.1716 299.248C76.0396 299.248 74.5276 296.836 74.5276 294.64C74.5276 292.444 76.0036 290.212 78.9556 290.212C80.5756 290.212 82.2316 290.968 83.3116 292.012L85.9396 287.836C84.1036 285.856 81.1516 285.028 78.5596 285.028C71.8996 285.028 68.2276 289.744 68.2276 294.712ZM107.639 304H113.867V285.46H107.639V304ZM89.1349 304H98.1709C103.355 304 105.515 301.444 105.515 297.664C105.515 293.92 103.355 291.256 98.1709 291.256H95.3629V285.46H89.1349V304ZM95.3629 299.932V295.288H96.9109C98.4949 295.288 99.2869 296.332 99.2869 297.628C99.2869 298.924 98.4949 299.932 97.0189 299.932H95.3629ZM116.665 304.18C123.865 304.18 126.025 298.996 126.025 291.436V290.392H129.121V304H135.349V285.46H120.157V291.4C120.157 297.772 118.321 298.528 116.665 298.744V304.18ZM138.182 298.78C138.182 301.984 140.666 304.432 144.23 304.432C146.354 304.432 148.514 303.46 149.738 301.732H149.81C149.81 301.732 149.738 302.272 149.738 302.884V304H155.426V292.588C155.426 287.872 152.258 285.028 147.146 285.028C144.122 285.028 140.882 286.216 139.298 287.44L141.458 291.832C142.934 290.86 144.77 290.068 146.57 290.068C147.938 290.068 149.198 290.572 149.198 292.12V292.444H148.658C144.086 292.444 138.182 293.812 138.182 298.78ZM144.338 298.204C144.338 296.512 146.786 296.008 148.694 296.008H149.27V296.512C149.27 298.024 147.902 299.788 146.102 299.788C144.95 299.788 144.338 299.068 144.338 298.204ZM158.333 294.712C158.333 299.644 161.897 304.432 168.521 304.432C171.365 304.432 174.425 303.46 176.441 301.732L174.137 297.376C172.625 298.384 170.861 299.248 169.025 299.248C167.045 299.248 165.173 298.204 164.705 295.936H176.405C176.477 295.288 176.549 294.64 176.549 293.992C176.549 288.844 173.453 285.028 167.981 285.028C162.005 285.028 158.333 289.276 158.333 294.712ZM164.849 292.372C165.173 290.896 166.037 289.6 167.837 289.6C169.421 289.6 170.393 290.86 170.393 292.372H164.849ZM179.011 304H184.951L185.383 295.468C185.455 294.028 185.347 292.3 185.347 292.3H185.419C185.419 292.3 186.103 293.848 186.499 295.036L188.947 301.516H193.987L196.435 295.036C196.903 293.884 197.443 292.3 197.443 292.3H197.515C197.515 292.3 197.443 294.028 197.479 295.468L197.911 304H203.887L202.123 285.46H194.959L192.223 293.596C191.899 294.532 191.467 295.756 191.467 295.756H191.431C191.431 295.756 191.035 294.532 190.711 293.596L187.975 285.46H180.775L179.011 304ZM215.216 294.784C215.216 300.58 219.896 304.432 225.728 304.432C231.56 304.432 236.24 300.58 236.24 294.784C236.24 288.952 231.56 285.028 225.692 285.028C219.896 285.028 215.216 288.952 215.216 294.784ZM221.516 294.784C221.516 291.976 223.46 290.212 225.728 290.212C227.996 290.212 229.94 291.976 229.94 294.784C229.94 297.556 227.996 299.248 225.728 299.248C223.46 299.248 221.516 297.556 221.516 294.784ZM243.215 304H249.443V290.68H255.095V285.46H237.599V290.68H243.215V304ZM263.037 298.312C265.305 298.312 266.961 297.808 268.005 297.34H268.077C268.077 297.34 268.041 297.808 268.041 298.204V304H274.269V285.46H268.041V292.336C267.429 292.768 266.493 293.236 265.233 293.236C263.685 293.236 262.857 292.336 262.857 290.752V285.46H256.737V291.94C256.737 296.8 260.049 298.312 263.037 298.312ZM277.407 294.712C277.407 299.644 280.971 304.432 287.595 304.432C290.439 304.432 293.499 303.46 295.515 301.732L293.211 297.376C291.699 298.384 289.935 299.248 288.099 299.248C286.119 299.248 284.247 298.204 283.779 295.936H295.479C295.551 295.288 295.623 294.64 295.623 293.992C295.623 288.844 292.527 285.028 287.055 285.028C281.079 285.028 277.407 289.276 277.407 294.712ZM283.923 292.372C284.247 290.896 285.111 289.6 286.911 289.6C288.495 289.6 289.467 290.86 289.467 292.372H283.923ZM302.945 304H309.173V290.68H314.825V285.46H297.329V290.68H302.945V304ZM325.396 294.784C325.396 300.58 330.076 304.432 335.908 304.432C341.74 304.432 346.42 300.58 346.42 294.784C346.42 288.952 341.74 285.028 335.872 285.028C330.076 285.028 325.396 288.952 325.396 294.784ZM331.696 294.784C331.696 291.976 333.64 290.212 335.908 290.212C338.176 290.212 340.12 291.976 340.12 294.784C340.12 297.556 338.176 299.248 335.908 299.248C333.64 299.248 331.696 297.556 331.696 294.784ZM2.088 346H8.316V332.68H13.824V346H20.052V327.46H2.088V346ZM24.2364 353.2H30.4644V346.252C30.4644 345.316 30.3924 344.668 30.3924 344.668H30.4644C31.7964 345.82 33.4524 346.432 35.1804 346.432C40.1124 346.432 43.8204 342.616 43.8204 336.748C43.8204 330.988 40.5084 327.028 35.4684 327.028C33.2364 327.028 31.1124 327.892 29.8524 329.584H29.7804C29.7804 329.584 29.8524 329.008 29.8524 328.396V327.46H24.2364V353.2ZM30.2844 336.856C30.2844 333.652 32.0484 332.284 33.9204 332.284C36.0804 332.284 37.5564 334.084 37.5564 336.856C37.5564 339.7 35.8644 341.284 33.9204 341.284C31.4724 341.284 30.2844 339.088 30.2844 336.856ZM45.9737 336.784C45.9737 342.58 50.6537 346.432 56.4857 346.432C62.3177 346.432 66.9977 342.58 66.9977 336.784C66.9977 330.952 62.3177 327.028 56.4497 327.028C50.6537 327.028 45.9737 330.952 45.9737 336.784ZM52.2737 336.784C52.2737 333.976 54.2177 332.212 56.4857 332.212C58.7537 332.212 60.6977 333.976 60.6977 336.784C60.6977 339.556 58.7537 341.248 56.4857 341.248C54.2177 341.248 52.2737 339.556 52.2737 336.784ZM70.1153 346H80.2313C83.9033 346 87.2873 344.56 87.2873 340.492C87.2873 338.872 86.4953 337.036 84.3713 336.388V336.352C85.7753 335.524 86.5313 333.868 86.5313 332.32C86.5313 329.116 83.9393 327.46 80.2313 327.46H70.1153V346ZM76.3433 334.768V331.312H78.6113C79.8353 331.312 80.3393 332.068 80.3393 332.932C80.3393 333.904 79.8353 334.768 78.6833 334.768H76.3433ZM76.3433 342.112V338.404H79.1153C80.4473 338.404 81.0593 339.268 81.0593 340.276C81.0593 341.212 80.4113 342.112 79.0793 342.112H76.3433ZM89.462 336.712C89.462 341.644 93.026 346.432 99.65 346.432C102.494 346.432 105.554 345.46 107.57 343.732L105.266 339.376C103.754 340.384 101.99 341.248 100.154 341.248C98.174 341.248 96.302 340.204 95.834 337.936H107.534C107.606 337.288 107.678 336.64 107.678 335.992C107.678 330.844 104.582 327.028 99.11 327.028C93.134 327.028 89.462 331.276 89.462 336.712ZM95.978 334.372C96.302 332.896 97.166 331.6 98.966 331.6C100.55 331.6 101.522 332.86 101.522 334.372H95.978ZM117.631 341.068C118.927 338.584 119.287 335.884 119.287 333.076V332.392H122.491V341.068H117.631ZM109.207 341.068V350.32H114.967V346H125.839V350.32H131.383V341.068H128.719V327.46H113.419V331.924C113.419 335.668 112.735 338.98 111.511 341.068H109.207ZM132.985 336.712C132.985 341.644 136.549 346.432 143.173 346.432C146.017 346.432 149.077 345.46 151.093 343.732L148.789 339.376C147.277 340.384 145.513 341.248 143.677 341.248C141.697 341.248 139.825 340.204 139.357 337.936H151.057C151.129 337.288 151.201 336.64 151.201 335.992C151.201 330.844 148.105 327.028 142.633 327.028C136.657 327.028 132.985 331.276 132.985 336.712ZM139.501 334.372C139.825 332.896 140.689 331.6 142.489 331.6C144.073 331.6 145.045 332.86 145.045 334.372H139.501ZM154.455 346H160.683V339.232H166.407V346H172.635V327.46H166.407V334.012H160.683V327.46H154.455V346ZM176.815 346H183.043V339.232H188.767V346H194.995V327.46H188.767V334.012H183.043V327.46H176.815V346ZM217.678 346H223.906V327.46H217.678V346ZM199.174 346H208.21C213.394 346 215.554 343.444 215.554 339.664C215.554 335.92 213.394 333.256 208.21 333.256H205.402V327.46H199.174V346ZM205.402 341.932V337.288H206.95C208.534 337.288 209.326 338.332 209.326 339.628C209.326 340.924 208.534 341.932 207.058 341.932H205.402ZM226.38 346H233.22L235.416 341.824C235.596 341.5 235.848 340.888 235.848 340.888H235.92C235.92 340.888 236.172 341.5 236.352 341.824L238.584 346H245.424L239.592 336.82L245.532 327.46H238.512L236.496 331.6C236.28 332.068 235.92 332.824 235.92 332.824H235.848C235.848 332.824 235.524 332.068 235.272 331.6L233.256 327.46H226.236L232.212 336.82L226.38 346ZM255.317 343.696C257.333 345.496 260.321 346.432 263.057 346.432C267.449 346.432 270.725 344.452 270.725 340.528C270.725 338.368 269.249 337.072 267.845 336.424V336.352C268.961 335.74 270.149 334.48 270.149 332.176C270.149 328.972 267.125 327.028 263.309 327.028C259.925 327.028 257.549 327.928 255.821 329.116L257.621 332.968C259.565 331.816 261.005 331.564 262.013 331.564C263.597 331.564 263.957 332.248 263.957 333.04C263.957 334.192 263.057 334.48 262.085 334.48H260.213V338.584H262.481C264.173 338.584 264.497 339.232 264.497 340.132C264.497 340.996 263.993 341.752 262.265 341.752C260.789 341.752 258.953 340.852 257.801 339.808L255.317 343.696ZM272.549 340.78C272.549 343.984 275.033 346.432 278.597 346.432C280.721 346.432 282.881 345.46 284.105 343.732H284.177C284.177 343.732 284.105 344.272 284.105 344.884V346H289.793V334.588C289.793 329.872 286.625 327.028 281.513 327.028C278.489 327.028 275.249 328.216 273.665 329.44L275.825 333.832C277.301 332.86 279.137 332.068 280.937 332.068C282.305 332.068 283.565 332.572 283.565 334.12V334.444H283.025C278.453 334.444 272.549 335.812 272.549 340.78ZM278.705 340.204C278.705 338.512 281.153 338.008 283.061 338.008H283.637V338.512C283.637 340.024 282.269 341.788 280.469 341.788C279.317 341.788 278.705 341.068 278.705 340.204ZM293.744 346H299.972V339.232H305.696V346H311.924V327.46H305.696V334.012H299.972V327.46H293.744V346ZM314.34 346H320.928L324.492 340.348H325.788V346H332.016V327.46H322.296C318.192 327.46 315.6 329.836 315.6 333.724C315.6 336.1 316.932 338.224 318.948 339.232V339.268C318.948 339.268 318.588 339.628 318.084 340.384L314.34 346ZM324.312 336.208C322.836 336.208 321.792 335.452 321.792 333.688C321.792 331.96 322.836 331.312 324.276 331.312H325.788V336.208H324.312ZM340.246 346H346.474V332.68H352.126V327.46H334.63V332.68H340.246V346ZM354.74 346H360.788L365.936 337.864C366.224 337.36 366.62 336.784 366.944 336.028H367.016C366.944 336.748 366.944 337.468 366.944 337.9V346H372.812V327.46H366.764L361.616 335.632C361.292 336.172 360.932 336.712 360.608 337.468H360.536C360.572 337 360.608 336.28 360.608 335.632V327.46H354.74V346ZM375.23 346H381.818L385.382 340.348H386.678V346H392.906V327.46H383.186C379.082 327.46 376.49 329.836 376.49 333.724C376.49 336.1 377.822 338.224 379.838 339.232V339.268C379.838 339.268 379.478 339.628 378.974 340.384L375.23 346ZM385.202 336.208C383.726 336.208 382.682 335.452 382.682 333.688C382.682 331.96 383.726 331.312 385.166 331.312H386.678V336.208H385.202ZM395.376 346H402.216L404.412 341.824C404.592 341.5 404.844 340.888 404.844 340.888H404.916C404.916 340.888 405.168 341.5 405.348 341.824L407.58 346H414.42L408.588 336.82L414.528 327.46H407.508L405.492 331.6C405.276 332.068 404.916 332.824 404.916 332.824H404.844C404.844 332.824 404.52 332.068 404.268 331.6L402.252 327.46H395.232L401.208 336.82L395.376 346Z" fill="#222224"/>
<path d="M684.869 0L650.331 56.4091C659.659 62.4633 666.254 71.9163 668.712 82.7561C671.17 93.5958 669.298 104.966 663.493 114.447C657.688 123.928 648.409 130.771 637.631 133.519C626.854 136.266 615.428 134.703 605.787 129.16L569.064 189.137L923.342 405.728L1039.15 216.591L684.869 0Z" fill="#F2F2F2"/>
<path d="M632.243 119.975C647.606 119.975 660.06 107.53 660.06 92.1778C660.06 76.8261 647.606 64.381 632.243 64.381C616.879 64.381 604.425 76.8261 604.425 92.1778C604.425 107.53 616.879 119.975 632.243 119.975Z" fill="#F2F2F2"/>
<path d="M890.365 464.527C944.673 464.527 988.698 461.632 988.698 458.062C988.698 454.492 944.673 451.598 890.365 451.598C836.058 451.598 792.033 454.492 792.033 458.062C792.033 461.632 836.058 464.527 890.365 464.527Z" fill="#F2F2F2"/>
<path d="M724.106 485C749.473 485 770.037 483.648 770.037 481.981C770.037 480.313 749.473 478.961 724.106 478.961C698.739 478.961 678.174 480.313 678.174 481.981C678.174 483.648 698.739 485 724.106 485Z" fill="#F2F2F2"/>
<path d="M1085.74 449.659C1140.04 449.659 1184.07 446.764 1184.07 443.194C1184.07 439.624 1140.04 436.73 1085.74 436.73C1031.43 436.73 987.404 439.624 987.404 443.194C987.404 446.764 1031.43 449.659 1085.74 449.659Z" fill="#F2F2F2"/>
<path d="M573.373 432.851H1230" stroke="#2F2E41" stroke-width="2" stroke-miterlimit="10"/>
<path d="M1159.81 113.834H687.555V432.528H1159.81V113.834Z" fill="#3F3D56"/>
<path d="M687.555 137.144H1159.81" stroke="#2F2E41" stroke-width="2" stroke-miterlimit="10"/>
<path d="M702.111 131.287C705.326 131.287 707.933 128.683 707.933 125.469C707.933 122.256 705.326 119.651 702.111 119.651C698.895 119.651 696.288 122.256 696.288 125.469C696.288 128.683 698.895 131.287 702.111 131.287Z" fill="#F04B5D"/>
<path d="M719.577 131.611C722.793 131.611 725.4 129.006 725.4 125.793C725.4 122.58 722.793 119.975 719.577 119.975C716.362 119.975 713.755 122.58 713.755 125.793C713.755 129.006 716.362 131.611 719.577 131.611Z" fill="#F04B5D"/>
<path d="M737.044 131.934C740.26 131.934 742.867 129.329 742.867 126.116C742.867 122.903 740.26 120.298 737.044 120.298C733.829 120.298 731.222 122.903 731.222 126.116C731.222 129.329 733.829 131.934 737.044 131.934Z" fill="#F04B5D"/>
<path opacity="0.3" d="M1115.49 158.761H716.99V236.334H1115.49V158.761Z" fill="#F04B5D"/>
<path opacity="0.3" d="M716.99 236.334L1115.49 158.761" stroke="#F04B5D" stroke-width="2" stroke-miterlimit="10"/>
<path opacity="0.3" d="M1115.49 236.334L716.99 158.761" stroke="#F04B5D" stroke-width="2" stroke-miterlimit="10"/>
<path opacity="0.3" d="M812.087 285.463H716.99V410.226H812.087V285.463Z" fill="#F04B5D"/>
<path opacity="0.3" d="M1115.49 285.463H1020.4V410.226H1115.49V285.463Z" fill="#F04B5D"/>
<path opacity="0.3" d="M963.791 285.463H868.693V410.226H963.791V285.463Z" fill="#F04B5D"/>
<path opacity="0.3" d="M716.99 285.463L812.087 410.226" stroke="#F04B5D" stroke-width="2" stroke-miterlimit="10"/>
<path opacity="0.3" d="M812.087 285.463L716.99 410.226" stroke="#F04B5D" stroke-width="2" stroke-miterlimit="10"/>
<path opacity="0.3" d="M869.017 285.463L964.115 410.226" stroke="#F04B5D" stroke-width="2" stroke-miterlimit="10"/>
<path opacity="0.3" d="M964.115 285.463L869.017 410.226" stroke="#F04B5D" stroke-width="2" stroke-miterlimit="10"/>
<path opacity="0.3" d="M1020.4 285.463L1115.49 410.226" stroke="#F04B5D" stroke-width="2" stroke-miterlimit="10"/>
<path opacity="0.3" d="M1115.49 285.463L1020.4 410.226" stroke="#F04B5D" stroke-width="2" stroke-miterlimit="10"/>
<path d="M1168.54 158.761H770.037V236.334H1168.54V158.761Z" fill="#F04B5D"/>
<path d="M1133.61 315.199H1038.51V439.962H1133.61V315.199Z" fill="#F04B5D"/>
<path d="M1119.7 331.683H1052.42V339.441H1119.7V331.683Z" fill="#3F3D56"/>
<path d="M1119.7 348.491H1052.42V356.248H1119.7V348.491Z" fill="#3F3D56"/>
<path d="M1119.7 365.298H1052.42V373.055H1119.7V365.298Z" fill="#3F3D56"/>
<path d="M1119.7 382.106H1052.42V389.863H1119.7V382.106Z" fill="#3F3D56"/>
<path d="M1119.7 398.913H1052.42V406.67H1119.7V398.913Z" fill="#3F3D56"/>
<path d="M1119.7 415.72H1052.42V423.478H1119.7V415.72Z" fill="#3F3D56"/>
<path d="M835.377 302.271H740.279V427.033H835.377V302.271Z" fill="#F04B5D"/>
<path d="M821.468 343.966H754.188V351.723H821.468V343.966Z" fill="#3F3D56"/>
<path d="M821.468 360.773H754.188V368.53H821.468V360.773Z" fill="#3F3D56"/>
<path d="M821.468 377.581H754.188V385.338H821.468V377.581Z" fill="#3F3D56"/>
<path d="M622.197 234.445C630.569 234.445 637.356 227.663 637.356 219.297C637.356 210.931 630.569 204.149 622.197 204.149C613.825 204.149 607.038 210.931 607.038 219.297C607.038 227.663 613.825 234.445 622.197 234.445Z" fill="#2F2E41"/>
<path d="M614.216 229.382C614.216 229.382 614.444 238.732 613.531 238.96C612.618 239.188 626.084 242.837 626.084 242.837L627.453 230.066L614.216 229.382Z" fill="#A0616A"/>
<path d="M720.57 309.201C720.57 309.201 730.612 309.201 730.84 308.061C731.068 306.921 733.122 317.411 733.122 317.411L729.014 318.78C729.014 318.78 721.254 315.359 720.57 315.359C719.885 315.359 720.57 309.201 720.57 309.201Z" fill="#A0616A"/>
<path d="M731.525 313.306C731.525 313.306 729.699 307.149 727.416 306.921C727.416 306.921 735.176 301.904 735.404 300.307C735.633 298.711 738.371 294.606 739.512 295.974C740.654 297.342 740.654 319.008 738.6 321.288C736.546 323.569 727.416 318.083 727.416 318.083C727.416 318.083 733.122 315.587 731.525 313.306Z" fill="#2F2E41"/>
<path d="M607.597 400.652L605.772 410.458L614.216 411.827V400.652H607.597Z" fill="#A0616A"/>
<path d="M607.597 409.318C607.597 409.318 606.228 404.985 605.315 405.669C604.402 406.353 603.033 410.686 603.261 411.827C603.489 412.967 605.087 421.861 604.402 423.457C603.717 425.054 607.825 433.264 613.075 432.58C618.324 431.896 617.867 427.334 617.867 427.334L616.042 420.265L615.357 409.09C615.357 409.09 609.423 408.178 607.597 409.318Z" fill="#2F2E41"/>
<path d="M616.894 209.622C620.359 209.622 623.167 206.816 623.167 203.354C623.167 199.893 620.359 197.086 616.894 197.086C613.43 197.086 610.622 199.893 610.622 203.354C610.622 206.816 613.43 209.622 616.894 209.622Z" fill="#2F2E41"/>
<path d="M608.531 199.959C608.531 198.41 609.105 196.915 610.143 195.764C611.18 194.613 612.608 193.886 614.15 193.725C613.933 193.702 613.715 193.691 613.497 193.691C611.833 193.691 610.237 194.351 609.061 195.527C607.885 196.702 607.224 198.297 607.224 199.959C607.224 201.621 607.885 203.216 609.061 204.391C610.237 205.567 611.833 206.227 613.497 206.227C613.715 206.227 613.933 206.216 614.15 206.193C612.608 206.032 611.18 205.305 610.143 204.154C609.105 203.003 608.531 201.508 608.531 199.959Z" fill="#2F2E41"/>
<path d="M622.204 235.767C627.498 235.767 631.789 231.479 631.789 226.189C631.789 220.899 627.498 216.611 622.204 216.611C616.91 216.611 612.618 220.899 612.618 226.189C612.618 231.479 616.91 235.767 622.204 235.767Z" fill="#A0616A"/>
<path d="M619.984 225.317C619.984 225.317 619.045 225.727 618.127 225.745C617.212 225.762 616.013 225.146 616.013 225.146" stroke="#222224"/>
<path d="M629 225.01C629 225.01 628.098 225.499 627.186 225.594C626.276 225.69 625.029 225.178 625.029 225.178" stroke="#222224"/>
<path d="M603.261 292.781C603.261 292.781 603.717 304.184 605.543 310.114C607.369 316.043 613.952 358.271 612.582 361.464C611.213 364.657 604.174 399.968 605.771 402.02C607.369 404.073 614.901 403.388 614.901 403.388L625.135 360.552C625.135 360.552 623.117 313.306 640.006 312.166C656.894 311.026 684.51 310.342 684.51 310.342C684.51 310.342 702.311 315.587 710.299 315.359C718.287 315.131 722.852 317.411 722.852 317.411L724.221 308.061L688.846 300.307C688.846 300.307 656.438 289.132 638.636 292.097C620.834 295.062 603.261 292.781 603.261 292.781Z" fill="#2F2E41"/>
<path d="M616.042 235.995C616.042 235.995 613.303 234.399 612.618 235.995C611.934 237.592 607.141 238.96 605.315 237.592C603.489 236.223 598.925 238.048 598.925 238.048L593.904 252.872C593.904 252.872 596.414 265.643 598.696 272.712C600.979 279.782 601.892 294.378 600.979 295.746C600.066 297.114 619.237 302.588 628.594 299.167C637.951 295.746 640.005 291.869 640.005 291.869C640.005 291.869 629.735 277.274 633.159 270.432C636.582 263.59 633.843 255.836 633.843 255.836L635.213 248.082L627.453 243.749C627.453 243.749 626.997 239.644 625.171 239.644C623.345 239.644 616.042 235.995 616.042 235.995Z" fill="#D0CDE1"/>
<path d="M631.789 248.311H635.213C636.162 249.199 636.87 250.313 637.269 251.55C637.669 252.787 637.746 254.105 637.495 255.38C636.582 259.713 632.465 274.079 632.465 274.079L629.051 265.187L631.789 248.311Z" fill="#D0CDE1"/>
<path d="M641.62 284.935C641.62 284.935 648.45 292.325 643.429 296.202C638.408 300.079 637.171 287.308 637.171 287.308L641.62 284.935Z" fill="#A0616A"/>
<path d="M631.789 269.52L633.387 275.905L636.126 280.923C636.126 280.923 645.483 287.08 645.483 289.361C645.483 289.361 641.375 284.115 636.126 289.361L631.447 278.072L631.789 269.52Z" fill="#D0CDE1"/>
<path d="M623.961 222.354C629.735 222.354 634.415 219.547 634.415 216.086C634.415 212.624 629.735 209.818 623.961 209.818C618.187 209.818 613.506 212.624 613.506 216.086C613.506 219.547 618.187 222.354 623.961 222.354Z" fill="#2F2E41"/>
<path d="M603.261 216.611C603.261 216.611 610.564 212.506 613.531 215.47C616.498 218.435 604.63 222.996 604.63 222.996L603.261 216.611Z" fill="#A0616A"/>
<path d="M600.522 239.188L598.925 238.048C598.925 238.048 597.099 235.311 595.501 236.223C593.904 237.136 584.546 232.803 584.546 232.803C584.546 232.803 587.97 234.399 587.97 231.662C587.97 228.926 588.426 229.382 590.708 229.382C592.991 229.382 592.991 230.522 593.904 228.926C594.816 227.329 594.36 226.417 595.958 227.329C597.555 228.242 599.381 227.557 599.838 226.873C600.294 226.189 608.51 225.049 608.51 225.049C608.51 225.049 605.315 215.698 604.63 215.014C603.946 214.33 586.372 222.084 586.372 222.084C586.372 222.084 564.234 228.242 569.94 235.311C575.646 242.381 596.186 253.1 596.186 253.1L600.522 239.188Z" fill="#D0CDE1"/>
<path d="M942.766 333.3H847.668V458.062H942.766V333.3Z" fill="#F04B5D"/>
<path d="M932.739 404.731H857.696V409.902H932.739V404.731Z" fill="#3F3D56"/>
<path d="M932.739 418.953H857.696V424.124H932.739V418.953Z" fill="#3F3D56"/>
<path d="M932.739 433.174H857.696V438.346H932.739V433.174Z" fill="#3F3D56"/>
<path d="M738.903 468.685C738.903 478.111 733.296 481.402 726.378 481.402C726.218 481.402 726.058 481.4 725.898 481.397C725.578 481.39 725.26 481.375 724.947 481.353C718.704 480.912 713.854 477.451 713.854 468.685C713.854 459.613 725.455 448.166 726.326 447.319L726.328 447.318C726.362 447.285 726.378 447.269 726.378 447.269C726.378 447.269 738.903 459.26 738.903 468.685Z" fill="#F04B5D"/>
<path d="M725.922 479.96L730.503 473.564L725.911 480.662L725.898 481.397C725.578 481.39 725.26 481.375 724.947 481.353L725.44 471.923L725.437 471.85L725.445 471.836L725.492 470.945L720.888 463.83L725.506 470.278L725.517 470.467L725.89 463.342L721.949 455.988L725.938 462.091L726.326 447.319L726.328 447.269V447.318L726.263 458.966L730.187 454.348L726.247 459.97L726.143 466.349L729.807 460.227L726.128 467.288L726.07 470.834L731.389 462.313L726.05 472.072L725.922 479.96Z" fill="#3F3D56"/>
</svg>
