<svg width="1209" height="357" viewBox="0 0 1209 357" fill="none" xmlns="http://www.w3.org/2000/svg">
<path d="M671.7 135H678V124.92H687.36V135H693.66V109.26H687.36V119.556H678V109.26H671.7V135ZM696.861 129.78C696.861 132.984 699.345 135.432 702.909 135.432C705.033 135.432 707.193 134.46 708.417 132.732H708.489C708.489 132.732 708.417 133.272 708.417 133.884V135H714.105V123.588C714.105 118.872 710.937 116.028 705.825 116.028C702.801 116.028 699.561 117.216 697.977 118.44L700.137 122.832C701.613 121.86 703.449 121.068 705.249 121.068C706.617 121.068 707.877 121.572 707.877 123.12V123.444H707.337C702.765 123.444 696.861 124.812 696.861 129.78ZM703.017 129.204C703.017 127.512 705.465 127.008 707.373 127.008H707.949V127.512C707.949 129.024 706.581 130.788 704.781 130.788C703.629 130.788 703.017 130.068 703.017 129.204ZM727.057 135H733.285V121.68H738.793V135H745.021V116.46H727.057V135ZM749.205 142.2H755.433V135.252C755.433 134.316 755.361 133.668 755.361 133.668H755.433C756.765 134.82 758.421 135.432 760.149 135.432C765.081 135.432 768.789 131.616 768.789 125.748C768.789 119.988 765.477 116.028 760.437 116.028C758.205 116.028 756.081 116.892 754.821 118.584H754.749C754.749 118.584 754.821 118.008 754.821 117.396V116.46H749.205V142.2ZM755.253 125.856C755.253 122.652 757.017 121.284 758.889 121.284C761.049 121.284 762.525 123.084 762.525 125.856C762.525 128.7 760.833 130.284 758.889 130.284C756.441 130.284 755.253 128.088 755.253 125.856ZM770.942 125.784C770.942 131.58 775.622 135.432 781.454 135.432C787.286 135.432 791.966 131.58 791.966 125.784C791.966 119.952 787.286 116.028 781.418 116.028C775.622 116.028 770.942 119.952 770.942 125.784ZM777.242 125.784C777.242 122.976 779.186 121.212 781.454 121.212C783.722 121.212 785.666 122.976 785.666 125.784C785.666 128.556 783.722 130.248 781.454 130.248C779.186 130.248 777.242 128.556 777.242 125.784ZM794.256 123.912C794.256 130.716 797.604 135.432 804.3 135.432C810.168 135.432 813.876 131.544 813.876 126.432C813.876 121.464 810.852 117.936 805.884 117.936C804.264 117.936 802.032 118.368 800.448 119.7H800.376C800.484 117.036 803.004 116.028 805.38 115.236L812.364 113.004L810.6 108L804.588 110.016C797.352 112.5 794.256 116.352 794.256 123.912ZM800.448 126.54C800.448 124.128 802.104 122.616 804.048 122.616C805.992 122.616 807.648 124.128 807.648 126.54C807.648 128.916 805.992 130.356 804.048 130.356C802.104 130.356 800.448 128.916 800.448 126.54ZM817.127 135H823.355V128.232H829.079V135H835.307V116.46H829.079V123.012H823.355V116.46H817.127V135ZM838.442 125.784C838.442 131.58 843.122 135.432 848.954 135.432C854.786 135.432 859.466 131.58 859.466 125.784C859.466 119.952 854.786 116.028 848.918 116.028C843.122 116.028 838.442 119.952 838.442 125.784ZM844.742 125.784C844.742 122.976 846.686 121.212 848.954 121.212C851.222 121.212 853.166 122.976 853.166 125.784C853.166 128.556 851.222 130.248 848.954 130.248C846.686 130.248 844.742 128.556 844.742 125.784ZM861.792 135H867.732L868.164 126.468C868.236 125.028 868.128 123.3 868.128 123.3H868.2C868.2 123.3 868.884 124.848 869.28 126.036L871.728 132.516H876.768L879.216 126.036C879.684 124.884 880.224 123.3 880.224 123.3H880.296C880.296 123.3 880.224 125.028 880.26 126.468L880.692 135H886.668L884.904 116.46H877.74L875.004 124.596C874.68 125.532 874.248 126.756 874.248 126.756H874.212C874.212 126.756 873.816 125.532 873.492 124.596L870.756 116.46H863.556L861.792 135ZM899.221 136.692L897.241 141.264C897.241 141.264 899.113 142.56 901.561 142.56C904.513 142.56 907.753 141.12 909.301 136.98L916.897 116.46H910.093L907.753 125.1C907.501 126.108 907.141 127.872 907.141 127.872H907.069C907.069 127.872 906.709 126 906.385 124.992L903.649 116.46H896.593L904.477 134.64L904.117 135.504C903.469 137.088 902.137 137.376 901.129 137.376C900.229 137.376 899.221 136.692 899.221 136.692ZM919.221 142.2H925.449V135.252C925.449 134.316 925.377 133.668 925.377 133.668H925.449C926.781 134.82 928.437 135.432 930.165 135.432C935.097 135.432 938.805 131.616 938.805 125.748C938.805 119.988 935.493 116.028 930.453 116.028C928.221 116.028 926.097 116.892 924.837 118.584H924.765C924.765 118.584 924.837 118.008 924.837 117.396V116.46H919.221V142.2ZM925.269 125.856C925.269 122.652 927.033 121.284 928.905 121.284C931.065 121.284 932.541 123.084 932.541 125.856C932.541 128.7 930.849 130.284 928.905 130.284C926.457 130.284 925.269 128.088 925.269 125.856ZM940.958 125.784C940.958 131.58 945.638 135.432 951.47 135.432C957.302 135.432 961.982 131.58 961.982 125.784C961.982 119.952 957.302 116.028 951.434 116.028C945.638 116.028 940.958 119.952 940.958 125.784ZM947.258 125.784C947.258 122.976 949.202 121.212 951.47 121.212C953.738 121.212 955.682 122.976 955.682 125.784C955.682 128.556 953.738 130.248 951.47 130.248C949.202 130.248 947.258 128.556 947.258 125.784ZM965.1 135H971.328V128.196H973.272L977.196 135H984.288L978.096 125.352V125.28L983.532 116.46H976.764L973.092 122.976H971.328V116.46H965.1V135ZM984.552 125.712C984.552 130.644 988.116 135.432 994.74 135.432C997.584 135.432 1000.64 134.46 1002.66 132.732L1000.36 128.376C998.844 129.384 997.08 130.248 995.244 130.248C993.264 130.248 991.392 129.204 990.924 126.936H1002.62C1002.7 126.288 1002.77 125.64 1002.77 124.992C1002.77 119.844 999.672 116.028 994.2 116.028C988.224 116.028 984.552 120.276 984.552 125.712ZM991.068 123.372C991.392 121.896 992.256 120.6 994.056 120.6C995.64 120.6 996.612 121.86 996.612 123.372H991.068Z" fill="#F04B5D"/>
<path d="M670.044 167.784C670.044 173.58 674.724 177.432 680.556 177.432C686.388 177.432 691.068 173.58 691.068 167.784C691.068 161.952 686.388 158.028 680.52 158.028C674.724 158.028 670.044 161.952 670.044 167.784ZM676.344 167.784C676.344 164.976 678.288 163.212 680.556 163.212C682.824 163.212 684.768 164.976 684.768 167.784C684.768 170.556 682.824 172.248 680.556 172.248C678.288 172.248 676.344 170.556 676.344 167.784ZM694.186 177H700.414V163.68H705.922V177H712.15V158.46H694.186V177ZM716.334 184.2H722.562V177.252C722.562 176.316 722.49 175.668 722.49 175.668H722.562C723.894 176.82 725.55 177.432 727.278 177.432C732.21 177.432 735.918 173.616 735.918 167.748C735.918 161.988 732.606 158.028 727.566 158.028C725.334 158.028 723.21 158.892 721.95 160.584H721.878C721.878 160.584 721.95 160.008 721.95 159.396V158.46H716.334V184.2ZM722.382 167.856C722.382 164.652 724.146 163.284 726.018 163.284C728.178 163.284 729.654 165.084 729.654 167.856C729.654 170.7 727.962 172.284 726.018 172.284C723.57 172.284 722.382 170.088 722.382 167.856ZM738.071 167.712C738.071 172.644 741.635 177.432 748.259 177.432C751.103 177.432 754.163 176.46 756.179 174.732L753.875 170.376C752.363 171.384 750.599 172.248 748.763 172.248C746.783 172.248 744.911 171.204 744.443 168.936H756.143C756.215 168.288 756.287 167.64 756.287 166.992C756.287 161.844 753.191 158.028 747.719 158.028C741.743 158.028 738.071 162.276 738.071 167.712ZM744.587 165.372C744.911 163.896 745.775 162.6 747.575 162.6C749.159 162.6 750.131 163.86 750.131 165.372H744.587ZM766.241 172.068C767.537 169.584 767.896 166.884 767.896 164.076V163.392H771.101V172.068H766.241ZM757.817 172.068V181.32H763.577V177H774.449V181.32H779.993V172.068H777.329V158.46H762.029V162.924C762.029 166.668 761.345 169.98 760.121 172.068H757.817ZM781.595 167.712C781.595 172.644 785.159 177.432 791.783 177.432C794.627 177.432 797.687 176.46 799.703 174.732L797.399 170.376C795.887 171.384 794.123 172.248 792.287 172.248C790.307 172.248 788.435 171.204 787.967 168.936H799.667C799.739 168.288 799.811 167.64 799.811 166.992C799.811 161.844 796.715 158.028 791.243 158.028C785.267 158.028 781.595 162.276 781.595 167.712ZM788.111 165.372C788.435 163.896 789.299 162.6 791.099 162.6C792.683 162.6 793.655 163.86 793.655 165.372H788.111ZM801.556 177.18C808.756 177.18 810.916 171.996 810.916 164.436V163.392H814.012V177H820.24V158.46H805.048V164.4C805.048 170.772 803.212 171.528 801.556 171.744V177.18ZM824.404 177H830.452L835.6 168.864C835.888 168.36 836.284 167.784 836.608 167.028H836.68C836.608 167.748 836.608 168.468 836.608 168.9V177H842.476V158.46H836.428L831.28 166.632C830.956 167.172 830.596 167.712 830.272 168.468H830.2C830.236 168 830.272 167.28 830.272 166.632V158.46H824.404V177ZM845.866 177H851.806L852.238 168.468C852.31 167.028 852.202 165.3 852.202 165.3H852.274C852.274 165.3 852.958 166.848 853.354 168.036L855.802 174.516H860.842L863.29 168.036C863.758 166.884 864.298 165.3 864.298 165.3H864.37C864.37 165.3 864.298 167.028 864.334 168.468L864.766 177H870.742L868.978 158.46H861.814L859.078 166.596C858.754 167.532 858.322 168.756 858.322 168.756H858.286C858.286 168.756 857.89 167.532 857.566 166.596L854.83 158.46H847.63L845.866 177ZM883.295 178.692L881.315 183.264C881.315 183.264 883.187 184.56 885.635 184.56C888.587 184.56 891.827 183.12 893.375 178.98L900.971 158.46H894.167L891.827 167.1C891.575 168.108 891.215 169.872 891.215 169.872H891.143C891.143 169.872 890.783 168 890.459 166.992L887.723 158.46H880.667L888.551 176.64L888.191 177.504C887.543 179.088 886.211 179.376 885.203 179.376C884.303 179.376 883.295 178.692 883.295 178.692ZM903.295 184.2H909.523V177.252C909.523 176.316 909.451 175.668 909.451 175.668H909.523C910.855 176.82 912.511 177.432 914.239 177.432C919.171 177.432 922.879 173.616 922.879 167.748C922.879 161.988 919.567 158.028 914.527 158.028C912.295 158.028 910.171 158.892 908.911 160.584H908.839C908.839 160.584 908.911 160.008 908.911 159.396V158.46H903.295V184.2ZM909.343 167.856C909.343 164.652 911.107 163.284 912.979 163.284C915.139 163.284 916.615 165.084 916.615 167.856C916.615 170.7 914.923 172.284 912.979 172.284C910.531 172.284 909.343 170.088 909.343 167.856ZM925.032 167.784C925.032 173.58 929.712 177.432 935.544 177.432C941.376 177.432 946.056 173.58 946.056 167.784C946.056 161.952 941.376 158.028 935.508 158.028C929.712 158.028 925.032 161.952 925.032 167.784ZM931.332 167.784C931.332 164.976 933.276 163.212 935.544 163.212C937.812 163.212 939.756 164.976 939.756 167.784C939.756 170.556 937.812 172.248 935.544 172.248C933.276 172.248 931.332 170.556 931.332 167.784ZM949.174 177H959.29C962.962 177 966.346 175.56 966.346 171.492C966.346 169.872 965.554 168.036 963.43 167.388V167.352C964.834 166.524 965.59 164.868 965.59 163.32C965.59 160.116 962.998 158.46 959.29 158.46H949.174V177ZM955.402 165.768V162.312H957.67C958.894 162.312 959.398 163.068 959.398 163.932C959.398 164.904 958.894 165.768 957.742 165.768H955.402ZM955.402 173.112V169.404H958.174C959.506 169.404 960.118 170.268 960.118 171.276C960.118 172.212 959.47 173.112 958.138 173.112H955.402ZM968.521 167.712C968.521 172.644 972.085 177.432 978.709 177.432C981.553 177.432 984.613 176.46 986.629 174.732L984.325 170.376C982.813 171.384 981.049 172.248 979.213 172.248C977.233 172.248 975.361 171.204 974.893 168.936H986.593C986.665 168.288 986.737 167.64 986.737 166.992C986.737 161.844 983.641 158.028 978.169 158.028C972.193 158.028 968.521 162.276 968.521 167.712ZM975.037 165.372C975.361 163.896 976.225 162.6 978.025 162.6C979.609 162.6 980.581 163.86 980.581 165.372H975.037ZM989.99 177H996.218V170.232H1001.94V177H1008.17V158.46H1001.94V165.012H996.218V158.46H989.99V177ZM1012.35 177H1021.6C1026.79 177 1028.95 174.444 1028.95 170.664C1028.95 166.92 1026.79 164.256 1021.6 164.256H1018.58V158.46H1012.35V177ZM1018.58 172.932V168.288H1020.34C1021.93 168.288 1022.72 169.332 1022.72 170.628C1022.72 171.924 1021.93 172.932 1020.45 172.932H1018.58ZM1040.69 177H1046.73L1051.88 168.864C1052.17 168.36 1052.57 167.784 1052.89 167.028H1052.96C1052.89 167.748 1052.89 168.468 1052.89 168.9V177H1058.76V158.46H1052.71L1047.56 166.632C1047.24 167.172 1046.88 167.712 1046.55 168.468H1046.48C1046.52 168 1046.55 167.28 1046.55 166.632V158.46H1040.69V177ZM1072.12 178.692L1070.14 183.264C1070.14 183.264 1072.01 184.56 1074.46 184.56C1077.41 184.56 1080.65 183.12 1082.2 178.98L1089.8 158.46H1082.99L1080.65 167.1C1080.4 168.108 1080.04 169.872 1080.04 169.872H1079.97C1079.97 169.872 1079.61 168 1079.28 166.992L1076.55 158.46H1069.49L1077.38 176.64L1077.02 177.504C1076.37 179.088 1075.04 179.376 1074.03 179.376C1073.13 179.376 1072.12 178.692 1072.12 178.692ZM1097.45 171.312C1099.72 171.312 1101.37 170.808 1102.42 170.34H1102.49C1102.49 170.34 1102.45 170.808 1102.45 171.204V177H1108.68V158.46H1102.45V165.336C1101.84 165.768 1100.9 166.236 1099.64 166.236C1098.1 166.236 1097.27 165.336 1097.27 163.752V158.46H1091.15V164.94C1091.15 169.8 1094.46 171.312 1097.45 171.312ZM1116.93 177H1123.16V163.68H1128.81V158.46H1111.31V163.68H1116.93V177ZM1130.17 167.712C1130.17 172.644 1133.73 177.432 1140.36 177.432C1143.2 177.432 1146.26 176.46 1148.28 174.732L1145.97 170.376C1144.46 171.384 1142.7 172.248 1140.86 172.248C1138.88 172.248 1137.01 171.204 1136.54 168.936H1148.24C1148.31 168.288 1148.39 167.64 1148.39 166.992C1148.39 161.844 1145.29 158.028 1139.82 158.028C1133.84 158.028 1130.17 162.276 1130.17 167.712ZM1136.69 165.372C1137.01 163.896 1137.87 162.6 1139.67 162.6C1141.26 162.6 1142.23 163.86 1142.23 165.372H1136.69ZM1150.85 177H1156.79L1157.22 168.468C1157.29 167.028 1157.18 165.3 1157.18 165.3H1157.25C1157.25 165.3 1157.94 166.848 1158.33 168.036L1160.78 174.516H1165.82L1168.27 168.036C1168.74 166.884 1169.28 165.3 1169.28 165.3H1169.35C1169.35 165.3 1169.28 167.028 1169.31 168.468L1169.75 177H1175.72L1173.96 158.46H1166.79L1164.06 166.596C1163.73 167.532 1163.3 168.756 1163.3 168.756H1163.27C1163.27 168.756 1162.87 167.532 1162.55 166.596L1159.81 158.46H1152.61L1150.85 177ZM671.088 219H681.204C684.876 219 688.26 217.56 688.26 213.492C688.26 211.872 687.468 210.036 685.344 209.388V209.352C686.748 208.524 687.504 206.868 687.504 205.32C687.504 202.116 684.912 200.46 681.204 200.46H671.088V219ZM677.316 207.768V204.312H679.584C680.808 204.312 681.312 205.068 681.312 205.932C681.312 206.904 680.808 207.768 679.656 207.768H677.316ZM677.316 215.112V211.404H680.088C681.42 211.404 682.032 212.268 682.032 213.276C682.032 214.212 681.384 215.112 680.052 215.112H677.316ZM690.147 213.78C690.147 216.984 692.631 219.432 696.195 219.432C698.319 219.432 700.479 218.46 701.703 216.732H701.775C701.775 216.732 701.703 217.272 701.703 217.884V219H707.391V207.588C707.391 202.872 704.223 200.028 699.111 200.028C696.087 200.028 692.847 201.216 691.263 202.44L693.423 206.832C694.899 205.86 696.735 205.068 698.535 205.068C699.903 205.068 701.163 205.572 701.163 207.12V207.444H700.623C696.051 207.444 690.147 208.812 690.147 213.78ZM696.303 213.204C696.303 211.512 698.751 211.008 700.659 211.008H701.235V211.512C701.235 213.024 699.867 214.788 698.067 214.788C696.915 214.788 696.303 214.068 696.303 213.204ZM711.342 219H737.298V200.46H731.43V213.78H727.254V200.46H721.386V213.78H717.21V200.46H711.342V219ZM741.471 219H747.519L752.667 210.864C752.955 210.36 753.351 209.784 753.675 209.028H753.747C753.675 209.748 753.675 210.468 753.675 210.9V219H759.543V200.46H753.495L748.347 208.632C748.023 209.172 747.663 209.712 747.339 210.468H747.267C747.303 210 747.339 209.28 747.339 208.632V200.46H741.471V219ZM772.725 219H778.953V205.68H784.461V219H790.689V200.46H772.725V219ZM793.829 209.784C793.829 215.58 798.509 219.432 804.341 219.432C810.173 219.432 814.853 215.58 814.853 209.784C814.853 203.952 810.173 200.028 804.305 200.028C798.509 200.028 793.829 203.952 793.829 209.784ZM800.129 209.784C800.129 206.976 802.073 205.212 804.341 205.212C806.609 205.212 808.553 206.976 808.553 209.784C808.553 212.556 806.609 214.248 804.341 214.248C802.073 214.248 800.129 212.556 800.129 209.784ZM815.607 219H822.339L825.651 212.268H827.487V219H833.283V212.268H835.155L838.467 219H845.199L839.979 209.424V209.352L844.803 200.46H838.395L834.975 207.048H833.283V200.46H827.487V207.048H825.831L822.411 200.46H816.003L820.827 209.352V209.424L815.607 219ZM845.966 209.712C845.966 214.644 849.53 219.432 856.154 219.432C858.998 219.432 862.058 218.46 864.074 216.732L861.77 212.376C860.258 213.384 858.494 214.248 856.658 214.248C854.678 214.248 852.806 213.204 852.338 210.936H864.038C864.11 210.288 864.182 209.64 864.182 208.992C864.182 203.844 861.086 200.028 855.614 200.028C849.638 200.028 845.966 204.276 845.966 209.712ZM852.482 207.372C852.806 205.896 853.67 204.6 855.47 204.6C857.054 204.6 858.026 205.86 858.026 207.372H852.482ZM865.927 219.18C873.127 219.18 875.287 213.996 875.287 206.436V205.392H878.383V219H884.611V200.46H869.419V206.4C869.419 212.772 867.583 213.528 865.927 213.744V219.18ZM887.444 213.78C887.444 216.984 889.928 219.432 893.492 219.432C895.616 219.432 897.776 218.46 899 216.732H899.072C899.072 216.732 899 217.272 899 217.884V219H904.688V207.588C904.688 202.872 901.52 200.028 896.408 200.028C893.384 200.028 890.144 201.216 888.56 202.44L890.72 206.832C892.196 205.86 894.032 205.068 895.832 205.068C897.2 205.068 898.46 205.572 898.46 207.12V207.444H897.92C893.348 207.444 887.444 208.812 887.444 213.78ZM893.6 213.204C893.6 211.512 896.048 211.008 897.956 211.008H898.532V211.512C898.532 213.024 897.164 214.788 895.364 214.788C894.212 214.788 893.6 214.068 893.6 213.204ZM908.639 219H914.867V212.232H920.591V219H926.819V200.46H920.591V207.012H914.867V200.46H908.639V219ZM930.998 219H937.046L942.194 210.864C942.482 210.36 942.878 209.784 943.202 209.028H943.274C943.202 209.748 943.202 210.468 943.202 210.9V219H949.07V200.46H943.022L937.874 208.632C937.55 209.172 937.19 209.712 936.866 210.468H936.794C936.83 210 936.866 209.28 936.866 208.632V200.46H930.998V219ZM951.488 219H958.076L961.64 213.348H962.936V219H969.164V200.46H959.444C955.34 200.46 952.748 202.836 952.748 206.724C952.748 209.1 954.08 211.224 956.096 212.232V212.268C956.096 212.268 955.736 212.628 955.232 213.384L951.488 219ZM961.46 209.208C959.984 209.208 958.94 208.452 958.94 206.688C958.94 204.96 959.984 204.312 961.424 204.312H962.936V209.208H961.46Z" fill="#222224"/>
<g clip-path="url(#clip0)">
<path d="M66.1124 328.042L65.109 327.666C64.8885 327.583 42.9438 319.176 32.6639 300.115C22.3836 281.053 27.4174 258.102 27.4695 257.873L27.7064 256.828L28.7093 257.204C28.9298 257.287 50.8741 265.693 61.1544 284.754C71.4347 303.817 66.4009 326.768 66.3489 326.997L66.1124 328.042ZM34.3101 299.228C43.0013 315.344 60.3428 323.605 64.7365 325.491C65.5719 320.783 68.1918 301.743 59.5083 285.642C50.8257 269.543 33.4774 261.269 29.0818 259.378C28.246 264.089 25.6271 283.128 34.3101 299.228Z" fill="#3F3D56"/>
<path d="M41.312 295.012C59.7862 306.125 66.9013 328.198 66.9013 328.198C66.9013 328.198 44.0636 332.254 25.5893 321.141C7.11501 310.028 0 287.955 0 287.955C0 287.955 22.8377 283.899 41.312 295.012Z" fill="#F04B5D"/>
<path d="M153.111 301.843C153.111 331.139 131.308 329.553 104.413 329.553C77.5185 329.553 55.716 331.139 55.716 301.843C55.716 272.548 77.5185 223.465 104.413 223.465C131.308 223.465 153.111 272.548 153.111 301.843Z" fill="#3F3D56"/>
<path d="M587.824 328.761H24.0429V330.345H587.824V328.761Z" fill="#3F3D56"/>
<path d="M267.627 59.9325C267.601 59.8494 267.573 59.7652 267.547 59.6819C267.559 59.7184 267.573 59.7536 267.584 59.7902L267.627 59.9325Z" fill="#2F2E41"/>
<path d="M177.559 255.039L160.931 270.873L147.47 256.622L168.057 246.33L177.559 255.039Z" fill="#A0616A"/>
<path d="M156.129 258.167C156.129 258.167 176.274 256.851 173.919 262.731C171.565 268.611 176.556 290.224 176.556 290.224C176.556 290.224 184.041 329.039 160.373 313.594C136.706 298.148 141.856 287.418 141.856 287.418C141.856 287.418 134.949 276.978 136.421 273.303C137.892 269.628 149.588 255.515 151.829 257.282C152.407 257.792 153.107 258.142 153.862 258.297C154.616 258.452 155.398 258.408 156.129 258.167Z" fill="#2F2E41"/>
<path d="M149.053 192.494C149.053 192.494 237.738 185.369 244.864 203.578C251.991 221.787 237.738 235.246 237.738 235.246L179.935 263.748L161.498 247.258L172.016 237.621C172.016 237.621 112.629 248.705 111.046 239.997C109.462 231.288 117.38 185.369 149.053 192.494Z" fill="#2F2E41"/>
<path d="M251.991 208.329C251.991 208.329 267.827 252.664 251.991 250.289C236.154 247.914 237.738 212.287 237.738 212.287L251.991 208.329Z" fill="#A0616A"/>
<path d="M216.755 117.679C216.755 117.679 226.652 122.825 225.069 129.158C223.485 135.492 231.403 175.077 231.403 175.077L255.158 209.912L235.362 217.037C235.362 217.037 210.024 200.412 206.065 188.536C202.106 176.661 196.563 158.451 196.563 158.451L216.755 117.679Z" fill="#D0CDE1"/>
<path d="M211.608 99.0737C226.039 99.0737 237.738 87.3766 237.738 72.9475C237.738 58.5184 226.039 46.8213 211.608 46.8213C197.176 46.8213 185.477 58.5184 185.477 72.9475C185.477 87.3766 197.176 99.0737 211.608 99.0737Z" fill="#A0616A"/>
<path d="M225.055 76.5709C225.055 76.5709 227.908 77.5453 229.959 77.1608C231.57 76.8587 232.733 75.6417 232.733 75.6417" stroke="#222224" stroke-width="1.5"/>
<path d="M213.587 91.5524C213.587 91.5524 210.42 117.679 212.004 127.971C213.587 138.263 180.33 90.7607 180.33 90.7607C180.33 90.7607 194.583 80.4686 194.583 76.5101C194.583 72.5516 213.587 91.5524 213.587 91.5524Z" fill="#A0616A"/>
<path d="M243.225 62.8973C240.686 62.5949 238.12 62.6126 235.586 62.9502C233.028 63.3026 230.697 64.6052 229.057 66.5986C227.249 69.0177 226.649 72.6922 223.817 73.7412C222.129 74.3663 220.176 73.7715 218.487 74.3935C216.46 75.1402 215.43 77.3811 214.891 79.4728C214.352 81.5645 214.039 83.8297 212.659 85.4914C211.279 87.1532 208.307 87.7116 207.085 85.9304C207.311 84.0196 207.213 82.0843 206.795 80.2061C206.575 79.2684 206.126 78.4 205.487 77.6792C204.849 76.9585 204.04 76.4081 203.136 76.0778C200.024 75.1767 197.127 77.8799 195.032 80.3502C192.937 82.8205 190.131 85.5754 186.985 84.8023C183.684 83.991 182.557 79.9304 182.193 76.5509C181.365 68.8518 181.488 60.6764 185.212 53.887C190.602 44.0605 202.905 39.2916 214.008 40.8323C225.11 42.3731 234.91 49.3027 242.072 57.9236C243.237 59.3249 244.383 60.8645 244.632 62.669" fill="#2F2E41"/>
<path d="M209.628 122.429L200.918 113.72L185.873 83.6355L145.49 96.3027C145.49 96.3027 131.237 100.261 122.527 125.596C122.527 125.596 70.2666 192.89 78.9767 203.974C87.6868 215.058 89.2704 214.266 103.523 205.558C112.465 200.174 122.04 195.919 132.029 192.89L170.037 196.849L193 168.348C193 168.348 227.048 146.18 221.505 120.846L212.004 108.178L209.628 122.429Z" fill="#575A89"/>
<path d="M203.689 201.995L208.44 205.162C208.44 205.162 234.571 237.621 221.901 243.955C209.232 250.289 196.563 212.287 196.563 212.287L203.689 201.995Z" fill="#A0616A"/>
<path d="M167.782 97.1816C168.726 97.2522 169.645 97.5191 170.48 97.9651C171.314 98.4111 172.047 99.0265 172.63 99.7718C175.772 103.768 180.454 113.168 173.6 129.158C168.04 141.964 163.537 155.203 160.139 168.743C160.139 168.743 164.098 167.952 164.098 171.118C164.098 174.285 160.931 172.702 164.098 174.285C167.265 175.869 166.474 173.494 167.265 175.869C168.092 178.349 167.192 178.239 169.074 179.146C170.966 180.19 172.615 181.624 173.912 183.351C174.268 183.825 174.697 184.239 175.184 184.577L204.481 199.62C204.481 199.62 208.44 215.454 196.563 215.454C196.563 215.454 123.715 194.87 125.299 179.036C126.847 163.555 129.909 94.3465 167.782 97.1816Z" fill="#D0CDE1"/>
<path d="M152.221 296.999V317.584L130.05 316L134.801 295.416L152.221 296.999Z" fill="#A0616A"/>
<path d="M136.384 306.5C136.384 306.5 154.596 297.791 154.596 304.125C154.596 310.458 167.265 328.667 167.265 328.667C167.265 328.667 188.645 361.919 160.931 356.377C133.217 350.835 134.009 338.96 134.009 338.96C134.009 338.96 123.715 331.834 123.715 327.876C123.715 323.917 129.326 306.469 132.063 307.276C132.788 307.535 133.569 307.599 134.327 307.463C135.085 307.327 135.794 306.995 136.384 306.5Z" fill="#2F2E41"/>
<path d="M114.213 194.078C114.213 194.078 170.433 181.411 168.057 201.995C165.682 222.579 163.306 234.455 163.306 234.455L153.804 301.749L131.633 299.374L130.049 286.707C130.049 286.707 125.299 281.957 127.674 278.79C130.049 275.623 123.715 244.747 123.715 244.747C123.715 244.747 85.7072 252.664 82.5399 229.704C79.3726 206.745 87.2908 199.62 87.2908 199.62L114.213 194.078Z" fill="#2F2E41"/>
<path d="M473.218 99.3401H331.381V100.934H473.218V99.3401Z" fill="#3F3D56"/>
<path d="M473.218 110.494H331.381V112.088H473.218V110.494Z" fill="#3F3D56"/>
<path d="M473.218 121.648H331.381V123.242H473.218V121.648Z" fill="#3F3D56"/>
<g clip-path="url(#clip1)">
<path d="M359.992 58.8668H356.725V53.1501L351.009 60.5001H354.275L353.459 67.0335L359.992 58.8668Z" fill="#DC691D"/>
<path d="M342.077 76.4643C338.591 76.4643 335.926 75.4419 334.625 73.3251C331.389 68.0576 338.024 58.2984 349.729 51.1068C361.434 43.9136 373.139 42.4077 376.375 47.6752C379.611 52.9427 372.976 62.7019 361.271 69.8934V69.8943C354.269 74.1965 347.266 76.4643 342.077 76.4643ZM369.022 46.1676C364.161 46.1676 357.251 48.402 350.584 52.4984C340.023 58.986 333.352 68.1327 336.016 72.47C338.681 76.8074 349.854 74.9903 360.416 68.5019C370.977 62.0142 377.648 52.8676 374.983 48.5303C374.001 46.9312 371.861 46.1676 369.022 46.1676Z" fill="#488DD7"/>
<path d="M368.924 76.4642C363.735 76.4642 356.732 74.1963 349.729 69.8941C344.247 66.5253 339.65 62.4265 336.785 58.3538C333.784 54.0851 333.017 50.2933 334.625 47.6751C335.187 46.7588 336.028 46.0262 337.122 45.497L337.796 45.1712L338.179 45.8131C338.479 46.3161 339.001 46.6167 339.575 46.6167C340.381 46.6167 341.056 46.0352 341.18 45.234L341.286 44.544L341.985 44.5415C342.002 44.5415 342.02 44.5415 342.037 44.5415C347.391 44.5415 354.575 46.9931 361.271 51.1067C366.753 54.4746 371.35 58.5735 374.215 62.6462C377.216 66.9149 377.983 70.7067 376.375 73.3249C375.075 75.4409 372.408 76.4642 368.924 76.4642ZM337.266 47.2847C336.733 47.6277 336.314 48.045 336.017 48.5293C334.79 50.5277 335.557 53.7658 338.121 57.4138C340.861 61.3093 345.286 65.2473 350.584 68.5017C361.145 74.9893 372.32 76.808 374.984 72.469C376.211 70.4707 375.444 67.2326 372.88 63.5845C370.14 59.689 365.714 55.7511 360.417 52.4975C354.206 48.6812 347.609 46.3504 342.607 46.1838C342.127 47.4154 340.946 48.25 339.575 48.25C338.691 48.25 337.87 47.8988 337.266 47.2847Z" fill="#DDAF08"/>
<path d="M355.5 85C349.318 85 344.475 74.238 344.475 60.5C344.475 46.762 349.318 36 355.5 36C361.683 36 366.525 46.762 366.525 60.5C366.525 67.7267 365.136 74.5279 362.714 79.1608L362.326 79.9024L361.594 79.4973C360.467 78.8734 359.175 79.7521 359.175 80.9167C359.175 81.3577 359.35 81.7717 359.669 82.0829L360.299 82.7011L359.634 83.2817C358.329 84.4218 356.939 85 355.5 85ZM355.5 37.6333C350.41 37.6333 346.109 48.1046 346.109 60.5C346.109 72.8954 350.41 83.3667 355.5 83.3667C356.328 83.3667 357.153 83.0816 357.963 82.5198C357.688 82.0355 357.542 81.4875 357.542 80.9167C357.542 79.1151 359.007 77.65 360.809 77.65C361.074 77.65 361.336 77.6835 361.594 77.7496C363.695 73.365 364.892 67.1338 364.892 60.5C364.892 48.1046 360.591 37.6333 355.5 37.6333Z" fill="#EC2827"/>
<path d="M339.575 48.2499C337.774 48.2499 336.309 46.7848 336.309 44.9832C336.309 43.1817 337.774 41.7166 339.575 41.7166C341.377 41.7166 342.842 43.1817 342.842 44.9832C342.842 46.7848 341.376 48.2499 339.575 48.2499ZM339.575 43.3499C338.675 43.3499 337.942 44.0824 337.942 44.9832C337.942 45.884 338.675 46.6166 339.575 46.6166C340.476 46.6166 341.209 45.884 341.209 44.9832C341.209 44.0824 340.476 43.3499 339.575 43.3499Z" fill="#636DB5"/>
<path d="M360.809 84.1835C359.007 84.1835 357.542 82.7184 357.542 80.9168C357.542 79.1152 359.007 77.6501 360.809 77.6501C362.61 77.6501 364.075 79.1152 364.075 80.9168C364.075 82.7184 362.609 84.1835 360.809 84.1835ZM360.809 79.2835C359.908 79.2835 359.175 80.016 359.175 80.9168C359.175 81.8176 359.908 82.5502 360.809 82.5502C361.71 82.5502 362.442 81.8176 362.442 80.9168C362.442 80.016 361.71 79.2835 360.809 79.2835Z" fill="#636DB5"/>
</g>
<path d="M302.669 74.2344C306.167 74.2344 309.003 71.3987 309.003 67.9008C309.003 64.4028 306.167 61.5671 302.669 61.5671C299.17 61.5671 296.334 64.4028 296.334 67.9008C296.334 71.3987 299.17 74.2344 302.669 74.2344Z" fill="#F04B5D"/>
<path d="M579.335 238.15H437.497V239.744H579.335V238.15Z" fill="#3F3D56"/>
<path d="M579.335 249.304H437.497V250.898H579.335V249.304Z" fill="#3F3D56"/>
<path d="M579.335 260.458H437.497V262.052H579.335V260.458Z" fill="#3F3D56"/>
<path d="M408.785 213.044C412.284 213.044 415.12 210.209 415.12 206.711C415.12 203.213 412.284 200.377 408.785 200.377C405.287 200.377 402.45 203.213 402.45 206.711C402.45 210.209 405.287 213.044 408.785 213.044Z" fill="#F04B5D"/>
<g clip-path="url(#clip2)">
<path d="M453.378 162.827C452.512 162.237 449.513 160.701 445.738 164.358C441.962 160.701 438.963 162.237 438.097 162.827C435.59 164.536 434.828 168.277 436.362 171.345C439.133 176.887 445.194 178.961 445.45 179.046C445.636 179.108 445.84 179.108 446.025 179.046C446.282 178.961 452.343 176.887 455.114 171.345C456.647 168.277 455.885 164.536 453.378 162.827Z" fill="#FFB1BB"/>
<path d="M443.231 191.26C442.189 190.55 440.539 190.403 438.819 191.882C437.099 190.403 435.449 190.55 434.407 191.26C432.869 192.308 432.392 194.585 433.322 196.444C434.913 199.627 438.385 200.814 438.532 200.863C438.717 200.925 438.921 200.925 439.107 200.863C439.254 200.814 442.725 199.627 444.317 196.444C445.246 194.585 444.769 192.308 443.231 191.26Z" fill="#FFD8DD"/>
<path d="M477.068 214.322L462.843 193.358V183.638C462.843 183.136 462.436 182.729 461.934 182.729H452.843C452.341 182.729 451.934 183.136 451.934 183.638V193.358L437.709 214.322C436.951 215.439 436.873 216.874 437.505 218.067C438.137 219.259 439.368 220 440.718 220H474.059C475.409 220 476.64 219.259 477.272 218.066C477.904 216.874 477.826 215.439 477.068 214.322Z" fill="#EFECF1"/>
<path d="M453.752 193.638V188.183C453.752 187.179 454.566 186.365 455.57 186.365H462.843V182.729H452.843C452.341 182.729 451.934 183.136 451.934 183.638V193.358L446.193 201.819H448.24L453.752 193.638Z" fill="#EBE3EF"/>
<path d="M477.068 214.322L468.584 201.819H446.193L437.709 214.322C436.951 215.439 436.873 216.874 437.505 218.066C438.137 219.259 439.368 220 440.718 220H474.059C475.409 220 476.64 219.259 477.272 218.066C477.904 216.874 477.826 215.439 477.068 214.322Z" fill="#FE5578"/>
<path d="M441.45 215.339C440.818 214.146 440.897 212.712 441.654 211.595L448.241 201.819H446.193L437.709 214.322C436.951 215.439 436.873 216.874 437.505 218.066C438.137 219.259 439.368 220 440.718 220H474.059C475.409 220 476.64 219.259 477.272 218.066C477.407 217.811 477.508 217.544 477.579 217.273H444.663C443.313 217.273 442.082 216.532 441.45 215.339Z" fill="#FE3F67"/>
<path d="M464.661 180.911H450.116C449.614 180.911 449.207 181.318 449.207 181.82V183.638C449.207 184.14 449.614 184.547 450.116 184.547H464.661C465.163 184.547 465.57 184.14 465.57 183.638V181.82C465.57 181.318 465.163 180.911 464.661 180.911Z" fill="#EFECF1"/>
<path d="M461.8 205.804C460.759 205.094 459.109 204.947 457.389 206.427C455.668 204.947 454.018 205.095 452.977 205.804C451.439 206.853 450.962 209.13 451.891 210.988C453.483 214.171 456.954 215.359 457.101 215.408C457.287 215.47 457.491 215.47 457.676 215.408C457.823 215.359 461.295 214.171 462.886 210.988C463.815 209.13 463.338 206.853 461.8 205.804Z" fill="#EFECF1"/>
<path d="M479.593 176.715C478.551 176.005 476.901 175.858 475.181 177.337C473.461 175.858 471.811 176.005 470.769 176.715C469.231 177.763 468.754 180.04 469.683 181.899C471.275 185.082 474.747 186.27 474.893 186.319C475.079 186.381 475.283 186.381 475.469 186.319C475.615 186.27 479.087 185.082 480.678 181.899C481.608 180.04 481.131 177.763 479.593 176.715Z" fill="#FE6A89"/>
</g>
</g>
<defs>
<clipPath id="clip0">
<rect width="630" height="357" fill="white"/>
</clipPath>
<clipPath id="clip1">
<rect x="331" y="36" width="49" height="49" fill="white"/>
</clipPath>
<clipPath id="clip2">
<rect x="428" y="162" width="58" height="58" fill="white"/>
</clipPath>
</defs>
</svg>
