<svg width="1097" height="361" viewBox="0 0 1097 361" fill="none" xmlns="http://www.w3.org/2000/svg">
<path d="M2.7 98H9V90.044H13.392C18.396 90.044 21.78 86.3 21.78 81.116C21.78 75.932 18.396 72.26 13.392 72.26H2.7V98ZM9 84.644V77.66H12.204C14.292 77.66 15.372 79.064 15.372 81.116C15.372 83.168 14.292 84.644 12.096 84.644H9ZM25.3406 98H31.6406V89.324H34.5926L39.1646 98H46.1846L41.1806 89C40.5686 87.92 40.2086 87.452 40.2086 87.452V87.38C42.7646 86.084 44.0606 83.096 44.0606 80.36C44.0606 76.616 42.2246 73.988 39.3086 72.872C38.1926 72.44 36.9326 72.26 34.3046 72.26H25.3406V98ZM31.6406 83.924V77.66H33.7646C34.8086 77.66 35.5646 77.768 36.1406 78.02C37.3286 78.488 37.6526 79.46 37.6526 80.756C37.6526 82.808 36.3926 83.924 34.3766 83.924H31.6406ZM47.3507 84.968C47.3507 92.528 52.8227 98.432 60.8147 98.432C68.8067 98.432 74.2787 92.528 74.2787 84.968C74.2787 77.588 68.8067 71.828 60.8147 71.828C52.8227 71.828 47.3507 77.588 47.3507 84.968ZM53.8667 84.968C53.8667 80.756 56.7467 77.588 60.8147 77.588C64.8827 77.588 67.7627 80.756 67.7627 84.968C67.7627 89.36 64.8827 92.672 60.8147 92.672C56.7467 92.672 53.8667 89.36 53.8667 84.968ZM77.5659 98H95.3859V92.6H84.2619C84.5859 89.288 94.9899 87.74 94.9899 79.712C94.9899 74.24 90.4179 71.828 86.2059 71.828C81.5619 71.828 78.6459 74.456 77.1339 77.372L81.8139 80.504C82.5699 79.064 83.9739 77.768 85.6299 77.768C86.9619 77.768 88.4019 78.524 88.4019 80.324C88.4019 84.032 77.2779 85.724 77.2779 95.228C77.2779 96.092 77.3859 96.992 77.5659 98ZM108.261 90.368H119.565V84.968H108.261V90.368ZM131.252 95.768C133.448 97.604 136.292 98.432 139.1 98.432C145.724 98.432 149.432 93.824 149.432 88.712C149.432 83.744 145.904 79.028 139.244 79.028C136.508 79.028 133.448 79.82 131.576 81.584L134.096 85.616C135.392 84.5 137.12 83.852 138.92 83.852C141.224 83.852 142.844 84.932 143.492 86.624H136.472V90.728H143.456C142.844 92.348 141.224 93.608 138.668 93.608C136.652 93.608 134.888 92.816 133.412 91.592L131.252 95.768ZM156.414 98H162.642V84.68H168.294V79.46H150.798V84.68H156.414V98ZM169.653 88.784C169.653 94.58 174.333 98.432 180.165 98.432C185.997 98.432 190.677 94.58 190.677 88.784C190.677 82.952 185.997 79.028 180.129 79.028C174.333 79.028 169.653 82.952 169.653 88.784ZM175.953 88.784C175.953 85.976 177.897 84.212 180.165 84.212C182.433 84.212 184.377 85.976 184.377 88.784C184.377 91.556 182.433 93.248 180.165 93.248C177.897 93.248 175.953 91.556 175.953 88.784Z" fill="#F04B5D"/>
<path d="M21.35 196H25.238C27.218 196 28.586 195.1 28.586 193.408C28.586 192.4 27.992 191.518 26.858 191.248V191.23C27.686 190.87 28.154 190.114 28.154 189.232C28.154 187.702 26.948 186.892 25.112 186.892H21.35V196ZM23.096 190.744V188.098H24.752C25.85 188.098 26.372 188.53 26.372 189.358C26.372 190.204 25.85 190.744 24.806 190.744H23.096ZM23.096 194.776V191.914H24.95C26.156 191.914 26.822 192.454 26.822 193.354C26.822 194.2 26.228 194.776 24.968 194.776H23.096ZM30.1076 191.428C30.1076 194.2 32.3036 196.216 35.0216 196.216C37.7216 196.216 39.9176 194.2 39.9176 191.428C39.9176 188.674 37.7216 186.676 35.0036 186.676C32.3036 186.676 30.1076 188.674 30.1076 191.428ZM31.8896 191.428C31.8896 189.538 33.2936 188.188 35.0216 188.188C36.7316 188.188 38.1536 189.538 38.1536 191.428C38.1536 193.336 36.7316 194.704 35.0216 194.704C33.2936 194.704 31.8896 193.336 31.8896 191.428ZM42.0219 196H45.9099C47.8899 196 49.2579 195.1 49.2579 193.408C49.2579 192.4 48.6639 191.518 47.5299 191.248V191.23C48.3579 190.87 48.8259 190.114 48.8259 189.232C48.8259 187.702 47.6199 186.892 45.7839 186.892H42.0219V196ZM43.7679 190.744V188.098H45.4239C46.5219 188.098 47.0439 188.53 47.0439 189.358C47.0439 190.204 46.5219 190.744 45.4779 190.744H43.7679ZM43.7679 194.776V191.914H45.6219C46.8279 191.914 47.4939 192.454 47.4939 193.354C47.4939 194.2 46.8999 194.776 45.6399 194.776H43.7679ZM50.3834 196.09C53.0654 195.946 54.1094 193.822 54.1094 189.7V188.332H56.7914V196H58.5374V186.892H52.4354V189.7C52.4354 192.994 51.7154 194.326 50.3834 194.524V196.09ZM60.6408 191.446C60.6408 194.146 62.6208 196.216 65.4828 196.216C66.7428 196.216 68.1288 195.73 69.0108 194.92L68.2728 193.642C67.5528 194.29 66.5628 194.704 65.5908 194.704C63.9528 194.704 62.5488 193.642 62.4588 191.68H69.0828C69.1188 191.428 69.1548 191.176 69.1548 190.942C69.1548 188.602 67.7868 186.676 65.2128 186.676C62.6208 186.676 60.6408 188.548 60.6408 191.446ZM62.5128 190.42C62.7648 188.908 63.8268 188.026 65.1768 188.026C66.3648 188.026 67.3368 188.854 67.3908 190.42H62.5128ZM73.7383 192.832C74.6383 192.832 75.6283 192.526 76.2043 192.166H76.2403C76.2403 192.166 76.2223 192.454 76.2223 192.706V196H77.9683V186.892H76.2223V190.672C75.8443 190.942 75.1063 191.32 74.2063 191.32C72.7123 191.32 72.3883 190.51 72.3883 189.61V186.892H70.6783V189.862C70.6783 191.806 71.7943 192.832 73.7383 192.832ZM80.0822 191.446C80.0822 194.146 82.0622 196.216 84.9242 196.216C86.1842 196.216 87.5702 195.73 88.4522 194.92L87.7142 193.642C86.9942 194.29 86.0042 194.704 85.0322 194.704C83.3942 194.704 81.9902 193.642 81.9002 191.68H88.5242C88.5602 191.428 88.5962 191.176 88.5962 190.942C88.5962 188.602 87.2282 186.676 84.6542 186.676C82.0622 186.676 80.0822 188.548 80.0822 191.446ZM81.9542 190.42C82.2062 188.908 83.2682 188.026 84.6182 188.026C85.8062 188.026 86.7782 188.854 86.8322 190.42H81.9542ZM90.6957 196H92.4417V192.094H97.0497V196H98.7957V186.892H97.0497V190.6H92.4417V186.892H90.6957V196ZM101.489 196H103.235V192.094H107.843V196H109.589V186.892H107.843V190.6H103.235V186.892H101.489V196ZM120.526 196H122.272V186.892H120.526V196ZM112.282 196H115.792C118.078 196 119.122 194.83 119.122 193.12C119.122 191.05 117.7 190.186 115.81 190.186H114.028V186.892H112.282V196ZM114.028 194.74V191.446H115.54C116.8 191.446 117.358 192.13 117.358 193.102C117.358 194.056 116.818 194.74 115.558 194.74H114.028ZM124.379 191.446C124.379 194.146 126.359 196.216 129.221 196.216C130.481 196.216 131.867 195.73 132.749 194.92L132.011 193.642C131.291 194.29 130.301 194.704 129.329 194.704C127.691 194.704 126.287 193.642 126.197 191.68H132.821C132.857 191.428 132.893 191.176 132.893 190.942C132.893 188.602 131.525 186.676 128.951 186.676C126.359 186.676 124.379 188.548 124.379 191.446ZM126.251 190.42C126.503 188.908 127.565 188.026 128.915 188.026C130.103 188.026 131.075 188.854 131.129 190.42H126.251ZM139.493 199.6H141.239V195.46C141.239 194.992 141.167 194.668 141.167 194.668H141.203C141.833 195.64 142.877 196.216 144.029 196.216C146.423 196.216 148.151 194.344 148.151 191.446C148.151 188.62 146.621 186.676 144.155 186.676C142.823 186.676 141.671 187.288 141.095 188.386H141.059C141.059 188.386 141.113 188.08 141.113 187.702V186.892H139.493V199.6ZM141.185 191.482C141.185 189.178 142.445 188.206 143.813 188.206C145.325 188.206 146.387 189.484 146.387 191.464C146.387 193.534 145.199 194.704 143.759 194.704C142.085 194.704 141.185 193.102 141.185 191.482ZM149.709 191.446C149.709 194.146 151.689 196.216 154.551 196.216C155.811 196.216 157.197 195.73 158.079 194.92L157.341 193.642C156.621 194.29 155.631 194.704 154.659 194.704C153.021 194.704 151.617 193.642 151.527 191.68H158.151C158.187 191.428 158.223 191.176 158.223 190.942C158.223 188.602 156.855 186.676 154.281 186.676C151.689 186.676 149.709 188.548 149.709 191.446ZM151.581 190.42C151.833 188.908 152.895 188.026 154.245 188.026C155.433 188.026 156.405 188.854 156.459 190.42H151.581ZM160.323 196H162.069V188.386H166.533V196H168.279V186.892H160.323V196ZM170.381 191.446C170.381 194.146 172.361 196.216 175.223 196.216C176.483 196.216 177.869 195.73 178.751 194.92L178.013 193.642C177.293 194.29 176.303 194.704 175.331 194.704C173.693 194.704 172.289 193.642 172.199 191.68H178.823C178.859 191.428 178.895 191.176 178.895 190.942C178.895 188.602 177.527 186.676 174.953 186.676C172.361 186.676 170.381 188.548 170.381 191.446ZM172.253 190.42C172.505 188.908 173.567 188.026 174.917 188.026C176.105 188.026 177.077 188.854 177.131 190.42H172.253ZM183.085 196H184.813V188.386H187.999V186.892H179.917V188.386H183.085V196ZM189.713 196H191.387L195.329 190.564C195.617 190.132 196.067 189.52 196.121 189.358H196.157C196.157 189.502 196.103 190.132 196.103 190.564V196H197.795V186.892H196.103L192.179 192.328C191.873 192.76 191.441 193.39 191.369 193.552H191.333C191.351 193.462 191.387 192.814 191.387 192.328V186.892H189.713V196ZM202.667 196H204.395V188.386H207.581V186.892H199.499V188.386H202.667V196ZM208.402 191.428C208.402 194.2 210.598 196.216 213.316 196.216C216.016 196.216 218.212 194.2 218.212 191.428C218.212 188.674 216.016 186.676 213.298 186.676C210.598 186.676 208.402 188.674 208.402 191.428ZM210.184 191.428C210.184 189.538 211.588 188.188 213.316 188.188C215.026 188.188 216.448 189.538 216.448 191.428C216.448 193.336 215.026 194.704 213.316 194.704C211.588 194.704 210.184 193.336 210.184 191.428ZM220.317 199.6H222.063V195.46C222.063 194.992 221.991 194.668 221.991 194.668H222.027C222.657 195.64 223.701 196.216 224.853 196.216C227.247 196.216 228.975 194.344 228.975 191.446C228.975 188.62 227.445 186.676 224.979 186.676C223.647 186.676 222.495 187.288 221.919 188.386H221.883C221.883 188.386 221.937 188.08 221.937 187.702V186.892H220.317V199.6ZM222.009 191.482C222.009 189.178 223.269 188.206 224.637 188.206C226.149 188.206 227.211 189.484 227.211 191.464C227.211 193.534 226.023 194.704 224.583 194.704C222.909 194.704 222.009 193.102 222.009 191.482ZM239.371 196H241.117V186.892H239.371V196ZM231.127 196H234.637C236.923 196 237.967 194.83 237.967 193.12C237.967 191.05 236.545 190.186 234.655 190.186H232.873V186.892H231.127V196ZM232.873 194.74V191.446H234.385C235.645 191.446 236.203 192.13 236.203 193.102C236.203 194.056 235.663 194.74 234.403 194.74H232.873ZM20.756 219.446C20.756 222.182 22.754 224.216 25.634 224.216C27.056 224.216 28.442 223.64 29.27 222.758L28.568 221.48C27.866 222.218 26.768 222.704 25.76 222.704C23.87 222.704 22.538 221.282 22.538 219.428C22.538 217.574 23.87 216.188 25.706 216.188C26.66 216.188 27.614 216.62 28.226 217.232L29.054 216.008C28.19 215.09 26.84 214.676 25.634 214.676C22.772 214.676 20.756 216.746 20.756 219.446ZM30.3537 219.428C30.3537 222.2 32.5497 224.216 35.2677 224.216C37.9677 224.216 40.1637 222.2 40.1637 219.428C40.1637 216.674 37.9677 214.676 35.2497 214.676C32.5497 214.676 30.3537 216.674 30.3537 219.428ZM32.1357 219.428C32.1357 217.538 33.5397 216.188 35.2677 216.188C36.9777 216.188 38.3997 217.538 38.3997 219.428C38.3997 221.336 36.9777 222.704 35.2677 222.704C33.5397 222.704 32.1357 221.336 32.1357 219.428ZM45.886 222.884C46.642 223.604 47.83 224.216 49.234 224.216C51.106 224.216 52.726 223.262 52.726 221.39C52.726 220.22 52.006 219.536 51.088 219.248V219.212C51.808 218.906 52.42 218.276 52.42 217.142C52.42 215.522 51.07 214.676 49.342 214.676C47.902 214.676 46.876 215.144 46.174 215.666L46.822 216.836C47.524 216.314 48.244 216.044 49.036 216.044C50.044 216.044 50.656 216.512 50.656 217.358C50.656 218.276 49.954 218.672 48.928 218.672H47.974V219.932H49.09C50.368 219.932 50.962 220.436 50.962 221.318C50.962 222.308 50.116 222.812 49.072 222.812C47.974 222.812 47.11 222.164 46.696 221.732L45.886 222.884ZM54.8363 224H56.5823V220.094H61.1903V224H62.9363V214.892H61.1903V218.6H56.5823V214.892H54.8363V224ZM64.8733 221.516C64.8733 223.226 66.3313 224.216 67.9153 224.216C69.2653 224.216 70.3813 223.406 70.9033 222.362H70.9393C70.9393 222.362 70.8853 222.668 70.8853 223.082V224H72.5233V218.24C72.5233 215.936 71.2093 214.676 68.9233 214.676C67.6453 214.676 66.2593 215.144 65.5213 215.756L66.2233 217.034C66.9613 216.512 67.8793 216.152 68.7793 216.152C69.9133 216.152 70.7773 216.656 70.7773 218.15V218.33H70.3093C68.4193 218.33 64.8733 218.654 64.8733 221.516ZM66.6193 221.372C66.6193 219.698 69.0313 219.59 70.3273 219.59H70.7773V219.932C70.7773 221.282 69.8593 222.83 68.3293 222.83C67.1953 222.83 66.6193 222.092 66.6193 221.372ZM75.1039 224H76.8499V220.094H81.4579V224H83.2039V214.892H81.4579V218.6H76.8499V214.892H75.1039V224ZM85.8969 224H87.5709L91.5129 218.564C91.8009 218.132 92.2509 217.52 92.3049 217.358H92.3409C92.3409 217.502 92.2869 218.132 92.2869 218.564V224H93.9789V214.892H92.2869L88.3629 220.328C88.0569 220.76 87.6249 221.39 87.5529 221.552H87.5169C87.5349 221.462 87.5709 220.814 87.5709 220.328V214.892H85.8969V224ZM96.0607 219.446C96.0607 222.146 98.0407 224.216 100.903 224.216C102.163 224.216 103.549 223.73 104.431 222.92L103.693 221.642C102.973 222.29 101.983 222.704 101.011 222.704C99.3727 222.704 97.9687 221.642 97.8787 219.68H104.503C104.539 219.428 104.575 219.176 104.575 218.942C104.575 216.602 103.207 214.676 100.633 214.676C98.0407 214.676 96.0607 216.548 96.0607 219.446ZM97.9327 218.42C98.1847 216.908 99.2467 216.026 100.597 216.026C101.785 216.026 102.757 216.854 102.811 218.42H97.9327ZM106.296 224H107.988L108.384 218.582C108.42 218.042 108.366 217.016 108.366 217.016H108.402C108.402 217.016 108.69 217.7 108.978 218.366L111.138 222.902H112.632L114.792 218.348C115.134 217.646 115.368 217.016 115.368 217.016H115.404C115.404 217.016 115.368 218.042 115.386 218.582L115.782 224H117.474L116.682 214.892H114.774L112.398 220.04C112.164 220.598 111.894 221.264 111.894 221.264H111.858C111.858 221.264 111.606 220.58 111.354 220.04L109.032 214.892H107.088L106.296 224ZM124.323 224H126.069V216.386H130.533V224H132.279V214.892H124.323V224ZM134.381 219.446C134.381 222.182 136.379 224.216 139.259 224.216C140.681 224.216 142.067 223.64 142.895 222.758L142.193 221.48C141.491 222.218 140.393 222.704 139.385 222.704C137.495 222.704 136.163 221.282 136.163 219.428C136.163 217.574 137.495 216.188 139.331 216.188C140.285 216.188 141.239 216.62 141.851 217.232L142.679 216.008C141.815 215.09 140.465 214.676 139.259 214.676C136.397 214.676 134.381 216.746 134.381 219.446ZM144.784 224H146.458L150.4 218.564C150.688 218.132 151.138 217.52 151.192 217.358H151.228C151.228 217.502 151.174 218.132 151.174 218.564V224H152.866V214.892H151.174L147.25 220.328C146.944 220.76 146.512 221.39 146.44 221.552H146.404C146.422 221.462 146.458 220.814 146.458 220.328V214.892H144.784V224ZM154.497 224H156.477L158.385 220.958C158.529 220.742 158.655 220.472 158.655 220.472H158.691C158.691 220.472 158.835 220.742 158.979 220.958L160.887 224H162.867L159.753 219.32L162.687 214.892H160.689L158.997 217.664C158.871 217.898 158.691 218.204 158.691 218.204H158.655C158.655 218.204 158.493 217.898 158.367 217.664L156.675 214.892H154.677L157.611 219.32L154.497 224ZM163.631 219.428C163.631 222.2 165.827 224.216 168.545 224.216C171.245 224.216 173.441 222.2 173.441 219.428C173.441 216.674 171.245 214.676 168.527 214.676C165.827 214.676 163.631 216.674 163.631 219.428ZM165.413 219.428C165.413 217.538 166.817 216.188 168.545 216.188C170.255 216.188 171.677 217.538 171.677 219.428C171.677 221.336 170.255 222.704 168.545 222.704C166.817 222.704 165.413 221.336 165.413 219.428ZM174.309 224.09C176.991 223.946 178.035 221.822 178.035 217.7V216.332H180.717V224H182.463V214.892H176.361V217.7C176.361 220.994 175.641 222.326 174.309 222.524V224.09ZM184.567 219.428C184.567 222.2 186.763 224.216 189.481 224.216C192.181 224.216 194.377 222.2 194.377 219.428C194.377 216.674 192.181 214.676 189.463 214.676C186.763 214.676 184.567 216.674 184.567 219.428ZM186.349 219.428C186.349 217.538 187.753 216.188 189.481 216.188C191.191 216.188 192.613 217.538 192.613 219.428C192.613 221.336 191.191 222.704 189.481 222.704C187.753 222.704 186.349 221.336 186.349 219.428ZM196.481 224H198.227V216.386H202.187V214.892H196.481V224ZM203.916 224H205.59L209.532 218.564C209.82 218.132 210.27 217.52 210.324 217.358H210.36C210.36 217.502 210.306 218.132 210.306 218.564V224H211.998V214.892H210.306L206.382 220.328C206.076 220.76 205.644 221.39 205.572 221.552H205.536C205.554 221.462 205.59 220.814 205.59 220.328V214.892H203.916V224ZM214.674 224H216.348L220.29 218.564C220.578 218.132 221.028 217.52 221.082 217.358H221.118C221.118 217.502 221.064 218.132 221.064 218.564V224H222.756V214.892H221.064L217.14 220.328C216.834 220.76 216.402 221.39 216.33 221.552H216.294C216.312 221.462 216.348 220.814 216.348 220.328V214.892H214.674V224ZM229.338 219.446C229.338 222.182 231.336 224.216 234.216 224.216C235.638 224.216 237.024 223.64 237.852 222.758L237.15 221.48C236.448 222.218 235.35 222.704 234.342 222.704C232.452 222.704 231.12 221.282 231.12 219.428C231.12 217.574 232.452 216.188 234.288 216.188C235.242 216.188 236.196 216.62 236.808 217.232L237.636 216.008C236.772 215.09 235.422 214.676 234.216 214.676C231.354 214.676 229.338 216.746 229.338 219.446ZM241.937 224H243.665V216.386H246.851V214.892H238.769V216.386H241.937V224ZM248.115 225.89L247.503 227.222C247.503 227.222 248.241 227.78 249.249 227.78C250.527 227.78 251.661 227.06 252.201 225.638L256.485 214.892H254.595L252.381 220.868C252.219 221.336 252.075 221.948 252.075 221.948H252.039C252.039 221.948 251.877 221.3 251.697 220.85L249.411 214.892H247.449L251.265 223.892L250.815 224.936C250.473 225.764 249.879 226.286 249.159 226.286C248.619 226.286 248.115 225.89 248.115 225.89ZM259.329 222.56C260.481 220.76 260.625 218.168 260.625 216.8V216.314H263.361V222.56H259.329ZM256.413 222.56V226.16H258.051V224H264.801V226.16H266.403V222.56H265.107V214.892H258.951V216.566C258.951 217.97 258.807 220.814 257.529 222.56H256.413ZM267.535 219.446C267.535 222.146 269.515 224.216 272.377 224.216C273.637 224.216 275.023 223.73 275.905 222.92L275.167 221.642C274.447 222.29 273.457 222.704 272.485 222.704C270.847 222.704 269.443 221.642 269.353 219.68H275.977C276.013 219.428 276.049 219.176 276.049 218.942C276.049 216.602 274.681 214.676 272.107 214.676C269.515 214.676 267.535 216.548 267.535 219.446ZM269.407 218.42C269.659 216.908 270.721 216.026 272.071 216.026C273.259 216.026 274.231 216.854 274.285 218.42H269.407ZM278.149 224H279.895V220.094H284.503V224H286.249V214.892H284.503V218.6H279.895V214.892H278.149V224ZM291.138 224H292.866V216.386H296.052V214.892H287.97V216.386H291.138V224ZM296.873 219.428C296.873 222.2 299.069 224.216 301.787 224.216C304.487 224.216 306.683 222.2 306.683 219.428C306.683 216.674 304.487 214.676 301.769 214.676C299.069 214.676 296.873 216.674 296.873 219.428ZM298.655 219.428C298.655 217.538 300.059 216.188 301.787 216.188C303.497 216.188 304.919 217.538 304.919 219.428C304.919 221.336 303.497 222.704 301.787 222.704C300.059 222.704 298.655 221.336 298.655 219.428ZM308.788 224H312.676C314.656 224 316.024 223.1 316.024 221.408C316.024 220.4 315.43 219.518 314.296 219.248V219.23C315.124 218.87 315.592 218.114 315.592 217.232C315.592 215.702 314.386 214.892 312.55 214.892H308.788V224ZM310.534 218.744V216.098H312.189C313.288 216.098 313.81 216.53 313.81 217.358C313.81 218.204 313.288 218.744 312.244 218.744H310.534ZM310.534 222.776V219.914H312.388C313.594 219.914 314.26 220.454 314.26 221.354C314.26 222.2 313.666 222.776 312.406 222.776H310.534Z" fill="#222224"/>
<path d="M21.35 153H23.024L26.966 147.564C27.254 147.132 27.704 146.52 27.758 146.358H27.794C27.794 146.502 27.74 147.132 27.74 147.564V153H29.432V143.892H27.74L23.816 149.328C23.51 149.76 23.078 150.39 23.006 150.552H22.97C22.988 150.462 23.024 149.814 23.024 149.328V143.892H21.35V153ZM32.1078 153H33.8538V149.094H38.4618V153H40.2078V143.892H38.4618V147.6H33.8538V143.892H32.1078V153ZM45.0968 153H46.8248V145.386H50.0108V143.892H41.9288V145.386H45.0968V153ZM50.8322 148.446C50.8322 151.146 52.8122 153.216 55.6742 153.216C56.9342 153.216 58.3202 152.73 59.2022 151.92L58.4642 150.642C57.7442 151.29 56.7542 151.704 55.7822 151.704C54.1442 151.704 52.7402 150.642 52.6502 148.68H59.2742C59.3102 148.428 59.3462 148.176 59.3462 147.942C59.3462 145.602 57.9782 143.676 55.4042 143.676C52.8122 143.676 50.8322 145.548 50.8322 148.446ZM52.7042 147.42C52.9562 145.908 54.0182 145.026 55.3682 145.026C56.5562 145.026 57.5282 145.854 57.5822 147.42H52.7042ZM61.4457 156.6H63.1917V152.46C63.1917 151.992 63.1197 151.668 63.1197 151.668H63.1557C63.7857 152.64 64.8297 153.216 65.9817 153.216C68.3757 153.216 70.1037 151.344 70.1037 148.446C70.1037 145.62 68.5737 143.676 66.1077 143.676C64.7757 143.676 63.6237 144.288 63.0477 145.386H63.0117C63.0117 145.386 63.0657 145.08 63.0657 144.702V143.892H61.4457V156.6ZM63.1377 148.482C63.1377 146.178 64.3977 145.206 65.7657 145.206C67.2777 145.206 68.3397 146.484 68.3397 148.464C68.3397 150.534 67.1517 151.704 65.7117 151.704C64.0377 151.704 63.1377 150.102 63.1377 148.482ZM71.5002 150.516C71.5002 152.226 72.9583 153.216 74.5423 153.216C75.8923 153.216 77.0083 152.406 77.5303 151.362H77.5663C77.5663 151.362 77.5123 151.668 77.5123 152.082V153H79.1503V147.24C79.1503 144.936 77.8363 143.676 75.5503 143.676C74.2723 143.676 72.8863 144.144 72.1483 144.756L72.8503 146.034C73.5883 145.512 74.5063 145.152 75.4062 145.152C76.5403 145.152 77.4043 145.656 77.4043 147.15V147.33H76.9363C75.0463 147.33 71.5002 147.654 71.5002 150.516ZM73.2463 150.372C73.2463 148.698 75.6582 148.59 76.9543 148.59H77.4043V148.932C77.4043 150.282 76.4863 151.83 74.9563 151.83C73.8223 151.83 73.2463 151.092 73.2463 150.372ZM81.7309 153H83.4769V149.058H84.7909L87.5089 153H89.5789L86.1769 148.266V148.23L89.2189 143.892H87.2389L84.7549 147.564H83.4769V143.892H81.7309V153ZM93.3312 153H95.0592V145.386H98.2452V143.892H90.1632V145.386H93.3312V153ZM99.9594 153H101.633L105.575 147.564C105.863 147.132 106.313 146.52 106.367 146.358H106.403C106.403 146.502 106.349 147.132 106.349 147.564V153H108.041V143.892H106.349L102.425 149.328C102.119 149.76 101.687 150.39 101.615 150.552H101.579C101.597 150.462 101.633 149.814 101.633 149.328V143.892H99.9594V153ZM110.717 153H114.605C116.585 153 117.953 152.1 117.953 150.408C117.953 149.4 117.359 148.518 116.225 148.248V148.23C117.053 147.87 117.521 147.114 117.521 146.232C117.521 144.702 116.315 143.892 114.479 143.892H110.717V153ZM112.463 147.744V145.098H114.119C115.217 145.098 115.739 145.53 115.739 146.358C115.739 147.204 115.217 147.744 114.173 147.744H112.463ZM112.463 151.776V148.914H114.317C115.523 148.914 116.189 149.454 116.189 150.354C116.189 151.2 115.595 151.776 114.335 151.776H112.463ZM120.069 153H121.815V149.094H126.423V153H128.169V143.892H126.423V147.6H121.815V143.892H120.069V153ZM130.106 150.516C130.106 152.226 131.564 153.216 133.148 153.216C134.498 153.216 135.614 152.406 136.136 151.362H136.172C136.172 151.362 136.118 151.668 136.118 152.082V153H137.756V147.24C137.756 144.936 136.442 143.676 134.156 143.676C132.878 143.676 131.492 144.144 130.754 144.756L131.456 146.034C132.194 145.512 133.112 145.152 134.012 145.152C135.146 145.152 136.01 145.656 136.01 147.15V147.33H135.542C133.652 147.33 130.106 147.654 130.106 150.516ZM131.852 150.372C131.852 148.698 134.264 148.59 135.56 148.59H136.01V148.932C136.01 150.282 135.092 151.83 133.562 151.83C132.428 151.83 131.852 151.092 131.852 150.372ZM139.418 153H141.344L143.576 149.706H145.106V153H146.852V143.892H143.216C141.29 143.892 139.958 144.882 139.958 146.754C139.958 148.14 140.894 149.112 141.938 149.4V149.418C141.938 149.418 141.722 149.652 141.524 149.976L139.418 153ZM143.594 148.428C142.532 148.428 141.722 147.87 141.722 146.736C141.722 145.566 142.478 145.098 143.648 145.098H145.106V148.428H143.594ZM153.453 148.428C153.453 151.2 155.649 153.216 158.367 153.216C161.067 153.216 163.263 151.2 163.263 148.428C163.263 145.674 161.067 143.676 158.349 143.676C155.649 143.676 153.453 145.674 153.453 148.428ZM155.235 148.428C155.235 146.538 156.639 145.188 158.367 145.188C160.077 145.188 161.499 146.538 161.499 148.428C161.499 150.336 160.077 151.704 158.367 151.704C156.639 151.704 155.235 150.336 155.235 148.428ZM165.368 153H167.114V149.094H171.722V153H173.468V143.892H171.722V147.6H167.114V143.892H165.368V153ZM175.171 153.09C177.853 152.946 178.897 150.822 178.897 146.7V145.332H181.579V153H183.325V143.892H177.223V146.7C177.223 149.994 176.503 151.326 175.171 151.524V153.09ZM185.266 150.516C185.266 152.226 186.724 153.216 188.308 153.216C189.658 153.216 190.774 152.406 191.296 151.362H191.332C191.332 151.362 191.278 151.668 191.278 152.082V153H192.916V147.24C192.916 144.936 191.602 143.676 189.316 143.676C188.038 143.676 186.652 144.144 185.914 144.756L186.616 146.034C187.354 145.512 188.272 145.152 189.172 145.152C190.306 145.152 191.17 145.656 191.17 147.15V147.33H190.702C188.812 147.33 185.266 147.654 185.266 150.516ZM187.012 150.372C187.012 148.698 189.424 148.59 190.72 148.59H191.17V148.932C191.17 150.282 190.252 151.83 188.722 151.83C187.588 151.83 187.012 151.092 187.012 150.372ZM199.51 142.848C200.914 142.848 202.174 142.02 202.174 140.544V140.274H200.788V140.508C200.788 141.318 200.14 141.714 199.51 141.714C198.88 141.714 198.25 141.318 198.25 140.526V140.274H196.846V140.544C196.846 142.02 198.124 142.848 199.51 142.848ZM195.496 153H197.17L201.112 147.564C201.4 147.132 201.85 146.52 201.904 146.358H201.94C201.94 146.502 201.886 147.132 201.886 147.564V153H203.578V143.892H201.886L197.962 149.328C197.656 149.76 197.224 150.39 197.152 150.552H197.116C197.134 150.462 197.17 149.814 197.17 149.328V143.892H195.496V153ZM206.254 153H208V149.094H212.608V153H214.354V143.892H212.608V147.6H208V143.892H206.254V153ZM216.957 148.644H222.213V147.096H216.957V148.644ZM224.817 153H226.563V145.386H231.027V153H232.773V143.892H224.817V153ZM234.479 153.09C237.161 152.946 238.205 150.822 238.205 146.7V145.332H240.887V153H242.633V143.892H236.531V146.7C236.531 149.994 235.811 151.326 234.479 151.524V153.09ZM244.574 150.516C244.574 152.226 246.032 153.216 247.616 153.216C248.966 153.216 250.082 152.406 250.604 151.362H250.64C250.64 151.362 250.586 151.668 250.586 152.082V153H252.224V147.24C252.224 144.936 250.91 143.676 248.624 143.676C247.346 143.676 245.96 144.144 245.222 144.756L245.924 146.034C246.662 145.512 247.58 145.152 248.48 145.152C249.614 145.152 250.478 145.656 250.478 147.15V147.33H250.01C248.12 147.33 244.574 147.654 244.574 150.516ZM246.32 150.372C246.32 148.698 248.732 148.59 250.028 148.59H250.478V148.932C250.478 150.282 249.56 151.83 248.03 151.83C246.896 151.83 246.32 151.092 246.32 150.372ZM256.878 153H258.606V145.386H261.792V143.892H253.71V145.386H256.878V153ZM262.631 148.428C262.631 151.236 264.737 153.09 267.563 153.216V156.6H269.237V153.216C272.063 153.09 274.151 151.236 274.151 148.428C274.151 145.638 272.063 143.802 269.237 143.694V140.4H267.563V143.694C264.737 143.802 262.631 145.638 262.631 148.428ZM269.237 151.758V145.134C271.091 145.242 272.441 146.448 272.441 148.428C272.441 150.39 271.091 151.632 269.237 151.758ZM264.359 148.428C264.359 146.448 265.691 145.242 267.563 145.134V151.758C265.691 151.632 264.359 150.39 264.359 148.428ZM275.674 148.428C275.674 151.2 277.87 153.216 280.588 153.216C283.288 153.216 285.484 151.2 285.484 148.428C285.484 145.674 283.288 143.676 280.57 143.676C277.87 143.676 275.674 145.674 275.674 148.428ZM277.456 148.428C277.456 146.538 278.86 145.188 280.588 145.188C282.298 145.188 283.72 146.538 283.72 148.428C283.72 150.336 282.298 151.704 280.588 151.704C278.86 151.704 277.456 150.336 277.456 148.428ZM287.588 156.6H289.334V152.46C289.334 151.992 289.262 151.668 289.262 151.668H289.298C289.928 152.64 290.972 153.216 292.124 153.216C294.518 153.216 296.246 151.344 296.246 148.446C296.246 145.62 294.716 143.676 292.25 143.676C290.918 143.676 289.766 144.288 289.19 145.386H289.154C289.154 145.386 289.208 145.08 289.208 144.702V143.892H287.588V156.6ZM289.28 148.482C289.28 146.178 290.54 145.206 291.908 145.206C293.42 145.206 294.482 146.484 294.482 148.464C294.482 150.534 293.294 151.704 291.854 151.704C290.18 151.704 289.28 150.102 289.28 148.482ZM298.021 153H299.713L300.109 147.582C300.145 147.042 300.091 146.016 300.091 146.016H300.127C300.127 146.016 300.415 146.7 300.703 147.366L302.863 151.902H304.357L306.517 147.348C306.859 146.646 307.093 146.016 307.093 146.016H307.129C307.129 146.016 307.093 147.042 307.111 147.582L307.507 153H309.199L308.407 143.892H306.499L304.123 149.04C303.889 149.598 303.619 150.264 303.619 150.264H303.583C303.583 150.264 303.331 149.58 303.079 149.04L300.757 143.892H298.813L298.021 153ZM310.791 150.516C310.791 152.226 312.249 153.216 313.833 153.216C315.183 153.216 316.299 152.406 316.821 151.362H316.857C316.857 151.362 316.803 151.668 316.803 152.082V153H318.441V147.24C318.441 144.936 317.127 143.676 314.841 143.676C313.563 143.676 312.177 144.144 311.439 144.756L312.141 146.034C312.879 145.512 313.797 145.152 314.697 145.152C315.831 145.152 316.695 145.656 316.695 147.15V147.33H316.227C314.337 147.33 310.791 147.654 310.791 150.516ZM312.537 150.372C312.537 148.698 314.949 148.59 316.245 148.59H316.695V148.932C316.695 150.282 315.777 151.83 314.247 151.83C313.113 151.83 312.537 151.092 312.537 150.372Z" fill="#222224"/>
<circle cx="4" cy="149" r="4" fill="#F04B5D"/>
<circle cx="4" cy="192" r="4" fill="#F04B5D"/>
<circle cx="4" cy="263" r="4" fill="#F04B5D"/>
<path d="M20.756 262.428C20.756 265.2 22.952 267.216 25.67 267.216C28.37 267.216 30.566 265.2 30.566 262.428C30.566 259.674 28.37 257.676 25.652 257.676C22.952 257.676 20.756 259.674 20.756 262.428ZM22.538 262.428C22.538 260.538 23.942 259.188 25.67 259.188C27.38 259.188 28.802 260.538 28.802 262.428C28.802 264.336 27.38 265.704 25.67 265.704C23.942 265.704 22.538 264.336 22.538 262.428ZM32.2743 261.762C32.2743 264.912 33.6603 267.216 36.7383 267.216C39.3123 267.216 41.0403 265.416 41.0403 262.896C41.0403 260.322 39.4563 258.702 37.1703 258.702C35.9643 258.702 34.7583 259.098 33.9483 260.322H33.9123C34.0383 258.576 34.9023 257.514 36.7203 256.686L40.2123 255.228L39.6363 253.788L36.3783 255.192C33.2103 256.524 32.2743 258.504 32.2743 261.762ZM34.0923 262.896C34.0923 261.294 35.1903 260.088 36.7383 260.088C38.1063 260.088 39.2763 261.15 39.2763 262.932C39.2763 264.696 38.1063 265.74 36.6663 265.74C35.2623 265.74 34.0923 264.696 34.0923 262.896ZM42.3629 268.89L41.7509 270.222C41.7509 270.222 42.4889 270.78 43.4969 270.78C44.7749 270.78 45.9089 270.06 46.4489 268.638L50.7329 257.892H48.8429L46.6289 263.868C46.4669 264.336 46.3229 264.948 46.3229 264.948H46.2869C46.2869 264.948 46.1249 264.3 45.9449 263.85L43.6589 257.892H41.6969L45.5129 266.892L45.0629 267.936C44.7209 268.764 44.1269 269.286 43.4069 269.286C42.8669 269.286 42.3629 268.89 42.3629 268.89ZM54.9297 263.832C55.8297 263.832 56.8197 263.526 57.3957 263.166H57.4317C57.4317 263.166 57.4137 263.454 57.4137 263.706V267H59.1597V257.892H57.4137V261.672C57.0357 261.942 56.2977 262.32 55.3977 262.32C53.9037 262.32 53.5797 261.51 53.5797 260.61V257.892H51.8697V260.862C51.8697 262.806 52.9857 263.832 54.9297 263.832ZM61.2736 262.446C61.2736 265.146 63.2536 267.216 66.1156 267.216C67.3756 267.216 68.7616 266.73 69.6436 265.92L68.9056 264.642C68.1856 265.29 67.1956 265.704 66.2236 265.704C64.5856 265.704 63.1816 264.642 63.0916 262.68H69.7156C69.7516 262.428 69.7876 262.176 69.7876 261.942C69.7876 259.602 68.4196 257.676 65.8456 257.676C63.2536 257.676 61.2736 259.548 61.2736 262.446ZM63.1456 261.42C63.3976 259.908 64.4596 259.026 65.8096 259.026C66.9976 259.026 67.9696 259.854 68.0236 261.42H63.1456ZM71.8871 267H73.6331V263.094H78.2411V267H79.9871V257.892H78.2411V261.6H73.6331V257.892H71.8871V267ZM82.6801 267H84.3541L88.2961 261.564C88.5841 261.132 89.0341 260.52 89.0881 260.358H89.1241C89.1241 260.502 89.0701 261.132 89.0701 261.564V267H90.7621V257.892H89.0701L85.1461 263.328C84.8401 263.76 84.4081 264.39 84.3361 264.552H84.3001C84.3181 264.462 84.3541 263.814 84.3541 263.328V257.892H82.6801V267ZM92.8439 262.446C92.8439 265.146 94.8239 267.216 97.6859 267.216C98.9459 267.216 100.332 266.73 101.214 265.92L100.476 264.642C99.7559 265.29 98.7659 265.704 97.7939 265.704C96.1559 265.704 94.7519 264.642 94.6619 262.68H101.286C101.322 262.428 101.358 262.176 101.358 261.942C101.358 259.602 99.9899 257.676 97.4159 257.676C94.8239 257.676 92.8439 259.548 92.8439 262.446ZM94.7159 261.42C94.9679 259.908 96.0299 259.026 97.3799 259.026C98.5679 259.026 99.5399 259.854 99.5939 261.42H94.7159ZM107.957 267H109.703V263.094H114.311V267H116.057V257.892H114.311V261.6H109.703V257.892H107.957V267ZM117.994 264.516C117.994 266.226 119.452 267.216 121.036 267.216C122.386 267.216 123.502 266.406 124.024 265.362H124.06C124.06 265.362 124.006 265.668 124.006 266.082V267H125.644V261.24C125.644 258.936 124.33 257.676 122.044 257.676C120.766 257.676 119.38 258.144 118.642 258.756L119.344 260.034C120.082 259.512 121 259.152 121.9 259.152C123.034 259.152 123.898 259.656 123.898 261.15V261.33H123.43C121.54 261.33 117.994 261.654 117.994 264.516ZM119.74 264.372C119.74 262.698 122.152 262.59 123.448 262.59H123.898V262.932C123.898 264.282 122.98 265.83 121.45 265.83C120.316 265.83 119.74 265.092 119.74 264.372ZM132.725 270.6H134.471V266.46C134.471 265.992 134.399 265.668 134.399 265.668H134.435C135.065 266.64 136.109 267.216 137.261 267.216C139.655 267.216 141.383 265.344 141.383 262.446C141.383 259.62 139.853 257.676 137.387 257.676C136.055 257.676 134.903 258.288 134.327 259.386H134.291C134.291 259.386 134.345 259.08 134.345 258.702V257.892H132.725V270.6ZM134.417 262.482C134.417 260.178 135.677 259.206 137.045 259.206C138.557 259.206 139.619 260.484 139.619 262.464C139.619 264.534 138.431 265.704 136.991 265.704C135.317 265.704 134.417 264.102 134.417 262.482ZM142.822 268.89L142.21 270.222C142.21 270.222 142.948 270.78 143.956 270.78C145.234 270.78 146.368 270.06 146.908 268.638L151.192 257.892H149.302L147.088 263.868C146.926 264.336 146.782 264.948 146.782 264.948H146.746C146.746 264.948 146.584 264.3 146.404 263.85L144.118 257.892H142.156L145.972 266.892L145.522 267.936C145.18 268.764 144.586 269.286 143.866 269.286C143.326 269.286 142.822 268.89 142.822 268.89ZM151.994 262.446C151.994 265.182 153.992 267.216 156.872 267.216C158.294 267.216 159.68 266.64 160.508 265.758L159.806 264.48C159.104 265.218 158.006 265.704 156.998 265.704C155.108 265.704 153.776 264.282 153.776 262.428C153.776 260.574 155.108 259.188 156.944 259.188C157.898 259.188 158.852 259.62 159.464 260.232L160.292 259.008C159.428 258.09 158.078 257.676 156.872 257.676C154.01 257.676 151.994 259.746 151.994 262.446ZM161.592 262.446C161.592 265.182 163.59 267.216 166.47 267.216C167.892 267.216 169.278 266.64 170.106 265.758L169.404 264.48C168.702 265.218 167.604 265.704 166.596 265.704C164.706 265.704 163.374 264.282 163.374 262.428C163.374 260.574 164.706 259.188 166.542 259.188C167.496 259.188 168.45 259.62 169.062 260.232L169.89 259.008C169.026 258.09 167.676 257.676 166.47 257.676C163.608 257.676 161.592 259.746 161.592 262.446ZM171.995 267H173.741V263.058H175.055L177.773 267H179.843L176.441 262.266V262.23L179.483 257.892H177.503L175.019 261.564H173.741V257.892H171.995V267ZM180.418 262.428C180.418 265.2 182.614 267.216 185.332 267.216C188.032 267.216 190.228 265.2 190.228 262.428C190.228 259.674 188.032 257.676 185.314 257.676C182.614 257.676 180.418 259.674 180.418 262.428ZM182.2 262.428C182.2 260.538 183.604 259.188 185.332 259.188C187.042 259.188 188.464 260.538 188.464 262.428C188.464 264.336 187.042 265.704 185.332 265.704C183.604 265.704 182.2 264.336 182.2 262.428ZM191.954 267H193.646L194.042 261.582C194.078 261.042 194.024 260.016 194.024 260.016H194.06C194.06 260.016 194.348 260.7 194.636 261.366L196.796 265.902H198.29L200.45 261.348C200.792 260.646 201.026 260.016 201.026 260.016H201.062C201.062 260.016 201.026 261.042 201.044 261.582L201.44 267H203.132L202.34 257.892H200.432L198.056 263.04C197.822 263.598 197.552 264.264 197.552 264.264H197.516C197.516 264.264 197.264 263.58 197.012 263.04L194.69 257.892H192.746L191.954 267ZM204.761 268.818H206.147L207.713 265.11H205.877L204.761 268.818ZM214.885 267H216.631V263.058H217.945L220.663 267H222.733L219.331 262.266V262.23L222.373 257.892H220.393L217.909 261.564H216.631V257.892H214.885V267ZM223.446 264.516C223.446 266.226 224.904 267.216 226.488 267.216C227.838 267.216 228.954 266.406 229.476 265.362H229.512C229.512 265.362 229.458 265.668 229.458 266.082V267H231.096V261.24C231.096 258.936 229.782 257.676 227.496 257.676C226.218 257.676 224.832 258.144 224.094 258.756L224.796 260.034C225.534 259.512 226.452 259.152 227.352 259.152C228.486 259.152 229.35 259.656 229.35 261.15V261.33H228.882C226.992 261.33 223.446 261.654 223.446 264.516ZM225.192 264.372C225.192 262.698 227.604 262.59 228.9 262.59H229.35V262.932C229.35 264.282 228.432 265.83 226.902 265.83C225.768 265.83 225.192 265.092 225.192 264.372ZM232.794 265.884C233.55 266.604 234.738 267.216 236.142 267.216C238.014 267.216 239.634 266.262 239.634 264.39C239.634 263.22 238.914 262.536 237.996 262.248V262.212C238.716 261.906 239.328 261.276 239.328 260.142C239.328 258.522 237.978 257.676 236.25 257.676C234.81 257.676 233.784 258.144 233.082 258.666L233.73 259.836C234.432 259.314 235.152 259.044 235.944 259.044C236.952 259.044 237.564 259.512 237.564 260.358C237.564 261.276 236.862 261.672 235.836 261.672H234.882V262.932H235.998C237.276 262.932 237.87 263.436 237.87 264.318C237.87 265.308 237.024 265.812 235.98 265.812C234.882 265.812 234.018 265.164 233.604 264.732L232.794 265.884ZM240.989 264.516C240.989 266.226 242.447 267.216 244.031 267.216C245.381 267.216 246.497 266.406 247.019 265.362H247.055C247.055 265.362 247.001 265.668 247.001 266.082V267H248.639V261.24C248.639 258.936 247.325 257.676 245.039 257.676C243.761 257.676 242.375 258.144 241.637 258.756L242.339 260.034C243.077 259.512 243.995 259.152 244.895 259.152C246.029 259.152 246.893 259.656 246.893 261.15V261.33H246.425C244.535 261.33 240.989 261.654 240.989 264.516ZM242.735 264.372C242.735 262.698 245.147 262.59 246.443 262.59H246.893V262.932C246.893 264.282 245.975 265.83 244.445 265.83C243.311 265.83 242.735 265.092 242.735 264.372ZM250.175 267H252.155L254.063 263.958C254.207 263.742 254.333 263.472 254.333 263.472H254.369C254.369 263.472 254.513 263.742 254.657 263.958L256.565 267H258.545L255.431 262.32L258.365 257.892H256.367L254.675 260.664C254.549 260.898 254.369 261.204 254.369 261.204H254.333C254.333 261.204 254.171 260.898 254.045 260.664L252.353 257.892H250.355L253.289 262.32L250.175 267ZM259.309 262.446C259.309 265.182 261.307 267.216 264.187 267.216C265.609 267.216 266.995 266.64 267.823 265.758L267.121 264.48C266.419 265.218 265.321 265.704 264.313 265.704C262.423 265.704 261.091 264.282 261.091 262.428C261.091 260.574 262.423 259.188 264.259 259.188C265.213 259.188 266.167 259.62 266.779 260.232L267.607 259.008C266.743 258.09 265.393 257.676 264.187 257.676C261.325 257.676 259.309 259.746 259.309 262.446ZM269.711 267H271.457V263.058H272.771L275.489 267H277.559L274.157 262.266V262.23L277.199 257.892H275.219L272.735 261.564H271.457V257.892H269.711V267ZM278.135 262.428C278.135 265.2 280.331 267.216 283.049 267.216C285.749 267.216 287.945 265.2 287.945 262.428C287.945 259.674 285.749 257.676 283.031 257.676C280.331 257.676 278.135 259.674 278.135 262.428ZM279.917 262.428C279.917 260.538 281.321 259.188 283.049 259.188C284.759 259.188 286.181 260.538 286.181 262.428C286.181 264.336 284.759 265.704 283.049 265.704C281.321 265.704 279.917 264.336 279.917 262.428ZM289.671 267H291.363L291.759 261.582C291.795 261.042 291.741 260.016 291.741 260.016H291.777C291.777 260.016 292.065 260.7 292.353 261.366L294.513 265.902H296.007L298.167 261.348C298.509 260.646 298.743 260.016 298.743 260.016H298.779C298.779 260.016 298.743 261.042 298.761 261.582L299.157 267H300.849L300.057 257.892H298.149L295.773 263.04C295.539 263.598 295.269 264.264 295.269 264.264H295.233C295.233 264.264 294.981 263.58 294.729 263.04L292.407 257.892H290.463L289.671 267ZM21.35 295H23.024L26.966 289.564C27.254 289.132 27.704 288.52 27.758 288.358H27.794C27.794 288.502 27.74 289.132 27.74 289.564V295H29.432V285.892H27.74L23.816 291.328C23.51 291.76 23.078 292.39 23.006 292.552H22.97C22.988 292.462 23.024 291.814 23.024 291.328V285.892H21.35V295ZM35.8518 292.516C35.8518 294.226 37.3098 295.216 38.8938 295.216C40.2438 295.216 41.3598 294.406 41.8818 293.362H41.9178C41.9178 293.362 41.8638 293.668 41.8638 294.082V295H43.5018V289.24C43.5018 286.936 42.1878 285.676 39.9018 285.676C38.6238 285.676 37.2378 286.144 36.4998 286.756L37.2018 288.034C37.9398 287.512 38.8578 287.152 39.7578 287.152C40.8918 287.152 41.7558 287.656 41.7558 289.15V289.33H41.2878C39.3978 289.33 35.8518 289.654 35.8518 292.516ZM37.5978 292.372C37.5978 290.698 40.0098 290.59 41.3058 290.59H41.7558V290.932C41.7558 292.282 40.8378 293.83 39.3078 293.83C38.1738 293.83 37.5978 293.092 37.5978 292.372ZM46.0824 295H47.8284V291.094H52.4364V295H54.1824V285.892H52.4364V289.6H47.8284V285.892H46.0824V295ZM56.8754 295H58.6214V287.386H62.5814V285.892H56.8754V295ZM62.7233 295.09C65.4053 294.946 66.4493 292.822 66.4493 288.7V287.332H69.1313V295H70.8773V285.892H64.7753V288.7C64.7753 291.994 64.0553 293.326 62.7233 293.524V295.09ZM73.5746 295H75.2486L79.1906 289.564C79.4786 289.132 79.9286 288.52 79.9826 288.358H80.0186C80.0186 288.502 79.9646 289.132 79.9646 289.564V295H81.6566V285.892H79.9646L76.0406 291.328C75.7346 291.76 75.3026 292.39 75.2306 292.552H75.1946C75.2126 292.462 75.2486 291.814 75.2486 291.328V285.892H73.5746V295ZM88.3464 284.848C89.7504 284.848 91.0104 284.02 91.0104 282.544V282.274H89.6244V282.508C89.6244 283.318 88.9764 283.714 88.3464 283.714C87.7164 283.714 87.0864 283.318 87.0864 282.526V282.274H85.6824V282.544C85.6824 284.02 86.9604 284.848 88.3464 284.848ZM84.3324 295H86.0064L89.9484 289.564C90.2364 289.132 90.6864 288.52 90.7404 288.358H90.7764C90.7764 288.502 90.7224 289.132 90.7224 289.564V295H92.4144V285.892H90.7224L86.7984 291.328C86.4924 291.76 86.0604 292.39 85.9884 292.552H85.9524C85.9704 292.462 86.0064 291.814 86.0064 291.328V285.892H84.3324V295ZM94.4962 290.446C94.4962 293.182 96.4942 295.216 99.3742 295.216C100.796 295.216 102.182 294.64 103.01 293.758L102.308 292.48C101.606 293.218 100.508 293.704 99.5002 293.704C97.6102 293.704 96.2782 292.282 96.2782 290.428C96.2782 288.574 97.6102 287.188 99.4462 287.188C100.4 287.188 101.354 287.62 101.966 288.232L102.794 287.008C101.93 286.09 100.58 285.676 99.3742 285.676C96.5122 285.676 94.4962 287.746 94.4962 290.446ZM104.899 295H106.645V291.058H107.959L110.677 295H112.747L109.345 290.266V290.23L112.387 285.892H110.407L107.923 289.564H106.645V285.892H104.899V295ZM113.322 290.428C113.322 293.2 115.518 295.216 118.236 295.216C120.936 295.216 123.132 293.2 123.132 290.428C123.132 287.674 120.936 285.676 118.218 285.676C115.518 285.676 113.322 287.674 113.322 290.428ZM115.104 290.428C115.104 288.538 116.508 287.188 118.236 287.188C119.946 287.188 121.368 288.538 121.368 290.428C121.368 292.336 119.946 293.704 118.236 293.704C116.508 293.704 115.104 292.336 115.104 290.428ZM124.859 295H126.551L126.947 289.582C126.983 289.042 126.929 288.016 126.929 288.016H126.965C126.965 288.016 127.253 288.7 127.541 289.366L129.701 293.902H131.195L133.355 289.348C133.697 288.646 133.931 288.016 133.931 288.016H133.967C133.967 288.016 133.931 289.042 133.949 289.582L134.345 295H136.037L135.245 285.892H133.337L130.961 291.04C130.727 291.598 130.457 292.264 130.457 292.264H130.421C130.421 292.264 130.169 291.58 129.917 291.04L127.595 285.892H125.651L124.859 295Z" fill="#222224"/>
<g clip-path="url(#clip0)">
<path d="M717.921 308.891C733.969 308.891 746.978 306.875 746.978 304.389C746.978 301.902 733.969 299.886 717.921 299.886C701.873 299.886 688.863 301.902 688.863 304.389C688.863 306.875 701.873 308.891 717.921 308.891Z" fill="#3F3D56"/>
<path d="M923.987 323.593C1005.89 323.593 1072.28 257.11 1072.28 175.099C1072.28 93.0881 1005.89 26.6052 923.987 26.6052C842.084 26.6052 775.689 93.0881 775.689 175.099C775.689 257.11 842.084 323.593 923.987 323.593Z" fill="#F2F2F2"/>
<path d="M919.5 268C918.545 268 917.581 267.985 916.634 267.955L916.656 267.268C918.015 267.31 919.402 267.322 920.768 267.303L920.777 267.991C920.352 267.997 919.926 268 919.5 268ZM924.918 267.84L924.878 267.154C926.239 267.073 927.618 266.96 928.976 266.818L929.048 267.502C927.679 267.646 926.29 267.76 924.918 267.84H924.918ZM912.497 267.733C911.124 267.628 909.737 267.49 908.374 267.323L908.458 266.64C909.811 266.806 911.187 266.943 912.55 267.047L912.497 267.733ZM933.157 266.976L933.054 266.296C934.406 266.091 935.769 265.853 937.104 265.588L937.238 266.262C935.893 266.529 934.52 266.77 933.157 266.976H933.157ZM904.274 266.725C902.918 266.495 901.549 266.231 900.206 265.939L900.352 265.266C901.685 265.556 903.044 265.818 904.389 266.046L904.274 266.725ZM941.283 265.361L941.117 264.693C942.445 264.365 943.78 264.002 945.086 263.615L945.281 264.275C943.965 264.665 942.62 265.031 941.283 265.361ZM896.178 264.967C894.848 264.613 893.51 264.224 892.2 263.81L892.407 263.154C893.707 263.565 895.035 263.951 896.355 264.302L896.178 264.967ZM949.225 263.005L948.999 262.355C950.288 261.907 951.584 261.423 952.851 260.916L953.107 261.555C951.83 262.066 950.524 262.554 949.225 263.005H949.225ZM888.268 262.466C886.976 261.991 885.676 261.479 884.405 260.943L884.672 260.309C885.934 260.84 887.224 261.349 888.506 261.82L888.268 262.466ZM956.909 259.931L956.624 259.304C957.861 258.742 959.105 258.142 960.32 257.521L960.633 258.133C959.409 258.76 958.156 259.364 956.909 259.931H956.909ZM880.617 259.244C879.375 258.653 878.128 258.023 876.912 257.373L877.237 256.766C878.444 257.411 879.68 258.036 880.913 258.623L880.617 259.244ZM964.272 256.167L963.931 255.569C965.118 254.892 966.303 254.18 967.451 253.453L967.819 254.035C966.661 254.767 965.468 255.485 964.272 256.167ZM873.299 255.335C872.117 254.632 870.935 253.891 869.783 253.132L870.162 252.558C871.304 253.311 872.478 254.046 873.65 254.743L873.299 255.335ZM971.266 251.742L970.872 251.178C971.989 250.398 973.104 249.58 974.186 248.749L974.605 249.295C973.515 250.132 972.392 250.956 971.266 251.742ZM866.373 250.773C865.262 249.966 864.153 249.121 863.075 248.261L863.504 247.723C864.574 248.577 865.675 249.416 866.777 250.216L866.373 250.773ZM977.83 246.697L977.387 246.171C978.428 245.292 979.464 244.376 980.467 243.449L980.934 243.954C979.924 244.889 978.88 245.812 977.83 246.697ZM859.895 245.601C858.861 244.695 857.833 243.753 856.841 242.8L857.317 242.303C858.302 243.249 859.322 244.184 860.348 245.083L859.895 245.601ZM983.911 241.072L983.421 240.589C984.382 239.616 985.331 238.609 986.244 237.597L986.755 238.057C985.836 239.078 984.879 240.092 983.911 241.072ZM853.917 239.864C852.968 238.866 852.031 237.834 851.131 236.798L851.651 236.347C852.544 237.375 853.474 238.399 854.416 239.389L853.917 239.864ZM989.458 234.915L988.927 234.479C989.794 233.423 990.648 232.334 991.466 231.241L992.017 231.653C991.193 232.754 990.333 233.852 989.458 234.915ZM848.488 233.609C847.636 232.532 846.796 231.42 845.993 230.304L846.552 229.902C847.349 231.009 848.182 232.113 849.028 233.182L848.488 233.609ZM994.423 228.276L993.854 227.89C994.622 226.76 995.373 225.597 996.088 224.432L996.675 224.792C995.954 225.966 995.197 227.138 994.423 228.276ZM843.653 226.89C842.903 225.74 842.169 224.557 841.471 223.373L842.064 223.024C842.757 224.199 843.485 225.373 844.229 226.513L843.653 226.89ZM998.764 221.208L998.162 220.876C998.823 219.68 999.465 218.452 1000.07 217.226L1000.69 217.531C1000.08 218.766 999.43 220.004 998.764 221.208ZM839.453 219.761C838.811 218.548 838.189 217.303 837.604 216.062L838.226 215.768C838.807 217 839.425 218.236 840.061 219.439L839.453 219.761ZM1002.44 213.768L1001.81 213.492C1002.36 212.24 1002.88 210.957 1003.37 209.68L1004.02 209.927C1003.52 211.214 1002.99 212.506 1002.44 213.768ZM835.926 212.283C835.398 211.017 834.893 209.722 834.424 208.433L835.071 208.197C835.536 209.477 836.038 210.762 836.561 212.019L835.926 212.283ZM1005.42 206.015L1004.76 205.799C1005.19 204.505 1005.6 203.182 1005.97 201.867L1006.63 202.053C1006.26 203.378 1005.85 204.711 1005.42 206.015V206.015ZM833.099 204.507C832.689 203.195 832.304 201.856 831.955 200.524L832.621 200.349C832.967 201.671 833.349 203 833.755 204.302L833.099 204.507ZM1007.66 198.04L1006.99 197.884C1007.3 196.557 1007.58 195.203 1007.83 193.858L1008.5 193.982C1008.25 195.338 1007.97 196.702 1007.66 198.04V198.04ZM830.997 196.493C830.71 195.149 830.45 193.78 830.225 192.422L830.904 192.309C831.127 193.657 831.385 195.015 831.67 196.349L830.997 196.493ZM1009.16 189.892L1008.48 189.798C1008.66 188.451 1008.82 187.076 1008.94 185.713L1009.63 185.775C1009.5 187.149 1009.34 188.534 1009.16 189.892V189.892ZM829.64 188.321C829.478 186.958 829.345 185.571 829.244 184.197L829.931 184.146C830.03 185.51 830.163 186.887 830.324 188.239L829.64 188.321ZM1009.91 181.642L1009.22 181.611C1009.28 180.247 1009.31 178.864 1009.31 177.5H1010C1010 178.874 1009.97 180.268 1009.91 181.642V181.642ZM829.036 180.058C829.012 179.214 829 178.354 829 177.5C829 176.97 829.005 176.442 829.014 175.914L829.702 175.926C829.693 176.45 829.688 176.974 829.688 177.5C829.688 178.347 829.7 179.202 829.723 180.039L829.036 180.058ZM1009.31 176.54C1009.29 175.175 1009.25 173.792 1009.17 172.429L1009.86 172.391C1009.93 173.765 1009.98 175.158 1009.99 176.533L1009.31 176.54ZM829.865 171.818L829.178 171.775C829.264 170.4 829.383 169.011 829.53 167.647L830.215 167.721C830.068 169.075 829.95 170.453 829.865 171.818ZM1008.85 168.33C1008.71 166.973 1008.54 165.601 1008.34 164.25L1009.02 164.149C1009.22 165.511 1009.4 166.894 1009.53 168.261L1008.85 168.33ZM830.75 163.644L830.07 163.539C830.281 162.178 830.526 160.805 830.798 159.46L831.473 159.596C831.203 160.931 830.96 162.293 830.75 163.644ZM1007.65 160.198C1007.38 158.855 1007.09 157.504 1006.77 156.181L1007.43 156.019C1007.76 157.351 1008.06 158.713 1008.32 160.066L1007.65 160.198ZM832.381 155.586L831.713 155.419C832.047 154.086 832.417 152.742 832.813 151.424L833.472 151.622C833.08 152.93 832.712 154.264 832.381 155.586ZM1005.7 152.209C1005.32 150.899 1004.9 149.581 1004.46 148.291L1005.11 148.067C1005.55 149.367 1005.98 150.695 1006.36 152.016L1005.7 152.209ZM834.75 147.702L834.1 147.473C834.558 146.172 835.052 144.865 835.568 143.588L836.206 143.846C835.694 145.113 835.203 146.411 834.75 147.702H834.75ZM1003.03 144.434C1002.53 143.168 1001.99 141.897 1001.43 140.656L1002.06 140.374C1002.62 141.624 1003.16 142.905 1003.67 144.181L1003.03 144.434ZM837.839 140.063L837.213 139.776C837.788 138.524 838.4 137.269 839.032 136.045L839.643 136.361C839.016 137.575 838.409 138.821 837.839 140.063ZM999.661 136.954C999.045 135.739 998.392 134.522 997.721 133.336L998.32 132.997C998.997 134.192 999.654 135.419 1000.27 136.643L999.661 136.954ZM841.616 132.746L841.019 132.402C841.706 131.21 842.43 130.017 843.171 128.856L843.751 129.226C843.016 130.379 842.297 131.563 841.616 132.746ZM995.618 129.809C994.891 128.651 994.129 127.498 993.355 126.381L993.92 125.989C994.7 127.114 995.468 128.276 996.2 129.443L995.618 129.809ZM846.046 125.809L845.483 125.413C846.276 124.287 847.106 123.166 847.949 122.079L848.493 122.501C847.656 123.579 846.833 124.692 846.046 125.809ZM990.936 123.059C990.107 121.973 989.243 120.893 988.369 119.849L988.896 119.407C989.777 120.459 990.648 121.547 991.483 122.641L990.936 123.059ZM851.088 119.309L850.564 118.862C851.454 117.817 852.382 116.776 853.322 115.769L853.825 116.238C852.893 117.238 851.972 118.271 851.088 119.309ZM985.657 116.759C984.733 115.753 983.774 114.756 982.808 113.795L983.293 113.307C984.267 114.275 985.233 115.28 986.164 116.294L985.657 116.759ZM856.698 113.296L856.217 112.804C857.201 111.842 858.22 110.89 859.244 109.975L859.702 110.489C858.686 111.396 857.675 112.341 856.698 113.296ZM979.826 110.963C978.813 110.044 977.767 109.138 976.717 108.27L977.156 107.739C978.213 108.614 979.267 109.528 980.288 110.454L979.826 110.963ZM862.83 107.821L862.395 107.287C863.46 106.421 864.56 105.566 865.665 104.746L866.075 105.299C864.978 106.112 863.886 106.961 862.83 107.821ZM973.488 105.72C972.395 104.896 971.27 104.089 970.145 103.319L970.534 102.751C971.667 103.527 972.801 104.34 973.902 105.17L973.488 105.72ZM869.43 102.929L869.046 102.358C870.186 101.591 871.358 100.841 872.532 100.126L872.89 100.715C871.725 101.423 870.561 102.168 869.43 102.929ZM966.695 101.074C965.532 100.354 964.338 99.6521 963.146 98.9878L963.48 98.3866C964.682 99.056 965.885 99.7632 967.058 100.488L966.695 101.074ZM876.446 98.6613L876.116 98.0574C877.321 97.398 878.557 96.7581 879.789 96.1554L880.091 96.7738C878.869 97.3717 877.642 98.0067 876.446 98.6613L876.446 98.6613ZM959.503 97.0668C958.279 96.4567 957.024 95.8673 955.775 95.315L956.053 94.6856C957.312 95.2421 958.576 95.836 959.81 96.4508L959.503 97.0668ZM883.817 95.0557L883.544 94.4243C884.803 93.8784 886.092 93.3549 887.373 92.8681L887.617 93.5116C886.346 93.9945 885.067 94.5141 883.817 95.0557ZM951.968 93.7363C950.694 93.2421 949.39 92.7707 948.092 92.3352L948.311 91.6826C949.619 92.1216 950.933 92.5966 952.217 93.0948L951.968 93.7363ZM891.494 92.1408L891.28 91.4868C892.587 91.058 893.922 90.6543 895.246 90.2872L895.43 90.9502C894.116 91.3146 892.792 91.7152 891.494 92.1408ZM944.164 91.1175C942.852 90.7433 941.513 90.3949 940.185 90.0818L940.343 89.4121C941.681 89.7275 943.03 90.0786 944.353 90.4555L944.164 91.1175ZM899.416 89.9422L899.263 89.2713C900.604 88.965 901.969 88.6859 903.322 88.4419L903.444 89.1191C902.102 89.3614 900.747 89.6383 899.416 89.9422ZM936.162 89.231C934.822 88.9794 933.457 88.7557 932.105 88.5658L932.2 87.8843C933.563 88.0757 934.939 88.3011 936.289 88.5545L936.162 89.231ZM907.507 88.4821L907.416 87.7999C908.778 87.6181 910.163 87.4652 911.533 87.346L911.593 88.0315C910.234 88.1501 908.859 88.3017 907.507 88.4821ZM928.021 88.0873C926.665 87.9596 925.286 87.8611 923.92 87.7951L923.953 87.1075C925.329 87.1742 926.72 87.2734 928.086 87.4021L928.021 88.0873ZM915.697 87.7675L915.668 87.08C916.933 87.0272 918.222 87.0003 919.5 87L919.812 87.0005L919.809 87.6887L919.5 87.6882C918.232 87.6885 916.952 87.7153 915.697 87.7675Z" fill="#3F3D56"/>
<path d="M734.729 280.362C731.02 294.092 718.315 302.595 718.315 302.595C718.315 302.595 711.624 288.838 715.334 275.108C719.043 261.379 731.748 252.876 731.748 252.876C731.748 252.876 738.438 266.633 734.729 280.362Z" fill="#F04B5D"/>
<path d="M700.986 280.362C704.695 294.092 717.4 302.595 717.4 302.595C717.4 302.595 724.091 288.838 720.382 275.108C716.673 261.379 703.968 252.876 703.968 252.876C703.968 252.876 697.277 266.633 700.986 280.362Z" fill="#F04B5D"/>
<path d="M706.437 277.411C716.615 287.332 717.858 302.583 717.858 302.583C717.858 302.583 702.599 301.749 692.421 291.828C682.243 281.907 681 266.656 681 266.656C681 266.656 696.259 267.49 706.437 277.411Z" fill="#3F3D56"/>
<path d="M729.279 277.411C719.101 287.332 717.858 302.583 717.858 302.583C717.858 302.583 733.116 301.749 743.294 291.828C753.472 281.907 754.716 266.656 754.716 266.656C754.716 266.656 739.457 267.49 729.279 277.411Z" fill="#3F3D56"/>
<path d="M1048.05 361C1068.82 361 1085.66 358.391 1085.66 355.173C1085.66 351.954 1068.82 349.345 1048.05 349.345C1027.28 349.345 1010.44 351.954 1010.44 355.173C1010.44 358.391 1027.28 361 1048.05 361Z" fill="#3F3D56"/>
<path d="M1069.8 324.075C1065 341.845 1048.56 352.85 1048.56 352.85C1048.56 352.85 1039.9 335.045 1044.7 317.275C1049.5 299.505 1065.94 288.499 1065.94 288.499C1065.94 288.499 1074.6 306.305 1069.8 324.075Z" fill="#F04B5D"/>
<path d="M1026.13 324.075C1030.93 341.845 1047.37 352.85 1047.37 352.85C1047.37 352.85 1056.03 335.045 1051.23 317.275C1046.43 299.505 1029.99 288.499 1029.99 288.499C1029.99 288.499 1021.33 306.305 1026.13 324.075Z" fill="#F04B5D"/>
<path d="M1033.18 320.256C1046.36 333.097 1047.97 352.836 1047.97 352.836C1047.97 352.836 1028.22 351.756 1015.04 338.916C1001.87 326.075 1000.26 306.335 1000.26 306.335C1000.26 306.335 1020.01 307.415 1033.18 320.256Z" fill="#3F3D56"/>
<path d="M1062.75 320.256C1049.58 333.097 1047.97 352.836 1047.97 352.836C1047.97 352.836 1067.72 351.756 1080.89 338.916C1094.06 326.075 1095.67 306.335 1095.67 306.335C1095.67 306.335 1075.92 307.415 1062.75 320.256Z" fill="#3F3D56"/>
<path d="M862.62 339.694C922.129 339.694 970.37 332.219 970.37 322.999C970.37 313.778 922.129 306.303 862.62 306.303C803.111 306.303 754.87 313.778 754.87 322.999C754.87 332.219 803.111 339.694 862.62 339.694Z" fill="#3F3D56"/>
<path d="M914.052 109.86C918.119 109.86 921.416 106.559 921.416 102.486C921.416 98.4131 918.119 95.1116 914.052 95.1116C909.985 95.1116 906.688 98.4131 906.688 102.486C906.688 106.559 909.985 109.86 914.052 109.86Z" fill="#2F2E41"/>
<path d="M906.161 99.3252C906.162 97.5064 906.833 95.7519 908.047 94.3987C909.261 93.0456 910.931 92.1894 912.737 91.9945C911.708 91.882 910.668 91.9878 909.683 92.3049C908.698 92.622 907.791 93.1434 907.021 93.835C906.25 94.5266 905.634 95.373 905.213 96.3189C904.791 97.2649 904.573 98.2892 904.573 99.3252C904.573 100.361 904.791 101.385 905.213 102.331C905.634 103.277 906.25 104.124 907.021 104.815C907.791 105.507 908.698 106.028 909.683 106.345C910.668 106.663 911.708 106.768 912.737 106.656C910.931 106.461 909.261 105.605 908.047 104.252C906.833 102.899 906.162 101.144 906.161 99.3252Z" fill="#2F2E41"/>
<path d="M906.688 102.486C906.688 102.486 905.544 107.753 912.691 109.86L906.688 102.486Z" fill="#F04B5D"/>
<path d="M917.098 152.575C930.752 152.575 941.821 141.491 941.821 127.819C941.821 114.146 930.752 103.062 917.098 103.062C903.443 103.062 892.374 114.146 892.374 127.819C892.374 141.491 903.443 152.575 917.098 152.575Z" fill="#2F2E41"/>
<path d="M893.226 205.04L892.341 223.65L934.822 237.829C934.822 237.829 932.609 214.345 933.937 212.129L893.226 205.04Z" fill="#A0616A"/>
<path d="M824.195 287.898L820.213 303.406H838.798V287.898H824.195Z" fill="#A0616A"/>
<path d="M920.662 292.021L929.069 294.987L933.494 283.862L925.972 277.928L920.662 292.021Z" fill="#A0616A"/>
<path d="M935.56 272.71C935.56 272.71 948.097 271.06 948.097 281.695C948.097 292.329 949.867 318.471 932.167 315.37C932.167 315.37 924.201 316.256 927.299 306.951C927.299 306.951 930.452 303.166 929.318 300.849C928.184 298.532 921.546 296.76 922.431 295.43C923.316 294.101 933.052 283.467 933.052 283.467L935.56 272.71Z" fill="#2F2E41"/>
<path d="M935.707 235.613L892.341 220.548L889.686 231.182C889.686 231.182 824.638 193.519 820.655 219.219C820.655 219.219 817.115 240.044 822.425 267.516L822.868 289.67C822.868 289.67 833.93 292.329 839.24 290.113L839.683 266.186C839.683 266.186 844.108 250.678 841.895 238.715C841.895 238.715 875.083 264.857 890.128 267.959C890.128 267.959 837.47 308.723 843.665 321.573C849.86 334.423 857.383 336.638 867.118 334.423C873.827 332.896 903.862 308.643 921.887 293.712C934.353 283.386 941.432 267.794 940.544 251.619C940.222 245.741 938.867 240.044 935.707 235.613Z" fill="#2F2E41"/>
<path d="M823.31 297.646C823.31 297.646 822.868 292.329 820.213 294.544C817.558 296.76 808.265 305.179 808.265 305.179C808.265 305.179 774.634 314.041 794.99 322.459C794.99 322.459 808.265 325.118 822.425 318.915C822.425 318.915 845.042 319.563 844.575 313.922C844.108 308.28 838.798 298.859 838.798 298.859C838.798 298.859 832.603 303.406 825.523 297.203L823.31 297.646Z" fill="#2F2E41"/>
<path d="M910.926 154.084C919.969 154.084 927.299 146.744 927.299 137.69C927.299 128.635 919.969 121.295 910.926 121.295C901.884 121.295 894.554 128.635 894.554 137.69C894.554 146.744 901.884 154.084 910.926 154.084Z" fill="#A0616A"/>
<path d="M901.104 136.997C901.104 136.997 899.312 137.293 898.17 137.207C897.032 137.121 896.626 135.417 896.626 135.417" stroke="#222224"/>
<path d="M912.998 141.425C912.998 141.425 910.959 141.602 909.626 141.425C908.298 141.248 907.626 139.417 907.626 139.417" stroke="#222224"/>
<path d="M924.201 138.576C924.201 138.576 926.857 151.869 931.724 154.97L904.731 186.873L894.554 177.125L902.076 163.832C902.076 163.832 910.484 158.958 907.829 152.312L924.201 138.576Z" fill="#A0616A"/>
<path d="M933.937 156.3C933.937 156.3 953.407 160.287 955.619 173.137C957.832 185.987 953.407 209.471 953.407 209.471L944.114 278.593C944.114 278.593 943.672 307.837 932.167 302.963C920.661 298.089 935.264 275.934 935.264 275.934L939.247 232.511C939.247 232.511 941.017 195.735 937.477 191.304L923.316 186.873C923.316 186.873 926.414 157.629 933.937 156.3Z" fill="#A0616A"/>
<path d="M902.076 163.832C902.076 163.832 888.801 163.389 880.393 174.023C871.986 184.658 851.631 192.633 851.631 192.633L800.742 212.572C800.742 212.572 791.45 196.178 785.697 201.938C779.945 207.698 796.317 222.32 803.84 220.548C811.363 218.776 856.941 205.04 856.941 205.04L893.226 188.645L902.076 163.832Z" fill="#A0616A"/>
<path d="M931.038 153.915C931.038 153.915 914.024 176.682 906.501 176.239C898.979 175.796 904.045 162.333 904.045 162.333L898.735 163.663C898.735 163.663 891.456 177.568 890.571 178.454C890.571 178.454 879.951 195.735 891.899 199.723L892.341 209.028C892.341 209.028 921.989 207.698 934.822 214.345L937.477 191.304C937.477 191.304 920.661 182.885 929.954 166.491C929.954 166.491 933.251 157.902 936.791 157.016L931.038 153.915Z" fill="#D0CDE1"/>
<path opacity="0.1" d="M935.485 275.713L867.782 325.339C867.782 325.339 935.928 285.018 935.485 275.713Z" fill="black"/>
<path d="M911.816 118.446C903.1 118.446 896.035 122.573 896.035 127.664C896.035 129.942 897.455 132.024 899.799 133.632L902.837 131.428L902.011 134.881C902.354 135.04 902.704 135.194 903.069 135.336L907.607 130.034V136.548C908.999 136.771 910.406 136.883 911.816 136.882C920.531 136.882 927.597 132.755 927.597 127.664C927.597 122.573 920.531 118.446 911.816 118.446Z" fill="#2F2E41"/>
<path d="M944.142 121.38C948.21 121.38 951.507 118.079 951.507 114.006C951.507 109.933 948.21 106.632 944.142 106.632C940.075 106.632 936.778 109.933 936.778 114.006C936.778 118.079 940.075 121.38 944.142 121.38Z" fill="#2F2E41"/>
<path d="M936.252 110.846C936.252 109.027 936.924 107.272 938.137 105.919C939.351 104.566 941.021 103.71 942.827 103.515C941.799 103.403 940.758 103.508 939.773 103.825C938.788 104.143 937.881 104.664 937.111 105.356C936.341 106.047 935.725 106.893 935.303 107.839C934.881 108.785 934.663 109.81 934.663 110.846C934.663 111.882 934.881 112.906 935.303 113.852C935.725 114.798 936.341 115.644 937.111 116.336C937.881 117.028 938.788 117.549 939.773 117.866C940.758 118.183 941.799 118.289 942.827 118.176C941.021 117.982 939.351 117.125 938.137 115.772C936.924 114.419 936.252 112.664 936.252 110.846Z" fill="#2F2E41"/>
<path d="M936.778 114.006C936.778 114.006 935.634 119.273 942.782 121.38L936.778 114.006Z" fill="#F04B5D"/>
<path d="M927.963 139.24C928.669 139.24 929.241 137.951 929.241 136.36C929.241 134.77 928.669 133.48 927.963 133.48C927.257 133.48 926.684 134.77 926.684 136.36C926.684 137.951 927.257 139.24 927.963 139.24Z" fill="#A0616A"/>
<path d="M786.874 147.502L767.47 152.21L767.407 152.225L765.298 154.137L764.691 154.686L763.389 154.45L761.085 154.033L762.691 148.608L762.992 138.258L761.888 131.928L768.009 127.708C768.009 127.708 779.95 127.005 786.874 147.502Z" fill="#D0CDE1"/>
<path opacity="0.1" d="M767.47 152.21C767.207 152.771 767.758 152.401 767.457 152.978L764.648 153.883L763.389 154.45L761.085 154.033L762.691 148.608L762.992 138.259L761.888 131.929L768.009 127.708C768.009 127.708 774.579 137.025 767.47 152.21Z" fill="black"/>
<path d="M809.752 132.632C809.752 132.632 784.265 144.488 773.929 146.297C763.594 148.105 764.497 158.454 764.497 158.454L822.395 149.412C822.395 149.412 820.388 140.067 809.752 132.632Z" fill="#D0CDE1"/>
<path d="M760.584 130.623C760.584 130.623 764.999 141.373 760.082 154.737L765.802 157.349L768.009 154.737L768.059 154.486L761.988 153.933C761.988 153.933 767.006 140.469 762.892 131.125C762.892 131.125 761.988 129.115 760.584 130.623Z" fill="#F04B5D"/>
<path d="M844.772 210.3C822.194 205.276 801.173 215.676 801.173 215.676L801.115 215.624L792.744 208.14L760.032 154.687L768.009 154.737C790.185 141.474 821.392 143.283 821.392 143.283C834.838 158.555 844.772 210.3 844.772 210.3Z" fill="#F04B5D"/>
<path opacity="0.1" d="M801.115 215.624L792.744 208.14L760.032 154.687L768.009 154.737C768.009 154.737 799.804 196.785 801.115 215.624Z" fill="black"/>
<path d="M804.789 173.917C811.624 171.818 816.084 166.59 814.752 162.239C813.419 157.889 806.799 156.064 799.964 158.163C793.129 160.262 788.669 165.491 790.001 169.841C791.334 174.191 797.955 176.016 804.789 173.917Z" fill="#D0CDE1"/>
<path d="M866.667 318.269C902.684 303.787 944.291 275.532 982.912 236.912C1021.53 198.291 1049.79 156.684 1064.27 120.667C1071.51 102.657 1075.29 86.0917 1075.23 72.0234C1075.18 57.9612 1071.29 46.4674 1063.28 38.458C1055.28 30.4782 1043.8 26.6092 1029.74 26.5616C1015.67 26.514 999.108 30.2951 981.096 37.5332C945.078 52.0079 903.459 80.2328 864.825 118.825C864.825 118.825 864.825 118.825 864.825 118.825M866.667 318.269L1063.99 37.7505C1096.99 70.7498 1061 160.234 983.619 237.619C906.234 315.004 816.75 350.986 783.751 317.986C750.751 284.987 786.733 195.503 864.118 118.118L864.825 118.825M866.667 318.269C848.657 325.511 832.092 329.29 818.023 329.233C803.961 329.175 792.467 325.289 784.458 317.279C776.448 309.27 772.561 297.776 772.504 283.713C772.447 269.645 776.226 253.08 783.468 235.07C797.95 199.053 826.204 157.446 864.825 118.825M866.667 318.269L864.825 118.825" stroke="#DF1515" stroke-width="2"/>
<circle cx="1075" cy="70" r="7" fill="#2D7EEC"/>
</g>
<defs>
<clipPath id="clip0">
<rect x="681" width="416" height="361" fill="white"/>
</clipPath>
</defs>
</svg>
