<svg width="386" height="139" viewBox="0 0 386 139" fill="none" xmlns="http://www.w3.org/2000/svg">
<path d="M0.504 23H6.136L6.84 12.696C6.968 10.968 6.84 8.856 6.84 8.856H6.904C6.904 8.856 7.672 11.256 8.184 12.696L10.584 19.32H15.384L17.784 12.696C18.296 11.256 19.064 8.856 19.064 8.856H19.128C19.128 8.856 19 10.968 19.128 12.696L19.832 23H25.432L23.576 0.119999H17.496L14.168 9.784C13.656 11.256 13.016 13.56 13.016 13.56H12.952C12.952 13.56 12.312 11.256 11.8 9.784L8.472 0.119999H2.392L0.504 23ZM27.6155 14.744C27.6155 19.128 30.7835 23.384 36.6715 23.384C39.1995 23.384 41.9195 22.52 43.7115 20.984L41.6635 17.112C40.3195 18.008 38.7515 18.776 37.1195 18.776C35.3595 18.776 33.6955 17.848 33.2795 15.832H43.6795C43.7435 15.256 43.8075 14.68 43.8075 14.104C43.8075 9.528 41.0555 6.136 36.1915 6.136C30.8795 6.136 27.6155 9.912 27.6155 14.744ZM33.4075 12.664C33.6955 11.352 34.4635 10.2 36.0635 10.2C37.4715 10.2 38.3355 11.32 38.3355 12.664H33.4075ZM45.0678 23H51.0518L53.9958 17.016H55.6278V23H60.7798V17.016H62.4438L65.3878 23H71.3718L66.7318 14.488V14.424L71.0198 6.52H65.3238L62.2838 12.376H60.7798V6.52H55.6278V12.376H54.1558L51.1158 6.52H45.4198L49.7078 14.424V14.488L45.0678 23ZM79.5298 18.616C80.6818 16.408 81.0017 14.008 81.0017 11.512V10.904H83.8498V18.616H79.5298ZM72.0418 18.616V26.84H77.1618V23H86.8258V26.84H91.7538V18.616H89.3858V6.52H75.7858V10.488C75.7858 13.816 75.1778 16.76 74.0898 18.616H72.0418ZM93.9535 24.504L92.1935 28.568C92.1935 28.568 93.8575 29.72 96.0335 29.72C98.6575 29.72 101.538 28.44 102.914 24.76L109.666 6.52H103.618L101.538 14.2C101.314 15.096 100.994 16.664 100.994 16.664H100.93C100.93 16.664 100.61 15 100.322 14.104L97.8895 6.52H91.6175L98.6255 22.68L98.3055 23.448C97.7295 24.856 96.5455 25.112 95.6495 25.112C94.8495 25.112 93.9535 24.504 93.9535 24.504ZM119.731 23H125.267V11.16H130.163V23H135.699V6.52H119.731V23ZM139.419 29.4H144.955V23.224C144.955 22.392 144.891 21.816 144.891 21.816H144.955C146.139 22.84 147.611 23.384 149.147 23.384C153.531 23.384 156.827 19.992 156.827 14.776C156.827 9.656 153.883 6.136 149.403 6.136C147.419 6.136 145.531 6.904 144.411 8.408H144.347C144.347 8.408 144.411 7.896 144.411 7.352V6.52H139.419V29.4ZM144.795 14.872C144.795 12.024 146.363 10.808 148.027 10.808C149.947 10.808 151.259 12.408 151.259 14.872C151.259 17.4 149.755 18.808 148.027 18.808C145.851 18.808 144.795 16.856 144.795 14.872ZM158.741 14.744C158.741 19.128 161.909 23.384 167.797 23.384C170.325 23.384 173.045 22.52 174.837 20.984L172.789 17.112C171.445 18.008 169.877 18.776 168.245 18.776C166.485 18.776 164.821 17.848 164.405 15.832H174.805C174.869 15.256 174.933 14.68 174.933 14.104C174.933 9.528 172.181 6.136 167.317 6.136C162.005 6.136 158.741 9.912 158.741 14.744ZM164.533 12.664C164.821 11.352 165.589 10.2 167.189 10.2C168.597 10.2 169.461 11.32 169.461 12.664H164.533ZM177.825 23H183.361V11.16H188.257V23H193.793V6.52H177.825V23ZM196.584 14.808C196.584 19.96 200.744 23.384 205.928 23.384C211.112 23.384 215.272 19.96 215.272 14.808C215.272 9.624 211.112 6.136 205.896 6.136C200.744 6.136 196.584 9.624 196.584 14.808ZM202.184 14.808C202.184 12.312 203.912 10.744 205.928 10.744C207.944 10.744 209.672 12.312 209.672 14.808C209.672 17.272 207.944 18.776 205.928 18.776C203.912 18.776 202.184 17.272 202.184 14.808ZM223.811 18.616C224.963 16.408 225.283 14.008 225.283 11.512V10.904H228.131V18.616H223.811ZM216.323 18.616V26.84H221.443V23H231.107V26.84H236.035V18.616H233.667V6.52H220.067V10.488C220.067 13.816 219.459 16.76 218.371 18.616H216.323ZM237.391 18.36C237.391 21.208 239.599 23.384 242.767 23.384C244.655 23.384 246.575 22.52 247.663 20.984H247.727C247.727 20.984 247.663 21.464 247.663 22.008V23H252.719V12.856C252.719 8.664 249.903 6.136 245.359 6.136C242.671 6.136 239.791 7.192 238.383 8.28L240.303 12.184C241.615 11.32 243.247 10.616 244.847 10.616C246.063 10.616 247.183 11.064 247.183 12.44V12.728H246.703C242.639 12.728 237.391 13.944 237.391 18.36ZM242.863 17.848C242.863 16.344 245.039 15.896 246.735 15.896H247.247V16.344C247.247 17.688 246.031 19.256 244.431 19.256C243.407 19.256 242.863 18.616 242.863 17.848ZM256.231 23H265.223C268.487 23 271.495 21.72 271.495 18.104C271.495 16.664 270.791 15.032 268.903 14.456V14.424C270.151 13.688 270.823 12.216 270.823 10.84C270.823 7.992 268.519 6.52 265.223 6.52H256.231V23ZM261.767 13.016V9.944H263.783C264.871 9.944 265.319 10.616 265.319 11.384C265.319 12.248 264.871 13.016 263.847 13.016H261.767ZM261.767 19.544V16.248H264.231C265.415 16.248 265.959 17.016 265.959 17.912C265.959 18.744 265.383 19.544 264.199 19.544H261.767ZM273.172 18.36C273.172 21.208 275.38 23.384 278.548 23.384C280.436 23.384 282.356 22.52 283.444 20.984H283.508C283.508 20.984 283.444 21.464 283.444 22.008V23H288.5V12.856C288.5 8.664 285.684 6.136 281.14 6.136C278.452 6.136 275.572 7.192 274.164 8.28L276.084 12.184C277.396 11.32 279.028 10.616 280.628 10.616C281.844 10.616 282.964 11.064 282.964 12.44V12.728H282.484C278.42 12.728 273.172 13.944 273.172 18.36ZM278.644 17.848C278.644 16.344 280.82 15.896 282.516 15.896H283.028V16.344C283.028 17.688 281.812 19.256 280.212 19.256C279.188 19.256 278.644 18.616 278.644 17.848ZM295.628 23H301.164V11.16H306.188V6.52H290.636V11.16H295.628V23ZM307.397 14.744C307.397 19.128 310.565 23.384 316.453 23.384C318.981 23.384 321.701 22.52 323.493 20.984L321.445 17.112C320.101 18.008 318.533 18.776 316.901 18.776C315.141 18.776 313.477 17.848 313.061 15.832H323.461C323.525 15.256 323.589 14.68 323.589 14.104C323.589 9.528 320.837 6.136 315.973 6.136C310.661 6.136 307.397 9.912 307.397 14.744ZM313.189 12.664C313.477 11.352 314.245 10.2 315.845 10.2C317.253 10.2 318.117 11.32 318.117 12.664H313.189ZM325.14 23.16C331.54 23.16 333.46 18.552 333.46 11.832V10.904H336.212V23H341.748V6.52H328.244V11.8C328.244 17.464 326.612 18.136 325.14 18.328V23.16ZM344.522 14.744C344.522 19.128 347.69 23.384 353.578 23.384C356.106 23.384 358.826 22.52 360.618 20.984L358.57 17.112C357.226 18.008 355.658 18.776 354.026 18.776C352.266 18.776 350.602 17.848 350.186 15.832H360.586C360.65 15.256 360.714 14.68 360.714 14.104C360.714 9.528 357.962 6.136 353.098 6.136C347.786 6.136 344.522 9.912 344.522 14.744ZM350.314 12.664C350.602 11.352 351.37 10.2 352.97 10.2C354.378 10.2 355.242 11.32 355.242 12.664H350.314ZM362.902 23H368.182L368.566 15.416C368.63 14.136 368.534 12.6 368.534 12.6H368.598C368.598 12.6 369.206 13.976 369.558 15.032L371.734 20.792H376.214L378.39 15.032C378.806 14.008 379.286 12.6 379.286 12.6H379.35C379.35 12.6 379.286 14.136 379.318 15.416L379.702 23H385.014L383.446 6.52H377.078L374.646 13.752C374.358 14.584 373.974 15.672 373.974 15.672H373.942C373.942 15.672 373.59 14.584 373.302 13.752L370.87 6.52H364.47L362.902 23ZM0.856 61H6.232L10.808 53.768C11.064 53.32 11.416 52.808 11.704 52.136H11.768C11.704 52.776 11.704 53.416 11.704 53.8V61H16.92V44.52H11.544L6.968 51.784C6.68 52.264 6.36 52.744 6.072 53.416H6.008C6.04 53 6.072 52.36 6.072 51.784V44.52H0.856V61ZM28.7973 62.504L27.0373 66.568C27.0373 66.568 28.7013 67.72 30.8773 67.72C33.5013 67.72 36.3813 66.44 37.7573 62.76L44.5093 44.52H38.4613L36.3813 52.2C36.1573 53.096 35.8373 54.664 35.8373 54.664H35.7733C35.7733 54.664 35.4533 53 35.1653 52.104L32.7333 44.52H26.4612L33.4693 60.68L33.1493 61.448C32.5733 62.856 31.3893 63.112 30.4933 63.112C29.6933 63.112 28.7973 62.504 28.7973 62.504ZM51.3108 55.944C53.3268 55.944 54.7988 55.496 55.7268 55.08H55.7908C55.7908 55.08 55.7588 55.496 55.7588 55.848V61H61.2948V44.52H55.7588V50.632C55.2148 51.016 54.3828 51.432 53.2628 51.432C51.8868 51.432 51.1508 50.632 51.1508 49.224V44.52H45.7108V50.28C45.7108 54.6 48.6548 55.944 51.3108 55.944ZM64.0843 52.744C64.0843 57.128 67.2523 61.384 73.1403 61.384C75.6683 61.384 78.3883 60.52 80.1803 58.984L78.1323 55.112C76.7883 56.008 75.2203 56.776 73.5883 56.776C71.8283 56.776 70.1643 55.848 69.7483 53.832H80.1483C80.2123 53.256 80.2763 52.68 80.2763 52.104C80.2763 47.528 77.5243 44.136 72.6603 44.136C67.3483 44.136 64.0843 47.912 64.0843 52.744ZM69.8763 50.664C70.1643 49.352 70.9323 48.2 72.5323 48.2C73.9403 48.2 74.8043 49.32 74.8043 50.664H69.8763ZM83.1685 61H88.7045V54.984H93.7925V61H99.3285V44.52H93.7925V50.344H88.7045V44.52H83.1685V61ZM103.044 61H108.42L112.996 53.768C113.252 53.32 113.604 52.808 113.892 52.136H113.956C113.892 52.776 113.892 53.416 113.892 53.8V61H119.108V44.52H113.732L109.156 51.784C108.868 52.264 108.548 52.744 108.26 53.416H108.196C108.228 53 108.26 52.36 108.26 51.784V44.52H103.044V61ZM122.825 61H128.361V54.952H130.089L133.577 61H139.881L134.377 52.424V52.36L139.209 44.52H133.193L129.929 50.312H128.361V44.52H122.825V61ZM140.116 52.808C140.116 57.96 144.276 61.384 149.46 61.384C154.644 61.384 158.804 57.96 158.804 52.808C158.804 47.624 154.644 44.136 149.428 44.136C144.276 44.136 140.116 47.624 140.116 52.808ZM145.716 52.808C145.716 50.312 147.444 48.744 149.46 48.744C151.476 48.744 153.204 50.312 153.204 52.808C153.204 55.272 151.476 56.776 149.46 56.776C147.444 56.776 145.716 55.272 145.716 52.808ZM160.871 61H166.151L166.535 53.416C166.599 52.136 166.503 50.6 166.503 50.6H166.567C166.567 50.6 167.175 51.976 167.527 53.032L169.703 58.792H174.183L176.359 53.032C176.775 52.008 177.255 50.6 177.255 50.6H177.319C177.319 50.6 177.255 52.136 177.287 53.416L177.671 61H182.983L181.415 44.52H175.047L172.615 51.752C172.327 52.584 171.943 53.672 171.943 53.672H171.911C171.911 53.672 171.559 52.584 171.271 51.752L168.839 44.52H162.439L160.871 61ZM200.061 56.616C201.213 54.408 201.533 52.008 201.533 49.512V48.904H204.381V56.616H200.061ZM192.573 56.616V64.84H197.693V61H207.357V64.84H212.285V56.616H209.917V44.52H196.317V48.488C196.317 51.816 195.709 54.76 194.621 56.616H192.573ZM213.709 52.808C213.709 57.96 217.869 61.384 223.053 61.384C228.237 61.384 232.397 57.96 232.397 52.808C232.397 47.624 228.237 44.136 223.021 44.136C217.869 44.136 213.709 47.624 213.709 52.808ZM219.309 52.808C219.309 50.312 221.037 48.744 223.053 48.744C225.069 48.744 226.797 50.312 226.797 52.808C226.797 55.272 225.069 56.776 223.053 56.776C221.037 56.776 219.309 55.272 219.309 52.808ZM233.484 61.16C239.884 61.16 241.804 56.552 241.804 49.832V48.904H244.556V61H250.092V44.52H236.588V49.8C236.588 55.464 234.956 56.136 233.484 56.328V61.16ZM252.162 61H258.146L261.09 55.016H262.722V61H267.874V55.016H269.538L272.482 61H278.466L273.826 52.488V52.424L278.114 44.52H272.418L269.378 50.376H267.874V44.52H262.722V50.376H261.25L258.21 44.52H252.514L256.802 52.424V52.488L252.162 61ZM280.544 61H286.08V54.984H291.168V61H296.704V44.52H291.168V50.344H286.08V44.52H280.544V61ZM299.235 56.36C299.235 59.208 301.443 61.384 304.611 61.384C306.499 61.384 308.419 60.52 309.507 58.984H309.571C309.571 58.984 309.507 59.464 309.507 60.008V61H314.562V50.856C314.562 46.664 311.747 44.136 307.203 44.136C304.515 44.136 301.635 45.192 300.227 46.28L302.147 50.184C303.459 49.32 305.091 48.616 306.691 48.616C307.907 48.616 309.027 49.064 309.027 50.44V50.728H308.547C304.483 50.728 299.235 51.944 299.235 56.36ZM304.707 55.848C304.707 54.344 306.883 53.896 308.579 53.896H309.091V54.344C309.091 55.688 307.875 57.256 306.275 57.256C305.251 57.256 304.707 56.616 304.707 55.848ZM0.856 100H9.848C13.112 100 16.12 98.72 16.12 95.104C16.12 93.664 15.416 92.032 13.528 91.456V91.424C14.776 90.688 15.448 89.216 15.448 87.84C15.448 84.992 13.144 83.52 9.848 83.52H0.856V100ZM6.392 90.016V86.944H8.408C9.496 86.944 9.944 87.616 9.944 88.384C9.944 89.248 9.496 90.016 8.472 90.016H6.392ZM6.392 96.544V93.248H8.856C10.04 93.248 10.584 94.016 10.584 94.912C10.584 95.744 10.008 96.544 8.824 96.544H6.392ZM18.053 91.808C18.053 96.96 22.213 100.384 27.397 100.384C32.581 100.384 36.741 96.96 36.741 91.808C36.741 86.624 32.581 83.136 27.365 83.136C22.213 83.136 18.053 86.624 18.053 91.808ZM23.653 91.808C23.653 89.312 25.381 87.744 27.397 87.744C29.413 87.744 31.141 89.312 31.141 91.808C31.141 94.272 29.413 95.776 27.397 95.776C25.381 95.776 23.653 94.272 23.653 91.808ZM37.7925 97.952C39.5845 99.552 42.2405 100.384 44.6725 100.384C48.5765 100.384 51.4885 98.624 51.4885 95.136C51.4885 93.216 50.1765 92.064 48.9285 91.488V91.424C49.9205 90.88 50.9765 89.76 50.9765 87.712C50.9765 84.864 48.2885 83.136 44.8965 83.136C41.8885 83.136 39.7765 83.936 38.2405 84.992L39.8405 88.416C41.5685 87.392 42.8485 87.168 43.7445 87.168C45.1525 87.168 45.4725 87.776 45.4725 88.48C45.4725 89.504 44.6725 89.76 43.8085 89.76H42.1445V93.408H44.1605C45.6645 93.408 45.9525 93.984 45.9525 94.784C45.9525 95.552 45.5045 96.224 43.9685 96.224C42.6565 96.224 41.0245 95.424 40.0005 94.496L37.7925 97.952ZM54.2935 100H59.8295V93.984H64.9175V100H70.4535V83.52H64.9175V89.344H59.8295V83.52H54.2935V100ZM74.1685 100H79.5445L84.1205 92.768C84.3765 92.32 84.7285 91.808 85.0165 91.136H85.0805C85.0165 91.776 85.0165 92.416 85.0165 92.8V100H90.2325V83.52H84.8565L80.2805 90.784C79.9925 91.264 79.6725 91.744 79.3845 92.416H79.3205C79.3525 92 79.3845 91.36 79.3845 90.784V83.52H74.1685V100ZM93.9498 100H99.4858V93.952H101.214L104.702 100H111.006L105.502 91.424V91.36L110.334 83.52H104.318L101.054 89.312H99.4858V83.52H93.9498V100ZM112.856 100H118.392V93.984H123.48V100H129.016V83.52H123.48V89.344H118.392V83.52H112.856V100ZM132.891 101.504L131.131 105.568C131.131 105.568 132.795 106.72 134.971 106.72C137.595 106.72 140.475 105.44 141.851 101.76L148.603 83.52H142.555L140.475 91.2C140.251 92.096 139.931 93.664 139.931 93.664H139.867C139.867 93.664 139.547 92 139.259 91.104L136.827 83.52H130.555L137.563 99.68L137.243 100.448C136.667 101.856 135.483 102.112 134.587 102.112C133.787 102.112 132.891 101.504 132.891 101.504ZM154.285 100H159.821V88.16H164.845V83.52H149.293V88.16H154.285V100ZM167.169 100H175.393C180.001 100 181.921 97.728 181.921 94.368C181.921 91.04 180.001 88.672 175.393 88.672H172.705V83.52H167.169V100ZM172.705 96.384V92.256H174.273C175.681 92.256 176.385 93.184 176.385 94.336C176.385 95.488 175.681 96.384 174.369 96.384H172.705ZM199.844 90.976L205.092 97.536H210.148L204.9 90.976L210.148 84.384H205.092L199.844 90.976ZM196.772 97.536H201.828L196.58 90.976L201.828 84.384H196.772L191.524 90.976L196.772 97.536ZM211.79 100H217.87L219.822 96.288C219.982 96 220.206 95.456 220.206 95.456H220.27C220.27 95.456 220.494 96 220.654 96.288L222.638 100H228.718L223.534 91.84L228.814 83.52H222.574L220.782 87.2C220.59 87.616 220.27 88.288 220.27 88.288H220.206C220.206 88.288 219.918 87.616 219.694 87.2L217.902 83.52H211.662L216.974 91.84L211.79 100ZM230.887 100H236.263L240.839 92.768C241.095 92.32 241.447 91.808 241.735 91.136H241.799C241.735 91.776 241.735 92.416 241.735 92.8V100H246.951V83.52H241.575L236.999 90.784C236.711 91.264 236.391 91.744 236.103 92.416H236.039C236.071 92 236.103 91.36 236.103 90.784V83.52H230.887V100ZM249.965 100H255.245L255.629 92.416C255.693 91.136 255.597 89.6 255.597 89.6H255.661C255.661 89.6 256.269 90.976 256.621 92.032L258.797 97.792H263.277L265.453 92.032C265.869 91.008 266.349 89.6 266.349 89.6H266.413C266.413 89.6 266.349 91.136 266.381 92.416L266.765 100H272.077L270.509 83.52H264.141L261.709 90.752C261.421 91.584 261.037 92.672 261.037 92.672H261.005C261.005 92.672 260.653 91.584 260.365 90.752L257.933 83.52H251.533L249.965 100ZM275.075 100H280.451L285.027 92.768C285.283 92.32 285.635 91.808 285.923 91.136H285.987C285.923 91.776 285.923 92.416 285.923 92.8V100H291.139V83.52H285.763L281.187 90.784C280.899 91.264 280.579 91.744 280.291 92.416H280.227C280.259 92 280.291 91.36 280.291 90.784V83.52H275.075V100ZM293.288 100H299.144L302.312 94.976H303.464V100H309V83.52H300.36C296.712 83.52 294.408 85.632 294.408 89.088C294.408 91.2 295.592 93.088 297.384 93.984V94.016C297.384 94.016 297.064 94.336 296.616 95.008L293.288 100ZM302.152 91.296C300.84 91.296 299.912 90.624 299.912 89.056C299.912 87.52 300.84 86.944 302.12 86.944H303.464V91.296H302.152ZM320.444 97.536H325.5L330.748 90.976L325.5 84.384H320.444L325.692 90.976L320.444 97.536ZM312.124 97.536H317.18L322.428 90.976L317.18 84.384H312.124L317.372 90.976L312.124 97.536ZM0.856 138H6.232L10.808 130.768C11.064 130.32 11.416 129.808 11.704 129.136H11.768C11.704 129.776 11.704 130.416 11.704 130.8V138H16.92V121.52H11.544L6.968 128.784C6.68 129.264 6.36 129.744 6.072 130.416H6.008C6.04 130 6.072 129.36 6.072 128.784V121.52H0.856V138ZM36.1253 128.976L41.3733 135.536H46.4293L41.1813 128.976L46.4293 122.384H41.3733L36.1253 128.976ZM33.0533 135.536H38.1093L32.8613 128.976L38.1093 122.384H33.0533L27.8053 128.976L33.0533 135.536ZM48.6468 129.744C48.6468 134.288 51.9427 138.384 57.8308 138.384C60.5828 138.384 63.2708 137.328 64.9028 135.664L62.8868 131.792C61.7028 132.816 59.9748 133.776 58.3748 133.776C55.5908 133.776 54.2468 131.632 54.2468 129.68C54.2468 127.728 55.5588 125.744 58.1828 125.744C59.6228 125.744 61.0948 126.416 62.0548 127.344L64.3908 123.632C62.7588 121.872 60.1348 121.136 57.8308 121.136C51.9108 121.136 48.6468 125.328 48.6468 129.744ZM67.231 138H72.607L77.183 130.768C77.439 130.32 77.791 129.808 78.079 129.136H78.143C78.079 129.776 78.079 130.416 78.079 130.8V138H83.295V121.52H77.919L73.343 128.784C73.055 129.264 72.735 129.744 72.447 130.416H72.383C72.415 130 72.447 129.36 72.447 128.784V121.52H67.231V138ZM86.3083 138H91.5883L91.9723 130.416C92.0363 129.136 91.9403 127.6 91.9403 127.6H92.0043C92.0043 127.6 92.6123 128.976 92.9643 130.032L95.1403 135.792H99.6203L101.796 130.032C102.212 129.008 102.692 127.6 102.692 127.6H102.756C102.756 127.6 102.692 129.136 102.724 130.416L103.108 138H108.42L106.852 121.52H100.484L98.0523 128.752C97.7643 129.584 97.3803 130.672 97.3803 130.672H97.3483C97.3483 130.672 96.9963 129.584 96.7083 128.752L94.2763 121.52H87.8763L86.3083 138ZM111.419 138H116.955V126.16H121.851V138H127.387V121.52H111.419V138ZM129.922 133.36C129.922 136.208 132.13 138.384 135.298 138.384C137.186 138.384 139.106 137.52 140.194 135.984H140.258C140.258 135.984 140.194 136.464 140.194 137.008V138H145.25V127.856C145.25 123.664 142.434 121.136 137.89 121.136C135.202 121.136 132.322 122.192 130.914 123.28L132.834 127.184C134.146 126.32 135.778 125.616 137.378 125.616C138.594 125.616 139.714 126.064 139.714 127.44V127.728H139.234C135.17 127.728 129.922 128.944 129.922 133.36ZM135.394 132.848C135.394 131.344 137.57 130.896 139.266 130.896H139.778V131.344C139.778 132.688 138.562 134.256 136.962 134.256C135.938 134.256 135.394 133.616 135.394 132.848ZM152.378 138H157.914V126.16H162.938V121.52H147.386V126.16H152.378V138ZM165.262 138H170.638L175.214 130.768C175.47 130.32 175.822 129.808 176.11 129.136H176.174C176.11 129.776 176.11 130.416 176.11 130.8V138H181.326V121.52H175.95L171.374 128.784C171.086 129.264 170.766 129.744 170.478 130.416H170.414C170.446 130 170.478 129.36 170.478 128.784V121.52H165.262V138ZM183.476 138H189.332L192.5 132.976H193.652V138H199.188V121.52H190.548C186.9 121.52 184.596 123.632 184.596 127.088C184.596 129.2 185.78 131.088 187.572 131.984V132.016C187.572 132.016 187.252 132.336 186.804 133.008L183.476 138ZM192.34 129.296C191.028 129.296 190.1 128.624 190.1 127.056C190.1 125.52 191.028 124.944 192.308 124.944H193.652V129.296H192.34ZM210.631 135.536H215.687L220.935 128.976L215.687 122.384H210.631L215.879 128.976L210.631 135.536ZM202.311 135.536H207.367L212.615 128.976L207.367 122.384H202.311L207.559 128.976L202.311 135.536Z" fill="#222224"/>
</svg>
