<svg width="373" height="57" viewBox="0 0 373 57" fill="none" xmlns="http://www.w3.org/2000/svg">
<path d="M1.232 18H3.608V3.12H12.2V18H14.576V1.056H1.232V18ZM17.5861 11.904C17.5861 15.6 20.5141 18.288 24.1381 18.288C27.7381 18.288 30.6661 15.6 30.6661 11.904C30.6661 8.232 27.7381 5.568 24.1141 5.568C20.5141 5.568 17.5861 8.232 17.5861 11.904ZM19.9621 11.904C19.9621 9.384 21.8341 7.584 24.1381 7.584C26.4181 7.584 28.3141 9.384 28.3141 11.904C28.3141 14.448 26.4181 16.272 24.1381 16.272C21.8341 16.272 19.9621 14.448 19.9621 11.904ZM35.5432 16.08C37.0792 13.68 37.2712 10.224 37.2712 8.4V7.752H40.9192V16.08H35.5432ZM31.6552 16.08V20.88H33.8392V18H42.8392V20.88H44.9752V16.08H43.2472V5.856H35.0392V8.088C35.0392 9.96 34.8472 13.752 33.1432 16.08H31.6552ZM46.7486 11.016C46.7486 15.216 48.5966 18.288 52.7006 18.288C56.1326 18.288 58.4366 15.888 58.4366 12.528C58.4366 9.096 56.3246 6.936 53.2766 6.936C51.6686 6.936 50.0606 7.464 48.9806 9.096H48.9326C49.1006 6.768 50.2526 5.352 52.6766 4.248L57.3326 2.304L56.5646 0.383999L52.2206 2.256C47.9966 4.032 46.7486 6.672 46.7486 11.016ZM49.1726 12.528C49.1726 10.392 50.6366 8.784 52.7006 8.784C54.5246 8.784 56.0846 10.2 56.0846 12.576C56.0846 14.928 54.5246 16.32 52.6046 16.32C50.7326 16.32 49.1726 14.928 49.1726 12.528ZM61.3391 18H63.5711L68.8271 10.752C69.2111 10.176 69.8111 9.36 69.8831 9.144H69.9311C69.9311 9.336 69.8591 10.176 69.8591 10.752V18H72.1151V5.856H69.8591L64.6271 13.104C64.2191 13.68 63.6431 14.52 63.5471 14.736H63.4991C63.5231 14.616 63.5711 13.752 63.5711 13.104V5.856H61.3391V18ZM75.6828 22.8H78.0108V17.28C78.0108 16.656 77.9148 16.224 77.9148 16.224H77.9628C78.8028 17.52 80.1948 18.288 81.7308 18.288C84.9228 18.288 87.2268 15.792 87.2268 11.928C87.2268 8.16 85.1868 5.568 81.8988 5.568C80.1228 5.568 78.5868 6.384 77.8188 7.848H77.7708C77.7708 7.848 77.8428 7.44 77.8428 6.936V5.856H75.6828V22.8ZM77.9388 11.976C77.9388 8.904 79.6188 7.608 81.4428 7.608C83.4588 7.608 84.8748 9.312 84.8748 11.952C84.8748 14.712 83.2908 16.272 81.3708 16.272C79.1388 16.272 77.9388 14.136 77.9388 11.976ZM89.0889 14.688C89.0889 16.968 91.0329 18.288 93.1449 18.288C94.9449 18.288 96.4329 17.208 97.1289 15.816H97.1769C97.1769 15.816 97.1049 16.224 97.1049 16.776V18H99.2889V10.32C99.2889 7.248 97.5369 5.568 94.4889 5.568C92.7849 5.568 90.9369 6.192 89.9529 7.008L90.8889 8.712C91.8729 8.016 93.0969 7.536 94.2969 7.536C95.8089 7.536 96.9609 8.208 96.9609 10.2V10.44H96.3369C93.8169 10.44 89.0889 10.872 89.0889 14.688ZM91.4169 14.496C91.4169 12.264 94.6329 12.12 96.3609 12.12H96.9609V12.576C96.9609 14.376 95.7369 16.44 93.6969 16.44C92.1849 16.44 91.4169 15.456 91.4169 14.496ZM101.938 11.928C101.938 15.528 104.578 18.288 108.394 18.288C110.074 18.288 111.922 17.64 113.098 16.56L112.114 14.856C111.154 15.72 109.834 16.272 108.538 16.272C106.354 16.272 104.482 14.856 104.362 12.24H113.194C113.242 11.904 113.29 11.568 113.29 11.256C113.29 8.136 111.466 5.568 108.034 5.568C104.578 5.568 101.938 8.064 101.938 11.928ZM104.434 10.56C104.77 8.544 106.186 7.368 107.986 7.368C109.57 7.368 110.866 8.472 110.938 10.56H104.434ZM115.585 18H117.841L118.369 10.776C118.417 10.056 118.345 8.688 118.345 8.688H118.393C118.393 8.688 118.777 9.6 119.161 10.488L122.041 16.536H124.033L126.913 10.464C127.369 9.528 127.681 8.688 127.681 8.688H127.729C127.729 8.688 127.681 10.056 127.705 10.776L128.233 18H130.489L129.433 5.856H126.889L123.721 12.72C123.409 13.464 123.049 14.352 123.049 14.352H123.001C123.001 14.352 122.665 13.44 122.329 12.72L119.233 5.856H116.641L115.585 18ZM139.62 18H141.948V7.848H147.9V18H150.228V5.856H139.62V18ZM153.031 11.928C153.031 15.528 155.671 18.288 159.487 18.288C161.167 18.288 163.015 17.64 164.191 16.56L163.207 14.856C162.247 15.72 160.927 16.272 159.631 16.272C157.447 16.272 155.575 14.856 155.455 12.24H164.287C164.335 11.904 164.383 11.568 164.383 11.256C164.383 8.136 162.559 5.568 159.127 5.568C155.671 5.568 153.031 8.064 153.031 11.928ZM155.527 10.56C155.863 8.544 157.279 7.368 159.079 7.368C160.663 7.368 161.959 8.472 162.031 10.56H155.527ZM169.559 16.08C171.095 13.68 171.287 10.224 171.287 8.4V7.752H174.935V16.08H169.559ZM165.671 16.08V20.88H167.855V18H176.855V20.88H178.991V16.08H177.263V5.856H169.055V8.088C169.055 9.96 168.863 13.752 167.159 16.08H165.671ZM180.425 14.688C180.425 16.968 182.369 18.288 184.481 18.288C186.281 18.288 187.769 17.208 188.465 15.816H188.513C188.513 15.816 188.441 16.224 188.441 16.776V18H190.625V10.32C190.625 7.248 188.873 5.568 185.825 5.568C184.121 5.568 182.273 6.192 181.289 7.008L182.225 8.712C183.209 8.016 184.433 7.536 185.633 7.536C187.145 7.536 188.297 8.208 188.297 10.2V10.44H187.673C185.153 10.44 180.425 10.872 180.425 14.688ZM182.753 14.496C182.753 12.264 185.969 12.12 187.697 12.12H188.297V12.576C188.297 14.376 187.073 16.44 185.033 16.44C183.521 16.44 182.753 15.456 182.753 14.496ZM194.066 18H196.394V7.848H201.674V5.856H194.066V18ZM202.742 11.904C202.742 15.6 205.67 18.288 209.294 18.288C212.894 18.288 215.822 15.6 215.822 11.904C215.822 8.232 212.894 5.568 209.27 5.568C205.67 5.568 202.742 8.232 202.742 11.904ZM205.118 11.904C205.118 9.384 206.99 7.584 209.294 7.584C211.574 7.584 213.47 9.384 213.47 11.904C213.47 14.448 211.574 16.272 209.294 16.272C206.99 16.272 205.118 14.448 205.118 11.904ZM218.628 18H220.956V7.848H226.236V5.856H218.628V18ZM227.305 11.904C227.305 15.6 230.233 18.288 233.857 18.288C237.457 18.288 240.385 15.6 240.385 11.904C240.385 8.232 237.457 5.568 233.833 5.568C230.233 5.568 227.305 8.232 227.305 11.904ZM229.681 11.904C229.681 9.384 231.553 7.584 233.857 7.584C236.137 7.584 238.033 9.384 238.033 11.904C238.033 14.448 236.137 16.272 233.857 16.272C231.553 16.272 229.681 14.448 229.681 11.904ZM243.191 18H248.375C251.015 18 252.839 16.8 252.839 14.544C252.839 13.2 252.047 12.024 250.535 11.664V11.64C251.639 11.16 252.263 10.152 252.263 8.976C252.263 6.936 250.655 5.856 248.207 5.856H243.191V18ZM245.519 10.992V7.464H247.727C249.191 7.464 249.887 8.04 249.887 9.144C249.887 10.272 249.191 10.992 247.799 10.992H245.519ZM245.519 16.368V12.552H247.991C249.599 12.552 250.487 13.272 250.487 14.472C250.487 15.6 249.695 16.368 248.015 16.368H245.519ZM260.867 11.928C260.867 15.576 263.531 18.288 267.371 18.288C269.267 18.288 271.115 17.52 272.219 16.344L271.283 14.64C270.347 15.624 268.883 16.272 267.539 16.272C265.019 16.272 263.243 14.376 263.243 11.904C263.243 9.432 265.019 7.584 267.467 7.584C268.739 7.584 270.011 8.16 270.827 8.976L271.931 7.344C270.779 6.12 268.979 5.568 267.371 5.568C263.555 5.568 260.867 8.328 260.867 11.928ZM279.946 11.904C279.946 15.6 282.874 18.288 286.498 18.288C290.098 18.288 293.026 15.6 293.026 11.904C293.026 8.232 290.098 5.568 286.474 5.568C282.874 5.568 279.946 8.232 279.946 11.904ZM282.322 11.904C282.322 9.384 284.194 7.584 286.498 7.584C288.778 7.584 290.674 9.384 290.674 11.904C290.674 14.448 288.778 16.272 286.498 16.272C284.194 16.272 282.322 14.448 282.322 11.904ZM295.303 11.016C295.303 15.216 297.151 18.288 301.255 18.288C304.687 18.288 306.991 15.888 306.991 12.528C306.991 9.096 304.879 6.936 301.831 6.936C300.223 6.936 298.615 7.464 297.535 9.096H297.487C297.655 6.768 298.807 5.352 301.231 4.248L305.887 2.304L305.119 0.383999L300.775 2.256C296.551 4.032 295.303 6.672 295.303 11.016ZM297.727 12.528C297.727 10.392 299.191 8.784 301.255 8.784C303.079 8.784 304.639 10.2 304.639 12.576C304.639 14.928 303.079 16.32 301.159 16.32C299.287 16.32 297.727 14.928 297.727 12.528ZM309.894 18H325.182V20.88H327.318V15.984H325.59V5.856H323.358V15.984H318.87V5.856H316.614V15.984H312.126V5.856H309.894V18ZM329.792 18H332.024L337.28 10.752C337.664 10.176 338.264 9.36 338.336 9.144H338.384C338.384 9.336 338.312 10.176 338.312 10.752V18H340.568V5.856H338.312L333.08 13.104C332.672 13.68 332.096 14.52 332 14.736H331.952C331.976 14.616 332.024 13.752 332.024 13.104V5.856H329.792V18ZM343.632 18H345.888L346.416 10.776C346.464 10.056 346.392 8.688 346.392 8.688H346.44C346.44 8.688 346.824 9.6 347.208 10.488L350.088 16.536H352.08L354.96 10.464C355.416 9.528 355.728 8.688 355.728 8.688H355.776C355.776 8.688 355.728 10.056 355.752 10.776L356.28 18H358.536L357.48 5.856H354.936L351.768 12.72C351.456 13.464 351.096 14.352 351.096 14.352H351.048C351.048 14.352 350.712 13.44 350.376 12.72L347.28 5.856H344.688L343.632 18ZM361.667 18H363.899L369.155 10.752C369.539 10.176 370.139 9.36 370.211 9.144H370.259C370.259 9.336 370.187 10.176 370.187 10.752V18H372.443V5.856H370.187L364.955 13.104C364.547 13.68 363.971 14.52 363.875 14.736H363.827C363.851 14.616 363.899 13.752 363.899 13.104V5.856H361.667V18ZM0.8 52H3.032L8.288 44.752C8.672 44.176 9.272 43.36 9.344 43.144H9.392C9.392 43.336 9.32 44.176 9.32 44.752V52H11.576V39.856H9.32L4.088 47.104C3.68 47.68 3.104 48.52 3.008 48.736H2.96C2.984 48.616 3.032 47.752 3.032 47.104V39.856H0.8V52ZM15.1438 52H17.4718V46.792H23.6158V52H25.9438V39.856H23.6158V44.8H17.4718V39.856H15.1438V52ZM32.4624 52H34.7664V41.848H39.0144V39.856H28.2384V41.848H32.4624V52ZM40.1096 45.928C40.1096 49.528 42.7496 52.288 46.5656 52.288C48.2456 52.288 50.0936 51.64 51.2696 50.56L50.2856 48.856C49.3256 49.72 48.0056 50.272 46.7096 50.272C44.5256 50.272 42.6536 48.856 42.5336 46.24H51.3656C51.4136 45.904 51.4616 45.568 51.4616 45.256C51.4616 42.136 49.6376 39.568 46.2056 39.568C42.7496 39.568 40.1096 42.064 40.1096 45.928ZM42.6056 44.56C42.9416 42.544 44.3576 41.368 46.1576 41.368C47.7416 41.368 49.0376 42.472 49.1096 44.56H42.6056ZM54.2609 56.8H56.5889V51.28C56.5889 50.656 56.4929 50.224 56.4929 50.224H56.5409C57.3809 51.52 58.7729 52.288 60.3089 52.288C63.5009 52.288 65.8049 49.792 65.8049 45.928C65.8049 42.16 63.7649 39.568 60.4769 39.568C58.7009 39.568 57.1649 40.384 56.3969 41.848H56.3489C56.3489 41.848 56.4209 41.44 56.4209 40.936V39.856H54.2609V56.8ZM56.5169 45.976C56.5169 42.904 58.1969 41.608 60.0209 41.608C62.0369 41.608 63.4529 43.312 63.4529 45.952C63.4529 48.712 61.8689 50.272 59.9489 50.272C57.7169 50.272 56.5169 48.136 56.5169 45.976ZM67.883 45.928C67.883 49.528 70.523 52.288 74.339 52.288C76.019 52.288 77.867 51.64 79.043 50.56L78.059 48.856C77.099 49.72 75.779 50.272 74.483 50.272C72.299 50.272 70.427 48.856 70.307 46.24H79.139C79.187 45.904 79.235 45.568 79.235 45.256C79.235 42.136 77.411 39.568 73.979 39.568C70.523 39.568 67.883 42.064 67.883 45.928ZM70.379 44.56C70.715 42.544 72.131 41.368 73.931 41.368C75.515 41.368 76.811 42.472 76.883 44.56H70.379ZM81.2424 45.928C81.2424 49.576 83.9064 52.288 87.7464 52.288C89.6424 52.288 91.4904 51.52 92.5944 50.344L91.6584 48.64C90.7224 49.624 89.2584 50.272 87.9144 50.272C85.3944 50.272 83.6184 48.376 83.6184 45.904C83.6184 43.432 85.3944 41.584 87.8424 41.584C89.1144 41.584 90.3864 42.16 91.2024 42.976L92.3064 41.344C91.1544 40.12 89.3544 39.568 87.7464 39.568C83.9304 39.568 81.2424 42.328 81.2424 45.928ZM94.1045 48.688C94.1045 50.968 96.0485 52.288 98.1605 52.288C99.9605 52.288 101.449 51.208 102.145 49.816H102.193C102.193 49.816 102.121 50.224 102.121 50.776V52H104.305V44.32C104.305 41.248 102.553 39.568 99.5045 39.568C97.8005 39.568 95.9525 40.192 94.9685 41.008L95.9045 42.712C96.8885 42.016 98.1125 41.536 99.3125 41.536C100.825 41.536 101.977 42.208 101.977 44.2V44.44H101.353C98.8325 44.44 94.1045 44.872 94.1045 48.688ZM96.4325 48.496C96.4325 46.264 99.6485 46.12 101.377 46.12H101.977V46.576C101.977 48.376 100.753 50.44 98.7125 50.44C97.2005 50.44 96.4325 49.456 96.4325 48.496ZM107.241 52H109.497L110.025 44.776C110.073 44.056 110.001 42.688 110.001 42.688H110.049C110.049 42.688 110.433 43.6 110.817 44.488L113.697 50.536H115.689L118.569 44.464C119.025 43.528 119.337 42.688 119.337 42.688H119.385C119.385 42.688 119.337 44.056 119.361 44.776L119.889 52H122.145L121.089 39.856H118.545L115.377 46.72C115.065 47.464 114.705 48.352 114.705 48.352H114.657C114.657 48.352 114.321 47.44 113.985 46.72L110.889 39.856H108.297L107.241 52ZM125.277 52H127.509L132.765 44.752C133.149 44.176 133.749 43.36 133.821 43.144H133.869C133.869 43.336 133.797 44.176 133.797 44.752V52H136.053V39.856H133.797L128.565 47.104C128.157 47.68 127.581 48.52 127.485 48.736H127.437C127.461 48.616 127.509 47.752 127.509 47.104V39.856H125.277V52ZM145.62 52H147.852L153.108 44.752C153.492 44.176 154.092 43.36 154.164 43.144H154.212C154.212 43.336 154.14 44.176 154.14 44.752V52H156.396V39.856H154.14L148.908 47.104C148.5 47.68 147.924 48.52 147.828 48.736H147.78C147.804 48.616 147.852 47.752 147.852 47.104V39.856H145.62V52ZM165.964 52H175.996V54.88H178.132V49.984H176.428V39.856H174.076V49.984H168.292V39.856H165.964V52ZM179.68 45.928C179.68 49.528 182.32 52.288 186.136 52.288C187.816 52.288 189.664 51.64 190.84 50.56L189.856 48.856C188.896 49.72 187.576 50.272 186.28 50.272C184.096 50.272 182.224 48.856 182.104 46.24H190.936C190.984 45.904 191.032 45.568 191.032 45.256C191.032 42.136 189.208 39.568 185.776 39.568C182.32 39.568 179.68 42.064 179.68 45.928ZM182.176 44.56C182.512 42.544 183.928 41.368 185.728 41.368C187.312 41.368 188.608 42.472 188.68 44.56H182.176ZM192.511 52.12C196.087 51.928 197.479 49.096 197.479 43.6V41.776H201.055V52H203.383V39.856H195.247V43.6C195.247 47.992 194.287 49.768 192.511 50.032V52.12ZM205.756 52H208.324L211.3 47.608H213.34V52H215.668V39.856H210.82C208.252 39.856 206.476 41.176 206.476 43.672C206.476 45.52 207.724 46.816 209.116 47.2V47.224C209.116 47.224 208.828 47.536 208.564 47.968L205.756 52ZM211.324 45.904C209.908 45.904 208.828 45.16 208.828 43.648C208.828 42.088 209.836 41.464 211.396 41.464H213.34V45.904H211.324ZM218.757 52H221.013L221.541 44.776C221.589 44.056 221.517 42.688 221.517 42.688H221.565C221.565 42.688 221.949 43.6 222.333 44.488L225.213 50.536H227.205L230.085 44.464C230.541 43.528 230.853 42.688 230.853 42.688H230.901C230.901 42.688 230.853 44.056 230.877 44.776L231.405 52H233.661L232.605 39.856H230.061L226.893 46.72C226.581 47.464 226.221 48.352 226.221 48.352H226.173C226.173 48.352 225.837 47.44 225.501 46.72L222.405 39.856H219.813L218.757 52ZM236.792 52H239.024L244.28 44.752C244.664 44.176 245.264 43.36 245.336 43.144H245.384C245.384 43.336 245.312 44.176 245.312 44.752V52H247.568V39.856H245.312L240.08 47.104C239.672 47.68 239.096 48.52 239 48.736H238.952C238.976 48.616 239.024 47.752 239.024 47.104V39.856H236.792V52ZM251.016 52H253.512V49.48H251.016V52Z" fill="#222224"/>
</svg>
