<svg width="412" height="67" viewBox="0 0 412 67" fill="none" xmlns="http://www.w3.org/2000/svg">
<path d="M6.8375 24H12.4375V5.888H20.5655V24H26.1655V1.12H6.8375V24ZM30.231 30.4H35.767V24.224C35.767 23.392 35.703 22.816 35.703 22.816H35.767C36.951 23.84 38.423 24.384 39.959 24.384C44.343 24.384 47.639 20.992 47.639 15.776C47.639 10.656 44.695 7.136 40.215 7.136C38.231 7.136 36.343 7.904 35.223 9.408H35.159C35.159 9.408 35.223 8.896 35.223 8.352V7.52H30.231V30.4ZM35.607 15.872C35.607 13.024 37.175 11.808 38.839 11.808C40.759 11.808 42.071 13.408 42.071 15.872C42.071 18.4 40.567 19.808 38.839 19.808C36.663 19.808 35.607 17.856 35.607 15.872ZM49.553 15.808C49.553 20.96 53.713 24.384 58.897 24.384C64.081 24.384 68.241 20.96 68.241 15.808C68.241 10.624 64.081 7.136 58.865 7.136C53.713 7.136 49.553 10.624 49.553 15.808ZM55.153 15.808C55.153 13.312 56.881 11.744 58.897 11.744C60.913 11.744 62.641 13.312 62.641 15.808C62.641 18.272 60.913 19.776 58.897 19.776C56.881 19.776 55.153 18.272 55.153 15.808ZM71.0123 24H80.0043C83.2683 24 86.2763 22.72 86.2763 19.104C86.2763 17.664 85.5723 16.032 83.6843 15.456V15.424C84.9323 14.688 85.6042 13.216 85.6042 11.84C85.6042 8.992 83.3003 7.52 80.0043 7.52H71.0123V24ZM76.5483 14.016V10.944H78.5642C79.6523 10.944 80.1003 11.616 80.1003 12.384C80.1003 13.248 79.6523 14.016 78.6283 14.016H76.5483ZM76.5483 20.544V17.248H79.0123C80.1963 17.248 80.7403 18.016 80.7403 18.912C80.7403 19.744 80.1643 20.544 78.9803 20.544H76.5483ZM88.2093 15.744C88.2093 20.128 91.3773 24.384 97.2653 24.384C99.7933 24.384 102.513 23.52 104.305 21.984L102.257 18.112C100.913 19.008 99.3453 19.776 97.7133 19.776C95.9533 19.776 94.2893 18.848 93.8733 16.832H104.273C104.337 16.256 104.401 15.68 104.401 15.104C104.401 10.528 101.649 7.136 96.7853 7.136C91.4733 7.136 88.2093 10.912 88.2093 15.744ZM94.0013 13.664C94.2893 12.352 95.0573 11.2 96.6573 11.2C98.0653 11.2 98.9293 12.32 98.9293 13.664H94.0013ZM113.249 19.616C114.401 17.408 114.72 15.008 114.72 12.512V11.904H117.569V19.616H113.249ZM105.761 19.616V27.84H110.881V24H120.545V27.84H125.473V19.616H123.105V7.52H109.505V11.488C109.505 14.816 108.897 17.76 107.809 19.616H105.761ZM126.897 15.744C126.897 20.128 130.065 24.384 135.953 24.384C138.481 24.384 141.201 23.52 142.993 21.984L140.945 18.112C139.601 19.008 138.033 19.776 136.401 19.776C134.641 19.776 132.977 18.848 132.561 16.832H142.961C143.025 16.256 143.089 15.68 143.089 15.104C143.089 10.528 140.337 7.136 135.473 7.136C130.161 7.136 126.897 10.912 126.897 15.744ZM132.689 13.664C132.977 12.352 133.745 11.2 135.345 11.2C136.753 11.2 137.617 12.32 137.617 13.664H132.689ZM145.277 24H150.557L150.941 16.416C151.005 15.136 150.909 13.6 150.909 13.6H150.973C150.973 13.6 151.581 14.976 151.933 16.032L154.109 21.792H158.589L160.765 16.032C161.181 15.008 161.661 13.6 161.661 13.6H161.725C161.725 13.6 161.661 15.136 161.693 16.416L162.077 24H167.389L165.821 7.52H159.453L157.021 14.752C156.733 15.584 156.349 16.672 156.349 16.672H156.317C156.317 16.672 155.965 15.584 155.677 14.752L153.245 7.52H146.845L145.277 24ZM178.387 24H183.923V12.16H188.819V24H194.355V7.52H178.387V24ZM198.075 30.4H203.611V24.224C203.611 23.392 203.547 22.816 203.547 22.816H203.611C204.795 23.84 206.267 24.384 207.803 24.384C212.187 24.384 215.483 20.992 215.483 15.776C215.483 10.656 212.539 7.136 208.059 7.136C206.075 7.136 204.187 7.904 203.067 9.408H203.003C203.003 9.408 203.067 8.896 203.067 8.352V7.52H198.075V30.4ZM203.451 15.872C203.451 13.024 205.019 11.808 206.683 11.808C208.603 11.808 209.915 13.408 209.915 15.872C209.915 18.4 208.411 19.808 206.683 19.808C204.507 19.808 203.451 17.856 203.451 15.872ZM217.397 15.808C217.397 20.96 221.557 24.384 226.741 24.384C231.925 24.384 236.085 20.96 236.085 15.808C236.085 10.624 231.925 7.136 226.709 7.136C221.557 7.136 217.397 10.624 217.397 15.808ZM222.997 15.808C222.997 13.312 224.725 11.744 226.741 11.744C228.757 11.744 230.485 13.312 230.485 15.808C230.485 18.272 228.757 19.776 226.741 19.776C224.725 19.776 222.997 18.272 222.997 15.808ZM238.12 14.144C238.12 20.192 241.096 24.384 247.048 24.384C252.264 24.384 255.56 20.928 255.56 16.384C255.56 11.968 252.872 8.832 248.456 8.832C247.016 8.832 245.032 9.216 243.624 10.4H243.56C243.656 8.032 245.896 7.136 248.008 6.432L254.216 4.448L252.648 -1.90735e-06L247.304 1.792C240.872 4 238.12 7.424 238.12 14.144ZM243.624 16.48C243.624 14.336 245.096 12.992 246.824 12.992C248.552 12.992 250.024 14.336 250.024 16.48C250.024 18.592 248.552 19.872 246.824 19.872C245.096 19.872 243.624 18.592 243.624 16.48ZM258.45 24H263.986V17.984H269.074V24H274.61V7.52H269.074V13.344H263.986V7.52H258.45V24ZM294.773 24H300.309V7.52H294.773V24ZM278.325 24H286.357C290.965 24 292.885 21.728 292.885 18.368C292.885 15.04 290.965 12.672 286.357 12.672H283.861V7.52H278.325V24ZM283.861 20.384V16.256H285.237C286.645 16.256 287.349 17.184 287.349 18.336C287.349 19.488 286.645 20.384 285.333 20.384H283.861ZM312.076 6.368C315.308 6.368 318.124 4.608 318.124 1.472V1.12H314.06V1.504C314.06 2.816 313.004 3.392 312.076 3.392C311.116 3.392 310.092 2.816 310.092 1.504V1.12H305.996V1.472C305.996 4.608 308.812 6.368 312.076 6.368ZM304.012 24H309.388L313.964 16.768C314.22 16.32 314.572 15.808 314.86 15.136H314.924C314.86 15.776 314.86 16.416 314.86 16.8V24H320.076V7.52H314.7L310.124 14.784C309.836 15.264 309.516 15.744 309.228 16.416H309.164C309.196 16 309.228 15.36 309.228 14.784V7.52H304.012V24ZM331.954 25.504L330.194 29.568C330.194 29.568 331.858 30.72 334.034 30.72C336.658 30.72 339.538 29.44 340.914 25.76L347.666 7.52H341.618L339.538 15.2C339.314 16.096 338.994 17.664 338.994 17.664H338.93C338.93 17.664 338.61 16 338.322 15.104L335.89 7.52H329.617L336.626 23.68L336.306 24.448C335.73 25.856 334.546 26.112 333.65 26.112C332.85 26.112 331.954 25.504 331.954 25.504ZM349.731 30.4H355.267V24.224C355.267 23.392 355.203 22.816 355.203 22.816H355.267C356.451 23.84 357.923 24.384 359.459 24.384C363.843 24.384 367.139 20.992 367.139 15.776C367.139 10.656 364.195 7.136 359.715 7.136C357.731 7.136 355.843 7.904 354.723 9.408H354.659C354.659 9.408 354.723 8.896 354.723 8.352V7.52H349.731V30.4ZM355.107 15.872C355.107 13.024 356.675 11.808 358.339 11.808C360.259 11.808 361.571 13.408 361.571 15.872C361.571 18.4 360.067 19.808 358.339 19.808C356.163 19.808 355.107 17.856 355.107 15.872ZM369.053 15.808C369.053 20.96 373.213 24.384 378.397 24.384C383.581 24.384 387.741 20.96 387.741 15.808C387.741 10.624 383.581 7.136 378.365 7.136C373.213 7.136 369.053 10.624 369.053 15.808ZM374.653 15.808C374.653 13.312 376.381 11.744 378.397 11.744C380.413 11.744 382.141 13.312 382.141 15.808C382.141 18.272 380.413 19.776 378.397 19.776C376.381 19.776 374.653 18.272 374.653 15.808ZM390.512 24H396.048V17.952H397.776L401.264 24H407.568L402.064 15.424V15.36L406.896 7.52H400.88L397.616 13.312H396.048V7.52H390.512V24ZM0.934125 66H6.31013L10.8861 58.768C11.1421 58.32 11.4941 57.808 11.7821 57.136H11.8461C11.7821 57.776 11.7821 58.416 11.7821 58.8V66H16.9981V49.52H11.6221L7.04613 56.784C6.75813 57.264 6.43813 57.744 6.15013 58.416H6.08613C6.11813 58 6.15013 57.36 6.15013 56.784V49.52H0.934125V66ZM28.7154 66H34.2514V54.16H39.1474V66H44.6834V49.52H28.7154V66ZM47.4749 57.808C47.4749 62.96 51.6349 66.384 56.8189 66.384C62.0029 66.384 66.1629 62.96 66.1629 57.808C66.1629 52.624 62.0029 49.136 56.7869 49.136C51.6349 49.136 47.4749 52.624 47.4749 57.808ZM53.0749 57.808C53.0749 55.312 54.8029 53.744 56.8189 53.744C58.8349 53.744 60.5629 55.312 60.5629 57.808C60.5629 60.272 58.8349 61.776 56.8189 61.776C54.8029 61.776 53.0749 60.272 53.0749 57.808ZM67.2144 63.952C69.0064 65.552 71.6624 66.384 74.0944 66.384C77.9984 66.384 80.9104 64.624 80.9104 61.136C80.9104 59.216 79.5984 58.064 78.3504 57.488V57.424C79.3424 56.88 80.3984 55.76 80.3984 53.712C80.3984 50.864 77.7104 49.136 74.3184 49.136C71.3104 49.136 69.1984 49.936 67.6624 50.992L69.2624 54.416C70.9904 53.392 72.2704 53.168 73.1664 53.168C74.5744 53.168 74.8944 53.776 74.8944 54.48C74.8944 55.504 74.0944 55.76 73.2304 55.76H71.5664V59.408H73.5824C75.0864 59.408 75.3744 59.984 75.3744 60.784C75.3744 61.552 74.9264 62.224 73.3904 62.224C72.0784 62.224 70.4464 61.424 69.4224 60.496L67.2144 63.952ZM83.7154 66H89.2514V59.984H94.3394V66H99.8754V49.52H94.3394V55.344H89.2514V49.52H83.7154V66ZM102.406 61.36C102.406 64.208 104.614 66.384 107.782 66.384C109.67 66.384 111.59 65.52 112.678 63.984H112.742C112.742 63.984 112.678 64.464 112.678 65.008V66H117.734V55.856C117.734 51.664 114.918 49.136 110.374 49.136C107.686 49.136 104.806 50.192 103.398 51.28L105.318 55.184C106.63 54.32 108.262 53.616 109.862 53.616C111.078 53.616 112.198 54.064 112.198 55.44V55.728H111.718C107.654 55.728 102.406 56.944 102.406 61.36ZM107.878 60.848C107.878 59.344 110.054 58.896 111.75 58.896H112.262V59.344C112.262 60.688 111.046 62.256 109.446 62.256C108.422 62.256 107.878 61.616 107.878 60.848ZM121.247 66H126.783V59.952H128.511L131.999 66H138.303L132.799 57.424V57.36L137.631 49.52H131.615L128.351 55.312H126.783V49.52H121.247V66ZM138.537 57.808C138.537 62.96 142.697 66.384 147.881 66.384C153.065 66.384 157.225 62.96 157.225 57.808C157.225 52.624 153.065 49.136 147.849 49.136C142.697 49.136 138.537 52.624 138.537 57.808ZM144.137 57.808C144.137 55.312 145.865 53.744 147.881 53.744C149.897 53.744 151.625 55.312 151.625 57.808C151.625 60.272 149.897 61.776 147.881 61.776C145.865 61.776 144.137 60.272 144.137 57.808ZM159.293 66H164.573L164.957 58.416C165.021 57.136 164.925 55.6 164.925 55.6H164.989C164.989 55.6 165.597 56.976 165.949 58.032L168.125 63.792H172.605L174.781 58.032C175.197 57.008 175.677 55.6 175.677 55.6H175.741C175.741 55.6 175.677 57.136 175.709 58.416L176.093 66H181.405L179.837 49.52H173.469L171.037 56.752C170.749 57.584 170.365 58.672 170.365 58.672H170.333C170.333 58.672 169.981 57.584 169.693 56.752L167.261 49.52H160.861L159.293 66ZM184.403 66H189.779L194.355 58.768C194.611 58.32 194.963 57.808 195.251 57.136H195.315C195.251 57.776 195.251 58.416 195.251 58.8V66H200.467V49.52H195.091L190.515 56.784C190.227 57.264 189.907 57.744 189.619 58.416H189.555C189.587 58 189.619 57.36 189.619 56.784V49.52H184.403V66ZM203.48 66H208.76L209.144 58.416C209.208 57.136 209.112 55.6 209.112 55.6H209.176C209.176 55.6 209.784 56.976 210.136 58.032L212.312 63.792H216.792L218.968 58.032C219.384 57.008 219.864 55.6 219.864 55.6H219.928C219.928 55.6 219.864 57.136 219.896 58.416L220.28 66H225.592L224.024 49.52H217.656L215.224 56.752C214.936 57.584 214.552 58.672 214.552 58.672H214.52C214.52 58.672 214.168 57.584 213.88 56.752L211.448 49.52H205.048L203.48 66ZM227.662 57.744C227.662 62.288 230.958 66.384 236.846 66.384C239.598 66.384 242.286 65.328 243.918 63.664L241.902 59.792C240.718 60.816 238.99 61.776 237.39 61.776C234.606 61.776 233.262 59.632 233.262 57.68C233.262 55.728 234.574 53.744 237.198 53.744C238.638 53.744 240.11 54.416 241.07 55.344L243.406 51.632C241.774 49.872 239.15 49.136 236.846 49.136C230.926 49.136 227.662 53.328 227.662 57.744ZM244.522 66H250.378L253.546 60.976H254.698V66H260.234V49.52H251.594C247.946 49.52 245.642 51.632 245.642 55.088C245.642 57.2 246.826 59.088 248.618 59.984V60.016C248.618 60.016 248.298 60.336 247.85 61.008L244.522 66ZM253.386 57.296C252.074 57.296 251.146 56.624 251.146 55.056C251.146 53.52 252.074 52.944 253.354 52.944H254.698V57.296H253.386ZM271.934 66H277.47V54.16H282.366V66H287.902V49.52H271.934V66ZM290.694 57.808C290.694 62.96 294.854 66.384 300.038 66.384C305.222 66.384 309.382 62.96 309.382 57.808C309.382 52.624 305.222 49.136 300.006 49.136C294.854 49.136 290.694 52.624 290.694 57.808ZM296.294 57.808C296.294 55.312 298.022 53.744 300.038 53.744C302.054 53.744 303.782 55.312 303.782 57.808C303.782 60.272 302.054 61.776 300.038 61.776C298.022 61.776 296.294 60.272 296.294 57.808ZM311.417 56.144C311.417 62.192 314.393 66.384 320.345 66.384C325.561 66.384 328.857 62.928 328.857 58.384C328.857 53.968 326.169 50.832 321.753 50.832C320.313 50.832 318.329 51.216 316.921 52.4H316.857C316.953 50.032 319.193 49.136 321.305 48.432L327.513 46.448L325.945 42L320.601 43.792C314.169 46 311.417 49.424 311.417 56.144ZM316.921 58.48C316.921 56.336 318.393 54.992 320.121 54.992C321.849 54.992 323.321 56.336 323.321 58.48C323.321 60.592 321.849 61.872 320.121 61.872C318.393 61.872 316.921 60.592 316.921 58.48ZM330.249 66.16C336.649 66.16 338.569 61.552 338.569 54.832V53.904H341.321V66H346.857V49.52H333.353V54.8C333.353 60.464 331.721 61.136 330.249 61.328V66.16ZM350.559 66H355.935L360.511 58.768C360.767 58.32 361.119 57.808 361.407 57.136H361.471C361.407 57.776 361.407 58.416 361.407 58.8V66H366.623V49.52H361.247L356.671 56.784C356.383 57.264 356.063 57.744 355.775 58.416H355.711C355.743 58 355.775 57.36 355.775 56.784V49.52H350.559V66ZM368.708 66H374.692L377.636 60.016H379.268V66H384.42V60.016H386.084L389.028 66H395.012L390.372 57.488V57.424L394.66 49.52H388.964L385.924 55.376H384.42V49.52H379.268V55.376H377.796L374.756 49.52H369.06L373.348 57.424V57.488L368.708 66ZM395.694 57.744C395.694 62.128 398.862 66.384 404.75 66.384C407.278 66.384 409.998 65.52 411.79 63.984L409.742 60.112C408.398 61.008 406.83 61.776 405.198 61.776C403.438 61.776 401.774 60.848 401.358 58.832H411.758C411.822 58.256 411.886 57.68 411.886 57.104C411.886 52.528 409.134 49.136 404.27 49.136C398.958 49.136 395.694 52.912 395.694 57.744ZM401.486 55.664C401.774 54.352 402.542 53.2 404.142 53.2C405.55 53.2 406.414 54.32 406.414 55.664H401.486Z" fill="#F04B5D"/>
</svg>
