<svg width="292" height="139" viewBox="0 0 292 139" fill="none" xmlns="http://www.w3.org/2000/svg">
<rect width="292" height="139" rx="18" fill="#64A15E"/>
<mask id="mask0" mask-type="alpha" maskUnits="userSpaceOnUse" x="0" y="0" width="292" height="139">
<rect width="292" height="139" rx="18" fill="#64A15E"/>
</mask>
<g mask="url(#mask0)">
<path d="M233 86.375H246.875L248.125 23.25H231.75L233 86.375ZM232.25 112H247.625V97.125H232.25V112Z" fill="#7EB179"/>
</g>
<path d="M33.824 49H35.872V44.248L39.648 37.64H37.312L35.552 40.984C35.2 41.688 34.864 42.504 34.864 42.504H34.832C34.832 42.504 34.496 41.688 34.144 40.984L32.368 37.64H30.032L33.824 44.248V49ZM39.0764 44.92C39.0764 47.432 41.0764 49.192 43.5564 49.192C46.0364 49.192 48.0364 47.432 48.0364 44.92C48.0364 42.424 46.0364 40.648 43.5404 40.648C41.0764 40.648 39.0764 42.424 39.0764 44.92ZM41.1404 44.92C41.1404 43.416 42.2284 42.376 43.5564 42.376C44.8844 42.376 45.9884 43.416 45.9884 44.92C45.9884 46.44 44.8844 47.464 43.5564 47.464C42.2284 47.464 41.1404 46.44 41.1404 44.92ZM49.633 46.088C49.633 48.312 50.705 49.192 52.465 49.192C53.857 49.192 54.913 48.312 55.297 47.48H55.329C55.329 47.48 55.281 47.736 55.281 48.04V49H57.233V40.84H55.217V44.584C55.217 46.04 54.401 47.336 52.929 47.336C51.921 47.336 51.665 46.664 51.665 45.672V40.84H49.633V46.088ZM64.3598 50.104L63.7358 51.656C64.5358 52.072 65.6238 52.36 66.6478 52.36C68.7758 52.36 70.9518 51.304 70.9518 48.504V40.84H69.0318V41.496C69.0318 41.624 69.0638 41.72 69.0638 41.72H69.0158C68.4718 40.968 67.4958 40.648 66.5838 40.648C64.2318 40.648 62.9838 42.472 62.9838 44.712C62.9838 46.952 64.2958 48.84 66.6318 48.84C67.7198 48.84 68.4398 48.424 68.9198 47.704H68.9518C68.9518 47.704 68.9198 47.944 68.9198 48.136V48.648C68.9198 50.104 67.8638 50.632 66.6158 50.632C65.8158 50.632 65.0158 50.424 64.3598 50.104ZM65.0318 44.648C65.0318 43.272 65.7198 42.376 66.9518 42.376C68.0398 42.376 68.9678 42.872 68.9678 44.728C68.9678 46.568 68.0398 47.128 67.0798 47.128C65.7518 47.128 65.0318 46.072 65.0318 44.648ZM72.6389 44.92C72.6389 47.432 74.6389 49.192 77.1189 49.192C79.5989 49.192 81.5989 47.432 81.5989 44.92C81.5989 42.424 79.5989 40.648 77.1029 40.648C74.6389 40.648 72.6389 42.424 72.6389 44.92ZM74.7029 44.92C74.7029 43.416 75.7909 42.376 77.1189 42.376C78.4469 42.376 79.5509 43.416 79.5509 44.92C79.5509 46.44 78.4469 47.464 77.1189 47.464C75.7909 47.464 74.7029 46.44 74.7029 44.92ZM83.5974 46.008C83.5974 48.744 85.8534 49.08 86.9894 49.08C87.2614 49.08 87.4534 49.048 87.6134 49.032V47.256C87.4534 47.288 87.3574 47.288 87.2454 47.288C86.6854 47.288 85.6294 47.096 85.6294 45.752V42.568H87.4854V40.952H85.6294V38.616H83.6454V40.952H82.5414V42.568H83.5974V46.008ZM93.2693 46.008C93.2693 48.744 95.5253 49.08 96.6613 49.08C96.9333 49.08 97.1253 49.048 97.2853 49.032V47.256C97.1253 47.288 97.0293 47.288 96.9173 47.288C96.3573 47.288 95.3013 47.096 95.3013 45.752V42.568H97.1573V40.952H95.3013V38.616H93.3173V40.952H92.2133V42.568H93.2693V46.008ZM98.2639 44.92C98.2639 47.432 100.264 49.192 102.744 49.192C105.224 49.192 107.224 47.432 107.224 44.92C107.224 42.424 105.224 40.648 102.728 40.648C100.264 40.648 98.2639 42.424 98.2639 44.92ZM100.328 44.92C100.328 43.416 101.416 42.376 102.744 42.376C104.072 42.376 105.176 43.416 105.176 44.92C105.176 46.44 104.072 47.464 102.744 47.464C101.416 47.464 100.328 46.44 100.328 44.92ZM113.004 46.008C113.004 48.744 115.26 49.08 116.396 49.08C116.668 49.08 116.86 49.048 117.02 49.032V47.256C116.86 47.288 116.764 47.288 116.652 47.288C116.092 47.288 115.036 47.096 115.036 45.752V42.568H116.892V40.952H115.036V38.616H113.052V40.952H111.948V42.568H113.004V46.008ZM118.572 49H120.604V45.208C120.604 43.656 121.532 42.504 122.956 42.504C123.98 42.504 124.236 43.176 124.236 44.168V49H126.268V43.752C126.268 41.592 125.228 40.648 123.42 40.648C122.012 40.648 120.988 41.512 120.588 42.296H120.556C120.556 42.296 120.604 42.008 120.604 41.608V37.64H118.572V49ZM128.369 39.448H130.401V37.64H128.369V39.448ZM128.369 49H130.401V40.84H128.369V49ZM131.916 47.992C132.764 48.808 133.98 49.192 135.116 49.192C136.988 49.192 138.204 48.12 138.204 46.68C138.204 44.008 134.156 44.376 134.156 43.08C134.156 42.568 134.588 42.296 135.292 42.296C136.012 42.296 136.876 42.584 137.356 43L138.108 41.576C137.356 40.92 136.332 40.648 135.356 40.648C133.644 40.648 132.236 41.496 132.236 43.096C132.236 45.768 136.284 45.448 136.284 46.728C136.284 47.24 135.868 47.544 135.148 47.544C134.332 47.544 133.436 47.208 132.828 46.648L131.916 47.992ZM31.088 78.2H33.12V74.744C33.12 74.328 33.072 74.04 33.072 74.04H33.104C33.68 74.776 34.528 75.192 35.456 75.192C37.6 75.192 39.184 73.512 39.184 70.92C39.184 68.392 37.776 66.648 35.568 66.648C34.464 66.648 33.472 67.144 32.944 68.024H32.912C32.912 68.024 32.944 67.752 32.944 67.448V66.84H31.088V78.2ZM33.056 70.968C33.056 69.16 34.048 68.392 35.12 68.392C36.304 68.392 37.136 69.4 37.136 70.952C37.136 72.568 36.208 73.48 35.088 73.48C33.76 73.48 33.056 72.232 33.056 70.968ZM40.2921 72.744C40.2921 74.232 41.5081 75.192 42.9801 75.192C44.0841 75.192 45.0601 74.584 45.5561 73.72H45.5881C45.5881 73.72 45.5401 73.976 45.5401 74.312V75H47.4281V69.896C47.4281 67.832 46.1641 66.648 44.0361 66.648C42.8201 66.648 41.5081 67.112 40.8361 67.656L41.5881 69.112C42.2441 68.664 43.0601 68.328 43.8601 68.328C44.7081 68.328 45.3961 68.696 45.3961 69.768V69.88H45.0441C43.2361 69.88 40.2921 70.296 40.2921 72.744ZM42.3081 72.568C42.3081 71.416 44.0361 71.272 45.0601 71.272H45.4121V71.496C45.4121 72.488 44.6761 73.64 43.5401 73.64C42.7241 73.64 42.3081 73.112 42.3081 72.568ZM50.4379 76.104L49.8139 77.656C50.6139 78.072 51.7019 78.36 52.7259 78.36C54.8539 78.36 57.0299 77.304 57.0299 74.504V66.84H55.1099V67.496C55.1099 67.624 55.1419 67.72 55.1419 67.72H55.0939C54.5499 66.968 53.5739 66.648 52.6619 66.648C50.3099 66.648 49.0619 68.472 49.0619 70.712C49.0619 72.952 50.3739 74.84 52.7099 74.84C53.7979 74.84 54.5179 74.424 54.9979 73.704H55.0299C55.0299 73.704 54.9979 73.944 54.9979 74.136V74.648C54.9979 76.104 53.9419 76.632 52.6939 76.632C51.8939 76.632 51.0939 76.424 50.4379 76.104ZM51.1099 70.648C51.1099 69.272 51.7979 68.376 53.0299 68.376C54.1179 68.376 55.0459 68.872 55.0459 70.728C55.0459 72.568 54.1179 73.128 53.1579 73.128C51.8299 73.128 51.1099 72.072 51.1099 70.648ZM58.717 70.92C58.717 73.24 60.413 75.192 63.117 75.192C64.285 75.192 65.565 74.76 66.397 74.024L65.597 72.568C64.941 73.096 64.093 73.464 63.261 73.464C62.029 73.464 60.941 72.728 60.813 71.304H66.429C66.461 71.048 66.493 70.776 66.493 70.52C66.493 68.36 65.213 66.648 62.877 66.648C60.429 66.648 58.717 68.408 58.717 70.92ZM60.861 69.912C61.053 68.872 61.789 68.184 62.829 68.184C63.741 68.184 64.445 68.824 64.461 69.912H60.861ZM71.5578 72.744C71.5578 74.232 72.7738 75.192 74.2458 75.192C75.3498 75.192 76.3258 74.584 76.8218 73.72H76.8538C76.8538 73.72 76.8058 73.976 76.8058 74.312V75H78.6938V69.896C78.6938 67.832 77.4298 66.648 75.3018 66.648C74.0858 66.648 72.7738 67.112 72.1018 67.656L72.8538 69.112C73.5098 68.664 74.3258 68.328 75.1258 68.328C75.9738 68.328 76.6618 68.696 76.6618 69.768V69.88H76.3098C74.5018 69.88 71.5578 70.296 71.5578 72.744ZM73.5738 72.568C73.5738 71.416 75.3018 71.272 76.3258 71.272H76.6778V71.496C76.6778 72.488 75.9418 73.64 74.8058 73.64C73.9898 73.64 73.5738 73.112 73.5738 72.568ZM80.7755 72.456C80.7755 74.792 82.1675 75.08 83.2875 75.08C83.5595 75.08 83.7835 75.048 83.9275 75.032V73.256C83.8155 73.272 83.7035 73.272 83.6235 73.272C83.0955 73.272 82.7915 73.048 82.7915 72.152V63.64H80.7755V72.456ZM84.7445 73.992C85.5925 74.808 86.8085 75.192 87.9445 75.192C89.8165 75.192 91.0325 74.12 91.0325 72.68C91.0325 70.008 86.9845 70.376 86.9845 69.08C86.9845 68.568 87.4165 68.296 88.1205 68.296C88.8405 68.296 89.7045 68.584 90.1845 69L90.9365 67.576C90.1845 66.92 89.1605 66.648 88.1845 66.648C86.4725 66.648 85.0645 67.496 85.0645 69.096C85.0645 71.768 89.1125 71.448 89.1125 72.728C89.1125 73.24 88.6965 73.544 87.9765 73.544C87.1605 73.544 86.2645 73.208 85.6565 72.648L84.7445 73.992ZM92.217 70.92C92.217 73.432 94.217 75.192 96.697 75.192C99.177 75.192 101.177 73.432 101.177 70.92C101.177 68.424 99.177 66.648 96.681 66.648C94.217 66.648 92.217 68.424 92.217 70.92ZM94.281 70.92C94.281 69.416 95.369 68.376 96.697 68.376C98.025 68.376 99.129 69.416 99.129 70.92C99.129 72.44 98.025 73.464 96.697 73.464C95.369 73.464 94.281 72.44 94.281 70.92ZM106.957 72.008C106.957 74.744 109.213 75.08 110.349 75.08C110.621 75.08 110.813 75.048 110.973 75.032V73.256C110.813 73.288 110.717 73.288 110.605 73.288C110.045 73.288 108.989 73.096 108.989 71.752V68.568H110.845V66.952H108.989V64.616H107.005V66.952H105.901V68.568H106.957V72.008ZM112.526 75H114.558V71.208C114.558 69.656 115.486 68.504 116.91 68.504C117.934 68.504 118.19 69.176 118.19 70.168V75H120.222V69.752C120.222 67.592 119.182 66.648 117.374 66.648C115.966 66.648 114.942 67.512 114.542 68.296H114.51C114.51 68.296 114.558 68.008 114.558 67.608V63.64H112.526V75ZM121.698 72.744C121.698 74.232 122.914 75.192 124.386 75.192C125.49 75.192 126.466 74.584 126.962 73.72H126.994C126.994 73.72 126.946 73.976 126.946 74.312V75H128.834V69.896C128.834 67.832 127.57 66.648 125.442 66.648C124.226 66.648 122.914 67.112 122.242 67.656L122.994 69.112C123.65 68.664 124.466 68.328 125.266 68.328C126.114 68.328 126.802 68.696 126.802 69.768V69.88H126.45C124.642 69.88 121.698 70.296 121.698 72.744ZM123.714 72.568C123.714 71.416 125.442 71.272 126.466 71.272H126.818V71.496C126.818 72.488 126.082 73.64 124.946 73.64C124.13 73.64 123.714 73.112 123.714 72.568ZM130.916 75H132.948V71.176C132.948 69.704 133.86 68.504 135.3 68.504C136.324 68.504 136.58 69.176 136.58 70.168V75H138.612V69.752C138.612 67.592 137.572 66.648 135.764 66.648C134.116 66.648 133.204 67.688 132.868 68.376H132.836C132.836 68.376 132.868 68.12 132.868 67.8V66.84H130.916V75ZM140.713 75H142.745V71.432H143.801L145.961 75H148.297L145.401 70.52V70.488L147.977 66.84H145.721L143.753 69.72H142.745V63.64H140.713V75ZM148.838 73.992C149.686 74.808 150.902 75.192 152.038 75.192C153.91 75.192 155.126 74.12 155.126 72.68C155.126 70.008 151.078 70.376 151.078 69.08C151.078 68.568 151.51 68.296 152.214 68.296C152.934 68.296 153.798 68.584 154.278 69L155.03 67.576C154.278 66.92 153.254 66.648 152.278 66.648C150.566 66.648 149.158 67.496 149.158 69.096C149.158 71.768 153.206 71.448 153.206 72.728C153.206 73.24 152.79 73.544 152.07 73.544C151.254 73.544 150.358 73.208 149.75 72.648L148.838 73.992ZM31.488 98.008C31.488 100.744 33.744 101.08 34.88 101.08C35.152 101.08 35.344 101.048 35.504 101.032V99.256C35.344 99.288 35.248 99.288 35.136 99.288C34.576 99.288 33.52 99.096 33.52 97.752V94.568H35.376V92.952H33.52V90.616H31.536V92.952H30.432V94.568H31.488V98.008ZM36.4826 96.92C36.4826 99.432 38.4826 101.192 40.9626 101.192C43.4426 101.192 45.4426 99.432 45.4426 96.92C45.4426 94.424 43.4426 92.648 40.9466 92.648C38.4826 92.648 36.4826 94.424 36.4826 96.92ZM38.5466 96.92C38.5466 95.416 39.6346 94.376 40.9626 94.376C42.2906 94.376 43.3946 95.416 43.3946 96.92C43.3946 98.44 42.2906 99.464 40.9626 99.464C39.6346 99.464 38.5466 98.44 38.5466 96.92ZM51.1193 104.2H53.1513V100.744C53.1513 100.328 53.1033 100.04 53.1033 100.04H53.1353C53.7113 100.776 54.5593 101.192 55.4873 101.192C57.6313 101.192 59.2153 99.512 59.2153 96.92C59.2153 94.392 57.8073 92.648 55.5993 92.648C54.4953 92.648 53.5033 93.144 52.9753 94.024H52.9433C52.9433 94.024 52.9753 93.752 52.9753 93.448V92.84H51.1193V104.2ZM53.0873 96.968C53.0873 95.16 54.0793 94.392 55.1513 94.392C56.3353 94.392 57.1673 95.4 57.1673 96.952C57.1673 98.568 56.2393 99.48 55.1193 99.48C53.7913 99.48 53.0873 98.232 53.0873 96.968ZM60.9474 101H62.9794V97.208C62.9794 95.656 63.9074 94.504 65.3314 94.504C66.3554 94.504 66.6114 95.176 66.6114 96.168V101H68.6434V95.752C68.6434 93.592 67.6034 92.648 65.7954 92.648C64.3874 92.648 63.3634 93.512 62.9634 94.296H62.9314C62.9314 94.296 62.9794 94.008 62.9794 93.608V89.64H60.9474V101ZM70.4269 102.312L69.7549 103.832C69.7549 103.832 70.4749 104.36 71.4509 104.36C72.6509 104.36 73.8349 103.72 74.3949 102.232L78.0269 92.84H75.8189L74.2189 97.576C74.0909 98.008 73.9469 98.648 73.9469 98.648H73.9149C73.9149 98.648 73.7709 97.976 73.6109 97.544L71.8989 92.84H69.6109L73.0509 100.872L72.7469 101.592C72.4429 102.312 71.8829 102.648 71.3229 102.648C70.8749 102.648 70.4269 102.312 70.4269 102.312ZM78.5258 99.992C79.3738 100.808 80.5898 101.192 81.7258 101.192C83.5978 101.192 84.8138 100.12 84.8138 98.68C84.8138 96.008 80.7658 96.376 80.7658 95.08C80.7658 94.568 81.1978 94.296 81.9018 94.296C82.6218 94.296 83.4858 94.584 83.9658 95L84.7178 93.576C83.9658 92.92 82.9418 92.648 81.9658 92.648C80.2538 92.648 78.8458 93.496 78.8458 95.096C78.8458 97.768 82.8938 97.448 82.8938 98.728C82.8938 99.24 82.4778 99.544 81.7578 99.544C80.9418 99.544 80.0458 99.208 79.4378 98.648L78.5258 99.992ZM86.4943 91.448H88.5263V89.64H86.4943V91.448ZM86.4943 101H88.5263V92.84H86.4943V101ZM90.2014 96.92C90.2014 99.288 91.9294 101.192 94.6334 101.192C95.9454 101.192 97.2254 100.68 97.9934 99.864L97.2094 98.424C96.6014 99.016 95.6734 99.464 94.8094 99.464C93.2414 99.464 92.2654 98.28 92.2654 96.904C92.2654 95.512 93.2414 94.376 94.7454 94.376C95.5454 94.376 96.3454 94.744 96.8574 95.256L97.7694 93.864C96.9854 93.016 95.7374 92.648 94.6334 92.648C91.9294 92.648 90.2014 94.6 90.2014 96.92ZM98.839 98.744C98.839 100.232 100.055 101.192 101.527 101.192C102.631 101.192 103.607 100.584 104.103 99.72H104.135C104.135 99.72 104.087 99.976 104.087 100.312V101H105.975V95.896C105.975 93.832 104.711 92.648 102.583 92.648C101.367 92.648 100.055 93.112 99.383 93.656L100.135 95.112C100.791 94.664 101.607 94.328 102.407 94.328C103.255 94.328 103.943 94.696 103.943 95.768V95.88H103.591C101.783 95.88 98.839 96.296 98.839 98.744ZM100.855 98.568C100.855 97.416 102.583 97.272 103.607 97.272H103.959V97.496C103.959 98.488 103.223 99.64 102.087 99.64C101.271 99.64 100.855 99.112 100.855 98.568ZM108.057 98.456C108.057 100.792 109.449 101.08 110.569 101.08C110.841 101.08 111.065 101.048 111.209 101.032V99.256C111.097 99.272 110.985 99.272 110.905 99.272C110.377 99.272 110.073 99.048 110.073 98.152V89.64H108.057V98.456ZM116.682 98.456C116.682 100.792 118.074 101.08 119.194 101.08C119.466 101.08 119.69 101.048 119.834 101.032V99.256C119.722 99.272 119.61 99.272 119.53 99.272C119.002 99.272 118.698 99.048 118.698 98.152V89.64H116.682V98.456ZM120.683 98.744C120.683 100.232 121.899 101.192 123.371 101.192C124.475 101.192 125.451 100.584 125.947 99.72H125.979C125.979 99.72 125.931 99.976 125.931 100.312V101H127.819V95.896C127.819 93.832 126.555 92.648 124.427 92.648C123.211 92.648 121.899 93.112 121.227 93.656L121.979 95.112C122.635 94.664 123.451 94.328 124.251 94.328C125.099 94.328 125.787 94.696 125.787 95.768V95.88H125.435C123.627 95.88 120.683 96.296 120.683 98.744ZM122.699 98.568C122.699 97.416 124.427 97.272 125.451 97.272H125.803V97.496C125.803 98.488 125.067 99.64 123.931 99.64C123.115 99.64 122.699 99.112 122.699 98.568ZM131.503 101H133.775L135.167 96.344C135.279 95.912 135.359 95.464 135.359 95.464H135.391C135.391 95.464 135.471 95.912 135.599 96.344L136.975 101H139.231L141.711 92.84H139.599L138.175 98.2C138.047 98.632 137.999 99.064 137.999 99.064H137.967C137.967 99.064 137.903 98.632 137.791 98.2L136.287 92.856H134.479L132.975 98.2C132.863 98.632 132.783 99.064 132.783 99.064H132.751C132.751 99.064 132.703 98.632 132.591 98.2L131.167 92.84H129.023L131.503 101ZM142.354 99.992C143.202 100.808 144.418 101.192 145.554 101.192C147.426 101.192 148.642 100.12 148.642 98.68C148.642 96.008 144.594 96.376 144.594 95.08C144.594 94.568 145.026 94.296 145.73 94.296C146.45 94.296 147.314 94.584 147.794 95L148.546 93.576C147.794 92.92 146.77 92.648 145.794 92.648C144.082 92.648 142.674 93.496 142.674 95.096C142.674 97.768 146.722 97.448 146.722 98.728C146.722 99.24 146.306 99.544 145.586 99.544C144.77 99.544 143.874 99.208 143.266 98.648L142.354 99.992Z" fill="white"/>
</svg>
