<svg width="362" height="238" viewBox="0 0 362 238" fill="none" xmlns="http://www.w3.org/2000/svg">
<rect width="362" height="238" rx="18" fill="#DFE2ED"/>
<mask id="mask0" mask-type="alpha" maskUnits="userSpaceOnUse" x="0" y="0" width="362" height="238">
<rect width="362" height="238" rx="18" fill="#F5F6FA"/>
</mask>
<g mask="url(#mask0)">
<path fill-rule="evenodd" clip-rule="evenodd" d="M390.666 134.515C396.273 136.627 401.392 138.904 405.921 141.293C413.365 145.22 419.167 149.422 422.941 153.644C426.72 157.873 428.369 162.006 427.802 165.859C427.235 169.712 424.465 173.195 419.629 176.155C414.799 179.112 408.032 181.465 399.772 183.081C393.961 184.218 387.439 184.985 380.376 185.347C380.065 185.7 379.75 186.05 379.429 186.394C407.251 185.125 427.075 177.669 428.792 166.004C430.445 154.767 414.877 142.428 390.238 133.287C390.386 133.694 390.528 134.103 390.666 134.515ZM299.515 120.088C273.661 121.83 255.514 129.131 253.875 140.268C252.174 151.828 268.695 164.552 294.567 173.762C294.36 173.339 294.159 172.913 293.964 172.483C287.584 170.17 281.798 167.644 276.746 164.979C269.301 161.053 263.499 156.851 259.726 152.628C255.947 148.4 254.297 144.267 254.864 140.414C255.431 136.561 258.201 133.078 263.038 130.117C267.868 127.16 274.634 124.808 282.894 123.192C287.722 122.247 293.041 121.558 298.753 121.144C299.003 120.789 299.257 120.437 299.515 120.088Z" fill="#8A8D95"/>
<path d="M393.333 151C393.333 179.719 370.052 203 341.333 203C312.614 203 289.333 179.719 289.333 151C289.333 122.281 312.614 99 341.333 99C370.052 99 393.333 122.281 393.333 151Z" fill="#F1F4FB"/>
<path d="M428.297 165.931C427.7 169.989 424.793 173.58 419.89 176.581C414.991 179.581 408.161 181.949 399.869 183.571C383.289 186.815 360.975 187.056 336.865 183.509C312.755 179.961 291.456 173.303 276.513 165.421C269.04 161.479 263.181 157.244 259.353 152.961C255.523 148.675 253.773 144.398 254.37 140.34C254.967 136.283 257.874 132.691 262.777 129.69C267.677 126.691 274.507 124.323 282.799 122.701C299.378 119.457 321.692 119.215 345.803 122.763C369.913 126.31 391.212 132.969 406.154 140.851C413.628 144.793 419.486 149.027 423.314 153.311C427.145 157.597 428.894 161.874 428.297 165.931Z" stroke="#A6B4C6"/>
<path d="M261 141.5C261 145.09 258.09 148 254.5 148C250.91 148 248 145.09 248 141.5C248 137.91 250.91 135 254.5 135C258.09 135 261 137.91 261 141.5Z" fill="#F04B5D"/>
<mask id="mask1" mask-type="alpha" maskUnits="userSpaceOnUse" x="289" y="99" width="105" height="104">
<path d="M393.333 151C393.333 179.719 370.052 203 341.333 203C312.614 203 289.333 179.719 289.333 151C289.333 122.281 312.614 99 341.333 99C370.052 99 393.333 122.281 393.333 151Z" fill="#97999D"/>
</mask>
<g mask="url(#mask1)">
<rect x="278.935" y="83.4" width="119.6" height="72.8" fill="#F1F4FB"/>
</g>
</g>
<path d="M45.01 145.58H46.074V142.948H45.01V145.58ZM43.036 145.58H44.114V142.948H43.036V145.58ZM50.0393 153H51.6353L53.3573 146.588C53.5393 145.944 53.6653 145.202 53.6653 145.202H53.7213C53.7213 145.202 53.8473 145.944 54.0153 146.588L55.7513 153H57.3333L59.9373 143.116H58.5093L56.6753 150.368C56.5493 150.9 56.4933 151.418 56.4933 151.418H56.4653C56.4653 151.418 56.3813 150.914 56.2413 150.368L54.3093 143.116H53.0913L51.1453 150.368C51.0053 150.914 50.9213 151.418 50.9213 151.418H50.8933C50.8933 151.418 50.8233 150.9 50.6973 150.368L48.9753 143.116H47.5193L50.0393 153ZM61.343 153H62.701V149.64C62.701 148.114 63.695 146.994 65.067 146.994C66.201 146.994 66.397 147.778 66.397 148.772V153H67.755V148.464C67.755 146.658 66.999 145.748 65.333 145.748C63.919 145.748 62.995 146.7 62.673 147.372H62.645C62.645 147.372 62.701 147.12 62.701 146.784V143.116H61.343V153ZM69.3165 149.458C69.3165 151.558 70.8565 153.168 73.0825 153.168C74.0625 153.168 75.1405 152.79 75.8265 152.16L75.2525 151.166C74.6925 151.67 73.9225 151.992 73.1665 151.992C71.8925 151.992 70.8005 151.166 70.7305 149.64H75.8825C75.9105 149.444 75.9385 149.248 75.9385 149.066C75.9385 147.246 74.8745 145.748 72.8725 145.748C70.8565 145.748 69.3165 147.204 69.3165 149.458ZM70.7725 148.66C70.9685 147.484 71.7945 146.798 72.8445 146.798C73.7685 146.798 74.5245 147.442 74.5665 148.66H70.7725ZM77.5715 153H78.9295V149.598C78.9295 148.142 79.9095 146.994 81.2955 146.994C82.4295 146.994 82.6255 147.778 82.6255 148.772V153H83.9835V148.464C83.9835 146.658 83.2275 145.748 81.5615 145.748C80.0075 145.748 79.1395 146.798 78.8735 147.414H78.8455C78.8455 147.414 78.8875 147.176 78.8875 146.882V145.916H77.5715V153ZM88.905 152.132C89.605 152.846 90.655 153.168 91.607 153.168C93.119 153.168 94.155 152.286 94.155 151.082C94.155 148.744 90.501 149.15 90.501 147.764C90.501 147.162 91.019 146.882 91.705 146.882C92.335 146.882 93.077 147.12 93.497 147.512L94.043 146.532C93.427 145.972 92.559 145.748 91.747 145.748C90.361 145.748 89.199 146.448 89.199 147.792C89.199 150.116 92.839 149.752 92.839 151.11C92.839 151.698 92.349 152.034 91.635 152.034C90.893 152.034 90.081 151.726 89.549 151.208L88.905 152.132ZM96.0628 150.41C96.0628 152.776 97.8688 153.07 98.7788 153.07C98.9888 153.07 99.1428 153.042 99.2548 153.028V151.824C99.1148 151.852 99.0308 151.852 98.9328 151.852C98.4147 151.852 97.4208 151.67 97.4208 150.256V147.092H99.1288V145.986H97.4208V143.97H96.0908V145.986H95.1388V147.092H96.0628V150.41ZM100.566 150.452C100.566 152.328 101.392 153.168 102.988 153.168C104.374 153.168 105.312 152.202 105.62 151.502H105.648C105.648 151.502 105.592 151.74 105.592 152.02V153H106.908V145.916H105.564V149.234C105.564 150.634 104.71 151.908 103.254 151.908C102.134 151.908 101.924 151.124 101.924 150.144V145.916H100.566V150.452ZM108.569 149.458C108.569 151.656 109.787 153.168 111.691 153.168C112.811 153.168 113.637 152.58 114.043 151.81H114.071C114.071 151.81 114.029 152.006 114.029 152.286V153H115.317V143.116H113.973V146.434C113.973 146.7 114.001 146.91 114.001 146.91H113.973C113.525 146.154 112.671 145.748 111.775 145.748C109.899 145.748 108.569 147.204 108.569 149.458ZM109.955 149.458C109.955 147.848 110.879 146.938 111.985 146.938C113.343 146.938 114.001 148.17 114.001 149.444C114.001 151.236 113.007 151.992 111.957 151.992C110.781 151.992 109.955 150.998 109.955 149.458ZM117.061 154.47L116.585 155.506C116.585 155.506 117.159 155.94 117.943 155.94C118.937 155.94 119.819 155.38 120.239 154.274L123.571 145.916H122.101L120.379 150.564C120.253 150.928 120.141 151.404 120.141 151.404H120.113C120.113 151.404 119.987 150.9 119.847 150.55L118.069 145.916H116.543L119.511 152.916L119.161 153.728C118.895 154.372 118.433 154.778 117.873 154.778C117.453 154.778 117.061 154.47 117.061 154.47ZM124.876 144.488H126.276V143.116H124.876V144.488ZM124.904 153H126.262V145.916H124.904V153ZM128.349 153H129.707V149.598C129.707 148.142 130.687 146.994 132.073 146.994C133.207 146.994 133.403 147.778 133.403 148.772V153H134.761V148.464C134.761 146.658 134.005 145.748 132.339 145.748C130.785 145.748 129.917 146.798 129.651 147.414H129.623C129.623 147.414 129.665 147.176 129.665 146.882V145.916H128.349V153ZM137.456 154.288L137.008 155.352C137.708 155.702 138.576 155.94 139.43 155.94C141.222 155.94 143 155.044 143 152.706V145.916H141.698V146.616C141.698 146.742 141.74 146.826 141.74 146.826H141.698C141.25 146.07 140.34 145.748 139.458 145.748C137.484 145.748 136.364 147.26 136.364 149.304C136.364 151.334 137.554 152.916 139.528 152.916C140.55 152.916 141.236 152.468 141.656 151.768H141.684C141.684 151.768 141.642 151.992 141.642 152.216V152.79C141.642 154.204 140.634 154.764 139.402 154.764C138.716 154.764 138.016 154.568 137.456 154.288ZM137.736 149.262C137.736 147.82 138.45 146.924 139.668 146.924C140.774 146.924 141.67 147.456 141.67 149.304C141.67 151.152 140.774 151.74 139.794 151.74C138.52 151.74 137.736 150.732 137.736 149.262ZM147.995 152.132C148.695 152.846 149.745 153.168 150.697 153.168C152.209 153.168 153.245 152.286 153.245 151.082C153.245 148.744 149.591 149.15 149.591 147.764C149.591 147.162 150.109 146.882 150.795 146.882C151.425 146.882 152.167 147.12 152.587 147.512L153.133 146.532C152.517 145.972 151.649 145.748 150.837 145.748C149.451 145.748 148.289 146.448 148.289 147.792C148.289 150.116 151.929 149.752 151.929 151.11C151.929 151.698 151.439 152.034 150.725 152.034C149.983 152.034 149.171 151.726 148.639 151.208L147.995 152.132ZM154.397 149.458C154.397 151.586 155.951 153.168 158.191 153.168C159.297 153.168 160.375 152.72 161.019 152.034L160.473 151.04C159.927 151.614 159.073 151.992 158.289 151.992C156.819 151.992 155.783 150.886 155.783 149.444C155.783 148.002 156.819 146.924 158.247 146.924C158.989 146.924 159.731 147.26 160.207 147.736L160.851 146.784C160.179 146.07 159.129 145.748 158.191 145.748C155.965 145.748 154.397 147.358 154.397 149.458ZM162.46 144.488H163.86V143.116H162.46V144.488ZM162.488 153H163.846V145.916H162.488V153ZM165.471 149.458C165.471 151.558 167.011 153.168 169.237 153.168C170.217 153.168 171.295 152.79 171.981 152.16L171.407 151.166C170.847 151.67 170.077 151.992 169.321 151.992C168.047 151.992 166.955 151.166 166.885 149.64H172.037C172.065 149.444 172.093 149.248 172.093 149.066C172.093 147.246 171.029 145.748 169.027 145.748C167.011 145.748 165.471 147.204 165.471 149.458ZM166.927 148.66C167.123 147.484 167.949 146.798 168.999 146.798C169.923 146.798 170.679 147.442 170.721 148.66H166.927ZM173.726 153H175.084V149.598C175.084 148.142 176.064 146.994 177.45 146.994C178.584 146.994 178.78 147.778 178.78 148.772V153H180.138V148.464C180.138 146.658 179.382 145.748 177.716 145.748C176.162 145.748 175.294 146.798 175.028 147.414H175C175 147.414 175.042 147.176 175.042 146.882V145.916H173.726V153ZM181.699 149.458C181.699 151.586 183.253 153.168 185.493 153.168C186.599 153.168 187.677 152.72 188.321 152.034L187.775 151.04C187.229 151.614 186.375 151.992 185.591 151.992C184.121 151.992 183.085 150.886 183.085 149.444C183.085 148.002 184.121 146.924 185.549 146.924C186.291 146.924 187.033 147.26 187.509 147.736L188.153 146.784C187.481 146.07 186.431 145.748 185.493 145.748C183.267 145.748 181.699 147.358 181.699 149.458ZM189.178 149.458C189.178 151.558 190.718 153.168 192.944 153.168C193.924 153.168 195.002 152.79 195.688 152.16L195.114 151.166C194.554 151.67 193.784 151.992 193.028 151.992C191.754 151.992 190.662 151.166 190.592 149.64H195.744C195.772 149.444 195.8 149.248 195.8 149.066C195.8 147.246 194.736 145.748 192.734 145.748C190.718 145.748 189.178 147.204 189.178 149.458ZM190.634 148.66C190.83 147.484 191.656 146.798 192.706 146.798C193.63 146.798 194.386 147.442 194.428 148.66H190.634ZM196.831 152.132C197.531 152.846 198.581 153.168 199.533 153.168C201.045 153.168 202.081 152.286 202.081 151.082C202.081 148.744 198.427 149.15 198.427 147.764C198.427 147.162 198.945 146.882 199.631 146.882C200.261 146.882 201.003 147.12 201.423 147.512L201.969 146.532C201.353 145.972 200.485 145.748 199.673 145.748C198.287 145.748 197.125 146.448 197.125 147.792C197.125 150.116 200.765 149.752 200.765 151.11C200.765 151.698 200.275 152.034 199.561 152.034C198.819 152.034 198.007 151.726 197.475 151.208L196.831 152.132ZM203.135 154.414H204.213L205.431 151.53H204.003L203.135 154.414ZM42.588 173.458C42.588 175.558 44.128 177.168 46.354 177.168C47.334 177.168 48.412 176.79 49.098 176.16L48.524 175.166C47.964 175.67 47.194 175.992 46.438 175.992C45.164 175.992 44.072 175.166 44.002 173.64H49.154C49.182 173.444 49.21 173.248 49.21 173.066C49.21 171.246 48.146 169.748 46.144 169.748C44.128 169.748 42.588 171.204 42.588 173.458ZM44.044 172.66C44.24 171.484 45.066 170.798 46.116 170.798C47.04 170.798 47.796 171.442 47.838 172.66H44.044ZM49.9763 177H51.5163L53.0003 174.634C53.1123 174.466 53.2103 174.256 53.2103 174.256H53.2383C53.2383 174.256 53.3503 174.466 53.4623 174.634L54.9463 177H56.4863L54.0643 173.36L56.3463 169.916H54.7923L53.4763 172.072C53.3783 172.254 53.2383 172.492 53.2383 172.492H53.2103C53.2103 172.492 53.0843 172.254 52.9863 172.072L51.6703 169.916H50.1163L52.3983 173.36L49.9763 177ZM57.1866 175.068C57.1866 176.398 58.3206 177.168 59.5526 177.168C60.6026 177.168 61.4706 176.538 61.8766 175.726H61.9046C61.9046 175.726 61.8626 175.964 61.8626 176.286V177H63.1366V172.52C63.1366 170.728 62.1146 169.748 60.3366 169.748C59.3426 169.748 58.2646 170.112 57.6906 170.588L58.2366 171.582C58.8106 171.176 59.5246 170.896 60.2246 170.896C61.1066 170.896 61.7786 171.288 61.7786 172.45V172.59H61.4146C59.9446 172.59 57.1866 172.842 57.1866 175.068ZM58.5446 174.956C58.5446 173.654 60.4206 173.57 61.4286 173.57H61.7786V173.836C61.7786 174.886 61.0646 176.09 59.8746 176.09C58.9926 176.09 58.5446 175.516 58.5446 174.956ZM65.1574 177H66.5154V173.696C66.5154 172.38 67.2994 170.98 68.6434 170.98C69.7214 170.98 69.8614 171.834 69.8614 172.758V177H71.2194V173.696C71.2194 172.338 72.0034 170.98 73.3194 170.98C74.3694 170.98 74.5654 171.764 74.5654 172.758V177H75.9234V172.464C75.9234 170.658 75.1954 169.748 73.5854 169.748C72.4374 169.748 71.4574 170.532 71.0654 171.358H71.0374C70.7994 170.294 70.1134 169.748 68.9234 169.748C67.8034 169.748 66.7954 170.588 66.4594 171.414H66.4314C66.4314 171.414 66.4734 171.176 66.4734 170.882V169.916H65.1574V177ZM77.9543 179.8H79.3123V176.58C79.3123 176.216 79.2563 175.964 79.2563 175.964H79.2843C79.7743 176.72 80.5863 177.168 81.4823 177.168C83.3443 177.168 84.6883 175.712 84.6883 173.458C84.6883 171.26 83.4983 169.748 81.5803 169.748C80.5443 169.748 79.6483 170.224 79.2003 171.078H79.1723C79.1723 171.078 79.2143 170.84 79.2143 170.546V169.916H77.9543V179.8ZM79.2703 173.486C79.2703 171.694 80.2503 170.938 81.3143 170.938C82.4903 170.938 83.3163 171.932 83.3163 173.472C83.3163 175.082 82.3923 175.992 81.2723 175.992C79.9703 175.992 79.2703 174.746 79.2703 173.486ZM86.3625 175.054C86.3625 176.846 87.4825 177.07 88.2665 177.07C88.4625 177.07 88.6165 177.042 88.7145 177.028V175.824C88.6305 175.838 88.5325 175.838 88.4765 175.838C88.0565 175.838 87.7065 175.67 87.7065 174.83V167.116H86.3625V175.054ZM89.6329 173.458C89.6329 175.558 91.1729 177.168 93.3989 177.168C94.3789 177.168 95.4569 176.79 96.1429 176.16L95.5689 175.166C95.0089 175.67 94.2389 175.992 93.4829 175.992C92.2089 175.992 91.1169 175.166 91.0469 173.64H96.1989C96.2269 173.444 96.2549 173.248 96.2549 173.066C96.2549 171.246 95.1909 169.748 93.1889 169.748C91.1729 169.748 89.6329 171.204 89.6329 173.458ZM91.0889 172.66C91.2849 171.484 92.1109 170.798 93.1609 170.798C94.0849 170.798 94.8409 171.442 94.8829 172.66H91.0889ZM97.2859 176.132C97.9859 176.846 99.0359 177.168 99.9879 177.168C101.5 177.168 102.536 176.286 102.536 175.082C102.536 172.744 98.8819 173.15 98.8819 171.764C98.8819 171.162 99.3999 170.882 100.086 170.882C100.716 170.882 101.458 171.12 101.878 171.512L102.424 170.532C101.808 169.972 100.94 169.748 100.128 169.748C98.7419 169.748 97.5799 170.448 97.5799 171.792C97.5799 174.116 101.22 173.752 101.22 175.11C101.22 175.698 100.73 176.034 100.016 176.034C99.2739 176.034 98.4619 175.726 97.9299 175.208L97.2859 176.132ZM107.062 175.068C107.062 176.398 108.196 177.168 109.428 177.168C110.478 177.168 111.346 176.538 111.752 175.726H111.78C111.78 175.726 111.738 175.964 111.738 176.286V177H113.012V172.52C113.012 170.728 111.99 169.748 110.212 169.748C109.218 169.748 108.14 170.112 107.566 170.588L108.112 171.582C108.686 171.176 109.4 170.896 110.1 170.896C110.982 170.896 111.654 171.288 111.654 172.45V172.59H111.29C109.82 172.59 107.062 172.842 107.062 175.068ZM108.42 174.956C108.42 173.654 110.296 173.57 111.304 173.57H111.654V173.836C111.654 174.886 110.94 176.09 109.75 176.09C108.868 176.09 108.42 175.516 108.42 174.956ZM115.032 177H116.39V174.06C116.39 172.688 117.034 171.176 118.56 171.176C118.7 171.176 118.896 171.19 118.952 171.204V169.86C118.84 169.846 118.714 169.832 118.588 169.832C117.496 169.832 116.67 170.686 116.334 171.708H116.306C116.306 171.708 116.348 171.484 116.348 171.19V169.916H115.032V177ZM119.656 173.458C119.656 175.558 121.196 177.168 123.422 177.168C124.402 177.168 125.48 176.79 126.166 176.16L125.592 175.166C125.032 175.67 124.262 175.992 123.506 175.992C122.232 175.992 121.14 175.166 121.07 173.64H126.222C126.25 173.444 126.278 173.248 126.278 173.066C126.278 171.246 125.214 169.748 123.212 169.748C121.196 169.748 119.656 171.204 119.656 173.458ZM121.112 172.66C121.308 171.484 122.134 170.798 123.184 170.798C124.108 170.798 124.864 171.442 124.906 172.66H121.112ZM131.411 177H132.769V173.696C132.769 172.38 133.553 170.98 134.897 170.98C135.975 170.98 136.115 171.834 136.115 172.758V177H137.473V173.696C137.473 172.338 138.257 170.98 139.573 170.98C140.623 170.98 140.819 171.764 140.819 172.758V177H142.177V172.464C142.177 170.658 141.449 169.748 139.839 169.748C138.691 169.748 137.711 170.532 137.319 171.358H137.291C137.053 170.294 136.367 169.748 135.177 169.748C134.057 169.748 133.049 170.588 132.713 171.414H132.685C132.685 171.414 132.727 171.176 132.727 170.882V169.916H131.411V177ZM143.746 173.444C143.746 175.6 145.454 177.168 147.568 177.168C149.668 177.168 151.376 175.6 151.376 173.444C151.376 171.302 149.668 169.748 147.554 169.748C145.454 169.748 143.746 171.302 143.746 173.444ZM145.132 173.444C145.132 171.974 146.224 170.924 147.568 170.924C148.898 170.924 150.004 171.974 150.004 173.444C150.004 174.928 148.898 175.992 147.568 175.992C146.224 175.992 145.132 174.928 145.132 173.444ZM153.013 177H154.371V174.06C154.371 172.688 155.015 171.176 156.541 171.176C156.681 171.176 156.877 171.19 156.933 171.204V169.86C156.821 169.846 156.695 169.832 156.569 169.832C155.477 169.832 154.651 170.686 154.315 171.708H154.287C154.287 171.708 154.329 171.484 154.329 171.19V169.916H153.013V177ZM157.637 173.458C157.637 175.558 159.177 177.168 161.403 177.168C162.383 177.168 163.461 176.79 164.147 176.16L163.573 175.166C163.013 175.67 162.243 175.992 161.487 175.992C160.213 175.992 159.121 175.166 159.051 173.64H164.203C164.231 173.444 164.259 173.248 164.259 173.066C164.259 171.246 163.195 169.748 161.193 169.748C159.177 169.748 157.637 171.204 157.637 173.458ZM159.093 172.66C159.289 171.484 160.115 170.798 161.165 170.798C162.089 170.798 162.845 171.442 162.887 172.66H159.093ZM169.308 174.452C169.308 176.328 170.134 177.168 171.73 177.168C173.116 177.168 174.054 176.202 174.362 175.502H174.39C174.39 175.502 174.334 175.74 174.334 176.02V177H175.65V169.916H174.306V173.234C174.306 174.634 173.452 175.908 171.996 175.908C170.876 175.908 170.666 175.124 170.666 174.144V169.916H169.308V174.452ZM177.143 176.132C177.843 176.846 178.893 177.168 179.845 177.168C181.357 177.168 182.393 176.286 182.393 175.082C182.393 172.744 178.739 173.15 178.739 171.764C178.739 171.162 179.257 170.882 179.943 170.882C180.573 170.882 181.315 171.12 181.735 171.512L182.281 170.532C181.665 169.972 180.797 169.748 179.985 169.748C178.599 169.748 177.437 170.448 177.437 171.792C177.437 174.116 181.077 173.752 181.077 175.11C181.077 175.698 180.587 176.034 179.873 176.034C179.131 176.034 178.319 175.726 177.787 175.208L177.143 176.132ZM183.545 173.458C183.545 175.558 185.085 177.168 187.311 177.168C188.291 177.168 189.369 176.79 190.055 176.16L189.481 175.166C188.921 175.67 188.151 175.992 187.395 175.992C186.121 175.992 185.029 175.166 184.959 173.64H190.111C190.139 173.444 190.167 173.248 190.167 173.066C190.167 171.246 189.103 169.748 187.101 169.748C185.085 169.748 183.545 171.204 183.545 173.458ZM185.001 172.66C185.197 171.484 186.023 170.798 187.073 170.798C187.997 170.798 188.753 171.442 188.795 172.66H185.001ZM192.136 177H193.494V171.092H195.16V169.986H193.494V169.692C193.494 168.39 194.446 168.236 194.978 168.236C195.132 168.236 195.272 168.25 195.328 168.264V167.088C195.146 167.06 194.992 167.046 194.81 167.046C193.914 167.046 192.136 167.34 192.136 169.678V169.986H191.254V171.092H192.136V177ZM196.46 174.452C196.46 176.328 197.286 177.168 198.882 177.168C200.268 177.168 201.206 176.202 201.514 175.502H201.542C201.542 175.502 201.486 175.74 201.486 176.02V177H202.802V169.916H201.458V173.234C201.458 174.634 200.604 175.908 199.148 175.908C198.028 175.908 197.818 175.124 197.818 174.144V169.916H196.46V174.452ZM204.898 175.054C204.898 176.846 206.018 177.07 206.802 177.07C206.998 177.07 207.152 177.042 207.25 177.028V175.824C207.166 175.838 207.068 175.838 207.012 175.838C206.592 175.838 206.242 175.67 206.242 174.83V167.116H204.898V175.054ZM212.151 174.41C212.151 176.776 213.957 177.07 214.867 177.07C215.077 177.07 215.231 177.042 215.343 177.028V175.824C215.203 175.852 215.119 175.852 215.021 175.852C214.503 175.852 213.509 175.67 213.509 174.256V171.092H215.217V169.986H213.509V167.97H212.179V169.986H211.227V171.092H212.151V174.41ZM216.738 177H218.096V173.64C218.096 172.114 219.09 170.994 220.462 170.994C221.596 170.994 221.792 171.778 221.792 172.772V177H223.15V172.464C223.15 170.658 222.394 169.748 220.728 169.748C219.314 169.748 218.39 170.7 218.068 171.372H218.04C218.04 171.372 218.096 171.12 218.096 170.784V167.116H216.738V177ZM224.585 175.068C224.585 176.398 225.719 177.168 226.951 177.168C228.001 177.168 228.869 176.538 229.275 175.726H229.303C229.303 175.726 229.261 175.964 229.261 176.286V177H230.535V172.52C230.535 170.728 229.513 169.748 227.735 169.748C226.741 169.748 225.663 170.112 225.089 170.588L225.635 171.582C226.209 171.176 226.923 170.896 227.623 170.896C228.505 170.896 229.177 171.288 229.177 172.45V172.59H228.813C227.343 172.59 224.585 172.842 224.585 175.068ZM225.943 174.956C225.943 173.654 227.819 173.57 228.827 173.57H229.177V173.836C229.177 174.886 228.463 176.09 227.273 176.09C226.391 176.09 225.943 175.516 225.943 174.956ZM232.556 177H233.914V173.598C233.914 172.142 234.894 170.994 236.28 170.994C237.414 170.994 237.61 171.778 237.61 172.772V177H238.968V172.464C238.968 170.658 238.212 169.748 236.546 169.748C234.992 169.748 234.124 170.798 233.858 171.414H233.83C233.83 171.414 233.872 171.176 233.872 170.882V169.916H232.556V177ZM244.491 177H245.849V174.06C245.849 172.688 246.493 171.176 248.019 171.176C248.159 171.176 248.355 171.19 248.411 171.204V169.86C248.299 169.846 248.173 169.832 248.047 169.832C246.955 169.832 246.129 170.686 245.793 171.708H245.765C245.765 171.708 245.807 171.484 245.807 171.19V169.916H244.491V177ZM249.671 174.452C249.671 176.328 250.497 177.168 252.093 177.168C253.479 177.168 254.417 176.202 254.725 175.502H254.753C254.753 175.502 254.697 175.74 254.697 176.02V177H256.013V169.916H254.669V173.234C254.669 174.634 253.815 175.908 252.359 175.908C251.239 175.908 251.029 175.124 251.029 174.144V169.916H249.671V174.452ZM258.109 175.054C258.109 176.846 259.229 177.07 260.013 177.07C260.209 177.07 260.363 177.042 260.461 177.028V175.824C260.377 175.838 260.279 175.838 260.223 175.838C259.803 175.838 259.453 175.67 259.453 174.83V167.116H258.109V175.054ZM261.379 173.458C261.379 175.558 262.919 177.168 265.145 177.168C266.125 177.168 267.203 176.79 267.889 176.16L267.315 175.166C266.755 175.67 265.985 175.992 265.229 175.992C263.955 175.992 262.863 175.166 262.793 173.64H267.945C267.973 173.444 268.001 173.248 268.001 173.066C268.001 171.246 266.937 169.748 264.935 169.748C262.919 169.748 261.379 171.204 261.379 173.458ZM262.835 172.66C263.031 171.484 263.857 170.798 264.907 170.798C265.831 170.798 266.587 171.442 266.629 172.66H262.835ZM269.032 176.132C269.732 176.846 270.782 177.168 271.734 177.168C273.246 177.168 274.282 176.286 274.282 175.082C274.282 172.744 270.628 173.15 270.628 171.764C270.628 171.162 271.146 170.882 271.832 170.882C272.462 170.882 273.204 171.12 273.624 171.512L274.17 170.532C273.554 169.972 272.686 169.748 271.874 169.748C270.488 169.748 269.326 170.448 269.326 171.792C269.326 174.116 272.966 173.752 272.966 175.11C272.966 175.698 272.476 176.034 271.762 176.034C271.02 176.034 270.208 175.726 269.676 175.208L269.032 176.132ZM277.856 169.58H278.92V166.948H277.856V169.58ZM275.882 169.58H276.96V166.948H275.882V169.58Z" fill="#222224"/>
<path d="M42.16 69H44.8L46 65.36H50.98L52.2 69H54.84L49.86 54.8H47.14L42.16 69ZM46.64 63.26L47.92 59.46C48.16 58.66 48.48 57.26 48.48 57.26H48.52C48.52 57.26 48.84 58.66 49.08 59.46L50.34 63.26H46.64ZM55.612 63.9C55.612 67.06 57.392 69.24 60.132 69.24C61.592 69.24 62.752 68.52 63.352 67.48H63.392C63.392 67.48 63.352 67.74 63.352 68.12V69H65.732V54.8H63.212V59.3C63.212 59.64 63.252 59.9 63.252 59.9H63.212C62.552 58.98 61.372 58.56 60.232 58.56C57.532 58.56 55.612 60.66 55.612 63.9ZM58.172 63.9C58.172 61.88 59.352 60.74 60.732 60.74C62.452 60.74 63.272 62.3 63.272 63.88C63.272 66.14 62.032 67.1 60.712 67.1C59.212 67.1 58.172 65.84 58.172 63.9ZM68.4772 69H71.0172V64.26C71.0172 62.32 72.1772 60.88 73.9572 60.88C75.2372 60.88 75.5572 61.72 75.5572 62.96V69H78.0972V62.44C78.0972 59.74 76.7972 58.56 74.5372 58.56C72.7772 58.56 71.4972 59.64 70.9972 60.62H70.9572C70.9572 60.62 71.0172 60.26 71.0172 59.76V54.8H68.4772V69ZM80.1033 63.9C80.1033 66.8 82.2233 69.24 85.6033 69.24C87.0633 69.24 88.6633 68.7 89.7033 67.78L88.7033 65.96C87.8833 66.62 86.8233 67.08 85.7833 67.08C84.2433 67.08 82.8833 66.16 82.7233 64.38H89.7433C89.7833 64.06 89.8233 63.72 89.8233 63.4C89.8233 60.7 88.2233 58.56 85.3033 58.56C82.2433 58.56 80.1033 60.76 80.1033 63.9ZM82.7833 62.64C83.0233 61.34 83.9433 60.48 85.2433 60.48C86.3833 60.48 87.2633 61.28 87.2833 62.64H82.7833ZM91.9342 69H94.4742V64.88C94.4742 62.96 95.3942 61.16 97.4742 61.16C97.6942 61.16 97.9942 61.18 98.0942 61.2V58.7C97.9342 58.68 97.7742 58.66 97.6142 58.66C96.0742 58.66 94.8342 59.86 94.3742 61.3H94.3342C94.3342 61.3 94.3742 60.98 94.3742 60.6V58.8H91.9342V69ZM99.0681 63.9C99.0681 66.8 101.188 69.24 104.568 69.24C106.028 69.24 107.628 68.7 108.668 67.78L107.668 65.96C106.848 66.62 105.788 67.08 104.748 67.08C103.208 67.08 101.848 66.16 101.688 64.38H108.708C108.748 64.06 108.788 63.72 108.788 63.4C108.788 60.7 107.188 58.56 104.268 58.56C101.208 58.56 99.0681 60.76 99.0681 63.9ZM101.748 62.64C101.988 61.34 102.908 60.48 104.208 60.48C105.348 60.48 106.228 61.28 106.248 62.64H101.748ZM116.028 65.26C116.028 68.68 118.848 69.1 120.268 69.1C120.608 69.1 120.848 69.06 121.048 69.04V66.82C120.848 66.86 120.728 66.86 120.588 66.86C119.888 66.86 118.568 66.62 118.568 64.94V60.96H120.888V58.94H118.568V56.02H116.088V58.94H114.708V60.96H116.028V65.26ZM122.271 63.9C122.271 67.04 124.771 69.24 127.871 69.24C130.971 69.24 133.471 67.04 133.471 63.9C133.471 60.78 130.971 58.56 127.851 58.56C124.771 58.56 122.271 60.78 122.271 63.9ZM124.851 63.9C124.851 62.02 126.211 60.72 127.871 60.72C129.531 60.72 130.911 62.02 130.911 63.9C130.911 65.8 129.531 67.08 127.871 67.08C126.211 67.08 124.851 65.8 124.851 63.9ZM140.696 65.26C140.696 68.68 143.516 69.1 144.936 69.1C145.276 69.1 145.516 69.06 145.716 69.04V66.82C145.516 66.86 145.396 66.86 145.256 66.86C144.556 66.86 143.236 66.62 143.236 64.94V60.96H145.556V58.94H143.236V56.02H140.756V58.94H139.376V60.96H140.696V65.26ZM147.657 69H150.197V64.26C150.197 62.32 151.357 60.88 153.137 60.88C154.417 60.88 154.737 61.72 154.737 62.96V69H157.277V62.44C157.277 59.74 155.977 58.56 153.717 58.56C151.957 58.56 150.677 59.64 150.177 60.62H150.137C150.137 60.62 150.197 60.26 150.197 59.76V54.8H147.657V69ZM159.283 63.9C159.283 66.8 161.403 69.24 164.783 69.24C166.243 69.24 167.843 68.7 168.883 67.78L167.883 65.96C167.063 66.62 166.003 67.08 164.963 67.08C163.423 67.08 162.063 66.16 161.903 64.38H168.923C168.963 64.06 169.003 63.72 169.003 63.4C169.003 60.7 167.403 58.56 164.483 58.56C161.423 58.56 159.283 60.76 159.283 63.9ZM161.963 62.64C162.203 61.34 163.123 60.48 164.423 60.48C165.563 60.48 166.443 61.28 166.463 62.64H161.963ZM175.334 66.18C175.334 68.04 176.854 69.24 178.694 69.24C180.074 69.24 181.294 68.48 181.914 67.4H181.954C181.954 67.4 181.894 67.72 181.894 68.14V69H184.254V62.62C184.254 60.04 182.674 58.56 180.014 58.56C178.494 58.56 176.854 59.14 176.014 59.82L176.954 61.64C177.774 61.08 178.794 60.66 179.794 60.66C180.854 60.66 181.714 61.12 181.714 62.46V62.6H181.274C179.014 62.6 175.334 63.12 175.334 66.18ZM177.854 65.96C177.854 64.52 180.014 64.34 181.294 64.34H181.734V64.62C181.734 65.86 180.814 67.3 179.394 67.3C178.374 67.3 177.854 66.64 177.854 65.96ZM186.856 73H189.396V68.68C189.396 68.16 189.336 67.8 189.336 67.8H189.376C190.096 68.72 191.156 69.24 192.316 69.24C194.996 69.24 196.976 67.14 196.976 63.9C196.976 60.74 195.216 58.56 192.456 58.56C191.076 58.56 189.836 59.18 189.176 60.28H189.136C189.136 60.28 189.176 59.94 189.176 59.56V58.8H186.856V73ZM189.316 63.96C189.316 61.7 190.556 60.74 191.896 60.74C193.376 60.74 194.416 62 194.416 63.94C194.416 65.96 193.256 67.1 191.856 67.1C190.196 67.1 189.316 65.54 189.316 63.96ZM199.141 73H201.681V68.68C201.681 68.16 201.621 67.8 201.621 67.8H201.661C202.381 68.72 203.441 69.24 204.601 69.24C207.281 69.24 209.261 67.14 209.261 63.9C209.261 60.74 207.501 58.56 204.741 58.56C203.361 58.56 202.121 59.18 201.461 60.28H201.421C201.421 60.28 201.461 59.94 201.461 59.56V58.8H199.141V73ZM201.601 63.96C201.601 61.7 202.841 60.74 204.181 60.74C205.661 60.74 206.701 62 206.701 63.94C206.701 65.96 205.541 67.1 204.141 67.1C202.481 67.1 201.601 65.54 201.601 63.96ZM211.426 69H213.966V64.88C213.966 62.96 214.886 61.16 216.966 61.16C217.186 61.16 217.486 61.18 217.586 61.2V58.7C217.426 58.68 217.266 58.66 217.106 58.66C215.566 58.66 214.326 59.86 213.866 61.3H213.826C213.826 61.3 213.866 60.98 213.866 60.6V58.8H211.426V69ZM218.521 63.9C218.521 67.04 221.021 69.24 224.121 69.24C227.221 69.24 229.721 67.04 229.721 63.9C229.721 60.78 227.221 58.56 224.101 58.56C221.021 58.56 218.521 60.78 218.521 63.9ZM221.101 63.9C221.101 62.02 222.461 60.72 224.121 60.72C225.781 60.72 227.161 62.02 227.161 63.9C227.161 65.8 225.781 67.08 224.121 67.08C222.461 67.08 221.101 65.8 221.101 63.9ZM231.037 66.18C231.037 68.04 232.557 69.24 234.397 69.24C235.777 69.24 236.997 68.48 237.617 67.4H237.657C237.657 67.4 237.597 67.72 237.597 68.14V69H239.957V62.62C239.957 60.04 238.377 58.56 235.717 58.56C234.197 58.56 232.557 59.14 231.717 59.82L232.657 61.64C233.477 61.08 234.497 60.66 235.497 60.66C236.557 60.66 237.417 61.12 237.417 62.46V62.6H236.977C234.717 62.6 231.037 63.12 231.037 66.18ZM233.557 65.96C233.557 64.52 235.717 64.34 236.997 64.34H237.437V64.62C237.437 65.86 236.517 67.3 235.097 67.3C234.077 67.3 233.557 66.64 233.557 65.96ZM241.939 63.9C241.939 66.86 244.099 69.24 247.479 69.24C249.119 69.24 250.719 68.6 251.679 67.58L250.699 65.78C249.939 66.52 248.779 67.08 247.699 67.08C245.739 67.08 244.519 65.6 244.519 63.88C244.519 62.14 245.739 60.72 247.619 60.72C248.619 60.72 249.619 61.18 250.259 61.82L251.399 60.08C250.419 59.02 248.859 58.56 247.479 58.56C244.099 58.56 241.939 61 241.939 63.9ZM253.516 69H256.056V64.26C256.056 62.32 257.216 60.88 258.996 60.88C260.276 60.88 260.596 61.72 260.596 62.96V69H263.136V62.44C263.136 59.74 261.836 58.56 259.576 58.56C257.816 58.56 256.536 59.64 256.036 60.62H255.996C255.996 60.62 256.056 60.26 256.056 59.76V54.8H253.516V69ZM42.74 93.9C42.74 97.04 45.24 99.24 48.34 99.24C51.44 99.24 53.94 97.04 53.94 93.9C53.94 90.78 51.44 88.56 48.32 88.56C45.24 88.56 42.74 90.78 42.74 93.9ZM45.32 93.9C45.32 92.02 46.68 90.72 48.34 90.72C50 90.72 51.38 92.02 51.38 93.9C51.38 95.8 50 97.08 48.34 97.08C46.68 97.08 45.32 95.8 45.32 93.9ZM56.4791 99H59.0191V90.96H61.2191V88.94H59.0191V88.56C59.0191 87.08 60.2591 86.9 60.9991 86.9C61.2191 86.9 61.4391 86.92 61.5191 86.94V84.78C61.2191 84.72 60.9591 84.72 60.6591 84.72C59.2391 84.72 56.4791 85.16 56.4791 88.5V88.94H55.2191V90.96H56.4791V99ZM66.9773 97.3C68.2573 98.58 70.0773 99.24 71.8373 99.24C74.8773 99.24 76.5573 97.34 76.5573 95.04C76.5573 90.52 69.9373 91.2 69.9373 88.56C69.9373 87.58 70.7973 86.94 72.0973 86.94C73.2173 86.94 74.4373 87.48 75.2173 88.18L76.3573 86.08C75.2373 85.06 73.6773 84.56 72.1973 84.56C69.4373 84.56 67.3573 86.18 67.3573 88.68C67.3573 93.1 73.9773 92.54 73.9773 95.24C73.9773 96.2 73.1773 96.86 71.8973 96.86C70.5773 96.86 69.2173 96.12 68.3773 95.36L66.9773 97.3ZM78.6725 87.06H81.2125V84.8H78.6725V87.06ZM78.6725 99H81.2125V88.8H78.6725V99ZM83.9264 99H86.4664V94.88C86.4664 92.96 87.3864 91.16 89.4664 91.16C89.6864 91.16 89.9864 91.18 90.0864 91.2V88.7C89.9264 88.68 89.7664 88.66 89.6064 88.66C88.0664 88.66 86.8264 89.86 86.3664 91.3H86.3264C86.3264 91.3 86.3664 90.98 86.3664 90.6V88.8H83.9264V99ZM96.7864 99H99.3664V84.8H96.7864V99ZM101.485 97.74C102.545 98.76 104.065 99.24 105.485 99.24C107.825 99.24 109.345 97.9 109.345 96.1C109.345 92.76 104.285 93.22 104.285 91.6C104.285 90.96 104.825 90.62 105.705 90.62C106.605 90.62 107.685 90.98 108.285 91.5L109.225 89.72C108.285 88.9 107.005 88.56 105.785 88.56C103.645 88.56 101.885 89.62 101.885 91.62C101.885 94.96 106.945 94.56 106.945 96.16C106.945 96.8 106.425 97.18 105.525 97.18C104.505 97.18 103.385 96.76 102.625 96.06L101.485 97.74ZM110.666 96.18C110.666 98.04 112.186 99.24 114.026 99.24C115.406 99.24 116.626 98.48 117.246 97.4H117.286C117.286 97.4 117.226 97.72 117.226 98.14V99H119.586V92.62C119.586 90.04 118.006 88.56 115.346 88.56C113.826 88.56 112.186 89.14 111.346 89.82L112.286 91.64C113.106 91.08 114.126 90.66 115.126 90.66C116.186 90.66 117.046 91.12 117.046 92.46V92.6H116.606C114.346 92.6 110.666 93.12 110.666 96.18ZM113.186 95.96C113.186 94.52 115.346 94.34 116.626 94.34H117.066V94.62C117.066 95.86 116.146 97.3 114.726 97.3C113.706 97.3 113.186 96.64 113.186 95.96ZM121.408 96.18C121.408 98.04 122.928 99.24 124.768 99.24C126.148 99.24 127.368 98.48 127.988 97.4H128.028C128.028 97.4 127.968 97.72 127.968 98.14V99H130.328V92.62C130.328 90.04 128.748 88.56 126.088 88.56C124.568 88.56 122.928 89.14 122.088 89.82L123.028 91.64C123.848 91.08 124.868 90.66 125.868 90.66C126.928 90.66 127.788 91.12 127.788 92.46V92.6H127.348C125.088 92.6 121.408 93.12 121.408 96.18ZM123.928 95.96C123.928 94.52 126.088 94.34 127.368 94.34H127.808V94.62C127.808 95.86 126.888 97.3 125.468 97.3C124.448 97.3 123.928 96.64 123.928 95.96ZM132.31 93.9C132.31 96.86 134.47 99.24 137.85 99.24C139.49 99.24 141.09 98.6 142.05 97.58L141.07 95.78C140.31 96.52 139.15 97.08 138.07 97.08C136.11 97.08 134.89 95.6 134.89 93.88C134.89 92.14 136.11 90.72 137.99 90.72C138.99 90.72 139.99 91.18 140.63 91.82L141.77 90.08C140.79 89.02 139.23 88.56 137.85 88.56C134.47 88.56 132.31 91 132.31 93.9ZM149.247 99H151.827V90.82C151.827 89.98 151.687 88.62 151.687 88.62H151.727C151.727 88.62 152.367 89.98 152.907 90.82L158.287 99H160.847V84.8H158.287V93C158.287 93.84 158.427 95.2 158.427 95.2H158.387C158.387 95.2 157.727 93.84 157.207 93L151.827 84.8H149.247V99ZM163.131 93.9C163.131 96.8 165.251 99.24 168.631 99.24C170.091 99.24 171.691 98.7 172.731 97.78L171.731 95.96C170.911 96.62 169.851 97.08 168.811 97.08C167.271 97.08 165.911 96.16 165.751 94.38H172.771C172.811 94.06 172.851 93.72 172.851 93.4C172.851 90.7 171.251 88.56 168.331 88.56C165.271 88.56 163.131 90.76 163.131 93.9ZM165.811 92.64C166.051 91.34 166.971 90.48 168.271 90.48C169.411 90.48 170.291 91.28 170.311 92.64H165.811ZM176.925 99H179.765L181.505 93.18C181.645 92.64 181.745 92.08 181.745 92.08H181.785C181.785 92.08 181.885 92.64 182.045 93.18L183.765 99H186.585L189.685 88.8H187.045L185.265 95.5C185.105 96.04 185.045 96.58 185.045 96.58H185.005C185.005 96.58 184.925 96.04 184.785 95.5L182.905 88.82H180.645L178.765 95.5C178.625 96.04 178.525 96.58 178.525 96.58H178.485C178.485 96.58 178.425 96.04 178.285 95.5L176.505 88.8H173.825L176.925 99ZM191.926 95.26C191.926 98.68 194.746 99.1 196.166 99.1C196.506 99.1 196.746 99.06 196.946 99.04V96.82C196.746 96.86 196.626 96.86 196.486 96.86C195.786 96.86 194.466 96.62 194.466 94.94V90.96H196.786V88.94H194.466V86.02H191.986V88.94H190.606V90.96H191.926V95.26ZM198.17 93.9C198.17 97.04 200.67 99.24 203.77 99.24C206.87 99.24 209.37 97.04 209.37 93.9C209.37 90.78 206.87 88.56 203.75 88.56C200.67 88.56 198.17 90.78 198.17 93.9ZM200.75 93.9C200.75 92.02 202.11 90.72 203.77 90.72C205.43 90.72 206.81 92.02 206.81 93.9C206.81 95.8 205.43 97.08 203.77 97.08C202.11 97.08 200.75 95.8 200.75 93.9ZM211.465 99H214.005V94.22C214.005 92.38 215.145 90.88 216.945 90.88C218.225 90.88 218.545 91.72 218.545 92.96V99H221.085V92.44C221.085 89.74 219.785 88.56 217.525 88.56C215.465 88.56 214.325 89.86 213.905 90.72H213.865C213.865 90.72 213.905 90.4 213.905 90V88.8H211.465V99Z" fill="#505257"/>
</svg>
