<svg width="1069" height="298" viewBox="0 0 1069 298" fill="none" xmlns="http://www.w3.org/2000/svg">
<path d="M0 4.40122C0 2.86065 0 2.09037 0.299609 1.50195C0.563153 0.984356 0.983678 0.563541 1.50091 0.299816C2.08893 0 2.85869 0 4.3982 0H504.602C506.141 0 506.911 0 507.499 0.299816C508.016 0.563541 508.437 0.984356 508.7 1.50195C509 2.09037 509 2.86066 509 4.40123V293.599C509 295.139 509 295.91 508.7 296.498C508.437 297.016 508.016 297.436 507.499 297.7C506.911 298 506.141 298 504.602 298H4.39818C2.85868 298 2.08893 298 1.50091 297.7C0.983678 297.436 0.563153 297.016 0.299609 296.498C0 295.91 0 295.139 0 293.599V4.40122Z" fill="#F3F3F3"/>
<path d="M147 42.3991C147 40.8592 147 40.0893 147.299 39.5012C147.563 38.9839 147.983 38.5633 148.5 38.2997C149.088 38 149.857 38 151.396 38H474.604C476.143 38 476.912 38 477.5 38.2997C478.017 38.5633 478.437 38.9839 478.701 39.5012C479 40.0893 479 40.8592 479 42.399V225.601C479 227.141 479 227.911 478.701 228.499C478.437 229.016 478.017 229.437 477.5 229.7C476.912 230 476.143 230 474.604 230H151.396C149.857 230 149.088 230 148.5 229.7C147.983 229.437 147.563 229.016 147.299 228.499C147 227.911 147 227.141 147 225.601V42.3991Z" fill="white"/>
<mask id="mask0" mask-type="alpha" maskUnits="userSpaceOnUse" x="147" y="38" width="332" height="192">
<path d="M147 42.3991C147 40.8592 147 40.0893 147.299 39.5012C147.563 38.9839 147.983 38.5633 148.5 38.2997C149.088 38 149.857 38 151.396 38H474.604C476.143 38 476.912 38 477.5 38.2997C478.017 38.5633 478.437 38.9839 478.701 39.5012C479 40.0893 479 40.8592 479 42.399V225.601C479 227.141 479 227.911 478.701 228.499C478.437 229.016 478.017 229.437 477.5 229.7C476.912 230 476.143 230 474.604 230H151.396C149.857 230 149.088 230 148.5 229.7C147.983 229.437 147.563 229.016 147.299 228.499C147 227.911 147 227.141 147 225.601V42.3991Z" fill="white"/>
</mask>
<g mask="url(#mask0)">
<path d="M348.549 85.9462H348.549C334.777 89.6913 326.969 105.165 331.109 120.507L336.37 140L342.342 138.376L343.85 130.214L344.935 137.671L383.321 127.232L384.692 119.812L385.678 126.591L390 125.416L385.87 110.11C381.106 92.4554 364.396 81.6367 348.549 85.9462Z" fill="#2F2E41"/>
<path d="M353.5 130C362.613 130 370 122.613 370 113.5C370 104.387 362.613 97 353.5 97C344.387 97 337 104.387 337 113.5C337 122.613 344.387 130 353.5 130Z" fill="#FFB8B8"/>
<path d="M348.27 125.122L347.351 134.282L340 138.405L359.297 181L374 145.733L364.351 138.405L363.432 121L348.27 125.122Z" fill="#FFB8B8"/>
<path d="M439 227.656C438.423 237.171 422.203 244.687 410.29 248.941C406.856 250.172 403.78 251.128 401.536 251.782C400.14 252.189 399.069 252.482 398.437 252.651C398.02 252.761 397.796 252.816 397.796 252.816V242.752L358.881 245.954V273.424C355.853 273.808 352.804 274 349.752 274C337.719 274.019 325.878 270.986 315.338 265.185C315.077 261.75 314.788 258.236 314.472 254.645C314.134 250.775 313.987 247.098 314.001 243.612C314.111 216.353 324.059 200.786 328.001 195.69C328.494 195.034 329.021 194.405 329.581 193.805L331.87 187.859L330.212 177.301L324.618 141.657L324.545 141.199C326.467 139.516 331.563 138.441 335.958 137.805C338.906 137.375 341.543 137.142 342.706 137.046C343.073 137.018 343.292 137.005 343.334 137H343.338L362.086 170.933L368.541 141.68L386.35 149.891C386.35 149.891 383.604 161.327 383.604 170.933C383.601 172.218 383.435 173.497 383.109 174.739C382.347 177.495 381.055 180.076 379.305 182.337C377.772 184.393 375.986 186.248 373.989 187.859L370.327 197.922L373.989 211.646L399.202 204.134L408.097 201.486C408.846 201.263 409.609 201.09 410.382 200.969C413.948 200.401 417.603 200.929 420.863 202.483C424.122 204.036 426.833 206.543 428.635 209.67L439 227.656Z" fill="#2F2E41"/>
<path d="M357.94 91.8925C354.561 89.3673 350.313 88.334 346.189 89.4418L345.699 89.5734C336.255 92.11 330.914 102.639 333.769 113.092V113.092L336.934 112.242L336.391 108.248L338.194 111.903L356.963 106.862L357.644 103.177L358.142 106.546L361.835 105.554C365.876 113.575 365.718 122.724 361.362 133L367.651 131.311L369.013 123.94L370.01 130.677L382 127.457L380.258 111.813C377.186 100.572 367.995 92.8096 357.94 91.8925Z" fill="#2F2E41"/>
<path d="M362 90C366.418 90 370 86.1944 370 81.5C370 76.8056 366.418 73 362 73C357.582 73 354 76.8056 354 81.5C354 86.1944 357.582 90 362 90Z" fill="#2F2E41"/>
<path d="M361.851 86.5255C359.775 86.5267 357.765 85.8257 356.171 84.5448C354.577 83.264 353.5 81.4847 353.129 79.5173C352.758 77.55 353.115 75.5194 354.139 73.78C355.163 72.0407 356.789 70.7028 358.732 70C357.491 70.1534 356.298 70.5582 355.231 71.1878C354.164 71.8173 353.248 72.6574 352.543 73.6527C351.837 74.6479 351.359 75.7759 351.138 76.9622C350.918 78.1485 350.961 79.3663 351.265 80.5354C351.568 81.7046 352.125 82.7986 352.899 83.7454C353.673 84.6922 354.646 85.4704 355.755 86.0288C356.863 86.5871 358.082 86.9129 359.331 86.9848C360.58 87.0567 361.83 86.873 363 86.4458C362.619 86.4962 362.235 86.5229 361.851 86.5255Z" fill="#2F2E41"/>
<path d="M364.5 116C365.881 116 367 114.657 367 113C367 111.343 365.881 110 364.5 110C363.119 110 362 111.343 362 113C362 114.657 363.119 116 364.5 116Z" fill="#FFB8B8"/>
<path d="M319.426 169L318.058 187.2C318.058 187.2 311.675 197.211 310.308 218.596L309.852 231.791C309.852 231.791 300.278 250.447 308.028 249.992C315.779 249.537 315.323 232.246 315.323 232.246L329 192.661V173.55L319.426 169Z" fill="#FFB8B8"/>
<path d="M327.532 142H324.404C324.404 142 319.489 145.19 315.468 158.861C311.447 172.532 311 172.987 311 172.987L332 178L327.532 142Z" fill="#2F2E41"/>
<path d="M394.496 167L401.829 185.072C401.829 185.072 409.62 194.34 410.995 204.534L413.287 216.582C413.287 216.582 418.786 237.897 410.079 236.971C401.371 236.044 403.662 215.655 403.662 215.655L402.287 209.631L394.496 196.656L383 174.562L394.496 167Z" fill="#FFB8B8"/>
<path d="M380.51 148L386.373 149.85L399 169.275L376 185L380.51 148Z" fill="#2F2E41"/>
</g>
<path d="M147 21.8444C147 20.8488 147 20.351 147.199 19.9707C147.374 19.6362 147.653 19.3642 147.996 19.1938C148.386 19 148.897 19 149.918 19H201.082C202.103 19 202.614 19 203.004 19.1938C203.347 19.3642 203.626 19.6362 203.801 19.9707C204 20.351 204 20.8488 204 21.8444V24.1556C204 25.1512 204 25.649 203.801 26.0293C203.626 26.3638 203.347 26.6358 203.004 26.8062C202.614 27 202.103 27 201.082 27H149.918C148.897 27 148.386 27 147.996 26.8062C147.653 26.6358 147.374 26.3638 147.199 26.0293C147 25.649 147 25.1512 147 24.1556V21.8444Z" fill="#424754"/>
<path d="M147 243.455C147 242.945 147 242.691 147.099 242.496C147.187 242.325 147.326 242.186 147.498 242.099C147.693 242 147.948 242 148.459 242H202.541C203.052 242 203.307 242 203.502 242.099C203.674 242.186 203.813 242.325 203.901 242.496C204 242.691 204 242.945 204 243.455V245.545C204 246.055 204 246.309 203.901 246.504C203.813 246.675 203.674 246.814 203.502 246.901C203.307 247 203.052 247 202.541 247H148.459C147.948 247 147.693 247 147.498 246.901C147.326 246.814 147.187 246.675 147.099 246.504C147 246.309 147 246.055 147 245.545V243.455Z" fill="#424754"/>
<path d="M147 256.455C147 255.945 147 255.691 147.1 255.496C147.187 255.325 147.327 255.186 147.5 255.099C147.695 255 147.951 255 148.464 255H376.536C377.049 255 377.305 255 377.5 255.099C377.673 255.186 377.813 255.325 377.9 255.496C378 255.691 378 255.945 378 256.455V258.545C378 259.055 378 259.309 377.9 259.504C377.813 259.675 377.673 259.814 377.5 259.901C377.305 260 377.049 260 376.536 260H148.464C147.951 260 147.695 260 147.5 259.901C147.327 259.814 147.187 259.675 147.1 259.504C147 259.309 147 259.055 147 258.545V256.455Z" fill="#97999D"/>
<path d="M147 266.455C147 265.945 147 265.691 147.1 265.496C147.187 265.325 147.327 265.186 147.5 265.099C147.695 265 147.951 265 148.464 265H376.536C377.049 265 377.305 265 377.5 265.099C377.673 265.186 377.813 265.325 377.9 265.496C378 265.691 378 265.945 378 266.455V268.545C378 269.055 378 269.309 377.9 269.504C377.813 269.675 377.673 269.814 377.5 269.901C377.305 270 377.049 270 376.536 270H148.464C147.951 270 147.695 270 147.5 269.901C147.327 269.814 147.187 269.675 147.1 269.504C147 269.309 147 269.055 147 268.545V266.455Z" fill="#97999D"/>
<path d="M0 4.40122C0 2.86065 0 2.09037 0.298881 1.50195C0.561783 0.984356 0.981285 0.563541 1.49726 0.299816C2.08385 0 2.85173 0 4.3875 0H112.612C114.148 0 114.916 0 115.503 0.299816C116.019 0.563541 116.438 0.984356 116.701 1.50195C117 2.09037 117 2.86066 117 4.40123V293.599C117 295.139 117 295.91 116.701 296.498C116.438 297.016 116.019 297.436 115.503 297.7C114.916 298 114.148 298 112.612 298H4.3875C2.85173 298 2.08385 298 1.49726 297.7C0.981285 297.436 0.561783 297.016 0.298881 296.498C0 295.91 0 295.139 0 293.599V4.40122Z" fill="#FFEAEC"/>
<path d="M0 60.4979C0 59.9736 0 59.7114 0.100018 59.5112C0.187995 59.335 0.328378 59.1918 0.501044 59.102C0.697339 59 0.954305 59 1.46824 59H115.532C116.046 59 116.303 59 116.499 59.102C116.672 59.1918 116.812 59.335 116.9 59.5112C117 59.7114 117 59.9736 117 60.4979V79.5021C117 80.0264 117 80.2886 116.9 80.4888C116.812 80.665 116.672 80.8082 116.499 80.898C116.303 81 116.046 81 115.532 81H1.46823C0.954303 81 0.697339 81 0.501044 80.898C0.328378 80.8082 0.187995 80.665 0.100018 80.4888C0 80.2886 0 80.0264 0 79.5021V60.4979Z" fill="#FFEAEC"/>
<path d="M30 68.4545C30 67.9454 30 67.6908 30.0994 67.4964C30.1868 67.3253 30.3264 67.1862 30.498 67.0991C30.693 67 30.9484 67 31.4592 67H85.5408C86.0516 67 86.307 67 86.502 67.0991C86.6736 67.1862 86.8132 67.3253 86.9006 67.4964C87 67.6908 87 67.9454 87 68.4545V70.5455C87 71.0546 87 71.3092 86.9006 71.5036C86.8132 71.6747 86.6736 71.8138 86.502 71.9009C86.307 72 86.0516 72 85.5408 72H31.4592C30.9484 72 30.693 72 30.498 71.9009C30.3264 71.8138 30.1868 71.6747 30.0994 71.5036C30 71.3092 30 71.0546 30 70.5455V68.4545Z" fill="#F04B5D"/>
<path d="M55 20.4545C55 19.9454 55 19.6908 55.0987 19.4964C55.1855 19.3253 55.3239 19.1862 55.4943 19.0991C55.6879 19 55.9414 19 56.4484 19H96.5516C97.0586 19 97.3121 19 97.5057 19.0991C97.6761 19.1862 97.8145 19.3253 97.9013 19.4964C98 19.6908 98 19.9454 98 20.4545V22.5455C98 23.0546 98 23.3092 97.9013 23.5036C97.8145 23.6747 97.6761 23.8138 97.5057 23.9009C97.3121 24 97.0586 24 96.5516 24H56.4484C55.9414 24 55.6879 24 55.4943 23.9009C55.3239 23.8138 55.1855 23.6747 55.0987 23.5036C55 23.3092 55 23.0546 55 22.5455V20.4545Z" fill="#424754"/>
<path d="M30 15.4452C30 14.9393 30 14.6864 30.1017 14.4932C30.1912 14.3232 30.334 14.185 30.5096 14.0984C30.7093 14 30.9706 14 31.4933 14H42.5067C43.0294 14 43.2907 14 43.4904 14.0984C43.666 14.185 43.8088 14.3232 43.8983 14.4932C44 14.6864 44 14.9393 44 15.4452V26.5548C44 27.0607 44 27.3136 43.8983 27.5068C43.8088 27.6768 43.666 27.815 43.4904 27.9016C43.2907 28 43.0294 28 42.5067 28H31.4933C30.9706 28 30.7093 28 30.5096 27.9016C30.334 27.815 30.1912 27.6768 30.1017 27.5068C30 27.3136 30 27.0607 30 26.5548V15.4452Z" fill="#424754"/>
<path d="M30 90.4545C30 89.9454 30 89.6908 30.0994 89.4964C30.1868 89.3253 30.3264 89.1862 30.498 89.0991C30.693 89 30.9484 89 31.4592 89H85.5408C86.0516 89 86.307 89 86.502 89.0991C86.6736 89.1862 86.8132 89.3253 86.9006 89.4964C87 89.6908 87 89.9454 87 90.4545V92.5455C87 93.0546 87 93.3092 86.9006 93.5036C86.8132 93.6747 86.6736 93.8138 86.502 93.9009C86.307 94 86.0516 94 85.5408 94H31.4592C30.9484 94 30.693 94 30.498 93.9009C30.3264 93.8138 30.1868 93.6747 30.0994 93.5036C30 93.3092 30 93.0546 30 92.5455V90.4545Z" fill="#424754"/>
<path d="M30 111.455C30 110.945 30 110.691 30.0994 110.496C30.1868 110.325 30.3264 110.186 30.498 110.099C30.693 110 30.9484 110 31.4592 110H85.5408C86.0516 110 86.307 110 86.502 110.099C86.6736 110.186 86.8132 110.325 86.9006 110.496C87 110.691 87 110.945 87 111.455V113.545C87 114.055 87 114.309 86.9006 114.504C86.8132 114.675 86.6736 114.814 86.502 114.901C86.307 115 86.0516 115 85.5408 115H31.4592C30.9484 115 30.693 115 30.498 114.901C30.3264 114.814 30.1868 114.675 30.0994 114.504C30 114.309 30 114.055 30 113.545V111.455Z" fill="#424754"/>
<path d="M30 133.455C30 132.945 30 132.691 30.0994 132.496C30.1868 132.325 30.3264 132.186 30.498 132.099C30.693 132 30.9484 132 31.4592 132H85.5408C86.0516 132 86.307 132 86.502 132.099C86.6736 132.186 86.8132 132.325 86.9006 132.496C87 132.691 87 132.945 87 133.455V135.545C87 136.055 87 136.309 86.9006 136.504C86.8132 136.675 86.6736 136.814 86.502 136.901C86.307 137 86.0516 137 85.5408 137H31.4592C30.9484 137 30.693 137 30.498 136.901C30.3264 136.814 30.1868 136.675 30.0994 136.504C30 136.309 30 136.055 30 135.545V133.455Z" fill="#424754"/>
<path d="M30 154.745C30 154.134 30 153.829 30.0994 153.596C30.1868 153.39 30.3264 153.223 30.498 153.119C30.693 153 30.9484 153 31.4592 153H85.5408C86.0516 153 86.307 153 86.502 153.119C86.6736 153.223 86.8132 153.39 86.9006 153.596C87 153.829 87 154.134 87 154.745V157.255C87 157.866 87 158.171 86.9006 158.404C86.8132 158.61 86.6736 158.777 86.502 158.881C86.307 159 86.0516 159 85.5408 159H31.4592C30.9484 159 30.693 159 30.498 158.881C30.3264 158.777 30.1868 158.61 30.0994 158.404C30 158.171 30 157.866 30 157.255V154.745Z" fill="#424754"/>
<path d="M465 50C465 51.1046 464.105 52 463 52C461.895 52 461 51.1046 461 50C461 48.8954 461.895 48 463 48C464.105 48 465 48.8954 465 50Z" fill="#F04B5D"/>
<path d="M445 50C445 49.6894 445 49.5341 445.068 49.4115C445.159 49.2482 445.334 49.1184 445.553 49.0507C445.718 49 445.927 49 446.345 49H456.655C457.073 49 457.282 49 457.447 49.0507C457.666 49.1184 457.841 49.2482 457.932 49.4115C458 49.5341 458 49.6894 458 50C458 50.3106 458 50.4659 457.932 50.5885C457.841 50.7518 457.666 50.8816 457.447 50.9493C457.282 51 457.073 51 456.655 51H446.345C445.927 51 445.718 51 445.553 50.9493C445.334 50.8816 445.159 50.7518 445.068 50.5885C445 50.4659 445 50.3106 445 50Z" fill="#97999D"/>
<path d="M667.412 55.532C667.412 61.328 671.66 65.432 678.212 65.432C684.692 65.432 688.94 61.328 688.94 55.532V39.26H682.64V55.532C682.64 58.232 680.876 59.672 678.176 59.672C675.476 59.672 673.712 58.232 673.712 55.532V39.26H667.412V55.532ZM691.594 62.696C693.646 64.532 696.49 65.432 699.154 65.432C703.906 65.432 706.786 62.804 706.786 59.348C706.786 53.336 698.11 53.804 698.11 51.86C698.11 51.356 698.506 50.96 699.838 50.96C701.422 50.96 703.438 51.608 704.518 52.472L706.642 48.152C704.77 46.64 702.394 46.028 700.018 46.028C695.734 46.028 692.314 48.08 692.314 51.896C692.314 57.98 700.99 57.548 700.99 59.528C700.99 60.104 700.558 60.5 699.298 60.5C697.534 60.5 695.626 59.78 694.258 58.628L691.594 62.696ZM708.899 55.712C708.899 60.644 712.463 65.432 719.087 65.432C721.931 65.432 724.991 64.46 727.007 62.732L724.703 58.376C723.191 59.384 721.427 60.248 719.591 60.248C717.611 60.248 715.739 59.204 715.271 56.936H726.971C727.043 56.288 727.115 55.64 727.115 54.992C727.115 49.844 724.019 46.028 718.547 46.028C712.571 46.028 708.899 50.276 708.899 55.712ZM715.415 53.372C715.739 51.896 716.603 50.6 718.403 50.6C719.987 50.6 720.959 51.86 720.959 53.372H715.415ZM730.369 65H736.597V57.8C736.597 54.416 738.253 52.22 741.709 52.22C742.141 52.22 742.753 52.256 742.969 52.328V46.208C742.753 46.172 742.501 46.136 742.249 46.136C739.477 46.136 737.137 48.224 736.345 50.744H736.273C736.273 50.744 736.345 50.204 736.345 49.592V46.46H730.369V65ZM755.326 65H761.554V51.644H764.974V46.784H761.554V46.208C761.554 44.624 763.462 44.408 764.686 44.408C765.154 44.408 765.55 44.444 765.694 44.48V39.224C765.046 39.116 764.47 39.116 763.822 39.116C760.834 39.116 755.326 39.944 755.326 46.028V46.784H753.058V51.644H755.326V65ZM767.74 65H773.968V57.8C773.968 54.416 775.624 52.22 779.08 52.22C779.512 52.22 780.124 52.256 780.34 52.328V46.208C780.124 46.172 779.872 46.136 779.62 46.136C776.848 46.136 774.508 48.224 773.716 50.744H773.644C773.644 50.744 773.716 50.204 773.716 49.592V46.46H767.74V65ZM783.14 44.12H789.224V39.26H783.14V44.12ZM783.068 65H789.296V46.46H783.068V65ZM792.431 55.712C792.431 60.644 795.995 65.432 802.619 65.432C805.463 65.432 808.523 64.46 810.539 62.732L808.235 58.376C806.723 59.384 804.959 60.248 803.123 60.248C801.143 60.248 799.271 59.204 798.803 56.936H810.503C810.575 56.288 810.647 55.64 810.647 54.992C810.647 49.844 807.551 46.028 802.079 46.028C796.103 46.028 792.431 50.276 792.431 55.712ZM798.947 53.372C799.271 51.896 800.135 50.6 801.935 50.6C803.519 50.6 804.491 51.86 804.491 53.372H798.947ZM813.901 65H820.129V56.612C820.129 53.984 821.389 51.68 824.161 51.68C825.529 51.68 826.213 52.4 826.213 54.128V65H832.441V52.976C832.441 47.756 829.525 46.028 825.781 46.028C822.505 46.028 820.741 47.792 819.877 49.232H819.805C819.805 49.232 819.877 48.692 819.877 48.08V46.46H813.901V65ZM835.464 55.712C835.464 61.472 838.776 65.432 843.816 65.432C846.012 65.432 848.028 64.496 849.18 62.732H849.252C849.252 62.732 849.216 63.2 849.216 63.776V65H855.048V39.26H848.82V46.676C848.82 47.144 848.856 47.504 848.856 47.504H848.784C847.56 46.28 845.58 46.028 843.924 46.028C838.992 46.028 835.464 49.844 835.464 55.712ZM841.728 55.712C841.728 52.868 843.42 51.284 845.364 51.284C847.812 51.284 849 53.48 849 55.712C849 58.916 847.236 60.284 845.364 60.284C843.204 60.284 841.728 58.484 841.728 55.712ZM859.181 58.16C859.181 64.388 862.709 65.18 866.021 65.18C866.813 65.18 867.461 65.108 867.893 65.072V59.672C867.605 59.708 867.317 59.708 867.137 59.708C865.733 59.708 865.409 59.096 865.409 57.332V39.26H859.181V58.16ZM870.647 66.692L868.667 71.264C868.667 71.264 870.539 72.56 872.987 72.56C875.939 72.56 879.179 71.12 880.727 66.98L888.323 46.46H881.519L879.179 55.1C878.927 56.108 878.567 57.872 878.567 57.872H878.495C878.495 57.872 878.135 56 877.811 54.992L875.075 46.46H868.019L875.903 64.64L875.543 65.504C874.895 67.088 873.563 67.376 872.555 67.376C871.655 67.376 870.647 66.692 870.647 66.692ZM898.697 58.16C898.697 64.388 902.225 65.18 905.537 65.18C906.329 65.18 906.977 65.108 907.409 65.072V59.672C907.121 59.708 906.833 59.708 906.653 59.708C905.249 59.708 904.925 59.096 904.925 57.332V39.26H898.697V58.16ZM909.325 55.712C909.325 60.644 912.889 65.432 919.513 65.432C922.357 65.432 925.417 64.46 927.433 62.732L925.129 58.376C923.617 59.384 921.853 60.248 920.017 60.248C918.037 60.248 916.165 59.204 915.697 56.936H927.397C927.469 56.288 927.541 55.64 927.541 54.992C927.541 49.844 924.445 46.028 918.973 46.028C912.997 46.028 909.325 50.276 909.325 55.712ZM915.841 53.372C916.165 51.896 917.029 50.6 918.829 50.6C920.413 50.6 921.385 51.86 921.385 53.372H915.841ZM929.499 59.78C929.499 62.984 931.983 65.432 935.547 65.432C937.671 65.432 939.831 64.46 941.055 62.732H941.127C941.127 62.732 941.055 63.272 941.055 63.884V65H946.743V53.588C946.743 48.872 943.575 46.028 938.463 46.028C935.439 46.028 932.199 47.216 930.615 48.44L932.775 52.832C934.251 51.86 936.087 51.068 937.887 51.068C939.255 51.068 940.515 51.572 940.515 53.12V53.444H939.975C935.403 53.444 929.499 54.812 929.499 59.78ZM935.655 59.204C935.655 57.512 938.103 57.008 940.011 57.008H940.587V57.512C940.587 59.024 939.219 60.788 937.419 60.788C936.267 60.788 935.655 60.068 935.655 59.204ZM950.693 65H956.921V57.8C956.921 54.416 958.577 52.22 962.033 52.22C962.465 52.22 963.077 52.256 963.293 52.328V46.208C963.077 46.172 962.825 46.136 962.573 46.136C959.801 46.136 957.461 48.224 956.669 50.744H956.597C956.597 50.744 956.669 50.204 956.669 49.592V46.46H950.693V65ZM966.022 65H972.25V56.612C972.25 53.984 973.51 51.68 976.282 51.68C977.65 51.68 978.334 52.4 978.334 54.128V65H984.562V52.976C984.562 47.756 981.646 46.028 977.902 46.028C974.626 46.028 972.862 47.792 971.998 49.232H971.926C971.926 49.232 971.998 48.692 971.998 48.08V46.46H966.022V65ZM988.629 44.12H994.713V39.26H988.629V44.12ZM988.557 65H994.785V46.46H988.557V65ZM998.963 65H1005.19V56.612C1005.19 53.984 1006.45 51.68 1009.22 51.68C1010.59 51.68 1011.28 52.4 1011.28 54.128V65H1017.5V52.976C1017.5 47.756 1014.59 46.028 1010.84 46.028C1007.57 46.028 1005.8 47.792 1004.94 49.232H1004.87C1004.87 49.232 1004.94 48.692 1004.94 48.08V46.46H998.963V65ZM1024.09 66.188L1022.33 70.904C1024.13 71.84 1026.86 72.56 1029.35 72.56C1034.42 72.56 1039.82 70.076 1039.82 63.308V46.46H1033.99V47.396C1033.99 47.612 1034.03 47.828 1034.03 47.828H1033.92C1032.62 46.532 1030.64 46.028 1028.88 46.028C1023.26 46.028 1020.56 50.42 1020.56 55.136C1020.56 59.888 1023.33 64.46 1028.91 64.46C1031.07 64.46 1032.48 63.812 1033.56 62.516H1033.63C1033.63 62.516 1033.59 62.984 1033.59 63.2V63.812C1033.59 66.548 1031.54 67.376 1029.31 67.376C1027.44 67.376 1025.64 66.944 1024.09 66.188ZM1026.83 54.92C1026.83 52.796 1027.94 51.212 1030.14 51.212C1032.01 51.212 1033.74 51.932 1033.74 55.208C1033.74 58.448 1032.01 59.276 1030.39 59.276C1027.91 59.276 1026.83 57.224 1026.83 54.92ZM668.42 107H674.648V93.644H678.068V88.784H674.648V88.208C674.648 86.624 676.556 86.408 677.78 86.408C678.248 86.408 678.644 86.444 678.788 86.48V81.224C678.14 81.116 677.564 81.116 676.916 81.116C673.928 81.116 668.42 81.944 668.42 88.028V88.784H666.152V93.644H668.42V107ZM679.544 97.784C679.544 103.58 684.224 107.432 690.056 107.432C695.888 107.432 700.568 103.58 700.568 97.784C700.568 91.952 695.888 88.028 690.02 88.028C684.224 88.028 679.544 91.952 679.544 97.784ZM685.844 97.784C685.844 94.976 687.788 93.212 690.056 93.212C692.324 93.212 694.268 94.976 694.268 97.784C694.268 100.556 692.324 102.248 690.056 102.248C687.788 102.248 685.844 100.556 685.844 97.784ZM703.686 107H709.914V99.8C709.914 96.416 711.57 94.22 715.026 94.22C715.458 94.22 716.07 94.256 716.286 94.328V88.208C716.07 88.172 715.818 88.136 715.566 88.136C712.794 88.136 710.454 90.224 709.662 92.744H709.59C709.59 92.744 709.662 92.204 709.662 91.592V88.46H703.686V107ZM719.014 107H725.242V99.152C725.242 96.596 725.962 93.68 728.806 93.68C729.994 93.68 730.246 94.652 730.246 96.02V107H736.474V99.152C736.474 96.38 737.338 93.68 740.038 93.68C741.226 93.68 741.478 94.652 741.478 96.02V107H747.706V94.976C747.706 89.864 745.078 88.028 741.694 88.028C738.922 88.028 736.726 89.612 735.754 91.16H735.682C734.71 89.072 732.838 88.028 730.498 88.028C727.582 88.028 725.854 89.936 724.99 91.232H724.918C724.918 91.232 724.99 90.692 724.99 90.08V88.46H719.014V107ZM750.448 101.78C750.448 104.984 752.932 107.432 756.496 107.432C758.62 107.432 760.78 106.46 762.004 104.732H762.076C762.076 104.732 762.004 105.272 762.004 105.884V107H767.692V95.588C767.692 90.872 764.524 88.028 759.412 88.028C756.388 88.028 753.148 89.216 751.564 90.44L753.724 94.832C755.2 93.86 757.036 93.068 758.836 93.068C760.204 93.068 761.464 93.572 761.464 95.12V95.444H760.924C756.352 95.444 750.448 96.812 750.448 101.78ZM756.604 101.204C756.604 99.512 759.052 99.008 760.96 99.008H761.536V99.512C761.536 101.024 760.168 102.788 758.368 102.788C757.216 102.788 756.604 102.068 756.604 101.204ZM772.723 100.16C772.723 106.388 778.447 107.18 781.399 107.18C782.119 107.18 782.623 107.108 783.091 107.072V101.672C782.695 101.708 782.479 101.708 782.263 101.708C781.075 101.708 778.951 101.42 778.951 99.332V93.644H782.839V88.784H778.951V83.456H772.903V88.784H770.347V93.644H772.723V100.16ZM796.775 107H803.003V93.644H806.423V88.784H803.003V88.208C803.003 86.624 804.911 86.408 806.135 86.408C806.603 86.408 806.999 86.444 807.143 86.48V81.224C806.495 81.116 805.919 81.116 805.271 81.116C802.283 81.116 796.775 81.944 796.775 88.028V88.784H794.507V93.644H796.775V107ZM809.19 107H815.418V99.8C815.418 96.416 817.074 94.22 820.53 94.22C820.962 94.22 821.574 94.256 821.79 94.328V88.208C821.574 88.172 821.322 88.136 821.07 88.136C818.298 88.136 815.958 90.224 815.166 92.744H815.094C815.094 92.744 815.166 92.204 815.166 91.592V88.46H809.19V107ZM823.333 97.784C823.333 103.58 828.013 107.432 833.845 107.432C839.677 107.432 844.357 103.58 844.357 97.784C844.357 91.952 839.677 88.028 833.809 88.028C828.013 88.028 823.333 91.952 823.333 97.784ZM829.633 97.784C829.633 94.976 831.577 93.212 833.845 93.212C836.113 93.212 838.057 94.976 838.057 97.784C838.057 100.556 836.113 102.248 833.845 102.248C831.577 102.248 829.633 100.556 829.633 97.784ZM847.475 107H853.703V99.152C853.703 96.596 854.423 93.68 857.267 93.68C858.455 93.68 858.707 94.652 858.707 96.02V107H864.935V99.152C864.935 96.38 865.799 93.68 868.499 93.68C869.687 93.68 869.939 94.652 869.939 96.02V107H876.167V94.976C876.167 89.864 873.539 88.028 870.155 88.028C867.383 88.028 865.187 89.612 864.215 91.16H864.143C863.171 89.072 861.299 88.028 858.959 88.028C856.043 88.028 854.315 89.936 853.451 91.232H853.379C853.379 91.232 853.451 90.692 853.451 90.08V88.46H847.475V107ZM887.909 101.78C887.909 104.984 890.393 107.432 893.957 107.432C896.081 107.432 898.241 106.46 899.465 104.732H899.537C899.537 104.732 899.465 105.272 899.465 105.884V107H905.153V95.588C905.153 90.872 901.985 88.028 896.873 88.028C893.849 88.028 890.609 89.216 889.025 90.44L891.185 94.832C892.661 93.86 894.497 93.068 896.297 93.068C897.665 93.068 898.925 93.572 898.925 95.12V95.444H898.385C893.813 95.444 887.909 96.812 887.909 101.78ZM894.065 101.204C894.065 99.512 896.513 99.008 898.421 99.008H898.997V99.512C898.997 101.024 897.629 102.788 895.829 102.788C894.677 102.788 894.065 102.068 894.065 101.204ZM909.104 107H915.332V98.612C915.332 95.984 916.592 93.68 919.364 93.68C920.732 93.68 921.416 94.4 921.416 96.128V107H927.644V94.976C927.644 89.756 924.728 88.028 920.984 88.028C917.708 88.028 915.944 89.792 915.08 91.232H915.008C915.008 91.232 915.08 90.692 915.08 90.08V88.46H909.104V107ZM931.573 108.692L929.593 113.264C929.593 113.264 931.465 114.56 933.913 114.56C936.865 114.56 940.105 113.12 941.653 108.98L949.249 88.46H942.445L940.105 97.1C939.853 98.108 939.493 99.872 939.493 99.872H939.421C939.421 99.872 939.061 98 938.737 96.992L936.001 88.46H928.945L936.829 106.64L936.469 107.504C935.821 109.088 934.489 109.376 933.481 109.376C932.581 109.376 931.573 108.692 931.573 108.692ZM955.064 107H962.084L964.172 98.432C964.424 97.424 964.532 96.452 964.532 96.452H964.604C964.604 96.452 964.712 97.424 964.964 98.432L967.052 107H974L979.184 88.46H972.704L970.4 99.404C970.184 100.412 970.148 101.348 970.148 101.348H970.076C970.076 101.348 970.04 100.412 969.788 99.404L967.232 88.46H961.904L959.348 99.404C959.096 100.412 959.024 101.348 959.024 101.348H958.952C958.952 101.348 958.952 100.412 958.736 99.404L956.432 88.46H949.88L955.064 107ZM981.666 107H987.894V98.648C987.894 95.804 989.226 93.68 991.926 93.68C993.294 93.68 993.978 94.4 993.978 96.128V107H1000.21V94.976C1000.21 89.756 997.29 88.028 993.546 88.028C991.098 88.028 988.938 89.144 987.894 90.98H987.822C987.822 90.98 987.894 90.332 987.894 89.396V81.26H981.666V107ZM1003.16 97.712C1003.16 102.644 1006.72 107.432 1013.35 107.432C1016.19 107.432 1019.25 106.46 1021.27 104.732L1018.96 100.376C1017.45 101.384 1015.69 102.248 1013.85 102.248C1011.87 102.248 1010 101.204 1009.53 98.936H1021.23C1021.3 98.288 1021.37 97.64 1021.37 96.992C1021.37 91.844 1018.28 88.028 1012.81 88.028C1006.83 88.028 1003.16 92.276 1003.16 97.712ZM1009.67 95.372C1010 93.896 1010.86 92.6 1012.66 92.6C1014.25 92.6 1015.22 93.86 1015.22 95.372H1009.67ZM1024.63 107H1030.86V99.8C1030.86 96.416 1032.51 94.22 1035.97 94.22C1036.4 94.22 1037.01 94.256 1037.23 94.328V88.208C1037.01 88.172 1036.76 88.136 1036.51 88.136C1033.74 88.136 1031.4 90.224 1030.6 92.744H1030.53C1030.53 92.744 1030.6 92.204 1030.6 91.592V88.46H1024.63V107ZM1038.91 97.712C1038.91 102.644 1042.48 107.432 1049.1 107.432C1051.94 107.432 1055 106.46 1057.02 104.732L1054.72 100.376C1053.2 101.384 1051.44 102.248 1049.6 102.248C1047.62 102.248 1045.75 101.204 1045.28 98.936H1056.98C1057.06 98.288 1057.13 97.64 1057.13 96.992C1057.13 91.844 1054.03 88.028 1048.56 88.028C1042.58 88.028 1038.91 92.276 1038.91 97.712ZM1045.43 95.372C1045.75 93.896 1046.62 92.6 1048.42 92.6C1050 92.6 1050.97 93.86 1050.97 95.372H1045.43ZM667.16 128.12H673.244V123.26H667.16V128.12ZM667.088 149H673.316V130.46H667.088V149ZM677.494 149H683.722V140.612C683.722 137.984 684.982 135.68 687.754 135.68C689.122 135.68 689.806 136.4 689.806 138.128V149H696.034V136.976C696.034 131.756 693.118 130.028 689.374 130.028C686.098 130.028 684.334 131.792 683.47 133.232H683.398C683.398 133.232 683.47 132.692 683.47 132.08V130.46H677.494V149ZM709.441 142.16C709.441 148.388 715.165 149.18 718.117 149.18C718.837 149.18 719.341 149.108 719.809 149.072V143.672C719.413 143.708 719.197 143.708 718.981 143.708C717.793 143.708 715.669 143.42 715.669 141.332V135.644H719.557V130.784H715.669V125.456H709.621V130.784H707.065V135.644H709.441V142.16ZM723.162 149H729.39V140.648C729.39 137.804 730.722 135.68 733.422 135.68C734.79 135.68 735.474 136.4 735.474 138.128V149H741.702V136.976C741.702 131.756 738.786 130.028 735.042 130.028C732.594 130.028 730.434 131.144 729.39 132.98H729.318C729.318 132.98 729.39 132.332 729.39 131.396V123.26H723.162V149ZM744.653 139.712C744.653 144.644 748.217 149.432 754.841 149.432C757.685 149.432 760.745 148.46 762.761 146.732L760.457 142.376C758.945 143.384 757.181 144.248 755.345 144.248C753.365 144.248 751.493 143.204 751.025 140.936H762.725C762.797 140.288 762.869 139.64 762.869 138.992C762.869 133.844 759.773 130.028 754.301 130.028C748.325 130.028 744.653 134.276 744.653 139.712ZM751.169 137.372C751.493 135.896 752.357 134.6 754.157 134.6C755.741 134.6 756.713 135.86 756.713 137.372H751.169ZM777.455 149H784.475L786.563 140.432C786.815 139.424 786.923 138.452 786.923 138.452H786.995C786.995 138.452 787.103 139.424 787.355 140.432L789.443 149H796.391L801.575 130.46H795.095L792.791 141.404C792.575 142.412 792.539 143.348 792.539 143.348H792.467C792.467 143.348 792.431 142.412 792.179 141.404L789.623 130.46H784.295L781.739 141.404C781.487 142.412 781.415 143.348 781.415 143.348H781.343C781.343 143.348 781.343 142.412 781.127 141.404L778.823 130.46H772.271L777.455 149ZM802.696 139.784C802.696 145.58 807.376 149.432 813.208 149.432C819.04 149.432 823.72 145.58 823.72 139.784C823.72 133.952 819.04 130.028 813.172 130.028C807.376 130.028 802.696 133.952 802.696 139.784ZM808.996 139.784C808.996 136.976 810.94 135.212 813.208 135.212C815.476 135.212 817.42 136.976 817.42 139.784C817.42 142.556 815.476 144.248 813.208 144.248C810.94 144.248 808.996 142.556 808.996 139.784ZM826.838 149H833.066V141.8C833.066 138.416 834.722 136.22 838.178 136.22C838.61 136.22 839.222 136.256 839.438 136.328V130.208C839.222 130.172 838.97 130.136 838.718 130.136C835.946 130.136 833.606 132.224 832.814 134.744H832.742C832.742 134.744 832.814 134.204 832.814 133.592V130.46H826.838V149ZM842.13 142.16C842.13 148.388 845.658 149.18 848.97 149.18C849.762 149.18 850.41 149.108 850.842 149.072V143.672C850.554 143.708 850.266 143.708 850.086 143.708C848.682 143.708 848.358 143.096 848.358 141.332V123.26H842.13V142.16ZM852.831 139.712C852.831 145.472 856.143 149.432 861.183 149.432C863.379 149.432 865.395 148.496 866.547 146.732H866.619C866.619 146.732 866.583 147.2 866.583 147.776V149H872.415V123.26H866.187V130.676C866.187 131.144 866.223 131.504 866.223 131.504H866.151C864.927 130.28 862.947 130.028 861.291 130.028C856.359 130.028 852.831 133.844 852.831 139.712ZM859.095 139.712C859.095 136.868 860.787 135.284 862.731 135.284C865.179 135.284 866.367 137.48 866.367 139.712C866.367 142.916 864.603 144.284 862.731 144.284C860.571 144.284 859.095 142.484 859.095 139.712Z" fill="#222224"/>
<path d="M665.882 201.556C665.882 205.3 668.636 208.216 672.416 208.216C676.196 208.216 678.932 205.3 678.932 201.556C678.932 197.902 676.196 195.076 672.416 195.076C668.636 195.076 665.882 197.902 665.882 201.556ZM667.718 201.556C667.718 198.802 669.698 196.696 672.416 196.696C675.116 196.696 677.096 198.802 677.096 201.556C677.096 204.4 675.116 206.578 672.416 206.578C669.698 206.578 667.718 204.4 667.718 201.556ZM681.063 208H682.809V203.626C682.809 201.754 684.069 200.278 685.851 200.278C687.309 200.278 687.561 201.286 687.561 202.564V208H689.307V202.168C689.307 199.846 688.335 198.676 686.193 198.676C684.195 198.676 683.079 200.026 682.737 200.818H682.701C682.701 200.818 682.755 200.512 682.755 200.134V198.892H681.063V208ZM691.909 205.498C691.909 207.802 693.349 208.09 694.357 208.09C694.609 208.09 694.807 208.054 694.933 208.036V206.488C694.825 206.506 694.699 206.506 694.627 206.506C694.087 206.506 693.637 206.29 693.637 205.21V195.292H691.909V205.498ZM696.671 197.056H698.471V195.292H696.671V197.056ZM696.707 208H698.453V198.892H696.707V208ZM701.137 208H702.883V203.626C702.883 201.754 704.143 200.278 705.925 200.278C707.383 200.278 707.635 201.286 707.635 202.564V208H709.381V202.168C709.381 199.846 708.409 198.676 706.267 198.676C704.269 198.676 703.153 200.026 702.811 200.818H702.775C702.775 200.818 702.829 200.512 702.829 200.134V198.892H701.137V208ZM711.389 203.446C711.389 206.146 713.369 208.216 716.231 208.216C717.491 208.216 718.877 207.73 719.759 206.92L719.021 205.642C718.301 206.29 717.311 206.704 716.339 206.704C714.701 206.704 713.297 205.642 713.207 203.68H719.831C719.867 203.428 719.903 203.176 719.903 202.942C719.903 200.602 718.535 198.676 715.961 198.676C713.369 198.676 711.389 200.548 711.389 203.446ZM713.261 202.42C713.513 200.908 714.575 200.026 715.925 200.026C717.113 200.026 718.085 200.854 718.139 202.42H713.261ZM726.502 205.498C726.502 207.802 727.942 208.09 728.95 208.09C729.202 208.09 729.4 208.054 729.526 208.036V206.488C729.418 206.506 729.292 206.506 729.22 206.506C728.68 206.506 728.23 206.29 728.23 205.21V195.292H726.502V205.498ZM730.707 203.446C730.707 206.146 732.687 208.216 735.549 208.216C736.809 208.216 738.195 207.73 739.077 206.92L738.339 205.642C737.619 206.29 736.629 206.704 735.657 206.704C734.019 206.704 732.615 205.642 732.525 203.68H739.149C739.185 203.428 739.221 203.176 739.221 202.942C739.221 200.602 737.853 198.676 735.279 198.676C732.687 198.676 730.707 200.548 730.707 203.446ZM732.579 202.42C732.831 200.908 733.893 200.026 735.243 200.026C736.431 200.026 737.403 200.854 737.457 202.42H732.579ZM740.565 205.516C740.565 207.226 742.023 208.216 743.607 208.216C744.957 208.216 746.073 207.406 746.595 206.362H746.631C746.631 206.362 746.577 206.668 746.577 207.082V208H748.215V202.24C748.215 199.936 746.901 198.676 744.615 198.676C743.337 198.676 741.951 199.144 741.213 199.756L741.915 201.034C742.653 200.512 743.571 200.152 744.471 200.152C745.605 200.152 746.469 200.656 746.469 202.15V202.33H746.001C744.111 202.33 740.565 202.654 740.565 205.516ZM742.311 205.372C742.311 203.698 744.723 203.59 746.019 203.59H746.469V203.932C746.469 205.282 745.551 206.83 744.021 206.83C742.887 206.83 742.311 206.092 742.311 205.372ZM750.813 208H752.559V204.22C752.559 202.456 753.387 200.512 755.349 200.512C755.529 200.512 755.781 200.53 755.853 200.548V198.82C755.709 198.802 755.547 198.784 755.385 198.784C753.981 198.784 752.919 199.882 752.487 201.196H752.451C752.451 201.196 752.505 200.908 752.505 200.53V198.892H750.813V208ZM757.58 208H759.326V203.626C759.326 201.754 760.586 200.278 762.368 200.278C763.826 200.278 764.078 201.286 764.078 202.564V208H765.824V202.168C765.824 199.846 764.852 198.676 762.71 198.676C760.712 198.676 759.596 200.026 759.254 200.818H759.218C759.218 200.818 759.272 200.512 759.272 200.134V198.892H757.58V208ZM768.39 197.056H770.19V195.292H768.39V197.056ZM768.426 208H770.172V198.892H768.426V208ZM772.856 208H774.602V203.626C774.602 201.754 775.862 200.278 777.644 200.278C779.102 200.278 779.354 201.286 779.354 202.564V208H781.1V202.168C781.1 199.846 780.128 198.676 777.986 198.676C775.988 198.676 774.872 200.026 774.53 200.818H774.494C774.494 200.818 774.548 200.512 774.548 200.134V198.892H772.856V208ZM784.566 209.656L783.99 211.024C784.89 211.474 786.006 211.78 787.104 211.78C789.408 211.78 791.694 210.628 791.694 207.622V198.892H790.02V199.792C790.02 199.954 790.074 200.062 790.074 200.062H790.02C789.444 199.09 788.274 198.676 787.14 198.676C784.602 198.676 783.162 200.62 783.162 203.248C783.162 205.858 784.692 207.892 787.23 207.892C788.544 207.892 789.426 207.316 789.966 206.416H790.002C790.002 206.416 789.948 206.704 789.948 206.992V207.73C789.948 209.548 788.652 210.268 787.068 210.268C786.186 210.268 785.286 210.016 784.566 209.656ZM784.926 203.194C784.926 201.34 785.844 200.188 787.41 200.188C788.832 200.188 789.984 200.872 789.984 203.248C789.984 205.624 788.832 206.38 787.572 206.38C785.934 206.38 784.926 205.084 784.926 203.194ZM800.466 208H802.41L804.282 202.15C804.426 201.682 804.534 201.16 804.534 201.16H804.57C804.57 201.16 804.678 201.682 804.84 202.15L806.712 208H808.656L811.572 198.892H809.754L807.846 205.282C807.702 205.75 807.612 206.254 807.612 206.254H807.576C807.576 206.254 807.468 205.75 807.342 205.282L805.38 198.91H803.76L801.798 205.282C801.654 205.75 801.546 206.254 801.546 206.254H801.51C801.51 206.254 801.42 205.75 801.276 205.282L799.386 198.892H797.532L800.466 208ZM813.32 197.056H815.12V195.292H813.32V197.056ZM813.356 208H815.102V198.892H813.356V208ZM818.164 204.67C818.164 207.712 820.486 208.09 821.656 208.09C821.926 208.09 822.124 208.054 822.268 208.036V206.488C822.088 206.524 821.98 206.524 821.854 206.524C821.188 206.524 819.91 206.29 819.91 204.472V200.404H822.106V198.982H819.91V196.39H818.2V198.982H816.976V200.404H818.164V204.67ZM824.061 208H825.807V203.68C825.807 201.718 827.085 200.278 828.849 200.278C830.307 200.278 830.559 201.286 830.559 202.564V208H832.305V202.168C832.305 199.846 831.333 198.676 829.191 198.676C827.373 198.676 826.185 199.9 825.771 200.764H825.735C825.735 200.764 825.807 200.44 825.807 200.008V195.292H824.061V208ZM839.433 204.67C839.433 207.712 841.755 208.09 842.925 208.09C843.195 208.09 843.393 208.054 843.537 208.036V206.488C843.357 206.524 843.249 206.524 843.123 206.524C842.457 206.524 841.179 206.29 841.179 204.472V200.404H843.375V198.982H841.179V196.39H839.469V198.982H838.245V200.404H839.433V204.67ZM845.222 204.724C845.222 207.136 846.284 208.216 848.336 208.216C850.118 208.216 851.324 206.974 851.72 206.074H851.756C851.756 206.074 851.684 206.38 851.684 206.74V208H853.376V198.892H851.648V203.158C851.648 204.958 850.55 206.596 848.678 206.596C847.238 206.596 846.968 205.588 846.968 204.328V198.892H845.222V204.724ZM856.449 204.67C856.449 207.712 858.771 208.09 859.941 208.09C860.211 208.09 860.409 208.054 860.553 208.036V206.488C860.373 206.524 860.265 206.524 860.139 206.524C859.473 206.524 858.195 206.29 858.195 204.472V200.404H860.391V198.982H858.195V196.39H856.485V198.982H855.261V200.404H856.449V204.67ZM861.647 203.428C861.647 206.2 863.843 208.216 866.561 208.216C869.261 208.216 871.457 206.2 871.457 203.428C871.457 200.674 869.261 198.676 866.543 198.676C863.843 198.676 861.647 200.674 861.647 203.428ZM863.429 203.428C863.429 201.538 864.833 200.188 866.561 200.188C868.271 200.188 869.693 201.538 869.693 203.428C869.693 205.336 868.271 206.704 866.561 206.704C864.833 206.704 863.429 205.336 863.429 203.428ZM873.561 208H875.307V204.22C875.307 202.456 876.135 200.512 878.097 200.512C878.277 200.512 878.529 200.53 878.601 200.548V198.82C878.457 198.802 878.295 198.784 878.133 198.784C876.729 198.784 875.667 199.882 875.235 201.196H875.199C875.199 201.196 875.253 200.908 875.253 200.53V198.892H873.561V208ZM879.555 206.884C880.455 207.802 881.805 208.216 883.029 208.216C884.973 208.216 886.305 207.082 886.305 205.534C886.305 202.528 881.607 203.05 881.607 201.268C881.607 200.494 882.273 200.134 883.155 200.134C883.965 200.134 884.919 200.44 885.459 200.944L886.161 199.684C885.369 198.964 884.253 198.676 883.209 198.676C881.427 198.676 879.933 199.576 879.933 201.304C879.933 204.292 884.613 203.824 884.613 205.57C884.613 206.326 883.983 206.758 883.065 206.758C882.111 206.758 881.067 206.362 880.383 205.696L879.555 206.884ZM665.594 233.516C665.594 235.226 667.052 236.216 668.636 236.216C669.986 236.216 671.102 235.406 671.624 234.362H671.66C671.66 234.362 671.606 234.668 671.606 235.082V236H673.244V230.24C673.244 227.936 671.93 226.676 669.644 226.676C668.366 226.676 666.98 227.144 666.242 227.756L666.944 229.034C667.682 228.512 668.6 228.152 669.5 228.152C670.634 228.152 671.498 228.656 671.498 230.15V230.33H671.03C669.14 230.33 665.594 230.654 665.594 233.516ZM667.34 233.372C667.34 231.698 669.752 231.59 671.048 231.59H671.498V231.932C671.498 233.282 670.58 234.83 669.05 234.83C667.916 234.83 667.34 234.092 667.34 233.372ZM675.842 236H677.588V231.626C677.588 229.754 678.848 228.278 680.63 228.278C682.088 228.278 682.34 229.286 682.34 230.564V236H684.086V230.168C684.086 227.846 683.114 226.676 680.972 226.676C678.974 226.676 677.858 228.026 677.516 228.818H677.48C677.48 228.818 677.534 228.512 677.534 228.134V226.892H675.842V236ZM686.097 237.89L685.485 239.222C685.485 239.222 686.223 239.78 687.231 239.78C688.509 239.78 689.643 239.06 690.183 237.638L694.467 226.892H692.577L690.363 232.868C690.201 233.336 690.057 233.948 690.057 233.948H690.021C690.021 233.948 689.859 233.3 689.679 232.85L687.393 226.892H685.431L689.247 235.892L688.797 236.936C688.455 237.764 687.861 238.286 687.141 238.286C686.601 238.286 686.097 237.89 686.097 237.89ZM696.558 232.67C696.558 235.712 698.88 236.09 700.05 236.09C700.32 236.09 700.518 236.054 700.662 236.036V234.488C700.482 234.524 700.374 234.524 700.248 234.524C699.582 234.524 698.304 234.29 698.304 232.472V228.404H700.5V226.982H698.304V224.39H696.594V226.982H695.37V228.404H696.558V232.67ZM702.419 225.056H704.219V223.292H702.419V225.056ZM702.455 236H704.201V226.892H702.455V236ZM706.885 236H708.631V231.752C708.631 230.06 709.639 228.26 711.367 228.26C712.753 228.26 712.933 229.358 712.933 230.546V236H714.679V231.752C714.679 230.006 715.687 228.26 717.379 228.26C718.729 228.26 718.981 229.268 718.981 230.546V236H720.727V230.168C720.727 227.846 719.791 226.676 717.721 226.676C716.245 226.676 714.985 227.684 714.481 228.746H714.445C714.139 227.378 713.257 226.676 711.727 226.676C710.287 226.676 708.991 227.756 708.559 228.818H708.523C708.523 228.818 708.577 228.512 708.577 228.134V226.892H706.885V236ZM722.744 231.446C722.744 234.146 724.724 236.216 727.586 236.216C728.846 236.216 730.232 235.73 731.114 234.92L730.376 233.642C729.656 234.29 728.666 234.704 727.694 234.704C726.056 234.704 724.652 233.642 724.562 231.68H731.186C731.222 231.428 731.258 231.176 731.258 230.942C731.258 228.602 729.89 226.676 727.316 226.676C724.724 226.676 722.744 228.548 722.744 231.446ZM724.616 230.42C724.868 228.908 725.93 228.026 727.28 228.026C728.468 228.026 729.44 228.854 729.494 230.42H724.616ZM737.102 233.516C737.102 235.226 738.56 236.216 740.144 236.216C741.494 236.216 742.61 235.406 743.132 234.362H743.168C743.168 234.362 743.114 234.668 743.114 235.082V236H744.752V230.24C744.752 227.936 743.438 226.676 741.152 226.676C739.874 226.676 738.488 227.144 737.75 227.756L738.452 229.034C739.19 228.512 740.108 228.152 741.008 228.152C742.142 228.152 743.006 228.656 743.006 230.15V230.33H742.538C740.648 230.33 737.102 230.654 737.102 233.516ZM738.848 233.372C738.848 231.698 741.26 231.59 742.556 231.59H743.006V231.932C743.006 233.282 742.088 234.83 740.558 234.83C739.424 234.83 738.848 234.092 738.848 233.372ZM747.35 236H749.096V231.626C749.096 229.754 750.356 228.278 752.138 228.278C753.596 228.278 753.848 229.286 753.848 230.564V236H755.594V230.168C755.594 227.846 754.622 226.676 752.48 226.676C750.482 226.676 749.366 228.026 749.024 228.818H748.988C748.988 228.818 749.042 228.512 749.042 228.134V226.892H747.35V236ZM757.638 231.446C757.638 234.272 759.204 236.216 761.652 236.216C763.092 236.216 764.154 235.46 764.676 234.47H764.712C764.712 234.47 764.658 234.722 764.658 235.082V236H766.314V223.292H764.586V227.558C764.586 227.9 764.622 228.17 764.622 228.17H764.586C764.01 227.198 762.912 226.676 761.76 226.676C759.348 226.676 757.638 228.548 757.638 231.446ZM759.42 231.446C759.42 229.376 760.608 228.206 762.03 228.206C763.776 228.206 764.622 229.79 764.622 231.428C764.622 233.732 763.344 234.704 761.994 234.704C760.482 234.704 759.42 233.426 759.42 231.446ZM772.75 233.516C772.75 235.226 774.208 236.216 775.792 236.216C777.142 236.216 778.258 235.406 778.78 234.362H778.816C778.816 234.362 778.762 234.668 778.762 235.082V236H780.4V230.24C780.4 227.936 779.086 226.676 776.8 226.676C775.522 226.676 774.136 227.144 773.398 227.756L774.1 229.034C774.838 228.512 775.756 228.152 776.656 228.152C777.79 228.152 778.654 228.656 778.654 230.15V230.33H778.186C776.296 230.33 772.75 230.654 772.75 233.516ZM774.496 233.372C774.496 231.698 776.908 231.59 778.204 231.59H778.654V231.932C778.654 233.282 777.736 234.83 776.206 234.83C775.072 234.83 774.496 234.092 774.496 233.372ZM782.998 236H784.744V231.626C784.744 229.754 786.004 228.278 787.786 228.278C789.244 228.278 789.496 229.286 789.496 230.564V236H791.242V230.168C791.242 227.846 790.27 226.676 788.128 226.676C786.13 226.676 785.014 228.026 784.672 228.818H784.636C784.636 228.818 784.69 228.512 784.69 228.134V226.892H782.998V236ZM793.254 237.89L792.642 239.222C792.642 239.222 793.38 239.78 794.388 239.78C795.666 239.78 796.8 239.06 797.34 237.638L801.624 226.892H799.734L797.52 232.868C797.358 233.336 797.214 233.948 797.214 233.948H797.178C797.178 233.948 797.016 233.3 796.836 232.85L794.55 226.892H792.588L796.404 235.892L795.954 236.936C795.612 237.764 795.018 238.286 794.298 238.286C793.758 238.286 793.254 237.89 793.254 237.89ZM805.352 236H807.296L809.168 230.15C809.312 229.682 809.42 229.16 809.42 229.16H809.456C809.456 229.16 809.564 229.682 809.726 230.15L811.598 236H813.542L816.458 226.892H814.64L812.732 233.282C812.588 233.75 812.498 234.254 812.498 234.254H812.462C812.462 234.254 812.354 233.75 812.228 233.282L810.266 226.91H808.646L806.684 233.282C806.54 233.75 806.432 234.254 806.432 234.254H806.396C806.396 234.254 806.306 233.75 806.162 233.282L804.272 226.892H802.418L805.352 236ZM818.243 236H819.989V231.68C819.989 229.718 821.267 228.278 823.031 228.278C824.489 228.278 824.741 229.286 824.741 230.564V236H826.487V230.168C826.487 227.846 825.515 226.676 823.373 226.676C821.555 226.676 820.367 227.9 819.953 228.764H819.917C819.917 228.764 819.989 228.44 819.989 228.008V223.292H818.243V236ZM828.494 231.446C828.494 234.146 830.474 236.216 833.336 236.216C834.596 236.216 835.982 235.73 836.864 234.92L836.126 233.642C835.406 234.29 834.416 234.704 833.444 234.704C831.806 234.704 830.402 233.642 830.312 231.68H836.936C836.972 231.428 837.008 231.176 837.008 230.942C837.008 228.602 835.64 226.676 833.066 226.676C830.474 226.676 828.494 228.548 828.494 231.446ZM830.366 230.42C830.618 228.908 831.68 228.026 833.03 228.026C834.218 228.026 835.19 228.854 835.244 230.42H830.366ZM839.108 236H840.854V232.22C840.854 230.456 841.682 228.512 843.644 228.512C843.824 228.512 844.076 228.53 844.148 228.548V226.82C844.004 226.802 843.842 226.784 843.68 226.784C842.276 226.784 841.214 227.882 840.782 229.196H840.746C840.746 229.196 840.8 228.908 840.8 228.53V226.892H839.108V236ZM845.053 231.446C845.053 234.146 847.033 236.216 849.895 236.216C851.155 236.216 852.541 235.73 853.423 234.92L852.685 233.642C851.965 234.29 850.975 234.704 850.003 234.704C848.365 234.704 846.961 233.642 846.871 231.68H853.495C853.531 231.428 853.567 231.176 853.567 230.942C853.567 228.602 852.199 226.676 849.625 226.676C847.033 226.676 845.053 228.548 845.053 231.446ZM846.925 230.42C847.177 228.908 848.239 228.026 849.589 228.026C850.777 228.026 851.749 228.854 851.803 230.42H846.925Z" fill="#505257"/>
</svg>
