<svg width="1109" height="298" viewBox="0 0 1109 298" fill="none" xmlns="http://www.w3.org/2000/svg">
<path d="M600 4.40122C600 2.86065 600 2.09037 600.3 1.50195C600.563 0.984356 600.984 0.563541 601.501 0.299816C602.089 0 602.859 0 604.398 0H1104.6C1106.14 0 1106.91 0 1107.5 0.299816C1108.02 0.563541 1108.44 0.984356 1108.7 1.50195C1109 2.09037 1109 2.86066 1109 4.40123V293.599C1109 295.139 1109 295.91 1108.7 296.498C1108.44 297.016 1108.02 297.436 1107.5 297.7C1106.91 298 1106.14 298 1104.6 298H604.398C602.859 298 602.089 298 601.501 297.7C600.984 297.436 600.563 297.016 600.3 296.498C600 295.91 600 295.139 600 293.599V4.40122Z" fill="#F3F3F3"/>
<path d="M747 58.2049C747 57.0831 747 56.5222 747.189 56.0937C747.355 55.7168 747.62 55.4104 747.947 55.2183C748.317 55 748.803 55 749.774 55H1065.23C1066.2 55 1066.68 55 1067.05 55.2183C1067.38 55.4104 1067.64 55.7168 1067.81 56.0937C1068 56.5222 1068 57.0831 1068 58.2049V268.795C1068 269.917 1068 270.478 1067.81 270.906C1067.64 271.283 1067.38 271.59 1067.05 271.782C1066.68 272 1066.2 272 1065.23 272H749.774C748.803 272 748.317 272 747.947 271.782C747.62 271.59 747.355 271.283 747.189 270.906C747 270.478 747 269.917 747 268.795V58.2049Z" fill="white"/>
<path d="M760 216.321C760 216.208 760 216.152 760.023 216.109C760.042 216.072 760.074 216.041 760.113 216.022C760.157 216 760.215 216 760.331 216H784.669C784.785 216 784.843 216 784.887 216.022C784.926 216.041 784.958 216.072 784.977 216.109C785 216.152 785 216.208 785 216.321V229.679C785 229.792 785 229.848 784.977 229.891C784.958 229.928 784.926 229.959 784.887 229.978C784.843 230 784.785 230 784.669 230H760.331C760.215 230 760.157 230 760.113 229.978C760.074 229.959 760.042 229.928 760.023 229.891C760 229.848 760 229.792 760 229.679V216.321Z" fill="#F3F3F3"/>
<path d="M790 202.642C790 202.417 790 202.305 790.023 202.219C790.042 202.143 790.074 202.082 790.113 202.044C790.157 202 790.215 202 790.331 202H814.669C814.785 202 814.843 202 814.887 202.044C814.926 202.082 814.958 202.143 814.977 202.219C815 202.305 815 202.417 815 202.642V229.358C815 229.583 815 229.695 814.977 229.781C814.958 229.857 814.926 229.918 814.887 229.956C814.843 230 814.785 230 814.669 230H790.331C790.215 230 790.157 230 790.113 229.956C790.074 229.918 790.042 229.857 790.023 229.781C790 229.695 790 229.583 790 229.358V202.642Z" fill="#F3F3F3"/>
<path d="M850 175.283C850 174.834 850 174.609 850.023 174.438C850.042 174.287 850.074 174.164 850.113 174.087C850.157 174 850.215 174 850.331 174H874.669C874.785 174 874.843 174 874.887 174.087C874.926 174.164 874.958 174.287 874.977 174.438C875 174.609 875 174.834 875 175.283V228.717C875 229.166 875 229.391 874.977 229.562C874.958 229.713 874.926 229.836 874.887 229.913C874.843 230 874.785 230 874.669 230H850.331C850.215 230 850.157 230 850.113 229.913C850.074 229.836 850.042 229.713 850.023 229.562C850 229.391 850 229.166 850 228.717V175.283Z" fill="#F3F3F3"/>
<path d="M820 188.962C820 188.625 820 188.457 820.023 188.328C820.042 188.215 820.074 188.123 820.113 188.066C820.157 188 820.215 188 820.331 188H844.669C844.785 188 844.843 188 844.887 188.066C844.926 188.123 844.958 188.215 844.977 188.328C845 188.457 845 188.625 845 188.962V229.038C845 229.375 845 229.543 844.977 229.672C844.958 229.785 844.926 229.877 844.887 229.934C844.843 230 844.785 230 844.669 230H820.331C820.215 230 820.157 230 820.113 229.934C820.074 229.877 820.042 229.785 820.023 229.672C820 229.543 820 229.375 820 229.038V188.962Z" fill="#F3F3F3"/>
<path d="M880 161.604C880 161.042 880 160.762 880.023 160.547C880.042 160.359 880.074 160.205 880.113 160.109C880.157 160 880.215 160 880.331 160H904.669C904.785 160 904.843 160 904.887 160.109C904.926 160.205 904.958 160.359 904.977 160.547C905 160.762 905 161.042 905 161.604V228.396C905 228.958 905 229.238 904.977 229.453C904.958 229.641 904.926 229.795 904.887 229.891C904.843 230 904.785 230 904.669 230H880.331C880.215 230 880.157 230 880.113 229.891C880.074 229.795 880.042 229.641 880.023 229.453C880 229.238 880 228.958 880 228.396V161.604Z" fill="#F3F3F3"/>
<path d="M910 147.925C910 147.251 910 146.914 910.023 146.657C910.042 146.43 910.074 146.246 910.113 146.131C910.157 146 910.215 146 910.331 146H934.669C934.785 146 934.843 146 934.887 146.131C934.926 146.246 934.958 146.43 934.977 146.657C935 146.914 935 147.251 935 147.925V228.075C935 228.749 935 229.086 934.977 229.343C934.958 229.57 934.926 229.754 934.887 229.869C934.843 230 934.785 230 934.669 230H910.331C910.215 230 910.157 230 910.113 229.869C910.074 229.754 910.042 229.57 910.023 229.343C910 229.086 910 228.749 910 228.075V147.925Z" fill="#F3F3F3"/>
<path d="M940 134.245C940 133.459 940 133.066 940.023 132.766C940.042 132.502 940.074 132.287 940.113 132.153C940.157 132 940.215 132 940.331 132H964.669C964.785 132 964.843 132 964.887 132.153C964.926 132.287 964.958 132.502 964.977 132.766C965 133.066 965 133.459 965 134.245V227.755C965 228.541 965 228.934 964.977 229.234C964.958 229.498 964.926 229.713 964.887 229.847C964.843 230 964.785 230 964.669 230H940.331C940.215 230 940.157 230 940.113 229.847C940.074 229.713 940.042 229.498 940.023 229.234C940 228.934 940 228.541 940 227.755V134.245Z" fill="#F3F3F3"/>
<path d="M970 120.566C970 119.668 970 119.219 970.023 118.876C970.042 118.574 970.074 118.329 970.113 118.175C970.157 118 970.215 118 970.331 118H994.669C994.785 118 994.843 118 994.887 118.175C994.926 118.329 994.958 118.574 994.977 118.876C995 119.219 995 119.668 995 120.566V227.434C995 228.332 995 228.781 994.977 229.124C994.958 229.426 994.926 229.671 994.887 229.825C994.843 230 994.785 230 994.669 230H970.331C970.215 230 970.157 230 970.113 229.825C970.074 229.671 970.042 229.426 970.023 229.124C970 228.781 970 228.332 970 227.434V120.566Z" fill="#F3F3F3"/>
<path d="M1000 106.887C1000 105.876 1000 105.371 1000.02 104.985C1000.04 104.646 1000.07 104.37 1000.11 104.197C1000.16 104 1000.22 104 1000.33 104H1024.67C1024.78 104 1024.84 104 1024.89 104.197C1024.93 104.37 1024.96 104.646 1024.98 104.985C1025 105.371 1025 105.876 1025 106.887V227.113C1025 228.124 1025 228.629 1024.98 229.015C1024.96 229.354 1024.93 229.63 1024.89 229.803C1024.84 230 1024.78 230 1024.67 230H1000.33C1000.22 230 1000.16 230 1000.11 229.803C1000.07 229.63 1000.04 229.354 1000.02 229.015C1000 228.629 1000 228.124 1000 227.113V106.887Z" fill="#F3F3F3"/>
<path d="M1030 93.2076C1030 92.0849 1030 91.5235 1030.02 91.0946C1030.04 90.7174 1030.07 90.4107 1030.11 90.2185C1030.16 90 1030.22 90 1030.33 90H1054.67C1054.78 90 1054.84 90 1054.89 90.2185C1054.93 90.4107 1054.96 90.7174 1054.98 91.0946C1055 91.5235 1055 92.0849 1055 93.2076V226.792C1055 227.915 1055 228.477 1054.98 228.905C1054.96 229.283 1054.93 229.589 1054.89 229.781C1054.84 230 1054.78 230 1054.67 230H1030.33C1030.22 230 1030.16 230 1030.11 229.781C1030.07 229.589 1030.04 229.283 1030.02 228.905C1030 228.477 1030 227.915 1030 226.792V93.2076Z" fill="#F04B5D"/>
<path d="M1038 79.5L1040.67 82L1046 77" stroke="#222224" stroke-width="2"/>
<path d="M747 21.8444C747 20.8488 747 20.351 747.101 19.9707C747.19 19.6362 747.332 19.3642 747.507 19.1938C747.705 19 747.965 19 748.485 19H774.515C775.035 19 775.295 19 775.493 19.1938C775.668 19.3642 775.81 19.6362 775.899 19.9707C776 20.351 776 20.8488 776 21.8444V24.1556C776 25.1512 776 25.649 775.899 26.0293C775.81 26.3638 775.668 26.6358 775.493 26.8062C775.295 27 775.035 27 774.515 27H748.485C747.965 27 747.705 27 747.507 26.8062C747.332 26.6358 747.19 26.3638 747.101 26.0293C747 25.649 747 25.1512 747 24.1556V21.8444Z" fill="#424754"/>
<path d="M770 238.873C770 238.567 770 238.415 770.01 238.298C770.02 238.195 770.034 238.112 770.052 238.059C770.073 238 770.1 238 770.154 238H775.846C775.9 238 775.927 238 775.948 238.059C775.966 238.112 775.98 238.195 775.99 238.298C776 238.415 776 238.567 776 238.873V240.127C776 240.433 776 240.585 775.99 240.702C775.98 240.805 775.966 240.888 775.948 240.941C775.927 241 775.9 241 775.846 241H770.154C770.1 241 770.073 241 770.052 240.941C770.034 240.888 770.02 240.805 770.01 240.702C770 240.585 770 240.433 770 240.127V238.873Z" fill="#424754"/>
<path d="M800 238.873C800 238.567 800 238.415 800.01 238.298C800.02 238.195 800.034 238.112 800.052 238.059C800.073 238 800.1 238 800.154 238H805.846C805.9 238 805.927 238 805.948 238.059C805.966 238.112 805.98 238.195 805.99 238.298C806 238.415 806 238.567 806 238.873V240.127C806 240.433 806 240.585 805.99 240.702C805.98 240.805 805.966 240.888 805.948 240.941C805.927 241 805.9 241 805.846 241H800.154C800.1 241 800.073 241 800.052 240.941C800.034 240.888 800.02 240.805 800.01 240.702C800 240.585 800 240.433 800 240.127V238.873Z" fill="#424754"/>
<path d="M830 238.873C830 238.567 830 238.415 830.01 238.298C830.02 238.195 830.034 238.112 830.052 238.059C830.073 238 830.1 238 830.154 238H835.846C835.9 238 835.927 238 835.948 238.059C835.966 238.112 835.98 238.195 835.99 238.298C836 238.415 836 238.567 836 238.873V240.127C836 240.433 836 240.585 835.99 240.702C835.98 240.805 835.966 240.888 835.948 240.941C835.927 241 835.9 241 835.846 241H830.154C830.1 241 830.073 241 830.052 240.941C830.034 240.888 830.02 240.805 830.01 240.702C830 240.585 830 240.433 830 240.127V238.873Z" fill="#424754"/>
<path d="M860 238.873C860 238.567 860 238.415 860.01 238.298C860.02 238.195 860.034 238.112 860.052 238.059C860.073 238 860.1 238 860.154 238H865.846C865.9 238 865.927 238 865.948 238.059C865.966 238.112 865.98 238.195 865.99 238.298C866 238.415 866 238.567 866 238.873V240.127C866 240.433 866 240.585 865.99 240.702C865.98 240.805 865.966 240.888 865.948 240.941C865.927 241 865.9 241 865.846 241H860.154C860.1 241 860.073 241 860.052 240.941C860.034 240.888 860.02 240.805 860.01 240.702C860 240.585 860 240.433 860 240.127V238.873Z" fill="#424754"/>
<path d="M890 238.873C890 238.567 890 238.415 890.01 238.298C890.02 238.195 890.034 238.112 890.052 238.059C890.073 238 890.1 238 890.154 238H895.846C895.9 238 895.927 238 895.948 238.059C895.966 238.112 895.98 238.195 895.99 238.298C896 238.415 896 238.567 896 238.873V240.127C896 240.433 896 240.585 895.99 240.702C895.98 240.805 895.966 240.888 895.948 240.941C895.927 241 895.9 241 895.846 241H890.154C890.1 241 890.073 241 890.052 240.941C890.034 240.888 890.02 240.805 890.01 240.702C890 240.585 890 240.433 890 240.127V238.873Z" fill="#424754"/>
<path d="M920 238.873C920 238.567 920 238.415 920.01 238.298C920.02 238.195 920.034 238.112 920.052 238.059C920.073 238 920.1 238 920.154 238H925.846C925.9 238 925.927 238 925.948 238.059C925.966 238.112 925.98 238.195 925.99 238.298C926 238.415 926 238.567 926 238.873V240.127C926 240.433 926 240.585 925.99 240.702C925.98 240.805 925.966 240.888 925.948 240.941C925.927 241 925.9 241 925.846 241H920.154C920.1 241 920.073 241 920.052 240.941C920.034 240.888 920.02 240.805 920.01 240.702C920 240.585 920 240.433 920 240.127V238.873Z" fill="#424754"/>
<path d="M950 238.873C950 238.567 950 238.415 950.01 238.298C950.02 238.195 950.034 238.112 950.052 238.059C950.073 238 950.1 238 950.154 238H955.846C955.9 238 955.927 238 955.948 238.059C955.966 238.112 955.98 238.195 955.99 238.298C956 238.415 956 238.567 956 238.873V240.127C956 240.433 956 240.585 955.99 240.702C955.98 240.805 955.966 240.888 955.948 240.941C955.927 241 955.9 241 955.846 241H950.154C950.1 241 950.073 241 950.052 240.941C950.034 240.888 950.02 240.805 950.01 240.702C950 240.585 950 240.433 950 240.127V238.873Z" fill="#424754"/>
<path d="M980 238.873C980 238.567 980 238.415 980.01 238.298C980.02 238.195 980.034 238.112 980.052 238.059C980.073 238 980.1 238 980.154 238H985.846C985.9 238 985.927 238 985.948 238.059C985.966 238.112 985.98 238.195 985.99 238.298C986 238.415 986 238.567 986 238.873V240.127C986 240.433 986 240.585 985.99 240.702C985.98 240.805 985.966 240.888 985.948 240.941C985.927 241 985.9 241 985.846 241H980.154C980.1 241 980.073 241 980.052 240.941C980.034 240.888 980.02 240.805 980.01 240.702C980 240.585 980 240.433 980 240.127V238.873Z" fill="#424754"/>
<path d="M1010 238.873C1010 238.567 1010 238.415 1010.01 238.298C1010.02 238.195 1010.03 238.112 1010.05 238.059C1010.07 238 1010.1 238 1010.15 238H1015.85C1015.9 238 1015.93 238 1015.95 238.059C1015.97 238.112 1015.98 238.195 1015.99 238.298C1016 238.415 1016 238.567 1016 238.873V240.127C1016 240.433 1016 240.585 1015.99 240.702C1015.98 240.805 1015.97 240.888 1015.95 240.941C1015.93 241 1015.9 241 1015.85 241H1010.15C1010.1 241 1010.07 241 1010.05 240.941C1010.03 240.888 1010.02 240.805 1010.01 240.702C1010 240.585 1010 240.433 1010 240.127V238.873Z" fill="#424754"/>
<path d="M1040 238.873C1040 238.567 1040 238.415 1040.01 238.298C1040.02 238.195 1040.03 238.112 1040.05 238.059C1040.07 238 1040.1 238 1040.15 238H1045.85C1045.9 238 1045.93 238 1045.95 238.059C1045.97 238.112 1045.98 238.195 1045.99 238.298C1046 238.415 1046 238.567 1046 238.873V240.127C1046 240.433 1046 240.585 1045.99 240.702C1045.98 240.805 1045.97 240.888 1045.95 240.941C1045.93 241 1045.9 241 1045.85 241H1040.15C1040.1 241 1040.07 241 1040.05 240.941C1040.03 240.888 1040.02 240.805 1040.01 240.702C1040 240.585 1040 240.433 1040 240.127V238.873Z" fill="#424754"/>
<path d="M760 256.455C760 255.945 760 255.691 760.1 255.496C760.187 255.325 760.327 255.186 760.5 255.099C760.695 255 760.951 255 761.464 255H989.536C990.049 255 990.305 255 990.5 255.099C990.673 255.186 990.813 255.325 990.9 255.496C991 255.691 991 255.945 991 256.455V258.545C991 259.055 991 259.309 990.9 259.504C990.813 259.675 990.673 259.814 990.5 259.901C990.305 260 990.049 260 989.536 260H761.464C760.951 260 760.695 260 760.5 259.901C760.327 259.814 760.187 259.675 760.1 259.504C760 259.309 760 259.055 760 258.545V256.455Z" fill="#97999D"/>
<path d="M600 4.40122C600 2.86065 600 2.09037 600.299 1.50195C600.562 0.984356 600.981 0.563541 601.497 0.299816C602.084 0 602.852 0 604.388 0H712.612C714.148 0 714.916 0 715.503 0.299816C716.019 0.563541 716.438 0.984356 716.701 1.50195C717 2.09037 717 2.86066 717 4.40123V293.599C717 295.139 717 295.91 716.701 296.498C716.438 297.016 716.019 297.436 715.503 297.7C714.916 298 714.148 298 712.612 298H604.388C602.852 298 602.084 298 601.497 297.7C600.981 297.436 600.562 297.016 600.299 296.498C600 295.91 600 295.139 600 293.599V4.40122Z" fill="#FFEAEC"/>
<path d="M600 60.4979C600 59.9736 600 59.7114 600.1 59.5112C600.188 59.335 600.328 59.1918 600.501 59.102C600.697 59 600.954 59 601.468 59H715.532C716.046 59 716.303 59 716.499 59.102C716.672 59.1918 716.812 59.335 716.9 59.5112C717 59.7114 717 59.9736 717 60.4979V79.5021C717 80.0264 717 80.2886 716.9 80.4888C716.812 80.665 716.672 80.8082 716.499 80.898C716.303 81 716.046 81 715.532 81H601.468C600.954 81 600.697 81 600.501 80.898C600.328 80.8082 600.188 80.665 600.1 80.4888C600 80.2886 600 80.0264 600 79.5021V60.4979Z" fill="#FFEAEC"/>
<path d="M630 68.4545C630 67.9454 630 67.6908 630.099 67.4964C630.187 67.3253 630.326 67.1862 630.498 67.0991C630.693 67 630.948 67 631.459 67H685.541C686.052 67 686.307 67 686.502 67.0991C686.674 67.1862 686.813 67.3253 686.901 67.4964C687 67.6908 687 67.9454 687 68.4545V70.5455C687 71.0546 687 71.3092 686.901 71.5036C686.813 71.6747 686.674 71.8138 686.502 71.9009C686.307 72 686.052 72 685.541 72H631.459C630.948 72 630.693 72 630.498 71.9009C630.326 71.8138 630.187 71.6747 630.099 71.5036C630 71.3092 630 71.0546 630 70.5455V68.4545Z" fill="#F04B5D"/>
<path d="M655 20.4545C655 19.9454 655 19.6908 655.099 19.4964C655.185 19.3253 655.324 19.1862 655.494 19.0991C655.688 19 655.941 19 656.448 19H696.552C697.059 19 697.312 19 697.506 19.0991C697.676 19.1862 697.815 19.3253 697.901 19.4964C698 19.6908 698 19.9454 698 20.4545V22.5455C698 23.0546 698 23.3092 697.901 23.5036C697.815 23.6747 697.676 23.8138 697.506 23.9009C697.312 24 697.059 24 696.552 24H656.448C655.941 24 655.688 24 655.494 23.9009C655.324 23.8138 655.185 23.6747 655.099 23.5036C655 23.3092 655 23.0546 655 22.5455V20.4545Z" fill="#424754"/>
<path d="M630 15.4452C630 14.9393 630 14.6864 630.102 14.4932C630.191 14.3232 630.334 14.185 630.51 14.0984C630.709 14 630.971 14 631.493 14H642.507C643.029 14 643.291 14 643.49 14.0984C643.666 14.185 643.809 14.3232 643.898 14.4932C644 14.6864 644 14.9393 644 15.4452V26.5548C644 27.0607 644 27.3136 643.898 27.5068C643.809 27.6768 643.666 27.815 643.49 27.9016C643.291 28 643.029 28 642.507 28H631.493C630.971 28 630.709 28 630.51 27.9016C630.334 27.815 630.191 27.6768 630.102 27.5068C630 27.3136 630 27.0607 630 26.5548V15.4452Z" fill="#424754"/>
<path d="M630 90.4545C630 89.9454 630 89.6908 630.099 89.4964C630.187 89.3253 630.326 89.1862 630.498 89.0991C630.693 89 630.948 89 631.459 89H685.541C686.052 89 686.307 89 686.502 89.0991C686.674 89.1862 686.813 89.3253 686.901 89.4964C687 89.6908 687 89.9454 687 90.4545V92.5455C687 93.0546 687 93.3092 686.901 93.5036C686.813 93.6747 686.674 93.8138 686.502 93.9009C686.307 94 686.052 94 685.541 94H631.459C630.948 94 630.693 94 630.498 93.9009C630.326 93.8138 630.187 93.6747 630.099 93.5036C630 93.3092 630 93.0546 630 92.5455V90.4545Z" fill="#424754"/>
<path d="M630 111.455C630 110.945 630 110.691 630.099 110.496C630.187 110.325 630.326 110.186 630.498 110.099C630.693 110 630.948 110 631.459 110H685.541C686.052 110 686.307 110 686.502 110.099C686.674 110.186 686.813 110.325 686.901 110.496C687 110.691 687 110.945 687 111.455V113.545C687 114.055 687 114.309 686.901 114.504C686.813 114.675 686.674 114.814 686.502 114.901C686.307 115 686.052 115 685.541 115H631.459C630.948 115 630.693 115 630.498 114.901C630.326 114.814 630.187 114.675 630.099 114.504C630 114.309 630 114.055 630 113.545V111.455Z" fill="#424754"/>
<path d="M630 133.455C630 132.945 630 132.691 630.099 132.496C630.187 132.325 630.326 132.186 630.498 132.099C630.693 132 630.948 132 631.459 132H685.541C686.052 132 686.307 132 686.502 132.099C686.674 132.186 686.813 132.325 686.901 132.496C687 132.691 687 132.945 687 133.455V135.545C687 136.055 687 136.309 686.901 136.504C686.813 136.675 686.674 136.814 686.502 136.901C686.307 137 686.052 137 685.541 137H631.459C630.948 137 630.693 137 630.498 136.901C630.326 136.814 630.187 136.675 630.099 136.504C630 136.309 630 136.055 630 135.545V133.455Z" fill="#424754"/>
<path d="M630 154.745C630 154.134 630 153.829 630.099 153.596C630.187 153.39 630.326 153.223 630.498 153.119C630.693 153 630.948 153 631.459 153H685.541C686.052 153 686.307 153 686.502 153.119C686.674 153.223 686.813 153.39 686.901 153.596C687 153.829 687 154.134 687 154.745V157.255C687 157.866 687 158.171 686.901 158.404C686.813 158.61 686.674 158.777 686.502 158.881C686.307 159 686.052 159 685.541 159H631.459C630.948 159 630.693 159 630.498 158.881C630.326 158.777 630.187 158.61 630.099 158.404C630 158.171 630 157.866 630 157.255V154.745Z" fill="#424754"/>
<path d="M2.7 65H11.844C19.944 65 25.128 60.176 25.128 52.076C25.128 43.976 19.944 39.26 11.844 39.26H2.7V65ZM9 59.6V44.66H11.592C15.84 44.66 18.612 47.18 18.612 52.076C18.612 57.008 15.948 59.6 11.592 59.6H9ZM27.4112 55.712C27.4112 60.644 30.9752 65.432 37.5992 65.432C40.4432 65.432 43.5032 64.46 45.5192 62.732L43.2152 58.376C41.7032 59.384 39.9392 60.248 38.1032 60.248C36.1232 60.248 34.2512 59.204 33.7832 56.936H45.4832C45.5552 56.288 45.6272 55.64 45.6272 54.992C45.6272 49.844 42.5312 46.028 37.0592 46.028C31.0832 46.028 27.4112 50.276 27.4112 55.712ZM33.9272 53.372C34.2512 51.896 35.1152 50.6 36.9152 50.6C38.4992 50.6 39.4712 51.86 39.4712 53.372H33.9272ZM50.105 65H56.333V51.32H62.777V65H69.005V46.46H56.333V46.208C56.333 44.624 58.241 44.408 59.465 44.408C59.933 44.408 60.329 44.444 60.473 44.48V39.224C59.825 39.116 59.249 39.116 58.601 39.116C55.613 39.116 50.105 39.944 50.105 46.028V46.46H47.837V51.32H50.105V65ZM62.849 44.12H68.933V39.26H62.849V44.12ZM73.1739 65H79.4019V56.612C79.4019 53.984 80.6619 51.68 83.4339 51.68C84.8019 51.68 85.4859 52.4 85.4859 54.128V65H91.7139V52.976C91.7139 47.756 88.7979 46.028 85.0539 46.028C81.7779 46.028 80.0139 47.792 79.1499 49.232H79.0779C79.0779 49.232 79.1499 48.692 79.1499 48.08V46.46H73.1739V65ZM94.6651 55.712C94.6651 60.644 98.2291 65.432 104.853 65.432C107.697 65.432 110.757 64.46 112.773 62.732L110.469 58.376C108.957 59.384 107.193 60.248 105.357 60.248C103.377 60.248 101.505 59.204 101.037 56.936H112.737C112.809 56.288 112.881 55.64 112.881 54.992C112.881 49.844 109.785 46.028 104.313 46.028C98.3371 46.028 94.6651 50.276 94.6651 55.712ZM101.181 53.372C101.505 51.896 102.369 50.6 104.169 50.6C105.753 50.6 106.725 51.86 106.725 53.372H101.181ZM124.014 66.692L122.034 71.264C122.034 71.264 123.906 72.56 126.354 72.56C129.306 72.56 132.546 71.12 134.094 66.98L141.69 46.46H134.886L132.546 55.1C132.294 56.108 131.934 57.872 131.934 57.872H131.862C131.862 57.872 131.502 56 131.178 54.992L128.442 46.46H121.386L129.27 64.64L128.91 65.504C128.262 67.088 126.93 67.376 125.922 67.376C125.022 67.376 124.014 66.692 124.014 66.692ZM142.337 55.784C142.337 61.58 147.017 65.432 152.849 65.432C158.681 65.432 163.361 61.58 163.361 55.784C163.361 49.952 158.681 46.028 152.813 46.028C147.017 46.028 142.337 49.952 142.337 55.784ZM148.637 55.784C148.637 52.976 150.581 51.212 152.849 51.212C155.117 51.212 157.061 52.976 157.061 55.784C157.061 58.556 155.117 60.248 152.849 60.248C150.581 60.248 148.637 58.556 148.637 55.784ZM166.299 58.484C166.299 63.704 169.215 65.432 172.887 65.432C175.371 65.432 177.675 64.208 178.683 62.228H178.755C178.755 62.228 178.683 62.768 178.683 63.38V65H184.659V46.46H178.431V54.668C178.431 57.44 177.171 59.78 174.507 59.78C173.211 59.78 172.527 59.06 172.527 57.332V46.46H166.299V58.484ZM188.838 65H195.066V57.8C195.066 54.416 196.722 52.22 200.178 52.22C200.61 52.22 201.222 52.256 201.438 52.328V46.208C201.222 46.172 200.97 46.136 200.718 46.136C197.946 46.136 195.606 48.224 194.814 50.744H194.742C194.742 50.744 194.814 50.204 194.814 49.592V46.46H188.838V65ZM212.427 58.16C212.427 64.388 215.955 65.18 219.267 65.18C220.059 65.18 220.707 65.108 221.139 65.072V59.672C220.851 59.708 220.563 59.708 220.383 59.708C218.979 59.708 218.655 59.096 218.655 57.332V39.26H212.427V58.16ZM223.056 55.712C223.056 60.644 226.62 65.432 233.244 65.432C236.088 65.432 239.148 64.46 241.164 62.732L238.86 58.376C237.348 59.384 235.584 60.248 233.748 60.248C231.768 60.248 229.896 59.204 229.428 56.936H241.128C241.2 56.288 241.272 55.64 241.272 54.992C241.272 49.844 238.176 46.028 232.704 46.028C226.728 46.028 223.056 50.276 223.056 55.712ZM229.572 53.372C229.896 51.896 230.76 50.6 232.56 50.6C234.144 50.6 235.116 51.86 235.116 53.372H229.572ZM248.637 65H256.233L262.533 46.46H255.945L253.101 56.324C252.741 57.548 252.417 59.528 252.417 59.528H252.345C252.345 59.528 252.021 57.512 251.661 56.324L248.781 46.46H242.229L248.637 65ZM263.38 55.712C263.38 60.644 266.944 65.432 273.568 65.432C276.412 65.432 279.472 64.46 281.488 62.732L279.184 58.376C277.672 59.384 275.908 60.248 274.072 60.248C272.092 60.248 270.22 59.204 269.752 56.936H281.452C281.524 56.288 281.596 55.64 281.596 54.992C281.596 49.844 278.5 46.028 273.028 46.028C267.052 46.028 263.38 50.276 263.38 55.712ZM269.896 53.372C270.22 51.896 271.084 50.6 272.884 50.6C274.468 50.6 275.44 51.86 275.44 53.372H269.896ZM284.814 58.16C284.814 64.388 288.342 65.18 291.654 65.18C292.446 65.18 293.094 65.108 293.526 65.072V59.672C293.238 59.708 292.95 59.708 292.77 59.708C291.366 59.708 291.042 59.096 291.042 57.332V39.26H284.814V58.16ZM304.442 55.784C304.442 61.58 309.122 65.432 314.954 65.432C320.786 65.432 325.466 61.58 325.466 55.784C325.466 49.952 320.786 46.028 314.918 46.028C309.122 46.028 304.442 49.952 304.442 55.784ZM310.742 55.784C310.742 52.976 312.686 51.212 314.954 51.212C317.222 51.212 319.166 52.976 319.166 55.784C319.166 58.556 317.222 60.248 314.954 60.248C312.686 60.248 310.742 58.556 310.742 55.784ZM329.67 65H335.898V51.644H339.318V46.784H335.898V46.208C335.898 44.624 337.806 44.408 339.03 44.408C339.498 44.408 339.894 44.444 340.038 44.48V39.224C339.39 39.116 338.814 39.116 338.166 39.116C335.178 39.116 329.67 39.944 329.67 46.028V46.784H327.402V51.644H329.67V65ZM2.088 107H8.316V99.8H10.26L14.184 107H21.276L15.084 96.956V96.884L20.52 88.46H13.752L10.08 94.58H8.316V81.26H2.088V107ZM23.3575 107H29.5855V98.612C29.5855 95.984 30.8455 93.68 33.6175 93.68C34.9855 93.68 35.6695 94.4 35.6695 96.128V107H41.8975V94.976C41.8975 89.756 38.9815 88.028 35.2375 88.028C31.9615 88.028 30.1975 89.792 29.3335 91.232H29.2615C29.2615 91.232 29.3335 90.692 29.3335 90.08V88.46H23.3575V107ZM44.8487 97.784C44.8487 103.58 49.5287 107.432 55.3607 107.432C61.1927 107.432 65.8727 103.58 65.8727 97.784C65.8727 91.952 61.1927 88.028 55.3247 88.028C49.5287 88.028 44.8487 91.952 44.8487 97.784ZM51.1487 97.784C51.1487 94.976 53.0927 93.212 55.3607 93.212C57.6287 93.212 59.5727 94.976 59.5727 97.784C59.5727 100.556 57.6287 102.248 55.3607 102.248C53.0927 102.248 51.1487 100.556 51.1487 97.784ZM72.1659 107H79.1859L81.2739 98.432C81.5259 97.424 81.6339 96.452 81.6339 96.452H81.7059C81.7059 96.452 81.8139 97.424 82.0659 98.432L84.1539 107H91.1019L96.2859 88.46H89.8059L87.5019 99.404C87.2859 100.412 87.2499 101.348 87.2499 101.348H87.1779C87.1779 101.348 87.1419 100.412 86.8899 99.404L84.3339 88.46H79.0059L76.4499 99.404C76.1979 100.412 76.1259 101.348 76.1259 101.348H76.0539C76.0539 101.348 76.0539 100.412 75.8379 99.404L73.5339 88.46H66.9819L72.1659 107ZM98.7317 100.16C98.7317 106.388 102.26 107.18 105.572 107.18C106.364 107.18 107.012 107.108 107.444 107.072V101.672C107.156 101.708 106.868 101.708 106.688 101.708C105.284 101.708 104.96 101.096 104.96 99.332V81.26H98.7317V100.16ZM109.36 97.712C109.36 102.644 112.924 107.432 119.548 107.432C122.392 107.432 125.452 106.46 127.468 104.732L125.164 100.376C123.652 101.384 121.888 102.248 120.052 102.248C118.072 102.248 116.2 101.204 115.732 98.936H127.432C127.504 98.288 127.576 97.64 127.576 96.992C127.576 91.844 124.48 88.028 119.008 88.028C113.032 88.028 109.36 92.276 109.36 97.712ZM115.876 95.372C116.2 93.896 117.064 92.6 118.864 92.6C120.448 92.6 121.42 93.86 121.42 95.372H115.876ZM129.858 97.712C129.858 103.472 133.17 107.432 138.21 107.432C140.406 107.432 142.422 106.496 143.574 104.732H143.646C143.646 104.732 143.61 105.2 143.61 105.776V107H149.442V81.26H143.214V88.676C143.214 89.144 143.25 89.504 143.25 89.504H143.178C141.954 88.28 139.974 88.028 138.318 88.028C133.386 88.028 129.858 91.844 129.858 97.712ZM136.122 97.712C136.122 94.868 137.814 93.284 139.758 93.284C142.206 93.284 143.394 95.48 143.394 97.712C143.394 100.916 141.63 102.284 139.758 102.284C137.598 102.284 136.122 100.484 136.122 97.712ZM156.203 108.188L154.439 112.904C156.239 113.84 158.975 114.56 161.459 114.56C166.535 114.56 171.935 112.076 171.935 105.308V88.46H166.103V89.396C166.103 89.612 166.139 89.828 166.139 89.828H166.031C164.735 88.532 162.755 88.028 160.991 88.028C155.375 88.028 152.675 92.42 152.675 97.136C152.675 101.888 155.447 106.46 161.027 106.46C163.187 106.46 164.591 105.812 165.671 104.516H165.743C165.743 104.516 165.707 104.984 165.707 105.2V105.812C165.707 108.548 163.655 109.376 161.423 109.376C159.551 109.376 157.751 108.944 156.203 108.188ZM158.939 96.92C158.939 94.796 160.055 93.212 162.251 93.212C164.123 93.212 165.851 93.932 165.851 97.208C165.851 100.448 164.123 101.276 162.503 101.276C160.019 101.276 158.939 99.224 158.939 96.92ZM175.067 97.712C175.067 102.644 178.631 107.432 185.255 107.432C188.099 107.432 191.159 106.46 193.175 104.732L190.871 100.376C189.359 101.384 187.595 102.248 185.759 102.248C183.779 102.248 181.907 101.204 181.439 98.936H193.139C193.211 98.288 193.283 97.64 193.283 96.992C193.283 91.844 190.187 88.028 184.715 88.028C178.739 88.028 175.067 92.276 175.067 97.712ZM181.583 95.372C181.907 93.896 182.771 92.6 184.571 92.6C186.155 92.6 187.127 93.86 187.127 95.372H181.583ZM194.845 110.996H199.417L203.485 101.024H197.545L194.845 110.996ZM215.216 97.712C215.216 102.824 218.924 107.432 225.548 107.432C228.644 107.432 231.668 106.244 233.504 104.372L231.236 100.016C229.904 101.168 227.96 102.248 226.16 102.248C223.028 102.248 221.516 99.836 221.516 97.64C221.516 95.444 222.992 93.212 225.944 93.212C227.564 93.212 229.22 93.968 230.3 95.012L232.928 90.836C231.092 88.856 228.14 88.028 225.548 88.028C218.888 88.028 215.216 92.744 215.216 97.712ZM236.123 107H242.351V98.648C242.351 95.804 243.683 93.68 246.383 93.68C247.751 93.68 248.435 94.4 248.435 96.128V107H254.663V94.976C254.663 89.756 251.747 88.028 248.003 88.028C245.555 88.028 243.395 89.144 242.351 90.98H242.279C242.279 90.98 242.351 90.332 242.351 89.396V81.26H236.123V107ZM257.614 97.784C257.614 103.58 262.294 107.432 268.126 107.432C273.958 107.432 278.638 103.58 278.638 97.784C278.638 91.952 273.958 88.028 268.09 88.028C262.294 88.028 257.614 91.952 257.614 97.784ZM263.914 97.784C263.914 94.976 265.858 93.212 268.126 93.212C270.394 93.212 272.338 94.976 272.338 97.784C272.338 100.556 270.394 102.248 268.126 102.248C265.858 102.248 263.914 100.556 263.914 97.784ZM280.712 97.784C280.712 103.58 285.392 107.432 291.224 107.432C297.056 107.432 301.736 103.58 301.736 97.784C301.736 91.952 297.056 88.028 291.188 88.028C285.392 88.028 280.712 91.952 280.712 97.784ZM287.012 97.784C287.012 94.976 288.956 93.212 291.224 93.212C293.492 93.212 295.436 94.976 295.436 97.784C295.436 100.556 293.492 102.248 291.224 102.248C288.956 102.248 287.012 100.556 287.012 97.784ZM303.309 104.696C305.361 106.532 308.205 107.432 310.869 107.432C315.621 107.432 318.501 104.804 318.501 101.348C318.501 95.336 309.825 95.804 309.825 93.86C309.825 93.356 310.221 92.96 311.553 92.96C313.137 92.96 315.153 93.608 316.233 94.472L318.357 90.152C316.485 88.64 314.109 88.028 311.733 88.028C307.449 88.028 304.029 90.08 304.029 93.896C304.029 99.98 312.705 99.548 312.705 101.528C312.705 102.104 312.273 102.5 311.013 102.5C309.249 102.5 307.341 101.78 305.973 100.628L303.309 104.696ZM320.614 97.712C320.614 102.644 324.178 107.432 330.802 107.432C333.646 107.432 336.706 106.46 338.722 104.732L336.418 100.376C334.906 101.384 333.142 102.248 331.306 102.248C329.326 102.248 327.454 101.204 326.986 98.936H338.686C338.758 98.288 338.83 97.64 338.83 96.992C338.83 91.844 335.734 88.028 330.262 88.028C324.286 88.028 320.614 92.276 320.614 97.712ZM327.13 95.372C327.454 93.896 328.318 92.6 330.118 92.6C331.702 92.6 332.674 93.86 332.674 95.372H327.13ZM349.437 101.78C349.437 104.984 351.921 107.432 355.485 107.432C357.609 107.432 359.769 106.46 360.993 104.732H361.065C361.065 104.732 360.993 105.272 360.993 105.884V107H366.681V95.588C366.681 90.872 363.513 88.028 358.401 88.028C355.377 88.028 352.137 89.216 350.553 90.44L352.713 94.832C354.189 93.86 356.025 93.068 357.825 93.068C359.193 93.068 360.453 93.572 360.453 95.12V95.444H359.913C355.341 95.444 349.437 96.812 349.437 101.78ZM355.593 101.204C355.593 99.512 358.041 99.008 359.949 99.008H360.525V99.512C360.525 101.024 359.157 102.788 357.357 102.788C356.205 102.788 355.593 102.068 355.593 101.204ZM380.043 100.16C380.043 106.388 385.767 107.18 388.719 107.18C389.439 107.18 389.943 107.108 390.411 107.072V101.672C390.015 101.708 389.799 101.708 389.583 101.708C388.395 101.708 386.271 101.42 386.271 99.332V93.644H390.159V88.784H386.271V83.456H380.223V88.784H377.667V93.644H380.043V100.16ZM393.584 100.484C393.584 105.704 396.5 107.432 400.172 107.432C402.656 107.432 404.96 106.208 405.968 104.228H406.04C406.04 104.228 405.968 104.768 405.968 105.38V107H411.944V88.46H405.716V96.668C405.716 99.44 404.456 101.78 401.792 101.78C400.496 101.78 399.812 101.06 399.812 99.332V88.46H393.584V100.484ZM417.203 100.16C417.203 106.388 422.927 107.18 425.879 107.18C426.599 107.18 427.103 107.108 427.571 107.072V101.672C427.175 101.708 426.959 101.708 426.743 101.708C425.555 101.708 423.431 101.42 423.431 99.332V93.644H427.319V88.784H423.431V83.456H417.383V88.784H414.827V93.644H417.203V100.16ZM429.739 97.784C429.739 103.58 434.419 107.432 440.251 107.432C446.083 107.432 450.763 103.58 450.763 97.784C450.763 91.952 446.083 88.028 440.215 88.028C434.419 88.028 429.739 91.952 429.739 97.784ZM436.039 97.784C436.039 94.976 437.983 93.212 440.251 93.212C442.519 93.212 444.463 94.976 444.463 97.784C444.463 100.556 442.519 102.248 440.251 102.248C437.983 102.248 436.039 100.556 436.039 97.784ZM453.881 107H460.109V99.8C460.109 96.416 461.765 94.22 465.221 94.22C465.653 94.22 466.265 94.256 466.481 94.328V88.208C466.265 88.172 466.013 88.136 465.761 88.136C462.989 88.136 460.649 90.224 459.857 92.744H459.785C459.785 92.744 459.857 92.204 459.857 91.592V88.46H453.881V107ZM0.792 143.78C0.792 146.984 3.276 149.432 6.84 149.432C8.964 149.432 11.124 148.46 12.348 146.732H12.42C12.42 146.732 12.348 147.272 12.348 147.884V149H18.036V137.588C18.036 132.872 14.868 130.028 9.756 130.028C6.732 130.028 3.492 131.216 1.908 132.44L4.068 136.832C5.544 135.86 7.38 135.068 9.18 135.068C10.548 135.068 11.808 135.572 11.808 137.12V137.444H11.268C6.696 137.444 0.792 138.812 0.792 143.78ZM6.948 143.204C6.948 141.512 9.396 141.008 11.304 141.008H11.88V141.512C11.88 143.024 10.512 144.788 8.712 144.788C7.56 144.788 6.948 144.068 6.948 143.204ZM21.9864 149H28.2144V140.612C28.2144 137.984 29.4744 135.68 32.2464 135.68C33.6144 135.68 34.2984 136.4 34.2984 138.128V149H40.5264V136.976C40.5264 131.756 37.6104 130.028 33.8664 130.028C30.5904 130.028 28.8264 131.792 27.9624 133.232H27.8904C27.8904 133.232 27.9624 132.692 27.9624 132.08V130.46H21.9864V149ZM43.5496 139.712C43.5496 145.472 46.8616 149.432 51.9016 149.432C54.0976 149.432 56.1136 148.496 57.2656 146.732H57.3376C57.3376 146.732 57.3016 147.2 57.3016 147.776V149H63.1336V123.26H56.9056V130.676C56.9056 131.144 56.9416 131.504 56.9416 131.504H56.8696C55.6456 130.28 53.6656 130.028 52.0096 130.028C47.0776 130.028 43.5496 133.844 43.5496 139.712ZM49.8136 139.712C49.8136 136.868 51.5056 135.284 53.4496 135.284C55.8976 135.284 57.0856 137.48 57.0856 139.712C57.0856 142.916 55.3216 144.284 53.4496 144.284C51.2896 144.284 49.8136 142.484 49.8136 139.712ZM76.3028 149H82.5308V141.152C82.5308 138.596 83.2508 135.68 86.0948 135.68C87.2828 135.68 87.5348 136.652 87.5348 138.02V149H93.7628V141.152C93.7628 138.38 94.6268 135.68 97.3268 135.68C98.5148 135.68 98.7668 136.652 98.7668 138.02V149H104.995V136.976C104.995 131.864 102.367 130.028 98.9828 130.028C96.2108 130.028 94.0148 131.612 93.0428 133.16H92.9708C91.9988 131.072 90.1268 130.028 87.7868 130.028C84.8708 130.028 83.1428 131.936 82.2788 133.232H82.2068C82.2068 133.232 82.2788 132.692 82.2788 132.08V130.46H76.3028V149ZM107.737 143.78C107.737 146.984 110.221 149.432 113.785 149.432C115.909 149.432 118.069 148.46 119.293 146.732H119.365C119.365 146.732 119.293 147.272 119.293 147.884V149H124.981V137.588C124.981 132.872 121.813 130.028 116.701 130.028C113.677 130.028 110.437 131.216 108.853 132.44L111.013 136.832C112.489 135.86 114.325 135.068 116.125 135.068C117.493 135.068 118.753 135.572 118.753 137.12V137.444H118.213C113.641 137.444 107.737 138.812 107.737 143.78ZM113.893 143.204C113.893 141.512 116.341 141.008 118.249 141.008H118.825V141.512C118.825 143.024 117.457 144.788 115.657 144.788C114.505 144.788 113.893 144.068 113.893 143.204ZM128.932 149H135.16V141.8H137.104L141.028 149H148.12L141.928 138.956V138.884L147.364 130.46H140.596L136.924 136.58H135.16V123.26H128.932V149ZM148.454 139.712C148.454 144.644 152.018 149.432 158.642 149.432C161.486 149.432 164.546 148.46 166.562 146.732L164.258 142.376C162.746 143.384 160.982 144.248 159.146 144.248C157.166 144.248 155.294 143.204 154.826 140.936H166.526C166.598 140.288 166.67 139.64 166.67 138.992C166.67 133.844 163.574 130.028 158.102 130.028C152.126 130.028 148.454 134.276 148.454 139.712ZM154.97 137.372C155.294 135.896 156.158 134.6 157.958 134.6C159.542 134.6 160.514 135.86 160.514 137.372H154.97ZM177.276 143.78C177.276 146.984 179.76 149.432 183.324 149.432C185.448 149.432 187.608 148.46 188.832 146.732H188.904C188.904 146.732 188.832 147.272 188.832 147.884V149H194.52V137.588C194.52 132.872 191.352 130.028 186.24 130.028C183.216 130.028 179.976 131.216 178.392 132.44L180.552 136.832C182.028 135.86 183.864 135.068 185.664 135.068C187.032 135.068 188.292 135.572 188.292 137.12V137.444H187.752C183.18 137.444 177.276 138.812 177.276 143.78ZM183.432 143.204C183.432 141.512 185.88 141.008 187.788 141.008H188.364V141.512C188.364 143.024 186.996 144.788 185.196 144.788C184.044 144.788 183.432 144.068 183.432 143.204ZM206.067 146.696C208.119 148.532 210.963 149.432 213.627 149.432C218.379 149.432 221.259 146.804 221.259 143.348C221.259 137.336 212.583 137.804 212.583 135.86C212.583 135.356 212.979 134.96 214.311 134.96C215.895 134.96 217.911 135.608 218.991 136.472L221.115 132.152C219.243 130.64 216.867 130.028 214.491 130.028C210.207 130.028 206.787 132.08 206.787 135.896C206.787 141.98 215.463 141.548 215.463 143.528C215.463 144.104 215.031 144.5 213.771 144.5C212.007 144.5 210.099 143.78 208.731 142.628L206.067 146.696ZM223.372 139.712C223.372 144.824 227.08 149.432 233.704 149.432C236.8 149.432 239.824 148.244 241.66 146.372L239.392 142.016C238.06 143.168 236.116 144.248 234.316 144.248C231.184 144.248 229.672 141.836 229.672 139.64C229.672 137.444 231.148 135.212 234.1 135.212C235.72 135.212 237.376 135.968 238.456 137.012L241.084 132.836C239.248 130.856 236.296 130.028 233.704 130.028C227.044 130.028 223.372 134.744 223.372 139.712ZM244.279 149H250.507V140.648C250.507 137.804 251.839 135.68 254.539 135.68C255.907 135.68 256.591 136.4 256.591 138.128V149H262.819V136.976C262.819 131.756 259.903 130.028 256.159 130.028C253.711 130.028 251.551 131.144 250.507 132.98H250.435C250.435 132.98 250.507 132.332 250.507 131.396V123.26H244.279V149ZM265.771 139.712C265.771 144.644 269.335 149.432 275.959 149.432C278.803 149.432 281.863 148.46 283.879 146.732L281.575 142.376C280.063 143.384 278.299 144.248 276.463 144.248C274.483 144.248 272.611 143.204 272.143 140.936H283.843C283.915 140.288 283.987 139.64 283.987 138.992C283.987 133.844 280.891 130.028 275.419 130.028C269.443 130.028 265.771 134.276 265.771 139.712ZM272.287 137.372C272.611 135.896 273.475 134.6 275.275 134.6C276.859 134.6 277.831 135.86 277.831 137.372H272.287ZM286.268 139.712C286.268 145.472 289.58 149.432 294.62 149.432C296.816 149.432 298.832 148.496 299.984 146.732H300.056C300.056 146.732 300.02 147.2 300.02 147.776V149H305.852V123.26H299.624V130.676C299.624 131.144 299.66 131.504 299.66 131.504H299.588C298.364 130.28 296.384 130.028 294.728 130.028C289.796 130.028 286.268 133.844 286.268 139.712ZM292.532 139.712C292.532 136.868 294.224 135.284 296.168 135.284C298.616 135.284 299.804 137.48 299.804 139.712C299.804 142.916 298.04 144.284 296.168 144.284C294.008 144.284 292.532 142.484 292.532 139.712ZM309.842 142.484C309.842 147.704 312.758 149.432 316.43 149.432C318.914 149.432 321.218 148.208 322.226 146.228H322.298C322.298 146.228 322.226 146.768 322.226 147.38V149H328.202V130.46H321.974V138.668C321.974 141.44 320.714 143.78 318.05 143.78C316.754 143.78 316.07 143.06 316.07 141.332V130.46H309.842V142.484ZM332.345 142.16C332.345 148.388 335.873 149.18 339.185 149.18C339.977 149.18 340.625 149.108 341.057 149.072V143.672C340.769 143.708 340.481 143.708 340.301 143.708C338.897 143.708 338.573 143.096 338.573 141.332V123.26H332.345V142.16ZM342.974 139.712C342.974 144.644 346.538 149.432 353.162 149.432C356.006 149.432 359.066 148.46 361.082 146.732L358.778 142.376C357.266 143.384 355.502 144.248 353.666 144.248C351.686 144.248 349.814 143.204 349.346 140.936H361.046C361.118 140.288 361.19 139.64 361.19 138.992C361.19 133.844 358.094 130.028 352.622 130.028C346.646 130.028 342.974 134.276 342.974 139.712ZM349.49 137.372C349.814 135.896 350.678 134.6 352.478 134.6C354.062 134.6 355.034 135.86 355.034 137.372H349.49Z" fill="#222224"/>
<path d="M0.27 208H2.088L3.366 204.346H8.154L9.432 208H11.268L6.714 195.292H4.824L0.27 208ZM3.834 202.87L5.256 198.856C5.472 198.19 5.742 197.038 5.742 197.038H5.778C5.778 197.038 6.066 198.19 6.282 198.856L7.686 202.87H3.834ZM12.8813 208H14.6273V203.626C14.6273 201.754 15.8873 200.278 17.6693 200.278C19.1273 200.278 19.3793 201.286 19.3793 202.564V208H21.1253V202.168C21.1253 199.846 20.1533 198.676 18.0113 198.676C16.0133 198.676 14.8973 200.026 14.5553 200.818H14.5193C14.5193 200.818 14.5733 200.512 14.5733 200.134V198.892H12.8813V208ZM23.1363 209.89L22.5243 211.222C22.5243 211.222 23.2623 211.78 24.2703 211.78C25.5483 211.78 26.6823 211.06 27.2223 209.638L31.5063 198.892H29.6163L27.4023 204.868C27.2403 205.336 27.0963 205.948 27.0963 205.948H27.0603C27.0603 205.948 26.8983 205.3 26.7183 204.85L24.4323 198.892H22.4703L26.2863 207.892L25.8363 208.936C25.4943 209.764 24.9003 210.286 24.1803 210.286C23.6403 210.286 23.1363 209.89 23.1363 209.89ZM35.2351 208H37.1791L39.0511 202.15C39.1951 201.682 39.3031 201.16 39.3031 201.16H39.3391C39.3391 201.16 39.4471 201.682 39.6091 202.15L41.4811 208H43.4251L46.3411 198.892H44.5231L42.6151 205.282C42.4711 205.75 42.3811 206.254 42.3811 206.254H42.3451C42.3451 206.254 42.2371 205.75 42.1111 205.282L40.1491 198.91H38.5291L36.5671 205.282C36.4231 205.75 36.3151 206.254 36.3151 206.254H36.2791C36.2791 206.254 36.1891 205.75 36.0451 205.282L34.1551 198.892H32.3011L35.2351 208ZM48.1254 208H49.8714V203.68C49.8714 201.718 51.1494 200.278 52.9134 200.278C54.3714 200.278 54.6234 201.286 54.6234 202.564V208H56.3694V202.168C56.3694 199.846 55.3974 198.676 53.2554 198.676C51.4374 198.676 50.2494 199.9 49.8354 200.764H49.7994C49.7994 200.764 49.8714 200.44 49.8714 200.008V195.292H48.1254V208ZM58.3771 203.446C58.3771 206.146 60.3571 208.216 63.2191 208.216C64.4791 208.216 65.8651 207.73 66.7471 206.92L66.0091 205.642C65.2891 206.29 64.2991 206.704 63.3271 206.704C61.6891 206.704 60.2851 205.642 60.1951 203.68H66.8191C66.8551 203.428 66.8911 203.176 66.8911 202.942C66.8911 200.602 65.5231 198.676 62.9491 198.676C60.3571 198.676 58.3771 200.548 58.3771 203.446ZM60.2491 202.42C60.5011 200.908 61.5631 200.026 62.9131 200.026C64.1011 200.026 65.0731 200.854 65.1271 202.42H60.2491ZM68.9906 208H70.7366V204.22C70.7366 202.456 71.5646 200.512 73.5266 200.512C73.7066 200.512 73.9586 200.53 74.0306 200.548V198.82C73.8866 198.802 73.7246 198.784 73.5626 198.784C72.1586 198.784 71.0966 199.882 70.6646 201.196H70.6286C70.6286 201.196 70.6826 200.908 70.6826 200.53V198.892H68.9906V208ZM74.9357 203.446C74.9357 206.146 76.9157 208.216 79.7777 208.216C81.0377 208.216 82.4237 207.73 83.3057 206.92L82.5677 205.642C81.8477 206.29 80.8577 206.704 79.8857 206.704C78.2477 206.704 76.8437 205.642 76.7537 203.68H83.3777C83.4137 203.428 83.4497 203.176 83.4497 202.942C83.4497 200.602 82.0817 198.676 79.5077 198.676C76.9157 198.676 74.9357 200.548 74.9357 203.446ZM76.8077 202.42C77.0597 200.908 78.1217 200.026 79.4717 200.026C80.6597 200.026 81.6317 200.854 81.6857 202.42H76.8077ZM84.8292 209.818H86.2152L87.7812 206.11H85.9452L84.8292 209.818ZM94.9175 197.056H96.7175V195.292H94.9175V197.056ZM94.9535 208.198C94.9535 209.98 93.6755 210.214 92.9915 210.214C92.8295 210.214 92.6855 210.196 92.5955 210.178V211.672C92.8115 211.69 93.0095 211.708 93.2075 211.708C94.3415 211.708 96.6995 211.348 96.6995 208.306V198.892H94.9535V208.198ZM99.2752 204.724C99.2752 207.136 100.337 208.216 102.389 208.216C104.171 208.216 105.377 206.974 105.773 206.074H105.809C105.809 206.074 105.737 206.38 105.737 206.74V208H107.429V198.892H105.701V203.158C105.701 204.958 104.603 206.596 102.731 206.596C101.291 206.596 101.021 205.588 101.021 204.328V198.892H99.2752V204.724ZM109.349 206.884C110.249 207.802 111.599 208.216 112.823 208.216C114.767 208.216 116.099 207.082 116.099 205.534C116.099 202.528 111.401 203.05 111.401 201.268C111.401 200.494 112.067 200.134 112.949 200.134C113.759 200.134 114.713 200.44 115.253 200.944L115.955 199.684C115.163 198.964 114.047 198.676 113.003 198.676C111.221 198.676 109.727 199.576 109.727 201.304C109.727 204.292 114.407 203.824 114.407 205.57C114.407 206.326 113.777 206.758 112.859 206.758C111.905 206.758 110.861 206.362 110.177 205.696L109.349 206.884ZM118.552 204.67C118.552 207.712 120.874 208.09 122.044 208.09C122.314 208.09 122.512 208.054 122.656 208.036V206.488C122.476 206.524 122.368 206.524 122.242 206.524C121.576 206.524 120.298 206.29 120.298 204.472V200.404H122.494V198.982H120.298V196.39H118.588V198.982H117.364V200.404H118.552V204.67ZM128.007 209.89L127.395 211.222C127.395 211.222 128.133 211.78 129.141 211.78C130.419 211.78 131.553 211.06 132.093 209.638L136.377 198.892H134.487L132.273 204.868C132.111 205.336 131.967 205.948 131.967 205.948H131.931C131.931 205.948 131.769 205.3 131.589 204.85L129.303 198.892H127.341L131.157 207.892L130.707 208.936C130.365 209.764 129.771 210.286 129.051 210.286C128.511 210.286 128.007 209.89 128.007 209.89ZM137.18 203.428C137.18 206.2 139.376 208.216 142.094 208.216C144.794 208.216 146.99 206.2 146.99 203.428C146.99 200.674 144.794 198.676 142.076 198.676C139.376 198.676 137.18 200.674 137.18 203.428ZM138.962 203.428C138.962 201.538 140.366 200.188 142.094 200.188C143.804 200.188 145.226 201.538 145.226 203.428C145.226 205.336 143.804 206.704 142.094 206.704C140.366 206.704 138.962 205.336 138.962 203.428ZM148.986 204.724C148.986 207.136 150.048 208.216 152.1 208.216C153.882 208.216 155.088 206.974 155.484 206.074H155.52C155.52 206.074 155.448 206.38 155.448 206.74V208H157.14V198.892H155.412V203.158C155.412 204.958 154.314 206.596 152.442 206.596C151.002 206.596 150.732 205.588 150.732 204.328V198.892H148.986V204.724ZM159.834 208H161.58V204.22C161.58 202.456 162.408 200.512 164.37 200.512C164.55 200.512 164.802 200.53 164.874 200.548V198.82C164.73 198.802 164.568 198.784 164.406 198.784C163.002 198.784 161.94 199.882 161.508 201.196H161.472C161.472 201.196 161.526 200.908 161.526 200.53V198.892H159.834V208ZM170.14 203.446C170.14 206.272 171.706 208.216 174.154 208.216C175.594 208.216 176.656 207.46 177.178 206.47H177.214C177.214 206.47 177.16 206.722 177.16 207.082V208H178.816V195.292H177.088V199.558C177.088 199.9 177.124 200.17 177.124 200.17H177.088C176.512 199.198 175.414 198.676 174.262 198.676C171.85 198.676 170.14 200.548 170.14 203.446ZM171.922 203.446C171.922 201.376 173.11 200.206 174.532 200.206C176.278 200.206 177.124 201.79 177.124 203.428C177.124 205.732 175.846 206.704 174.496 206.704C172.984 206.704 171.922 205.426 171.922 203.446ZM180.914 203.446C180.914 206.146 182.894 208.216 185.756 208.216C187.016 208.216 188.402 207.73 189.284 206.92L188.546 205.642C187.826 206.29 186.836 206.704 185.864 206.704C184.226 206.704 182.822 205.642 182.732 203.68H189.356C189.392 203.428 189.428 203.176 189.428 202.942C189.428 200.602 188.06 198.676 185.486 198.676C182.894 198.676 180.914 200.548 180.914 203.446ZM182.786 202.42C183.038 200.908 184.1 200.026 185.45 200.026C186.638 200.026 187.61 200.854 187.664 202.42H182.786ZM193.746 208H195.744L199.11 198.892H197.274L195.06 205.048C194.898 205.552 194.754 206.29 194.754 206.29H194.718C194.718 206.29 194.556 205.552 194.394 205.048L192.18 198.892H190.326L193.746 208ZM200.808 197.056H202.608V195.292H200.808V197.056ZM200.844 208H202.59V198.892H200.844V208ZM204.68 203.446C204.68 206.182 206.678 208.216 209.558 208.216C210.98 208.216 212.366 207.64 213.194 206.758L212.492 205.48C211.79 206.218 210.692 206.704 209.684 206.704C207.794 206.704 206.462 205.282 206.462 203.428C206.462 201.574 207.794 200.188 209.63 200.188C210.584 200.188 211.538 200.62 212.15 201.232L212.978 200.008C212.114 199.09 210.764 198.676 209.558 198.676C206.696 198.676 204.68 200.746 204.68 203.446ZM214.295 203.446C214.295 206.146 216.275 208.216 219.137 208.216C220.397 208.216 221.783 207.73 222.665 206.92L221.927 205.642C221.207 206.29 220.217 206.704 219.245 206.704C217.607 206.704 216.203 205.642 216.113 203.68H222.737C222.773 203.428 222.809 203.176 222.809 202.942C222.809 200.602 221.441 198.676 218.867 198.676C216.275 198.676 214.295 200.548 214.295 203.446ZM216.167 202.42C216.419 200.908 217.481 200.026 218.831 200.026C220.019 200.026 220.991 200.854 221.045 202.42H216.167ZM224.189 209.818H225.575L227.141 206.11H225.305L224.189 209.818ZM1.674 236H3.456V223.292H1.674V236ZM6.39492 236H8.14092V231.626C8.14092 229.754 9.40092 228.278 11.1829 228.278C12.6409 228.278 12.8929 229.286 12.8929 230.564V236H14.6389V230.168C14.6389 227.846 13.6669 226.676 11.5249 226.676C9.52692 226.676 8.41092 228.026 8.06892 228.818H8.03292C8.03292 228.818 8.08692 228.512 8.08692 228.134V226.892H6.39492V236ZM17.6186 232.67C17.6186 235.712 19.9406 236.09 21.1106 236.09C21.3806 236.09 21.5786 236.054 21.7226 236.036V234.488C21.5426 234.524 21.4346 234.524 21.3086 234.524C20.6426 234.524 19.3646 234.29 19.3646 232.472V228.404H21.5606V226.982H19.3646V224.39H17.6546V226.982H16.4306V228.404H17.6186V232.67ZM22.8341 231.446C22.8341 234.146 24.8141 236.216 27.6761 236.216C28.9361 236.216 30.3221 235.73 31.2041 234.92L30.4661 233.642C29.7461 234.29 28.7561 234.704 27.7841 234.704C26.1461 234.704 24.7421 233.642 24.6521 231.68H31.2761C31.3121 231.428 31.3481 231.176 31.3481 230.942C31.3481 228.602 29.9801 226.676 27.4061 226.676C24.8141 226.676 22.8341 228.548 22.8341 231.446ZM24.7061 230.42C24.9581 228.908 26.0201 228.026 27.3701 228.026C28.5581 228.026 29.5301 228.854 29.5841 230.42H24.7061ZM33.4477 236H35.1937V232.22C35.1937 230.456 36.0217 228.512 37.9837 228.512C38.1637 228.512 38.4157 228.53 38.4877 228.548V226.82C38.3437 226.802 38.1817 226.784 38.0197 226.784C36.6157 226.784 35.5537 227.882 35.1217 229.196H35.0857C35.0857 229.196 35.1397 228.908 35.1397 228.53V226.892H33.4477V236ZM40.2152 236H41.9612V231.626C41.9612 229.754 43.2212 228.278 45.0032 228.278C46.4612 228.278 46.7132 229.286 46.7132 230.564V236H48.4592V230.168C48.4592 227.846 47.4872 226.676 45.3452 226.676C43.3472 226.676 42.2312 228.026 41.8892 228.818H41.8532C41.8532 228.818 41.9072 228.512 41.9072 228.134V226.892H40.2152V236ZM50.4669 231.446C50.4669 234.146 52.4469 236.216 55.3089 236.216C56.5689 236.216 57.9549 235.73 58.8369 234.92L58.0989 233.642C57.3789 234.29 56.3889 234.704 55.4169 234.704C53.7789 234.704 52.3749 233.642 52.2849 231.68H58.9089C58.9449 231.428 58.9809 231.176 58.9809 230.942C58.9809 228.602 57.6129 226.676 55.0389 226.676C52.4469 226.676 50.4669 228.548 50.4669 231.446ZM52.3389 230.42C52.5909 228.908 53.6529 228.026 55.0029 228.026C56.1909 228.026 57.1629 228.854 57.2169 230.42H52.3389ZM61.4585 232.67C61.4585 235.712 63.7805 236.09 64.9505 236.09C65.2205 236.09 65.4185 236.054 65.5625 236.036V234.488C65.3825 234.524 65.2745 234.524 65.1485 234.524C64.4825 234.524 63.2045 234.29 63.2045 232.472V228.404H65.4005V226.982H63.2045V224.39H61.4945V226.982H60.2705V228.404H61.4585V232.67ZM71.0999 233.516C71.0999 235.226 72.5579 236.216 74.1419 236.216C75.4919 236.216 76.6079 235.406 77.1299 234.362H77.1659C77.1659 234.362 77.1119 234.668 77.1119 235.082V236H78.7499V230.24C78.7499 227.936 77.4359 226.676 75.1499 226.676C73.8719 226.676 72.4859 227.144 71.7479 227.756L72.4499 229.034C73.1879 228.512 74.1059 228.152 75.0059 228.152C76.1399 228.152 77.0039 228.656 77.0039 230.15V230.33H76.5359C74.6459 230.33 71.0999 230.654 71.0999 233.516ZM72.8459 233.372C72.8459 231.698 75.2579 231.59 76.5539 231.59H77.0039V231.932C77.0039 233.282 76.0859 234.83 74.5559 234.83C73.4219 234.83 72.8459 234.092 72.8459 233.372ZM81.348 236H83.094V231.626C83.094 229.754 84.354 228.278 86.136 228.278C87.594 228.278 87.846 229.286 87.846 230.564V236H89.592V230.168C89.592 227.846 88.62 226.676 86.478 226.676C84.48 226.676 83.364 228.026 83.022 228.818H82.986C82.986 228.818 83.04 228.512 83.04 228.134V226.892H81.348V236ZM91.6358 231.446C91.6358 234.272 93.2018 236.216 95.6498 236.216C97.0898 236.216 98.1518 235.46 98.6738 234.47H98.7098C98.7098 234.47 98.6558 234.722 98.6558 235.082V236H100.312V223.292H98.5838V227.558C98.5838 227.9 98.6198 228.17 98.6198 228.17H98.5838C98.0078 227.198 96.9098 226.676 95.7578 226.676C93.3458 226.676 91.6358 228.548 91.6358 231.446ZM93.4178 231.446C93.4178 229.376 94.6058 228.206 96.0278 228.206C97.7738 228.206 98.6198 229.79 98.6198 231.428C98.6198 233.732 97.3418 234.704 95.9918 234.704C94.4798 234.704 93.4178 233.426 93.4178 231.446ZM108.368 237.656L107.792 239.024C108.692 239.474 109.808 239.78 110.906 239.78C113.21 239.78 115.496 238.628 115.496 235.622V226.892H113.822V227.792C113.822 227.954 113.876 228.062 113.876 228.062H113.822C113.246 227.09 112.076 226.676 110.942 226.676C108.404 226.676 106.964 228.62 106.964 231.248C106.964 233.858 108.494 235.892 111.032 235.892C112.346 235.892 113.228 235.316 113.768 234.416H113.804C113.804 234.416 113.75 234.704 113.75 234.992V235.73C113.75 237.548 112.454 238.268 110.87 238.268C109.988 238.268 109.088 238.016 108.368 237.656ZM108.728 231.194C108.728 229.34 109.646 228.188 111.212 228.188C112.634 228.188 113.786 228.872 113.786 231.248C113.786 233.624 112.634 234.38 111.374 234.38C109.736 234.38 108.728 233.084 108.728 231.194ZM117.598 231.428C117.598 234.2 119.794 236.216 122.512 236.216C125.212 236.216 127.408 234.2 127.408 231.428C127.408 228.674 125.212 226.676 122.494 226.676C119.794 226.676 117.598 228.674 117.598 231.428ZM119.38 231.428C119.38 229.538 120.784 228.188 122.512 228.188C124.222 228.188 125.644 229.538 125.644 231.428C125.644 233.336 124.222 234.704 122.512 234.704C120.784 234.704 119.38 233.336 119.38 231.428ZM128.918 231.428C128.918 234.2 131.114 236.216 133.832 236.216C136.532 236.216 138.728 234.2 138.728 231.428C138.728 228.674 136.532 226.676 133.814 226.676C131.114 226.676 128.918 228.674 128.918 231.428ZM130.7 231.428C130.7 229.538 132.104 228.188 133.832 228.188C135.542 228.188 136.964 229.538 136.964 231.428C136.964 233.336 135.542 234.704 133.832 234.704C132.104 234.704 130.7 233.336 130.7 231.428ZM140.274 231.446C140.274 234.272 141.84 236.216 144.288 236.216C145.728 236.216 146.79 235.46 147.312 234.47H147.348C147.348 234.47 147.294 234.722 147.294 235.082V236H148.95V223.292H147.222V227.558C147.222 227.9 147.258 228.17 147.258 228.17H147.222C146.646 227.198 145.548 226.676 144.396 226.676C141.984 226.676 140.274 228.548 140.274 231.446ZM142.056 231.446C142.056 229.376 143.244 228.206 144.666 228.206C146.412 228.206 147.258 229.79 147.258 231.428C147.258 233.732 145.98 234.704 144.63 234.704C143.118 234.704 142.056 233.426 142.056 231.446ZM156.143 236H157.889V231.752C157.889 230.06 158.897 228.26 160.625 228.26C162.011 228.26 162.191 229.358 162.191 230.546V236H163.937V231.752C163.937 230.006 164.945 228.26 166.637 228.26C167.987 228.26 168.239 229.268 168.239 230.546V236H169.985V230.168C169.985 227.846 169.049 226.676 166.979 226.676C165.503 226.676 164.243 227.684 163.739 228.746H163.703C163.397 227.378 162.515 226.676 160.985 226.676C159.545 226.676 158.249 227.756 157.817 228.818H157.781C157.781 228.818 157.835 228.512 157.835 228.134V226.892H156.143V236ZM172.002 231.428C172.002 234.2 174.198 236.216 176.916 236.216C179.616 236.216 181.812 234.2 181.812 231.428C181.812 228.674 179.616 226.676 176.898 226.676C174.198 226.676 172.002 228.674 172.002 231.428ZM173.784 231.428C173.784 229.538 175.188 228.188 176.916 228.188C178.626 228.188 180.048 229.538 180.048 231.428C180.048 233.336 178.626 234.704 176.916 234.704C175.188 234.704 173.784 233.336 173.784 231.428ZM183.322 231.428C183.322 234.2 185.518 236.216 188.236 236.216C190.936 236.216 193.132 234.2 193.132 231.428C193.132 228.674 190.936 226.676 188.218 226.676C185.518 226.676 183.322 228.674 183.322 231.428ZM185.104 231.428C185.104 229.538 186.508 228.188 188.236 228.188C189.946 228.188 191.368 229.538 191.368 231.428C191.368 233.336 189.946 234.704 188.236 234.704C186.508 234.704 185.104 233.336 185.104 231.428ZM194.679 231.446C194.679 234.272 196.245 236.216 198.693 236.216C200.133 236.216 201.195 235.46 201.717 234.47H201.753C201.753 234.47 201.699 234.722 201.699 235.082V236H203.355V223.292H201.627V227.558C201.627 227.9 201.663 228.17 201.663 228.17H201.627C201.051 227.198 199.953 226.676 198.801 226.676C196.389 226.676 194.679 228.548 194.679 231.446ZM196.461 231.446C196.461 229.376 197.649 228.206 199.071 228.206C200.817 228.206 201.663 229.79 201.663 231.428C201.663 233.732 200.385 234.704 199.035 234.704C197.523 234.704 196.461 233.426 196.461 231.446Z" fill="#505257"/>
</svg>
