<svg width="1015" height="298" viewBox="0 0 1015 298" fill="none" xmlns="http://www.w3.org/2000/svg">
<path d="M0 4.40122C0 2.86065 0 2.09037 0.299609 1.50195C0.563153 0.984356 0.983678 0.563541 1.50091 0.299816C2.08893 0 2.85869 0 4.3982 0H504.602C506.141 0 506.911 0 507.499 0.299816C508.016 0.563541 508.437 0.984356 508.7 1.50195C509 2.09037 509 2.86066 509 4.40123V293.599C509 295.139 509 295.91 508.7 296.498C508.437 297.016 508.016 297.436 507.499 297.7C506.911 298 506.141 298 504.602 298H4.39818C2.85868 298 2.08893 298 1.50091 297.7C0.983678 297.436 0.563153 297.016 0.299609 296.498C0 295.91 0 295.139 0 293.599V4.40122Z" fill="#F3F3F3"/>
<path d="M45.2805 124.928C44.1888 124.459 42.9192 124.963 42.4949 126.073C38.713 135.964 37.9753 146.779 40.4044 157.12C42.9977 168.16 49.0638 178.077 57.7113 185.414C66.3589 192.751 77.1317 197.12 88.4468 197.881C99.7619 198.641 111.022 195.752 120.574 189.638C130.125 183.524 137.463 174.507 141.51 163.913C145.557 153.32 146.1 141.707 143.057 130.782C140.015 119.857 133.549 110.196 124.609 103.219C116.235 96.6832 106.104 92.8251 95.5384 92.1182C94.3529 92.0389 93.3642 92.9811 93.333 94.1689C93.3019 95.3567 94.2402 96.3399 95.4255 96.4234C105.071 97.1035 114.313 100.642 121.961 106.611C130.176 113.022 136.117 121.898 138.912 131.936C141.707 141.974 141.209 152.644 137.491 162.378C133.772 172.112 127.03 180.396 118.254 186.014C109.478 191.632 99.1317 194.286 88.7353 193.588C78.3388 192.889 68.4405 188.874 60.4951 182.133C52.5496 175.392 46.976 166.28 44.5932 156.136C42.3747 146.691 43.0312 136.816 46.4518 127.773C46.8722 126.661 46.3722 125.397 45.2805 124.928Z" fill="#27AE60"/>
<path d="M76 141.782C76 140.458 76 139.796 76.0541 139.291C76.1016 138.846 76.1775 138.484 76.2708 138.258C76.3769 138 76.5158 138 76.7936 138H106.206C106.484 138 106.623 138 106.729 138.258C106.823 138.484 106.898 138.846 106.946 139.291C107 139.796 107 140.458 107 141.782V147.218C107 148.542 107 149.204 106.946 149.709C106.898 150.154 106.823 150.516 106.729 150.742C106.623 151 106.484 151 106.206 151H76.7936C76.5158 151 76.3769 151 76.2708 150.742C76.1775 150.516 76.1016 150.154 76.0541 149.709C76 149.204 76 148.542 76 147.218V141.782Z" fill="#424754"/>
<path d="M52 212.455C52 211.945 52 211.691 52.1378 211.496C52.259 211.325 52.4523 211.186 52.6902 211.099C52.9605 211 53.3145 211 54.0224 211H128.978C129.686 211 130.039 211 130.31 211.099C130.548 211.186 130.741 211.325 130.862 211.496C131 211.691 131 211.945 131 212.455V214.545C131 215.055 131 215.309 130.862 215.504C130.741 215.675 130.548 215.814 130.31 215.901C130.039 216 129.686 216 128.978 216H54.0224C53.3145 216 52.9605 216 52.6902 215.901C52.4523 215.814 52.259 215.675 52.1378 215.504C52 215.309 52 215.055 52 214.545V212.455Z" fill="#97999D"/>
<path d="M200.704 157.47C199.552 157.761 198.85 158.933 199.188 160.072C201.806 168.896 206.68 176.899 213.346 183.282C220.531 190.161 229.506 194.879 239.246 196.898C248.986 198.916 259.098 198.152 268.424 194.694C277.751 191.237 285.916 185.224 291.986 177.344C298.057 169.464 301.787 160.035 302.751 150.135C303.714 140.235 301.873 130.263 297.436 121.36C292.999 112.458 286.147 104.983 277.662 99.7916C269.79 94.9748 260.808 92.3036 251.608 92.0244C250.42 91.9883 249.467 92.966 249.479 94.1541C249.491 95.3422 250.465 96.2906 251.652 96.3309C260.044 96.6157 268.233 99.0666 275.416 103.462C283.212 108.232 289.508 115.1 293.585 123.28C297.661 131.46 299.354 140.621 298.468 149.718C297.583 158.814 294.155 167.478 288.578 174.718C283 181.958 275.498 187.483 266.929 190.66C258.359 193.837 249.069 194.539 240.119 192.684C231.17 190.83 222.923 186.494 216.322 180.174C210.239 174.35 205.78 167.057 203.363 159.016C203.021 157.878 201.856 157.178 200.704 157.47Z" fill="#F2994A"/>
<path d="M234 141.782C234 140.458 234 139.796 234.054 139.291C234.102 138.846 234.177 138.484 234.271 138.258C234.377 138 234.516 138 234.794 138H264.206C264.484 138 264.623 138 264.729 138.258C264.823 138.484 264.898 138.846 264.946 139.291C265 139.796 265 140.458 265 141.782V147.218C265 148.542 265 149.204 264.946 149.709C264.898 150.154 264.823 150.516 264.729 150.742C264.623 151 264.484 151 264.206 151H234.794C234.516 151 234.377 151 234.271 150.742C234.177 150.516 234.102 150.154 234.054 149.709C234 149.204 234 148.542 234 147.218V141.782Z" fill="#424754"/>
<path d="M210 212.455C210 211.945 210 211.691 210.138 211.496C210.259 211.325 210.452 211.186 210.69 211.099C210.961 211 211.314 211 212.022 211H286.978C287.686 211 288.039 211 288.31 211.099C288.548 211.186 288.741 211.325 288.862 211.496C289 211.691 289 211.945 289 212.455V214.545C289 215.055 289 215.309 288.862 215.504C288.741 215.675 288.548 215.814 288.31 215.901C288.039 216 287.686 216 286.978 216H212.022C211.314 216 210.961 216 210.69 215.901C210.452 215.814 210.259 215.675 210.138 215.504C210 215.309 210 215.055 210 214.545V212.455Z" fill="#97999D"/>
<path d="M372.045 109.045C371.204 108.204 369.839 108.202 369.033 109.075C361.235 117.533 356.387 128.317 355.255 139.805C354.053 152.008 357.12 164.25 363.932 174.445C370.744 184.641 380.881 192.158 392.615 195.718C404.349 199.277 416.954 198.658 428.282 193.966C439.611 189.273 448.962 180.798 454.742 169.984C460.522 159.17 462.374 146.686 459.982 134.66C457.589 122.634 451.101 111.809 441.623 104.03C432.7 96.7074 421.646 92.5103 410.151 92.0436C408.964 91.9954 408 92.9632 408 94.1514C408 95.3396 408.964 96.2979 410.151 96.3503C420.65 96.8143 430.74 100.665 438.893 107.357C447.602 114.504 453.564 124.45 455.761 135.5C457.959 146.55 456.258 158.02 450.947 167.956C445.636 177.892 437.044 185.679 426.636 189.99C416.227 194.302 404.645 194.871 393.864 191.6C383.083 188.33 373.769 181.422 367.51 172.055C361.251 162.687 358.433 151.439 359.537 140.227C360.571 129.73 364.983 119.872 372.079 112.12C372.881 111.244 372.885 109.885 372.045 109.045Z" fill="#219653"/>
<path d="M392 141.782C392 140.458 392 139.796 392.054 139.291C392.102 138.846 392.177 138.484 392.271 138.258C392.377 138 392.516 138 392.794 138H422.206C422.484 138 422.623 138 422.729 138.258C422.823 138.484 422.898 138.846 422.946 139.291C423 139.796 423 140.458 423 141.782V147.218C423 148.542 423 149.204 422.946 149.709C422.898 150.154 422.823 150.516 422.729 150.742C422.623 151 422.484 151 422.206 151H392.794C392.516 151 392.377 151 392.271 150.742C392.177 150.516 392.102 150.154 392.054 149.709C392 149.204 392 148.542 392 147.218V141.782Z" fill="#424754"/>
<path d="M368 212.455C368 211.945 368 211.691 368.138 211.496C368.259 211.325 368.452 211.186 368.69 211.099C368.961 211 369.314 211 370.022 211H444.978C445.686 211 446.039 211 446.31 211.099C446.548 211.186 446.741 211.325 446.862 211.496C447 211.691 447 211.945 447 212.455V214.545C447 215.055 447 215.309 446.862 215.504C446.741 215.675 446.548 215.814 446.31 215.901C446.039 216 445.686 216 444.978 216H370.022C369.314 216 368.961 216 368.69 215.901C368.452 215.814 368.259 215.675 368.138 215.504C368 215.309 368 215.055 368 214.545V212.455Z" fill="#97999D"/>
<path d="M39 24.4545C39 23.9454 39 23.6908 39.0994 23.4964C39.1868 23.3253 39.3264 23.1862 39.498 23.0991C39.693 23 39.9484 23 40.4592 23H94.5408C95.0516 23 95.307 23 95.502 23.0991C95.6736 23.1862 95.8132 23.3253 95.9006 23.4964C96 23.6908 96 23.9454 96 24.4545V26.5455C96 27.0546 96 27.3092 95.9006 27.5036C95.8132 27.6747 95.6736 27.8138 95.502 27.9009C95.307 28 95.0516 28 94.5408 28H40.4592C39.9484 28 39.693 28 39.498 27.9009C39.3264 27.8138 39.1868 27.6747 39.0994 27.5036C39 27.3092 39 27.0546 39 26.5455V24.4545Z" fill="#424754"/>
<path d="M447 24.4545C447 23.9454 447 23.6908 447.031 23.4964C447.059 23.3253 447.103 23.1862 447.157 23.0991C447.219 23 447.3 23 447.461 23H464.539C464.7 23 464.781 23 464.843 23.0991C464.897 23.1862 464.941 23.3253 464.969 23.4964C465 23.6908 465 23.9454 465 24.4545V26.5455C465 27.0546 465 27.3092 464.969 27.5036C464.941 27.6747 464.897 27.8138 464.843 27.9009C464.781 28 464.7 28 464.539 28H447.461C447.3 28 447.219 28 447.157 27.9009C447.103 27.8138 447.059 27.6747 447.031 27.5036C447 27.3092 447 27.0546 447 26.5455V24.4545Z" fill="#97999D"/>
<path d="M39 262.527C39 260.593 39 259.625 39.0994 258.886C39.1868 258.236 39.3264 257.708 39.498 257.377C39.693 257 39.9484 257 40.4592 257H94.5408C95.0516 257 95.307 257 95.502 257.377C95.6736 257.708 95.8132 258.236 95.9006 258.886C96 259.625 96 260.593 96 262.527V270.473C96 272.407 96 273.375 95.9006 274.114C95.8132 274.764 95.6736 275.292 95.502 275.623C95.307 276 95.0516 276 94.5408 276H40.4592C39.9484 276 39.693 276 39.498 275.623C39.3264 275.292 39.1868 274.764 39.0994 274.114C39 273.375 39 272.407 39 270.473V262.527Z" fill="#F04B5D"/>
<path d="M667.7 87H674V79.044H678.392C683.396 79.044 686.78 75.3 686.78 70.116C686.78 64.932 683.396 61.26 678.392 61.26H667.7V87ZM674 73.644V66.66H677.204C679.292 66.66 680.372 68.064 680.372 70.116C680.372 72.168 679.292 73.644 677.096 73.644H674ZM689.518 87H695.746V79.8C695.746 76.416 697.402 74.22 700.858 74.22C701.29 74.22 701.902 74.256 702.118 74.328V68.208C701.902 68.172 701.65 68.136 701.398 68.136C698.626 68.136 696.286 70.224 695.494 72.744H695.422C695.422 72.744 695.494 72.204 695.494 71.592V68.46H689.518V87ZM703.802 77.712C703.802 82.644 707.366 87.432 713.99 87.432C716.834 87.432 719.894 86.46 721.91 84.732L719.606 80.376C718.094 81.384 716.33 82.248 714.494 82.248C712.514 82.248 710.642 81.204 710.174 78.936H721.874C721.946 78.288 722.018 77.64 722.018 76.992C722.018 71.844 718.922 68.028 713.45 68.028C707.474 68.028 703.802 72.276 703.802 77.712ZM710.318 75.372C710.642 73.896 711.506 72.6 713.306 72.6C714.89 72.6 715.862 73.86 715.862 75.372H710.318ZM725.272 94.2H731.5V87.252C731.5 86.316 731.428 85.668 731.428 85.668H731.5C732.832 86.82 734.488 87.432 736.216 87.432C741.148 87.432 744.856 83.616 744.856 77.748C744.856 71.988 741.544 68.028 736.504 68.028C734.272 68.028 732.148 68.892 730.888 70.584H730.816C730.816 70.584 730.888 70.008 730.888 69.396V68.46H725.272V94.2ZM731.32 77.856C731.32 74.652 733.084 73.284 734.956 73.284C737.116 73.284 738.592 75.084 738.592 77.856C738.592 80.7 736.9 82.284 734.956 82.284C732.508 82.284 731.32 80.088 731.32 77.856ZM746.757 81.78C746.757 84.984 749.241 87.432 752.805 87.432C754.929 87.432 757.089 86.46 758.313 84.732H758.385C758.385 84.732 758.313 85.272 758.313 85.884V87H764.001V75.588C764.001 70.872 760.833 68.028 755.721 68.028C752.697 68.028 749.457 69.216 747.873 70.44L750.033 74.832C751.509 73.86 753.345 73.068 755.145 73.068C756.513 73.068 757.773 73.572 757.773 75.12V75.444H757.233C752.661 75.444 746.757 76.812 746.757 81.78ZM752.913 81.204C752.913 79.512 755.361 79.008 757.269 79.008H757.845V79.512C757.845 81.024 756.477 82.788 754.677 82.788C753.525 82.788 752.913 82.068 752.913 81.204ZM767.951 87H774.179V79.8C774.179 76.416 775.835 74.22 779.291 74.22C779.723 74.22 780.335 74.256 780.551 74.328V68.208C780.335 68.172 780.083 68.136 779.831 68.136C777.059 68.136 774.719 70.224 773.927 72.744H773.855C773.855 72.744 773.927 72.204 773.927 71.592V68.46H767.951V87ZM782.235 77.712C782.235 82.644 785.799 87.432 792.423 87.432C795.267 87.432 798.327 86.46 800.343 84.732L798.039 80.376C796.527 81.384 794.763 82.248 792.927 82.248C790.947 82.248 789.075 81.204 788.607 78.936H800.307C800.379 78.288 800.451 77.64 800.451 76.992C800.451 71.844 797.355 68.028 791.883 68.028C785.907 68.028 782.235 72.276 782.235 77.712ZM788.751 75.372C789.075 73.896 789.939 72.6 791.739 72.6C793.323 72.6 794.295 73.86 794.295 75.372H788.751ZM813.686 87H819.914V73.644H823.334V68.784H819.914V68.208C819.914 66.624 821.822 66.408 823.046 66.408C823.514 66.408 823.91 66.444 824.054 66.48V61.224C823.406 61.116 822.83 61.116 822.182 61.116C819.194 61.116 813.686 61.944 813.686 68.028V68.784H811.418V73.644H813.686V87ZM824.81 77.784C824.81 83.58 829.49 87.432 835.322 87.432C841.154 87.432 845.834 83.58 845.834 77.784C845.834 71.952 841.154 68.028 835.286 68.028C829.49 68.028 824.81 71.952 824.81 77.784ZM831.11 77.784C831.11 74.976 833.054 73.212 835.322 73.212C837.59 73.212 839.534 74.976 839.534 77.784C839.534 80.556 837.59 82.248 835.322 82.248C833.054 82.248 831.11 80.556 831.11 77.784ZM848.951 87H855.179V79.8C855.179 76.416 856.835 74.22 860.291 74.22C860.723 74.22 861.335 74.256 861.551 74.328V68.208C861.335 68.172 861.083 68.136 860.831 68.136C858.059 68.136 855.719 70.224 854.927 72.744H854.855C854.855 72.744 854.927 72.204 854.927 71.592V68.46H848.951V87ZM873.8 87H880.028V73.32H886.472V87H892.7V68.46H880.028V68.208C880.028 66.624 881.936 66.408 883.16 66.408C883.628 66.408 884.024 66.444 884.168 66.48V61.224C883.52 61.116 882.944 61.116 882.296 61.116C879.308 61.116 873.8 61.944 873.8 68.028V68.46H871.532V73.32H873.8V87ZM886.544 66.12H892.628V61.26H886.544V66.12ZM896.869 87H903.097V78.612C903.097 75.984 904.357 73.68 907.129 73.68C908.497 73.68 909.181 74.4 909.181 76.128V87H915.409V74.976C915.409 69.756 912.493 68.028 908.749 68.028C905.473 68.028 903.709 69.792 902.845 71.232H902.773C902.773 71.232 902.845 70.692 902.845 70.08V68.46H896.869V87ZM918.108 81.78C918.108 84.984 920.592 87.432 924.156 87.432C926.28 87.432 928.44 86.46 929.664 84.732H929.736C929.736 84.732 929.664 85.272 929.664 85.884V87H935.352V75.588C935.352 70.872 932.184 68.028 927.072 68.028C924.048 68.028 920.808 69.216 919.224 70.44L921.384 74.832C922.86 73.86 924.696 73.068 926.496 73.068C927.864 73.068 929.124 73.572 929.124 75.12V75.444H928.584C924.012 75.444 918.108 76.812 918.108 81.78ZM924.264 81.204C924.264 79.512 926.712 79.008 928.62 79.008H929.196V79.512C929.196 81.024 927.828 82.788 926.028 82.788C924.876 82.788 924.264 82.068 924.264 81.204ZM939.267 80.16C939.267 86.388 942.795 87.18 946.107 87.18C946.899 87.18 947.547 87.108 947.979 87.072V81.672C947.691 81.708 947.403 81.708 947.223 81.708C945.819 81.708 945.495 81.096 945.495 79.332V61.26H939.267V80.16ZM665.792 123.78C665.792 126.984 668.276 129.432 671.84 129.432C673.964 129.432 676.124 128.46 677.348 126.732H677.42C677.42 126.732 677.348 127.272 677.348 127.884V129H683.036V117.588C683.036 112.872 679.868 110.028 674.756 110.028C671.732 110.028 668.492 111.216 666.908 112.44L669.068 116.832C670.544 115.86 672.38 115.068 674.18 115.068C675.548 115.068 676.808 115.572 676.808 117.12V117.444H676.268C671.696 117.444 665.792 118.812 665.792 123.78ZM671.948 123.204C671.948 121.512 674.396 121.008 676.304 121.008H676.88V121.512C676.88 123.024 675.512 124.788 673.712 124.788C672.56 124.788 671.948 124.068 671.948 123.204ZM686.986 129H693.214V120.612C693.214 117.984 694.474 115.68 697.246 115.68C698.614 115.68 699.298 116.4 699.298 118.128V129H705.526V116.976C705.526 111.756 702.61 110.028 698.866 110.028C695.59 110.028 693.826 111.792 692.962 113.232H692.89C692.89 113.232 692.962 112.692 692.962 112.08V110.46H686.986V129ZM708.55 119.712C708.55 125.472 711.862 129.432 716.902 129.432C719.098 129.432 721.114 128.496 722.266 126.732H722.338C722.338 126.732 722.302 127.2 722.302 127.776V129H728.134V103.26H721.906V110.676C721.906 111.144 721.942 111.504 721.942 111.504H721.87C720.646 110.28 718.666 110.028 717.01 110.028C712.078 110.028 708.55 113.844 708.55 119.712ZM714.814 119.712C714.814 116.868 716.506 115.284 718.45 115.284C720.898 115.284 722.086 117.48 722.086 119.712C722.086 122.916 720.322 124.284 718.45 124.284C716.29 124.284 714.814 122.484 714.814 119.712ZM740.259 119.712C740.259 124.644 743.823 129.432 750.447 129.432C753.291 129.432 756.351 128.46 758.367 126.732L756.063 122.376C754.551 123.384 752.787 124.248 750.951 124.248C748.971 124.248 747.099 123.204 746.631 120.936H758.331C758.403 120.288 758.475 119.64 758.475 118.992C758.475 113.844 755.379 110.028 749.907 110.028C743.931 110.028 740.259 114.276 740.259 119.712ZM746.775 117.372C747.099 115.896 747.963 114.6 749.763 114.6C751.347 114.6 752.319 115.86 752.319 117.372H746.775ZM761.729 129H767.957V120.612C767.957 117.984 769.217 115.68 771.989 115.68C773.357 115.68 774.041 116.4 774.041 118.128V129H780.269V116.976C780.269 111.756 777.353 110.028 773.609 110.028C770.333 110.028 768.569 111.792 767.705 113.232H767.633C767.633 113.232 767.705 112.692 767.705 112.08V110.46H761.729V129ZM785.344 122.16C785.344 128.388 791.068 129.18 794.02 129.18C794.74 129.18 795.244 129.108 795.712 129.072V123.672C795.316 123.708 795.1 123.708 794.884 123.708C793.696 123.708 791.572 123.42 791.572 121.332V115.644H795.46V110.784H791.572V105.456H785.524V110.784H782.968V115.644H785.344V122.16ZM799.065 129H805.293V121.8C805.293 118.416 806.949 116.22 810.405 116.22C810.837 116.22 811.449 116.256 811.665 116.328V110.208C811.449 110.172 811.197 110.136 810.945 110.136C808.173 110.136 805.833 112.224 805.041 114.744H804.969C804.969 114.744 805.041 114.204 805.041 113.592V110.46H799.065V129ZM812.851 123.78C812.851 126.984 815.335 129.432 818.899 129.432C821.023 129.432 823.183 128.46 824.407 126.732H824.479C824.479 126.732 824.407 127.272 824.407 127.884V129H830.095V117.588C830.095 112.872 826.927 110.028 821.815 110.028C818.791 110.028 815.551 111.216 813.967 112.44L816.127 116.832C817.603 115.86 819.439 115.068 821.239 115.068C822.607 115.068 823.867 115.572 823.867 117.12V117.444H823.327C818.755 117.444 812.851 118.812 812.851 123.78ZM819.007 123.204C819.007 121.512 821.455 121.008 823.363 121.008H823.939V121.512C823.939 123.024 822.571 124.788 820.771 124.788C819.619 124.788 819.007 124.068 819.007 123.204ZM834.045 129H840.273V120.612C840.273 117.984 841.533 115.68 844.305 115.68C845.673 115.68 846.357 116.4 846.357 118.128V129H852.585V116.976C852.585 111.756 849.669 110.028 845.925 110.028C842.649 110.028 840.885 111.792 840.021 113.232H839.949C839.949 113.232 840.021 112.692 840.021 112.08V110.46H834.045V129ZM855.536 119.712C855.536 124.824 859.244 129.432 865.868 129.432C868.964 129.432 871.988 128.244 873.824 126.372L871.556 122.016C870.224 123.168 868.28 124.248 866.48 124.248C863.348 124.248 861.836 121.836 861.836 119.64C861.836 117.444 863.312 115.212 866.264 115.212C867.884 115.212 869.54 115.968 870.62 117.012L873.248 112.836C871.412 110.856 868.46 110.028 865.868 110.028C859.208 110.028 855.536 114.744 855.536 119.712ZM875.048 119.712C875.048 124.644 878.612 129.432 885.236 129.432C888.08 129.432 891.14 128.46 893.156 126.732L890.852 122.376C889.34 123.384 887.576 124.248 885.74 124.248C883.76 124.248 881.888 123.204 881.42 120.936H893.12C893.192 120.288 893.264 119.64 893.264 118.992C893.264 113.844 890.168 110.028 884.696 110.028C878.72 110.028 875.048 114.276 875.048 119.712ZM881.564 117.372C881.888 115.896 882.752 114.6 884.552 114.6C886.136 114.6 887.108 115.86 887.108 117.372H881.564ZM904.122 119.712C904.122 124.644 907.686 129.432 914.31 129.432C917.154 129.432 920.214 128.46 922.23 126.732L919.926 122.376C918.414 123.384 916.65 124.248 914.814 124.248C912.834 124.248 910.962 123.204 910.494 120.936H922.194C922.266 120.288 922.338 119.64 922.338 118.992C922.338 113.844 919.242 110.028 913.77 110.028C907.794 110.028 904.122 114.276 904.122 119.712ZM910.638 117.372C910.962 115.896 911.826 114.6 913.626 114.6C915.21 114.6 916.182 115.86 916.182 117.372H910.638ZM923.724 129H930.564L932.76 124.824C932.94 124.5 933.192 123.888 933.192 123.888H933.264C933.264 123.888 933.516 124.5 933.696 124.824L935.928 129H942.768L936.936 119.82L942.876 110.46H935.856L933.84 114.6C933.624 115.068 933.264 115.824 933.264 115.824H933.192C933.192 115.824 932.868 115.068 932.616 114.6L930.6 110.46H923.58L929.556 119.82L923.724 129ZM943.913 123.78C943.913 126.984 946.397 129.432 949.961 129.432C952.085 129.432 954.245 128.46 955.469 126.732H955.541C955.541 126.732 955.469 127.272 955.469 127.884V129H961.157V117.588C961.157 112.872 957.989 110.028 952.877 110.028C949.853 110.028 946.613 111.216 945.029 112.44L947.189 116.832C948.665 115.86 950.501 115.068 952.301 115.068C953.669 115.068 954.929 115.572 954.929 117.12V117.444H954.389C949.817 117.444 943.913 118.812 943.913 123.78ZM950.069 123.204C950.069 121.512 952.517 121.008 954.425 121.008H955.001V121.512C955.001 123.024 953.633 124.788 951.833 124.788C950.681 124.788 950.069 124.068 950.069 123.204ZM965.108 129H971.336V121.152C971.336 118.596 972.056 115.68 974.9 115.68C976.088 115.68 976.34 116.652 976.34 118.02V129H982.568V121.152C982.568 118.38 983.432 115.68 986.132 115.68C987.32 115.68 987.572 116.652 987.572 118.02V129H993.8V116.976C993.8 111.864 991.172 110.028 987.788 110.028C985.016 110.028 982.82 111.612 981.848 113.16H981.776C980.804 111.072 978.932 110.028 976.592 110.028C973.676 110.028 971.948 111.936 971.084 113.232H971.012C971.012 113.232 971.084 112.692 971.084 112.08V110.46H965.108V129ZM996.434 126.696C998.486 128.532 1001.33 129.432 1003.99 129.432C1008.75 129.432 1011.63 126.804 1011.63 123.348C1011.63 117.336 1002.95 117.804 1002.95 115.86C1002.95 115.356 1003.35 114.96 1004.68 114.96C1006.26 114.96 1008.28 115.608 1009.36 116.472L1011.48 112.152C1009.61 110.64 1007.23 110.028 1004.86 110.028C1000.57 110.028 997.154 112.08 997.154 115.896C997.154 121.98 1005.83 121.548 1005.83 123.528C1005.83 124.104 1005.4 124.5 1004.14 124.5C1002.37 124.5 1000.47 123.78 999.098 122.628L996.434 126.696Z" fill="#222224"/>
<path d="M666.674 184H668.456V171.292H666.674V184ZM671.395 184H673.141V179.752C673.141 178.06 674.149 176.26 675.877 176.26C677.263 176.26 677.443 177.358 677.443 178.546V184H679.189V179.752C679.189 178.006 680.197 176.26 681.889 176.26C683.239 176.26 683.491 177.268 683.491 178.546V184H685.237V178.168C685.237 175.846 684.301 174.676 682.231 174.676C680.755 174.676 679.495 175.684 678.991 176.746H678.955C678.649 175.378 677.767 174.676 676.237 174.676C674.797 174.676 673.501 175.756 673.069 176.818H673.033C673.033 176.818 673.087 176.512 673.087 176.134V174.892H671.395V184ZM687.848 187.6H689.594V183.46C689.594 182.992 689.522 182.668 689.522 182.668H689.558C690.188 183.64 691.232 184.216 692.384 184.216C694.778 184.216 696.506 182.344 696.506 179.446C696.506 176.62 694.976 174.676 692.51 174.676C691.178 174.676 690.026 175.288 689.45 176.386H689.414C689.414 176.386 689.468 176.08 689.468 175.702V174.892H687.848V187.6ZM689.54 179.482C689.54 177.178 690.8 176.206 692.168 176.206C693.68 176.206 694.742 177.484 694.742 179.464C694.742 181.534 693.554 182.704 692.114 182.704C690.44 182.704 689.54 181.102 689.54 179.482ZM698.659 184H700.405V180.22C700.405 178.456 701.233 176.512 703.195 176.512C703.375 176.512 703.627 176.53 703.699 176.548V174.82C703.555 174.802 703.393 174.784 703.231 174.784C701.827 174.784 700.765 175.882 700.333 177.196H700.297C700.297 177.196 700.351 176.908 700.351 176.53V174.892H698.659V184ZM704.551 179.428C704.551 182.2 706.747 184.216 709.465 184.216C712.165 184.216 714.361 182.2 714.361 179.428C714.361 176.674 712.165 174.676 709.447 174.676C706.747 174.676 704.551 176.674 704.551 179.428ZM706.333 179.428C706.333 177.538 707.737 176.188 709.465 176.188C711.175 176.188 712.597 177.538 712.597 179.428C712.597 181.336 711.175 182.704 709.465 182.704C707.737 182.704 706.333 181.336 706.333 179.428ZM718.614 184H720.612L723.978 174.892H722.142L719.928 181.048C719.766 181.552 719.622 182.29 719.622 182.29H719.586C719.586 182.29 719.424 181.552 719.262 181.048L717.048 174.892H715.194L718.614 184ZM724.871 179.446C724.871 182.146 726.851 184.216 729.713 184.216C730.973 184.216 732.359 183.73 733.241 182.92L732.503 181.642C731.783 182.29 730.793 182.704 729.821 182.704C728.183 182.704 726.779 181.642 726.689 179.68H733.313C733.349 179.428 733.385 179.176 733.385 178.942C733.385 176.602 732.017 174.676 729.443 174.676C726.851 174.676 724.871 176.548 724.871 179.446ZM726.743 178.42C726.995 176.908 728.057 176.026 729.407 176.026C730.595 176.026 731.567 176.854 731.621 178.42H726.743ZM739.043 185.89L738.431 187.222C738.431 187.222 739.169 187.78 740.177 187.78C741.455 187.78 742.589 187.06 743.129 185.638L747.413 174.892H745.523L743.309 180.868C743.147 181.336 743.003 181.948 743.003 181.948H742.967C742.967 181.948 742.805 181.3 742.625 180.85L740.339 174.892H738.377L742.193 183.892L741.743 184.936C741.401 185.764 740.807 186.286 740.087 186.286C739.547 186.286 739.043 185.89 739.043 185.89ZM748.215 179.428C748.215 182.2 750.411 184.216 753.129 184.216C755.829 184.216 758.025 182.2 758.025 179.428C758.025 176.674 755.829 174.676 753.111 174.676C750.411 174.676 748.215 176.674 748.215 179.428ZM749.997 179.428C749.997 177.538 751.401 176.188 753.129 176.188C754.839 176.188 756.261 177.538 756.261 179.428C756.261 181.336 754.839 182.704 753.129 182.704C751.401 182.704 749.997 181.336 749.997 179.428ZM760.021 180.724C760.021 183.136 761.083 184.216 763.135 184.216C764.917 184.216 766.123 182.974 766.519 182.074H766.555C766.555 182.074 766.483 182.38 766.483 182.74V184H768.175V174.892H766.447V179.158C766.447 180.958 765.349 182.596 763.477 182.596C762.037 182.596 761.767 181.588 761.767 180.328V174.892H760.021V180.724ZM770.87 184H772.616V180.22C772.616 178.456 773.444 176.512 775.406 176.512C775.586 176.512 775.838 176.53 775.91 176.548V174.82C775.766 174.802 775.604 174.784 775.442 174.784C774.038 174.784 772.976 175.882 772.544 177.196H772.508C772.508 177.196 772.562 176.908 772.562 176.53V174.892H770.87V184ZM780.977 181.516C780.977 183.226 782.435 184.216 784.019 184.216C785.369 184.216 786.485 183.406 787.007 182.362H787.043C787.043 182.362 786.989 182.668 786.989 183.082V184H788.627V178.24C788.627 175.936 787.313 174.676 785.027 174.676C783.749 174.676 782.363 175.144 781.625 175.756L782.327 177.034C783.065 176.512 783.983 176.152 784.883 176.152C786.017 176.152 786.881 176.656 786.881 178.15V178.33H786.413C784.523 178.33 780.977 178.654 780.977 181.516ZM782.723 181.372C782.723 179.698 785.135 179.59 786.431 179.59H786.881V179.932C786.881 181.282 785.963 182.83 784.433 182.83C783.299 182.83 782.723 182.092 782.723 181.372ZM790.631 179.446C790.631 182.182 792.629 184.216 795.509 184.216C796.931 184.216 798.317 183.64 799.145 182.758L798.443 181.48C797.741 182.218 796.643 182.704 795.635 182.704C793.745 182.704 792.413 181.282 792.413 179.428C792.413 177.574 793.745 176.188 795.581 176.188C796.535 176.188 797.489 176.62 798.101 177.232L798.929 176.008C798.065 175.09 796.715 174.676 795.509 174.676C792.647 174.676 790.631 176.746 790.631 179.446ZM800.278 181.516C800.278 183.226 801.736 184.216 803.32 184.216C804.67 184.216 805.786 183.406 806.308 182.362H806.344C806.344 182.362 806.29 182.668 806.29 183.082V184H807.928V178.24C807.928 175.936 806.614 174.676 804.328 174.676C803.05 174.676 801.664 175.144 800.926 175.756L801.628 177.034C802.366 176.512 803.284 176.152 804.184 176.152C805.318 176.152 806.182 176.656 806.182 178.15V178.33H805.714C803.824 178.33 800.278 178.654 800.278 181.516ZM802.024 181.372C802.024 179.698 804.436 179.59 805.732 179.59H806.182V179.932C806.182 181.282 805.264 182.83 803.734 182.83C802.6 182.83 802.024 182.092 802.024 181.372ZM809.968 179.446C809.968 182.272 811.534 184.216 813.982 184.216C815.422 184.216 816.484 183.46 817.006 182.47H817.042C817.042 182.47 816.988 182.722 816.988 183.082V184H818.644V171.292H816.916V175.558C816.916 175.9 816.952 176.17 816.952 176.17H816.916C816.34 175.198 815.242 174.676 814.09 174.676C811.678 174.676 809.968 176.548 809.968 179.446ZM811.75 179.446C811.75 177.376 812.938 176.206 814.36 176.206C816.106 176.206 816.952 177.79 816.952 179.428C816.952 181.732 815.674 182.704 814.324 182.704C812.812 182.704 811.75 181.426 811.75 179.446ZM820.742 179.446C820.742 182.146 822.722 184.216 825.584 184.216C826.844 184.216 828.23 183.73 829.112 182.92L828.374 181.642C827.654 182.29 826.664 182.704 825.692 182.704C824.054 182.704 822.65 181.642 822.56 179.68H829.184C829.22 179.428 829.256 179.176 829.256 178.942C829.256 176.602 827.888 174.676 825.314 174.676C822.722 174.676 820.742 176.548 820.742 179.446ZM822.614 178.42C822.866 176.908 823.928 176.026 825.278 176.026C826.466 176.026 827.438 176.854 827.492 178.42H822.614ZM831.356 184H833.102V179.752C833.102 178.06 834.11 176.26 835.838 176.26C837.224 176.26 837.404 177.358 837.404 178.546V184H839.15V179.752C839.15 178.006 840.158 176.26 841.85 176.26C843.2 176.26 843.452 177.268 843.452 178.546V184H845.198V178.168C845.198 175.846 844.262 174.676 842.192 174.676C840.716 174.676 839.456 175.684 838.952 176.746H838.916C838.61 175.378 837.728 174.676 836.198 174.676C834.758 174.676 833.462 175.756 833.03 176.818H832.994C832.994 176.818 833.048 176.512 833.048 176.134V174.892H831.356V184ZM847.773 173.056H849.573V171.292H847.773V173.056ZM847.809 184H849.555V174.892H847.809V184ZM851.645 179.446C851.645 182.182 853.643 184.216 856.523 184.216C857.945 184.216 859.331 183.64 860.159 182.758L859.457 181.48C858.755 182.218 857.657 182.704 856.649 182.704C854.759 182.704 853.427 181.282 853.427 179.428C853.427 177.574 854.759 176.188 856.595 176.188C857.549 176.188 858.503 176.62 859.115 177.232L859.943 176.008C859.079 175.09 857.729 174.676 856.523 174.676C853.661 174.676 851.645 176.746 851.645 179.446ZM866.547 187.6H868.293V183.46C868.293 182.992 868.221 182.668 868.221 182.668H868.257C868.887 183.64 869.931 184.216 871.083 184.216C873.477 184.216 875.205 182.344 875.205 179.446C875.205 176.62 873.675 174.676 871.209 174.676C869.877 174.676 868.725 175.288 868.149 176.386H868.113C868.113 176.386 868.167 176.08 868.167 175.702V174.892H866.547V187.6ZM868.239 179.482C868.239 177.178 869.499 176.206 870.867 176.206C872.379 176.206 873.441 177.484 873.441 179.464C873.441 181.534 872.253 182.704 870.813 182.704C869.139 182.704 868.239 181.102 868.239 179.482ZM876.764 179.446C876.764 182.146 878.744 184.216 881.606 184.216C882.866 184.216 884.252 183.73 885.134 182.92L884.396 181.642C883.676 182.29 882.686 182.704 881.714 182.704C880.076 182.704 878.672 181.642 878.582 179.68H885.206C885.242 179.428 885.278 179.176 885.278 178.942C885.278 176.602 883.91 174.676 881.336 174.676C878.744 174.676 876.764 176.548 876.764 179.446ZM878.636 178.42C878.888 176.908 879.95 176.026 881.3 176.026C882.488 176.026 883.46 176.854 883.514 178.42H878.636ZM887.377 184H889.123V180.22C889.123 178.456 889.951 176.512 891.913 176.512C892.093 176.512 892.345 176.53 892.417 176.548V174.82C892.273 174.802 892.111 174.784 891.949 174.784C890.545 174.784 889.483 175.882 889.051 177.196H889.015C889.015 177.196 889.069 176.908 889.069 176.53V174.892H887.377V184ZM894.577 184H896.323V176.404H898.465V174.982H896.323V174.604C896.323 172.93 897.547 172.732 898.231 172.732C898.429 172.732 898.609 172.75 898.681 172.768V171.256C898.447 171.22 898.249 171.202 898.015 171.202C896.863 171.202 894.577 171.58 894.577 174.586V174.982H893.443V176.404H894.577V184ZM899.404 179.428C899.404 182.2 901.6 184.216 904.318 184.216C907.018 184.216 909.214 182.2 909.214 179.428C909.214 176.674 907.018 174.676 904.3 174.676C901.6 174.676 899.404 176.674 899.404 179.428ZM901.186 179.428C901.186 177.538 902.59 176.188 904.318 176.188C906.028 176.188 907.45 177.538 907.45 179.428C907.45 181.336 906.028 182.704 904.318 182.704C902.59 182.704 901.186 181.336 901.186 179.428ZM911.319 184H913.065V180.22C913.065 178.456 913.893 176.512 915.855 176.512C916.035 176.512 916.287 176.53 916.359 176.548V174.82C916.215 174.802 916.053 174.784 915.891 174.784C914.487 174.784 913.425 175.882 912.993 177.196H912.957C912.957 177.196 913.011 176.908 913.011 176.53V174.892H911.319V184ZM918.086 184H919.832V179.752C919.832 178.06 920.84 176.26 922.568 176.26C923.954 176.26 924.134 177.358 924.134 178.546V184H925.88V179.752C925.88 178.006 926.888 176.26 928.58 176.26C929.93 176.26 930.182 177.268 930.182 178.546V184H931.928V178.168C931.928 175.846 930.992 174.676 928.922 174.676C927.446 174.676 926.186 175.684 925.682 176.746H925.646C925.34 175.378 924.458 174.676 922.928 174.676C921.488 174.676 920.192 175.756 919.76 176.818H919.724C919.724 176.818 919.778 176.512 919.778 176.134V174.892H918.086V184ZM933.783 181.516C933.783 183.226 935.241 184.216 936.825 184.216C938.175 184.216 939.291 183.406 939.813 182.362H939.849C939.849 182.362 939.795 182.668 939.795 183.082V184H941.433V178.24C941.433 175.936 940.119 174.676 937.833 174.676C936.555 174.676 935.169 175.144 934.431 175.756L935.133 177.034C935.871 176.512 936.789 176.152 937.689 176.152C938.823 176.152 939.687 176.656 939.687 178.15V178.33H939.219C937.329 178.33 933.783 178.654 933.783 181.516ZM935.529 181.372C935.529 179.698 937.941 179.59 939.237 179.59H939.687V179.932C939.687 181.282 938.769 182.83 937.239 182.83C936.105 182.83 935.529 182.092 935.529 181.372ZM944.032 184H945.778V179.626C945.778 177.754 947.038 176.278 948.82 176.278C950.278 176.278 950.53 177.286 950.53 178.564V184H952.276V178.168C952.276 175.846 951.304 174.676 949.162 174.676C947.164 174.676 946.048 176.026 945.706 176.818H945.67C945.67 176.818 945.724 176.512 945.724 176.134V174.892H944.032V184ZM954.283 179.446C954.283 182.182 956.281 184.216 959.161 184.216C960.583 184.216 961.969 183.64 962.797 182.758L962.095 181.48C961.393 182.218 960.295 182.704 959.287 182.704C957.397 182.704 956.065 181.282 956.065 179.428C956.065 177.574 957.397 176.188 959.233 176.188C960.187 176.188 961.141 176.62 961.753 177.232L962.581 176.008C961.717 175.09 960.367 174.676 959.161 174.676C956.299 174.676 954.283 176.746 954.283 179.446ZM963.899 179.446C963.899 182.146 965.879 184.216 968.741 184.216C970.001 184.216 971.387 183.73 972.269 182.92L971.531 181.642C970.811 182.29 969.821 182.704 968.849 182.704C967.211 182.704 965.807 181.642 965.717 179.68H972.341C972.377 179.428 972.413 179.176 972.413 178.942C972.413 176.602 971.045 174.676 968.471 174.676C965.879 174.676 963.899 176.548 963.899 179.446ZM965.771 178.42C966.023 176.908 967.085 176.026 968.435 176.026C969.623 176.026 970.595 176.854 970.649 178.42H965.771ZM665.594 209.516C665.594 211.226 667.052 212.216 668.636 212.216C669.986 212.216 671.102 211.406 671.624 210.362H671.66C671.66 210.362 671.606 210.668 671.606 211.082V212H673.244V206.24C673.244 203.936 671.93 202.676 669.644 202.676C668.366 202.676 666.98 203.144 666.242 203.756L666.944 205.034C667.682 204.512 668.6 204.152 669.5 204.152C670.634 204.152 671.498 204.656 671.498 206.15V206.33H671.03C669.14 206.33 665.594 206.654 665.594 209.516ZM667.34 209.372C667.34 207.698 669.752 207.59 671.048 207.59H671.498V207.932C671.498 209.282 670.58 210.83 669.05 210.83C667.916 210.83 667.34 210.092 667.34 209.372ZM675.842 212H677.588V207.626C677.588 205.754 678.848 204.278 680.63 204.278C682.088 204.278 682.34 205.286 682.34 206.564V212H684.086V206.168C684.086 203.846 683.114 202.676 680.972 202.676C678.974 202.676 677.858 204.026 677.516 204.818H677.48C677.48 204.818 677.534 204.512 677.534 204.134V202.892H675.842V212ZM686.13 207.446C686.13 210.272 687.696 212.216 690.144 212.216C691.584 212.216 692.646 211.46 693.168 210.47H693.204C693.204 210.47 693.15 210.722 693.15 211.082V212H694.806V199.292H693.078V203.558C693.078 203.9 693.114 204.17 693.114 204.17H693.078C692.502 203.198 691.404 202.676 690.252 202.676C687.84 202.676 686.13 204.548 686.13 207.446ZM687.912 207.446C687.912 205.376 689.1 204.206 690.522 204.206C692.268 204.206 693.114 205.79 693.114 207.428C693.114 209.732 691.836 210.704 690.486 210.704C688.974 210.704 687.912 209.426 687.912 207.446ZM701.404 207.446C701.404 210.182 703.402 212.216 706.282 212.216C707.704 212.216 709.09 211.64 709.918 210.758L709.216 209.48C708.514 210.218 707.416 210.704 706.408 210.704C704.518 210.704 703.186 209.282 703.186 207.428C703.186 205.574 704.518 204.188 706.354 204.188C707.308 204.188 708.262 204.62 708.874 205.232L709.702 204.008C708.838 203.09 707.488 202.676 706.282 202.676C703.42 202.676 701.404 204.746 701.404 207.446ZM711.807 212H713.553V207.68C713.553 205.718 714.831 204.278 716.595 204.278C718.053 204.278 718.305 205.286 718.305 206.564V212H720.051V206.168C720.051 203.846 719.079 202.676 716.937 202.676C715.119 202.676 713.931 203.9 713.517 204.764H713.481C713.481 204.764 713.553 204.44 713.553 204.008V199.292H711.807V212ZM722.059 207.428C722.059 210.2 724.255 212.216 726.973 212.216C729.673 212.216 731.869 210.2 731.869 207.428C731.869 204.674 729.673 202.676 726.955 202.676C724.255 202.676 722.059 204.674 722.059 207.428ZM723.841 207.428C723.841 205.538 725.245 204.188 726.973 204.188C728.683 204.188 730.105 205.538 730.105 207.428C730.105 209.336 728.683 210.704 726.973 210.704C725.245 210.704 723.841 209.336 723.841 207.428ZM733.379 207.428C733.379 210.2 735.575 212.216 738.293 212.216C740.993 212.216 743.189 210.2 743.189 207.428C743.189 204.674 740.993 202.676 738.275 202.676C735.575 202.676 733.379 204.674 733.379 207.428ZM735.161 207.428C735.161 205.538 736.565 204.188 738.293 204.188C740.003 204.188 741.425 205.538 741.425 207.428C741.425 209.336 740.003 210.704 738.293 210.704C736.565 210.704 735.161 209.336 735.161 207.428ZM744.519 210.884C745.419 211.802 746.769 212.216 747.993 212.216C749.937 212.216 751.269 211.082 751.269 209.534C751.269 206.528 746.571 207.05 746.571 205.268C746.571 204.494 747.237 204.134 748.119 204.134C748.929 204.134 749.883 204.44 750.423 204.944L751.125 203.684C750.333 202.964 749.217 202.676 748.173 202.676C746.391 202.676 744.897 203.576 744.897 205.304C744.897 208.292 749.577 207.824 749.577 209.57C749.577 210.326 748.947 210.758 748.029 210.758C747.075 210.758 746.031 210.362 745.347 209.696L744.519 210.884ZM752.75 207.446C752.75 210.146 754.73 212.216 757.592 212.216C758.852 212.216 760.238 211.73 761.12 210.92L760.382 209.642C759.662 210.29 758.672 210.704 757.7 210.704C756.062 210.704 754.658 209.642 754.568 207.68H761.192C761.228 207.428 761.264 207.176 761.264 206.942C761.264 204.602 759.896 202.676 757.322 202.676C754.73 202.676 752.75 204.548 752.75 207.446ZM754.622 206.42C754.874 204.908 755.936 204.026 757.286 204.026C758.474 204.026 759.446 204.854 759.5 206.42H754.622ZM766.921 213.89L766.309 215.222C766.309 215.222 767.047 215.78 768.055 215.78C769.333 215.78 770.467 215.06 771.007 213.638L775.291 202.892H773.401L771.187 208.868C771.025 209.336 770.881 209.948 770.881 209.948H770.845C770.845 209.948 770.683 209.3 770.503 208.85L768.217 202.892H766.255L770.071 211.892L769.621 212.936C769.279 213.764 768.685 214.286 767.965 214.286C767.425 214.286 766.921 213.89 766.921 213.89ZM776.094 207.428C776.094 210.2 778.29 212.216 781.008 212.216C783.708 212.216 785.904 210.2 785.904 207.428C785.904 204.674 783.708 202.676 780.99 202.676C778.29 202.676 776.094 204.674 776.094 207.428ZM777.876 207.428C777.876 205.538 779.28 204.188 781.008 204.188C782.718 204.188 784.14 205.538 784.14 207.428C784.14 209.336 782.718 210.704 781.008 210.704C779.28 210.704 777.876 209.336 777.876 207.428ZM787.9 208.724C787.9 211.136 788.962 212.216 791.014 212.216C792.796 212.216 794.002 210.974 794.398 210.074H794.434C794.434 210.074 794.362 210.38 794.362 210.74V212H796.054V202.892H794.326V207.158C794.326 208.958 793.228 210.596 791.356 210.596C789.916 210.596 789.646 209.588 789.646 208.328V202.892H787.9V208.724ZM798.748 212H800.494V208.22C800.494 206.456 801.322 204.512 803.284 204.512C803.464 204.512 803.716 204.53 803.788 204.548V202.82C803.644 202.802 803.482 202.784 803.32 202.784C801.916 202.784 800.854 203.882 800.422 205.196H800.386C800.386 205.196 800.44 204.908 800.44 204.53V202.892H798.748V212ZM809.018 207.446C809.018 210.182 811.016 212.216 813.896 212.216C815.318 212.216 816.704 211.64 817.532 210.758L816.83 209.48C816.128 210.218 815.03 210.704 814.022 210.704C812.132 210.704 810.8 209.282 810.8 207.428C810.8 205.574 812.132 204.188 813.968 204.188C814.922 204.188 815.876 204.62 816.488 205.232L817.316 204.008C816.452 203.09 815.102 202.676 813.896 202.676C811.034 202.676 809.018 204.746 809.018 207.446ZM818.615 207.428C818.615 210.2 820.811 212.216 823.529 212.216C826.229 212.216 828.425 210.2 828.425 207.428C828.425 204.674 826.229 202.676 823.511 202.676C820.811 202.676 818.615 204.674 818.615 207.428ZM820.397 207.428C820.397 205.538 821.801 204.188 823.529 204.188C825.239 204.188 826.661 205.538 826.661 207.428C826.661 209.336 825.239 210.704 823.529 210.704C821.801 210.704 820.397 209.336 820.397 207.428ZM830.422 208.724C830.422 211.136 831.484 212.216 833.536 212.216C835.318 212.216 836.524 210.974 836.92 210.074H836.956C836.956 210.074 836.884 210.38 836.884 210.74V212H838.576V202.892H836.848V207.158C836.848 208.958 835.75 210.596 833.878 210.596C832.438 210.596 832.168 209.588 832.168 208.328V202.892H830.422V208.724ZM841.27 212H843.016V208.22C843.016 206.456 843.844 204.512 845.806 204.512C845.986 204.512 846.238 204.53 846.31 204.548V202.82C846.166 202.802 846.004 202.784 845.842 202.784C844.438 202.784 843.376 203.882 842.944 205.196H842.908C842.908 205.196 842.962 204.908 842.962 204.53V202.892H841.27V212ZM847.264 210.884C848.164 211.802 849.514 212.216 850.738 212.216C852.682 212.216 854.014 211.082 854.014 209.534C854.014 206.528 849.316 207.05 849.316 205.268C849.316 204.494 849.982 204.134 850.864 204.134C851.674 204.134 852.628 204.44 853.168 204.944L853.87 203.684C853.078 202.964 851.962 202.676 850.918 202.676C849.136 202.676 847.642 203.576 847.642 205.304C847.642 208.292 852.322 207.824 852.322 209.57C852.322 210.326 851.692 210.758 850.774 210.758C849.82 210.758 848.776 210.362 848.092 209.696L847.264 210.884ZM855.494 207.446C855.494 210.146 857.474 212.216 860.336 212.216C861.596 212.216 862.982 211.73 863.864 210.92L863.126 209.642C862.406 210.29 861.416 210.704 860.444 210.704C858.806 210.704 857.402 209.642 857.312 207.68H863.936C863.972 207.428 864.008 207.176 864.008 206.942C864.008 204.602 862.64 202.676 860.066 202.676C857.474 202.676 855.494 204.548 855.494 207.446ZM857.366 206.42C857.618 204.908 858.68 204.026 860.03 204.026C861.218 204.026 862.19 204.854 862.244 206.42H857.366Z" fill="#505257"/>
</svg>
