<svg width="920" height="298" viewBox="0 0 920 298" fill="none" xmlns="http://www.w3.org/2000/svg">
<path d="M572.7 98H579V90.044H583.392C588.396 90.044 591.78 86.3 591.78 81.116C591.78 75.932 588.396 72.26 583.392 72.26H572.7V98ZM579 84.644V77.66H582.204C584.292 77.66 585.372 79.064 585.372 81.116C585.372 83.168 584.292 84.644 582.096 84.644H579ZM594.729 98H600.957V89.648C600.957 86.804 602.289 84.68 604.989 84.68C606.357 84.68 607.041 85.4 607.041 87.128V98H613.269V85.976C613.269 80.756 610.353 79.028 606.609 79.028C604.161 79.028 602.001 80.144 600.957 81.98H600.885C600.885 81.98 600.957 81.332 600.957 80.396V72.26H594.729V98ZM617.198 99.692L615.218 104.264C615.218 104.264 617.09 105.56 619.538 105.56C622.49 105.56 625.73 104.12 627.278 99.98L634.874 79.46H628.07L625.73 88.1C625.478 89.108 625.118 90.872 625.118 90.872H625.046C625.046 90.872 624.686 89 624.362 87.992L621.626 79.46H614.57L622.454 97.64L622.094 98.504C621.446 100.088 620.114 100.376 619.106 100.376C618.206 100.376 617.198 99.692 617.198 99.692ZM635.407 95.696C637.459 97.532 640.303 98.432 642.967 98.432C647.719 98.432 650.599 95.804 650.599 92.348C650.599 86.336 641.923 86.804 641.923 84.86C641.923 84.356 642.319 83.96 643.651 83.96C645.235 83.96 647.251 84.608 648.331 85.472L650.455 81.152C648.583 79.64 646.207 79.028 643.831 79.028C639.547 79.028 636.127 81.08 636.127 84.896C636.127 90.98 644.803 90.548 644.803 92.528C644.803 93.104 644.371 93.5 643.111 93.5C641.347 93.5 639.439 92.78 638.071 91.628L635.407 95.696ZM653.828 77.12H659.912V72.26H653.828V77.12ZM653.756 98H659.984V79.46H653.756V98ZM663.118 88.712C663.118 93.824 666.826 98.432 673.45 98.432C676.546 98.432 679.57 97.244 681.406 95.372L679.138 91.016C677.806 92.168 675.862 93.248 674.062 93.248C670.93 93.248 669.418 90.836 669.418 88.64C669.418 86.444 670.894 84.212 673.846 84.212C675.466 84.212 677.122 84.968 678.202 86.012L680.83 81.836C678.994 79.856 676.042 79.028 673.45 79.028C666.79 79.028 663.118 83.744 663.118 88.712ZM682.622 95.696C684.674 97.532 687.518 98.432 690.182 98.432C694.934 98.432 697.814 95.804 697.814 92.348C697.814 86.336 689.138 86.804 689.138 84.86C689.138 84.356 689.534 83.96 690.866 83.96C692.45 83.96 694.466 84.608 695.546 85.472L697.67 81.152C695.798 79.64 693.422 79.028 691.046 79.028C686.762 79.028 683.342 81.08 683.342 84.896C683.342 90.98 692.018 90.548 692.018 92.528C692.018 93.104 691.586 93.5 690.326 93.5C688.562 93.5 686.654 92.78 685.286 91.628L682.622 95.696ZM711.303 98H717.531V84.644H720.951V79.784H717.531V79.208C717.531 77.624 719.439 77.408 720.663 77.408C721.131 77.408 721.527 77.444 721.671 77.48V72.224C721.023 72.116 720.447 72.116 719.799 72.116C716.811 72.116 711.303 72.944 711.303 79.028V79.784H709.035V84.644H711.303V98ZM722.427 88.784C722.427 94.58 727.107 98.432 732.939 98.432C738.771 98.432 743.451 94.58 743.451 88.784C743.451 82.952 738.771 79.028 732.903 79.028C727.107 79.028 722.427 82.952 722.427 88.784ZM728.727 88.784C728.727 85.976 730.671 84.212 732.939 84.212C735.207 84.212 737.151 85.976 737.151 88.784C737.151 91.556 735.207 93.248 732.939 93.248C730.671 93.248 728.727 91.556 728.727 88.784ZM746.568 98H752.796V90.8C752.796 87.416 754.452 85.22 757.908 85.22C758.34 85.22 758.952 85.256 759.168 85.328V79.208C758.952 79.172 758.7 79.136 758.448 79.136C755.676 79.136 753.336 81.224 752.544 83.744H752.472C752.472 83.744 752.544 83.204 752.544 82.592V79.46H746.568V98ZM572.088 140H577.812V139.28C577.812 138.704 577.776 138.236 577.776 138.236H577.848C579.108 139.748 581.16 140.432 583.032 140.432C587.964 140.432 591.672 136.616 591.672 130.748C591.672 124.988 588.36 121.028 583.32 121.028C581.448 121.028 579.396 121.784 578.316 123.008H578.244C578.244 123.008 578.316 122.36 578.316 121.424V114.26H572.088V140ZM578.136 130.856C578.136 127.652 579.9 126.284 581.772 126.284C583.932 126.284 585.408 128.084 585.408 130.856C585.408 133.7 583.716 135.284 581.772 135.284C579.324 135.284 578.136 133.088 578.136 130.856ZM594.689 133.484C594.689 138.704 597.605 140.432 601.277 140.432C603.761 140.432 606.065 139.208 607.073 137.228H607.145C607.145 137.228 607.073 137.768 607.073 138.38V140H613.049V121.46H606.821V129.668C606.821 132.44 605.561 134.78 602.897 134.78C601.601 134.78 600.917 134.06 600.917 132.332V121.46H594.689V133.484ZM615.825 137.696C617.877 139.532 620.721 140.432 623.385 140.432C628.137 140.432 631.017 137.804 631.017 134.348C631.017 128.336 622.341 128.804 622.341 126.86C622.341 126.356 622.737 125.96 624.069 125.96C625.653 125.96 627.669 126.608 628.749 127.472L630.873 123.152C629.001 121.64 626.625 121.028 624.249 121.028C619.965 121.028 616.545 123.08 616.545 126.896C616.545 132.98 625.221 132.548 625.221 134.528C625.221 135.104 624.789 135.5 623.529 135.5C621.765 135.5 619.857 134.78 618.489 133.628L615.825 137.696ZM634.246 119.12H640.33V114.26H634.246V119.12ZM634.174 140H640.402V121.46H634.174V140ZM644.58 140H650.808V131.612C650.808 128.984 652.068 126.68 654.84 126.68C656.208 126.68 656.892 127.4 656.892 129.128V140H663.12V127.976C663.12 122.756 660.204 121.028 656.46 121.028C653.184 121.028 651.42 122.792 650.556 124.232H650.484C650.484 124.232 650.556 123.692 650.556 123.08V121.46H644.58V140ZM666.071 130.712C666.071 135.644 669.635 140.432 676.259 140.432C679.103 140.432 682.163 139.46 684.179 137.732L681.875 133.376C680.363 134.384 678.599 135.248 676.763 135.248C674.783 135.248 672.911 134.204 672.443 131.936H684.143C684.215 131.288 684.287 130.64 684.287 129.992C684.287 124.844 681.191 121.028 675.719 121.028C669.743 121.028 666.071 125.276 666.071 130.712ZM672.587 128.372C672.911 126.896 673.775 125.6 675.575 125.6C677.159 125.6 678.131 126.86 678.131 128.372H672.587ZM686.137 137.696C688.189 139.532 691.033 140.432 693.697 140.432C698.449 140.432 701.329 137.804 701.329 134.348C701.329 128.336 692.653 128.804 692.653 126.86C692.653 126.356 693.049 125.96 694.381 125.96C695.965 125.96 697.981 126.608 699.061 127.472L701.185 123.152C699.313 121.64 696.937 121.028 694.561 121.028C690.277 121.028 686.857 123.08 686.857 126.896C686.857 132.98 695.533 132.548 695.533 134.528C695.533 135.104 695.101 135.5 693.841 135.5C692.077 135.5 690.169 134.78 688.801 133.628L686.137 137.696ZM703.082 137.696C705.134 139.532 707.978 140.432 710.642 140.432C715.394 140.432 718.274 137.804 718.274 134.348C718.274 128.336 709.598 128.804 709.598 126.86C709.598 126.356 709.994 125.96 711.326 125.96C712.91 125.96 714.926 126.608 716.006 127.472L718.13 123.152C716.258 121.64 713.882 121.028 711.506 121.028C707.222 121.028 703.802 123.08 703.802 126.896C703.802 132.98 712.478 132.548 712.478 134.528C712.478 135.104 712.046 135.5 710.786 135.5C709.022 135.5 707.114 134.78 705.746 133.628L703.082 137.696ZM729.136 134.78C729.136 137.984 731.62 140.432 735.184 140.432C737.308 140.432 739.468 139.46 740.692 137.732H740.764C740.764 137.732 740.692 138.272 740.692 138.884V140H746.38V128.588C746.38 123.872 743.212 121.028 738.1 121.028C735.076 121.028 731.836 122.216 730.252 123.44L732.412 127.832C733.888 126.86 735.724 126.068 737.524 126.068C738.892 126.068 740.152 126.572 740.152 128.12V128.444H739.612C735.04 128.444 729.136 129.812 729.136 134.78ZM735.292 134.204C735.292 132.512 737.74 132.008 739.648 132.008H740.224V132.512C740.224 134.024 738.856 135.788 737.056 135.788C735.904 135.788 735.292 135.068 735.292 134.204ZM750.33 140H756.558V131.612C756.558 128.984 757.818 126.68 760.59 126.68C761.958 126.68 762.642 127.4 762.642 129.128V140H768.87V127.976C768.87 122.756 765.954 121.028 762.21 121.028C758.934 121.028 757.17 122.792 756.306 124.232H756.234C756.234 124.232 756.306 123.692 756.306 123.08V121.46H750.33V140ZM771.893 130.712C771.893 136.472 775.205 140.432 780.245 140.432C782.441 140.432 784.457 139.496 785.609 137.732H785.681C785.681 137.732 785.645 138.2 785.645 138.776V140H791.477V114.26H785.249V121.676C785.249 122.144 785.285 122.504 785.285 122.504H785.213C783.989 121.28 782.009 121.028 780.353 121.028C775.421 121.028 771.893 124.844 771.893 130.712ZM778.157 130.712C778.157 127.868 779.849 126.284 781.793 126.284C784.241 126.284 785.429 128.48 785.429 130.712C785.429 133.916 783.665 135.284 781.793 135.284C779.633 135.284 778.157 133.484 778.157 130.712ZM807.33 140H814.35L816.438 131.432C816.69 130.424 816.798 129.452 816.798 129.452H816.87C816.87 129.452 816.978 130.424 817.23 131.432L819.318 140H826.266L831.45 121.46H824.97L822.666 132.404C822.45 133.412 822.414 134.348 822.414 134.348H822.342C822.342 134.348 822.306 133.412 822.054 132.404L819.498 121.46H814.17L811.614 132.404C811.362 133.412 811.29 134.348 811.29 134.348H811.218C811.218 134.348 811.218 133.412 811.002 132.404L808.698 121.46H802.146L807.33 140ZM832.571 130.784C832.571 136.58 837.251 140.432 843.083 140.432C848.915 140.432 853.595 136.58 853.595 130.784C853.595 124.952 848.915 121.028 843.047 121.028C837.251 121.028 832.571 124.952 832.571 130.784ZM838.871 130.784C838.871 127.976 840.815 126.212 843.083 126.212C845.351 126.212 847.295 127.976 847.295 130.784C847.295 133.556 845.351 135.248 843.083 135.248C840.815 135.248 838.871 133.556 838.871 130.784ZM856.713 140H862.941V132.8C862.941 129.416 864.597 127.22 868.053 127.22C868.485 127.22 869.097 127.256 869.313 127.328V121.208C869.097 121.172 868.845 121.136 868.593 121.136C865.821 121.136 863.481 123.224 862.689 125.744H862.617C862.617 125.744 862.689 125.204 862.689 124.592V121.46H856.713V140ZM872.041 140H878.269V132.8H880.213L884.137 140H891.229L885.037 129.956V129.884L890.473 121.46H883.705L880.033 127.58H878.269V114.26H872.041V140Z" fill="#222224"/>
<g clip-path="url(#clip0)">
<path d="M0 4.40122C0 2.86065 0 2.09037 0.299609 1.50195C0.563153 0.984356 0.983678 0.563541 1.50091 0.299816C2.08893 0 2.85869 0 4.3982 0H504.602C506.141 0 506.911 0 507.499 0.299816C508.016 0.563541 508.437 0.984356 508.7 1.50195C509 2.09037 509 2.86066 509 4.40123V293.599C509 295.139 509 295.91 508.7 296.498C508.437 297.016 508.016 297.436 507.499 297.7C506.911 298 506.141 298 504.602 298H4.39818C2.85868 298 2.08893 298 1.50091 297.7C0.983678 297.436 0.563153 297.016 0.299609 296.498C0 295.91 0 295.139 0 293.599V4.40122Z" fill="#F3F3F3"/>
<rect x="93" y="189" width="285" height="122" rx="4" fill="white"/>
<rect x="160" y="26" width="250" height="140" rx="2" fill="white"/>
<path d="M177 40.4545C177 39.9454 177 39.6908 177.058 39.4964C177.108 39.3253 177.189 39.1862 177.288 39.0991C177.401 39 177.549 39 177.845 39H209.155C209.451 39 209.599 39 209.712 39.0991C209.811 39.1862 209.892 39.3253 209.942 39.4964C210 39.6908 210 39.9454 210 40.4545V42.5455C210 43.0546 210 43.3092 209.942 43.5036C209.892 43.6747 209.811 43.8138 209.712 43.9009C209.599 44 209.451 44 209.155 44H177.845C177.549 44 177.401 44 177.288 43.9009C177.189 43.8138 177.108 43.6747 177.058 43.5036C177 43.3092 177 43.0546 177 42.5455V40.4545Z" fill="#424754"/>
<path d="M380 40.4545C380 39.9454 380 39.6908 380.026 39.4964C380.049 39.3253 380.086 39.1862 380.131 39.0991C380.182 39 380.25 39 380.384 39H394.616C394.75 39 394.818 39 394.869 39.0991C394.914 39.1862 394.951 39.3253 394.974 39.4964C395 39.6908 395 39.9454 395 40.4545V42.5455C395 43.0546 395 43.3092 394.974 43.5036C394.951 43.6747 394.914 43.8138 394.869 43.9009C394.818 44 394.75 44 394.616 44H380.384C380.25 44 380.182 44 380.131 43.9009C380.086 43.8138 380.049 43.6747 380.026 43.5036C380 43.3092 380 43.0546 380 42.5455V40.4545Z" fill="#97999D"/>
<path d="M177 138.945C177 137.214 177 136.349 177.03 135.688C177.056 135.106 177.097 134.633 177.149 134.337C177.207 134 177.283 134 177.435 134H193.565C193.717 134 193.793 134 193.851 134.337C193.903 134.633 193.944 135.106 193.97 135.688C194 136.349 194 137.214 194 138.945V146.055C194 147.786 194 148.651 193.97 149.312C193.944 149.894 193.903 150.367 193.851 150.663C193.793 151 193.717 151 193.565 151H177.435C177.283 151 177.207 151 177.149 150.663C177.097 150.367 177.056 149.894 177.03 149.312C177 148.651 177 147.786 177 146.055V138.945Z" fill="#F04B5D"/>
<path d="M201 138.945C201 137.214 201 136.349 201.03 135.688C201.056 135.106 201.097 134.633 201.149 134.337C201.207 134 201.283 134 201.435 134H217.565C217.717 134 217.793 134 217.851 134.337C217.903 134.633 217.944 135.106 217.97 135.688C218 136.349 218 137.214 218 138.945V146.055C218 147.786 218 148.651 217.97 149.312C217.944 149.894 217.903 150.367 217.851 150.663C217.793 151 217.717 151 217.565 151H201.435C201.283 151 201.207 151 201.149 150.663C201.097 150.367 201.056 149.894 201.03 149.312C201 148.651 201 147.786 201 146.055V138.945Z" fill="#E0E0E0"/>
<path d="M225 138.945C225 137.214 225 136.349 225.03 135.688C225.056 135.106 225.097 134.633 225.149 134.337C225.207 134 225.283 134 225.435 134H241.565C241.717 134 241.793 134 241.851 134.337C241.903 134.633 241.944 135.106 241.97 135.688C242 136.349 242 137.214 242 138.945V146.055C242 147.786 242 148.651 241.97 149.312C241.944 149.894 241.903 150.367 241.851 150.663C241.793 151 241.717 151 241.565 151H225.435C225.283 151 225.207 151 225.149 150.663C225.097 150.367 225.056 149.894 225.03 149.312C225 148.651 225 147.786 225 146.055V138.945Z" fill="#E0E0E0"/>
<path d="M250 138.945C250 137.214 250 136.349 250.03 135.688C250.056 135.106 250.097 134.633 250.149 134.337C250.207 134 250.283 134 250.435 134H266.565C266.717 134 266.793 134 266.851 134.337C266.903 134.633 266.944 135.106 266.97 135.688C267 136.349 267 137.214 267 138.945V146.055C267 147.786 267 148.651 266.97 149.312C266.944 149.894 266.903 150.367 266.851 150.663C266.793 151 266.717 151 266.565 151H250.435C250.283 151 250.207 151 250.149 150.663C250.097 150.367 250.056 149.894 250.03 149.312C250 148.651 250 147.786 250 146.055V138.945Z" fill="#E0E0E0"/>
<mask id="mask0" mask-type="alpha" maskUnits="userSpaceOnUse" x="160" y="26" width="250" height="140">
<rect x="160" y="26" width="250" height="140" rx="2" fill="white"/>
</mask>
<g mask="url(#mask0)">
<circle cx="469.5" cy="95.5" r="146" stroke="#E1EAF7"/>
<circle cx="435" cy="121" r="120.5" stroke="#E1EAF7"/>
<circle cx="417.5" cy="114.5" r="127" stroke="#E1EAF7"/>
</g>
<path d="M428.728 164.163H422.465C422.465 164.163 415.576 169.173 416.202 174.809C416.829 180.445 404.93 229.294 404.93 235.557C404.93 241.819 402.425 243.698 402.425 247.456C402.425 251.213 403.677 253.718 402.425 255.597C401.172 257.476 398.667 268.749 399.293 273.132C399.657 276.044 399.657 278.989 399.293 281.9H414.95C414.95 281.9 426.223 243.698 428.728 241.819C431.233 239.941 432.485 236.809 432.485 234.93C432.485 233.052 431.233 233.052 434.364 230.547C437.495 228.041 435.616 216.769 435.616 216.769L440 205.496L428.728 164.163Z" fill="#D6D3E8"/>
<path d="M341.051 262.799C341.051 262.799 335.415 290.355 344.809 287.85C354.202 285.345 350.445 261.547 350.445 261.547L341.051 262.799Z" fill="#A0616A"/>
<path d="M361.091 255.284C361.091 255.284 353.576 265.304 353.576 270.941C353.576 276.577 351.071 326.678 351.071 326.678C351.071 326.678 337.293 390.557 341.051 394.314C344.808 398.072 356.081 403.708 357.96 401.83C359.839 399.951 372.99 331.688 372.99 331.688L388.647 289.728L403.051 349.85C403.051 349.85 402.425 401.83 404.93 402.456C407.435 403.082 408.687 403.708 407.435 406.213C406.182 408.719 404.303 413.729 404.303 413.729C404.303 413.729 419.96 417.486 423.091 414.981C426.223 412.476 426.849 351.729 423.091 330.436C419.334 309.143 423.717 260.294 423.717 260.294L361.091 255.284Z" fill="#2F2E41"/>
<path d="M383.95 134.102C394.326 134.102 402.738 125.69 402.738 115.314C402.738 104.938 394.326 96.5261 383.95 96.5261C373.574 96.5261 365.162 104.938 365.162 115.314C365.162 125.69 373.574 134.102 383.95 134.102Z" fill="#A0616A"/>
<path d="M378.313 127.213C378.313 127.213 380.818 140.365 378.313 144.122C375.808 147.88 412.132 145.375 412.132 145.375C412.132 145.375 394.596 125.334 396.475 121.577C398.354 117.819 378.313 127.213 378.313 127.213Z" fill="#A0616A"/>
<path d="M362.344 148.819C362.344 148.819 374.869 132.536 390.526 135.668C394.753 136.513 398.615 137.358 402 138.142C413.93 140.904 423.85 149.406 427.926 160.953C428.983 163.947 429.511 166.824 429.041 169.173C427.162 178.567 428.102 252.779 428.102 252.779C428.102 252.779 423.092 254.658 423.718 257.163C424.344 259.668 428.728 262.799 424.344 262.799C419.96 262.799 353.576 260.294 354.829 258.415C356.082 256.536 362.344 148.819 362.344 148.819Z" fill="#D0CDE1"/>
<path d="M368.606 148.819H362.343C362.343 148.819 355.454 153.829 356.08 159.466C356.707 165.102 344.807 213.951 344.807 220.213C344.807 226.476 342.302 228.355 342.302 232.112C342.302 235.87 343.555 238.375 342.302 240.254C341.05 242.132 338.545 253.405 339.171 257.789C339.535 260.7 339.535 263.645 339.171 266.557H354.828C354.828 266.557 366.1 228.355 368.606 226.476C371.111 224.597 372.363 221.466 372.363 219.587C372.363 217.708 371.111 217.708 374.242 215.203C377.373 212.698 375.494 201.425 375.494 201.425L379.878 190.152L368.606 148.819Z" fill="#D0CDE1"/>
<path opacity="0.1" d="M359.476 257.589L378.313 216.142L368.895 260.221L359.476 257.589Z" fill="black"/>
<path d="M377.395 86.9022L377.405 85.3519C378.7 85.1872 380.012 85.2332 381.292 85.4881C381.306 84.5522 381.112 83.625 380.723 82.7734C382.013 82.9431 383.268 83.3165 384.44 83.8796L384.872 81L396.089 84.9311C400.115 86.3422 404.371 87.9134 406.984 91.2861C409.897 95.0461 410.109 100.307 408.99 104.931C407.872 109.554 405.597 113.802 403.899 118.245C403.28 120.142 402.482 121.976 401.516 123.722C398.126 129.188 390.472 131.138 384.474 128.816C382.261 127.959 380.17 126.531 379.049 124.439C378.475 123.141 377.986 121.807 377.586 120.446C376.544 117.685 375.022 111.908 372.492 110.388C371.379 109.72 369.681 112.591 368.719 111.718C366.249 109.474 366.234 105.552 367.212 102.361C368.134 99.1628 369.286 96.0357 370.658 93.0039C371.247 91.7805 377.397 86.7162 377.395 86.9022Z" fill="#2F2E41"/>
<rect x="62" y="69" width="82" height="97" rx="2" fill="white"/>
<rect x="137.143" y="129" width="20" height="20" rx="2" transform="rotate(45 137.143 129)" fill="white"/>
<path d="M73 77.1636C73 76.7563 73 76.5527 73.0244 76.3971C73.0459 76.2603 73.0802 76.149 73.1223 76.0793C73.1702 76 73.2329 76 73.3584 76H86.6416C86.7671 76 86.8298 76 86.8777 76.0793C86.9198 76.149 86.9541 76.2603 86.9756 76.3971C87 76.5527 87 76.7563 87 77.1636V78.8364C87 79.2437 87 79.4473 86.9756 79.6029C86.9541 79.7397 86.9198 79.851 86.8777 79.9207C86.8298 80 86.7671 80 86.6416 80H73.3584C73.2329 80 73.1702 80 73.1223 79.9207C73.0802 79.851 73.0459 79.7397 73.0244 79.6029C73 79.4473 73 79.2437 73 78.8364V77.1636Z" fill="#424754"/>
<g filter="url(#filter0_d)">
<path d="M82.7255 110.29C82.2517 110.086 81.7008 110.305 81.5166 110.786C79.8755 115.079 79.5553 119.772 80.6094 124.26C81.7348 129.051 84.3673 133.354 88.12 136.538C91.8727 139.722 96.5477 141.618 101.458 141.948C106.368 142.278 111.255 141.024 115.4 138.371C119.545 135.718 122.729 131.805 124.486 127.208C126.242 122.61 126.477 117.571 125.157 112.83C123.837 108.089 121.031 103.896 117.151 100.868C113.517 98.0324 109.121 96.358 104.536 96.0513C104.021 96.0169 103.592 96.4258 103.578 96.9412C103.565 97.4567 103.972 97.8833 104.487 97.9196C108.672 98.2147 112.683 99.7502 116.002 102.341C119.567 105.123 122.145 108.975 123.358 113.331C124.571 117.687 124.355 122.317 122.741 126.541C121.128 130.765 118.202 134.361 114.393 136.798C110.585 139.236 106.095 140.388 101.583 140.085C97.0716 139.782 92.7761 138.04 89.3281 135.114C85.88 132.189 83.4613 128.235 82.4272 123.833C81.4645 119.734 81.7494 115.449 83.2338 111.524C83.4162 111.042 83.1993 110.493 82.7255 110.29Z" fill="#27AE60"/>
</g>
<path d="M96.0566 117.603C96.0566 117.029 96.0566 116.742 96.0801 116.522C96.1007 116.329 96.1337 116.172 96.1742 116.074C96.2202 115.962 96.2805 115.962 96.401 115.962H109.165C109.286 115.962 109.346 115.962 109.392 116.074C109.432 116.172 109.465 116.329 109.486 116.522C109.509 116.742 109.509 117.029 109.509 117.603V119.963C109.509 120.537 109.509 120.824 109.486 121.044C109.465 121.237 109.432 121.394 109.392 121.492C109.346 121.604 109.286 121.604 109.165 121.604H96.401C96.2805 121.604 96.2202 121.604 96.1742 121.492C96.1337 121.394 96.1007 121.237 96.0801 121.044C96.0566 120.824 96.0566 120.537 96.0566 119.963V117.603Z" fill="#424754"/>
<path d="M85.6416 148.273C85.6416 148.052 85.6416 147.941 85.7014 147.857C85.754 147.783 85.8379 147.722 85.9411 147.685C86.0584 147.642 86.212 147.642 86.5192 147.642H119.047C119.354 147.642 119.508 147.642 119.625 147.685C119.728 147.722 119.812 147.783 119.865 147.857C119.925 147.941 119.925 148.052 119.925 148.273V149.18C119.925 149.401 119.925 149.512 119.865 149.596C119.812 149.67 119.728 149.731 119.625 149.768C119.508 149.811 119.354 149.811 119.047 149.811H86.5192C86.212 149.811 86.0584 149.811 85.9411 149.768C85.8379 149.731 85.754 149.67 85.7014 149.596C85.6416 149.512 85.6416 149.401 85.6416 149.18V148.273Z" fill="#97999D"/>
<path d="M165 220.929H123V273.506H165V220.929Z" fill="#3F3D56"/>
<path d="M151 233H129V236H151V233Z" fill="white"/>
<path d="M159 244H129V246H159V244Z" fill="white"/>
<path d="M159 249H129V251H159V249Z" fill="white"/>
<path d="M159 254H129V256H159V254Z" fill="white"/>
<path d="M159 259H129V261H159V259Z" fill="white"/>
<path d="M147.036 220.183V218.82C147.036 218.072 146.738 217.355 146.209 216.826C145.68 216.297 144.962 216 144.214 216C143.466 216 142.749 216.297 142.219 216.826C141.69 217.355 141.393 218.072 141.392 218.82V220.183H136.04V223.199H152.389V220.183H147.036ZM144.214 216.777C144.542 216.777 144.861 216.874 145.133 217.056C145.405 217.237 145.617 217.496 145.743 217.798C145.868 218.1 145.901 218.433 145.837 218.754C145.773 219.075 145.615 219.37 145.384 219.601C145.153 219.832 144.858 219.99 144.537 220.054C144.216 220.117 143.884 220.085 143.581 219.96C143.279 219.834 143.021 219.622 142.839 219.35C142.657 219.078 142.56 218.758 142.56 218.431C142.56 218.214 142.603 217.999 142.686 217.798C142.769 217.597 142.891 217.415 143.045 217.261C143.198 217.108 143.381 216.986 143.581 216.903C143.782 216.82 143.997 216.777 144.214 216.777Z" fill="#F04B5D"/>
<path fill-rule="evenodd" clip-rule="evenodd" d="M249.45 70.8009C250.282 71.1333 251.047 71.4843 251.736 71.8477C253.121 72.5782 254.146 73.3327 254.784 74.0468C255.427 74.7662 255.583 75.3293 255.522 75.7399C255.462 76.1505 255.151 76.6449 254.328 77.1487C253.511 77.6487 252.312 78.0761 250.776 78.3767C249.895 78.5491 248.921 78.6762 247.872 78.754C247.611 79.1241 247.326 79.4758 247.019 79.8066C252.369 79.5625 256.181 78.1286 256.512 75.8855C256.829 73.7243 253.836 71.3515 249.097 69.5936C249.239 69.9852 249.357 70.3882 249.45 70.8009ZM231.65 67.0554C226.679 67.3905 223.189 68.7944 222.874 70.9362C222.547 73.1591 225.724 75.606 230.699 77.3773C230.502 76.9729 230.331 76.5533 230.189 76.1207C229.258 75.7589 228.407 75.374 227.649 74.9739C226.264 74.2435 225.239 73.4889 224.601 72.7749C223.958 72.0554 223.803 71.4923 223.863 71.0817C223.923 70.6711 224.234 70.1767 225.057 69.6729C225.874 69.173 227.073 68.7455 228.609 68.4449C229.335 68.3029 230.124 68.1916 230.966 68.1133C231.172 67.7457 231.401 67.3924 231.65 67.0554Z" fill="#8A8D95"/>
<path d="M249.692 73C249.692 78.5228 245.215 83 239.692 83C234.17 83 229.692 78.5228 229.692 73C229.692 67.4772 234.17 63 239.692 63C245.215 63 249.692 67.4772 249.692 73Z" fill="#424754"/>
<path d="M256.017 75.8126C255.926 76.4277 255.478 77.0307 254.589 77.5751C253.703 78.1175 252.44 78.5604 250.872 78.8673C247.739 79.4802 243.496 79.5295 238.892 78.8522C234.288 78.1748 230.239 76.9053 227.415 75.4161C226.002 74.6704 224.921 73.8827 224.228 73.108C223.533 72.3305 223.278 71.624 223.368 71.0089C223.459 70.3938 223.907 69.7908 224.796 69.2464C225.683 68.704 226.945 68.2611 228.513 67.9541C231.646 67.3412 235.89 67.292 240.493 67.9693C245.097 68.6467 249.146 69.9161 251.97 71.4054C253.383 72.1511 254.465 72.9388 255.157 73.7135C255.852 74.4909 256.107 75.1975 256.017 75.8126Z" stroke="#8A8D95"/>
<path d="M246.692 79C246.692 80.1046 245.797 81 244.692 81C243.588 81 242.692 80.1046 242.692 79C242.692 77.8954 243.588 77 244.692 77C245.797 77 246.692 77.8954 246.692 79Z" fill="#F04B5D"/>
<mask id="mask1" mask-type="alpha" maskUnits="userSpaceOnUse" x="229" y="63" width="21" height="20">
<path d="M249.692 73C249.692 78.5228 245.215 83 239.692 83C234.17 83 229.692 78.5228 229.692 73C229.692 67.4772 234.17 63 239.692 63C245.215 63 249.692 67.4772 249.692 73Z" fill="#424754"/>
</mask>
<g mask="url(#mask1)">
<rect x="227.692" y="60" width="23" height="14" fill="#424754"/>
</g>
<path d="M328 69C328 70.1046 327.105 71 326 71C324.895 71 324 70.1046 324 69C324 67.8954 324.895 67 326 67C327.105 67 328 67.8954 328 69Z" fill="#424754"/>
<path d="M293 104C293 105.105 292.105 106 291 106C289.895 106 289 105.105 289 104C289 102.895 289.895 102 291 102C292.105 102 293 102.895 293 104Z" fill="#424754"/>
<path d="M319 146C319 147.105 318.105 148 317 148C315.895 148 315 147.105 315 146C315 144.895 315.895 144 317 144C318.105 144 319 144.895 319 146Z" fill="#424754"/>
<rect x="226" y="269" width="79" height="10" fill="#3F3D56"/>
<rect x="231" y="248" width="4" height="21" fill="#424754"/>
<rect x="296" y="248" width="4" height="21" fill="#424754"/>
<rect x="273" y="253" width="23" height="2" fill="#E0E0E0"/>
<rect x="235" y="253" width="23" height="2" fill="#E0E0E0"/>
<circle cx="265.5" cy="253.5" r="8" stroke="#F04B5D" stroke-width="3"/>
</g>
<path d="M571.674 195H579.162V193.452H573.456V182.292H571.674V195ZM579.879 190.446C579.879 193.146 581.859 195.216 584.721 195.216C585.981 195.216 587.367 194.73 588.249 193.92L587.511 192.642C586.791 193.29 585.801 193.704 584.829 193.704C583.191 193.704 581.787 192.642 581.697 190.68H588.321C588.357 190.428 588.393 190.176 588.393 189.942C588.393 187.602 587.025 185.676 584.451 185.676C581.859 185.676 579.879 187.548 579.879 190.446ZM581.751 189.42C582.003 187.908 583.065 187.026 584.415 187.026C585.603 187.026 586.575 187.854 586.629 189.42H581.751ZM589.737 192.516C589.737 194.226 591.195 195.216 592.779 195.216C594.129 195.216 595.245 194.406 595.767 193.362H595.803C595.803 193.362 595.749 193.668 595.749 194.082V195H597.387V189.24C597.387 186.936 596.073 185.676 593.787 185.676C592.509 185.676 591.123 186.144 590.385 186.756L591.087 188.034C591.825 187.512 592.743 187.152 593.643 187.152C594.777 187.152 595.641 187.656 595.641 189.15V189.33H595.173C593.283 189.33 589.737 189.654 589.737 192.516ZM591.483 192.372C591.483 190.698 593.895 190.59 595.191 190.59H595.641V190.932C595.641 192.282 594.723 193.83 593.193 193.83C592.059 193.83 591.483 193.092 591.483 192.372ZM599.985 195H601.731V191.22C601.731 189.456 602.559 187.512 604.521 187.512C604.701 187.512 604.953 187.53 605.025 187.548V185.82C604.881 185.802 604.719 185.784 604.557 185.784C603.153 185.784 602.091 186.882 601.659 188.196H601.623C601.623 188.196 601.677 187.908 601.677 187.53V185.892H599.985V195ZM606.752 195H608.498V190.626C608.498 188.754 609.758 187.278 611.54 187.278C612.998 187.278 613.25 188.286 613.25 189.564V195H614.996V189.168C614.996 186.846 614.024 185.676 611.882 185.676C609.884 185.676 608.768 187.026 608.426 187.818H608.39C608.39 187.818 608.444 187.512 608.444 187.134V185.892H606.752V195ZM622.124 191.67C622.124 194.712 624.446 195.09 625.616 195.09C625.886 195.09 626.084 195.054 626.228 195.036V193.488C626.048 193.524 625.94 193.524 625.814 193.524C625.148 193.524 623.87 193.29 623.87 191.472V187.404H626.066V185.982H623.87V183.39H622.16V185.982H620.936V187.404H622.124V191.67ZM628.022 195H629.768V190.68C629.768 188.718 631.046 187.278 632.81 187.278C634.268 187.278 634.52 188.286 634.52 189.564V195H636.266V189.168C636.266 186.846 635.294 185.676 633.152 185.676C631.334 185.676 630.146 186.9 629.732 187.764H629.696C629.696 187.764 629.768 187.44 629.768 187.008V182.292H628.022V195ZM638.274 190.446C638.274 193.146 640.254 195.216 643.116 195.216C644.376 195.216 645.762 194.73 646.644 193.92L645.906 192.642C645.186 193.29 644.196 193.704 643.224 193.704C641.586 193.704 640.182 192.642 640.092 190.68H646.716C646.752 190.428 646.788 190.176 646.788 189.942C646.788 187.602 645.42 185.676 642.846 185.676C640.254 185.676 638.274 187.548 638.274 190.446ZM640.146 189.42C640.398 187.908 641.46 187.026 642.81 187.026C643.998 187.026 644.97 187.854 645.024 189.42H640.146ZM653.387 195H655.025V194.262C655.025 193.848 654.971 193.578 654.971 193.578H655.007C655.601 194.604 656.717 195.216 657.905 195.216C660.317 195.216 662.045 193.344 662.045 190.446C662.045 187.62 660.515 185.676 658.049 185.676C656.789 185.676 655.637 186.306 655.097 187.278H655.061C655.061 187.278 655.133 186.954 655.133 186.504V182.292H653.387V195ZM655.079 190.482C655.079 188.178 656.339 187.206 657.707 187.206C659.219 187.206 660.281 188.484 660.281 190.464C660.281 192.534 659.093 193.704 657.653 193.704C655.925 193.704 655.079 192.102 655.079 190.482ZM663.442 192.516C663.442 194.226 664.9 195.216 666.484 195.216C667.834 195.216 668.95 194.406 669.472 193.362H669.508C669.508 193.362 669.454 193.668 669.454 194.082V195H671.092V189.24C671.092 186.936 669.778 185.676 667.492 185.676C666.214 185.676 664.828 186.144 664.09 186.756L664.792 188.034C665.53 187.512 666.448 187.152 667.348 187.152C668.482 187.152 669.346 187.656 669.346 189.15V189.33H668.878C666.988 189.33 663.442 189.654 663.442 192.516ZM665.188 192.372C665.188 190.698 667.6 190.59 668.896 190.59H669.346V190.932C669.346 192.282 668.428 193.83 666.898 193.83C665.764 193.83 665.188 193.092 665.188 192.372ZM672.916 193.884C673.816 194.802 675.166 195.216 676.39 195.216C678.334 195.216 679.666 194.082 679.666 192.534C679.666 189.528 674.968 190.05 674.968 188.268C674.968 187.494 675.634 187.134 676.516 187.134C677.326 187.134 678.28 187.44 678.82 187.944L679.522 186.684C678.73 185.964 677.614 185.676 676.57 185.676C674.788 185.676 673.294 186.576 673.294 188.304C673.294 191.292 677.974 190.824 677.974 192.57C677.974 193.326 677.344 193.758 676.426 193.758C675.472 193.758 674.428 193.362 673.744 192.696L672.916 193.884ZM681.705 184.056H683.505V182.292H681.705V184.056ZM681.741 195H683.487V185.892H681.741V195ZM685.576 190.446C685.576 193.182 687.574 195.216 690.454 195.216C691.876 195.216 693.262 194.64 694.09 193.758L693.388 192.48C692.686 193.218 691.588 193.704 690.58 193.704C688.69 193.704 687.358 192.282 687.358 190.428C687.358 188.574 688.69 187.188 690.526 187.188C691.48 187.188 692.434 187.62 693.046 188.232L693.874 187.008C693.01 186.09 691.66 185.676 690.454 185.676C687.592 185.676 685.576 187.746 685.576 190.446ZM695.205 193.884C696.105 194.802 697.455 195.216 698.679 195.216C700.623 195.216 701.955 194.082 701.955 192.534C701.955 189.528 697.257 190.05 697.257 188.268C697.257 187.494 697.923 187.134 698.805 187.134C699.615 187.134 700.569 187.44 701.109 187.944L701.811 186.684C701.019 185.964 699.903 185.676 698.859 185.676C697.077 185.676 695.583 186.576 695.583 188.304C695.583 191.292 700.263 190.824 700.263 192.57C700.263 193.326 699.633 193.758 698.715 193.758C697.761 193.758 696.717 193.362 696.033 192.696L695.205 193.884ZM707.936 190.428C707.936 193.2 710.132 195.216 712.85 195.216C715.55 195.216 717.746 193.2 717.746 190.428C717.746 187.674 715.55 185.676 712.832 185.676C710.132 185.676 707.936 187.674 707.936 190.428ZM709.718 190.428C709.718 188.538 711.122 187.188 712.85 187.188C714.56 187.188 715.982 188.538 715.982 190.428C715.982 192.336 714.56 193.704 712.85 193.704C711.122 193.704 709.718 192.336 709.718 190.428ZM720.177 195H721.923V187.404H724.065V185.982H721.923V185.604C721.923 183.93 723.147 183.732 723.831 183.732C724.029 183.732 724.209 183.75 724.281 183.768V182.256C724.047 182.22 723.849 182.202 723.615 182.202C722.463 182.202 720.177 182.58 720.177 185.586V185.982H719.043V187.404H720.177V195ZM730.281 195H732.063V190.302H734.943C737.265 190.302 738.921 188.682 738.921 186.27C738.921 183.858 737.265 182.292 734.943 182.292H730.281V195ZM732.063 188.754V183.84H734.673C736.167 183.84 737.121 184.758 737.121 186.27C737.121 187.8 736.167 188.754 734.655 188.754H732.063ZM740.873 195H742.619V190.68C742.619 188.718 743.897 187.278 745.661 187.278C747.119 187.278 747.371 188.286 747.371 189.564V195H749.117V189.168C749.117 186.846 748.145 185.676 746.003 185.676C744.185 185.676 742.997 186.9 742.583 187.764H742.547C742.547 187.764 742.619 187.44 742.619 187.008V182.292H740.873V195ZM751.129 196.89L750.517 198.222C750.517 198.222 751.255 198.78 752.263 198.78C753.541 198.78 754.675 198.06 755.215 196.638L759.499 185.892H757.609L755.395 191.868C755.233 192.336 755.089 192.948 755.089 192.948H755.053C755.053 192.948 754.891 192.3 754.711 191.85L752.425 185.892H750.463L754.279 194.892L753.829 195.936C753.487 196.764 752.893 197.286 752.173 197.286C751.633 197.286 751.129 196.89 751.129 196.89ZM760.244 193.884C761.144 194.802 762.494 195.216 763.718 195.216C765.662 195.216 766.994 194.082 766.994 192.534C766.994 189.528 762.296 190.05 762.296 188.268C762.296 187.494 762.962 187.134 763.844 187.134C764.654 187.134 765.608 187.44 766.148 187.944L766.85 186.684C766.058 185.964 764.942 185.676 763.898 185.676C762.116 185.676 760.622 186.576 760.622 188.304C760.622 191.292 765.302 190.824 765.302 192.57C765.302 193.326 764.672 193.758 763.754 193.758C762.8 193.758 761.756 193.362 761.072 192.696L760.244 193.884ZM769.033 184.056H770.833V182.292H769.033V184.056ZM769.069 195H770.815V185.892H769.069V195ZM772.904 190.446C772.904 193.182 774.902 195.216 777.782 195.216C779.204 195.216 780.59 194.64 781.418 193.758L780.716 192.48C780.014 193.218 778.916 193.704 777.908 193.704C776.018 193.704 774.686 192.282 774.686 190.428C774.686 188.574 776.018 187.188 777.854 187.188C778.808 187.188 779.762 187.62 780.374 188.232L781.202 187.008C780.338 186.09 778.988 185.676 777.782 185.676C774.92 185.676 772.904 187.746 772.904 190.446ZM782.533 193.884C783.433 194.802 784.783 195.216 786.007 195.216C787.951 195.216 789.283 194.082 789.283 192.534C789.283 189.528 784.585 190.05 784.585 188.268C784.585 187.494 785.251 187.134 786.133 187.134C786.943 187.134 787.897 187.44 788.437 187.944L789.139 186.684C788.347 185.964 787.231 185.676 786.187 185.676C784.405 185.676 782.911 186.576 782.911 188.304C782.911 191.292 787.591 190.824 787.591 192.57C787.591 193.326 786.961 193.758 786.043 193.758C785.089 193.758 784.045 193.362 783.361 192.696L782.533 193.884ZM795.264 190.446C795.264 193.146 797.244 195.216 800.106 195.216C801.366 195.216 802.752 194.73 803.634 193.92L802.896 192.642C802.176 193.29 801.186 193.704 800.214 193.704C798.576 193.704 797.172 192.642 797.082 190.68H803.706C803.742 190.428 803.778 190.176 803.778 189.942C803.778 187.602 802.41 185.676 799.836 185.676C797.244 185.676 795.264 187.548 795.264 190.446ZM797.136 189.42C797.388 187.908 798.45 187.026 799.8 187.026C800.988 187.026 801.96 187.854 802.014 189.42H797.136ZM805.121 192.516C805.121 194.226 806.579 195.216 808.163 195.216C809.513 195.216 810.629 194.406 811.151 193.362H811.187C811.187 193.362 811.133 193.668 811.133 194.082V195H812.771V189.24C812.771 186.936 811.457 185.676 809.171 185.676C807.893 185.676 806.507 186.144 805.769 186.756L806.471 188.034C807.209 187.512 808.127 187.152 809.027 187.152C810.161 187.152 811.025 187.656 811.025 189.15V189.33H810.557C808.667 189.33 805.121 189.654 805.121 192.516ZM806.867 192.372C806.867 190.698 809.279 190.59 810.575 190.59H811.025V190.932C811.025 192.282 810.107 193.83 808.577 193.83C807.443 193.83 806.867 193.092 806.867 192.372ZM814.596 193.884C815.496 194.802 816.846 195.216 818.07 195.216C820.014 195.216 821.346 194.082 821.346 192.534C821.346 189.528 816.648 190.05 816.648 188.268C816.648 187.494 817.314 187.134 818.196 187.134C819.006 187.134 819.96 187.44 820.5 187.944L821.202 186.684C820.41 185.964 819.294 185.676 818.25 185.676C816.468 185.676 814.974 186.576 814.974 188.304C814.974 191.292 819.654 190.824 819.654 192.57C819.654 193.326 819.024 193.758 818.106 193.758C817.152 193.758 816.108 193.362 815.424 192.696L814.596 193.884ZM823.384 184.056H825.184V182.292H823.384V184.056ZM823.42 195H825.166V185.892H823.42V195ZM827.85 192.498C827.85 194.802 829.29 195.09 830.298 195.09C830.55 195.09 830.748 195.054 830.874 195.036V193.488C830.766 193.506 830.64 193.506 830.568 193.506C830.028 193.506 829.578 193.29 829.578 192.21V182.292H827.85V192.498ZM832.041 196.89L831.429 198.222C831.429 198.222 832.167 198.78 833.175 198.78C834.453 198.78 835.587 198.06 836.127 196.638L840.411 185.892H838.521L836.307 191.868C836.145 192.336 836.001 192.948 836.001 192.948H835.965C835.965 192.948 835.803 192.3 835.623 191.85L833.337 185.892H831.375L835.191 194.892L834.741 195.936C834.399 196.764 833.805 197.286 833.085 197.286C832.545 197.286 832.041 196.89 832.041 196.89Z" fill="#424754"/>
<defs>
<filter id="filter0_d" x="60" y="80.0493" width="86" height="85.9507" filterUnits="userSpaceOnUse" color-interpolation-filters="sRGB">
<feFlood flood-opacity="0" result="BackgroundImageFix"/>
<feColorMatrix in="SourceAlpha" type="matrix" values="0 0 0 0 0 0 0 0 0 0 0 0 0 0 0 0 0 0 127 0"/>
<feOffset dy="4"/>
<feGaussianBlur stdDeviation="10"/>
<feColorMatrix type="matrix" values="0 0 0 0 0 0 0 0 0 0 0 0 0 0 0 0 0 0 0.19 0"/>
<feBlend mode="normal" in2="BackgroundImageFix" result="effect1_dropShadow"/>
<feBlend mode="normal" in="SourceGraphic" in2="effect1_dropShadow" result="shape"/>
</filter>
<clipPath id="clip0">
<rect width="509" height="298" fill="white"/>
</clipPath>
</defs>
</svg>
