<svg width="1034" height="267" viewBox="0 0 1034 267" fill="none" xmlns="http://www.w3.org/2000/svg">
<path d="M6.732 90H13.824L17.064 77.004C17.46 75.348 17.568 73.98 17.568 73.98H17.64C17.64 73.98 17.748 75.348 18.144 77.004L21.384 90H28.404L34.92 64.26H28.404L24.876 80.352C24.552 81.936 24.552 83.052 24.552 83.052H24.48C24.48 83.052 24.444 81.936 24.048 80.352L20.196 64.26H15.12L11.16 80.352C10.764 81.936 10.728 83.052 10.728 83.052H10.656C10.656 83.052 10.656 81.936 10.332 80.352L7.092 64.26H0.468L6.732 90ZM34.8995 80.712C34.8995 85.644 38.4635 90.432 45.0875 90.432C47.9315 90.432 50.9915 89.46 53.0075 87.732L50.7035 83.376C49.1915 84.384 47.4275 85.248 45.5915 85.248C43.6115 85.248 41.7395 84.204 41.2715 81.936H52.9715C53.0435 81.288 53.1155 80.64 53.1155 79.992C53.1155 74.844 50.0195 71.028 44.5475 71.028C38.5715 71.028 34.8995 75.276 34.8995 80.712ZM41.4155 78.372C41.7395 76.896 42.6035 75.6 44.4035 75.6C45.9875 75.6 46.9595 76.86 46.9595 78.372H41.4155ZM65.0177 90H71.2457V82.152C71.2457 79.596 71.9657 76.68 74.8097 76.68C75.9977 76.68 76.2497 77.652 76.2497 79.02V90H82.4777V82.152C82.4777 79.38 83.3417 76.68 86.0417 76.68C87.2297 76.68 87.4817 77.652 87.4817 79.02V90H93.7097V77.976C93.7097 72.864 91.0817 71.028 87.6977 71.028C84.9257 71.028 82.7297 72.612 81.7577 74.16H81.6857C80.7137 72.072 78.8417 71.028 76.5017 71.028C73.5857 71.028 71.8577 72.936 70.9937 74.232H70.9217C70.9217 74.232 70.9937 73.692 70.9937 73.08V71.46H65.0177V90ZM96.7042 80.784C96.7042 86.58 101.384 90.432 107.216 90.432C113.048 90.432 117.728 86.58 117.728 80.784C117.728 74.952 113.048 71.028 107.18 71.028C101.384 71.028 96.7042 74.952 96.7042 80.784ZM103.004 80.784C103.004 77.976 104.948 76.212 107.216 76.212C109.484 76.212 111.428 77.976 111.428 80.784C111.428 83.556 109.484 85.248 107.216 85.248C104.948 85.248 103.004 83.556 103.004 80.784ZM120.846 90H127.074V81.612C127.074 78.984 128.334 76.68 131.106 76.68C132.474 76.68 133.158 77.4 133.158 79.128V90H139.386V77.976C139.386 72.756 136.47 71.028 132.726 71.028C129.45 71.028 127.686 72.792 126.822 74.232H126.75C126.75 74.232 126.822 73.692 126.822 73.08V71.46H120.846V90ZM143.453 69.12H149.537V64.26H143.453V69.12ZM143.381 90H149.609V71.46H143.381V90ZM154.867 83.16C154.867 89.388 160.591 90.18 163.543 90.18C164.263 90.18 164.767 90.108 165.235 90.072V84.672C164.839 84.708 164.623 84.708 164.407 84.708C163.219 84.708 161.095 84.42 161.095 82.332V76.644H164.983V71.784H161.095V66.456H155.047V71.784H152.491V76.644H154.867V83.16ZM167.403 80.784C167.403 86.58 172.083 90.432 177.915 90.432C183.747 90.432 188.427 86.58 188.427 80.784C188.427 74.952 183.747 71.028 177.879 71.028C172.083 71.028 167.403 74.952 167.403 80.784ZM173.703 80.784C173.703 77.976 175.647 76.212 177.915 76.212C180.183 76.212 182.127 77.976 182.127 80.784C182.127 83.556 180.183 85.248 177.915 85.248C175.647 85.248 173.703 83.556 173.703 80.784ZM191.545 90H197.773V82.8C197.773 79.416 199.429 77.22 202.885 77.22C203.317 77.22 203.929 77.256 204.145 77.328V71.208C203.929 71.172 203.677 71.136 203.425 71.136C200.653 71.136 198.313 73.224 197.521 75.744H197.449C197.449 75.744 197.521 75.204 197.521 74.592V71.46H191.545V90ZM214.401 91.692L212.421 96.264C212.421 96.264 214.293 97.56 216.741 97.56C219.693 97.56 222.933 96.12 224.481 91.98L232.077 71.46H225.273L222.933 80.1C222.681 81.108 222.321 82.872 222.321 82.872H222.249C222.249 82.872 221.889 81 221.565 79.992L218.829 71.46H211.773L219.657 89.64L219.297 90.504C218.649 92.088 217.317 92.376 216.309 92.376C215.409 92.376 214.401 91.692 214.401 91.692ZM232.724 80.784C232.724 86.58 237.404 90.432 243.236 90.432C249.068 90.432 253.748 86.58 253.748 80.784C253.748 74.952 249.068 71.028 243.2 71.028C237.404 71.028 232.724 74.952 232.724 80.784ZM239.024 80.784C239.024 77.976 240.968 76.212 243.236 76.212C245.504 76.212 247.448 77.976 247.448 80.784C247.448 83.556 245.504 85.248 243.236 85.248C240.968 85.248 239.024 83.556 239.024 80.784ZM256.685 83.484C256.685 88.704 259.601 90.432 263.273 90.432C265.757 90.432 268.061 89.208 269.069 87.228H269.141C269.141 87.228 269.069 87.768 269.069 88.38V90H275.045V71.46H268.817V79.668C268.817 82.44 267.557 84.78 264.893 84.78C263.597 84.78 262.913 84.06 262.913 82.332V71.46H256.685V83.484ZM279.225 90H285.453V82.8C285.453 79.416 287.109 77.22 290.565 77.22C290.997 77.22 291.609 77.256 291.825 77.328V71.208C291.609 71.172 291.357 71.136 291.105 71.136C288.333 71.136 285.993 73.224 285.201 75.744H285.129C285.129 75.744 285.201 75.204 285.201 74.592V71.46H279.225V90ZM302.85 97.2H309.078V90.252C309.078 89.316 309.006 88.668 309.006 88.668H309.078C310.41 89.82 312.066 90.432 313.794 90.432C318.726 90.432 322.434 86.616 322.434 80.748C322.434 74.988 319.122 71.028 314.082 71.028C311.85 71.028 309.726 71.892 308.466 73.584H308.394C308.394 73.584 308.466 73.008 308.466 72.396V71.46H302.85V97.2ZM308.898 80.856C308.898 77.652 310.662 76.284 312.534 76.284C314.694 76.284 316.17 78.084 316.17 80.856C316.17 83.7 314.478 85.284 312.534 85.284C310.086 85.284 308.898 83.088 308.898 80.856ZM325.631 90H331.859V82.8C331.859 79.416 333.515 77.22 336.971 77.22C337.403 77.22 338.015 77.256 338.231 77.328V71.208C338.015 71.172 337.763 71.136 337.511 71.136C334.739 71.136 332.399 73.224 331.607 75.744H331.535C331.535 75.744 331.607 75.204 331.607 74.592V71.46H325.631V90ZM339.774 80.784C339.774 86.58 344.454 90.432 350.286 90.432C356.118 90.432 360.798 86.58 360.798 80.784C360.798 74.952 356.118 71.028 350.25 71.028C344.454 71.028 339.774 74.952 339.774 80.784ZM346.074 80.784C346.074 77.976 348.018 76.212 350.286 76.212C352.554 76.212 354.498 77.976 354.498 80.784C354.498 83.556 352.554 85.248 350.286 85.248C348.018 85.248 346.074 83.556 346.074 80.784ZM366.508 91.188L364.744 95.904C366.544 96.84 369.28 97.56 371.764 97.56C376.84 97.56 382.24 95.076 382.24 88.308V71.46H376.408V72.396C376.408 72.612 376.444 72.828 376.444 72.828H376.336C375.04 71.532 373.06 71.028 371.296 71.028C365.68 71.028 362.98 75.42 362.98 80.136C362.98 84.888 365.752 89.46 371.332 89.46C373.492 89.46 374.896 88.812 375.976 87.516H376.048C376.048 87.516 376.012 87.984 376.012 88.2V88.812C376.012 91.548 373.96 92.376 371.728 92.376C369.856 92.376 368.056 91.944 366.508 91.188ZM369.244 79.92C369.244 77.796 370.36 76.212 372.556 76.212C374.428 76.212 376.156 76.932 376.156 80.208C376.156 83.448 374.428 84.276 372.808 84.276C370.324 84.276 369.244 82.224 369.244 79.92ZM386.416 90H392.644V82.8C392.644 79.416 394.3 77.22 397.756 77.22C398.188 77.22 398.8 77.256 399.016 77.328V71.208C398.8 71.172 398.548 71.136 398.296 71.136C395.524 71.136 393.184 73.224 392.392 75.744H392.32C392.32 75.744 392.392 75.204 392.392 74.592V71.46H386.416V90ZM400.7 80.712C400.7 85.644 404.264 90.432 410.888 90.432C413.732 90.432 416.792 89.46 418.808 87.732L416.504 83.376C414.992 84.384 413.228 85.248 411.392 85.248C409.412 85.248 407.54 84.204 407.072 81.936H418.772C418.844 81.288 418.916 80.64 418.916 79.992C418.916 74.844 415.82 71.028 410.348 71.028C404.372 71.028 400.7 75.276 400.7 80.712ZM407.216 78.372C407.54 76.896 408.404 75.6 410.204 75.6C411.788 75.6 412.76 76.86 412.76 78.372H407.216ZM420.766 87.696C422.818 89.532 425.662 90.432 428.326 90.432C433.078 90.432 435.958 87.804 435.958 84.348C435.958 78.336 427.282 78.804 427.282 76.86C427.282 76.356 427.678 75.96 429.01 75.96C430.594 75.96 432.61 76.608 433.69 77.472L435.814 73.152C433.942 71.64 431.566 71.028 429.19 71.028C424.906 71.028 421.486 73.08 421.486 76.896C421.486 82.98 430.162 82.548 430.162 84.528C430.162 85.104 429.73 85.5 428.47 85.5C426.706 85.5 424.798 84.78 423.43 83.628L420.766 87.696ZM437.711 87.696C439.763 89.532 442.607 90.432 445.271 90.432C450.023 90.432 452.903 87.804 452.903 84.348C452.903 78.336 444.227 78.804 444.227 76.86C444.227 76.356 444.623 75.96 445.955 75.96C447.539 75.96 449.555 76.608 450.635 77.472L452.759 73.152C450.887 71.64 448.511 71.028 446.135 71.028C441.851 71.028 438.431 73.08 438.431 76.896C438.431 82.98 447.107 82.548 447.107 84.528C447.107 85.104 446.675 85.5 445.415 85.5C443.651 85.5 441.743 84.78 440.375 83.628L437.711 87.696ZM0.792 126.78C0.792 129.984 3.276 132.432 6.84 132.432C8.964 132.432 11.124 131.46 12.348 129.732H12.42C12.42 129.732 12.348 130.272 12.348 130.884V132H18.036V120.588C18.036 115.872 14.868 113.028 9.756 113.028C6.732 113.028 3.492 114.216 1.908 115.44L4.068 119.832C5.544 118.86 7.38 118.068 9.18 118.068C10.548 118.068 11.808 118.572 11.808 120.12V120.444H11.268C6.696 120.444 0.792 121.812 0.792 126.78ZM6.948 126.204C6.948 124.512 9.396 124.008 11.304 124.008H11.88V124.512C11.88 126.024 10.512 127.788 8.712 127.788C7.56 127.788 6.948 127.068 6.948 126.204ZM21.9864 132H28.2144V123.612C28.2144 120.984 29.4744 118.68 32.2464 118.68C33.6144 118.68 34.2984 119.4 34.2984 121.128V132H40.5264V119.976C40.5264 114.756 37.6104 113.028 33.8664 113.028C30.5904 113.028 28.8264 114.792 27.9624 116.232H27.8904C27.8904 116.232 27.9624 115.692 27.9624 115.08V113.46H21.9864V132ZM43.5496 122.712C43.5496 128.472 46.8616 132.432 51.9016 132.432C54.0976 132.432 56.1136 131.496 57.2656 129.732H57.3376C57.3376 129.732 57.3016 130.2 57.3016 130.776V132H63.1336V106.26H56.9056V113.676C56.9056 114.144 56.9416 114.504 56.9416 114.504H56.8696C55.6456 113.28 53.6656 113.028 52.0096 113.028C47.0776 113.028 43.5496 116.844 43.5496 122.712ZM49.8136 122.712C49.8136 119.868 51.5056 118.284 53.4496 118.284C55.8976 118.284 57.0856 120.48 57.0856 122.712C57.0856 125.916 55.3216 127.284 53.4496 127.284C51.2896 127.284 49.8136 125.484 49.8136 122.712ZM75.0068 126.78C75.0068 129.984 77.4908 132.432 81.0548 132.432C83.1788 132.432 85.3388 131.46 86.5628 129.732H86.6348C86.6348 129.732 86.5628 130.272 86.5628 130.884V132H92.2508V120.588C92.2508 115.872 89.0828 113.028 83.9708 113.028C80.9468 113.028 77.7068 114.216 76.1228 115.44L78.2828 119.832C79.7588 118.86 81.5948 118.068 83.3948 118.068C84.7628 118.068 86.0228 118.572 86.0228 120.12V120.444H85.4828C80.9108 120.444 75.0068 121.812 75.0068 126.78ZM81.1628 126.204C81.1628 124.512 83.6108 124.008 85.5188 124.008H86.0948V124.512C86.0948 126.024 84.7268 127.788 82.9268 127.788C81.7748 127.788 81.1628 127.068 81.1628 126.204ZM96.1653 125.16C96.1653 131.388 99.6933 132.18 103.005 132.18C103.797 132.18 104.445 132.108 104.877 132.072V126.672C104.589 126.708 104.301 126.708 104.121 126.708C102.717 126.708 102.393 126.096 102.393 124.332V106.26H96.1653V125.16ZM111.049 132H118.069L120.157 123.432C120.409 122.424 120.517 121.452 120.517 121.452H120.589C120.589 121.452 120.697 122.424 120.949 123.432L123.037 132H129.985L135.169 113.46H128.689L126.385 124.404C126.169 125.412 126.133 126.348 126.133 126.348H126.061C126.061 126.348 126.025 125.412 125.773 124.404L123.217 113.46H117.889L115.333 124.404C115.081 125.412 115.009 126.348 115.009 126.348H114.937C114.937 126.348 114.937 125.412 114.721 124.404L112.417 113.46H105.865L111.049 132ZM136.144 126.78C136.144 129.984 138.628 132.432 142.192 132.432C144.316 132.432 146.476 131.46 147.7 129.732H147.772C147.772 129.732 147.7 130.272 147.7 130.884V132H153.388V120.588C153.388 115.872 150.22 113.028 145.108 113.028C142.084 113.028 138.844 114.216 137.26 115.44L139.42 119.832C140.896 118.86 142.732 118.068 144.532 118.068C145.9 118.068 147.16 118.572 147.16 120.12V120.444H146.62C142.048 120.444 136.144 121.812 136.144 126.78ZM142.3 126.204C142.3 124.512 144.748 124.008 146.656 124.008H147.232V124.512C147.232 126.024 145.864 127.788 144.064 127.788C142.912 127.788 142.3 127.068 142.3 126.204ZM157.166 133.692L155.186 138.264C155.186 138.264 157.058 139.56 159.506 139.56C162.458 139.56 165.698 138.12 167.246 133.98L174.842 113.46H168.038L165.698 122.1C165.446 123.108 165.086 124.872 165.086 124.872H165.014C165.014 124.872 164.654 123 164.33 121.992L161.594 113.46H154.538L162.422 131.64L162.062 132.504C161.414 134.088 160.082 134.376 159.074 134.376C158.174 134.376 157.166 133.692 157.166 133.692ZM175.375 129.696C177.427 131.532 180.271 132.432 182.935 132.432C187.687 132.432 190.567 129.804 190.567 126.348C190.567 120.336 181.891 120.804 181.891 118.86C181.891 118.356 182.287 117.96 183.619 117.96C185.203 117.96 187.219 118.608 188.299 119.472L190.423 115.152C188.551 113.64 186.175 113.028 183.799 113.028C179.515 113.028 176.095 115.08 176.095 118.896C176.095 124.98 184.771 124.548 184.771 126.528C184.771 127.104 184.339 127.5 183.079 127.5C181.315 127.5 179.407 126.78 178.039 125.628L175.375 129.696ZM202.725 132H208.953V124.8C208.953 121.416 210.609 119.22 214.065 119.22C214.497 119.22 215.109 119.256 215.325 119.328V113.208C215.109 113.172 214.857 113.136 214.605 113.136C211.833 113.136 209.493 115.224 208.701 117.744H208.629C208.629 117.744 208.701 117.204 208.701 116.592V113.46H202.725V132ZM217.009 122.712C217.009 127.644 220.573 132.432 227.197 132.432C230.041 132.432 233.101 131.46 235.117 129.732L232.813 125.376C231.301 126.384 229.537 127.248 227.701 127.248C225.721 127.248 223.849 126.204 223.381 123.936H235.081C235.153 123.288 235.225 122.64 235.225 121.992C235.225 116.844 232.129 113.028 226.657 113.028C220.681 113.028 217.009 117.276 217.009 122.712ZM223.525 120.372C223.849 118.896 224.713 117.6 226.513 117.6C228.097 117.6 229.069 118.86 229.069 120.372H223.525ZM237.183 126.78C237.183 129.984 239.667 132.432 243.231 132.432C245.355 132.432 247.515 131.46 248.739 129.732H248.811C248.811 129.732 248.739 130.272 248.739 130.884V132H254.427V120.588C254.427 115.872 251.259 113.028 246.147 113.028C243.123 113.028 239.883 114.216 238.299 115.44L240.459 119.832C241.935 118.86 243.771 118.068 245.571 118.068C246.939 118.068 248.199 118.572 248.199 120.12V120.444H247.659C243.087 120.444 237.183 121.812 237.183 126.78ZM243.339 126.204C243.339 124.512 245.787 124.008 247.695 124.008H248.271V124.512C248.271 126.024 246.903 127.788 245.103 127.788C243.951 127.788 243.339 127.068 243.339 126.204ZM257.405 122.712C257.405 128.472 260.717 132.432 265.757 132.432C267.953 132.432 269.969 131.496 271.121 129.732H271.193C271.193 129.732 271.157 130.2 271.157 130.776V132H276.989V106.26H270.761V113.676C270.761 114.144 270.797 114.504 270.797 114.504H270.725C269.501 113.28 267.521 113.028 265.865 113.028C260.933 113.028 257.405 116.844 257.405 122.712ZM263.669 122.712C263.669 119.868 265.361 118.284 267.305 118.284C269.753 118.284 270.941 120.48 270.941 122.712C270.941 125.916 269.177 127.284 267.305 127.284C265.145 127.284 263.669 125.484 263.669 122.712ZM281.338 133.692L279.358 138.264C279.358 138.264 281.23 139.56 283.678 139.56C286.63 139.56 289.87 138.12 291.418 133.98L299.014 113.46H292.21L289.87 122.1C289.618 123.108 289.258 124.872 289.258 124.872H289.186C289.186 124.872 288.826 123 288.502 121.992L285.766 113.46H278.71L286.594 131.64L286.234 132.504C285.586 134.088 284.254 134.376 283.246 134.376C282.346 134.376 281.338 133.692 281.338 133.692ZM309.836 125.16C309.836 131.388 315.56 132.18 318.512 132.18C319.232 132.18 319.736 132.108 320.204 132.072V126.672C319.808 126.708 319.592 126.708 319.376 126.708C318.188 126.708 316.064 126.42 316.064 124.332V118.644H319.952V113.784H316.064V108.456H310.016V113.784H307.46V118.644H309.836V125.16ZM322.372 122.784C322.372 128.58 327.052 132.432 332.884 132.432C338.716 132.432 343.396 128.58 343.396 122.784C343.396 116.952 338.716 113.028 332.848 113.028C327.052 113.028 322.372 116.952 322.372 122.784ZM328.672 122.784C328.672 119.976 330.616 118.212 332.884 118.212C335.152 118.212 337.096 119.976 337.096 122.784C337.096 125.556 335.152 127.248 332.884 127.248C330.616 127.248 328.672 125.556 328.672 122.784ZM355.514 132H361.742V123.648C361.742 120.804 363.074 118.68 365.774 118.68C367.142 118.68 367.826 119.4 367.826 121.128V132H374.054V119.976C374.054 114.756 371.138 113.028 367.394 113.028C364.946 113.028 362.786 114.144 361.742 115.98H361.67C361.67 115.98 361.742 115.332 361.742 114.396V106.26H355.514V132ZM377.005 122.712C377.005 127.644 380.569 132.432 387.193 132.432C390.037 132.432 393.097 131.46 395.113 129.732L392.809 125.376C391.297 126.384 389.533 127.248 387.697 127.248C385.717 127.248 383.845 126.204 383.377 123.936H395.077C395.149 123.288 395.221 122.64 395.221 121.992C395.221 116.844 392.125 113.028 386.653 113.028C380.677 113.028 377.005 117.276 377.005 122.712ZM383.521 120.372C383.845 118.896 384.709 117.6 386.509 117.6C388.093 117.6 389.065 118.86 389.065 120.372H383.521ZM398.439 125.16C398.439 131.388 401.967 132.18 405.279 132.18C406.071 132.18 406.719 132.108 407.151 132.072V126.672C406.863 126.708 406.575 126.708 406.395 126.708C404.991 126.708 404.667 126.096 404.667 124.332V106.26H398.439V125.16ZM410.111 139.2H416.339V132.252C416.339 131.316 416.267 130.668 416.267 130.668H416.339C417.671 131.82 419.327 132.432 421.055 132.432C425.987 132.432 429.695 128.616 429.695 122.748C429.695 116.988 426.383 113.028 421.343 113.028C419.111 113.028 416.987 113.892 415.727 115.584H415.655C415.655 115.584 415.727 115.008 415.727 114.396V113.46H410.111V139.2ZM416.159 122.856C416.159 119.652 417.923 118.284 419.795 118.284C421.955 118.284 423.431 120.084 423.431 122.856C423.431 125.7 421.739 127.284 419.795 127.284C417.347 127.284 416.159 125.088 416.159 122.856ZM441.123 133.692L439.143 138.264C439.143 138.264 441.015 139.56 443.463 139.56C446.415 139.56 449.655 138.12 451.203 133.98L458.799 113.46H451.995L449.655 122.1C449.403 123.108 449.043 124.872 449.043 124.872H448.971C448.971 124.872 448.611 123 448.287 121.992L445.551 113.46H438.495L446.379 131.64L446.019 132.504C445.371 134.088 444.039 134.376 443.031 134.376C442.131 134.376 441.123 133.692 441.123 133.692ZM459.446 122.784C459.446 128.58 464.126 132.432 469.958 132.432C475.79 132.432 480.47 128.58 480.47 122.784C480.47 116.952 475.79 113.028 469.922 113.028C464.126 113.028 459.446 116.952 459.446 122.784ZM465.746 122.784C465.746 119.976 467.69 118.212 469.958 118.212C472.226 118.212 474.17 119.976 474.17 122.784C474.17 125.556 472.226 127.248 469.958 127.248C467.69 127.248 465.746 125.556 465.746 122.784ZM483.408 125.484C483.408 130.704 486.324 132.432 489.996 132.432C492.48 132.432 494.784 131.208 495.792 129.228H495.864C495.864 129.228 495.792 129.768 495.792 130.38V132H501.768V113.46H495.54V121.668C495.54 124.44 494.28 126.78 491.616 126.78C490.32 126.78 489.636 126.06 489.636 124.332V113.46H483.408V125.484Z" fill="#222224"/>
<path d="M3.762 187H5.814L8.028 178.756C8.262 177.928 8.424 176.974 8.424 176.974H8.496C8.496 176.974 8.658 177.928 8.874 178.756L11.106 187H13.14L16.488 174.292H14.652L12.294 183.616C12.132 184.3 12.06 184.966 12.06 184.966H12.024C12.024 184.966 11.916 184.318 11.736 183.616L9.252 174.292H7.686L5.184 183.616C5.004 184.318 4.896 184.966 4.896 184.966H4.86C4.86 184.966 4.77 184.3 4.608 183.616L2.394 174.292H0.522L3.762 187ZM17.0509 182.446C17.0509 185.146 19.0309 187.216 21.8929 187.216C23.1529 187.216 24.5389 186.73 25.4209 185.92L24.6829 184.642C23.9629 185.29 22.9729 185.704 22.0009 185.704C20.3629 185.704 18.9589 184.642 18.8689 182.68H25.4929C25.5289 182.428 25.5649 182.176 25.5649 181.942C25.5649 179.602 24.1969 177.676 21.6229 177.676C19.0309 177.676 17.0509 179.548 17.0509 182.446ZM18.9229 181.42C19.1749 179.908 20.2369 179.026 21.5869 179.026C22.7749 179.026 23.7469 179.854 23.8009 181.42H18.9229ZM31.4085 184.516C31.4085 186.226 32.8665 187.216 34.4505 187.216C35.8005 187.216 36.9165 186.406 37.4385 185.362H37.4745C37.4745 185.362 37.4205 185.668 37.4205 186.082V187H39.0585V181.24C39.0585 178.936 37.7445 177.676 35.4585 177.676C34.1805 177.676 32.7945 178.144 32.0565 178.756L32.7585 180.034C33.4965 179.512 34.4145 179.152 35.3145 179.152C36.4485 179.152 37.3125 179.656 37.3125 181.15V181.33H36.8445C34.9545 181.33 31.4085 181.654 31.4085 184.516ZM33.1545 184.372C33.1545 182.698 35.5665 182.59 36.8625 182.59H37.3125V182.932C37.3125 184.282 36.3945 185.83 34.8645 185.83C33.7305 185.83 33.1545 185.092 33.1545 184.372ZM41.6566 187H43.4026V183.22C43.4026 181.456 44.2306 179.512 46.1926 179.512C46.3726 179.512 46.6246 179.53 46.6966 179.548V177.82C46.5526 177.802 46.3906 177.784 46.2286 177.784C44.8246 177.784 43.7626 178.882 43.3306 180.196H43.2946C43.2946 180.196 43.3486 179.908 43.3486 179.53V177.892H41.6566V187ZM47.6017 182.446C47.6017 185.146 49.5817 187.216 52.4437 187.216C53.7037 187.216 55.0897 186.73 55.9717 185.92L55.2337 184.642C54.5137 185.29 53.5237 185.704 52.5517 185.704C50.9137 185.704 49.5097 184.642 49.4197 182.68H56.0437C56.0797 182.428 56.1157 182.176 56.1157 181.942C56.1157 179.602 54.7477 177.676 52.1737 177.676C49.5817 177.676 47.6017 179.548 47.6017 182.446ZM49.4737 181.42C49.7257 179.908 50.7877 179.026 52.1377 179.026C53.3257 179.026 54.2977 179.854 54.3517 181.42H49.4737ZM63.5792 188.656L63.0032 190.024C63.9032 190.474 65.0192 190.78 66.1172 190.78C68.4212 190.78 70.7072 189.628 70.7072 186.622V177.892H69.0332V178.792C69.0332 178.954 69.0872 179.062 69.0872 179.062H69.0332C68.4572 178.09 67.2872 177.676 66.1532 177.676C63.6152 177.676 62.1752 179.62 62.1752 182.248C62.1752 184.858 63.7052 186.892 66.2432 186.892C67.5572 186.892 68.4392 186.316 68.9792 185.416H69.0152C69.0152 185.416 68.9612 185.704 68.9612 185.992V186.73C68.9612 188.548 67.6652 189.268 66.0812 189.268C65.1992 189.268 64.2992 189.016 63.5792 188.656ZM63.9392 182.194C63.9392 180.34 64.8572 179.188 66.4232 179.188C67.8452 179.188 68.9972 179.872 68.9972 182.248C68.9972 184.624 67.8452 185.38 66.5852 185.38C64.9472 185.38 63.9392 184.084 63.9392 182.194ZM73.4027 184.498C73.4027 186.802 74.8427 187.09 75.8507 187.09C76.1027 187.09 76.3007 187.054 76.4267 187.036V185.488C76.3187 185.506 76.1927 185.506 76.1207 185.506C75.5807 185.506 75.1307 185.29 75.1307 184.21V174.292H73.4027V184.498ZM77.4456 184.516C77.4456 186.226 78.9036 187.216 80.4876 187.216C81.8376 187.216 82.9536 186.406 83.4756 185.362H83.5116C83.5116 185.362 83.4576 185.668 83.4576 186.082V187H85.0956V181.24C85.0956 178.936 83.7816 177.676 81.4956 177.676C80.2176 177.676 78.8316 178.144 78.0936 178.756L78.7956 180.034C79.5336 179.512 80.4516 179.152 81.3516 179.152C82.4856 179.152 83.3496 179.656 83.3496 181.15V181.33H82.8816C80.9916 181.33 77.4456 181.654 77.4456 184.516ZM79.1916 184.372C79.1916 182.698 81.6036 182.59 82.8996 182.59H83.3496V182.932C83.3496 184.282 82.4316 185.83 80.9016 185.83C79.7676 185.83 79.1916 185.092 79.1916 184.372ZM87.1358 182.446C87.1358 185.272 88.7018 187.216 91.1498 187.216C92.5898 187.216 93.6518 186.46 94.1738 185.47H94.2098C94.2098 185.47 94.1558 185.722 94.1558 186.082V187H95.8118V174.292H94.0838V178.558C94.0838 178.9 94.1198 179.17 94.1198 179.17H94.0838C93.5078 178.198 92.4098 177.676 91.2578 177.676C88.8458 177.676 87.1358 179.548 87.1358 182.446ZM88.9178 182.446C88.9178 180.376 90.1058 179.206 91.5278 179.206C93.2738 179.206 94.1198 180.79 94.1198 182.428C94.1198 184.732 92.8418 185.704 91.4918 185.704C89.9798 185.704 88.9178 184.426 88.9178 182.446ZM103.031 183.67C103.031 186.712 105.353 187.09 106.523 187.09C106.793 187.09 106.991 187.054 107.135 187.036V185.488C106.955 185.524 106.847 185.524 106.721 185.524C106.055 185.524 104.777 185.29 104.777 183.472V179.404H106.973V177.982H104.777V175.39H103.067V177.982H101.843V179.404H103.031V183.67ZM108.229 182.428C108.229 185.2 110.425 187.216 113.143 187.216C115.843 187.216 118.039 185.2 118.039 182.428C118.039 179.674 115.843 177.676 113.125 177.676C110.425 177.676 108.229 179.674 108.229 182.428ZM110.011 182.428C110.011 180.538 111.415 179.188 113.143 179.188C114.853 179.188 116.275 180.538 116.275 182.428C116.275 184.336 114.853 185.704 113.143 185.704C111.415 185.704 110.011 184.336 110.011 182.428ZM123.887 184.516C123.887 186.226 125.345 187.216 126.929 187.216C128.279 187.216 129.395 186.406 129.917 185.362H129.953C129.953 185.362 129.899 185.668 129.899 186.082V187H131.537V181.24C131.537 178.936 130.223 177.676 127.937 177.676C126.659 177.676 125.273 178.144 124.535 178.756L125.237 180.034C125.975 179.512 126.893 179.152 127.793 179.152C128.927 179.152 129.791 179.656 129.791 181.15V181.33H129.323C127.433 181.33 123.887 181.654 123.887 184.516ZM125.633 184.372C125.633 182.698 128.045 182.59 129.341 182.59H129.791V182.932C129.791 184.282 128.873 185.83 127.343 185.83C126.209 185.83 125.633 185.092 125.633 184.372ZM134.135 187H135.881V182.626C135.881 180.754 137.141 179.278 138.923 179.278C140.381 179.278 140.633 180.286 140.633 181.564V187H142.379V181.168C142.379 178.846 141.407 177.676 139.265 177.676C137.267 177.676 136.151 179.026 135.809 179.818H135.773C135.773 179.818 135.827 179.512 135.827 179.134V177.892H134.135V187ZM144.207 185.884C145.107 186.802 146.457 187.216 147.681 187.216C149.625 187.216 150.957 186.082 150.957 184.534C150.957 181.528 146.259 182.05 146.259 180.268C146.259 179.494 146.925 179.134 147.807 179.134C148.617 179.134 149.571 179.44 150.111 179.944L150.813 178.684C150.021 177.964 148.905 177.676 147.861 177.676C146.079 177.676 144.585 178.576 144.585 180.304C144.585 183.292 149.265 182.824 149.265 184.57C149.265 185.326 148.635 185.758 147.717 185.758C146.763 185.758 145.719 185.362 145.035 184.696L144.207 185.884ZM154.96 187H156.904L158.776 181.15C158.92 180.682 159.028 180.16 159.028 180.16H159.064C159.064 180.16 159.172 180.682 159.334 181.15L161.206 187H163.15L166.066 177.892H164.248L162.34 184.282C162.196 184.75 162.106 185.254 162.106 185.254H162.07C162.07 185.254 161.962 184.75 161.836 184.282L159.874 177.91H158.254L156.292 184.282C156.148 184.75 156.04 185.254 156.04 185.254H156.004C156.004 185.254 155.914 184.75 155.77 184.282L153.88 177.892H152.026L154.96 187ZM167.063 182.446C167.063 185.146 169.043 187.216 171.905 187.216C173.165 187.216 174.551 186.73 175.433 185.92L174.695 184.642C173.975 185.29 172.985 185.704 172.013 185.704C170.375 185.704 168.971 184.642 168.881 182.68H175.505C175.541 182.428 175.577 182.176 175.577 181.942C175.577 179.602 174.209 177.676 171.635 177.676C169.043 177.676 167.063 179.548 167.063 182.446ZM168.935 181.42C169.187 179.908 170.249 179.026 171.599 179.026C172.787 179.026 173.759 179.854 173.813 181.42H168.935ZM177.676 187H179.422V183.22C179.422 181.456 180.25 179.512 182.212 179.512C182.392 179.512 182.644 179.53 182.716 179.548V177.82C182.572 177.802 182.41 177.784 182.248 177.784C180.844 177.784 179.782 178.882 179.35 180.196H179.314C179.314 180.196 179.368 179.908 179.368 179.53V177.892H177.676V187ZM187.597 188.89L186.985 190.222C186.985 190.222 187.723 190.78 188.731 190.78C190.009 190.78 191.143 190.06 191.683 188.638L195.967 177.892H194.077L191.863 183.868C191.701 184.336 191.557 184.948 191.557 184.948H191.521C191.521 184.948 191.359 184.3 191.179 183.85L188.893 177.892H186.931L190.747 186.892L190.297 187.936C189.955 188.764 189.361 189.286 188.641 189.286C188.101 189.286 187.597 188.89 187.597 188.89ZM196.77 182.428C196.77 185.2 198.966 187.216 201.684 187.216C204.384 187.216 206.58 185.2 206.58 182.428C206.58 179.674 204.384 177.676 201.666 177.676C198.966 177.676 196.77 179.674 196.77 182.428ZM198.552 182.428C198.552 180.538 199.956 179.188 201.684 179.188C203.394 179.188 204.816 180.538 204.816 182.428C204.816 184.336 203.394 185.704 201.684 185.704C199.956 185.704 198.552 184.336 198.552 182.428ZM208.576 183.724C208.576 186.136 209.638 187.216 211.69 187.216C213.472 187.216 214.678 185.974 215.074 185.074H215.11C215.11 185.074 215.038 185.38 215.038 185.74V187H216.73V177.892H215.002V182.158C215.002 183.958 213.904 185.596 212.032 185.596C210.592 185.596 210.322 184.588 210.322 183.328V177.892H208.576V183.724ZM219.424 187H221.17V183.22C221.17 181.456 221.998 179.512 223.96 179.512C224.14 179.512 224.392 179.53 224.464 179.548V177.82C224.32 177.802 224.158 177.784 223.996 177.784C222.592 177.784 221.53 178.882 221.098 180.196H221.062C221.062 180.196 221.116 179.908 221.116 179.53V177.892H219.424V187ZM229.73 182.446C229.73 185.272 231.296 187.216 233.744 187.216C235.184 187.216 236.192 186.442 236.678 185.596H236.714C236.714 185.596 236.678 185.92 236.678 186.388V190.6H238.406V177.892H236.75V178.63C236.75 178.99 236.786 179.26 236.786 179.26H236.75C236.174 178.252 235.04 177.676 233.852 177.676C231.44 177.676 229.73 179.548 229.73 182.446ZM231.512 182.446C231.512 180.376 232.7 179.206 234.122 179.206C235.868 179.206 236.714 180.79 236.714 182.428C236.714 184.732 235.436 185.704 234.086 185.704C232.574 185.704 231.512 184.426 231.512 182.446ZM240.99 183.724C240.99 186.136 242.052 187.216 244.104 187.216C245.886 187.216 247.092 185.974 247.488 185.074H247.524C247.524 185.074 247.452 185.38 247.452 185.74V187H249.144V177.892H247.416V182.158C247.416 183.958 246.318 185.596 244.446 185.596C243.006 185.596 242.736 184.588 242.736 183.328V177.892H240.99V183.724ZM251.244 182.446C251.244 185.146 253.224 187.216 256.086 187.216C257.346 187.216 258.732 186.73 259.614 185.92L258.876 184.642C258.156 185.29 257.166 185.704 256.194 185.704C254.556 185.704 253.152 184.642 253.062 182.68H259.686C259.722 182.428 259.758 182.176 259.758 181.942C259.758 179.602 258.39 177.676 255.816 177.676C253.224 177.676 251.244 179.548 251.244 182.446ZM253.116 181.42C253.368 179.908 254.43 179.026 255.78 179.026C256.968 179.026 257.94 179.854 257.994 181.42H253.116ZM261.084 185.884C261.984 186.802 263.334 187.216 264.558 187.216C266.502 187.216 267.834 186.082 267.834 184.534C267.834 181.528 263.136 182.05 263.136 180.268C263.136 179.494 263.802 179.134 264.684 179.134C265.494 179.134 266.448 179.44 266.988 179.944L267.69 178.684C266.898 177.964 265.782 177.676 264.738 177.676C262.956 177.676 261.462 178.576 261.462 180.304C261.462 183.292 266.142 182.824 266.142 184.57C266.142 185.326 265.512 185.758 264.594 185.758C263.64 185.758 262.596 185.362 261.912 184.696L261.084 185.884ZM270.287 183.67C270.287 186.712 272.609 187.09 273.779 187.09C274.049 187.09 274.247 187.054 274.391 187.036V185.488C274.211 185.524 274.103 185.524 273.977 185.524C273.311 185.524 272.033 185.29 272.033 183.472V179.404H274.229V177.982H272.033V175.39H270.323V177.982H269.099V179.404H270.287V183.67ZM276.148 176.056H277.948V174.292H276.148V176.056ZM276.184 187H277.93V177.892H276.184V187ZM280.02 182.428C280.02 185.2 282.216 187.216 284.934 187.216C287.634 187.216 289.83 185.2 289.83 182.428C289.83 179.674 287.634 177.676 284.916 177.676C282.216 177.676 280.02 179.674 280.02 182.428ZM281.802 182.428C281.802 180.538 283.206 179.188 284.934 179.188C286.644 179.188 288.066 180.538 288.066 182.428C288.066 184.336 286.644 185.704 284.934 185.704C283.206 185.704 281.802 184.336 281.802 182.428ZM291.934 187H293.68V182.626C293.68 180.754 294.94 179.278 296.722 179.278C298.18 179.278 298.432 180.286 298.432 181.564V187H300.178V181.168C300.178 178.846 299.206 177.676 297.064 177.676C295.066 177.676 293.95 179.026 293.608 179.818H293.572C293.572 179.818 293.626 179.512 293.626 179.134V177.892H291.934V187ZM302.006 185.884C302.906 186.802 304.256 187.216 305.48 187.216C307.424 187.216 308.756 186.082 308.756 184.534C308.756 181.528 304.058 182.05 304.058 180.268C304.058 179.494 304.724 179.134 305.606 179.134C306.416 179.134 307.37 179.44 307.91 179.944L308.612 178.684C307.82 177.964 306.704 177.676 305.66 177.676C303.878 177.676 302.384 178.576 302.384 180.304C302.384 183.292 307.064 182.824 307.064 184.57C307.064 185.326 306.434 185.758 305.516 185.758C304.562 185.758 303.518 185.362 302.834 184.696L302.006 185.884Z" fill="#424754"/>
<path d="M713 53.2049C713 52.0831 713 51.5222 713.189 51.0937C713.355 50.7168 713.62 50.4104 713.947 50.2183C714.317 50 714.803 50 715.774 50H1031.23C1032.2 50 1032.68 50 1033.05 50.2183C1033.38 50.4104 1033.64 50.7168 1033.81 51.0937C1034 51.5222 1034 52.0831 1034 53.2049V263.795C1034 264.917 1034 265.478 1033.81 265.906C1033.64 266.283 1033.38 266.59 1033.05 266.782C1032.68 267 1032.2 267 1031.23 267H715.774C714.803 267 714.317 267 713.947 266.782C713.62 266.59 713.355 266.283 713.189 265.906C713 265.478 713 264.917 713 263.795V53.2049Z" fill="#F3F3F3"/>
<path d="M726 211.321C726 211.208 726 211.152 726.023 211.109C726.042 211.072 726.074 211.041 726.113 211.022C726.157 211 726.215 211 726.331 211H750.669C750.785 211 750.843 211 750.887 211.022C750.926 211.041 750.958 211.072 750.977 211.109C751 211.152 751 211.208 751 211.321V224.679C751 224.792 751 224.848 750.977 224.891C750.958 224.928 750.926 224.959 750.887 224.978C750.843 225 750.785 225 750.669 225H726.331C726.215 225 726.157 225 726.113 224.978C726.074 224.959 726.042 224.928 726.023 224.891C726 224.848 726 224.792 726 224.679V211.321Z" fill="white"/>
<path d="M756 197.642C756 197.417 756 197.305 756.023 197.219C756.042 197.143 756.074 197.082 756.113 197.044C756.157 197 756.215 197 756.331 197H780.669C780.785 197 780.843 197 780.887 197.044C780.926 197.082 780.958 197.143 780.977 197.219C781 197.305 781 197.417 781 197.642V224.358C781 224.583 781 224.695 780.977 224.781C780.958 224.857 780.926 224.918 780.887 224.956C780.843 225 780.785 225 780.669 225H756.331C756.215 225 756.157 225 756.113 224.956C756.074 224.918 756.042 224.857 756.023 224.781C756 224.695 756 224.583 756 224.358V197.642Z" fill="white"/>
<path d="M816 170.283C816 169.834 816 169.609 816.023 169.438C816.042 169.287 816.074 169.164 816.113 169.087C816.157 169 816.215 169 816.331 169H840.669C840.785 169 840.843 169 840.887 169.087C840.926 169.164 840.958 169.287 840.977 169.438C841 169.609 841 169.834 841 170.283V223.717C841 224.166 841 224.391 840.977 224.562C840.958 224.713 840.926 224.836 840.887 224.913C840.843 225 840.785 225 840.669 225H816.331C816.215 225 816.157 225 816.113 224.913C816.074 224.836 816.042 224.713 816.023 224.562C816 224.391 816 224.166 816 223.717V170.283Z" fill="white"/>
<path d="M786 183.962C786 183.625 786 183.457 786.023 183.328C786.042 183.215 786.074 183.123 786.113 183.066C786.157 183 786.215 183 786.331 183H810.669C810.785 183 810.843 183 810.887 183.066C810.926 183.123 810.958 183.215 810.977 183.328C811 183.457 811 183.625 811 183.962V224.038C811 224.375 811 224.543 810.977 224.672C810.958 224.785 810.926 224.877 810.887 224.934C810.843 225 810.785 225 810.669 225H786.331C786.215 225 786.157 225 786.113 224.934C786.074 224.877 786.042 224.785 786.023 224.672C786 224.543 786 224.375 786 224.038V183.962Z" fill="white"/>
<path d="M846 156.604C846 156.042 846 155.762 846.023 155.547C846.042 155.359 846.074 155.205 846.113 155.109C846.157 155 846.215 155 846.331 155H870.669C870.785 155 870.843 155 870.887 155.109C870.926 155.205 870.958 155.359 870.977 155.547C871 155.762 871 156.042 871 156.604V223.396C871 223.958 871 224.238 870.977 224.453C870.958 224.641 870.926 224.795 870.887 224.891C870.843 225 870.785 225 870.669 225H846.331C846.215 225 846.157 225 846.113 224.891C846.074 224.795 846.042 224.641 846.023 224.453C846 224.238 846 223.958 846 223.396V156.604Z" fill="white"/>
<path d="M876 142.925C876 142.251 876 141.914 876.023 141.657C876.042 141.43 876.074 141.246 876.113 141.131C876.157 141 876.215 141 876.331 141H900.669C900.785 141 900.843 141 900.887 141.131C900.926 141.246 900.958 141.43 900.977 141.657C901 141.914 901 142.251 901 142.925V223.075C901 223.749 901 224.086 900.977 224.343C900.958 224.57 900.926 224.754 900.887 224.869C900.843 225 900.785 225 900.669 225H876.331C876.215 225 876.157 225 876.113 224.869C876.074 224.754 876.042 224.57 876.023 224.343C876 224.086 876 223.749 876 223.075V142.925Z" fill="white"/>
<path d="M906 129.245C906 128.459 906 128.066 906.023 127.766C906.042 127.502 906.074 127.287 906.113 127.153C906.157 127 906.215 127 906.331 127H930.669C930.785 127 930.843 127 930.887 127.153C930.926 127.287 930.958 127.502 930.977 127.766C931 128.066 931 128.459 931 129.245V222.755C931 223.541 931 223.934 930.977 224.234C930.958 224.498 930.926 224.713 930.887 224.847C930.843 225 930.785 225 930.669 225H906.331C906.215 225 906.157 225 906.113 224.847C906.074 224.713 906.042 224.498 906.023 224.234C906 223.934 906 223.541 906 222.755V129.245Z" fill="white"/>
<path d="M936 115.566C936 114.668 936 114.219 936.023 113.876C936.042 113.574 936.074 113.329 936.113 113.175C936.157 113 936.215 113 936.331 113H960.669C960.785 113 960.843 113 960.887 113.175C960.926 113.329 960.958 113.574 960.977 113.876C961 114.219 961 114.668 961 115.566V222.434C961 223.332 961 223.781 960.977 224.124C960.958 224.426 960.926 224.671 960.887 224.825C960.843 225 960.785 225 960.669 225H936.331C936.215 225 936.157 225 936.113 224.825C936.074 224.671 936.042 224.426 936.023 224.124C936 223.781 936 223.332 936 222.434V115.566Z" fill="white"/>
<path d="M966 101.887C966 100.876 966 100.371 966.023 99.9852C966.042 99.6457 966.074 99.3696 966.113 99.1967C966.157 99 966.215 99 966.331 99H990.669C990.785 99 990.843 99 990.887 99.1967C990.926 99.3696 990.958 99.6457 990.977 99.9852C991 100.371 991 100.876 991 101.887V222.113C991 223.124 991 223.629 990.977 224.015C990.958 224.354 990.926 224.63 990.887 224.803C990.843 225 990.785 225 990.669 225H966.331C966.215 225 966.157 225 966.113 224.803C966.074 224.63 966.042 224.354 966.023 224.015C966 223.629 966 223.124 966 222.113V101.887Z" fill="white"/>
<path d="M996 88.2076C996 87.0849 996 86.5235 996.023 86.0946C996.042 85.7174 996.074 85.4107 996.113 85.2185C996.157 85 996.215 85 996.331 85H1020.67C1020.78 85 1020.84 85 1020.89 85.2185C1020.93 85.4107 1020.96 85.7174 1020.98 86.0946C1021 86.5235 1021 87.0849 1021 88.2076V221.792C1021 222.915 1021 223.477 1020.98 223.905C1020.96 224.283 1020.93 224.589 1020.89 224.781C1020.84 225 1020.78 225 1020.67 225H996.331C996.215 225 996.157 225 996.113 224.781C996.074 224.589 996.042 224.283 996.023 223.905C996 223.477 996 222.915 996 221.792V88.2076Z" fill="#F04B5D"/>
<path d="M1004 74.5L1006.67 77L1012 72" stroke="#222224" stroke-width="2"/>
<path d="M736 233.873C736 233.567 736 233.415 736.01 233.298C736.02 233.195 736.034 233.112 736.052 233.059C736.073 233 736.1 233 736.154 233H741.846C741.9 233 741.927 233 741.948 233.059C741.966 233.112 741.98 233.195 741.99 233.298C742 233.415 742 233.567 742 233.873V235.127C742 235.433 742 235.585 741.99 235.702C741.98 235.805 741.966 235.888 741.948 235.941C741.927 236 741.9 236 741.846 236H736.154C736.1 236 736.073 236 736.052 235.941C736.034 235.888 736.02 235.805 736.01 235.702C736 235.585 736 235.433 736 235.127V233.873Z" fill="#424754"/>
<path d="M766 233.873C766 233.567 766 233.415 766.01 233.298C766.02 233.195 766.034 233.112 766.052 233.059C766.073 233 766.1 233 766.154 233H771.846C771.9 233 771.927 233 771.948 233.059C771.966 233.112 771.98 233.195 771.99 233.298C772 233.415 772 233.567 772 233.873V235.127C772 235.433 772 235.585 771.99 235.702C771.98 235.805 771.966 235.888 771.948 235.941C771.927 236 771.9 236 771.846 236H766.154C766.1 236 766.073 236 766.052 235.941C766.034 235.888 766.02 235.805 766.01 235.702C766 235.585 766 235.433 766 235.127V233.873Z" fill="#424754"/>
<path d="M796 233.873C796 233.567 796 233.415 796.01 233.298C796.02 233.195 796.034 233.112 796.052 233.059C796.073 233 796.1 233 796.154 233H801.846C801.9 233 801.927 233 801.948 233.059C801.966 233.112 801.98 233.195 801.99 233.298C802 233.415 802 233.567 802 233.873V235.127C802 235.433 802 235.585 801.99 235.702C801.98 235.805 801.966 235.888 801.948 235.941C801.927 236 801.9 236 801.846 236H796.154C796.1 236 796.073 236 796.052 235.941C796.034 235.888 796.02 235.805 796.01 235.702C796 235.585 796 235.433 796 235.127V233.873Z" fill="#424754"/>
<path d="M826 233.873C826 233.567 826 233.415 826.01 233.298C826.02 233.195 826.034 233.112 826.052 233.059C826.073 233 826.1 233 826.154 233H831.846C831.9 233 831.927 233 831.948 233.059C831.966 233.112 831.98 233.195 831.99 233.298C832 233.415 832 233.567 832 233.873V235.127C832 235.433 832 235.585 831.99 235.702C831.98 235.805 831.966 235.888 831.948 235.941C831.927 236 831.9 236 831.846 236H826.154C826.1 236 826.073 236 826.052 235.941C826.034 235.888 826.02 235.805 826.01 235.702C826 235.585 826 235.433 826 235.127V233.873Z" fill="#424754"/>
<path d="M856 233.873C856 233.567 856 233.415 856.01 233.298C856.02 233.195 856.034 233.112 856.052 233.059C856.073 233 856.1 233 856.154 233H861.846C861.9 233 861.927 233 861.948 233.059C861.966 233.112 861.98 233.195 861.99 233.298C862 233.415 862 233.567 862 233.873V235.127C862 235.433 862 235.585 861.99 235.702C861.98 235.805 861.966 235.888 861.948 235.941C861.927 236 861.9 236 861.846 236H856.154C856.1 236 856.073 236 856.052 235.941C856.034 235.888 856.02 235.805 856.01 235.702C856 235.585 856 235.433 856 235.127V233.873Z" fill="#424754"/>
<path d="M886 233.873C886 233.567 886 233.415 886.01 233.298C886.02 233.195 886.034 233.112 886.052 233.059C886.073 233 886.1 233 886.154 233H891.846C891.9 233 891.927 233 891.948 233.059C891.966 233.112 891.98 233.195 891.99 233.298C892 233.415 892 233.567 892 233.873V235.127C892 235.433 892 235.585 891.99 235.702C891.98 235.805 891.966 235.888 891.948 235.941C891.927 236 891.9 236 891.846 236H886.154C886.1 236 886.073 236 886.052 235.941C886.034 235.888 886.02 235.805 886.01 235.702C886 235.585 886 235.433 886 235.127V233.873Z" fill="#424754"/>
<path d="M916 233.873C916 233.567 916 233.415 916.01 233.298C916.02 233.195 916.034 233.112 916.052 233.059C916.073 233 916.1 233 916.154 233H921.846C921.9 233 921.927 233 921.948 233.059C921.966 233.112 921.98 233.195 921.99 233.298C922 233.415 922 233.567 922 233.873V235.127C922 235.433 922 235.585 921.99 235.702C921.98 235.805 921.966 235.888 921.948 235.941C921.927 236 921.9 236 921.846 236H916.154C916.1 236 916.073 236 916.052 235.941C916.034 235.888 916.02 235.805 916.01 235.702C916 235.585 916 235.433 916 235.127V233.873Z" fill="#424754"/>
<path d="M946 233.873C946 233.567 946 233.415 946.01 233.298C946.02 233.195 946.034 233.112 946.052 233.059C946.073 233 946.1 233 946.154 233H951.846C951.9 233 951.927 233 951.948 233.059C951.966 233.112 951.98 233.195 951.99 233.298C952 233.415 952 233.567 952 233.873V235.127C952 235.433 952 235.585 951.99 235.702C951.98 235.805 951.966 235.888 951.948 235.941C951.927 236 951.9 236 951.846 236H946.154C946.1 236 946.073 236 946.052 235.941C946.034 235.888 946.02 235.805 946.01 235.702C946 235.585 946 235.433 946 235.127V233.873Z" fill="#424754"/>
<path d="M976 233.873C976 233.567 976 233.415 976.01 233.298C976.02 233.195 976.034 233.112 976.052 233.059C976.073 233 976.1 233 976.154 233H981.846C981.9 233 981.927 233 981.948 233.059C981.966 233.112 981.98 233.195 981.99 233.298C982 233.415 982 233.567 982 233.873V235.127C982 235.433 982 235.585 981.99 235.702C981.98 235.805 981.966 235.888 981.948 235.941C981.927 236 981.9 236 981.846 236H976.154C976.1 236 976.073 236 976.052 235.941C976.034 235.888 976.02 235.805 976.01 235.702C976 235.585 976 235.433 976 235.127V233.873Z" fill="#424754"/>
<path d="M1006 233.873C1006 233.567 1006 233.415 1006.01 233.298C1006.02 233.195 1006.03 233.112 1006.05 233.059C1006.07 233 1006.1 233 1006.15 233H1011.85C1011.9 233 1011.93 233 1011.95 233.059C1011.97 233.112 1011.98 233.195 1011.99 233.298C1012 233.415 1012 233.567 1012 233.873V235.127C1012 235.433 1012 235.585 1011.99 235.702C1011.98 235.805 1011.97 235.888 1011.95 235.941C1011.93 236 1011.9 236 1011.85 236H1006.15C1006.1 236 1006.07 236 1006.05 235.941C1006.03 235.888 1006.02 235.805 1006.01 235.702C1006 235.585 1006 235.433 1006 235.127V233.873Z" fill="#424754"/>
<path d="M726 251.455C726 250.945 726 250.691 726.043 250.496C726.081 250.325 726.142 250.186 726.216 250.099C726.301 250 726.412 250 726.634 250H825.366C825.588 250 825.699 250 825.784 250.099C825.858 250.186 825.919 250.325 825.957 250.496C826 250.691 826 250.945 826 251.455V253.545C826 254.055 826 254.309 825.957 254.504C825.919 254.675 825.858 254.814 825.784 254.901C825.699 255 825.588 255 825.366 255H726.634C726.412 255 726.301 255 726.216 254.901C726.142 254.814 726.081 254.675 726.043 254.504C726 254.309 726 254.055 726 253.545V251.455Z" fill="#97999D"/>
<path d="M1004 251.873C1004 251.567 1004 251.415 1004.01 251.298C1004.01 251.195 1004.02 251.112 1004.04 251.059C1004.05 251 1004.07 251 1004.11 251H1020.89C1020.93 251 1020.95 251 1020.96 251.059C1020.98 251.112 1020.99 251.195 1020.99 251.298C1021 251.415 1021 251.567 1021 251.873V253.127C1021 253.433 1021 253.585 1020.99 253.702C1020.99 253.805 1020.98 253.888 1020.96 253.941C1020.95 254 1020.93 254 1020.89 254H1004.11C1004.07 254 1004.05 254 1004.04 253.941C1004.02 253.888 1004.01 253.805 1004.01 253.702C1004 253.585 1004 253.433 1004 253.127V251.873Z" fill="#97999D"/>
<rect x="665" width="131.031" height="155" rx="2" fill="#424754"/>
<path d="M682.577 13.045C682.577 12.3941 682.577 12.0687 682.616 11.8201C682.65 11.6014 682.705 11.4236 682.773 11.3122C682.849 11.1855 682.949 11.1855 683.15 11.1855H704.376C704.576 11.1855 704.676 11.1855 704.753 11.3122C704.82 11.4236 704.875 11.6014 704.909 11.8201C704.948 12.0687 704.948 12.3941 704.948 13.045V15.7179C704.948 16.3687 704.948 16.6942 704.909 16.9428C704.875 17.1614 704.82 17.3392 704.753 17.4506C704.676 17.5773 704.576 17.5773 704.376 17.5773H683.15C682.949 17.5773 682.849 17.5773 682.773 17.4506C682.705 17.3392 682.65 17.1614 682.616 16.9428C682.577 16.6942 682.577 16.3687 682.577 15.7179V13.045Z" fill="white"/>
<g filter="url(#filter0_d)">
<path d="M698.118 65.9784C697.361 65.6531 696.48 66.0022 696.186 66.7718C693.564 73.6307 693.052 81.1305 694.737 88.3013C696.535 95.957 700.741 102.834 706.738 107.922C712.735 113.009 720.205 116.04 728.051 116.567C735.898 117.094 743.706 115.091 750.33 110.851C756.953 106.611 762.042 100.359 764.848 93.0123C767.654 85.666 768.03 77.6133 765.921 70.0374C763.811 62.4616 759.327 55.7623 753.128 50.9238C747.321 46.3919 740.296 43.7164 732.969 43.2263C732.147 43.1713 731.461 43.8246 731.44 44.6483C731.418 45.472 732.069 46.1538 732.891 46.2117C739.579 46.6833 745.988 49.1369 751.292 53.276C756.988 57.7216 761.108 63.8771 763.046 70.8379C764.985 77.7987 764.639 85.1976 762.061 91.9475C759.482 98.6974 754.807 104.442 748.721 108.338C742.635 112.233 735.461 114.074 728.251 113.59C721.042 113.105 714.178 110.321 708.668 105.647C703.159 100.972 699.294 94.6532 697.641 87.619C696.103 81.0698 696.558 74.222 698.93 67.9506C699.222 67.18 698.875 66.3036 698.118 65.9784Z" fill="#27AE60"/>
</g>
<path d="M719.42 77.6652C719.42 76.7473 719.42 76.2883 719.457 75.9377C719.49 75.6293 719.543 75.3785 719.608 75.2214C719.681 75.0427 719.778 75.0427 719.97 75.0427H740.366C740.559 75.0427 740.655 75.0427 740.729 75.2214C740.794 75.3785 740.846 75.6293 740.879 75.9377C740.917 76.2883 740.917 76.7473 740.917 77.6652V81.435C740.917 82.353 740.917 82.812 740.879 83.1626C740.846 83.471 740.794 83.7217 740.729 83.8789C740.655 84.0575 740.559 84.0575 740.366 84.0575H719.97C719.778 84.0575 719.681 84.0575 719.608 83.8789C719.543 83.7217 719.49 83.471 719.457 83.1626C719.42 82.812 719.42 82.353 719.42 81.435V77.6652Z" fill="white"/>
<path d="M702.777 126.673C702.777 126.32 702.777 126.143 702.873 126.009C702.957 125.89 703.091 125.793 703.256 125.733C703.443 125.664 703.689 125.664 704.18 125.664H756.157C756.648 125.664 756.893 125.664 757.081 125.733C757.246 125.793 757.38 125.89 757.464 126.009C757.559 126.143 757.559 126.32 757.559 126.673V128.123C757.559 128.476 757.559 128.652 757.464 128.787C757.38 128.906 757.246 129.002 757.081 129.063C756.893 129.132 756.648 129.132 756.157 129.132H704.18C703.689 129.132 703.443 129.132 703.256 129.063C703.091 129.002 702.957 128.906 702.873 128.787C702.777 128.652 702.777 128.476 702.777 128.123V126.673Z" fill="#97999D"/>
<defs>
<filter id="filter0_d" x="673.763" y="27.2231" width="113.505" height="113.426" filterUnits="userSpaceOnUse" color-interpolation-filters="sRGB">
<feFlood flood-opacity="0" result="BackgroundImageFix"/>
<feColorMatrix in="SourceAlpha" type="matrix" values="0 0 0 0 0 0 0 0 0 0 0 0 0 0 0 0 0 0 127 0"/>
<feOffset dy="4"/>
<feGaussianBlur stdDeviation="10"/>
<feColorMatrix type="matrix" values="0 0 0 0 0 0 0 0 0 0 0 0 0 0 0 0 0 0 0.19 0"/>
<feBlend mode="normal" in2="BackgroundImageFix" result="effect1_dropShadow"/>
<feBlend mode="normal" in="SourceGraphic" in2="effect1_dropShadow" result="shape"/>
</filter>
</defs>
</svg>
