<svg width="1250" height="512" viewBox="0 0 1250 512" fill="none" xmlns="http://www.w3.org/2000/svg">
<path d="M11.244 34H17.544V13.66H25.356V8.26H3.432V13.66H11.244V34ZM23.9776 24.712C23.9776 29.644 27.5416 34.432 34.1656 34.432C37.0096 34.432 40.0696 33.46 42.0856 31.732L39.7816 27.376C38.2696 28.384 36.5056 29.248 34.6696 29.248C32.6896 29.248 30.8176 28.204 30.3496 25.936H42.0496C42.1216 25.288 42.1936 24.64 42.1936 23.992C42.1936 18.844 39.0976 15.028 33.6256 15.028C27.6496 15.028 23.9776 19.276 23.9776 24.712ZM30.4936 22.372C30.8176 20.896 31.6816 19.6 33.4816 19.6C35.0656 19.6 36.0376 20.86 36.0376 22.372H30.4936ZM44.1514 28.78C44.1514 31.984 46.6354 34.432 50.1994 34.432C52.3234 34.432 54.4834 33.46 55.7074 31.732H55.7794C55.7794 31.732 55.7074 32.272 55.7074 32.884V34H61.3954V22.588C61.3954 17.872 58.2274 15.028 53.1154 15.028C50.0914 15.028 46.8514 16.216 45.2674 17.44L47.4274 21.832C48.9034 20.86 50.7394 20.068 52.5394 20.068C53.9074 20.068 55.1674 20.572 55.1674 22.12V22.444H54.6274C50.0554 22.444 44.1514 23.812 44.1514 28.78ZM50.3074 28.204C50.3074 26.512 52.7554 26.008 54.6634 26.008H55.2394V26.512C55.2394 28.024 53.8714 29.788 52.0714 29.788C50.9194 29.788 50.3074 29.068 50.3074 28.204ZM64.3018 24.712C64.3018 29.824 68.0098 34.432 74.6338 34.432C77.7298 34.432 80.7538 33.244 82.5898 31.372L80.3218 27.016C78.9898 28.168 77.0458 29.248 75.2458 29.248C72.1138 29.248 70.6018 26.836 70.6018 24.64C70.6018 22.444 72.0778 20.212 75.0298 20.212C76.6498 20.212 78.3058 20.968 79.3858 22.012L82.0138 17.836C80.1778 15.856 77.2258 15.028 74.6338 15.028C67.9738 15.028 64.3018 19.744 64.3018 24.712ZM85.2091 34H91.4371V25.648C91.4371 22.804 92.7691 20.68 95.4691 20.68C96.8371 20.68 97.5211 21.4 97.5211 23.128V34H103.749V21.976C103.749 16.756 100.833 15.028 97.0891 15.028C94.6411 15.028 92.4811 16.144 91.4371 17.98H91.3651C91.3651 17.98 91.4371 17.332 91.4371 16.396V8.26H85.2091V34ZM107.816 13.12H113.9V8.26H107.816V13.12ZM107.744 34H113.972V15.46H107.744V34ZM118.151 34H124.379V25.612C124.379 22.984 125.639 20.68 128.411 20.68C129.779 20.68 130.463 21.4 130.463 23.128V34H136.691V21.976C136.691 16.756 133.775 15.028 130.031 15.028C126.755 15.028 124.991 16.792 124.127 18.232H124.055C124.055 18.232 124.127 17.692 124.127 17.08V15.46H118.151V34ZM143.278 35.188L141.514 39.904C143.314 40.84 146.05 41.56 148.534 41.56C153.61 41.56 159.01 39.076 159.01 32.308V15.46H153.178V16.396C153.178 16.612 153.214 16.828 153.214 16.828H153.106C151.81 15.532 149.83 15.028 148.066 15.028C142.45 15.028 139.75 19.42 139.75 24.136C139.75 28.888 142.522 33.46 148.102 33.46C150.262 33.46 151.666 32.812 152.746 31.516H152.818C152.818 31.516 152.782 31.984 152.782 32.2V32.812C152.782 35.548 150.73 36.376 148.498 36.376C146.626 36.376 144.826 35.944 143.278 35.188ZM146.014 23.92C146.014 21.796 147.13 20.212 149.326 20.212C151.198 20.212 152.926 20.932 152.926 24.208C152.926 27.448 151.198 28.276 149.578 28.276C147.094 28.276 146.014 26.224 146.014 23.92ZM170.782 31.696C172.834 33.532 175.678 34.432 178.342 34.432C183.094 34.432 185.974 31.804 185.974 28.348C185.974 22.336 177.298 22.804 177.298 20.86C177.298 20.356 177.694 19.96 179.026 19.96C180.61 19.96 182.626 20.608 183.706 21.472L185.83 17.152C183.958 15.64 181.582 15.028 179.206 15.028C174.922 15.028 171.502 17.08 171.502 20.896C171.502 26.98 180.178 26.548 180.178 28.528C180.178 29.104 179.746 29.5 178.486 29.5C176.722 29.5 174.814 28.78 173.446 27.628L170.782 31.696ZM190.211 27.16C190.211 33.388 195.935 34.18 198.887 34.18C199.607 34.18 200.111 34.108 200.579 34.072V28.672C200.183 28.708 199.967 28.708 199.751 28.708C198.563 28.708 196.439 28.42 196.439 26.332V20.644H200.327V15.784H196.439V10.456H190.391V15.784H187.835V20.644H190.211V27.16ZM202.636 28.78C202.636 31.984 205.12 34.432 208.684 34.432C210.808 34.432 212.968 33.46 214.192 31.732H214.264C214.264 31.732 214.192 32.272 214.192 32.884V34H219.88V22.588C219.88 17.872 216.712 15.028 211.6 15.028C208.576 15.028 205.336 16.216 203.752 17.44L205.912 21.832C207.388 20.86 209.224 20.068 211.024 20.068C212.392 20.068 213.652 20.572 213.652 22.12V22.444H213.112C208.54 22.444 202.636 23.812 202.636 28.78ZM208.792 28.204C208.792 26.512 211.24 26.008 213.148 26.008H213.724V26.512C213.724 28.024 212.356 29.788 210.556 29.788C209.404 29.788 208.792 29.068 208.792 28.204ZM224.914 34H231.142V20.32H238.738V34H244.966V20.32H248.386V15.46H244.966V15.208C244.966 13.624 246.874 13.408 248.098 13.408C248.566 13.408 248.962 13.444 249.106 13.48V8.224C248.458 8.116 247.882 8.116 247.234 8.116C244.246 8.116 238.738 8.944 238.738 15.028V15.46H231.142V15.208C231.142 13.624 233.05 13.408 234.274 13.408C234.742 13.408 235.138 13.444 235.282 13.48V8.224C234.634 8.116 234.058 8.116 233.41 8.116C230.422 8.116 224.914 8.944 224.914 15.028V15.46H222.646V20.32H224.914V34ZM262.162 34H269.182L271.27 25.432C271.522 24.424 271.63 23.452 271.63 23.452H271.702C271.702 23.452 271.81 24.424 272.062 25.432L274.15 34H281.098L286.282 15.46H279.802L277.498 26.404C277.282 27.412 277.246 28.348 277.246 28.348H277.174C277.174 28.348 277.138 27.412 276.886 26.404L274.33 15.46H269.002L266.446 26.404C266.194 27.412 266.122 28.348 266.122 28.348H266.05C266.05 28.348 266.05 27.412 265.834 26.404L263.53 15.46H256.978L262.162 34ZM288.836 13.12H294.92V8.26H288.836V13.12ZM288.764 34H294.992V15.46H288.764V34ZM300.25 27.16C300.25 33.388 305.974 34.18 308.926 34.18C309.646 34.18 310.15 34.108 310.618 34.072V28.672C310.222 28.708 310.006 28.708 309.79 28.708C308.602 28.708 306.478 28.42 306.478 26.332V20.644H310.366V15.784H306.478V10.456H300.43V15.784H297.874V20.644H300.25V27.16ZM313.971 34H320.199V25.648C320.199 22.804 321.531 20.68 324.231 20.68C325.599 20.68 326.283 21.4 326.283 23.128V34H332.511V21.976C332.511 16.756 329.595 15.028 325.851 15.028C323.403 15.028 321.243 16.144 320.199 17.98H320.127C320.127 17.98 320.199 17.332 320.199 16.396V8.26H313.971V34ZM348.189 34H355.209L357.297 25.432C357.549 24.424 357.657 23.452 357.657 23.452H357.729C357.729 23.452 357.837 24.424 358.089 25.432L360.177 34H367.125L372.309 15.46H365.829L363.525 26.404C363.309 27.412 363.273 28.348 363.273 28.348H363.201C363.201 28.348 363.165 27.412 362.913 26.404L360.357 15.46H355.029L352.473 26.404C352.221 27.412 352.149 28.348 352.149 28.348H352.077C352.077 28.348 352.077 27.412 351.861 26.404L349.557 15.46H343.005L348.189 34ZM373.431 24.784C373.431 30.58 378.111 34.432 383.943 34.432C389.775 34.432 394.455 30.58 394.455 24.784C394.455 18.952 389.775 15.028 383.907 15.028C378.111 15.028 373.431 18.952 373.431 24.784ZM379.731 24.784C379.731 21.976 381.675 20.212 383.943 20.212C386.211 20.212 388.155 21.976 388.155 24.784C388.155 27.556 386.211 29.248 383.943 29.248C381.675 29.248 379.731 27.556 379.731 24.784ZM397.572 34H403.8V26.8C403.8 23.416 405.456 21.22 408.912 21.22C409.344 21.22 409.956 21.256 410.172 21.328V15.208C409.956 15.172 409.704 15.136 409.452 15.136C406.68 15.136 404.34 17.224 403.548 19.744H403.476C403.476 19.744 403.548 19.204 403.548 18.592V15.46H397.572V34ZM412.901 34H419.129V26.8H421.073L424.997 34H432.089L425.897 23.956V23.884L431.333 15.46H424.565L420.893 21.58H419.129V8.26H412.901V34ZM4.044 66.712C4.044 71.644 7.608 76.432 14.232 76.432C17.076 76.432 20.136 75.46 22.152 73.732L19.848 69.376C18.336 70.384 16.572 71.248 14.736 71.248C12.756 71.248 10.884 70.204 10.416 67.936H22.116C22.188 67.288 22.26 66.64 22.26 65.992C22.26 60.844 19.164 57.028 13.692 57.028C7.716 57.028 4.044 61.276 4.044 66.712ZM10.56 64.372C10.884 62.896 11.748 61.6 13.548 61.6C15.132 61.6 16.104 62.86 16.104 64.372H10.56ZM23.646 76H30.486L32.682 71.824C32.862 71.5 33.114 70.888 33.114 70.888H33.186C33.186 70.888 33.438 71.5 33.618 71.824L35.85 76H42.69L36.858 66.82L42.798 57.46H35.778L33.762 61.6C33.546 62.068 33.186 62.824 33.186 62.824H33.114C33.114 62.824 32.79 62.068 32.538 61.6L30.522 57.46H23.502L29.478 66.82L23.646 76ZM45.131 83.2H51.359V76.252C51.359 75.316 51.287 74.668 51.287 74.668H51.359C52.691 75.82 54.347 76.432 56.075 76.432C61.007 76.432 64.715 72.616 64.715 66.748C64.715 60.988 61.403 57.028 56.363 57.028C54.131 57.028 52.007 57.892 50.747 59.584H50.675C50.675 59.584 50.747 59.008 50.747 58.396V57.46H45.131V83.2ZM51.179 66.856C51.179 63.652 52.943 62.284 54.815 62.284C56.975 62.284 58.451 64.084 58.451 66.856C58.451 69.7 56.759 71.284 54.815 71.284C52.367 71.284 51.179 69.088 51.179 66.856ZM66.8682 66.712C66.8682 71.644 70.4322 76.432 77.0562 76.432C79.9002 76.432 82.9602 75.46 84.9762 73.732L82.6722 69.376C81.1602 70.384 79.3962 71.248 77.5602 71.248C75.5802 71.248 73.7082 70.204 73.2402 67.936H84.9402C85.0122 67.288 85.0842 66.64 85.0842 65.992C85.0842 60.844 81.9882 57.028 76.5162 57.028C70.5402 57.028 66.8682 61.276 66.8682 66.712ZM73.3842 64.372C73.7082 62.896 74.5722 61.6 76.3722 61.6C77.9562 61.6 78.9282 62.86 78.9282 64.372H73.3842ZM88.338 76H94.566V68.8C94.566 65.416 96.222 63.22 99.678 63.22C100.11 63.22 100.722 63.256 100.938 63.328V57.208C100.722 57.172 100.47 57.136 100.218 57.136C97.446 57.136 95.106 59.224 94.314 61.744H94.242C94.242 61.744 94.314 61.204 94.314 60.592V57.46H88.338V76ZM103.738 55.12H109.822V50.26H103.738V55.12ZM103.666 76H109.894V57.46H103.666V76ZM113.028 66.712C113.028 71.644 116.592 76.432 123.216 76.432C126.06 76.432 129.12 75.46 131.136 73.732L128.832 69.376C127.32 70.384 125.556 71.248 123.72 71.248C121.74 71.248 119.868 70.204 119.4 67.936H131.1C131.172 67.288 131.244 66.64 131.244 65.992C131.244 60.844 128.148 57.028 122.676 57.028C116.7 57.028 113.028 61.276 113.028 66.712ZM119.544 64.372C119.868 62.896 120.732 61.6 122.532 61.6C124.116 61.6 125.088 62.86 125.088 64.372H119.544ZM134.498 76H140.726V67.612C140.726 64.984 141.986 62.68 144.758 62.68C146.126 62.68 146.81 63.4 146.81 65.128V76H153.038V63.976C153.038 58.756 150.122 57.028 146.378 57.028C143.102 57.028 141.338 58.792 140.474 60.232H140.402C140.402 60.232 140.474 59.692 140.474 59.08V57.46H134.498V76ZM155.989 66.712C155.989 71.824 159.697 76.432 166.321 76.432C169.417 76.432 172.441 75.244 174.277 73.372L172.009 69.016C170.677 70.168 168.733 71.248 166.933 71.248C163.801 71.248 162.289 68.836 162.289 66.64C162.289 64.444 163.765 62.212 166.717 62.212C168.337 62.212 169.993 62.968 171.073 64.012L173.701 59.836C171.865 57.856 168.913 57.028 166.321 57.028C159.661 57.028 155.989 61.744 155.989 66.712ZM175.501 66.712C175.501 71.644 179.065 76.432 185.689 76.432C188.533 76.432 191.593 75.46 193.609 73.732L191.305 69.376C189.793 70.384 188.029 71.248 186.193 71.248C184.213 71.248 182.341 70.204 181.873 67.936H193.573C193.645 67.288 193.717 66.64 193.717 65.992C193.717 60.844 190.621 57.028 185.149 57.028C179.173 57.028 175.501 61.276 175.501 66.712ZM182.017 64.372C182.341 62.896 183.205 61.6 185.005 61.6C186.589 61.6 187.561 62.86 187.561 64.372H182.017ZM204.323 70.78C204.323 73.984 206.807 76.432 210.371 76.432C212.495 76.432 214.655 75.46 215.879 73.732H215.951C215.951 73.732 215.879 74.272 215.879 74.884V76H221.567V64.588C221.567 59.872 218.399 57.028 213.287 57.028C210.263 57.028 207.023 58.216 205.439 59.44L207.599 63.832C209.075 62.86 210.911 62.068 212.711 62.068C214.079 62.068 215.339 62.572 215.339 64.12V64.444H214.799C210.227 64.444 204.323 65.812 204.323 70.78ZM210.479 70.204C210.479 68.512 212.927 68.008 214.835 68.008H215.411V68.512C215.411 70.024 214.043 71.788 212.243 71.788C211.091 71.788 210.479 71.068 210.479 70.204ZM226.598 69.16C226.598 75.388 232.322 76.18 235.274 76.18C235.994 76.18 236.498 76.108 236.966 76.072V70.672C236.57 70.708 236.354 70.708 236.138 70.708C234.95 70.708 232.826 70.42 232.826 68.332V62.644H236.714V57.784H232.826V52.456H226.778V57.784H224.222V62.644H226.598V69.16ZM240.354 63.364H246.258V57.46H240.354V63.364ZM240.354 76H246.258V70.096H240.354V76Z" fill="#222224"/>
<path d="M4.674 135H6.456V126.756C6.456 126.036 6.348 124.902 6.348 124.902H6.384C6.384 124.902 6.978 126.054 7.428 126.756L13.098 135H14.844V122.292H13.08V130.536C13.08 131.256 13.188 132.39 13.188 132.39H13.152C13.152 132.39 12.558 131.238 12.108 130.536L6.438 122.292H4.674V135ZM18.2092 135H19.9912V122.292H18.2092V135ZM22.4235 133.542C23.5215 134.622 25.0695 135.216 26.5995 135.216C29.1915 135.216 30.6495 133.596 30.6495 131.598C30.6495 127.512 24.5295 128.232 24.5295 125.514C24.5295 124.416 25.5195 123.714 26.8155 123.714C27.8235 123.714 28.9215 124.182 29.6235 124.83L30.4335 123.372C29.4975 122.49 28.1475 122.076 26.8875 122.076C24.5295 122.076 22.7295 123.462 22.7295 125.604C22.7295 129.564 28.8675 128.934 28.8675 131.742C28.8675 132.84 27.9675 133.56 26.6355 133.56C25.4295 133.56 24.2055 132.93 23.4315 132.192L22.4235 133.542Z" fill="#424754"/>
<path d="M4.674 176H6.456V170.582H10.902V169.034H6.456V164.84H11.676V163.292H4.674V176ZM13.9201 176H15.7021V163.292H13.9201V176ZM18.0445 176H27.3505V174.452H21.1945C20.5825 174.452 20.2585 174.488 20.2585 174.488V174.452C20.2585 174.452 20.6905 174.002 21.1585 173.3L27.2785 164.462V163.292H18.3505V164.84H24.1285C24.7225 164.84 25.0645 164.804 25.0645 164.804V164.84C25.0645 164.84 24.6325 165.272 24.1465 165.992L18.0445 174.812V176ZM29.272 176H31.054L31.666 167.99C31.738 167.216 31.702 166.082 31.702 166.082H31.738C31.738 166.082 32.134 167.306 32.422 167.99L34.942 173.714H36.526L39.064 167.99C39.352 167.288 39.748 166.118 39.748 166.118H39.784C39.784 166.118 39.748 167.216 39.82 167.99L40.432 176H42.196L41.17 163.292H39.316L36.382 170.168C36.094 170.87 35.752 171.878 35.752 171.878H35.716C35.716 171.878 35.392 170.87 35.104 170.168L32.17 163.292H30.316L29.272 176ZM43.6645 176H45.4825L46.7605 172.346H51.5485L52.8265 176H54.6625L50.1085 163.292H48.2185L43.6645 176ZM47.2285 170.87L48.6505 166.856C48.8665 166.19 49.1365 165.038 49.1365 165.038H49.1725C49.1725 165.038 49.4605 166.19 49.6765 166.856L51.0805 170.87H47.2285ZM58.5151 176H60.2791V164.84H64.6531V163.292H54.1411V164.84H58.5151V176Z" fill="#424754"/>
<path d="M4.674 217H6.456V211.186H8.346L11.73 217H13.764L9.822 210.358V210.322L13.53 204.292H11.568L8.346 209.638H6.456V204.292H4.674V217ZM18.7006 217H20.4646V205.84H24.8386V204.292H14.3266V205.84H18.7006V217ZM26.8049 217H34.2929V215.452H28.5869V204.292H26.8049V217Z" fill="#424754"/>
<path d="M4.674 258H6.456V249.756C6.456 249.036 6.348 247.902 6.348 247.902H6.384C6.384 247.902 6.978 249.054 7.428 249.756L13.098 258H14.844V245.292H13.08V253.536C13.08 254.256 13.188 255.39 13.188 255.39H13.152C13.152 255.39 12.558 254.238 12.108 253.536L6.438 245.292H4.674V258ZM17.0061 255.516C17.0061 257.226 18.4641 258.216 20.0481 258.216C21.3981 258.216 22.5141 257.406 23.0361 256.362H23.0721C23.0721 256.362 23.0181 256.668 23.0181 257.082V258H24.6561V252.24C24.6561 249.936 23.3421 248.676 21.0561 248.676C19.7781 248.676 18.3921 249.144 17.6541 249.756L18.3561 251.034C19.0941 250.512 20.0121 250.152 20.9121 250.152C22.0461 250.152 22.9101 250.656 22.9101 252.15V252.33H22.4421C20.5521 252.33 17.0061 252.654 17.0061 255.516ZM18.7521 255.372C18.7521 253.698 21.1641 253.59 22.4601 253.59H22.9101V253.932C22.9101 255.282 21.9921 256.83 20.4621 256.83C19.3281 256.83 18.7521 256.092 18.7521 255.372ZM26.5523 258H34.4183V256.488H29.7923C29.1983 256.488 28.8923 256.542 28.8923 256.542V256.506C28.8923 256.506 29.2883 256.146 29.6663 255.66L34.2563 249.9V248.892H26.7503V250.386H31.0163C31.6103 250.386 31.8983 250.35 31.8983 250.35V250.386C31.8983 250.386 31.5383 250.746 31.1603 251.232L26.5523 256.992V258ZM35.6917 255.516C35.6917 257.226 37.1497 258.216 38.7337 258.216C40.0837 258.216 41.1997 257.406 41.7217 256.362H41.7577C41.7577 256.362 41.7037 256.668 41.7037 257.082V258H43.3417V252.24C43.3417 249.936 42.0277 248.676 39.7417 248.676C38.4637 248.676 37.0777 249.144 36.3397 249.756L37.0417 251.034C37.7797 250.512 38.6977 250.152 39.5977 250.152C40.7317 250.152 41.5957 250.656 41.5957 252.15V252.33H41.1277C39.2377 252.33 35.6917 252.654 35.6917 255.516ZM37.4377 255.372C37.4377 253.698 39.8497 253.59 41.1457 253.59H41.5957V253.932C41.5957 255.282 40.6777 256.83 39.1477 256.83C38.0137 256.83 37.4377 256.092 37.4377 255.372ZM45.9398 258H47.6858V254.22C47.6858 252.456 48.5138 250.512 50.4758 250.512C50.6558 250.512 50.9078 250.53 50.9798 250.548V248.82C50.8358 248.802 50.6738 248.784 50.5118 248.784C49.1078 248.784 48.0458 249.882 47.6138 251.196H47.5778C47.5778 251.196 47.6318 250.908 47.6318 250.53V248.892H45.9398V258ZM52.7074 258H54.3454V257.262C54.3454 256.848 54.2914 256.578 54.2914 256.578H54.3274C54.9214 257.604 56.0374 258.216 57.2254 258.216C59.6374 258.216 61.3654 256.344 61.3654 253.446C61.3654 250.62 59.8354 248.676 57.3694 248.676C56.1094 248.676 54.9574 249.306 54.4174 250.278H54.3814C54.3814 250.278 54.4534 249.954 54.4534 249.504V245.292H52.7074V258ZM54.3994 253.482C54.3994 251.178 55.6594 250.206 57.0274 250.206C58.5394 250.206 59.6014 251.484 59.6014 253.464C59.6014 255.534 58.4134 256.704 56.9734 256.704C55.2454 256.704 54.3994 255.102 54.3994 253.482ZM62.762 255.516C62.762 257.226 64.22 258.216 65.804 258.216C67.154 258.216 68.27 257.406 68.792 256.362H68.828C68.828 256.362 68.774 256.668 68.774 257.082V258H70.412V252.24C70.412 249.936 69.098 248.676 66.812 248.676C65.534 248.676 64.148 249.144 63.41 249.756L64.112 251.034C64.85 250.512 65.768 250.152 66.668 250.152C67.802 250.152 68.666 250.656 68.666 252.15V252.33H68.198C66.308 252.33 62.762 252.654 62.762 255.516ZM64.508 255.372C64.508 253.698 66.92 253.59 68.216 253.59H68.666V253.932C68.666 255.282 67.748 256.83 66.218 256.83C65.084 256.83 64.508 256.092 64.508 255.372ZM72.3844 259.89L71.7724 261.222C71.7724 261.222 72.5104 261.78 73.5184 261.78C74.7964 261.78 75.9304 261.06 76.4704 259.638L80.7544 248.892H78.8644L76.6504 254.868C76.4884 255.336 76.3444 255.948 76.3444 255.948H76.3084C76.3084 255.948 76.1464 255.3 75.9664 254.85L73.6804 248.892H71.7184L75.5344 257.892L75.0844 258.936C74.7424 259.764 74.1484 260.286 73.4284 260.286C72.8884 260.286 72.3844 259.89 72.3844 259.89ZM81.5744 253.446C81.5744 256.146 83.5544 258.216 86.4164 258.216C87.6764 258.216 89.0624 257.73 89.9444 256.92L89.2064 255.642C88.4864 256.29 87.4964 256.704 86.5244 256.704C84.8864 256.704 83.4824 255.642 83.3924 253.68H90.0164C90.0524 253.428 90.0884 253.176 90.0884 252.942C90.0884 250.602 88.7204 248.676 86.1464 248.676C83.5544 248.676 81.5744 250.548 81.5744 253.446ZM83.4464 252.42C83.6984 250.908 84.7604 250.026 86.1104 250.026C87.2984 250.026 88.2704 250.854 88.3244 252.42H83.4464ZM94.4065 258H96.4045L99.7705 248.892H97.9345L95.7205 255.048C95.5585 255.552 95.4145 256.29 95.4145 256.29H95.3785C95.3785 256.29 95.2165 255.552 95.0545 255.048L92.8405 248.892H90.9865L94.4065 258ZM105.727 253.5C105.727 256.344 107.761 258.216 110.749 258.216C113.719 258.216 115.717 256.344 115.717 253.5V245.292H113.935V253.464C113.935 255.444 112.675 256.578 110.731 256.578C108.787 256.578 107.509 255.444 107.509 253.482V245.292H105.727V253.5ZM118.467 258H120.213V253.626C120.213 251.754 121.473 250.278 123.255 250.278C124.713 250.278 124.965 251.286 124.965 252.564V258H126.711V252.168C126.711 249.846 125.739 248.676 123.597 248.676C121.599 248.676 120.483 250.026 120.141 250.818H120.105C120.105 250.818 120.159 250.512 120.159 250.134V248.892H118.467V258ZM129.277 247.056H131.077V245.292H129.277V247.056ZM129.313 258H131.059V248.892H129.313V258ZM136.155 258H138.153L141.519 248.892H139.683L137.469 255.048C137.307 255.552 137.163 256.29 137.163 256.29H137.127C137.127 256.29 136.965 255.552 136.803 255.048L134.589 248.892H132.735L136.155 258ZM142.412 253.446C142.412 256.146 144.392 258.216 147.254 258.216C148.514 258.216 149.9 257.73 150.782 256.92L150.044 255.642C149.324 256.29 148.334 256.704 147.362 256.704C145.724 256.704 144.32 255.642 144.23 253.68H150.854C150.89 253.428 150.926 253.176 150.926 252.942C150.926 250.602 149.558 248.676 146.984 248.676C144.392 248.676 142.412 250.548 142.412 253.446ZM144.284 252.42C144.536 250.908 145.598 250.026 146.948 250.026C148.136 250.026 149.108 250.854 149.162 252.42H144.284ZM153.026 258H154.772V254.22C154.772 252.456 155.6 250.512 157.562 250.512C157.742 250.512 157.994 250.53 158.066 250.548V248.82C157.922 248.802 157.76 248.784 157.598 248.784C156.194 248.784 155.132 249.882 154.7 251.196H154.664C154.664 251.196 154.718 250.908 154.718 250.53V248.892H153.026V258ZM159.019 256.884C159.919 257.802 161.269 258.216 162.493 258.216C164.437 258.216 165.769 257.082 165.769 255.534C165.769 252.528 161.071 253.05 161.071 251.268C161.071 250.494 161.737 250.134 162.619 250.134C163.429 250.134 164.383 250.44 164.923 250.944L165.625 249.684C164.833 248.964 163.717 248.676 162.673 248.676C160.891 248.676 159.397 249.576 159.397 251.304C159.397 254.292 164.077 253.824 164.077 255.57C164.077 256.326 163.447 256.758 162.529 256.758C161.575 256.758 160.531 256.362 159.847 255.696L159.019 256.884ZM167.808 247.056H169.608V245.292H167.808V247.056ZM167.844 258H169.59V248.892H167.844V258ZM172.652 254.67C172.652 257.712 174.974 258.09 176.144 258.09C176.414 258.09 176.612 258.054 176.756 258.036V256.488C176.576 256.524 176.468 256.524 176.342 256.524C175.676 256.524 174.398 256.29 174.398 254.472V250.404H176.594V248.982H174.398V246.39H172.688V248.982H171.464V250.404H172.652V254.67ZM178.099 259.89L177.487 261.222C177.487 261.222 178.225 261.78 179.233 261.78C180.511 261.78 181.645 261.06 182.185 259.638L186.469 248.892H184.579L182.365 254.868C182.203 255.336 182.059 255.948 182.059 255.948H182.023C182.023 255.948 181.861 255.3 181.681 254.85L179.395 248.892H177.433L181.249 257.892L180.799 258.936C180.457 259.764 179.863 260.286 179.143 260.286C178.603 260.286 178.099 259.89 178.099 259.89Z" fill="#424754"/>
<path d="M0.696 348.616C0.696 350.848 2.52 352.288 4.728 352.288C6.384 352.288 7.848 351.376 8.592 350.08H8.64C8.64 350.08 8.568 350.464 8.568 350.968V352H11.4V344.344C11.4 341.248 9.504 339.472 6.312 339.472C4.488 339.472 2.52 340.168 1.512 340.984L2.64 343.168C3.624 342.496 4.848 341.992 6.048 341.992C7.32 341.992 8.352 342.544 8.352 344.152V344.32H7.824C5.112 344.32 0.696 344.944 0.696 348.616ZM3.72 348.352C3.72 346.624 6.312 346.408 7.848 346.408H8.376V346.744C8.376 348.232 7.272 349.96 5.568 349.96C4.344 349.96 3.72 349.168 3.72 348.352ZM14.5226 352H17.5706V346.264C17.5706 344.056 18.9386 342.256 21.0986 342.256C22.6346 342.256 23.0186 343.264 23.0186 344.752V352H26.0666V344.128C26.0666 340.888 24.5066 339.472 21.7946 339.472C19.3226 339.472 17.9546 341.032 17.4506 342.064H17.4026C17.4026 342.064 17.4506 341.68 17.4506 341.2V339.76H14.5226V352ZM28.5219 345.88C28.5219 349.672 30.6579 352.288 33.9459 352.288C35.6979 352.288 37.0899 351.424 37.8099 350.176H37.8579C37.8579 350.176 37.8099 350.488 37.8099 350.944V352H40.6659V334.96H37.6419V340.36C37.6419 340.768 37.6899 341.08 37.6899 341.08H37.6419C36.8499 339.976 35.4339 339.472 34.0659 339.472C30.8259 339.472 28.5219 341.992 28.5219 345.88ZM31.5939 345.88C31.5939 343.456 33.0099 342.088 34.6659 342.088C36.7299 342.088 37.7139 343.96 37.7139 345.856C37.7139 348.568 36.2259 349.72 34.6419 349.72C32.8419 349.72 31.5939 348.208 31.5939 345.88ZM51.3521 353.656L50.4161 355.984C51.6161 356.608 53.2481 357.04 54.7841 357.04C57.9761 357.04 61.2401 355.456 61.2401 351.256V339.76H58.3601V340.744C58.3601 340.936 58.4081 341.08 58.4081 341.08H58.3361C57.5201 339.952 56.0561 339.472 54.6881 339.472C51.1601 339.472 49.2881 342.208 49.2881 345.568C49.2881 348.928 51.2561 351.76 54.7601 351.76C56.3921 351.76 57.4721 351.136 58.1921 350.056H58.2401C58.2401 350.056 58.1921 350.416 58.1921 350.704V351.472C58.1921 353.656 56.6081 354.448 54.7361 354.448C53.5361 354.448 52.3361 354.136 51.3521 353.656ZM52.3601 345.472C52.3601 343.408 53.3921 342.064 55.2401 342.064C56.8721 342.064 58.2641 342.808 58.2641 345.592C58.2641 348.352 56.8721 349.192 55.4321 349.192C53.4401 349.192 52.3601 347.608 52.3601 345.472ZM64.5148 352H67.5628V347.056C67.5628 344.752 68.6668 342.592 71.1628 342.592C71.4268 342.592 71.7868 342.616 71.9068 342.64V339.64C71.7148 339.616 71.5228 339.592 71.3308 339.592C69.4828 339.592 67.9948 341.032 67.4428 342.76H67.3948C67.3948 342.76 67.4428 342.376 67.4428 341.92V339.76H64.5148V352ZM72.9538 348.616C72.9538 350.848 74.7778 352.288 76.9858 352.288C78.6418 352.288 80.1058 351.376 80.8498 350.08H80.8978C80.8978 350.08 80.8258 350.464 80.8258 350.968V352H83.6578V344.344C83.6578 341.248 81.7618 339.472 78.5698 339.472C76.7458 339.472 74.7778 340.168 73.7698 340.984L74.8978 343.168C75.8818 342.496 77.1058 341.992 78.3058 341.992C79.5778 341.992 80.6098 342.544 80.6098 344.152V344.32H80.0818C77.3698 344.32 72.9538 344.944 72.9538 348.616ZM75.9778 348.352C75.9778 346.624 78.5698 346.408 80.1058 346.408H80.6338V346.744C80.6338 348.232 79.5298 349.96 77.8258 349.96C76.6018 349.96 75.9778 349.168 75.9778 348.352ZM86.0844 345.88C86.0844 349.672 88.2204 352.288 91.5084 352.288C93.2604 352.288 94.6524 351.424 95.3724 350.176H95.4204C95.4204 350.176 95.3724 350.488 95.3724 350.944V352H98.2284V334.96H95.2044V340.36C95.2044 340.768 95.2524 341.08 95.2524 341.08H95.2044C94.4124 339.976 92.9964 339.472 91.6284 339.472C88.3884 339.472 86.0844 341.992 86.0844 345.88ZM89.1564 345.88C89.1564 343.456 90.5724 342.088 92.2284 342.088C94.2924 342.088 95.2764 343.96 95.2764 345.856C95.2764 348.568 93.7884 349.72 92.2044 349.72C90.4044 349.72 89.1564 348.208 89.1564 345.88ZM101.403 347.632C101.403 350.968 103.011 352.288 105.651 352.288C107.739 352.288 109.323 350.968 109.899 349.72H109.947C109.947 349.72 109.875 350.104 109.875 350.56V352H112.803V339.76H109.779V345.376C109.779 347.56 108.555 349.504 106.347 349.504C104.835 349.504 104.451 348.496 104.451 347.008V339.76H101.403V347.632ZM115.165 348.616C115.165 350.848 116.989 352.288 119.197 352.288C120.853 352.288 122.317 351.376 123.061 350.08H123.109C123.109 350.08 123.037 350.464 123.037 350.968V352H125.869V344.344C125.869 341.248 123.973 339.472 120.781 339.472C118.957 339.472 116.989 340.168 115.981 340.984L117.109 343.168C118.093 342.496 119.317 341.992 120.517 341.992C121.789 341.992 122.821 342.544 122.821 344.152V344.32H122.293C119.581 344.32 115.165 344.944 115.165 348.616ZM118.189 348.352C118.189 346.624 120.781 346.408 122.317 346.408H122.845V346.744C122.845 348.232 121.741 349.96 120.037 349.96C118.813 349.96 118.189 349.168 118.189 348.352ZM129.591 347.512C129.591 351.616 132.975 352.12 134.679 352.12C135.087 352.12 135.375 352.072 135.615 352.048V349.384C135.375 349.432 135.231 349.432 135.063 349.432C134.223 349.432 132.639 349.144 132.639 347.128V342.352H135.423V339.928H132.639V336.424H129.663V339.928H128.007V342.352H129.591V347.512ZM137.107 345.88C137.107 349.36 139.651 352.288 143.707 352.288C145.459 352.288 147.379 351.64 148.627 350.536L147.427 348.352C146.443 349.144 145.171 349.696 143.923 349.696C142.075 349.696 140.443 348.592 140.251 346.456H148.675C148.723 346.072 148.771 345.664 148.771 345.28C148.771 342.04 146.851 339.472 143.347 339.472C139.675 339.472 137.107 342.112 137.107 345.88ZM140.323 344.368C140.611 342.808 141.715 341.776 143.275 341.776C144.643 341.776 145.699 342.736 145.723 344.368H140.323ZM150.608 345.88C150.608 349.672 152.744 352.288 156.032 352.288C157.784 352.288 159.176 351.424 159.896 350.176H159.944C159.944 350.176 159.896 350.488 159.896 350.944V352H162.752V334.96H159.728V340.36C159.728 340.768 159.776 341.08 159.776 341.08H159.728C158.936 339.976 157.52 339.472 156.152 339.472C152.912 339.472 150.608 341.992 150.608 345.88ZM153.68 345.88C153.68 343.456 155.096 342.088 156.752 342.088C158.816 342.088 159.8 343.96 159.8 345.856C159.8 348.568 158.312 349.72 156.728 349.72C154.928 349.72 153.68 348.208 153.68 345.88ZM172.742 352H175.79V342.352H178.43V339.928H175.79V339.472C175.79 337.696 177.278 337.48 178.166 337.48C178.43 337.48 178.694 337.504 178.79 337.528V334.936C178.43 334.864 178.118 334.864 177.758 334.864C176.054 334.864 172.742 335.392 172.742 339.4V339.928H171.23V342.352H172.742V352ZM180.601 352H183.649V347.056C183.649 344.752 184.753 342.592 187.249 342.592C187.513 342.592 187.873 342.616 187.993 342.64V339.64C187.801 339.616 187.609 339.592 187.417 339.592C185.569 339.592 184.081 341.032 183.529 342.76H183.481C183.481 342.76 183.529 342.376 183.529 341.92V339.76H180.601V352ZM189.115 345.88C189.115 349.648 192.115 352.288 195.835 352.288C199.555 352.288 202.555 349.648 202.555 345.88C202.555 342.136 199.555 339.472 195.811 339.472C192.115 339.472 189.115 342.136 189.115 345.88ZM192.211 345.88C192.211 343.624 193.843 342.064 195.835 342.064C197.827 342.064 199.483 343.624 199.483 345.88C199.483 348.16 197.827 349.696 195.835 349.696C193.843 349.696 192.211 348.16 192.211 345.88ZM205.07 352H208.118V346.504C208.118 344.464 209.126 342.256 211.262 342.256C212.702 342.256 212.918 343.384 212.918 344.704V352H215.966V346.504C215.966 344.368 216.997 342.256 219.086 342.256C220.478 342.256 220.766 343.312 220.766 344.704V352H223.79V344.128C223.79 340.912 222.35 339.472 219.782 339.472C217.862 339.472 216.278 340.72 215.606 341.992H215.557C215.054 340.336 213.854 339.472 212.006 339.472C210.086 339.472 208.574 340.864 207.998 342.064H207.95C207.95 342.064 207.998 341.68 207.998 341.2V339.76H205.07V352ZM226.912 342.808H229.936V339.76H226.912V342.808ZM226.912 352H229.936V348.952H226.912V352Z" fill="#222224"/>
<path d="M1.674 412H9.162V410.452H3.456V399.292H1.674V412ZM9.84389 407.428C9.84389 410.2 12.0399 412.216 14.7579 412.216C17.4579 412.216 19.6539 410.2 19.6539 407.428C19.6539 404.674 17.4579 402.676 14.7399 402.676C12.0399 402.676 9.84389 404.674 9.84389 407.428ZM11.6259 407.428C11.6259 405.538 13.0299 404.188 14.7579 404.188C16.4679 404.188 17.8899 405.538 17.8899 407.428C17.8899 409.336 16.4679 410.704 14.7579 410.704C13.0299 410.704 11.6259 409.336 11.6259 407.428ZM21.7582 412H23.5042V407.752C23.5042 406.06 24.5122 404.26 26.2402 404.26C27.6262 404.26 27.8062 405.358 27.8062 406.546V412H29.5522V407.752C29.5522 406.006 30.5602 404.26 32.2522 404.26C33.6022 404.26 33.8542 405.268 33.8542 406.546V412H35.6002V406.168C35.6002 403.846 34.6642 402.676 32.5942 402.676C31.1182 402.676 29.8582 403.684 29.3542 404.746H29.3182C29.0122 403.378 28.1302 402.676 26.6002 402.676C25.1602 402.676 23.8642 403.756 23.4322 404.818H23.3962C23.3962 404.818 23.4502 404.512 23.4502 404.134V402.892H21.7582V412ZM37.6173 407.428C37.6173 410.2 39.8133 412.216 42.5313 412.216C45.2313 412.216 47.4273 410.2 47.4273 407.428C47.4273 404.674 45.2313 402.676 42.5133 402.676C39.8133 402.676 37.6173 404.674 37.6173 407.428ZM39.3993 407.428C39.3993 405.538 40.8033 404.188 42.5313 404.188C44.2413 404.188 45.6633 405.538 45.6633 407.428C45.6633 409.336 44.2413 410.704 42.5313 410.704C40.8033 410.704 39.3993 409.336 39.3993 407.428ZM49.5316 412H51.2776V407.626C51.2776 405.754 52.5376 404.278 54.3196 404.278C55.7776 404.278 56.0296 405.286 56.0296 406.564V412H57.7756V406.168C57.7756 403.846 56.8036 402.676 54.6616 402.676C52.6636 402.676 51.5476 404.026 51.2056 404.818H51.1696C51.1696 404.818 51.2236 404.512 51.2236 404.134V402.892H49.5316V412ZM59.7833 407.428C59.7833 410.2 61.9793 412.216 64.6973 412.216C67.3973 412.216 69.5933 410.2 69.5933 407.428C69.5933 404.674 67.3973 402.676 64.6793 402.676C61.9793 402.676 59.7833 404.674 59.7833 407.428ZM61.5653 407.428C61.5653 405.538 62.9693 404.188 64.6973 404.188C66.4073 404.188 67.8293 405.538 67.8293 407.428C67.8293 409.336 66.4073 410.704 64.6973 410.704C62.9693 410.704 61.5653 409.336 61.5653 407.428ZM70.9237 410.884C71.8237 411.802 73.1737 412.216 74.3977 412.216C76.3417 412.216 77.6737 411.082 77.6737 409.534C77.6737 406.528 72.9757 407.05 72.9757 405.268C72.9757 404.494 73.6417 404.134 74.5237 404.134C75.3337 404.134 76.2877 404.44 76.8277 404.944L77.5297 403.684C76.7377 402.964 75.6217 402.676 74.5777 402.676C72.7957 402.676 71.3017 403.576 71.3017 405.304C71.3017 408.292 75.9817 407.824 75.9817 409.57C75.9817 410.326 75.3517 410.758 74.4337 410.758C73.4797 410.758 72.4357 410.362 71.7517 409.696L70.9237 410.884ZM79.1544 407.428C79.1544 410.2 81.3504 412.216 84.0684 412.216C86.7684 412.216 88.9644 410.2 88.9644 407.428C88.9644 404.674 86.7684 402.676 84.0504 402.676C81.3504 402.676 79.1544 404.674 79.1544 407.428ZM80.9364 407.428C80.9364 405.538 82.3404 404.188 84.0684 404.188C85.7784 404.188 87.2004 405.538 87.2004 407.428C87.2004 409.336 85.7784 410.704 84.0684 410.704C82.3404 410.704 80.9364 409.336 80.9364 407.428ZM93.2171 412H95.2151L98.5811 402.892H96.7451L94.5311 409.048C94.3691 409.552 94.2251 410.29 94.2251 410.29H94.1891C94.1891 410.29 94.0271 409.552 93.8651 409.048L91.6511 402.892H89.7971L93.2171 412ZM104.196 412H105.978L106.59 403.99C106.662 403.216 106.626 402.082 106.626 402.082H106.662C106.662 402.082 107.058 403.306 107.346 403.99L109.866 409.714H111.45L113.988 403.99C114.276 403.288 114.672 402.118 114.672 402.118H114.708C114.708 402.118 114.672 403.216 114.744 403.99L115.356 412H117.12L116.094 399.292H114.24L111.306 406.168C111.018 406.87 110.676 407.878 110.676 407.878H110.64C110.64 407.878 110.316 406.87 110.028 406.168L107.094 399.292H105.24L104.196 412ZM118.934 407.428C118.934 410.2 121.13 412.216 123.848 412.216C126.548 412.216 128.744 410.2 128.744 407.428C128.744 404.674 126.548 402.676 123.83 402.676C121.13 402.676 118.934 404.674 118.934 407.428ZM120.716 407.428C120.716 405.538 122.12 404.188 123.848 404.188C125.558 404.188 126.98 405.538 126.98 407.428C126.98 409.336 125.558 410.704 123.848 410.704C122.12 410.704 120.716 409.336 120.716 407.428ZM130.074 410.884C130.974 411.802 132.324 412.216 133.548 412.216C135.492 412.216 136.824 411.082 136.824 409.534C136.824 406.528 132.126 407.05 132.126 405.268C132.126 404.494 132.792 404.134 133.674 404.134C134.484 404.134 135.438 404.44 135.978 404.944L136.68 403.684C135.888 402.964 134.772 402.676 133.728 402.676C131.946 402.676 130.452 403.576 130.452 405.304C130.452 408.292 135.132 407.824 135.132 409.57C135.132 410.326 134.502 410.758 133.584 410.758C132.63 410.758 131.586 410.362 130.902 409.696L130.074 410.884ZM138.305 407.446C138.305 410.182 140.303 412.216 143.183 412.216C144.605 412.216 145.991 411.64 146.819 410.758L146.117 409.48C145.415 410.218 144.317 410.704 143.309 410.704C141.419 410.704 140.087 409.282 140.087 407.428C140.087 405.574 141.419 404.188 143.255 404.188C144.209 404.188 145.163 404.62 145.775 405.232L146.603 404.008C145.739 403.09 144.389 402.676 143.183 402.676C140.321 402.676 138.305 404.746 138.305 407.446ZM147.902 407.428C147.902 410.2 150.098 412.216 152.816 412.216C155.516 412.216 157.712 410.2 157.712 407.428C157.712 404.674 155.516 402.676 152.798 402.676C150.098 402.676 147.902 404.674 147.902 407.428ZM149.684 407.428C149.684 405.538 151.088 404.188 152.816 404.188C154.526 404.188 155.948 405.538 155.948 407.428C155.948 409.336 154.526 410.704 152.816 410.704C151.088 410.704 149.684 409.336 149.684 407.428ZM161.622 412H163.566L165.438 406.15C165.582 405.682 165.69 405.16 165.69 405.16H165.726C165.726 405.16 165.834 405.682 165.996 406.15L167.868 412H169.812L172.728 402.892H170.91L169.002 409.282C168.858 409.75 168.768 410.254 168.768 410.254H168.732C168.732 410.254 168.624 409.75 168.498 409.282L166.536 402.91H164.916L162.954 409.282C162.81 409.75 162.702 410.254 162.702 410.254H162.666C162.666 410.254 162.576 409.75 162.432 409.282L160.542 402.892H158.688L161.622 412ZM177.961 410.542C179.059 411.622 180.607 412.216 182.137 412.216C184.729 412.216 186.187 410.596 186.187 408.598C186.187 404.512 180.067 405.232 180.067 402.514C180.067 401.416 181.057 400.714 182.353 400.714C183.361 400.714 184.459 401.182 185.161 401.83L185.971 400.372C185.035 399.49 183.685 399.076 182.425 399.076C180.067 399.076 178.267 400.462 178.267 402.604C178.267 406.564 184.405 405.934 184.405 408.742C184.405 409.84 183.505 410.56 182.173 410.56C180.967 410.56 179.743 409.93 178.969 409.192L177.961 410.542ZM188.566 408.67C188.566 411.712 190.888 412.09 192.058 412.09C192.328 412.09 192.526 412.054 192.67 412.036V410.488C192.49 410.524 192.382 410.524 192.256 410.524C191.59 410.524 190.312 410.29 190.312 408.472V404.404H192.508V402.982H190.312V400.39H188.602V402.982H187.378V404.404H188.566V408.67ZM193.707 409.516C193.707 411.226 195.165 412.216 196.749 412.216C198.099 412.216 199.215 411.406 199.737 410.362H199.773C199.773 410.362 199.719 410.668 199.719 411.082V412H201.357V406.24C201.357 403.936 200.043 402.676 197.757 402.676C196.479 402.676 195.093 403.144 194.355 403.756L195.057 405.034C195.795 404.512 196.713 404.152 197.613 404.152C198.747 404.152 199.611 404.656 199.611 406.15V406.33H199.143C197.253 406.33 193.707 406.654 193.707 409.516ZM195.453 409.372C195.453 407.698 197.865 407.59 199.161 407.59H199.611V407.932C199.611 409.282 198.693 410.83 197.163 410.83C196.029 410.83 195.453 410.092 195.453 409.372ZM204.333 408.67C204.333 411.712 206.655 412.09 207.825 412.09C208.095 412.09 208.293 412.054 208.437 412.036V410.488C208.257 410.524 208.149 410.524 208.023 410.524C207.357 410.524 206.079 410.29 206.079 408.472V404.404H208.275V402.982H206.079V400.39H204.369V402.982H203.145V404.404H204.333V408.67ZM209.549 407.446C209.549 410.146 211.529 412.216 214.391 412.216C215.651 412.216 217.037 411.73 217.919 410.92L217.181 409.642C216.461 410.29 215.471 410.704 214.499 410.704C212.861 410.704 211.457 409.642 211.367 407.68H217.991C218.027 407.428 218.063 407.176 218.063 406.942C218.063 404.602 216.695 402.676 214.121 402.676C211.529 402.676 209.549 404.548 209.549 407.446ZM211.421 406.42C211.673 404.908 212.735 404.026 214.085 404.026C215.273 404.026 216.245 404.854 216.299 406.42H211.421ZM224.843 407.5C224.843 410.344 226.877 412.216 229.865 412.216C232.835 412.216 234.833 410.344 234.833 407.5V399.292H233.051V407.464C233.051 409.444 231.791 410.578 229.847 410.578C227.903 410.578 226.625 409.444 226.625 407.482V399.292H224.843V407.5ZM237.582 412H239.328V407.626C239.328 405.754 240.588 404.278 242.37 404.278C243.828 404.278 244.08 405.286 244.08 406.564V412H245.826V406.168C245.826 403.846 244.854 402.676 242.712 402.676C240.714 402.676 239.598 404.026 239.256 404.818H239.22C239.22 404.818 239.274 404.512 239.274 404.134V402.892H237.582V412ZM248.392 401.056H250.192V399.292H248.392V401.056ZM248.428 412H250.174V402.892H248.428V412ZM255.27 412H257.268L260.634 402.892H258.798L256.584 409.048C256.422 409.552 256.278 410.29 256.278 410.29H256.242C256.242 410.29 256.08 409.552 255.918 409.048L253.704 402.892H251.85L255.27 412ZM261.527 407.446C261.527 410.146 263.507 412.216 266.369 412.216C267.629 412.216 269.015 411.73 269.897 410.92L269.159 409.642C268.439 410.29 267.449 410.704 266.477 410.704C264.839 410.704 263.435 409.642 263.345 407.68H269.969C270.005 407.428 270.041 407.176 270.041 406.942C270.041 404.602 268.673 402.676 266.099 402.676C263.507 402.676 261.527 404.548 261.527 407.446ZM263.399 406.42C263.651 404.908 264.713 404.026 266.063 404.026C267.251 404.026 268.223 404.854 268.277 406.42H263.399ZM272.141 412H273.887V408.22C273.887 406.456 274.715 404.512 276.677 404.512C276.857 404.512 277.109 404.53 277.181 404.548V402.82C277.037 402.802 276.875 402.784 276.713 402.784C275.309 402.784 274.247 403.882 273.815 405.196H273.779C273.779 405.196 273.833 404.908 273.833 404.53V402.892H272.141V412ZM278.135 410.884C279.035 411.802 280.385 412.216 281.609 412.216C283.553 412.216 284.885 411.082 284.885 409.534C284.885 406.528 280.187 407.05 280.187 405.268C280.187 404.494 280.853 404.134 281.735 404.134C282.545 404.134 283.499 404.44 284.039 404.944L284.741 403.684C283.949 402.964 282.833 402.676 281.789 402.676C280.007 402.676 278.513 403.576 278.513 405.304C278.513 408.292 283.193 407.824 283.193 409.57C283.193 410.326 282.563 410.758 281.645 410.758C280.691 410.758 279.647 410.362 278.963 409.696L278.135 410.884ZM286.923 401.056H288.723V399.292H286.923V401.056ZM286.959 412H288.705V402.892H286.959V412ZM291.767 408.67C291.767 411.712 294.089 412.09 295.259 412.09C295.529 412.09 295.727 412.054 295.871 412.036V410.488C295.691 410.524 295.583 410.524 295.457 410.524C294.791 410.524 293.513 410.29 293.513 408.472V404.404H295.709V402.982H293.513V400.39H291.803V402.982H290.579V404.404H291.767V408.67ZM297.214 413.89L296.602 415.222C296.602 415.222 297.34 415.78 298.348 415.78C299.626 415.78 300.76 415.06 301.3 413.638L305.584 402.892H303.694L301.48 408.868C301.318 409.336 301.174 409.948 301.174 409.948H301.138C301.138 409.948 300.976 409.3 300.796 408.85L298.51 402.892H296.548L300.364 411.892L299.914 412.936C299.572 413.764 298.978 414.286 298.258 414.286C297.718 414.286 297.214 413.89 297.214 413.89Z" fill="#424754"/>
<path d="M1.674 453H3.456V444.756C3.456 444.036 3.348 442.902 3.348 442.902H3.384C3.384 442.902 3.978 444.054 4.428 444.756L10.098 453H11.844V440.292H10.08V448.536C10.08 449.256 10.188 450.39 10.188 450.39H10.152C10.152 450.39 9.558 449.238 9.108 448.536L3.438 440.292H1.674V453ZM14.0061 450.516C14.0061 452.226 15.4641 453.216 17.0481 453.216C18.3981 453.216 19.5141 452.406 20.0361 451.362H20.0721C20.0721 451.362 20.0181 451.668 20.0181 452.082V453H21.6561V447.24C21.6561 444.936 20.3421 443.676 18.0561 443.676C16.7781 443.676 15.3921 444.144 14.6541 444.756L15.3561 446.034C16.0941 445.512 17.0121 445.152 17.9121 445.152C19.0461 445.152 19.9101 445.656 19.9101 447.15V447.33H19.4421C17.5521 447.33 14.0061 447.654 14.0061 450.516ZM15.7521 450.372C15.7521 448.698 18.1641 448.59 19.4601 448.59H19.9101V448.932C19.9101 450.282 18.9921 451.83 17.4621 451.83C16.3281 451.83 15.7521 451.092 15.7521 450.372ZM23.5523 453H31.4183V451.488H26.7923C26.1983 451.488 25.8923 451.542 25.8923 451.542V451.506C25.8923 451.506 26.2883 451.146 26.6663 450.66L31.2563 444.9V443.892H23.7503V445.386H28.0163C28.6103 445.386 28.8983 445.35 28.8983 445.35V445.386C28.8983 445.386 28.5383 445.746 28.1603 446.232L23.5523 451.992V453ZM32.6917 450.516C32.6917 452.226 34.1497 453.216 35.7337 453.216C37.0837 453.216 38.1997 452.406 38.7217 451.362H38.7577C38.7577 451.362 38.7037 451.668 38.7037 452.082V453H40.3417V447.24C40.3417 444.936 39.0277 443.676 36.7417 443.676C35.4637 443.676 34.0777 444.144 33.3397 444.756L34.0417 446.034C34.7797 445.512 35.6977 445.152 36.5977 445.152C37.7317 445.152 38.5957 445.656 38.5957 447.15V447.33H38.1277C36.2377 447.33 32.6917 447.654 32.6917 450.516ZM34.4377 450.372C34.4377 448.698 36.8497 448.59 38.1457 448.59H38.5957V448.932C38.5957 450.282 37.6777 451.83 36.1477 451.83C35.0137 451.83 34.4377 451.092 34.4377 450.372ZM42.9398 453H44.6858V449.22C44.6858 447.456 45.5138 445.512 47.4758 445.512C47.6558 445.512 47.9078 445.53 47.9798 445.548V443.82C47.8358 443.802 47.6738 443.784 47.5118 443.784C46.1078 443.784 45.0458 444.882 44.6138 446.196H44.5778C44.5778 446.196 44.6318 445.908 44.6318 445.53V443.892H42.9398V453ZM49.7074 453H51.3454V452.262C51.3454 451.848 51.2914 451.578 51.2914 451.578H51.3274C51.9214 452.604 53.0374 453.216 54.2254 453.216C56.6374 453.216 58.3654 451.344 58.3654 448.446C58.3654 445.62 56.8354 443.676 54.3694 443.676C53.1094 443.676 51.9574 444.306 51.4174 445.278H51.3814C51.3814 445.278 51.4534 444.954 51.4534 444.504V440.292H49.7074V453ZM51.3994 448.482C51.3994 446.178 52.6594 445.206 54.0274 445.206C55.5394 445.206 56.6014 446.484 56.6014 448.464C56.6014 450.534 55.4134 451.704 53.9734 451.704C52.2454 451.704 51.3994 450.102 51.3994 448.482ZM59.762 450.516C59.762 452.226 61.22 453.216 62.804 453.216C64.154 453.216 65.27 452.406 65.792 451.362H65.828C65.828 451.362 65.774 451.668 65.774 452.082V453H67.412V447.24C67.412 444.936 66.098 443.676 63.812 443.676C62.534 443.676 61.148 444.144 60.41 444.756L61.112 446.034C61.85 445.512 62.768 445.152 63.668 445.152C64.802 445.152 65.666 445.656 65.666 447.15V447.33H65.198C63.308 447.33 59.762 447.654 59.762 450.516ZM61.508 450.372C61.508 448.698 63.92 448.59 65.216 448.59H65.666V448.932C65.666 450.282 64.748 451.83 63.218 451.83C62.084 451.83 61.508 451.092 61.508 450.372ZM69.3844 454.89L68.7724 456.222C68.7724 456.222 69.5104 456.78 70.5184 456.78C71.7964 456.78 72.9304 456.06 73.4704 454.638L77.7544 443.892H75.8644L73.6504 449.868C73.4884 450.336 73.3444 450.948 73.3444 450.948H73.3084C73.3084 450.948 73.1464 450.3 72.9664 449.85L70.6804 443.892H68.7184L72.5344 452.892L72.0844 453.936C71.7424 454.764 71.1484 455.286 70.4284 455.286C69.8884 455.286 69.3844 454.89 69.3844 454.89ZM78.5744 448.446C78.5744 451.146 80.5544 453.216 83.4164 453.216C84.6764 453.216 86.0624 452.73 86.9444 451.92L86.2064 450.642C85.4864 451.29 84.4964 451.704 83.5244 451.704C81.8864 451.704 80.4824 450.642 80.3924 448.68H87.0164C87.0524 448.428 87.0884 448.176 87.0884 447.942C87.0884 445.602 85.7204 443.676 83.1464 443.676C80.5544 443.676 78.5744 445.548 78.5744 448.446ZM80.4464 447.42C80.6984 445.908 81.7604 445.026 83.1104 445.026C84.2984 445.026 85.2704 445.854 85.3244 447.42H80.4464ZM91.4065 453H93.4045L96.7705 443.892H94.9345L92.7205 450.048C92.5585 450.552 92.4145 451.29 92.4145 451.29H92.3785C92.3785 451.29 92.2165 450.552 92.0545 450.048L89.8405 443.892H87.9865L91.4065 453ZM102.727 448.5C102.727 451.344 104.761 453.216 107.749 453.216C110.719 453.216 112.717 451.344 112.717 448.5V440.292H110.935V448.464C110.935 450.444 109.675 451.578 107.731 451.578C105.787 451.578 104.509 450.444 104.509 448.482V440.292H102.727V448.5ZM115.467 453H117.213V448.626C117.213 446.754 118.473 445.278 120.255 445.278C121.713 445.278 121.965 446.286 121.965 447.564V453H123.711V447.168C123.711 444.846 122.739 443.676 120.597 443.676C118.599 443.676 117.483 445.026 117.141 445.818H117.105C117.105 445.818 117.159 445.512 117.159 445.134V443.892H115.467V453ZM126.277 442.056H128.077V440.292H126.277V442.056ZM126.313 453H128.059V443.892H126.313V453ZM133.155 453H135.153L138.519 443.892H136.683L134.469 450.048C134.307 450.552 134.163 451.29 134.163 451.29H134.127C134.127 451.29 133.965 450.552 133.803 450.048L131.589 443.892H129.735L133.155 453ZM139.412 448.446C139.412 451.146 141.392 453.216 144.254 453.216C145.514 453.216 146.9 452.73 147.782 451.92L147.044 450.642C146.324 451.29 145.334 451.704 144.362 451.704C142.724 451.704 141.32 450.642 141.23 448.68H147.854C147.89 448.428 147.926 448.176 147.926 447.942C147.926 445.602 146.558 443.676 143.984 443.676C141.392 443.676 139.412 445.548 139.412 448.446ZM141.284 447.42C141.536 445.908 142.598 445.026 143.948 445.026C145.136 445.026 146.108 445.854 146.162 447.42H141.284ZM150.026 453H151.772V449.22C151.772 447.456 152.6 445.512 154.562 445.512C154.742 445.512 154.994 445.53 155.066 445.548V443.82C154.922 443.802 154.76 443.784 154.598 443.784C153.194 443.784 152.132 444.882 151.7 446.196H151.664C151.664 446.196 151.718 445.908 151.718 445.53V443.892H150.026V453ZM156.019 451.884C156.919 452.802 158.269 453.216 159.493 453.216C161.437 453.216 162.769 452.082 162.769 450.534C162.769 447.528 158.071 448.05 158.071 446.268C158.071 445.494 158.737 445.134 159.619 445.134C160.429 445.134 161.383 445.44 161.923 445.944L162.625 444.684C161.833 443.964 160.717 443.676 159.673 443.676C157.891 443.676 156.397 444.576 156.397 446.304C156.397 449.292 161.077 448.824 161.077 450.57C161.077 451.326 160.447 451.758 159.529 451.758C158.575 451.758 157.531 451.362 156.847 450.696L156.019 451.884ZM164.808 442.056H166.608V440.292H164.808V442.056ZM164.844 453H166.59V443.892H164.844V453ZM169.652 449.67C169.652 452.712 171.974 453.09 173.144 453.09C173.414 453.09 173.612 453.054 173.756 453.036V451.488C173.576 451.524 173.468 451.524 173.342 451.524C172.676 451.524 171.398 451.29 171.398 449.472V445.404H173.594V443.982H171.398V441.39H169.688V443.982H168.464V445.404H169.652V449.67ZM175.099 454.89L174.487 456.222C174.487 456.222 175.225 456.78 176.233 456.78C177.511 456.78 178.645 456.06 179.185 454.638L183.469 443.892H181.579L179.365 449.868C179.203 450.336 179.059 450.948 179.059 450.948H179.023C179.023 450.948 178.861 450.3 178.681 449.85L176.395 443.892H174.433L178.249 452.892L177.799 453.936C177.457 454.764 176.863 455.286 176.143 455.286C175.603 455.286 175.099 454.89 175.099 454.89Z" fill="#424754"/>
<path d="M0.756 489.428C0.756 492.2 2.952 494.216 5.67 494.216C8.37 494.216 10.566 492.2 10.566 489.428C10.566 486.674 8.37 484.676 5.652 484.676C2.952 484.676 0.756 486.674 0.756 489.428ZM2.538 489.428C2.538 487.538 3.942 486.188 5.67 486.188C7.38 486.188 8.802 487.538 8.802 489.428C8.802 491.336 7.38 492.704 5.67 492.704C3.942 492.704 2.538 491.336 2.538 489.428ZM12.9428 490.67C12.9428 493.712 15.2648 494.09 16.4348 494.09C16.7048 494.09 16.9028 494.054 17.0468 494.036V492.488C16.8668 492.524 16.7588 492.524 16.6328 492.524C15.9668 492.524 14.6888 492.29 14.6888 490.472V486.404H16.8848V484.982H14.6888V482.39H12.9788V484.982H11.7548V486.404H12.9428V490.67ZM18.8402 494H20.5862V489.68C20.5862 487.718 21.8642 486.278 23.6282 486.278C25.0862 486.278 25.3382 487.286 25.3382 488.564V494H27.0842V488.168C27.0842 485.846 26.1122 484.676 23.9702 484.676C22.1522 484.676 20.9642 485.9 20.5502 486.764H20.5142C20.5142 486.764 20.5862 486.44 20.5862 486.008V481.292H18.8402V494ZM29.0919 489.446C29.0919 492.146 31.0719 494.216 33.9339 494.216C35.1939 494.216 36.5799 493.73 37.4619 492.92L36.7239 491.642C36.0039 492.29 35.0139 492.704 34.0419 492.704C32.4039 492.704 30.9999 491.642 30.9099 489.68H37.5339C37.5699 489.428 37.6059 489.176 37.6059 488.942C37.6059 486.602 36.2379 484.676 33.6639 484.676C31.0719 484.676 29.0919 486.548 29.0919 489.446ZM30.9639 488.42C31.2159 486.908 32.2779 486.026 33.6279 486.026C34.8159 486.026 35.7879 486.854 35.8419 488.42H30.9639ZM39.7055 494H41.4515V490.22C41.4515 488.456 42.2795 486.512 44.2415 486.512C44.4215 486.512 44.6735 486.53 44.7455 486.548V484.82C44.6015 484.802 44.4395 484.784 44.2775 484.784C42.8735 484.784 41.8115 485.882 41.3795 487.196H41.3435C41.3435 487.196 41.3975 486.908 41.3975 486.53V484.892H39.7055V494ZM50.4608 490.724C50.4608 493.136 51.5228 494.216 53.5748 494.216C55.3568 494.216 56.5628 492.974 56.9588 492.074H56.9948C56.9948 492.074 56.9228 492.38 56.9228 492.74V494H58.6148V484.892H56.8868V489.158C56.8868 490.958 55.7888 492.596 53.9168 492.596C52.4768 492.596 52.2068 491.588 52.2068 490.328V484.892H50.4608V490.724ZM61.309 494H63.055V489.626C63.055 487.754 64.315 486.278 66.097 486.278C67.555 486.278 67.807 487.286 67.807 488.564V494H69.553V488.168C69.553 485.846 68.581 484.676 66.439 484.676C64.441 484.676 63.325 486.026 62.983 486.818H62.947C62.947 486.818 63.001 486.512 63.001 486.134V484.892H61.309V494ZM72.1187 483.056H73.9187V481.292H72.1187V483.056ZM72.1547 494H73.9007V484.892H72.1547V494ZM78.9964 494H80.9944L84.3604 484.892H82.5244L80.3104 491.048C80.1484 491.552 80.0044 492.29 80.0044 492.29H79.9684C79.9684 492.29 79.8064 491.552 79.6444 491.048L77.4304 484.892H75.5764L78.9964 494ZM85.254 489.446C85.254 492.146 87.234 494.216 90.096 494.216C91.356 494.216 92.742 493.73 93.624 492.92L92.886 491.642C92.166 492.29 91.176 492.704 90.204 492.704C88.566 492.704 87.162 491.642 87.072 489.68H93.696C93.732 489.428 93.768 489.176 93.768 488.942C93.768 486.602 92.4 484.676 89.826 484.676C87.234 484.676 85.254 486.548 85.254 489.446ZM87.126 488.42C87.378 486.908 88.44 486.026 89.79 486.026C90.978 486.026 91.95 486.854 92.004 488.42H87.126ZM95.8676 494H97.6136V490.22C97.6136 488.456 98.4416 486.512 100.404 486.512C100.584 486.512 100.836 486.53 100.908 486.548V484.82C100.764 484.802 100.602 484.784 100.44 484.784C99.0356 484.784 97.9736 485.882 97.5416 487.196H97.5056C97.5056 487.196 97.5596 486.908 97.5596 486.53V484.892H95.8676V494ZM101.861 492.884C102.761 493.802 104.111 494.216 105.335 494.216C107.279 494.216 108.611 493.082 108.611 491.534C108.611 488.528 103.913 489.05 103.913 487.268C103.913 486.494 104.579 486.134 105.461 486.134C106.271 486.134 107.225 486.44 107.765 486.944L108.467 485.684C107.675 484.964 106.559 484.676 105.515 484.676C103.733 484.676 102.239 485.576 102.239 487.304C102.239 490.292 106.919 489.824 106.919 491.57C106.919 492.326 106.289 492.758 105.371 492.758C104.417 492.758 103.373 492.362 102.689 491.696L101.861 492.884ZM110.65 483.056H112.45V481.292H110.65V483.056ZM110.686 494H112.432V484.892H110.686V494ZM115.494 490.67C115.494 493.712 117.816 494.09 118.986 494.09C119.256 494.09 119.454 494.054 119.598 494.036V492.488C119.418 492.524 119.31 492.524 119.184 492.524C118.518 492.524 117.24 492.29 117.24 490.472V486.404H119.436V484.982H117.24V482.39H115.53V484.982H114.306V486.404H115.494V490.67ZM121.355 483.056H123.155V481.292H121.355V483.056ZM121.391 494H123.137V484.892H121.391V494ZM125.227 489.446C125.227 492.146 127.207 494.216 130.069 494.216C131.329 494.216 132.715 493.73 133.597 492.92L132.859 491.642C132.139 492.29 131.149 492.704 130.177 492.704C128.539 492.704 127.135 491.642 127.045 489.68H133.669C133.705 489.428 133.741 489.176 133.741 488.942C133.741 486.602 132.373 484.676 129.799 484.676C127.207 484.676 125.227 486.548 125.227 489.446ZM127.099 488.42C127.351 486.908 128.413 486.026 129.763 486.026C130.951 486.026 131.923 486.854 131.977 488.42H127.099ZM135.066 492.884C135.966 493.802 137.316 494.216 138.54 494.216C140.484 494.216 141.816 493.082 141.816 491.534C141.816 488.528 137.118 489.05 137.118 487.268C137.118 486.494 137.784 486.134 138.666 486.134C139.476 486.134 140.43 486.44 140.97 486.944L141.672 485.684C140.88 484.964 139.764 484.676 138.72 484.676C136.938 484.676 135.444 485.576 135.444 487.304C135.444 490.292 140.124 489.824 140.124 491.57C140.124 492.326 139.494 492.758 138.576 492.758C137.622 492.758 136.578 492.362 135.894 491.696L135.066 492.884Z" fill="#424754"/>
<g clip-path="url(#clip0)">
<path d="M1099.31 246.393C1098.04 243.125 1099.86 241.491 1100.58 238.586C1101.31 235.681 1098.95 226.603 1098.95 226.603C1098.95 226.603 1091.32 195.193 1088.96 189.02C1087.96 186.408 1085.79 184.611 1083.62 183.404C1083.47 182.603 1083.26 182.086 1082.96 181.939C1080.86 180.887 1075.62 178.603 1072.12 177.971C1071.47 176.849 1070.7 175.802 1069.81 174.849C1070.43 173.672 1070.71 172.352 1070.64 171.027C1070.41 167.602 1067.82 164.532 1068.16 161.116C1068.41 158.526 1070.31 156.397 1071.04 153.899C1071.34 152.777 1071.42 151.603 1071.25 150.452C1071.09 149.301 1070.68 148.196 1070.07 147.206C1070.61 147.777 1071.15 148.348 1071.68 148.92C1072.42 147.825 1072.77 146.521 1072.69 145.207C1072.61 143.893 1072.1 142.642 1071.24 141.645C1069.53 139.767 1066.69 139.062 1065.37 136.899C1064.01 134.676 1064.74 131.655 1063.46 129.388C1060.32 123.836 1052.27 127.772 1047.45 125.834C1045.47 125.038 1043.97 124.161 1041.74 124.224C1039.85 124.333 1037.97 124.683 1036.17 125.265C1033.58 126.014 1031.32 127.629 1029.78 129.84C1029.93 129.667 1030.1 129.508 1030.28 129.364C1031.45 128.449 1033.49 128.525 1034.11 129.874C1034.26 130.213 1034.32 130.582 1034.29 130.951C1034.19 132.576 1032.77 133.79 1031.36 134.604C1029.95 135.417 1028.36 136.098 1027.44 137.441C1025.91 139.658 1026.81 142.634 1026.81 145.322C1026.8 147.03 1026.4 148.714 1025.65 150.249C1024.9 151.784 1023.82 153.132 1022.48 154.192L1027.6 152.098C1025.16 156.379 1023.55 161.089 1022.87 165.973L1029.8 160.25C1027.23 164.333 1025.67 168.967 1025.25 173.771L1030.81 168.074C1031.06 168.519 1031.19 169.025 1031.18 169.536L1030.6 171.773C1030.39 172.217 1030.17 172.65 1029.92 173.071C1029.02 174.607 1028.1 176.498 1028.93 178.067L1028.94 178.065C1028.06 181.028 1026.73 183.994 1023.77 185.435C1027.05 185.778 1030.47 184.138 1031.96 181.529C1032.2 181.999 1032.49 182.441 1032.83 182.847C1032.92 182.966 1033.02 183.085 1033.11 183.203L1032.29 183.748L1030.1 185.208C1030.1 185.208 1015.75 188.112 1016.66 193.559C1016.7 193.783 1016.74 194.051 1016.79 194.351L1012.66 201.366L1006.67 221.701C1006.67 221.701 1003.58 228.237 1004.12 230.961C1004.67 233.684 1004.12 234.773 1004.12 239.675C1004.12 244.578 1001.76 246.575 1004.12 250.569C1006.49 254.563 1013.57 266.183 1013.57 266.183L1015.13 267.35C1015.05 268.05 1015.08 268.758 1015.21 269.451C1016.66 276.714 1030.28 346.251 1030.28 346.251C1030.28 346.251 1023.38 401.264 1037.37 404.713C1039.12 405.146 1040.84 405.538 1042.52 405.888L1044.63 419.783L1043.36 437.394C1043.36 437.394 1033.73 459.181 1051.35 460.452C1068.97 461.723 1060.98 441.57 1060.98 441.57C1061.91 439.849 1062.29 437.885 1062.07 435.942C1061.89 434.325 1060.38 425.915 1058.9 417.826C1065.58 417.024 1064.33 409.931 1063.44 406.812C1063.83 406.587 1064.12 406.228 1064.25 405.803C1064.45 405.078 1063.98 402.229 1063.13 398.237C1062.44 394.268 1061.26 387.842 1060.45 383.49L1064.8 384.197L1083.14 276.714C1083.14 276.714 1083.26 275.003 1083.21 272.5C1085.72 271.203 1088.3 270.064 1090.95 269.088C1096.95 266.728 1099.31 258.013 1101.31 254.382C1103.31 250.751 1100.58 249.661 1099.31 246.393ZM1034.17 177.958C1034.76 177.549 1035.46 177.313 1036.18 177.277C1036.02 178.122 1034.57 178.368 1033.35 178.811C1033.58 178.483 1033.85 178.195 1034.17 177.958ZM1025.01 232.05C1026.49 234.467 1023.82 241.015 1021.42 246.212C1020.04 245.027 1018.61 245.4 1020.29 242.036C1021.44 239.904 1022.12 237.552 1022.29 235.137C1022.29 234.721 1022.5 231.671 1024.29 230.404C1024.48 230.974 1024.72 231.525 1025.01 232.05ZM1019.5 252.907C1020.33 252.569 1021.6 252.048 1023.3 251.469C1022.48 252.54 1021.55 253.815 1020.61 255.207C1020.26 254.939 1019.98 254.591 1019.78 254.191C1019.59 253.791 1019.49 253.351 1019.5 252.907ZM1078.42 255.29C1077.32 254.117 1076.42 253.068 1075.69 252.129C1077.06 252.49 1078.45 252.877 1079.87 253.292C1080.58 253.398 1081.3 253.35 1081.99 253.152C1082.05 254.407 1082.05 256.197 1082.05 256.197L1080.06 257.574C1079.61 256.749 1079.06 255.982 1078.42 255.29V255.29ZM1084.06 248.993C1084.04 249.011 1084.01 249.033 1083.99 249.052C1083.89 248.334 1083.73 247.627 1083.51 246.938C1082.32 243.185 1081.68 236.527 1081.34 230.845L1084.78 242.399C1084.78 242.399 1084.96 248.209 1084.06 248.993Z" fill="#D0CDE1"/>
<path d="M1013.5 201.271C1013.5 201.271 994.86 169.256 994.277 165.764C993.695 162.271 984.377 155.868 984.377 155.868C981.193 152.686 975.969 151.68 970.472 151.732C972.542 150.02 965.151 148.869 964.575 147.719C963.993 146.555 962.246 146.555 959.916 144.809C957.587 143.063 951.772 144.518 951.772 144.518C950.897 142.679 950.289 140.726 949.965 138.717C952.447 135.782 953.806 132.062 953.801 128.219C953.801 128.177 953.799 128.136 953.798 128.095C953.946 128.325 954.095 128.557 954.243 128.796C955.334 122.265 957.26 116.835 953.589 110.877C950.988 106.654 946.915 103.542 942.155 102.14L938.659 104.936L940.018 101.675C938.875 101.501 937.719 101.434 936.563 101.476L933.418 105.518L934.72 101.614C931.99 101.953 929.361 102.854 926.997 104.259C924.633 105.664 922.586 107.544 920.986 109.779C916.982 115.549 917.25 123.569 921.188 129.383C921.201 129.343 921.211 129.303 921.224 129.262C921.398 131.982 922.252 134.616 923.708 136.921C925.163 139.225 927.174 141.129 929.556 142.456L930.545 150.364C929.655 151.19 928.513 151.694 927.303 151.794C925.556 151.794 923.809 156.451 923.809 156.451C923.809 156.451 922.818 156.95 921.751 159.308C919.002 161.179 910.616 167.055 907.504 171.161C905.664 172.066 903.686 174.08 904.007 178.57C904.59 186.719 904.007 224.555 904.007 224.555C904.007 224.555 898.766 256.57 900.513 258.898C902.26 261.227 899.931 268.794 899.931 268.794L901.678 269.182V271.122C901.678 271.122 896.423 295.47 904.59 294.406C917.985 292.659 908.084 272.868 908.084 272.868V270.605L910.414 271.122C910.414 271.122 911.578 262.973 913.908 262.391C914.718 262.188 915.669 260.012 916.565 257.262C917.088 261.553 917.402 264.137 917.402 264.137L921.046 263.328L922.061 267.047C922.312 267.188 922.573 267.306 922.844 267.402L922.061 271.704C922.061 271.704 921.479 276.361 922.061 279.271C922.355 280.739 933.166 312.113 943.811 342.855L943.61 350.286C943.61 350.286 938.368 356.107 939.533 360.182C940.698 364.256 936.621 398.017 936.621 398.017L933.127 414.898L934.006 415.168L933.199 418.126C932.504 418.477 931.885 418.963 931.38 419.555C926.72 424.793 920.897 439.928 920.897 439.928C920.897 439.928 910.414 455.644 926.72 455.062C943.027 454.48 944.192 448.659 944.192 448.659C944.192 448.659 946.522 433.525 946.522 432.943C946.522 432.361 945.357 426.377 945.357 426.377L944.904 425.878L945.22 418.617L948.269 419.555C948.269 419.555 951.181 404.42 953.51 402.674C954.324 402.064 956.491 395.265 958.964 386.533C961.491 393.808 963.939 418.963 964.734 421.246C964.452 421.63 964.204 422.038 963.993 422.465C961.375 427.486 958.458 432.346 955.257 437.017C955.257 437.017 936.621 448.077 955.257 450.987C955.257 450.987 965.74 451.569 970.982 448.077C976.223 444.584 990.201 439.346 990.201 438.181C990.201 437.017 986.706 419.904 983.212 421.767L980.871 416.386L983.212 415.48L968.467 349.332C968.816 347.922 969.072 346.491 969.235 345.047C969.235 341.999 976.776 282.645 978.695 267.59C987.14 269.981 994.86 252.495 994.86 252.495L996.774 249.051L999.519 250.749C999.519 250.749 1001.85 244.928 1005.34 244.346C1008.84 243.764 1015.24 212.913 1015.24 208.839C1015.19 206.223 1014.59 203.646 1013.5 201.271ZM986.361 246.877C985.788 245.968 985.123 245.12 984.377 244.346C985.899 240.382 987.069 236.292 987.871 232.122C989.036 225.719 986.124 204.764 986.124 204.764L986.073 203.341C988.931 207.091 992.53 212.091 992.53 213.495C992.53 214.173 992.688 214.841 992.991 215.448C993.294 216.054 993.735 216.581 994.277 216.988L990.783 229.212C990.783 229.212 988.453 235.032 987.871 237.943C987.522 239.668 987.327 241.422 987.289 243.182L988.114 243.692L986.361 246.877Z" fill="#D0CDE1"/>
<path d="M746.877 212.045L749.985 211.346L737.172 175.257L709.509 165.07C709.509 165.07 709.403 165.188 709.207 165.39C706.848 163.108 705.846 159.796 705.428 157.189C707.652 156.291 709.651 154.913 711.282 153.154C712.912 151.394 714.134 149.297 714.86 147.011C715.586 144.726 715.798 142.308 715.481 139.931C715.165 137.554 714.327 135.276 713.028 133.26C715.307 132.713 716.121 130.646 716.886 128.182C716.413 128.042 715.93 127.937 715.441 127.867C715.799 127.063 716.158 126.26 716.516 125.457C715.886 125.4 715.256 125.343 714.626 125.287C714.787 124.536 714.948 123.785 715.109 123.034C714.306 123.588 713.502 124.142 712.699 124.697C712.972 123.908 713.04 123.063 712.896 122.242C712.753 121.42 712.402 120.648 711.878 119.998C710.811 118.71 709.42 117.729 707.847 117.157C704.771 115.948 701.422 115.609 698.166 116.178C694.91 116.746 691.874 118.201 689.391 120.381L689.217 119.703C684.3 123.481 681.083 129.053 680.27 135.198C679.499 141.273 682.419 147.458 686.213 152.265C686.181 152.055 686.147 151.845 686.112 151.636C686.276 151.862 686.446 152.084 686.62 152.301L687.087 170.018L685.919 171.019C685.917 171.02 666.317 179.883 665.553 190.469L665.55 190.477C664.374 195.63 663.792 222.406 663.792 222.406H665.404L663.792 232.884L653.309 273.63C653.309 273.63 639.914 291.093 651.561 294.585C658.799 296.755 660.864 288.362 661.391 281.695C661.81 283.348 663.065 284.465 665.539 284.69C665.733 284.707 665.941 284.722 666.142 284.738C660.635 298.964 664.374 345.227 664.374 345.227C661.462 351.048 695.823 391.212 695.823 391.212L697.892 390.109L698.339 391.004C697.188 391.114 696.405 391.212 696.405 391.212V409.257C696.405 409.257 691.164 427.301 698.152 430.794C699.961 431.698 701.847 431.04 703.65 429.572C703.305 435.141 702.811 443.451 702.811 445.346C702.811 448.256 710.382 453.495 710.382 453.495C710.382 453.495 712.13 459.898 726.107 459.898C740.084 459.898 729.601 443.018 729.601 443.018L722.03 426.137C722.03 426.137 721.464 426.414 719.749 425.019L720.363 418.269L723.777 418.57L728.436 350.466C728.436 350.466 732.513 289.928 733.095 280.615C733.232 277.629 733.162 274.637 732.885 271.661L749.985 236.376L746.877 212.045ZM734.26 234.63L732.513 240.715V227.257L734.26 234.63ZM661.553 277.797C661.568 275.664 661.462 274.212 661.462 274.212L672.848 251.452L672.527 258.496C672.527 258.496 663.409 270.024 661.553 277.797ZM688.252 343.481L699.317 304.481L705.723 351.63L705.264 368.771C704.484 367.196 703.858 365.549 703.394 363.854C701.647 356.869 688.252 343.481 688.252 343.481Z" fill="#D0CDE1"/>
<path d="M845.853 436.124C840.397 433.878 829.804 429.065 828.52 426.499C827.236 423.932 820.817 404.041 820.817 404.041L819.163 404.162C818.95 395.126 818.04 360.105 816.644 355.918C816.644 355.918 823.384 300.416 809.903 278.28L807.474 268.472C808.271 264.54 808.169 255.435 807.656 253.897C807.014 251.973 815.039 245.877 812.792 242.027C810.545 238.177 804.446 225.024 804.446 225.024C804.446 225.024 805.088 216.682 796.422 208.983C796.422 208.983 793.889 194.652 782.477 194.438C780.934 191.747 778.774 187.468 779.41 185.563C780.09 183.523 782.691 177.163 784.161 173.603C784.941 173.251 785.691 172.834 786.401 172.357C795.478 168.292 801.876 158.521 801.876 147.107C801.876 134.888 794.547 124.547 784.446 121.079C784.896 119.894 785.079 118.624 784.985 117.36C784.89 116.096 784.518 114.868 783.896 113.763C783.274 112.658 782.417 111.703 781.386 110.966C780.354 110.228 779.173 109.726 777.926 109.495C776.679 109.264 775.396 109.309 774.169 109.628C772.941 109.947 771.798 110.531 770.821 111.34C769.845 112.148 769.057 113.161 768.515 114.307C767.973 115.453 767.689 116.704 767.684 117.972C767.128 116.656 766.908 115.223 767.041 113.801C767.175 112.379 767.659 111.012 768.45 109.822C769.24 108.632 770.314 107.657 771.574 106.983C772.833 106.309 774.241 105.957 775.67 105.959C776.232 105.96 776.794 106.015 777.345 106.124C775.442 105.219 773.275 105.04 771.249 105.618C769.222 106.196 767.477 107.493 766.339 109.266C765.201 111.039 764.749 113.165 765.067 115.247C765.385 117.329 766.453 119.224 768.068 120.576C768.168 120.892 768.286 121.203 768.422 121.506C758.917 125.34 752.137 135.355 752.137 147.107C752.137 158.008 757.972 167.411 766.403 171.776C766.358 175.322 765.479 181.3 760.586 184.944C758.058 183.789 754.551 182.522 752.3 183.097C751.136 182.19 749.38 181.891 746.99 184.279C742.175 189.092 738.003 201.604 738.003 209.303C738.003 217.003 738.966 261.597 738.966 261.597C738.966 261.597 733.83 263.522 737.361 266.409C738.09 267.017 739.005 267.356 739.954 267.373L743.459 293.358C743.459 293.358 741.212 318.382 749.879 318.703C750.559 318.741 751.234 318.575 751.819 318.227L745.385 347.256C745.385 347.256 730.62 356.881 719.065 375.809C713.113 385.559 710.145 391.556 708.663 395.087L706.546 393.775L699.163 407.891C699.163 407.891 682.793 417.837 686.324 425.216C689.855 432.595 693.065 434.52 693.065 434.52L695.312 433.557L699.484 441.257C699.484 441.257 710.398 456.977 728.052 448.956C728.881 447.844 729.328 446.494 729.328 445.107C729.328 443.72 728.881 442.37 728.052 441.257C725.163 437.086 717.781 428.103 717.781 428.103L722.595 403.721L721.599 403.103L752.126 366.185C752.126 366.185 761.113 360.731 764.323 355.918C767.533 351.106 787.434 301.379 787.434 301.379L798.669 353.352C798.669 353.352 798.027 372.28 800.916 384.472C802.49 391.31 803.517 398.263 803.986 405.265L803.163 405.325L805.088 419.762C805.088 419.762 796.743 440.294 802.521 441.898C806.631 442.96 810.816 443.71 815.039 444.144L815.681 441.898C815.681 441.898 840.397 455.373 849.384 445.427C849.384 445.427 851.31 438.369 845.853 436.124ZM757.904 278.601C758.867 279.563 758.546 284.055 758.546 284.055L756.62 296.567L754.696 305.245C754.43 301.145 753.893 297.067 753.089 293.038L752.2 269.06C752.375 269.17 752.567 269.25 752.768 269.297C753.41 269.297 753.089 263.843 753.089 263.843C753.089 263.843 753.463 262.869 753.931 261.332C755.179 265.066 756.702 267.502 758.546 268.014L758.867 272.184C758.867 272.184 754.694 274.109 758.546 274.109C758.769 274.101 758.991 274.068 759.207 274.011L758.867 275.713C758.867 275.713 756.941 277.638 757.904 278.601Z" fill="#D0CDE1"/>
<path d="M840.367 451.069C982.871 451.069 1098.39 449.166 1098.39 446.818C1098.39 444.47 982.871 442.567 840.367 442.567C697.863 442.567 582.341 444.47 582.341 446.818C582.341 449.166 697.863 451.069 840.367 451.069Z" fill="#3F3D56"/>
<path d="M930.674 468.781C1087.43 468.781 1214.5 463.865 1214.5 457.8C1214.5 451.735 1087.43 446.818 930.674 446.818C773.92 446.818 646.847 451.735 646.847 457.8C646.847 463.865 773.92 468.781 930.674 468.781Z" fill="#3F3D56"/>
<path d="M878.291 485.077C955.219 485.077 1017.58 480.16 1017.58 474.095C1017.58 468.03 955.219 463.113 878.291 463.113C801.362 463.113 738.999 468.03 738.999 474.095C738.999 480.16 801.362 485.077 878.291 485.077Z" fill="#3F3D56"/>
<path d="M1079.61 492.87C1113.86 492.87 1141.63 490.333 1141.63 487.202C1141.63 484.072 1113.86 481.534 1079.61 481.534C1045.35 481.534 1017.58 484.072 1017.58 487.202C1017.58 490.333 1045.35 492.87 1079.61 492.87Z" fill="#3F3D56"/>
<path d="M994.545 512C1010.79 512 1023.96 509.462 1023.96 506.332C1023.96 503.202 1010.79 500.664 994.545 500.664C978.298 500.664 965.127 503.202 965.127 506.332C965.127 509.462 978.298 512 994.545 512Z" fill="#3F3D56"/>
<path d="M754.949 487.911C771.196 487.911 784.367 485.373 784.367 482.243C784.367 479.112 771.196 476.575 754.949 476.575C738.702 476.575 725.531 479.112 725.531 482.243C725.531 485.373 738.702 487.911 754.949 487.911Z" fill="#3F3D56"/>
<path d="M900.266 418.124L903.101 437.962L917.278 436.545L915.861 415.998L900.266 418.124Z" fill="#FFB8B8"/>
<path d="M832.924 418.124L830.088 437.962L815.911 436.545L817.329 415.998L832.924 418.124Z" fill="#FFB8B8"/>
<path d="M812.366 212.658C812.366 212.658 799.607 227.537 802.442 250.918C805.278 274.298 810.24 327.436 810.24 327.436L813.784 421.666L836.468 420.249L840.012 340.189L851.354 275.715L881.835 350.816C881.835 350.816 896.721 420.958 897.43 420.958C898.139 420.958 918.696 418.832 918.696 418.832L908.772 335.938C908.772 335.938 893.177 215.492 883.962 213.367C874.746 211.241 812.366 212.658 812.366 212.658Z" fill="#2F2E41"/>
<path d="M918.696 433.711C918.696 433.711 905.937 425.209 900.975 435.128C896.013 445.047 900.266 452.132 900.266 452.132C900.266 452.132 904.519 454.966 902.392 457.8C900.266 460.634 899.557 479.055 917.987 476.221C936.418 473.387 927.203 454.257 927.203 454.257L918.696 433.711Z" fill="#2F2E41"/>
<path d="M814.494 433.711C814.494 433.711 827.253 425.209 832.215 435.128C837.177 445.047 832.924 452.132 832.924 452.132C832.924 452.132 828.671 454.966 830.798 457.8C832.924 460.634 833.633 479.055 815.203 476.221C796.772 473.387 805.987 454.257 805.987 454.257L814.494 433.711Z" fill="#2F2E41"/>
<path d="M829.733 74.855C829.733 74.855 836.113 92.5675 831.151 102.487C826.189 112.406 838.949 123.742 838.949 123.742C838.949 123.742 872.265 106.738 868.012 98.2355C863.759 89.7335 856.67 78.3975 858.088 71.3125L829.733 74.855Z" fill="#FFB8B8"/>
<path d="M842.139 81.5858C854.667 81.5858 864.822 71.4351 864.822 58.9137C864.822 46.3923 854.667 36.2417 842.139 36.2417C829.611 36.2417 819.455 46.3923 819.455 58.9137C819.455 71.4351 829.611 81.5858 842.139 81.5858Z" fill="#FFB8B8"/>
<path d="M825.835 101.424C825.835 101.424 848.595 120.354 865.57 93.5305L883.253 103.549L892.468 211.241C892.468 211.241 840.721 240.998 815.911 215.492L819.455 115.594L825.835 101.424Z" fill="#D0CDE1"/>
<path d="M832.982 90.8193L801.025 112.051L812.367 164.48L797.48 245.958L821.582 209.824L832.982 90.8193Z" fill="#575A89"/>
<path d="M861.227 84.9097L869.076 90.0877L900.975 101.424L896.013 189.278L909.481 245.958L890.342 255.877C890.342 255.877 886.798 228.954 864.823 215.492C842.848 202.031 856.213 88.9421 861.227 84.9097Z" fill="#575A89"/>
<path d="M808.114 222.577L817.329 228.954C817.329 228.954 805.633 241.353 803.506 239.227C802.891 238.637 802.413 237.918 802.107 237.122C801.8 236.326 801.673 235.472 801.734 234.622L799.607 229.662L808.114 222.577Z" fill="#FFB8B8"/>
<path d="M869.373 221.199L866.24 226.12C866.24 226.12 857.025 230.371 859.152 233.205C861.278 236.039 879 242.416 882.544 236.039L886.088 229.663L869.373 221.199Z" fill="#FFB8B8"/>
<path d="M805.278 111.343L800.316 112.051L792.164 164.835C792.164 164.835 788.974 174.399 792.518 197.071C796.063 219.743 799.573 234.507 799.573 234.507L815.202 223.286L808.113 204.865L817.329 137.557L805.278 111.343Z" fill="#575A89"/>
<path d="M889.633 100.007L900.975 101.424C900.975 101.424 913.734 114.885 915.861 129.055C917.987 143.225 917.278 183.61 917.278 183.61L884.671 235.33L866.949 222.577L891.759 178.65L879.709 126.221L889.633 100.007Z" fill="#575A89"/>
<path d="M863.77 38.4081C860.34 32.8407 854.971 28.7382 848.696 26.8901L844.087 30.5752L845.879 26.2769C844.372 26.0472 842.847 25.9591 841.324 26.0138L837.177 31.3426L838.894 26.1963C835.295 26.6432 831.829 27.8305 828.712 29.6832C825.596 31.5359 822.898 34.0139 820.787 36.9609C815.51 44.567 814.619 55.1448 819.81 62.8105C821.235 58.4336 822.964 54.3267 824.389 49.9498C825.509 50.1024 826.644 50.1079 827.766 49.9662L829.499 45.9231L829.984 49.7952C835.357 49.3273 843.327 48.3 848.422 47.3588L847.926 44.3883L850.89 46.8568C852.451 46.4976 853.377 46.172 853.301 45.9231C857.089 52.0278 860.844 55.927 864.632 62.0317C866.07 53.4208 868.609 46.2632 863.77 38.4081Z" fill="#2F2E41"/>
<path d="M862.514 61.271C863.362 61.271 864.05 59.8967 864.05 58.2014C864.05 56.5061 863.362 55.1318 862.514 55.1318C861.666 55.1318 860.979 56.5061 860.979 58.2014C860.979 59.8967 861.666 61.271 862.514 61.271Z" fill="#FFB8B8"/>
<path d="M1107.87 458.919C1108.52 481.278 1095.45 489.472 1079.05 489.951C1078.67 489.962 1078.29 489.969 1077.91 489.971C1077.15 489.977 1076.4 489.965 1075.65 489.933C1060.81 489.318 1049.07 481.447 1048.46 460.653C1047.84 439.134 1074.56 411.174 1076.56 409.106L1076.57 409.104C1076.64 409.025 1076.68 408.986 1076.68 408.986C1076.68 408.986 1107.22 436.562 1107.87 458.919Z" fill="#F04B5D"/>
<path d="M1077.87 486.562L1088.29 471.074L1077.89 488.229L1077.91 489.971C1077.15 489.977 1076.4 489.965 1075.65 489.933L1076.17 467.531L1076.15 467.358L1076.17 467.325L1076.22 465.208L1064.81 448.649L1076.21 463.624L1076.25 464.071L1076.64 447.145L1066.78 429.977L1076.67 444.172L1076.56 409.106L1076.56 408.989L1076.57 409.104L1077.22 436.741L1086.2 425.515L1077.25 439.122L1077.45 454.261L1085.71 439.485L1077.48 456.487L1077.59 464.906L1089.61 444.323L1077.62 467.842L1077.87 486.562Z" fill="#3F3D56"/>
<path d="M727.918 425.62C728.572 447.979 715.501 456.173 699.097 456.652C698.716 456.663 698.337 456.67 697.959 456.672C697.198 456.678 696.445 456.665 695.699 456.634C680.864 456.019 669.12 448.148 668.513 427.354C667.884 405.835 694.608 377.875 696.613 375.807L696.616 375.805C696.692 375.726 696.731 375.687 696.731 375.687C696.731 375.687 727.265 403.263 727.918 425.62Z" fill="#F04B5D"/>
<path d="M697.916 453.263L708.337 437.775L697.938 454.929L697.959 456.672C697.199 456.678 696.445 456.665 695.7 456.634L696.216 434.232L696.202 434.059L696.221 434.026L696.271 431.909L684.859 415.349L696.257 430.324L696.298 430.772L696.688 413.846L686.832 396.678L696.716 410.873L696.613 375.807L696.613 375.69L696.617 375.805L697.271 403.441L706.254 392.215L697.3 405.822L697.496 420.962L705.762 406.186L697.527 423.188L697.636 431.606L709.657 411.024L697.672 434.543L697.916 453.263Z" fill="#3F3D56"/>
<path d="M1011.83 490.441C1012.21 503.565 1004.54 508.375 994.914 508.656C994.69 508.663 994.467 508.667 994.246 508.668C993.799 508.671 993.357 508.664 992.919 508.646C984.211 508.284 977.318 503.664 976.961 491.459C976.592 478.828 992.278 462.416 993.455 461.202L993.457 461.201C993.502 461.155 993.525 461.131 993.525 461.131C993.525 461.131 1011.45 477.318 1011.83 490.441Z" fill="#F04B5D"/>
<path d="M994.22 506.667L1000.34 497.576L994.232 507.645L994.245 508.668C993.799 508.671 993.356 508.664 992.919 508.646L993.222 495.496L993.214 495.395L993.225 495.375L993.254 494.132L986.556 484.412L993.246 493.202L993.27 493.465L993.499 483.53L987.713 473.453L993.515 481.785L993.455 461.202L993.455 461.133L993.457 461.201L993.841 477.423L999.114 470.833L993.858 478.82L993.973 487.707L998.825 479.034L993.991 489.013L994.055 493.955L1001.11 481.873L994.077 495.679L994.22 506.667Z" fill="#3F3D56"/>
<path d="M1249.94 62.2661C1249.96 62.2015 1249.98 62.1361 1250 62.0713C1249.99 62.0997 1249.98 62.127 1249.97 62.1555L1249.94 62.2661Z" fill="#2F2E41"/>
<path d="M1150.88 438.212L1203.38 360.173L1150.99 446.607L1151.1 455.388C1147.26 455.418 1143.47 455.354 1139.71 455.197L1142.31 342.319L1142.24 341.448L1142.34 341.28L1142.59 330.614L1085.09 247.176L1142.52 322.63L1142.72 324.885L1144.69 239.601L1095.03 153.095L1144.83 224.619L1144.31 47.933L1144.31 47.345L1144.33 47.9233L1147.63 187.176L1192.89 130.611L1147.77 199.172L1148.76 275.457L1190.41 201.006L1148.92 286.672L1149.47 329.09L1210.04 225.381L1149.65 343.887L1150.88 438.212Z" fill="#3F3D56"/>
<path d="M614.768 435.187L650.496 382.084L614.841 440.9L614.916 446.875C612.308 446.895 609.725 446.851 607.167 446.745L608.939 369.934L608.891 369.342L608.956 369.227L609.126 361.969L570 305.192L609.08 356.537L609.218 358.071L610.557 300.038L576.763 241.173L610.653 289.843L610.299 169.613L610.3 169.213L610.312 169.607L612.555 264.364L643.354 225.874L612.656 272.527L613.328 324.436L641.67 273.775L613.432 332.068L613.806 360.932L655.023 290.361L613.931 371.002L614.768 435.187Z" fill="#3F3D56"/>
</g>
<defs>
<clipPath id="clip0">
<rect x="570" y="26" width="680" height="486" fill="white"/>
</clipPath>
</defs>
</svg>
