<svg width="292" height="139" viewBox="0 0 292 139" fill="none" xmlns="http://www.w3.org/2000/svg">
<rect width="292" height="139" rx="18" fill="#64A15E"/>
<mask id="mask0" mask-type="alpha" maskUnits="userSpaceOnUse" x="0" y="0" width="292" height="139">
<rect width="292" height="139" rx="18" fill="#64A15E"/>
</mask>
<g mask="url(#mask0)">
<path d="M233 86.375H246.875L248.125 23.25H231.75L233 86.375ZM232.25 112H247.625V97.125H232.25V112Z" fill="#7EB179"/>
</g>
<path d="M31.376 49H35.488C37.584 49 39.408 47.976 39.408 45.704C39.408 44.552 38.816 43.4 37.568 43.032V43C38.432 42.536 38.944 41.624 38.944 40.568C38.944 38.696 37.488 37.64 35.424 37.64H31.376V49ZM33.44 42.28V39.416H35.408C36.352 39.416 36.848 40.008 36.848 40.824C36.848 41.64 36.336 42.28 35.44 42.28H33.44ZM33.44 47.224V43.944H35.648C36.688 43.944 37.296 44.632 37.296 45.576C37.296 46.536 36.704 47.224 35.648 47.224H33.44ZM48.7993 49H50.8313V40.84H48.7993V49ZM41.1193 49H44.5913C46.7353 49 47.6793 47.928 47.6793 46.344C47.6793 44.568 46.5273 43.64 44.6073 43.64H43.1513V40.84H41.1193V49ZM43.1513 47.608V45.016H44.2393C45.1993 45.016 45.6313 45.576 45.6313 46.328C45.6313 47.064 45.1993 47.608 44.2713 47.608H43.1513ZM57.0099 49H59.0419V42.568H62.4179V49H64.4499V40.84H57.0099V49ZM66.1233 44.92C66.1233 47.432 68.1233 49.192 70.6033 49.192C73.0833 49.192 75.0833 47.432 75.0833 44.92C75.0833 42.424 73.0833 40.648 70.5873 40.648C68.1233 40.648 66.1233 42.424 66.1233 44.92ZM68.1873 44.92C68.1873 43.416 69.2753 42.376 70.6033 42.376C71.9313 42.376 73.0353 43.416 73.0353 44.92C73.0353 46.44 71.9313 47.464 70.6033 47.464C69.2753 47.464 68.1873 46.44 68.1873 44.92ZM76.7599 49H78.7919V42.568H82.1679V49H84.1999V40.84H76.7599V49ZM85.7453 46.744C85.7453 48.232 86.9613 49.192 88.4333 49.192C89.5373 49.192 90.5133 48.584 91.0093 47.72H91.0413C91.0413 47.72 90.9933 47.976 90.9933 48.312V49H92.8813V43.896C92.8813 41.832 91.6173 40.648 89.4893 40.648C88.2733 40.648 86.9613 41.112 86.2893 41.656L87.0413 43.112C87.6973 42.664 88.5133 42.328 89.3133 42.328C90.1613 42.328 90.8493 42.696 90.8493 43.768V43.88H90.4973C88.6893 43.88 85.7453 44.296 85.7453 46.744ZM87.7613 46.568C87.7613 45.416 89.4893 45.272 90.5133 45.272H90.8653V45.496C90.8653 46.488 90.1293 47.64 88.9933 47.64C88.1773 47.64 87.7613 47.112 87.7613 46.568ZM94.1794 49.08C96.8834 49 97.8274 46.952 97.8274 43.4V42.488H99.8114V49H101.843V40.84H95.8914V43.4C95.8914 46.296 95.1874 47.144 94.1794 47.288V49.08ZM104.026 49H105.994L109.018 44.648C109.226 44.328 109.53 43.896 109.626 43.672H109.658C109.642 43.88 109.61 44.344 109.61 44.648V49H111.546V40.84H109.578L106.554 45.208C106.346 45.528 106.042 45.976 105.946 46.184H105.914C105.93 46.056 105.962 45.576 105.962 45.208V40.84H104.026V49ZM117.729 49H119.761V45.704H123.249V49H125.281V40.84H123.249V43.992H119.761V40.84H117.729V49ZM126.839 46.744C126.839 48.232 128.055 49.192 129.527 49.192C130.631 49.192 131.607 48.584 132.103 47.72H132.135C132.135 47.72 132.087 47.976 132.087 48.312V49H133.975V43.896C133.975 41.832 132.711 40.648 130.583 40.648C129.367 40.648 128.055 41.112 127.383 41.656L128.135 43.112C128.791 42.664 129.607 42.328 130.407 42.328C131.255 42.328 131.943 42.696 131.943 43.768V43.88H131.591C129.783 43.88 126.839 44.296 126.839 46.744ZM128.855 46.568C128.855 45.416 130.583 45.272 131.607 45.272H131.959V45.496C131.959 46.488 131.223 47.64 130.087 47.64C129.271 47.64 128.855 47.112 128.855 46.568ZM139.337 47.992C140.249 48.808 141.465 49.192 142.665 49.192C145.369 49.192 147.097 47.288 147.097 44.92C147.097 42.6 145.417 40.648 142.713 40.648C141.545 40.648 140.265 41.016 139.497 41.784L140.361 43.144C140.969 42.6 141.769 42.264 142.633 42.264C143.897 42.264 144.905 43.032 145.129 44.216H141.561V45.608H145.129C144.905 46.76 143.913 47.576 142.553 47.576C141.673 47.576 140.777 47.24 140.089 46.584L139.337 47.992ZM150.476 49H152.492V42.568H155.196V40.84H147.788V42.568H150.476V49ZM156.364 50.312L155.692 51.832C155.692 51.832 156.412 52.36 157.388 52.36C158.588 52.36 159.772 51.72 160.332 50.232L163.964 40.84H161.756L160.156 45.576C160.028 46.008 159.884 46.648 159.884 46.648H159.852C159.852 46.648 159.708 45.976 159.548 45.544L157.836 40.84H155.548L158.988 48.872L158.684 49.592C158.38 50.312 157.82 50.648 157.26 50.648C156.812 50.648 156.364 50.312 156.364 50.312ZM168.795 44.92C168.795 47.288 170.523 49.192 173.227 49.192C174.539 49.192 175.819 48.68 176.587 47.864L175.803 46.424C175.195 47.016 174.267 47.464 173.403 47.464C171.835 47.464 170.859 46.28 170.859 44.904C170.859 43.512 171.835 42.376 173.339 42.376C174.139 42.376 174.939 42.744 175.451 43.256L176.363 41.864C175.579 41.016 174.331 40.648 173.227 40.648C170.523 40.648 168.795 42.6 168.795 44.92ZM179.961 49H181.977V42.568H184.681V40.84H177.273V42.568H179.961V49ZM186.057 52.2H188.089V48.744C188.089 48.328 188.041 48.04 188.041 48.04H188.073C188.649 48.776 189.497 49.192 190.425 49.192C192.569 49.192 194.153 47.512 194.153 44.92C194.153 42.392 192.745 40.648 190.537 40.648C189.433 40.648 188.441 41.144 187.913 42.024H187.881C187.881 42.024 187.913 41.752 187.913 41.448V40.84H186.057V52.2ZM188.025 44.968C188.025 43.16 189.017 42.392 190.089 42.392C191.273 42.392 192.105 43.4 192.105 44.952C192.105 46.568 191.177 47.48 190.057 47.48C188.729 47.48 188.025 46.232 188.025 44.968ZM195.261 46.744C195.261 48.232 196.477 49.192 197.949 49.192C199.053 49.192 200.029 48.584 200.525 47.72H200.557C200.557 47.72 200.509 47.976 200.509 48.312V49H202.397V43.896C202.397 41.832 201.133 40.648 199.005 40.648C197.789 40.648 196.477 41.112 195.805 41.656L196.557 43.112C197.213 42.664 198.029 42.328 198.829 42.328C199.677 42.328 200.365 42.696 200.365 43.768V43.88H200.013C198.205 43.88 195.261 44.296 195.261 46.744ZM197.277 46.568C197.277 45.416 199.005 45.272 200.029 45.272H200.381V45.496C200.381 46.488 199.645 47.64 198.509 47.64C197.693 47.64 197.277 47.112 197.277 46.568ZM204.463 49H206.495V45.704H209.983V49H212.015V40.84H209.983V43.992H206.495V40.84H204.463V49ZM214.197 49H216.165L219.189 44.648C219.397 44.328 219.701 43.896 219.797 43.672H219.829C219.813 43.88 219.781 44.344 219.781 44.648V49H221.717V40.84H219.749L216.725 45.208C216.517 45.528 216.213 45.976 216.117 46.184H216.085C216.101 46.056 216.133 45.576 216.133 45.208V40.84H214.197V49ZM226.173 46.296C227.053 46.296 227.885 46.04 228.381 45.768H228.413C228.413 45.768 228.397 46.008 228.397 46.216V49H230.413V40.84H228.397V44.088C228.077 44.312 227.516 44.6 226.812 44.6C225.741 44.6 225.421 44.008 225.421 43.24V40.84H223.421V43.576C223.421 45.48 224.605 46.296 226.173 46.296ZM232.604 49H234.636V45.688H235.692L237.836 49H240.188L237.276 44.76V44.728L239.868 40.84H237.612L235.628 43.96H234.636V40.84H232.604V49ZM241.177 50.312L240.505 51.832C240.505 51.832 241.225 52.36 242.201 52.36C243.401 52.36 244.585 51.72 245.145 50.232L248.777 40.84H246.569L244.969 45.576C244.841 46.008 244.697 46.648 244.697 46.648H244.665C244.665 46.648 244.521 45.976 244.361 45.544L242.649 40.84H240.361L243.801 48.872L243.497 49.592C243.193 50.312 242.633 50.648 242.073 50.648C241.625 50.648 241.177 50.312 241.177 50.312ZM32.992 75H35.008V68.568H37.712V66.84H30.304V68.568H32.992V75ZM38.3889 70.92C38.3889 73.432 40.3889 75.192 42.8689 75.192C45.3489 75.192 47.3489 73.432 47.3489 70.92C47.3489 68.424 45.3489 66.648 42.8529 66.648C40.3889 66.648 38.3889 68.424 38.3889 70.92ZM40.4529 70.92C40.4529 69.416 41.5409 68.376 42.8689 68.376C44.1969 68.376 45.3009 69.416 45.3009 70.92C45.3009 72.44 44.1969 73.464 42.8689 73.464C41.5409 73.464 40.4529 72.44 40.4529 70.92ZM47.8955 75H50.1195L51.9915 71.72H53.0155V75H54.9195V71.72H55.9435L57.8155 75H60.0555L57.5595 70.808V70.776L59.8315 66.84H57.7195L55.9115 70.008H54.9195V66.84H53.0155V70.008H52.0235L50.2155 66.84H48.1035L50.3915 70.776V70.808L47.8955 75ZM60.592 70.92C60.592 73.24 62.288 75.192 64.992 75.192C66.16 75.192 67.44 74.76 68.272 74.024L67.472 72.568C66.816 73.096 65.968 73.464 65.136 73.464C63.904 73.464 62.816 72.728 62.688 71.304H68.304C68.336 71.048 68.368 70.776 68.368 70.52C68.368 68.36 67.088 66.648 64.752 66.648C62.304 66.648 60.592 68.408 60.592 70.92ZM62.736 69.912C62.928 68.872 63.664 68.184 64.704 68.184C65.616 68.184 66.32 68.824 66.336 69.912H62.736ZM73.7048 70.232C73.7048 73.128 75.0328 75.192 77.8648 75.192C80.2808 75.192 81.8648 73.544 81.8648 71.288C81.8648 69.032 80.4728 67.544 78.3768 67.544C77.4328 67.544 76.4088 67.832 75.6888 68.728H75.6568C75.7368 67.32 76.6488 66.568 78.0408 65.992L81.1448 64.808L80.5368 63.16L77.7208 64.264C74.7448 65.416 73.7048 67.16 73.7048 70.232ZM75.7688 71.304C75.7688 70.024 76.6488 69.112 77.8168 69.112C78.9048 69.112 79.8168 69.944 79.8168 71.32C79.8168 72.696 78.9048 73.512 77.7848 73.512C76.6808 73.512 75.7688 72.696 75.7688 71.304ZM82.6794 75.08C85.3834 75 86.3274 72.952 86.3274 69.4V68.488H88.3114V75H90.3434V66.84H84.3914V69.4C84.3914 72.296 83.6874 73.144 82.6794 73.288V75.08ZM91.9015 72.744C91.9015 74.232 93.1175 75.192 94.5895 75.192C95.6935 75.192 96.6695 74.584 97.1655 73.72H97.1975C97.1975 73.72 97.1495 73.976 97.1495 74.312V75H99.0375V69.896C99.0375 67.832 97.7735 66.648 95.6455 66.648C94.4295 66.648 93.1175 67.112 92.4455 67.656L93.1975 69.112C93.8535 68.664 94.6695 68.328 95.4695 68.328C96.3175 68.328 97.0055 68.696 97.0055 69.768V69.88H96.6535C94.8455 69.88 91.9015 70.296 91.9015 72.744ZM93.9175 72.568C93.9175 71.416 95.6455 71.272 96.6695 71.272H97.0215V71.496C97.0215 72.488 96.2855 73.64 95.1495 73.64C94.3335 73.64 93.9175 73.112 93.9175 72.568ZM101.104 75H103.136V68.568H106.464V66.84H101.104V75ZM107.139 70.92C107.139 73.432 109.139 75.192 111.619 75.192C114.099 75.192 116.099 73.432 116.099 70.92C116.099 68.424 114.099 66.648 111.603 66.648C109.139 66.648 107.139 68.424 107.139 70.92ZM109.203 70.92C109.203 69.416 110.291 68.376 111.619 68.376C112.947 68.376 114.051 69.416 114.051 70.92C114.051 72.44 112.947 73.464 111.619 73.464C110.291 73.464 109.203 72.44 109.203 70.92ZM119.748 73.368C120.596 71.96 120.74 70.088 120.74 68.856V68.472H122.772V73.368H119.748ZM116.708 73.368V76.92H118.596V75H124.132V76.92H125.972V73.368H124.804V66.84H118.804V68.536C118.804 69.944 118.612 72.056 117.716 73.368H116.708ZM126.823 72.744C126.823 74.232 128.039 75.192 129.511 75.192C130.615 75.192 131.591 74.584 132.087 73.72H132.119C132.119 73.72 132.071 73.976 132.071 74.312V75H133.959V69.896C133.959 67.832 132.695 66.648 130.567 66.648C129.351 66.648 128.039 67.112 127.367 67.656L128.119 69.112C128.775 68.664 129.591 68.328 130.391 68.328C131.239 68.328 131.927 68.696 131.927 69.768V69.88H131.575C129.767 69.88 126.823 70.296 126.823 72.744ZM128.839 72.568C128.839 71.416 130.567 71.272 131.591 71.272H131.943V71.496C131.943 72.488 131.207 73.64 130.071 73.64C129.255 73.64 128.839 73.112 128.839 72.568ZM136.026 78.2H138.058V74.744C138.058 74.328 138.01 74.04 138.01 74.04H138.042C138.618 74.776 139.466 75.192 140.394 75.192C142.538 75.192 144.122 73.512 144.122 70.92C144.122 68.392 142.714 66.648 140.506 66.648C139.402 66.648 138.41 67.144 137.882 68.024H137.85C137.85 68.024 137.882 67.752 137.882 67.448V66.84H136.026V78.2ZM137.994 70.968C137.994 69.16 138.986 68.392 140.058 68.392C141.242 68.392 142.074 69.4 142.074 70.952C142.074 72.568 141.146 73.48 140.026 73.48C138.698 73.48 137.994 72.232 137.994 70.968ZM145.054 75H147.246L149.07 72.232H150.126V75H152.158V66.84H148.494C146.734 66.84 145.566 67.8 145.566 69.48C145.566 70.648 146.302 71.544 147.214 71.88V71.896C147.214 71.896 147.038 72.088 146.846 72.392L145.054 75ZM149.054 70.824C148.222 70.824 147.598 70.392 147.598 69.464C147.598 68.536 148.19 68.168 149.07 68.168H150.126V70.824H149.054ZM157.858 70.92C157.858 73.432 159.778 75.096 162.29 75.192V78.2H164.21V75.192C166.722 75.096 168.626 73.432 168.626 70.92C168.626 68.424 166.722 66.744 164.21 66.664V63.8H162.29V66.664C159.778 66.744 157.858 68.424 157.858 70.92ZM164.21 73.56V68.296C165.618 68.392 166.658 69.352 166.658 70.92C166.658 72.472 165.618 73.448 164.21 73.56ZM159.842 70.92C159.842 69.352 160.882 68.392 162.29 68.296V73.56C160.882 73.448 159.842 72.472 159.842 70.92ZM170.322 75H172.29L175.314 70.648C175.522 70.328 175.826 69.896 175.922 69.672H175.954C175.938 69.88 175.906 70.344 175.906 70.648V75H177.842V66.84H175.874L172.85 71.208C172.642 71.528 172.338 71.976 172.242 72.184H172.21C172.226 72.056 172.258 71.576 172.258 71.208V66.84H170.322V75ZM179.29 73.992C180.042 74.696 181.21 75.192 182.442 75.192C184.218 75.192 185.658 74.328 185.658 72.632C185.658 71.624 185.018 71.032 184.282 70.76V70.728C184.858 70.456 185.402 69.896 185.402 68.888C185.402 67.448 184.138 66.648 182.538 66.648C181.178 66.648 180.202 67.064 179.53 67.56L180.186 68.856C180.906 68.376 181.546 68.184 182.154 68.184C182.97 68.184 183.37 68.552 183.37 69.16C183.37 69.848 182.826 70.104 182.106 70.104H181.274V71.512H182.266C183.242 71.512 183.626 71.896 183.626 72.52C183.626 73.208 183.082 73.624 182.218 73.624C181.37 73.624 180.586 73.112 180.154 72.696L179.29 73.992ZM187.354 75H189.322L192.346 70.648C192.554 70.328 192.858 69.896 192.954 69.672H192.986C192.97 69.88 192.938 70.344 192.938 70.648V75H194.874V66.84H192.906L189.882 71.208C189.674 71.528 189.37 71.976 189.274 72.184H189.242C189.258 72.056 189.29 71.576 189.29 71.208V66.84H187.354V75ZM199.329 72.296C200.209 72.296 201.041 72.04 201.537 71.768H201.569C201.569 71.768 201.553 72.008 201.553 72.216V75H203.569V66.84H201.553V70.088C201.233 70.312 200.673 70.6 199.969 70.6C198.897 70.6 198.577 70.008 198.577 69.24V66.84H196.577V69.576C196.577 71.48 197.761 72.296 199.329 72.296ZM205.264 70.92C205.264 73.24 206.96 75.192 209.664 75.192C210.832 75.192 212.112 74.76 212.944 74.024L212.144 72.568C211.488 73.096 210.64 73.464 209.808 73.464C208.576 73.464 207.488 72.728 207.36 71.304H212.976C213.008 71.048 213.04 70.776 213.04 70.52C213.04 68.36 211.76 66.648 209.424 66.648C206.976 66.648 205.264 68.408 205.264 70.92ZM207.408 69.912C207.6 68.872 208.336 68.184 209.376 68.184C210.288 68.184 210.992 68.824 211.008 69.912H207.408ZM214.233 70.92C214.233 73.288 215.961 75.192 218.665 75.192C219.977 75.192 221.257 74.68 222.025 73.864L221.241 72.424C220.633 73.016 219.705 73.464 218.841 73.464C217.273 73.464 216.297 72.28 216.297 70.904C216.297 69.512 217.273 68.376 218.777 68.376C219.577 68.376 220.377 68.744 220.889 69.256L221.801 67.864C221.017 67.016 219.769 66.648 218.665 66.648C215.961 66.648 214.233 68.6 214.233 70.92ZM223.494 75H225.526V71.688H226.582L228.726 75H231.078L228.166 70.76V70.728L230.758 66.84H228.502L226.518 69.96H225.526V66.84H223.494V75ZM232.276 75H234.244L237.268 70.648C237.476 70.328 237.78 69.896 237.876 69.672H237.908C237.892 69.88 237.86 70.344 237.86 70.648V75H239.796V66.84H237.828L234.804 71.208C234.596 71.528 234.292 71.976 234.196 72.184H234.164C234.18 72.056 234.212 71.576 234.212 71.208V66.84H232.276V75ZM241.643 75H243.595L243.883 70.584C243.915 70.04 243.867 69.192 243.867 69.192H243.899C243.899 69.192 244.171 69.832 244.395 70.392L245.995 73.976H247.675L249.275 70.376C249.531 69.8 249.755 69.192 249.755 69.192H249.787C249.787 69.192 249.755 70.04 249.771 70.584L250.059 75H252.011L251.275 66.84H249.003L247.243 71.048C247.067 71.512 246.843 72.088 246.843 72.088H246.811C246.811 72.088 246.603 71.496 246.411 71.048L244.683 66.84H242.379L241.643 75ZM30.352 99.992C31.104 100.696 32.272 101.192 33.504 101.192C35.28 101.192 36.72 100.328 36.72 98.632C36.72 97.624 36.08 97.032 35.344 96.76V96.728C35.92 96.456 36.464 95.896 36.464 94.888C36.464 93.448 35.2 92.648 33.6 92.648C32.24 92.648 31.264 93.064 30.592 93.56L31.248 94.856C31.968 94.376 32.608 94.184 33.216 94.184C34.032 94.184 34.432 94.552 34.432 95.16C34.432 95.848 33.888 96.104 33.168 96.104H32.336V97.512H33.328C34.304 97.512 34.688 97.896 34.688 98.52C34.688 99.208 34.144 99.624 33.28 99.624C32.432 99.624 31.648 99.112 31.216 98.696L30.352 99.992ZM37.7921 98.744C37.7921 100.232 39.0081 101.192 40.4801 101.192C41.5841 101.192 42.5601 100.584 43.0561 99.72H43.0881C43.0881 99.72 43.0401 99.976 43.0401 100.312V101H44.9281V95.896C44.9281 93.832 43.6641 92.648 41.5361 92.648C40.3201 92.648 39.0081 93.112 38.3361 93.656L39.0881 95.112C39.7441 94.664 40.5601 94.328 41.3601 94.328C42.2081 94.328 42.8961 94.696 42.8961 95.768V95.88H42.5441C40.7361 95.88 37.7921 96.296 37.7921 98.744ZM39.8081 98.568C39.8081 97.416 41.5361 97.272 42.5601 97.272H42.9121V97.496C42.9121 98.488 42.1761 99.64 41.0401 99.64C40.2241 99.64 39.8081 99.112 39.8081 98.568ZM46.9943 101H49.0263V97.688H50.0823L52.2263 101H54.5783L51.6663 96.76V96.728L54.2583 92.84H52.0023L50.0182 95.96H49.0263V92.84H46.9943V101ZM54.9358 96.92C54.9358 99.432 56.9358 101.192 59.4158 101.192C61.8958 101.192 63.8958 99.432 63.8958 96.92C63.8958 94.424 61.8958 92.648 59.3998 92.648C56.9358 92.648 54.9358 94.424 54.9358 96.92ZM56.9998 96.92C56.9998 95.416 58.0878 94.376 59.4158 94.376C60.7438 94.376 61.8478 95.416 61.8478 96.92C61.8478 98.44 60.7438 99.464 59.4158 99.464C58.0878 99.464 56.9998 98.44 56.9998 96.92ZM65.5724 101H67.6044V97.704H71.0924V101H73.1244V92.84H71.0924V95.992H67.6044V92.84H65.5724V101ZM74.6828 98.744C74.6828 100.232 75.8988 101.192 77.3708 101.192C78.4748 101.192 79.4508 100.584 79.9468 99.72H79.9788C79.9788 99.72 79.9308 99.976 79.9308 100.312V101H81.8188V95.896C81.8188 93.832 80.5548 92.648 78.4268 92.648C77.2108 92.648 75.8988 93.112 75.2268 93.656L75.9788 95.112C76.6348 94.664 77.4508 94.328 78.2508 94.328C79.0988 94.328 79.7868 94.696 79.7868 95.768V95.88H79.4348C77.6268 95.88 74.6828 96.296 74.6828 98.744ZM76.6988 98.568C76.6988 97.416 78.4268 97.272 79.4508 97.272H79.8028V97.496C79.8028 98.488 79.0668 99.64 77.9308 99.64C77.1148 99.64 76.6988 99.112 76.6988 98.568ZM83.5489 101H85.5009L85.7889 96.584C85.8209 96.04 85.7729 95.192 85.7729 95.192H85.8049C85.8049 95.192 86.0769 95.832 86.3009 96.392L87.9009 99.976H89.5809L91.1809 96.376C91.4369 95.8 91.6609 95.192 91.6609 95.192H91.6929C91.6929 95.192 91.6609 96.04 91.6769 96.584L91.9649 101H93.9169L93.1809 92.84H90.9089L89.1489 97.048C88.9729 97.512 88.7489 98.088 88.7489 98.088H88.7169C88.7169 98.088 88.5089 97.496 88.3169 97.048L86.5889 92.84H84.2849L83.5489 101Z" fill="white"/>
</svg>
