<svg width="362" height="238" viewBox="0 0 362 238" fill="none" xmlns="http://www.w3.org/2000/svg">
<rect width="362" height="238" rx="18" fill="#DFE2ED"/>
<mask id="mask0" mask-type="alpha" maskUnits="userSpaceOnUse" x="0" y="0" width="362" height="238">
<rect width="362" height="238" rx="18" fill="#F5F6FA"/>
</mask>
<g mask="url(#mask0)">
<path fill-rule="evenodd" clip-rule="evenodd" d="M390.666 134.515C396.273 136.627 401.392 138.904 405.921 141.293C413.365 145.22 419.167 149.422 422.941 153.644C426.72 157.873 428.369 162.006 427.802 165.859C427.235 169.712 424.465 173.195 419.629 176.155C414.799 179.112 408.032 181.465 399.772 183.081C393.961 184.218 387.439 184.985 380.376 185.347C380.065 185.7 379.75 186.05 379.429 186.394C407.251 185.125 427.075 177.669 428.792 166.004C430.445 154.767 414.877 142.428 390.238 133.287C390.386 133.694 390.528 134.103 390.666 134.515ZM299.515 120.088C273.661 121.83 255.514 129.131 253.875 140.268C252.174 151.828 268.695 164.552 294.567 173.762C294.36 173.339 294.159 172.913 293.964 172.483C287.584 170.17 281.798 167.644 276.746 164.979C269.301 161.053 263.499 156.851 259.726 152.628C255.947 148.4 254.297 144.267 254.864 140.414C255.431 136.561 258.201 133.078 263.038 130.117C267.868 127.16 274.634 124.808 282.894 123.192C287.722 122.247 293.041 121.558 298.753 121.144C299.003 120.789 299.257 120.437 299.515 120.088Z" fill="#8A8D95"/>
<path d="M393.333 151C393.333 179.719 370.052 203 341.333 203C312.614 203 289.333 179.719 289.333 151C289.333 122.281 312.614 99 341.333 99C370.052 99 393.333 122.281 393.333 151Z" fill="#F1F4FB"/>
<path d="M428.297 165.931C427.7 169.989 424.793 173.58 419.89 176.581C414.991 179.581 408.161 181.949 399.869 183.571C383.289 186.815 360.975 187.056 336.865 183.509C312.755 179.961 291.456 173.303 276.513 165.421C269.04 161.479 263.181 157.244 259.353 152.961C255.523 148.675 253.773 144.398 254.37 140.34C254.967 136.283 257.874 132.691 262.777 129.69C267.677 126.691 274.507 124.323 282.799 122.701C299.378 119.457 321.692 119.215 345.803 122.763C369.913 126.31 391.212 132.969 406.154 140.851C413.628 144.793 419.486 149.027 423.314 153.311C427.145 157.597 428.894 161.874 428.297 165.931Z" stroke="#A6B4C6"/>
<path d="M261 141.5C261 145.09 258.09 148 254.5 148C250.91 148 248 145.09 248 141.5C248 137.91 250.91 135 254.5 135C258.09 135 261 137.91 261 141.5Z" fill="#F04B5D"/>
<mask id="mask1" mask-type="alpha" maskUnits="userSpaceOnUse" x="289" y="99" width="105" height="104">
<path d="M393.333 151C393.333 179.719 370.052 203 341.333 203C312.614 203 289.333 179.719 289.333 151C289.333 122.281 312.614 99 341.333 99C370.052 99 393.333 122.281 393.333 151Z" fill="#97999D"/>
</mask>
<g mask="url(#mask1)">
<rect x="278.935" y="83.4" width="119.6" height="72.8" fill="#F1F4FB"/>
</g>
</g>
<path d="M45.458 149.052L47.754 151.922H49.112L46.816 149.052L49.112 146.168H47.754L45.458 149.052ZM44.926 151.922H46.284L43.988 149.052L46.284 146.168H44.926L42.63 149.052L44.926 151.922ZM51.1497 153H52.5357V144.32H57.5477V153H58.9337V143.116H51.1497V153ZM61.2063 155.8H62.5643V152.58C62.5643 152.216 62.5083 151.964 62.5083 151.964H62.5363C63.0263 152.72 63.8383 153.168 64.7343 153.168C66.5963 153.168 67.9403 151.712 67.9403 149.458C67.9403 147.26 66.7503 145.748 64.8323 145.748C63.7963 145.748 62.9003 146.224 62.4523 147.078H62.4243C62.4243 147.078 62.4663 146.84 62.4663 146.546V145.916H61.2063V155.8ZM62.5223 149.486C62.5223 147.694 63.5023 146.938 64.5663 146.938C65.7423 146.938 66.5683 147.932 66.5683 149.472C66.5683 151.082 65.6443 151.992 64.5243 151.992C63.2223 151.992 62.5223 150.746 62.5223 149.486ZM69.6145 153H70.9165L73.9825 148.772C74.2065 148.436 74.5565 147.96 74.5985 147.834H74.6265C74.6265 147.946 74.5845 148.436 74.5845 148.772V153H75.9005V145.916H74.5845L71.5325 150.144C71.2945 150.48 70.9585 150.97 70.9025 151.096H70.8745C70.8885 151.026 70.9165 150.522 70.9165 150.144V145.916H69.6145V153ZM81.4816 153H82.7836L85.8496 148.772C86.0736 148.436 86.4236 147.96 86.4656 147.834H86.4936C86.4936 147.946 86.4516 148.436 86.4516 148.772V153H87.7676V145.916H86.4516L83.3996 150.144C83.1616 150.48 82.8256 150.97 82.7696 151.096H82.7416C82.7556 151.026 82.7836 150.522 82.7836 150.144V145.916H81.4816V153ZM89.1628 152.132C89.7508 152.692 90.6748 153.168 91.7668 153.168C93.2228 153.168 94.4828 152.426 94.4828 150.97C94.4828 150.06 93.9228 149.528 93.2088 149.304V149.276C93.7688 149.038 94.2448 148.548 94.2448 147.666C94.2448 146.406 93.1948 145.748 91.8508 145.748C90.7308 145.748 89.9328 146.112 89.3868 146.518L89.8908 147.428C90.4368 147.022 90.9968 146.812 91.6128 146.812C92.3968 146.812 92.8728 147.176 92.8728 147.834C92.8728 148.548 92.3268 148.856 91.5288 148.856H90.7868V149.836H91.6548C92.6488 149.836 93.1108 150.228 93.1108 150.914C93.1108 151.684 92.4528 152.076 91.6408 152.076C90.7868 152.076 90.1148 151.572 89.7928 151.236L89.1628 152.132ZM95.6102 154.47L95.1342 155.506C95.1342 155.506 95.7082 155.94 96.4922 155.94C97.4862 155.94 98.3682 155.38 98.7882 154.274L102.12 145.916H100.65L98.9282 150.564C98.8022 150.928 98.6902 151.404 98.6902 151.404H98.6622C98.6622 151.404 98.5362 150.9 98.3962 150.55L96.6182 145.916H95.0922L98.0602 152.916L97.7102 153.728C97.4442 154.372 96.9822 154.778 96.4222 154.778C96.0022 154.778 95.6102 154.47 95.6102 154.47ZM105.384 150.536C106.084 150.536 106.854 150.298 107.302 150.018H107.33C107.33 150.018 107.316 150.242 107.316 150.438V153H108.674V145.916H107.316V148.856C107.022 149.066 106.448 149.36 105.748 149.36C104.586 149.36 104.334 148.73 104.334 148.03V145.916H103.004V148.226C103.004 149.738 103.872 150.536 105.384 150.536ZM110.318 149.458C110.318 151.558 111.858 153.168 114.084 153.168C115.064 153.168 116.142 152.79 116.828 152.16L116.254 151.166C115.694 151.67 114.924 151.992 114.168 151.992C112.894 151.992 111.802 151.166 111.732 149.64H116.884C116.912 149.444 116.94 149.248 116.94 149.066C116.94 147.246 115.876 145.748 113.874 145.748C111.858 145.748 110.318 147.204 110.318 149.458ZM111.774 148.66C111.97 147.484 112.796 146.798 113.846 146.798C114.77 146.798 115.526 147.442 115.568 148.66H111.774ZM118.573 153H119.931V149.962H123.515V153H124.873V145.916H123.515V148.8H119.931V145.916H118.573V153ZM126.968 153H128.27L131.336 148.772C131.56 148.436 131.91 147.96 131.952 147.834H131.98C131.98 147.946 131.938 148.436 131.938 148.772V153H133.254V145.916H131.938L128.886 150.144C128.648 150.48 128.312 150.97 128.256 151.096H128.228C128.242 151.026 128.27 150.522 128.27 150.144V145.916H126.968V153ZM135.335 153H136.637L139.703 148.772C139.927 148.436 140.277 147.96 140.319 147.834H140.347C140.347 147.946 140.305 148.436 140.305 148.772V153H141.621V145.916H140.305L137.253 150.144C137.015 150.48 136.679 150.97 136.623 151.096H136.595C136.609 151.026 136.637 150.522 136.637 150.144V145.916H135.335V153ZM147.202 153H148.56V149.962H152.144V153H153.502V145.916H152.144V148.8H148.56V145.916H147.202V153ZM155.009 151.068C155.009 152.398 156.143 153.168 157.375 153.168C158.425 153.168 159.293 152.538 159.699 151.726H159.727C159.727 151.726 159.685 151.964 159.685 152.286V153H160.959V148.52C160.959 146.728 159.937 145.748 158.159 145.748C157.165 145.748 156.087 146.112 155.513 146.588L156.059 147.582C156.633 147.176 157.347 146.896 158.047 146.896C158.929 146.896 159.601 147.288 159.601 148.45V148.59H159.237C157.767 148.59 155.009 148.842 155.009 151.068ZM156.367 150.956C156.367 149.654 158.243 149.57 159.251 149.57H159.601V149.836C159.601 150.886 158.887 152.09 157.697 152.09C156.815 152.09 156.367 151.516 156.367 150.956ZM162.479 154.47L162.003 155.506C162.003 155.506 162.577 155.94 163.361 155.94C164.355 155.94 165.237 155.38 165.657 154.274L168.989 145.916H167.519L165.797 150.564C165.671 150.928 165.559 151.404 165.559 151.404H165.531C165.531 151.404 165.405 150.9 165.265 150.55L163.487 145.916H161.961L164.929 152.916L164.579 153.728C164.313 154.372 163.851 154.778 163.291 154.778C162.871 154.778 162.479 154.47 162.479 154.47ZM170.321 153H171.679V149.934H172.701L174.815 153H176.425L173.779 149.318V149.29L176.145 145.916H174.605L172.673 148.772H171.679V145.916H170.321V153ZM43.05 177H44.408V171.078H47.88V177H49.238V169.916H43.05V177ZM51.3352 179.8H52.6932V176.58C52.6932 176.216 52.6372 175.964 52.6372 175.964H52.6652C53.1552 176.72 53.9672 177.168 54.8632 177.168C56.7252 177.168 58.0692 175.712 58.0692 173.458C58.0692 171.26 56.8792 169.748 54.9612 169.748C53.9252 169.748 53.0292 170.224 52.5812 171.078H52.5532C52.5532 171.078 52.5952 170.84 52.5952 170.546V169.916H51.3352V179.8ZM52.6512 173.486C52.6512 171.694 53.6312 170.938 54.6952 170.938C55.8712 170.938 56.6972 171.932 56.6972 173.472C56.6972 175.082 55.7732 175.992 54.6532 175.992C53.3512 175.992 52.6512 174.746 52.6512 173.486ZM59.7434 177H61.0454L64.1114 172.772C64.3354 172.436 64.6854 171.96 64.7274 171.834H64.7554C64.7554 171.946 64.7134 172.436 64.7134 172.772V177H66.0294V169.916H64.7134L61.6614 174.144C61.4234 174.48 61.0874 174.97 61.0314 175.096H61.0034C61.0174 175.026 61.0454 174.522 61.0454 174.144V169.916H59.7434V177ZM67.8165 177H69.1325L69.4405 172.786C69.4685 172.366 69.4265 171.568 69.4265 171.568H69.4545C69.4545 171.568 69.6785 172.1 69.9025 172.618L71.5825 176.146H72.7445L74.4245 172.604C74.6905 172.058 74.8725 171.568 74.8725 171.568H74.9005C74.9005 171.568 74.8725 172.366 74.8865 172.786L75.1945 177H76.5105L75.8945 169.916H74.4105L72.5625 173.92C72.3805 174.354 72.1705 174.872 72.1705 174.872H72.1425C72.1425 174.872 71.9465 174.34 71.7505 173.92L69.9445 169.916H68.4325L67.8165 177ZM77.8751 173.458C77.8751 175.558 79.4151 177.168 81.6411 177.168C82.6211 177.168 83.6991 176.79 84.3851 176.16L83.8111 175.166C83.2511 175.67 82.4811 175.992 81.7251 175.992C80.4511 175.992 79.3591 175.166 79.2891 173.64H84.4411C84.4691 173.444 84.4971 173.248 84.4971 173.066C84.4971 171.246 83.4331 169.748 81.4311 169.748C79.4151 169.748 77.8751 171.204 77.8751 173.458ZM79.3311 172.66C79.5271 171.484 80.3531 170.798 81.4031 170.798C82.3271 170.798 83.0831 171.442 83.1251 172.66H79.3311ZM86.1301 179.8H87.4881V176.58C87.4881 176.216 87.4321 175.964 87.4321 175.964H87.4601C87.9501 176.72 88.7621 177.168 89.6581 177.168C91.5201 177.168 92.8641 175.712 92.8641 173.458C92.8641 171.26 91.6741 169.748 89.7561 169.748C88.7201 169.748 87.8241 170.224 87.3761 171.078H87.3481C87.3481 171.078 87.3901 170.84 87.3901 170.546V169.916H86.1301V179.8ZM87.4461 173.486C87.4461 171.694 88.4261 170.938 89.4901 170.938C90.6661 170.938 91.4921 171.932 91.4921 173.472C91.4921 175.082 90.5681 175.992 89.4481 175.992C88.1461 175.992 87.4461 174.746 87.4461 173.486ZM100.95 177H102.308V169.916H100.95V177ZM94.5383 177H97.2683C99.0463 177 99.8583 176.09 99.8583 174.76C99.8583 173.15 98.7523 172.478 97.2823 172.478H95.8963V169.916H94.5383V177ZM95.8963 176.02V173.458H97.0723C98.0523 173.458 98.4863 173.99 98.4863 174.746C98.4863 175.488 98.0663 176.02 97.0863 176.02H95.8963ZM107.909 177H109.267V171.078H112.739V177H114.097V169.916H107.909V177ZM115.733 173.444C115.733 175.6 117.441 177.168 119.555 177.168C121.655 177.168 123.363 175.6 123.363 173.444C123.363 171.302 121.655 169.748 119.541 169.748C117.441 169.748 115.733 171.302 115.733 173.444ZM117.119 173.444C117.119 171.974 118.211 170.924 119.555 170.924C120.885 170.924 121.991 171.974 121.991 173.444C121.991 174.928 120.885 175.992 119.555 175.992C118.211 175.992 117.119 174.928 117.119 173.444ZM124.038 177.07C126.124 176.958 126.936 175.306 126.936 172.1V171.036H129.022V177H130.38V169.916H125.634V172.1C125.634 174.662 125.074 175.698 124.038 175.852V177.07ZM132.016 173.458C132.016 175.558 133.556 177.168 135.782 177.168C136.762 177.168 137.84 176.79 138.526 176.16L137.952 175.166C137.392 175.67 136.622 175.992 135.866 175.992C134.592 175.992 133.5 175.166 133.43 173.64H138.582C138.61 173.444 138.638 173.248 138.638 173.066C138.638 171.246 137.574 169.748 135.572 169.748C133.556 169.748 132.016 171.204 132.016 173.458ZM133.472 172.66C133.668 171.484 134.494 170.798 135.544 170.798C136.468 170.798 137.224 171.442 137.266 172.66H133.472ZM139.585 176.132C140.173 176.692 141.097 177.168 142.189 177.168C143.645 177.168 144.905 176.426 144.905 174.97C144.905 174.06 144.345 173.528 143.631 173.304V173.276C144.191 173.038 144.667 172.548 144.667 171.666C144.667 170.406 143.617 169.748 142.273 169.748C141.153 169.748 140.355 170.112 139.809 170.518L140.313 171.428C140.859 171.022 141.419 170.812 142.035 170.812C142.819 170.812 143.295 171.176 143.295 171.834C143.295 172.548 142.749 172.856 141.951 172.856H141.209V173.836H142.077C143.071 173.836 143.533 174.228 143.533 174.914C143.533 175.684 142.875 176.076 142.063 176.076C141.209 176.076 140.537 175.572 140.215 175.236L139.585 176.132ZM146.546 177H147.904V173.962H151.488V177H152.846V169.916H151.488V172.8H147.904V169.916H146.546V177ZM154.479 173.458C154.479 175.558 156.019 177.168 158.245 177.168C159.225 177.168 160.303 176.79 160.989 176.16L160.415 175.166C159.855 175.67 159.085 175.992 158.329 175.992C157.055 175.992 155.963 175.166 155.893 173.64H161.045C161.073 173.444 161.101 173.248 161.101 173.066C161.101 171.246 160.037 169.748 158.035 169.748C156.019 169.748 154.479 171.204 154.479 173.458ZM155.935 172.66C156.131 171.484 156.957 170.798 158.007 170.798C158.931 170.798 159.687 171.442 159.729 172.66H155.935ZM162.272 173.458C162.272 175.558 163.812 177.168 166.038 177.168C167.018 177.168 168.096 176.79 168.782 176.16L168.208 175.166C167.648 175.67 166.878 175.992 166.122 175.992C164.848 175.992 163.756 175.166 163.686 173.64H168.838C168.866 173.444 168.894 173.248 168.894 173.066C168.894 171.246 167.83 169.748 165.828 169.748C163.812 169.748 162.272 171.204 162.272 173.458ZM163.728 172.66C163.924 171.484 164.75 170.798 165.8 170.798C166.724 170.798 167.48 171.442 167.522 172.66H163.728ZM174.027 177H175.385V171.078H178.857V177H180.215V169.916H174.027V177ZM182.312 179.8H183.67V176.58C183.67 176.216 183.614 175.964 183.614 175.964H183.642C184.132 176.72 184.944 177.168 185.84 177.168C187.702 177.168 189.046 175.712 189.046 173.458C189.046 171.26 187.856 169.748 185.938 169.748C184.902 169.748 184.006 170.224 183.558 171.078H183.53C183.53 171.078 183.572 170.84 183.572 170.546V169.916H182.312V179.8ZM183.628 173.486C183.628 171.694 184.608 170.938 185.672 170.938C186.848 170.938 187.674 171.932 187.674 173.472C187.674 175.082 186.75 175.992 185.63 175.992C184.328 175.992 183.628 174.746 183.628 173.486ZM190.132 175.068C190.132 176.398 191.266 177.168 192.498 177.168C193.548 177.168 194.416 176.538 194.822 175.726H194.85C194.85 175.726 194.808 175.964 194.808 176.286V177H196.082V172.52C196.082 170.728 195.06 169.748 193.282 169.748C192.288 169.748 191.21 170.112 190.636 170.588L191.182 171.582C191.756 171.176 192.47 170.896 193.17 170.896C194.052 170.896 194.724 171.288 194.724 172.45V172.59H194.36C192.89 172.59 190.132 172.842 190.132 175.068ZM191.49 174.956C191.49 173.654 193.366 173.57 194.374 173.57H194.724V173.836C194.724 174.886 194.01 176.09 192.82 176.09C191.938 176.09 191.49 175.516 191.49 174.956ZM198.089 177H201.113C202.653 177 203.717 176.3 203.717 174.984C203.717 174.2 203.255 173.514 202.373 173.304V173.29C203.017 173.01 203.381 172.422 203.381 171.736C203.381 170.546 202.443 169.916 201.015 169.916H198.089V177ZM199.447 172.912V170.854H200.735C201.589 170.854 201.995 171.19 201.995 171.834C201.995 172.492 201.589 172.912 200.777 172.912H199.447ZM199.447 176.048V173.822H200.889C201.827 173.822 202.345 174.242 202.345 174.942C202.345 175.6 201.883 176.048 200.903 176.048H199.447ZM205.363 177H206.665L209.731 172.772C209.955 172.436 210.305 171.96 210.347 171.834H210.375C210.375 171.946 210.333 172.436 210.333 172.772V177H211.649V169.916H210.333L207.281 174.144C207.043 174.48 206.707 174.97 206.651 175.096H206.623C206.637 175.026 206.665 174.522 206.665 174.144V169.916H205.363V177ZM212.96 177.07C215.046 176.958 215.858 175.306 215.858 172.1V171.036H217.944V177H219.302V169.916H214.556V172.1C214.556 174.662 213.996 175.698 212.96 175.852V177.07ZM223.906 175.922H225.264L227.56 173.052L225.264 170.168H223.906L226.202 173.052L223.906 175.922ZM221.092 175.922H222.45L224.746 173.052L222.45 170.168H221.092L223.388 173.052L221.092 175.922Z" fill="#222224"/>
<path d="M43.72 69H46.3V57.02H52.64V69H55.22V54.8H43.72V69ZM58.1842 73H60.7242V68.68C60.7242 68.16 60.6642 67.8 60.6642 67.8H60.7042C61.4242 68.72 62.4842 69.24 63.6442 69.24C66.3242 69.24 68.3042 67.14 68.3042 63.9C68.3042 60.74 66.5442 58.56 63.7842 58.56C62.4042 58.56 61.1642 59.18 60.5042 60.28H60.4642C60.4642 60.28 60.5042 59.94 60.5042 59.56V58.8H58.1842V73ZM60.6442 63.96C60.6442 61.7 61.8842 60.74 63.2242 60.74C64.7042 60.74 65.7442 62 65.7442 63.94C65.7442 65.96 64.5842 67.1 63.1842 67.1C61.5242 67.1 60.6442 65.54 60.6442 63.96ZM70.4694 69H72.9294L76.7094 63.56C76.9694 63.16 77.3494 62.62 77.4694 62.34H77.5094C77.4894 62.6 77.4494 63.18 77.4494 63.56V69H79.8694V58.8H77.4094L73.6294 64.26C73.3694 64.66 72.9894 65.22 72.8694 65.48H72.8294C72.8494 65.32 72.8894 64.72 72.8894 64.26V58.8H70.4694V69ZM85.2983 66.96C86.3583 65.2 86.5383 62.86 86.5383 61.32V60.84H89.0783V66.96H85.2983ZM81.4983 66.96V71.4H83.8583V69H90.7783V71.4H93.0783V66.96H91.6183V58.8H84.1183V60.92C84.1183 62.68 83.8783 65.32 82.7583 66.96H81.4983ZM94.1853 63.9C94.1853 66.8 96.3053 69.24 99.6853 69.24C101.145 69.24 102.745 68.7 103.785 67.78L102.785 65.96C101.965 66.62 100.905 67.08 99.8653 67.08C98.3253 67.08 96.9653 66.16 96.8053 64.38H103.825C103.865 64.06 103.905 63.72 103.905 63.4C103.905 60.7 102.305 58.56 99.3853 58.56C96.3253 58.56 94.1853 60.76 94.1853 63.9ZM96.8653 62.64C97.1053 61.34 98.0253 60.48 99.3253 60.48C100.465 60.48 101.345 61.28 101.365 62.64H96.8653ZM106.016 73H108.556V68.68C108.556 68.16 108.496 67.8 108.496 67.8H108.536C109.256 68.72 110.316 69.24 111.476 69.24C114.156 69.24 116.136 67.14 116.136 63.9C116.136 60.74 114.376 58.56 111.616 58.56C110.236 58.56 108.996 59.18 108.336 60.28H108.296C108.296 60.28 108.336 59.94 108.336 59.56V58.8H106.016V73ZM108.476 63.96C108.476 61.7 109.716 60.74 111.056 60.74C112.536 60.74 113.576 62 113.576 63.94C113.576 65.96 112.416 67.1 111.016 67.1C109.356 67.1 108.476 65.54 108.476 63.96ZM116.967 69H119.747L122.087 64.9H123.367V69H125.747V64.9H127.027L129.367 69H132.167L129.047 63.76V63.72L131.887 58.8H129.247L126.987 62.76H125.747V58.8H123.367V62.76H122.127L119.867 58.8H117.227L120.087 63.72V63.76L116.967 69ZM133.77 69H136.23L140.01 63.56C140.27 63.16 140.65 62.62 140.77 62.34H140.81C140.79 62.6 140.75 63.18 140.75 63.56V69H143.17V58.8H140.71L136.93 64.26C136.67 64.66 136.29 65.22 136.17 65.48H136.13C136.15 65.32 136.19 64.72 136.19 64.26V58.8H133.77V69ZM145.899 69H150.739C152.879 69 154.539 68.08 154.539 66.04C154.539 65.02 153.959 64.02 152.739 63.7V63.68C153.599 63.26 154.079 62.38 154.079 61.44C154.079 59.72 152.699 58.8 150.639 58.8H145.899V69ZM148.439 63V60.46H150.059C151.059 60.46 151.519 60.92 151.519 61.66C151.519 62.44 151.059 63 150.099 63H148.439ZM148.439 67.32V64.58H150.299C151.399 64.58 151.979 65.14 151.979 65.96C151.979 66.74 151.439 67.32 150.299 67.32H148.439ZM155.881 66.18C155.881 68.04 157.401 69.24 159.241 69.24C160.621 69.24 161.841 68.48 162.461 67.4H162.501C162.501 67.4 162.441 67.72 162.441 68.14V69H164.801V62.62C164.801 60.04 163.221 58.56 160.561 58.56C159.041 58.56 157.401 59.14 156.561 59.82L157.501 61.64C158.321 61.08 159.341 60.66 160.341 60.66C161.401 60.66 162.261 61.12 162.261 62.46V62.6H161.821C159.561 62.6 155.881 63.12 155.881 66.18ZM158.401 65.96C158.401 64.52 160.561 64.34 161.841 64.34H162.281V64.62C162.281 65.86 161.361 67.3 159.941 67.3C158.921 67.3 158.401 66.64 158.401 65.96ZM166.763 63.9C166.763 66.8 168.883 69.24 172.263 69.24C173.723 69.24 175.323 68.7 176.363 67.78L175.363 65.96C174.543 66.62 173.483 67.08 172.443 67.08C170.903 67.08 169.543 66.16 169.383 64.38H176.403C176.443 64.06 176.483 63.72 176.483 63.4C176.483 60.7 174.883 58.56 171.963 58.56C168.903 58.56 166.763 60.76 166.763 63.9ZM169.443 62.64C169.683 61.34 170.603 60.48 171.903 60.48C173.043 60.48 173.923 61.28 173.943 62.64H169.443ZM178.174 69H180.614L180.974 63.48C181.014 62.8 180.954 61.74 180.954 61.74H180.994C180.994 61.74 181.334 62.54 181.614 63.24L183.614 67.72H185.714L187.714 63.22C188.034 62.5 188.314 61.74 188.314 61.74H188.354C188.354 61.74 188.314 62.8 188.334 63.48L188.694 69H191.134L190.214 58.8H187.374L185.174 64.06C184.954 64.64 184.674 65.36 184.674 65.36H184.634C184.634 65.36 184.374 64.62 184.134 64.06L181.974 58.8H179.094L178.174 69ZM192.838 63.9C192.838 66.86 194.998 69.24 198.378 69.24C200.018 69.24 201.618 68.6 202.578 67.58L201.598 65.78C200.838 66.52 199.678 67.08 198.598 67.08C196.638 67.08 195.418 65.6 195.418 63.88C195.418 62.14 196.638 60.72 198.518 60.72C199.518 60.72 200.518 61.18 201.158 61.82L202.298 60.08C201.318 59.02 199.758 58.56 198.378 58.56C194.998 58.56 192.838 61 192.838 63.9ZM203.337 69H206.077L208.357 65.54H209.677V69H212.217V58.8H207.637C205.437 58.8 203.977 60 203.977 62.1C203.977 63.56 204.897 64.68 206.037 65.1V65.12C206.037 65.12 205.817 65.36 205.577 65.74L203.337 69ZM208.337 63.78C207.297 63.78 206.517 63.24 206.517 62.08C206.517 60.92 207.257 60.46 208.357 60.46H209.677V63.78H208.337ZM219.942 69H222.482V60.96H226.702V69H229.242V58.8H219.942V69ZM231.334 63.9C231.334 67.04 233.834 69.24 236.934 69.24C240.034 69.24 242.534 67.04 242.534 63.9C242.534 60.78 240.034 58.56 236.914 58.56C233.834 58.56 231.334 60.78 231.334 63.9ZM233.914 63.9C233.914 62.02 235.274 60.72 236.934 60.72C238.594 60.72 239.974 62.02 239.974 63.9C239.974 65.8 238.594 67.08 236.934 67.08C235.274 67.08 233.914 65.8 233.914 63.9ZM247.095 66.96C248.155 65.2 248.335 62.86 248.335 61.32V60.84H250.875V66.96H247.095ZM243.295 66.96V71.4H245.655V69H252.575V71.4H254.875V66.96H253.415V58.8H245.915V60.92C245.915 62.68 245.675 65.32 244.555 66.96H243.295ZM255.659 69H258.479L260.239 66.04C260.379 65.82 260.519 65.5 260.519 65.5H260.559C260.559 65.5 260.719 65.82 260.859 66.04L262.619 69H265.459L262.079 63.84L265.359 58.8H262.479L260.899 61.58C260.759 61.84 260.559 62.22 260.559 62.22H260.519C260.519 62.22 260.339 61.84 260.199 61.58L258.619 58.8H255.739L259.019 63.84L255.659 69ZM266.119 63.9C266.119 67.04 268.619 69.24 271.719 69.24C274.819 69.24 277.319 67.04 277.319 63.9C277.319 60.78 274.819 58.56 271.699 58.56C268.619 58.56 266.119 60.78 266.119 63.9ZM268.699 63.9C268.699 62.02 270.059 60.72 271.719 60.72C273.379 60.72 274.759 62.02 274.759 63.9C274.759 65.8 273.379 67.08 271.719 67.08C270.059 67.08 268.699 65.8 268.699 63.9ZM281.88 66.96C282.94 65.2 283.12 62.86 283.12 61.32V60.84H285.66V66.96H281.88ZM278.08 66.96V71.4H280.44V69H287.36V71.4H289.66V66.96H288.2V58.8H280.7V60.92C280.7 62.68 280.46 65.32 279.34 66.96H278.08ZM290.725 66.18C290.725 68.04 292.245 69.24 294.085 69.24C295.465 69.24 296.685 68.48 297.305 67.4H297.345C297.345 67.4 297.285 67.72 297.285 68.14V69H299.645V62.62C299.645 60.04 298.065 58.56 295.405 58.56C293.885 58.56 292.245 59.14 291.405 59.82L292.345 61.64C293.165 61.08 294.185 60.66 295.185 60.66C296.245 60.66 297.105 61.12 297.105 62.46V62.6H296.665C294.405 62.6 290.725 63.12 290.725 66.18ZM293.245 65.96C293.245 64.52 295.405 64.34 296.685 64.34H297.125V64.62C297.125 65.86 296.205 67.3 294.785 67.3C293.765 67.3 293.245 66.64 293.245 65.96ZM42.74 93.9C42.74 96.86 44.9 99.24 48.28 99.24C49.92 99.24 51.52 98.6 52.48 97.58L51.5 95.78C50.74 96.52 49.58 97.08 48.5 97.08C46.54 97.08 45.32 95.6 45.32 93.88C45.32 92.14 46.54 90.72 48.42 90.72C49.42 90.72 50.42 91.18 51.06 91.82L52.2 90.08C51.22 89.02 49.66 88.56 48.28 88.56C44.9 88.56 42.74 91 42.74 93.9ZM53.3394 97.74C54.4794 98.76 55.9994 99.24 57.4994 99.24C60.8794 99.24 63.0394 96.86 63.0394 93.9C63.0394 91 60.9394 88.56 57.5594 88.56C56.0994 88.56 54.4994 89.02 53.5394 89.98L54.6194 91.68C55.3794 91 56.3794 90.58 57.4594 90.58C59.0394 90.58 60.2994 91.54 60.5794 93.02H56.1194V94.76H60.5794C60.2994 96.2 59.0594 97.22 57.3594 97.22C56.2594 97.22 55.1394 96.8 54.2794 95.98L53.3394 97.74ZM65.1373 103H67.6773V98.68C67.6773 98.16 67.6173 97.8 67.6173 97.8H67.6573C68.3773 98.72 69.4373 99.24 70.5973 99.24C73.2773 99.24 75.2573 97.14 75.2573 93.9C75.2573 90.74 73.4973 88.56 70.7373 88.56C69.3573 88.56 68.1173 89.18 67.4573 90.28H67.4173C67.4173 90.28 67.4573 89.94 67.4573 89.56V88.8H65.1373V103ZM67.5973 93.96C67.5973 91.7 68.8373 90.74 70.1773 90.74C71.6573 90.74 72.6973 92 72.6973 93.94C72.6973 95.96 71.5373 97.1 70.1373 97.1C68.4773 97.1 67.5973 95.54 67.5973 93.96ZM76.6425 96.18C76.6425 98.04 78.1625 99.24 80.0025 99.24C81.3825 99.24 82.6025 98.48 83.2225 97.4H83.2625C83.2625 97.4 83.2025 97.72 83.2025 98.14V99H85.5625V92.62C85.5625 90.04 83.9825 88.56 81.3225 88.56C79.8025 88.56 78.1625 89.14 77.3225 89.82L78.2625 91.64C79.0825 91.08 80.1025 90.66 81.1025 90.66C82.1625 90.66 83.0225 91.12 83.0225 92.46V92.6H82.5825C80.3225 92.6 76.6425 93.12 76.6425 96.18ZM79.1625 95.96C79.1625 94.52 81.3225 94.34 82.6025 94.34H83.0425V94.62C83.0425 95.86 82.1225 97.3 80.7025 97.3C79.6825 97.3 79.1625 96.64 79.1625 95.96ZM93.5052 99H96.0652L101.465 90.82C101.985 89.98 102.645 88.62 102.645 88.62H102.685C102.685 88.62 102.545 89.98 102.545 90.82V99H105.105V84.8H102.545L97.1852 92.98C96.6652 93.82 95.9852 95.2 95.9852 95.2H95.9452C95.9452 95.2 96.0852 93.84 96.0852 93V84.8H93.5052V99ZM107.369 93.9C107.369 96.86 109.529 99.24 112.909 99.24C114.549 99.24 116.149 98.6 117.109 97.58L116.129 95.78C115.369 96.52 114.209 97.08 113.129 97.08C111.169 97.08 109.949 95.6 109.949 93.88C109.949 92.14 111.169 90.72 113.049 90.72C114.049 90.72 115.049 91.18 115.689 91.82L116.829 90.08C115.849 89.02 114.289 88.56 112.909 88.56C109.529 88.56 107.369 91 107.369 93.9ZM118.166 96.18C118.166 98.04 119.686 99.24 121.526 99.24C122.906 99.24 124.126 98.48 124.746 97.4H124.786C124.786 97.4 124.726 97.72 124.726 98.14V99H127.086V92.62C127.086 90.04 125.506 88.56 122.846 88.56C121.326 88.56 119.686 89.14 118.846 89.82L119.786 91.64C120.606 91.08 121.626 90.66 122.626 90.66C123.686 90.66 124.546 91.12 124.546 92.46V92.6H124.106C121.846 92.6 118.166 93.12 118.166 96.18ZM120.686 95.96C120.686 94.52 122.846 94.34 124.126 94.34H124.566V94.62C124.566 95.86 123.646 97.3 122.226 97.3C121.206 97.3 120.686 96.64 120.686 95.96ZM128.889 96.18C128.889 98.04 130.409 99.24 132.249 99.24C133.629 99.24 134.849 98.48 135.469 97.4H135.509C135.509 97.4 135.449 97.72 135.449 98.14V99H137.809V92.62C137.809 90.04 136.229 88.56 133.569 88.56C132.049 88.56 130.409 89.14 129.569 89.82L130.509 91.64C131.329 91.08 132.349 90.66 133.349 90.66C134.409 90.66 135.269 91.12 135.269 92.46V92.6H134.829C132.569 92.6 128.889 93.12 128.889 96.18ZM131.409 95.96C131.409 94.52 133.569 94.34 134.849 94.34H135.289V94.62C135.289 95.86 134.369 97.3 132.949 97.3C131.929 97.3 131.409 96.64 131.409 95.96ZM140.391 99H142.931V94.86H144.251L146.931 99H149.871L146.231 93.7V93.66L149.471 88.8H146.651L144.171 92.7H142.931V88.8H140.391V99ZM150.49 96.18C150.49 98.04 152.01 99.24 153.85 99.24C155.23 99.24 156.45 98.48 157.07 97.4H157.11C157.11 97.4 157.05 97.72 157.05 98.14V99H159.41V92.62C159.41 90.04 157.83 88.56 155.17 88.56C153.65 88.56 152.01 89.14 151.17 89.82L152.11 91.64C152.93 91.08 153.95 90.66 154.95 90.66C156.01 90.66 156.87 91.12 156.87 92.46V92.6H156.43C154.17 92.6 150.49 93.12 150.49 96.18ZM153.01 95.96C153.01 94.52 155.17 94.34 156.45 94.34H156.89V94.62C156.89 95.86 155.97 97.3 154.55 97.3C153.53 97.3 153.01 96.64 153.01 95.96ZM167.353 99H169.933V93.04H176.433V99H178.993V84.8H176.433V90.82H169.933V84.8H167.353V99ZM181.954 99H186.374C189.054 99 190.234 97.66 190.234 95.68C190.234 93.46 188.794 92.3 186.394 92.3H184.494V88.8H181.954V99ZM184.494 97.26V94.02H185.934C187.134 94.02 187.674 94.72 187.674 95.66C187.674 96.58 187.134 97.26 185.974 97.26H184.494ZM192.09 99H194.63V94.9H196.29C196.73 97.48 198.87 99.24 201.59 99.24C204.61 99.24 207.01 97.04 207.01 93.9C207.01 90.78 204.61 88.56 201.57 88.56C198.91 88.56 196.77 90.3 196.31 92.84H194.63V88.8H192.09V99ZM198.73 93.9C198.73 92.02 199.99 90.72 201.59 90.72C203.17 90.72 204.43 92.02 204.43 93.9C204.43 95.8 203.17 97.08 201.59 97.08C199.99 97.08 198.73 95.8 198.73 93.9ZM211.228 99H213.748V90.96H217.128V88.8H207.868V90.96H211.228V99ZM217.974 93.9C217.974 97.04 220.474 99.24 223.574 99.24C226.674 99.24 229.174 97.04 229.174 93.9C229.174 90.78 226.674 88.56 223.554 88.56C220.474 88.56 217.974 90.78 217.974 93.9ZM220.554 93.9C220.554 92.02 221.914 90.72 223.574 90.72C225.234 90.72 226.614 92.02 226.614 93.9C226.614 95.8 225.234 97.08 223.574 97.08C221.914 97.08 220.554 95.8 220.554 93.9ZM231.27 99H233.81V94.88H238.17V99H240.71V88.8H238.17V92.74H233.81V88.8H231.27V99ZM242.658 96.18C242.658 98.04 244.178 99.24 246.018 99.24C247.398 99.24 248.618 98.48 249.238 97.4H249.278C249.278 97.4 249.218 97.72 249.218 98.14V99H251.578V92.62C251.578 90.04 249.998 88.56 247.338 88.56C245.818 88.56 244.178 89.14 243.338 89.82L244.278 91.64C245.098 91.08 246.118 90.66 247.118 90.66C248.178 90.66 249.038 91.12 249.038 92.46V92.6H248.598C246.338 92.6 242.658 93.12 242.658 96.18ZM245.178 95.96C245.178 94.52 247.338 94.34 248.618 94.34H249.058V94.62C249.058 95.86 248.138 97.3 246.718 97.3C245.698 97.3 245.178 96.64 245.178 95.96ZM254.121 91.34H256.641V88.8H254.121V91.34ZM254.121 99H256.641V96.46H254.121V99Z" fill="#505257"/>
</svg>
