<svg width="970" height="298" viewBox="0 0 970 298" fill="none" xmlns="http://www.w3.org/2000/svg">
<path d="M570.9 84.248C570.9 90.44 575.544 95.192 582.42 95.192V98.432H588.72V95.192C595.596 95.192 600.24 90.44 600.24 84.248C600.24 78.236 595.596 73.628 588.72 73.628V71H582.42V73.628C575.544 73.628 570.9 78.236 570.9 84.248ZM588.72 89.936V78.884C591.636 78.884 593.832 81.296 593.832 84.248C593.832 87.38 591.636 89.936 588.72 89.936ZM577.308 84.248C577.308 81.296 579.504 78.884 582.42 78.884V89.936C579.504 89.936 577.308 87.38 577.308 84.248ZM603.236 98H609.284L614.432 89.864C614.72 89.36 615.116 88.784 615.44 88.028H615.512C615.44 88.748 615.44 89.468 615.44 89.9V98H621.308V79.46H615.26L610.112 87.632C609.788 88.172 609.428 88.712 609.104 89.468H609.032C609.068 89 609.104 88.28 609.104 87.632V79.46H603.236V98ZM623.942 95.696C625.958 97.496 628.946 98.432 631.682 98.432C636.074 98.432 639.35 96.452 639.35 92.528C639.35 90.368 637.874 89.072 636.47 88.424V88.352C637.586 87.74 638.774 86.48 638.774 84.176C638.774 80.972 635.75 79.028 631.934 79.028C628.55 79.028 626.174 79.928 624.446 81.116L626.246 84.968C628.19 83.816 629.63 83.564 630.638 83.564C632.222 83.564 632.582 84.248 632.582 85.04C632.582 86.192 631.682 86.48 630.71 86.48H628.838V90.584H631.106C632.798 90.584 633.122 91.232 633.122 92.132C633.122 92.996 632.618 93.752 630.89 93.752C629.414 93.752 627.578 92.852 626.426 91.808L623.942 95.696ZM642.506 98H648.554L653.702 89.864C653.99 89.36 654.386 88.784 654.71 88.028H654.782C654.71 88.748 654.71 89.468 654.71 89.9V98H660.578V79.46H654.53L649.382 87.632C649.058 88.172 648.698 88.712 648.374 89.468H648.302C648.338 89 648.374 88.28 648.374 87.632V79.46H642.506V98ZM664.76 98H670.988V91.196H672.932L676.856 98H683.948L677.756 88.352V88.28L683.192 79.46H676.424L672.752 85.976H670.988V79.46H664.76V98ZM684.557 92.78C684.557 95.984 687.041 98.432 690.605 98.432C692.729 98.432 694.889 97.46 696.113 95.732H696.185C696.185 95.732 696.113 96.272 696.113 96.884V98H701.801V86.588C701.801 81.872 698.633 79.028 693.521 79.028C690.497 79.028 687.257 80.216 685.673 81.44L687.833 85.832C689.309 84.86 691.145 84.068 692.945 84.068C694.313 84.068 695.573 84.572 695.573 86.12V86.444H695.033C690.461 86.444 684.557 87.812 684.557 92.78ZM690.713 92.204C690.713 90.512 693.161 90.008 695.069 90.008H695.645V90.512C695.645 92.024 694.277 93.788 692.477 93.788C691.325 93.788 690.713 93.068 690.713 92.204ZM714.752 98H724.868C728.54 98 731.924 96.56 731.924 92.492C731.924 90.872 731.132 89.036 729.008 88.388V88.352C730.412 87.524 731.168 85.868 731.168 84.32C731.168 81.116 728.576 79.46 724.868 79.46H714.752V98ZM720.98 86.768V83.312H723.248C724.472 83.312 724.976 84.068 724.976 84.932C724.976 85.904 724.472 86.768 723.32 86.768H720.98ZM720.98 94.112V90.404H723.752C725.084 90.404 725.696 91.268 725.696 92.276C725.696 93.212 725.048 94.112 723.716 94.112H720.98ZM744.143 105.2H750.371V98.252C750.371 97.316 750.299 96.668 750.299 96.668H750.371C751.703 97.82 753.359 98.432 755.087 98.432C760.019 98.432 763.727 94.616 763.727 88.748C763.727 82.988 760.415 79.028 755.375 79.028C753.143 79.028 751.019 79.892 749.759 81.584H749.687C749.687 81.584 749.759 81.008 749.759 80.396V79.46H744.143V105.2ZM750.191 88.856C750.191 85.652 751.955 84.284 753.827 84.284C755.987 84.284 757.463 86.084 757.463 88.856C757.463 91.7 755.771 93.284 753.827 93.284C751.379 93.284 750.191 91.088 750.191 88.856ZM765.592 92.78C765.592 95.984 768.076 98.432 771.64 98.432C773.764 98.432 775.924 97.46 777.148 95.732H777.22C777.22 95.732 777.148 96.272 777.148 96.884V98H782.836V86.588C782.836 81.872 779.668 79.028 774.556 79.028C771.532 79.028 768.292 80.216 766.708 81.44L768.868 85.832C770.344 84.86 772.18 84.068 773.98 84.068C775.348 84.068 776.608 84.572 776.608 86.12V86.444H776.068C771.496 86.444 765.592 87.812 765.592 92.78ZM771.748 92.204C771.748 90.512 774.196 90.008 776.104 90.008H776.68V90.512C776.68 92.024 775.312 93.788 773.512 93.788C772.36 93.788 771.748 93.068 771.748 92.204ZM785.959 86.912C785.959 93.716 789.307 98.432 796.003 98.432C801.871 98.432 805.579 94.544 805.579 89.432C805.579 84.464 802.555 80.936 797.587 80.936C795.967 80.936 793.735 81.368 792.151 82.7H792.079C792.187 80.036 794.707 79.028 797.083 78.236L804.067 76.004L802.303 71L796.291 73.016C789.055 75.5 785.959 79.352 785.959 86.912ZM792.151 89.54C792.151 87.128 793.807 85.616 795.751 85.616C797.695 85.616 799.351 87.128 799.351 89.54C799.351 91.916 797.695 93.356 795.751 93.356C793.807 93.356 792.151 91.916 792.151 89.54ZM807.786 88.784C807.786 94.58 812.466 98.432 818.298 98.432C824.13 98.432 828.81 94.58 828.81 88.784C828.81 82.952 824.13 79.028 818.262 79.028C812.466 79.028 807.786 82.952 807.786 88.784ZM814.086 88.784C814.086 85.976 816.03 84.212 818.298 84.212C820.566 84.212 822.51 85.976 822.51 88.784C822.51 91.556 820.566 93.248 818.298 93.248C816.03 93.248 814.086 91.556 814.086 88.784ZM837.256 92.312C839.524 92.312 841.18 91.808 842.224 91.34H842.296C842.296 91.34 842.26 91.808 842.26 92.204V98H848.488V79.46H842.26V86.336C841.648 86.768 840.712 87.236 839.452 87.236C837.904 87.236 837.076 86.336 837.076 84.752V79.46H830.956V85.94C830.956 90.8 834.268 92.312 837.256 92.312ZM852.67 98H858.718L863.866 89.864C864.154 89.36 864.55 88.784 864.874 88.028H864.946C864.874 88.748 864.874 89.468 864.874 89.9V98H870.742V79.46H864.694L859.546 87.632C859.222 88.172 858.862 88.712 858.538 89.468H858.466C858.502 89 858.538 88.28 858.538 87.632V79.46H852.67V98ZM873.232 98H880.072L882.268 93.824C882.448 93.5 882.7 92.888 882.7 92.888H882.772C882.772 92.888 883.024 93.5 883.204 93.824L885.436 98H892.276L886.444 88.82L892.384 79.46H885.364L883.348 83.6C883.132 84.068 882.772 84.824 882.772 84.824H882.7C882.7 84.824 882.376 84.068 882.124 83.6L880.108 79.46H873.088L879.064 88.82L873.232 98ZM572.088 140H586.92V144.32H592.464V134.78H589.8V121.46H583.572V134.78H578.316V121.46H572.088V140ZM594.107 130.712C594.107 135.644 597.671 140.432 604.295 140.432C607.139 140.432 610.199 139.46 612.215 137.732L609.911 133.376C608.399 134.384 606.635 135.248 604.799 135.248C602.819 135.248 600.947 134.204 600.479 131.936H612.179C612.251 131.288 612.323 130.64 612.323 129.992C612.323 124.844 609.227 121.028 603.755 121.028C597.779 121.028 594.107 125.276 594.107 130.712ZM600.623 128.372C600.947 126.896 601.811 125.6 603.611 125.6C605.195 125.6 606.167 126.86 606.167 128.372H600.623ZM614.068 140.18C621.268 140.18 623.428 134.996 623.428 127.436V126.392H626.524V140H632.752V121.46H617.56V127.4C617.56 133.772 615.724 134.528 614.068 134.744V140.18ZM635.152 140H641.74L645.304 134.348H646.6V140H652.828V121.46H643.108C639.004 121.46 636.412 123.836 636.412 127.724C636.412 130.1 637.744 132.224 639.76 133.232V133.268C639.76 133.268 639.4 133.628 638.896 134.384L635.152 140ZM645.124 130.208C643.648 130.208 642.604 129.452 642.604 127.688C642.604 125.96 643.648 125.312 645.088 125.312H646.6V130.208H645.124ZM655.298 140H662.138L664.334 135.824C664.514 135.5 664.766 134.888 664.766 134.888H664.838C664.838 134.888 665.09 135.5 665.27 135.824L667.502 140H674.342L668.51 130.82L674.45 121.46H667.43L665.414 125.6C665.198 126.068 664.838 126.824 664.838 126.824H664.766C664.766 126.824 664.442 126.068 664.19 125.6L662.174 121.46H655.154L661.13 130.82L655.298 140ZM692.623 135.068C693.919 132.584 694.279 129.884 694.279 127.076V126.392H697.483V135.068H692.623ZM684.199 135.068V144.32H689.959V140H700.831V144.32H706.375V135.068H703.711V121.46H688.411V125.924C688.411 129.668 687.727 132.98 686.503 135.068H684.199ZM707.865 140.18C715.065 140.18 717.225 134.996 717.225 127.436V126.392H720.321V140H726.549V121.46H711.357V127.4C711.357 133.772 709.521 134.528 707.865 134.744V140.18ZM728.949 140H735.537L739.101 134.348H740.397V140H746.625V121.46H736.905C732.801 121.46 730.209 123.836 730.209 127.724C730.209 130.1 731.541 132.224 733.557 133.232V133.268C733.557 133.268 733.197 133.628 732.693 134.384L728.949 140ZM738.921 130.208C737.445 130.208 736.401 129.452 736.401 127.688C736.401 125.96 737.445 125.312 738.885 125.312H740.397V130.208H738.921ZM759.787 140H769.903C773.575 140 776.959 138.56 776.959 134.492C776.959 132.872 776.167 131.036 774.043 130.388V130.352C775.447 129.524 776.203 127.868 776.203 126.32C776.203 123.116 773.611 121.46 769.903 121.46H759.787V140ZM766.015 128.768V125.312H768.283C769.507 125.312 770.011 126.068 770.011 126.932C770.011 127.904 769.507 128.768 768.355 128.768H766.015ZM766.015 136.112V132.404H768.787C770.119 132.404 770.731 133.268 770.731 134.276C770.731 135.212 770.083 136.112 768.751 136.112H766.015ZM778.63 137.696C780.646 139.496 783.634 140.432 786.37 140.432C790.762 140.432 794.038 138.452 794.038 134.528C794.038 132.368 792.562 131.072 791.158 130.424V130.352C792.274 129.74 793.462 128.48 793.462 126.176C793.462 122.972 790.438 121.028 786.622 121.028C783.238 121.028 780.862 121.928 779.134 123.116L780.934 126.968C782.878 125.816 784.318 125.564 785.326 125.564C786.91 125.564 787.27 126.248 787.27 127.04C787.27 128.192 786.37 128.48 785.398 128.48H783.526V132.584H785.794C787.486 132.584 787.81 133.232 787.81 134.132C787.81 134.996 787.306 135.752 785.578 135.752C784.102 135.752 782.266 134.852 781.114 133.808L778.63 137.696ZM797.193 147.2H803.421V140.252C803.421 139.316 803.349 138.668 803.349 138.668H803.421C804.753 139.82 806.409 140.432 808.137 140.432C813.069 140.432 816.777 136.616 816.777 130.748C816.777 124.988 813.465 121.028 808.425 121.028C806.193 121.028 804.069 121.892 802.809 123.584H802.737C802.737 123.584 802.809 123.008 802.809 122.396V121.46H797.193V147.2ZM803.241 130.856C803.241 127.652 805.005 126.284 806.877 126.284C809.037 126.284 810.513 128.084 810.513 130.856C810.513 133.7 808.821 135.284 806.877 135.284C804.429 135.284 803.241 133.088 803.241 130.856ZM818.931 130.784C818.931 136.58 823.611 140.432 829.443 140.432C835.275 140.432 839.955 136.58 839.955 130.784C839.955 124.952 835.275 121.028 829.407 121.028C823.611 121.028 818.931 124.952 818.931 130.784ZM825.231 130.784C825.231 127.976 827.175 126.212 829.443 126.212C831.711 126.212 833.655 127.976 833.655 130.784C833.655 133.556 831.711 135.248 829.443 135.248C827.175 135.248 825.231 133.556 825.231 130.784ZM842.028 130.712C842.028 135.824 845.736 140.432 852.36 140.432C855.456 140.432 858.48 139.244 860.316 137.372L858.048 133.016C856.716 134.168 854.772 135.248 852.972 135.248C849.84 135.248 848.328 132.836 848.328 130.64C848.328 128.444 849.804 126.212 852.756 126.212C854.376 126.212 856.032 126.968 857.112 128.012L859.74 123.836C857.904 121.856 854.952 121.028 852.36 121.028C845.7 121.028 842.028 125.744 842.028 130.712ZM861.568 140.18C868.768 140.18 870.928 134.996 870.928 127.436V126.392H874.024V140H880.252V121.46H865.06V127.4C865.06 133.772 863.224 134.528 861.568 134.744V140.18ZM902.92 140H909.148V121.46H902.92V140ZM884.416 140H893.452C898.636 140 900.796 137.444 900.796 133.664C900.796 129.92 898.636 127.256 893.452 127.256H890.644V121.46H884.416V140ZM890.644 135.932V131.288H892.192C893.776 131.288 894.568 132.332 894.568 133.628C894.568 134.924 893.776 135.932 892.3 135.932H890.644ZM911.623 140H918.463L920.659 135.824C920.839 135.5 921.091 134.888 921.091 134.888H921.163C921.163 134.888 921.415 135.5 921.595 135.824L923.827 140H930.667L924.835 130.82L930.775 121.46H923.755L921.739 125.6C921.523 126.068 921.163 126.824 921.163 126.824H921.091C921.091 126.824 920.767 126.068 920.515 125.6L918.499 121.46H911.479L917.455 130.82L911.623 140Z" fill="#222224"/>
<g clip-path="url(#clip0)">
<path d="M0 4.40122C0 2.86065 0 2.09037 0.299609 1.50195C0.563153 0.984356 0.983678 0.563541 1.50091 0.299816C2.08893 0 2.85869 0 4.3982 0H504.602C506.141 0 506.911 0 507.499 0.299816C508.016 0.563541 508.437 0.984356 508.7 1.50195C509 2.09037 509 2.86066 509 4.40123V293.599C509 295.139 509 295.91 508.7 296.498C508.437 297.016 508.016 297.436 507.499 297.7C506.911 298 506.141 298 504.602 298H4.39818C2.85868 298 2.08893 298 1.50091 297.7C0.983678 297.436 0.563153 297.016 0.299609 296.498C0 295.91 0 295.139 0 293.599V4.40122Z" fill="#F3F3F3"/>
<rect x="93" y="189" width="285" height="122" rx="4" fill="white"/>
<rect x="160" y="26" width="250" height="140" rx="2" fill="white"/>
<path d="M177 40.4545C177 39.9454 177 39.6908 177.058 39.4964C177.108 39.3253 177.189 39.1862 177.288 39.0991C177.401 39 177.549 39 177.845 39H209.155C209.451 39 209.599 39 209.712 39.0991C209.811 39.1862 209.892 39.3253 209.942 39.4964C210 39.6908 210 39.9454 210 40.4545V42.5455C210 43.0546 210 43.3092 209.942 43.5036C209.892 43.6747 209.811 43.8138 209.712 43.9009C209.599 44 209.451 44 209.155 44H177.845C177.549 44 177.401 44 177.288 43.9009C177.189 43.8138 177.108 43.6747 177.058 43.5036C177 43.3092 177 43.0546 177 42.5455V40.4545Z" fill="#424754"/>
<path d="M380 40.4545C380 39.9454 380 39.6908 380.026 39.4964C380.049 39.3253 380.086 39.1862 380.131 39.0991C380.182 39 380.25 39 380.384 39H394.616C394.75 39 394.818 39 394.869 39.0991C394.914 39.1862 394.951 39.3253 394.974 39.4964C395 39.6908 395 39.9454 395 40.4545V42.5455C395 43.0546 395 43.3092 394.974 43.5036C394.951 43.6747 394.914 43.8138 394.869 43.9009C394.818 44 394.75 44 394.616 44H380.384C380.25 44 380.182 44 380.131 43.9009C380.086 43.8138 380.049 43.6747 380.026 43.5036C380 43.3092 380 43.0546 380 42.5455V40.4545Z" fill="#97999D"/>
<path d="M177 138.945C177 137.214 177 136.349 177.03 135.688C177.056 135.106 177.097 134.633 177.149 134.337C177.207 134 177.283 134 177.435 134H193.565C193.717 134 193.793 134 193.851 134.337C193.903 134.633 193.944 135.106 193.97 135.688C194 136.349 194 137.214 194 138.945V146.055C194 147.786 194 148.651 193.97 149.312C193.944 149.894 193.903 150.367 193.851 150.663C193.793 151 193.717 151 193.565 151H177.435C177.283 151 177.207 151 177.149 150.663C177.097 150.367 177.056 149.894 177.03 149.312C177 148.651 177 147.786 177 146.055V138.945Z" fill="#F04B5D"/>
<path d="M201 138.945C201 137.214 201 136.349 201.03 135.688C201.056 135.106 201.097 134.633 201.149 134.337C201.207 134 201.283 134 201.435 134H217.565C217.717 134 217.793 134 217.851 134.337C217.903 134.633 217.944 135.106 217.97 135.688C218 136.349 218 137.214 218 138.945V146.055C218 147.786 218 148.651 217.97 149.312C217.944 149.894 217.903 150.367 217.851 150.663C217.793 151 217.717 151 217.565 151H201.435C201.283 151 201.207 151 201.149 150.663C201.097 150.367 201.056 149.894 201.03 149.312C201 148.651 201 147.786 201 146.055V138.945Z" fill="#E0E0E0"/>
<path d="M225 138.945C225 137.214 225 136.349 225.03 135.688C225.056 135.106 225.097 134.633 225.149 134.337C225.207 134 225.283 134 225.435 134H241.565C241.717 134 241.793 134 241.851 134.337C241.903 134.633 241.944 135.106 241.97 135.688C242 136.349 242 137.214 242 138.945V146.055C242 147.786 242 148.651 241.97 149.312C241.944 149.894 241.903 150.367 241.851 150.663C241.793 151 241.717 151 241.565 151H225.435C225.283 151 225.207 151 225.149 150.663C225.097 150.367 225.056 149.894 225.03 149.312C225 148.651 225 147.786 225 146.055V138.945Z" fill="#E0E0E0"/>
<path d="M250 138.945C250 137.214 250 136.349 250.03 135.688C250.056 135.106 250.097 134.633 250.149 134.337C250.207 134 250.283 134 250.435 134H266.565C266.717 134 266.793 134 266.851 134.337C266.903 134.633 266.944 135.106 266.97 135.688C267 136.349 267 137.214 267 138.945V146.055C267 147.786 267 148.651 266.97 149.312C266.944 149.894 266.903 150.367 266.851 150.663C266.793 151 266.717 151 266.565 151H250.435C250.283 151 250.207 151 250.149 150.663C250.097 150.367 250.056 149.894 250.03 149.312C250 148.651 250 147.786 250 146.055V138.945Z" fill="#E0E0E0"/>
<mask id="mask0" mask-type="alpha" maskUnits="userSpaceOnUse" x="160" y="26" width="250" height="140">
<rect x="160" y="26" width="250" height="140" rx="2" fill="white"/>
</mask>
<g mask="url(#mask0)">
<circle cx="469.5" cy="95.5" r="146" stroke="#E1EAF7"/>
<circle cx="435" cy="121" r="120.5" stroke="#E1EAF7"/>
<circle cx="417.5" cy="114.5" r="127" stroke="#E1EAF7"/>
</g>
<path d="M428.728 164.163H422.465C422.465 164.163 415.576 169.173 416.202 174.81C416.829 180.446 404.93 229.295 404.93 235.557C404.93 241.82 402.425 243.699 402.425 247.456C402.425 251.214 403.677 253.719 402.425 255.598C401.172 257.476 398.667 268.749 399.293 273.133C399.657 276.044 399.657 278.989 399.293 281.901H414.95C414.95 281.901 426.223 243.699 428.728 241.82C431.233 239.941 432.485 236.81 432.485 234.931C432.485 233.052 431.233 233.052 434.364 230.547C437.495 228.042 435.616 216.769 435.616 216.769L440 205.496L428.728 164.163Z" fill="#D6D3E8"/>
<path d="M341.051 262.799C341.051 262.799 335.415 290.355 344.809 287.85C354.202 285.345 350.445 261.547 350.445 261.547L341.051 262.799Z" fill="#A0616A"/>
<path d="M361.091 255.284C361.091 255.284 353.576 265.304 353.576 270.941C353.576 276.577 351.071 326.678 351.071 326.678C351.071 326.678 337.293 390.557 341.051 394.315C344.808 398.072 356.081 403.709 357.96 401.83C359.839 399.951 372.99 331.688 372.99 331.688L388.647 289.729L403.051 349.85C403.051 349.85 402.425 401.83 404.93 402.456C407.435 403.082 408.687 403.709 407.435 406.214C406.182 408.719 404.303 413.729 404.303 413.729C404.303 413.729 419.96 417.486 423.091 414.981C426.223 412.476 426.849 351.729 423.091 330.436C419.334 309.143 423.717 260.294 423.717 260.294L361.091 255.284Z" fill="#2F2E41"/>
<path d="M383.95 134.102C394.326 134.102 402.738 125.691 402.738 115.314C402.738 104.938 394.326 96.5264 383.95 96.5264C373.574 96.5264 365.162 104.938 365.162 115.314C365.162 125.691 373.574 134.102 383.95 134.102Z" fill="#A0616A"/>
<path d="M378.313 127.213C378.313 127.213 380.818 140.365 378.313 144.122C375.808 147.88 412.132 145.375 412.132 145.375C412.132 145.375 394.596 125.334 396.475 121.577C398.354 117.819 378.313 127.213 378.313 127.213Z" fill="#A0616A"/>
<path d="M362.344 148.819C362.344 148.819 374.869 132.536 390.526 135.668C394.753 136.513 398.615 137.358 402 138.142C413.93 140.904 423.85 149.406 427.926 160.953C428.983 163.947 429.511 166.824 429.041 169.173C427.162 178.567 428.102 252.779 428.102 252.779C428.102 252.779 423.092 254.658 423.718 257.163C424.344 259.668 428.728 262.799 424.344 262.799C419.96 262.799 353.576 260.294 354.829 258.415C356.082 256.536 362.344 148.819 362.344 148.819Z" fill="#D0CDE1"/>
<path d="M368.606 148.819H362.343C362.343 148.819 355.454 153.829 356.08 159.466C356.707 165.102 344.807 213.951 344.807 220.213C344.807 226.476 342.302 228.355 342.302 232.112C342.302 235.87 343.555 238.375 342.302 240.254C341.05 242.133 338.545 253.405 339.171 257.789C339.535 260.7 339.535 263.646 339.171 266.557H354.828C354.828 266.557 366.1 228.355 368.606 226.476C371.111 224.597 372.363 221.466 372.363 219.587C372.363 217.708 371.111 217.708 374.242 215.203C377.373 212.698 375.494 201.425 375.494 201.425L379.878 190.153L368.606 148.819Z" fill="#D0CDE1"/>
<path opacity="0.1" d="M359.476 257.589L378.313 216.143L368.895 260.222L359.476 257.589Z" fill="black"/>
<path d="M377.395 86.9022L377.405 85.3519C378.7 85.1872 380.012 85.2332 381.292 85.4881C381.306 84.5522 381.112 83.625 380.723 82.7734C382.013 82.9431 383.268 83.3165 384.44 83.8796L384.872 81L396.089 84.9311C400.115 86.3422 404.371 87.9134 406.984 91.2861C409.897 95.0461 410.109 100.307 408.99 104.931C407.872 109.554 405.597 113.802 403.899 118.245C403.28 120.142 402.482 121.976 401.516 123.722C398.126 129.188 390.472 131.138 384.474 128.816C382.261 127.959 380.17 126.531 379.049 124.439C378.475 123.141 377.986 121.807 377.586 120.446C376.544 117.685 375.022 111.908 372.492 110.388C371.379 109.72 369.681 112.591 368.719 111.718C366.249 109.474 366.234 105.552 367.212 102.361C368.134 99.1628 369.286 96.0357 370.658 93.0039C371.247 91.7805 377.397 86.7162 377.395 86.9022Z" fill="#2F2E41"/>
<rect x="62" y="69" width="82" height="97" rx="2" fill="white"/>
<rect x="137.143" y="129" width="20" height="20" rx="2" transform="rotate(45 137.143 129)" fill="white"/>
<path d="M73 77.1636C73 76.7563 73 76.5527 73.0244 76.3971C73.0459 76.2603 73.0802 76.149 73.1223 76.0793C73.1702 76 73.2329 76 73.3584 76H86.6416C86.7671 76 86.8298 76 86.8777 76.0793C86.9198 76.149 86.9541 76.2603 86.9756 76.3971C87 76.5527 87 76.7563 87 77.1636V78.8364C87 79.2437 87 79.4473 86.9756 79.6029C86.9541 79.7397 86.9198 79.851 86.8777 79.9207C86.8298 80 86.7671 80 86.6416 80H73.3584C73.2329 80 73.1702 80 73.1223 79.9207C73.0802 79.851 73.0459 79.7397 73.0244 79.6029C73 79.4473 73 79.2437 73 78.8364V77.1636Z" fill="#424754"/>
<g filter="url(#filter0_d)">
<path d="M82.7255 110.29C82.2517 110.086 81.7008 110.305 81.5166 110.786C79.8755 115.079 79.5553 119.772 80.6094 124.26C81.7348 129.051 84.3673 133.354 88.12 136.538C91.8727 139.722 96.5477 141.618 101.458 141.948C106.368 142.278 111.255 141.024 115.4 138.371C119.545 135.718 122.729 131.805 124.486 127.208C126.242 122.61 126.477 117.571 125.157 112.83C123.837 108.089 121.031 103.896 117.151 100.868C113.517 98.0324 109.121 96.358 104.536 96.0513C104.021 96.0169 103.592 96.4258 103.578 96.9412C103.565 97.4567 103.972 97.8833 104.487 97.9196C108.672 98.2147 112.683 99.7502 116.002 102.341C119.567 105.123 122.145 108.975 123.358 113.331C124.571 117.687 124.355 122.317 122.741 126.541C121.128 130.765 118.202 134.361 114.393 136.798C110.585 139.236 106.095 140.388 101.583 140.085C97.0716 139.782 92.7761 138.04 89.3281 135.114C85.88 132.189 83.4613 128.235 82.4272 123.833C81.4645 119.734 81.7494 115.449 83.2338 111.524C83.4162 111.042 83.1993 110.493 82.7255 110.29Z" fill="#27AE60"/>
</g>
<path d="M96.0566 117.603C96.0566 117.029 96.0566 116.741 96.0801 116.522C96.1007 116.329 96.1337 116.172 96.1742 116.074C96.2202 115.962 96.2805 115.962 96.401 115.962H109.165C109.286 115.962 109.346 115.962 109.392 116.074C109.432 116.172 109.465 116.329 109.486 116.522C109.509 116.741 109.509 117.029 109.509 117.603V119.962C109.509 120.537 109.509 120.824 109.486 121.043C109.465 121.236 109.432 121.393 109.392 121.492C109.346 121.603 109.286 121.603 109.165 121.603H96.401C96.2805 121.603 96.2202 121.603 96.1742 121.492C96.1337 121.393 96.1007 121.236 96.0801 121.043C96.0566 120.824 96.0566 120.537 96.0566 119.962V117.603Z" fill="#424754"/>
<path d="M85.6416 148.273C85.6416 148.052 85.6416 147.941 85.7014 147.857C85.754 147.783 85.8379 147.722 85.9411 147.685C86.0584 147.642 86.212 147.642 86.5192 147.642H119.047C119.354 147.642 119.508 147.642 119.625 147.685C119.728 147.722 119.812 147.783 119.865 147.857C119.925 147.941 119.925 148.052 119.925 148.273V149.18C119.925 149.401 119.925 149.512 119.865 149.596C119.812 149.67 119.728 149.731 119.625 149.768C119.508 149.811 119.354 149.811 119.047 149.811H86.5192C86.212 149.811 86.0584 149.811 85.9411 149.768C85.8379 149.731 85.754 149.67 85.7014 149.596C85.6416 149.512 85.6416 149.401 85.6416 149.18V148.273Z" fill="#97999D"/>
<path d="M165 220.929H123V273.506H165V220.929Z" fill="#3F3D56"/>
<path d="M151 233H129V236H151V233Z" fill="white"/>
<path d="M159 244H129V246H159V244Z" fill="white"/>
<path d="M159 249H129V251H159V249Z" fill="white"/>
<path d="M159 254H129V256H159V254Z" fill="white"/>
<path d="M159 259H129V261H159V259Z" fill="white"/>
<path d="M147.036 220.183V218.82C147.036 218.072 146.738 217.355 146.209 216.826C145.68 216.297 144.962 216 144.214 216C143.466 216 142.749 216.297 142.219 216.826C141.69 217.355 141.393 218.072 141.392 218.82V220.183H136.04V223.199H152.389V220.183H147.036ZM144.214 216.777C144.542 216.777 144.861 216.874 145.133 217.056C145.405 217.237 145.617 217.496 145.743 217.798C145.868 218.1 145.901 218.433 145.837 218.754C145.773 219.075 145.615 219.37 145.384 219.601C145.153 219.832 144.858 219.99 144.537 220.054C144.216 220.117 143.884 220.085 143.581 219.96C143.279 219.834 143.021 219.622 142.839 219.35C142.657 219.078 142.56 218.758 142.56 218.431C142.56 218.214 142.603 217.999 142.686 217.798C142.769 217.597 142.891 217.415 143.045 217.261C143.198 217.108 143.381 216.986 143.581 216.903C143.782 216.82 143.997 216.777 144.214 216.777Z" fill="#F04B5D"/>
<path fill-rule="evenodd" clip-rule="evenodd" d="M249.45 70.8011C250.282 71.1336 251.047 71.4845 251.736 71.8479C253.121 72.5784 254.146 73.333 254.784 74.047C255.427 74.7665 255.583 75.3296 255.522 75.7401C255.462 76.1507 255.151 76.6452 254.328 77.1489C253.511 77.6489 252.312 78.0763 250.776 78.3769C249.895 78.5493 248.921 78.6765 247.872 78.7542C247.611 79.1244 247.326 79.476 247.019 79.8068C252.369 79.5627 256.181 78.1289 256.512 75.8857C256.829 73.7246 253.836 71.3517 249.097 69.5939C249.239 69.9855 249.357 70.3885 249.45 70.8011ZM231.65 67.0557C226.679 67.3907 223.189 68.7947 222.874 70.9364C222.547 73.1593 225.724 75.6063 230.699 77.3775C230.502 76.9732 230.331 76.5536 230.189 76.1209C229.258 75.7591 228.407 75.3742 227.649 74.9742C226.264 74.2437 225.239 73.4891 224.601 72.7751C223.958 72.0556 223.803 71.4926 223.863 71.082C223.923 70.6714 224.234 70.177 225.057 69.6732C225.874 69.1732 227.073 68.7458 228.609 68.4452C229.335 68.3032 230.124 68.1918 230.966 68.1135C231.172 67.7459 231.401 67.3927 231.65 67.0557Z" fill="#8A8D95"/>
<path d="M249.692 73C249.692 78.5228 245.215 83 239.692 83C234.17 83 229.692 78.5228 229.692 73C229.692 67.4772 234.17 63 239.692 63C245.215 63 249.692 67.4772 249.692 73Z" fill="#424754"/>
<path d="M256.017 75.8126C255.926 76.4277 255.478 77.0307 254.589 77.5751C253.703 78.1175 252.44 78.5604 250.872 78.8673C247.739 79.4802 243.496 79.5295 238.892 78.8522C234.288 78.1748 230.239 76.9053 227.415 75.4161C226.002 74.6704 224.921 73.8827 224.228 73.108C223.533 72.3305 223.278 71.624 223.368 71.0089C223.459 70.3938 223.907 69.7908 224.796 69.2464C225.683 68.704 226.945 68.2611 228.513 67.9541C231.646 67.3412 235.89 67.292 240.493 67.9693C245.097 68.6467 249.146 69.9161 251.97 71.4054C253.383 72.1511 254.465 72.9388 255.157 73.7135C255.852 74.4909 256.107 75.1975 256.017 75.8126Z" stroke="#8A8D95"/>
<path d="M246.692 79C246.692 80.1046 245.797 81 244.692 81C243.588 81 242.692 80.1046 242.692 79C242.692 77.8954 243.588 77 244.692 77C245.797 77 246.692 77.8954 246.692 79Z" fill="#F04B5D"/>
<mask id="mask1" mask-type="alpha" maskUnits="userSpaceOnUse" x="229" y="63" width="21" height="20">
<path d="M249.692 73C249.692 78.5228 245.215 83 239.692 83C234.17 83 229.692 78.5228 229.692 73C229.692 67.4772 234.17 63 239.692 63C245.215 63 249.692 67.4772 249.692 73Z" fill="#424754"/>
</mask>
<g mask="url(#mask1)">
<rect x="227.692" y="60" width="23" height="14" fill="#424754"/>
</g>
<path d="M328 69C328 70.1046 327.105 71 326 71C324.895 71 324 70.1046 324 69C324 67.8954 324.895 67 326 67C327.105 67 328 67.8954 328 69Z" fill="#424754"/>
<path d="M293 104C293 105.105 292.105 106 291 106C289.895 106 289 105.105 289 104C289 102.895 289.895 102 291 102C292.105 102 293 102.895 293 104Z" fill="#424754"/>
<path d="M319 146C319 147.105 318.105 148 317 148C315.895 148 315 147.105 315 146C315 144.895 315.895 144 317 144C318.105 144 319 144.895 319 146Z" fill="#424754"/>
<rect x="226" y="269" width="79" height="10" fill="#3F3D56"/>
<rect x="231" y="248" width="4" height="21" fill="#424754"/>
<rect x="296" y="248" width="4" height="21" fill="#424754"/>
<rect x="273" y="253" width="23" height="2" fill="#E0E0E0"/>
<rect x="235" y="253" width="23" height="2" fill="#E0E0E0"/>
<circle cx="265.5" cy="253.5" r="8" stroke="#F04B5D" stroke-width="3"/>
</g>
<path d="M571.674 195H573.456V183.84H579.9V195H581.682V182.292H571.674V195ZM583.94 190.428C583.94 193.2 586.136 195.216 588.854 195.216C591.554 195.216 593.75 193.2 593.75 190.428C593.75 187.674 591.554 185.676 588.836 185.676C586.136 185.676 583.94 187.674 583.94 190.428ZM585.722 190.428C585.722 188.538 587.126 187.188 588.854 187.188C590.564 187.188 591.986 188.538 591.986 190.428C591.986 192.336 590.564 193.704 588.854 193.704C587.126 193.704 585.722 192.336 585.722 190.428ZM595.476 195H597.168L597.564 189.582C597.6 189.042 597.546 188.016 597.546 188.016H597.582C597.582 188.016 597.87 188.7 598.158 189.366L600.318 193.902H601.812L603.972 189.348C604.314 188.646 604.548 188.016 604.548 188.016H604.584C604.584 188.016 604.548 189.042 604.566 189.582L604.962 195H606.654L605.862 185.892H603.954L601.578 191.04C601.344 191.598 601.074 192.264 601.074 192.264H601.038C601.038 192.264 600.786 191.58 600.534 191.04L598.212 185.892H596.268L595.476 195ZM608.408 190.428C608.408 193.2 610.604 195.216 613.322 195.216C616.022 195.216 618.218 193.2 618.218 190.428C618.218 187.674 616.022 185.676 613.304 185.676C610.604 185.676 608.408 187.674 608.408 190.428ZM610.19 190.428C610.19 188.538 611.594 187.188 613.322 187.188C615.032 187.188 616.454 188.538 616.454 190.428C616.454 192.336 615.032 193.704 613.322 193.704C611.594 193.704 610.19 192.336 610.19 190.428ZM618.997 195H620.941L623.335 191.112H624.631V195H626.287V191.112H627.601L629.977 195H631.939L629.005 190.32V190.284L631.669 185.892H629.833L627.583 189.618H626.287V185.892H624.631V189.618H623.335L621.103 185.892H619.249L621.931 190.284V190.32L618.997 195ZM632.701 190.446C632.701 193.146 634.681 195.216 637.543 195.216C638.803 195.216 640.189 194.73 641.071 193.92L640.333 192.642C639.613 193.29 638.623 193.704 637.651 193.704C636.013 193.704 634.609 192.642 634.519 190.68H641.143C641.179 190.428 641.215 190.176 641.215 189.942C641.215 187.602 639.847 185.676 637.273 185.676C634.681 185.676 632.701 187.548 632.701 190.446ZM634.573 189.42C634.825 187.908 635.887 187.026 637.237 187.026C638.425 187.026 639.397 187.854 639.451 189.42H634.573ZM642.937 195H644.629L645.025 189.582C645.061 189.042 645.007 188.016 645.007 188.016H645.043C645.043 188.016 645.331 188.7 645.619 189.366L647.779 193.902H649.273L651.433 189.348C651.775 188.646 652.009 188.016 652.009 188.016H652.045C652.045 188.016 652.009 189.042 652.027 189.582L652.423 195H654.115L653.323 185.892H651.415L649.039 191.04C648.805 191.598 648.535 192.264 648.535 192.264H648.499C648.499 192.264 648.247 191.58 647.995 191.04L645.673 185.892H643.729L642.937 195ZM660.963 195H662.709V187.386H667.173V195H668.919V185.892H660.963V195ZM671.022 190.428C671.022 193.2 673.218 195.216 675.936 195.216C678.636 195.216 680.832 193.2 680.832 190.428C680.832 187.674 678.636 185.676 675.918 185.676C673.218 185.676 671.022 187.674 671.022 190.428ZM672.804 190.428C672.804 188.538 674.208 187.188 675.936 187.188C677.646 187.188 679.068 188.538 679.068 190.428C679.068 192.336 677.646 193.704 675.936 193.704C674.208 193.704 672.804 192.336 672.804 190.428ZM682.936 195H684.682V191.094H689.29V195H691.036V185.892H689.29V189.6H684.682V185.892H682.936V195ZM692.811 195H694.737L696.969 191.706H698.499V195H700.245V185.892H696.609C694.683 185.892 693.351 186.882 693.351 188.754C693.351 190.14 694.287 191.112 695.331 191.4V191.418C695.331 191.418 695.115 191.652 694.917 191.976L692.811 195ZM696.987 190.428C695.925 190.428 695.115 189.87 695.115 188.736C695.115 187.566 695.871 187.098 697.041 187.098H698.499V190.428H696.987ZM705.136 195H706.864V187.386H710.05V185.892H701.968V187.386H705.136V195ZM711.764 195H715.31C717.614 195 718.658 193.83 718.658 192.12C718.658 190.05 717.236 189.186 715.346 189.186H713.51V185.892H711.764V195ZM713.51 193.74V190.446H715.076C716.336 190.446 716.876 191.13 716.876 192.102C716.876 193.056 716.336 193.74 715.076 193.74H713.51ZM724.442 190.428C724.442 193.2 726.638 195.216 729.356 195.216C732.056 195.216 734.252 193.2 734.252 190.428C734.252 187.674 732.056 185.676 729.338 185.676C726.638 185.676 724.442 187.674 724.442 190.428ZM726.224 190.428C726.224 188.538 727.628 187.188 729.356 187.188C731.066 187.188 732.488 188.538 732.488 190.428C732.488 192.336 731.066 193.704 729.356 193.704C727.628 193.704 726.224 192.336 726.224 190.428ZM735.762 190.446C735.762 193.182 737.76 195.216 740.64 195.216C742.062 195.216 743.448 194.64 744.276 193.758L743.574 192.48C742.872 193.218 741.774 193.704 740.766 193.704C738.876 193.704 737.544 192.282 737.544 190.428C737.544 188.574 738.876 187.188 740.712 187.188C741.666 187.188 742.62 187.62 743.232 188.232L744.06 187.008C743.196 186.09 741.846 185.676 740.64 185.676C737.778 185.676 735.762 187.746 735.762 190.446ZM746.164 195H747.91V191.094H752.518V195H754.264V185.892H752.518V189.6H747.91V185.892H746.164V195ZM756.363 190.428C756.363 193.2 758.559 195.216 761.277 195.216C763.977 195.216 766.173 193.2 766.173 190.428C766.173 187.674 763.977 185.676 761.259 185.676C758.559 185.676 756.363 187.674 756.363 190.428ZM758.145 190.428C758.145 188.538 759.549 187.188 761.277 187.188C762.987 187.188 764.409 188.538 764.409 190.428C764.409 192.336 762.987 193.704 761.277 193.704C759.549 193.704 758.145 192.336 758.145 190.428ZM768.278 195H772.166C774.146 195 775.514 194.1 775.514 192.408C775.514 191.4 774.92 190.518 773.786 190.248V190.23C774.614 189.87 775.082 189.114 775.082 188.232C775.082 186.702 773.876 185.892 772.04 185.892H768.278V195ZM770.024 189.744V187.098H771.68C772.778 187.098 773.3 187.53 773.3 188.358C773.3 189.204 772.778 189.744 771.734 189.744H770.024ZM770.024 193.776V190.914H771.878C773.084 190.914 773.75 191.454 773.75 192.354C773.75 193.2 773.156 193.776 771.896 193.776H770.024ZM785.873 195H787.619V185.892H785.873V195ZM777.629 195H781.139C783.425 195 784.469 193.83 784.469 192.12C784.469 190.05 783.047 189.186 781.157 189.186H779.375V185.892H777.629V195ZM779.375 193.74V190.446H780.887C782.147 190.446 782.705 191.13 782.705 192.102C782.705 193.056 782.165 193.74 780.905 193.74H779.375ZM570.774 218.428C570.774 221.236 572.88 223.09 575.706 223.216V226.6H577.38V223.216C580.206 223.09 582.294 221.236 582.294 218.428C582.294 215.638 580.206 213.802 577.38 213.694V210.4H575.706V213.694C572.88 213.802 570.774 215.638 570.774 218.428ZM577.38 221.758V215.134C579.234 215.242 580.584 216.448 580.584 218.428C580.584 220.39 579.234 221.632 577.38 221.758ZM572.502 218.428C572.502 216.448 573.834 215.242 575.706 215.134V221.758C573.834 221.632 572.502 220.39 572.502 218.428ZM584.411 223H586.085L590.027 217.564C590.315 217.132 590.765 216.52 590.819 216.358H590.855C590.855 216.502 590.801 217.132 590.801 217.564V223H592.493V213.892H590.801L586.877 219.328C586.571 219.76 586.139 220.39 586.067 220.552H586.031C586.049 220.462 586.085 219.814 586.085 219.328V213.892H584.411V223ZM594.286 221.884C595.042 222.604 596.23 223.216 597.634 223.216C599.506 223.216 601.126 222.262 601.126 220.39C601.126 219.22 600.406 218.536 599.488 218.248V218.212C600.208 217.906 600.82 217.276 600.82 216.142C600.82 214.522 599.47 213.676 597.742 213.676C596.302 213.676 595.276 214.144 594.574 214.666L595.222 215.836C595.924 215.314 596.644 215.044 597.436 215.044C598.444 215.044 599.056 215.512 599.056 216.358C599.056 217.276 598.354 217.672 597.328 217.672H596.374V218.932H597.49C598.768 218.932 599.362 219.436 599.362 220.318C599.362 221.308 598.516 221.812 597.472 221.812C596.374 221.812 595.51 221.164 595.096 220.732L594.286 221.884ZM603.237 223H604.911L608.853 217.564C609.141 217.132 609.591 216.52 609.645 216.358H609.681C609.681 216.502 609.627 217.132 609.627 217.564V223H611.319V213.892H609.627L605.703 219.328C605.397 219.76 604.965 220.39 604.893 220.552H604.857C604.875 220.462 604.911 219.814 604.911 219.328V213.892H603.237V223ZM613.995 223H615.741V219.058H617.055L619.773 223H621.843L618.441 218.266V218.23L621.483 213.892H619.503L617.019 217.564H615.741V213.892H613.995V223ZM623.399 223H625.073L629.015 217.564C629.303 217.132 629.753 216.52 629.807 216.358H629.843C629.843 216.502 629.789 217.132 629.789 217.564V223H631.481V213.892H629.789L625.865 219.328C625.559 219.76 625.127 220.39 625.055 220.552H625.019C625.037 220.462 625.073 219.814 625.073 219.328V213.892H623.399V223ZM637.667 223.09C640.349 222.946 641.393 220.822 641.393 216.7V215.332H644.075V223H645.821V213.892H639.719V216.7C639.719 219.994 638.999 221.326 637.667 221.524V223.09ZM647.924 218.446C647.924 221.146 649.904 223.216 652.766 223.216C654.026 223.216 655.412 222.73 656.294 221.92L655.556 220.642C654.836 221.29 653.846 221.704 652.874 221.704C651.236 221.704 649.832 220.642 649.742 218.68H656.366C656.402 218.428 656.438 218.176 656.438 217.942C656.438 215.602 655.07 213.676 652.496 213.676C649.904 213.676 647.924 215.548 647.924 218.446ZM649.796 217.42C650.048 215.908 651.11 215.026 652.46 215.026C653.648 215.026 654.62 215.854 654.674 217.42H649.796ZM658.538 223H660.284V215.386H664.244V213.892H658.538V223ZM665.973 223H667.719V219.058H669.033L671.751 223H673.821L670.419 218.266V218.23L673.461 213.892H671.481L668.997 217.564H667.719V213.892H665.973V223ZM674.397 218.428C674.397 221.2 676.593 223.216 679.311 223.216C682.011 223.216 684.207 221.2 684.207 218.428C684.207 215.674 682.011 213.676 679.293 213.676C676.593 213.676 674.397 215.674 674.397 218.428ZM676.179 218.428C676.179 216.538 677.583 215.188 679.311 215.188C681.021 215.188 682.443 216.538 682.443 218.428C682.443 220.336 681.021 221.704 679.311 221.704C677.583 221.704 676.179 220.336 676.179 218.428ZM690.811 223H692.485L696.427 217.564C696.715 217.132 697.165 216.52 697.219 216.358H697.255C697.255 216.502 697.201 217.132 697.201 217.564V223H698.893V213.892H697.201L693.277 219.328C692.971 219.76 692.539 220.39 692.467 220.552H692.431C692.449 220.462 692.485 219.814 692.485 219.328V213.892H690.811V223ZM706.069 223H707.815V215.386H712.279V223H714.025V213.892H706.069V223ZM716.721 226.6H718.467V222.46C718.467 221.992 718.395 221.668 718.395 221.668H718.431C719.061 222.64 720.105 223.216 721.257 223.216C723.651 223.216 725.379 221.344 725.379 218.446C725.379 215.62 723.849 213.676 721.383 213.676C720.051 213.676 718.899 214.288 718.323 215.386H718.287C718.287 215.386 718.341 215.08 718.341 214.702V213.892H716.721V226.6ZM718.413 218.482C718.413 216.178 719.673 215.206 721.041 215.206C722.553 215.206 723.615 216.484 723.615 218.464C723.615 220.534 722.427 221.704 720.987 221.704C719.313 221.704 718.413 220.102 718.413 218.482ZM726.938 218.428C726.938 221.2 729.134 223.216 731.852 223.216C734.552 223.216 736.748 221.2 736.748 218.428C736.748 215.674 734.552 213.676 731.834 213.676C729.134 213.676 726.938 215.674 726.938 218.428ZM728.72 218.428C728.72 216.538 730.124 215.188 731.852 215.188C733.562 215.188 734.984 216.538 734.984 218.428C734.984 220.336 733.562 221.704 731.852 221.704C730.124 221.704 728.72 220.336 728.72 218.428ZM738.258 218.446C738.258 221.182 740.256 223.216 743.136 223.216C744.558 223.216 745.944 222.64 746.772 221.758L746.07 220.48C745.368 221.218 744.27 221.704 743.262 221.704C741.372 221.704 740.04 220.282 740.04 218.428C740.04 216.574 741.372 215.188 743.208 215.188C744.162 215.188 745.116 215.62 745.728 216.232L746.556 215.008C745.692 214.09 744.342 213.676 743.136 213.676C740.274 213.676 738.258 215.746 738.258 218.446ZM750.857 223H752.585V215.386H755.771V213.892H747.689V215.386H750.857V223ZM756.592 218.428C756.592 221.2 758.788 223.216 761.506 223.216C764.206 223.216 766.402 221.2 766.402 218.428C766.402 215.674 764.206 213.676 761.488 213.676C758.788 213.676 756.592 215.674 756.592 218.428ZM758.374 218.428C758.374 216.538 759.778 215.188 761.506 215.188C763.216 215.188 764.638 216.538 764.638 218.428C764.638 220.336 763.216 221.704 761.506 221.704C759.778 221.704 758.374 220.336 758.374 218.428Z" fill="#424754"/>
<defs>
<filter id="filter0_d" x="60" y="80.0488" width="86" height="85.9507" filterUnits="userSpaceOnUse" color-interpolation-filters="sRGB">
<feFlood flood-opacity="0" result="BackgroundImageFix"/>
<feColorMatrix in="SourceAlpha" type="matrix" values="0 0 0 0 0 0 0 0 0 0 0 0 0 0 0 0 0 0 127 0"/>
<feOffset dy="4"/>
<feGaussianBlur stdDeviation="10"/>
<feColorMatrix type="matrix" values="0 0 0 0 0 0 0 0 0 0 0 0 0 0 0 0 0 0 0.19 0"/>
<feBlend mode="normal" in2="BackgroundImageFix" result="effect1_dropShadow"/>
<feBlend mode="normal" in="SourceGraphic" in2="effect1_dropShadow" result="shape"/>
</filter>
<clipPath id="clip0">
<rect width="509" height="298" fill="white"/>
</clipPath>
</defs>
</svg>
