<svg width="1109" height="298" viewBox="0 0 1109 298" fill="none" xmlns="http://www.w3.org/2000/svg">
<path d="M600 4.40122C600 2.86065 600 2.09037 600.3 1.50195C600.563 0.984356 600.984 0.563541 601.501 0.299816C602.089 0 602.859 0 604.398 0H1104.6C1106.14 0 1106.91 0 1107.5 0.299816C1108.02 0.563541 1108.44 0.984356 1108.7 1.50195C1109 2.09037 1109 2.86066 1109 4.40123V293.599C1109 295.139 1109 295.91 1108.7 296.498C1108.44 297.016 1108.02 297.436 1107.5 297.7C1106.91 298 1106.14 298 1104.6 298H604.398C602.859 298 602.089 298 601.501 297.7C600.984 297.436 600.563 297.016 600.3 296.498C600 295.91 600 295.139 600 293.599V4.40122Z" fill="#F3F3F3"/>
<path d="M747 58.2049C747 57.0831 747 56.5222 747.189 56.0937C747.355 55.7168 747.62 55.4104 747.947 55.2183C748.317 55 748.803 55 749.774 55H1065.23C1066.2 55 1066.68 55 1067.05 55.2183C1067.38 55.4104 1067.64 55.7168 1067.81 56.0937C1068 56.5222 1068 57.0831 1068 58.2049V268.795C1068 269.917 1068 270.478 1067.81 270.906C1067.64 271.283 1067.38 271.59 1067.05 271.782C1066.68 272 1066.2 272 1065.23 272H749.774C748.803 272 748.317 272 747.947 271.782C747.62 271.59 747.355 271.283 747.189 270.906C747 270.478 747 269.917 747 268.795V58.2049Z" fill="white"/>
<path d="M760 216.321C760 216.208 760 216.152 760.023 216.109C760.042 216.072 760.074 216.041 760.113 216.022C760.157 216 760.215 216 760.331 216H784.669C784.785 216 784.843 216 784.887 216.022C784.926 216.041 784.958 216.072 784.977 216.109C785 216.152 785 216.208 785 216.321V229.679C785 229.792 785 229.848 784.977 229.891C784.958 229.928 784.926 229.959 784.887 229.978C784.843 230 784.785 230 784.669 230H760.331C760.215 230 760.157 230 760.113 229.978C760.074 229.959 760.042 229.928 760.023 229.891C760 229.848 760 229.792 760 229.679V216.321Z" fill="#F3F3F3"/>
<path d="M790 202.642C790 202.417 790 202.305 790.023 202.219C790.042 202.143 790.074 202.082 790.113 202.044C790.157 202 790.215 202 790.331 202H814.669C814.785 202 814.843 202 814.887 202.044C814.926 202.082 814.958 202.143 814.977 202.219C815 202.305 815 202.417 815 202.642V229.358C815 229.583 815 229.695 814.977 229.781C814.958 229.857 814.926 229.918 814.887 229.956C814.843 230 814.785 230 814.669 230H790.331C790.215 230 790.157 230 790.113 229.956C790.074 229.918 790.042 229.857 790.023 229.781C790 229.695 790 229.583 790 229.358V202.642Z" fill="#F3F3F3"/>
<path d="M850 175.283C850 174.834 850 174.609 850.023 174.438C850.042 174.287 850.074 174.164 850.113 174.087C850.157 174 850.215 174 850.331 174H874.669C874.785 174 874.843 174 874.887 174.087C874.926 174.164 874.958 174.287 874.977 174.438C875 174.609 875 174.834 875 175.283V228.717C875 229.166 875 229.391 874.977 229.562C874.958 229.713 874.926 229.836 874.887 229.913C874.843 230 874.785 230 874.669 230H850.331C850.215 230 850.157 230 850.113 229.913C850.074 229.836 850.042 229.713 850.023 229.562C850 229.391 850 229.166 850 228.717V175.283Z" fill="#F3F3F3"/>
<path d="M820 188.962C820 188.625 820 188.457 820.023 188.328C820.042 188.215 820.074 188.123 820.113 188.066C820.157 188 820.215 188 820.331 188H844.669C844.785 188 844.843 188 844.887 188.066C844.926 188.123 844.958 188.215 844.977 188.328C845 188.457 845 188.625 845 188.962V229.038C845 229.375 845 229.543 844.977 229.672C844.958 229.785 844.926 229.877 844.887 229.934C844.843 230 844.785 230 844.669 230H820.331C820.215 230 820.157 230 820.113 229.934C820.074 229.877 820.042 229.785 820.023 229.672C820 229.543 820 229.375 820 229.038V188.962Z" fill="#F3F3F3"/>
<path d="M880 161.604C880 161.042 880 160.762 880.023 160.547C880.042 160.359 880.074 160.205 880.113 160.109C880.157 160 880.215 160 880.331 160H904.669C904.785 160 904.843 160 904.887 160.109C904.926 160.205 904.958 160.359 904.977 160.547C905 160.762 905 161.042 905 161.604V228.396C905 228.958 905 229.238 904.977 229.453C904.958 229.641 904.926 229.795 904.887 229.891C904.843 230 904.785 230 904.669 230H880.331C880.215 230 880.157 230 880.113 229.891C880.074 229.795 880.042 229.641 880.023 229.453C880 229.238 880 228.958 880 228.396V161.604Z" fill="#F3F3F3"/>
<path d="M910 147.925C910 147.251 910 146.914 910.023 146.657C910.042 146.43 910.074 146.246 910.113 146.131C910.157 146 910.215 146 910.331 146H934.669C934.785 146 934.843 146 934.887 146.131C934.926 146.246 934.958 146.43 934.977 146.657C935 146.914 935 147.251 935 147.925V228.075C935 228.749 935 229.086 934.977 229.343C934.958 229.57 934.926 229.754 934.887 229.869C934.843 230 934.785 230 934.669 230H910.331C910.215 230 910.157 230 910.113 229.869C910.074 229.754 910.042 229.57 910.023 229.343C910 229.086 910 228.749 910 228.075V147.925Z" fill="#F3F3F3"/>
<path d="M940 134.245C940 133.459 940 133.066 940.023 132.766C940.042 132.502 940.074 132.287 940.113 132.153C940.157 132 940.215 132 940.331 132H964.669C964.785 132 964.843 132 964.887 132.153C964.926 132.287 964.958 132.502 964.977 132.766C965 133.066 965 133.459 965 134.245V227.755C965 228.541 965 228.934 964.977 229.234C964.958 229.498 964.926 229.713 964.887 229.847C964.843 230 964.785 230 964.669 230H940.331C940.215 230 940.157 230 940.113 229.847C940.074 229.713 940.042 229.498 940.023 229.234C940 228.934 940 228.541 940 227.755V134.245Z" fill="#F3F3F3"/>
<path d="M970 120.566C970 119.668 970 119.219 970.023 118.876C970.042 118.574 970.074 118.329 970.113 118.175C970.157 118 970.215 118 970.331 118H994.669C994.785 118 994.843 118 994.887 118.175C994.926 118.329 994.958 118.574 994.977 118.876C995 119.219 995 119.668 995 120.566V227.434C995 228.332 995 228.781 994.977 229.124C994.958 229.426 994.926 229.671 994.887 229.825C994.843 230 994.785 230 994.669 230H970.331C970.215 230 970.157 230 970.113 229.825C970.074 229.671 970.042 229.426 970.023 229.124C970 228.781 970 228.332 970 227.434V120.566Z" fill="#F3F3F3"/>
<path d="M1000 106.887C1000 105.876 1000 105.371 1000.02 104.985C1000.04 104.646 1000.07 104.37 1000.11 104.197C1000.16 104 1000.22 104 1000.33 104H1024.67C1024.78 104 1024.84 104 1024.89 104.197C1024.93 104.37 1024.96 104.646 1024.98 104.985C1025 105.371 1025 105.876 1025 106.887V227.113C1025 228.124 1025 228.629 1024.98 229.015C1024.96 229.354 1024.93 229.63 1024.89 229.803C1024.84 230 1024.78 230 1024.67 230H1000.33C1000.22 230 1000.16 230 1000.11 229.803C1000.07 229.63 1000.04 229.354 1000.02 229.015C1000 228.629 1000 228.124 1000 227.113V106.887Z" fill="#F3F3F3"/>
<path d="M1030 93.2076C1030 92.0849 1030 91.5235 1030.02 91.0946C1030.04 90.7174 1030.07 90.4107 1030.11 90.2185C1030.16 90 1030.22 90 1030.33 90H1054.67C1054.78 90 1054.84 90 1054.89 90.2185C1054.93 90.4107 1054.96 90.7174 1054.98 91.0946C1055 91.5235 1055 92.0849 1055 93.2076V226.792C1055 227.915 1055 228.477 1054.98 228.905C1054.96 229.283 1054.93 229.589 1054.89 229.781C1054.84 230 1054.78 230 1054.67 230H1030.33C1030.22 230 1030.16 230 1030.11 229.781C1030.07 229.589 1030.04 229.283 1030.02 228.905C1030 228.477 1030 227.915 1030 226.792V93.2076Z" fill="#F04B5D"/>
<path d="M1038 79.5L1040.67 82L1046 77" stroke="#222224" stroke-width="2"/>
<path d="M747 21.8444C747 20.8488 747 20.351 747.101 19.9707C747.19 19.6362 747.332 19.3642 747.507 19.1938C747.705 19 747.965 19 748.485 19H774.515C775.035 19 775.295 19 775.493 19.1938C775.668 19.3642 775.81 19.6362 775.899 19.9707C776 20.351 776 20.8488 776 21.8444V24.1556C776 25.1512 776 25.649 775.899 26.0293C775.81 26.3638 775.668 26.6358 775.493 26.8062C775.295 27 775.035 27 774.515 27H748.485C747.965 27 747.705 27 747.507 26.8062C747.332 26.6358 747.19 26.3638 747.101 26.0293C747 25.649 747 25.1512 747 24.1556V21.8444Z" fill="#424754"/>
<path d="M770 238.873C770 238.567 770 238.415 770.01 238.298C770.02 238.195 770.034 238.112 770.052 238.059C770.073 238 770.1 238 770.154 238H775.846C775.9 238 775.927 238 775.948 238.059C775.966 238.112 775.98 238.195 775.99 238.298C776 238.415 776 238.567 776 238.873V240.127C776 240.433 776 240.585 775.99 240.702C775.98 240.805 775.966 240.888 775.948 240.941C775.927 241 775.9 241 775.846 241H770.154C770.1 241 770.073 241 770.052 240.941C770.034 240.888 770.02 240.805 770.01 240.702C770 240.585 770 240.433 770 240.127V238.873Z" fill="#424754"/>
<path d="M800 238.873C800 238.567 800 238.415 800.01 238.298C800.02 238.195 800.034 238.112 800.052 238.059C800.073 238 800.1 238 800.154 238H805.846C805.9 238 805.927 238 805.948 238.059C805.966 238.112 805.98 238.195 805.99 238.298C806 238.415 806 238.567 806 238.873V240.127C806 240.433 806 240.585 805.99 240.702C805.98 240.805 805.966 240.888 805.948 240.941C805.927 241 805.9 241 805.846 241H800.154C800.1 241 800.073 241 800.052 240.941C800.034 240.888 800.02 240.805 800.01 240.702C800 240.585 800 240.433 800 240.127V238.873Z" fill="#424754"/>
<path d="M830 238.873C830 238.567 830 238.415 830.01 238.298C830.02 238.195 830.034 238.112 830.052 238.059C830.073 238 830.1 238 830.154 238H835.846C835.9 238 835.927 238 835.948 238.059C835.966 238.112 835.98 238.195 835.99 238.298C836 238.415 836 238.567 836 238.873V240.127C836 240.433 836 240.585 835.99 240.702C835.98 240.805 835.966 240.888 835.948 240.941C835.927 241 835.9 241 835.846 241H830.154C830.1 241 830.073 241 830.052 240.941C830.034 240.888 830.02 240.805 830.01 240.702C830 240.585 830 240.433 830 240.127V238.873Z" fill="#424754"/>
<path d="M860 238.873C860 238.567 860 238.415 860.01 238.298C860.02 238.195 860.034 238.112 860.052 238.059C860.073 238 860.1 238 860.154 238H865.846C865.9 238 865.927 238 865.948 238.059C865.966 238.112 865.98 238.195 865.99 238.298C866 238.415 866 238.567 866 238.873V240.127C866 240.433 866 240.585 865.99 240.702C865.98 240.805 865.966 240.888 865.948 240.941C865.927 241 865.9 241 865.846 241H860.154C860.1 241 860.073 241 860.052 240.941C860.034 240.888 860.02 240.805 860.01 240.702C860 240.585 860 240.433 860 240.127V238.873Z" fill="#424754"/>
<path d="M890 238.873C890 238.567 890 238.415 890.01 238.298C890.02 238.195 890.034 238.112 890.052 238.059C890.073 238 890.1 238 890.154 238H895.846C895.9 238 895.927 238 895.948 238.059C895.966 238.112 895.98 238.195 895.99 238.298C896 238.415 896 238.567 896 238.873V240.127C896 240.433 896 240.585 895.99 240.702C895.98 240.805 895.966 240.888 895.948 240.941C895.927 241 895.9 241 895.846 241H890.154C890.1 241 890.073 241 890.052 240.941C890.034 240.888 890.02 240.805 890.01 240.702C890 240.585 890 240.433 890 240.127V238.873Z" fill="#424754"/>
<path d="M920 238.873C920 238.567 920 238.415 920.01 238.298C920.02 238.195 920.034 238.112 920.052 238.059C920.073 238 920.1 238 920.154 238H925.846C925.9 238 925.927 238 925.948 238.059C925.966 238.112 925.98 238.195 925.99 238.298C926 238.415 926 238.567 926 238.873V240.127C926 240.433 926 240.585 925.99 240.702C925.98 240.805 925.966 240.888 925.948 240.941C925.927 241 925.9 241 925.846 241H920.154C920.1 241 920.073 241 920.052 240.941C920.034 240.888 920.02 240.805 920.01 240.702C920 240.585 920 240.433 920 240.127V238.873Z" fill="#424754"/>
<path d="M950 238.873C950 238.567 950 238.415 950.01 238.298C950.02 238.195 950.034 238.112 950.052 238.059C950.073 238 950.1 238 950.154 238H955.846C955.9 238 955.927 238 955.948 238.059C955.966 238.112 955.98 238.195 955.99 238.298C956 238.415 956 238.567 956 238.873V240.127C956 240.433 956 240.585 955.99 240.702C955.98 240.805 955.966 240.888 955.948 240.941C955.927 241 955.9 241 955.846 241H950.154C950.1 241 950.073 241 950.052 240.941C950.034 240.888 950.02 240.805 950.01 240.702C950 240.585 950 240.433 950 240.127V238.873Z" fill="#424754"/>
<path d="M980 238.873C980 238.567 980 238.415 980.01 238.298C980.02 238.195 980.034 238.112 980.052 238.059C980.073 238 980.1 238 980.154 238H985.846C985.9 238 985.927 238 985.948 238.059C985.966 238.112 985.98 238.195 985.99 238.298C986 238.415 986 238.567 986 238.873V240.127C986 240.433 986 240.585 985.99 240.702C985.98 240.805 985.966 240.888 985.948 240.941C985.927 241 985.9 241 985.846 241H980.154C980.1 241 980.073 241 980.052 240.941C980.034 240.888 980.02 240.805 980.01 240.702C980 240.585 980 240.433 980 240.127V238.873Z" fill="#424754"/>
<path d="M1010 238.873C1010 238.567 1010 238.415 1010.01 238.298C1010.02 238.195 1010.03 238.112 1010.05 238.059C1010.07 238 1010.1 238 1010.15 238H1015.85C1015.9 238 1015.93 238 1015.95 238.059C1015.97 238.112 1015.98 238.195 1015.99 238.298C1016 238.415 1016 238.567 1016 238.873V240.127C1016 240.433 1016 240.585 1015.99 240.702C1015.98 240.805 1015.97 240.888 1015.95 240.941C1015.93 241 1015.9 241 1015.85 241H1010.15C1010.1 241 1010.07 241 1010.05 240.941C1010.03 240.888 1010.02 240.805 1010.01 240.702C1010 240.585 1010 240.433 1010 240.127V238.873Z" fill="#424754"/>
<path d="M1040 238.873C1040 238.567 1040 238.415 1040.01 238.298C1040.02 238.195 1040.03 238.112 1040.05 238.059C1040.07 238 1040.1 238 1040.15 238H1045.85C1045.9 238 1045.93 238 1045.95 238.059C1045.97 238.112 1045.98 238.195 1045.99 238.298C1046 238.415 1046 238.567 1046 238.873V240.127C1046 240.433 1046 240.585 1045.99 240.702C1045.98 240.805 1045.97 240.888 1045.95 240.941C1045.93 241 1045.9 241 1045.85 241H1040.15C1040.1 241 1040.07 241 1040.05 240.941C1040.03 240.888 1040.02 240.805 1040.01 240.702C1040 240.585 1040 240.433 1040 240.127V238.873Z" fill="#424754"/>
<path d="M760 256.455C760 255.945 760 255.691 760.1 255.496C760.187 255.325 760.327 255.186 760.5 255.099C760.695 255 760.951 255 761.464 255H989.536C990.049 255 990.305 255 990.5 255.099C990.673 255.186 990.813 255.325 990.9 255.496C991 255.691 991 255.945 991 256.455V258.545C991 259.055 991 259.309 990.9 259.504C990.813 259.675 990.673 259.814 990.5 259.901C990.305 260 990.049 260 989.536 260H761.464C760.951 260 760.695 260 760.5 259.901C760.327 259.814 760.187 259.675 760.1 259.504C760 259.309 760 259.055 760 258.545V256.455Z" fill="#97999D"/>
<path d="M600 4.40122C600 2.86065 600 2.09037 600.299 1.50195C600.562 0.984356 600.981 0.563541 601.497 0.299816C602.084 0 602.852 0 604.388 0H712.612C714.148 0 714.916 0 715.503 0.299816C716.019 0.563541 716.438 0.984356 716.701 1.50195C717 2.09037 717 2.86066 717 4.40123V293.599C717 295.139 717 295.91 716.701 296.498C716.438 297.016 716.019 297.436 715.503 297.7C714.916 298 714.148 298 712.612 298H604.388C602.852 298 602.084 298 601.497 297.7C600.981 297.436 600.562 297.016 600.299 296.498C600 295.91 600 295.139 600 293.599V4.40122Z" fill="#FFEAEC"/>
<path d="M600 60.4979C600 59.9736 600 59.7114 600.1 59.5112C600.188 59.335 600.328 59.1918 600.501 59.102C600.697 59 600.954 59 601.468 59H715.532C716.046 59 716.303 59 716.499 59.102C716.672 59.1918 716.812 59.335 716.9 59.5112C717 59.7114 717 59.9736 717 60.4979V79.5021C717 80.0264 717 80.2886 716.9 80.4888C716.812 80.665 716.672 80.8082 716.499 80.898C716.303 81 716.046 81 715.532 81H601.468C600.954 81 600.697 81 600.501 80.898C600.328 80.8082 600.188 80.665 600.1 80.4888C600 80.2886 600 80.0264 600 79.5021V60.4979Z" fill="#FFEAEC"/>
<path d="M630 68.4545C630 67.9454 630 67.6908 630.099 67.4964C630.187 67.3253 630.326 67.1862 630.498 67.0991C630.693 67 630.948 67 631.459 67H685.541C686.052 67 686.307 67 686.502 67.0991C686.674 67.1862 686.813 67.3253 686.901 67.4964C687 67.6908 687 67.9454 687 68.4545V70.5455C687 71.0546 687 71.3092 686.901 71.5036C686.813 71.6747 686.674 71.8138 686.502 71.9009C686.307 72 686.052 72 685.541 72H631.459C630.948 72 630.693 72 630.498 71.9009C630.326 71.8138 630.187 71.6747 630.099 71.5036C630 71.3092 630 71.0546 630 70.5455V68.4545Z" fill="#F04B5D"/>
<path d="M655 20.4545C655 19.9454 655 19.6908 655.099 19.4964C655.185 19.3253 655.324 19.1862 655.494 19.0991C655.688 19 655.941 19 656.448 19H696.552C697.059 19 697.312 19 697.506 19.0991C697.676 19.1862 697.815 19.3253 697.901 19.4964C698 19.6908 698 19.9454 698 20.4545V22.5455C698 23.0546 698 23.3092 697.901 23.5036C697.815 23.6747 697.676 23.8138 697.506 23.9009C697.312 24 697.059 24 696.552 24H656.448C655.941 24 655.688 24 655.494 23.9009C655.324 23.8138 655.185 23.6747 655.099 23.5036C655 23.3092 655 23.0546 655 22.5455V20.4545Z" fill="#424754"/>
<path d="M630 15.4452C630 14.9393 630 14.6864 630.102 14.4932C630.191 14.3232 630.334 14.185 630.51 14.0984C630.709 14 630.971 14 631.493 14H642.507C643.029 14 643.291 14 643.49 14.0984C643.666 14.185 643.809 14.3232 643.898 14.4932C644 14.6864 644 14.9393 644 15.4452V26.5548C644 27.0607 644 27.3136 643.898 27.5068C643.809 27.6768 643.666 27.815 643.49 27.9016C643.291 28 643.029 28 642.507 28H631.493C630.971 28 630.709 28 630.51 27.9016C630.334 27.815 630.191 27.6768 630.102 27.5068C630 27.3136 630 27.0607 630 26.5548V15.4452Z" fill="#424754"/>
<path d="M630 90.4545C630 89.9454 630 89.6908 630.099 89.4964C630.187 89.3253 630.326 89.1862 630.498 89.0991C630.693 89 630.948 89 631.459 89H685.541C686.052 89 686.307 89 686.502 89.0991C686.674 89.1862 686.813 89.3253 686.901 89.4964C687 89.6908 687 89.9454 687 90.4545V92.5455C687 93.0546 687 93.3092 686.901 93.5036C686.813 93.6747 686.674 93.8138 686.502 93.9009C686.307 94 686.052 94 685.541 94H631.459C630.948 94 630.693 94 630.498 93.9009C630.326 93.8138 630.187 93.6747 630.099 93.5036C630 93.3092 630 93.0546 630 92.5455V90.4545Z" fill="#424754"/>
<path d="M630 111.455C630 110.945 630 110.691 630.099 110.496C630.187 110.325 630.326 110.186 630.498 110.099C630.693 110 630.948 110 631.459 110H685.541C686.052 110 686.307 110 686.502 110.099C686.674 110.186 686.813 110.325 686.901 110.496C687 110.691 687 110.945 687 111.455V113.545C687 114.055 687 114.309 686.901 114.504C686.813 114.675 686.674 114.814 686.502 114.901C686.307 115 686.052 115 685.541 115H631.459C630.948 115 630.693 115 630.498 114.901C630.326 114.814 630.187 114.675 630.099 114.504C630 114.309 630 114.055 630 113.545V111.455Z" fill="#424754"/>
<path d="M630 133.455C630 132.945 630 132.691 630.099 132.496C630.187 132.325 630.326 132.186 630.498 132.099C630.693 132 630.948 132 631.459 132H685.541C686.052 132 686.307 132 686.502 132.099C686.674 132.186 686.813 132.325 686.901 132.496C687 132.691 687 132.945 687 133.455V135.545C687 136.055 687 136.309 686.901 136.504C686.813 136.675 686.674 136.814 686.502 136.901C686.307 137 686.052 137 685.541 137H631.459C630.948 137 630.693 137 630.498 136.901C630.326 136.814 630.187 136.675 630.099 136.504C630 136.309 630 136.055 630 135.545V133.455Z" fill="#424754"/>
<path d="M630 154.745C630 154.134 630 153.829 630.099 153.596C630.187 153.39 630.326 153.223 630.498 153.119C630.693 153 630.948 153 631.459 153H685.541C686.052 153 686.307 153 686.502 153.119C686.674 153.223 686.813 153.39 686.901 153.596C687 153.829 687 154.134 687 154.745V157.255C687 157.866 687 158.171 686.901 158.404C686.813 158.61 686.674 158.777 686.502 158.881C686.307 159 686.052 159 685.541 159H631.459C630.948 159 630.693 159 630.498 158.881C630.326 158.777 630.187 158.61 630.099 158.404C630 158.171 630 157.866 630 157.255V154.745Z" fill="#424754"/>
<path d="M1.296 51.968C1.296 59.528 6.984 65.432 14.76 65.432C22.536 65.432 28.224 59.528 28.224 51.968C28.224 44.588 22.536 38.828 14.76 38.828C6.984 38.828 1.296 44.588 1.296 51.968ZM7.812 51.968C7.812 47.756 10.908 44.588 14.76 44.588C18.612 44.588 21.708 47.756 21.708 51.968C21.708 56.36 18.612 59.672 14.76 59.672C10.908 59.672 7.812 56.36 7.812 51.968ZM31.3732 65H37.6012V51.68H43.1092V65H49.3372V46.46H31.3732V65ZM53.5216 72.2H59.7496V65.252C59.7496 64.316 59.6776 63.668 59.6776 63.668H59.7496C61.0816 64.82 62.7376 65.432 64.4656 65.432C69.3976 65.432 73.1056 61.616 73.1056 55.748C73.1056 49.988 69.7936 46.028 64.7536 46.028C62.5216 46.028 60.3976 46.892 59.1376 48.584H59.0656C59.0656 48.584 59.1376 48.008 59.1376 47.396V46.46H53.5216V72.2ZM59.5696 55.856C59.5696 52.652 61.3336 51.284 63.2056 51.284C65.3656 51.284 66.8416 53.084 66.8416 55.856C66.8416 58.7 65.1496 60.284 63.2056 60.284C60.7576 60.284 59.5696 58.088 59.5696 55.856ZM75.2588 55.712C75.2588 60.644 78.8228 65.432 85.4468 65.432C88.2908 65.432 91.3508 64.46 93.3668 62.732L91.0628 58.376C89.5508 59.384 87.7868 60.248 85.9508 60.248C83.9708 60.248 82.0988 59.204 81.6308 56.936H93.3308C93.4028 56.288 93.4748 55.64 93.4748 54.992C93.4748 49.844 90.3788 46.028 84.9068 46.028C78.9308 46.028 75.2588 50.276 75.2588 55.712ZM81.7748 53.372C82.0988 51.896 82.9628 50.6 84.7628 50.6C86.3468 50.6 87.3188 51.86 87.3188 53.372H81.7748ZM103.428 60.068C104.724 57.584 105.084 54.884 105.084 52.076V51.392H108.288V60.068H103.428ZM95.004 60.068V69.32H100.764V65H111.636V69.32H117.18V60.068H114.516V46.46H99.216V50.924C99.216 54.668 98.532 57.98 97.308 60.068H95.004ZM118.782 55.712C118.782 60.644 122.346 65.432 128.97 65.432C131.814 65.432 134.874 64.46 136.89 62.732L134.586 58.376C133.074 59.384 131.31 60.248 129.474 60.248C127.494 60.248 125.622 59.204 125.154 56.936H136.854C136.926 56.288 136.998 55.64 136.998 54.992C136.998 49.844 133.902 46.028 128.43 46.028C122.454 46.028 118.782 50.276 118.782 55.712ZM125.298 53.372C125.622 51.896 126.486 50.6 128.286 50.6C129.87 50.6 130.842 51.86 130.842 53.372H125.298ZM138.743 65.18C145.943 65.18 148.103 59.996 148.103 52.436V51.392H151.199V65H157.427V46.46H142.235V52.4C142.235 58.772 140.399 59.528 138.743 59.744V65.18ZM161.592 65H167.64L172.788 56.864C173.076 56.36 173.472 55.784 173.796 55.028H173.868C173.796 55.748 173.796 56.468 173.796 56.9V65H179.664V46.46H173.616L168.468 54.632C168.144 55.172 167.784 55.712 167.46 56.468H167.388C167.424 56 167.46 55.28 167.46 54.632V46.46H161.592V65ZM183.054 65H188.994L189.426 56.468C189.498 55.028 189.39 53.3 189.39 53.3H189.462C189.462 53.3 190.146 54.848 190.542 56.036L192.99 62.516H198.03L200.478 56.036C200.946 54.884 201.486 53.3 201.486 53.3H201.558C201.558 53.3 201.486 55.028 201.522 56.468L201.954 65H207.93L206.166 46.46H199.002L196.266 54.596C195.942 55.532 195.51 56.756 195.51 56.756H195.474C195.474 56.756 195.078 55.532 194.754 54.596L192.018 46.46H184.818L183.054 65ZM220.483 66.692L218.503 71.264C218.503 71.264 220.375 72.56 222.823 72.56C225.775 72.56 229.015 71.12 230.563 66.98L238.159 46.46H231.355L229.015 55.1C228.763 56.108 228.403 57.872 228.403 57.872H228.331C228.331 57.872 227.971 56 227.647 54.992L224.911 46.46H217.855L225.739 64.64L225.379 65.504C224.731 67.088 223.399 67.376 222.391 67.376C221.491 67.376 220.483 66.692 220.483 66.692ZM240.483 72.2H246.711V65.252C246.711 64.316 246.639 63.668 246.639 63.668H246.711C248.043 64.82 249.699 65.432 251.427 65.432C256.359 65.432 260.067 61.616 260.067 55.748C260.067 49.988 256.755 46.028 251.715 46.028C249.483 46.028 247.359 46.892 246.099 48.584H246.027C246.027 48.584 246.099 48.008 246.099 47.396V46.46H240.483V72.2ZM246.531 55.856C246.531 52.652 248.295 51.284 250.167 51.284C252.327 51.284 253.803 53.084 253.803 55.856C253.803 58.7 252.111 60.284 250.167 60.284C247.719 60.284 246.531 58.088 246.531 55.856ZM262.22 55.784C262.22 61.58 266.9 65.432 272.732 65.432C278.564 65.432 283.244 61.58 283.244 55.784C283.244 49.952 278.564 46.028 272.696 46.028C266.9 46.028 262.22 49.952 262.22 55.784ZM268.52 55.784C268.52 52.976 270.464 51.212 272.732 51.212C275 51.212 276.944 52.976 276.944 55.784C276.944 58.556 275 60.248 272.732 60.248C270.464 60.248 268.52 58.556 268.52 55.784ZM286.361 65H296.477C300.149 65 303.533 63.56 303.533 59.492C303.533 57.872 302.741 56.036 300.617 55.388V55.352C302.021 54.524 302.777 52.868 302.777 51.32C302.777 48.116 300.185 46.46 296.477 46.46H286.361V65ZM292.589 53.768V50.312H294.857C296.081 50.312 296.585 51.068 296.585 51.932C296.585 52.904 296.081 53.768 294.929 53.768H292.589ZM292.589 61.112V57.404H295.361C296.693 57.404 297.305 58.268 297.305 59.276C297.305 60.212 296.657 61.112 295.325 61.112H292.589ZM305.708 55.712C305.708 60.644 309.272 65.432 315.896 65.432C318.74 65.432 321.8 64.46 323.816 62.732L321.512 58.376C320 59.384 318.236 60.248 316.4 60.248C314.42 60.248 312.548 59.204 312.08 56.936H323.78C323.852 56.288 323.924 55.64 323.924 54.992C323.924 49.844 320.828 46.028 315.356 46.028C309.38 46.028 305.708 50.276 305.708 55.712ZM312.224 53.372C312.548 51.896 313.412 50.6 315.212 50.6C316.796 50.6 317.768 51.86 317.768 53.372H312.224ZM327.178 65H333.406V58.232H339.13V65H345.358V46.46H339.13V53.012H333.406V46.46H327.178V65ZM349.537 65H358.789C363.973 65 366.133 62.444 366.133 58.664C366.133 54.92 363.973 52.256 358.789 52.256H355.765V46.46H349.537V65ZM355.765 60.932V56.288H357.529C359.113 56.288 359.905 57.332 359.905 58.628C359.905 59.924 359.113 60.932 357.637 60.932H355.765ZM367.181 68.996H371.753L375.821 59.024H369.881L367.181 68.996ZM2.088 107H8.316V93.68H13.824V107H20.052V88.46H2.088V107ZM23.1924 97.784C23.1924 103.58 27.8724 107.432 33.7044 107.432C39.5364 107.432 44.2164 103.58 44.2164 97.784C44.2164 91.952 39.5364 88.028 33.6684 88.028C27.8724 88.028 23.1924 91.952 23.1924 97.784ZM29.4924 97.784C29.4924 94.976 31.4364 93.212 33.7044 93.212C35.9724 93.212 37.9164 94.976 37.9164 97.784C37.9164 100.556 35.9724 102.248 33.7044 102.248C31.4364 102.248 29.4924 100.556 29.4924 97.784ZM53.8225 102.068C55.1185 99.584 55.4785 96.884 55.4785 94.076V93.392H58.6825V102.068H53.8225ZM45.3985 102.068V111.32H51.1585V107H62.0305V111.32H67.5745V102.068H64.9105V88.46H49.6105V92.924C49.6105 96.668 48.9265 99.98 47.7025 102.068H45.3985ZM69.3577 95.912C69.3577 102.716 72.7057 107.432 79.4017 107.432C85.2697 107.432 88.9777 103.544 88.9777 98.432C88.9777 93.464 85.9537 89.936 80.9857 89.936C79.3657 89.936 77.1337 90.368 75.5497 91.7H75.4777C75.5857 89.036 78.1057 88.028 80.4817 87.236L87.4657 85.004L85.7017 80L79.6897 82.016C72.4537 84.5 69.3577 88.352 69.3577 95.912ZM75.5497 98.54C75.5497 96.128 77.2057 94.616 79.1497 94.616C81.0937 94.616 82.7497 96.128 82.7497 98.54C82.7497 100.916 81.0937 102.356 79.1497 102.356C77.2057 102.356 75.5497 100.916 75.5497 98.54ZM91.1846 97.712C91.1846 102.644 94.7486 107.432 101.373 107.432C104.217 107.432 107.277 106.46 109.293 104.732L106.989 100.376C105.477 101.384 103.713 102.248 101.877 102.248C99.8966 102.248 98.0246 101.204 97.5566 98.936H109.257C109.329 98.288 109.401 97.64 109.401 96.992C109.401 91.844 106.305 88.028 100.833 88.028C94.8566 88.028 91.1846 92.276 91.1846 97.712ZM97.7006 95.372C98.0246 93.896 98.8886 92.6 100.689 92.6C102.273 92.6 103.245 93.86 103.245 95.372H97.7006ZM112.654 114.2H118.882V107.252C118.882 106.316 118.81 105.668 118.81 105.668H118.882C120.214 106.82 121.87 107.432 123.598 107.432C128.53 107.432 132.238 103.616 132.238 97.748C132.238 91.988 128.926 88.028 123.886 88.028C121.654 88.028 119.53 88.892 118.27 90.584H118.198C118.198 90.584 118.27 90.008 118.27 89.396V88.46H112.654V114.2ZM118.702 97.856C118.702 94.652 120.466 93.284 122.338 93.284C124.498 93.284 125.974 95.084 125.974 97.856C125.974 100.7 124.282 102.284 122.338 102.284C119.89 102.284 118.702 100.088 118.702 97.856ZM134.392 97.712C134.392 102.644 137.956 107.432 144.58 107.432C147.424 107.432 150.484 106.46 152.5 104.732L150.196 100.376C148.684 101.384 146.92 102.248 145.084 102.248C143.104 102.248 141.232 101.204 140.764 98.936H152.464C152.536 98.288 152.608 97.64 152.608 96.992C152.608 91.844 149.512 88.028 144.04 88.028C138.064 88.028 134.392 92.276 134.392 97.712ZM140.908 95.372C141.232 93.896 142.096 92.6 143.896 92.6C145.48 92.6 146.452 93.86 146.452 95.372H140.908ZM155.069 107H161.009L161.441 98.468C161.513 97.028 161.405 95.3 161.405 95.3H161.477C161.477 95.3 162.161 96.848 162.557 98.036L165.005 104.516H170.045L172.493 98.036C172.961 96.884 173.501 95.3 173.501 95.3H173.573C173.573 95.3 173.501 97.028 173.537 98.468L173.969 107H179.945L178.181 88.46H171.017L168.281 96.596C167.957 97.532 167.525 98.756 167.525 98.756H167.489C167.489 98.756 167.093 97.532 166.769 96.596L164.033 88.46H156.833L155.069 107ZM192.318 107H198.546V93.68H204.054V107H210.282V88.46H192.318V107ZM214.467 114.2H220.695V107.252C220.695 106.316 220.623 105.668 220.623 105.668H220.695C222.027 106.82 223.683 107.432 225.411 107.432C230.343 107.432 234.051 103.616 234.051 97.748C234.051 91.988 230.739 88.028 225.699 88.028C223.467 88.028 221.343 88.892 220.083 90.584H220.011C220.011 90.584 220.083 90.008 220.083 89.396V88.46H214.467V114.2ZM220.515 97.856C220.515 94.652 222.279 93.284 224.151 93.284C226.311 93.284 227.787 95.084 227.787 97.856C227.787 100.7 226.095 102.284 224.151 102.284C221.703 102.284 220.515 100.088 220.515 97.856ZM236.204 97.712C236.204 102.644 239.768 107.432 246.392 107.432C249.236 107.432 252.296 106.46 254.312 104.732L252.008 100.376C250.496 101.384 248.732 102.248 246.896 102.248C244.916 102.248 243.044 101.204 242.576 98.936H254.276C254.348 98.288 254.42 97.64 254.42 96.992C254.42 91.844 251.324 88.028 245.852 88.028C239.876 88.028 236.204 92.276 236.204 97.712ZM242.72 95.372C243.044 93.896 243.908 92.6 245.708 92.6C247.292 92.6 248.264 93.86 248.264 95.372H242.72ZM257.674 107H263.902V93.68H269.41V107H275.638V88.46H257.674V107ZM278.778 97.784C278.778 103.58 283.458 107.432 289.29 107.432C295.122 107.432 299.802 103.58 299.802 97.784C299.802 91.952 295.122 88.028 289.254 88.028C283.458 88.028 278.778 91.952 278.778 97.784ZM285.078 97.784C285.078 94.976 287.022 93.212 289.29 93.212C291.558 93.212 293.502 94.976 293.502 97.784C293.502 100.556 291.558 102.248 289.29 102.248C287.022 102.248 285.078 100.556 285.078 97.784ZM309.408 102.068C310.704 99.584 311.064 96.884 311.064 94.076V93.392H314.268V102.068H309.408ZM300.984 102.068V111.32H306.744V107H317.616V111.32H323.16V102.068H320.496V88.46H305.196V92.924C305.196 96.668 304.512 99.98 303.288 102.068H300.984ZM324.686 101.78C324.686 104.984 327.17 107.432 330.734 107.432C332.858 107.432 335.018 106.46 336.242 104.732H336.314C336.314 104.732 336.242 105.272 336.242 105.884V107H341.93V95.588C341.93 90.872 338.762 88.028 333.65 88.028C330.626 88.028 327.386 89.216 325.802 90.44L327.962 94.832C329.438 93.86 331.274 93.068 333.074 93.068C334.442 93.068 335.702 93.572 335.702 95.12V95.444H335.162C330.59 95.444 324.686 96.812 324.686 101.78ZM330.842 101.204C330.842 99.512 333.29 99.008 335.198 99.008H335.774V99.512C335.774 101.024 334.406 102.788 332.606 102.788C331.454 102.788 330.842 102.068 330.842 101.204ZM345.881 107H355.997C359.669 107 363.053 105.56 363.053 101.492C363.053 99.872 362.261 98.036 360.137 97.388V97.352C361.541 96.524 362.297 94.868 362.297 93.32C362.297 90.116 359.705 88.46 355.997 88.46H345.881V107ZM352.109 95.768V92.312H354.377C355.601 92.312 356.105 93.068 356.105 93.932C356.105 94.904 355.601 95.768 354.449 95.768H352.109ZM352.109 103.112V99.404H354.881C356.213 99.404 356.825 100.268 356.825 101.276C356.825 102.212 356.177 103.112 354.845 103.112H352.109ZM364.94 101.78C364.94 104.984 367.424 107.432 370.988 107.432C373.112 107.432 375.272 106.46 376.496 104.732H376.568C376.568 104.732 376.496 105.272 376.496 105.884V107H382.184V95.588C382.184 90.872 379.016 88.028 373.904 88.028C370.88 88.028 367.64 89.216 366.056 90.44L368.216 94.832C369.692 93.86 371.528 93.068 373.328 93.068C374.696 93.068 375.956 93.572 375.956 95.12V95.444H375.416C370.844 95.444 364.94 96.812 364.94 101.78ZM371.096 101.204C371.096 99.512 373.544 99.008 375.452 99.008H376.028V99.512C376.028 101.024 374.66 102.788 372.86 102.788C371.708 102.788 371.096 102.068 371.096 101.204ZM390.203 107H396.431V93.68H402.083V88.46H384.587V93.68H390.203V107ZM403.442 97.712C403.442 102.644 407.006 107.432 413.63 107.432C416.474 107.432 419.534 106.46 421.55 104.732L419.246 100.376C417.734 101.384 415.97 102.248 414.134 102.248C412.154 102.248 410.282 101.204 409.814 98.936H421.514C421.586 98.288 421.658 97.64 421.658 96.992C421.658 91.844 418.562 88.028 413.09 88.028C407.114 88.028 403.442 92.276 403.442 97.712ZM409.958 95.372C410.282 93.896 411.146 92.6 412.946 92.6C414.53 92.6 415.502 93.86 415.502 95.372H409.958ZM423.404 107.18C430.604 107.18 432.764 101.996 432.764 94.436V93.392H435.86V107H442.088V88.46H426.896V94.4C426.896 100.772 425.06 101.528 423.404 101.744V107.18ZM444.488 107H451.076L454.64 101.348H455.936V107H462.164V88.46H452.444C448.34 88.46 445.748 90.836 445.748 94.724C445.748 97.1 447.08 99.224 449.096 100.232V100.268C449.096 100.268 448.736 100.628 448.232 101.384L444.488 107ZM454.46 97.208C452.984 97.208 451.94 96.452 451.94 94.688C451.94 92.96 452.984 92.312 454.424 92.312H455.936V97.208H454.46ZM2.088 149H8.136L13.284 140.864C13.572 140.36 13.968 139.784 14.292 139.028H14.364C14.292 139.748 14.292 140.468 14.292 140.9V149H20.16V130.46H14.112L8.964 138.632C8.64 139.172 8.28 139.712 7.956 140.468H7.884C7.92 140 7.956 139.28 7.956 138.632V130.46H2.088V149ZM32.2979 139.712C32.2979 144.824 36.0059 149.432 42.6299 149.432C45.7259 149.432 48.7499 148.244 50.5859 146.372L48.3179 142.016C46.9859 143.168 45.0419 144.248 43.2419 144.248C40.1099 144.248 38.5979 141.836 38.5979 139.64C38.5979 137.444 40.0739 135.212 43.0259 135.212C44.6459 135.212 46.3019 135.968 47.3819 137.012L50.0099 132.836C48.1739 130.856 45.2219 130.028 42.6299 130.028C35.9699 130.028 32.2979 134.744 32.2979 139.712ZM51.7745 139.784C51.7745 145.58 56.4545 149.432 62.2865 149.432C68.1185 149.432 72.7985 145.58 72.7985 139.784C72.7985 133.952 68.1185 130.028 62.2505 130.028C56.4545 130.028 51.7745 133.952 51.7745 139.784ZM58.0745 139.784C58.0745 136.976 60.0185 135.212 62.2865 135.212C64.5545 135.212 66.4985 136.976 66.4985 139.784C66.4985 142.556 64.5545 144.248 62.2865 144.248C60.0185 144.248 58.0745 142.556 58.0745 139.784ZM74.8721 139.712C74.8721 144.824 78.5801 149.432 85.2041 149.432C88.3001 149.432 91.3241 148.244 93.1601 146.372L90.8921 142.016C89.5601 143.168 87.6161 144.248 85.8161 144.248C82.6841 144.248 81.1721 141.836 81.1721 139.64C81.1721 137.444 82.6481 135.212 85.6001 135.212C87.2201 135.212 88.8761 135.968 89.9561 137.012L92.5841 132.836C90.7481 130.856 87.7961 130.028 85.2041 130.028C78.5441 130.028 74.8721 134.744 74.8721 139.712ZM99.8474 149H106.075V135.68H111.727V130.46H94.2314V135.68H99.8474V149ZM112.799 143.78C112.799 146.984 115.283 149.432 118.847 149.432C120.971 149.432 123.131 148.46 124.355 146.732H124.427C124.427 146.732 124.355 147.272 124.355 147.884V149H130.043V137.588C130.043 132.872 126.875 130.028 121.763 130.028C118.739 130.028 115.499 131.216 113.915 132.44L116.075 136.832C117.551 135.86 119.387 135.068 121.187 135.068C122.555 135.068 123.815 135.572 123.815 137.12V137.444H123.275C118.703 137.444 112.799 138.812 112.799 143.78ZM118.955 143.204C118.955 141.512 121.403 141.008 123.311 141.008H123.887V141.512C123.887 143.024 122.519 144.788 120.719 144.788C119.567 144.788 118.955 144.068 118.955 143.204ZM133.994 149H144.11C147.782 149 151.166 147.56 151.166 143.492C151.166 141.872 150.374 140.036 148.25 139.388V139.352C149.654 138.524 150.41 136.868 150.41 135.32C150.41 132.116 147.818 130.46 144.11 130.46H133.994V149ZM140.222 137.768V134.312H142.49C143.714 134.312 144.218 135.068 144.218 135.932C144.218 136.904 143.714 137.768 142.562 137.768H140.222ZM140.222 145.112V141.404H142.994C144.326 141.404 144.938 142.268 144.938 143.276C144.938 144.212 144.29 145.112 142.958 145.112H140.222ZM154.385 149H160.433L165.581 140.864C165.869 140.36 166.265 139.784 166.589 139.028H166.661C166.589 139.748 166.589 140.468 166.589 140.9V149H172.457V130.46H166.409L161.261 138.632C160.937 139.172 160.577 139.712 160.253 140.468H160.181C160.217 140 160.253 139.28 160.253 138.632V130.46H154.385V149ZM175.847 149H181.787L182.219 140.468C182.291 139.028 182.183 137.3 182.183 137.3H182.255C182.255 137.3 182.939 138.848 183.335 140.036L185.783 146.516H190.823L193.271 140.036C193.739 138.884 194.279 137.3 194.279 137.3H194.351C194.351 137.3 194.279 139.028 194.315 140.468L194.747 149H200.723L198.959 130.46H191.795L189.059 138.596C188.735 139.532 188.303 140.756 188.303 140.756H188.267C188.267 140.756 187.871 139.532 187.547 138.596L184.811 130.46H177.611L175.847 149ZM213.096 156.2H219.324V149.252C219.324 148.316 219.252 147.668 219.252 147.668H219.324C220.656 148.82 222.312 149.432 224.04 149.432C228.972 149.432 232.68 145.616 232.68 139.748C232.68 133.988 229.368 130.028 224.328 130.028C222.096 130.028 219.972 130.892 218.712 132.584H218.64C218.64 132.584 218.712 132.008 218.712 131.396V130.46H213.096V156.2ZM219.144 139.856C219.144 136.652 220.908 135.284 222.78 135.284C224.94 135.284 226.416 137.084 226.416 139.856C226.416 142.7 224.724 144.284 222.78 144.284C220.332 144.284 219.144 142.088 219.144 139.856ZM234.545 143.78C234.545 146.984 237.029 149.432 240.593 149.432C242.717 149.432 244.877 148.46 246.101 146.732H246.173C246.173 146.732 246.101 147.272 246.101 147.884V149H251.789V137.588C251.789 132.872 248.621 130.028 243.509 130.028C240.485 130.028 237.245 131.216 235.661 132.44L237.821 136.832C239.297 135.86 241.133 135.068 242.933 135.068C244.301 135.068 245.561 135.572 245.561 137.12V137.444H245.021C240.449 137.444 234.545 138.812 234.545 143.78ZM240.701 143.204C240.701 141.512 243.149 141.008 245.057 141.008H245.633V141.512C245.633 143.024 244.265 144.788 242.465 144.788C241.313 144.788 240.701 144.068 240.701 143.204ZM254.696 139.712C254.696 144.824 258.404 149.432 265.028 149.432C268.124 149.432 271.148 148.244 272.984 146.372L270.716 142.016C269.384 143.168 267.44 144.248 265.64 144.248C262.508 144.248 260.996 141.836 260.996 139.64C260.996 137.444 262.472 135.212 265.424 135.212C267.044 135.212 268.7 135.968 269.78 137.012L272.408 132.836C270.572 130.856 267.62 130.028 265.028 130.028C258.368 130.028 254.696 134.744 254.696 139.712ZM275.604 149H281.832V135.68H287.34V149H293.568V130.46H275.604V149ZM297.752 149H303.8L308.948 140.864C309.236 140.36 309.632 139.784 309.956 139.028H310.028C309.956 139.748 309.956 140.468 309.956 140.9V149H315.824V130.46H309.776L304.628 138.632C304.304 139.172 303.944 139.712 303.62 140.468H303.548C303.584 140 303.62 139.28 303.62 138.632V130.46H297.752V149ZM318.962 139.712C318.962 144.824 322.67 149.432 329.294 149.432C332.39 149.432 335.414 148.244 337.25 146.372L334.982 142.016C333.65 143.168 331.706 144.248 329.906 144.248C326.774 144.248 325.262 141.836 325.262 139.64C325.262 137.444 326.738 135.212 329.69 135.212C331.31 135.212 332.966 135.968 334.046 137.012L336.674 132.836C334.838 130.856 331.886 130.028 329.294 130.028C322.634 130.028 318.962 134.744 318.962 139.712ZM338.537 143.78C338.537 146.984 341.021 149.432 344.585 149.432C346.709 149.432 348.869 148.46 350.093 146.732H350.165C350.165 146.732 350.093 147.272 350.093 147.884V149H355.781V137.588C355.781 132.872 352.613 130.028 347.501 130.028C344.477 130.028 341.237 131.216 339.653 132.44L341.813 136.832C343.289 135.86 345.125 135.068 346.925 135.068C348.293 135.068 349.553 135.572 349.553 137.12V137.444H349.013C344.441 137.444 338.537 138.812 338.537 143.78ZM344.693 143.204C344.693 141.512 347.141 141.008 349.049 141.008H349.625V141.512C349.625 143.024 348.257 144.788 346.457 144.788C345.305 144.788 344.693 144.068 344.693 143.204ZM359.733 149H365.961V142.232H371.685V149H377.913V130.46H371.685V137.012H365.961V130.46H359.733V149ZM382.092 149H388.14L393.288 140.864C393.576 140.36 393.972 139.784 394.296 139.028H394.368C394.296 139.748 394.296 140.468 394.296 140.9V149H400.164V130.46H394.116L388.968 138.632C388.644 139.172 388.284 139.712 387.96 140.468H387.888C387.924 140 387.96 139.28 387.96 138.632V130.46H382.092V149ZM403.302 139.712C403.302 144.644 406.866 149.432 413.49 149.432C416.334 149.432 419.394 148.46 421.41 146.732L419.106 142.376C417.594 143.384 415.83 144.248 413.994 144.248C412.014 144.248 410.142 143.204 409.674 140.936H421.374C421.446 140.288 421.518 139.64 421.518 138.992C421.518 133.844 418.422 130.028 412.95 130.028C406.974 130.028 403.302 134.276 403.302 139.712ZM409.818 137.372C410.142 135.896 411.006 134.6 412.806 134.6C414.39 134.6 415.362 135.86 415.362 137.372H409.818Z" fill="#222224"/>
<path d="M1.674 208H3.456V202.42H10.062V208H11.826V195.292H10.062V200.872H3.456V195.292H1.674V208ZM14.0802 203.446C14.0802 206.146 16.0602 208.216 18.9222 208.216C20.1822 208.216 21.5682 207.73 22.4502 206.92L21.7122 205.642C20.9922 206.29 20.0022 206.704 19.0302 206.704C17.3922 206.704 15.9882 205.642 15.8982 203.68H22.5222C22.5582 203.428 22.5942 203.176 22.5942 202.942C22.5942 200.602 21.2262 198.676 18.6522 198.676C16.0602 198.676 14.0802 200.548 14.0802 203.446ZM15.9522 202.42C16.2042 200.908 17.2662 200.026 18.6162 200.026C19.8042 200.026 20.7762 200.854 20.8302 202.42H15.9522ZM26.7843 208H28.5123V200.386H31.6983V198.892H23.6163V200.386H26.7843V208ZM37.9125 208H39.6585V200.386H44.1225V208H45.8685V198.892H37.9125V208ZM48.5648 211.6H50.3108V207.46C50.3108 206.992 50.2388 206.668 50.2388 206.668H50.2748C50.9048 207.64 51.9488 208.216 53.1008 208.216C55.4948 208.216 57.2228 206.344 57.2228 203.446C57.2228 200.62 55.6928 198.676 53.2268 198.676C51.8948 198.676 50.7428 199.288 50.1668 200.386H50.1308C50.1308 200.386 50.1848 200.08 50.1848 199.702V198.892H48.5648V211.6ZM50.2568 203.482C50.2568 201.178 51.5168 200.206 52.8848 200.206C54.3968 200.206 55.4588 201.484 55.4588 203.464C55.4588 205.534 54.2708 206.704 52.8308 206.704C51.1568 206.704 50.2568 205.102 50.2568 203.482ZM59.3754 208H61.0494L64.9914 202.564C65.2794 202.132 65.7294 201.52 65.7834 201.358H65.8194C65.8194 201.502 65.7654 202.132 65.7654 202.564V208H67.4574V198.892H65.7654L61.8414 204.328C61.5354 204.76 61.1034 205.39 61.0314 205.552H60.9954C61.0134 205.462 61.0494 204.814 61.0494 204.328V198.892H59.3754V208ZM70.1332 208H74.0212C76.0012 208 77.3692 207.1 77.3692 205.408C77.3692 204.4 76.7752 203.518 75.6412 203.248V203.23C76.4692 202.87 76.9372 202.114 76.9372 201.232C76.9372 199.702 75.7312 198.892 73.8952 198.892H70.1332V208ZM71.8792 202.744V200.098H73.5352C74.6332 200.098 75.1552 200.53 75.1552 201.358C75.1552 202.204 74.6332 202.744 73.5892 202.744H71.8792ZM71.8792 206.776V203.914H73.7332C74.9392 203.914 75.6052 204.454 75.6052 205.354C75.6052 206.2 75.0112 206.776 73.7512 206.776H71.8792ZM78.5668 208H80.4928L82.7248 204.706H84.2548V208H86.0008V198.892H82.3648C80.4388 198.892 79.1068 199.882 79.1068 201.754C79.1068 203.14 80.0428 204.112 81.0868 204.4V204.418C81.0868 204.418 80.8708 204.652 80.6728 204.976L78.5668 208ZM82.7428 203.428C81.6808 203.428 80.8708 202.87 80.8708 201.736C80.8708 200.566 81.6268 200.098 82.7968 200.098H84.2548V203.428H82.7428ZM87.8137 206.884C88.5697 207.604 89.7577 208.216 91.1617 208.216C93.0337 208.216 94.6537 207.262 94.6537 205.39C94.6537 204.22 93.9337 203.536 93.0157 203.248V203.212C93.7357 202.906 94.3477 202.276 94.3477 201.142C94.3477 199.522 92.9977 198.676 91.2697 198.676C89.8297 198.676 88.8037 199.144 88.1017 199.666L88.7497 200.836C89.4517 200.314 90.1717 200.044 90.9637 200.044C91.9717 200.044 92.5837 200.512 92.5837 201.358C92.5837 202.276 91.8817 202.672 90.8557 202.672H89.9017V203.932H91.0177C92.2957 203.932 92.8897 204.436 92.8897 205.318C92.8897 206.308 92.0437 206.812 90.9997 206.812C89.9017 206.812 89.0377 206.164 88.6237 205.732L87.8137 206.884ZM96.7641 208H98.5101V204.058H99.8241L102.542 208H104.612L101.21 203.266V203.23L104.252 198.892H102.272L99.7881 202.564H98.5101V198.892H96.7641V208ZM106.168 208H107.842L111.784 202.564C112.072 202.132 112.522 201.52 112.576 201.358H112.612C112.612 201.502 112.558 202.132 112.558 202.564V208H114.25V198.892H112.558L108.634 204.328C108.328 204.76 107.896 205.39 107.824 205.552H107.788C107.806 205.462 107.842 204.814 107.842 204.328V198.892H106.168V208ZM121.426 208H123.172V204.058H124.486L127.204 208H129.274L125.872 203.266V203.23L128.914 198.892H126.934L124.45 202.564H123.172V198.892H121.426V208ZM134.952 208H136.644L137.04 202.582C137.076 202.042 137.022 201.016 137.022 201.016H137.058C137.058 201.016 137.346 201.7 137.634 202.366L139.794 206.902H141.288L143.448 202.348C143.79 201.646 144.024 201.016 144.024 201.016H144.06C144.06 201.016 144.024 202.042 144.042 202.582L144.438 208H146.13L145.338 198.892H143.43L141.054 204.04C140.82 204.598 140.55 205.264 140.55 205.264H140.514C140.514 205.264 140.262 204.58 140.01 204.04L137.688 198.892H135.744L134.952 208ZM147.885 203.446C147.885 206.146 149.865 208.216 152.727 208.216C153.987 208.216 155.373 207.73 156.255 206.92L155.517 205.642C154.797 206.29 153.807 206.704 152.835 206.704C151.197 206.704 149.793 205.642 149.703 203.68H156.327C156.363 203.428 156.399 203.176 156.399 202.942C156.399 200.602 155.031 198.676 152.457 198.676C149.865 198.676 147.885 200.548 147.885 203.446ZM149.757 202.42C150.009 200.908 151.071 200.026 152.421 200.026C153.609 200.026 154.581 200.854 154.635 202.42H149.757ZM157.904 203.446C157.904 206.182 159.902 208.216 162.782 208.216C164.204 208.216 165.59 207.64 166.418 206.758L165.716 205.48C165.014 206.218 163.916 206.704 162.908 206.704C161.018 206.704 159.686 205.282 159.686 203.428C159.686 201.574 161.018 200.188 162.854 200.188C163.808 200.188 164.762 200.62 165.374 201.232L166.202 200.008C165.338 199.09 163.988 198.676 162.782 198.676C159.92 198.676 157.904 200.746 157.904 203.446ZM170.503 208H172.231V200.386H175.417V198.892H167.335V200.386H170.503V208ZM176.681 209.89L176.069 211.222C176.069 211.222 176.807 211.78 177.815 211.78C179.093 211.78 180.227 211.06 180.767 209.638L185.051 198.892H183.161L180.947 204.868C180.785 205.336 180.641 205.948 180.641 205.948H180.605C180.605 205.948 180.443 205.3 180.263 204.85L177.977 198.892H176.015L179.831 207.892L179.381 208.936C179.039 209.764 178.445 210.286 177.725 210.286C177.185 210.286 176.681 209.89 176.681 209.89ZM186.674 200.746H188.51V198.892H186.674V200.746ZM186.674 208H188.51V206.146H186.674V208ZM197.819 208H199.547V200.386H202.733V198.892H194.651V200.386H197.819V208ZM203.555 203.428C203.555 206.2 205.751 208.216 208.469 208.216C211.169 208.216 213.365 206.2 213.365 203.428C213.365 200.674 211.169 198.676 208.451 198.676C205.751 198.676 203.555 200.674 203.555 203.428ZM205.337 203.428C205.337 201.538 206.741 200.188 208.469 200.188C210.179 200.188 211.601 201.538 211.601 203.428C211.601 205.336 210.179 206.704 208.469 206.704C206.741 206.704 205.337 205.336 205.337 203.428ZM214.233 208.09C216.915 207.946 217.959 205.822 217.959 201.7V200.332H220.641V208H222.387V198.892H216.285V201.7C216.285 204.994 215.565 206.326 214.233 206.524V208.09ZM225.084 208H228.63C230.934 208 231.978 206.83 231.978 205.12C231.978 203.05 230.556 202.186 228.666 202.186H226.83V198.892H225.084V208ZM226.83 206.74V203.446H228.396C229.656 203.446 230.196 204.13 230.196 205.102C230.196 206.056 229.656 206.74 228.396 206.74H226.83ZM233.856 208H235.602V204.058H236.916L239.634 208H241.704L238.302 203.266V203.23L241.344 198.892H239.364L236.88 202.564H235.602V198.892H233.856V208ZM242.279 203.428C242.279 206.2 244.475 208.216 247.193 208.216C249.893 208.216 252.089 206.2 252.089 203.428C252.089 200.674 249.893 198.676 247.175 198.676C244.475 198.676 242.279 200.674 242.279 203.428ZM244.061 203.428C244.061 201.538 245.465 200.188 247.193 200.188C248.903 200.188 250.325 201.538 250.325 203.428C250.325 205.336 248.903 206.704 247.193 206.704C245.465 206.704 244.061 205.336 244.061 203.428ZM258.694 208H262.582C264.562 208 265.93 207.1 265.93 205.408C265.93 204.4 265.336 203.518 264.202 203.248V203.23C265.03 202.87 265.498 202.114 265.498 201.232C265.498 199.702 264.292 198.892 262.456 198.892H258.694V208ZM260.44 202.744V200.098H262.096C263.194 200.098 263.716 200.53 263.716 201.358C263.716 202.204 263.194 202.744 262.15 202.744H260.44ZM260.44 206.776V203.914H262.294C263.5 203.914 264.166 204.454 264.166 205.354C264.166 206.2 263.572 206.776 262.312 206.776H260.44ZM267.289 205.516C267.289 207.226 268.747 208.216 270.331 208.216C271.681 208.216 272.797 207.406 273.319 206.362H273.355C273.355 206.362 273.301 206.668 273.301 207.082V208H274.939V202.24C274.939 199.936 273.625 198.676 271.339 198.676C270.061 198.676 268.675 199.144 267.937 199.756L268.639 201.034C269.377 200.512 270.295 200.152 271.195 200.152C272.329 200.152 273.193 200.656 273.193 202.15V202.33H272.725C270.835 202.33 267.289 202.654 267.289 205.516ZM269.035 205.372C269.035 203.698 271.447 203.59 272.743 203.59H273.193V203.932C273.193 205.282 272.275 206.83 270.745 206.83C269.611 206.83 269.035 206.092 269.035 205.372ZM277.52 208H289.292V198.892H287.618V206.488H284.252V198.892H282.56V206.488H279.194V198.892H277.52V208ZM298.269 206.56C299.421 204.76 299.565 202.168 299.565 200.8V200.314H302.301V206.56H298.269ZM295.353 206.56V210.16H296.991V208H303.741V210.16H305.343V206.56H304.047V198.892H297.891V200.566C297.891 201.97 297.747 204.814 296.469 206.56H295.353ZM306.475 203.446C306.475 206.146 308.455 208.216 311.317 208.216C312.577 208.216 313.963 207.73 314.845 206.92L314.107 205.642C313.387 206.29 312.397 206.704 311.425 206.704C309.787 206.704 308.383 205.642 308.293 203.68H314.917C314.953 203.428 314.989 203.176 314.989 202.942C314.989 200.602 313.621 198.676 311.047 198.676C308.455 198.676 306.475 200.548 306.475 203.446ZM308.347 202.42C308.599 200.908 309.661 200.026 311.011 200.026C312.199 200.026 313.171 200.854 313.225 202.42H308.347ZM317.088 208H320.976C322.956 208 324.324 207.1 324.324 205.408C324.324 204.4 323.73 203.518 322.596 203.248V203.23C323.424 202.87 323.892 202.114 323.892 201.232C323.892 199.702 322.686 198.892 320.85 198.892H317.088V208ZM318.834 202.744V200.098H320.49C321.588 200.098 322.11 200.53 322.11 201.358C322.11 202.204 321.588 202.744 320.544 202.744H318.834ZM318.834 206.776V203.914H320.688C321.894 203.914 322.56 204.454 322.56 205.354C322.56 206.2 321.966 206.776 320.706 206.776H318.834ZM325.684 205.516C325.684 207.226 327.142 208.216 328.726 208.216C330.076 208.216 331.192 207.406 331.714 206.362H331.75C331.75 206.362 331.696 206.668 331.696 207.082V208H333.334V202.24C333.334 199.936 332.02 198.676 329.734 198.676C328.456 198.676 327.07 199.144 326.332 199.756L327.034 201.034C327.772 200.512 328.69 200.152 329.59 200.152C330.724 200.152 331.588 200.656 331.588 202.15V202.33H331.12C329.23 202.33 325.684 202.654 325.684 205.516ZM327.43 205.372C327.43 203.698 329.842 203.59 331.138 203.59H331.588V203.932C331.588 205.282 330.67 206.83 329.14 206.83C328.006 206.83 327.43 206.092 327.43 205.372ZM339.928 197.848C341.332 197.848 342.592 197.02 342.592 195.544V195.274H341.206V195.508C341.206 196.318 340.558 196.714 339.928 196.714C339.298 196.714 338.668 196.318 338.668 195.526V195.274H337.264V195.544C337.264 197.02 338.542 197.848 339.928 197.848ZM335.914 208H337.588L341.53 202.564C341.818 202.132 342.268 201.52 342.322 201.358H342.358C342.358 201.502 342.304 202.132 342.304 202.564V208H343.996V198.892H342.304L338.38 204.328C338.074 204.76 337.642 205.39 337.57 205.552H337.534C337.552 205.462 337.588 204.814 337.588 204.328V198.892H335.914V208ZM346.078 203.446C346.078 206.182 348.076 208.216 350.956 208.216C352.378 208.216 353.764 207.64 354.592 206.758L353.89 205.48C353.188 206.218 352.09 206.704 351.082 206.704C349.192 206.704 347.86 205.282 347.86 203.428C347.86 201.574 349.192 200.188 351.028 200.188C351.982 200.188 352.936 200.62 353.548 201.232L354.376 200.008C353.512 199.09 352.162 198.676 350.956 198.676C348.094 198.676 346.078 200.746 346.078 203.446ZM355.761 209.818H357.147L358.713 206.11H356.877L355.761 209.818ZM1.35 236H3.024L6.966 230.564C7.254 230.132 7.704 229.52 7.758 229.358H7.794C7.794 229.502 7.74 230.132 7.74 230.564V236H9.432V226.892H7.74L3.816 232.328C3.51 232.76 3.078 233.39 3.006 233.552H2.97C2.988 233.462 3.024 232.814 3.024 232.328V226.892H1.35V236ZM12.1078 236H13.8538V232.094H18.4618V236H20.2078V226.892H18.4618V230.6H13.8538V226.892H12.1078V236ZM25.0968 236H26.8248V228.386H30.0108V226.892H21.9288V228.386H25.0968V236ZM30.8322 231.446C30.8322 234.146 32.8122 236.216 35.6742 236.216C36.9342 236.216 38.3202 235.73 39.2022 234.92L38.4642 233.642C37.7442 234.29 36.7542 234.704 35.7822 234.704C34.1442 234.704 32.7402 233.642 32.6502 231.68H39.2742C39.3102 231.428 39.3462 231.176 39.3462 230.942C39.3462 228.602 37.9782 226.676 35.4042 226.676C32.8122 226.676 30.8322 228.548 30.8322 231.446ZM32.7042 230.42C32.9562 228.908 34.0182 228.026 35.3682 228.026C36.5562 228.026 37.5282 228.854 37.5822 230.42H32.7042ZM41.4457 239.6H43.1917V235.46C43.1917 234.992 43.1197 234.668 43.1197 234.668H43.1557C43.7857 235.64 44.8297 236.216 45.9817 236.216C48.3757 236.216 50.1037 234.344 50.1037 231.446C50.1037 228.62 48.5737 226.676 46.1077 226.676C44.7757 226.676 43.6237 227.288 43.0477 228.386H43.0117C43.0117 228.386 43.0657 228.08 43.0657 227.702V226.892H41.4457V239.6ZM43.1377 231.482C43.1377 229.178 44.3977 228.206 45.7657 228.206C47.2777 228.206 48.3397 229.484 48.3397 231.464C48.3397 233.534 47.1517 234.704 45.7117 234.704C44.0377 234.704 43.1377 233.102 43.1377 231.482ZM52.2563 236H54.0023V232.094H58.6103V236H60.3563V226.892H58.6103V230.6H54.0023V226.892H52.2563V236ZM62.4552 231.446C62.4552 234.146 64.4352 236.216 67.2972 236.216C68.5572 236.216 69.9432 235.73 70.8252 234.92L70.0872 233.642C69.3672 234.29 68.3772 234.704 67.4052 234.704C65.7672 234.704 64.3632 233.642 64.2732 231.68H70.8972C70.9332 231.428 70.9692 231.176 70.9692 230.942C70.9692 228.602 69.6012 226.676 67.0272 226.676C64.4352 226.676 62.4552 228.548 62.4552 231.446ZM64.3272 230.42C64.5792 228.908 65.6412 228.026 66.9912 228.026C68.1792 228.026 69.1512 228.854 69.2052 230.42H64.3272ZM75.1593 236H76.8873V228.386H80.0733V226.892H71.9913V228.386H75.1593V236ZM86.2875 236H87.9615L91.9035 230.564C92.1915 230.132 92.6415 229.52 92.6955 229.358H92.7315C92.7315 229.502 92.6775 230.132 92.6775 230.564V236H94.3695V226.892H92.6775L88.7535 232.328C88.4475 232.76 88.0155 233.39 87.9435 233.552H87.9075C87.9255 233.462 87.9615 232.814 87.9615 232.328V226.892H86.2875V236ZM100.501 236H102.481L104.389 232.958C104.533 232.742 104.659 232.472 104.659 232.472H104.695C104.695 232.472 104.839 232.742 104.983 232.958L106.891 236H108.871L105.757 231.32L108.691 226.892H106.693L105.001 229.664C104.875 229.898 104.695 230.204 104.695 230.204H104.659C104.659 230.204 104.497 229.898 104.371 229.664L102.679 226.892H100.681L103.615 231.32L100.501 236ZM109.635 231.428C109.635 234.2 111.831 236.216 114.549 236.216C117.249 236.216 119.445 234.2 119.445 231.428C119.445 228.674 117.249 226.676 114.531 226.676C111.831 226.676 109.635 228.674 109.635 231.428ZM111.417 231.428C111.417 229.538 112.821 228.188 114.549 228.188C116.259 228.188 117.681 229.538 117.681 231.428C117.681 233.336 116.259 234.704 114.549 234.704C112.821 234.704 111.417 233.336 111.417 231.428ZM121.549 239.6H123.295V235.46C123.295 234.992 123.223 234.668 123.223 234.668H123.259C123.889 235.64 124.933 236.216 126.085 236.216C128.479 236.216 130.207 234.344 130.207 231.446C130.207 228.62 128.677 226.676 126.211 226.676C124.879 226.676 123.727 227.288 123.151 228.386H123.115C123.115 228.386 123.169 228.08 123.169 227.702V226.892H121.549V239.6ZM123.241 231.482C123.241 229.178 124.501 228.206 125.869 228.206C127.381 228.206 128.443 229.484 128.443 231.464C128.443 233.534 127.255 234.704 125.815 234.704C124.141 234.704 123.241 233.102 123.241 231.482ZM131.766 231.428C131.766 234.2 133.962 236.216 136.68 236.216C139.38 236.216 141.576 234.2 141.576 231.428C141.576 228.674 139.38 226.676 136.662 226.676C133.962 226.676 131.766 228.674 131.766 231.428ZM133.548 231.428C133.548 229.538 134.952 228.188 136.68 228.188C138.39 228.188 139.812 229.538 139.812 231.428C139.812 233.336 138.39 234.704 136.68 234.704C134.952 234.704 133.548 233.336 133.548 231.428ZM143.68 236H155.452V226.892H153.778V234.488H150.412V226.892H148.72V234.488H145.354V226.892H143.68V236ZM157.553 231.446C157.553 234.146 159.533 236.216 162.395 236.216C163.655 236.216 165.041 235.73 165.923 234.92L165.185 233.642C164.465 234.29 163.475 234.704 162.503 234.704C160.865 234.704 159.461 233.642 159.371 231.68H165.995C166.031 231.428 166.067 231.176 166.067 230.942C166.067 228.602 164.699 226.676 162.125 226.676C159.533 226.676 157.553 228.548 157.553 231.446ZM159.425 230.42C159.677 228.908 160.739 228.026 162.089 228.026C163.277 228.026 164.249 228.854 164.303 230.42H159.425ZM167.572 231.446C167.572 234.146 169.552 236.216 172.414 236.216C173.674 236.216 175.06 235.73 175.942 234.92L175.204 233.642C174.484 234.29 173.494 234.704 172.522 234.704C170.884 234.704 169.48 233.642 169.39 231.68H176.014C176.05 231.428 176.086 231.176 176.086 230.942C176.086 228.602 174.718 226.676 172.144 226.676C169.552 226.676 167.572 228.548 167.572 231.446ZM169.444 230.42C169.696 228.908 170.758 228.026 172.108 228.026C173.296 228.026 174.268 228.854 174.322 230.42H169.444ZM182.686 236H184.432V232.094H189.04V236H190.786V226.892H189.04V230.6H184.432V226.892H182.686V236ZM192.723 233.516C192.723 235.226 194.181 236.216 195.765 236.216C197.115 236.216 198.231 235.406 198.753 234.362H198.789C198.789 234.362 198.735 234.668 198.735 235.082V236H200.373V230.24C200.373 227.936 199.059 226.676 196.773 226.676C195.495 226.676 194.109 227.144 193.371 227.756L194.073 229.034C194.811 228.512 195.729 228.152 196.629 228.152C197.763 228.152 198.627 228.656 198.627 230.15V230.33H198.159C196.269 230.33 192.723 230.654 192.723 233.516ZM194.469 233.372C194.469 231.698 196.881 231.59 198.177 231.59H198.627V231.932C198.627 233.282 197.709 234.83 196.179 234.83C195.045 234.83 194.469 234.092 194.469 233.372ZM202.36 231.446C202.36 234.182 204.358 236.216 207.238 236.216C208.66 236.216 210.046 235.64 210.874 234.758L210.172 233.48C209.47 234.218 208.372 234.704 207.364 234.704C205.474 234.704 204.142 233.282 204.142 231.428C204.142 229.574 205.474 228.188 207.31 228.188C208.264 228.188 209.218 228.62 209.83 229.232L210.658 228.008C209.794 227.09 208.444 226.676 207.238 226.676C204.376 226.676 202.36 228.746 202.36 231.446ZM214.958 236H216.686V228.386H219.872V226.892H211.79V228.386H214.958V236ZM221.586 239.6H223.332V235.46C223.332 234.992 223.26 234.668 223.26 234.668H223.296C223.926 235.64 224.97 236.216 226.122 236.216C228.516 236.216 230.244 234.344 230.244 231.446C230.244 228.62 228.714 226.676 226.248 226.676C224.916 226.676 223.764 227.288 223.188 228.386H223.152C223.152 228.386 223.206 228.08 223.206 227.702V226.892H221.586V239.6ZM223.278 231.482C223.278 229.178 224.538 228.206 225.906 228.206C227.418 228.206 228.48 229.484 228.48 231.464C228.48 233.534 227.292 234.704 225.852 234.704C224.178 234.704 223.278 233.102 223.278 231.482ZM231.803 231.428C231.803 234.2 233.999 236.216 236.717 236.216C239.417 236.216 241.613 234.2 241.613 231.428C241.613 228.674 239.417 226.676 236.699 226.676C233.999 226.676 231.803 228.674 231.803 231.428ZM233.585 231.428C233.585 229.538 234.989 228.188 236.717 228.188C238.427 228.188 239.849 229.538 239.849 231.428C239.849 233.336 238.427 234.704 236.717 234.704C234.989 234.704 233.585 233.336 233.585 231.428ZM243.123 231.446C243.123 234.146 245.103 236.216 247.965 236.216C249.225 236.216 250.611 235.73 251.493 234.92L250.755 233.642C250.035 234.29 249.045 234.704 248.073 234.704C246.435 234.704 245.031 233.642 244.941 231.68H251.565C251.601 231.428 251.637 231.176 251.637 230.942C251.637 228.602 250.269 226.676 247.695 226.676C245.103 226.676 243.123 228.548 243.123 231.446ZM244.995 230.42C245.247 228.908 246.309 228.026 247.659 228.026C248.847 228.026 249.819 228.854 249.873 230.42H244.995ZM253.737 236H255.483V232.094H260.091V236H261.837V226.892H260.091V230.6H255.483V226.892H253.737V236ZM264.53 236H266.204L270.146 230.564C270.434 230.132 270.884 229.52 270.938 229.358H270.974C270.974 229.502 270.92 230.132 270.92 230.564V236H272.612V226.892H270.92L266.996 232.328C266.69 232.76 266.258 233.39 266.186 233.552H266.15C266.168 233.462 266.204 232.814 266.204 232.328V226.892H264.53V236ZM274.694 231.446C274.694 234.146 276.674 236.216 279.536 236.216C280.796 236.216 282.182 235.73 283.064 234.92L282.326 233.642C281.606 234.29 280.616 234.704 279.644 234.704C278.006 234.704 276.602 233.642 276.512 231.68H283.136C283.172 231.428 283.208 231.176 283.208 230.942C283.208 228.602 281.84 226.676 279.266 226.676C276.674 226.676 274.694 228.548 274.694 231.446ZM276.566 230.42C276.818 228.908 277.88 228.026 279.229 228.026C280.418 228.026 281.39 228.854 281.444 230.42H276.566Z" fill="#505257"/>
</svg>
