<svg width="970" height="298" viewBox="0 0 970 298" fill="none" xmlns="http://www.w3.org/2000/svg">
<path d="M570.9 84.248C570.9 90.44 575.544 95.192 582.42 95.192V98.432H588.72V95.192C595.596 95.192 600.24 90.44 600.24 84.248C600.24 78.236 595.596 73.628 588.72 73.628V71H582.42V73.628C575.544 73.628 570.9 78.236 570.9 84.248ZM588.72 89.936V78.884C591.636 78.884 593.832 81.296 593.832 84.248C593.832 87.38 591.636 89.936 588.72 89.936ZM577.308 84.248C577.308 81.296 579.504 78.884 582.42 78.884V89.936C579.504 89.936 577.308 87.38 577.308 84.248ZM603.236 98H609.284L614.432 89.864C614.72 89.36 615.116 88.784 615.44 88.028H615.512C615.44 88.748 615.44 89.468 615.44 89.9V98H621.308V79.46H615.26L610.112 87.632C609.788 88.172 609.428 88.712 609.104 89.468H609.032C609.068 89 609.104 88.28 609.104 87.632V79.46H603.236V98ZM623.942 95.696C625.958 97.496 628.946 98.432 631.682 98.432C636.074 98.432 639.35 96.452 639.35 92.528C639.35 90.368 637.874 89.072 636.47 88.424V88.352C637.586 87.74 638.774 86.48 638.774 84.176C638.774 80.972 635.75 79.028 631.934 79.028C628.55 79.028 626.174 79.928 624.446 81.116L626.246 84.968C628.19 83.816 629.63 83.564 630.638 83.564C632.222 83.564 632.582 84.248 632.582 85.04C632.582 86.192 631.682 86.48 630.71 86.48H628.838V90.584H631.106C632.798 90.584 633.122 91.232 633.122 92.132C633.122 92.996 632.618 93.752 630.89 93.752C629.414 93.752 627.578 92.852 626.426 91.808L623.942 95.696ZM642.506 98H648.554L653.702 89.864C653.99 89.36 654.386 88.784 654.71 88.028H654.782C654.71 88.748 654.71 89.468 654.71 89.9V98H660.578V79.46H654.53L649.382 87.632C649.058 88.172 648.698 88.712 648.374 89.468H648.302C648.338 89 648.374 88.28 648.374 87.632V79.46H642.506V98ZM664.76 98H670.988V91.196H672.932L676.856 98H683.948L677.756 88.352V88.28L683.192 79.46H676.424L672.752 85.976H670.988V79.46H664.76V98ZM684.557 92.78C684.557 95.984 687.041 98.432 690.605 98.432C692.729 98.432 694.889 97.46 696.113 95.732H696.185C696.185 95.732 696.113 96.272 696.113 96.884V98H701.801V86.588C701.801 81.872 698.633 79.028 693.521 79.028C690.497 79.028 687.257 80.216 685.673 81.44L687.833 85.832C689.309 84.86 691.145 84.068 692.945 84.068C694.313 84.068 695.573 84.572 695.573 86.12V86.444H695.033C690.461 86.444 684.557 87.812 684.557 92.78ZM690.713 92.204C690.713 90.512 693.161 90.008 695.069 90.008H695.645V90.512C695.645 92.024 694.277 93.788 692.477 93.788C691.325 93.788 690.713 93.068 690.713 92.204ZM714.752 98H724.868C728.54 98 731.924 96.56 731.924 92.492C731.924 90.872 731.132 89.036 729.008 88.388V88.352C730.412 87.524 731.168 85.868 731.168 84.32C731.168 81.116 728.576 79.46 724.868 79.46H714.752V98ZM720.98 86.768V83.312H723.248C724.472 83.312 724.976 84.068 724.976 84.932C724.976 85.904 724.472 86.768 723.32 86.768H720.98ZM720.98 94.112V90.404H723.752C725.084 90.404 725.696 91.268 725.696 92.276C725.696 93.212 725.048 94.112 723.716 94.112H720.98ZM744.143 105.2H750.371V98.252C750.371 97.316 750.299 96.668 750.299 96.668H750.371C751.703 97.82 753.359 98.432 755.087 98.432C760.019 98.432 763.727 94.616 763.727 88.748C763.727 82.988 760.415 79.028 755.375 79.028C753.143 79.028 751.019 79.892 749.759 81.584H749.687C749.687 81.584 749.759 81.008 749.759 80.396V79.46H744.143V105.2ZM750.191 88.856C750.191 85.652 751.955 84.284 753.827 84.284C755.987 84.284 757.463 86.084 757.463 88.856C757.463 91.7 755.771 93.284 753.827 93.284C751.379 93.284 750.191 91.088 750.191 88.856ZM765.592 92.78C765.592 95.984 768.076 98.432 771.64 98.432C773.764 98.432 775.924 97.46 777.148 95.732H777.22C777.22 95.732 777.148 96.272 777.148 96.884V98H782.836V86.588C782.836 81.872 779.668 79.028 774.556 79.028C771.532 79.028 768.292 80.216 766.708 81.44L768.868 85.832C770.344 84.86 772.18 84.068 773.98 84.068C775.348 84.068 776.608 84.572 776.608 86.12V86.444H776.068C771.496 86.444 765.592 87.812 765.592 92.78ZM771.748 92.204C771.748 90.512 774.196 90.008 776.104 90.008H776.68V90.512C776.68 92.024 775.312 93.788 773.512 93.788C772.36 93.788 771.748 93.068 771.748 92.204ZM785.959 86.912C785.959 93.716 789.307 98.432 796.003 98.432C801.871 98.432 805.579 94.544 805.579 89.432C805.579 84.464 802.555 80.936 797.587 80.936C795.967 80.936 793.735 81.368 792.151 82.7H792.079C792.187 80.036 794.707 79.028 797.083 78.236L804.067 76.004L802.303 71L796.291 73.016C789.055 75.5 785.959 79.352 785.959 86.912ZM792.151 89.54C792.151 87.128 793.807 85.616 795.751 85.616C797.695 85.616 799.351 87.128 799.351 89.54C799.351 91.916 797.695 93.356 795.751 93.356C793.807 93.356 792.151 91.916 792.151 89.54ZM807.786 88.784C807.786 94.58 812.466 98.432 818.298 98.432C824.13 98.432 828.81 94.58 828.81 88.784C828.81 82.952 824.13 79.028 818.262 79.028C812.466 79.028 807.786 82.952 807.786 88.784ZM814.086 88.784C814.086 85.976 816.03 84.212 818.298 84.212C820.566 84.212 822.51 85.976 822.51 88.784C822.51 91.556 820.566 93.248 818.298 93.248C816.03 93.248 814.086 91.556 814.086 88.784ZM837.256 92.312C839.524 92.312 841.18 91.808 842.224 91.34H842.296C842.296 91.34 842.26 91.808 842.26 92.204V98H848.488V79.46H842.26V86.336C841.648 86.768 840.712 87.236 839.452 87.236C837.904 87.236 837.076 86.336 837.076 84.752V79.46H830.956V85.94C830.956 90.8 834.268 92.312 837.256 92.312ZM852.67 98H858.718L863.866 89.864C864.154 89.36 864.55 88.784 864.874 88.028H864.946C864.874 88.748 864.874 89.468 864.874 89.9V98H870.742V79.46H864.694L859.546 87.632C859.222 88.172 858.862 88.712 858.538 89.468H858.466C858.502 89 858.538 88.28 858.538 87.632V79.46H852.67V98ZM873.232 98H880.072L882.268 93.824C882.448 93.5 882.7 92.888 882.7 92.888H882.772C882.772 92.888 883.024 93.5 883.204 93.824L885.436 98H892.276L886.444 88.82L892.384 79.46H885.364L883.348 83.6C883.132 84.068 882.772 84.824 882.772 84.824H882.7C882.7 84.824 882.376 84.068 882.124 83.6L880.108 79.46H873.088L879.064 88.82L873.232 98ZM572.088 140H586.92V144.32H592.464V134.78H589.8V121.46H583.572V134.78H578.316V121.46H572.088V140ZM594.107 130.712C594.107 135.644 597.671 140.432 604.295 140.432C607.139 140.432 610.199 139.46 612.215 137.732L609.911 133.376C608.399 134.384 606.635 135.248 604.799 135.248C602.819 135.248 600.947 134.204 600.479 131.936H612.179C612.251 131.288 612.323 130.64 612.323 129.992C612.323 124.844 609.227 121.028 603.755 121.028C597.779 121.028 594.107 125.276 594.107 130.712ZM600.623 128.372C600.947 126.896 601.811 125.6 603.611 125.6C605.195 125.6 606.167 126.86 606.167 128.372H600.623ZM614.068 140.18C621.268 140.18 623.428 134.996 623.428 127.436V126.392H626.524V140H632.752V121.46H617.56V127.4C617.56 133.772 615.724 134.528 614.068 134.744V140.18ZM635.152 140H641.74L645.304 134.348H646.6V140H652.828V121.46H643.108C639.004 121.46 636.412 123.836 636.412 127.724C636.412 130.1 637.744 132.224 639.76 133.232V133.268C639.76 133.268 639.4 133.628 638.896 134.384L635.152 140ZM645.124 130.208C643.648 130.208 642.604 129.452 642.604 127.688C642.604 125.96 643.648 125.312 645.088 125.312H646.6V130.208H645.124ZM655.298 140H662.138L664.334 135.824C664.514 135.5 664.766 134.888 664.766 134.888H664.838C664.838 134.888 665.09 135.5 665.27 135.824L667.502 140H674.342L668.51 130.82L674.45 121.46H667.43L665.414 125.6C665.198 126.068 664.838 126.824 664.838 126.824H664.766C664.766 126.824 664.442 126.068 664.19 125.6L662.174 121.46H655.154L661.13 130.82L655.298 140ZM692.623 135.068C693.919 132.584 694.279 129.884 694.279 127.076V126.392H697.483V135.068H692.623ZM684.199 135.068V144.32H689.959V140H700.831V144.32H706.375V135.068H703.711V121.46H688.411V125.924C688.411 129.668 687.727 132.98 686.503 135.068H684.199ZM707.865 140.18C715.065 140.18 717.225 134.996 717.225 127.436V126.392H720.321V140H726.549V121.46H711.357V127.4C711.357 133.772 709.521 134.528 707.865 134.744V140.18ZM728.949 140H735.537L739.101 134.348H740.397V140H746.625V121.46H736.905C732.801 121.46 730.209 123.836 730.209 127.724C730.209 130.1 731.541 132.224 733.557 133.232V133.268C733.557 133.268 733.197 133.628 732.693 134.384L728.949 140ZM738.921 130.208C737.445 130.208 736.401 129.452 736.401 127.688C736.401 125.96 737.445 125.312 738.885 125.312H740.397V130.208H738.921ZM759.787 140H769.903C773.575 140 776.959 138.56 776.959 134.492C776.959 132.872 776.167 131.036 774.043 130.388V130.352C775.447 129.524 776.203 127.868 776.203 126.32C776.203 123.116 773.611 121.46 769.903 121.46H759.787V140ZM766.015 128.768V125.312H768.283C769.507 125.312 770.011 126.068 770.011 126.932C770.011 127.904 769.507 128.768 768.355 128.768H766.015ZM766.015 136.112V132.404H768.787C770.119 132.404 770.731 133.268 770.731 134.276C770.731 135.212 770.083 136.112 768.751 136.112H766.015ZM778.63 137.696C780.646 139.496 783.634 140.432 786.37 140.432C790.762 140.432 794.038 138.452 794.038 134.528C794.038 132.368 792.562 131.072 791.158 130.424V130.352C792.274 129.74 793.462 128.48 793.462 126.176C793.462 122.972 790.438 121.028 786.622 121.028C783.238 121.028 780.862 121.928 779.134 123.116L780.934 126.968C782.878 125.816 784.318 125.564 785.326 125.564C786.91 125.564 787.27 126.248 787.27 127.04C787.27 128.192 786.37 128.48 785.398 128.48H783.526V132.584H785.794C787.486 132.584 787.81 133.232 787.81 134.132C787.81 134.996 787.306 135.752 785.578 135.752C784.102 135.752 782.266 134.852 781.114 133.808L778.63 137.696ZM797.193 147.2H803.421V140.252C803.421 139.316 803.349 138.668 803.349 138.668H803.421C804.753 139.82 806.409 140.432 808.137 140.432C813.069 140.432 816.777 136.616 816.777 130.748C816.777 124.988 813.465 121.028 808.425 121.028C806.193 121.028 804.069 121.892 802.809 123.584H802.737C802.737 123.584 802.809 123.008 802.809 122.396V121.46H797.193V147.2ZM803.241 130.856C803.241 127.652 805.005 126.284 806.877 126.284C809.037 126.284 810.513 128.084 810.513 130.856C810.513 133.7 808.821 135.284 806.877 135.284C804.429 135.284 803.241 133.088 803.241 130.856ZM818.931 130.784C818.931 136.58 823.611 140.432 829.443 140.432C835.275 140.432 839.955 136.58 839.955 130.784C839.955 124.952 835.275 121.028 829.407 121.028C823.611 121.028 818.931 124.952 818.931 130.784ZM825.231 130.784C825.231 127.976 827.175 126.212 829.443 126.212C831.711 126.212 833.655 127.976 833.655 130.784C833.655 133.556 831.711 135.248 829.443 135.248C827.175 135.248 825.231 133.556 825.231 130.784ZM842.028 130.712C842.028 135.824 845.736 140.432 852.36 140.432C855.456 140.432 858.48 139.244 860.316 137.372L858.048 133.016C856.716 134.168 854.772 135.248 852.972 135.248C849.84 135.248 848.328 132.836 848.328 130.64C848.328 128.444 849.804 126.212 852.756 126.212C854.376 126.212 856.032 126.968 857.112 128.012L859.74 123.836C857.904 121.856 854.952 121.028 852.36 121.028C845.7 121.028 842.028 125.744 842.028 130.712ZM861.568 140.18C868.768 140.18 870.928 134.996 870.928 127.436V126.392H874.024V140H880.252V121.46H865.06V127.4C865.06 133.772 863.224 134.528 861.568 134.744V140.18ZM902.92 140H909.148V121.46H902.92V140ZM884.416 140H893.452C898.636 140 900.796 137.444 900.796 133.664C900.796 129.92 898.636 127.256 893.452 127.256H890.644V121.46H884.416V140ZM890.644 135.932V131.288H892.192C893.776 131.288 894.568 132.332 894.568 133.628C894.568 134.924 893.776 135.932 892.3 135.932H890.644ZM911.623 140H918.463L920.659 135.824C920.839 135.5 921.091 134.888 921.091 134.888H921.163C921.163 134.888 921.415 135.5 921.595 135.824L923.827 140H930.667L924.835 130.82L930.775 121.46H923.755L921.739 125.6C921.523 126.068 921.163 126.824 921.163 126.824H921.091C921.091 126.824 920.767 126.068 920.515 125.6L918.499 121.46H911.479L917.455 130.82L911.623 140Z" fill="#222224"/>
<g clip-path="url(#clip0)">
<path d="M0 4.40122C0 2.86065 0 2.09037 0.299609 1.50195C0.563153 0.984356 0.983678 0.563541 1.50091 0.299816C2.08893 0 2.85869 0 4.3982 0H504.602C506.141 0 506.911 0 507.499 0.299816C508.016 0.563541 508.437 0.984356 508.7 1.50195C509 2.09037 509 2.86066 509 4.40123V293.599C509 295.139 509 295.91 508.7 296.498C508.437 297.016 508.016 297.436 507.499 297.7C506.911 298 506.141 298 504.602 298H4.39818C2.85868 298 2.08893 298 1.50091 297.7C0.983678 297.436 0.563153 297.016 0.299609 296.498C0 295.91 0 295.139 0 293.599V4.40122Z" fill="#F3F3F3"/>
<rect x="93" y="189" width="285" height="122" rx="4" fill="white"/>
<rect x="160" y="26" width="250" height="140" rx="2" fill="white"/>
<path d="M177 40.4545C177 39.9454 177 39.6908 177.058 39.4964C177.108 39.3253 177.189 39.1862 177.288 39.0991C177.401 39 177.549 39 177.845 39H209.155C209.451 39 209.599 39 209.712 39.0991C209.811 39.1862 209.892 39.3253 209.942 39.4964C210 39.6908 210 39.9454 210 40.4545V42.5455C210 43.0546 210 43.3092 209.942 43.5036C209.892 43.6747 209.811 43.8138 209.712 43.9009C209.599 44 209.451 44 209.155 44H177.845C177.549 44 177.401 44 177.288 43.9009C177.189 43.8138 177.108 43.6747 177.058 43.5036C177 43.3092 177 43.0546 177 42.5455V40.4545Z" fill="#424754"/>
<path d="M380 40.4545C380 39.9454 380 39.6908 380.026 39.4964C380.049 39.3253 380.086 39.1862 380.131 39.0991C380.182 39 380.25 39 380.384 39H394.616C394.75 39 394.818 39 394.869 39.0991C394.914 39.1862 394.951 39.3253 394.974 39.4964C395 39.6908 395 39.9454 395 40.4545V42.5455C395 43.0546 395 43.3092 394.974 43.5036C394.951 43.6747 394.914 43.8138 394.869 43.9009C394.818 44 394.75 44 394.616 44H380.384C380.25 44 380.182 44 380.131 43.9009C380.086 43.8138 380.049 43.6747 380.026 43.5036C380 43.3092 380 43.0546 380 42.5455V40.4545Z" fill="#97999D"/>
<path d="M177 138.945C177 137.214 177 136.349 177.03 135.688C177.056 135.106 177.097 134.633 177.149 134.337C177.207 134 177.283 134 177.435 134H193.565C193.717 134 193.793 134 193.851 134.337C193.903 134.633 193.944 135.106 193.97 135.688C194 136.349 194 137.214 194 138.945V146.055C194 147.786 194 148.651 193.97 149.312C193.944 149.894 193.903 150.367 193.851 150.663C193.793 151 193.717 151 193.565 151H177.435C177.283 151 177.207 151 177.149 150.663C177.097 150.367 177.056 149.894 177.03 149.312C177 148.651 177 147.786 177 146.055V138.945Z" fill="#F04B5D"/>
<path d="M201 138.945C201 137.214 201 136.349 201.03 135.688C201.056 135.106 201.097 134.633 201.149 134.337C201.207 134 201.283 134 201.435 134H217.565C217.717 134 217.793 134 217.851 134.337C217.903 134.633 217.944 135.106 217.97 135.688C218 136.349 218 137.214 218 138.945V146.055C218 147.786 218 148.651 217.97 149.312C217.944 149.894 217.903 150.367 217.851 150.663C217.793 151 217.717 151 217.565 151H201.435C201.283 151 201.207 151 201.149 150.663C201.097 150.367 201.056 149.894 201.03 149.312C201 148.651 201 147.786 201 146.055V138.945Z" fill="#E0E0E0"/>
<path d="M225 138.945C225 137.214 225 136.349 225.03 135.688C225.056 135.106 225.097 134.633 225.149 134.337C225.207 134 225.283 134 225.435 134H241.565C241.717 134 241.793 134 241.851 134.337C241.903 134.633 241.944 135.106 241.97 135.688C242 136.349 242 137.214 242 138.945V146.055C242 147.786 242 148.651 241.97 149.312C241.944 149.894 241.903 150.367 241.851 150.663C241.793 151 241.717 151 241.565 151H225.435C225.283 151 225.207 151 225.149 150.663C225.097 150.367 225.056 149.894 225.03 149.312C225 148.651 225 147.786 225 146.055V138.945Z" fill="#E0E0E0"/>
<path d="M250 138.945C250 137.214 250 136.349 250.03 135.688C250.056 135.106 250.097 134.633 250.149 134.337C250.207 134 250.283 134 250.435 134H266.565C266.717 134 266.793 134 266.851 134.337C266.903 134.633 266.944 135.106 266.97 135.688C267 136.349 267 137.214 267 138.945V146.055C267 147.786 267 148.651 266.97 149.312C266.944 149.894 266.903 150.367 266.851 150.663C266.793 151 266.717 151 266.565 151H250.435C250.283 151 250.207 151 250.149 150.663C250.097 150.367 250.056 149.894 250.03 149.312C250 148.651 250 147.786 250 146.055V138.945Z" fill="#E0E0E0"/>
<mask id="mask0" mask-type="alpha" maskUnits="userSpaceOnUse" x="160" y="26" width="250" height="140">
<rect x="160" y="26" width="250" height="140" rx="2" fill="white"/>
</mask>
<g mask="url(#mask0)">
<circle cx="469.5" cy="95.5" r="146" stroke="#E1EAF7"/>
<circle cx="435" cy="121" r="120.5" stroke="#E1EAF7"/>
<circle cx="417.5" cy="114.5" r="127" stroke="#E1EAF7"/>
</g>
<path d="M428.728 164.163H422.465C422.465 164.163 415.576 169.173 416.202 174.809C416.829 180.445 404.93 229.294 404.93 235.557C404.93 241.819 402.425 243.698 402.425 247.456C402.425 251.213 403.677 253.718 402.425 255.597C401.172 257.476 398.667 268.749 399.293 273.132C399.657 276.044 399.657 278.989 399.293 281.9H414.95C414.95 281.9 426.223 243.698 428.728 241.819C431.233 239.941 432.485 236.809 432.485 234.93C432.485 233.052 431.233 233.052 434.364 230.547C437.495 228.041 435.616 216.769 435.616 216.769L440 205.496L428.728 164.163Z" fill="#D6D3E8"/>
<path d="M341.051 262.799C341.051 262.799 335.415 290.355 344.809 287.85C354.202 285.345 350.445 261.547 350.445 261.547L341.051 262.799Z" fill="#A0616A"/>
<path d="M361.091 255.284C361.091 255.284 353.576 265.304 353.576 270.941C353.576 276.577 351.071 326.678 351.071 326.678C351.071 326.678 337.293 390.557 341.051 394.314C344.808 398.072 356.081 403.708 357.96 401.83C359.839 399.951 372.99 331.688 372.99 331.688L388.647 289.728L403.051 349.85C403.051 349.85 402.425 401.83 404.93 402.456C407.435 403.082 408.687 403.708 407.435 406.213C406.182 408.719 404.303 413.729 404.303 413.729C404.303 413.729 419.96 417.486 423.091 414.981C426.223 412.476 426.849 351.729 423.091 330.436C419.334 309.143 423.717 260.294 423.717 260.294L361.091 255.284Z" fill="#2F2E41"/>
<path d="M383.95 134.102C394.326 134.102 402.738 125.69 402.738 115.314C402.738 104.938 394.326 96.5261 383.95 96.5261C373.574 96.5261 365.162 104.938 365.162 115.314C365.162 125.69 373.574 134.102 383.95 134.102Z" fill="#A0616A"/>
<path d="M378.313 127.213C378.313 127.213 380.818 140.365 378.313 144.122C375.808 147.88 412.132 145.375 412.132 145.375C412.132 145.375 394.596 125.334 396.475 121.577C398.354 117.819 378.313 127.213 378.313 127.213Z" fill="#A0616A"/>
<path d="M362.344 148.819C362.344 148.819 374.869 132.536 390.526 135.668C394.753 136.513 398.615 137.358 402 138.142C413.93 140.904 423.85 149.406 427.926 160.953C428.983 163.947 429.511 166.824 429.041 169.173C427.162 178.567 428.102 252.779 428.102 252.779C428.102 252.779 423.092 254.658 423.718 257.163C424.344 259.668 428.728 262.799 424.344 262.799C419.96 262.799 353.576 260.294 354.829 258.415C356.082 256.536 362.344 148.819 362.344 148.819Z" fill="#D0CDE1"/>
<path d="M368.606 148.819H362.343C362.343 148.819 355.454 153.829 356.08 159.466C356.707 165.102 344.807 213.951 344.807 220.213C344.807 226.476 342.302 228.355 342.302 232.112C342.302 235.87 343.555 238.375 342.302 240.254C341.05 242.132 338.545 253.405 339.171 257.789C339.535 260.7 339.535 263.645 339.171 266.557H354.828C354.828 266.557 366.1 228.355 368.606 226.476C371.111 224.597 372.363 221.466 372.363 219.587C372.363 217.708 371.111 217.708 374.242 215.203C377.373 212.698 375.494 201.425 375.494 201.425L379.878 190.152L368.606 148.819Z" fill="#D0CDE1"/>
<path opacity="0.1" d="M359.476 257.589L378.313 216.142L368.895 260.221L359.476 257.589Z" fill="black"/>
<path d="M377.395 86.9022L377.405 85.3519C378.7 85.1872 380.012 85.2332 381.292 85.4881C381.306 84.5522 381.112 83.625 380.723 82.7734C382.013 82.9431 383.268 83.3165 384.44 83.8796L384.872 81L396.089 84.9311C400.115 86.3422 404.371 87.9134 406.984 91.2861C409.897 95.0461 410.109 100.307 408.99 104.931C407.872 109.554 405.597 113.802 403.899 118.245C403.28 120.142 402.482 121.976 401.516 123.722C398.126 129.188 390.472 131.138 384.474 128.816C382.261 127.959 380.17 126.531 379.049 124.439C378.475 123.141 377.986 121.807 377.586 120.446C376.544 117.685 375.022 111.908 372.492 110.388C371.379 109.72 369.681 112.591 368.719 111.718C366.249 109.474 366.234 105.552 367.212 102.361C368.134 99.1628 369.286 96.0357 370.658 93.0039C371.247 91.7805 377.397 86.7162 377.395 86.9022Z" fill="#2F2E41"/>
<rect x="62" y="69" width="82" height="97" rx="2" fill="white"/>
<rect x="137.143" y="129" width="20" height="20" rx="2" transform="rotate(45 137.143 129)" fill="white"/>
<path d="M73 77.1636C73 76.7563 73 76.5527 73.0244 76.3971C73.0459 76.2603 73.0802 76.149 73.1223 76.0793C73.1702 76 73.2329 76 73.3584 76H86.6416C86.7671 76 86.8298 76 86.8777 76.0793C86.9198 76.149 86.9541 76.2603 86.9756 76.3971C87 76.5527 87 76.7563 87 77.1636V78.8364C87 79.2437 87 79.4473 86.9756 79.6029C86.9541 79.7397 86.9198 79.851 86.8777 79.9207C86.8298 80 86.7671 80 86.6416 80H73.3584C73.2329 80 73.1702 80 73.1223 79.9207C73.0802 79.851 73.0459 79.7397 73.0244 79.6029C73 79.4473 73 79.2437 73 78.8364V77.1636Z" fill="#424754"/>
<g filter="url(#filter0_d)">
<path d="M82.7255 110.29C82.2517 110.086 81.7008 110.305 81.5166 110.786C79.8755 115.079 79.5553 119.772 80.6094 124.26C81.7348 129.051 84.3673 133.354 88.12 136.538C91.8727 139.722 96.5477 141.618 101.458 141.948C106.368 142.278 111.255 141.024 115.4 138.371C119.545 135.718 122.729 131.805 124.486 127.208C126.242 122.61 126.477 117.571 125.157 112.83C123.837 108.089 121.031 103.896 117.151 100.868C113.517 98.0324 109.121 96.358 104.536 96.0513C104.021 96.0169 103.592 96.4258 103.578 96.9412C103.565 97.4567 103.972 97.8833 104.487 97.9196C108.672 98.2147 112.683 99.7502 116.002 102.341C119.567 105.123 122.145 108.975 123.358 113.331C124.571 117.687 124.355 122.317 122.741 126.541C121.128 130.765 118.202 134.361 114.393 136.798C110.585 139.236 106.095 140.388 101.583 140.085C97.0716 139.782 92.7761 138.04 89.3281 135.114C85.88 132.189 83.4613 128.235 82.4272 123.833C81.4645 119.734 81.7494 115.449 83.2338 111.524C83.4162 111.042 83.1993 110.493 82.7255 110.29Z" fill="#27AE60"/>
</g>
<path d="M96.0566 117.603C96.0566 117.029 96.0566 116.742 96.0801 116.522C96.1007 116.329 96.1337 116.172 96.1742 116.074C96.2202 115.962 96.2805 115.962 96.401 115.962H109.165C109.286 115.962 109.346 115.962 109.392 116.074C109.432 116.172 109.465 116.329 109.486 116.522C109.509 116.742 109.509 117.029 109.509 117.603V119.963C109.509 120.537 109.509 120.824 109.486 121.044C109.465 121.237 109.432 121.394 109.392 121.492C109.346 121.604 109.286 121.604 109.165 121.604H96.401C96.2805 121.604 96.2202 121.604 96.1742 121.492C96.1337 121.394 96.1007 121.237 96.0801 121.044C96.0566 120.824 96.0566 120.537 96.0566 119.963V117.603Z" fill="#424754"/>
<path d="M85.6416 148.273C85.6416 148.052 85.6416 147.941 85.7014 147.857C85.754 147.783 85.8379 147.722 85.9411 147.685C86.0584 147.642 86.212 147.642 86.5192 147.642H119.047C119.354 147.642 119.508 147.642 119.625 147.685C119.728 147.722 119.812 147.783 119.865 147.857C119.925 147.941 119.925 148.052 119.925 148.273V149.18C119.925 149.401 119.925 149.512 119.865 149.596C119.812 149.67 119.728 149.731 119.625 149.768C119.508 149.811 119.354 149.811 119.047 149.811H86.5192C86.212 149.811 86.0584 149.811 85.9411 149.768C85.8379 149.731 85.754 149.67 85.7014 149.596C85.6416 149.512 85.6416 149.401 85.6416 149.18V148.273Z" fill="#97999D"/>
<path d="M165 220.929H123V273.506H165V220.929Z" fill="#3F3D56"/>
<path d="M151 233H129V236H151V233Z" fill="white"/>
<path d="M159 244H129V246H159V244Z" fill="white"/>
<path d="M159 249H129V251H159V249Z" fill="white"/>
<path d="M159 254H129V256H159V254Z" fill="white"/>
<path d="M159 259H129V261H159V259Z" fill="white"/>
<path d="M147.036 220.183V218.82C147.036 218.072 146.738 217.355 146.209 216.826C145.68 216.297 144.962 216 144.214 216C143.466 216 142.749 216.297 142.219 216.826C141.69 217.355 141.393 218.072 141.392 218.82V220.183H136.04V223.199H152.389V220.183H147.036ZM144.214 216.777C144.542 216.777 144.861 216.874 145.133 217.056C145.405 217.237 145.617 217.496 145.743 217.798C145.868 218.1 145.901 218.433 145.837 218.754C145.773 219.075 145.615 219.37 145.384 219.601C145.153 219.832 144.858 219.99 144.537 220.054C144.216 220.117 143.884 220.085 143.581 219.96C143.279 219.834 143.021 219.622 142.839 219.35C142.657 219.078 142.56 218.758 142.56 218.431C142.56 218.214 142.603 217.999 142.686 217.798C142.769 217.597 142.891 217.415 143.045 217.261C143.198 217.108 143.381 216.986 143.581 216.903C143.782 216.82 143.997 216.777 144.214 216.777Z" fill="#F04B5D"/>
<path fill-rule="evenodd" clip-rule="evenodd" d="M249.45 70.8009C250.282 71.1333 251.047 71.4843 251.736 71.8477C253.121 72.5782 254.146 73.3327 254.784 74.0468C255.427 74.7662 255.583 75.3293 255.522 75.7399C255.462 76.1505 255.151 76.6449 254.328 77.1487C253.511 77.6487 252.312 78.0761 250.776 78.3767C249.895 78.5491 248.921 78.6762 247.872 78.754C247.611 79.1241 247.326 79.4758 247.019 79.8066C252.369 79.5625 256.181 78.1286 256.512 75.8855C256.829 73.7243 253.836 71.3515 249.097 69.5936C249.239 69.9852 249.357 70.3882 249.45 70.8009ZM231.65 67.0554C226.679 67.3905 223.189 68.7944 222.874 70.9362C222.547 73.1591 225.724 75.606 230.699 77.3773C230.502 76.9729 230.331 76.5533 230.189 76.1207C229.258 75.7589 228.407 75.374 227.649 74.9739C226.264 74.2435 225.239 73.4889 224.601 72.7749C223.958 72.0554 223.803 71.4923 223.863 71.0817C223.923 70.6711 224.234 70.1767 225.057 69.6729C225.874 69.173 227.073 68.7455 228.609 68.4449C229.335 68.3029 230.124 68.1916 230.966 68.1133C231.172 67.7457 231.401 67.3924 231.65 67.0554Z" fill="#8A8D95"/>
<path d="M249.692 73C249.692 78.5228 245.215 83 239.692 83C234.17 83 229.692 78.5228 229.692 73C229.692 67.4772 234.17 63 239.692 63C245.215 63 249.692 67.4772 249.692 73Z" fill="#424754"/>
<path d="M256.017 75.8126C255.926 76.4277 255.478 77.0307 254.589 77.5751C253.703 78.1175 252.44 78.5604 250.872 78.8673C247.739 79.4802 243.496 79.5295 238.892 78.8522C234.288 78.1748 230.239 76.9053 227.415 75.4161C226.002 74.6704 224.921 73.8827 224.228 73.108C223.533 72.3305 223.278 71.624 223.368 71.0089C223.459 70.3938 223.907 69.7908 224.796 69.2464C225.683 68.704 226.945 68.2611 228.513 67.9541C231.646 67.3412 235.89 67.292 240.493 67.9693C245.097 68.6467 249.146 69.9161 251.97 71.4054C253.383 72.1511 254.465 72.9388 255.157 73.7135C255.852 74.4909 256.107 75.1975 256.017 75.8126Z" stroke="#8A8D95"/>
<path d="M246.692 79C246.692 80.1046 245.797 81 244.692 81C243.588 81 242.692 80.1046 242.692 79C242.692 77.8954 243.588 77 244.692 77C245.797 77 246.692 77.8954 246.692 79Z" fill="#F04B5D"/>
<mask id="mask1" mask-type="alpha" maskUnits="userSpaceOnUse" x="229" y="63" width="21" height="20">
<path d="M249.692 73C249.692 78.5228 245.215 83 239.692 83C234.17 83 229.692 78.5228 229.692 73C229.692 67.4772 234.17 63 239.692 63C245.215 63 249.692 67.4772 249.692 73Z" fill="#424754"/>
</mask>
<g mask="url(#mask1)">
<rect x="227.692" y="60" width="23" height="14" fill="#424754"/>
</g>
<path d="M328 69C328 70.1046 327.105 71 326 71C324.895 71 324 70.1046 324 69C324 67.8954 324.895 67 326 67C327.105 67 328 67.8954 328 69Z" fill="#424754"/>
<path d="M293 104C293 105.105 292.105 106 291 106C289.895 106 289 105.105 289 104C289 102.895 289.895 102 291 102C292.105 102 293 102.895 293 104Z" fill="#424754"/>
<path d="M319 146C319 147.105 318.105 148 317 148C315.895 148 315 147.105 315 146C315 144.895 315.895 144 317 144C318.105 144 319 144.895 319 146Z" fill="#424754"/>
<rect x="226" y="269" width="79" height="10" fill="#3F3D56"/>
<rect x="231" y="248" width="4" height="21" fill="#424754"/>
<rect x="296" y="248" width="4" height="21" fill="#424754"/>
<rect x="273" y="253" width="23" height="2" fill="#E0E0E0"/>
<rect x="235" y="253" width="23" height="2" fill="#E0E0E0"/>
<circle cx="265.5" cy="253.5" r="8" stroke="#F04B5D" stroke-width="3"/>
</g>
<path d="M570.882 188.556C570.882 192.3 573.744 195.216 577.416 195.216C581.088 195.216 583.932 192.3 583.932 188.556C583.932 184.902 581.088 182.076 577.416 182.076C573.744 182.076 570.882 184.902 570.882 188.556ZM572.718 188.556C572.718 185.802 574.806 183.696 577.416 183.696C580.008 183.696 582.096 185.802 582.096 188.556C582.096 191.4 580.008 193.578 577.416 193.578C574.806 193.578 572.718 191.4 572.718 188.556ZM585.772 189.762C585.772 192.912 587.158 195.216 590.236 195.216C592.81 195.216 594.538 193.416 594.538 190.896C594.538 188.322 592.954 186.702 590.668 186.702C589.462 186.702 588.256 187.098 587.446 188.322H587.41C587.536 186.576 588.4 185.514 590.218 184.686L593.71 183.228L593.134 181.788L589.876 183.192C586.708 184.524 585.772 186.504 585.772 189.762ZM587.59 190.896C587.59 189.294 588.688 188.088 590.236 188.088C591.604 188.088 592.774 189.15 592.774 190.932C592.774 192.696 591.604 193.74 590.164 193.74C588.76 193.74 587.59 192.696 587.59 190.896ZM596.715 195H598.461V191.094H603.069V195H604.815V185.892H603.069V189.6H598.461V185.892H596.715V195ZM606.914 190.428C606.914 193.2 609.11 195.216 611.828 195.216C614.528 195.216 616.724 193.2 616.724 190.428C616.724 187.674 614.528 185.676 611.81 185.676C609.11 185.676 606.914 187.674 606.914 190.428ZM608.696 190.428C608.696 188.538 610.1 187.188 611.828 187.188C613.538 187.188 614.96 188.538 614.96 190.428C614.96 192.336 613.538 193.704 611.828 193.704C610.1 193.704 608.696 192.336 608.696 190.428ZM618.829 195H622.717C624.697 195 626.065 194.1 626.065 192.408C626.065 191.4 625.471 190.518 624.337 190.248V190.23C625.165 189.87 625.633 189.114 625.633 188.232C625.633 186.702 624.427 185.892 622.591 185.892H618.829V195ZM620.575 189.744V187.098H622.231C623.329 187.098 623.851 187.53 623.851 188.358C623.851 189.204 623.329 189.744 622.285 189.744H620.575ZM620.575 193.776V190.914H622.429C623.635 190.914 624.301 191.454 624.301 192.354C624.301 193.2 623.707 193.776 622.447 193.776H620.575ZM628.18 195H629.854L633.796 189.564C634.084 189.132 634.534 188.52 634.588 188.358H634.624C634.624 188.502 634.57 189.132 634.57 189.564V195H636.262V185.892H634.57L630.646 191.328C630.34 191.76 629.908 192.39 629.836 192.552H629.8C629.818 192.462 629.854 191.814 629.854 191.328V185.892H628.18V195ZM638.56 195H640.252L640.648 189.582C640.684 189.042 640.63 188.016 640.63 188.016H640.666C640.666 188.016 640.954 188.7 641.242 189.366L643.402 193.902H644.896L647.056 189.348C647.398 188.646 647.632 188.016 647.632 188.016H647.668C647.668 188.016 647.632 189.042 647.65 189.582L648.046 195H649.738L648.946 185.892H647.038L644.662 191.04C644.428 191.598 644.158 192.264 644.158 192.264H644.122C644.122 192.264 643.87 191.58 643.618 191.04L641.296 185.892H639.352L638.56 195ZM656.19 189.762C656.19 192.912 657.576 195.216 660.654 195.216C663.228 195.216 664.956 193.416 664.956 190.896C664.956 188.322 663.372 186.702 661.086 186.702C659.88 186.702 658.674 187.098 657.864 188.322H657.828C657.954 186.576 658.818 185.514 660.636 184.686L664.128 183.228L663.552 181.788L660.294 183.192C657.126 184.524 656.19 186.504 656.19 189.762ZM658.008 190.896C658.008 189.294 659.106 188.088 660.654 188.088C662.022 188.088 663.192 189.15 663.192 190.932C663.192 192.696 662.022 193.74 660.582 193.74C659.178 193.74 658.008 192.696 658.008 190.896ZM666.377 192.516C666.377 194.226 667.835 195.216 669.419 195.216C670.769 195.216 671.885 194.406 672.407 193.362H672.443C672.443 193.362 672.389 193.668 672.389 194.082V195H674.027V189.24C674.027 186.936 672.713 185.676 670.427 185.676C669.149 185.676 667.763 186.144 667.025 186.756L667.727 188.034C668.465 187.512 669.383 187.152 670.283 187.152C671.417 187.152 672.281 187.656 672.281 189.15V189.33H671.813C669.923 189.33 666.377 189.654 666.377 192.516ZM668.123 192.372C668.123 190.698 670.535 190.59 671.831 190.59H672.281V190.932C672.281 192.282 671.363 193.83 669.833 193.83C668.699 193.83 668.123 193.092 668.123 192.372ZM675.726 193.884C676.482 194.604 677.67 195.216 679.074 195.216C680.946 195.216 682.566 194.262 682.566 192.39C682.566 191.22 681.846 190.536 680.928 190.248V190.212C681.648 189.906 682.26 189.276 682.26 188.142C682.26 186.522 680.91 185.676 679.182 185.676C677.742 185.676 676.716 186.144 676.014 186.666L676.662 187.836C677.364 187.314 678.084 187.044 678.876 187.044C679.884 187.044 680.496 187.512 680.496 188.358C680.496 189.276 679.794 189.672 678.768 189.672H677.814V190.932H678.93C680.208 190.932 680.802 191.436 680.802 192.318C680.802 193.308 679.956 193.812 678.912 193.812C677.814 193.812 676.95 193.164 676.536 192.732L675.726 193.884ZM684.082 190.428C684.082 193.2 686.278 195.216 688.996 195.216C691.696 195.216 693.892 193.2 693.892 190.428C693.892 187.674 691.696 185.676 688.978 185.676C686.278 185.676 684.082 187.674 684.082 190.428ZM685.864 190.428C685.864 188.538 687.268 187.188 688.996 187.188C690.706 187.188 692.128 188.538 692.128 190.428C692.128 192.336 690.706 193.704 688.996 193.704C687.268 193.704 685.864 192.336 685.864 190.428ZM695.996 195H699.884C701.864 195 703.232 194.1 703.232 192.408C703.232 191.4 702.638 190.518 701.504 190.248V190.23C702.332 189.87 702.8 189.114 702.8 188.232C702.8 186.702 701.594 185.892 699.758 185.892H695.996V195ZM697.742 189.744V187.098H699.398C700.496 187.098 701.018 187.53 701.018 188.358C701.018 189.204 700.496 189.744 699.452 189.744H697.742ZM697.742 193.776V190.914H699.596C700.802 190.914 701.468 191.454 701.468 192.354C701.468 193.2 700.874 193.776 699.614 193.776H697.742ZM713.592 195H715.338V185.892H713.592V195ZM705.348 195H708.858C711.144 195 712.188 193.83 712.188 192.12C712.188 190.05 710.766 189.186 708.876 189.186H707.094V185.892H705.348V195ZM707.094 193.74V190.446H708.606C709.866 190.446 710.424 191.13 710.424 192.102C710.424 193.056 709.884 193.74 708.624 193.74H707.094ZM717.445 190.446C717.445 193.146 719.425 195.216 722.287 195.216C723.547 195.216 724.933 194.73 725.815 193.92L725.077 192.642C724.357 193.29 723.367 193.704 722.395 193.704C720.757 193.704 719.353 192.642 719.263 190.68H725.887C725.923 190.428 725.959 190.176 725.959 189.942C725.959 187.602 724.591 185.676 722.017 185.676C719.425 185.676 717.445 187.548 717.445 190.446ZM719.317 189.42C719.569 187.908 720.631 187.026 721.981 187.026C723.169 187.026 724.141 187.854 724.195 189.42H719.317ZM731.677 193.884C732.433 194.604 733.621 195.216 735.025 195.216C736.897 195.216 738.517 194.262 738.517 192.39C738.517 191.22 737.797 190.536 736.879 190.248V190.212C737.599 189.906 738.211 189.276 738.211 188.142C738.211 186.522 736.861 185.676 735.133 185.676C733.693 185.676 732.667 186.144 731.965 186.666L732.613 187.836C733.315 187.314 734.035 187.044 734.827 187.044C735.835 187.044 736.447 187.512 736.447 188.358C736.447 189.276 735.745 189.672 734.719 189.672H733.765V190.932H734.881C736.159 190.932 736.753 191.436 736.753 192.318C736.753 193.308 735.907 193.812 734.863 193.812C733.765 193.812 732.901 193.164 732.487 192.732L731.677 193.884ZM740.627 195H742.373V191.094H746.981V195H748.727V185.892H746.981V189.6H742.373V185.892H740.627V195ZM750.664 192.516C750.664 194.226 752.122 195.216 753.706 195.216C755.056 195.216 756.172 194.406 756.694 193.362H756.73C756.73 193.362 756.676 193.668 756.676 194.082V195H758.314V189.24C758.314 186.936 757 185.676 754.714 185.676C753.436 185.676 752.05 186.144 751.312 186.756L752.014 188.034C752.752 187.512 753.67 187.152 754.57 187.152C755.704 187.152 756.568 187.656 756.568 189.15V189.33H756.1C754.21 189.33 750.664 189.654 750.664 192.516ZM752.41 192.372C752.41 190.698 754.822 190.59 756.118 190.59H756.568V190.932C756.568 192.282 755.65 193.83 754.12 193.83C752.986 193.83 752.41 193.092 752.41 192.372ZM760.895 195H762.641V191.094H767.249V195H768.995V185.892H767.249V189.6H762.641V185.892H760.895V195ZM771.688 195H773.362L777.304 189.564C777.592 189.132 778.042 188.52 778.096 188.358H778.132C778.132 188.502 778.078 189.132 778.078 189.564V195H779.77V185.892H778.078L774.154 191.328C773.848 191.76 773.416 192.39 773.344 192.552H773.308C773.326 192.462 773.362 191.814 773.362 191.328V185.892H771.688V195ZM781.528 195H783.454L785.686 191.706H787.216V195H788.962V185.892H785.326C783.4 185.892 782.068 186.882 782.068 188.754C782.068 190.14 783.004 191.112 784.048 191.4V191.418C784.048 191.418 783.832 191.652 783.634 191.976L781.528 195ZM785.704 190.428C784.642 190.428 783.832 189.87 783.832 188.736C783.832 187.566 784.588 187.098 785.758 187.098H787.216V190.428H785.704ZM796.157 195H797.831L801.773 189.564C802.061 189.132 802.511 188.52 802.565 188.358H802.601C802.601 188.502 802.547 189.132 802.547 189.564V195H804.239V185.892H802.547L798.623 191.328C798.317 191.76 797.885 192.39 797.813 192.552H797.777C797.795 192.462 797.831 191.814 797.831 191.328V185.892H796.157V195ZM811.414 195H813.16V191.094H817.768V195H819.514V185.892H817.768V189.6H813.16V185.892H811.414V195ZM821.451 192.516C821.451 194.226 822.909 195.216 824.493 195.216C825.843 195.216 826.959 194.406 827.481 193.362H827.517C827.517 193.362 827.463 193.668 827.463 194.082V195H829.101V189.24C829.101 186.936 827.787 185.676 825.501 185.676C824.223 185.676 822.837 186.144 822.099 186.756L822.801 188.034C823.539 187.512 824.457 187.152 825.357 187.152C826.491 187.152 827.355 187.656 827.355 189.15V189.33H826.887C824.997 189.33 821.451 189.654 821.451 192.516ZM823.197 192.372C823.197 190.698 825.609 190.59 826.905 190.59H827.355V190.932C827.355 192.282 826.437 193.83 824.907 193.83C823.773 193.83 823.197 193.092 823.197 192.372ZM831.056 196.89L830.444 198.222C830.444 198.222 831.182 198.78 832.19 198.78C833.468 198.78 834.602 198.06 835.142 196.638L839.426 185.892H837.536L835.322 191.868C835.16 192.336 835.016 192.948 835.016 192.948H834.98C834.98 192.948 834.818 192.3 834.638 191.85L832.352 185.892H830.39L834.206 194.892L833.756 195.936C833.414 196.764 832.82 197.286 832.1 197.286C831.56 197.286 831.056 196.89 831.056 196.89ZM843.623 191.832C844.523 191.832 845.513 191.526 846.089 191.166H846.125C846.125 191.166 846.107 191.454 846.107 191.706V195H847.853V185.892H846.107V189.672C845.729 189.942 844.991 190.32 844.091 190.32C842.597 190.32 842.273 189.51 842.273 188.61V185.892H840.563V188.862C840.563 190.806 841.679 191.832 843.623 191.832ZM850.561 195H852.235L856.177 189.564C856.465 189.132 856.915 188.52 856.969 188.358H857.005C857.005 188.502 856.951 189.132 856.951 189.564V195H858.643V185.892H856.951L853.027 191.328C852.721 191.76 852.289 192.39 852.217 192.552H852.181C852.199 192.462 852.235 191.814 852.235 191.328V185.892H850.561V195ZM860.941 195H862.633L863.029 189.582C863.065 189.042 863.011 188.016 863.011 188.016H863.047C863.047 188.016 863.335 188.7 863.623 189.366L865.783 193.902H867.277L869.437 189.348C869.779 188.646 870.013 188.016 870.013 188.016H870.049C870.049 188.016 870.013 189.042 870.031 189.582L870.427 195H872.119L871.327 185.892H869.419L867.043 191.04C866.809 191.598 866.539 192.264 866.539 192.264H866.503C866.503 192.264 866.251 191.58 865.999 191.04L863.677 185.892H861.733L860.941 195ZM570.36 223.09C573.042 222.946 574.086 220.822 574.086 216.7V215.332H576.768V223H578.514V213.892H572.412V216.7C572.412 219.994 571.692 221.326 570.36 221.524V223.09ZM580.617 218.446C580.617 221.146 582.597 223.216 585.459 223.216C586.719 223.216 588.105 222.73 588.987 221.92L588.249 220.642C587.529 221.29 586.539 221.704 585.567 221.704C583.929 221.704 582.525 220.642 582.435 218.68H589.059C589.095 218.428 589.131 218.176 589.131 217.942C589.131 215.602 587.763 213.676 585.189 213.676C582.597 213.676 580.617 215.548 580.617 218.446ZM582.489 217.42C582.741 215.908 583.803 215.026 585.153 215.026C586.341 215.026 587.313 215.854 587.367 217.42H582.489ZM591.231 223H592.977V215.386H596.937V213.892H591.231V223ZM598.666 223H600.412V219.058H601.726L604.444 223H606.514L603.112 218.266V218.23L606.154 213.892H604.174L601.69 217.564H600.412V213.892H598.666V223ZM607.09 218.428C607.09 221.2 609.286 223.216 612.004 223.216C614.704 223.216 616.9 221.2 616.9 218.428C616.9 215.674 614.704 213.676 611.986 213.676C609.286 213.676 607.09 215.674 607.09 218.428ZM608.872 218.428C608.872 216.538 610.276 215.188 612.004 215.188C613.714 215.188 615.136 216.538 615.136 218.428C615.136 220.336 613.714 221.704 612.004 221.704C610.276 221.704 608.872 220.336 608.872 218.428ZM623.504 223H627.392C629.372 223 630.74 222.1 630.74 220.408C630.74 219.4 630.146 218.518 629.012 218.248V218.23C629.84 217.87 630.308 217.114 630.308 216.232C630.308 214.702 629.102 213.892 627.266 213.892H623.504V223ZM625.25 217.744V215.098H626.906C628.004 215.098 628.526 215.53 628.526 216.358C628.526 217.204 628.004 217.744 626.96 217.744H625.25ZM625.25 221.776V218.914H627.104C628.31 218.914 628.976 219.454 628.976 220.354C628.976 221.2 628.382 221.776 627.122 221.776H625.25ZM632.262 218.428C632.262 221.2 634.458 223.216 637.176 223.216C639.876 223.216 642.072 221.2 642.072 218.428C642.072 215.674 639.876 213.676 637.158 213.676C634.458 213.676 632.262 215.674 632.262 218.428ZM634.044 218.428C634.044 216.538 635.448 215.188 637.176 215.188C638.886 215.188 640.308 216.538 640.308 218.428C640.308 220.336 638.886 221.704 637.176 221.704C635.448 221.704 634.044 220.336 634.044 218.428ZM643.582 218.446C643.582 221.182 645.58 223.216 648.46 223.216C649.882 223.216 651.268 222.64 652.096 221.758L651.394 220.48C650.692 221.218 649.594 221.704 648.586 221.704C646.696 221.704 645.364 220.282 645.364 218.428C645.364 216.574 646.696 215.188 648.532 215.188C649.486 215.188 650.44 215.62 651.052 216.232L651.88 215.008C651.016 214.09 649.666 213.676 648.46 213.676C645.598 213.676 643.582 215.746 643.582 218.446ZM653.985 223H655.731V215.386H660.195V223H661.941V213.892H653.985V223ZM664.637 226.6H666.383V222.46C666.383 221.992 666.311 221.668 666.311 221.668H666.347C666.977 222.64 668.021 223.216 669.173 223.216C671.567 223.216 673.295 221.344 673.295 218.446C673.295 215.62 671.765 213.676 669.299 213.676C667.967 213.676 666.815 214.288 666.239 215.386H666.203C666.203 215.386 666.257 215.08 666.257 214.702V213.892H664.637V226.6ZM666.329 218.482C666.329 216.178 667.589 215.206 668.957 215.206C670.469 215.206 671.531 216.484 671.531 218.464C671.531 220.534 670.343 221.704 668.903 221.704C667.229 221.704 666.329 220.102 666.329 218.482ZM675.448 223H677.122L681.064 217.564C681.352 217.132 681.802 216.52 681.856 216.358H681.892C681.892 216.502 681.838 217.132 681.838 217.564V223H683.53V213.892H681.838L677.914 219.328C677.608 219.76 677.176 220.39 677.104 220.552H677.068C677.086 220.462 677.122 219.814 677.122 219.328V213.892H675.448V223ZM686.205 223H687.951V219.094H692.559V223H694.305V213.892H692.559V217.6H687.951V213.892H686.205V223ZM696.998 223H698.672L702.614 217.564C702.902 217.132 703.352 216.52 703.406 216.358H703.442C703.442 216.502 703.388 217.132 703.388 217.564V223H705.08V213.892H703.388L699.464 219.328C699.158 219.76 698.726 220.39 698.654 220.552H698.618C698.636 220.462 698.672 219.814 698.672 219.328V213.892H696.998V223ZM707.378 223H709.07L709.466 217.582C709.502 217.042 709.448 216.016 709.448 216.016H709.484C709.484 216.016 709.772 216.7 710.06 217.366L712.22 221.902H713.714L715.874 217.348C716.216 216.646 716.45 216.016 716.45 216.016H716.486C716.486 216.016 716.45 217.042 716.468 217.582L716.864 223H718.556L717.764 213.892H715.856L713.48 219.04C713.246 219.598 712.976 220.264 712.976 220.264H712.94C712.94 220.264 712.688 219.58 712.436 219.04L710.114 213.892H708.17L707.378 223ZM720.149 220.516C720.149 222.226 721.607 223.216 723.191 223.216C724.541 223.216 725.657 222.406 726.179 221.362H726.215C726.215 221.362 726.161 221.668 726.161 222.082V223H727.799V217.24C727.799 214.936 726.485 213.676 724.199 213.676C722.921 213.676 721.535 214.144 720.797 214.756L721.499 216.034C722.237 215.512 723.155 215.152 724.055 215.152C725.189 215.152 726.053 215.656 726.053 217.15V217.33H725.585C723.695 217.33 720.149 217.654 720.149 220.516ZM721.895 220.372C721.895 218.698 724.307 218.59 725.603 218.59H726.053V218.932C726.053 220.282 725.135 221.83 723.605 221.83C722.471 221.83 721.895 221.092 721.895 220.372ZM732.452 223H734.18V215.386H737.366V213.892H729.284V215.386H732.452V223ZM739.08 223H742.626C744.93 223 745.974 221.83 745.974 220.12C745.974 218.05 744.552 217.186 742.662 217.186H740.826V213.892H739.08V223ZM740.826 221.74V218.446H742.392C743.652 218.446 744.192 219.13 744.192 220.102C744.192 221.056 743.652 221.74 742.392 221.74H740.826ZM751.776 218.428C751.776 221.236 753.882 223.09 756.708 223.216V226.6H758.382V223.216C761.208 223.09 763.296 221.236 763.296 218.428C763.296 215.638 761.208 213.802 758.382 213.694V210.4H756.708V213.694C753.882 213.802 751.776 215.638 751.776 218.428ZM758.382 221.758V215.134C760.236 215.242 761.586 216.448 761.586 218.428C761.586 220.39 760.236 221.632 758.382 221.758ZM753.504 218.428C753.504 216.448 754.836 215.242 756.708 215.134V221.758C754.836 221.632 753.504 220.39 753.504 218.428ZM765.413 223H767.087L771.029 217.564C771.317 217.132 771.767 216.52 771.821 216.358H771.857C771.857 216.502 771.803 217.132 771.803 217.564V223H773.495V213.892H771.803L767.879 219.328C767.573 219.76 767.141 220.39 767.069 220.552H767.033C767.051 220.462 767.087 219.814 767.087 219.328V213.892H765.413V223ZM775.288 221.884C776.044 222.604 777.232 223.216 778.636 223.216C780.508 223.216 782.128 222.262 782.128 220.39C782.128 219.22 781.408 218.536 780.49 218.248V218.212C781.21 217.906 781.822 217.276 781.822 216.142C781.822 214.522 780.472 213.676 778.744 213.676C777.304 213.676 776.278 214.144 775.576 214.666L776.224 215.836C776.926 215.314 777.646 215.044 778.438 215.044C779.446 215.044 780.058 215.512 780.058 216.358C780.058 217.276 779.356 217.672 778.33 217.672H777.376V218.932H778.492C779.77 218.932 780.364 219.436 780.364 220.318C780.364 221.308 779.518 221.812 778.474 221.812C777.376 221.812 776.512 221.164 776.098 220.732L775.288 221.884ZM784.239 223H785.913L789.855 217.564C790.143 217.132 790.593 216.52 790.647 216.358H790.683C790.683 216.502 790.629 217.132 790.629 217.564V223H792.321V213.892H790.629L786.705 219.328C786.399 219.76 785.967 220.39 785.895 220.552H785.859C785.877 220.462 785.913 219.814 785.913 219.328V213.892H784.239V223ZM794.996 223H796.742V219.058H798.056L800.774 223H802.844L799.442 218.266V218.23L802.484 213.892H800.504L798.02 217.564H796.742V213.892H794.996V223ZM803.951 224.89L803.339 226.222C803.339 226.222 804.077 226.78 805.085 226.78C806.363 226.78 807.497 226.06 808.037 224.638L812.321 213.892H810.431L808.217 219.868C808.055 220.336 807.911 220.948 807.911 220.948H807.875C807.875 220.948 807.713 220.3 807.533 219.85L805.247 213.892H803.285L807.101 222.892L806.651 223.936C806.309 224.764 805.715 225.286 804.995 225.286C804.455 225.286 803.951 224.89 803.951 224.89ZM818.534 223H822.422C824.402 223 825.77 222.1 825.77 220.408C825.77 219.4 825.176 218.518 824.042 218.248V218.23C824.87 217.87 825.338 217.114 825.338 216.232C825.338 214.702 824.132 213.892 822.296 213.892H818.534V223ZM820.28 217.744V215.098H821.936C823.034 215.098 823.556 215.53 823.556 216.358C823.556 217.204 823.034 217.744 821.99 217.744H820.28ZM820.28 221.776V218.914H822.134C823.34 218.914 824.006 219.454 824.006 220.354C824.006 221.2 823.412 221.776 822.152 221.776H820.28ZM831.989 217.762C831.989 220.912 833.375 223.216 836.453 223.216C839.027 223.216 840.755 221.416 840.755 218.896C840.755 216.322 839.171 214.702 836.885 214.702C835.679 214.702 834.473 215.098 833.663 216.322H833.627C833.753 214.576 834.617 213.514 836.435 212.686L839.927 211.228L839.351 209.788L836.093 211.192C832.925 212.524 831.989 214.504 831.989 217.762ZM833.807 218.896C833.807 217.294 834.905 216.088 836.453 216.088C837.821 216.088 838.991 217.15 838.991 218.932C838.991 220.696 837.821 221.74 836.381 221.74C834.977 221.74 833.807 220.696 833.807 218.896ZM842.932 223H844.606L848.548 217.564C848.836 217.132 849.286 216.52 849.34 216.358H849.376C849.376 216.502 849.322 217.132 849.322 217.564V223H851.014V213.892H849.322L845.398 219.328C845.092 219.76 844.66 220.39 844.588 220.552H844.552C844.57 220.462 844.606 219.814 844.606 219.328V213.892H842.932V223ZM852.808 221.884C853.564 222.604 854.752 223.216 856.156 223.216C858.028 223.216 859.648 222.262 859.648 220.39C859.648 219.22 858.928 218.536 858.01 218.248V218.212C858.73 217.906 859.342 217.276 859.342 216.142C859.342 214.522 857.992 213.676 856.264 213.676C854.824 213.676 853.798 214.144 853.096 214.666L853.744 215.836C854.446 215.314 855.166 215.044 855.958 215.044C856.966 215.044 857.578 215.512 857.578 216.358C857.578 217.276 856.876 217.672 855.85 217.672H854.896V218.932H856.012C857.29 218.932 857.884 219.436 857.884 220.318C857.884 221.308 857.038 221.812 855.994 221.812C854.896 221.812 854.032 221.164 853.618 220.732L852.808 221.884ZM861.758 223H863.504V219.094H868.112V223H869.858V213.892H868.112V217.6H863.504V213.892H861.758V223ZM871.957 218.446C871.957 221.146 873.937 223.216 876.799 223.216C878.059 223.216 879.445 222.73 880.327 221.92L879.589 220.642C878.869 221.29 877.879 221.704 876.907 221.704C875.269 221.704 873.865 220.642 873.775 218.68H880.399C880.435 218.428 880.471 218.176 880.471 217.942C880.471 215.602 879.103 213.676 876.529 213.676C873.937 213.676 871.957 215.548 871.957 218.446ZM873.829 217.42C874.081 215.908 875.143 215.026 876.493 215.026C877.681 215.026 878.653 215.854 878.707 217.42H873.829ZM881.977 218.446C881.977 221.182 883.975 223.216 886.855 223.216C888.277 223.216 889.663 222.64 890.491 221.758L889.789 220.48C889.087 221.218 887.989 221.704 886.981 221.704C885.091 221.704 883.759 220.282 883.759 218.428C883.759 216.574 885.091 215.188 886.927 215.188C887.881 215.188 888.835 215.62 889.447 216.232L890.275 215.008C889.411 214.09 888.061 213.676 886.855 213.676C883.993 213.676 881.977 215.746 881.977 218.446ZM891.574 218.446C891.574 221.146 893.554 223.216 896.416 223.216C897.676 223.216 899.062 222.73 899.944 221.92L899.206 220.642C898.486 221.29 897.496 221.704 896.524 221.704C894.886 221.704 893.482 220.642 893.392 218.68H900.016C900.052 218.428 900.088 218.176 900.088 217.942C900.088 215.602 898.72 213.676 896.146 213.676C893.554 213.676 891.574 215.548 891.574 218.446ZM893.446 217.42C893.698 215.908 894.76 215.026 896.11 215.026C897.298 215.026 898.27 215.854 898.324 217.42H893.446Z" fill="#424754"/>
<defs>
<filter id="filter0_d" x="60" y="80.0493" width="86" height="85.9507" filterUnits="userSpaceOnUse" color-interpolation-filters="sRGB">
<feFlood flood-opacity="0" result="BackgroundImageFix"/>
<feColorMatrix in="SourceAlpha" type="matrix" values="0 0 0 0 0 0 0 0 0 0 0 0 0 0 0 0 0 0 127 0"/>
<feOffset dy="4"/>
<feGaussianBlur stdDeviation="10"/>
<feColorMatrix type="matrix" values="0 0 0 0 0 0 0 0 0 0 0 0 0 0 0 0 0 0 0.19 0"/>
<feBlend mode="normal" in2="BackgroundImageFix" result="effect1_dropShadow"/>
<feBlend mode="normal" in="SourceGraphic" in2="effect1_dropShadow" result="shape"/>
</filter>
<clipPath id="clip0">
<rect width="509" height="298" fill="white"/>
</clipPath>
</defs>
</svg>
