<svg width="1110" height="298" viewBox="0 0 1110 298" fill="none" xmlns="http://www.w3.org/2000/svg">
<path d="M0 4.40122C0 2.86065 0 2.09037 0.299609 1.50195C0.563153 0.984356 0.983678 0.563541 1.50091 0.299816C2.08893 0 2.85869 0 4.3982 0H504.602C506.141 0 506.911 0 507.499 0.299816C508.016 0.563541 508.437 0.984356 508.7 1.50195C509 2.09037 509 2.86066 509 4.40123V293.599C509 295.139 509 295.91 508.7 296.498C508.437 297.016 508.016 297.436 507.499 297.7C506.911 298 506.141 298 504.602 298H4.39818C2.85868 298 2.08893 298 1.50091 297.7C0.983678 297.436 0.563153 297.016 0.299609 296.498C0 295.91 0 295.139 0 293.599V4.40122Z" fill="#F3F3F3"/>
<path d="M45.2805 124.928C44.1888 124.459 42.9192 124.963 42.4949 126.073C38.713 135.964 37.9753 146.779 40.4044 157.12C42.9977 168.16 49.0638 178.077 57.7113 185.414C66.3589 192.751 77.1317 197.12 88.4468 197.881C99.7619 198.641 111.022 195.752 120.574 189.638C130.125 183.524 137.463 174.507 141.51 163.913C145.557 153.32 146.1 141.707 143.057 130.782C140.015 119.857 133.549 110.196 124.609 103.219C116.235 96.6832 106.104 92.8251 95.5384 92.1182C94.3529 92.0389 93.3642 92.9811 93.333 94.1689C93.3019 95.3567 94.2402 96.3399 95.4255 96.4234C105.071 97.1035 114.313 100.642 121.961 106.611C130.176 113.022 136.117 121.898 138.912 131.936C141.707 141.974 141.209 152.644 137.491 162.378C133.772 172.112 127.03 180.396 118.254 186.014C109.478 191.632 99.1317 194.286 88.7353 193.588C78.3388 192.889 68.4405 188.874 60.4951 182.133C52.5496 175.392 46.976 166.28 44.5932 156.136C42.3747 146.691 43.0312 136.816 46.4518 127.773C46.8722 126.661 46.3722 125.397 45.2805 124.928Z" fill="#27AE60"/>
<path d="M76 141.782C76 140.458 76 139.796 76.0541 139.291C76.1016 138.846 76.1775 138.484 76.2708 138.258C76.3769 138 76.5158 138 76.7936 138H106.206C106.484 138 106.623 138 106.729 138.258C106.823 138.484 106.898 138.846 106.946 139.291C107 139.796 107 140.458 107 141.782V147.218C107 148.542 107 149.204 106.946 149.709C106.898 150.154 106.823 150.516 106.729 150.742C106.623 151 106.484 151 106.206 151H76.7936C76.5158 151 76.3769 151 76.2708 150.742C76.1775 150.516 76.1016 150.154 76.0541 149.709C76 149.204 76 148.542 76 147.218V141.782Z" fill="#424754"/>
<path d="M52 212.455C52 211.945 52 211.691 52.1378 211.496C52.259 211.325 52.4523 211.186 52.6902 211.099C52.9605 211 53.3145 211 54.0224 211H128.978C129.686 211 130.039 211 130.31 211.099C130.548 211.186 130.741 211.325 130.862 211.496C131 211.691 131 211.945 131 212.455V214.545C131 215.055 131 215.309 130.862 215.504C130.741 215.675 130.548 215.814 130.31 215.901C130.039 216 129.686 216 128.978 216H54.0224C53.3145 216 52.9605 216 52.6902 215.901C52.4523 215.814 52.259 215.675 52.1378 215.504C52 215.309 52 215.055 52 214.545V212.455Z" fill="#97999D"/>
<path d="M200.704 157.47C199.552 157.761 198.85 158.933 199.188 160.072C201.806 168.896 206.68 176.899 213.346 183.282C220.531 190.161 229.506 194.879 239.246 196.898C248.986 198.916 259.098 198.152 268.424 194.694C277.751 191.237 285.916 185.224 291.986 177.344C298.057 169.464 301.787 160.035 302.751 150.135C303.714 140.235 301.873 130.263 297.436 121.36C292.999 112.458 286.147 104.983 277.662 99.7916C269.79 94.9748 260.808 92.3036 251.608 92.0244C250.42 91.9883 249.467 92.966 249.479 94.1541C249.491 95.3422 250.465 96.2906 251.652 96.3309C260.044 96.6157 268.233 99.0666 275.416 103.462C283.212 108.232 289.508 115.1 293.585 123.28C297.661 131.46 299.354 140.621 298.468 149.718C297.583 158.814 294.155 167.478 288.578 174.718C283 181.958 275.498 187.483 266.929 190.66C258.359 193.837 249.069 194.539 240.119 192.684C231.17 190.83 222.923 186.494 216.322 180.174C210.239 174.35 205.78 167.057 203.363 159.016C203.021 157.878 201.856 157.178 200.704 157.47Z" fill="#F2994A"/>
<path d="M234 141.782C234 140.458 234 139.796 234.054 139.291C234.102 138.846 234.177 138.484 234.271 138.258C234.377 138 234.516 138 234.794 138H264.206C264.484 138 264.623 138 264.729 138.258C264.823 138.484 264.898 138.846 264.946 139.291C265 139.796 265 140.458 265 141.782V147.218C265 148.542 265 149.204 264.946 149.709C264.898 150.154 264.823 150.516 264.729 150.742C264.623 151 264.484 151 264.206 151H234.794C234.516 151 234.377 151 234.271 150.742C234.177 150.516 234.102 150.154 234.054 149.709C234 149.204 234 148.542 234 147.218V141.782Z" fill="#424754"/>
<path d="M210 212.455C210 211.945 210 211.691 210.138 211.496C210.259 211.325 210.452 211.186 210.69 211.099C210.961 211 211.314 211 212.022 211H286.978C287.686 211 288.039 211 288.31 211.099C288.548 211.186 288.741 211.325 288.862 211.496C289 211.691 289 211.945 289 212.455V214.545C289 215.055 289 215.309 288.862 215.504C288.741 215.675 288.548 215.814 288.31 215.901C288.039 216 287.686 216 286.978 216H212.022C211.314 216 210.961 216 210.69 215.901C210.452 215.814 210.259 215.675 210.138 215.504C210 215.309 210 215.055 210 214.545V212.455Z" fill="#97999D"/>
<path d="M372.045 109.045C371.204 108.204 369.839 108.202 369.033 109.075C361.235 117.533 356.387 128.317 355.255 139.805C354.053 152.008 357.12 164.25 363.932 174.445C370.744 184.641 380.881 192.158 392.615 195.718C404.349 199.277 416.954 198.658 428.282 193.966C439.611 189.273 448.962 180.798 454.742 169.984C460.522 159.17 462.374 146.686 459.982 134.66C457.589 122.634 451.101 111.809 441.623 104.03C432.7 96.7074 421.646 92.5103 410.151 92.0436C408.964 91.9954 408 92.9632 408 94.1514C408 95.3396 408.964 96.2979 410.151 96.3503C420.65 96.8143 430.74 100.665 438.893 107.357C447.602 114.504 453.564 124.45 455.761 135.5C457.959 146.55 456.258 158.02 450.947 167.956C445.636 177.892 437.044 185.679 426.636 189.99C416.227 194.302 404.645 194.871 393.864 191.6C383.083 188.33 373.769 181.422 367.51 172.055C361.251 162.687 358.433 151.439 359.537 140.227C360.571 129.73 364.983 119.872 372.079 112.12C372.881 111.244 372.885 109.885 372.045 109.045Z" fill="#219653"/>
<path d="M392 141.782C392 140.458 392 139.796 392.054 139.291C392.102 138.846 392.177 138.484 392.271 138.258C392.377 138 392.516 138 392.794 138H422.206C422.484 138 422.623 138 422.729 138.258C422.823 138.484 422.898 138.846 422.946 139.291C423 139.796 423 140.458 423 141.782V147.218C423 148.542 423 149.204 422.946 149.709C422.898 150.154 422.823 150.516 422.729 150.742C422.623 151 422.484 151 422.206 151H392.794C392.516 151 392.377 151 392.271 150.742C392.177 150.516 392.102 150.154 392.054 149.709C392 149.204 392 148.542 392 147.218V141.782Z" fill="#424754"/>
<path d="M368 212.455C368 211.945 368 211.691 368.138 211.496C368.259 211.325 368.452 211.186 368.69 211.099C368.961 211 369.314 211 370.022 211H444.978C445.686 211 446.039 211 446.31 211.099C446.548 211.186 446.741 211.325 446.862 211.496C447 211.691 447 211.945 447 212.455V214.545C447 215.055 447 215.309 446.862 215.504C446.741 215.675 446.548 215.814 446.31 215.901C446.039 216 445.686 216 444.978 216H370.022C369.314 216 368.961 216 368.69 215.901C368.452 215.814 368.259 215.675 368.138 215.504C368 215.309 368 215.055 368 214.545V212.455Z" fill="#97999D"/>
<path d="M39 24.4545C39 23.9454 39 23.6908 39.0994 23.4964C39.1868 23.3253 39.3264 23.1862 39.498 23.0991C39.693 23 39.9484 23 40.4592 23H94.5408C95.0516 23 95.307 23 95.502 23.0991C95.6736 23.1862 95.8132 23.3253 95.9006 23.4964C96 23.6908 96 23.9454 96 24.4545V26.5455C96 27.0546 96 27.3092 95.9006 27.5036C95.8132 27.6747 95.6736 27.8138 95.502 27.9009C95.307 28 95.0516 28 94.5408 28H40.4592C39.9484 28 39.693 28 39.498 27.9009C39.3264 27.8138 39.1868 27.6747 39.0994 27.5036C39 27.3092 39 27.0546 39 26.5455V24.4545Z" fill="#424754"/>
<path d="M447 24.4545C447 23.9454 447 23.6908 447.031 23.4964C447.059 23.3253 447.103 23.1862 447.157 23.0991C447.219 23 447.3 23 447.461 23H464.539C464.7 23 464.781 23 464.843 23.0991C464.897 23.1862 464.941 23.3253 464.969 23.4964C465 23.6908 465 23.9454 465 24.4545V26.5455C465 27.0546 465 27.3092 464.969 27.5036C464.941 27.6747 464.897 27.8138 464.843 27.9009C464.781 28 464.7 28 464.539 28H447.461C447.3 28 447.219 28 447.157 27.9009C447.103 27.8138 447.059 27.6747 447.031 27.5036C447 27.3092 447 27.0546 447 26.5455V24.4545Z" fill="#97999D"/>
<path d="M39 262.527C39 260.593 39 259.625 39.0994 258.886C39.1868 258.236 39.3264 257.708 39.498 257.377C39.693 257 39.9484 257 40.4592 257H94.5408C95.0516 257 95.307 257 95.502 257.377C95.6736 257.708 95.8132 258.236 95.9006 258.886C96 259.625 96 260.593 96 262.527V270.473C96 272.407 96 273.375 95.9006 274.114C95.8132 274.764 95.6736 275.292 95.502 275.623C95.307 276 95.0516 276 94.5408 276H40.4592C39.9484 276 39.693 276 39.498 275.623C39.3264 275.292 39.1868 274.764 39.0994 274.114C39 273.375 39 272.407 39 270.473V262.527Z" fill="#F04B5D"/>
<path d="M667.7 40H674V19.624H683.144V40H689.444V14.26H667.7V40ZM692.798 30.784C692.798 36.58 697.478 40.432 703.31 40.432C709.142 40.432 713.822 36.58 713.822 30.784C713.822 24.952 709.142 21.028 703.274 21.028C697.478 21.028 692.798 24.952 692.798 30.784ZM699.098 30.784C699.098 27.976 701.042 26.212 703.31 26.212C705.578 26.212 707.522 27.976 707.522 30.784C707.522 33.556 705.578 35.248 703.31 35.248C701.042 35.248 699.098 33.556 699.098 30.784ZM723.428 35.068C724.724 32.584 725.084 29.884 725.084 27.076V26.392H728.288V35.068H723.428ZM715.004 35.068V44.32H720.764V40H731.636V44.32H737.18V35.068H734.516V21.46H719.216V25.924C719.216 29.668 718.532 32.98 717.308 35.068H715.004ZM740.037 40H746.265V26.68H753.105V21.46H740.037V40ZM754.427 30.784C754.427 36.58 759.107 40.432 764.939 40.432C770.771 40.432 775.451 36.58 775.451 30.784C775.451 24.952 770.771 21.028 764.903 21.028C759.107 21.028 754.427 24.952 754.427 30.784ZM760.727 30.784C760.727 27.976 762.671 26.212 764.939 26.212C767.207 26.212 769.151 27.976 769.151 30.784C769.151 33.556 767.207 35.248 764.939 35.248C762.671 35.248 760.727 33.556 760.727 30.784ZM782.426 40H788.654V26.68H794.306V21.46H776.81V26.68H782.426V40ZM795.665 30.784C795.665 36.58 800.345 40.432 806.177 40.432C812.009 40.432 816.689 36.58 816.689 30.784C816.689 24.952 812.009 21.028 806.141 21.028C800.345 21.028 795.665 24.952 795.665 30.784ZM801.965 30.784C801.965 27.976 803.909 26.212 806.177 26.212C808.445 26.212 810.389 27.976 810.389 30.784C810.389 33.556 808.445 35.248 806.177 35.248C803.909 35.248 801.965 33.556 801.965 30.784ZM819.807 40H829.923C833.595 40 836.979 38.56 836.979 34.492C836.979 32.872 836.187 31.036 834.063 30.388V30.352C835.467 29.524 836.223 27.868 836.223 26.32C836.223 23.116 833.631 21.46 829.923 21.46H819.807V40ZM826.035 28.768V25.312H828.303C829.527 25.312 830.031 26.068 830.031 26.932C830.031 27.904 829.527 28.768 828.375 28.768H826.035ZM826.035 36.112V32.404H828.807C830.139 32.404 830.751 33.268 830.751 34.276C830.751 35.212 830.103 36.112 828.771 36.112H826.035ZM840.197 40H846.245L851.393 31.864C851.681 31.36 852.077 30.784 852.401 30.028H852.473C852.401 30.748 852.401 31.468 852.401 31.9V40H858.269V21.46H852.221L847.073 29.632C846.749 30.172 846.389 30.712 846.065 31.468H845.993C846.029 31 846.065 30.28 846.065 29.632V21.46H840.197V40ZM861.659 40H867.599L868.031 31.468C868.103 30.028 867.995 28.3 867.995 28.3H868.067C868.067 28.3 868.751 29.848 869.147 31.036L871.595 37.516H876.635L879.083 31.036C879.551 29.884 880.091 28.3 880.091 28.3H880.163C880.163 28.3 880.091 30.028 880.127 31.468L880.559 40H886.535L884.771 21.46H877.607L874.871 29.596C874.547 30.532 874.115 31.756 874.115 31.756H874.079C874.079 31.756 873.683 30.532 873.359 29.596L870.623 21.46H863.423L861.659 40ZM667.088 82H673.316V75.196H675.26L679.184 82H686.276L680.084 72.352V72.28L685.52 63.46H678.752L675.08 69.976H673.316V63.46H667.088V82ZM697.358 82H707.474C711.146 82 714.53 80.56 714.53 76.492C714.53 74.872 713.738 73.036 711.614 72.388V72.352C713.018 71.524 713.774 69.868 713.774 68.32C713.774 65.116 711.182 63.46 707.474 63.46H697.358V82ZM703.586 70.768V67.312H705.854C707.078 67.312 707.582 68.068 707.582 68.932C707.582 69.904 707.078 70.768 705.926 70.768H703.586ZM703.586 78.112V74.404H706.358C707.69 74.404 708.302 75.268 708.302 76.276C708.302 77.212 707.654 78.112 706.322 78.112H703.586ZM736.252 82H742.48V63.46H736.252V82ZM717.748 82H726.784C731.968 82 734.128 79.444 734.128 75.664C734.128 71.92 731.968 69.256 726.784 69.256H723.976V63.46H717.748V82ZM723.976 77.932V73.288H725.524C727.108 73.288 727.9 74.332 727.9 75.628C727.9 76.924 727.108 77.932 725.632 77.932H723.976ZM746.647 82H752.875V68.68H758.383V82H764.611V63.46H746.647V82ZM768.975 83.692L766.995 88.264C766.995 88.264 768.867 89.56 771.315 89.56C774.267 89.56 777.507 88.12 779.055 83.98L786.651 63.46H779.847L777.507 72.1C777.255 73.108 776.895 74.872 776.895 74.872H776.823C776.823 74.872 776.463 73 776.139 71.992L773.403 63.46H766.347L774.231 81.64L773.871 82.504C773.223 84.088 771.891 84.376 770.883 84.376C769.983 84.376 768.975 83.692 768.975 83.692ZM787.298 72.712C787.298 77.824 791.006 82.432 797.63 82.432C800.726 82.432 803.75 81.244 805.586 79.372L803.318 75.016C801.986 76.168 800.042 77.248 798.242 77.248C795.11 77.248 793.598 74.836 793.598 72.64C793.598 70.444 795.074 68.212 798.026 68.212C799.646 68.212 801.302 68.968 802.382 70.012L805.01 65.836C803.174 63.856 800.222 63.028 797.63 63.028C790.97 63.028 787.298 67.744 787.298 72.712ZM808.205 82H814.433V75.196H816.377L820.301 82H827.393L821.201 72.352V72.28L826.637 63.46H819.869L816.197 69.976H814.433V63.46H808.205V82ZM829.475 82H835.703V75.232H841.427V82H847.655V63.46H841.427V70.012H835.703V63.46H829.475V82ZM870.338 82H876.566V63.46H870.338V82ZM851.834 82H860.87C866.054 82 868.214 79.444 868.214 75.664C868.214 71.92 866.054 69.256 860.87 69.256H858.062V63.46H851.834V82ZM858.062 77.932V73.288H859.61C861.194 73.288 861.986 74.332 861.986 75.628C861.986 76.924 861.194 77.932 859.718 77.932H858.062ZM879.941 82H885.881L886.313 73.468C886.385 72.028 886.277 70.3 886.277 70.3H886.349C886.349 70.3 887.033 71.848 887.429 73.036L889.877 79.516H894.917L897.365 73.036C897.833 71.884 898.373 70.3 898.373 70.3H898.445C898.445 70.3 898.373 72.028 898.409 73.468L898.841 82H904.817L903.053 63.46H895.889L893.153 71.596C892.829 72.532 892.397 73.756 892.397 73.756H892.361C892.361 73.756 891.965 72.532 891.641 71.596L888.905 63.46H881.705L879.941 82ZM667.088 124H673.136L678.284 115.864C678.572 115.36 678.968 114.784 679.292 114.028H679.364C679.292 114.748 679.292 115.468 679.292 115.9V124H685.16V105.46H679.112L673.964 113.632C673.64 114.172 673.28 114.712 672.956 115.468H672.884C672.92 115 672.956 114.28 672.956 113.632V105.46H667.088V124ZM698.342 124H708.458C712.13 124 715.514 122.56 715.514 118.492C715.514 116.872 714.722 115.036 712.598 114.388V114.352C714.002 113.524 714.758 111.868 714.758 110.32C714.758 107.116 712.166 105.46 708.458 105.46H698.342V124ZM704.57 112.768V109.312H706.838C708.062 109.312 708.566 110.068 708.566 110.932C708.566 111.904 708.062 112.768 706.91 112.768H704.57ZM704.57 120.112V116.404H707.342C708.674 116.404 709.286 117.268 709.286 118.276C709.286 119.212 708.638 120.112 707.306 120.112H704.57ZM717.689 114.712C717.689 119.824 721.397 124.432 728.021 124.432C731.117 124.432 734.141 123.244 735.977 121.372L733.709 117.016C732.377 118.168 730.433 119.248 728.633 119.248C725.501 119.248 723.989 116.836 723.989 114.64C723.989 112.444 725.465 110.212 728.417 110.212C730.037 110.212 731.693 110.968 732.773 112.012L735.401 107.836C733.565 105.856 730.613 105.028 728.021 105.028C721.361 105.028 717.689 109.744 717.689 114.712ZM742.664 124H748.892V110.68H754.544V105.46H737.048V110.68H742.664V124ZM757.338 125.692L755.358 130.264C755.358 130.264 757.23 131.56 759.678 131.56C762.63 131.56 765.87 130.12 767.418 125.98L775.014 105.46H768.21L765.87 114.1C765.618 115.108 765.258 116.872 765.258 116.872H765.186C765.186 116.872 764.826 115 764.502 113.992L761.766 105.46H754.71L762.594 123.64L762.234 124.504C761.586 126.088 760.254 126.376 759.246 126.376C758.346 126.376 757.338 125.692 757.338 125.692ZM777.338 124H783.566V110.68H789.074V124H795.302V105.46H777.338V124ZM799.486 124H805.534L810.682 115.864C810.97 115.36 811.366 114.784 811.69 114.028H811.762C811.69 114.748 811.69 115.468 811.69 115.9V124H817.558V105.46H811.51L806.362 113.632C806.038 114.172 805.678 114.712 805.354 115.468H805.282C805.318 115 805.354 114.28 805.354 113.632V105.46H799.486V124ZM825.808 124H832.036V110.68H837.688V105.46H820.192V110.68H825.808V124ZM839.048 114.712C839.048 119.644 842.612 124.432 849.236 124.432C852.08 124.432 855.14 123.46 857.156 121.732L854.852 117.376C853.34 118.384 851.576 119.248 849.74 119.248C847.76 119.248 845.888 118.204 845.42 115.936H857.12C857.192 115.288 857.264 114.64 857.264 113.992C857.264 108.844 854.168 105.028 848.696 105.028C842.72 105.028 839.048 109.276 839.048 114.712ZM845.564 112.372C845.888 110.896 846.752 109.6 848.552 109.6C850.136 109.6 851.108 110.86 851.108 112.372H845.564ZM859.009 124.18C866.209 124.18 868.369 118.996 868.369 111.436V110.392H871.465V124H877.693V105.46H862.501V111.4C862.501 117.772 860.665 118.528 859.009 118.744V124.18ZM881.858 124H891.11C896.294 124 898.454 121.444 898.454 117.664C898.454 113.92 896.294 111.256 891.11 111.256H888.086V105.46H881.858V124ZM888.086 119.932V115.288H889.85C891.434 115.288 892.226 116.332 892.226 117.628C892.226 118.924 891.434 119.932 889.958 119.932H888.086ZM901.193 124H907.421V117.232H913.145V124H919.373V105.46H913.145V112.012H907.421V105.46H901.193V124ZM942.057 124H948.285V105.46H942.057V124ZM923.553 124H932.589C937.773 124 939.933 121.444 939.933 117.664C939.933 113.92 937.773 111.256 932.589 111.256H929.781V105.46H923.553V124ZM929.781 119.932V115.288H931.329C932.913 115.288 933.705 116.332 933.705 117.628C933.705 118.924 932.913 119.932 931.437 119.932H929.781ZM951.659 124H957.599L958.031 115.468C958.103 114.028 957.995 112.3 957.995 112.3H958.067C958.067 112.3 958.751 113.848 959.147 115.036L961.595 121.516H966.635L969.083 115.036C969.551 113.884 970.091 112.3 970.091 112.3H970.163C970.163 112.3 970.091 114.028 970.127 115.468L970.559 124H976.535L974.771 105.46H967.607L964.871 113.596C964.547 114.532 964.115 115.756 964.115 115.756H964.079C964.079 115.756 963.683 114.532 963.359 113.596L960.623 105.46H953.423L951.659 124ZM665.576 163.768C667.772 165.604 670.616 166.432 673.424 166.432C680.048 166.432 683.756 161.824 683.756 156.712C683.756 151.744 680.228 147.028 673.568 147.028C670.832 147.028 667.772 147.82 665.9 149.584L668.42 153.616C669.716 152.5 671.444 151.852 673.244 151.852C675.548 151.852 677.168 152.932 677.816 154.624H670.796V158.728H677.78C677.168 160.348 675.548 161.608 672.992 161.608C670.976 161.608 669.212 160.816 667.736 159.592L665.576 163.768ZM686.881 166H693.109V159.196H695.053L698.977 166H706.069L699.877 156.352V156.28L705.313 147.46H698.545L694.873 153.976H693.109V147.46H686.881V166ZM706.603 163.696C708.619 165.496 711.607 166.432 714.343 166.432C718.735 166.432 722.011 164.452 722.011 160.528C722.011 158.368 720.535 157.072 719.131 156.424V156.352C720.247 155.74 721.435 154.48 721.435 152.176C721.435 148.972 718.411 147.028 714.595 147.028C711.211 147.028 708.835 147.928 707.107 149.116L708.907 152.968C710.851 151.816 712.291 151.564 713.299 151.564C714.883 151.564 715.243 152.248 715.243 153.04C715.243 154.192 714.343 154.48 713.371 154.48H711.499V158.584H713.767C715.459 158.584 715.783 159.232 715.783 160.132C715.783 160.996 715.279 161.752 713.551 161.752C712.075 161.752 710.239 160.852 709.087 159.808L706.603 163.696ZM723.834 160.78C723.834 163.984 726.318 166.432 729.882 166.432C732.006 166.432 734.166 165.46 735.39 163.732H735.462C735.462 163.732 735.39 164.272 735.39 164.884V166H741.078V154.588C741.078 149.872 737.91 147.028 732.798 147.028C729.774 147.028 726.534 148.216 724.95 149.44L727.11 153.832C728.586 152.86 730.422 152.068 732.222 152.068C733.59 152.068 734.85 152.572 734.85 154.12V154.444H734.31C729.738 154.444 723.834 155.812 723.834 160.78ZM729.99 160.204C729.99 158.512 732.438 158.008 734.346 158.008H734.922V158.512C734.922 160.024 733.554 161.788 731.754 161.788C730.602 161.788 729.99 161.068 729.99 160.204ZM744.237 166H750.177L750.609 157.468C750.681 156.028 750.573 154.3 750.573 154.3H750.645C750.645 154.3 751.329 155.848 751.725 157.036L754.173 163.516H759.213L761.661 157.036C762.129 155.884 762.669 154.3 762.669 154.3H762.741C762.741 154.3 762.669 156.028 762.705 157.468L763.137 166H769.113L767.349 147.46H760.185L757.449 155.596C757.125 156.532 756.693 157.756 756.693 157.756H756.657C756.657 157.756 756.261 156.532 755.937 155.596L753.201 147.46H746.001L744.237 166ZM771.442 156.712C771.442 161.644 775.006 166.432 781.63 166.432C784.474 166.432 787.534 165.46 789.55 163.732L787.246 159.376C785.734 160.384 783.97 161.248 782.134 161.248C780.154 161.248 778.282 160.204 777.814 157.936H789.514C789.586 157.288 789.658 156.64 789.658 155.992C789.658 150.844 786.562 147.028 781.09 147.028C775.114 147.028 771.442 151.276 771.442 156.712ZM777.958 154.372C778.282 152.896 779.146 151.6 780.946 151.6C782.53 151.6 783.502 152.86 783.502 154.372H777.958ZM792.912 166H799.14V159.232H804.864V166H811.092V147.46H804.864V154.012H799.14V147.46H792.912V166ZM813.94 160.78C813.94 163.984 816.424 166.432 819.988 166.432C822.112 166.432 824.272 165.46 825.496 163.732H825.568C825.568 163.732 825.496 164.272 825.496 164.884V166H831.184V154.588C831.184 149.872 828.016 147.028 822.904 147.028C819.88 147.028 816.64 148.216 815.056 149.44L817.216 153.832C818.692 152.86 820.528 152.068 822.328 152.068C823.696 152.068 824.956 152.572 824.956 154.12V154.444H824.416C819.844 154.444 813.94 155.812 813.94 160.78ZM820.096 160.204C820.096 158.512 822.544 158.008 824.452 158.008H825.028V158.512C825.028 160.024 823.66 161.788 821.86 161.788C820.708 161.788 820.096 161.068 820.096 160.204ZM834.343 166H840.283L840.715 157.468C840.787 156.028 840.679 154.3 840.679 154.3H840.751C840.751 154.3 841.435 155.848 841.831 157.036L844.279 163.516H849.319L851.767 157.036C852.235 155.884 852.775 154.3 852.775 154.3H852.847C852.847 154.3 852.775 156.028 852.811 157.468L853.243 166H859.219L857.455 147.46H850.291L847.555 155.596C847.231 156.532 846.799 157.756 846.799 157.756H846.763C846.763 157.756 846.367 156.532 846.043 155.596L843.307 147.46H836.107L834.343 166Z" fill="#222224"/>
<path d="M666.674 225H668.456V213.84H674.9V225H676.682V212.292H666.674V225ZM678.94 220.428C678.94 223.2 681.136 225.216 683.854 225.216C686.554 225.216 688.75 223.2 688.75 220.428C688.75 217.674 686.554 215.676 683.836 215.676C681.136 215.676 678.94 217.674 678.94 220.428ZM680.722 220.428C680.722 218.538 682.126 217.188 683.854 217.188C685.564 217.188 686.986 218.538 686.986 220.428C686.986 222.336 685.564 223.704 683.854 223.704C682.126 223.704 680.722 222.336 680.722 220.428ZM690.854 225H694.742C696.722 225 698.09 224.1 698.09 222.408C698.09 221.4 697.496 220.518 696.362 220.248V220.23C697.19 219.87 697.658 219.114 697.658 218.232C697.658 216.702 696.452 215.892 694.616 215.892H690.854V225ZM692.6 219.744V217.098H694.256C695.354 217.098 695.876 217.53 695.876 218.358C695.876 219.204 695.354 219.744 694.31 219.744H692.6ZM692.6 223.776V220.914H694.454C695.66 220.914 696.326 221.454 696.326 222.354C696.326 223.2 695.732 223.776 694.472 223.776H692.6ZM708.449 225H710.195V215.892H708.449V225ZM700.205 225H703.715C706.001 225 707.045 223.83 707.045 222.12C707.045 220.05 705.623 219.186 703.733 219.186H701.951V215.892H700.205V225ZM701.951 223.74V220.446H703.463C704.723 220.446 705.281 221.13 705.281 222.102C705.281 223.056 704.741 223.74 703.481 223.74H701.951ZM712.303 220.446C712.303 223.182 714.301 225.216 717.181 225.216C718.603 225.216 719.989 224.64 720.817 223.758L720.115 222.48C719.413 223.218 718.315 223.704 717.307 223.704C715.417 223.704 714.085 222.282 714.085 220.428C714.085 218.574 715.417 217.188 717.253 217.188C718.207 217.188 719.161 217.62 719.773 218.232L720.601 217.008C719.737 216.09 718.387 215.676 717.181 215.676C714.319 215.676 712.303 217.746 712.303 220.446ZM722.705 225H724.379L728.321 219.564C728.609 219.132 729.059 218.52 729.113 218.358H729.149C729.149 218.502 729.095 219.132 729.095 219.564V225H730.787V215.892H729.095L725.171 221.328C724.865 221.76 724.433 222.39 724.361 222.552H724.325C724.343 222.462 724.379 221.814 724.379 221.328V215.892H722.705V225ZM733.085 225H734.777L735.173 219.582C735.209 219.042 735.155 218.016 735.155 218.016H735.191C735.191 218.016 735.479 218.7 735.767 219.366L737.927 223.902H739.421L741.581 219.348C741.923 218.646 742.157 218.016 742.157 218.016H742.193C742.193 218.016 742.157 219.042 742.175 219.582L742.571 225H744.263L743.471 215.892H741.563L739.187 221.04C738.953 221.598 738.683 222.264 738.683 222.264H738.647C738.647 222.264 738.395 221.58 738.143 221.04L735.821 215.892H733.877L733.085 225ZM750.662 226.89L750.05 228.222C750.05 228.222 750.788 228.78 751.796 228.78C753.074 228.78 754.208 228.06 754.748 226.638L759.032 215.892H757.142L754.928 221.868C754.766 222.336 754.622 222.948 754.622 222.948H754.586C754.586 222.948 754.424 222.3 754.244 221.85L751.958 215.892H749.996L753.812 224.892L753.362 225.936C753.02 226.764 752.426 227.286 751.706 227.286C751.166 227.286 750.662 226.89 750.662 226.89ZM759.834 220.446C759.834 223.182 761.832 225.216 764.712 225.216C766.134 225.216 767.52 224.64 768.348 223.758L767.646 222.48C766.944 223.218 765.846 223.704 764.838 223.704C762.948 223.704 761.616 222.282 761.616 220.428C761.616 218.574 762.948 217.188 764.784 217.188C765.738 217.188 766.692 217.62 767.304 218.232L768.132 217.008C767.268 216.09 765.918 215.676 764.712 215.676C761.85 215.676 759.834 217.746 759.834 220.446ZM770.237 225H771.983V217.386H776.447V225H778.193V215.892H770.237V225ZM780.295 220.446C780.295 223.146 782.275 225.216 785.137 225.216C786.397 225.216 787.783 224.73 788.665 223.92L787.927 222.642C787.207 223.29 786.217 223.704 785.245 223.704C783.607 223.704 782.203 222.642 782.113 220.68H788.737C788.773 220.428 788.809 220.176 788.809 219.942C788.809 217.602 787.441 215.676 784.867 215.676C782.275 215.676 780.295 217.548 780.295 220.446ZM782.167 219.42C782.419 217.908 783.481 217.026 784.831 217.026C786.019 217.026 786.991 217.854 787.045 219.42H782.167ZM790.909 225H794.797C796.777 225 798.145 224.1 798.145 222.408C798.145 221.4 797.551 220.518 796.417 220.248V220.23C797.245 219.87 797.713 219.114 797.713 218.232C797.713 216.702 796.507 215.892 794.671 215.892H790.909V225ZM792.655 219.744V217.098H794.311C795.409 217.098 795.931 217.53 795.931 218.358C795.931 219.204 795.409 219.744 794.365 219.744H792.655ZM792.655 223.776V220.914H794.509C795.715 220.914 796.381 221.454 796.381 222.354C796.381 223.2 795.787 223.776 794.527 223.776H792.655ZM799.504 222.516C799.504 224.226 800.962 225.216 802.546 225.216C803.896 225.216 805.012 224.406 805.534 223.362H805.57C805.57 223.362 805.516 223.668 805.516 224.082V225H807.154V219.24C807.154 216.936 805.84 215.676 803.554 215.676C802.276 215.676 800.89 216.144 800.152 216.756L800.854 218.034C801.592 217.512 802.51 217.152 803.41 217.152C804.544 217.152 805.408 217.656 805.408 219.15V219.33H804.94C803.05 219.33 799.504 219.654 799.504 222.516ZM801.25 222.372C801.25 220.698 803.662 220.59 804.958 220.59H805.408V220.932C805.408 222.282 804.49 223.83 802.96 223.83C801.826 223.83 801.25 223.092 801.25 222.372ZM809.141 220.446C809.141 223.146 811.121 225.216 813.983 225.216C815.243 225.216 816.629 224.73 817.511 223.92L816.773 222.642C816.053 223.29 815.063 223.704 814.091 223.704C812.453 223.704 811.049 222.642 810.959 220.68H817.583C817.619 220.428 817.655 220.176 817.655 219.942C817.655 217.602 816.287 215.676 813.713 215.676C811.121 215.676 809.141 217.548 809.141 220.446ZM811.013 219.42C811.265 217.908 812.327 217.026 813.677 217.026C814.865 217.026 815.837 217.854 815.891 219.42H811.013ZM819.376 225H821.068L821.464 219.582C821.5 219.042 821.446 218.016 821.446 218.016H821.482C821.482 218.016 821.77 218.7 822.058 219.366L824.218 223.902H825.712L827.872 219.348C828.214 218.646 828.448 218.016 828.448 218.016H828.484C828.484 218.016 828.448 219.042 828.466 219.582L828.862 225H830.554L829.762 215.892H827.854L825.478 221.04C825.244 221.598 824.974 222.264 824.974 222.264H824.938C824.938 222.264 824.686 221.58 824.434 221.04L822.112 215.892H820.168L819.376 225ZM832.309 220.428C832.309 223.2 834.505 225.216 837.223 225.216C839.923 225.216 842.119 223.2 842.119 220.428C842.119 217.674 839.923 215.676 837.205 215.676C834.505 215.676 832.309 217.674 832.309 220.428ZM834.091 220.428C834.091 218.538 835.495 217.188 837.223 217.188C838.933 217.188 840.355 218.538 840.355 220.428C840.355 222.336 838.933 223.704 837.223 223.704C835.495 223.704 834.091 222.336 834.091 220.428ZM843.629 220.446C843.629 223.182 845.627 225.216 848.507 225.216C849.929 225.216 851.315 224.64 852.143 223.758L851.441 222.48C850.739 223.218 849.641 223.704 848.633 223.704C846.743 223.704 845.411 222.282 845.411 220.428C845.411 218.574 846.743 217.188 848.579 217.188C849.533 217.188 850.487 217.62 851.099 218.232L851.927 217.008C851.063 216.09 849.713 215.676 848.507 215.676C845.645 215.676 843.629 217.746 843.629 220.446ZM856.228 225H857.956V217.386H861.142V215.892H853.06V217.386H856.228V225ZM862.856 225H866.402C868.706 225 869.75 223.83 869.75 222.12C869.75 220.05 868.328 219.186 866.438 219.186H864.602V215.892H862.856V225ZM864.602 223.74V220.446H866.168C867.428 220.446 867.968 221.13 867.968 222.102C867.968 223.056 867.428 223.74 866.168 223.74H864.602ZM876.127 225H887.899V215.892H886.225V223.488H882.859V215.892H881.167V223.488H877.801V215.892H876.127V225ZM890.594 225H892.34V221.058H893.654L896.372 225H898.442L895.04 220.266V220.23L898.082 215.892H896.102L893.618 219.564H892.34V215.892H890.594V225ZM899.018 220.428C899.018 223.2 901.214 225.216 903.932 225.216C906.632 225.216 908.828 223.2 908.828 220.428C908.828 217.674 906.632 215.676 903.914 215.676C901.214 215.676 899.018 217.674 899.018 220.428ZM900.8 220.428C900.8 218.538 902.204 217.188 903.932 217.188C905.642 217.188 907.064 218.538 907.064 220.428C907.064 222.336 905.642 223.704 903.932 223.704C902.204 223.704 900.8 222.336 900.8 220.428ZM909.696 225.09C912.378 224.946 913.422 222.822 913.422 218.7V217.332H916.104V225H917.85V215.892H911.748V218.7C911.748 221.994 911.028 223.326 909.696 223.524V225.09ZM920.547 225H924.093C926.397 225 927.441 223.83 927.441 222.12C927.441 220.05 926.019 219.186 924.129 219.186H922.293V215.892H920.547V225ZM922.293 223.74V220.446H923.859C925.119 220.446 925.659 221.13 925.659 222.102C925.659 223.056 925.119 223.74 923.859 223.74H922.293ZM929.319 225H931.065V221.094H935.673V225H937.419V215.892H935.673V219.6H931.065V215.892H929.319V225ZM940.112 225H941.786L945.728 219.564C946.016 219.132 946.466 218.52 946.52 218.358H946.556C946.556 218.502 946.502 219.132 946.502 219.564V225H948.194V215.892H946.502L942.578 221.328C942.272 221.76 941.84 222.39 941.768 222.552H941.732C941.75 222.462 941.786 221.814 941.786 221.328V215.892H940.112V225ZM950.87 225H952.616V221.058H953.93L956.648 225H958.718L955.316 220.266V220.23L958.358 215.892H956.378L953.894 219.564H952.616V215.892H950.87V225ZM959.293 220.428C959.293 223.2 961.489 225.216 964.207 225.216C966.907 225.216 969.103 223.2 969.103 220.428C969.103 217.674 966.907 215.676 964.189 215.676C961.489 215.676 959.293 217.674 959.293 220.428ZM961.075 220.428C961.075 218.538 962.479 217.188 964.207 217.188C965.917 217.188 967.339 218.538 967.339 220.428C967.339 222.336 965.917 223.704 964.207 223.704C962.479 223.704 961.075 222.336 961.075 220.428ZM971.207 225H975.095C977.075 225 978.443 224.1 978.443 222.408C978.443 221.4 977.849 220.518 976.715 220.248V220.23C977.543 219.87 978.011 219.114 978.011 218.232C978.011 216.702 976.805 215.892 974.969 215.892H971.207V225ZM972.953 219.744V217.098H974.609C975.707 217.098 976.229 217.53 976.229 218.358C976.229 219.204 975.707 219.744 974.663 219.744H972.953ZM972.953 223.776V220.914H974.807C976.013 220.914 976.679 221.454 976.679 222.354C976.679 223.2 976.085 223.776 974.825 223.776H972.953ZM666.35 253H668.024L671.966 247.564C672.254 247.132 672.704 246.52 672.758 246.358H672.794C672.794 246.502 672.74 247.132 672.74 247.564V253H674.432V243.892H672.74L668.816 249.328C668.51 249.76 668.078 250.39 668.006 250.552H667.97C667.988 250.462 668.024 249.814 668.024 249.328V243.892H666.35V253ZM681.014 248.446C681.014 251.182 683.012 253.216 685.892 253.216C687.314 253.216 688.7 252.64 689.528 251.758L688.826 250.48C688.124 251.218 687.026 251.704 686.018 251.704C684.128 251.704 682.796 250.282 682.796 248.428C682.796 246.574 684.128 245.188 685.964 245.188C686.918 245.188 687.872 245.62 688.484 246.232L689.312 245.008C688.448 244.09 687.098 243.676 685.892 243.676C683.03 243.676 681.014 245.746 681.014 248.446ZM693.612 253H695.34V245.386H698.526V243.892H690.444V245.386H693.612V253ZM699.791 254.89L699.179 256.222C699.179 256.222 699.917 256.78 700.925 256.78C702.203 256.78 703.337 256.06 703.877 254.638L708.161 243.892H706.271L704.057 249.868C703.895 250.336 703.751 250.948 703.751 250.948H703.715C703.715 250.948 703.553 250.3 703.373 249.85L701.087 243.892H699.125L702.941 252.892L702.491 253.936C702.149 254.764 701.555 255.286 700.835 255.286C700.295 255.286 699.791 254.89 699.791 254.89ZM711.005 251.56C712.157 249.76 712.301 247.168 712.301 245.8V245.314H715.037V251.56H711.005ZM708.089 251.56V255.16H709.727V253H716.477V255.16H718.079V251.56H716.783V243.892H710.627V245.566C710.627 246.97 710.483 249.814 709.205 251.56H708.089ZM719.211 248.446C719.211 251.146 721.191 253.216 724.053 253.216C725.313 253.216 726.699 252.73 727.581 251.92L726.843 250.642C726.123 251.29 725.133 251.704 724.161 251.704C722.523 251.704 721.119 250.642 721.029 248.68H727.653C727.689 248.428 727.725 248.176 727.725 247.942C727.725 245.602 726.357 243.676 723.783 243.676C721.191 243.676 719.211 245.548 719.211 248.446ZM721.083 247.42C721.335 245.908 722.397 245.026 723.747 245.026C724.935 245.026 725.907 245.854 725.961 247.42H721.083ZM729.825 253H731.571V249.094H736.179V253H737.925V243.892H736.179V247.6H731.571V243.892H729.825V253ZM742.814 253H744.542V245.386H747.728V243.892H739.646V245.386H742.814V253ZM748.549 248.428C748.549 251.2 750.745 253.216 753.463 253.216C756.163 253.216 758.359 251.2 758.359 248.428C758.359 245.674 756.163 243.676 753.445 243.676C750.745 243.676 748.549 245.674 748.549 248.428ZM750.331 248.428C750.331 246.538 751.735 245.188 753.463 245.188C755.173 245.188 756.595 246.538 756.595 248.428C756.595 250.336 755.173 251.704 753.463 251.704C751.735 251.704 750.331 250.336 750.331 248.428ZM760.463 253H764.351C766.331 253 767.699 252.1 767.699 250.408C767.699 249.4 767.105 248.518 765.971 248.248V248.23C766.799 247.87 767.267 247.114 767.267 246.232C767.267 244.702 766.061 243.892 764.225 243.892H760.463V253ZM762.209 247.744V245.098H763.865C764.963 245.098 765.485 245.53 765.485 246.358C765.485 247.204 764.963 247.744 763.919 247.744H762.209ZM762.209 251.776V248.914H764.063C765.269 248.914 765.935 249.454 765.935 250.354C765.935 251.2 765.341 251.776 764.081 251.776H762.209ZM774.315 253H775.989L779.931 247.564C780.219 247.132 780.669 246.52 780.723 246.358H780.759C780.759 246.502 780.705 247.132 780.705 247.564V253H782.397V243.892H780.705L776.781 249.328C776.475 249.76 776.043 250.39 775.971 250.552H775.935C775.953 250.462 775.989 249.814 775.989 249.328V243.892H774.315V253ZM789.573 253H791.319V245.386H795.783V253H797.529V243.892H789.573V253ZM799.631 248.428C799.631 251.2 801.827 253.216 804.545 253.216C807.245 253.216 809.441 251.2 809.441 248.428C809.441 245.674 807.245 243.676 804.527 243.676C801.827 243.676 799.631 245.674 799.631 248.428ZM801.413 248.428C801.413 246.538 802.817 245.188 804.545 245.188C806.255 245.188 807.677 246.538 807.677 248.428C807.677 250.336 806.255 251.704 804.545 251.704C802.817 251.704 801.413 250.336 801.413 248.428ZM811.167 253H812.859L813.255 247.582C813.291 247.042 813.237 246.016 813.237 246.016H813.273C813.273 246.016 813.561 246.7 813.849 247.366L816.009 251.902H817.503L819.663 247.348C820.005 246.646 820.239 246.016 820.239 246.016H820.275C820.275 246.016 820.239 247.042 820.257 247.582L820.653 253H822.345L821.553 243.892H819.645L817.269 249.04C817.035 249.598 816.765 250.264 816.765 250.264H816.729C816.729 250.264 816.477 249.58 816.225 249.04L813.903 243.892H811.959L811.167 253ZM824.1 248.428C824.1 251.2 826.296 253.216 829.014 253.216C831.714 253.216 833.91 251.2 833.91 248.428C833.91 245.674 831.714 243.676 828.996 243.676C826.296 243.676 824.1 245.674 824.1 248.428ZM825.882 248.428C825.882 246.538 827.286 245.188 829.014 245.188C830.724 245.188 832.146 246.538 832.146 248.428C832.146 250.336 830.724 251.704 829.014 251.704C827.286 251.704 825.882 250.336 825.882 248.428ZM834.689 253H836.633L839.027 249.112H840.323V253H841.979V249.112H843.293L845.669 253H847.631L844.697 248.32V248.284L847.361 243.892H845.525L843.275 247.618H841.979V243.892H840.323V247.618H839.027L836.795 243.892H834.941L837.623 248.284V248.32L834.689 253ZM848.393 248.446C848.393 251.146 850.373 253.216 853.235 253.216C854.495 253.216 855.881 252.73 856.763 251.92L856.025 250.642C855.305 251.29 854.315 251.704 853.343 251.704C851.705 251.704 850.301 250.642 850.211 248.68H856.835C856.871 248.428 856.907 248.176 856.907 247.942C856.907 245.602 855.539 243.676 852.965 243.676C850.373 243.676 848.393 245.548 848.393 248.446ZM850.265 247.42C850.517 245.908 851.579 245.026 852.929 245.026C854.117 245.026 855.089 245.854 855.143 247.42H850.265ZM858.628 253H860.32L860.716 247.582C860.752 247.042 860.698 246.016 860.698 246.016H860.734C860.734 246.016 861.022 246.7 861.31 247.366L863.47 251.902H864.964L867.124 247.348C867.466 246.646 867.7 246.016 867.7 246.016H867.736C867.736 246.016 867.7 247.042 867.718 247.582L868.114 253H869.806L869.014 243.892H867.106L864.73 249.04C864.496 249.598 864.226 250.264 864.226 250.264H864.19C864.19 250.264 863.938 249.58 863.686 249.04L861.364 243.892H859.42L858.628 253ZM876.061 248.428C876.061 251.2 878.257 253.216 880.975 253.216C883.675 253.216 885.871 251.2 885.871 248.428C885.871 245.674 883.675 243.676 880.957 243.676C878.257 243.676 876.061 245.674 876.061 248.428ZM877.843 248.428C877.843 246.538 879.247 245.188 880.975 245.188C882.685 245.188 884.107 246.538 884.107 248.428C884.107 250.336 882.685 251.704 880.975 251.704C879.247 251.704 877.843 250.336 877.843 248.428ZM887.975 253H889.721V245.386H894.185V253H895.931V243.892H887.975V253ZM898.627 256.6H900.373V252.46C900.373 251.992 900.301 251.668 900.301 251.668H900.337C900.967 252.64 902.011 253.216 903.163 253.216C905.557 253.216 907.285 251.344 907.285 248.446C907.285 245.62 905.755 243.676 903.289 243.676C901.957 243.676 900.805 244.288 900.229 245.386H900.193C900.193 245.386 900.247 245.08 900.247 244.702V243.892H898.627V256.6ZM900.319 248.482C900.319 246.178 901.579 245.206 902.947 245.206C904.459 245.206 905.521 246.484 905.521 248.464C905.521 250.534 904.333 251.704 902.893 251.704C901.219 251.704 900.319 250.102 900.319 248.482ZM908.844 248.446C908.844 251.146 910.824 253.216 913.686 253.216C914.946 253.216 916.332 252.73 917.214 251.92L916.476 250.642C915.756 251.29 914.766 251.704 913.794 251.704C912.156 251.704 910.752 250.642 910.662 248.68H917.286C917.322 248.428 917.358 248.176 917.358 247.942C917.358 245.602 915.99 243.676 913.416 243.676C910.824 243.676 908.844 245.548 908.844 248.446ZM910.716 247.42C910.968 245.908 912.03 245.026 913.38 245.026C914.568 245.026 915.54 245.854 915.594 247.42H910.716ZM921.239 251.56C922.391 249.76 922.535 247.168 922.535 245.8V245.314H925.271V251.56H921.239ZM918.323 251.56V255.16H919.961V253H926.711V255.16H928.313V251.56H927.017V243.892H920.861V245.566C920.861 246.97 920.717 249.814 919.439 251.56H918.323ZM929.445 248.446C929.445 251.146 931.425 253.216 934.287 253.216C935.547 253.216 936.933 252.73 937.815 251.92L937.077 250.642C936.357 251.29 935.367 251.704 934.395 251.704C932.757 251.704 931.353 250.642 931.263 248.68H937.887C937.923 248.428 937.959 248.176 937.959 247.942C937.959 245.602 936.591 243.676 934.017 243.676C931.425 243.676 929.445 245.548 929.445 248.446ZM931.317 247.42C931.569 245.908 932.631 245.026 933.981 245.026C935.169 245.026 936.141 245.854 936.195 247.42H931.317ZM939.069 253.09C941.751 252.946 942.795 250.822 942.795 246.7V245.332H945.477V253H947.223V243.892H941.121V246.7C941.121 249.994 940.401 251.326 939.069 251.524V253.09ZM949.92 253H951.594L955.536 247.564C955.824 247.132 956.274 246.52 956.328 246.358H956.364C956.364 246.502 956.31 247.132 956.31 247.564V253H958.002V243.892H956.31L952.386 249.328C952.08 249.76 951.648 250.39 951.576 250.552H951.54C951.558 250.462 951.594 249.814 951.594 249.328V243.892H949.92V253ZM962.874 253H964.602V245.386H967.788V243.892H959.706V245.386H962.874V253ZM969.502 253H973.048C975.352 253 976.396 251.83 976.396 250.12C976.396 248.05 974.974 247.186 973.084 247.186H971.248V243.892H969.502V253ZM971.248 251.74V248.446H972.814C974.074 248.446 974.614 249.13 974.614 250.102C974.614 251.056 974.074 251.74 972.814 251.74H971.248ZM977.68 248.446C977.68 251.182 979.678 253.216 982.558 253.216C983.98 253.216 985.366 252.64 986.194 251.758L985.492 250.48C984.79 251.218 983.692 251.704 982.684 251.704C980.794 251.704 979.462 250.282 979.462 248.428C979.462 246.574 980.794 245.188 982.63 245.188C983.584 245.188 984.538 245.62 985.15 246.232L985.978 245.008C985.114 244.09 983.764 243.676 982.558 243.676C979.696 243.676 977.68 245.746 977.68 248.446ZM987.164 253H989.09L991.322 249.706H992.852V253H994.598V243.892H990.962C989.036 243.892 987.704 244.882 987.704 246.754C987.704 248.14 988.64 249.112 989.684 249.4V249.418C989.684 249.418 989.468 249.652 989.27 249.976L987.164 253ZM991.34 248.428C990.278 248.428 989.468 247.87 989.468 246.736C989.468 245.566 990.224 245.098 991.394 245.098H992.852V248.428H991.34ZM665.756 276.446C665.756 279.182 667.754 281.216 670.634 281.216C672.056 281.216 673.442 280.64 674.27 279.758L673.568 278.48C672.866 279.218 671.768 279.704 670.76 279.704C668.87 279.704 667.538 278.282 667.538 276.428C667.538 274.574 668.87 273.188 670.706 273.188C671.66 273.188 672.614 273.62 673.226 274.232L674.054 273.008C673.19 272.09 671.84 271.676 670.634 271.676C667.772 271.676 665.756 273.746 665.756 276.446ZM680.659 281H682.405V277.094H687.013V281H688.759V271.892H687.013V275.6H682.405V271.892H680.659V281ZM690.696 278.516C690.696 280.226 692.154 281.216 693.738 281.216C695.088 281.216 696.204 280.406 696.726 279.362H696.762C696.762 279.362 696.708 279.668 696.708 280.082V281H698.346V275.24C698.346 272.936 697.032 271.676 694.746 271.676C693.468 271.676 692.082 272.144 691.344 272.756L692.046 274.034C692.784 273.512 693.702 273.152 694.602 273.152C695.736 273.152 696.6 273.656 696.6 275.15V275.33H696.132C694.242 275.33 690.696 275.654 690.696 278.516ZM692.442 278.372C692.442 276.698 694.854 276.59 696.15 276.59H696.6V276.932C696.6 278.282 695.682 279.83 694.152 279.83C693.018 279.83 692.442 279.092 692.442 278.372ZM700.926 281H702.672V273.386H707.136V281H708.882V271.892H700.926V281ZM711.579 284.6H713.325V280.46C713.325 279.992 713.253 279.668 713.253 279.668H713.289C713.919 280.64 714.963 281.216 716.115 281.216C718.509 281.216 720.237 279.344 720.237 276.446C720.237 273.62 718.707 271.676 716.241 271.676C714.909 271.676 713.757 272.288 713.181 273.386H713.145C713.145 273.386 713.199 273.08 713.199 272.702V271.892H711.579V284.6ZM713.271 276.482C713.271 274.178 714.531 273.206 715.899 273.206C717.411 273.206 718.473 274.484 718.473 276.464C718.473 278.534 717.285 279.704 715.845 279.704C714.171 279.704 713.271 278.102 713.271 276.482ZM721.633 278.516C721.633 280.226 723.091 281.216 724.675 281.216C726.025 281.216 727.141 280.406 727.663 279.362H727.699C727.699 279.362 727.645 279.668 727.645 280.082V281H729.283V275.24C729.283 272.936 727.969 271.676 725.683 271.676C724.405 271.676 723.019 272.144 722.281 272.756L722.983 274.034C723.721 273.512 724.639 273.152 725.539 273.152C726.673 273.152 727.537 273.656 727.537 275.15V275.33H727.069C725.179 275.33 721.633 275.654 721.633 278.516ZM723.379 278.372C723.379 276.698 725.791 276.59 727.087 276.59H727.537V276.932C727.537 278.282 726.619 279.83 725.089 279.83C723.955 279.83 723.379 279.092 723.379 278.372ZM731.864 281H735.752C737.732 281 739.1 280.1 739.1 278.408C739.1 277.4 738.506 276.518 737.372 276.248V276.23C738.2 275.87 738.668 275.114 738.668 274.232C738.668 272.702 737.462 271.892 735.626 271.892H731.864V281ZM733.61 275.744V273.098H735.266C736.364 273.098 736.886 273.53 736.886 274.358C736.886 275.204 736.364 275.744 735.32 275.744H733.61ZM733.61 279.776V276.914H735.464C736.67 276.914 737.336 277.454 737.336 278.354C737.336 279.2 736.742 279.776 735.482 279.776H733.61ZM740.225 281.09C742.907 280.946 743.951 278.822 743.951 274.7V273.332H746.633V281H748.379V271.892H742.277V274.7C742.277 277.994 741.557 279.326 740.225 279.524V281.09ZM750.483 276.446C750.483 279.146 752.463 281.216 755.325 281.216C756.585 281.216 757.971 280.73 758.853 279.92L758.115 278.642C757.395 279.29 756.405 279.704 755.433 279.704C753.795 279.704 752.391 278.642 752.301 276.68H758.925C758.961 276.428 758.997 276.176 758.997 275.942C758.997 273.602 757.629 271.676 755.055 271.676C752.463 271.676 750.483 273.548 750.483 276.446ZM752.355 275.42C752.607 273.908 753.669 273.026 755.019 273.026C756.207 273.026 757.179 273.854 757.233 275.42H752.355ZM761.096 281H762.842V277.094H767.45V281H769.196V271.892H767.45V275.6H762.842V271.892H761.096V281ZM771.889 281H773.563L777.505 275.564C777.793 275.132 778.243 274.52 778.297 274.358H778.333C778.333 274.502 778.279 275.132 778.279 275.564V281H779.971V271.892H778.279L774.355 277.328C774.049 277.76 773.617 278.39 773.545 278.552H773.509C773.527 278.462 773.563 277.814 773.563 277.328V271.892H771.889V281ZM782.053 276.446C782.053 279.146 784.033 281.216 786.895 281.216C788.155 281.216 789.541 280.73 790.423 279.92L789.685 278.642C788.965 279.29 787.975 279.704 787.003 279.704C785.365 279.704 783.961 278.642 783.871 276.68H790.495C790.531 276.428 790.567 276.176 790.567 275.942C790.567 273.602 789.199 271.676 786.625 271.676C784.033 271.676 782.053 273.548 782.053 276.446ZM783.925 275.42C784.177 273.908 785.239 273.026 786.589 273.026C787.777 273.026 788.749 273.854 788.803 275.42H783.925ZM792.288 281H793.98L794.376 275.582C794.412 275.042 794.358 274.016 794.358 274.016H794.394C794.394 274.016 794.682 274.7 794.97 275.366L797.13 279.902H798.624L800.784 275.348C801.126 274.646 801.36 274.016 801.36 274.016H801.396C801.396 274.016 801.36 275.042 801.378 275.582L801.774 281H803.466L802.674 271.892H800.766L798.39 277.04C798.156 277.598 797.886 278.264 797.886 278.264H797.85C797.85 278.264 797.598 277.58 797.346 277.04L795.024 271.892H793.08L792.288 281Z" fill="#505257"/>
</svg>
