<svg width="1034" height="267" viewBox="0 0 1034 267" fill="none" xmlns="http://www.w3.org/2000/svg">
<path d="M2.7 84H12.168C17.28 84 21.96 81.948 21.96 76.332C21.96 74.064 20.88 71.436 17.928 70.536V70.464C19.872 69.348 20.916 67.152 20.916 64.992C20.916 60.564 17.316 58.26 12.168 58.26H2.7V84ZM9 68.232V63.66H12.132C13.824 63.66 14.508 64.668 14.508 65.856C14.508 67.08 13.824 68.232 12.24 68.232H9ZM9 78.6V73.272H12.816C14.652 73.272 15.516 74.46 15.516 75.9C15.516 77.34 14.616 78.6 12.78 78.6H9ZM24.1768 74.712C24.1768 79.644 27.7408 84.432 34.3648 84.432C37.2088 84.432 40.2688 83.46 42.2848 81.732L39.9808 77.376C38.4688 78.384 36.7048 79.248 34.8688 79.248C32.8888 79.248 31.0168 78.204 30.5488 75.936H42.2488C42.3208 75.288 42.3928 74.64 42.3928 73.992C42.3928 68.844 39.2968 65.028 33.8248 65.028C27.8488 65.028 24.1768 69.276 24.1768 74.712ZM30.6928 72.372C31.0168 70.896 31.8808 69.6 33.6808 69.6C35.2648 69.6 36.2368 70.86 36.2368 72.372H30.6928ZM52.346 79.068C53.642 76.584 54.002 73.884 54.002 71.076V70.392H57.206V79.068H52.346ZM43.922 79.068V88.32H49.682V84H60.554V88.32H66.098V79.068H63.434V65.46H48.134V69.924C48.134 73.668 47.45 76.98 46.226 79.068H43.922ZM67.7003 74.712C67.7003 79.644 71.2643 84.432 77.8883 84.432C80.7323 84.432 83.7923 83.46 85.8083 81.732L83.5043 77.376C81.9923 78.384 80.2283 79.248 78.3923 79.248C76.4123 79.248 74.5403 78.204 74.0723 75.936H85.7723C85.8443 75.288 85.9163 74.64 85.9163 73.992C85.9163 68.844 82.8203 65.028 77.3483 65.028C71.3723 65.028 67.7003 69.276 67.7003 74.712ZM74.2163 72.372C74.5403 70.896 75.4043 69.6 77.2043 69.6C78.7883 69.6 79.7603 70.86 79.7603 72.372H74.2163ZM88.378 84H94.318L94.75 75.468C94.822 74.028 94.714 72.3 94.714 72.3H94.786C94.786 72.3 95.47 73.848 95.866 75.036L98.314 81.516H103.354L105.802 75.036C106.27 73.884 106.81 72.3 106.81 72.3H106.882C106.882 72.3 106.81 74.028 106.846 75.468L107.278 84H113.254L111.49 65.46H104.326L101.59 73.596C101.266 74.532 100.834 75.756 100.834 75.756H100.798C100.798 75.756 100.402 74.532 100.078 73.596L97.342 65.46H90.142L88.378 84ZM125.627 91.2H131.855V84.252C131.855 83.316 131.783 82.668 131.783 82.668H131.855C133.187 83.82 134.843 84.432 136.571 84.432C141.503 84.432 145.211 80.616 145.211 74.748C145.211 68.988 141.899 65.028 136.859 65.028C134.627 65.028 132.503 65.892 131.243 67.584H131.171C131.171 67.584 131.243 67.008 131.243 66.396V65.46H125.627V91.2ZM131.675 74.856C131.675 71.652 133.439 70.284 135.311 70.284C137.471 70.284 138.947 72.084 138.947 74.856C138.947 77.7 137.255 79.284 135.311 79.284C132.863 79.284 131.675 77.088 131.675 74.856ZM147.364 74.712C147.364 79.644 150.928 84.432 157.552 84.432C160.396 84.432 163.456 83.46 165.472 81.732L163.168 77.376C161.656 78.384 159.892 79.248 158.056 79.248C156.076 79.248 154.204 78.204 153.736 75.936H165.436C165.508 75.288 165.58 74.64 165.58 73.992C165.58 68.844 162.484 65.028 157.012 65.028C151.036 65.028 147.364 69.276 147.364 74.712ZM153.88 72.372C154.204 70.896 155.068 69.6 156.868 69.6C158.452 69.6 159.424 70.86 159.424 72.372H153.88ZM177.906 64.164C181.542 64.164 184.71 62.184 184.71 58.656V58.26H180.138V58.692C180.138 60.168 178.95 60.816 177.906 60.816C176.826 60.816 175.674 60.168 175.674 58.692V58.26H171.066V58.656C171.066 62.184 174.234 64.164 177.906 64.164ZM168.834 84H174.882L180.03 75.864C180.318 75.36 180.714 74.784 181.038 74.028H181.11C181.038 74.748 181.038 75.468 181.038 75.9V84H186.906V65.46H180.858L175.71 73.632C175.386 74.172 175.026 74.712 174.702 75.468H174.63C174.666 75 174.702 74.28 174.702 73.632V65.46H168.834V84ZM195.156 84H201.384V70.68H207.036V65.46H189.54V70.68H195.156V84ZM209.651 84H215.699L220.847 75.864C221.135 75.36 221.531 74.784 221.855 74.028H221.927C221.855 74.748 221.855 75.468 221.855 75.9V84H227.723V65.46H221.675L216.527 73.632C216.203 74.172 215.843 74.712 215.519 75.468H215.447C215.483 75 215.519 74.28 215.519 73.632V65.46H209.651V84ZM231.904 84H238.132V77.232H243.856V84H250.084V65.46H243.856V72.012H238.132V65.46H231.904V84ZM254.264 84H260.492V70.68H267.332V65.46H254.264V84ZM278.943 84H285.171V70.68H290.679V84H296.907V65.46H278.943V84ZM301.092 91.2H307.32V84.252C307.32 83.316 307.248 82.668 307.248 82.668H307.32C308.652 83.82 310.308 84.432 312.036 84.432C316.968 84.432 320.676 80.616 320.676 74.748C320.676 68.988 317.364 65.028 312.324 65.028C310.092 65.028 307.968 65.892 306.708 67.584H306.636C306.636 67.584 306.708 67.008 306.708 66.396V65.46H301.092V91.2ZM307.14 74.856C307.14 71.652 308.904 70.284 310.776 70.284C312.936 70.284 314.412 72.084 314.412 74.856C314.412 77.7 312.72 79.284 310.776 79.284C308.328 79.284 307.14 77.088 307.14 74.856ZM322.829 74.784C322.829 80.58 327.509 84.432 333.341 84.432C339.173 84.432 343.853 80.58 343.853 74.784C343.853 68.952 339.173 65.028 333.305 65.028C327.509 65.028 322.829 68.952 322.829 74.784ZM329.129 74.784C329.129 71.976 331.073 70.212 333.341 70.212C335.609 70.212 337.553 71.976 337.553 74.784C337.553 77.556 335.609 79.248 333.341 79.248C331.073 79.248 329.129 77.556 329.129 74.784ZM346.971 84H353.199V70.68H360.039V65.46H346.971V84ZM362.651 91.2H368.879V84.252C368.879 83.316 368.807 82.668 368.807 82.668H368.879C370.211 83.82 371.867 84.432 373.595 84.432C378.527 84.432 382.235 80.616 382.235 74.748C382.235 68.988 378.923 65.028 373.883 65.028C371.651 65.028 369.527 65.892 368.267 67.584H368.195C368.195 67.584 368.267 67.008 368.267 66.396V65.46H362.651V91.2ZM368.699 74.856C368.699 71.652 370.463 70.284 372.335 70.284C374.495 70.284 375.971 72.084 375.971 74.856C375.971 77.7 374.279 79.284 372.335 79.284C369.887 79.284 368.699 77.088 368.699 74.856ZM384.388 74.712C384.388 79.644 387.952 84.432 394.576 84.432C397.42 84.432 400.48 83.46 402.496 81.732L400.192 77.376C398.68 78.384 396.916 79.248 395.08 79.248C393.1 79.248 391.228 78.204 390.76 75.936H402.46C402.532 75.288 402.604 74.64 402.604 73.992C402.604 68.844 399.508 65.028 394.036 65.028C388.06 65.028 384.388 69.276 384.388 74.712ZM390.904 72.372C391.228 70.896 392.092 69.6 393.892 69.6C395.476 69.6 396.448 70.86 396.448 72.372H390.904ZM404.814 74.712C404.814 79.824 408.522 84.432 415.146 84.432C418.242 84.432 421.266 83.244 423.102 81.372L420.834 77.016C419.502 78.168 417.558 79.248 415.758 79.248C412.626 79.248 411.114 76.836 411.114 74.64C411.114 72.444 412.59 70.212 415.542 70.212C417.162 70.212 418.818 70.968 419.898 72.012L422.526 67.836C420.69 65.856 417.738 65.028 415.146 65.028C408.486 65.028 404.814 69.744 404.814 74.712ZM424.29 74.712C424.29 79.824 427.998 84.432 434.622 84.432C437.718 84.432 440.742 83.244 442.578 81.372L440.31 77.016C438.978 78.168 437.034 79.248 435.234 79.248C432.102 79.248 430.59 76.836 430.59 74.64C430.59 72.444 432.066 70.212 435.018 70.212C436.638 70.212 438.294 70.968 439.374 72.012L442.002 67.836C440.166 65.856 437.214 65.028 434.622 65.028C427.962 65.028 424.29 69.744 424.29 74.712ZM443.865 78.78C443.865 81.984 446.349 84.432 449.913 84.432C452.037 84.432 454.197 83.46 455.421 81.732H455.493C455.493 81.732 455.421 82.272 455.421 82.884V84H461.109V72.588C461.109 67.872 457.941 65.028 452.829 65.028C449.805 65.028 446.565 66.216 444.981 67.44L447.141 71.832C448.617 70.86 450.453 70.068 452.253 70.068C453.621 70.068 454.881 70.572 454.881 72.12V72.444H454.341C449.769 72.444 443.865 73.812 443.865 78.78ZM450.021 78.204C450.021 76.512 452.469 76.008 454.377 76.008H454.953V76.512C454.953 78.024 453.585 79.788 451.785 79.788C450.633 79.788 450.021 79.068 450.021 78.204ZM2.088 126H8.136L13.284 117.864C13.572 117.36 13.968 116.784 14.292 116.028H14.364C14.292 116.748 14.292 117.468 14.292 117.9V126H20.16V107.46H14.112L8.964 115.632C8.64 116.172 8.28 116.712 7.956 117.468H7.884C7.92 117 7.956 116.28 7.956 115.632V107.46H2.088V126ZM33.3419 126H43.4579C47.1299 126 50.5139 124.56 50.5139 120.492C50.5139 118.872 49.7219 117.036 47.5979 116.388V116.352C49.0019 115.524 49.7579 113.868 49.7579 112.32C49.7579 109.116 47.1659 107.46 43.4579 107.46H33.3419V126ZM39.5699 114.768V111.312H41.8379C43.0619 111.312 43.5659 112.068 43.5659 112.932C43.5659 113.904 43.0619 114.768 41.9099 114.768H39.5699ZM39.5699 122.112V118.404H42.3419C43.6739 118.404 44.2859 119.268 44.2859 120.276C44.2859 121.212 43.6379 122.112 42.3059 122.112H39.5699ZM52.6885 116.712C52.6885 121.824 56.3965 126.432 63.0205 126.432C66.1165 126.432 69.1405 125.244 70.9765 123.372L68.7085 119.016C67.3765 120.168 65.4325 121.248 63.6325 121.248C60.5005 121.248 58.9885 118.836 58.9885 116.64C58.9885 114.444 60.4645 112.212 63.4165 112.212C65.0365 112.212 66.6925 112.968 67.7725 114.012L70.4005 109.836C68.5645 107.856 65.6125 107.028 63.0205 107.028C56.3605 107.028 52.6885 111.744 52.6885 116.712ZM72.1651 116.712C72.1651 121.644 75.7291 126.432 82.3531 126.432C85.1971 126.432 88.2571 125.46 90.2731 123.732L87.9691 119.376C86.4571 120.384 84.6931 121.248 82.8571 121.248C80.8771 121.248 79.0051 120.204 78.5371 117.936H90.2371C90.3091 117.288 90.3811 116.64 90.3811 115.992C90.3811 110.844 87.2851 107.028 81.8131 107.028C75.8371 107.028 72.1651 111.276 72.1651 116.712ZM78.6811 114.372C79.0051 112.896 79.8691 111.6 81.6691 111.6C83.2531 111.6 84.2251 112.86 84.2251 114.372H78.6811ZM93.6349 126H99.8629V112.68H106.703V107.46H93.6349V126ZM114.643 121.068C115.939 118.584 116.299 115.884 116.299 113.076V112.392H119.503V121.068H114.643ZM106.219 121.068V130.32H111.979V126H122.851V130.32H128.395V121.068H125.731V107.46H110.431V111.924C110.431 115.668 109.747 118.98 108.523 121.068H106.219ZM129.92 120.78C129.92 123.984 132.404 126.432 135.968 126.432C138.092 126.432 140.252 125.46 141.476 123.732H141.548C141.548 123.732 141.476 124.272 141.476 124.884V126H147.164V114.588C147.164 109.872 143.996 107.028 138.884 107.028C135.86 107.028 132.62 108.216 131.036 109.44L133.196 113.832C134.672 112.86 136.508 112.068 138.308 112.068C139.676 112.068 140.936 112.572 140.936 114.12V114.444H140.396C135.824 114.444 129.92 115.812 129.92 120.78ZM136.076 120.204C136.076 118.512 138.524 118.008 140.432 118.008H141.008V118.512C141.008 120.024 139.64 121.788 137.84 121.788C136.688 121.788 136.076 121.068 136.076 120.204ZM160.115 126H166.343V119.232H172.067V126H178.295V107.46H172.067V114.012H166.343V107.46H160.115V126ZM181.143 120.78C181.143 123.984 183.627 126.432 187.191 126.432C189.315 126.432 191.475 125.46 192.699 123.732H192.771C192.771 123.732 192.699 124.272 192.699 124.884V126H198.387V114.588C198.387 109.872 195.219 107.028 190.107 107.028C187.083 107.028 183.843 108.216 182.259 109.44L184.419 113.832C185.895 112.86 187.731 112.068 189.531 112.068C190.899 112.068 192.159 112.572 192.159 114.12V114.444H191.619C187.047 114.444 181.143 115.812 181.143 120.78ZM187.299 120.204C187.299 118.512 189.747 118.008 191.655 118.008H192.231V118.512C192.231 120.024 190.863 121.788 189.063 121.788C187.911 121.788 187.299 121.068 187.299 120.204ZM200.646 126H207.486L209.682 121.824C209.862 121.5 210.114 120.888 210.114 120.888H210.186C210.186 120.888 210.438 121.5 210.618 121.824L212.85 126H219.69L213.858 116.82L219.798 107.46H212.778L210.762 111.6C210.546 112.068 210.186 112.824 210.186 112.824H210.114C210.114 112.824 209.79 112.068 209.538 111.6L207.522 107.46H200.502L206.478 116.82L200.646 126ZM220.419 116.784C220.419 122.58 225.099 126.432 230.931 126.432C236.763 126.432 241.443 122.58 241.443 116.784C241.443 110.952 236.763 107.028 230.895 107.028C225.099 107.028 220.419 110.952 220.419 116.784ZM226.719 116.784C226.719 113.976 228.663 112.212 230.931 112.212C233.199 112.212 235.143 113.976 235.143 116.784C235.143 119.556 233.199 121.248 230.931 121.248C228.663 121.248 226.719 119.556 226.719 116.784ZM251.049 121.068C252.345 118.584 252.705 115.884 252.705 113.076V112.392H255.909V121.068H251.049ZM242.625 121.068V130.32H248.385V126H259.257V130.32H264.801V121.068H262.137V107.46H246.837V111.924C246.837 115.668 246.153 118.98 244.929 121.068H242.625ZM267.658 126H273.706L278.854 117.864C279.142 117.36 279.538 116.784 279.862 116.028H279.934C279.862 116.748 279.862 117.468 279.862 117.9V126H285.73V107.46H279.682L274.534 115.632C274.21 116.172 273.85 116.712 273.526 117.468H273.454C273.49 117 273.526 116.28 273.526 115.632V107.46H267.658V126ZM289.12 126H295.06L295.492 117.468C295.564 116.028 295.456 114.3 295.456 114.3H295.528C295.528 114.3 296.212 115.848 296.608 117.036L299.056 123.516H304.096L306.544 117.036C307.012 115.884 307.552 114.3 307.552 114.3H307.624C307.624 114.3 307.552 116.028 307.588 117.468L308.02 126H313.996L312.232 107.46H305.068L302.332 115.596C302.008 116.532 301.576 117.756 301.576 117.756H301.54C301.54 117.756 301.144 116.532 300.82 115.596L298.084 107.46H290.884L289.12 126ZM316.325 116.712C316.325 121.824 320.033 126.432 326.657 126.432C329.753 126.432 332.777 125.244 334.613 123.372L332.345 119.016C331.013 120.168 329.069 121.248 327.269 121.248C324.137 121.248 322.625 118.836 322.625 116.64C322.625 114.444 324.101 112.212 327.053 112.212C328.673 112.212 330.329 112.968 331.409 114.012L334.037 109.836C332.201 107.856 329.249 107.028 326.657 107.028C319.997 107.028 316.325 111.744 316.325 116.712ZM335.293 126H341.881L345.445 120.348H346.741V126H352.969V107.46H343.249C339.145 107.46 336.553 109.836 336.553 113.724C336.553 116.1 337.885 118.224 339.901 119.232V119.268C339.901 119.268 339.541 119.628 339.037 120.384L335.293 126ZM345.265 116.208C343.789 116.208 342.745 115.452 342.745 113.688C342.745 111.96 343.789 111.312 345.229 111.312H346.741V116.208H345.265ZM366.131 133.2H372.359V126.252C372.359 125.316 372.287 124.668 372.287 124.668H372.359C373.691 125.82 375.347 126.432 377.075 126.432C382.007 126.432 385.715 122.616 385.715 116.748C385.715 110.988 382.403 107.028 377.363 107.028C375.131 107.028 373.007 107.892 371.747 109.584H371.675C371.675 109.584 371.747 109.008 371.747 108.396V107.46H366.131V133.2ZM372.179 116.856C372.179 113.652 373.943 112.284 375.815 112.284C377.975 112.284 379.451 114.084 379.451 116.856C379.451 119.7 377.759 121.284 375.815 121.284C373.367 121.284 372.179 119.088 372.179 116.856ZM387.148 126H393.736L397.3 120.348H398.596V126H404.824V107.46H395.104C391 107.46 388.408 109.836 388.408 113.724C388.408 116.1 389.74 118.224 391.756 119.232V119.268C391.756 119.268 391.396 119.628 390.892 120.384L387.148 126ZM397.12 116.208C395.644 116.208 394.6 115.452 394.6 113.688C394.6 111.96 395.644 111.312 397.084 111.312H398.596V116.208H397.12ZM415.826 121.068C417.122 118.584 417.482 115.884 417.482 113.076V112.392H420.686V121.068H415.826ZM407.402 121.068V130.32H413.162V126H424.034V130.32H429.578V121.068H426.914V107.46H411.614V111.924C411.614 115.668 410.93 118.98 409.706 121.068H407.402ZM431.181 116.784C431.181 122.58 435.861 126.432 441.693 126.432C447.525 126.432 452.205 122.58 452.205 116.784C452.205 110.952 447.525 107.028 441.657 107.028C435.861 107.028 431.181 110.952 431.181 116.784ZM437.481 116.784C437.481 113.976 439.425 112.212 441.693 112.212C443.961 112.212 445.905 113.976 445.905 116.784C445.905 119.556 443.961 121.248 441.693 121.248C439.425 121.248 437.481 119.556 437.481 116.784ZM454.53 126H460.47L460.902 117.468C460.974 116.028 460.866 114.3 460.866 114.3H460.938C460.938 114.3 461.622 115.848 462.018 117.036L464.466 123.516H469.506L471.954 117.036C472.422 115.884 472.962 114.3 472.962 114.3H473.034C473.034 114.3 472.962 116.028 472.998 117.468L473.43 126H479.406L477.642 107.46H470.478L467.742 115.596C467.418 116.532 466.986 117.756 466.986 117.756H466.95C466.95 117.756 466.554 116.532 466.23 115.596L463.494 107.46H456.294L454.53 126Z" fill="#222224"/>
<path d="M0.486 199.488C1.476 200.586 3.078 201.216 4.608 201.216C7.002 201.216 8.928 199.758 8.928 197.4C8.928 195.834 8.028 194.736 6.696 194.358V194.322C7.596 193.872 8.532 193.008 8.532 191.46C8.532 189.336 6.894 188.076 4.716 188.076C3.636 188.076 2.214 188.274 0.864 189.39L1.62 190.722C2.556 189.93 3.564 189.642 4.464 189.642C6.03 189.642 6.714 190.578 6.714 191.676C6.714 192.882 5.706 193.728 4.428 193.728H3.168V195.204H4.734C6.12 195.204 7.11 195.978 7.11 197.31C7.11 198.75 6.012 199.614 4.464 199.614C3.276 199.614 2.142 199.002 1.476 198.282L0.486 199.488ZM10.4202 198.516C10.4202 200.226 11.8782 201.216 13.4622 201.216C14.8122 201.216 15.9282 200.406 16.4502 199.362H16.4862C16.4862 199.362 16.4322 199.668 16.4322 200.082V201H18.0702V195.24C18.0702 192.936 16.7562 191.676 14.4702 191.676C13.1922 191.676 11.8062 192.144 11.0682 192.756L11.7702 194.034C12.5082 193.512 13.4262 193.152 14.3262 193.152C15.4602 193.152 16.3242 193.656 16.3242 195.15V195.33H15.8562C13.9662 195.33 10.4202 195.654 10.4202 198.516ZM12.1662 198.372C12.1662 196.698 14.5782 196.59 15.8742 196.59H16.3242V196.932C16.3242 198.282 15.4062 199.83 13.8762 199.83C12.7422 199.83 12.1662 199.092 12.1662 198.372ZM22.4328 199.56C23.5848 197.76 23.7288 195.168 23.7288 193.8V193.314H26.4648V199.56H22.4328ZM19.5168 199.56V203.16H21.1548V201H27.9048V203.16H29.5068V199.56H28.2108V191.892H22.0548V193.566C22.0548 194.97 21.9108 197.814 20.6328 199.56H19.5168ZM30.5823 198.516C30.5823 200.226 32.0403 201.216 33.6243 201.216C34.9743 201.216 36.0903 200.406 36.6123 199.362H36.6483C36.6483 199.362 36.5943 199.668 36.5943 200.082V201H38.2323V195.24C38.2323 192.936 36.9183 191.676 34.6323 191.676C33.3543 191.676 31.9683 192.144 31.2303 192.756L31.9323 194.034C32.6703 193.512 33.5883 193.152 34.4883 193.152C35.6223 193.152 36.4863 193.656 36.4863 195.15V195.33H36.0183C34.1283 195.33 30.5823 195.654 30.5823 198.516ZM32.3283 198.372C32.3283 196.698 34.7403 196.59 36.0363 196.59H36.4863V196.932C36.4863 198.282 35.5683 199.83 34.0383 199.83C32.9043 199.83 32.3283 199.092 32.3283 198.372ZM40.8129 201H44.7009C46.6809 201 48.0489 200.1 48.0489 198.408C48.0489 197.4 47.4549 196.518 46.3209 196.248V196.23C47.1489 195.87 47.6169 195.114 47.6169 194.232C47.6169 192.702 46.4109 191.892 44.5749 191.892H40.8129V201ZM42.5589 195.744V193.098H44.2149C45.3129 193.098 45.8349 193.53 45.8349 194.358C45.8349 195.204 45.3129 195.744 44.2689 195.744H42.5589ZM42.5589 199.776V196.914H44.4129C45.6189 196.914 46.2849 197.454 46.2849 198.354C46.2849 199.2 45.6909 199.776 44.4309 199.776H42.5589ZM49.4085 198.516C49.4085 200.226 50.8665 201.216 52.4505 201.216C53.8005 201.216 54.9165 200.406 55.4385 199.362H55.4745C55.4745 199.362 55.4205 199.668 55.4205 200.082V201H57.0585V195.24C57.0585 192.936 55.7445 191.676 53.4585 191.676C52.1805 191.676 50.7945 192.144 50.0565 192.756L50.7585 194.034C51.4965 193.512 52.4145 193.152 53.3145 193.152C54.4485 193.152 55.3125 193.656 55.3125 195.15V195.33H54.8445C52.9545 195.33 49.4085 195.654 49.4085 198.516ZM51.1545 198.372C51.1545 196.698 53.5665 196.59 54.8625 196.59H55.3125V196.932C55.3125 198.282 54.3945 199.83 52.8645 199.83C51.7305 199.83 51.1545 199.092 51.1545 198.372ZM63.6531 190.848C65.0571 190.848 66.3171 190.02 66.3171 188.544V188.274H64.9311V188.508C64.9311 189.318 64.2831 189.714 63.6531 189.714C63.0231 189.714 62.3931 189.318 62.3931 188.526V188.274H60.9891V188.544C60.9891 190.02 62.2671 190.848 63.6531 190.848ZM59.6391 201H61.3131L65.2551 195.564C65.5431 195.132 65.9931 194.52 66.0471 194.358H66.0831C66.0831 194.502 66.0291 195.132 66.0291 195.564V201H67.7211V191.892H66.0291L62.1051 197.328C61.7991 197.76 61.3671 198.39 61.2951 198.552H61.2591C61.2771 198.462 61.3131 197.814 61.3131 197.328V191.892H59.6391V201ZM72.5929 201H74.3209V193.386H77.5069V191.892H69.4249V193.386H72.5929V201ZM78.3283 196.446C78.3283 199.146 80.3083 201.216 83.1703 201.216C84.4303 201.216 85.8163 200.73 86.6983 199.92L85.9603 198.642C85.2403 199.29 84.2503 199.704 83.2783 199.704C81.6403 199.704 80.2363 198.642 80.1463 196.68H86.7703C86.8063 196.428 86.8423 196.176 86.8423 195.942C86.8423 193.602 85.4743 191.676 82.9003 191.676C80.3083 191.676 78.3283 193.548 78.3283 196.446ZM80.2003 195.42C80.4523 193.908 81.5143 193.026 82.8643 193.026C84.0523 193.026 85.0243 193.854 85.0783 195.42H80.2003ZM92.4518 201.09C95.1338 200.946 96.1778 198.822 96.1778 194.7V193.332H98.8598V201H100.606V191.892H94.5038V194.7C94.5038 197.994 93.7838 199.326 92.4518 199.524V201.09ZM103.303 201H105.049V197.148H106.705C107.029 199.524 108.955 201.216 111.367 201.216C113.995 201.216 116.101 199.2 116.101 196.428C116.101 193.674 113.995 191.676 111.349 191.676C108.955 191.676 107.029 193.35 106.705 195.708H105.049V191.892H103.303V201ZM108.397 196.428C108.397 194.538 109.711 193.188 111.367 193.188C113.005 193.188 114.319 194.538 114.319 196.428C114.319 198.336 113.005 199.704 111.367 199.704C109.711 199.704 108.397 198.336 108.397 196.428ZM117.813 195.762C117.813 198.912 119.199 201.216 122.277 201.216C124.851 201.216 126.579 199.416 126.579 196.896C126.579 194.322 124.995 192.702 122.709 192.702C121.503 192.702 120.297 193.098 119.487 194.322H119.451C119.577 192.576 120.441 191.514 122.259 190.686L125.751 189.228L125.175 187.788L121.917 189.192C118.749 190.524 117.813 192.504 117.813 195.762ZM119.631 196.896C119.631 195.294 120.729 194.088 122.277 194.088C123.645 194.088 124.815 195.15 124.815 196.932C124.815 198.696 123.645 199.74 122.205 199.74C120.801 199.74 119.631 198.696 119.631 196.896ZM137 201H138.746V191.892H137V201ZM128.756 201H132.266C134.552 201 135.596 199.83 135.596 198.12C135.596 196.05 134.174 195.186 132.284 195.186H130.502V191.892H128.756V201ZM130.502 199.74V196.446H132.014C133.274 196.446 133.832 197.13 133.832 198.102C133.832 199.056 133.292 199.74 132.032 199.74H130.502ZM140.854 196.446C140.854 199.146 142.834 201.216 145.696 201.216C146.956 201.216 148.342 200.73 149.224 199.92L148.486 198.642C147.766 199.29 146.776 199.704 145.804 199.704C144.166 199.704 142.762 198.642 142.672 196.68H149.296C149.332 196.428 149.368 196.176 149.368 195.942C149.368 193.602 148 191.676 145.426 191.676C142.834 191.676 140.854 193.548 140.854 196.446ZM142.726 195.42C142.978 193.908 144.04 193.026 145.39 193.026C146.578 193.026 147.55 193.854 147.604 195.42H142.726ZM155.967 201H159.855C161.835 201 163.203 200.1 163.203 198.408C163.203 197.4 162.609 196.518 161.475 196.248V196.23C162.303 195.87 162.771 195.114 162.771 194.232C162.771 192.702 161.565 191.892 159.729 191.892H155.967V201ZM157.713 195.744V193.098H159.369C160.467 193.098 160.989 193.53 160.989 194.358C160.989 195.204 160.467 195.744 159.423 195.744H157.713ZM157.713 199.776V196.914H159.567C160.773 196.914 161.439 197.454 161.439 198.354C161.439 199.2 160.845 199.776 159.585 199.776H157.713ZM164.725 196.428C164.725 199.2 166.921 201.216 169.639 201.216C172.339 201.216 174.535 199.2 174.535 196.428C174.535 193.674 172.339 191.676 169.621 191.676C166.921 191.676 164.725 193.674 164.725 196.428ZM166.507 196.428C166.507 194.538 167.911 193.188 169.639 193.188C171.349 193.188 172.771 194.538 172.771 196.428C172.771 198.336 171.349 199.704 169.639 199.704C167.911 199.704 166.507 198.336 166.507 196.428ZM176.639 201H178.385V193.386H182.849V201H184.595V191.892H176.639V201ZM187.291 204.6H189.037V200.46C189.037 199.992 188.965 199.668 188.965 199.668H189.001C189.631 200.64 190.675 201.216 191.827 201.216C194.221 201.216 195.949 199.344 195.949 196.446C195.949 193.62 194.419 191.676 191.953 191.676C190.621 191.676 189.469 192.288 188.893 193.386H188.857C188.857 193.386 188.911 193.08 188.911 192.702V191.892H187.291V204.6ZM188.983 196.482C188.983 194.178 190.243 193.206 191.611 193.206C193.123 193.206 194.185 194.484 194.185 196.464C194.185 198.534 192.997 199.704 191.557 199.704C189.883 199.704 188.983 198.102 188.983 196.482ZM197.508 196.428C197.508 199.2 199.704 201.216 202.422 201.216C205.122 201.216 207.318 199.2 207.318 196.428C207.318 193.674 205.122 191.676 202.404 191.676C199.704 191.676 197.508 193.674 197.508 196.428ZM199.29 196.428C199.29 194.538 200.694 193.188 202.422 193.188C204.132 193.188 205.554 194.538 205.554 196.428C205.554 198.336 204.132 199.704 202.422 199.704C200.694 199.704 199.29 198.336 199.29 196.428ZM208.828 196.446C208.828 199.182 210.826 201.216 213.706 201.216C215.128 201.216 216.514 200.64 217.342 199.758L216.64 198.48C215.938 199.218 214.84 199.704 213.832 199.704C211.942 199.704 210.61 198.282 210.61 196.428C210.61 194.574 211.942 193.188 213.778 193.188C214.732 193.188 215.686 193.62 216.298 194.232L217.126 193.008C216.262 192.09 214.912 191.676 213.706 191.676C210.844 191.676 208.828 193.746 208.828 196.446ZM227.475 201H229.221V191.892H227.475V201ZM219.231 201H222.741C225.027 201 226.071 199.83 226.071 198.12C226.071 196.05 224.649 195.186 222.759 195.186H220.977V191.892H219.231V201ZM220.977 199.74V196.446H222.489C223.749 196.446 224.307 197.13 224.307 198.102C224.307 199.056 223.767 199.74 222.507 199.74H220.977ZM231.202 202.818H232.588L234.154 199.11H232.318L231.202 202.818ZM0.594 226.516C0.594 228.226 2.052 229.216 3.636 229.216C4.986 229.216 6.102 228.406 6.624 227.362H6.66C6.66 227.362 6.606 227.668 6.606 228.082V229H8.244V223.24C8.244 220.936 6.93 219.676 4.644 219.676C3.366 219.676 1.98 220.144 1.242 220.756L1.944 222.034C2.682 221.512 3.6 221.152 4.5 221.152C5.634 221.152 6.498 221.656 6.498 223.15V223.33H6.03C4.14 223.33 0.594 223.654 0.594 226.516ZM2.34 226.372C2.34 224.698 4.752 224.59 6.048 224.59H6.498V224.932C6.498 226.282 5.58 227.83 4.05 227.83C2.916 227.83 2.34 227.092 2.34 226.372ZM14.9466 229H16.6386L17.0346 223.582C17.0706 223.042 17.0166 222.016 17.0166 222.016H17.0526C17.0526 222.016 17.3406 222.7 17.6286 223.366L19.7886 227.902H21.2826L23.4426 223.348C23.7846 222.646 24.0186 222.016 24.0186 222.016H24.0546C24.0546 222.016 24.0186 223.042 24.0366 223.582L24.4326 229H26.1246L25.3326 219.892H23.4246L21.0486 225.04C20.8146 225.598 20.5446 226.264 20.5446 226.264H20.5086C20.5086 226.264 20.2566 225.58 20.0046 225.04L17.6826 219.892H15.7386L14.9466 229ZM36.717 229H38.463V219.892H36.717V229ZM28.473 229H31.983C34.269 229 35.313 227.83 35.313 226.12C35.313 224.05 33.891 223.186 32.001 223.186H30.219V219.892H28.473V229ZM30.219 227.74V224.446H31.731C32.991 224.446 33.549 225.13 33.549 226.102C33.549 227.056 33.009 227.74 31.749 227.74H30.219ZM45.0705 224.446C45.0705 227.182 47.0685 229.216 49.9485 229.216C51.3705 229.216 52.7565 228.64 53.5845 227.758L52.8825 226.48C52.1805 227.218 51.0825 227.704 50.0745 227.704C48.1845 227.704 46.8525 226.282 46.8525 224.428C46.8525 222.574 48.1845 221.188 50.0205 221.188C50.9745 221.188 51.9285 221.62 52.5405 222.232L53.3685 221.008C52.5045 220.09 51.1545 219.676 49.9485 219.676C47.0865 219.676 45.0705 221.746 45.0705 224.446ZM59.523 230.89L58.911 232.222C58.911 232.222 59.649 232.78 60.657 232.78C61.935 232.78 63.069 232.06 63.609 230.638L67.893 219.892H66.003L63.789 225.868C63.627 226.336 63.483 226.948 63.483 226.948H63.447C63.447 226.948 63.285 226.3 63.105 225.85L60.819 219.892H58.857L62.673 228.892L62.223 229.936C61.881 230.764 61.287 231.286 60.567 231.286C60.027 231.286 59.523 230.89 59.523 230.89ZM70.7375 227.56C71.8895 225.76 72.0335 223.168 72.0335 221.8V221.314H74.7695V227.56H70.7375ZM67.8215 227.56V231.16H69.4595V229H76.2095V231.16H77.8115V227.56H76.5155V219.892H70.3595V221.566C70.3595 222.97 70.2155 225.814 68.9375 227.56H67.8215ZM78.9435 224.428C78.9435 227.2 81.1395 229.216 83.8575 229.216C86.5575 229.216 88.7535 227.2 88.7535 224.428C88.7535 221.674 86.5575 219.676 83.8395 219.676C81.1395 219.676 78.9435 221.674 78.9435 224.428ZM80.7255 224.428C80.7255 222.538 82.1295 221.188 83.8575 221.188C85.5675 221.188 86.9895 222.538 86.9895 224.428C86.9895 226.336 85.5675 227.704 83.8575 227.704C82.1295 227.704 80.7255 226.336 80.7255 224.428ZM90.8578 229H94.7458C96.7258 229 98.0938 228.1 98.0938 226.408C98.0938 225.4 97.4998 224.518 96.3658 224.248V224.23C97.1938 223.87 97.6618 223.114 97.6618 222.232C97.6618 220.702 96.4558 219.892 94.6198 219.892H90.8578V229ZM92.6038 223.744V221.098H94.2598C95.3578 221.098 95.8798 221.53 95.8798 222.358C95.8798 223.204 95.3578 223.744 94.3138 223.744H92.6038ZM92.6038 227.776V224.914H94.4578C95.6638 224.914 96.3298 225.454 96.3298 226.354C96.3298 227.2 95.7358 227.776 94.4758 227.776H92.6038ZM99.6154 224.428C99.6154 227.2 101.811 229.216 104.529 229.216C107.229 229.216 109.425 227.2 109.425 224.428C109.425 221.674 107.229 219.676 104.511 219.676C101.811 219.676 99.6154 221.674 99.6154 224.428ZM101.397 224.428C101.397 222.538 102.801 221.188 104.529 221.188C106.239 221.188 107.661 222.538 107.661 224.428C107.661 226.336 106.239 227.704 104.529 227.704C102.801 227.704 101.397 226.336 101.397 224.428ZM110.294 229.09C112.976 228.946 114.02 226.822 114.02 222.7V221.332H116.702V229H118.448V219.892H112.346V222.7C112.346 225.994 111.626 227.326 110.294 227.524V229.09ZM121.145 229H124.691C126.995 229 128.039 227.83 128.039 226.12C128.039 224.05 126.617 223.186 124.727 223.186H122.891V219.892H121.145V229ZM122.891 227.74V224.446H124.457C125.717 224.446 126.257 225.13 126.257 226.102C126.257 227.056 125.717 227.74 124.457 227.74H122.891ZM129.322 224.446C129.322 227.182 131.32 229.216 134.2 229.216C135.622 229.216 137.008 228.64 137.836 227.758L137.134 226.48C136.432 227.218 135.334 227.704 134.326 227.704C132.436 227.704 131.104 226.282 131.104 224.428C131.104 222.574 132.436 221.188 134.272 221.188C135.226 221.188 136.18 221.62 136.792 222.232L137.62 221.008C136.756 220.09 135.406 219.676 134.2 219.676C131.338 219.676 129.322 221.746 129.322 224.446ZM141.921 229H143.649V221.386H146.835V219.892H138.753V221.386H141.921V229ZM148.549 229H152.437C154.417 229 155.785 228.1 155.785 226.408C155.785 225.4 155.191 224.518 154.057 224.248V224.23C154.885 223.87 155.353 223.114 155.353 222.232C155.353 220.702 154.147 219.892 152.311 219.892H148.549V229ZM150.295 223.744V221.098H151.951C153.049 221.098 153.571 221.53 153.571 222.358C153.571 223.204 153.049 223.744 152.005 223.744H150.295ZM150.295 227.776V224.914H152.149C153.355 224.914 154.021 225.454 154.021 226.354C154.021 227.2 153.427 227.776 152.167 227.776H150.295ZM157.901 229H159.575L163.517 223.564C163.805 223.132 164.255 222.52 164.309 222.358H164.345C164.345 222.502 164.291 223.132 164.291 223.564V229H165.983V219.892H164.291L160.367 225.328C160.061 225.76 159.629 226.39 159.557 226.552H159.521C159.539 226.462 159.575 225.814 159.575 225.328V219.892H157.901V229ZM168.065 224.446C168.065 227.146 170.045 229.216 172.907 229.216C174.167 229.216 175.553 228.73 176.435 227.92L175.697 226.642C174.977 227.29 173.987 227.704 173.015 227.704C171.377 227.704 169.973 226.642 169.883 224.68H176.507C176.543 224.428 176.579 224.176 176.579 223.942C176.579 221.602 175.211 219.676 172.637 219.676C170.045 219.676 168.065 221.548 168.065 224.446ZM169.937 223.42C170.189 221.908 171.251 221.026 172.601 221.026C173.789 221.026 174.761 221.854 174.815 223.42H169.937ZM178.3 229H179.992L180.388 223.582C180.424 223.042 180.37 222.016 180.37 222.016H180.406C180.406 222.016 180.694 222.7 180.982 223.366L183.142 227.902H184.636L186.796 223.348C187.138 222.646 187.372 222.016 187.372 222.016H187.408C187.408 222.016 187.372 223.042 187.39 223.582L187.786 229H189.478L188.686 219.892H186.778L184.402 225.04C184.168 225.598 183.898 226.264 183.898 226.264H183.862C183.862 226.264 183.61 225.58 183.358 225.04L181.036 219.892H179.092L178.3 229ZM196.327 229H198.073V225.094H202.681V229H204.427V219.892H202.681V223.6H198.073V219.892H196.327V229ZM206.364 226.516C206.364 228.226 207.822 229.216 209.406 229.216C210.756 229.216 211.872 228.406 212.394 227.362H212.43C212.43 227.362 212.376 227.668 212.376 228.082V229H214.014V223.24C214.014 220.936 212.7 219.676 210.414 219.676C209.136 219.676 207.75 220.144 207.012 220.756L207.714 222.034C208.452 221.512 209.37 221.152 210.27 221.152C211.404 221.152 212.268 221.656 212.268 223.15V223.33H211.8C209.91 223.33 206.364 223.654 206.364 226.516ZM208.11 226.372C208.11 224.698 210.522 224.59 211.818 224.59H212.268V224.932C212.268 226.282 211.35 227.83 209.82 227.83C208.686 227.83 208.11 227.092 208.11 226.372ZM221.094 229H222.84V225.094H227.448V229H229.194V219.892H227.448V223.6H222.84V219.892H221.094V229ZM231.887 229H233.561L237.503 223.564C237.791 223.132 238.241 222.52 238.295 222.358H238.331C238.331 222.502 238.277 223.132 238.277 223.564V229H239.969V219.892H238.277L234.353 225.328C234.047 225.76 233.615 226.39 233.543 226.552H233.507C233.525 226.462 233.561 225.814 233.561 225.328V219.892H231.887V229ZM241.601 229H243.581L245.489 225.958C245.633 225.742 245.759 225.472 245.759 225.472H245.795C245.795 225.472 245.939 225.742 246.083 225.958L247.991 229H249.971L246.857 224.32L249.791 219.892H247.793L246.101 222.664C245.975 222.898 245.795 223.204 245.795 223.204H245.759C245.759 223.204 245.597 222.898 245.471 222.664L243.779 219.892H241.781L244.715 224.32L241.601 229ZM255.533 224.428C255.533 227.2 257.729 229.216 260.447 229.216C263.147 229.216 265.343 227.2 265.343 224.428C265.343 221.674 263.147 219.676 260.429 219.676C257.729 219.676 255.533 221.674 255.533 224.428ZM257.315 224.428C257.315 222.538 258.719 221.188 260.447 221.188C262.157 221.188 263.579 222.538 263.579 224.428C263.579 226.336 262.157 227.704 260.447 227.704C258.719 227.704 257.315 226.336 257.315 224.428ZM269.345 229H271.073V221.386H274.259V219.892H266.177V221.386H269.345V229ZM275.973 229H279.861C281.841 229 283.209 228.1 283.209 226.408C283.209 225.4 282.615 224.518 281.481 224.248V224.23C282.309 223.87 282.777 223.114 282.777 222.232C282.777 220.702 281.571 219.892 279.735 219.892H275.973V229ZM277.719 223.744V221.098H279.375C280.473 221.098 280.995 221.53 280.995 222.358C280.995 223.204 280.473 223.744 279.429 223.744H277.719ZM277.719 227.776V224.914H279.573C280.779 224.914 281.445 225.454 281.445 226.354C281.445 227.2 280.851 227.776 279.591 227.776H277.719ZM284.731 224.446C284.731 227.146 286.711 229.216 289.573 229.216C290.833 229.216 292.219 228.73 293.101 227.92L292.363 226.642C291.643 227.29 290.653 227.704 289.681 227.704C288.043 227.704 286.639 226.642 286.549 224.68H293.173C293.209 224.428 293.245 224.176 293.245 223.942C293.245 221.602 291.877 219.676 289.303 219.676C286.711 219.676 284.731 221.548 284.731 224.446ZM286.603 223.42C286.855 221.908 287.917 221.026 289.267 221.026C290.455 221.026 291.427 221.854 291.481 223.42H286.603ZM297.435 229H299.163V221.386H302.349V219.892H294.267V221.386H297.435V229ZM304.063 229H305.737L309.679 223.564C309.967 223.132 310.417 222.52 310.471 222.358H310.507C310.507 222.502 310.453 223.132 310.453 223.564V229H312.145V219.892H310.453L306.529 225.328C306.223 225.76 305.791 226.39 305.719 226.552H305.683C305.701 226.462 305.737 225.814 305.737 225.328V219.892H304.063V229ZM314.443 229H316.135L316.531 223.582C316.567 223.042 316.513 222.016 316.513 222.016H316.549C316.549 222.016 316.837 222.7 317.125 223.366L319.285 227.902H320.779L322.939 223.348C323.281 222.646 323.515 222.016 323.515 222.016H323.551C323.551 222.016 323.515 223.042 323.533 223.582L323.929 229H325.621L324.829 219.892H322.921L320.545 225.04C320.311 225.598 320.041 226.264 320.041 226.264H320.005C320.005 226.264 319.753 225.58 319.501 225.04L317.179 219.892H315.235L314.443 229Z" fill="#424754"/>
<path d="M713 53.2049C713 52.0831 713 51.5222 713.189 51.0937C713.355 50.7168 713.62 50.4104 713.947 50.2183C714.317 50 714.803 50 715.774 50H1031.23C1032.2 50 1032.68 50 1033.05 50.2183C1033.38 50.4104 1033.64 50.7168 1033.81 51.0937C1034 51.5222 1034 52.0831 1034 53.2049V263.795C1034 264.917 1034 265.478 1033.81 265.906C1033.64 266.283 1033.38 266.59 1033.05 266.782C1032.68 267 1032.2 267 1031.23 267H715.774C714.803 267 714.317 267 713.947 266.782C713.62 266.59 713.355 266.283 713.189 265.906C713 265.478 713 264.917 713 263.795V53.2049Z" fill="#F3F3F3"/>
<path d="M726 211.321C726 211.208 726 211.152 726.023 211.109C726.042 211.072 726.074 211.041 726.113 211.022C726.157 211 726.215 211 726.331 211H750.669C750.785 211 750.843 211 750.887 211.022C750.926 211.041 750.958 211.072 750.977 211.109C751 211.152 751 211.208 751 211.321V224.679C751 224.792 751 224.848 750.977 224.891C750.958 224.928 750.926 224.959 750.887 224.978C750.843 225 750.785 225 750.669 225H726.331C726.215 225 726.157 225 726.113 224.978C726.074 224.959 726.042 224.928 726.023 224.891C726 224.848 726 224.792 726 224.679V211.321Z" fill="white"/>
<path d="M756 197.642C756 197.417 756 197.305 756.023 197.219C756.042 197.143 756.074 197.082 756.113 197.044C756.157 197 756.215 197 756.331 197H780.669C780.785 197 780.843 197 780.887 197.044C780.926 197.082 780.958 197.143 780.977 197.219C781 197.305 781 197.417 781 197.642V224.358C781 224.583 781 224.695 780.977 224.781C780.958 224.857 780.926 224.918 780.887 224.956C780.843 225 780.785 225 780.669 225H756.331C756.215 225 756.157 225 756.113 224.956C756.074 224.918 756.042 224.857 756.023 224.781C756 224.695 756 224.583 756 224.358V197.642Z" fill="white"/>
<path d="M816 170.283C816 169.834 816 169.609 816.023 169.438C816.042 169.287 816.074 169.164 816.113 169.087C816.157 169 816.215 169 816.331 169H840.669C840.785 169 840.843 169 840.887 169.087C840.926 169.164 840.958 169.287 840.977 169.438C841 169.609 841 169.834 841 170.283V223.717C841 224.166 841 224.391 840.977 224.562C840.958 224.713 840.926 224.836 840.887 224.913C840.843 225 840.785 225 840.669 225H816.331C816.215 225 816.157 225 816.113 224.913C816.074 224.836 816.042 224.713 816.023 224.562C816 224.391 816 224.166 816 223.717V170.283Z" fill="white"/>
<path d="M786 183.962C786 183.625 786 183.457 786.023 183.328C786.042 183.215 786.074 183.123 786.113 183.066C786.157 183 786.215 183 786.331 183H810.669C810.785 183 810.843 183 810.887 183.066C810.926 183.123 810.958 183.215 810.977 183.328C811 183.457 811 183.625 811 183.962V224.038C811 224.375 811 224.543 810.977 224.672C810.958 224.785 810.926 224.877 810.887 224.934C810.843 225 810.785 225 810.669 225H786.331C786.215 225 786.157 225 786.113 224.934C786.074 224.877 786.042 224.785 786.023 224.672C786 224.543 786 224.375 786 224.038V183.962Z" fill="white"/>
<path d="M846 156.604C846 156.042 846 155.762 846.023 155.547C846.042 155.359 846.074 155.205 846.113 155.109C846.157 155 846.215 155 846.331 155H870.669C870.785 155 870.843 155 870.887 155.109C870.926 155.205 870.958 155.359 870.977 155.547C871 155.762 871 156.042 871 156.604V223.396C871 223.958 871 224.238 870.977 224.453C870.958 224.641 870.926 224.795 870.887 224.891C870.843 225 870.785 225 870.669 225H846.331C846.215 225 846.157 225 846.113 224.891C846.074 224.795 846.042 224.641 846.023 224.453C846 224.238 846 223.958 846 223.396V156.604Z" fill="white"/>
<path d="M876 142.925C876 142.251 876 141.914 876.023 141.657C876.042 141.43 876.074 141.246 876.113 141.131C876.157 141 876.215 141 876.331 141H900.669C900.785 141 900.843 141 900.887 141.131C900.926 141.246 900.958 141.43 900.977 141.657C901 141.914 901 142.251 901 142.925V223.075C901 223.749 901 224.086 900.977 224.343C900.958 224.57 900.926 224.754 900.887 224.869C900.843 225 900.785 225 900.669 225H876.331C876.215 225 876.157 225 876.113 224.869C876.074 224.754 876.042 224.57 876.023 224.343C876 224.086 876 223.749 876 223.075V142.925Z" fill="white"/>
<path d="M906 129.245C906 128.459 906 128.066 906.023 127.766C906.042 127.502 906.074 127.287 906.113 127.153C906.157 127 906.215 127 906.331 127H930.669C930.785 127 930.843 127 930.887 127.153C930.926 127.287 930.958 127.502 930.977 127.766C931 128.066 931 128.459 931 129.245V222.755C931 223.541 931 223.934 930.977 224.234C930.958 224.498 930.926 224.713 930.887 224.847C930.843 225 930.785 225 930.669 225H906.331C906.215 225 906.157 225 906.113 224.847C906.074 224.713 906.042 224.498 906.023 224.234C906 223.934 906 223.541 906 222.755V129.245Z" fill="white"/>
<path d="M936 115.566C936 114.668 936 114.219 936.023 113.876C936.042 113.574 936.074 113.329 936.113 113.175C936.157 113 936.215 113 936.331 113H960.669C960.785 113 960.843 113 960.887 113.175C960.926 113.329 960.958 113.574 960.977 113.876C961 114.219 961 114.668 961 115.566V222.434C961 223.332 961 223.781 960.977 224.124C960.958 224.426 960.926 224.671 960.887 224.825C960.843 225 960.785 225 960.669 225H936.331C936.215 225 936.157 225 936.113 224.825C936.074 224.671 936.042 224.426 936.023 224.124C936 223.781 936 223.332 936 222.434V115.566Z" fill="white"/>
<path d="M966 101.887C966 100.876 966 100.371 966.023 99.9852C966.042 99.6457 966.074 99.3696 966.113 99.1967C966.157 99 966.215 99 966.331 99H990.669C990.785 99 990.843 99 990.887 99.1967C990.926 99.3696 990.958 99.6457 990.977 99.9852C991 100.371 991 100.876 991 101.887V222.113C991 223.124 991 223.629 990.977 224.015C990.958 224.354 990.926 224.63 990.887 224.803C990.843 225 990.785 225 990.669 225H966.331C966.215 225 966.157 225 966.113 224.803C966.074 224.63 966.042 224.354 966.023 224.015C966 223.629 966 223.124 966 222.113V101.887Z" fill="white"/>
<path d="M996 88.2076C996 87.0849 996 86.5235 996.023 86.0946C996.042 85.7174 996.074 85.4107 996.113 85.2185C996.157 85 996.215 85 996.331 85H1020.67C1020.78 85 1020.84 85 1020.89 85.2185C1020.93 85.4107 1020.96 85.7174 1020.98 86.0946C1021 86.5235 1021 87.0849 1021 88.2076V221.792C1021 222.915 1021 223.477 1020.98 223.905C1020.96 224.283 1020.93 224.589 1020.89 224.781C1020.84 225 1020.78 225 1020.67 225H996.331C996.215 225 996.157 225 996.113 224.781C996.074 224.589 996.042 224.283 996.023 223.905C996 223.477 996 222.915 996 221.792V88.2076Z" fill="#F04B5D"/>
<path d="M1004 74.5L1006.67 77L1012 72" stroke="#222224" stroke-width="2"/>
<path d="M736 233.873C736 233.567 736 233.415 736.01 233.298C736.02 233.195 736.034 233.112 736.052 233.059C736.073 233 736.1 233 736.154 233H741.846C741.9 233 741.927 233 741.948 233.059C741.966 233.112 741.98 233.195 741.99 233.298C742 233.415 742 233.567 742 233.873V235.127C742 235.433 742 235.585 741.99 235.702C741.98 235.805 741.966 235.888 741.948 235.941C741.927 236 741.9 236 741.846 236H736.154C736.1 236 736.073 236 736.052 235.941C736.034 235.888 736.02 235.805 736.01 235.702C736 235.585 736 235.433 736 235.127V233.873Z" fill="#424754"/>
<path d="M766 233.873C766 233.567 766 233.415 766.01 233.298C766.02 233.195 766.034 233.112 766.052 233.059C766.073 233 766.1 233 766.154 233H771.846C771.9 233 771.927 233 771.948 233.059C771.966 233.112 771.98 233.195 771.99 233.298C772 233.415 772 233.567 772 233.873V235.127C772 235.433 772 235.585 771.99 235.702C771.98 235.805 771.966 235.888 771.948 235.941C771.927 236 771.9 236 771.846 236H766.154C766.1 236 766.073 236 766.052 235.941C766.034 235.888 766.02 235.805 766.01 235.702C766 235.585 766 235.433 766 235.127V233.873Z" fill="#424754"/>
<path d="M796 233.873C796 233.567 796 233.415 796.01 233.298C796.02 233.195 796.034 233.112 796.052 233.059C796.073 233 796.1 233 796.154 233H801.846C801.9 233 801.927 233 801.948 233.059C801.966 233.112 801.98 233.195 801.99 233.298C802 233.415 802 233.567 802 233.873V235.127C802 235.433 802 235.585 801.99 235.702C801.98 235.805 801.966 235.888 801.948 235.941C801.927 236 801.9 236 801.846 236H796.154C796.1 236 796.073 236 796.052 235.941C796.034 235.888 796.02 235.805 796.01 235.702C796 235.585 796 235.433 796 235.127V233.873Z" fill="#424754"/>
<path d="M826 233.873C826 233.567 826 233.415 826.01 233.298C826.02 233.195 826.034 233.112 826.052 233.059C826.073 233 826.1 233 826.154 233H831.846C831.9 233 831.927 233 831.948 233.059C831.966 233.112 831.98 233.195 831.99 233.298C832 233.415 832 233.567 832 233.873V235.127C832 235.433 832 235.585 831.99 235.702C831.98 235.805 831.966 235.888 831.948 235.941C831.927 236 831.9 236 831.846 236H826.154C826.1 236 826.073 236 826.052 235.941C826.034 235.888 826.02 235.805 826.01 235.702C826 235.585 826 235.433 826 235.127V233.873Z" fill="#424754"/>
<path d="M856 233.873C856 233.567 856 233.415 856.01 233.298C856.02 233.195 856.034 233.112 856.052 233.059C856.073 233 856.1 233 856.154 233H861.846C861.9 233 861.927 233 861.948 233.059C861.966 233.112 861.98 233.195 861.99 233.298C862 233.415 862 233.567 862 233.873V235.127C862 235.433 862 235.585 861.99 235.702C861.98 235.805 861.966 235.888 861.948 235.941C861.927 236 861.9 236 861.846 236H856.154C856.1 236 856.073 236 856.052 235.941C856.034 235.888 856.02 235.805 856.01 235.702C856 235.585 856 235.433 856 235.127V233.873Z" fill="#424754"/>
<path d="M886 233.873C886 233.567 886 233.415 886.01 233.298C886.02 233.195 886.034 233.112 886.052 233.059C886.073 233 886.1 233 886.154 233H891.846C891.9 233 891.927 233 891.948 233.059C891.966 233.112 891.98 233.195 891.99 233.298C892 233.415 892 233.567 892 233.873V235.127C892 235.433 892 235.585 891.99 235.702C891.98 235.805 891.966 235.888 891.948 235.941C891.927 236 891.9 236 891.846 236H886.154C886.1 236 886.073 236 886.052 235.941C886.034 235.888 886.02 235.805 886.01 235.702C886 235.585 886 235.433 886 235.127V233.873Z" fill="#424754"/>
<path d="M916 233.873C916 233.567 916 233.415 916.01 233.298C916.02 233.195 916.034 233.112 916.052 233.059C916.073 233 916.1 233 916.154 233H921.846C921.9 233 921.927 233 921.948 233.059C921.966 233.112 921.98 233.195 921.99 233.298C922 233.415 922 233.567 922 233.873V235.127C922 235.433 922 235.585 921.99 235.702C921.98 235.805 921.966 235.888 921.948 235.941C921.927 236 921.9 236 921.846 236H916.154C916.1 236 916.073 236 916.052 235.941C916.034 235.888 916.02 235.805 916.01 235.702C916 235.585 916 235.433 916 235.127V233.873Z" fill="#424754"/>
<path d="M946 233.873C946 233.567 946 233.415 946.01 233.298C946.02 233.195 946.034 233.112 946.052 233.059C946.073 233 946.1 233 946.154 233H951.846C951.9 233 951.927 233 951.948 233.059C951.966 233.112 951.98 233.195 951.99 233.298C952 233.415 952 233.567 952 233.873V235.127C952 235.433 952 235.585 951.99 235.702C951.98 235.805 951.966 235.888 951.948 235.941C951.927 236 951.9 236 951.846 236H946.154C946.1 236 946.073 236 946.052 235.941C946.034 235.888 946.02 235.805 946.01 235.702C946 235.585 946 235.433 946 235.127V233.873Z" fill="#424754"/>
<path d="M976 233.873C976 233.567 976 233.415 976.01 233.298C976.02 233.195 976.034 233.112 976.052 233.059C976.073 233 976.1 233 976.154 233H981.846C981.9 233 981.927 233 981.948 233.059C981.966 233.112 981.98 233.195 981.99 233.298C982 233.415 982 233.567 982 233.873V235.127C982 235.433 982 235.585 981.99 235.702C981.98 235.805 981.966 235.888 981.948 235.941C981.927 236 981.9 236 981.846 236H976.154C976.1 236 976.073 236 976.052 235.941C976.034 235.888 976.02 235.805 976.01 235.702C976 235.585 976 235.433 976 235.127V233.873Z" fill="#424754"/>
<path d="M1006 233.873C1006 233.567 1006 233.415 1006.01 233.298C1006.02 233.195 1006.03 233.112 1006.05 233.059C1006.07 233 1006.1 233 1006.15 233H1011.85C1011.9 233 1011.93 233 1011.95 233.059C1011.97 233.112 1011.98 233.195 1011.99 233.298C1012 233.415 1012 233.567 1012 233.873V235.127C1012 235.433 1012 235.585 1011.99 235.702C1011.98 235.805 1011.97 235.888 1011.95 235.941C1011.93 236 1011.9 236 1011.85 236H1006.15C1006.1 236 1006.07 236 1006.05 235.941C1006.03 235.888 1006.02 235.805 1006.01 235.702C1006 235.585 1006 235.433 1006 235.127V233.873Z" fill="#424754"/>
<path d="M726 251.455C726 250.945 726 250.691 726.043 250.496C726.081 250.325 726.142 250.186 726.216 250.099C726.301 250 726.412 250 726.634 250H825.366C825.588 250 825.699 250 825.784 250.099C825.858 250.186 825.919 250.325 825.957 250.496C826 250.691 826 250.945 826 251.455V253.545C826 254.055 826 254.309 825.957 254.504C825.919 254.675 825.858 254.814 825.784 254.901C825.699 255 825.588 255 825.366 255H726.634C726.412 255 726.301 255 726.216 254.901C726.142 254.814 726.081 254.675 726.043 254.504C726 254.309 726 254.055 726 253.545V251.455Z" fill="#97999D"/>
<path d="M1004 251.873C1004 251.567 1004 251.415 1004.01 251.298C1004.01 251.195 1004.02 251.112 1004.04 251.059C1004.05 251 1004.07 251 1004.11 251H1020.89C1020.93 251 1020.95 251 1020.96 251.059C1020.98 251.112 1020.99 251.195 1020.99 251.298C1021 251.415 1021 251.567 1021 251.873V253.127C1021 253.433 1021 253.585 1020.99 253.702C1020.99 253.805 1020.98 253.888 1020.96 253.941C1020.95 254 1020.93 254 1020.89 254H1004.11C1004.07 254 1004.05 254 1004.04 253.941C1004.02 253.888 1004.01 253.805 1004.01 253.702C1004 253.585 1004 253.433 1004 253.127V251.873Z" fill="#97999D"/>
<rect x="665" width="131.031" height="155" rx="2" fill="#424754"/>
<path d="M682.577 13.045C682.577 12.3941 682.577 12.0687 682.616 11.8201C682.65 11.6014 682.705 11.4236 682.773 11.3122C682.849 11.1855 682.949 11.1855 683.15 11.1855H704.376C704.576 11.1855 704.676 11.1855 704.753 11.3122C704.82 11.4236 704.875 11.6014 704.909 11.8201C704.948 12.0687 704.948 12.3941 704.948 13.045V15.7179C704.948 16.3687 704.948 16.6942 704.909 16.9428C704.875 17.1614 704.82 17.3392 704.753 17.4506C704.676 17.5773 704.576 17.5773 704.376 17.5773H683.15C682.949 17.5773 682.849 17.5773 682.773 17.4506C682.705 17.3392 682.65 17.1614 682.616 16.9428C682.577 16.6942 682.577 16.3687 682.577 15.7179V13.045Z" fill="white"/>
<g filter="url(#filter0_d)">
<path d="M698.118 65.9784C697.361 65.6531 696.48 66.0022 696.186 66.7718C693.564 73.6307 693.052 81.1305 694.737 88.3013C696.535 95.957 700.741 102.834 706.738 107.922C712.735 113.009 720.205 116.04 728.051 116.567C735.898 117.094 743.706 115.091 750.33 110.851C756.953 106.611 762.042 100.359 764.848 93.0123C767.654 85.666 768.03 77.6133 765.921 70.0374C763.811 62.4616 759.327 55.7623 753.128 50.9238C747.321 46.3919 740.296 43.7164 732.969 43.2263C732.147 43.1713 731.461 43.8246 731.44 44.6483C731.418 45.472 732.069 46.1538 732.891 46.2117C739.579 46.6833 745.988 49.1369 751.292 53.276C756.988 57.7216 761.108 63.8771 763.046 70.8379C764.985 77.7987 764.639 85.1976 762.061 91.9475C759.482 98.6974 754.807 104.442 748.721 108.338C742.635 112.233 735.461 114.074 728.251 113.59C721.042 113.105 714.178 110.321 708.668 105.647C703.159 100.972 699.294 94.6532 697.641 87.619C696.103 81.0698 696.558 74.222 698.93 67.9506C699.222 67.18 698.875 66.3036 698.118 65.9784Z" fill="#27AE60"/>
</g>
<path d="M719.42 77.6652C719.42 76.7473 719.42 76.2883 719.457 75.9377C719.49 75.6293 719.543 75.3785 719.608 75.2214C719.681 75.0427 719.778 75.0427 719.97 75.0427H740.366C740.559 75.0427 740.655 75.0427 740.729 75.2214C740.794 75.3785 740.846 75.6293 740.879 75.9377C740.917 76.2883 740.917 76.7473 740.917 77.6652V81.435C740.917 82.353 740.917 82.812 740.879 83.1626C740.846 83.471 740.794 83.7217 740.729 83.8789C740.655 84.0575 740.559 84.0575 740.366 84.0575H719.97C719.778 84.0575 719.681 84.0575 719.608 83.8789C719.543 83.7217 719.49 83.471 719.457 83.1626C719.42 82.812 719.42 82.353 719.42 81.435V77.6652Z" fill="white"/>
<path d="M702.777 126.673C702.777 126.32 702.777 126.143 702.873 126.009C702.957 125.89 703.091 125.793 703.256 125.733C703.443 125.664 703.689 125.664 704.18 125.664H756.157C756.648 125.664 756.893 125.664 757.081 125.733C757.246 125.793 757.38 125.89 757.464 126.009C757.559 126.143 757.559 126.32 757.559 126.673V128.123C757.559 128.476 757.559 128.652 757.464 128.787C757.38 128.906 757.246 129.002 757.081 129.063C756.893 129.132 756.648 129.132 756.157 129.132H704.18C703.689 129.132 703.443 129.132 703.256 129.063C703.091 129.002 702.957 128.906 702.873 128.787C702.777 128.652 702.777 128.476 702.777 128.123V126.673Z" fill="#97999D"/>
<defs>
<filter id="filter0_d" x="673.763" y="27.2231" width="113.505" height="113.426" filterUnits="userSpaceOnUse" color-interpolation-filters="sRGB">
<feFlood flood-opacity="0" result="BackgroundImageFix"/>
<feColorMatrix in="SourceAlpha" type="matrix" values="0 0 0 0 0 0 0 0 0 0 0 0 0 0 0 0 0 0 127 0"/>
<feOffset dy="4"/>
<feGaussianBlur stdDeviation="10"/>
<feColorMatrix type="matrix" values="0 0 0 0 0 0 0 0 0 0 0 0 0 0 0 0 0 0 0.19 0"/>
<feBlend mode="normal" in2="BackgroundImageFix" result="effect1_dropShadow"/>
<feBlend mode="normal" in="SourceGraphic" in2="effect1_dropShadow" result="shape"/>
</filter>
</defs>
</svg>
