<svg width="918" height="462" viewBox="0 0 918 462" fill="none" xmlns="http://www.w3.org/2000/svg">
<rect width="918" height="462" rx="6" fill="#FDF0E5"/>
<g clip-path="url(#clip0)">
<path d="M92 318.655C91.9846 335.049 96.7935 351.083 105.824 364.746C114.854 378.41 127.704 389.095 142.762 395.463C157.821 401.83 174.418 403.597 190.473 400.54C206.528 397.484 221.327 389.741 233.014 378.283C244.7 366.824 252.755 352.159 256.169 336.127C259.583 320.094 258.203 303.408 252.202 288.159C246.202 272.91 235.848 259.778 222.439 250.408C209.029 241.038 193.161 235.847 176.824 235.487C176.566 235.481 176.308 235.476 176.045 235.47C175.675 235.465 175.3 235.465 174.924 235.465C173.983 235.465 173.042 235.481 172.106 235.515C170.044 235.583 168.005 235.725 165.987 235.942C164.822 236.066 163.673 236.218 162.525 236.386C162.396 236.409 162.261 236.426 162.133 236.448C157.393 237.181 152.726 238.331 148.187 239.883C131.799 245.489 117.571 256.099 107.495 270.225C97.4194 284.351 92.0013 301.285 92 318.655Z" fill="#F04B5D"/>
<path d="M238.375 323.146C238.211 322.886 238.638 322.319 239.329 321.88C240.02 321.442 240.713 321.297 240.877 321.556C241.041 321.816 240.614 322.383 239.923 322.822C239.232 323.26 238.539 323.406 238.375 323.146Z" fill="#3F3D56"/>
<path d="M240.799 318.31C240.431 317.727 239.848 317.315 239.178 317.164C238.507 317.013 237.804 317.135 237.224 317.504L204.39 338.363C203.809 338.732 203.398 339.317 203.248 339.99C203.097 340.662 203.219 341.367 203.587 341.95L240.799 318.31Z" fill="#D0CDE1"/>
<path d="M243.906 319.413L242.873 317.777C242.622 317.379 242.224 317.097 241.765 316.994C241.307 316.891 240.827 316.974 240.43 317.226L203.046 340.976C202.813 341.124 202.612 341.316 202.453 341.542C202.295 341.768 202.182 342.023 202.122 342.292C202.061 342.562 202.055 342.841 202.102 343.113C202.149 343.385 202.249 343.645 202.396 343.879L203.254 345.238L243.906 319.413Z" fill="#2F2E41"/>
<path d="M238.338 320.312L238.734 320.939L236.233 322.529L235.837 321.901L238.338 320.312Z" fill="#D0CDE1"/>
<path d="M234.899 322.497L235.295 323.125L232.793 324.714L232.397 324.086L234.899 322.497Z" fill="#D0CDE1"/>
<path d="M185.348 246.277C172.459 246.277 162.011 235.795 162.011 222.864C162.011 209.934 172.459 199.452 185.348 199.452C198.237 199.452 208.686 209.934 208.686 222.864C208.686 235.795 198.237 246.277 185.348 246.277Z" fill="#FFB8B8"/>
<path d="M183.926 239.424C183.926 239.424 172.542 257.412 175.388 262.551C178.234 267.691 187.057 281.681 187.057 281.681C187.057 281.681 147.781 252.558 152.904 246.277C152.904 246.277 164.573 236.284 165.142 230.002L183.926 239.424Z" fill="#FFB8B8"/>
<path d="M152.478 398.765C171.412 404.07 191.605 402.487 209.488 394.296L207.695 346.237L207.561 342.499L207.51 341.285L207.449 339.498L207.404 338.357C207.404 338.357 207.331 338.351 207.191 338.345C206.81 338.317 205.93 338.255 204.67 338.182C203.207 338.098 201.241 337.991 198.949 337.896C198.406 337.873 197.845 337.851 197.268 337.823C185.199 337.373 166.351 337.277 163.858 340.925L163.544 343.072L163.04 346.541L162.009 353.629C162.009 353.629 150.287 377.012 152.478 398.765Z" fill="#2F2E41"/>
<path d="M130.99 275.4L151.151 320.149L159.905 339.575L163.15 346.779L210.109 346.208L205.271 313.373C212.102 295.671 195.879 288.533 195.879 288.533L182.218 273.929V276.256C182.218 276.256 168.842 260.267 162.865 251.131C156.889 241.994 148.635 245.42 148.635 245.42C134.405 243.993 130.99 275.4 130.99 275.4Z" fill="#575A89"/>
<path opacity="0.2" d="M151.151 320.149L159.905 339.575C162.717 334.299 164.857 328.323 164.857 324.794C164.857 315.086 155.181 320.226 155.181 320.226C155.181 320.226 163.007 277.255 163.007 264.407C163.007 255.873 155.915 293.747 151.151 320.149Z" fill="black"/>
<path d="M158.881 323.366L201.286 322.51C201.286 322.51 232.308 325.079 227.755 337.642C223.201 350.205 198.44 337.642 198.44 337.642L148.919 345.351L158.881 323.366Z" fill="#FFB8B8"/>
<path d="M150.912 247.704C150.912 247.704 165.711 248.846 165.711 261.695C165.711 274.543 152.335 320.226 152.335 320.226C152.335 320.226 162.011 315.086 162.011 324.794C162.011 334.502 145.789 362.768 144.081 343.924C144.081 343.924 119.605 355.915 121.028 333.36C122.451 310.804 137.82 263.122 137.82 263.122C137.82 263.122 139.527 246.848 150.912 247.704Z" fill="#575A89"/>
<path d="M184.572 220.318C186.206 218.731 186.176 216.055 187.493 214.195C189.562 211.274 193.868 211.47 197.404 211.974C199.754 212.309 202.139 212.654 204.32 213.586C205.296 213.989 206.165 214.614 206.86 215.412C207.554 216.209 208.054 217.158 208.32 218.182C208.597 219.333 209.208 216.068 209.829 211.84C210.466 207.526 209.721 203.12 207.702 199.258C205.683 195.396 202.493 192.276 198.593 190.349C198.547 190.326 198.501 190.304 198.456 190.282C194.456 188.332 190.267 186.61 185.846 186.126C181.426 185.642 176.709 186.518 173.242 189.312C171.658 190.588 170.369 192.227 168.67 193.346C165.686 195.313 161.906 195.408 158.359 195.822C154.348 196.291 150.328 197.275 146.865 199.36C143.403 201.444 140.534 204.732 139.571 208.667C138.448 213.256 140.281 218.681 144.779 220.673C145.564 221.004 146.261 221.517 146.811 222.169C150.505 226.699 144.542 229.177 143.678 233.119C142.956 236.409 146.11 239.388 149.344 240.294C155.367 241.981 162.378 238.62 164.854 232.859C165.964 230.279 166.216 227.424 166.518 224.63C166.864 221.431 175.226 215.638 169.58 219.996C168.485 220.819 167.622 221.914 167.076 223.173C165.359 227.297 168.923 229.638 170.835 232.583C171.875 234.239 172.432 236.154 172.443 238.112C172.453 240.07 171.917 241.991 170.894 243.658C175.849 241.061 178.355 234.551 176.427 229.286C175.914 227.887 175.137 226.593 174.671 225.177C173.944 222.968 174.587 218.675 177.837 219.546C180.157 220.167 182.139 222.68 184.572 220.318Z" fill="#2F2E41"/>
</g>
<path d="M94.7 94H104.168C109.28 94 113.96 91.948 113.96 86.332C113.96 84.064 112.88 81.436 109.928 80.536V80.464C111.872 79.348 112.916 77.152 112.916 74.992C112.916 70.564 109.316 68.26 104.168 68.26H94.7V94ZM101 78.232V73.66H104.132C105.824 73.66 106.508 74.668 106.508 75.856C106.508 77.08 105.824 78.232 104.24 78.232H101ZM101 88.6V83.272H104.816C106.652 83.272 107.516 84.46 107.516 85.9C107.516 87.34 106.616 88.6 104.78 88.6H101ZM115.356 91.696C117.372 93.496 120.36 94.432 123.096 94.432C127.488 94.432 130.764 92.452 130.764 88.528C130.764 86.368 129.288 85.072 127.884 84.424V84.352C129 83.74 130.188 82.48 130.188 80.176C130.188 76.972 127.164 75.028 123.348 75.028C119.964 75.028 117.588 75.928 115.86 77.116L117.66 80.968C119.604 79.816 121.044 79.564 122.052 79.564C123.636 79.564 123.996 80.248 123.996 81.04C123.996 82.192 123.096 82.48 122.124 82.48H120.252V86.584H122.52C124.212 86.584 124.536 87.232 124.536 88.132C124.536 88.996 124.032 89.752 122.304 89.752C120.828 89.752 118.992 88.852 117.84 87.808L115.356 91.696ZM133.92 101.2H140.148V94.252C140.148 93.316 140.076 92.668 140.076 92.668H140.148C141.48 93.82 143.136 94.432 144.864 94.432C149.796 94.432 153.504 90.616 153.504 84.748C153.504 78.988 150.192 75.028 145.152 75.028C142.92 75.028 140.796 75.892 139.536 77.584H139.464C139.464 77.584 139.536 77.008 139.536 76.396V75.46H133.92V101.2ZM139.968 84.856C139.968 81.652 141.732 80.284 143.604 80.284C145.764 80.284 147.24 82.084 147.24 84.856C147.24 87.7 145.548 89.284 143.604 89.284C141.156 89.284 139.968 87.088 139.968 84.856ZM155.657 84.784C155.657 90.58 160.337 94.432 166.169 94.432C172.001 94.432 176.681 90.58 176.681 84.784C176.681 78.952 172.001 75.028 166.133 75.028C160.337 75.028 155.657 78.952 155.657 84.784ZM161.957 84.784C161.957 81.976 163.901 80.212 166.169 80.212C168.437 80.212 170.381 81.976 170.381 84.784C170.381 87.556 168.437 89.248 166.169 89.248C163.901 89.248 161.957 87.556 161.957 84.784ZM178.755 84.712C178.755 89.824 182.463 94.432 189.087 94.432C192.183 94.432 195.207 93.244 197.043 91.372L194.775 87.016C193.443 88.168 191.499 89.248 189.699 89.248C186.567 89.248 185.055 86.836 185.055 84.64C185.055 82.444 186.531 80.212 189.483 80.212C191.103 80.212 192.759 80.968 193.839 82.012L196.467 77.836C194.631 75.856 191.679 75.028 189.087 75.028C182.427 75.028 178.755 79.744 178.755 84.712ZM198.294 94.18C205.494 94.18 207.654 88.996 207.654 81.436V80.392H210.75V94H216.978V75.46H201.786V81.4C201.786 87.772 199.95 88.528 198.294 88.744V94.18ZM239.647 94H245.875V75.46H239.647V94ZM221.143 94H230.179C235.363 94 237.523 91.444 237.523 87.664C237.523 83.92 235.363 81.256 230.179 81.256H227.371V75.46H221.143V94ZM227.371 89.932V85.288H228.919C230.503 85.288 231.295 86.332 231.295 87.628C231.295 88.924 230.503 89.932 229.027 89.932H227.371ZM249.249 94H255.189L255.621 85.468C255.693 84.028 255.585 82.3 255.585 82.3H255.657C255.657 82.3 256.341 83.848 256.737 85.036L259.185 91.516H264.225L266.673 85.036C267.141 83.884 267.681 82.3 267.681 82.3H267.753C267.753 82.3 267.681 84.028 267.717 85.468L268.149 94H274.125L272.361 75.46H265.197L262.461 83.596C262.137 84.532 261.705 85.756 261.705 85.756H261.669C261.669 85.756 261.273 84.532 260.949 83.596L258.213 75.46H251.013L249.249 94ZM94.088 136H104.204C107.876 136 111.26 134.56 111.26 130.492C111.26 128.872 110.468 127.036 108.344 126.388V126.352C109.748 125.524 110.504 123.868 110.504 122.32C110.504 119.116 107.912 117.46 104.204 117.46H94.088V136ZM100.316 124.768V121.312H102.584C103.808 121.312 104.312 122.068 104.312 122.932C104.312 123.904 103.808 124.768 102.656 124.768H100.316ZM100.316 132.112V128.404H103.088C104.42 128.404 105.032 129.268 105.032 130.276C105.032 131.212 104.384 132.112 103.052 132.112H100.316ZM123.479 143.2H129.707V136.252C129.707 135.316 129.635 134.668 129.635 134.668H129.707C131.039 135.82 132.695 136.432 134.423 136.432C139.355 136.432 143.063 132.616 143.063 126.748C143.063 120.988 139.751 117.028 134.711 117.028C132.479 117.028 130.355 117.892 129.095 119.584H129.023C129.023 119.584 129.095 119.008 129.095 118.396V117.46H123.479V143.2ZM129.527 126.856C129.527 123.652 131.291 122.284 133.163 122.284C135.323 122.284 136.799 124.084 136.799 126.856C136.799 129.7 135.107 131.284 133.163 131.284C130.715 131.284 129.527 129.088 129.527 126.856ZM144.928 130.78C144.928 133.984 147.412 136.432 150.976 136.432C153.1 136.432 155.26 135.46 156.484 133.732H156.556C156.556 133.732 156.484 134.272 156.484 134.884V136H162.172V124.588C162.172 119.872 159.004 117.028 153.892 117.028C150.868 117.028 147.628 118.216 146.044 119.44L148.204 123.832C149.68 122.86 151.516 122.068 153.316 122.068C154.684 122.068 155.944 122.572 155.944 124.12V124.444H155.404C150.832 124.444 144.928 125.812 144.928 130.78ZM151.084 130.204C151.084 128.512 153.532 128.008 155.44 128.008H156.016V128.512C156.016 130.024 154.648 131.788 152.848 131.788C151.696 131.788 151.084 131.068 151.084 130.204ZM165.295 124.912C165.295 131.716 168.643 136.432 175.339 136.432C181.207 136.432 184.915 132.544 184.915 127.432C184.915 122.464 181.891 118.936 176.923 118.936C175.303 118.936 173.071 119.368 171.487 120.7H171.415C171.523 118.036 174.043 117.028 176.419 116.236L183.403 114.004L181.639 109L175.627 111.016C168.391 113.5 165.295 117.352 165.295 124.912ZM171.487 127.54C171.487 125.128 173.143 123.616 175.087 123.616C177.031 123.616 178.687 125.128 178.687 127.54C178.687 129.916 177.031 131.356 175.087 131.356C173.143 131.356 171.487 129.916 171.487 127.54ZM187.122 126.784C187.122 132.58 191.802 136.432 197.634 136.432C203.466 136.432 208.146 132.58 208.146 126.784C208.146 120.952 203.466 117.028 197.598 117.028C191.802 117.028 187.122 120.952 187.122 126.784ZM193.422 126.784C193.422 123.976 195.366 122.212 197.634 122.212C199.902 122.212 201.846 123.976 201.846 126.784C201.846 129.556 199.902 131.248 197.634 131.248C195.366 131.248 193.422 129.556 193.422 126.784ZM216.592 130.312C218.86 130.312 220.516 129.808 221.56 129.34H221.632C221.632 129.34 221.596 129.808 221.596 130.204V136H227.824V117.46H221.596V124.336C220.984 124.768 220.048 125.236 218.788 125.236C217.24 125.236 216.412 124.336 216.412 122.752V117.46H210.292V123.94C210.292 128.8 213.604 130.312 216.592 130.312ZM232.006 136H238.054L243.202 127.864C243.49 127.36 243.886 126.784 244.21 126.028H244.282C244.21 126.748 244.21 127.468 244.21 127.9V136H250.078V117.46H244.03L238.882 125.632C238.558 126.172 238.198 126.712 237.874 127.468H237.802C237.838 127 237.874 126.28 237.874 125.632V117.46H232.006V136ZM252.568 136H259.408L261.604 131.824C261.784 131.5 262.036 130.888 262.036 130.888H262.108C262.108 130.888 262.36 131.5 262.54 131.824L264.772 136H271.612L265.78 126.82L271.72 117.46H264.7L262.684 121.6C262.468 122.068 262.108 122.824 262.108 122.824H262.036C262.036 122.824 261.712 122.068 261.46 121.6L259.444 117.46H252.424L258.4 126.82L252.568 136ZM283.053 136H297.885V140.32H303.429V130.78H300.765V117.46H294.537V130.78H289.281V117.46H283.053V136ZM305.071 126.712C305.071 131.644 308.635 136.432 315.259 136.432C318.103 136.432 321.163 135.46 323.179 133.732L320.875 129.376C319.363 130.384 317.599 131.248 315.763 131.248C313.783 131.248 311.911 130.204 311.443 127.936H323.143C323.215 127.288 323.287 126.64 323.287 125.992C323.287 120.844 320.191 117.028 314.719 117.028C308.743 117.028 305.071 121.276 305.071 126.712ZM311.587 124.372C311.911 122.896 312.775 121.6 314.575 121.6C316.159 121.6 317.131 122.86 317.131 124.372H311.587ZM325.033 136.18C332.233 136.18 334.393 130.996 334.393 123.436V122.392H337.489V136H343.717V117.46H328.525V123.4C328.525 129.772 326.688 130.528 325.033 130.744V136.18ZM346.117 136H352.705L356.269 130.348H357.565V136H363.793V117.46H354.073C349.969 117.46 347.377 119.836 347.377 123.724C347.377 126.1 348.709 128.224 350.725 129.232V129.268C350.725 129.268 350.365 129.628 349.861 130.384L346.117 136ZM356.089 126.208C354.613 126.208 353.569 125.452 353.569 123.688C353.569 121.96 354.613 121.312 356.053 121.312H357.565V126.208H356.089ZM366.263 136H373.103L375.299 131.824C375.479 131.5 375.731 130.888 375.731 130.888H375.803C375.803 130.888 376.055 131.5 376.235 131.824L378.467 136H385.307L379.475 126.82L385.415 117.46H378.395L376.379 121.6C376.163 122.068 375.803 122.824 375.803 122.824H375.731C375.731 122.824 375.407 122.068 375.155 121.6L373.139 117.46H366.119L372.095 126.82L366.263 136Z" fill="#222224"/>
<path d="M539.258 123.452C540.752 121.166 541.058 117.8 541.058 115.01V113.84H545.036V123.452H539.258ZM536.108 123.452V127.52H537.764V125H546.62V127.52H548.222V123.452H546.818V112.292H539.384V114.902C539.384 117.674 539.15 120.968 537.386 123.452H536.108ZM549.549 122.516C549.549 124.226 551.007 125.216 552.591 125.216C553.941 125.216 555.057 124.406 555.579 123.362H555.615C555.615 123.362 555.561 123.668 555.561 124.082V125H557.199V119.24C557.199 116.936 555.885 115.676 553.599 115.676C552.321 115.676 550.935 116.144 550.197 116.756L550.899 118.034C551.637 117.512 552.555 117.152 553.455 117.152C554.589 117.152 555.453 117.656 555.453 119.15V119.33H554.985C553.095 119.33 549.549 119.654 549.549 122.516ZM551.295 122.372C551.295 120.698 553.707 120.59 555.003 120.59H555.453V120.932C555.453 122.282 554.535 123.83 553.005 123.83C551.871 123.83 551.295 123.092 551.295 122.372ZM561.562 123.56C562.714 121.76 562.858 119.168 562.858 117.8V117.314H565.594V123.56H561.562ZM558.646 123.56V127.16H560.284V125H567.034V127.16H568.636V123.56H567.34V115.892H561.184V117.566C561.184 118.97 561.04 121.814 559.762 123.56H558.646ZM570.467 125H572.141L576.083 119.564C576.371 119.132 576.821 118.52 576.875 118.358H576.911C576.911 118.502 576.857 119.132 576.857 119.564V125H578.549V115.892H576.857L572.933 121.328C572.627 121.76 572.195 122.39 572.123 122.552H572.087C572.105 122.462 572.141 121.814 572.141 121.328V115.892H570.467V125ZM580.847 125H582.539L582.935 119.582C582.971 119.042 582.917 118.016 582.917 118.016H582.953C582.953 118.016 583.241 118.7 583.529 119.366L585.689 123.902H587.183L589.343 119.348C589.685 118.646 589.919 118.016 589.919 118.016H589.955C589.955 118.016 589.919 119.042 589.937 119.582L590.333 125H592.025L591.233 115.892H589.325L586.949 121.04C586.715 121.598 586.445 122.264 586.445 122.264H586.409C586.409 122.264 586.157 121.58 585.905 121.04L583.583 115.892H581.639L580.847 125ZM600.655 123.56C601.807 121.76 601.951 119.168 601.951 117.8V117.314H604.687V123.56H600.655ZM597.739 123.56V127.16H599.377V125H606.127V127.16H607.729V123.56H606.433V115.892H600.277V117.566C600.277 118.97 600.133 121.814 598.855 123.56H597.739ZM608.861 120.446C608.861 123.146 610.841 125.216 613.703 125.216C614.963 125.216 616.349 124.73 617.231 123.92L616.493 122.642C615.773 123.29 614.783 123.704 613.811 123.704C612.173 123.704 610.769 122.642 610.679 120.68H617.303C617.339 120.428 617.375 120.176 617.375 119.942C617.375 117.602 616.007 115.676 613.433 115.676C610.841 115.676 608.861 117.548 608.861 120.446ZM610.733 119.42C610.985 117.908 612.047 117.026 613.397 117.026C614.585 117.026 615.557 117.854 615.611 119.42H610.733ZM623.489 114.848C624.893 114.848 626.153 114.02 626.153 112.544V112.274H624.767V112.508C624.767 113.318 624.119 113.714 623.489 113.714C622.859 113.714 622.229 113.318 622.229 112.526V112.274H620.825V112.544C620.825 114.02 622.103 114.848 623.489 114.848ZM619.475 125H621.149L625.091 119.564C625.379 119.132 625.829 118.52 625.883 118.358H625.919C625.919 118.502 625.865 119.132 625.865 119.564V125H627.557V115.892H625.865L621.941 121.328C621.635 121.76 621.203 122.39 621.131 122.552H621.095C621.113 122.462 621.149 121.814 621.149 121.328V115.892H619.475V125ZM629.639 120.446C629.639 123.182 631.637 125.216 634.517 125.216C635.939 125.216 637.325 124.64 638.153 123.758L637.451 122.48C636.749 123.218 635.651 123.704 634.643 123.704C632.753 123.704 631.421 122.282 631.421 120.428C631.421 118.574 632.753 117.188 634.589 117.188C635.543 117.188 636.497 117.62 637.109 118.232L637.937 117.008C637.073 116.09 635.723 115.676 634.517 115.676C631.655 115.676 629.639 117.746 629.639 120.446ZM642.237 125H643.965V117.386H647.151V115.892H639.069V117.386H642.237V125ZM648.866 125H652.754C654.734 125 656.102 124.1 656.102 122.408C656.102 121.4 655.508 120.518 654.374 120.248V120.23C655.202 119.87 655.67 119.114 655.67 118.232C655.67 116.702 654.464 115.892 652.628 115.892H648.866V125ZM650.612 119.744V117.098H652.268C653.366 117.098 653.888 117.53 653.888 118.358C653.888 119.204 653.366 119.744 652.322 119.744H650.612ZM650.612 123.776V120.914H652.466C653.672 120.914 654.338 121.454 654.338 122.354C654.338 123.2 653.744 123.776 652.484 123.776H650.612ZM657.623 120.446C657.623 123.146 659.603 125.216 662.465 125.216C663.725 125.216 665.111 124.73 665.993 123.92L665.255 122.642C664.535 123.29 663.545 123.704 662.573 123.704C660.935 123.704 659.531 122.642 659.441 120.68H666.065C666.101 120.428 666.137 120.176 666.137 119.942C666.137 117.602 664.769 115.676 662.195 115.676C659.603 115.676 657.623 117.548 657.623 120.446ZM659.495 119.42C659.747 117.908 660.809 117.026 662.159 117.026C663.347 117.026 664.319 117.854 664.373 119.42H659.495ZM668.237 125H669.983V121.094H674.591V125H676.337V115.892H674.591V119.6H669.983V115.892H668.237V125ZM679.03 125H680.776V121.094H685.384V125H687.13V115.892H685.384V119.6H680.776V115.892H679.03V125ZM698.067 125H699.813V115.892H698.067V125ZM689.823 125H693.333C695.619 125 696.663 123.83 696.663 122.12C696.663 120.05 695.241 119.186 693.351 119.186H691.569V115.892H689.823V125ZM691.569 123.74V120.446H693.081C694.341 120.446 694.899 121.13 694.899 122.102C694.899 123.056 694.359 123.74 693.099 123.74H691.569ZM701.92 120.446C701.92 123.146 703.9 125.216 706.762 125.216C708.022 125.216 709.408 124.73 710.29 123.92L709.552 122.642C708.832 123.29 707.842 123.704 706.87 123.704C705.232 123.704 703.828 122.642 703.738 120.68H710.362C710.398 120.428 710.434 120.176 710.434 119.942C710.434 117.602 709.066 115.676 706.492 115.676C703.9 115.676 701.92 117.548 701.92 120.446ZM703.792 119.42C704.044 117.908 705.106 117.026 706.456 117.026C707.644 117.026 708.616 117.854 708.67 119.42H703.792ZM716.44 120.446C716.44 123.182 718.438 125.216 721.318 125.216C722.74 125.216 724.126 124.64 724.954 123.758L724.252 122.48C723.55 123.218 722.452 123.704 721.444 123.704C719.554 123.704 718.222 122.282 718.222 120.428C718.222 118.574 719.554 117.188 721.39 117.188C722.344 117.188 723.298 117.62 723.91 118.232L724.738 117.008C723.874 116.09 722.524 115.676 721.318 115.676C718.456 115.676 716.44 117.746 716.44 120.446ZM726.842 125H728.588V117.386H733.052V125H734.798V115.892H726.842V125ZM736.901 120.428C736.901 123.2 739.097 125.216 741.815 125.216C744.515 125.216 746.711 123.2 746.711 120.428C746.711 117.674 744.515 115.676 741.797 115.676C739.097 115.676 736.901 117.674 736.901 120.428ZM738.683 120.428C738.683 118.538 740.087 117.188 741.815 117.188C743.525 117.188 744.947 118.538 744.947 120.428C744.947 122.336 743.525 123.704 741.815 123.704C740.087 123.704 738.683 122.336 738.683 120.428ZM748.221 120.446C748.221 123.182 750.219 125.216 753.099 125.216C754.521 125.216 755.907 124.64 756.735 123.758L756.033 122.48C755.331 123.218 754.233 123.704 753.225 123.704C751.335 123.704 750.003 122.282 750.003 120.428C750.003 118.574 751.335 117.188 753.171 117.188C754.125 117.188 755.079 117.62 755.691 118.232L756.519 117.008C755.655 116.09 754.305 115.676 753.099 115.676C750.237 115.676 748.221 117.746 748.221 120.446ZM757.819 120.428C757.819 123.2 760.015 125.216 762.733 125.216C765.433 125.216 767.629 123.2 767.629 120.428C767.629 117.674 765.433 115.676 762.715 115.676C760.015 115.676 757.819 117.674 757.819 120.428ZM759.601 120.428C759.601 118.538 761.005 117.188 762.733 117.188C764.443 117.188 765.865 118.538 765.865 120.428C765.865 122.336 764.443 123.704 762.733 123.704C761.005 123.704 759.601 122.336 759.601 120.428ZM769.337 119.762C769.337 122.912 770.723 125.216 773.801 125.216C776.375 125.216 778.103 123.416 778.103 120.896C778.103 118.322 776.519 116.702 774.233 116.702C773.027 116.702 771.821 117.098 771.011 118.322H770.975C771.101 116.576 771.965 115.514 773.783 114.686L777.275 113.228L776.699 111.788L773.441 113.192C770.273 114.524 769.337 116.504 769.337 119.762ZM771.155 120.896C771.155 119.294 772.253 118.088 773.801 118.088C775.169 118.088 776.339 119.15 776.339 120.932C776.339 122.696 775.169 123.74 773.729 123.74C772.325 123.74 771.155 122.696 771.155 120.896ZM788.524 125H790.27V115.892H788.524V125ZM780.28 125H783.79C786.076 125 787.12 123.83 787.12 122.12C787.12 120.05 785.698 119.186 783.808 119.186H782.026V115.892H780.28V125ZM782.026 123.74V120.446H783.538C784.798 120.446 785.356 121.13 785.356 122.102C785.356 123.056 784.816 123.74 783.556 123.74H782.026ZM537.35 153H539.024L542.966 147.564C543.254 147.132 543.704 146.52 543.758 146.358H543.794C543.794 146.502 543.74 147.132 543.74 147.564V153H545.432V143.892H543.74L539.816 149.328C539.51 149.76 539.078 150.39 539.006 150.552H538.97C538.988 150.462 539.024 149.814 539.024 149.328V143.892H537.35V153ZM552.608 153H554.282L558.224 147.564C558.512 147.132 558.962 146.52 559.016 146.358H559.052C559.052 146.502 558.998 147.132 558.998 147.564V153H560.69V143.892H558.998L555.074 149.328C554.768 149.76 554.336 150.39 554.264 150.552H554.228C554.246 150.462 554.282 149.814 554.282 149.328V143.892H552.608V153ZM563.366 153H565.112V149.094H569.72V153H571.466V143.892H569.72V147.6H565.112V143.892H563.366V153ZM573.565 148.446C573.565 151.182 575.563 153.216 578.443 153.216C579.865 153.216 581.251 152.64 582.079 151.758L581.377 150.48C580.675 151.218 579.577 151.704 578.569 151.704C576.679 151.704 575.347 150.282 575.347 148.428C575.347 146.574 576.679 145.188 578.515 145.188C579.469 145.188 580.423 145.62 581.035 146.232L581.863 145.008C580.999 144.09 579.649 143.676 578.443 143.676C575.581 143.676 573.565 145.746 573.565 148.446ZM586.163 153H587.891V145.386H591.077V143.892H582.995V145.386H586.163V153ZM592.791 156.6H594.537V152.46C594.537 151.992 594.465 151.668 594.465 151.668H594.501C595.131 152.64 596.175 153.216 597.327 153.216C599.721 153.216 601.449 151.344 601.449 148.446C601.449 145.62 599.919 143.676 597.453 143.676C596.121 143.676 594.969 144.288 594.393 145.386H594.357C594.357 145.386 594.411 145.08 594.411 144.702V143.892H592.791V156.6ZM594.483 148.482C594.483 146.178 595.743 145.206 597.111 145.206C598.623 145.206 599.685 146.484 599.685 148.464C599.685 150.534 598.497 151.704 597.057 151.704C595.383 151.704 594.483 150.102 594.483 148.482ZM602.888 154.89L602.276 156.222C602.276 156.222 603.014 156.78 604.022 156.78C605.3 156.78 606.434 156.06 606.974 154.638L611.258 143.892H609.368L607.154 149.868C606.992 150.336 606.848 150.948 606.848 150.948H606.812C606.812 150.948 606.65 150.3 606.47 149.85L604.184 143.892H602.222L606.038 152.892L605.588 153.936C605.246 154.764 604.652 155.286 603.932 155.286C603.392 155.286 602.888 154.89 602.888 154.89ZM612.417 153H614.109L614.505 147.582C614.541 147.042 614.487 146.016 614.487 146.016H614.523C614.523 146.016 614.811 146.7 615.099 147.366L617.259 151.902H618.753L620.913 147.348C621.255 146.646 621.489 146.016 621.489 146.016H621.525C621.525 146.016 621.489 147.042 621.507 147.582L621.903 153H623.595L622.803 143.892H620.895L618.519 149.04C618.285 149.598 618.015 150.264 618.015 150.264H617.979C617.979 150.264 617.727 149.58 617.475 149.04L615.153 143.892H613.209L612.417 153ZM625.35 148.446C625.35 151.146 627.33 153.216 630.192 153.216C631.452 153.216 632.838 152.73 633.72 151.92L632.982 150.642C632.262 151.29 631.272 151.704 630.3 151.704C628.662 151.704 627.258 150.642 627.168 148.68H633.792C633.828 148.428 633.864 148.176 633.864 147.942C633.864 145.602 632.496 143.676 629.922 143.676C627.33 143.676 625.35 145.548 625.35 148.446ZM627.222 147.42C627.474 145.908 628.536 145.026 629.886 145.026C631.074 145.026 632.046 145.854 632.1 147.42H627.222ZM635.963 153H637.709V149.094H642.317V153H644.063V143.892H642.317V147.6H637.709V143.892H635.963V153ZM648.952 153H650.68V145.386H653.866V143.892H645.784V145.386H648.952V153ZM663.824 153H665.57V143.892H663.824V153ZM655.58 153H659.09C661.376 153 662.42 151.83 662.42 150.12C662.42 148.05 660.998 147.186 659.108 147.186H657.326V143.892H655.58V153ZM657.326 151.74V148.446H658.838C660.098 148.446 660.656 149.13 660.656 150.102C660.656 151.056 660.116 151.74 658.856 151.74H657.326ZM674.554 151.56C675.706 149.76 675.85 147.168 675.85 145.8V145.314H678.586V151.56H674.554ZM671.638 151.56V155.16H673.276V153H680.026V155.16H681.628V151.56H680.332V143.892H674.176V145.566C674.176 146.97 674.032 149.814 672.754 151.56H671.638ZM682.469 153.09C685.151 152.946 686.195 150.822 686.195 146.7V145.332H688.877V153H690.623V143.892H684.521V146.7C684.521 149.994 683.801 151.326 682.469 151.524V153.09ZM692.403 153H694.329L696.561 149.706H698.091V153H699.837V143.892H696.201C694.275 143.892 692.943 144.882 692.943 146.754C692.943 148.14 693.879 149.112 694.923 149.4V149.418C694.923 149.418 694.707 149.652 694.509 149.976L692.403 153ZM696.579 148.428C695.517 148.428 694.707 147.87 694.707 146.736C694.707 145.566 695.463 145.098 696.633 145.098H698.091V148.428H696.579ZM707.032 156.6H708.778V152.46C708.778 151.992 708.706 151.668 708.706 151.668H708.742C709.372 152.64 710.416 153.216 711.568 153.216C713.962 153.216 715.69 151.344 715.69 148.446C715.69 145.62 714.16 143.676 711.694 143.676C710.362 143.676 709.21 144.288 708.634 145.386H708.598C708.598 145.386 708.652 145.08 708.652 144.702V143.892H707.032V156.6ZM708.724 148.482C708.724 146.178 709.984 145.206 711.352 145.206C712.864 145.206 713.926 146.484 713.926 148.464C713.926 150.534 712.738 151.704 711.298 151.704C709.624 151.704 708.724 150.102 708.724 148.482ZM717.086 150.516C717.086 152.226 718.544 153.216 720.128 153.216C721.478 153.216 722.594 152.406 723.116 151.362H723.152C723.152 151.362 723.098 151.668 723.098 152.082V153H724.736V147.24C724.736 144.936 723.422 143.676 721.136 143.676C719.858 143.676 718.472 144.144 717.734 144.756L718.436 146.034C719.174 145.512 720.092 145.152 720.992 145.152C722.126 145.152 722.99 145.656 722.99 147.15V147.33H722.522C720.632 147.33 717.086 147.654 717.086 150.516ZM718.832 150.372C718.832 148.698 721.244 148.59 722.54 148.59H722.99V148.932C722.99 150.282 722.072 151.83 720.542 151.83C719.408 151.83 718.832 151.092 718.832 150.372ZM726.921 147.762C726.921 150.912 728.307 153.216 731.385 153.216C733.959 153.216 735.687 151.416 735.687 148.896C735.687 146.322 734.103 144.702 731.817 144.702C730.611 144.702 729.405 145.098 728.595 146.322H728.559C728.685 144.576 729.549 143.514 731.367 142.686L734.859 141.228L734.283 139.788L731.025 141.192C727.857 142.524 726.921 144.504 726.921 147.762ZM728.739 148.896C728.739 147.294 729.837 146.088 731.385 146.088C732.753 146.088 733.923 147.15 733.923 148.932C733.923 150.696 732.753 151.74 731.313 151.74C729.909 151.74 728.739 150.696 728.739 148.896ZM737.27 148.428C737.27 151.2 739.466 153.216 742.184 153.216C744.884 153.216 747.08 151.2 747.08 148.428C747.08 145.674 744.884 143.676 742.166 143.676C739.466 143.676 737.27 145.674 737.27 148.428ZM739.052 148.428C739.052 146.538 740.456 145.188 742.184 145.188C743.894 145.188 745.316 146.538 745.316 148.428C745.316 150.336 743.894 151.704 742.184 151.704C740.456 151.704 739.052 150.336 739.052 148.428ZM751.081 153H752.809V145.386H755.995V143.892H747.913V145.386H751.081V153ZM765.953 153H767.699V143.892H765.953V153ZM757.709 153H761.219C763.505 153 764.549 151.83 764.549 150.12C764.549 148.05 763.127 147.186 761.237 147.186H759.455V143.892H757.709V153ZM759.455 151.74V148.446H760.967C762.227 148.446 762.785 149.13 762.785 150.102C762.785 151.056 762.245 151.74 760.985 151.74H759.455Z" fill="#424754"/>
<path d="M536.882 70.556C536.882 74.3 539.744 77.216 543.416 77.216C547.088 77.216 549.932 74.3 549.932 70.556C549.932 66.902 547.088 64.076 543.416 64.076C539.744 64.076 536.882 66.902 536.882 70.556ZM538.718 70.556C538.718 67.802 540.806 65.696 543.416 65.696C546.008 65.696 548.096 67.802 548.096 70.556C548.096 73.4 546.008 75.578 543.416 75.578C540.806 75.578 538.718 73.4 538.718 70.556ZM551.772 71.762C551.772 74.912 553.158 77.216 556.236 77.216C558.81 77.216 560.538 75.416 560.538 72.896C560.538 70.322 558.954 68.702 556.668 68.702C555.462 68.702 554.256 69.098 553.446 70.322H553.41C553.536 68.576 554.4 67.514 556.218 66.686L559.71 65.228L559.134 63.788L555.876 65.192C552.708 66.524 551.772 68.504 551.772 71.762ZM553.59 72.896C553.59 71.294 554.688 70.088 556.236 70.088C557.604 70.088 558.774 71.15 558.774 72.932C558.774 74.696 557.604 75.74 556.164 75.74C554.76 75.74 553.59 74.696 553.59 72.896ZM562.715 77H564.461V73.094H569.069V77H570.815V67.892H569.069V71.6H564.461V67.892H562.715V77ZM572.914 72.428C572.914 75.2 575.11 77.216 577.828 77.216C580.528 77.216 582.724 75.2 582.724 72.428C582.724 69.674 580.528 67.676 577.81 67.676C575.11 67.676 572.914 69.674 572.914 72.428ZM574.696 72.428C574.696 70.538 576.1 69.188 577.828 69.188C579.538 69.188 580.96 70.538 580.96 72.428C580.96 74.336 579.538 75.704 577.828 75.704C576.1 75.704 574.696 74.336 574.696 72.428ZM584.829 77H588.717C590.697 77 592.065 76.1 592.065 74.408C592.065 73.4 591.471 72.518 590.337 72.248V72.23C591.165 71.87 591.633 71.114 591.633 70.232C591.633 68.702 590.427 67.892 588.591 67.892H584.829V77ZM586.575 71.744V69.098H588.231C589.329 69.098 589.851 69.53 589.851 70.358C589.851 71.204 589.329 71.744 588.285 71.744H586.575ZM586.575 75.776V72.914H588.429C589.635 72.914 590.301 73.454 590.301 74.354C590.301 75.2 589.707 75.776 588.447 75.776H586.575ZM594.18 77H595.854L599.796 71.564C600.084 71.132 600.534 70.52 600.588 70.358H600.624C600.624 70.502 600.57 71.132 600.57 71.564V77H602.262V67.892H600.57L596.646 73.328C596.34 73.76 595.908 74.39 595.836 74.552H595.8C595.818 74.462 595.854 73.814 595.854 73.328V67.892H594.18V77ZM604.56 77H606.252L606.648 71.582C606.684 71.042 606.63 70.016 606.63 70.016H606.666C606.666 70.016 606.954 70.7 607.242 71.366L609.402 75.902H610.896L613.056 71.348C613.398 70.646 613.632 70.016 613.632 70.016H613.668C613.668 70.016 613.632 71.042 613.65 71.582L614.046 77H615.738L614.946 67.892H613.038L610.662 73.04C610.428 73.598 610.158 74.264 610.158 74.264H610.122C610.122 74.264 609.87 73.58 609.618 73.04L607.296 67.892H605.352L604.56 77ZM622.19 71.762C622.19 74.912 623.576 77.216 626.654 77.216C629.228 77.216 630.956 75.416 630.956 72.896C630.956 70.322 629.372 68.702 627.086 68.702C625.88 68.702 624.674 69.098 623.864 70.322H623.828C623.954 68.576 624.818 67.514 626.636 66.686L630.128 65.228L629.552 63.788L626.294 65.192C623.126 66.524 622.19 68.504 622.19 71.762ZM624.008 72.896C624.008 71.294 625.106 70.088 626.654 70.088C628.022 70.088 629.192 71.15 629.192 72.932C629.192 74.696 628.022 75.74 626.582 75.74C625.178 75.74 624.008 74.696 624.008 72.896ZM632.377 74.516C632.377 76.226 633.835 77.216 635.419 77.216C636.769 77.216 637.885 76.406 638.407 75.362H638.443C638.443 75.362 638.389 75.668 638.389 76.082V77H640.027V71.24C640.027 68.936 638.713 67.676 636.427 67.676C635.149 67.676 633.763 68.144 633.025 68.756L633.727 70.034C634.465 69.512 635.383 69.152 636.283 69.152C637.417 69.152 638.281 69.656 638.281 71.15V71.33H637.813C635.923 71.33 632.377 71.654 632.377 74.516ZM634.123 74.372C634.123 72.698 636.535 72.59 637.831 72.59H638.281V72.932C638.281 74.282 637.363 75.83 635.833 75.83C634.699 75.83 634.123 75.092 634.123 74.372ZM641.726 75.884C642.482 76.604 643.67 77.216 645.074 77.216C646.946 77.216 648.566 76.262 648.566 74.39C648.566 73.22 647.846 72.536 646.928 72.248V72.212C647.648 71.906 648.26 71.276 648.26 70.142C648.26 68.522 646.91 67.676 645.182 67.676C643.742 67.676 642.716 68.144 642.014 68.666L642.662 69.836C643.364 69.314 644.084 69.044 644.876 69.044C645.884 69.044 646.496 69.512 646.496 70.358C646.496 71.276 645.794 71.672 644.768 71.672H643.814V72.932H644.93C646.208 72.932 646.802 73.436 646.802 74.318C646.802 75.308 645.956 75.812 644.912 75.812C643.814 75.812 642.95 75.164 642.536 74.732L641.726 75.884ZM650.082 72.428C650.082 75.2 652.278 77.216 654.996 77.216C657.696 77.216 659.892 75.2 659.892 72.428C659.892 69.674 657.696 67.676 654.978 67.676C652.278 67.676 650.082 69.674 650.082 72.428ZM651.864 72.428C651.864 70.538 653.268 69.188 654.996 69.188C656.706 69.188 658.128 70.538 658.128 72.428C658.128 74.336 656.706 75.704 654.996 75.704C653.268 75.704 651.864 74.336 651.864 72.428ZM661.996 77H665.884C667.864 77 669.232 76.1 669.232 74.408C669.232 73.4 668.638 72.518 667.504 72.248V72.23C668.332 71.87 668.8 71.114 668.8 70.232C668.8 68.702 667.594 67.892 665.758 67.892H661.996V77ZM663.742 71.744V69.098H665.398C666.496 69.098 667.018 69.53 667.018 70.358C667.018 71.204 666.496 71.744 665.452 71.744H663.742ZM663.742 75.776V72.914H665.596C666.802 72.914 667.468 73.454 667.468 74.354C667.468 75.2 666.874 75.776 665.614 75.776H663.742ZM679.592 77H681.338V67.892H679.592V77ZM671.348 77H674.858C677.144 77 678.188 75.83 678.188 74.12C678.188 72.05 676.766 71.186 674.876 71.186H673.094V67.892H671.348V77ZM673.094 75.74V72.446H674.606C675.866 72.446 676.424 73.13 676.424 74.102C676.424 75.056 675.884 75.74 674.624 75.74H673.094ZM683.445 72.446C683.445 75.146 685.425 77.216 688.287 77.216C689.547 77.216 690.933 76.73 691.815 75.92L691.077 74.642C690.357 75.29 689.367 75.704 688.395 75.704C686.757 75.704 685.353 74.642 685.263 72.68H691.887C691.923 72.428 691.959 72.176 691.959 71.942C691.959 69.602 690.591 67.676 688.017 67.676C685.425 67.676 683.445 69.548 683.445 72.446ZM685.317 71.42C685.569 69.908 686.631 69.026 687.981 69.026C689.169 69.026 690.141 69.854 690.195 71.42H685.317ZM697.677 75.884C698.433 76.604 699.621 77.216 701.025 77.216C702.897 77.216 704.517 76.262 704.517 74.39C704.517 73.22 703.797 72.536 702.879 72.248V72.212C703.599 71.906 704.211 71.276 704.211 70.142C704.211 68.522 702.861 67.676 701.133 67.676C699.693 67.676 698.667 68.144 697.965 68.666L698.613 69.836C699.315 69.314 700.035 69.044 700.827 69.044C701.835 69.044 702.447 69.512 702.447 70.358C702.447 71.276 701.745 71.672 700.719 71.672H699.765V72.932H700.881C702.159 72.932 702.753 73.436 702.753 74.318C702.753 75.308 701.907 75.812 700.863 75.812C699.765 75.812 698.901 75.164 698.487 74.732L697.677 75.884ZM706.627 77H708.373V73.094H712.981V77H714.727V67.892H712.981V71.6H708.373V67.892H706.627V77ZM716.664 74.516C716.664 76.226 718.122 77.216 719.706 77.216C721.056 77.216 722.172 76.406 722.694 75.362H722.73C722.73 75.362 722.676 75.668 722.676 76.082V77H724.314V71.24C724.314 68.936 723 67.676 720.714 67.676C719.436 67.676 718.05 68.144 717.312 68.756L718.014 70.034C718.752 69.512 719.67 69.152 720.57 69.152C721.704 69.152 722.568 69.656 722.568 71.15V71.33H722.1C720.21 71.33 716.664 71.654 716.664 74.516ZM718.41 74.372C718.41 72.698 720.822 72.59 722.118 72.59H722.568V72.932C722.568 74.282 721.65 75.83 720.12 75.83C718.986 75.83 718.41 75.092 718.41 74.372ZM726.895 77H728.641V73.094H733.249V77H734.995V67.892H733.249V71.6H728.641V67.892H726.895V77ZM737.688 77H739.362L743.304 71.564C743.592 71.132 744.042 70.52 744.096 70.358H744.132C744.132 70.502 744.078 71.132 744.078 71.564V77H745.77V67.892H744.078L740.154 73.328C739.848 73.76 739.416 74.39 739.344 74.552H739.308C739.326 74.462 739.362 73.814 739.362 73.328V67.892H737.688V77ZM747.528 77H749.454L751.686 73.706H753.216V77H754.962V67.892H751.326C749.4 67.892 748.068 68.882 748.068 70.754C748.068 72.14 749.004 73.112 750.048 73.4V73.418C750.048 73.418 749.832 73.652 749.634 73.976L747.528 77ZM751.704 72.428C750.642 72.428 749.832 71.87 749.832 70.736C749.832 69.566 750.588 69.098 751.758 69.098H753.216V72.428H751.704Z" fill="#424754"/>
<path d="M505.396 124.168C508.112 124.168 508.994 121.872 508.994 119.016C508.994 116.16 508.112 113.892 505.396 113.892C502.68 113.892 501.784 116.16 501.784 119.016C501.784 121.872 502.68 124.168 505.396 124.168ZM505.396 122.516C504.038 122.516 503.646 120.976 503.646 119.016C503.646 117.084 504.038 115.558 505.396 115.558C506.754 115.558 507.146 117.084 507.146 119.016C507.146 120.976 506.754 122.516 505.396 122.516ZM510.603 124H517.197V122.446H512.507C512.591 120.57 517.043 120.024 517.043 116.832C517.043 114.956 515.545 113.892 513.809 113.892C512.213 113.892 511.093 114.816 510.519 115.88L511.863 116.776C512.227 116.132 512.899 115.6 513.655 115.6C514.495 115.6 515.167 116.118 515.167 116.986C515.167 118.96 510.519 119.534 510.519 123.118C510.519 123.398 510.547 123.678 510.603 124Z" fill="#F04B5D"/>
<path d="M505.396 76.168C508.112 76.168 508.994 73.872 508.994 71.016C508.994 68.16 508.112 65.892 505.396 65.892C502.68 65.892 501.784 68.16 501.784 71.016C501.784 73.872 502.68 76.168 505.396 76.168ZM505.396 74.516C504.038 74.516 503.646 72.976 503.646 71.016C503.646 69.084 504.038 67.558 505.396 67.558C506.754 67.558 507.146 69.084 507.146 71.016C507.146 72.976 506.754 74.516 505.396 74.516ZM510.575 76H516.651V74.446H514.495V66.06H512.913L510.421 68.454L511.485 69.574L512.283 68.818C512.605 68.496 512.731 68.258 512.731 68.258H512.759C512.759 68.258 512.745 68.594 512.745 68.93V74.446H510.575V76Z" fill="#F04B5D"/>
<path d="M505.396 201.168C508.112 201.168 508.994 198.872 508.994 196.016C508.994 193.16 508.112 190.892 505.396 190.892C502.68 190.892 501.784 193.16 501.784 196.016C501.784 198.872 502.68 201.168 505.396 201.168ZM505.396 199.516C504.038 199.516 503.646 197.976 503.646 196.016C503.646 194.084 504.038 192.558 505.396 192.558C506.754 192.558 507.146 194.084 507.146 196.016C507.146 197.976 506.754 199.516 505.396 199.516ZM510.323 199.838C511.191 200.72 512.437 201.168 513.613 201.168C515.839 201.168 517.113 199.6 517.113 197.906C517.113 196.184 515.783 195.204 514.411 195.008L516.833 192.194V191.06H510.771V192.614H513.739C514.313 192.614 514.621 192.572 514.621 192.572V192.6C514.621 192.6 514.285 192.894 513.907 193.356L512.087 195.512L512.479 196.436H513.165C514.341 196.436 515.293 196.926 515.293 197.976C515.293 198.83 514.537 199.46 513.515 199.46C512.633 199.46 511.779 198.998 511.247 198.452L510.323 199.838Z" fill="#F04B5D"/>
<path d="M537.674 201H539.456V195.42H546.062V201H547.826V188.292H546.062V193.872H539.456V188.292H537.674V201ZM549.971 198.516C549.971 200.226 551.429 201.216 553.013 201.216C554.363 201.216 555.479 200.406 556.001 199.362H556.037C556.037 199.362 555.983 199.668 555.983 200.082V201H557.621V195.24C557.621 192.936 556.307 191.676 554.021 191.676C552.743 191.676 551.357 192.144 550.619 192.756L551.321 194.034C552.059 193.512 552.977 193.152 553.877 193.152C555.011 193.152 555.875 193.656 555.875 195.15V195.33H555.407C553.517 195.33 549.971 195.654 549.971 198.516ZM551.717 198.372C551.717 196.698 554.129 196.59 555.425 196.59H555.875V196.932C555.875 198.282 554.957 199.83 553.427 199.83C552.293 199.83 551.717 199.092 551.717 198.372ZM559.576 202.89L558.964 204.222C558.964 204.222 559.702 204.78 560.71 204.78C561.988 204.78 563.122 204.06 563.662 202.638L567.946 191.892H566.056L563.842 197.868C563.68 198.336 563.536 198.948 563.536 198.948H563.5C563.5 198.948 563.338 198.3 563.158 197.85L560.872 191.892H558.91L562.726 200.892L562.276 201.936C561.934 202.764 561.34 203.286 560.62 203.286C560.08 203.286 559.576 202.89 559.576 202.89ZM572.143 197.832C573.043 197.832 574.033 197.526 574.609 197.166H574.645C574.645 197.166 574.627 197.454 574.627 197.706V201H576.373V191.892H574.627V195.672C574.249 195.942 573.511 196.32 572.611 196.32C571.117 196.32 570.793 195.51 570.793 194.61V191.892H569.083V194.862C569.083 196.806 570.199 197.832 572.143 197.832ZM579.08 201H580.754L584.696 195.564C584.984 195.132 585.434 194.52 585.488 194.358H585.524C585.524 194.502 585.47 195.132 585.47 195.564V201H587.162V191.892H585.47L581.546 197.328C581.24 197.76 580.808 198.39 580.736 198.552H580.7C580.718 198.462 580.754 197.814 580.754 197.328V191.892H579.08V201ZM589.46 201H591.152L591.548 195.582C591.584 195.042 591.53 194.016 591.53 194.016H591.566C591.566 194.016 591.854 194.7 592.142 195.366L594.302 199.902H595.796L597.956 195.348C598.298 194.646 598.532 194.016 598.532 194.016H598.568C598.568 194.016 598.532 195.042 598.55 195.582L598.946 201H600.638L599.846 191.892H597.938L595.562 197.04C595.328 197.598 595.058 198.264 595.058 198.264H595.022C595.022 198.264 594.77 197.58 594.518 197.04L592.196 191.892H590.252L589.46 201ZM607.487 201H611.375C613.355 201 614.723 200.1 614.723 198.408C614.723 197.4 614.129 196.518 612.995 196.248V196.23C613.823 195.87 614.291 195.114 614.291 194.232C614.291 192.702 613.085 191.892 611.249 191.892H607.487V201ZM609.233 195.744V193.098H610.889C611.987 193.098 612.509 193.53 612.509 194.358C612.509 195.204 611.987 195.744 610.943 195.744H609.233ZM609.233 199.776V196.914H611.087C612.293 196.914 612.959 197.454 612.959 198.354C612.959 199.2 612.365 199.776 611.105 199.776H609.233ZM616.244 196.446C616.244 199.182 618.242 201.216 621.122 201.216C622.544 201.216 623.93 200.64 624.758 199.758L624.056 198.48C623.354 199.218 622.256 199.704 621.248 199.704C619.358 199.704 618.026 198.282 618.026 196.428C618.026 194.574 619.358 193.188 621.194 193.188C622.148 193.188 623.102 193.62 623.714 194.232L624.542 193.008C623.678 192.09 622.328 191.676 621.122 191.676C618.26 191.676 616.244 193.746 616.244 196.446ZM625.842 196.446C625.842 199.146 627.822 201.216 630.684 201.216C631.944 201.216 633.33 200.73 634.212 199.92L633.474 198.642C632.754 199.29 631.764 199.704 630.792 199.704C629.154 199.704 627.75 198.642 627.66 196.68H634.284C634.32 196.428 634.356 196.176 634.356 195.942C634.356 193.602 632.988 191.676 630.414 191.676C627.822 191.676 625.842 193.548 625.842 196.446ZM627.714 195.42C627.966 193.908 629.028 193.026 630.378 193.026C631.566 193.026 632.538 193.854 632.592 195.42H627.714ZM636.077 201H637.769L638.165 195.582C638.201 195.042 638.147 194.016 638.147 194.016H638.183C638.183 194.016 638.471 194.7 638.759 195.366L640.919 199.902H642.413L644.573 195.348C644.915 194.646 645.149 194.016 645.149 194.016H645.185C645.185 194.016 645.149 195.042 645.167 195.582L645.563 201H647.255L646.463 191.892H644.555L642.179 197.04C641.945 197.598 641.675 198.264 641.675 198.264H641.639C641.639 198.264 641.387 197.58 641.135 197.04L638.813 191.892H636.869L636.077 201ZM649.013 202.89L648.401 204.222C648.401 204.222 649.139 204.78 650.147 204.78C651.425 204.78 652.559 204.06 653.099 202.638L657.383 191.892H655.493L653.279 197.868C653.117 198.336 652.973 198.948 652.973 198.948H652.937C652.937 198.948 652.775 198.3 652.595 197.85L650.309 191.892H648.347L652.163 200.892L651.713 201.936C651.371 202.764 650.777 203.286 650.057 203.286C649.517 203.286 649.013 202.89 649.013 202.89ZM657.655 202.818H659.041L660.607 199.11H658.771L657.655 202.818ZM670.264 197.832C671.164 197.832 672.154 197.526 672.73 197.166H672.766C672.766 197.166 672.748 197.454 672.748 197.706V201H674.494V191.892H672.748V195.672C672.37 195.942 671.632 196.32 670.732 196.32C669.238 196.32 668.914 195.51 668.914 194.61V191.892H667.204V194.862C667.204 196.806 668.32 197.832 670.264 197.832ZM676.608 196.446C676.608 199.146 678.588 201.216 681.45 201.216C682.71 201.216 684.096 200.73 684.978 199.92L684.24 198.642C683.52 199.29 682.53 199.704 681.558 199.704C679.92 199.704 678.516 198.642 678.426 196.68H685.05C685.086 196.428 685.122 196.176 685.122 195.942C685.122 193.602 683.754 191.676 681.18 191.676C678.588 191.676 676.608 193.548 676.608 196.446ZM678.48 195.42C678.732 193.908 679.794 193.026 681.144 193.026C682.332 193.026 683.304 193.854 683.358 195.42H678.48ZM686.843 201H688.535L688.931 195.582C688.967 195.042 688.913 194.016 688.913 194.016H688.949C688.949 194.016 689.237 194.7 689.525 195.366L691.685 199.902H693.179L695.339 195.348C695.681 194.646 695.915 194.016 695.915 194.016H695.951C695.951 194.016 695.915 195.042 695.933 195.582L696.329 201H698.021L697.229 191.892H695.321L692.945 197.04C692.711 197.598 692.441 198.264 692.441 198.264H692.405C692.405 198.264 692.153 197.58 691.901 197.04L689.579 191.892H687.635L686.843 201ZM699.779 202.89L699.167 204.222C699.167 204.222 699.905 204.78 700.913 204.78C702.191 204.78 703.325 204.06 703.865 202.638L708.149 191.892H706.259L704.045 197.868C703.883 198.336 703.739 198.948 703.739 198.948H703.703C703.703 198.948 703.541 198.3 703.361 197.85L701.075 191.892H699.113L702.929 200.892L702.479 201.936C702.137 202.764 701.543 203.286 700.823 203.286C700.283 203.286 699.779 202.89 699.779 202.89ZM714.362 201H716.108V197.094H720.716V201H722.462V191.892H720.716V195.6H716.108V191.892H714.362V201ZM724.561 196.446C724.561 199.146 726.541 201.216 729.403 201.216C730.663 201.216 732.049 200.73 732.931 199.92L732.193 198.642C731.473 199.29 730.483 199.704 729.511 199.704C727.873 199.704 726.469 198.642 726.379 196.68H733.003C733.039 196.428 733.075 196.176 733.075 195.942C733.075 193.602 731.707 191.676 729.133 191.676C726.541 191.676 724.561 193.548 724.561 196.446ZM726.433 195.42C726.685 193.908 727.747 193.026 729.097 193.026C730.285 193.026 731.257 193.854 731.311 195.42H726.433ZM739.224 202.89L738.612 204.222C738.612 204.222 739.35 204.78 740.358 204.78C741.636 204.78 742.77 204.06 743.31 202.638L747.594 191.892H745.704L743.49 197.868C743.328 198.336 743.184 198.948 743.184 198.948H743.148C743.148 198.948 742.986 198.3 742.806 197.85L740.52 191.892H738.558L742.374 200.892L741.924 201.936C741.582 202.764 740.988 203.286 740.268 203.286C739.728 203.286 739.224 202.89 739.224 202.89ZM751.791 197.832C752.691 197.832 753.681 197.526 754.257 197.166H754.293C754.293 197.166 754.275 197.454 754.275 197.706V201H756.021V191.892H754.275V195.672C753.897 195.942 753.159 196.32 752.259 196.32C750.765 196.32 750.441 195.51 750.441 194.61V191.892H748.731V194.862C748.731 196.806 749.847 197.832 751.791 197.832ZM758.729 201H760.403L764.345 195.564C764.633 195.132 765.083 194.52 765.137 194.358H765.173C765.173 194.502 765.119 195.132 765.119 195.564V201H766.811V191.892H765.119L761.195 197.328C760.889 197.76 760.457 198.39 760.385 198.552H760.349C760.367 198.462 760.403 197.814 760.403 197.328V191.892H758.729V201ZM768.497 201.09C771.179 200.946 772.223 198.822 772.223 194.7V193.332H774.905V201H776.651V191.892H770.549V194.7C770.549 197.994 769.829 199.326 768.497 199.524V201.09ZM779.348 201H781.022L784.964 195.564C785.252 195.132 785.702 194.52 785.756 194.358H785.792C785.792 194.502 785.738 195.132 785.738 195.564V201H787.43V191.892H785.738L781.814 197.328C781.508 197.76 781.076 198.39 781.004 198.552H780.968C780.986 198.462 781.022 197.814 781.022 197.328V191.892H779.348V201ZM537.35 229H541.238C543.218 229 544.586 228.1 544.586 226.408C544.586 225.4 543.992 224.518 542.858 224.248V224.23C543.686 223.87 544.154 223.114 544.154 222.232C544.154 220.702 542.948 219.892 541.112 219.892H537.35V229ZM539.096 223.744V221.098H540.752C541.85 221.098 542.372 221.53 542.372 222.358C542.372 223.204 541.85 223.744 540.806 223.744H539.096ZM539.096 227.776V224.914H540.95C542.156 224.914 542.822 225.454 542.822 226.354C542.822 227.2 542.228 227.776 540.968 227.776H539.096ZM551.202 229H562.974V219.892H561.3V227.488H557.934V219.892H556.242V227.488H552.876V219.892H551.202V229ZM565.668 229H567.414V225.058H568.728L571.446 229H573.516L570.114 224.266V224.23L573.156 219.892H571.176L568.692 223.564H567.414V219.892H565.668V229ZM574.092 224.428C574.092 227.2 576.288 229.216 579.006 229.216C581.706 229.216 583.902 227.2 583.902 224.428C583.902 221.674 581.706 219.676 578.988 219.676C576.288 219.676 574.092 221.674 574.092 224.428ZM575.874 224.428C575.874 222.538 577.278 221.188 579.006 221.188C580.716 221.188 582.138 222.538 582.138 224.428C582.138 226.336 580.716 227.704 579.006 227.704C577.278 227.704 575.874 226.336 575.874 224.428ZM584.77 229.09C587.452 228.946 588.496 226.822 588.496 222.7V221.332H591.178V229H592.924V219.892H586.822V222.7C586.822 225.994 586.102 227.326 584.77 227.524V229.09ZM594.865 226.516C594.865 228.226 596.323 229.216 597.907 229.216C599.257 229.216 600.373 228.406 600.895 227.362H600.931C600.931 227.362 600.877 227.668 600.877 228.082V229H602.515V223.24C602.515 220.936 601.201 219.676 598.915 219.676C597.637 219.676 596.251 220.144 595.513 220.756L596.215 222.034C596.953 221.512 597.871 221.152 598.771 221.152C599.905 221.152 600.769 221.656 600.769 223.15V223.33H600.301C598.411 223.33 594.865 223.654 594.865 226.516ZM596.611 226.372C596.611 224.698 599.023 224.59 600.319 224.59H600.769V224.932C600.769 226.282 599.851 227.83 598.321 227.83C597.187 227.83 596.611 227.092 596.611 226.372ZM604.052 229H606.032L607.94 225.958C608.084 225.742 608.21 225.472 608.21 225.472H608.246C608.246 225.472 608.39 225.742 608.534 225.958L610.442 229H612.422L609.308 224.32L612.242 219.892H610.244L608.552 222.664C608.426 222.898 608.246 223.204 608.246 223.204H608.21C608.21 223.204 608.048 222.898 607.922 222.664L606.23 219.892H604.232L607.166 224.32L604.052 229ZM618.579 229H620.253L624.195 223.564C624.483 223.132 624.933 222.52 624.987 222.358H625.023C625.023 222.502 624.969 223.132 624.969 223.564V229H626.661V219.892H624.969L621.045 225.328C620.739 225.76 620.307 226.39 620.235 226.552H620.199C620.217 226.462 620.253 225.814 620.253 225.328V219.892H618.579V229ZM633.386 230.89L632.774 232.222C632.774 232.222 633.512 232.78 634.52 232.78C635.798 232.78 636.932 232.06 637.472 230.638L641.756 219.892H639.866L637.652 225.868C637.49 226.336 637.346 226.948 637.346 226.948H637.31C637.31 226.948 637.148 226.3 636.968 225.85L634.682 219.892H632.72L636.536 228.892L636.086 229.936C635.744 230.764 635.15 231.286 634.43 231.286C633.89 231.286 633.386 230.89 633.386 230.89ZM643.469 229H645.215V225.094H649.823V229H651.569V219.892H649.823V223.6H645.215V219.892H643.469V229ZM654.262 229H655.936L659.878 223.564C660.166 223.132 660.616 222.52 660.67 222.358H660.706C660.706 222.502 660.652 223.132 660.652 223.564V229H662.344V219.892H660.652L656.728 225.328C656.422 225.76 655.99 226.39 655.918 226.552H655.882C655.9 226.462 655.936 225.814 655.936 225.328V219.892H654.262V229ZM665.02 229H668.908C670.888 229 672.256 228.1 672.256 226.408C672.256 225.4 671.662 224.518 670.528 224.248V224.23C671.356 223.87 671.824 223.114 671.824 222.232C671.824 220.702 670.618 219.892 668.782 219.892H665.02V229ZM666.766 223.744V221.098H668.422C669.52 221.098 670.042 221.53 670.042 222.358C670.042 223.204 669.52 223.744 668.476 223.744H666.766ZM666.766 227.776V224.914H668.62C669.826 224.914 670.492 225.454 670.492 226.354C670.492 227.2 669.898 227.776 668.638 227.776H666.766ZM673.777 224.446C673.777 227.146 675.757 229.216 678.619 229.216C679.879 229.216 681.265 228.73 682.147 227.92L681.409 226.642C680.689 227.29 679.699 227.704 678.727 227.704C677.089 227.704 675.685 226.642 675.595 224.68H682.219C682.255 224.428 682.291 224.176 682.291 223.942C682.291 221.602 680.923 219.676 678.349 219.676C675.757 219.676 673.777 221.548 673.777 224.446ZM675.649 223.42C675.901 221.908 676.963 221.026 678.313 221.026C679.501 221.026 680.473 221.854 680.527 223.42H675.649ZM684.391 232.6H686.137V228.46C686.137 227.992 686.065 227.668 686.065 227.668H686.101C686.731 228.64 687.775 229.216 688.927 229.216C691.321 229.216 693.049 227.344 693.049 224.446C693.049 221.62 691.519 219.676 689.053 219.676C687.721 219.676 686.569 220.288 685.993 221.386H685.957C685.957 221.386 686.011 221.08 686.011 220.702V219.892H684.391V232.6ZM686.083 224.482C686.083 222.178 687.343 221.206 688.711 221.206C690.223 221.206 691.285 222.484 691.285 224.464C691.285 226.534 690.097 227.704 688.657 227.704C686.983 227.704 686.083 226.102 686.083 224.482ZM694.608 224.446C694.608 227.182 696.606 229.216 699.486 229.216C700.908 229.216 702.294 228.64 703.122 227.758L702.42 226.48C701.718 227.218 700.62 227.704 699.612 227.704C697.722 227.704 696.39 226.282 696.39 224.428C696.39 222.574 697.722 221.188 699.558 221.188C700.512 221.188 701.466 221.62 702.078 222.232L702.906 221.008C702.042 220.09 700.692 219.676 699.486 219.676C696.624 219.676 694.608 221.746 694.608 224.446ZM705.01 229H706.684L710.626 223.564C710.914 223.132 711.364 222.52 711.418 222.358H711.454C711.454 222.502 711.4 223.132 711.4 223.564V229H713.092V219.892H711.4L707.476 225.328C707.17 225.76 706.738 226.39 706.666 226.552H706.63C706.648 226.462 706.684 225.814 706.684 225.328V219.892H705.01V229ZM717.964 229H719.692V221.386H722.878V219.892H714.796V221.386H717.964V229ZM723.699 224.446C723.699 227.146 725.679 229.216 728.541 229.216C729.801 229.216 731.187 228.73 732.069 227.92L731.331 226.642C730.611 227.29 729.621 227.704 728.649 227.704C727.011 227.704 725.607 226.642 725.517 224.68H732.141C732.177 224.428 732.213 224.176 732.213 223.942C732.213 221.602 730.845 219.676 728.271 219.676C725.679 219.676 723.699 221.548 723.699 224.446ZM725.571 223.42C725.823 221.908 726.885 221.026 728.235 221.026C729.423 221.026 730.395 221.854 730.449 223.42H725.571ZM736.403 229H738.131V221.386H741.317V219.892H733.235V221.386H736.403V229ZM742.188 226.516C742.188 228.226 743.646 229.216 745.23 229.216C746.58 229.216 747.696 228.406 748.218 227.362H748.254C748.254 227.362 748.2 227.668 748.2 228.082V229H749.838V223.24C749.838 220.936 748.524 219.676 746.238 219.676C744.96 219.676 743.574 220.144 742.836 220.756L743.538 222.034C744.276 221.512 745.194 221.152 746.094 221.152C747.228 221.152 748.092 221.656 748.092 223.15V223.33H747.624C745.734 223.33 742.188 223.654 742.188 226.516ZM743.934 226.372C743.934 224.698 746.346 224.59 747.642 224.59H748.092V224.932C748.092 226.282 747.174 227.83 745.644 227.83C744.51 227.83 743.934 227.092 743.934 226.372ZM751.374 229H753.354L755.262 225.958C755.406 225.742 755.532 225.472 755.532 225.472H755.568C755.568 225.472 755.712 225.742 755.856 225.958L757.764 229H759.744L756.63 224.32L759.564 219.892H757.566L755.874 222.664C755.748 222.898 755.568 223.204 755.568 223.204H755.532C755.532 223.204 755.37 222.898 755.244 222.664L753.552 219.892H751.554L754.488 224.32L751.374 229Z" fill="#424754"/>
<defs>
<clipPath id="clip0">
<rect width="166" height="216" transform="matrix(-1 0 0 1 258 186)" fill="white"/>
</clipPath>
</defs>
</svg>
