<svg width="918" height="462" viewBox="0 0 918 462" fill="none" xmlns="http://www.w3.org/2000/svg">
<rect width="918" height="462" rx="6" fill="#FDF0E5"/>
<g clip-path="url(#clip0)">
<path d="M102 314.655C101.985 331.049 106.794 347.083 115.824 360.746C124.854 374.41 137.704 385.095 152.762 391.463C167.821 397.83 184.418 399.597 200.473 396.54C216.528 393.484 231.327 385.741 243.014 374.283C254.7 362.824 262.755 348.159 266.169 332.127C269.583 316.094 268.203 299.408 262.202 284.159C256.202 268.91 245.848 255.778 232.439 246.408C219.029 237.038 203.161 231.847 186.824 231.487C186.566 231.481 186.308 231.476 186.045 231.47C185.675 231.465 185.3 231.465 184.924 231.465C183.983 231.465 183.042 231.481 182.106 231.515C180.044 231.583 178.005 231.725 175.987 231.942C174.822 232.066 173.673 232.218 172.525 232.386C172.396 232.409 172.261 232.426 172.133 232.448C167.393 233.181 162.726 234.331 158.187 235.883C141.799 241.489 127.571 252.099 117.495 266.225C107.419 280.351 102.001 297.285 102 314.655Z" fill="#F04B5D"/>
<path d="M248.375 319.146C248.211 318.886 248.638 318.319 249.329 317.88C250.02 317.442 250.713 317.297 250.877 317.556C251.041 317.816 250.614 318.383 249.923 318.822C249.232 319.26 248.539 319.406 248.375 319.146Z" fill="#3F3D56"/>
<path d="M250.799 314.31C250.431 313.727 249.848 313.315 249.178 313.164C248.507 313.013 247.804 313.135 247.224 313.504L214.39 334.363C213.809 334.732 213.398 335.317 213.248 335.99C213.097 336.662 213.219 337.367 213.587 337.95L250.799 314.31Z" fill="#D0CDE1"/>
<path d="M253.906 315.413L252.873 313.777C252.622 313.379 252.224 313.097 251.765 312.994C251.307 312.891 250.827 312.974 250.43 313.226L213.046 336.976C212.813 337.124 212.612 337.316 212.453 337.542C212.295 337.768 212.182 338.023 212.122 338.292C212.061 338.562 212.055 338.841 212.102 339.113C212.149 339.385 212.249 339.645 212.396 339.879L213.254 341.238L253.906 315.413Z" fill="#2F2E41"/>
<path d="M248.338 316.312L248.734 316.939L246.233 318.529L245.837 317.901L248.338 316.312Z" fill="#D0CDE1"/>
<path d="M244.899 318.497L245.295 319.125L242.793 320.714L242.397 320.086L244.899 318.497Z" fill="#D0CDE1"/>
<path d="M195.348 242.277C182.459 242.277 172.011 231.795 172.011 218.864C172.011 205.934 182.459 195.452 195.348 195.452C208.237 195.452 218.686 205.934 218.686 218.864C218.686 231.795 208.237 242.277 195.348 242.277Z" fill="#FFB8B8"/>
<path d="M204.069 220.454C204.069 220.454 206.532 222.298 208.7 222.401C210.404 222.481 212.001 221.414 212.001 221.414" stroke="#222224" stroke-width="1.5"/>
<path d="M193.926 235.424C193.926 235.424 182.542 253.412 185.388 258.551C188.234 263.691 197.057 277.681 197.057 277.681C197.057 277.681 157.781 248.558 162.904 242.277C162.904 242.277 174.573 232.284 175.142 226.002L193.926 235.424Z" fill="#FFB8B8"/>
<path d="M162.478 394.765C181.412 400.07 201.605 398.487 219.488 390.296L217.695 342.237L217.561 338.499L217.51 337.285L217.449 335.498L217.404 334.357C217.404 334.357 217.331 334.351 217.191 334.345C216.81 334.317 215.93 334.255 214.67 334.182C213.207 334.098 211.241 333.991 208.949 333.896C208.406 333.873 207.845 333.851 207.268 333.823C195.199 333.373 176.351 333.277 173.858 336.925L173.544 339.072L173.04 342.541L172.009 349.629C172.009 349.629 160.287 373.012 162.478 394.765Z" fill="#2F2E41"/>
<path d="M140.99 271.4L161.151 316.149L169.905 335.575L173.15 342.779L220.109 342.208L215.271 309.373C222.102 291.671 205.879 284.533 205.879 284.533L192.218 269.929V272.256C192.218 272.256 178.842 256.267 172.865 247.131C166.889 237.994 158.635 241.42 158.635 241.42C144.405 239.993 140.99 271.4 140.99 271.4Z" fill="#575A89"/>
<path opacity="0.2" d="M161.151 316.149L169.905 335.575C172.717 330.299 174.857 324.323 174.857 320.794C174.857 311.086 165.181 316.226 165.181 316.226C165.181 316.226 173.007 273.255 173.007 260.407C173.007 251.873 165.915 289.747 161.151 316.149Z" fill="black"/>
<path d="M168.881 319.366L211.286 318.51C211.286 318.51 242.308 321.079 237.755 333.642C233.201 346.205 208.44 333.642 208.44 333.642L158.919 341.351L168.881 319.366Z" fill="#FFB8B8"/>
<path d="M160.912 243.704C160.912 243.704 175.711 244.846 175.711 257.695C175.711 270.543 162.335 316.226 162.335 316.226C162.335 316.226 172.011 311.086 172.011 320.794C172.011 330.502 155.789 358.768 154.081 339.924C154.081 339.924 129.605 351.915 131.028 329.36C132.451 306.804 147.82 259.122 147.82 259.122C147.82 259.122 149.527 242.848 160.912 243.704Z" fill="#575A89"/>
<path d="M194.572 216.318C196.206 214.731 196.176 212.055 197.493 210.195C199.562 207.274 203.868 207.47 207.404 207.974C209.754 208.309 212.139 208.654 214.32 209.586C215.296 209.989 216.165 210.614 216.86 211.412C217.554 212.209 218.054 213.158 218.32 214.182C218.597 215.333 219.208 212.068 219.829 207.84C220.466 203.526 219.721 199.12 217.702 195.258C215.683 191.396 212.493 188.276 208.593 186.349C208.547 186.326 208.501 186.304 208.456 186.282C204.456 184.332 200.267 182.61 195.846 182.126C191.426 181.642 186.709 182.518 183.242 185.312C181.658 186.588 180.369 188.227 178.67 189.346C175.686 191.313 171.906 191.408 168.359 191.822C164.348 192.291 160.328 193.275 156.865 195.36C153.403 197.444 150.534 200.732 149.571 204.667C148.448 209.256 150.281 214.681 154.779 216.673C155.564 217.004 156.261 217.517 156.811 218.169C160.505 222.699 154.542 225.177 153.678 229.119C152.956 232.409 156.11 235.388 159.344 236.294C165.367 237.981 172.378 234.62 174.854 228.859C175.964 226.279 176.216 223.424 176.518 220.63C176.864 217.431 185.226 211.638 179.58 215.996C178.485 216.819 177.622 217.914 177.076 219.173C175.359 223.297 178.923 225.638 180.835 228.583C181.875 230.239 182.432 232.154 182.443 234.112C182.453 236.07 181.917 237.991 180.894 239.658C185.849 237.061 188.355 230.551 186.427 225.286C185.914 223.887 185.137 222.593 184.671 221.177C183.944 218.968 184.587 214.675 187.837 215.546C190.157 216.167 192.139 218.68 194.572 216.318Z" fill="#2F2E41"/>
</g>
<path d="M104.7 90H114.168C119.28 90 123.96 87.948 123.96 82.332C123.96 80.064 122.88 77.436 119.928 76.536V76.464C121.872 75.348 122.916 73.152 122.916 70.992C122.916 66.564 119.316 64.26 114.168 64.26H104.7V90ZM111 74.232V69.66H114.132C115.824 69.66 116.508 70.668 116.508 71.856C116.508 73.08 115.824 74.232 114.24 74.232H111ZM111 84.6V79.272H114.816C116.652 79.272 117.516 80.46 117.516 81.9C117.516 83.34 116.616 84.6 114.78 84.6H111ZM125.356 87.696C127.372 89.496 130.36 90.432 133.096 90.432C137.488 90.432 140.764 88.452 140.764 84.528C140.764 82.368 139.288 81.072 137.884 80.424V80.352C139 79.74 140.188 78.48 140.188 76.176C140.188 72.972 137.164 71.028 133.348 71.028C129.964 71.028 127.588 71.928 125.86 73.116L127.66 76.968C129.604 75.816 131.044 75.564 132.052 75.564C133.636 75.564 133.996 76.248 133.996 77.04C133.996 78.192 133.096 78.48 132.124 78.48H130.252V82.584H132.52C134.212 82.584 134.536 83.232 134.536 84.132C134.536 84.996 134.032 85.752 132.304 85.752C130.828 85.752 128.992 84.852 127.84 83.808L125.356 87.696ZM143.92 97.2H150.148V90.252C150.148 89.316 150.076 88.668 150.076 88.668H150.148C151.48 89.82 153.136 90.432 154.864 90.432C159.796 90.432 163.504 86.616 163.504 80.748C163.504 74.988 160.192 71.028 155.152 71.028C152.92 71.028 150.796 71.892 149.536 73.584H149.464C149.464 73.584 149.536 73.008 149.536 72.396V71.46H143.92V97.2ZM149.968 80.856C149.968 77.652 151.732 76.284 153.604 76.284C155.764 76.284 157.24 78.084 157.24 80.856C157.24 83.7 155.548 85.284 153.604 85.284C151.156 85.284 149.968 83.088 149.968 80.856ZM165.657 80.784C165.657 86.58 170.337 90.432 176.169 90.432C182.001 90.432 186.681 86.58 186.681 80.784C186.681 74.952 182.001 71.028 176.133 71.028C170.337 71.028 165.657 74.952 165.657 80.784ZM171.957 80.784C171.957 77.976 173.901 76.212 176.169 76.212C178.437 76.212 180.381 77.976 180.381 80.784C180.381 83.556 178.437 85.248 176.169 85.248C173.901 85.248 171.957 83.556 171.957 80.784ZM188.755 80.712C188.755 85.824 192.463 90.432 199.087 90.432C202.183 90.432 205.207 89.244 207.043 87.372L204.775 83.016C203.443 84.168 201.499 85.248 199.699 85.248C196.567 85.248 195.055 82.836 195.055 80.64C195.055 78.444 196.531 76.212 199.483 76.212C201.103 76.212 202.759 76.968 203.839 78.012L206.467 73.836C204.631 71.856 201.679 71.028 199.087 71.028C192.427 71.028 188.755 75.744 188.755 80.712ZM208.294 90.18C215.494 90.18 217.654 84.996 217.654 77.436V76.392H220.75V90H226.978V71.46H211.786V77.4C211.786 83.772 209.95 84.528 208.294 84.744V90.18ZM249.647 90H255.875V71.46H249.647V90ZM231.143 90H240.179C245.363 90 247.523 87.444 247.523 83.664C247.523 79.92 245.363 77.256 240.179 77.256H237.371V71.46H231.143V90ZM237.371 85.932V81.288H238.919C240.503 81.288 241.295 82.332 241.295 83.628C241.295 84.924 240.503 85.932 239.027 85.932H237.371ZM259.249 90H265.189L265.621 81.468C265.693 80.028 265.585 78.3 265.585 78.3H265.657C265.657 78.3 266.341 79.848 266.737 81.036L269.185 87.516H274.225L276.673 81.036C277.141 79.884 277.681 78.3 277.681 78.3H277.753C277.753 78.3 277.681 80.028 277.717 81.468L278.149 90H284.125L282.361 71.46H275.197L272.461 79.596C272.137 80.532 271.705 81.756 271.705 81.756H271.669C271.669 81.756 271.273 80.532 270.949 79.596L268.213 71.46H261.013L259.249 90ZM104.088 132H114.204C117.876 132 121.26 130.56 121.26 126.492C121.26 124.872 120.468 123.036 118.344 122.388V122.352C119.748 121.524 120.504 119.868 120.504 118.32C120.504 115.116 117.912 113.46 114.204 113.46H104.088V132ZM110.316 120.768V117.312H112.584C113.808 117.312 114.312 118.068 114.312 118.932C114.312 119.904 113.808 120.768 112.656 120.768H110.316ZM110.316 128.112V124.404H113.088C114.42 124.404 115.032 125.268 115.032 126.276C115.032 127.212 114.384 128.112 113.052 128.112H110.316ZM133.479 139.2H139.707V132.252C139.707 131.316 139.635 130.668 139.635 130.668H139.707C141.039 131.82 142.695 132.432 144.423 132.432C149.355 132.432 153.063 128.616 153.063 122.748C153.063 116.988 149.751 113.028 144.711 113.028C142.479 113.028 140.355 113.892 139.095 115.584H139.023C139.023 115.584 139.095 115.008 139.095 114.396V113.46H133.479V139.2ZM139.527 122.856C139.527 119.652 141.291 118.284 143.163 118.284C145.323 118.284 146.799 120.084 146.799 122.856C146.799 125.7 145.107 127.284 143.163 127.284C140.715 127.284 139.527 125.088 139.527 122.856ZM154.928 126.78C154.928 129.984 157.412 132.432 160.976 132.432C163.1 132.432 165.26 131.46 166.484 129.732H166.556C166.556 129.732 166.484 130.272 166.484 130.884V132H172.172V120.588C172.172 115.872 169.004 113.028 163.892 113.028C160.868 113.028 157.628 114.216 156.044 115.44L158.204 119.832C159.68 118.86 161.516 118.068 163.316 118.068C164.684 118.068 165.944 118.572 165.944 120.12V120.444H165.404C160.832 120.444 154.928 121.812 154.928 126.78ZM161.084 126.204C161.084 124.512 163.532 124.008 165.44 124.008H166.016V124.512C166.016 126.024 164.648 127.788 162.848 127.788C161.696 127.788 161.084 127.068 161.084 126.204ZM175.295 120.912C175.295 127.716 178.643 132.432 185.339 132.432C191.207 132.432 194.915 128.544 194.915 123.432C194.915 118.464 191.891 114.936 186.923 114.936C185.303 114.936 183.071 115.368 181.487 116.7H181.415C181.523 114.036 184.043 113.028 186.419 112.236L193.403 110.004L191.639 105L185.627 107.016C178.391 109.5 175.295 113.352 175.295 120.912ZM181.487 123.54C181.487 121.128 183.143 119.616 185.087 119.616C187.031 119.616 188.687 121.128 188.687 123.54C188.687 125.916 187.031 127.356 185.087 127.356C183.143 127.356 181.487 125.916 181.487 123.54ZM197.122 122.784C197.122 128.58 201.802 132.432 207.634 132.432C213.466 132.432 218.146 128.58 218.146 122.784C218.146 116.952 213.466 113.028 207.598 113.028C201.802 113.028 197.122 116.952 197.122 122.784ZM203.422 122.784C203.422 119.976 205.366 118.212 207.634 118.212C209.902 118.212 211.846 119.976 211.846 122.784C211.846 125.556 209.902 127.248 207.634 127.248C205.366 127.248 203.422 125.556 203.422 122.784ZM226.592 126.312C228.86 126.312 230.516 125.808 231.56 125.34H231.632C231.632 125.34 231.596 125.808 231.596 126.204V132H237.824V113.46H231.596V120.336C230.984 120.768 230.048 121.236 228.788 121.236C227.24 121.236 226.412 120.336 226.412 118.752V113.46H220.292V119.94C220.292 124.8 223.604 126.312 226.592 126.312ZM242.006 132H248.054L253.202 123.864C253.49 123.36 253.886 122.784 254.21 122.028H254.282C254.21 122.748 254.21 123.468 254.21 123.9V132H260.078V113.46H254.03L248.882 121.632C248.558 122.172 248.198 122.712 247.874 123.468H247.802C247.838 123 247.874 122.28 247.874 121.632V113.46H242.006V132ZM262.568 132H269.408L271.604 127.824C271.784 127.5 272.036 126.888 272.036 126.888H272.108C272.108 126.888 272.36 127.5 272.54 127.824L274.772 132H281.612L275.78 122.82L281.72 113.46H274.7L272.684 117.6C272.468 118.068 272.108 118.824 272.108 118.824H272.036C272.036 118.824 271.712 118.068 271.46 117.6L269.444 113.46H262.424L268.4 122.82L262.568 132ZM293.053 132H307.885V136.32H313.429V126.78H310.765V113.46H304.537V126.78H299.281V113.46H293.053V132ZM315.071 122.712C315.071 127.644 318.635 132.432 325.259 132.432C328.103 132.432 331.163 131.46 333.179 129.732L330.875 125.376C329.363 126.384 327.599 127.248 325.763 127.248C323.783 127.248 321.911 126.204 321.443 123.936H333.143C333.215 123.288 333.287 122.64 333.287 121.992C333.287 116.844 330.191 113.028 324.719 113.028C318.743 113.028 315.071 117.276 315.071 122.712ZM321.587 120.372C321.911 118.896 322.775 117.6 324.575 117.6C326.159 117.6 327.131 118.86 327.131 120.372H321.587ZM335.033 132.18C342.233 132.18 344.393 126.996 344.393 119.436V118.392H347.489V132H353.717V113.46H338.525V119.4C338.525 125.772 336.688 126.528 335.033 126.744V132.18ZM356.117 132H362.705L366.269 126.348H367.565V132H373.793V113.46H364.073C359.969 113.46 357.377 115.836 357.377 119.724C357.377 122.1 358.709 124.224 360.725 125.232V125.268C360.725 125.268 360.365 125.628 359.861 126.384L356.117 132ZM366.089 122.208C364.613 122.208 363.569 121.452 363.569 119.688C363.569 117.96 364.613 117.312 366.053 117.312H367.565V122.208H366.089ZM376.263 132H383.103L385.299 127.824C385.479 127.5 385.731 126.888 385.731 126.888H385.803C385.803 126.888 386.055 127.5 386.235 127.824L388.467 132H395.307L389.475 122.82L395.415 113.46H388.395L386.379 117.6C386.163 118.068 385.803 118.824 385.803 118.824H385.731C385.731 118.824 385.407 118.068 385.155 117.6L383.139 113.46H376.119L382.095 122.82L376.263 132Z" fill="#222224"/>
<path d="M549.258 119.452C550.752 117.166 551.058 113.8 551.058 111.01V109.84H555.036V119.452H549.258ZM546.108 119.452V123.52H547.764V121H556.62V123.52H558.222V119.452H556.818V108.292H549.384V110.902C549.384 113.674 549.15 116.968 547.386 119.452H546.108ZM559.549 118.516C559.549 120.226 561.007 121.216 562.591 121.216C563.941 121.216 565.057 120.406 565.579 119.362H565.615C565.615 119.362 565.561 119.668 565.561 120.082V121H567.199V115.24C567.199 112.936 565.885 111.676 563.599 111.676C562.321 111.676 560.935 112.144 560.197 112.756L560.899 114.034C561.637 113.512 562.555 113.152 563.455 113.152C564.589 113.152 565.453 113.656 565.453 115.15V115.33H564.985C563.095 115.33 559.549 115.654 559.549 118.516ZM561.295 118.372C561.295 116.698 563.707 116.59 565.003 116.59H565.453V116.932C565.453 118.282 564.535 119.83 563.005 119.83C561.871 119.83 561.295 119.092 561.295 118.372ZM571.562 119.56C572.714 117.76 572.858 115.168 572.858 113.8V113.314H575.594V119.56H571.562ZM568.646 119.56V123.16H570.284V121H577.034V123.16H578.636V119.56H577.34V111.892H571.184V113.566C571.184 114.97 571.04 117.814 569.762 119.56H568.646ZM580.467 121H582.141L586.083 115.564C586.371 115.132 586.821 114.52 586.875 114.358H586.911C586.911 114.502 586.857 115.132 586.857 115.564V121H588.549V111.892H586.857L582.933 117.328C582.627 117.76 582.195 118.39 582.123 118.552H582.087C582.105 118.462 582.141 117.814 582.141 117.328V111.892H580.467V121ZM590.847 121H592.539L592.935 115.582C592.971 115.042 592.917 114.016 592.917 114.016H592.953C592.953 114.016 593.241 114.7 593.529 115.366L595.689 119.902H597.183L599.343 115.348C599.685 114.646 599.919 114.016 599.919 114.016H599.955C599.955 114.016 599.919 115.042 599.937 115.582L600.333 121H602.025L601.233 111.892H599.325L596.949 117.04C596.715 117.598 596.445 118.264 596.445 118.264H596.409C596.409 118.264 596.157 117.58 595.905 117.04L593.583 111.892H591.639L590.847 121ZM610.655 119.56C611.807 117.76 611.951 115.168 611.951 113.8V113.314H614.687V119.56H610.655ZM607.739 119.56V123.16H609.377V121H616.127V123.16H617.729V119.56H616.433V111.892H610.277V113.566C610.277 114.97 610.133 117.814 608.855 119.56H607.739ZM618.861 116.446C618.861 119.146 620.841 121.216 623.703 121.216C624.963 121.216 626.349 120.73 627.231 119.92L626.493 118.642C625.773 119.29 624.783 119.704 623.811 119.704C622.173 119.704 620.769 118.642 620.679 116.68H627.303C627.339 116.428 627.375 116.176 627.375 115.942C627.375 113.602 626.007 111.676 623.433 111.676C620.841 111.676 618.861 113.548 618.861 116.446ZM620.733 115.42C620.985 113.908 622.047 113.026 623.397 113.026C624.585 113.026 625.557 113.854 625.611 115.42H620.733ZM633.489 110.848C634.893 110.848 636.153 110.02 636.153 108.544V108.274H634.767V108.508C634.767 109.318 634.119 109.714 633.489 109.714C632.859 109.714 632.229 109.318 632.229 108.526V108.274H630.825V108.544C630.825 110.02 632.103 110.848 633.489 110.848ZM629.475 121H631.149L635.091 115.564C635.379 115.132 635.829 114.52 635.883 114.358H635.919C635.919 114.502 635.865 115.132 635.865 115.564V121H637.557V111.892H635.865L631.941 117.328C631.635 117.76 631.203 118.39 631.131 118.552H631.095C631.113 118.462 631.149 117.814 631.149 117.328V111.892H629.475V121ZM639.639 116.446C639.639 119.182 641.637 121.216 644.517 121.216C645.939 121.216 647.325 120.64 648.153 119.758L647.451 118.48C646.749 119.218 645.651 119.704 644.643 119.704C642.753 119.704 641.421 118.282 641.421 116.428C641.421 114.574 642.753 113.188 644.589 113.188C645.543 113.188 646.497 113.62 647.109 114.232L647.937 113.008C647.073 112.09 645.723 111.676 644.517 111.676C641.655 111.676 639.639 113.746 639.639 116.446ZM652.237 121H653.965V113.386H657.151V111.892H649.069V113.386H652.237V121ZM658.866 121H662.754C664.734 121 666.102 120.1 666.102 118.408C666.102 117.4 665.508 116.518 664.374 116.248V116.23C665.202 115.87 665.67 115.114 665.67 114.232C665.67 112.702 664.464 111.892 662.628 111.892H658.866V121ZM660.612 115.744V113.098H662.268C663.366 113.098 663.888 113.53 663.888 114.358C663.888 115.204 663.366 115.744 662.322 115.744H660.612ZM660.612 119.776V116.914H662.466C663.672 116.914 664.338 117.454 664.338 118.354C664.338 119.2 663.744 119.776 662.484 119.776H660.612ZM667.623 116.446C667.623 119.146 669.603 121.216 672.465 121.216C673.725 121.216 675.111 120.73 675.993 119.92L675.255 118.642C674.535 119.29 673.545 119.704 672.573 119.704C670.935 119.704 669.531 118.642 669.441 116.68H676.065C676.101 116.428 676.137 116.176 676.137 115.942C676.137 113.602 674.769 111.676 672.195 111.676C669.603 111.676 667.623 113.548 667.623 116.446ZM669.495 115.42C669.747 113.908 670.809 113.026 672.159 113.026C673.347 113.026 674.319 113.854 674.373 115.42H669.495ZM678.237 121H679.983V117.094H684.591V121H686.337V111.892H684.591V115.6H679.983V111.892H678.237V121ZM689.03 121H690.776V117.094H695.384V121H697.13V111.892H695.384V115.6H690.776V111.892H689.03V121ZM708.067 121H709.813V111.892H708.067V121ZM699.823 121H703.333C705.619 121 706.663 119.83 706.663 118.12C706.663 116.05 705.241 115.186 703.351 115.186H701.569V111.892H699.823V121ZM701.569 119.74V116.446H703.081C704.341 116.446 704.899 117.13 704.899 118.102C704.899 119.056 704.359 119.74 703.099 119.74H701.569ZM711.92 116.446C711.92 119.146 713.9 121.216 716.762 121.216C718.022 121.216 719.408 120.73 720.29 119.92L719.552 118.642C718.832 119.29 717.842 119.704 716.87 119.704C715.232 119.704 713.828 118.642 713.738 116.68H720.362C720.398 116.428 720.434 116.176 720.434 115.942C720.434 113.602 719.066 111.676 716.492 111.676C713.9 111.676 711.92 113.548 711.92 116.446ZM713.792 115.42C714.044 113.908 715.106 113.026 716.456 113.026C717.644 113.026 718.616 113.854 718.67 115.42H713.792ZM726.44 116.446C726.44 119.182 728.438 121.216 731.318 121.216C732.74 121.216 734.126 120.64 734.954 119.758L734.252 118.48C733.55 119.218 732.452 119.704 731.444 119.704C729.554 119.704 728.222 118.282 728.222 116.428C728.222 114.574 729.554 113.188 731.39 113.188C732.344 113.188 733.298 113.62 733.91 114.232L734.738 113.008C733.874 112.09 732.524 111.676 731.318 111.676C728.456 111.676 726.44 113.746 726.44 116.446ZM736.842 121H738.588V113.386H743.052V121H744.798V111.892H736.842V121ZM746.901 116.428C746.901 119.2 749.097 121.216 751.815 121.216C754.515 121.216 756.711 119.2 756.711 116.428C756.711 113.674 754.515 111.676 751.797 111.676C749.097 111.676 746.901 113.674 746.901 116.428ZM748.683 116.428C748.683 114.538 750.087 113.188 751.815 113.188C753.525 113.188 754.947 114.538 754.947 116.428C754.947 118.336 753.525 119.704 751.815 119.704C750.087 119.704 748.683 118.336 748.683 116.428ZM758.221 116.446C758.221 119.182 760.219 121.216 763.099 121.216C764.521 121.216 765.907 120.64 766.735 119.758L766.033 118.48C765.331 119.218 764.233 119.704 763.225 119.704C761.335 119.704 760.003 118.282 760.003 116.428C760.003 114.574 761.335 113.188 763.171 113.188C764.125 113.188 765.079 113.62 765.691 114.232L766.519 113.008C765.655 112.09 764.305 111.676 763.099 111.676C760.237 111.676 758.221 113.746 758.221 116.446ZM767.819 116.428C767.819 119.2 770.015 121.216 772.733 121.216C775.433 121.216 777.629 119.2 777.629 116.428C777.629 113.674 775.433 111.676 772.715 111.676C770.015 111.676 767.819 113.674 767.819 116.428ZM769.601 116.428C769.601 114.538 771.005 113.188 772.733 113.188C774.443 113.188 775.865 114.538 775.865 116.428C775.865 118.336 774.443 119.704 772.733 119.704C771.005 119.704 769.601 118.336 769.601 116.428ZM779.337 115.762C779.337 118.912 780.723 121.216 783.801 121.216C786.375 121.216 788.103 119.416 788.103 116.896C788.103 114.322 786.519 112.702 784.233 112.702C783.027 112.702 781.821 113.098 781.011 114.322H780.975C781.101 112.576 781.965 111.514 783.783 110.686L787.275 109.228L786.699 107.788L783.441 109.192C780.273 110.524 779.337 112.504 779.337 115.762ZM781.155 116.896C781.155 115.294 782.253 114.088 783.801 114.088C785.169 114.088 786.339 115.15 786.339 116.932C786.339 118.696 785.169 119.74 783.729 119.74C782.325 119.74 781.155 118.696 781.155 116.896ZM798.524 121H800.27V111.892H798.524V121ZM790.28 121H793.79C796.076 121 797.12 119.83 797.12 118.12C797.12 116.05 795.698 115.186 793.808 115.186H792.026V111.892H790.28V121ZM792.026 119.74V116.446H793.538C794.798 116.446 795.356 117.13 795.356 118.102C795.356 119.056 794.816 119.74 793.556 119.74H792.026ZM547.35 149H549.024L552.966 143.564C553.254 143.132 553.704 142.52 553.758 142.358H553.794C553.794 142.502 553.74 143.132 553.74 143.564V149H555.432V139.892H553.74L549.816 145.328C549.51 145.76 549.078 146.39 549.006 146.552H548.97C548.988 146.462 549.024 145.814 549.024 145.328V139.892H547.35V149ZM562.608 149H564.282L568.224 143.564C568.512 143.132 568.962 142.52 569.016 142.358H569.052C569.052 142.502 568.998 143.132 568.998 143.564V149H570.69V139.892H568.998L565.074 145.328C564.768 145.76 564.336 146.39 564.264 146.552H564.228C564.246 146.462 564.282 145.814 564.282 145.328V139.892H562.608V149ZM573.366 149H575.112V145.094H579.72V149H581.466V139.892H579.72V143.6H575.112V139.892H573.366V149ZM583.565 144.446C583.565 147.182 585.563 149.216 588.443 149.216C589.865 149.216 591.251 148.64 592.079 147.758L591.377 146.48C590.675 147.218 589.577 147.704 588.569 147.704C586.679 147.704 585.347 146.282 585.347 144.428C585.347 142.574 586.679 141.188 588.515 141.188C589.469 141.188 590.423 141.62 591.035 142.232L591.863 141.008C590.999 140.09 589.649 139.676 588.443 139.676C585.581 139.676 583.565 141.746 583.565 144.446ZM596.163 149H597.891V141.386H601.077V139.892H592.995V141.386H596.163V149ZM602.791 152.6H604.537V148.46C604.537 147.992 604.465 147.668 604.465 147.668H604.501C605.131 148.64 606.175 149.216 607.327 149.216C609.721 149.216 611.449 147.344 611.449 144.446C611.449 141.62 609.919 139.676 607.453 139.676C606.121 139.676 604.969 140.288 604.393 141.386H604.357C604.357 141.386 604.411 141.08 604.411 140.702V139.892H602.791V152.6ZM604.483 144.482C604.483 142.178 605.743 141.206 607.111 141.206C608.623 141.206 609.685 142.484 609.685 144.464C609.685 146.534 608.497 147.704 607.057 147.704C605.383 147.704 604.483 146.102 604.483 144.482ZM612.888 150.89L612.276 152.222C612.276 152.222 613.014 152.78 614.022 152.78C615.3 152.78 616.434 152.06 616.974 150.638L621.258 139.892H619.368L617.154 145.868C616.992 146.336 616.848 146.948 616.848 146.948H616.812C616.812 146.948 616.65 146.3 616.47 145.85L614.184 139.892H612.222L616.038 148.892L615.588 149.936C615.246 150.764 614.652 151.286 613.932 151.286C613.392 151.286 612.888 150.89 612.888 150.89ZM622.417 149H624.109L624.505 143.582C624.541 143.042 624.487 142.016 624.487 142.016H624.523C624.523 142.016 624.811 142.7 625.099 143.366L627.259 147.902H628.753L630.913 143.348C631.255 142.646 631.489 142.016 631.489 142.016H631.525C631.525 142.016 631.489 143.042 631.507 143.582L631.903 149H633.595L632.803 139.892H630.895L628.519 145.04C628.285 145.598 628.015 146.264 628.015 146.264H627.979C627.979 146.264 627.727 145.58 627.475 145.04L625.153 139.892H623.209L622.417 149ZM635.35 144.446C635.35 147.146 637.33 149.216 640.192 149.216C641.452 149.216 642.838 148.73 643.72 147.92L642.982 146.642C642.262 147.29 641.272 147.704 640.3 147.704C638.662 147.704 637.258 146.642 637.168 144.68H643.792C643.828 144.428 643.864 144.176 643.864 143.942C643.864 141.602 642.496 139.676 639.922 139.676C637.33 139.676 635.35 141.548 635.35 144.446ZM637.222 143.42C637.474 141.908 638.536 141.026 639.886 141.026C641.074 141.026 642.046 141.854 642.1 143.42H637.222ZM645.963 149H647.709V145.094H652.317V149H654.063V139.892H652.317V143.6H647.709V139.892H645.963V149ZM658.952 149H660.68V141.386H663.866V139.892H655.784V141.386H658.952V149ZM673.824 149H675.57V139.892H673.824V149ZM665.58 149H669.09C671.376 149 672.42 147.83 672.42 146.12C672.42 144.05 670.998 143.186 669.108 143.186H667.326V139.892H665.58V149ZM667.326 147.74V144.446H668.838C670.098 144.446 670.656 145.13 670.656 146.102C670.656 147.056 670.116 147.74 668.856 147.74H667.326ZM684.554 147.56C685.706 145.76 685.85 143.168 685.85 141.8V141.314H688.586V147.56H684.554ZM681.638 147.56V151.16H683.276V149H690.026V151.16H691.628V147.56H690.332V139.892H684.176V141.566C684.176 142.97 684.032 145.814 682.754 147.56H681.638ZM692.469 149.09C695.151 148.946 696.195 146.822 696.195 142.7V141.332H698.877V149H700.623V139.892H694.521V142.7C694.521 145.994 693.801 147.326 692.469 147.524V149.09ZM702.403 149H704.329L706.561 145.706H708.091V149H709.837V139.892H706.201C704.275 139.892 702.943 140.882 702.943 142.754C702.943 144.14 703.879 145.112 704.923 145.4V145.418C704.923 145.418 704.707 145.652 704.509 145.976L702.403 149ZM706.579 144.428C705.517 144.428 704.707 143.87 704.707 142.736C704.707 141.566 705.463 141.098 706.633 141.098H708.091V144.428H706.579ZM717.032 152.6H718.778V148.46C718.778 147.992 718.706 147.668 718.706 147.668H718.742C719.372 148.64 720.416 149.216 721.568 149.216C723.962 149.216 725.69 147.344 725.69 144.446C725.69 141.62 724.16 139.676 721.694 139.676C720.362 139.676 719.21 140.288 718.634 141.386H718.598C718.598 141.386 718.652 141.08 718.652 140.702V139.892H717.032V152.6ZM718.724 144.482C718.724 142.178 719.984 141.206 721.352 141.206C722.864 141.206 723.926 142.484 723.926 144.464C723.926 146.534 722.738 147.704 721.298 147.704C719.624 147.704 718.724 146.102 718.724 144.482ZM727.086 146.516C727.086 148.226 728.544 149.216 730.128 149.216C731.478 149.216 732.594 148.406 733.116 147.362H733.152C733.152 147.362 733.098 147.668 733.098 148.082V149H734.736V143.24C734.736 140.936 733.422 139.676 731.136 139.676C729.858 139.676 728.472 140.144 727.734 140.756L728.436 142.034C729.174 141.512 730.092 141.152 730.992 141.152C732.126 141.152 732.99 141.656 732.99 143.15V143.33H732.522C730.632 143.33 727.086 143.654 727.086 146.516ZM728.832 146.372C728.832 144.698 731.244 144.59 732.54 144.59H732.99V144.932C732.99 146.282 732.072 147.83 730.542 147.83C729.408 147.83 728.832 147.092 728.832 146.372ZM736.921 143.762C736.921 146.912 738.307 149.216 741.385 149.216C743.959 149.216 745.687 147.416 745.687 144.896C745.687 142.322 744.103 140.702 741.817 140.702C740.611 140.702 739.405 141.098 738.595 142.322H738.559C738.685 140.576 739.549 139.514 741.367 138.686L744.859 137.228L744.283 135.788L741.025 137.192C737.857 138.524 736.921 140.504 736.921 143.762ZM738.739 144.896C738.739 143.294 739.837 142.088 741.385 142.088C742.753 142.088 743.923 143.15 743.923 144.932C743.923 146.696 742.753 147.74 741.313 147.74C739.909 147.74 738.739 146.696 738.739 144.896ZM747.27 144.428C747.27 147.2 749.466 149.216 752.184 149.216C754.884 149.216 757.08 147.2 757.08 144.428C757.08 141.674 754.884 139.676 752.166 139.676C749.466 139.676 747.27 141.674 747.27 144.428ZM749.052 144.428C749.052 142.538 750.456 141.188 752.184 141.188C753.894 141.188 755.316 142.538 755.316 144.428C755.316 146.336 753.894 147.704 752.184 147.704C750.456 147.704 749.052 146.336 749.052 144.428ZM761.081 149H762.809V141.386H765.995V139.892H757.913V141.386H761.081V149ZM775.953 149H777.699V139.892H775.953V149ZM767.709 149H771.219C773.505 149 774.549 147.83 774.549 146.12C774.549 144.05 773.127 143.186 771.237 143.186H769.455V139.892H767.709V149ZM769.455 147.74V144.446H770.967C772.227 144.446 772.785 145.13 772.785 146.102C772.785 147.056 772.245 147.74 770.985 147.74H769.455Z" fill="#424754"/>
<path d="M546.882 66.556C546.882 70.3 549.744 73.216 553.416 73.216C557.088 73.216 559.932 70.3 559.932 66.556C559.932 62.902 557.088 60.076 553.416 60.076C549.744 60.076 546.882 62.902 546.882 66.556ZM548.718 66.556C548.718 63.802 550.806 61.696 553.416 61.696C556.008 61.696 558.096 63.802 558.096 66.556C558.096 69.4 556.008 71.578 553.416 71.578C550.806 71.578 548.718 69.4 548.718 66.556ZM561.772 67.762C561.772 70.912 563.158 73.216 566.236 73.216C568.81 73.216 570.538 71.416 570.538 68.896C570.538 66.322 568.954 64.702 566.668 64.702C565.462 64.702 564.256 65.098 563.446 66.322H563.41C563.536 64.576 564.4 63.514 566.218 62.686L569.71 61.228L569.134 59.788L565.876 61.192C562.708 62.524 561.772 64.504 561.772 67.762ZM563.59 68.896C563.59 67.294 564.688 66.088 566.236 66.088C567.604 66.088 568.774 67.15 568.774 68.932C568.774 70.696 567.604 71.74 566.164 71.74C564.76 71.74 563.59 70.696 563.59 68.896ZM572.715 73H574.461V69.094H579.069V73H580.815V63.892H579.069V67.6H574.461V63.892H572.715V73ZM582.914 68.428C582.914 71.2 585.11 73.216 587.828 73.216C590.528 73.216 592.724 71.2 592.724 68.428C592.724 65.674 590.528 63.676 587.81 63.676C585.11 63.676 582.914 65.674 582.914 68.428ZM584.696 68.428C584.696 66.538 586.1 65.188 587.828 65.188C589.538 65.188 590.96 66.538 590.96 68.428C590.96 70.336 589.538 71.704 587.828 71.704C586.1 71.704 584.696 70.336 584.696 68.428ZM594.829 73H598.717C600.697 73 602.065 72.1 602.065 70.408C602.065 69.4 601.471 68.518 600.337 68.248V68.23C601.165 67.87 601.633 67.114 601.633 66.232C601.633 64.702 600.427 63.892 598.591 63.892H594.829V73ZM596.575 67.744V65.098H598.231C599.329 65.098 599.851 65.53 599.851 66.358C599.851 67.204 599.329 67.744 598.285 67.744H596.575ZM596.575 71.776V68.914H598.429C599.635 68.914 600.301 69.454 600.301 70.354C600.301 71.2 599.707 71.776 598.447 71.776H596.575ZM604.18 73H605.854L609.796 67.564C610.084 67.132 610.534 66.52 610.588 66.358H610.624C610.624 66.502 610.57 67.132 610.57 67.564V73H612.262V63.892H610.57L606.646 69.328C606.34 69.76 605.908 70.39 605.836 70.552H605.8C605.818 70.462 605.854 69.814 605.854 69.328V63.892H604.18V73ZM614.56 73H616.252L616.648 67.582C616.684 67.042 616.63 66.016 616.63 66.016H616.666C616.666 66.016 616.954 66.7 617.242 67.366L619.402 71.902H620.896L623.056 67.348C623.398 66.646 623.632 66.016 623.632 66.016H623.668C623.668 66.016 623.632 67.042 623.65 67.582L624.046 73H625.738L624.946 63.892H623.038L620.662 69.04C620.428 69.598 620.158 70.264 620.158 70.264H620.122C620.122 70.264 619.87 69.58 619.618 69.04L617.296 63.892H615.352L614.56 73ZM632.19 67.762C632.19 70.912 633.576 73.216 636.654 73.216C639.228 73.216 640.956 71.416 640.956 68.896C640.956 66.322 639.372 64.702 637.086 64.702C635.88 64.702 634.674 65.098 633.864 66.322H633.828C633.954 64.576 634.818 63.514 636.636 62.686L640.128 61.228L639.552 59.788L636.294 61.192C633.126 62.524 632.19 64.504 632.19 67.762ZM634.008 68.896C634.008 67.294 635.106 66.088 636.654 66.088C638.022 66.088 639.192 67.15 639.192 68.932C639.192 70.696 638.022 71.74 636.582 71.74C635.178 71.74 634.008 70.696 634.008 68.896ZM642.377 70.516C642.377 72.226 643.835 73.216 645.419 73.216C646.769 73.216 647.885 72.406 648.407 71.362H648.443C648.443 71.362 648.389 71.668 648.389 72.082V73H650.027V67.24C650.027 64.936 648.713 63.676 646.427 63.676C645.149 63.676 643.763 64.144 643.025 64.756L643.727 66.034C644.465 65.512 645.383 65.152 646.283 65.152C647.417 65.152 648.281 65.656 648.281 67.15V67.33H647.813C645.923 67.33 642.377 67.654 642.377 70.516ZM644.123 70.372C644.123 68.698 646.535 68.59 647.831 68.59H648.281V68.932C648.281 70.282 647.363 71.83 645.833 71.83C644.699 71.83 644.123 71.092 644.123 70.372ZM651.726 71.884C652.482 72.604 653.67 73.216 655.074 73.216C656.946 73.216 658.566 72.262 658.566 70.39C658.566 69.22 657.846 68.536 656.928 68.248V68.212C657.648 67.906 658.26 67.276 658.26 66.142C658.26 64.522 656.91 63.676 655.182 63.676C653.742 63.676 652.716 64.144 652.014 64.666L652.662 65.836C653.364 65.314 654.084 65.044 654.876 65.044C655.884 65.044 656.496 65.512 656.496 66.358C656.496 67.276 655.794 67.672 654.768 67.672H653.814V68.932H654.93C656.208 68.932 656.802 69.436 656.802 70.318C656.802 71.308 655.956 71.812 654.912 71.812C653.814 71.812 652.95 71.164 652.536 70.732L651.726 71.884ZM660.082 68.428C660.082 71.2 662.278 73.216 664.996 73.216C667.696 73.216 669.892 71.2 669.892 68.428C669.892 65.674 667.696 63.676 664.978 63.676C662.278 63.676 660.082 65.674 660.082 68.428ZM661.864 68.428C661.864 66.538 663.268 65.188 664.996 65.188C666.706 65.188 668.128 66.538 668.128 68.428C668.128 70.336 666.706 71.704 664.996 71.704C663.268 71.704 661.864 70.336 661.864 68.428ZM671.996 73H675.884C677.864 73 679.232 72.1 679.232 70.408C679.232 69.4 678.638 68.518 677.504 68.248V68.23C678.332 67.87 678.8 67.114 678.8 66.232C678.8 64.702 677.594 63.892 675.758 63.892H671.996V73ZM673.742 67.744V65.098H675.398C676.496 65.098 677.018 65.53 677.018 66.358C677.018 67.204 676.496 67.744 675.452 67.744H673.742ZM673.742 71.776V68.914H675.596C676.802 68.914 677.468 69.454 677.468 70.354C677.468 71.2 676.874 71.776 675.614 71.776H673.742ZM689.592 73H691.338V63.892H689.592V73ZM681.348 73H684.858C687.144 73 688.188 71.83 688.188 70.12C688.188 68.05 686.766 67.186 684.876 67.186H683.094V63.892H681.348V73ZM683.094 71.74V68.446H684.606C685.866 68.446 686.424 69.13 686.424 70.102C686.424 71.056 685.884 71.74 684.624 71.74H683.094ZM693.445 68.446C693.445 71.146 695.425 73.216 698.287 73.216C699.547 73.216 700.933 72.73 701.815 71.92L701.077 70.642C700.357 71.29 699.367 71.704 698.395 71.704C696.757 71.704 695.353 70.642 695.263 68.68H701.887C701.923 68.428 701.959 68.176 701.959 67.942C701.959 65.602 700.591 63.676 698.017 63.676C695.425 63.676 693.445 65.548 693.445 68.446ZM695.317 67.42C695.569 65.908 696.631 65.026 697.981 65.026C699.169 65.026 700.141 65.854 700.195 67.42H695.317ZM707.677 71.884C708.433 72.604 709.621 73.216 711.025 73.216C712.897 73.216 714.517 72.262 714.517 70.39C714.517 69.22 713.797 68.536 712.879 68.248V68.212C713.599 67.906 714.211 67.276 714.211 66.142C714.211 64.522 712.861 63.676 711.133 63.676C709.693 63.676 708.667 64.144 707.965 64.666L708.613 65.836C709.315 65.314 710.035 65.044 710.827 65.044C711.835 65.044 712.447 65.512 712.447 66.358C712.447 67.276 711.745 67.672 710.719 67.672H709.765V68.932H710.881C712.159 68.932 712.753 69.436 712.753 70.318C712.753 71.308 711.907 71.812 710.863 71.812C709.765 71.812 708.901 71.164 708.487 70.732L707.677 71.884ZM716.627 73H718.373V69.094H722.981V73H724.727V63.892H722.981V67.6H718.373V63.892H716.627V73ZM726.664 70.516C726.664 72.226 728.122 73.216 729.706 73.216C731.056 73.216 732.172 72.406 732.694 71.362H732.73C732.73 71.362 732.676 71.668 732.676 72.082V73H734.314V67.24C734.314 64.936 733 63.676 730.714 63.676C729.436 63.676 728.05 64.144 727.312 64.756L728.014 66.034C728.752 65.512 729.67 65.152 730.57 65.152C731.704 65.152 732.568 65.656 732.568 67.15V67.33H732.1C730.21 67.33 726.664 67.654 726.664 70.516ZM728.41 70.372C728.41 68.698 730.822 68.59 732.118 68.59H732.568V68.932C732.568 70.282 731.65 71.83 730.12 71.83C728.986 71.83 728.41 71.092 728.41 70.372ZM736.895 73H738.641V69.094H743.249V73H744.995V63.892H743.249V67.6H738.641V63.892H736.895V73ZM747.688 73H749.362L753.304 67.564C753.592 67.132 754.042 66.52 754.096 66.358H754.132C754.132 66.502 754.078 67.132 754.078 67.564V73H755.77V63.892H754.078L750.154 69.328C749.848 69.76 749.416 70.39 749.344 70.552H749.308C749.326 70.462 749.362 69.814 749.362 69.328V63.892H747.688V73ZM757.528 73H759.454L761.686 69.706H763.216V73H764.962V63.892H761.326C759.4 63.892 758.068 64.882 758.068 66.754C758.068 68.14 759.004 69.112 760.048 69.4V69.418C760.048 69.418 759.832 69.652 759.634 69.976L757.528 73ZM761.704 68.428C760.642 68.428 759.832 67.87 759.832 66.736C759.832 65.566 760.588 65.098 761.758 65.098H763.216V68.428H761.704Z" fill="#424754"/>
<circle cx="530" cy="68" r="4" fill="#F04B5D"/>
<circle cx="530" cy="116" r="4" fill="#F04B5D"/>
<circle cx="530" cy="192" r="4" fill="#F04B5D"/>
<path d="M547.674 197H549.456V191.42H556.062V197H557.826V184.292H556.062V189.872H549.456V184.292H547.674V197ZM559.971 194.516C559.971 196.226 561.429 197.216 563.013 197.216C564.363 197.216 565.479 196.406 566.001 195.362H566.037C566.037 195.362 565.983 195.668 565.983 196.082V197H567.621V191.24C567.621 188.936 566.307 187.676 564.021 187.676C562.743 187.676 561.357 188.144 560.619 188.756L561.321 190.034C562.059 189.512 562.977 189.152 563.877 189.152C565.011 189.152 565.875 189.656 565.875 191.15V191.33H565.407C563.517 191.33 559.971 191.654 559.971 194.516ZM561.717 194.372C561.717 192.698 564.129 192.59 565.425 192.59H565.875V192.932C565.875 194.282 564.957 195.83 563.427 195.83C562.293 195.83 561.717 195.092 561.717 194.372ZM569.576 198.89L568.964 200.222C568.964 200.222 569.702 200.78 570.71 200.78C571.988 200.78 573.122 200.06 573.662 198.638L577.946 187.892H576.056L573.842 193.868C573.68 194.336 573.536 194.948 573.536 194.948H573.5C573.5 194.948 573.338 194.3 573.158 193.85L570.872 187.892H568.91L572.726 196.892L572.276 197.936C571.934 198.764 571.34 199.286 570.62 199.286C570.08 199.286 569.576 198.89 569.576 198.89ZM582.143 193.832C583.043 193.832 584.033 193.526 584.609 193.166H584.645C584.645 193.166 584.627 193.454 584.627 193.706V197H586.373V187.892H584.627V191.672C584.249 191.942 583.511 192.32 582.611 192.32C581.117 192.32 580.793 191.51 580.793 190.61V187.892H579.083V190.862C579.083 192.806 580.199 193.832 582.143 193.832ZM589.08 197H590.754L594.696 191.564C594.984 191.132 595.434 190.52 595.488 190.358H595.524C595.524 190.502 595.47 191.132 595.47 191.564V197H597.162V187.892H595.47L591.546 193.328C591.24 193.76 590.808 194.39 590.736 194.552H590.7C590.718 194.462 590.754 193.814 590.754 193.328V187.892H589.08V197ZM599.46 197H601.152L601.548 191.582C601.584 191.042 601.53 190.016 601.53 190.016H601.566C601.566 190.016 601.854 190.7 602.142 191.366L604.302 195.902H605.796L607.956 191.348C608.298 190.646 608.532 190.016 608.532 190.016H608.568C608.568 190.016 608.532 191.042 608.55 191.582L608.946 197H610.638L609.846 187.892H607.938L605.562 193.04C605.328 193.598 605.058 194.264 605.058 194.264H605.022C605.022 194.264 604.77 193.58 604.518 193.04L602.196 187.892H600.252L599.46 197ZM617.487 197H621.375C623.355 197 624.723 196.1 624.723 194.408C624.723 193.4 624.129 192.518 622.995 192.248V192.23C623.823 191.87 624.291 191.114 624.291 190.232C624.291 188.702 623.085 187.892 621.249 187.892H617.487V197ZM619.233 191.744V189.098H620.889C621.987 189.098 622.509 189.53 622.509 190.358C622.509 191.204 621.987 191.744 620.943 191.744H619.233ZM619.233 195.776V192.914H621.087C622.293 192.914 622.959 193.454 622.959 194.354C622.959 195.2 622.365 195.776 621.105 195.776H619.233ZM626.244 192.446C626.244 195.182 628.242 197.216 631.122 197.216C632.544 197.216 633.93 196.64 634.758 195.758L634.056 194.48C633.354 195.218 632.256 195.704 631.248 195.704C629.358 195.704 628.026 194.282 628.026 192.428C628.026 190.574 629.358 189.188 631.194 189.188C632.148 189.188 633.102 189.62 633.714 190.232L634.542 189.008C633.678 188.09 632.328 187.676 631.122 187.676C628.26 187.676 626.244 189.746 626.244 192.446ZM635.842 192.446C635.842 195.146 637.822 197.216 640.684 197.216C641.944 197.216 643.33 196.73 644.212 195.92L643.474 194.642C642.754 195.29 641.764 195.704 640.792 195.704C639.154 195.704 637.75 194.642 637.66 192.68H644.284C644.32 192.428 644.356 192.176 644.356 191.942C644.356 189.602 642.988 187.676 640.414 187.676C637.822 187.676 635.842 189.548 635.842 192.446ZM637.714 191.42C637.966 189.908 639.028 189.026 640.378 189.026C641.566 189.026 642.538 189.854 642.592 191.42H637.714ZM646.077 197H647.769L648.165 191.582C648.201 191.042 648.147 190.016 648.147 190.016H648.183C648.183 190.016 648.471 190.7 648.759 191.366L650.919 195.902H652.413L654.573 191.348C654.915 190.646 655.149 190.016 655.149 190.016H655.185C655.185 190.016 655.149 191.042 655.167 191.582L655.563 197H657.255L656.463 187.892H654.555L652.179 193.04C651.945 193.598 651.675 194.264 651.675 194.264H651.639C651.639 194.264 651.387 193.58 651.135 193.04L648.813 187.892H646.869L646.077 197ZM659.013 198.89L658.401 200.222C658.401 200.222 659.139 200.78 660.147 200.78C661.425 200.78 662.559 200.06 663.099 198.638L667.383 187.892H665.493L663.279 193.868C663.117 194.336 662.973 194.948 662.973 194.948H662.937C662.937 194.948 662.775 194.3 662.595 193.85L660.309 187.892H658.347L662.163 196.892L661.713 197.936C661.371 198.764 660.777 199.286 660.057 199.286C659.517 199.286 659.013 198.89 659.013 198.89ZM667.655 198.818H669.041L670.607 195.11H668.771L667.655 198.818ZM680.264 193.832C681.164 193.832 682.154 193.526 682.73 193.166H682.766C682.766 193.166 682.748 193.454 682.748 193.706V197H684.494V187.892H682.748V191.672C682.37 191.942 681.632 192.32 680.732 192.32C679.238 192.32 678.914 191.51 678.914 190.61V187.892H677.204V190.862C677.204 192.806 678.32 193.832 680.264 193.832ZM686.608 192.446C686.608 195.146 688.588 197.216 691.45 197.216C692.71 197.216 694.096 196.73 694.978 195.92L694.24 194.642C693.52 195.29 692.53 195.704 691.558 195.704C689.92 195.704 688.516 194.642 688.426 192.68H695.05C695.086 192.428 695.122 192.176 695.122 191.942C695.122 189.602 693.754 187.676 691.18 187.676C688.588 187.676 686.608 189.548 686.608 192.446ZM688.48 191.42C688.732 189.908 689.794 189.026 691.144 189.026C692.332 189.026 693.304 189.854 693.358 191.42H688.48ZM696.843 197H698.535L698.931 191.582C698.967 191.042 698.913 190.016 698.913 190.016H698.949C698.949 190.016 699.237 190.7 699.525 191.366L701.685 195.902H703.179L705.339 191.348C705.681 190.646 705.915 190.016 705.915 190.016H705.951C705.951 190.016 705.915 191.042 705.933 191.582L706.329 197H708.021L707.229 187.892H705.321L702.945 193.04C702.711 193.598 702.441 194.264 702.441 194.264H702.405C702.405 194.264 702.153 193.58 701.901 193.04L699.579 187.892H697.635L696.843 197ZM709.779 198.89L709.167 200.222C709.167 200.222 709.905 200.78 710.913 200.78C712.191 200.78 713.325 200.06 713.865 198.638L718.149 187.892H716.259L714.045 193.868C713.883 194.336 713.739 194.948 713.739 194.948H713.703C713.703 194.948 713.541 194.3 713.361 193.85L711.075 187.892H709.113L712.929 196.892L712.479 197.936C712.137 198.764 711.543 199.286 710.823 199.286C710.283 199.286 709.779 198.89 709.779 198.89ZM724.362 197H726.108V193.094H730.716V197H732.462V187.892H730.716V191.6H726.108V187.892H724.362V197ZM734.561 192.446C734.561 195.146 736.541 197.216 739.403 197.216C740.663 197.216 742.049 196.73 742.931 195.92L742.193 194.642C741.473 195.29 740.483 195.704 739.511 195.704C737.873 195.704 736.469 194.642 736.379 192.68H743.003C743.039 192.428 743.075 192.176 743.075 191.942C743.075 189.602 741.707 187.676 739.133 187.676C736.541 187.676 734.561 189.548 734.561 192.446ZM736.433 191.42C736.685 189.908 737.747 189.026 739.097 189.026C740.285 189.026 741.257 189.854 741.311 191.42H736.433ZM749.224 198.89L748.612 200.222C748.612 200.222 749.35 200.78 750.358 200.78C751.636 200.78 752.77 200.06 753.31 198.638L757.594 187.892H755.704L753.49 193.868C753.328 194.336 753.184 194.948 753.184 194.948H753.148C753.148 194.948 752.986 194.3 752.806 193.85L750.52 187.892H748.558L752.374 196.892L751.924 197.936C751.582 198.764 750.988 199.286 750.268 199.286C749.728 199.286 749.224 198.89 749.224 198.89ZM761.791 193.832C762.691 193.832 763.681 193.526 764.257 193.166H764.293C764.293 193.166 764.275 193.454 764.275 193.706V197H766.021V187.892H764.275V191.672C763.897 191.942 763.159 192.32 762.259 192.32C760.765 192.32 760.441 191.51 760.441 190.61V187.892H758.731V190.862C758.731 192.806 759.847 193.832 761.791 193.832ZM768.729 197H770.403L774.345 191.564C774.633 191.132 775.083 190.52 775.137 190.358H775.173C775.173 190.502 775.119 191.132 775.119 191.564V197H776.811V187.892H775.119L771.195 193.328C770.889 193.76 770.457 194.39 770.385 194.552H770.349C770.367 194.462 770.403 193.814 770.403 193.328V187.892H768.729V197ZM778.497 197.09C781.179 196.946 782.223 194.822 782.223 190.7V189.332H784.905V197H786.651V187.892H780.549V190.7C780.549 193.994 779.829 195.326 778.497 195.524V197.09ZM789.348 197H791.022L794.964 191.564C795.252 191.132 795.702 190.52 795.756 190.358H795.792C795.792 190.502 795.738 191.132 795.738 191.564V197H797.43V187.892H795.738L791.814 193.328C791.508 193.76 791.076 194.39 791.004 194.552H790.968C790.986 194.462 791.022 193.814 791.022 193.328V187.892H789.348V197ZM547.35 225H551.238C553.218 225 554.586 224.1 554.586 222.408C554.586 221.4 553.992 220.518 552.858 220.248V220.23C553.686 219.87 554.154 219.114 554.154 218.232C554.154 216.702 552.948 215.892 551.112 215.892H547.35V225ZM549.096 219.744V217.098H550.752C551.85 217.098 552.372 217.53 552.372 218.358C552.372 219.204 551.85 219.744 550.806 219.744H549.096ZM549.096 223.776V220.914H550.95C552.156 220.914 552.822 221.454 552.822 222.354C552.822 223.2 552.228 223.776 550.968 223.776H549.096ZM561.202 225H572.974V215.892H571.3V223.488H567.934V215.892H566.242V223.488H562.876V215.892H561.202V225ZM575.668 225H577.414V221.058H578.728L581.446 225H583.516L580.114 220.266V220.23L583.156 215.892H581.176L578.692 219.564H577.414V215.892H575.668V225ZM584.092 220.428C584.092 223.2 586.288 225.216 589.006 225.216C591.706 225.216 593.902 223.2 593.902 220.428C593.902 217.674 591.706 215.676 588.988 215.676C586.288 215.676 584.092 217.674 584.092 220.428ZM585.874 220.428C585.874 218.538 587.278 217.188 589.006 217.188C590.716 217.188 592.138 218.538 592.138 220.428C592.138 222.336 590.716 223.704 589.006 223.704C587.278 223.704 585.874 222.336 585.874 220.428ZM594.77 225.09C597.452 224.946 598.496 222.822 598.496 218.7V217.332H601.178V225H602.924V215.892H596.822V218.7C596.822 221.994 596.102 223.326 594.77 223.524V225.09ZM604.865 222.516C604.865 224.226 606.323 225.216 607.907 225.216C609.257 225.216 610.373 224.406 610.895 223.362H610.931C610.931 223.362 610.877 223.668 610.877 224.082V225H612.515V219.24C612.515 216.936 611.201 215.676 608.915 215.676C607.637 215.676 606.251 216.144 605.513 216.756L606.215 218.034C606.953 217.512 607.871 217.152 608.771 217.152C609.905 217.152 610.769 217.656 610.769 219.15V219.33H610.301C608.411 219.33 604.865 219.654 604.865 222.516ZM606.611 222.372C606.611 220.698 609.023 220.59 610.319 220.59H610.769V220.932C610.769 222.282 609.851 223.83 608.321 223.83C607.187 223.83 606.611 223.092 606.611 222.372ZM614.052 225H616.032L617.94 221.958C618.084 221.742 618.21 221.472 618.21 221.472H618.246C618.246 221.472 618.39 221.742 618.534 221.958L620.442 225H622.422L619.308 220.32L622.242 215.892H620.244L618.552 218.664C618.426 218.898 618.246 219.204 618.246 219.204H618.21C618.21 219.204 618.048 218.898 617.922 218.664L616.23 215.892H614.232L617.166 220.32L614.052 225ZM628.579 225H630.253L634.195 219.564C634.483 219.132 634.933 218.52 634.987 218.358H635.023C635.023 218.502 634.969 219.132 634.969 219.564V225H636.661V215.892H634.969L631.045 221.328C630.739 221.76 630.307 222.39 630.235 222.552H630.199C630.217 222.462 630.253 221.814 630.253 221.328V215.892H628.579V225ZM643.386 226.89L642.774 228.222C642.774 228.222 643.512 228.78 644.52 228.78C645.798 228.78 646.932 228.06 647.472 226.638L651.756 215.892H649.866L647.652 221.868C647.49 222.336 647.346 222.948 647.346 222.948H647.31C647.31 222.948 647.148 222.3 646.968 221.85L644.682 215.892H642.72L646.536 224.892L646.086 225.936C645.744 226.764 645.15 227.286 644.43 227.286C643.89 227.286 643.386 226.89 643.386 226.89ZM653.469 225H655.215V221.094H659.823V225H661.569V215.892H659.823V219.6H655.215V215.892H653.469V225ZM664.262 225H665.936L669.878 219.564C670.166 219.132 670.616 218.52 670.67 218.358H670.706C670.706 218.502 670.652 219.132 670.652 219.564V225H672.344V215.892H670.652L666.728 221.328C666.422 221.76 665.99 222.39 665.918 222.552H665.882C665.9 222.462 665.936 221.814 665.936 221.328V215.892H664.262V225ZM675.02 225H678.908C680.888 225 682.256 224.1 682.256 222.408C682.256 221.4 681.662 220.518 680.528 220.248V220.23C681.356 219.87 681.824 219.114 681.824 218.232C681.824 216.702 680.618 215.892 678.782 215.892H675.02V225ZM676.766 219.744V217.098H678.422C679.52 217.098 680.042 217.53 680.042 218.358C680.042 219.204 679.52 219.744 678.476 219.744H676.766ZM676.766 223.776V220.914H678.62C679.826 220.914 680.492 221.454 680.492 222.354C680.492 223.2 679.898 223.776 678.638 223.776H676.766ZM683.777 220.446C683.777 223.146 685.757 225.216 688.619 225.216C689.879 225.216 691.265 224.73 692.147 223.92L691.409 222.642C690.689 223.29 689.699 223.704 688.727 223.704C687.089 223.704 685.685 222.642 685.595 220.68H692.219C692.255 220.428 692.291 220.176 692.291 219.942C692.291 217.602 690.923 215.676 688.349 215.676C685.757 215.676 683.777 217.548 683.777 220.446ZM685.649 219.42C685.901 217.908 686.963 217.026 688.313 217.026C689.501 217.026 690.473 217.854 690.527 219.42H685.649ZM694.391 228.6H696.137V224.46C696.137 223.992 696.065 223.668 696.065 223.668H696.101C696.731 224.64 697.775 225.216 698.927 225.216C701.321 225.216 703.049 223.344 703.049 220.446C703.049 217.62 701.519 215.676 699.053 215.676C697.721 215.676 696.569 216.288 695.993 217.386H695.957C695.957 217.386 696.011 217.08 696.011 216.702V215.892H694.391V228.6ZM696.083 220.482C696.083 218.178 697.343 217.206 698.711 217.206C700.223 217.206 701.285 218.484 701.285 220.464C701.285 222.534 700.097 223.704 698.657 223.704C696.983 223.704 696.083 222.102 696.083 220.482ZM704.608 220.446C704.608 223.182 706.606 225.216 709.486 225.216C710.908 225.216 712.294 224.64 713.122 223.758L712.42 222.48C711.718 223.218 710.62 223.704 709.612 223.704C707.722 223.704 706.39 222.282 706.39 220.428C706.39 218.574 707.722 217.188 709.558 217.188C710.512 217.188 711.466 217.62 712.078 218.232L712.906 217.008C712.042 216.09 710.692 215.676 709.486 215.676C706.624 215.676 704.608 217.746 704.608 220.446ZM715.01 225H716.684L720.626 219.564C720.914 219.132 721.364 218.52 721.418 218.358H721.454C721.454 218.502 721.4 219.132 721.4 219.564V225H723.092V215.892H721.4L717.476 221.328C717.17 221.76 716.738 222.39 716.666 222.552H716.63C716.648 222.462 716.684 221.814 716.684 221.328V215.892H715.01V225ZM727.964 225H729.692V217.386H732.878V215.892H724.796V217.386H727.964V225ZM733.699 220.446C733.699 223.146 735.679 225.216 738.541 225.216C739.801 225.216 741.187 224.73 742.069 223.92L741.331 222.642C740.611 223.29 739.621 223.704 738.649 223.704C737.011 223.704 735.607 222.642 735.517 220.68H742.141C742.177 220.428 742.213 220.176 742.213 219.942C742.213 217.602 740.845 215.676 738.271 215.676C735.679 215.676 733.699 217.548 733.699 220.446ZM735.571 219.42C735.823 217.908 736.885 217.026 738.235 217.026C739.423 217.026 740.395 217.854 740.449 219.42H735.571ZM746.403 225H748.131V217.386H751.317V215.892H743.235V217.386H746.403V225ZM752.188 222.516C752.188 224.226 753.646 225.216 755.23 225.216C756.58 225.216 757.696 224.406 758.218 223.362H758.254C758.254 223.362 758.2 223.668 758.2 224.082V225H759.838V219.24C759.838 216.936 758.524 215.676 756.238 215.676C754.96 215.676 753.574 216.144 752.836 216.756L753.538 218.034C754.276 217.512 755.194 217.152 756.094 217.152C757.228 217.152 758.092 217.656 758.092 219.15V219.33H757.624C755.734 219.33 752.188 219.654 752.188 222.516ZM753.934 222.372C753.934 220.698 756.346 220.59 757.642 220.59H758.092V220.932C758.092 222.282 757.174 223.83 755.644 223.83C754.51 223.83 753.934 223.092 753.934 222.372ZM761.374 225H763.354L765.262 221.958C765.406 221.742 765.532 221.472 765.532 221.472H765.568C765.568 221.472 765.712 221.742 765.856 221.958L767.764 225H769.744L766.63 220.32L769.564 215.892H767.566L765.874 218.664C765.748 218.898 765.568 219.204 765.568 219.204H765.532C765.532 219.204 765.37 218.898 765.244 218.664L763.552 215.892H761.554L764.488 220.32L761.374 225Z" fill="#424754"/>
<defs>
<clipPath id="clip0">
<rect width="166" height="216" transform="matrix(-1 0 0 1 268 182)" fill="white"/>
</clipPath>
</defs>
</svg>
