<svg width="1110" height="427" viewBox="0 0 1110 427" fill="none" xmlns="http://www.w3.org/2000/svg">
<path d="M3.7 77H13.168C18.28 77 22.96 74.948 22.96 69.332C22.96 67.064 21.88 64.436 18.928 63.536V63.464C20.872 62.348 21.916 60.152 21.916 57.992C21.916 53.564 18.316 51.26 13.168 51.26H3.7V77ZM10 61.232V56.66H13.132C14.824 56.66 15.508 57.668 15.508 58.856C15.508 60.08 14.824 61.232 13.24 61.232H10ZM10 71.6V66.272H13.816C15.652 66.272 16.516 67.46 16.516 68.9C16.516 70.34 15.616 71.6 13.78 71.6H10ZM25.0646 71.78C25.0646 74.984 27.5486 77.432 31.1126 77.432C33.2366 77.432 35.3966 76.46 36.6206 74.732H36.6926C36.6926 74.732 36.6206 75.272 36.6206 75.884V77H42.3086V65.588C42.3086 60.872 39.1406 58.028 34.0286 58.028C31.0046 58.028 27.7646 59.216 26.1806 60.44L28.3406 64.832C29.8166 63.86 31.6526 63.068 33.4526 63.068C34.8206 63.068 36.0806 63.572 36.0806 65.12V65.444H35.5406C30.9686 65.444 25.0646 66.812 25.0646 71.78ZM31.2206 71.204C31.2206 69.512 33.6686 69.008 35.5766 69.008H36.1526V69.512C36.1526 71.024 34.7846 72.788 32.9846 72.788C31.8326 72.788 31.2206 72.068 31.2206 71.204ZM46.2599 77H72.2159V58.46H66.3479V71.78H62.1719V58.46H56.3039V71.78H52.1279V58.46H46.2599V77ZM85.3888 77H95.5048C99.1768 77 102.561 75.56 102.561 71.492C102.561 69.872 101.769 68.036 99.6448 67.388V67.352C101.049 66.524 101.805 64.868 101.805 63.32C101.805 60.116 99.2128 58.46 95.5048 58.46H85.3888V77ZM91.6168 65.768V62.312H93.8848C95.1088 62.312 95.6128 63.068 95.6128 63.932C95.6128 64.904 95.1088 65.768 93.9568 65.768H91.6168ZM91.6168 73.112V69.404H94.3888C95.7208 69.404 96.3328 70.268 96.3328 71.276C96.3328 72.212 95.6848 73.112 94.3528 73.112H91.6168ZM124.283 77H130.511V58.46H124.283V77ZM105.779 77H114.815C119.999 77 122.159 74.444 122.159 70.664C122.159 66.92 119.999 64.256 114.815 64.256H112.007V58.46H105.779V77ZM112.007 72.932V68.288H113.555C115.139 68.288 115.931 69.332 115.931 70.628C115.931 71.924 115.139 72.932 113.663 72.932H112.007ZM133.85 65.912C133.85 72.716 137.198 77.432 143.894 77.432C149.762 77.432 153.47 73.544 153.47 68.432C153.47 63.464 150.446 59.936 145.478 59.936C143.858 59.936 141.626 60.368 140.042 61.7H139.97C140.078 59.036 142.598 58.028 144.974 57.236L151.958 55.004L150.194 50L144.182 52.016C136.946 54.5 133.85 58.352 133.85 65.912ZM140.042 68.54C140.042 66.128 141.698 64.616 143.642 64.616C145.586 64.616 147.242 66.128 147.242 68.54C147.242 70.916 145.586 72.356 143.642 72.356C141.698 72.356 140.042 70.916 140.042 68.54ZM155.677 67.784C155.677 73.58 160.357 77.432 166.189 77.432C172.021 77.432 176.701 73.58 176.701 67.784C176.701 61.952 172.021 58.028 166.153 58.028C160.357 58.028 155.677 61.952 155.677 67.784ZM161.977 67.784C161.977 64.976 163.921 63.212 166.189 63.212C168.457 63.212 170.401 64.976 170.401 67.784C170.401 70.556 168.457 72.248 166.189 72.248C163.921 72.248 161.977 70.556 161.977 67.784ZM179.818 84.2H186.046V77.252C186.046 76.316 185.974 75.668 185.974 75.668H186.046C187.378 76.82 189.034 77.432 190.762 77.432C195.694 77.432 199.402 73.616 199.402 67.748C199.402 61.988 196.09 58.028 191.05 58.028C188.818 58.028 186.694 58.892 185.434 60.584H185.362C185.362 60.584 185.434 60.008 185.434 59.396V58.46H179.818V84.2ZM185.866 67.856C185.866 64.652 187.63 63.284 189.502 63.284C191.662 63.284 193.138 65.084 193.138 67.856C193.138 70.7 191.446 72.284 189.502 72.284C187.054 72.284 185.866 70.088 185.866 67.856ZM202.636 64.364H208.54V58.46H202.636V64.364ZM202.636 77H208.54V71.096H202.636V77ZM1.288 119H8.272L11.224 113.6C12.124 111.98 12.808 110.396 12.808 110.396H12.88C12.88 110.396 13.564 111.98 14.464 113.6L17.416 119H24.436L16.588 106.22L24.472 93.26H17.308L14.464 98.552C13.564 100.208 12.88 101.864 12.88 101.864H12.808C12.808 101.864 12.088 100.172 11.224 98.552L8.416 93.26H1.252L9.1 106.22L1.288 119ZM26.4318 119H32.4798L37.6278 110.864C37.9158 110.36 38.3118 109.784 38.6358 109.028H38.7078C38.6358 109.748 38.6358 110.468 38.6358 110.9V119H44.5038V100.46H38.4558L33.3078 108.632C32.9838 109.172 32.6238 109.712 32.2998 110.468H32.2278C32.2638 110 32.2998 109.28 32.2998 108.632V100.46H26.4318V119ZM47.8937 119H53.8337L54.2657 110.468C54.3377 109.028 54.2297 107.3 54.2297 107.3H54.3017C54.3017 107.3 54.9857 108.848 55.3817 110.036L57.8297 116.516H62.8697L65.3177 110.036C65.7857 108.884 66.3257 107.3 66.3257 107.3H66.3977C66.3977 107.3 66.3257 109.028 66.3617 110.468L66.7937 119H72.7697L71.0057 100.46H63.8417L61.1057 108.596C60.7817 109.532 60.3497 110.756 60.3497 110.756H60.3137C60.3137 110.756 59.9177 109.532 59.5937 108.596L56.8577 100.46H49.6577L47.8937 119ZM76.1427 119H82.1907L87.3387 110.864C87.6267 110.36 88.0227 109.784 88.3467 109.028H88.4187C88.3467 109.748 88.3467 110.468 88.3467 110.9V119H94.2147V100.46H88.1667L83.0187 108.632C82.6947 109.172 82.3347 109.712 82.0107 110.468H81.9387C81.9747 110 82.0107 109.28 82.0107 108.632V100.46H76.1427V119ZM96.6326 119H103.221L106.785 113.348H108.081V119H114.309V100.46H104.589C100.485 100.46 97.8926 102.836 97.8926 106.724C97.8926 109.1 99.2246 111.224 101.241 112.232V112.268C101.241 112.268 100.881 112.628 100.377 113.384L96.6326 119ZM106.605 109.208C105.129 109.208 104.085 108.452 104.085 106.688C104.085 104.96 105.129 104.312 106.569 104.312H108.081V109.208H106.605ZM117.319 120.512H122.503L131.719 92H126.535L117.319 120.512ZM133.56 105.248C133.56 111.44 138.204 116.192 145.08 116.192V119.432H151.38V116.192C158.256 116.192 162.9 111.44 162.9 105.248C162.9 99.236 158.256 94.628 151.38 94.628V92H145.08V94.628C138.204 94.628 133.56 99.236 133.56 105.248ZM151.38 110.936V99.884C154.296 99.884 156.492 102.296 156.492 105.248C156.492 108.38 154.296 110.936 151.38 110.936ZM139.968 105.248C139.968 102.296 142.164 99.884 145.08 99.884V110.936C142.164 110.936 139.968 108.38 139.968 105.248ZM165.897 119H171.945L177.093 110.864C177.381 110.36 177.777 109.784 178.101 109.028H178.173C178.101 109.748 178.101 110.468 178.101 110.9V119H183.969V100.46H177.921L172.773 108.632C172.449 109.172 172.089 109.712 171.765 110.468H171.693C171.729 110 171.765 109.28 171.765 108.632V100.46H165.897V119ZM186.603 116.696C188.619 118.496 191.607 119.432 194.343 119.432C198.735 119.432 202.011 117.452 202.011 113.528C202.011 111.368 200.535 110.072 199.131 109.424V109.352C200.247 108.74 201.435 107.48 201.435 105.176C201.435 101.972 198.411 100.028 194.595 100.028C191.211 100.028 188.835 100.928 187.107 102.116L188.907 105.968C190.851 104.816 192.291 104.564 193.299 104.564C194.883 104.564 195.243 105.248 195.243 106.04C195.243 107.192 194.343 107.48 193.371 107.48H191.499V111.584H193.767C195.459 111.584 195.783 112.232 195.783 113.132C195.783 113.996 195.279 114.752 193.551 114.752C192.075 114.752 190.239 113.852 189.087 112.808L186.603 116.696ZM205.166 119H211.214L216.362 110.864C216.65 110.36 217.046 109.784 217.37 109.028H217.442C217.37 109.748 217.37 110.468 217.37 110.9V119H223.238V100.46H217.19L212.042 108.632C211.718 109.172 211.358 109.712 211.034 110.468H210.962C210.998 110 211.034 109.28 211.034 108.632V100.46H205.166V119ZM227.42 119H233.648V112.196H235.592L239.516 119H246.608L240.416 109.352V109.28L245.852 100.46H239.084L235.412 106.976H233.648V100.46H227.42V119ZM247.217 113.78C247.217 116.984 249.701 119.432 253.265 119.432C255.389 119.432 257.549 118.46 258.773 116.732H258.845C258.845 116.732 258.773 117.272 258.773 117.884V119H264.461V107.588C264.461 102.872 261.293 100.028 256.181 100.028C253.157 100.028 249.917 101.216 248.333 102.44L250.493 106.832C251.969 105.86 253.805 105.068 255.605 105.068C256.973 105.068 258.233 105.572 258.233 107.12V107.444H257.693C253.121 107.444 247.217 108.812 247.217 113.78ZM253.373 113.204C253.373 111.512 255.821 111.008 257.729 111.008H258.305V111.512C258.305 113.024 256.937 114.788 255.137 114.788C253.985 114.788 253.373 114.068 253.373 113.204ZM267.26 120.512H272.444L281.66 92H276.476L267.26 120.512ZM284.294 119H290.63L291.422 107.408C291.566 105.464 291.422 103.088 291.422 103.088H291.494C291.494 103.088 292.358 105.788 292.934 107.408L295.634 114.86H301.034L303.734 107.408C304.31 105.788 305.174 103.088 305.174 103.088H305.246C305.246 103.088 305.102 105.464 305.246 107.408L306.038 119H312.338L310.25 93.26H303.41L299.666 104.132C299.09 105.788 298.37 108.38 298.37 108.38H298.298C298.298 108.38 297.578 105.788 297.002 104.132L293.258 93.26H286.418L284.294 119ZM314.822 113.78C314.822 116.984 317.306 119.432 320.87 119.432C322.994 119.432 325.154 118.46 326.378 116.732H326.45C326.45 116.732 326.378 117.272 326.378 117.884V119H332.066V107.588C332.066 102.872 328.898 100.028 323.786 100.028C320.762 100.028 317.522 101.216 315.938 102.44L318.098 106.832C319.574 105.86 321.41 105.068 323.21 105.068C324.578 105.068 325.838 105.572 325.838 107.12V107.444H325.298C320.726 107.444 314.822 108.812 314.822 113.78ZM320.978 113.204C320.978 111.512 323.426 111.008 325.334 111.008H325.91V111.512C325.91 113.024 324.542 114.788 322.742 114.788C321.59 114.788 320.978 114.068 320.978 113.204ZM340.086 119H346.314V105.68H351.966V100.46H334.47V105.68H340.086V119ZM353.325 109.712C353.325 114.644 356.889 119.432 363.513 119.432C366.357 119.432 369.417 118.46 371.433 116.732L369.129 112.376C367.617 113.384 365.853 114.248 364.017 114.248C362.037 114.248 360.165 113.204 359.697 110.936H371.397C371.469 110.288 371.541 109.64 371.541 108.992C371.541 103.844 368.445 100.028 362.973 100.028C356.997 100.028 353.325 104.276 353.325 109.712ZM359.841 107.372C360.165 105.896 361.029 104.6 362.829 104.6C364.413 104.6 365.385 105.86 365.385 107.372H359.841ZM374.003 119H379.943L380.375 110.468C380.447 109.028 380.339 107.3 380.339 107.3H380.411C380.411 107.3 381.095 108.848 381.491 110.036L383.939 116.516H388.979L391.427 110.036C391.895 108.884 392.435 107.3 392.435 107.3H392.507C392.507 107.3 392.435 109.028 392.471 110.468L392.903 119H398.879L397.115 100.46H389.951L387.215 108.596C386.891 109.532 386.459 110.756 386.459 110.756H386.423C386.423 110.756 386.027 109.532 385.703 108.596L382.967 100.46H375.767L374.003 119ZM400.92 113.78C400.92 116.984 403.404 119.432 406.968 119.432C409.092 119.432 411.252 118.46 412.476 116.732H412.548C412.548 116.732 412.476 117.272 412.476 117.884V119H418.164V107.588C418.164 102.872 414.996 100.028 409.884 100.028C406.86 100.028 403.62 101.216 402.036 102.44L404.196 106.832C405.672 105.86 407.508 105.068 409.308 105.068C410.676 105.068 411.936 105.572 411.936 107.12V107.444H411.396C406.824 107.444 400.92 108.812 400.92 113.78ZM407.076 113.204C407.076 111.512 409.524 111.008 411.432 111.008H412.008V111.512C412.008 113.024 410.64 114.788 408.84 114.788C407.688 114.788 407.076 114.068 407.076 113.204ZM426.183 119H432.411V105.68H438.063V100.46H420.567V105.68H426.183V119ZM440.678 119H446.726L451.874 110.864C452.162 110.36 452.558 109.784 452.882 109.028H452.954C452.882 109.748 452.882 110.468 452.882 110.9V119H458.75V100.46H452.702L447.554 108.632C447.23 109.172 446.87 109.712 446.546 110.468H446.474C446.51 110 446.546 109.28 446.546 108.632V100.46H440.678V119ZM462.932 119H469.16V112.196H471.104L475.028 119H482.12L475.928 109.352V109.28L481.364 100.46H474.596L470.924 106.976H469.16V100.46H462.932V119ZM482.729 113.78C482.729 116.984 485.213 119.432 488.777 119.432C490.901 119.432 493.061 118.46 494.285 116.732H494.357C494.357 116.732 494.285 117.272 494.285 117.884V119H499.973V107.588C499.973 102.872 496.805 100.028 491.693 100.028C488.669 100.028 485.429 101.216 483.845 102.44L486.005 106.832C487.481 105.86 489.317 105.068 491.117 105.068C492.485 105.068 493.745 105.572 493.745 107.12V107.444H493.205C488.633 107.444 482.729 108.812 482.729 113.78ZM488.885 113.204C488.885 111.512 491.333 111.008 493.241 111.008H493.817V111.512C493.817 113.024 492.449 114.788 490.649 114.788C489.497 114.788 488.885 114.068 488.885 113.204Z" fill="#222224"/>
<circle cx="4" cy="181" r="4" fill="#F04B5D"/>
<circle cx="4" cy="234" r="4" fill="#F04B5D"/>
<circle cx="4" cy="315" r="4" fill="#F04B5D"/>
<circle cx="4" cy="368" r="4" fill="#F04B5D"/>
<path d="M21.188 186H22.97L23.582 177.99C23.654 177.216 23.618 176.082 23.618 176.082H23.654C23.654 176.082 24.05 177.306 24.338 177.99L26.858 183.714H28.442L30.98 177.99C31.268 177.288 31.664 176.118 31.664 176.118H31.7C31.7 176.118 31.664 177.216 31.736 177.99L32.348 186H34.112L33.086 173.292H31.232L28.298 180.168C28.01 180.87 27.668 181.878 27.668 181.878H27.632C27.632 181.878 27.308 180.87 27.02 180.168L24.086 173.292H22.232L21.188 186ZM36.5727 186H38.3187V182.094H42.9267V186H44.6727V176.892H42.9267V180.6H38.3187V176.892H36.5727V186ZM46.7716 181.446C46.7716 184.146 48.7516 186.216 51.6136 186.216C52.8736 186.216 54.2596 185.73 55.1416 184.92L54.4036 183.642C53.6836 184.29 52.6936 184.704 51.7216 184.704C50.0836 184.704 48.6796 183.642 48.5896 181.68H55.2136C55.2496 181.428 55.2856 181.176 55.2856 180.942C55.2856 178.602 53.9176 176.676 51.3436 176.676C48.7516 176.676 46.7716 178.548 46.7716 181.446ZM48.6436 180.42C48.8956 178.908 49.9576 178.026 51.3076 178.026C52.4956 178.026 53.4676 178.854 53.5216 180.42H48.6436ZM61.8852 186H63.6312V182.094H68.2392V186H69.9852V176.892H68.2392V180.6H63.6312V176.892H61.8852V186ZM72.2281 187.89L71.6161 189.222C71.6161 189.222 72.3541 189.78 73.3621 189.78C74.6401 189.78 75.7741 189.06 76.3141 187.638L80.5981 176.892H78.7081L76.4941 182.868C76.3321 183.336 76.1881 183.948 76.1881 183.948H76.1521C76.1521 183.948 75.9901 183.3 75.8101 182.85L73.5241 176.892H71.5621L75.3781 185.892L74.9281 186.936C74.5861 187.764 73.9921 188.286 73.2721 188.286C72.7321 188.286 72.2281 187.89 72.2281 187.89ZM81.2669 186H83.2109L85.6049 182.112H86.9009V186H88.5569V182.112H89.8709L92.2469 186H94.2089L91.2749 181.32V181.284L93.9389 176.892H92.1029L89.8529 180.618H88.5569V176.892H86.9009V180.618H85.6049L83.3729 176.892H81.5189L84.2009 181.284V181.32L81.2669 186ZM95.8461 186H97.5921V182.094H102.2V186H103.946V176.892H102.2V180.6H97.5921V176.892H95.8461V186ZM106.045 181.428C106.045 184.2 108.241 186.216 110.959 186.216C113.659 186.216 115.855 184.2 115.855 181.428C115.855 178.674 113.659 176.676 110.941 176.676C108.241 176.676 106.045 178.674 106.045 181.428ZM107.827 181.428C107.827 179.538 109.231 178.188 110.959 178.188C112.669 178.188 114.091 179.538 114.091 181.428C114.091 183.336 112.669 184.704 110.959 184.704C109.231 184.704 107.827 183.336 107.827 181.428ZM124.241 184.56C125.393 182.76 125.537 180.168 125.537 178.8V178.314H128.273V184.56H124.241ZM121.325 184.56V188.16H122.963V186H129.713V188.16H131.315V184.56H130.019V176.892H123.863V178.566C123.863 179.97 123.719 182.814 122.441 184.56H121.325ZM132.157 186.09C134.839 185.946 135.883 183.822 135.883 179.7V178.332H138.565V186H140.311V176.892H134.209V179.7C134.209 182.994 133.489 184.326 132.157 184.524V186.09ZM142.09 186H144.016L146.248 182.706H147.778V186H149.524V176.892H145.888C143.962 176.892 142.63 177.882 142.63 179.754C142.63 181.14 143.566 182.112 144.61 182.4V182.418C144.61 182.418 144.394 182.652 144.196 182.976L142.09 186ZM146.266 181.428C145.204 181.428 144.394 180.87 144.394 179.736C144.394 178.566 145.15 178.098 146.32 178.098H147.778V181.428H146.266ZM156.719 189.6H158.465V185.46C158.465 184.992 158.393 184.668 158.393 184.668H158.429C159.059 185.64 160.103 186.216 161.255 186.216C163.649 186.216 165.377 184.344 165.377 181.446C165.377 178.62 163.847 176.676 161.381 176.676C160.049 176.676 158.897 177.288 158.321 178.386H158.285C158.285 178.386 158.339 178.08 158.339 177.702V176.892H156.719V189.6ZM158.411 181.482C158.411 179.178 159.671 178.206 161.039 178.206C162.551 178.206 163.613 179.484 163.613 181.464C163.613 183.534 162.425 184.704 160.985 184.704C159.311 184.704 158.411 183.102 158.411 181.482ZM166.774 183.516C166.774 185.226 168.232 186.216 169.816 186.216C171.166 186.216 172.282 185.406 172.804 184.362H172.84C172.84 184.362 172.786 184.668 172.786 185.082V186H174.424V180.24C174.424 177.936 173.11 176.676 170.824 176.676C169.546 176.676 168.16 177.144 167.422 177.756L168.124 179.034C168.862 178.512 169.78 178.152 170.68 178.152C171.814 178.152 172.678 178.656 172.678 180.15V180.33H172.21C170.32 180.33 166.774 180.654 166.774 183.516ZM168.52 183.372C168.52 181.698 170.932 181.59 172.228 181.59H172.678V181.932C172.678 183.282 171.76 184.83 170.23 184.83C169.096 184.83 168.52 184.092 168.52 183.372ZM176.608 180.762C176.608 183.912 177.994 186.216 181.072 186.216C183.646 186.216 185.374 184.416 185.374 181.896C185.374 179.322 183.79 177.702 181.504 177.702C180.298 177.702 179.092 178.098 178.282 179.322H178.246C178.372 177.576 179.236 176.514 181.054 175.686L184.546 174.228L183.97 172.788L180.712 174.192C177.544 175.524 176.608 177.504 176.608 180.762ZM178.426 181.896C178.426 180.294 179.524 179.088 181.072 179.088C182.44 179.088 183.61 180.15 183.61 181.932C183.61 183.696 182.44 184.74 181 184.74C179.596 184.74 178.426 183.696 178.426 181.896ZM186.957 181.428C186.957 184.2 189.153 186.216 191.871 186.216C194.571 186.216 196.767 184.2 196.767 181.428C196.767 178.674 194.571 176.676 191.853 176.676C189.153 176.676 186.957 178.674 186.957 181.428ZM188.739 181.428C188.739 179.538 190.143 178.188 191.871 178.188C193.581 178.188 195.003 179.538 195.003 181.428C195.003 183.336 193.581 184.704 191.871 184.704C190.143 184.704 188.739 183.336 188.739 181.428ZM200.769 186H202.497V178.386H205.683V176.892H197.601V178.386H200.769V186ZM215.641 186H217.387V176.892H215.641V186ZM207.397 186H210.907C213.193 186 214.237 184.83 214.237 183.12C214.237 181.05 212.815 180.186 210.925 180.186H209.143V176.892H207.397V186ZM209.143 184.74V181.446H210.655C211.915 181.446 212.473 182.13 212.473 183.102C212.473 184.056 211.933 184.74 210.673 184.74H209.143Z" fill="#505257"/>
<path d="M20.288 239H22.268L24.572 235.094C24.968 234.392 25.346 233.636 25.346 233.636H25.382C25.382 233.636 25.778 234.392 26.174 235.094L28.496 239H30.494L26.48 232.448L30.26 226.292H28.208L26.192 229.73C25.778 230.432 25.4 231.206 25.4 231.206H25.364C25.364 231.206 24.95 230.414 24.572 229.73L22.574 226.292H20.54L24.284 232.448L20.288 239ZM30.9865 234.428C30.9865 237.2 33.1825 239.216 35.9005 239.216C38.6005 239.216 40.7965 237.2 40.7965 234.428C40.7965 231.674 38.6005 229.676 35.8825 229.676C33.1825 229.676 30.9865 231.674 30.9865 234.428ZM32.7685 234.428C32.7685 232.538 34.1725 231.188 35.9005 231.188C37.6105 231.188 39.0325 232.538 39.0325 234.428C39.0325 236.336 37.6105 237.704 35.9005 237.704C34.1725 237.704 32.7685 236.336 32.7685 234.428ZM45.3848 235.832C46.2848 235.832 47.2748 235.526 47.8508 235.166H47.8868C47.8868 235.166 47.8688 235.454 47.8688 235.706V239H49.6148V229.892H47.8688V233.672C47.4908 233.942 46.7528 234.32 45.8528 234.32C44.3588 234.32 44.0348 233.51 44.0348 232.61V229.892H42.3248V232.862C42.3248 234.806 43.4408 235.832 45.3848 235.832ZM51.8727 240.89L51.2607 242.222C51.2607 242.222 51.9987 242.78 53.0067 242.78C54.2847 242.78 55.4187 242.06 55.9587 240.638L60.2427 229.892H58.3527L56.1387 235.868C55.9767 236.336 55.8327 236.948 55.8327 236.948H55.7967C55.7967 236.948 55.6347 236.3 55.4547 235.85L53.1687 229.892H51.2067L55.0227 238.892L54.5727 239.936C54.2307 240.764 53.6367 241.286 52.9167 241.286C52.3767 241.286 51.8727 240.89 51.8727 240.89ZM66.4555 239H68.2015V235.094H72.8095V239H74.5555V229.892H72.8095V233.6H68.2015V229.892H66.4555V239ZM76.4924 236.516C76.4924 238.226 77.9504 239.216 79.5344 239.216C80.8844 239.216 82.0004 238.406 82.5224 237.362H82.5584C82.5584 237.362 82.5044 237.668 82.5044 238.082V239H84.1424V233.24C84.1424 230.936 82.8284 229.676 80.5424 229.676C79.2644 229.676 77.8784 230.144 77.1404 230.756L77.8424 232.034C78.5804 231.512 79.4984 231.152 80.3984 231.152C81.5324 231.152 82.3964 231.656 82.3964 233.15V233.33H81.9284C80.0384 233.33 76.4924 233.654 76.4924 236.516ZM78.2384 236.372C78.2384 234.698 80.6504 234.59 81.9464 234.59H82.3964V234.932C82.3964 236.282 81.4784 237.83 79.9484 237.83C78.8144 237.83 78.2384 237.092 78.2384 236.372ZM86.0973 240.89L85.4853 242.222C85.4853 242.222 86.2233 242.78 87.2313 242.78C88.5093 242.78 89.6433 242.06 90.1833 240.638L94.4673 229.892H92.5773L90.3633 235.868C90.2013 236.336 90.0573 236.948 90.0573 236.948H90.0213C90.0213 236.948 89.8593 236.3 89.6793 235.85L87.3933 229.892H85.4313L89.2473 238.892L88.7973 239.936C88.4553 240.764 87.8613 241.286 87.1413 241.286C86.6013 241.286 86.0973 240.89 86.0973 240.89ZM98.6641 235.832C99.5641 235.832 100.554 235.526 101.13 235.166H101.166C101.166 235.166 101.148 235.454 101.148 235.706V239H102.894V229.892H101.148V233.672C100.77 233.942 100.032 234.32 99.1321 234.32C97.6381 234.32 97.3141 233.51 97.3141 232.61V229.892H95.6041V232.862C95.6041 234.806 96.7201 235.832 98.6641 235.832ZM105.602 239H107.276L111.218 233.564C111.506 233.132 111.956 232.52 112.01 232.358H112.046C112.046 232.502 111.992 233.132 111.992 233.564V239H113.684V229.892H111.992L108.068 235.328C107.762 235.76 107.33 236.39 107.258 236.552H107.222C107.24 236.462 107.276 235.814 107.276 235.328V229.892H105.602V239ZM118.556 239H120.284V231.386H123.47V229.892H115.388V231.386H118.556V239ZM125.184 239H128.73C131.034 239 132.078 237.83 132.078 236.12C132.078 234.05 130.656 233.186 128.766 233.186H126.93V229.892H125.184V239ZM126.93 237.74V234.446H128.496C129.756 234.446 130.296 235.13 130.296 236.102C130.296 237.056 129.756 237.74 128.496 237.74H126.93ZM133.361 234.446C133.361 237.182 135.359 239.216 138.239 239.216C139.661 239.216 141.047 238.64 141.875 237.758L141.173 236.48C140.471 237.218 139.373 237.704 138.365 237.704C136.475 237.704 135.143 236.282 135.143 234.428C135.143 232.574 136.475 231.188 138.311 231.188C139.265 231.188 140.219 231.62 140.831 232.232L141.659 231.008C140.795 230.09 139.445 229.676 138.239 229.676C135.377 229.676 133.361 231.746 133.361 234.446ZM142.846 239H144.772L147.004 235.706H148.534V239H150.28V229.892H146.644C144.718 229.892 143.386 230.882 143.386 232.754C143.386 234.14 144.322 235.112 145.366 235.4V235.418C145.366 235.418 145.15 235.652 144.952 235.976L142.846 239ZM147.022 234.428C145.96 234.428 145.15 233.87 145.15 232.736C145.15 231.566 145.906 231.098 147.076 231.098H148.534V234.428H147.022ZM157.475 242.6H159.221V238.46C159.221 237.992 159.149 237.668 159.149 237.668H159.185C159.815 238.64 160.859 239.216 162.011 239.216C164.405 239.216 166.133 237.344 166.133 234.446C166.133 231.62 164.603 229.676 162.137 229.676C160.805 229.676 159.653 230.288 159.077 231.386H159.041C159.041 231.386 159.095 231.08 159.095 230.702V229.892H157.475V242.6ZM159.167 234.482C159.167 232.178 160.427 231.206 161.795 231.206C163.307 231.206 164.369 232.484 164.369 234.464C164.369 236.534 163.181 237.704 161.741 237.704C160.067 237.704 159.167 236.102 159.167 234.482ZM167.692 234.446C167.692 237.146 169.672 239.216 172.534 239.216C173.794 239.216 175.18 238.73 176.062 237.92L175.324 236.642C174.604 237.29 173.614 237.704 172.642 237.704C171.004 237.704 169.6 236.642 169.51 234.68H176.134C176.17 234.428 176.206 234.176 176.206 233.942C176.206 231.602 174.838 229.676 172.264 229.676C169.672 229.676 167.692 231.548 167.692 234.446ZM169.564 233.42C169.816 231.908 170.878 231.026 172.228 231.026C173.416 231.026 174.388 231.854 174.442 233.42H169.564ZM178.305 239H190.077V229.892H188.403V237.488H185.037V229.892H183.345V237.488H179.979V229.892H178.305V239ZM192.016 236.516C192.016 238.226 193.474 239.216 195.058 239.216C196.408 239.216 197.524 238.406 198.046 237.362H198.082C198.082 237.362 198.028 237.668 198.028 238.082V239H199.666V233.24C199.666 230.936 198.352 229.676 196.066 229.676C194.788 229.676 193.402 230.144 192.664 230.756L193.366 232.034C194.104 231.512 195.022 231.152 195.922 231.152C197.056 231.152 197.92 231.656 197.92 233.15V233.33H197.452C195.562 233.33 192.016 233.654 192.016 236.516ZM193.762 236.372C193.762 234.698 196.174 234.59 197.47 234.59H197.92V234.932C197.92 236.282 197.002 237.83 195.472 237.83C194.338 237.83 193.762 237.092 193.762 236.372ZM204.319 239H206.047V231.386H209.233V229.892H201.151V231.386H204.319V239ZM210.948 239H214.494C216.798 239 217.842 237.83 217.842 236.12C217.842 234.05 216.42 233.186 214.53 233.186H212.694V229.892H210.948V239ZM212.694 237.74V234.446H214.26C215.52 234.446 216.06 235.13 216.06 236.102C216.06 237.056 215.52 237.74 214.26 237.74H212.694ZM223.337 237.884C224.093 238.604 225.281 239.216 226.685 239.216C228.557 239.216 230.177 238.262 230.177 236.39C230.177 235.22 229.457 234.536 228.539 234.248V234.212C229.259 233.906 229.871 233.276 229.871 232.142C229.871 230.522 228.521 229.676 226.793 229.676C225.353 229.676 224.327 230.144 223.625 230.666L224.273 231.836C224.975 231.314 225.695 231.044 226.487 231.044C227.495 231.044 228.107 231.512 228.107 232.358C228.107 233.276 227.405 233.672 226.379 233.672H225.425V234.932H226.541C227.819 234.932 228.413 235.436 228.413 236.318C228.413 237.308 227.567 237.812 226.523 237.812C225.425 237.812 224.561 237.164 224.147 236.732L223.337 237.884ZM231.531 236.516C231.531 238.226 232.99 239.216 234.574 239.216C235.924 239.216 237.04 238.406 237.562 237.362H237.598C237.598 237.362 237.544 237.668 237.544 238.082V239H239.182V233.24C239.182 230.936 237.868 229.676 235.582 229.676C234.304 229.676 232.918 230.144 232.18 230.756L232.882 232.034C233.62 231.512 234.538 231.152 235.438 231.152C236.572 231.152 237.436 231.656 237.436 233.15V233.33H236.968C235.078 233.33 231.531 233.654 231.531 236.516ZM233.278 236.372C233.278 234.698 235.689 234.59 236.986 234.59H237.436V234.932C237.436 236.282 236.518 237.83 234.988 237.83C233.854 237.83 233.278 237.092 233.278 236.372ZM243.544 237.56C244.696 235.76 244.84 233.168 244.84 231.8V231.314H247.576V237.56H243.544ZM240.628 237.56V241.16H242.266V239H249.016V241.16H250.618V237.56H249.322V229.892H243.166V231.566C243.166 232.97 243.022 235.814 241.744 237.56H240.628ZM251.694 236.516C251.694 238.226 253.152 239.216 254.736 239.216C256.086 239.216 257.202 238.406 257.724 237.362H257.76C257.76 237.362 257.706 237.668 257.706 238.082V239H259.344V233.24C259.344 230.936 258.03 229.676 255.744 229.676C254.466 229.676 253.08 230.144 252.342 230.756L253.044 232.034C253.782 231.512 254.7 231.152 255.6 231.152C256.734 231.152 257.598 231.656 257.598 233.15V233.33H257.13C255.24 233.33 251.694 233.654 251.694 236.516ZM253.44 236.372C253.44 234.698 255.852 234.59 257.148 234.59H257.598V234.932C257.598 236.282 256.68 237.83 255.15 237.83C254.016 237.83 253.44 237.092 253.44 236.372ZM264.408 235.832C265.308 235.832 266.298 235.526 266.874 235.166H266.91C266.91 235.166 266.892 235.454 266.892 235.706V239H268.638V229.892H266.892V233.672C266.514 233.942 265.776 234.32 264.876 234.32C263.382 234.32 263.058 233.51 263.058 232.61V229.892H261.348V232.862C261.348 234.806 262.464 235.832 264.408 235.832ZM271.346 239H273.02L276.962 233.564C277.25 233.132 277.7 232.52 277.754 232.358H277.79C277.79 232.502 277.736 233.132 277.736 233.564V239H279.428V229.892H277.736L273.812 235.328C273.506 235.76 273.074 236.39 273.002 236.552H272.966C272.984 236.462 273.02 235.814 273.02 235.328V229.892H271.346V239ZM21.35 267H23.024L26.966 261.564C27.254 261.132 27.704 260.52 27.758 260.358H27.794C27.794 260.502 27.74 261.132 27.74 261.564V267H29.432V257.892H27.74L23.816 263.328C23.51 263.76 23.078 264.39 23.006 264.552H22.97C22.988 264.462 23.024 263.814 23.024 263.328V257.892H21.35V267ZM35.7258 265.884C36.4818 266.604 37.6698 267.216 39.0738 267.216C40.9458 267.216 42.5658 266.262 42.5658 264.39C42.5658 263.22 41.8458 262.536 40.9278 262.248V262.212C41.6478 261.906 42.2598 261.276 42.2598 260.142C42.2598 258.522 40.9098 257.676 39.1818 257.676C37.7418 257.676 36.7158 258.144 36.0138 258.666L36.6618 259.836C37.3638 259.314 38.0838 259.044 38.8758 259.044C39.8838 259.044 40.4958 259.512 40.4958 260.358C40.4958 261.276 39.7938 261.672 38.7678 261.672H37.8138V262.932H38.9298C40.2078 262.932 40.8018 263.436 40.8018 264.318C40.8018 265.308 39.9558 265.812 38.9118 265.812C37.8138 265.812 36.9498 265.164 36.5358 264.732L35.7258 265.884ZM43.9202 264.516C43.9202 266.226 45.3782 267.216 46.9622 267.216C48.3122 267.216 49.4282 266.406 49.9502 265.362H49.9862C49.9862 265.362 49.9322 265.668 49.9322 266.082V267H51.5702V261.24C51.5702 258.936 50.2562 257.676 47.9702 257.676C46.6922 257.676 45.3062 258.144 44.5682 258.756L45.2702 260.034C46.0082 259.512 46.9262 259.152 47.8262 259.152C48.9602 259.152 49.8242 259.656 49.8242 261.15V261.33H49.3562C47.4662 261.33 43.9202 261.654 43.9202 264.516ZM45.6662 264.372C45.6662 262.698 48.0782 262.59 49.3742 262.59H49.8242V262.932C49.8242 264.282 48.9062 265.83 47.3762 265.83C46.2422 265.83 45.6662 265.092 45.6662 264.372ZM53.7728 267H55.4648L55.8608 261.582C55.8968 261.042 55.8428 260.016 55.8428 260.016H55.8788C55.8788 260.016 56.1668 260.7 56.4548 261.366L58.6148 265.902H60.1088L62.2688 261.348C62.6108 260.646 62.8448 260.016 62.8448 260.016H62.8808C62.8808 260.016 62.8448 261.042 62.8628 261.582L63.2588 267H64.9508L64.1588 257.892H62.2508L59.8748 263.04C59.6408 263.598 59.3708 264.264 59.3708 264.264H59.3348C59.3348 264.264 59.0828 263.58 58.8308 263.04L56.5088 257.892H54.5648L53.7728 267ZM66.7052 262.446C66.7052 265.146 68.6852 267.216 71.5472 267.216C72.8072 267.216 74.1932 266.73 75.0752 265.92L74.3372 264.642C73.6172 265.29 72.6272 265.704 71.6552 265.704C70.0172 265.704 68.6132 264.642 68.5232 262.68H75.1472C75.1832 262.428 75.2192 262.176 75.2192 261.942C75.2192 259.602 73.8512 257.676 71.2772 257.676C68.6852 257.676 66.7052 259.548 66.7052 262.446ZM68.5772 261.42C68.8292 259.908 69.8912 259.026 71.2412 259.026C72.4292 259.026 73.4012 259.854 73.4552 261.42H68.5772ZM79.8028 263.832C80.7028 263.832 81.6928 263.526 82.2688 263.166H82.3048C82.3048 263.166 82.2868 263.454 82.2868 263.706V267H84.0328V257.892H82.2868V261.672C81.9088 261.942 81.1708 262.32 80.2708 262.32C78.7768 262.32 78.4528 261.51 78.4528 260.61V257.892H76.7428V260.862C76.7428 262.806 77.8588 263.832 79.8028 263.832ZM85.9846 264.516C85.9846 266.226 87.4426 267.216 89.0266 267.216C90.3766 267.216 91.4926 266.406 92.0146 265.362H92.0506C92.0506 265.362 91.9966 265.668 91.9966 266.082V267H93.6346V261.24C93.6346 258.936 92.3206 257.676 90.0346 257.676C88.7566 257.676 87.3706 258.144 86.6326 258.756L87.3346 260.034C88.0726 259.512 88.9906 259.152 89.8906 259.152C91.0246 259.152 91.8886 259.656 91.8886 261.15V261.33H91.4206C89.5306 261.33 85.9846 261.654 85.9846 264.516ZM87.7306 264.372C87.7306 262.698 90.1426 262.59 91.4386 262.59H91.8886V262.932C91.8886 264.282 90.9706 265.83 89.4406 265.83C88.3066 265.83 87.7306 265.092 87.7306 264.372ZM98.2882 267H100.016V259.386H103.202V257.892H95.1202V259.386H98.2882V267ZM104.916 267H108.462C110.766 267 111.81 265.83 111.81 264.12C111.81 262.05 110.388 261.186 108.498 261.186H106.662V257.892H104.916V267ZM106.662 265.74V262.446H108.228C109.488 262.446 110.028 263.13 110.028 264.102C110.028 265.056 109.488 265.74 108.228 265.74H106.662ZM118.188 267H119.934V259.386H124.398V267H126.144V257.892H118.188V267ZM128.84 270.6H130.586V266.46C130.586 265.992 130.514 265.668 130.514 265.668H130.55C131.18 266.64 132.224 267.216 133.376 267.216C135.77 267.216 137.498 265.344 137.498 262.446C137.498 259.62 135.968 257.676 133.502 257.676C132.17 257.676 131.018 258.288 130.442 259.386H130.406C130.406 259.386 130.46 259.08 130.46 258.702V257.892H128.84V270.6ZM130.532 262.482C130.532 260.178 131.792 259.206 133.16 259.206C134.672 259.206 135.734 260.484 135.734 262.464C135.734 264.534 134.546 265.704 133.106 265.704C131.432 265.704 130.532 264.102 130.532 262.482ZM139.057 262.428C139.057 265.2 141.253 267.216 143.971 267.216C146.671 267.216 148.867 265.2 148.867 262.428C148.867 259.674 146.671 257.676 143.953 257.676C141.253 257.676 139.057 259.674 139.057 262.428ZM140.839 262.428C140.839 260.538 142.243 259.188 143.971 259.188C145.681 259.188 147.103 260.538 147.103 262.428C147.103 264.336 145.681 265.704 143.971 265.704C142.243 265.704 140.839 264.336 140.839 262.428ZM150.971 267H152.717V259.386H156.677V257.892H150.971V267ZM158.407 270.6H160.153V266.46C160.153 265.992 160.081 265.668 160.081 265.668H160.117C160.747 266.64 161.791 267.216 162.943 267.216C165.337 267.216 167.065 265.344 167.065 262.446C167.065 259.62 165.535 257.676 163.069 257.676C161.737 257.676 160.585 258.288 160.009 259.386H159.973C159.973 259.386 160.027 259.08 160.027 258.702V257.892H158.407V270.6ZM160.099 262.482C160.099 260.178 161.359 259.206 162.727 259.206C164.239 259.206 165.301 260.484 165.301 262.464C165.301 264.534 164.113 265.704 162.673 265.704C160.999 265.704 160.099 264.102 160.099 262.482ZM168.623 262.446C168.623 265.146 170.603 267.216 173.465 267.216C174.725 267.216 176.111 266.73 176.993 265.92L176.255 264.642C175.535 265.29 174.545 265.704 173.573 265.704C171.935 265.704 170.531 264.642 170.441 262.68H177.065C177.101 262.428 177.137 262.176 177.137 261.942C177.137 259.602 175.769 257.676 173.195 257.676C170.603 257.676 168.623 259.548 168.623 262.446ZM170.495 261.42C170.747 259.908 171.809 259.026 173.159 259.026C174.347 259.026 175.319 259.854 175.373 261.42H170.495ZM178.643 262.446C178.643 265.182 180.641 267.216 183.521 267.216C184.943 267.216 186.329 266.64 187.157 265.758L186.455 264.48C185.753 265.218 184.655 265.704 183.647 265.704C181.757 265.704 180.425 264.282 180.425 262.428C180.425 260.574 181.757 259.188 183.593 259.188C184.547 259.188 185.501 259.62 186.113 260.232L186.941 259.008C186.077 258.09 184.727 257.676 183.521 257.676C180.659 257.676 178.643 259.746 178.643 262.446ZM188.24 262.446C188.24 265.182 190.238 267.216 193.118 267.216C194.54 267.216 195.926 266.64 196.754 265.758L196.052 264.48C195.35 265.218 194.252 265.704 193.244 265.704C191.354 265.704 190.022 264.282 190.022 262.428C190.022 260.574 191.354 259.188 193.19 259.188C194.144 259.188 195.098 259.62 195.71 260.232L196.538 259.008C195.674 258.09 194.324 257.676 193.118 257.676C190.256 257.676 188.24 259.746 188.24 262.446ZM203.143 270.6H204.889V266.46C204.889 265.992 204.817 265.668 204.817 265.668H204.853C205.483 266.64 206.527 267.216 207.679 267.216C210.073 267.216 211.801 265.344 211.801 262.446C211.801 259.62 210.271 257.676 207.805 257.676C206.473 257.676 205.321 258.288 204.745 259.386H204.709C204.709 259.386 204.763 259.08 204.763 258.702V257.892H203.143V270.6ZM204.835 262.482C204.835 260.178 206.095 259.206 207.463 259.206C208.975 259.206 210.037 260.484 210.037 262.464C210.037 264.534 208.849 265.704 207.409 265.704C205.735 265.704 204.835 264.102 204.835 262.482ZM213.36 262.446C213.36 265.146 215.34 267.216 218.202 267.216C219.462 267.216 220.848 266.73 221.73 265.92L220.992 264.642C220.272 265.29 219.282 265.704 218.31 265.704C216.672 265.704 215.268 264.642 215.178 262.68H221.802C221.838 262.428 221.874 262.176 221.874 261.942C221.874 259.602 220.506 257.676 217.932 257.676C215.34 257.676 213.36 259.548 213.36 262.446ZM215.232 261.42C215.484 259.908 216.546 259.026 217.896 259.026C219.084 259.026 220.056 259.854 220.11 261.42H215.232ZM223.577 261.762C223.577 264.912 224.963 267.216 228.041 267.216C230.615 267.216 232.343 265.416 232.343 262.896C232.343 260.322 230.759 258.702 228.473 258.702C227.267 258.702 226.061 259.098 225.251 260.322H225.215C225.341 258.576 226.205 257.514 228.023 256.686L231.515 255.228L230.939 253.788L227.681 255.192C224.513 256.524 223.577 258.504 223.577 261.762ZM225.395 262.896C225.395 261.294 226.493 260.088 228.041 260.088C229.409 260.088 230.579 261.15 230.579 262.932C230.579 264.696 229.409 265.74 227.969 265.74C226.565 265.74 225.395 264.696 225.395 262.896ZM233.926 262.446C233.926 265.146 235.906 267.216 238.768 267.216C240.028 267.216 241.414 266.73 242.296 265.92L241.558 264.642C240.838 265.29 239.848 265.704 238.876 265.704C237.238 265.704 235.834 264.642 235.744 262.68H242.368C242.404 262.428 242.44 262.176 242.44 261.942C242.44 259.602 241.072 257.676 238.498 257.676C235.906 257.676 233.926 259.548 233.926 262.446ZM235.798 261.42C236.05 259.908 237.112 259.026 238.462 259.026C239.65 259.026 240.622 259.854 240.676 261.42H235.798ZM244.539 267H246.285V263.094H250.893V267H252.639V257.892H250.893V261.6H246.285V257.892H244.539V267ZM255.332 267H257.078V263.058H258.392L261.11 267H263.18L259.778 262.266V262.23L262.82 257.892H260.84L258.356 261.564H257.078V257.892H255.332V267ZM263.893 264.516C263.893 266.226 265.351 267.216 266.935 267.216C268.285 267.216 269.401 266.406 269.923 265.362H269.959C269.959 265.362 269.905 265.668 269.905 266.082V267H271.543V261.24C271.543 258.936 270.229 257.676 267.943 257.676C266.665 257.676 265.279 258.144 264.541 258.756L265.243 260.034C265.981 259.512 266.899 259.152 267.799 259.152C268.933 259.152 269.797 259.656 269.797 261.15V261.33H269.329C267.439 261.33 263.893 261.654 263.893 264.516ZM265.639 264.372C265.639 262.698 268.051 262.59 269.347 262.59H269.797V262.932C269.797 264.282 268.879 265.83 267.349 265.83C266.215 265.83 265.639 265.092 265.639 264.372Z" fill="#505257"/>
<path d="M20.9 313.574C20.9 317.3 23.474 320.216 27.416 320.216C29.666 320.216 31.25 319.28 32.33 318.2L31.376 316.922C30.35 317.948 28.892 318.578 27.47 318.578C24.518 318.578 22.736 316.256 22.736 313.556C22.736 310.874 24.482 308.696 27.434 308.696C28.748 308.696 30.17 309.254 31.106 310.082L32.006 308.75C30.782 307.58 29 307.076 27.362 307.076C23.582 307.076 20.9 309.884 20.9 313.574ZM36.0616 320H37.7896V312.386H40.9756V310.892H32.8936V312.386H36.0616V320ZM41.846 317.516C41.846 319.226 43.304 320.216 44.888 320.216C46.238 320.216 47.354 319.406 47.876 318.362H47.912C47.912 318.362 47.858 318.668 47.858 319.082V320H49.496V314.24C49.496 311.936 48.182 310.676 45.896 310.676C44.618 310.676 43.232 311.144 42.494 311.756L43.196 313.034C43.934 312.512 44.852 312.152 45.752 312.152C46.886 312.152 47.75 312.656 47.75 314.15V314.33H47.282C45.392 314.33 41.846 314.654 41.846 317.516ZM43.592 317.372C43.592 315.698 46.004 315.59 47.3 315.59H47.75V315.932C47.75 317.282 46.832 318.83 45.302 318.83C44.168 318.83 43.592 318.092 43.592 317.372ZM51.0866 320.09C53.7686 319.946 54.8126 317.822 54.8126 313.7V312.332H57.4946V320H59.2406V310.892H53.1386V313.7C53.1386 316.994 52.4186 318.326 51.0866 318.524V320.09ZM61.3439 315.428C61.3439 318.2 63.5399 320.216 66.2579 320.216C68.9579 320.216 71.1539 318.2 71.1539 315.428C71.1539 312.674 68.9579 310.676 66.2399 310.676C63.5399 310.676 61.3439 312.674 61.3439 315.428ZM63.1259 315.428C63.1259 313.538 64.5299 312.188 66.2579 312.188C67.9679 312.188 69.3899 313.538 69.3899 315.428C69.3899 317.336 67.9679 318.704 66.2579 318.704C64.5299 318.704 63.1259 317.336 63.1259 315.428ZM77.7582 320H79.4322L83.3742 314.564C83.6622 314.132 84.1122 313.52 84.1662 313.358H84.2022C84.2022 313.502 84.1482 314.132 84.1482 314.564V320H85.8402V310.892H84.1482L80.2242 316.328C79.9182 316.76 79.4862 317.39 79.4142 317.552H79.3782C79.3962 317.462 79.4322 316.814 79.4322 316.328V310.892H77.7582V320ZM88.516 320H90.262V316.094H94.87V320H96.616V310.892H94.87V314.6H90.262V310.892H88.516V320ZM101.505 320H103.233V312.386H106.419V310.892H98.337V312.386H101.505V320ZM107.24 315.446C107.24 318.146 109.22 320.216 112.082 320.216C113.342 320.216 114.728 319.73 115.61 318.92L114.872 317.642C114.152 318.29 113.162 318.704 112.19 318.704C110.552 318.704 109.148 317.642 109.058 315.68H115.682C115.718 315.428 115.754 315.176 115.754 314.942C115.754 312.602 114.386 310.676 111.812 310.676C109.22 310.676 107.24 312.548 107.24 315.446ZM109.112 314.42C109.364 312.908 110.426 312.026 111.776 312.026C112.964 312.026 113.936 312.854 113.99 314.42H109.112ZM117.854 323.6H119.6V319.46C119.6 318.992 119.528 318.668 119.528 318.668H119.564C120.194 319.64 121.238 320.216 122.39 320.216C124.784 320.216 126.512 318.344 126.512 315.446C126.512 312.62 124.982 310.676 122.516 310.676C121.184 310.676 120.032 311.288 119.456 312.386H119.42C119.42 312.386 119.474 312.08 119.474 311.702V310.892H117.854V323.6ZM119.546 315.482C119.546 313.178 120.806 312.206 122.174 312.206C123.686 312.206 124.748 313.484 124.748 315.464C124.748 317.534 123.56 318.704 122.12 318.704C120.446 318.704 119.546 317.102 119.546 315.482ZM128.07 315.446C128.07 318.146 130.05 320.216 132.912 320.216C134.172 320.216 135.558 319.73 136.44 318.92L135.702 317.642C134.982 318.29 133.992 318.704 133.02 318.704C131.382 318.704 129.978 317.642 129.888 315.68H136.512C136.548 315.428 136.584 315.176 136.584 314.942C136.584 312.602 135.216 310.676 132.642 310.676C130.05 310.676 128.07 312.548 128.07 315.446ZM129.942 314.42C130.194 312.908 131.256 312.026 132.606 312.026C133.794 312.026 134.766 312.854 134.82 314.42H129.942ZM138.09 315.446C138.09 318.182 140.088 320.216 142.968 320.216C144.39 320.216 145.776 319.64 146.604 318.758L145.902 317.48C145.2 318.218 144.102 318.704 143.094 318.704C141.204 318.704 139.872 317.282 139.872 315.428C139.872 313.574 141.204 312.188 143.04 312.188C143.994 312.188 144.948 312.62 145.56 313.232L146.388 312.008C145.524 311.09 144.174 310.676 142.968 310.676C140.106 310.676 138.09 312.746 138.09 315.446ZM148.493 320H150.239V316.094H154.847V320H156.593V310.892H154.847V314.6H150.239V310.892H148.493V320ZM158.692 315.428C158.692 318.2 160.888 320.216 163.606 320.216C166.306 320.216 168.502 318.2 168.502 315.428C168.502 312.674 166.306 310.676 163.588 310.676C160.888 310.676 158.692 312.674 158.692 315.428ZM160.474 315.428C160.474 313.538 161.878 312.188 163.606 312.188C165.316 312.188 166.738 313.538 166.738 315.428C166.738 317.336 165.316 318.704 163.606 318.704C161.878 318.704 160.474 317.336 160.474 315.428ZM169.886 321.818H171.272L172.838 318.11H171.002L169.886 321.818ZM178.966 320H180.946L182.854 316.958C182.998 316.742 183.124 316.472 183.124 316.472H183.16C183.16 316.472 183.304 316.742 183.448 316.958L185.356 320H187.336L184.222 315.32L187.156 310.892H185.158L183.466 313.664C183.34 313.898 183.16 314.204 183.16 314.204H183.124C183.124 314.204 182.962 313.898 182.836 313.664L181.144 310.892H179.146L182.08 315.32L178.966 320ZM188.1 315.428C188.1 318.2 190.296 320.216 193.014 320.216C195.714 320.216 197.91 318.2 197.91 315.428C197.91 312.674 195.714 310.676 192.996 310.676C190.296 310.676 188.1 312.674 188.1 315.428ZM189.882 315.428C189.882 313.538 191.286 312.188 193.014 312.188C194.724 312.188 196.146 313.538 196.146 315.428C196.146 317.336 194.724 318.704 193.014 318.704C191.286 318.704 189.882 317.336 189.882 315.428ZM201.911 320H203.639V312.386H206.825V310.892H198.743V312.386H201.911V320ZM207.647 315.446C207.647 318.146 209.627 320.216 212.489 320.216C213.749 320.216 215.135 319.73 216.017 318.92L215.279 317.642C214.559 318.29 213.569 318.704 212.597 318.704C210.959 318.704 209.555 317.642 209.465 315.68H216.089C216.125 315.428 216.161 315.176 216.161 314.942C216.161 312.602 214.793 310.676 212.219 310.676C209.627 310.676 207.647 312.548 207.647 315.446ZM209.519 314.42C209.771 312.908 210.833 312.026 212.183 312.026C213.371 312.026 214.343 312.854 214.397 314.42H209.519ZM217.27 320.09C219.952 319.946 220.996 317.822 220.996 313.7V312.332H223.678V320H225.424V310.892H219.322V313.7C219.322 316.994 218.602 318.326 217.27 318.524V320.09ZM232.621 320H234.367V312.386H238.831V320H240.577V310.892H232.621V320ZM242.68 315.428C242.68 318.2 244.876 320.216 247.594 320.216C250.294 320.216 252.49 318.2 252.49 315.428C252.49 312.674 250.294 310.676 247.576 310.676C244.876 310.676 242.68 312.674 242.68 315.428ZM244.462 315.428C244.462 313.538 245.866 312.188 247.594 312.188C249.304 312.188 250.726 313.538 250.726 315.428C250.726 317.336 249.304 318.704 247.594 318.704C245.866 318.704 244.462 317.336 244.462 315.428ZM254.594 320H256.34V312.386H260.804V320H262.55V310.892H254.594V320ZM265.246 323.6H266.992V319.46C266.992 318.992 266.92 318.668 266.92 318.668H266.956C267.586 319.64 268.63 320.216 269.782 320.216C272.176 320.216 273.904 318.344 273.904 315.446C273.904 312.62 272.374 310.676 269.908 310.676C268.576 310.676 267.424 311.288 266.848 312.386H266.812C266.812 312.386 266.866 312.08 266.866 311.702V310.892H265.246V323.6ZM266.938 315.482C266.938 313.178 268.198 312.206 269.566 312.206C271.078 312.206 272.14 313.484 272.14 315.464C272.14 317.534 270.952 318.704 269.512 318.704C267.838 318.704 266.938 317.102 266.938 315.482ZM275.463 315.428C275.463 318.2 277.659 320.216 280.377 320.216C283.077 320.216 285.273 318.2 285.273 315.428C285.273 312.674 283.077 310.676 280.359 310.676C277.659 310.676 275.463 312.674 275.463 315.428ZM277.245 315.428C277.245 313.538 278.649 312.188 280.377 312.188C282.087 312.188 283.509 313.538 283.509 315.428C283.509 317.336 282.087 318.704 280.377 318.704C278.649 318.704 277.245 317.336 277.245 315.428ZM286.981 314.762C286.981 317.912 288.367 320.216 291.445 320.216C294.019 320.216 295.747 318.416 295.747 315.896C295.747 313.322 294.163 311.702 291.877 311.702C290.671 311.702 289.465 312.098 288.655 313.322H288.619C288.745 311.576 289.609 310.514 291.427 309.686L294.919 308.228L294.343 306.788L291.085 308.192C287.917 309.524 286.981 311.504 286.981 314.762ZM288.799 315.896C288.799 314.294 289.897 313.088 291.445 313.088C292.813 313.088 293.983 314.15 293.983 315.932C293.983 317.696 292.813 318.74 291.373 318.74C289.969 318.74 288.799 317.696 288.799 315.896ZM297.33 315.428C297.33 318.2 299.526 320.216 302.244 320.216C304.944 320.216 307.14 318.2 307.14 315.428C307.14 312.674 304.944 310.676 302.226 310.676C299.526 310.676 297.33 312.674 297.33 315.428ZM299.112 315.428C299.112 313.538 300.516 312.188 302.244 312.188C303.954 312.188 305.376 313.538 305.376 315.428C305.376 317.336 303.954 318.704 302.244 318.704C300.516 318.704 299.112 317.336 299.112 315.428ZM309.245 320H313.133C315.113 320 316.481 319.1 316.481 317.408C316.481 316.4 315.887 315.518 314.753 315.248V315.23C315.581 314.87 316.049 314.114 316.049 313.232C316.049 311.702 314.843 310.892 313.007 310.892H309.245V320ZM310.991 314.744V312.098H312.647C313.745 312.098 314.267 312.53 314.267 313.358C314.267 314.204 313.745 314.744 312.701 314.744H310.991ZM310.991 318.776V315.914H312.845C314.051 315.914 314.717 316.454 314.717 317.354C314.717 318.2 314.123 318.776 312.863 318.776H310.991ZM317.84 317.516C317.84 319.226 319.298 320.216 320.882 320.216C322.232 320.216 323.348 319.406 323.87 318.362H323.906C323.906 318.362 323.852 318.668 323.852 319.082V320H325.49V314.24C325.49 311.936 324.176 310.676 321.89 310.676C320.612 310.676 319.226 311.144 318.488 311.756L319.19 313.034C319.928 312.512 320.846 312.152 321.746 312.152C322.88 312.152 323.744 312.656 323.744 314.15V314.33H323.276C321.386 314.33 317.84 314.654 317.84 317.516ZM319.586 317.372C319.586 315.698 321.998 315.59 323.294 315.59H323.744V315.932C323.744 317.282 322.826 318.83 321.296 318.83C320.162 318.83 319.586 318.092 319.586 317.372ZM330.144 320H331.872V312.386H335.058V310.892H326.976V312.386H330.144V320ZM336.772 320H340.318C342.622 320 343.666 318.83 343.666 317.12C343.666 315.05 342.244 314.186 340.354 314.186H338.518V310.892H336.772V320ZM338.518 318.74V315.446H340.084C341.344 315.446 341.884 316.13 341.884 317.102C341.884 318.056 341.344 318.74 340.084 318.74H338.518Z" fill="#505257"/>
<path d="M21.188 373H22.97L23.582 364.99C23.654 364.216 23.618 363.082 23.618 363.082H23.654C23.654 363.082 24.05 364.306 24.338 364.99L26.858 370.714H28.442L30.98 364.99C31.268 364.288 31.664 363.118 31.664 363.118H31.7C31.7 363.118 31.664 364.216 31.736 364.99L32.348 373H34.112L33.086 360.292H31.232L28.298 367.168C28.01 367.87 27.668 368.878 27.668 368.878H27.632C27.632 368.878 27.308 367.87 27.02 367.168L24.086 360.292H22.232L21.188 373ZM35.9259 368.428C35.9259 371.2 38.1219 373.216 40.8399 373.216C43.5399 373.216 45.7359 371.2 45.7359 368.428C45.7359 365.674 43.5399 363.676 40.8219 363.676C38.1219 363.676 35.9259 365.674 35.9259 368.428ZM37.7079 368.428C37.7079 366.538 39.1119 365.188 40.8399 365.188C42.5499 365.188 43.9719 366.538 43.9719 368.428C43.9719 370.336 42.5499 371.704 40.8399 371.704C39.1119 371.704 37.7079 370.336 37.7079 368.428ZM47.2462 368.446C47.2462 371.146 49.2262 373.216 52.0882 373.216C53.3482 373.216 54.7342 372.73 55.6162 371.92L54.8782 370.642C54.1582 371.29 53.1682 371.704 52.1962 371.704C50.5582 371.704 49.1542 370.642 49.0642 368.68H55.6882C55.7242 368.428 55.7602 368.176 55.7602 367.942C55.7602 365.602 54.3922 363.676 51.8182 363.676C49.2262 363.676 47.2462 365.548 47.2462 368.446ZM49.1182 367.42C49.3702 365.908 50.4322 365.026 51.7822 365.026C52.9702 365.026 53.9422 365.854 53.9962 367.42H49.1182ZM61.3158 373H63.2958L65.2038 369.958C65.3478 369.742 65.4738 369.472 65.4738 369.472H65.5098C65.5098 369.472 65.6538 369.742 65.7978 369.958L67.7058 373H69.6858L66.5718 368.32L69.5058 363.892H67.5078L65.8158 366.664C65.6898 366.898 65.5098 367.204 65.5098 367.204H65.4738C65.4738 367.204 65.3118 366.898 65.1858 366.664L63.4938 363.892H61.4958L64.4298 368.32L61.3158 373ZM70.4494 368.428C70.4494 371.2 72.6454 373.216 75.3634 373.216C78.0634 373.216 80.2594 371.2 80.2594 368.428C80.2594 365.674 78.0634 363.676 75.3454 363.676C72.6454 363.676 70.4494 365.674 70.4494 368.428ZM72.2314 368.428C72.2314 366.538 73.6354 365.188 75.3634 365.188C77.0734 365.188 78.4954 366.538 78.4954 368.428C78.4954 370.336 77.0734 371.704 75.3634 371.704C73.6354 371.704 72.2314 370.336 72.2314 368.428ZM81.9677 367.762C81.9677 370.912 83.3537 373.216 86.4317 373.216C89.0057 373.216 90.7337 371.416 90.7337 368.896C90.7337 366.322 89.1497 364.702 86.8637 364.702C85.6577 364.702 84.4517 365.098 83.6417 366.322H83.6057C83.7317 364.576 84.5957 363.514 86.4137 362.686L89.9057 361.228L89.3297 359.788L86.0717 361.192C82.9037 362.524 81.9677 364.504 81.9677 367.762ZM83.7857 368.896C83.7857 367.294 84.8837 366.088 86.4317 366.088C87.7997 366.088 88.9697 367.15 88.9697 368.932C88.9697 370.696 87.7997 371.74 86.3597 371.74C84.9557 371.74 83.7857 370.696 83.7857 368.896ZM92.5145 367.762C92.5145 370.912 93.9005 373.216 96.9785 373.216C99.5525 373.216 101.281 371.416 101.281 368.896C101.281 366.322 99.6965 364.702 97.4105 364.702C96.2045 364.702 94.9985 365.098 94.1885 366.322H94.1525C94.2785 364.576 95.1425 363.514 96.9605 362.686L100.453 361.228L99.8765 359.788L96.6185 361.192C93.4505 362.524 92.5145 364.504 92.5145 367.762ZM94.3325 368.896C94.3325 367.294 95.4305 366.088 96.9785 366.088C98.3465 366.088 99.5165 367.15 99.5165 368.932C99.5165 370.696 98.3465 371.74 96.9065 371.74C95.5025 371.74 94.3325 370.696 94.3325 368.896ZM103.457 373H105.131L109.073 367.564C109.361 367.132 109.811 366.52 109.865 366.358H109.901C109.901 366.502 109.847 367.132 109.847 367.564V373H111.539V363.892H109.847L105.923 369.328C105.617 369.76 105.185 370.39 105.113 370.552H105.077C105.095 370.462 105.131 369.814 105.131 369.328V363.892H103.457V373ZM113.495 374.818H114.881L116.447 371.11H114.611L113.495 374.818ZM122.576 373H124.556L126.464 369.958C126.608 369.742 126.734 369.472 126.734 369.472H126.77C126.77 369.472 126.914 369.742 127.058 369.958L128.966 373H130.946L127.832 368.32L130.766 363.892H128.768L127.076 366.664C126.95 366.898 126.77 367.204 126.77 367.204H126.734C126.734 367.204 126.572 366.898 126.446 366.664L124.754 363.892H122.756L125.69 368.32L122.576 373ZM131.709 368.428C131.709 371.2 133.905 373.216 136.623 373.216C139.323 373.216 141.519 371.2 141.519 368.428C141.519 365.674 139.323 363.676 136.605 363.676C133.905 363.676 131.709 365.674 131.709 368.428ZM133.491 368.428C133.491 366.538 134.895 365.188 136.623 365.188C138.333 365.188 139.755 366.538 139.755 368.428C139.755 370.336 138.333 371.704 136.623 371.704C134.895 371.704 133.491 370.336 133.491 368.428ZM146.107 369.832C147.007 369.832 147.997 369.526 148.573 369.166H148.609C148.609 369.166 148.591 369.454 148.591 369.706V373H150.337V363.892H148.591V367.672C148.213 367.942 147.475 368.32 146.575 368.32C145.081 368.32 144.757 367.51 144.757 366.61V363.892H143.047V366.862C143.047 368.806 144.163 369.832 146.107 369.832ZM152.451 368.446C152.451 371.146 154.431 373.216 157.293 373.216C158.553 373.216 159.939 372.73 160.821 371.92L160.083 370.642C159.363 371.29 158.373 371.704 157.401 371.704C155.763 371.704 154.359 370.642 154.269 368.68H160.893C160.929 368.428 160.965 368.176 160.965 367.942C160.965 365.602 159.597 363.676 157.023 363.676C154.431 363.676 152.451 365.548 152.451 368.446ZM154.323 367.42C154.575 365.908 155.637 365.026 156.987 365.026C158.175 365.026 159.147 365.854 159.201 367.42H154.323ZM165.155 373H166.883V365.386H170.069V363.892H161.987V365.386H165.155V373ZM170.891 368.446C170.891 371.182 172.889 373.216 175.769 373.216C177.191 373.216 178.577 372.64 179.405 371.758L178.703 370.48C178.001 371.218 176.903 371.704 175.895 371.704C174.005 371.704 172.673 370.282 172.673 368.428C172.673 366.574 174.005 365.188 175.841 365.188C176.795 365.188 177.749 365.62 178.361 366.232L179.189 365.008C178.325 364.09 176.975 363.676 175.769 363.676C172.907 363.676 170.891 365.746 170.891 368.446ZM180.375 373H182.301L184.533 369.706H186.063V373H187.809V363.892H184.173C182.247 363.892 180.915 364.882 180.915 366.754C180.915 368.14 181.851 369.112 182.895 369.4V369.418C182.895 369.418 182.679 369.652 182.481 369.976L180.375 373ZM184.551 368.428C183.489 368.428 182.679 367.87 182.679 366.736C182.679 365.566 183.435 365.098 184.605 365.098H186.063V368.428H184.551ZM194.122 371.884C194.878 372.604 196.066 373.216 197.47 373.216C199.342 373.216 200.962 372.262 200.962 370.39C200.962 369.22 200.242 368.536 199.324 368.248V368.212C200.044 367.906 200.656 367.276 200.656 366.142C200.656 364.522 199.306 363.676 197.578 363.676C196.138 363.676 195.112 364.144 194.41 364.666L195.058 365.836C195.76 365.314 196.48 365.044 197.272 365.044C198.28 365.044 198.892 365.512 198.892 366.358C198.892 367.276 198.19 367.672 197.164 367.672H196.21V368.932H197.326C198.604 368.932 199.198 369.436 199.198 370.318C199.198 371.308 198.352 371.812 197.308 371.812C196.21 371.812 195.346 371.164 194.932 370.732L194.122 371.884ZM203.073 373H204.819V369.094H209.427V373H211.173V363.892H209.427V367.6H204.819V363.892H203.073V373ZM213.11 370.516C213.11 372.226 214.568 373.216 216.152 373.216C217.502 373.216 218.618 372.406 219.14 371.362H219.176C219.176 371.362 219.122 371.668 219.122 372.082V373H220.76V367.24C220.76 364.936 219.446 363.676 217.16 363.676C215.882 363.676 214.496 364.144 213.758 364.756L214.46 366.034C215.198 365.512 216.116 365.152 217.016 365.152C218.15 365.152 219.014 365.656 219.014 367.15V367.33H218.546C216.656 367.33 213.11 367.654 213.11 370.516ZM214.856 370.372C214.856 368.698 217.268 368.59 218.564 368.59H219.014V368.932C219.014 370.282 218.096 371.83 216.566 371.83C215.432 371.83 214.856 371.092 214.856 370.372ZM225.413 373H227.141V365.386H230.327V363.892H222.245V365.386H225.413V373ZM232.041 373H235.587C237.891 373 238.935 371.83 238.935 370.12C238.935 368.05 237.513 367.186 235.623 367.186H233.787V363.892H232.041V373ZM233.787 371.74V368.446H235.353C236.613 368.446 237.153 369.13 237.153 370.102C237.153 371.056 236.613 371.74 235.353 371.74H233.787ZM244.917 367.762C244.917 370.912 246.303 373.216 249.381 373.216C251.955 373.216 253.683 371.416 253.683 368.896C253.683 366.322 252.099 364.702 249.813 364.702C248.607 364.702 247.401 365.098 246.591 366.322H246.555C246.681 364.576 247.545 363.514 249.363 362.686L252.855 361.228L252.279 359.788L249.021 361.192C245.853 362.524 244.917 364.504 244.917 367.762ZM246.735 368.896C246.735 367.294 247.833 366.088 249.381 366.088C250.749 366.088 251.919 367.15 251.919 368.932C251.919 370.696 250.749 371.74 249.309 371.74C247.905 371.74 246.735 370.696 246.735 368.896ZM255.266 368.428C255.266 371.2 257.462 373.216 260.18 373.216C262.88 373.216 265.076 371.2 265.076 368.428C265.076 365.674 262.88 363.676 260.162 363.676C257.462 363.676 255.266 365.674 255.266 368.428ZM257.048 368.428C257.048 366.538 258.452 365.188 260.18 365.188C261.89 365.188 263.312 366.538 263.312 368.428C263.312 370.336 261.89 371.704 260.18 371.704C258.452 371.704 257.048 370.336 257.048 368.428ZM265.944 373.09C268.626 372.946 269.67 370.822 269.67 366.7V365.332H272.352V373H274.098V363.892H267.996V366.7C267.996 369.994 267.276 371.326 265.944 371.524V373.09ZM276.795 373H280.341C282.645 373 283.689 371.83 283.689 370.12C283.689 368.05 282.267 367.186 280.377 367.186H278.541V363.892H276.795V373ZM278.541 371.74V368.446H280.107C281.367 368.446 281.907 369.13 281.907 370.102C281.907 371.056 281.367 371.74 280.107 371.74H278.541ZM285.567 373H297.339V363.892H295.665V371.488H292.299V363.892H290.607V371.488H287.241V363.892H285.567V373ZM299.44 368.446C299.44 371.146 301.42 373.216 304.282 373.216C305.542 373.216 306.928 372.73 307.81 371.92L307.072 370.642C306.352 371.29 305.362 371.704 304.39 371.704C302.752 371.704 301.348 370.642 301.258 368.68H307.882C307.918 368.428 307.954 368.176 307.954 367.942C307.954 365.602 306.586 363.676 304.012 363.676C301.42 363.676 299.44 365.548 299.44 368.446ZM301.312 367.42C301.564 365.908 302.626 365.026 303.976 365.026C305.164 365.026 306.136 365.854 306.19 367.42H301.312Z" fill="#505257"/>
<path d="M1095.41 426.65H957.508C957.508 426.65 954.713 385.631 971.252 385.165C987.792 384.699 985.928 403.344 1006.66 377.707C1027.39 352.07 1052.55 353.468 1055.81 368.617C1059.07 383.767 1049.52 395.886 1066.99 392.157C1084.47 388.428 1109.62 398.217 1095.41 426.65Z" fill="#F2F2F2"/>
<path d="M984.95 160.545C984.421 151.13 980.591 142.21 974.141 135.375C967.692 128.54 959.043 124.235 949.736 123.228C940.429 122.22 931.07 124.576 923.326 129.874C915.583 135.172 909.959 143.069 907.457 152.156C906.978 152.138 906.5 152.119 906.018 152.119C897.485 152.121 889.181 154.906 882.35 160.058C875.519 165.21 870.527 172.451 868.121 180.7C862.467 178.197 856.148 177.654 850.155 179.156C844.161 180.658 838.831 184.12 835 189H958.203C973.34 189 985.595 176.369 984.978 161.132C984.97 160.937 984.96 160.741 984.95 160.545Z" fill="#E6E6E6"/>
<path d="M540.071 67.3359C540.814 54.2115 546.202 41.7772 555.274 32.25C564.347 22.7229 576.513 16.7221 589.604 15.3176C602.696 13.9131 615.862 17.1962 626.754 24.5815C637.647 31.9668 645.558 42.9742 649.077 55.6413C649.75 55.6172 650.423 55.5902 651.102 55.5902C663.105 55.5924 674.785 59.4747 684.394 66.6561C694.003 73.8376 701.025 83.9322 704.409 95.4298C712.363 91.9407 721.251 91.1837 729.682 93.2774C738.113 95.3711 745.61 100.197 751 107H577.694C556.402 107 539.163 89.3933 540.031 68.154C540.043 67.8817 540.056 67.609 540.071 67.3359Z" fill="#E6E6E6"/>
<path d="M851 119L857 136L847 156L830 127L851 119Z" fill="#A0616A"/>
<path d="M900.873 321.13C897.635 325.66 872.662 351.876 855.957 369.288C851.321 374.113 847.325 378.269 844.608 381.089C842.226 383.556 840.828 385 840.828 385L833.278 369.239L830 362.4L830.049 362.341L832.107 359.717L851.725 334.661L872.327 308.357L855.593 274.948L876.265 272L890.006 272.806L892.998 272.983C892.998 272.983 905.795 314.252 900.873 321.13Z" fill="#2F2E41"/>
<path d="M842.616 401.568C841.337 402.819 839.113 401.221 836.702 398.487C831.713 392.826 825.888 382.313 825.888 382.313L819 367.871C819.738 363.558 826.488 363.01 829.873 363C831.025 363 831.792 363.058 831.792 363.058L832.363 363.886L844.427 381.369C844.427 381.369 846.552 397.717 842.616 401.568Z" fill="#2F2E41"/>
<path opacity="0.2" d="M844.579 381.095C844.579 381.095 846.719 397.66 842.757 401.562C841.469 402.83 839.231 401.211 836.804 398.44L833.179 369.33L832.436 363.379L832 359.877L851.741 335L856 369.378C851.335 374.168 847.313 378.295 844.579 381.095Z" fill="black"/>
<path d="M831.899 229.967H825L826.972 294.879L840.768 407H863.435L853.58 326.351L858.508 281.11L893 273.241L883.145 228L831.899 229.967Z" fill="#2F2E41"/>
<path d="M842.302 404C842.302 404 840.267 417.698 841.285 418.676C842.302 419.654 843.32 420.633 843.32 422.59C843.32 424.546 855.531 429.438 861.636 425.525C867.741 421.611 863.671 415.741 863.671 415.741L857.566 404H842.302Z" fill="#2F2E41"/>
<path d="M839 131C848.389 131 856 123.389 856 114C856 104.611 848.389 97 839 97C829.611 97 822 104.611 822 114C822 123.389 829.611 131 839 131Z" fill="#A0616A"/>
<path d="M848.618 140.763L835.777 135.605L828 232.072L882 236L863.345 136.835L855 129L848.618 140.763Z" fill="#E6E6E6"/>
<path d="M833.746 133.15L823.717 141.239L805 151.078L811.896 213.063L812.881 248.483C812.881 248.483 800.074 279.968 809.926 287.839C819.777 295.71 830.613 292.758 828.643 276.032C826.673 259.306 822.732 247.499 841.449 229.789C860.167 212.079 843.776 128.997 833.746 133.15Z" fill="#2F2E41"/>
<path d="M854.266 127L866.564 134.995L883.244 143.884L896 286.111L867.545 295C867.545 295 851.78 130.857 854.266 127Z" fill="#2F2E41"/>
<path d="M886.017 245C886.017 245 871.043 268 882.024 268C893.005 268 896 249 896 249L886.017 245Z" fill="#A0616A"/>
<path d="M824.983 245C824.983 245 839.957 268 828.976 268C817.995 268 815 249 815 249L824.983 245Z" fill="#A0616A"/>
<path d="M840.094 89.9032L835.283 87L836.245 88.9355L832.396 87.9677L833.358 88.9355L828.547 87.9677L830.472 89.9032C830.472 89.9032 822.774 89.9032 821.811 97.6452L817 98.6129L818.925 101.516V104.419L820.849 106.355V109.258L822.774 114.097L824.698 107.323C824.698 107.323 833.358 109.258 837.207 101.516C837.207 101.516 838.17 104.419 842.981 103.452L850.679 117C850.679 117 851.641 110.994 855.009 110.126C858.377 109.258 856.453 101.516 856.453 101.516C856.453 101.516 853.566 98.6129 853.566 96.6774C853.566 94.742 850.679 92.8065 848.755 92.8065C846.83 92.8065 842.019 88.9355 842.019 88.9355L840.094 89.9032Z" fill="#2F2E41"/>
<path d="M813.039 151.717L808.392 149L805.053 150.733C805.053 150.733 801.06 152.702 800.062 159.593C799.064 166.483 789.081 208.812 789.081 208.812C789.081 208.812 788.083 215.703 793.074 227.515C798.066 239.328 817.032 260 817.032 260L835 245.234L808.048 212.749L815.035 186.171L813.039 151.717Z" fill="#2F2E41"/>
<path d="M875 144H883L896 192.554L900 253L881 246.064V202.464L875 144Z" fill="#2F2E41"/>
<path d="M1024.13 426.66L1023.67 426.641C1024.75 399.634 1030.41 382.282 1034.96 372.481C1039.9 361.84 1044.66 357.531 1044.71 357.489L1045.02 357.837C1044.97 357.879 1040.27 362.145 1035.36 372.714C1030.84 382.474 1025.21 399.755 1024.13 426.66Z" fill="white"/>
<path d="M1074.04 426.715L1073.6 426.585C1077.07 415.139 1083.32 404.733 1091.79 396.298L1092.11 396.643C1083.69 405.019 1077.49 415.352 1074.04 426.715Z" fill="white"/>
<path d="M979.229 426.683L978.767 426.618C980.271 416.493 978.68 406.15 974.203 396.945C972.367 393.084 969.936 389.536 967 386.429L967.322 386.093C970.297 389.237 972.76 392.83 974.621 396.739C979.139 406.027 980.745 416.465 979.229 426.683Z" fill="white"/>
<path d="M593.187 426.517L592.869 425.864C592.772 425.665 583.245 405.74 588.557 386.095C593.869 366.449 612.136 354.047 612.32 353.924L612.924 353.52L613.242 354.174C613.339 354.372 622.866 374.297 617.554 393.942C612.242 413.588 593.974 425.99 593.791 426.113L593.187 426.517ZM612.413 355.411C609.214 357.739 594.419 369.271 589.78 386.425C585.138 403.594 592.108 421.004 593.698 424.626C596.896 422.298 611.692 410.766 616.33 393.612C620.972 376.444 614.002 359.033 612.413 355.411Z" fill="#3F3D56"/>
<path d="M568.623 393.777C573.935 413.421 592.127 425.586 592.127 425.586C592.127 425.586 601.708 405.904 596.397 386.26C591.085 366.617 572.893 354.451 572.893 354.451C572.893 354.451 563.312 374.134 568.623 393.777Z" fill="#F04B5D"/>
<path d="M593.473 426.242L592.748 426.203C592.527 426.191 570.493 424.832 555.917 410.636C541.342 396.44 539.391 374.44 539.374 374.219L539.314 373.495L540.04 373.534C540.261 373.546 562.295 374.905 576.87 389.101C591.446 403.297 593.396 425.298 593.414 425.519L593.473 426.242ZM540.718 374.861C541.196 378.789 544.074 397.332 556.801 409.727C569.529 422.124 588.133 424.503 592.07 424.876C591.592 420.948 588.714 402.406 575.986 390.01C563.249 377.604 544.653 375.232 540.718 374.861Z" fill="#3F3D56"/>
<path d="M609.137 389.556C594.563 403.75 592.783 425.57 592.783 425.57C592.783 425.57 614.632 424.377 629.207 410.182C643.781 395.988 645.561 374.167 645.561 374.167C645.561 374.167 623.712 375.361 609.137 389.556Z" fill="#3F3D56"/>
<path d="M592.477 351.21C597.726 351.21 601.982 346.953 601.982 341.701C601.982 336.449 597.726 332.192 592.477 332.192C587.228 332.192 582.973 336.449 582.973 341.701C582.973 346.953 587.228 351.21 592.477 351.21Z" fill="#F04B5D"/>
<path d="M1110 426.092H533.861V427H1110V426.092Z" fill="#3F3D56"/>
</svg>
