<svg width="918" height="371" viewBox="0 0 918 371" fill="none" xmlns="http://www.w3.org/2000/svg">
<rect width="918" height="371" rx="6" fill="#64A15E"/>
<mask id="mask0" mask-type="alpha" maskUnits="userSpaceOnUse" x="0" y="0" width="918" height="371">
<rect width="918" height="371" rx="6" fill="#64A15E"/>
</mask>
<g mask="url(#mask0)">
<path d="M274.302 208.336C283.472 208.336 290.906 215.741 290.906 224.875C290.906 234.01 283.472 241.415 274.302 241.415C265.132 241.415 257.699 234.01 257.699 224.875C257.699 215.741 265.132 208.336 274.302 208.336Z" fill="#69A763"/>
<path d="M384.717 351.4C384.717 342.265 392.15 334.861 401.32 334.861C410.49 334.861 417.923 342.265 417.923 351.4C417.923 360.534 410.49 367.939 401.32 367.939C392.15 367.939 384.717 360.534 384.717 351.4Z" fill="#69A763"/>
<path d="M130.684 351.4C130.684 342.265 138.117 334.861 147.287 334.861C156.457 334.861 163.89 342.265 163.89 351.4C163.89 360.534 156.457 367.939 147.287 367.939C138.117 367.939 130.684 360.534 130.684 351.4Z" fill="#69A763"/>
<path d="M352.368 273.629C345.883 267.171 345.883 256.698 352.368 250.24C358.851 243.781 369.364 243.781 375.848 250.24C382.331 256.698 382.331 267.171 375.848 273.629C369.364 280.088 358.851 280.088 352.368 273.629Z" fill="#69A763"/>
<path d="M196.225 273.627C189.74 280.085 179.228 280.085 172.745 273.627C166.26 267.167 166.26 256.696 172.745 250.236C179.228 243.777 189.74 243.777 196.225 250.236C202.708 256.696 202.708 267.167 196.225 273.627Z" fill="#69A763"/>
<path d="M172.473 308.879C168.928 317.303 159.198 321.27 150.742 317.738C142.285 314.207 138.303 304.516 141.848 296.091C145.393 287.668 155.122 283.701 163.578 287.232C172.036 290.763 176.017 300.454 172.473 308.879Z" fill="#69A763"/>
<path d="M329.826 219.46C338.282 222.991 342.263 232.683 338.719 241.108C335.174 249.531 325.444 253.497 316.988 249.966C308.531 246.435 304.549 236.743 308.094 228.319C311.639 219.895 321.368 215.929 329.826 219.46Z" fill="#69A763"/>
<path d="M219.897 218.996C228.383 215.536 238.079 219.585 241.552 228.038C245.024 236.492 240.961 246.149 232.473 249.609C223.988 253.069 214.293 249.02 210.82 240.567C207.346 232.114 211.411 222.456 219.897 218.996Z" fill="#69A763"/>
<path d="M376.482 309.739C373.008 301.286 377.073 291.629 385.56 288.169C394.046 284.709 403.741 288.757 407.214 297.21C410.687 305.663 406.623 315.322 398.137 318.782C389.651 322.242 379.955 318.193 376.482 309.739Z" fill="#69A763"/>
<path d="M119.462 322.24C118.238 328.516 112.136 332.616 105.835 331.396C99.5346 330.177 95.4203 324.099 96.6456 317.822C97.8692 311.546 103.971 307.448 110.272 308.666C116.573 309.887 120.687 315.965 119.462 322.24Z" fill="#69A763"/>
<path d="M308.83 175.259C315.131 176.479 319.245 182.556 318.022 188.832C316.796 195.109 310.696 199.208 304.396 197.988C298.095 196.768 293.979 190.691 295.204 184.414C296.429 178.138 302.529 174.039 308.83 175.259Z" fill="#69A763"/>
<path d="M424.326 251.411C427.916 256.711 426.511 263.906 421.19 267.481C415.869 271.057 408.645 269.658 405.057 264.357C401.467 259.057 402.87 251.86 408.193 248.286C413.515 244.711 420.737 246.108 424.326 251.411Z" fill="#69A763"/>
<path d="M173.097 202.763C178.418 199.187 185.642 200.586 189.232 205.887C192.82 211.188 191.417 218.383 186.096 221.959C180.774 225.534 173.55 224.136 169.961 218.835C166.371 213.534 167.776 206.338 173.097 202.763Z" fill="#69A763"/>
<path d="M451.59 316.037C452.879 322.3 448.826 328.42 442.538 329.703C436.249 330.986 430.107 326.949 428.819 320.684C427.531 314.421 431.583 308.303 437.871 307.02C444.159 305.736 450.302 309.774 451.59 316.037Z" fill="#69A763"/>
<path d="M237.969 175.619C244.256 174.336 250.399 178.373 251.688 184.637C252.976 190.901 248.923 197.019 242.634 198.303C236.346 199.586 230.205 195.549 228.917 189.285C227.628 183.021 231.681 176.903 237.969 175.619Z" fill="#69A763"/>
<path d="M373.975 201.756C379.333 205.278 380.811 212.459 377.276 217.796C373.74 223.133 366.53 224.604 361.174 221.082C355.816 217.561 354.339 210.38 357.874 205.043C361.41 199.706 368.619 198.235 373.975 201.756Z" fill="#69A763"/>
<path d="M123.245 252.936C126.78 247.599 133.989 246.127 139.347 249.65C144.705 253.171 146.181 260.352 142.646 265.689C139.111 271.025 131.902 272.497 126.544 268.975C121.186 265.454 119.71 258.273 123.245 252.936Z" fill="#69A763"/>
<path d="M83.3688 352.224C83.3688 356.791 79.6513 360.494 75.0672 360.494C70.4814 360.494 66.7656 356.791 66.7656 352.224C66.7656 347.656 70.4814 343.955 75.0672 343.955C79.6513 343.955 83.3688 347.656 83.3688 352.224Z" fill="#69A763"/>
<path d="M481.844 352.224C481.844 356.791 478.126 360.494 473.542 360.494C468.956 360.494 465.24 356.791 465.24 352.224C465.24 347.656 468.956 343.955 473.542 343.955C478.126 343.955 481.844 347.656 481.844 352.224Z" fill="#69A763"/>
<path d="M274.303 145.487C278.888 145.487 282.605 149.19 282.605 153.757C282.605 158.324 278.888 162.026 274.303 162.026C269.718 162.026 266.002 158.324 266.002 153.757C266.002 149.19 269.718 145.487 274.303 145.487Z" fill="#69A763"/>
<path d="M421.043 206.038C424.284 209.267 424.284 214.503 421.043 217.733C417.801 220.962 412.544 220.962 409.303 217.733C406.06 214.503 406.06 209.267 409.303 206.038C412.544 202.808 417.801 202.808 421.043 206.038Z" fill="#69A763"/>
<path d="M127.548 206.04C130.79 202.811 136.047 202.811 139.289 206.04C142.53 209.269 142.53 214.505 139.289 217.735C136.047 220.964 130.79 220.964 127.548 217.735C124.307 214.505 124.307 209.269 127.548 206.04Z" fill="#69A763"/>
<path d="M465.911 272.818C467.673 277.035 465.669 281.876 461.435 283.629C457.203 285.384 452.343 283.388 450.582 279.17C448.822 274.953 450.826 270.114 455.058 268.359C459.292 266.606 464.151 268.602 465.911 272.818Z" fill="#69A763"/>
<path d="M194.581 161.344C198.813 159.59 203.673 161.586 205.433 165.803C207.194 170.02 205.19 174.86 200.957 176.614C196.724 178.368 191.865 176.372 190.103 172.155C188.343 167.939 190.347 163.098 194.581 161.344Z" fill="#69A763"/>
<path d="M353.425 161.105C357.664 162.846 359.683 167.68 357.934 171.902C356.186 176.125 351.333 178.136 347.094 176.394C342.857 174.653 340.838 169.818 342.586 165.596C344.333 161.374 349.186 159.363 353.425 161.105Z" fill="#69A763"/>
<path d="M82.438 273.402C84.1863 269.18 89.0394 267.169 93.2783 268.91C97.5171 270.652 99.5361 275.486 97.7877 279.708C96.0394 283.931 91.1863 285.942 86.9474 284.2C82.7086 282.459 80.6897 277.625 82.438 273.402Z" fill="#69A763"/>
<path d="M513.876 305.834C514.577 309.421 512.224 312.894 508.625 313.59C505.023 314.288 501.538 311.945 500.838 308.359C500.139 304.772 502.49 301.3 506.089 300.603C509.691 299.906 513.177 302.248 513.876 305.834Z" fill="#69A763"/>
<path d="M227.732 113.569C231.334 112.872 234.819 115.214 235.519 118.801C236.218 122.388 233.867 125.86 230.268 126.557C226.667 127.254 223.18 124.912 222.481 121.326C221.78 117.739 224.133 114.266 227.732 113.569Z" fill="#69A763"/>
<path d="M410.777 150.667C413.819 152.71 414.621 156.822 412.57 159.851C410.518 162.88 406.391 163.679 403.351 161.636C400.309 159.593 399.507 155.481 401.558 152.452C403.61 149.423 407.737 148.624 410.777 150.667Z" fill="#69A763"/>
<path d="M71.96 216.274C74.0121 213.245 78.1397 212.446 81.1797 214.489C84.2214 216.532 85.0233 220.644 82.9728 223.673C80.9206 226.702 76.7931 227.501 73.7531 225.458C70.7114 223.415 69.9095 219.303 71.96 216.274Z" fill="#69A763"/>
<path d="M477.545 217.627C479.576 220.669 478.746 224.776 475.692 226.798C472.637 228.821 468.515 227.994 466.484 224.952C464.454 221.909 465.284 217.803 468.339 215.78C471.392 213.757 475.515 214.584 477.545 217.627Z" fill="#69A763"/>
<path d="M139.183 149.761C142.238 147.738 146.359 148.565 148.389 151.608C150.42 154.65 149.589 158.757 146.536 160.779C143.481 162.802 139.359 161.975 137.328 158.932C135.297 155.89 136.128 151.784 139.183 149.761Z" fill="#69A763"/>
<path d="M322.471 113.885C326.068 114.607 328.395 118.095 327.671 121.677C326.948 125.258 323.446 127.577 319.85 126.856C316.253 126.135 313.926 122.647 314.65 119.065C315.373 115.483 318.875 113.164 322.471 113.885Z" fill="#69A763"/>
<path d="M35.0289 304.235C35.7528 300.652 39.2543 298.334 42.8489 299.055C46.445 299.776 48.7728 303.264 48.0489 306.846C47.325 310.427 43.8234 312.747 40.2272 312.024C36.6327 311.303 34.3033 307.815 35.0289 304.235Z" fill="#69A763"/>
</g>
<path d="M101.432 84.892C104.132 84.892 106.508 84.064 107.768 83.524H107.84C107.84 83.524 107.768 84.172 107.768 84.676V94H114.212V68.26H107.768V77.98C106.868 78.52 105.176 79.168 103.232 79.168C100.856 79.168 99.812 77.8 99.812 75.352V68.26H93.368V76.828C93.368 81.796 95.996 84.892 101.432 84.892ZM122.871 94H129.099V80.68H134.751V75.46H117.255V80.68H122.871V94ZM136.11 84.784C136.11 90.58 140.79 94.432 146.622 94.432C152.454 94.432 157.134 90.58 157.134 84.784C157.134 78.952 152.454 75.028 146.586 75.028C140.79 75.028 136.11 78.952 136.11 84.784ZM142.41 84.784C142.41 81.976 144.354 80.212 146.622 80.212C148.89 80.212 150.834 81.976 150.834 84.784C150.834 87.556 148.89 89.248 146.622 89.248C144.354 89.248 142.41 87.556 142.41 84.784ZM94.088 136H100.316V122.68H105.824V136H112.052V117.46H94.088V136ZM116.236 143.2H122.464V136.252C122.464 135.316 122.392 134.668 122.392 134.668H122.464C123.796 135.82 125.452 136.432 127.18 136.432C132.112 136.432 135.82 132.616 135.82 126.748C135.82 120.988 132.508 117.028 127.468 117.028C125.236 117.028 123.112 117.892 121.852 119.584H121.78C121.78 119.584 121.852 119.008 121.852 118.396V117.46H116.236V143.2ZM122.284 126.856C122.284 123.652 124.048 122.284 125.92 122.284C128.08 122.284 129.556 124.084 129.556 126.856C129.556 129.7 127.864 131.284 125.92 131.284C123.472 131.284 122.284 129.088 122.284 126.856ZM137.974 126.712C137.974 131.644 141.538 136.432 148.162 136.432C151.006 136.432 154.066 135.46 156.082 133.732L153.778 129.376C152.266 130.384 150.502 131.248 148.666 131.248C146.686 131.248 144.814 130.204 144.346 127.936H156.046C156.118 127.288 156.19 126.64 156.19 125.992C156.19 120.844 153.094 117.028 147.622 117.028C141.646 117.028 137.974 121.276 137.974 126.712ZM144.49 124.372C144.814 122.896 145.678 121.6 147.478 121.6C149.062 121.6 150.034 122.86 150.034 124.372H144.49ZM166.143 131.068C167.439 128.584 167.799 125.884 167.799 123.076V122.392H171.003V131.068H166.143ZM157.719 131.068V140.32H163.479V136H174.351V140.32H179.895V131.068H177.231V117.46H161.931V121.924C161.931 125.668 161.247 128.98 160.023 131.068H157.719ZM181.384 136.18C188.584 136.18 190.744 130.996 190.744 123.436V122.392H193.84V136H200.068V117.46H184.876V123.4C184.876 129.772 183.04 130.528 181.384 130.744V136.18ZM202.901 130.78C202.901 133.984 205.385 136.432 208.949 136.432C211.073 136.432 213.233 135.46 214.457 133.732H214.529C214.529 133.732 214.457 134.272 214.457 134.884V136H220.145V124.588C220.145 119.872 216.977 117.028 211.865 117.028C208.841 117.028 205.601 118.216 204.017 119.44L206.177 123.832C207.653 122.86 209.489 122.068 211.289 122.068C212.657 122.068 213.917 122.572 213.917 124.12V124.444H213.377C208.805 124.444 202.901 125.812 202.901 130.78ZM209.057 130.204C209.057 128.512 211.505 128.008 213.413 128.008H213.989V128.512C213.989 130.024 212.621 131.788 210.821 131.788C209.669 131.788 209.057 131.068 209.057 130.204ZM224.096 136H230.324V122.68H237.164V117.46H224.096V136ZM238.197 130.78C238.197 133.984 240.681 136.432 244.245 136.432C246.369 136.432 248.529 135.46 249.753 133.732H249.825C249.825 133.732 249.753 134.272 249.753 134.884V136H255.441V124.588C255.441 119.872 252.273 117.028 247.161 117.028C244.137 117.028 240.897 118.216 239.313 119.44L241.473 123.832C242.949 122.86 244.785 122.068 246.585 122.068C247.953 122.068 249.213 122.572 249.213 124.12V124.444H248.673C244.101 124.444 238.197 125.812 238.197 130.78ZM244.353 130.204C244.353 128.512 246.801 128.008 248.709 128.008H249.285V128.512C249.285 130.024 247.917 131.788 246.117 131.788C244.965 131.788 244.353 131.068 244.353 130.204ZM258.349 126.712C258.349 131.644 261.913 136.432 268.537 136.432C271.381 136.432 274.441 135.46 276.457 133.732L274.153 129.376C272.641 130.384 270.877 131.248 269.041 131.248C267.061 131.248 265.189 130.204 264.721 127.936H276.421C276.493 127.288 276.565 126.64 276.565 125.992C276.565 120.844 273.469 117.028 267.997 117.028C262.021 117.028 258.349 121.276 258.349 126.712ZM264.865 124.372C265.189 122.896 266.053 121.6 267.853 121.6C269.437 121.6 270.409 122.86 270.409 124.372H264.865ZM283.886 136H290.114V122.68H295.766V117.46H278.27V122.68H283.886V136ZM94.7 178H101V170.044H105.392C110.396 170.044 113.78 166.3 113.78 161.116C113.78 155.932 110.396 152.26 105.392 152.26H94.7V178ZM101 164.644V157.66H104.204C106.292 157.66 107.372 159.064 107.372 161.116C107.372 163.168 106.292 164.644 104.096 164.644H101ZM117.341 178H123.641V169.324H126.593L131.165 178H138.185L133.181 169C132.569 167.92 132.209 167.452 132.209 167.452V167.38C134.765 166.084 136.061 163.096 136.061 160.36C136.061 156.616 134.225 153.988 131.309 152.872C130.193 152.44 128.933 152.26 126.305 152.26H117.341V178ZM123.641 163.924V157.66H125.765C126.809 157.66 127.565 157.768 128.141 158.02C129.329 158.488 129.653 159.46 129.653 160.756C129.653 162.808 128.393 163.924 126.377 163.924H123.641ZM139.351 164.968C139.351 172.528 144.823 178.432 152.815 178.432C160.807 178.432 166.279 172.528 166.279 164.968C166.279 157.588 160.807 151.828 152.815 151.828C144.823 151.828 139.351 157.588 139.351 164.968ZM145.867 164.968C145.867 160.756 148.747 157.588 152.815 157.588C156.883 157.588 159.763 160.756 159.763 164.968C159.763 169.36 156.883 172.672 152.815 172.672C148.747 172.672 145.867 169.36 145.867 164.968ZM169.566 178H187.386V172.6H176.262C176.586 169.288 186.99 167.74 186.99 159.712C186.99 154.24 182.418 151.828 178.206 151.828C173.562 151.828 170.646 154.456 169.134 157.372L173.814 160.504C174.57 159.064 175.974 157.768 177.63 157.768C178.962 157.768 180.402 158.524 180.402 160.324C180.402 164.032 169.278 165.724 169.278 175.228C169.278 176.092 169.386 176.992 169.566 178Z" fill="white"/>
<path d="M510.674 300H512.42L518.09 291.756C518.54 291.054 519.152 289.902 519.152 289.902H519.188C519.188 289.902 519.08 291.036 519.08 291.756V300H520.844V287.292H519.098L513.464 295.518C513.014 296.202 512.384 297.39 512.384 297.39H512.348C512.348 297.39 512.456 296.256 512.456 295.536V287.292H510.674V300ZM523.78 300H525.526V296.094H530.134V300H531.88V290.892H530.134V294.6H525.526V290.892H523.78V300ZM536.769 300H538.497V292.386H541.683V290.892H533.601V292.386H536.769V300ZM542.504 295.446C542.504 298.146 544.484 300.216 547.346 300.216C548.606 300.216 549.992 299.73 550.874 298.92L550.136 297.642C549.416 298.29 548.426 298.704 547.454 298.704C545.816 298.704 544.412 297.642 544.322 295.68H550.946C550.982 295.428 551.018 295.176 551.018 294.942C551.018 292.602 549.65 290.676 547.076 290.676C544.484 290.676 542.504 292.548 542.504 295.446ZM544.376 294.42C544.628 292.908 545.69 292.026 547.04 292.026C548.228 292.026 549.2 292.854 549.254 294.42H544.376ZM553.118 300H554.864V296.094H559.472V300H561.218V290.892H559.472V294.6H554.864V290.892H553.118V300ZM563.317 295.446C563.317 298.182 565.315 300.216 568.195 300.216C569.617 300.216 571.003 299.64 571.831 298.758L571.129 297.48C570.427 298.218 569.329 298.704 568.321 298.704C566.431 298.704 565.099 297.282 565.099 295.428C565.099 293.574 566.431 292.188 568.267 292.188C569.221 292.188 570.175 292.62 570.787 293.232L571.615 292.008C570.751 291.09 569.401 290.676 568.195 290.676C565.333 290.676 563.317 292.746 563.317 295.446ZM573.719 300H575.393L579.335 294.564C579.623 294.132 580.073 293.52 580.127 293.358H580.163C580.163 293.502 580.109 294.132 580.109 294.564V300H581.801V290.892H580.109L576.185 296.328C575.879 296.76 575.447 297.39 575.375 297.552H575.339C575.357 297.462 575.393 296.814 575.393 296.328V290.892H573.719V300ZM584.477 300H588.365C590.345 300 591.713 299.1 591.713 297.408C591.713 296.4 591.119 295.518 589.985 295.248V295.23C590.813 294.87 591.281 294.114 591.281 293.232C591.281 291.702 590.075 290.892 588.239 290.892H584.477V300ZM586.223 294.744V292.098H587.879C588.977 292.098 589.499 292.53 589.499 293.358C589.499 294.204 588.977 294.744 587.933 294.744H586.223ZM586.223 298.776V295.914H588.077C589.283 295.914 589.949 296.454 589.949 297.354C589.949 298.2 589.355 298.776 588.095 298.776H586.223ZM593.829 300H595.575V296.094H600.183V300H601.929V290.892H600.183V294.6H595.575V290.892H593.829V300ZM612.865 300H614.611V290.892H612.865V300ZM604.621 300H608.131C610.417 300 611.461 298.83 611.461 297.12C611.461 295.05 610.039 294.186 608.149 294.186H606.367V290.892H604.621V300ZM606.367 298.74V295.446H607.879C609.139 295.446 609.697 296.13 609.697 297.102C609.697 298.056 609.157 298.74 607.897 298.74H606.367ZM616.719 295.446C616.719 298.146 618.699 300.216 621.561 300.216C622.821 300.216 624.207 299.73 625.089 298.92L624.351 297.642C623.631 298.29 622.641 298.704 621.669 298.704C620.031 298.704 618.627 297.642 618.537 295.68H625.161C625.197 295.428 625.233 295.176 625.233 294.942C625.233 292.602 623.865 290.676 621.291 290.676C618.699 290.676 616.719 292.548 616.719 295.446ZM618.591 294.42C618.843 292.908 619.905 292.026 621.255 292.026C622.443 292.026 623.415 292.854 623.469 294.42H618.591ZM631.832 300H633.578V296.058H634.892L637.61 300H639.68L636.278 295.266V295.23L639.32 290.892H637.34L634.856 294.564H633.578V290.892H631.832V300ZM640.787 301.89L640.175 303.222C640.175 303.222 640.913 303.78 641.921 303.78C643.199 303.78 644.333 303.06 644.873 301.638L649.157 290.892H647.267L645.053 296.868C644.891 297.336 644.747 297.948 644.747 297.948H644.711C644.711 297.948 644.549 297.3 644.369 296.85L642.083 290.892H640.121L643.937 299.892L643.487 300.936C643.145 301.764 642.551 302.286 641.831 302.286C641.291 302.286 640.787 301.89 640.787 301.89ZM650.87 303.6H652.616V299.46C652.616 298.992 652.544 298.668 652.544 298.668H652.58C653.21 299.64 654.254 300.216 655.406 300.216C657.8 300.216 659.528 298.344 659.528 295.446C659.528 292.62 657.998 290.676 655.532 290.676C654.2 290.676 653.048 291.288 652.472 292.386H652.436C652.436 292.386 652.49 292.08 652.49 291.702V290.892H650.87V303.6ZM652.562 295.482C652.562 293.178 653.822 292.206 655.19 292.206C656.702 292.206 657.764 293.484 657.764 295.464C657.764 297.534 656.576 298.704 655.136 298.704C653.462 298.704 652.562 297.102 652.562 295.482ZM661.086 295.446C661.086 298.182 663.084 300.216 665.964 300.216C667.386 300.216 668.772 299.64 669.6 298.758L668.898 297.48C668.196 298.218 667.098 298.704 666.09 298.704C664.2 298.704 662.868 297.282 662.868 295.428C662.868 293.574 664.2 292.188 666.036 292.188C666.99 292.188 667.944 292.62 668.556 293.232L669.384 292.008C668.52 291.09 667.17 290.676 665.964 290.676C663.102 290.676 661.086 292.746 661.086 295.446ZM679.733 300H681.479V290.892H679.733V300ZM671.489 300H674.999C677.285 300 678.329 298.83 678.329 297.12C678.329 295.05 676.907 294.186 675.017 294.186H673.235V290.892H671.489V300ZM673.235 298.74V295.446H674.747C676.007 295.446 676.565 296.13 676.565 297.102C676.565 298.056 676.025 298.74 674.765 298.74H673.235Z" fill="white"/>
<path d="M478.396 300.168C481.112 300.168 481.994 297.872 481.994 295.016C481.994 292.16 481.112 289.892 478.396 289.892C475.68 289.892 474.784 292.16 474.784 295.016C474.784 297.872 475.68 300.168 478.396 300.168ZM478.396 298.516C477.038 298.516 476.646 296.976 476.646 295.016C476.646 293.084 477.038 291.558 478.396 291.558C479.754 291.558 480.146 293.084 480.146 295.016C480.146 296.976 479.754 298.516 478.396 298.516ZM483.211 297.438H487.859V300H489.637V297.438H490.925V295.94H489.637V290.06H487.509L483.211 296.332V297.438ZM485.115 295.94V295.912L487.411 292.734C487.677 292.356 487.901 291.824 487.901 291.824H487.929C487.929 291.824 487.859 292.37 487.859 292.86V295.94H485.115Z" fill="white"/>
<path d="M510.674 158H512.456V146.84H518.9V158H520.682V145.292H510.674V158ZM522.94 153.428C522.94 156.2 525.136 158.216 527.854 158.216C530.554 158.216 532.75 156.2 532.75 153.428C532.75 150.674 530.554 148.676 527.836 148.676C525.136 148.676 522.94 150.674 522.94 153.428ZM524.722 153.428C524.722 151.538 526.126 150.188 527.854 150.188C529.564 150.188 530.986 151.538 530.986 153.428C530.986 155.336 529.564 156.704 527.854 156.704C526.126 156.704 524.722 155.336 524.722 153.428ZM536.407 156.56C537.559 154.76 537.703 152.168 537.703 150.8V150.314H540.439V156.56H536.407ZM533.491 156.56V160.16H535.129V158H541.879V160.16H543.481V156.56H542.185V148.892H536.029V150.566C536.029 151.97 535.885 154.814 534.607 156.56H533.491ZM544.811 152.762C544.811 155.912 546.197 158.216 549.275 158.216C551.849 158.216 553.577 156.416 553.577 153.896C553.577 151.322 551.993 149.702 549.707 149.702C548.501 149.702 547.295 150.098 546.485 151.322H546.449C546.575 149.576 547.439 148.514 549.257 147.686L552.749 146.228L552.173 144.788L548.915 146.192C545.747 147.524 544.811 149.504 544.811 152.762ZM546.629 153.896C546.629 152.294 547.727 151.088 549.275 151.088C550.643 151.088 551.813 152.15 551.813 153.932C551.813 155.696 550.643 156.74 549.203 156.74C547.799 156.74 546.629 155.696 546.629 153.896ZM555.16 153.446C555.16 156.146 557.14 158.216 560.002 158.216C561.262 158.216 562.648 157.73 563.53 156.92L562.792 155.642C562.072 156.29 561.082 156.704 560.11 156.704C558.472 156.704 557.068 155.642 556.978 153.68H563.602C563.638 153.428 563.674 153.176 563.674 152.942C563.674 150.602 562.306 148.676 559.732 148.676C557.14 148.676 555.16 150.548 555.16 153.446ZM557.032 152.42C557.284 150.908 558.346 150.026 559.696 150.026C560.884 150.026 561.856 150.854 561.91 152.42H557.032ZM565.774 161.6H567.52V157.46C567.52 156.992 567.448 156.668 567.448 156.668H567.484C568.114 157.64 569.158 158.216 570.31 158.216C572.704 158.216 574.432 156.344 574.432 153.446C574.432 150.62 572.902 148.676 570.436 148.676C569.104 148.676 567.952 149.288 567.376 150.386H567.34C567.34 150.386 567.394 150.08 567.394 149.702V148.892H565.774V161.6ZM567.466 153.482C567.466 151.178 568.726 150.206 570.094 150.206C571.606 150.206 572.668 151.484 572.668 153.464C572.668 155.534 571.48 156.704 570.04 156.704C568.366 156.704 567.466 155.102 567.466 153.482ZM575.99 153.446C575.99 156.146 577.97 158.216 580.832 158.216C582.092 158.216 583.478 157.73 584.36 156.92L583.622 155.642C582.902 156.29 581.912 156.704 580.94 156.704C579.302 156.704 577.898 155.642 577.808 153.68H584.432C584.468 153.428 584.504 153.176 584.504 152.942C584.504 150.602 583.136 148.676 580.562 148.676C577.97 148.676 575.99 150.548 575.99 153.446ZM577.862 152.42C578.114 150.908 579.176 150.026 580.526 150.026C581.714 150.026 582.686 150.854 582.74 152.42H577.862ZM586.226 158H587.918L588.314 152.582C588.35 152.042 588.296 151.016 588.296 151.016H588.332C588.332 151.016 588.62 151.7 588.908 152.366L591.068 156.902H592.562L594.722 152.348C595.064 151.646 595.298 151.016 595.298 151.016H595.334C595.334 151.016 595.298 152.042 595.316 152.582L595.712 158H597.404L596.612 148.892H594.704L592.328 154.04C592.094 154.598 591.824 155.264 591.824 155.264H591.788C591.788 155.264 591.536 154.58 591.284 154.04L588.962 148.892H587.018L586.226 158ZM603.802 159.89L603.19 161.222C603.19 161.222 603.928 161.78 604.936 161.78C606.214 161.78 607.348 161.06 607.888 159.638L612.172 148.892H610.282L608.068 154.868C607.906 155.336 607.762 155.948 607.762 155.948H607.726C607.726 155.948 607.564 155.3 607.384 154.85L605.098 148.892H603.136L606.952 157.892L606.502 158.936C606.16 159.764 605.566 160.286 604.846 160.286C604.306 160.286 603.802 159.89 603.802 159.89ZM615.017 156.56C616.169 154.76 616.313 152.168 616.313 150.8V150.314H619.049V156.56H615.017ZM612.101 156.56V160.16H613.739V158H620.489V160.16H622.091V156.56H620.795V148.892H614.639V150.566C614.639 151.97 614.495 154.814 613.217 156.56H612.101ZM623.223 153.428C623.223 156.2 625.419 158.216 628.137 158.216C630.837 158.216 633.033 156.2 633.033 153.428C633.033 150.674 630.837 148.676 628.119 148.676C625.419 148.676 623.223 150.674 623.223 153.428ZM625.005 153.428C625.005 151.538 626.409 150.188 628.137 150.188C629.847 150.188 631.269 151.538 631.269 153.428C631.269 155.336 629.847 156.704 628.137 156.704C626.409 156.704 625.005 155.336 625.005 153.428ZM634.741 152.762C634.741 155.912 636.127 158.216 639.205 158.216C641.779 158.216 643.507 156.416 643.507 153.896C643.507 151.322 641.923 149.702 639.637 149.702C638.431 149.702 637.225 150.098 636.415 151.322H636.379C636.505 149.576 637.369 148.514 639.187 147.686L642.679 146.228L642.103 144.788L638.845 146.192C635.677 147.524 634.741 149.504 634.741 152.762ZM636.559 153.896C636.559 152.294 637.657 151.088 639.205 151.088C640.573 151.088 641.743 152.15 641.743 153.932C641.743 155.696 640.573 156.74 639.133 156.74C637.729 156.74 636.559 155.696 636.559 153.896ZM645.684 158H647.43V154.094H652.038V158H653.784V148.892H652.038V152.6H647.43V148.892H645.684V158ZM664.721 158H666.467V148.892H664.721V158ZM656.477 158H659.987C662.273 158 663.317 156.83 663.317 155.12C663.317 153.05 661.895 152.186 660.005 152.186H658.223V148.892H656.477V158ZM658.223 156.74V153.446H659.735C660.995 153.446 661.553 154.13 661.553 155.102C661.553 156.056 661.013 156.74 659.753 156.74H658.223ZM673.182 147.848C674.586 147.848 675.846 147.02 675.846 145.544V145.274H674.46V145.508C674.46 146.318 673.812 146.714 673.182 146.714C672.552 146.714 671.922 146.318 671.922 145.526V145.274H670.518V145.544C670.518 147.02 671.796 147.848 673.182 147.848ZM669.168 158H670.842L674.784 152.564C675.072 152.132 675.522 151.52 675.576 151.358H675.612C675.612 151.502 675.558 152.132 675.558 152.564V158H677.25V148.892H675.558L671.634 154.328C671.328 154.76 670.896 155.39 670.824 155.552H670.788C670.806 155.462 670.842 154.814 670.842 154.328V148.892H669.168V158ZM684.426 158H686.172V150.386H690.132V148.892H684.426V158ZM691.862 161.6H693.608V157.46C693.608 156.992 693.536 156.668 693.536 156.668H693.572C694.202 157.64 695.246 158.216 696.398 158.216C698.792 158.216 700.52 156.344 700.52 153.446C700.52 150.62 698.99 148.676 696.524 148.676C695.192 148.676 694.04 149.288 693.464 150.386H693.428C693.428 150.386 693.482 150.08 693.482 149.702V148.892H691.862V161.6ZM693.554 153.482C693.554 151.178 694.814 150.206 696.182 150.206C697.694 150.206 698.756 151.484 698.756 153.464C698.756 155.534 697.568 156.704 696.128 156.704C694.454 156.704 693.554 155.102 693.554 153.482ZM701.916 155.516C701.916 157.226 703.374 158.216 704.958 158.216C706.308 158.216 707.424 157.406 707.946 156.362H707.982C707.982 156.362 707.928 156.668 707.928 157.082V158H709.566V152.24C709.566 149.936 708.252 148.676 705.966 148.676C704.688 148.676 703.302 149.144 702.564 149.756L703.266 151.034C704.004 150.512 704.922 150.152 705.822 150.152C706.956 150.152 707.82 150.656 707.82 152.15V152.33H707.352C705.462 152.33 701.916 152.654 701.916 155.516ZM703.662 155.372C703.662 153.698 706.074 153.59 707.37 153.59H707.82V153.932C707.82 155.282 706.902 156.83 705.372 156.83C704.238 156.83 703.662 156.092 703.662 155.372ZM711.571 153.428C711.571 156.236 713.677 158.09 716.503 158.216V161.6H718.177V158.216C721.003 158.09 723.091 156.236 723.091 153.428C723.091 150.638 721.003 148.802 718.177 148.694V145.4H716.503V148.694C713.677 148.802 711.571 150.638 711.571 153.428ZM718.177 156.758V150.134C720.031 150.242 721.381 151.448 721.381 153.428C721.381 155.39 720.031 156.632 718.177 156.758ZM713.299 153.428C713.299 151.448 714.631 150.242 716.503 150.134V156.758C714.631 156.632 713.299 155.39 713.299 153.428ZM725.207 158H726.881L730.823 152.564C731.111 152.132 731.561 151.52 731.615 151.358H731.651C731.651 151.502 731.597 152.132 731.597 152.564V158H733.289V148.892H731.597L727.673 154.328C727.367 154.76 726.935 155.39 726.863 155.552H726.827C726.845 155.462 726.881 154.814 726.881 154.328V148.892H725.207V158ZM735.965 158H737.711V154.058H739.025L741.743 158H743.813L740.411 153.266V153.23L743.453 148.892H741.473L738.989 152.564H737.711V148.892H735.965V158ZM749.87 158H751.544L755.486 152.564C755.774 152.132 756.224 151.52 756.278 151.358H756.314C756.314 151.502 756.26 152.132 756.26 152.564V158H757.952V148.892H756.26L752.336 154.328C752.03 154.76 751.598 155.39 751.526 155.552H751.49C751.508 155.462 751.544 154.814 751.544 154.328V148.892H749.87V158ZM510.35 186H512.096V178.386H516.56V186H518.306V176.892H510.35V186ZM521.002 189.6H522.748V185.46C522.748 184.992 522.676 184.668 522.676 184.668H522.712C523.342 185.64 524.386 186.216 525.538 186.216C527.932 186.216 529.66 184.344 529.66 181.446C529.66 178.62 528.13 176.676 525.664 176.676C524.332 176.676 523.18 177.288 522.604 178.386H522.568C522.568 178.386 522.622 178.08 522.622 177.702V176.892H521.002V189.6ZM522.694 181.482C522.694 179.178 523.954 178.206 525.322 178.206C526.834 178.206 527.896 179.484 527.896 181.464C527.896 183.534 526.708 184.704 525.268 184.704C523.594 184.704 522.694 183.102 522.694 181.482ZM531.219 181.446C531.219 184.146 533.199 186.216 536.061 186.216C537.321 186.216 538.707 185.73 539.589 184.92L538.851 183.642C538.131 184.29 537.141 184.704 536.169 184.704C534.531 184.704 533.127 183.642 533.037 181.68H539.661C539.697 181.428 539.733 181.176 539.733 180.942C539.733 178.602 538.365 176.676 535.791 176.676C533.199 176.676 531.219 178.548 531.219 181.446ZM533.091 180.42C533.343 178.908 534.405 178.026 535.755 178.026C536.943 178.026 537.915 178.854 537.969 180.42H533.091ZM541.832 186H543.578V178.386H548.042V186H549.788V176.892H541.832V186ZM551.891 181.428C551.891 184.2 554.087 186.216 556.805 186.216C559.505 186.216 561.701 184.2 561.701 181.428C561.701 178.674 559.505 176.676 556.787 176.676C554.087 176.676 551.891 178.674 551.891 181.428ZM553.673 181.428C553.673 179.538 555.077 178.188 556.805 178.188C558.515 178.188 559.937 179.538 559.937 181.428C559.937 183.336 558.515 184.704 556.805 184.704C555.077 184.704 553.673 183.336 553.673 181.428ZM565.359 184.56C566.511 182.76 566.655 180.168 566.655 178.8V178.314H569.391V184.56H565.359ZM562.443 184.56V188.16H564.081V186H570.831V188.16H572.433V184.56H571.137V176.892H564.981V178.566C564.981 179.97 564.837 182.814 563.559 184.56H562.443ZM573.508 183.516C573.508 185.226 574.966 186.216 576.55 186.216C577.9 186.216 579.016 185.406 579.538 184.362H579.574C579.574 184.362 579.52 184.668 579.52 185.082V186H581.158V180.24C581.158 177.936 579.844 176.676 577.558 176.676C576.28 176.676 574.894 177.144 574.156 177.756L574.858 179.034C575.596 178.512 576.514 178.152 577.414 178.152C578.548 178.152 579.412 178.656 579.412 180.15V180.33H578.944C577.054 180.33 573.508 180.654 573.508 183.516ZM575.254 183.372C575.254 181.698 577.666 181.59 578.962 181.59H579.412V181.932C579.412 183.282 578.494 184.83 576.964 184.83C575.83 184.83 575.254 184.092 575.254 183.372ZM583.739 186H587.627C589.607 186 590.975 185.1 590.975 183.408C590.975 182.4 590.381 181.518 589.247 181.248V181.23C590.075 180.87 590.543 180.114 590.543 179.232C590.543 177.702 589.337 176.892 587.501 176.892H583.739V186ZM585.485 180.744V178.098H587.141C588.239 178.098 588.761 178.53 588.761 179.358C588.761 180.204 588.239 180.744 587.195 180.744H585.485ZM585.485 184.776V181.914H587.339C588.545 181.914 589.211 182.454 589.211 183.354C589.211 184.2 588.617 184.776 587.357 184.776H585.485ZM592.334 183.516C592.334 185.226 593.792 186.216 595.376 186.216C596.726 186.216 597.842 185.406 598.364 184.362H598.4C598.4 184.362 598.346 184.668 598.346 185.082V186H599.984V180.24C599.984 177.936 598.67 176.676 596.384 176.676C595.106 176.676 593.72 177.144 592.982 177.756L593.684 179.034C594.422 178.512 595.34 178.152 596.24 178.152C597.374 178.152 598.238 178.656 598.238 180.15V180.33H597.77C595.88 180.33 592.334 180.654 592.334 183.516ZM594.08 183.372C594.08 181.698 596.492 181.59 597.788 181.59H598.238V181.932C598.238 183.282 597.32 184.83 595.79 184.83C594.656 184.83 594.08 184.092 594.08 183.372ZM604.638 186H606.366V178.386H609.552V176.892H601.47V178.386H604.638V186ZM610.373 181.446C610.373 184.146 612.353 186.216 615.215 186.216C616.475 186.216 617.861 185.73 618.743 184.92L618.005 183.642C617.285 184.29 616.295 184.704 615.323 184.704C613.685 184.704 612.281 183.642 612.191 181.68H618.815C618.851 181.428 618.887 181.176 618.887 180.942C618.887 178.602 617.519 176.676 614.945 176.676C612.353 176.676 610.373 178.548 610.373 181.446ZM612.245 180.42C612.497 178.908 613.559 178.026 614.909 178.026C616.097 178.026 617.069 178.854 617.123 180.42H612.245ZM619.997 186.09C622.679 185.946 623.723 183.822 623.723 179.7V178.332H626.405V186H628.151V176.892H622.049V179.7C622.049 182.994 621.329 184.326 619.997 184.524V186.09ZM629.93 186H631.856L634.088 182.706H635.618V186H637.364V176.892H633.728C631.802 176.892 630.47 177.882 630.47 179.754C630.47 181.14 631.406 182.112 632.45 182.4V182.418C632.45 182.418 632.234 182.652 632.036 182.976L629.93 186ZM634.106 181.428C633.044 181.428 632.234 180.87 632.234 179.736C632.234 178.566 632.99 178.098 634.16 178.098H635.618V181.428H634.106Z" fill="white"/>
<path d="M478.396 157.168C481.112 157.168 481.994 154.872 481.994 152.016C481.994 149.16 481.112 146.892 478.396 146.892C475.68 146.892 474.784 149.16 474.784 152.016C474.784 154.872 475.68 157.168 478.396 157.168ZM478.396 155.516C477.038 155.516 476.646 153.976 476.646 152.016C476.646 150.084 477.038 148.558 478.396 148.558C479.754 148.558 480.146 150.084 480.146 152.016C480.146 153.976 479.754 155.516 478.396 155.516ZM483.603 157H490.197V155.446H485.507C485.591 153.57 490.043 153.024 490.043 149.832C490.043 147.956 488.545 146.892 486.809 146.892C485.213 146.892 484.093 147.816 483.519 148.88L484.863 149.776C485.227 149.132 485.899 148.6 486.655 148.6C487.495 148.6 488.167 149.118 488.167 149.986C488.167 151.96 483.519 152.534 483.519 156.118C483.519 156.398 483.547 156.678 483.603 157Z" fill="white"/>
<path d="M510.674 87H512.42L518.09 78.756C518.54 78.054 519.152 76.902 519.152 76.902H519.188C519.188 76.902 519.08 78.036 519.08 78.756V87H520.844V74.292H519.098L513.464 82.518C513.014 83.202 512.384 84.39 512.384 84.39H512.348C512.348 84.39 512.456 83.256 512.456 82.536V74.292H510.674V87ZM523.78 87H525.526V83.094H530.134V87H531.88V77.892H530.134V81.6H525.526V77.892H523.78V87ZM536.769 87H538.497V79.386H541.683V77.892H533.601V79.386H536.769V87ZM542.504 82.446C542.504 85.146 544.484 87.216 547.346 87.216C548.606 87.216 549.992 86.73 550.874 85.92L550.136 84.642C549.416 85.29 548.426 85.704 547.454 85.704C545.816 85.704 544.412 84.642 544.322 82.68H550.946C550.982 82.428 551.018 82.176 551.018 81.942C551.018 79.602 549.65 77.676 547.076 77.676C544.484 77.676 542.504 79.548 542.504 82.446ZM544.376 81.42C544.628 79.908 545.69 79.026 547.04 79.026C548.228 79.026 549.2 79.854 549.254 81.42H544.376ZM553.118 90.6H554.864V86.46C554.864 85.992 554.792 85.668 554.792 85.668H554.828C555.458 86.64 556.502 87.216 557.654 87.216C560.048 87.216 561.776 85.344 561.776 82.446C561.776 79.62 560.246 77.676 557.78 77.676C556.448 77.676 555.296 78.288 554.72 79.386H554.684C554.684 79.386 554.738 79.08 554.738 78.702V77.892H553.118V90.6ZM554.81 82.482C554.81 80.178 556.07 79.206 557.438 79.206C558.95 79.206 560.012 80.484 560.012 82.464C560.012 84.534 558.824 85.704 557.384 85.704C555.71 85.704 554.81 84.102 554.81 82.482ZM563.172 84.516C563.172 86.226 564.63 87.216 566.214 87.216C567.564 87.216 568.68 86.406 569.202 85.362H569.238C569.238 85.362 569.184 85.668 569.184 86.082V87H570.822V81.24C570.822 78.936 569.508 77.676 567.222 77.676C565.944 77.676 564.558 78.144 563.82 78.756L564.522 80.034C565.26 79.512 566.178 79.152 567.078 79.152C568.212 79.152 569.076 79.656 569.076 81.15V81.33H568.608C566.718 81.33 563.172 81.654 563.172 84.516ZM564.918 84.372C564.918 82.698 567.33 82.59 568.626 82.59H569.076V82.932C569.076 84.282 568.158 85.83 566.628 85.83C565.494 85.83 564.918 85.092 564.918 84.372ZM573.403 87H575.149V83.058H576.463L579.181 87H581.251L577.849 82.266V82.23L580.891 77.892H578.911L576.427 81.564H575.149V77.892H573.403V87ZM585.003 87H586.731V79.386H589.917V77.892H581.835V79.386H585.003V87ZM591.631 87H593.305L597.247 81.564C597.535 81.132 597.985 80.52 598.039 80.358H598.075C598.075 80.502 598.021 81.132 598.021 81.564V87H599.713V77.892H598.021L594.097 83.328C593.791 83.76 593.359 84.39 593.287 84.552H593.251C593.269 84.462 593.305 83.814 593.305 83.328V77.892H591.631V87ZM602.389 87H606.277C608.257 87 609.625 86.1 609.625 84.408C609.625 83.4 609.031 82.518 607.897 82.248V82.23C608.725 81.87 609.193 81.114 609.193 80.232C609.193 78.702 607.987 77.892 606.151 77.892H602.389V87ZM604.135 81.744V79.098H605.791C606.889 79.098 607.411 79.53 607.411 80.358C607.411 81.204 606.889 81.744 605.845 81.744H604.135ZM604.135 85.776V82.914H605.989C607.195 82.914 607.861 83.454 607.861 84.354C607.861 85.2 607.267 85.776 606.007 85.776H604.135ZM611.741 87H613.487V83.094H618.095V87H619.841V77.892H618.095V81.6H613.487V77.892H611.741V87ZM630.778 87H632.524V77.892H630.778V87ZM622.534 87H626.044C628.33 87 629.374 85.83 629.374 84.12C629.374 82.05 627.952 81.186 626.062 81.186H624.28V77.892H622.534V87ZM624.28 85.74V82.446H625.792C627.052 82.446 627.61 83.13 627.61 84.102C627.61 85.056 627.07 85.74 625.81 85.74H624.28ZM639.239 76.848C640.643 76.848 641.903 76.02 641.903 74.544V74.274H640.517V74.508C640.517 75.318 639.869 75.714 639.239 75.714C638.609 75.714 637.979 75.318 637.979 74.526V74.274H636.575V74.544C636.575 76.02 637.853 76.848 639.239 76.848ZM635.225 87H636.899L640.841 81.564C641.129 81.132 641.579 80.52 641.633 80.358H641.669C641.669 80.502 641.615 81.132 641.615 81.564V87H643.307V77.892H641.615L637.691 83.328C637.385 83.76 636.953 84.39 636.881 84.552H636.845C636.863 84.462 636.899 83.814 636.899 83.328V77.892H635.225V87ZM649.907 82.428C649.907 85.236 652.013 87.09 654.839 87.216V90.6H656.513V87.216C659.339 87.09 661.427 85.236 661.427 82.428C661.427 79.638 659.339 77.802 656.513 77.694V74.4H654.839V77.694C652.013 77.802 649.907 79.638 649.907 82.428ZM656.513 85.758V79.134C658.367 79.242 659.717 80.448 659.717 82.428C659.717 84.39 658.367 85.632 656.513 85.758ZM651.635 82.428C651.635 80.448 652.967 79.242 654.839 79.134V85.758C652.967 85.632 651.635 84.39 651.635 82.428ZM662.949 82.428C662.949 85.2 665.145 87.216 667.863 87.216C670.563 87.216 672.759 85.2 672.759 82.428C672.759 79.674 670.563 77.676 667.845 77.676C665.145 77.676 662.949 79.674 662.949 82.428ZM664.731 82.428C664.731 80.538 666.135 79.188 667.863 79.188C669.573 79.188 670.995 80.538 670.995 82.428C670.995 84.336 669.573 85.704 667.863 85.704C666.135 85.704 664.731 84.336 664.731 82.428ZM674.864 90.6H676.61V86.46C676.61 85.992 676.538 85.668 676.538 85.668H676.574C677.204 86.64 678.248 87.216 679.4 87.216C681.794 87.216 683.522 85.344 683.522 82.446C683.522 79.62 681.992 77.676 679.526 77.676C678.194 77.676 677.042 78.288 676.466 79.386H676.43C676.43 79.386 676.484 79.08 676.484 78.702V77.892H674.864V90.6ZM676.556 82.482C676.556 80.178 677.816 79.206 679.184 79.206C680.696 79.206 681.758 80.484 681.758 82.464C681.758 84.534 680.57 85.704 679.13 85.704C677.456 85.704 676.556 84.102 676.556 82.482ZM685.296 87H686.988L687.384 81.582C687.42 81.042 687.366 80.016 687.366 80.016H687.402C687.402 80.016 687.69 80.7 687.978 81.366L690.138 85.902H691.632L693.792 81.348C694.134 80.646 694.368 80.016 694.368 80.016H694.404C694.404 80.016 694.368 81.042 694.386 81.582L694.782 87H696.474L695.682 77.892H693.774L691.398 83.04C691.164 83.598 690.894 84.264 690.894 84.264H690.858C690.858 84.264 690.606 83.58 690.354 83.04L688.032 77.892H686.088L685.296 87ZM698.067 84.516C698.067 86.226 699.525 87.216 701.109 87.216C702.459 87.216 703.575 86.406 704.097 85.362H704.133C704.133 85.362 704.079 85.668 704.079 86.082V87H705.717V81.24C705.717 78.936 704.403 77.676 702.117 77.676C700.839 77.676 699.453 78.144 698.715 78.756L699.417 80.034C700.155 79.512 701.073 79.152 701.973 79.152C703.107 79.152 703.971 79.656 703.971 81.15V81.33H703.503C701.613 81.33 698.067 81.654 698.067 84.516ZM699.813 84.372C699.813 82.698 702.225 82.59 703.521 82.59H703.971V82.932C703.971 84.282 703.053 85.83 701.523 85.83C700.389 85.83 699.813 85.092 699.813 84.372ZM710.37 87H712.098V79.386H715.284V77.892H707.202V79.386H710.37V87ZM720.904 82.428C720.904 85.2 723.1 87.216 725.818 87.216C728.518 87.216 730.714 85.2 730.714 82.428C730.714 79.674 728.518 77.676 725.8 77.676C723.1 77.676 720.904 79.674 720.904 82.428ZM722.686 82.428C722.686 80.538 724.09 79.188 725.818 79.188C727.528 79.188 728.95 80.538 728.95 82.428C728.95 84.336 727.528 85.704 725.818 85.704C724.09 85.704 722.686 84.336 722.686 82.428ZM732.423 81.762C732.423 84.912 733.809 87.216 736.887 87.216C739.461 87.216 741.189 85.416 741.189 82.896C741.189 80.322 739.605 78.702 737.319 78.702C736.113 78.702 734.907 79.098 734.097 80.322H734.061C734.187 78.576 735.051 77.514 736.869 76.686L740.361 75.228L739.785 73.788L736.527 75.192C733.359 76.524 732.423 78.504 732.423 81.762ZM734.241 82.896C734.241 81.294 735.339 80.088 736.887 80.088C738.255 80.088 739.425 81.15 739.425 82.932C739.425 84.696 738.255 85.74 736.815 85.74C735.411 85.74 734.241 84.696 734.241 82.896ZM742.511 88.89L741.899 90.222C741.899 90.222 742.637 90.78 743.645 90.78C744.923 90.78 746.057 90.06 746.597 88.638L750.881 77.892H748.991L746.777 83.868C746.615 84.336 746.471 84.948 746.471 84.948H746.435C746.435 84.948 746.273 84.3 746.093 83.85L743.807 77.892H741.845L745.661 86.892L745.211 87.936C744.869 88.764 744.275 89.286 743.555 89.286C743.015 89.286 742.511 88.89 742.511 88.89ZM755.078 83.832C755.978 83.832 756.968 83.526 757.544 83.166H757.58C757.58 83.166 757.562 83.454 757.562 83.706V87H759.308V77.892H757.562V81.672C757.184 81.942 756.446 82.32 755.546 82.32C754.052 82.32 753.728 81.51 753.728 80.61V77.892H752.018V80.862C752.018 82.806 753.134 83.832 755.078 83.832ZM761.422 82.446C761.422 85.146 763.402 87.216 766.264 87.216C767.524 87.216 768.91 86.73 769.792 85.92L769.054 84.642C768.334 85.29 767.344 85.704 766.372 85.704C764.734 85.704 763.33 84.642 763.24 82.68H769.864C769.9 82.428 769.936 82.176 769.936 81.942C769.936 79.602 768.568 77.676 765.994 77.676C763.402 77.676 761.422 79.548 761.422 82.446ZM763.294 81.42C763.546 79.908 764.608 79.026 765.958 79.026C767.146 79.026 768.118 79.854 768.172 81.42H763.294ZM772.036 87H773.782V83.094H778.39V87H780.136V77.892H778.39V81.6H773.782V77.892H772.036V87ZM782.829 87H784.503L788.445 81.564C788.733 81.132 789.183 80.52 789.237 80.358H789.273C789.273 80.502 789.219 81.132 789.219 81.564V87H790.911V77.892H789.219L785.295 83.328C784.989 83.76 784.557 84.39 784.485 84.552H784.449C784.467 84.462 784.503 83.814 784.503 83.328V77.892H782.829V87ZM792.668 87H794.594L796.826 83.706H798.356V87H800.102V77.892H796.466C794.54 77.892 793.208 78.882 793.208 80.754C793.208 82.14 794.144 83.112 795.188 83.4V83.418C795.188 83.418 794.972 83.652 794.774 83.976L792.668 87ZM796.844 82.428C795.782 82.428 794.972 81.87 794.972 80.736C794.972 79.566 795.728 79.098 796.898 79.098H798.356V82.428H796.844ZM802.707 79.746H804.543V77.892H802.707V79.746ZM802.707 87H804.543V85.146H802.707V87ZM509.882 108.556C509.882 112.3 512.744 115.216 516.416 115.216C520.088 115.216 522.932 112.3 522.932 108.556C522.932 104.902 520.088 102.076 516.416 102.076C512.744 102.076 509.882 104.902 509.882 108.556ZM511.718 108.556C511.718 105.802 513.806 103.696 516.416 103.696C519.008 103.696 521.096 105.802 521.096 108.556C521.096 111.4 519.008 113.578 516.416 113.578C513.806 113.578 511.718 111.4 511.718 108.556ZM525.063 115H526.809V111.094H531.417V115H533.163V105.892H531.417V109.6H526.809V105.892H525.063V115ZM534.866 115.09C537.548 114.946 538.592 112.822 538.592 108.7V107.332H541.274V115H543.02V105.892H536.918V108.7C536.918 111.994 536.198 113.326 534.866 113.524V115.09ZM544.961 112.516C544.961 114.226 546.419 115.216 548.003 115.216C549.353 115.216 550.469 114.406 550.991 113.362H551.027C551.027 113.362 550.973 113.668 550.973 114.082V115H552.611V109.24C552.611 106.936 551.297 105.676 549.011 105.676C547.733 105.676 546.347 106.144 545.609 106.756L546.311 108.034C547.049 107.512 547.967 107.152 548.867 107.152C550.001 107.152 550.865 107.656 550.865 109.15V109.33H550.397C548.507 109.33 544.961 109.654 544.961 112.516ZM546.707 112.372C546.707 110.698 549.119 110.59 550.415 110.59H550.865V110.932C550.865 112.282 549.947 113.83 548.417 113.83C547.283 113.83 546.707 113.092 546.707 112.372ZM559.206 104.848C560.61 104.848 561.87 104.02 561.87 102.544V102.274H560.484V102.508C560.484 103.318 559.836 103.714 559.206 103.714C558.576 103.714 557.946 103.318 557.946 102.526V102.274H556.542V102.544C556.542 104.02 557.82 104.848 559.206 104.848ZM555.192 115H556.866L560.808 109.564C561.096 109.132 561.546 108.52 561.6 108.358H561.636C561.636 108.502 561.582 109.132 561.582 109.564V115H563.274V105.892H561.582L557.658 111.328C557.352 111.76 556.92 112.39 556.848 112.552H556.812C556.83 112.462 556.866 111.814 556.866 111.328V105.892H555.192V115ZM565.95 115H567.696V111.094H572.304V115H574.05V105.892H572.304V109.6H567.696V105.892H565.95V115ZM581.189 110.572H590.639V109.168H581.189V110.572ZM597.784 115H599.53V107.386H603.49V105.892H597.784V115ZM606.122 113.56C607.274 111.76 607.418 109.168 607.418 107.8V107.314H610.154V113.56H606.122ZM603.206 113.56V117.16H604.844V115H611.594V117.16H613.196V113.56H611.9V105.892H605.744V107.566C605.744 108.97 605.6 111.814 604.322 113.56H603.206ZM614.328 110.446C614.328 113.146 616.308 115.216 619.17 115.216C620.43 115.216 621.816 114.73 622.698 113.92L621.96 112.642C621.24 113.29 620.25 113.704 619.278 113.704C617.64 113.704 616.236 112.642 616.146 110.68H622.77C622.806 110.428 622.842 110.176 622.842 109.942C622.842 107.602 621.474 105.676 618.9 105.676C616.308 105.676 614.328 107.548 614.328 110.446ZM616.2 109.42C616.452 107.908 617.514 107.026 618.864 107.026C620.052 107.026 621.024 107.854 621.078 109.42H616.2ZM629.442 115H631.116L635.058 109.564C635.346 109.132 635.796 108.52 635.85 108.358H635.886C635.886 108.502 635.832 109.132 635.832 109.564V115H637.524V105.892H635.832L631.908 111.328C631.602 111.76 631.17 112.39 631.098 112.552H631.062C631.08 112.462 631.116 111.814 631.116 111.328V105.892H629.442V115ZM644.7 115H646.446V111.058H647.76L650.478 115H652.548L649.146 110.266V110.23L652.188 105.892H650.208L647.724 109.564H646.446V105.892H644.7V115ZM653.123 110.428C653.123 113.2 655.319 115.216 658.037 115.216C660.737 115.216 662.933 113.2 662.933 110.428C662.933 107.674 660.737 105.676 658.019 105.676C655.319 105.676 653.123 107.674 653.123 110.428ZM654.905 110.428C654.905 108.538 656.309 107.188 658.037 107.188C659.747 107.188 661.169 108.538 661.169 110.428C661.169 112.336 659.747 113.704 658.037 113.704C656.309 113.704 654.905 112.336 654.905 110.428ZM665.038 115H666.784V107.386H670.744V105.892H665.038V115ZM673.376 113.56C674.528 111.76 674.672 109.168 674.672 107.8V107.314H677.408V113.56H673.376ZM670.46 113.56V117.16H672.098V115H678.848V117.16H680.45V113.56H679.154V105.892H672.998V107.566C672.998 108.97 672.854 111.814 671.576 113.56H670.46ZM681.526 112.516C681.526 114.226 682.984 115.216 684.568 115.216C685.918 115.216 687.034 114.406 687.556 113.362H687.592C687.592 113.362 687.538 113.668 687.538 114.082V115H689.176V109.24C689.176 106.936 687.862 105.676 685.576 105.676C684.298 105.676 682.912 106.144 682.174 106.756L682.876 108.034C683.614 107.512 684.532 107.152 685.432 107.152C686.566 107.152 687.43 107.656 687.43 109.15V109.33H686.962C685.072 109.33 681.526 109.654 681.526 112.516ZM683.272 112.372C683.272 110.698 685.684 110.59 686.98 110.59H687.43V110.932C687.43 112.282 686.512 113.83 684.982 113.83C683.848 113.83 683.272 113.092 683.272 112.372ZM695.806 116.89L695.194 118.222C695.194 118.222 695.932 118.78 696.94 118.78C698.218 118.78 699.352 118.06 699.892 116.638L704.176 105.892H702.286L700.072 111.868C699.91 112.336 699.766 112.948 699.766 112.948H699.73C699.73 112.948 699.568 112.3 699.388 111.85L697.102 105.892H695.14L698.956 114.892L698.506 115.936C698.164 116.764 697.57 117.286 696.85 117.286C696.31 117.286 695.806 116.89 695.806 116.89ZM705.889 115H707.635V107.386H711.595V105.892H705.889V115ZM712.397 110.428C712.397 113.2 714.593 115.216 717.311 115.216C720.011 115.216 722.207 113.2 722.207 110.428C722.207 107.674 720.011 105.676 717.293 105.676C714.593 105.676 712.397 107.674 712.397 110.428ZM714.179 110.428C714.179 108.538 715.583 107.188 717.311 107.188C719.021 107.188 720.443 108.538 720.443 110.428C720.443 112.336 719.021 113.704 717.311 113.704C715.583 113.704 714.179 112.336 714.179 110.428ZM725.864 113.56C727.016 111.76 727.16 109.168 727.16 107.8V107.314H729.896V113.56H725.864ZM722.948 113.56V117.16H724.586V115H731.336V117.16H732.938V113.56H731.642V105.892H725.486V107.566C725.486 108.97 725.342 111.814 724.064 113.56H722.948ZM734.77 115H736.516V111.094H741.124V115H742.87V105.892H741.124V109.6H736.516V105.892H734.77V115ZM744.969 110.428C744.969 113.2 747.165 115.216 749.883 115.216C752.583 115.216 754.779 113.2 754.779 110.428C754.779 107.674 752.583 105.676 749.865 105.676C747.165 105.676 744.969 107.674 744.969 110.428ZM746.751 110.428C746.751 108.538 748.155 107.188 749.883 107.188C751.593 107.188 753.015 108.538 753.015 110.428C753.015 112.336 751.593 113.704 749.883 113.704C748.155 113.704 746.751 112.336 746.751 110.428Z" fill="white"/>
<path d="M478.396 86.168C481.112 86.168 481.994 83.872 481.994 81.016C481.994 78.16 481.112 75.892 478.396 75.892C475.68 75.892 474.784 78.16 474.784 81.016C474.784 83.872 475.68 86.168 478.396 86.168ZM478.396 84.516C477.038 84.516 476.646 82.976 476.646 81.016C476.646 79.084 477.038 77.558 478.396 77.558C479.754 77.558 480.146 79.084 480.146 81.016C480.146 82.976 479.754 84.516 478.396 84.516ZM483.575 86H489.651V84.446H487.495V76.06H485.913L483.421 78.454L484.485 79.574L485.283 78.818C485.605 78.496 485.731 78.258 485.731 78.258H485.759C485.759 78.258 485.745 78.594 485.745 78.93V84.446H483.575V86Z" fill="white"/>
<path d="M510.674 229H512.456V217.84H517.676V216.292H510.674V229ZM516.401 224.428C516.401 227.2 518.597 229.216 521.315 229.216C524.015 229.216 526.211 227.2 526.211 224.428C526.211 221.674 524.015 219.676 521.297 219.676C518.597 219.676 516.401 221.674 516.401 224.428ZM518.183 224.428C518.183 222.538 519.587 221.188 521.315 221.188C523.025 221.188 524.447 222.538 524.447 224.428C524.447 226.336 523.025 227.704 521.315 227.704C519.587 227.704 518.183 226.336 518.183 224.428ZM530.212 229H531.94V221.386H535.126V219.892H527.044V221.386H530.212V229ZM535.947 224.428C535.947 227.2 538.143 229.216 540.861 229.216C543.561 229.216 545.757 227.2 545.757 224.428C545.757 221.674 543.561 219.676 540.843 219.676C538.143 219.676 535.947 221.674 535.947 224.428ZM537.729 224.428C537.729 222.538 539.133 221.188 540.861 221.188C542.571 221.188 543.993 222.538 543.993 224.428C543.993 226.336 542.571 227.704 540.861 227.704C539.133 227.704 537.729 226.336 537.729 224.428ZM547.862 229H551.75C553.73 229 555.098 228.1 555.098 226.408C555.098 225.4 554.504 224.518 553.37 224.248V224.23C554.198 223.87 554.666 223.114 554.666 222.232C554.666 220.702 553.46 219.892 551.624 219.892H547.862V229ZM549.608 223.744V221.098H551.264C552.362 221.098 552.884 221.53 552.884 222.358C552.884 223.204 552.362 223.744 551.318 223.744H549.608ZM549.608 227.776V224.914H551.462C552.668 224.914 553.334 225.454 553.334 226.354C553.334 227.2 552.74 227.776 551.48 227.776H549.608ZM565.457 229H567.203V219.892H565.457V229ZM557.213 229H560.723C563.009 229 564.053 227.83 564.053 226.12C564.053 224.05 562.631 223.186 560.741 223.186H558.959V219.892H557.213V229ZM558.959 227.74V224.446H560.471C561.731 224.446 562.289 225.13 562.289 226.102C562.289 227.056 561.749 227.74 560.489 227.74H558.959ZM569.311 224.446C569.311 227.146 571.291 229.216 574.153 229.216C575.413 229.216 576.799 228.73 577.681 227.92L576.943 226.642C576.223 227.29 575.233 227.704 574.261 227.704C572.623 227.704 571.219 226.642 571.129 224.68H577.753C577.789 224.428 577.825 224.176 577.825 223.942C577.825 221.602 576.457 219.676 573.883 219.676C571.291 219.676 569.311 221.548 569.311 224.446ZM571.183 223.42C571.435 221.908 572.497 221.026 573.847 221.026C575.035 221.026 576.007 221.854 576.061 223.42H571.183ZM583.848 224.428C583.848 227.236 585.954 229.09 588.78 229.216V232.6H590.454V229.216C593.28 229.09 595.368 227.236 595.368 224.428C595.368 221.638 593.28 219.802 590.454 219.694V216.4H588.78V219.694C585.954 219.802 583.848 221.638 583.848 224.428ZM590.454 227.758V221.134C592.308 221.242 593.658 222.448 593.658 224.428C593.658 226.39 592.308 227.632 590.454 227.758ZM585.576 224.428C585.576 222.448 586.908 221.242 588.78 221.134V227.758C586.908 227.632 585.576 226.39 585.576 224.428ZM596.891 224.428C596.891 227.2 599.087 229.216 601.805 229.216C604.505 229.216 606.701 227.2 606.701 224.428C606.701 221.674 604.505 219.676 601.787 219.676C599.087 219.676 596.891 221.674 596.891 224.428ZM598.673 224.428C598.673 222.538 600.077 221.188 601.805 221.188C603.515 221.188 604.937 222.538 604.937 224.428C604.937 226.336 603.515 227.704 601.805 227.704C600.077 227.704 598.673 226.336 598.673 224.428ZM608.805 232.6H610.551V228.46C610.551 227.992 610.479 227.668 610.479 227.668H610.515C611.145 228.64 612.189 229.216 613.341 229.216C615.735 229.216 617.463 227.344 617.463 224.446C617.463 221.62 615.933 219.676 613.467 219.676C612.135 219.676 610.983 220.288 610.407 221.386H610.371C610.371 221.386 610.425 221.08 610.425 220.702V219.892H608.805V232.6ZM610.497 224.482C610.497 222.178 611.757 221.206 613.125 221.206C614.637 221.206 615.699 222.484 615.699 224.464C615.699 226.534 614.511 227.704 613.071 227.704C611.397 227.704 610.497 226.102 610.497 224.482ZM619.238 229H620.93L621.326 223.582C621.362 223.042 621.308 222.016 621.308 222.016H621.344C621.344 222.016 621.632 222.7 621.92 223.366L624.08 227.902H625.574L627.734 223.348C628.076 222.646 628.31 222.016 628.31 222.016H628.346C628.346 222.016 628.31 223.042 628.328 223.582L628.724 229H630.416L629.624 219.892H627.716L625.34 225.04C625.106 225.598 624.836 226.264 624.836 226.264H624.8C624.8 226.264 624.548 225.58 624.296 225.04L621.974 219.892H620.03L619.238 229ZM632.173 230.89L631.561 232.222C631.561 232.222 632.299 232.78 633.307 232.78C634.585 232.78 635.719 232.06 636.259 230.638L640.543 219.892H638.653L636.439 225.868C636.277 226.336 636.133 226.948 636.133 226.948H636.097C636.097 226.948 635.935 226.3 635.755 225.85L633.469 219.892H631.507L635.323 228.892L634.873 229.936C634.531 230.764 633.937 231.286 633.217 231.286C632.677 231.286 632.173 230.89 632.173 230.89ZM640.686 229.09C643.368 228.946 644.412 226.822 644.412 222.7V221.332H647.094V229H648.84V219.892H642.738V222.7C642.738 225.994 642.018 227.326 640.686 227.524V229.09ZM659.782 229H661.528V219.892H659.782V229ZM651.538 229H655.048C657.334 229 658.378 227.83 658.378 226.12C658.378 224.05 656.956 223.186 655.066 223.186H653.284V219.892H651.538V229ZM653.284 227.74V224.446H654.796C656.056 224.446 656.614 225.13 656.614 226.102C656.614 227.056 656.074 227.74 654.813 227.74H653.284ZM668.729 229H670.403L674.345 223.564C674.633 223.132 675.083 222.52 675.137 222.358H675.173C675.173 222.502 675.119 223.132 675.119 223.564V229H676.811V219.892H675.119L671.195 225.328C670.889 225.76 670.457 226.39 670.385 226.552H670.349C670.367 226.462 670.403 225.814 670.403 225.328V219.892H668.729V229ZM509.9 258.89L509.288 260.222C509.288 260.222 510.026 260.78 511.034 260.78C512.312 260.78 513.446 260.06 513.986 258.638L518.27 247.892H516.38L514.166 253.868C514.004 254.336 513.86 254.948 513.86 254.948H513.824C513.824 254.948 513.662 254.3 513.482 253.85L511.196 247.892H509.234L513.05 256.892L512.6 257.936C512.258 258.764 511.664 259.286 510.944 259.286C510.404 259.286 509.9 258.89 509.9 258.89ZM519.983 257H523.871C525.851 257 527.219 256.1 527.219 254.408C527.219 253.4 526.625 252.518 525.491 252.248V252.23C526.319 251.87 526.787 251.114 526.787 250.232C526.787 248.702 525.581 247.892 523.745 247.892H519.983V257ZM521.729 251.744V249.098H523.385C524.483 249.098 525.005 249.53 525.005 250.358C525.005 251.204 524.483 251.744 523.439 251.744H521.729ZM521.729 255.776V252.914H523.583C524.789 252.914 525.455 253.454 525.455 254.354C525.455 255.2 524.861 255.776 523.601 255.776H521.729ZM528.344 257.09C531.026 256.946 532.07 254.822 532.07 250.7V249.332H534.752V257H536.498V247.892H530.396V250.7C530.396 253.994 529.676 255.326 528.344 255.524V257.09ZM538.602 252.446C538.602 255.146 540.582 257.216 543.444 257.216C544.704 257.216 546.09 256.73 546.972 255.92L546.234 254.642C545.514 255.29 544.524 255.704 543.552 255.704C541.914 255.704 540.51 254.642 540.42 252.68H547.044C547.08 252.428 547.116 252.176 547.116 251.942C547.116 249.602 545.748 247.676 543.174 247.676C540.582 247.676 538.602 249.548 538.602 252.446ZM540.474 251.42C540.726 249.908 541.788 249.026 543.138 249.026C544.326 249.026 545.298 249.854 545.352 251.42H540.474ZM549.215 257H550.961V253.058H552.275L554.993 257H557.063L553.661 252.266V252.23L556.703 247.892H554.723L552.239 251.564H550.961V247.892H549.215V257ZM557.776 254.516C557.776 256.226 559.234 257.216 560.818 257.216C562.168 257.216 563.284 256.406 563.806 255.362H563.842C563.842 255.362 563.788 255.668 563.788 256.082V257H565.426V251.24C565.426 248.936 564.112 247.676 561.826 247.676C560.548 247.676 559.162 248.144 558.424 248.756L559.126 250.034C559.864 249.512 560.782 249.152 561.682 249.152C562.816 249.152 563.68 249.656 563.68 251.15V251.33H563.212C561.322 251.33 557.776 251.654 557.776 254.516ZM559.522 254.372C559.522 252.698 561.934 252.59 563.23 252.59H563.68V252.932C563.68 254.282 562.762 255.83 561.232 255.83C560.098 255.83 559.522 255.092 559.522 254.372ZM570.079 257H571.807V249.386H574.993V247.892H566.911V249.386H570.079V257ZM575.815 252.446C575.815 255.146 577.795 257.216 580.657 257.216C581.917 257.216 583.303 256.73 584.185 255.92L583.447 254.642C582.727 255.29 581.737 255.704 580.765 255.704C579.127 255.704 577.723 254.642 577.633 252.68H584.257C584.293 252.428 584.329 252.176 584.329 251.942C584.329 249.602 582.961 247.676 580.387 247.676C577.795 247.676 575.815 249.548 575.815 252.446ZM577.687 251.42C577.939 249.908 579.001 249.026 580.351 249.026C581.539 249.026 582.511 249.854 582.565 251.42H577.687ZM585.438 257.09C588.12 256.946 589.164 254.822 589.164 250.7V249.332H591.846V257H593.592V247.892H587.49V250.7C587.49 253.994 586.77 255.326 585.438 255.524V257.09ZM596.289 257H599.835C602.139 257 603.183 255.83 603.183 254.12C603.183 252.05 601.761 251.186 599.871 251.186H598.035V247.892H596.289V257ZM598.035 255.74V252.446H599.601C600.861 252.446 601.401 253.13 601.401 254.102C601.401 255.056 600.861 255.74 599.601 255.74H598.035ZM605.061 257H606.807V253.094H611.415V257H613.161V247.892H611.415V251.6H606.807V247.892H605.061V257ZM624.098 257H625.844V247.892H624.098V257ZM615.854 257H619.364C621.65 257 622.694 255.83 622.694 254.12C622.694 252.05 621.272 251.186 619.382 251.186H617.6V247.892H615.854V257ZM617.6 255.74V252.446H619.112C620.372 252.446 620.93 253.13 620.93 254.102C620.93 255.056 620.39 255.74 619.13 255.74H617.6ZM627.951 252.446C627.951 255.146 629.931 257.216 632.793 257.216C634.053 257.216 635.439 256.73 636.321 255.92L635.583 254.642C634.863 255.29 633.873 255.704 632.901 255.704C631.263 255.704 629.859 254.642 629.769 252.68H636.393C636.429 252.428 636.465 252.176 636.465 251.942C636.465 249.602 635.097 247.676 632.523 247.676C629.931 247.676 627.951 249.548 627.951 252.446ZM629.823 251.42C630.075 249.908 631.137 249.026 632.487 249.026C633.675 249.026 634.647 249.854 634.701 251.42H629.823ZM642.183 255.884C642.939 256.604 644.127 257.216 645.531 257.216C647.403 257.216 649.023 256.262 649.023 254.39C649.023 253.22 648.303 252.536 647.385 252.248V252.212C648.105 251.906 648.717 251.276 648.717 250.142C648.717 248.522 647.367 247.676 645.639 247.676C644.199 247.676 643.173 248.144 642.471 248.666L643.119 249.836C643.821 249.314 644.541 249.044 645.333 249.044C646.341 249.044 646.953 249.512 646.953 250.358C646.953 251.276 646.251 251.672 645.225 251.672H644.271V252.932H645.387C646.665 252.932 647.259 253.436 647.259 254.318C647.259 255.308 646.413 255.812 645.369 255.812C644.271 255.812 643.407 255.164 642.993 254.732L642.183 255.884ZM650.377 254.516C650.377 256.226 651.835 257.216 653.419 257.216C654.769 257.216 655.885 256.406 656.407 255.362H656.443C656.443 255.362 656.389 255.668 656.389 256.082V257H658.027V251.24C658.027 248.936 656.713 247.676 654.427 247.676C653.149 247.676 651.763 248.144 651.025 248.756L651.727 250.034C652.465 249.512 653.383 249.152 654.283 249.152C655.417 249.152 656.281 249.656 656.281 251.15V251.33H655.813C653.923 251.33 650.377 251.654 650.377 254.516ZM652.123 254.372C652.123 252.698 654.535 252.59 655.831 252.59H656.281V252.932C656.281 254.282 655.363 255.83 653.833 255.83C652.699 255.83 652.123 255.092 652.123 254.372ZM662.39 255.56C663.542 253.76 663.686 251.168 663.686 249.8V249.314H666.422V255.56H662.39ZM659.474 255.56V259.16H661.112V257H667.862V259.16H669.464V255.56H668.168V247.892H662.012V249.566C662.012 250.97 661.868 253.814 660.59 255.56H659.474ZM670.539 254.516C670.539 256.226 671.997 257.216 673.581 257.216C674.931 257.216 676.047 256.406 676.569 255.362H676.605C676.605 255.362 676.551 255.668 676.551 256.082V257H678.189V251.24C678.189 248.936 676.875 247.676 674.589 247.676C673.311 247.676 671.925 248.144 671.187 248.756L671.889 250.034C672.627 249.512 673.545 249.152 674.445 249.152C675.579 249.152 676.443 249.656 676.443 251.15V251.33H675.975C674.085 251.33 670.539 251.654 670.539 254.516ZM672.285 254.372C672.285 252.698 674.697 252.59 675.993 252.59H676.443V252.932C676.443 254.282 675.525 255.83 673.995 255.83C672.861 255.83 672.285 255.092 672.285 254.372ZM683.254 253.832C684.154 253.832 685.144 253.526 685.72 253.166H685.756C685.756 253.166 685.738 253.454 685.738 253.706V257H687.484V247.892H685.738V251.672C685.36 251.942 684.622 252.32 683.722 252.32C682.228 252.32 681.904 251.51 681.904 250.61V247.892H680.194V250.862C680.194 252.806 681.31 253.832 683.254 253.832ZM690.192 257H691.866L695.808 251.564C696.096 251.132 696.546 250.52 696.6 250.358H696.636C696.636 250.502 696.582 251.132 696.582 251.564V257H698.274V247.892H696.582L692.658 253.328C692.352 253.76 691.92 254.39 691.848 254.552H691.812C691.83 254.462 691.866 253.814 691.866 253.328V247.892H690.192V257Z" fill="white"/>
<path d="M478.396 228.168C481.112 228.168 481.994 225.872 481.994 223.016C481.994 220.16 481.112 217.892 478.396 217.892C475.68 217.892 474.784 220.16 474.784 223.016C474.784 225.872 475.68 228.168 478.396 228.168ZM478.396 226.516C477.038 226.516 476.646 224.976 476.646 223.016C476.646 221.084 477.038 219.558 478.396 219.558C479.754 219.558 480.146 221.084 480.146 223.016C480.146 224.976 479.754 226.516 478.396 226.516ZM483.323 226.838C484.191 227.72 485.437 228.168 486.613 228.168C488.839 228.168 490.113 226.6 490.113 224.906C490.113 223.184 488.783 222.204 487.411 222.008L489.833 219.194V218.06H483.771V219.614H486.739C487.313 219.614 487.621 219.572 487.621 219.572V219.6C487.621 219.6 487.285 219.894 486.907 220.356L485.087 222.512L485.479 223.436H486.165C487.341 223.436 488.293 223.926 488.293 224.976C488.293 225.83 487.537 226.46 486.515 226.46C485.633 226.46 484.779 225.998 484.247 225.452L483.323 226.838Z" fill="white"/>
</svg>
