<svg width="694" height="226" viewBox="0 0 694 226" fill="none" xmlns="http://www.w3.org/2000/svg">
<path d="M12.3613 212H20.3593V174.862H40.0133V212H48.0113V167.98H12.3613V212ZM54.9756 196.19C54.9756 205.924 62.7256 212.744 72.3356 212.744C81.9456 212.744 89.6956 205.924 89.6956 196.19C89.6956 186.518 81.9456 179.636 72.2736 179.636C62.7256 179.636 54.9756 186.518 54.9756 196.19ZM62.9736 196.19C62.9736 190.362 67.1896 186.332 72.3356 186.332C77.4816 186.332 81.7596 190.362 81.7596 196.19C81.7596 202.08 77.4816 206.048 72.3356 206.048C67.1896 206.048 62.9736 202.08 62.9736 196.19ZM104.997 201.522C108.407 201.522 111.631 200.53 113.553 199.476H113.677C113.677 199.476 113.615 200.406 113.615 201.212V212H121.427V180.38H113.615V192.966C112.375 193.834 110.205 194.95 107.477 194.95C103.323 194.95 102.083 192.656 102.083 189.68V180.38H94.3326V190.982C94.3326 198.36 98.9206 201.522 104.997 201.522ZM127.995 196.19C127.995 205.18 134.567 212.744 145.045 212.744C149.571 212.744 154.531 211.07 157.755 208.218L154.655 202.576C152.113 204.622 148.827 206.048 145.603 206.048C140.829 206.048 136.613 203.196 136.117 197.678H157.879C158.003 196.686 158.127 195.632 158.127 194.64C158.127 186.27 153.167 179.636 144.115 179.636C134.629 179.636 127.995 186.456 127.995 196.19ZM136.303 192.284C137.047 188.254 139.899 185.588 143.929 185.588C147.463 185.588 150.191 188.068 150.253 192.284H136.303ZM163.369 212H170.933L172.049 194.888C172.173 192.78 171.987 189.494 171.987 189.494H172.111C172.111 189.494 173.165 191.974 174.033 194.144L180.233 208.032H186.743L192.943 194.082C193.935 191.85 194.803 189.494 194.803 189.494H194.927C194.927 189.494 194.803 192.78 194.865 194.888L195.981 212H203.545L200.693 180.38H191.889L185.069 196.686C184.387 198.484 183.519 200.716 183.519 200.716H183.395C183.395 200.716 182.589 198.422 181.845 196.686L175.149 180.38H166.221L163.369 212ZM209.396 217.084L206.792 222.974C206.792 222.974 209.582 225.02 213.364 225.02C218.014 225.02 222.602 222.54 224.772 216.774L238.846 180.38H230.29L224.09 198.732C223.594 200.406 223.036 202.886 223.036 202.886H222.912C222.912 202.886 222.354 200.282 221.734 198.608L215.1 180.38H206.234L219.564 211.504L218.386 214.294C217.208 217.084 215.038 218.386 212.868 218.386C211.132 218.386 209.396 217.084 209.396 217.084ZM259.487 212H267.361V199.228H280.877V212H288.751V180.38H280.877V192.594H267.361V180.38H259.487V212ZM294.79 203.258C294.79 209.024 299.502 212.744 305.206 212.744C309.484 212.744 313.266 210.388 315.188 207.04H315.312C315.312 207.04 315.126 208.032 315.126 209.334V212H322.442V192.222C322.442 184.224 317.544 179.636 309.298 179.636C304.586 179.636 299.502 181.434 296.898 183.542L299.812 189.184C302.354 187.448 305.516 186.146 308.616 186.146C311.902 186.146 314.568 187.572 314.568 191.726V192.16H313.204C306.198 192.16 294.79 193.772 294.79 203.258ZM302.602 202.576C302.602 198.112 309.298 197.554 313.266 197.554H314.63V198.422C314.63 202.266 311.778 206.73 307.376 206.73C304.214 206.73 302.602 204.684 302.602 202.576ZM329.146 212H336.71L337.826 194.888C337.95 192.78 337.764 189.494 337.764 189.494H337.888C337.888 189.494 338.942 191.974 339.81 194.144L346.01 208.032H352.52L358.72 194.082C359.712 191.85 360.58 189.494 360.58 189.494H360.704C360.704 189.494 360.58 192.78 360.642 194.888L361.758 212H369.322L366.47 180.38H357.666L350.846 196.686C350.164 198.484 349.296 200.716 349.296 200.716H349.172C349.172 200.716 348.366 198.422 347.622 196.686L340.926 180.38H331.998L329.146 212ZM400.395 205.676C403.681 200.22 404.239 192.966 404.239 188.192V186.704H412.113V205.676H400.395ZM388.615 205.676V219.44H395.931V212H417.383V219.44H424.513V205.676H419.987V180.38H396.737V186.952C396.737 192.408 395.993 200.592 392.521 205.676H388.615ZM427.944 196.19C427.944 205.924 435.694 212.744 445.304 212.744C454.914 212.744 462.664 205.924 462.664 196.19C462.664 186.518 454.914 179.636 445.242 179.636C435.694 179.636 427.944 186.518 427.944 196.19ZM435.942 196.19C435.942 190.362 440.158 186.332 445.304 186.332C450.45 186.332 454.728 190.362 454.728 196.19C454.728 202.08 450.45 206.048 445.304 206.048C440.158 206.048 435.942 202.08 435.942 196.19ZM469.161 212H484.165C490.799 212 495.945 209.148 495.945 202.824C495.945 199.662 494.147 196.562 490.365 195.57V195.508C493.031 194.206 494.519 191.478 494.519 188.564C494.519 183.232 490.241 180.38 483.855 180.38H469.161V212ZM477.035 193.4V185.526H482.057C485.157 185.526 486.583 186.952 486.583 189.246C486.583 191.664 485.157 193.4 482.181 193.4H477.035ZM477.035 206.792V198.298H482.801C486.211 198.298 488.009 200.034 488.009 202.576C488.009 204.994 486.335 206.792 482.801 206.792H477.035ZM500.601 196.19C500.601 205.18 507.173 212.744 517.651 212.744C522.177 212.744 527.137 211.07 530.361 208.218L527.261 202.576C524.719 204.622 521.433 206.048 518.209 206.048C513.435 206.048 509.219 203.196 508.723 197.678H530.485C530.609 196.686 530.733 195.632 530.733 194.64C530.733 186.27 525.773 179.636 516.721 179.636C507.235 179.636 500.601 186.456 500.601 196.19ZM508.909 192.284C509.653 188.254 512.505 185.588 516.535 185.588C520.069 185.588 522.797 188.068 522.859 192.284H508.909ZM537.277 224.4H545.151V211.008C545.151 209.396 544.965 208.28 544.965 208.28H545.089C547.321 211.132 550.607 212.744 554.203 212.744C562.511 212.744 568.649 206.234 568.649 196.19C568.649 186.394 563.193 179.636 554.637 179.636C550.359 179.636 546.515 181.558 544.469 184.968H544.345C544.345 184.968 544.469 183.914 544.469 182.736V180.38H537.277V224.4ZM544.903 196.376C544.903 189.37 548.747 186.394 552.901 186.394C557.489 186.394 560.713 190.3 560.713 196.314C560.713 202.576 557.117 206.11 552.777 206.11C547.631 206.11 544.903 201.274 544.903 196.376ZM572.261 212H580.755L587.823 201.274H591.915V212H599.789V180.38H585.591C578.771 180.38 574.245 184.1 574.245 190.61C574.245 195.136 577.097 198.608 580.631 199.91V199.972C580.631 199.972 579.949 200.716 579.205 201.894L572.261 212ZM587.761 195.818C584.537 195.818 582.119 194.144 582.119 190.548C582.119 186.952 584.413 185.526 587.823 185.526H591.915V195.818H587.761ZM608.237 212H616.111V199.29H621.257C622.621 207.288 629.255 212.744 637.687 212.744C647.049 212.744 654.489 205.924 654.489 196.19C654.489 186.518 647.049 179.636 637.625 179.636C629.379 179.636 622.745 185.03 621.319 192.904H616.111V180.38H608.237V212ZM628.821 196.19C628.821 190.362 632.727 186.332 637.687 186.332C642.585 186.332 646.491 190.362 646.491 196.19C646.491 202.08 642.585 206.048 637.687 206.048C632.727 206.048 628.821 202.08 628.821 196.19ZM667.565 212H675.377V187.076H685.855V180.38H657.149V187.076H667.565V212Z" fill="#222224"/>
<path d="M274.89 57.4782C276.612 54.0302 277.586 51.0269 277.066 50.7703C276.545 50.5136 274.727 53.1008 273.005 56.5489C271.283 59.997 270.309 63.0003 270.829 63.2569C271.35 63.5135 273.168 60.9263 274.89 57.4782Z" fill="#E0E0E0"/>
<path d="M362.249 100.58C363.971 97.1324 365.08 94.1958 364.726 94.0215C364.373 93.8471 362.69 96.501 360.968 99.9491C359.246 103.397 358.136 106.334 358.49 106.508C358.844 106.682 360.527 104.029 362.249 100.58Z" fill="#E0E0E0"/>
<path d="M315.304 83.1491L312.059 80.4866L303.125 91.235L306.371 93.8976L315.304 83.1491Z" fill="#F55F44"/>
<path opacity="0.05" d="M307.841 94.7551L312.451 95.832L315.663 82.2629L311.052 81.186L307.841 94.7551Z" fill="black"/>
<path d="M308.354 94.8749L312.451 95.832L315.663 82.2629L311.565 81.3058L308.354 94.8749Z" fill="#F55F44"/>
<path d="M277.222 50.4581L270.674 63.5691L358.342 106.783L364.89 93.6717L277.222 50.4581Z" fill="url(#paint0_linear)"/>
<path d="M358.498 106.47C356.782 105.653 269.573 62.6373 270.83 63.2569C275.67 55.9174 277.066 50.7703 277.066 50.7703L364.734 93.9838C364.734 93.9838 361.655 99.3515 358.498 106.47Z" fill="#F5F5F5"/>
<path opacity="0.05" d="M322.629 73.2289L315.402 69.6665L309.166 82.1531L316.393 85.7155L322.629 73.2289Z" fill="black"/>
<path d="M322.314 73.0742L315.715 69.8215L309.479 82.3081L316.077 85.5608L322.314 73.0742Z" fill="#F55F44"/>
<path opacity="0.05" d="M321.057 72.4546L316.658 70.2861L310.422 82.7728L314.821 84.9412L321.057 72.4546Z" fill="black"/>
<path d="M320.743 72.2996L316.973 70.4409L310.736 82.9276L314.507 84.7862L320.743 72.2996Z" fill="#F55F44"/>
<path d="M320.235 112.573C320.558 112.573 320.82 112.313 320.82 111.992C320.82 111.671 320.558 111.411 320.235 111.411C319.912 111.411 319.65 111.671 319.65 111.992C319.65 112.313 319.912 112.573 320.235 112.573Z" fill="#DBDBDB"/>
<g opacity="0.5">
<path opacity="0.5" d="M274.475 95.7219H273.875V99.098H274.475V95.7219Z" fill="#47E6B1"/>
<path opacity="0.5" d="M275.875 97.7078V97.1121H272.477V97.7078H275.875Z" fill="#47E6B1"/>
</g>
<g opacity="0.5">
<path opacity="0.5" d="M425.6 53.6201H425V56.9962H425.6V53.6201Z" fill="#47E6B1"/>
<path opacity="0.5" d="M427 55.606V55.0103H423.602V55.606H427Z" fill="#47E6B1"/>
</g>
<g opacity="0.5">
<path opacity="0.5" d="M278.072 11.717H277.473V15.0931H278.072V11.717Z" fill="#47E6B1"/>
<path opacity="0.5" d="M279.473 13.703V13.1072H276.074V13.703H279.473Z" fill="#47E6B1"/>
</g>
<g opacity="0.5">
<path opacity="0.5" d="M407.609 6.55347H407.01V9.92955H407.609V6.55347Z" fill="#47E6B1"/>
<path opacity="0.5" d="M409.01 8.53938V7.9436H405.611V8.53938H409.01Z" fill="#47E6B1"/>
</g>
<path opacity="0.5" d="M270.458 50.3347C270.292 50.2632 270.159 50.1338 270.084 49.9712C270.008 49.8085 269.996 49.624 270.048 49.4527C270.057 49.4265 270.062 49.3993 270.064 49.3718C270.069 49.2933 270.048 49.2154 270.005 49.1496C269.962 49.0837 269.898 49.0335 269.824 49.0063C269.75 48.979 269.669 48.9763 269.593 48.9985C269.517 49.0206 269.45 49.0665 269.403 49.1293C269.386 49.1516 269.373 49.1757 269.362 49.2011C269.29 49.3653 269.16 49.4975 268.996 49.5725C268.832 49.6474 268.647 49.66 268.474 49.6077C268.448 49.5993 268.42 49.594 268.393 49.5919C268.314 49.5871 268.235 49.6077 268.169 49.6507C268.103 49.6937 268.052 49.7567 268.025 49.8305C267.997 49.9043 267.995 49.9848 268.017 50.0603C268.039 50.1357 268.085 50.202 268.149 50.2493C268.171 50.2656 268.195 50.2792 268.221 50.2898C268.386 50.3613 268.519 50.4907 268.595 50.6533C268.67 50.816 268.683 51.0005 268.63 51.1718C268.622 51.198 268.616 51.2252 268.614 51.2527C268.609 51.3312 268.63 51.4091 268.673 51.4749C268.717 51.5408 268.78 51.591 268.854 51.6182C268.929 51.6455 269.01 51.6482 269.086 51.626C269.162 51.6039 269.228 51.558 269.276 51.4952C269.292 51.4729 269.306 51.4488 269.317 51.4234C269.389 51.2592 269.519 51.127 269.683 51.052C269.846 50.9771 270.032 50.9645 270.204 51.0168C270.231 51.0252 270.258 51.0305 270.286 51.0326C270.365 51.0374 270.443 51.0168 270.51 50.9738C270.576 50.9308 270.626 50.8678 270.654 50.794C270.681 50.7203 270.684 50.6397 270.662 50.5642C270.639 50.4888 270.593 50.4225 270.53 50.3752C270.508 50.3589 270.483 50.3453 270.458 50.3347Z" fill="#4D8AF0"/>
<path opacity="0.5" d="M304.841 11.2116C304.675 11.1401 304.542 11.0108 304.467 10.8481C304.391 10.6855 304.379 10.501 304.431 10.3297C304.44 10.3034 304.445 10.2763 304.447 10.2488C304.452 10.1703 304.431 10.0923 304.388 10.0265C304.345 9.96067 304.281 9.91042 304.207 9.88321C304.133 9.856 304.052 9.85327 303.976 9.87543C303.9 9.89759 303.833 9.94345 303.785 10.0062C303.769 10.0285 303.755 10.0526 303.745 10.0781C303.673 10.2423 303.542 10.3744 303.379 10.4494C303.215 10.5244 303.029 10.5369 302.857 10.4847C302.831 10.4762 302.803 10.4709 302.775 10.4688C302.696 10.4641 302.618 10.4847 302.552 10.5277C302.485 10.5706 302.435 10.6337 302.408 10.7074C302.38 10.7812 302.377 10.8618 302.4 10.9372C302.422 11.0126 302.468 11.0789 302.531 11.1263C302.554 11.1425 302.578 11.1561 302.604 11.1668C302.769 11.2383 302.902 11.3676 302.977 11.5303C303.053 11.6929 303.066 11.8774 303.013 12.0487C303.004 12.075 302.999 12.1021 302.997 12.1296C302.992 12.2081 303.013 12.2861 303.056 12.3519C303.099 12.4177 303.163 12.468 303.237 12.4952C303.311 12.5224 303.393 12.5251 303.468 12.503C303.544 12.4808 303.611 12.4349 303.659 12.3722C303.675 12.3499 303.689 12.3258 303.7 12.3003C303.772 12.1361 303.902 12.004 304.065 11.929C304.229 11.854 304.415 11.8414 304.587 11.8937C304.614 11.9021 304.641 11.9075 304.669 11.9096C304.748 11.9143 304.826 11.8937 304.892 11.8507C304.959 11.8078 305.009 11.7447 305.037 11.671C305.064 11.5972 305.067 11.5166 305.045 11.4412C305.022 11.3658 304.976 11.2995 304.913 11.2521C304.89 11.2359 304.866 11.2223 304.841 11.2116Z" fill="#4D8AF0"/>
<path opacity="0.5" d="M346.819 112.693C346.654 112.621 346.521 112.492 346.445 112.329C346.37 112.167 346.357 111.982 346.41 111.811C346.418 111.785 346.424 111.757 346.426 111.73C346.431 111.651 346.41 111.574 346.367 111.508C346.323 111.442 346.26 111.392 346.186 111.364C346.111 111.337 346.03 111.334 345.954 111.357C345.878 111.379 345.812 111.425 345.764 111.487C345.748 111.51 345.734 111.534 345.723 111.559C345.651 111.723 345.521 111.856 345.357 111.931C345.194 112.006 345.008 112.018 344.835 111.966C344.809 111.957 344.782 111.952 344.754 111.95C344.675 111.945 344.597 111.966 344.53 112.009C344.464 112.052 344.413 112.115 344.386 112.189C344.359 112.262 344.356 112.343 344.378 112.418C344.401 112.494 344.447 112.56 344.51 112.607C344.532 112.624 344.557 112.637 344.582 112.648C344.747 112.719 344.88 112.849 344.956 113.011C345.031 113.174 345.044 113.359 344.991 113.53C344.983 113.556 344.978 113.583 344.976 113.611C344.971 113.689 344.991 113.767 345.035 113.833C345.078 113.899 345.141 113.949 345.216 113.976C345.29 114.004 345.371 114.006 345.447 113.984C345.523 113.962 345.59 113.916 345.637 113.853C345.654 113.831 345.667 113.807 345.678 113.782C345.75 113.617 345.88 113.485 346.044 113.41C346.208 113.335 346.393 113.323 346.566 113.375C346.592 113.383 346.62 113.389 346.647 113.391C346.726 113.396 346.805 113.375 346.871 113.332C346.937 113.289 346.988 113.226 347.015 113.152C347.043 113.078 347.045 112.998 347.023 112.922C347.001 112.847 346.955 112.781 346.891 112.733C346.869 112.717 346.845 112.703 346.819 112.693Z" fill="#4D8AF0"/>
<path opacity="0.5" d="M419.803 89.367C420.465 89.367 421.002 88.8335 421.002 88.1754C421.002 87.5174 420.465 86.9839 419.803 86.9839C419.141 86.9839 418.604 87.5174 418.604 88.1754C418.604 88.8335 419.141 89.367 419.803 89.367Z" fill="#F55F44"/>
<path opacity="0.5" d="M393.416 96.9134C394.079 96.9134 394.616 96.3799 394.616 95.7218C394.616 95.0638 394.079 94.5303 393.416 94.5303C392.754 94.5303 392.217 95.0638 392.217 95.7218C392.217 96.3799 392.754 96.9134 393.416 96.9134Z" fill="#4D8AF0"/>
<path opacity="0.5" d="M288.668 108.63C289.331 108.63 289.868 108.097 289.868 107.439C289.868 106.781 289.331 106.247 288.668 106.247C288.006 106.247 287.469 106.781 287.469 107.439C287.469 108.097 288.006 108.63 288.668 108.63Z" fill="#47E6B1"/>
<path opacity="0.5" d="M350.238 2.38312C350.901 2.38312 351.438 1.84964 351.438 1.19156C351.438 0.533479 350.901 0 350.238 0C349.576 0 349.039 0.533479 349.039 1.19156C349.039 1.84964 349.576 2.38312 350.238 2.38312Z" fill="#F55F44"/>
<path d="M308.958 70.9969L304.16 78.1463C304.16 78.1463 305.759 85.4942 341.142 85.2956C376.524 85.097 379.323 78.1463 379.323 78.1463L372.726 68.6138L352.536 54.9109L308.958 70.9969Z" fill="#F04B5D"/>
<path opacity="0.15" d="M308.958 70.9969L304.16 78.1463C304.16 78.1463 305.759 85.4942 341.142 85.2956C376.524 85.097 379.323 78.1463 379.323 78.1463L372.726 68.6138L352.536 54.9109L308.958 70.9969Z" fill="black"/>
<path d="M411.008 44.4849L348.039 72.0893L271.277 44.4849L341.642 12.71L376.183 28.5319L377.421 29.0998L411.008 44.4849Z" fill="#F04B5D"/>
<path opacity="0.15" d="M411.008 44.4849L348.039 72.0893L271.277 44.4849L341.642 12.71L376.183 28.5319L377.421 29.0998L411.008 44.4849Z" fill="black"/>
<path d="M378.724 51.1021L377.525 51.1736L376.184 28.532L377.421 29.1L378.724 51.1021Z" fill="#F5F5F5"/>
<path d="M309.757 44.3856L304.16 78.1464C304.16 78.1464 344.34 65.2379 379.323 78.1464L374.125 42.3997C374.125 42.3997 327.149 36.6405 309.757 44.3856Z" fill="#F04B5D"/>
<path d="M378.623 57.9891C381.825 57.9891 384.42 56.2109 384.42 54.0173C384.42 51.8237 381.825 50.0454 378.623 50.0454C375.422 50.0454 372.826 51.8237 372.826 54.0173C372.826 56.2109 375.422 57.9891 378.623 57.9891Z" fill="#F5F5F5"/>
<defs>
<linearGradient id="paint0_linear" x1="314.508" y1="85.1759" x2="320.987" y2="72.031" gradientUnits="userSpaceOnUse">
<stop stop-color="#808080" stop-opacity="0.25"/>
<stop offset="0.53514" stop-color="#808080" stop-opacity="0.12"/>
<stop offset="1" stop-color="#808080" stop-opacity="0.1"/>
</linearGradient>
</defs>
</svg>
