<svg width="1250" height="546" viewBox="0 0 1250 546" fill="none" xmlns="http://www.w3.org/2000/svg">
<path d="M2.7 34H9V23.92H18.36V34H24.66V8.26H18.36V18.556H9V8.26H2.7V34ZM27.8615 28.78C27.8615 31.984 30.3455 34.432 33.9095 34.432C36.0335 34.432 38.1935 33.46 39.4175 31.732H39.4895C39.4895 31.732 39.4175 32.272 39.4175 32.884V34H45.1055V22.588C45.1055 17.872 41.9375 15.028 36.8255 15.028C33.8015 15.028 30.5615 16.216 28.9775 17.44L31.1375 21.832C32.6135 20.86 34.4495 20.068 36.2495 20.068C37.6175 20.068 38.8775 20.572 38.8775 22.12V22.444H38.3375C33.7655 22.444 27.8615 23.812 27.8615 28.78ZM34.0175 28.204C34.0175 26.512 36.4655 26.008 38.3735 26.008H38.9495V26.512C38.9495 28.024 37.5815 29.788 35.7815 29.788C34.6295 29.788 34.0175 29.068 34.0175 28.204ZM49.0568 34H75.0128V15.46H69.1448V28.78H64.9688V15.46H59.1008V28.78H54.9248V15.46H49.0568V34ZM79.1857 34H85.2337L90.3817 25.864C90.6697 25.36 91.0657 24.784 91.3897 24.028H91.4617C91.3897 24.748 91.3897 25.468 91.3897 25.9V34H97.2577V15.46H91.2097L86.0617 23.632C85.7377 24.172 85.3777 24.712 85.0537 25.468H84.9817C85.0177 25 85.0537 24.28 85.0537 23.632V15.46H79.1857V34ZM110.44 34H116.668V20.68H122.176V34H128.404V15.46H110.44V34ZM132.588 41.2H138.816V34.252C138.816 33.316 138.744 32.668 138.744 32.668H138.816C140.148 33.82 141.804 34.432 143.532 34.432C148.464 34.432 152.172 30.616 152.172 24.748C152.172 18.988 148.86 15.028 143.82 15.028C141.588 15.028 139.464 15.892 138.204 17.584H138.132C138.132 17.584 138.204 17.008 138.204 16.396V15.46H132.588V41.2ZM138.636 24.856C138.636 21.652 140.4 20.284 142.272 20.284C144.432 20.284 145.908 22.084 145.908 24.856C145.908 27.7 144.216 29.284 142.272 29.284C139.824 29.284 138.636 27.088 138.636 24.856ZM154.325 24.712C154.325 29.644 157.889 34.432 164.513 34.432C167.357 34.432 170.417 33.46 172.433 31.732L170.129 27.376C168.617 28.384 166.853 29.248 165.017 29.248C163.037 29.248 161.165 28.204 160.697 25.936H172.397C172.469 25.288 172.541 24.64 172.541 23.992C172.541 18.844 169.445 15.028 163.973 15.028C157.997 15.028 154.325 19.276 154.325 24.712ZM160.841 22.372C161.165 20.896 162.029 19.6 163.829 19.6C165.413 19.6 166.385 20.86 166.385 22.372H160.841ZM175.795 34H182.023V20.68H187.531V34H193.759V15.46H175.795V34ZM196.899 24.784C196.899 30.58 201.579 34.432 207.411 34.432C213.243 34.432 217.923 30.58 217.923 24.784C217.923 18.952 213.243 15.028 207.375 15.028C201.579 15.028 196.899 18.952 196.899 24.784ZM203.199 24.784C203.199 21.976 205.143 20.212 207.411 20.212C209.679 20.212 211.623 21.976 211.623 24.784C211.623 27.556 209.679 29.248 207.411 29.248C205.143 29.248 203.199 27.556 203.199 24.784ZM227.53 29.068C228.826 26.584 229.186 23.884 229.186 21.076V20.392H232.39V29.068H227.53ZM219.106 29.068V38.32H224.866V34H235.738V38.32H241.282V29.068H238.618V15.46H223.318V19.924C223.318 23.668 222.634 26.98 221.41 29.068H219.106ZM242.807 28.78C242.807 31.984 245.291 34.432 248.855 34.432C250.979 34.432 253.139 33.46 254.363 31.732H254.435C254.435 31.732 254.363 32.272 254.363 32.884V34H260.051V22.588C260.051 17.872 256.883 15.028 251.771 15.028C248.747 15.028 245.507 16.216 243.923 17.44L246.083 21.832C247.559 20.86 249.395 20.068 251.195 20.068C252.563 20.068 253.823 20.572 253.823 22.12V22.444H253.283C248.711 22.444 242.807 23.812 242.807 28.78ZM248.963 28.204C248.963 26.512 251.411 26.008 253.319 26.008H253.895V26.512C253.895 28.024 252.527 29.788 250.727 29.788C249.575 29.788 248.963 29.068 248.963 28.204ZM264.002 34H274.118C277.79 34 281.174 32.56 281.174 28.492C281.174 26.872 280.382 25.036 278.258 24.388V24.352C279.662 23.524 280.418 21.868 280.418 20.32C280.418 17.116 277.826 15.46 274.118 15.46H264.002V34ZM270.23 22.768V19.312H272.498C273.722 19.312 274.226 20.068 274.226 20.932C274.226 21.904 273.722 22.768 272.57 22.768H270.23ZM270.23 30.112V26.404H273.002C274.334 26.404 274.946 27.268 274.946 28.276C274.946 29.212 274.298 30.112 272.966 30.112H270.23ZM283.061 28.78C283.061 31.984 285.545 34.432 289.109 34.432C291.233 34.432 293.393 33.46 294.617 31.732H294.689C294.689 31.732 294.617 32.272 294.617 32.884V34H300.305V22.588C300.305 17.872 297.137 15.028 292.025 15.028C289.001 15.028 285.761 16.216 284.177 17.44L286.337 21.832C287.813 20.86 289.649 20.068 291.449 20.068C292.817 20.068 294.077 20.572 294.077 22.12V22.444H293.537C288.965 22.444 283.061 23.812 283.061 28.78ZM289.217 28.204C289.217 26.512 291.665 26.008 293.573 26.008H294.149V26.512C294.149 28.024 292.781 29.788 290.981 29.788C289.829 29.788 289.217 29.068 289.217 28.204ZM308.324 34H314.552V20.68H320.204V15.46H302.708V20.68H308.324V34ZM321.564 24.712C321.564 29.644 325.128 34.432 331.752 34.432C334.596 34.432 337.656 33.46 339.672 31.732L337.368 27.376C335.856 28.384 334.092 29.248 332.256 29.248C330.276 29.248 328.404 28.204 327.936 25.936H339.636C339.708 25.288 339.78 24.64 339.78 23.992C339.78 18.844 336.684 15.028 331.212 15.028C325.236 15.028 321.564 19.276 321.564 24.712ZM328.08 22.372C328.404 20.896 329.268 19.6 331.068 19.6C332.652 19.6 333.624 20.86 333.624 22.372H328.08ZM341.525 34.18C348.725 34.18 350.885 28.996 350.885 21.436V20.392H353.981V34H360.209V15.46H345.017V21.4C345.017 27.772 343.181 28.528 341.525 28.744V34.18ZM364.373 34H370.421L375.569 25.864C375.857 25.36 376.253 24.784 376.577 24.028H376.649C376.577 24.748 376.577 25.468 376.577 25.9V34H382.445V15.46H376.397L371.249 23.632C370.925 24.172 370.565 24.712 370.241 25.468H370.169C370.205 25 370.241 24.28 370.241 23.632V15.46H364.373V34ZM2.088 76H12.204C15.876 76 19.26 74.56 19.26 70.492C19.26 68.872 18.468 67.036 16.344 66.388V66.352C17.748 65.524 18.504 63.868 18.504 62.32C18.504 59.116 15.912 57.46 12.204 57.46H2.088V76ZM8.316 64.768V61.312H10.584C11.808 61.312 12.312 62.068 12.312 62.932C12.312 63.904 11.808 64.768 10.656 64.768H8.316ZM8.316 72.112V68.404H11.088C12.42 68.404 13.032 69.268 13.032 70.276C13.032 71.212 12.384 72.112 11.052 72.112H8.316ZM40.9826 76H47.2106V57.46H40.9826V76ZM22.4786 76H31.5146C36.6986 76 38.8586 73.444 38.8586 69.664C38.8586 65.92 36.6986 63.256 31.5146 63.256H28.7066V57.46H22.4786V76ZM28.7066 71.932V67.288H30.2546C31.8386 67.288 32.6306 68.332 32.6306 69.628C32.6306 70.924 31.8386 71.932 30.3626 71.932H28.7066ZM51.3771 76H57.6051V62.68H63.1131V76H69.3411V57.46H51.3771V76ZM73.7055 77.692L71.7255 82.264C71.7255 82.264 73.5975 83.56 76.0455 83.56C78.9975 83.56 82.2375 82.12 83.7855 77.98L91.3815 57.46H84.5775L82.2375 66.1C81.9855 67.108 81.6255 68.872 81.6255 68.872H81.5535C81.5535 68.872 81.1935 67 80.8695 65.992L78.1335 57.46H71.0775L78.9615 75.64L78.6015 76.504C77.9535 78.088 76.6215 78.376 75.6135 78.376C74.7135 78.376 73.7055 77.692 73.7055 77.692ZM92.0284 66.712C92.0284 71.824 95.7364 76.432 102.36 76.432C105.456 76.432 108.48 75.244 110.316 73.372L108.048 69.016C106.716 70.168 104.772 71.248 102.972 71.248C99.8404 71.248 98.3284 68.836 98.3284 66.64C98.3284 64.444 99.8044 62.212 102.756 62.212C104.376 62.212 106.032 62.968 107.112 64.012L109.74 59.836C107.904 57.856 104.952 57.028 102.36 57.028C95.7004 57.028 92.0284 61.744 92.0284 66.712ZM112.936 76H119.164V69.196H121.108L125.032 76H132.124L125.932 66.352V66.28L131.368 57.46H124.6L120.928 63.976H119.164V57.46H112.936V76ZM134.205 76H140.433V69.232H146.157V76H152.385V57.46H146.157V64.012H140.433V57.46H134.205V76ZM156.565 76H162.613L167.761 67.864C168.049 67.36 168.445 66.784 168.769 66.028H168.841C168.769 66.748 168.769 67.468 168.769 67.9V76H174.637V57.46H168.589L163.441 65.632C163.117 66.172 162.757 66.712 162.433 67.468H162.361C162.397 67 162.433 66.28 162.433 65.632V57.46H156.565V76ZM178.818 76H185.046V69.196H186.99L190.914 76H198.006L191.814 66.352V66.28L197.25 57.46H190.482L186.81 63.976H185.046V57.46H178.818V76ZM200.088 76H206.136L211.284 67.864C211.572 67.36 211.968 66.784 212.292 66.028H212.364C212.292 66.748 212.292 67.468 212.292 67.9V76H218.16V57.46H212.112L206.964 65.632C206.64 66.172 206.28 66.712 205.956 67.468H205.884C205.92 67 205.956 66.28 205.956 65.632V57.46H200.088V76ZM222.378 63.364H228.282V57.46H222.378V63.364ZM222.378 76H228.282V70.096H222.378V76Z" fill="#222224"/>
<path d="M1.188 135H2.97L3.582 126.99C3.654 126.216 3.618 125.082 3.618 125.082H3.654C3.654 125.082 4.05 126.306 4.338 126.99L6.858 132.714H8.442L10.98 126.99C11.268 126.288 11.664 125.118 11.664 125.118H11.7C11.7 125.118 11.664 126.216 11.736 126.99L12.348 135H14.112L13.086 122.292H11.232L8.298 129.168C8.01 129.87 7.668 130.878 7.668 130.878H7.632C7.632 130.878 7.308 129.87 7.02 129.168L4.086 122.292H2.232L1.188 135ZM16.9845 135H18.7665V123.84H23.9865V122.292H16.9845V135ZM25.5727 134.388C26.2747 134.874 27.0307 135.216 27.8947 135.216C29.4787 135.216 30.2887 133.938 30.7927 132.66L34.8427 122.292H32.9707L30.6127 128.7C30.3427 129.474 30.0727 130.356 30.0727 130.356H30.0367C30.0367 130.356 29.7127 129.474 29.3167 128.682L26.2207 122.292H24.2587L29.2807 132.246C28.9387 133.128 28.5787 133.668 27.8407 133.668C27.2287 133.668 26.6887 133.272 26.3827 133.038L25.5727 134.388ZM40.848 135H42.522L46.464 129.564C46.752 129.132 47.202 128.52 47.256 128.358H47.292C47.292 128.502 47.238 129.132 47.238 129.564V135H48.93V125.892H47.238L43.314 131.328C43.008 131.76 42.576 132.39 42.504 132.552H42.468C42.486 132.462 42.522 131.814 42.522 131.328V125.892H40.848V135ZM51.2279 135H52.9199L53.3159 129.582C53.3519 129.042 53.2979 128.016 53.2979 128.016H53.3339C53.3339 128.016 53.6219 128.7 53.9099 129.366L56.0699 133.902H57.5639L59.7239 129.348C60.0659 128.646 60.2999 128.016 60.2999 128.016H60.3359C60.3359 128.016 60.2999 129.042 60.3179 129.582L60.7139 135H62.4059L61.6139 125.892H59.7059L57.3299 131.04C57.0959 131.598 56.8259 132.264 56.8259 132.264H56.7899C56.7899 132.264 56.5379 131.58 56.2859 131.04L53.9639 125.892H52.0199L51.2279 135ZM64.1603 130.446C64.1603 133.146 66.1403 135.216 69.0023 135.216C70.2623 135.216 71.6483 134.73 72.5303 133.92L71.7923 132.642C71.0723 133.29 70.0823 133.704 69.1103 133.704C67.4723 133.704 66.0683 132.642 65.9783 130.68H72.6023C72.6383 130.428 72.6743 130.176 72.6743 129.942C72.6743 127.602 71.3063 125.676 68.7323 125.676C66.1403 125.676 64.1603 127.548 64.1603 130.446ZM66.0323 129.42C66.2843 127.908 67.3463 127.026 68.6963 127.026C69.8843 127.026 70.8563 127.854 70.9103 129.42H66.0323ZM74.7738 135H76.5198V131.094H81.1278V135H82.8738V125.892H81.1278V129.6H76.5198V125.892H74.7738V135ZM85.5668 135H87.2408L91.1828 129.564C91.4708 129.132 91.9208 128.52 91.9748 128.358H92.0108C92.0108 128.502 91.9568 129.132 91.9568 129.564V135H93.6488V125.892H91.9568L88.0328 131.328C87.7268 131.76 87.2948 132.39 87.2228 132.552H87.1868C87.2048 132.462 87.2408 131.814 87.2408 131.328V125.892H85.5668V135ZM100.663 135H102.445L103.057 126.99C103.129 126.216 103.093 125.082 103.093 125.082H103.129C103.129 125.082 103.525 126.306 103.813 126.99L106.333 132.714H107.917L110.455 126.99C110.743 126.288 111.139 125.118 111.139 125.118H111.175C111.175 125.118 111.139 126.216 111.211 126.99L111.823 135H113.587L112.561 122.292H110.707L107.773 129.168C107.485 129.87 107.143 130.878 107.143 130.878H107.107C107.107 130.878 106.783 129.87 106.495 129.168L103.561 122.292H101.707L100.663 135ZM116.045 135H117.917V133.11H116.045V135ZM120.854 135H125.408C127.64 135 129.512 133.776 129.512 131.382C129.512 129.96 128.756 128.7 127.406 128.304V128.268C128.378 127.764 128.99 126.774 128.99 125.532C128.99 123.48 127.46 122.292 125.3 122.292H120.854V135ZM122.636 127.638V123.84H125.282C126.488 123.84 127.172 124.596 127.172 125.712C127.172 126.828 126.452 127.638 125.3 127.638H122.636ZM122.636 133.452V129.114H125.498C126.83 129.114 127.676 129.996 127.676 131.274C127.676 132.588 126.866 133.452 125.498 133.452H122.636ZM131.672 135H133.544V133.11H131.672V135ZM139.523 133.506V135.144C143.033 134.946 144.113 131.418 144.113 125.316V123.84H148.055V135H149.837V122.292H142.421V125.298C142.421 130.464 141.665 133.218 139.523 133.506ZM152.086 130.428C152.086 133.2 154.282 135.216 157 135.216C159.7 135.216 161.896 133.2 161.896 130.428C161.896 127.674 159.7 125.676 156.982 125.676C154.282 125.676 152.086 127.674 152.086 130.428ZM153.868 130.428C153.868 128.538 155.272 127.188 157 127.188C158.71 127.188 160.132 128.538 160.132 130.428C160.132 132.336 158.71 133.704 157 133.704C155.272 133.704 153.868 132.336 153.868 130.428ZM163.622 135H165.314L165.71 129.582C165.746 129.042 165.692 128.016 165.692 128.016H165.728C165.728 128.016 166.016 128.7 166.304 129.366L168.464 133.902H169.958L172.118 129.348C172.46 128.646 172.694 128.016 172.694 128.016H172.73C172.73 128.016 172.694 129.042 172.712 129.582L173.108 135H174.8L174.008 125.892H172.1L169.724 131.04C169.49 131.598 169.22 132.264 169.22 132.264H169.184C169.184 132.264 168.932 131.58 168.68 131.04L166.358 125.892H164.414L163.622 135ZM176.555 130.428C176.555 133.2 178.751 135.216 181.469 135.216C184.169 135.216 186.365 133.2 186.365 130.428C186.365 127.674 184.169 125.676 181.451 125.676C178.751 125.676 176.555 127.674 176.555 130.428ZM178.337 130.428C178.337 128.538 179.741 127.188 181.469 127.188C183.179 127.188 184.601 128.538 184.601 130.428C184.601 132.336 183.179 133.704 181.469 133.704C179.741 133.704 178.337 132.336 178.337 130.428ZM188.469 135H190.215V131.094H194.823V135H196.569V125.892H194.823V129.6H190.215V125.892H188.469V135ZM198.668 130.428C198.668 133.2 200.864 135.216 203.582 135.216C206.282 135.216 208.478 133.2 208.478 130.428C208.478 127.674 206.282 125.676 203.564 125.676C200.864 125.676 198.668 127.674 198.668 130.428ZM200.45 130.428C200.45 128.538 201.854 127.188 203.582 127.188C205.292 127.188 206.714 128.538 206.714 130.428C206.714 132.336 205.292 133.704 203.582 133.704C201.854 133.704 200.45 132.336 200.45 130.428ZM209.988 130.446C209.988 133.182 211.986 135.216 214.866 135.216C216.288 135.216 217.674 134.64 218.502 133.758L217.8 132.48C217.098 133.218 216 133.704 214.992 133.704C213.102 133.704 211.77 132.282 211.77 130.428C211.77 128.574 213.102 127.188 214.938 127.188C215.892 127.188 216.846 127.62 217.458 128.232L218.286 127.008C217.422 126.09 216.072 125.676 214.866 125.676C212.004 125.676 209.988 127.746 209.988 130.446ZM219.586 130.428C219.586 133.2 221.782 135.216 224.5 135.216C227.2 135.216 229.396 133.2 229.396 130.428C229.396 127.674 227.2 125.676 224.482 125.676C221.782 125.676 219.586 127.674 219.586 130.428ZM221.368 130.428C221.368 128.538 222.772 127.188 224.5 127.188C226.21 127.188 227.632 128.538 227.632 130.428C227.632 132.336 226.21 133.704 224.5 133.704C222.772 133.704 221.368 132.336 221.368 130.428ZM231.5 135H235.388C237.368 135 238.736 134.1 238.736 132.408C238.736 131.4 238.142 130.518 237.008 130.248V130.23C237.836 129.87 238.304 129.114 238.304 128.232C238.304 126.702 237.098 125.892 235.262 125.892H231.5V135ZM233.246 129.744V127.098H234.902C236 127.098 236.522 127.53 236.522 128.358C236.522 129.204 236 129.744 234.956 129.744H233.246ZM233.246 133.776V130.914H235.1C236.306 130.914 236.972 131.454 236.972 132.354C236.972 133.2 236.378 133.776 235.118 133.776H233.246ZM240.096 132.516C240.096 134.226 241.554 135.216 243.138 135.216C244.488 135.216 245.604 134.406 246.126 133.362H246.162C246.162 133.362 246.108 133.668 246.108 134.082V135H247.746V129.24C247.746 126.936 246.432 125.676 244.146 125.676C242.868 125.676 241.482 126.144 240.744 126.756L241.446 128.034C242.184 127.512 243.102 127.152 244.002 127.152C245.136 127.152 246 127.656 246 129.15V129.33H245.532C243.642 129.33 240.096 129.654 240.096 132.516ZM241.842 132.372C241.842 130.698 244.254 130.59 245.55 130.59H246V130.932C246 132.282 245.082 133.83 243.552 133.83C242.418 133.83 241.842 133.092 241.842 132.372Z" fill="#424754"/>
<path d="M1.188 176H2.97L3.582 167.99C3.654 167.216 3.618 166.082 3.618 166.082H3.654C3.654 166.082 4.05 167.306 4.338 167.99L6.858 173.714H8.442L10.98 167.99C11.268 167.288 11.664 166.118 11.664 166.118H11.7C11.7 166.118 11.664 167.216 11.736 167.99L12.348 176H14.112L13.086 163.292H11.232L8.298 170.168C8.01 170.87 7.668 171.878 7.668 171.878H7.632C7.632 171.878 7.308 170.87 7.02 170.168L4.086 163.292H2.232L1.188 176ZM16.0125 169.232C16.0125 172.454 18.4065 174.596 21.9165 174.596V176.216H23.6985V174.596C27.2085 174.596 29.6025 172.454 29.6025 169.232C29.6025 166.064 27.1905 163.958 23.6985 163.958V162.5H21.9165V163.958C18.4065 163.958 16.0125 166.064 16.0125 169.232ZM23.6985 173.084V165.47C26.1465 165.47 27.7845 166.91 27.7845 169.232C27.7845 171.608 26.1465 173.084 23.6985 173.084ZM17.8305 169.232C17.8305 166.91 19.4685 165.47 21.9165 165.47V173.084C19.4685 173.084 17.8305 171.608 17.8305 169.232ZM34.4038 176H36.1678V164.84H40.5418V163.292H30.0298V164.84H34.4038V176ZM42.508 176H44.254L49.924 167.756C50.374 167.054 50.986 165.902 50.986 165.902H51.022C51.022 165.902 50.914 167.036 50.914 167.756V176H52.678V163.292H50.932L45.298 171.518C44.848 172.202 44.218 173.39 44.218 173.39H44.182C44.182 173.39 44.29 172.256 44.29 171.536V163.292H42.508V176Z" fill="#424754"/>
<path d="M1.674 217H3.456V212.302H6.336C8.658 212.302 10.314 210.682 10.314 208.27C10.314 205.858 8.658 204.292 6.336 204.292H1.674V217ZM3.456 210.754V205.84H6.066C7.56 205.84 8.514 206.758 8.514 208.27C8.514 209.8 7.56 210.754 6.048 210.754H3.456ZM10.9228 217H12.9028L15.2068 213.094C15.6028 212.392 15.9808 211.636 15.9808 211.636H16.0168C16.0168 211.636 16.4128 212.392 16.8088 213.094L19.1308 217H21.1288L17.1148 210.448L20.8948 204.292H18.8428L16.8268 207.73C16.4128 208.432 16.0348 209.206 16.0348 209.206H15.9988C15.9988 209.206 15.5848 208.414 15.2068 207.73L13.2088 204.292H11.1748L14.9188 210.448L10.9228 217ZM26.0366 217H27.8006V205.84H32.1746V204.292H21.6626V205.84H26.0366V217ZM33.8168 216.388C34.5188 216.874 35.2748 217.216 36.1388 217.216C37.7228 217.216 38.5328 215.938 39.0368 214.66L43.0868 204.292H41.2148L38.8568 210.7C38.5868 211.474 38.3168 212.356 38.3168 212.356H38.2808C38.2808 212.356 37.9568 211.474 37.5608 210.682L34.4648 204.292H32.5028L37.5248 214.246C37.1828 215.128 36.8228 215.668 36.0848 215.668C35.4728 215.668 34.9328 215.272 34.6268 215.038L33.8168 216.388ZM49.0922 217H50.7662L54.7082 211.564C54.9962 211.132 55.4462 210.52 55.5002 210.358H55.5362C55.5362 210.502 55.4822 211.132 55.4822 211.564V217H57.1742V207.892H55.4822L51.5582 213.328C51.2522 213.76 50.8202 214.39 50.7482 214.552H50.7122C50.7302 214.462 50.7662 213.814 50.7662 213.328V207.892H49.0922V217ZM59.472 217H61.164L61.56 211.582C61.596 211.042 61.542 210.016 61.542 210.016H61.578C61.578 210.016 61.866 210.7 62.154 211.366L64.314 215.902H65.808L67.968 211.348C68.31 210.646 68.544 210.016 68.544 210.016H68.58C68.58 210.016 68.544 211.042 68.562 211.582L68.958 217H70.65L69.858 207.892H67.95L65.574 213.04C65.34 213.598 65.07 214.264 65.07 214.264H65.034C65.034 214.264 64.782 213.58 64.53 213.04L62.208 207.892H60.264L59.472 217ZM72.9084 217H74.7804V215.11H72.9084V217ZM81.731 217H83.513L84.125 208.99C84.197 208.216 84.161 207.082 84.161 207.082H84.197C84.197 207.082 84.593 208.306 84.881 208.99L87.401 214.714H88.985L91.523 208.99C91.811 208.288 92.207 207.118 92.207 207.118H92.243C92.243 207.118 92.207 208.216 92.279 208.99L92.891 217H94.655L93.629 204.292H91.775L88.841 211.168C88.553 211.87 88.211 212.878 88.211 212.878H88.175C88.175 212.878 87.851 211.87 87.563 211.168L84.629 204.292H82.775L81.731 217ZM96.4689 212.446C96.4689 215.146 98.4489 217.216 101.311 217.216C102.571 217.216 103.957 216.73 104.839 215.92L104.101 214.642C103.381 215.29 102.391 215.704 101.419 215.704C99.7809 215.704 98.3769 214.642 98.2869 212.68H104.911C104.947 212.428 104.983 212.176 104.983 211.942C104.983 209.602 103.615 207.676 101.041 207.676C98.4489 207.676 96.4689 209.548 96.4689 212.446ZM98.3409 211.42C98.5929 209.908 99.6549 209.026 101.005 209.026C102.193 209.026 103.165 209.854 103.219 211.42H98.3409ZM107.082 217H108.828V213.094H113.436V217H115.182V207.892H113.436V211.6H108.828V207.892H107.082V217ZM119.657 215.56C120.809 213.76 120.953 211.168 120.953 209.8V209.314H123.689V215.56H119.657ZM116.741 215.56V219.16H118.379V217H125.129V219.16H126.731V215.56H125.435V207.892H119.279V209.566C119.279 210.97 119.135 213.814 117.857 215.56H116.741ZM127.863 212.446C127.863 215.146 129.843 217.216 132.705 217.216C133.965 217.216 135.351 216.73 136.233 215.92L135.495 214.642C134.775 215.29 133.785 215.704 132.813 215.704C131.175 215.704 129.771 214.642 129.681 212.68H136.305C136.341 212.428 136.377 212.176 136.377 211.942C136.377 209.602 135.009 207.676 132.435 207.676C129.843 207.676 127.863 209.548 127.863 212.446ZM129.735 211.42C129.987 209.908 131.049 209.026 132.399 209.026C133.587 209.026 134.559 209.854 134.613 211.42H129.735ZM137.487 217.09C140.169 216.946 141.213 214.822 141.213 210.7V209.332H143.895V217H145.641V207.892H139.539V210.7C139.539 213.994 138.819 215.326 137.487 215.524V217.09ZM147.744 212.446C147.744 215.146 149.724 217.216 152.586 217.216C153.846 217.216 155.232 216.73 156.114 215.92L155.376 214.642C154.656 215.29 153.666 215.704 152.694 215.704C151.056 215.704 149.652 214.642 149.562 212.68H156.186C156.222 212.428 156.258 212.176 156.258 211.942C156.258 209.602 154.89 207.676 152.316 207.676C149.724 207.676 147.744 209.548 147.744 212.446ZM149.616 211.42C149.868 209.908 150.93 209.026 152.28 209.026C153.468 209.026 154.44 209.854 154.494 211.42H149.616ZM157.764 212.446C157.764 215.146 159.744 217.216 162.606 217.216C163.866 217.216 165.252 216.73 166.134 215.92L165.396 214.642C164.676 215.29 163.686 215.704 162.714 215.704C161.076 215.704 159.672 214.642 159.582 212.68H166.206C166.242 212.428 166.278 212.176 166.278 211.942C166.278 209.602 164.91 207.676 162.336 207.676C159.744 207.676 157.764 209.548 157.764 212.446ZM159.636 211.42C159.888 209.908 160.95 209.026 162.3 209.026C163.488 209.026 164.46 209.854 164.514 211.42H159.636ZM168.377 217H172.265C174.245 217 175.613 216.1 175.613 214.408C175.613 213.4 175.019 212.518 173.885 212.248V212.23C174.713 211.87 175.181 211.114 175.181 210.232C175.181 208.702 173.975 207.892 172.139 207.892H168.377V217ZM170.123 211.744V209.098H171.779C172.877 209.098 173.399 209.53 173.399 210.358C173.399 211.204 172.877 211.744 171.833 211.744H170.123ZM170.123 215.776V212.914H171.977C173.183 212.914 173.849 213.454 173.849 214.354C173.849 215.2 173.255 215.776 171.995 215.776H170.123ZM176.973 214.516C176.973 216.226 178.431 217.216 180.015 217.216C181.365 217.216 182.481 216.406 183.003 215.362H183.039C183.039 215.362 182.985 215.668 182.985 216.082V217H184.623V211.24C184.623 208.936 183.309 207.676 181.023 207.676C179.745 207.676 178.359 208.144 177.621 208.756L178.323 210.034C179.061 209.512 179.979 209.152 180.879 209.152C182.013 209.152 182.877 209.656 182.877 211.15V211.33H182.409C180.519 211.33 176.973 211.654 176.973 214.516ZM178.719 214.372C178.719 212.698 181.131 212.59 182.427 212.59H182.877V212.932C182.877 214.282 181.959 215.83 180.429 215.83C179.295 215.83 178.719 215.092 178.719 214.372Z" fill="#424754"/>
<path d="M1.35 258H3.024L6.966 252.564C7.254 252.132 7.704 251.52 7.758 251.358H7.794C7.794 251.502 7.74 252.132 7.74 252.564V258H9.432V248.892H7.74L3.816 254.328C3.51 254.76 3.078 255.39 3.006 255.552H2.97C2.988 255.462 3.024 254.814 3.024 254.328V248.892H1.35V258ZM16.6078 258H18.3538V254.094H22.9618V258H24.7078V248.892H22.9618V252.6H18.3538V248.892H16.6078V258ZM26.8068 253.446C26.8068 256.146 28.7868 258.216 31.6488 258.216C32.9088 258.216 34.2948 257.73 35.1768 256.92L34.4388 255.642C33.7188 256.29 32.7288 256.704 31.7568 256.704C30.1188 256.704 28.7148 255.642 28.6248 253.68H35.2488C35.2848 253.428 35.3208 253.176 35.3208 252.942C35.3208 250.602 33.9528 248.676 31.3788 248.676C28.7868 248.676 26.8068 250.548 26.8068 253.446ZM28.6788 252.42C28.9308 250.908 29.9928 250.026 31.3428 250.026C32.5308 250.026 33.5028 250.854 33.5568 252.42H28.6788ZM44.1163 258H45.8443V250.386H49.0303V248.892H40.9483V250.386H44.1163V258ZM49.8517 253.428C49.8517 256.2 52.0477 258.216 54.7657 258.216C57.4657 258.216 59.6617 256.2 59.6617 253.428C59.6617 250.674 57.4657 248.676 54.7477 248.676C52.0477 248.676 49.8517 250.674 49.8517 253.428ZM51.6337 253.428C51.6337 251.538 53.0377 250.188 54.7657 250.188C56.4757 250.188 57.8977 251.538 57.8977 253.428C57.8977 255.336 56.4757 256.704 54.7657 256.704C53.0377 256.704 51.6337 255.336 51.6337 253.428ZM60.5299 258.09C63.2119 257.946 64.2559 255.822 64.2559 251.7V250.332H66.9379V258H68.6839V248.892H62.5819V251.7C62.5819 254.994 61.8619 256.326 60.5299 256.524V258.09ZM71.3813 258H74.9273C77.2313 258 78.2753 256.83 78.2753 255.12C78.2753 253.05 76.8533 252.186 74.9633 252.186H73.1273V248.892H71.3813V258ZM73.1273 256.74V253.446H74.6933C75.9533 253.446 76.4933 254.13 76.4933 255.102C76.4933 256.056 75.9533 256.74 74.6933 256.74H73.1273ZM80.1527 258H81.8987V254.058H83.2127L85.9307 258H88.0007L84.5987 253.266V253.23L87.6407 248.892H85.6607L83.1767 252.564H81.8987V248.892H80.1527V258ZM88.5763 253.428C88.5763 256.2 90.7723 258.216 93.4903 258.216C96.1903 258.216 98.3863 256.2 98.3863 253.428C98.3863 250.674 96.1903 248.676 93.4723 248.676C90.7723 248.676 88.5763 250.674 88.5763 253.428ZM90.3583 253.428C90.3583 251.538 91.7623 250.188 93.4903 250.188C95.2003 250.188 96.6223 251.538 96.6223 253.428C96.6223 255.336 95.2003 256.704 93.4903 256.704C91.7623 256.704 90.3583 255.336 90.3583 253.428Z" fill="#424754"/>
<path d="M1.08 343.408C1.08 348.424 4.536 352.288 9.888 352.288C12.936 352.288 15.12 351.016 16.584 349.528L14.952 347.296C13.656 348.568 11.832 349.456 10.008 349.456C6.312 349.456 4.272 346.552 4.272 343.36C4.272 340.216 6.24 337.504 9.984 337.504C11.64 337.504 13.44 338.272 14.64 339.304L16.128 337C14.472 335.392 12.072 334.672 9.84 334.672C4.704 334.672 1.08 338.464 1.08 343.408ZM24.2837 344.848C24.2837 349.192 26.2757 352.288 30.5237 352.288C34.1477 352.288 36.5237 349.816 36.5237 346.432C36.5237 343.048 34.4357 340.816 31.2917 340.816C29.8757 340.816 28.3397 341.248 27.2597 342.592H27.2117C27.3317 340.48 28.6997 339.352 30.7877 338.488L35.4437 336.712L34.5317 334.24L30.3077 335.896C25.8437 337.624 24.2837 340.24 24.2837 344.848ZM27.3797 346.456C27.3797 344.536 28.6997 343.168 30.4517 343.168C32.0837 343.168 33.4517 344.416 33.4517 346.48C33.4517 348.544 32.0837 349.768 30.4037 349.768C28.7477 349.768 27.3797 348.544 27.3797 346.456ZM38.3646 345.88C38.3646 349.648 41.3646 352.288 45.0846 352.288C48.8046 352.288 51.8046 349.648 51.8046 345.88C51.8046 342.136 48.8046 339.472 45.0606 339.472C41.3646 339.472 38.3646 342.136 38.3646 345.88ZM41.4606 345.88C41.4606 343.624 43.0926 342.064 45.0846 342.064C47.0766 342.064 48.7326 343.624 48.7326 345.88C48.7326 348.16 47.0766 349.696 45.0846 349.696C43.0926 349.696 41.4606 348.16 41.4606 345.88ZM52.8394 352.12C56.8954 352 58.3114 348.928 58.3114 343.6V342.232H61.2874V352H64.3354V339.76H55.4074V343.6C55.4074 347.944 54.3514 349.216 52.8394 349.432V352.12ZM67.6086 352H72.9126C76.1286 352 77.5446 350.392 77.5446 348.016C77.5446 345.352 75.8166 343.96 72.9366 343.96H70.6566V339.76H67.6086V352ZM70.6566 349.912V346.024H72.3846C73.8246 346.024 74.4726 346.864 74.4726 347.992C74.4726 349.096 73.8246 349.912 72.4326 349.912H70.6566ZM79.7726 352H96.1166V339.76H93.2126V349.408H89.3966V339.76H86.4926V349.408H82.6766V339.76H79.7726V352ZM99.3898 352H102.342L106.878 345.472C107.19 344.992 107.646 344.344 107.79 344.008H107.838C107.814 344.32 107.766 345.016 107.766 345.472V352H110.67V339.76H107.718L103.182 346.312C102.87 346.792 102.414 347.464 102.27 347.776H102.222C102.246 347.584 102.294 346.864 102.294 346.312V339.76H99.3898V352ZM113.441 352H116.369L116.801 345.376C116.849 344.56 116.777 343.288 116.777 343.288H116.825C116.825 343.288 117.233 344.248 117.569 345.088L119.969 350.464H122.489L124.889 345.064C125.273 344.2 125.609 343.288 125.609 343.288H125.657C125.657 343.288 125.609 344.56 125.633 345.376L126.065 352H128.993L127.889 339.76H124.481L121.841 346.072C121.577 346.768 121.241 347.632 121.241 347.632H121.193C121.193 347.632 120.881 346.744 120.593 346.072L118.001 339.76H114.545L113.441 352ZM137.036 345.88C137.036 349.648 140.036 352.288 143.756 352.288C147.476 352.288 150.476 349.648 150.476 345.88C150.476 342.136 147.476 339.472 143.732 339.472C140.036 339.472 137.036 342.136 137.036 345.88ZM140.132 345.88C140.132 343.624 141.764 342.064 143.756 342.064C145.748 342.064 147.404 343.624 147.404 345.88C147.404 348.16 145.748 349.696 143.756 349.696C141.764 349.696 140.132 348.16 140.132 345.88ZM152.991 352H156.039V342.352H161.103V352H164.151V339.76H152.991V352ZM178.925 352H181.973V339.76H178.925V352ZM167.405 352H172.613C175.829 352 177.245 350.392 177.245 348.016C177.245 345.352 175.517 343.96 172.637 343.96H170.453V339.76H167.405V352ZM170.453 349.912V346.024H172.085C173.525 346.024 174.173 346.864 174.173 347.992C174.173 349.096 173.525 349.912 172.133 349.912H170.453ZM188.097 352H191.121V342.352H195.177V339.76H184.065V342.352H188.097V352ZM196.193 345.88C196.193 349.648 199.193 352.288 202.913 352.288C206.633 352.288 209.633 349.648 209.633 345.88C209.633 342.136 206.633 339.472 202.889 339.472C199.193 339.472 196.193 342.136 196.193 345.88ZM199.289 345.88C199.289 343.624 200.921 342.064 202.913 342.064C204.905 342.064 206.561 343.624 206.561 345.88C206.561 348.16 204.905 349.696 202.913 349.696C200.921 349.696 199.289 348.16 199.289 345.88ZM211.644 352H214.572L215.004 345.376C215.052 344.56 214.98 343.288 214.98 343.288H215.028C215.028 343.288 215.436 344.248 215.772 345.088L218.172 350.464H220.692L223.092 345.064C223.476 344.2 223.812 343.288 223.812 343.288H223.86C223.86 343.288 223.812 344.56 223.836 345.376L224.268 352H227.196L226.092 339.76H222.684L220.044 346.072C219.78 346.768 219.444 347.632 219.444 347.632H219.396C219.396 347.632 219.084 346.744 218.796 346.072L216.204 339.76H212.748L211.644 352ZM235.984 356.8H239.032V351.616C239.032 350.992 238.96 350.56 238.96 350.56H239.008C239.872 351.664 241.144 352.288 242.536 352.288C245.752 352.288 248.128 349.768 248.128 345.88C248.128 342.088 246.016 339.472 242.704 339.472C241.048 339.472 239.56 340.216 238.768 341.536H238.72C238.72 341.536 238.768 341.128 238.768 340.672V339.76H235.984V356.8ZM238.936 345.952C238.936 343.24 240.424 342.088 242.032 342.088C243.808 342.088 245.056 343.6 245.056 345.928C245.056 348.352 243.664 349.72 241.984 349.72C239.992 349.72 238.936 347.848 238.936 345.952ZM249.79 348.616C249.79 350.848 251.614 352.288 253.822 352.288C255.478 352.288 256.942 351.376 257.686 350.08H257.734C257.734 350.08 257.662 350.464 257.662 350.968V352H260.494V344.344C260.494 341.248 258.598 339.472 255.406 339.472C253.582 339.472 251.614 340.168 250.606 340.984L251.734 343.168C252.718 342.496 253.942 341.992 255.142 341.992C256.414 341.992 257.446 342.544 257.446 344.152V344.32H256.918C254.206 344.32 249.79 344.944 249.79 348.616ZM252.814 348.352C252.814 346.624 255.406 346.408 256.942 346.408H257.47V346.744C257.47 348.232 256.366 349.96 254.662 349.96C253.438 349.96 252.814 349.168 252.814 348.352ZM263.065 344.848C263.065 349.192 265.057 352.288 269.305 352.288C272.929 352.288 275.305 349.816 275.305 346.432C275.305 343.048 273.217 340.816 270.073 340.816C268.657 340.816 267.121 341.248 266.041 342.592H265.993C266.113 340.48 267.481 339.352 269.569 338.488L274.225 336.712L273.313 334.24L269.089 335.896C264.625 337.624 263.065 340.24 263.065 344.848ZM266.161 346.456C266.161 344.536 267.481 343.168 269.233 343.168C270.865 343.168 272.233 344.416 272.233 346.48C272.233 348.544 270.865 349.768 269.185 349.768C267.529 349.768 266.161 348.544 266.161 346.456ZM277.146 345.88C277.146 349.648 280.146 352.288 283.866 352.288C287.586 352.288 290.586 349.648 290.586 345.88C290.586 342.136 287.586 339.472 283.842 339.472C280.146 339.472 277.146 342.136 277.146 345.88ZM280.242 345.88C280.242 343.624 281.874 342.064 283.866 342.064C285.858 342.064 287.514 343.624 287.514 345.88C287.514 348.16 285.858 349.696 283.866 349.696C281.874 349.696 280.242 348.16 280.242 345.88ZM295.652 352H298.676V342.352H302.732V339.76H291.62V342.352H295.652V352ZM316.316 352H319.364V339.76H316.316V352ZM304.796 352H310.004C313.22 352 314.636 350.392 314.636 348.016C314.636 345.352 312.908 343.96 310.028 343.96H307.844V339.76H304.796V352ZM307.844 349.912V346.024H309.476C310.916 346.024 311.564 346.864 311.564 347.992C311.564 349.096 310.916 349.912 309.524 349.912H307.844ZM322.584 342.808H325.608V339.76H322.584V342.808ZM322.584 352H325.608V348.952H322.584V352Z" fill="#222224"/>
<path d="M1.674 412H3.456V406.42H10.062V412H11.826V399.292H10.062V404.872H3.456V399.292H1.674V412ZM15.174 412H16.92L22.59 403.756C23.04 403.054 23.652 401.902 23.652 401.902H23.688C23.688 401.902 23.58 403.036 23.58 403.756V412H25.344V399.292H23.598L17.964 407.518C17.514 408.202 16.884 409.39 16.884 409.39H16.848C16.848 409.39 16.956 408.256 16.956 407.536V399.292H15.174V412ZM28.7092 412H43.4332V399.292H41.6692V410.452H36.9712V399.292H35.1892V410.452H30.4912V399.292H28.7092V412Z" fill="#424754"/>
<path d="M1.674 453H3.456V448.302H6.336C8.658 448.302 10.314 446.682 10.314 444.27C10.314 441.858 8.658 440.292 6.336 440.292H1.674V453ZM3.456 446.754V441.84H6.066C7.56 441.84 8.514 442.758 8.514 444.27C8.514 445.8 7.56 446.754 6.048 446.754H3.456ZM11.5653 446.232C11.5653 449.454 13.9593 451.596 17.4693 451.596V453.216H19.2513V451.596C22.7613 451.596 25.1553 449.454 25.1553 446.232C25.1553 443.064 22.7433 440.958 19.2513 440.958V439.5H17.4693V440.958C13.9593 440.958 11.5653 443.064 11.5653 446.232ZM19.2513 450.084V442.47C21.6993 442.47 23.3373 443.91 23.3373 446.232C23.3373 448.608 21.6993 450.084 19.2513 450.084ZM13.3833 446.232C13.3833 443.91 15.0213 442.47 17.4693 442.47V450.084C15.0213 450.084 13.3833 448.608 13.3833 446.232ZM27.0278 453H28.8098L29.4218 444.99C29.4938 444.216 29.4578 443.082 29.4578 443.082H29.4938C29.4938 443.082 29.8898 444.306 30.1778 444.99L32.6978 450.714H34.2818L36.8198 444.99C37.1078 444.288 37.5038 443.118 37.5038 443.118H37.5398C37.5398 443.118 37.5038 444.216 37.5758 444.99L38.1878 453H39.9518L38.9258 440.292H37.0718L34.1378 447.168C33.8498 447.87 33.5078 448.878 33.5078 448.878H33.4718C33.4718 448.878 33.1478 447.87 32.8598 447.168L29.9258 440.292H28.0718L27.0278 453ZM42.8244 453H57.5484V440.292H55.7844V451.452H51.0864V440.292H49.3044V451.452H44.6064V440.292H42.8244V453Z" fill="#424754"/>
<path d="M1.674 494H3.456V488.186H5.346L8.73 494H10.764L6.822 487.358V487.322L10.53 481.292H8.568L5.346 486.638H3.456V481.292H1.674V494ZM15.7006 494H17.4646V482.84H21.8386V481.292H11.3266V482.84H15.7006V494ZM21.5031 492.506V494.144C25.0131 493.946 26.0931 490.418 26.0931 484.316V482.84H30.0351V494H31.8171V481.292H24.4011V484.298C24.4011 489.464 23.6451 492.218 21.5031 492.506Z" fill="#424754"/>
<path d="M1.674 535H3.456V529.42H10.062V535H11.826V522.292H10.062V527.872H3.456V522.292H1.674V535ZM13.971 532.516C13.971 534.226 15.429 535.216 17.013 535.216C18.363 535.216 19.479 534.406 20.001 533.362H20.037C20.037 533.362 19.983 533.668 19.983 534.082V535H21.621V529.24C21.621 526.936 20.307 525.676 18.021 525.676C16.743 525.676 15.357 526.144 14.619 526.756L15.321 528.034C16.059 527.512 16.977 527.152 17.877 527.152C19.011 527.152 19.875 527.656 19.875 529.15V529.33H19.407C17.517 529.33 13.971 529.654 13.971 532.516ZM15.717 532.372C15.717 530.698 18.129 530.59 19.425 530.59H19.875V530.932C19.875 532.282 18.957 533.83 17.427 533.83C16.293 533.83 15.717 533.092 15.717 532.372ZM23.3196 533.884C24.0756 534.604 25.2636 535.216 26.6676 535.216C28.5396 535.216 30.1596 534.262 30.1596 532.39C30.1596 531.22 29.4396 530.536 28.5216 530.248V530.212C29.2416 529.906 29.8536 529.276 29.8536 528.142C29.8536 526.522 28.5036 525.676 26.7756 525.676C25.3356 525.676 24.3096 526.144 23.6076 526.666L24.2556 527.836C24.9576 527.314 25.6776 527.044 26.4696 527.044C27.4776 527.044 28.0896 527.512 28.0896 528.358C28.0896 529.276 27.3876 529.672 26.3616 529.672H25.4076V530.932H26.5236C27.8016 530.932 28.3956 531.436 28.3956 532.318C28.3956 533.308 27.5496 533.812 26.5056 533.812C25.4076 533.812 24.5436 533.164 24.1296 532.732L23.3196 533.884ZM31.5139 532.516C31.5139 534.226 32.9719 535.216 34.5559 535.216C35.9059 535.216 37.0219 534.406 37.5439 533.362H37.5799C37.5799 533.362 37.5259 533.668 37.5259 534.082V535H39.1639V529.24C39.1639 526.936 37.8499 525.676 35.5639 525.676C34.2859 525.676 32.8999 526.144 32.1619 526.756L32.8639 528.034C33.6019 527.512 34.5199 527.152 35.4199 527.152C36.5539 527.152 37.4179 527.656 37.4179 529.15V529.33H36.9499C35.0599 529.33 31.5139 529.654 31.5139 532.516ZM33.2599 532.372C33.2599 530.698 35.6719 530.59 36.9679 530.59H37.4179V530.932C37.4179 532.282 36.4999 533.83 34.9699 533.83C33.8359 533.83 33.2599 533.092 33.2599 532.372ZM41.7445 538.6H43.4905V534.46C43.4905 533.992 43.4185 533.668 43.4185 533.668H43.4545C44.0845 534.64 45.1285 535.216 46.2805 535.216C48.6745 535.216 50.4025 533.344 50.4025 530.446C50.4025 527.62 48.8725 525.676 46.4065 525.676C45.0745 525.676 43.9225 526.288 43.3465 527.386H43.3105C43.3105 527.386 43.3645 527.08 43.3645 526.702V525.892H41.7445V538.6ZM43.4365 530.482C43.4365 528.178 44.6965 527.206 46.0645 527.206C47.5765 527.206 48.6385 528.484 48.6385 530.464C48.6385 532.534 47.4505 533.704 46.0105 533.704C44.3365 533.704 43.4365 532.102 43.4365 530.482ZM52.1591 529.762C52.1591 532.912 53.5451 535.216 56.6231 535.216C59.1971 535.216 60.9251 533.416 60.9251 530.896C60.9251 528.322 59.3411 526.702 57.0551 526.702C55.8491 526.702 54.6431 527.098 53.8331 528.322H53.7971C53.9231 526.576 54.7871 525.514 56.6051 524.686L60.0971 523.228L59.5211 521.788L56.2631 523.192C53.0951 524.524 52.1591 526.504 52.1591 529.762ZM53.9771 530.896C53.9771 529.294 55.0751 528.088 56.6231 528.088C57.9911 528.088 59.1611 529.15 59.1611 530.932C59.1611 532.696 57.9911 533.74 56.5511 533.74C55.1471 533.74 53.9771 532.696 53.9771 530.896ZM62.346 532.516C62.346 534.226 63.804 535.216 65.388 535.216C66.738 535.216 67.854 534.406 68.376 533.362H68.412C68.412 533.362 68.358 533.668 68.358 534.082V535H69.996V529.24C69.996 526.936 68.682 525.676 66.396 525.676C65.118 525.676 63.732 526.144 62.994 526.756L63.696 528.034C64.434 527.512 65.352 527.152 66.252 527.152C67.386 527.152 68.25 527.656 68.25 529.15V529.33H67.782C65.892 529.33 62.346 529.654 62.346 532.516ZM64.092 532.372C64.092 530.698 66.504 530.59 67.8 530.59H68.25V530.932C68.25 532.282 67.332 533.83 65.802 533.83C64.668 533.83 64.092 533.092 64.092 532.372ZM71.9826 530.446C71.9826 533.146 73.9626 535.216 76.8246 535.216C78.0846 535.216 79.4706 534.73 80.3526 533.92L79.6146 532.642C78.8946 533.29 77.9046 533.704 76.9326 533.704C75.2946 533.704 73.8906 532.642 73.8006 530.68H80.4246C80.4606 530.428 80.4966 530.176 80.4966 529.942C80.4966 527.602 79.1286 525.676 76.5546 525.676C73.9626 525.676 71.9826 527.548 71.9826 530.446ZM73.8546 529.42C74.1066 527.908 75.1686 527.026 76.5186 527.026C77.7066 527.026 78.6786 527.854 78.7326 529.42H73.8546ZM82.5961 535H86.4841C88.4641 535 89.8321 534.1 89.8321 532.408C89.8321 531.4 89.2381 530.518 88.1041 530.248V530.23C88.9321 529.87 89.4001 529.114 89.4001 528.232C89.4001 526.702 88.1941 525.892 86.3581 525.892H82.5961V535ZM84.3421 529.744V527.098H85.9981C87.0961 527.098 87.6181 527.53 87.6181 528.358C87.6181 529.204 87.0961 529.744 86.0521 529.744H84.3421ZM84.3421 533.776V530.914H86.1961C87.4021 530.914 88.0681 531.454 88.0681 532.354C88.0681 533.2 87.4741 533.776 86.2141 533.776H84.3421ZM96.4477 534.388C97.1497 534.874 97.9057 535.216 98.7697 535.216C100.354 535.216 101.164 533.938 101.668 532.66L105.718 522.292H103.846L101.488 528.7C101.218 529.474 100.948 530.356 100.948 530.356H100.912C100.912 530.356 100.588 529.474 100.192 528.682L97.0957 522.292H95.1337L100.156 532.246C99.8137 533.128 99.4537 533.668 98.7157 533.668C98.1037 533.668 97.5637 533.272 97.2577 533.038L96.4477 534.388ZM106.52 535H108.266V531.094H112.874V535H114.62V525.892H112.874V529.6H108.266V525.892H106.52V535ZM117.313 535H118.987L122.929 529.564C123.217 529.132 123.667 528.52 123.721 528.358H123.757C123.757 528.502 123.703 529.132 123.703 529.564V535H125.395V525.892H123.703L119.779 531.328C119.473 531.76 119.041 532.39 118.969 532.552H118.933C118.951 532.462 118.987 531.814 118.987 531.328V525.892H117.313V535ZM128.071 535H131.959C133.939 535 135.307 534.1 135.307 532.408C135.307 531.4 134.713 530.518 133.579 530.248V530.23C134.407 529.87 134.875 529.114 134.875 528.232C134.875 526.702 133.669 525.892 131.833 525.892H128.071V535ZM129.817 529.744V527.098H131.473C132.571 527.098 133.093 527.53 133.093 528.358C133.093 529.204 132.571 529.744 131.527 529.744H129.817ZM129.817 533.776V530.914H131.671C132.877 530.914 133.543 531.454 133.543 532.354C133.543 533.2 132.949 533.776 131.689 533.776H129.817ZM136.828 530.446C136.828 533.146 138.808 535.216 141.67 535.216C142.93 535.216 144.316 534.73 145.198 533.92L144.46 532.642C143.74 533.29 142.75 533.704 141.778 533.704C140.14 533.704 138.736 532.642 138.646 530.68H145.27C145.306 530.428 145.342 530.176 145.342 529.942C145.342 527.602 143.974 525.676 141.4 525.676C138.808 525.676 136.828 527.548 136.828 530.446ZM138.7 529.42C138.952 527.908 140.014 527.026 141.364 527.026C142.552 527.026 143.524 527.854 143.578 529.42H138.7ZM147.442 538.6H149.188V534.46C149.188 533.992 149.116 533.668 149.116 533.668H149.152C149.782 534.64 150.826 535.216 151.978 535.216C154.372 535.216 156.1 533.344 156.1 530.446C156.1 527.62 154.57 525.676 152.104 525.676C150.772 525.676 149.62 526.288 149.044 527.386H149.008C149.008 527.386 149.062 527.08 149.062 526.702V525.892H147.442V538.6ZM149.134 530.482C149.134 528.178 150.394 527.206 151.762 527.206C153.274 527.206 154.336 528.484 154.336 530.464C154.336 532.534 153.148 533.704 151.708 533.704C150.034 533.704 149.134 532.102 149.134 530.482ZM157.658 530.446C157.658 533.182 159.656 535.216 162.536 535.216C163.958 535.216 165.344 534.64 166.172 533.758L165.47 532.48C164.768 533.218 163.67 533.704 162.662 533.704C160.772 533.704 159.44 532.282 159.44 530.428C159.44 528.574 160.772 527.188 162.608 527.188C163.562 527.188 164.516 527.62 165.128 528.232L165.956 527.008C165.092 526.09 163.742 525.676 162.536 525.676C159.674 525.676 157.658 527.746 157.658 530.446ZM168.061 535H169.735L173.677 529.564C173.965 529.132 174.415 528.52 174.469 528.358H174.505C174.505 528.502 174.451 529.132 174.451 529.564V535H176.143V525.892H174.451L170.527 531.328C170.221 531.76 169.789 532.39 169.717 532.552H169.681C169.699 532.462 169.735 531.814 169.735 531.328V525.892H168.061V535ZM181.015 535H182.743V527.386H185.929V525.892H177.847V527.386H181.015V535ZM186.75 530.446C186.75 533.146 188.73 535.216 191.592 535.216C192.852 535.216 194.238 534.73 195.12 533.92L194.382 532.642C193.662 533.29 192.672 533.704 191.7 533.704C190.062 533.704 188.658 532.642 188.568 530.68H195.192C195.228 530.428 195.264 530.176 195.264 529.942C195.264 527.602 193.896 525.676 191.322 525.676C188.73 525.676 186.75 527.548 186.75 530.446ZM188.622 529.42C188.874 527.908 189.936 527.026 191.286 527.026C192.474 527.026 193.446 527.854 193.5 529.42H188.622ZM199.454 535H201.182V527.386H204.368V525.892H196.286V527.386H199.454V535Z" fill="#424754"/>
<g clip-path="url(#clip0)">
<path d="M1099.31 241.393C1098.04 238.125 1099.86 236.491 1100.58 233.586C1101.31 230.681 1098.95 221.603 1098.95 221.603C1098.95 221.603 1091.32 190.193 1088.96 184.02C1087.96 181.408 1085.79 179.611 1083.62 178.404C1083.47 177.603 1083.26 177.086 1082.96 176.939C1080.86 175.887 1075.62 173.603 1072.12 172.971C1071.47 171.849 1070.7 170.802 1069.81 169.849C1070.43 168.672 1070.71 167.352 1070.64 166.027C1070.41 162.602 1067.82 159.532 1068.16 156.116C1068.41 153.526 1070.31 151.397 1071.04 148.899C1071.35 147.777 1071.42 146.603 1071.25 145.452C1071.09 144.301 1070.69 143.196 1070.07 142.206C1070.61 142.777 1071.15 143.348 1071.69 143.92C1072.42 142.825 1072.77 141.521 1072.69 140.207C1072.61 138.893 1072.1 137.642 1071.24 136.645C1069.54 134.767 1066.69 134.062 1065.37 131.899C1064.01 129.676 1064.74 126.655 1063.46 124.388C1060.32 118.836 1052.27 122.772 1047.45 120.834C1045.47 120.038 1043.97 119.161 1041.74 119.224C1039.85 119.333 1037.97 119.683 1036.17 120.265C1033.58 121.014 1031.32 122.629 1029.78 124.84C1029.93 124.667 1030.1 124.508 1030.28 124.364C1031.45 123.449 1033.5 123.525 1034.11 124.874C1034.26 125.213 1034.32 125.582 1034.29 125.951C1034.19 127.576 1032.77 128.79 1031.36 129.604C1029.95 130.417 1028.36 131.098 1027.44 132.441C1025.92 134.658 1026.81 137.634 1026.81 140.322C1026.8 142.03 1026.4 143.714 1025.65 145.249C1024.9 146.784 1023.82 148.132 1022.48 149.192L1027.6 147.098C1025.16 151.379 1023.55 156.089 1022.87 160.973L1029.8 155.25C1027.23 159.333 1025.67 163.967 1025.25 168.771L1030.81 163.074C1031.07 163.519 1031.19 164.025 1031.18 164.536L1030.6 166.773C1030.39 167.217 1030.17 167.65 1029.92 168.071C1029.02 169.607 1028.1 171.498 1028.94 173.067L1028.94 173.065C1028.06 176.028 1026.73 178.994 1023.77 180.435C1027.05 180.778 1030.48 179.138 1031.96 176.529C1032.2 176.999 1032.49 177.441 1032.83 177.847C1032.92 177.966 1033.02 178.085 1033.11 178.203L1032.29 178.748L1030.1 180.208C1030.1 180.208 1015.75 183.112 1016.66 188.559C1016.7 188.783 1016.74 189.051 1016.79 189.351L1012.66 196.366L1006.67 216.701C1006.67 216.701 1003.58 223.237 1004.13 225.961C1004.67 228.684 1004.13 229.773 1004.13 234.675C1004.13 239.578 1001.76 241.575 1004.13 245.569C1006.49 249.563 1013.57 261.183 1013.57 261.183L1015.13 262.35C1015.05 263.05 1015.08 263.758 1015.21 264.451C1016.66 271.714 1030.28 341.251 1030.28 341.251C1030.28 341.251 1023.38 396.264 1037.37 399.713C1039.12 400.146 1040.85 400.538 1042.52 400.888L1044.63 414.783L1043.36 432.394C1043.36 432.394 1033.74 454.181 1051.36 455.452C1068.98 456.723 1060.98 436.57 1060.98 436.57C1061.91 434.849 1062.29 432.885 1062.07 430.942C1061.89 429.325 1060.38 420.915 1058.9 412.826C1065.58 412.024 1064.33 404.931 1063.44 401.812C1063.83 401.587 1064.12 401.228 1064.25 400.803C1064.45 400.078 1063.99 397.229 1063.13 393.237C1062.44 389.268 1061.26 382.842 1060.45 378.49L1064.8 379.197L1083.14 271.714C1083.14 271.714 1083.27 270.003 1083.21 267.5C1085.72 266.203 1088.31 265.064 1090.96 264.088C1096.95 261.728 1099.31 253.013 1101.31 249.382C1103.31 245.751 1100.58 244.661 1099.31 241.393ZM1034.17 172.958C1034.76 172.549 1035.46 172.313 1036.18 172.277C1036.02 173.122 1034.57 173.368 1033.35 173.811C1033.58 173.483 1033.85 173.195 1034.17 172.958ZM1025.02 227.05C1026.49 229.467 1023.82 236.015 1021.42 241.212C1020.05 240.027 1018.61 240.4 1020.29 237.036C1021.44 234.904 1022.12 232.552 1022.29 230.137C1022.29 229.721 1022.5 226.671 1024.29 225.404C1024.48 225.974 1024.72 226.525 1025.02 227.05ZM1019.5 247.907C1020.34 247.569 1021.6 247.048 1023.3 246.469C1022.48 247.54 1021.55 248.815 1020.62 250.207C1020.26 249.939 1019.98 249.591 1019.78 249.191C1019.59 248.791 1019.49 248.351 1019.5 247.907ZM1078.42 250.29C1077.32 249.117 1076.42 248.068 1075.69 247.129C1077.06 247.49 1078.46 247.877 1079.87 248.292C1080.58 248.398 1081.3 248.35 1081.99 248.152C1082.05 249.407 1082.05 251.197 1082.05 251.197L1080.07 252.574C1079.61 251.749 1079.06 250.982 1078.42 250.29V250.29ZM1084.06 243.993C1084.04 244.011 1084.01 244.033 1083.99 244.052C1083.9 243.334 1083.73 242.627 1083.51 241.938C1082.32 238.185 1081.68 231.527 1081.34 225.845L1084.78 237.399C1084.78 237.399 1084.96 243.209 1084.06 243.993Z" fill="#D0CDE1"/>
<path d="M1013.5 196.271C1013.5 196.271 994.861 164.256 994.278 160.764C993.696 157.271 984.378 150.868 984.378 150.868C981.194 147.686 975.97 146.68 970.473 146.732C972.543 145.02 965.152 143.869 964.576 142.719C963.994 141.555 962.247 141.555 959.917 139.809C957.588 138.063 951.773 139.518 951.773 139.518C950.898 137.679 950.29 135.726 949.966 133.717C952.448 130.782 953.807 127.062 953.802 123.219C953.802 123.177 953.8 123.136 953.799 123.095C953.947 123.325 954.096 123.557 954.244 123.796C955.335 117.265 957.261 111.835 953.59 105.877C950.988 101.654 946.916 98.5423 942.156 97.1405L938.66 99.9358L940.019 96.6754C938.876 96.5011 937.72 96.4343 936.564 96.4758L933.419 100.518L934.721 96.6142C931.991 96.9533 929.362 97.8538 926.998 99.2591C924.634 100.664 922.587 102.544 920.987 104.779C916.983 110.549 917.251 118.569 921.189 124.383C921.202 124.343 921.212 124.303 921.225 124.262C921.399 126.982 922.253 129.616 923.709 131.921C925.164 134.225 927.175 136.129 929.557 137.456L930.546 145.364C929.656 146.19 928.514 146.694 927.304 146.794C925.557 146.794 923.809 151.451 923.809 151.451C923.809 151.451 922.819 151.95 921.752 154.308C919.003 156.179 910.617 162.055 907.505 166.161C905.665 167.066 903.687 169.08 904.008 173.57C904.591 181.719 904.008 219.555 904.008 219.555C904.008 219.555 898.767 251.57 900.514 253.898C902.261 256.227 899.932 263.794 899.932 263.794L901.679 264.182V266.122C901.679 266.122 896.424 290.47 904.591 289.406C917.986 287.659 908.085 267.868 908.085 267.868V265.605L910.415 266.122C910.415 266.122 911.579 257.973 913.909 257.391C914.719 257.188 915.67 255.012 916.566 252.262C917.089 256.553 917.403 259.137 917.403 259.137L921.047 258.328L922.062 262.047C922.313 262.188 922.574 262.306 922.845 262.402L922.062 266.704C922.062 266.704 921.48 271.361 922.062 274.271C922.356 275.739 933.167 307.113 943.812 337.855L943.611 345.286C943.611 345.286 938.369 351.107 939.534 355.182C940.699 359.256 936.622 393.017 936.622 393.017L933.128 409.898L934.007 410.168L933.2 413.126C932.505 413.477 931.886 413.963 931.381 414.555C926.721 419.793 920.898 434.928 920.898 434.928C920.898 434.928 910.415 450.644 926.721 450.062C943.028 449.48 944.193 443.659 944.193 443.659C944.193 443.659 946.523 428.525 946.523 427.943C946.523 427.361 945.358 421.377 945.358 421.377L944.905 420.878L945.221 413.617L948.27 414.555C948.27 414.555 951.182 399.42 953.511 397.674C954.325 397.064 956.491 390.265 958.965 381.533C961.492 388.808 963.94 413.963 964.735 416.246C964.453 416.63 964.205 417.038 963.994 417.465C961.376 422.486 958.459 427.346 955.258 432.017C955.258 432.017 936.622 443.077 955.258 445.987C955.258 445.987 965.741 446.569 970.983 443.077C976.224 439.584 990.201 434.346 990.201 433.181C990.201 432.017 986.707 414.904 983.213 416.767L980.872 411.386L983.213 410.48L968.468 344.332C968.817 342.922 969.073 341.491 969.236 340.047C969.236 336.999 976.777 277.645 978.696 262.59C987.141 264.981 994.861 247.495 994.861 247.495L996.775 244.051L999.52 245.749C999.52 245.749 1001.85 239.928 1005.34 239.346C1008.84 238.764 1015.24 207.913 1015.24 203.839C1015.19 201.223 1014.6 198.646 1013.5 196.271ZM986.362 241.877C985.789 240.968 985.124 240.12 984.378 239.346C985.9 235.382 987.07 231.292 987.872 227.122C989.037 220.719 986.125 199.764 986.125 199.764L986.074 198.341C988.932 202.091 992.531 207.091 992.531 208.495C992.531 209.173 992.689 209.841 992.992 210.448C993.295 211.054 993.736 211.581 994.278 211.988L990.784 224.212C990.784 224.212 988.454 230.032 987.872 232.943C987.523 234.668 987.328 236.422 987.29 238.182L988.115 238.692L986.362 241.877Z" fill="#D0CDE1"/>
<path d="M746.878 207.045L749.986 206.346L737.173 170.257L709.51 160.07C709.51 160.07 709.404 160.188 709.208 160.39C706.849 158.108 705.847 154.796 705.429 152.189C707.653 151.291 709.652 149.913 711.283 148.154C712.913 146.394 714.135 144.297 714.861 142.011C715.587 139.726 715.799 137.308 715.482 134.931C715.166 132.554 714.328 130.276 713.029 128.26C715.308 127.713 716.122 125.646 716.887 123.182C716.414 123.042 715.93 122.937 715.442 122.867C715.8 122.063 716.159 121.26 716.517 120.457C715.887 120.4 715.257 120.343 714.627 120.287C714.788 119.536 714.949 118.785 715.11 118.034C714.307 118.588 713.503 119.142 712.7 119.697C712.973 118.908 713.041 118.063 712.897 117.242C712.754 116.42 712.403 115.648 711.879 114.998C710.812 113.71 709.421 112.729 707.848 112.157C704.772 110.948 701.423 110.609 698.167 111.178C694.911 111.746 691.875 113.201 689.392 115.381L689.218 114.703C684.301 118.481 681.084 124.053 680.271 130.198C679.5 136.273 682.42 142.458 686.214 147.265C686.182 147.055 686.148 146.845 686.113 146.636C686.277 146.862 686.447 147.084 686.621 147.301L687.088 165.018L685.92 166.019C685.918 166.02 666.318 174.883 665.554 185.469L665.551 185.477C664.375 190.63 663.792 217.406 663.792 217.406H665.405L663.792 227.884L653.31 268.63C653.31 268.63 639.915 286.093 651.562 289.585C658.8 291.755 660.865 283.362 661.392 276.695C661.811 278.348 663.066 279.465 665.54 279.69C665.734 279.707 665.942 279.722 666.143 279.738C660.636 293.964 664.375 340.227 664.375 340.227C661.463 346.048 695.824 386.212 695.824 386.212L697.893 385.109L698.34 386.004C697.189 386.114 696.406 386.212 696.406 386.212V404.257C696.406 404.257 691.165 422.301 698.153 425.794C699.962 426.698 701.848 426.04 703.651 424.572C703.306 430.141 702.812 438.451 702.812 440.346C702.812 443.256 710.383 448.495 710.383 448.495C710.383 448.495 712.131 454.898 726.108 454.898C740.085 454.898 729.602 438.018 729.602 438.018L722.031 421.137C722.031 421.137 721.465 421.414 719.75 420.019L720.364 413.269L723.778 413.57L728.437 345.466C728.437 345.466 732.514 284.928 733.096 275.615C733.233 272.629 733.163 269.637 732.886 266.661L749.986 231.376L746.878 207.045ZM734.261 229.63L732.514 235.715V222.257L734.261 229.63ZM661.554 272.797C661.569 270.664 661.463 269.212 661.463 269.212L672.849 246.452L672.528 253.496C672.528 253.496 663.41 265.024 661.554 272.797ZM688.253 338.481L699.318 299.481L705.724 346.63L705.265 363.771C704.485 362.196 703.859 360.549 703.395 358.854C701.648 351.869 688.253 338.481 688.253 338.481Z" fill="#D0CDE1"/>
<path d="M845.853 431.124C840.396 428.878 829.803 424.065 828.519 421.499C827.235 418.932 820.816 399.041 820.816 399.041L819.162 399.162C818.949 390.126 818.039 355.105 816.643 350.918C816.643 350.918 823.384 295.416 809.902 273.28L807.473 263.472C808.27 259.54 808.168 250.435 807.655 248.897C807.013 246.973 815.038 240.877 812.791 237.027C810.544 233.177 804.446 220.024 804.446 220.024C804.446 220.024 805.087 211.682 796.421 203.983C796.421 203.983 793.888 189.652 782.476 189.438C780.933 186.747 778.773 182.468 779.409 180.563C780.089 178.523 782.69 172.163 784.16 168.603C784.94 168.251 785.69 167.834 786.4 167.357C795.477 163.292 801.875 153.521 801.875 142.107C801.875 129.888 794.546 119.547 784.445 116.079C784.895 114.894 785.079 113.624 784.984 112.36C784.889 111.096 784.517 109.868 783.895 108.763C783.273 107.658 782.416 106.703 781.385 105.966C780.353 105.228 779.172 104.726 777.925 104.495C776.678 104.264 775.395 104.309 774.168 104.628C772.94 104.947 771.797 105.531 770.82 106.34C769.844 107.148 769.056 108.161 768.514 109.307C767.972 110.453 767.688 111.704 767.683 112.972C767.128 111.656 766.907 110.223 767.04 108.801C767.174 107.379 767.658 106.012 768.449 104.822C769.239 103.632 770.313 102.657 771.573 101.983C772.833 101.309 774.24 100.957 775.669 100.959C776.231 100.96 776.793 101.015 777.344 101.124C775.441 100.219 773.274 100.04 771.248 100.618C769.221 101.196 767.476 102.493 766.338 104.266C765.2 106.039 764.748 108.165 765.066 110.247C765.385 112.329 766.452 114.224 768.067 115.576C768.167 115.892 768.285 116.203 768.421 116.506C758.916 120.34 752.136 130.355 752.136 142.107C752.136 153.008 757.972 162.411 766.402 166.776C766.357 170.322 765.478 176.3 760.585 179.944C758.057 178.789 754.55 177.522 752.299 178.097C751.135 177.19 749.379 176.891 746.989 179.279C742.174 184.092 738.002 196.604 738.002 204.303C738.002 212.003 738.965 256.597 738.965 256.597C738.965 256.597 733.829 258.522 737.36 261.409C738.089 262.017 739.004 262.356 739.953 262.373L743.458 288.358C743.458 288.358 741.211 313.382 749.878 313.703C750.558 313.741 751.233 313.575 751.818 313.227L745.384 342.256C745.384 342.256 730.619 351.881 719.064 370.809C713.112 380.559 710.144 386.556 708.662 390.087L706.545 388.775L699.162 402.891C699.162 402.891 682.792 412.837 686.323 420.216C689.854 427.595 693.064 429.52 693.064 429.52L695.311 428.557L699.483 436.257C699.483 436.257 710.397 451.977 728.051 443.956C728.88 442.844 729.327 441.494 729.327 440.107C729.327 438.72 728.88 437.37 728.051 436.257C725.162 432.086 717.78 423.103 717.78 423.103L722.594 398.721L721.598 398.103L752.125 361.185C752.125 361.185 761.113 355.731 764.322 350.918C767.532 346.106 787.433 296.379 787.433 296.379L798.668 348.352C798.668 348.352 798.026 367.28 800.915 379.472C802.489 386.31 803.516 393.263 803.985 400.265L803.162 400.325L805.087 414.762C805.087 414.762 796.742 435.294 802.52 436.898C806.63 437.96 810.815 438.71 815.038 439.144L815.68 436.898C815.68 436.898 840.396 450.373 849.383 440.427C849.383 440.427 851.309 433.369 845.853 431.124ZM757.903 273.601C758.866 274.563 758.545 279.055 758.545 279.055L756.619 291.567L754.695 300.245C754.429 296.145 753.892 292.067 753.088 288.038L752.199 264.06C752.374 264.17 752.566 264.25 752.767 264.297C753.409 264.297 753.088 258.843 753.088 258.843C753.088 258.843 753.462 257.869 753.93 256.332C755.178 260.066 756.701 262.502 758.545 263.014L758.866 267.184C758.866 267.184 754.693 269.109 758.545 269.109C758.768 269.101 758.99 269.068 759.206 269.011L758.866 270.713C758.866 270.713 756.94 272.638 757.903 273.601Z" fill="#D0CDE1"/>
<path d="M840.366 446.069C982.87 446.069 1098.39 444.166 1098.39 441.818C1098.39 439.47 982.87 437.567 840.366 437.567C697.862 437.567 582.34 439.47 582.34 441.818C582.34 444.166 697.862 446.069 840.366 446.069Z" fill="#3F3D56"/>
<path d="M930.675 463.781C1087.43 463.781 1214.5 458.865 1214.5 452.8C1214.5 446.735 1087.43 441.818 930.675 441.818C773.921 441.818 646.848 446.735 646.848 452.8C646.848 458.865 773.921 463.781 930.675 463.781Z" fill="#3F3D56"/>
<path d="M878.292 480.077C955.22 480.077 1017.58 475.16 1017.58 469.095C1017.58 463.03 955.22 458.113 878.292 458.113C801.363 458.113 739 463.03 739 469.095C739 475.16 801.363 480.077 878.292 480.077Z" fill="#3F3D56"/>
<path d="M1079.61 487.87C1113.86 487.87 1141.63 485.333 1141.63 482.202C1141.63 479.072 1113.86 476.534 1079.61 476.534C1045.35 476.534 1017.58 479.072 1017.58 482.202C1017.58 485.333 1045.35 487.87 1079.61 487.87Z" fill="#3F3D56"/>
<path d="M994.545 507C1010.79 507 1023.96 504.462 1023.96 501.332C1023.96 498.202 1010.79 495.664 994.545 495.664C978.298 495.664 965.127 498.202 965.127 501.332C965.127 504.462 978.298 507 994.545 507Z" fill="#3F3D56"/>
<path d="M754.949 482.911C771.196 482.911 784.367 480.373 784.367 477.243C784.367 474.113 771.196 471.575 754.949 471.575C738.702 471.575 725.531 474.113 725.531 477.243C725.531 480.373 738.702 482.911 754.949 482.911Z" fill="#3F3D56"/>
<path d="M900.266 413.123L903.101 432.961L917.278 431.544L915.861 410.998L900.266 413.123Z" fill="#FFB8B8"/>
<path d="M832.923 413.123L830.087 432.961L815.91 431.544L817.328 410.998L832.923 413.123Z" fill="#FFB8B8"/>
<path d="M812.366 207.658C812.366 207.658 799.607 222.537 802.442 245.918C805.278 269.298 810.24 322.436 810.24 322.436L813.784 416.666L836.468 415.249L840.012 335.189L851.354 270.715L881.835 345.816C881.835 345.816 896.721 415.958 897.43 415.958C898.139 415.958 918.696 413.832 918.696 413.832L908.772 330.938C908.772 330.938 893.177 210.492 883.962 208.367C874.746 206.241 812.366 207.658 812.366 207.658Z" fill="#2F2E41"/>
<path d="M918.695 428.711C918.695 428.711 905.936 420.209 900.974 430.128C896.012 440.047 900.265 447.132 900.265 447.132C900.265 447.132 904.518 449.966 902.392 452.8C900.265 455.634 899.556 474.055 917.986 471.221C936.417 468.387 927.202 449.257 927.202 449.257L918.695 428.711Z" fill="#2F2E41"/>
<path d="M814.494 428.711C814.494 428.711 827.253 420.209 832.215 430.128C837.177 440.047 832.924 447.132 832.924 447.132C832.924 447.132 828.671 449.966 830.798 452.8C832.924 455.634 833.633 474.055 815.203 471.221C796.772 468.387 805.987 449.257 805.987 449.257L814.494 428.711Z" fill="#2F2E41"/>
<path d="M829.734 69.855C829.734 69.855 836.114 87.5675 831.152 97.4865C826.19 107.406 838.95 118.742 838.95 118.742C838.95 118.742 872.266 101.738 868.013 93.2355C863.76 84.7335 856.671 73.3975 858.089 66.3125L829.734 69.855Z" fill="#FFB8B8"/>
<path d="M842.139 76.5858C854.667 76.5858 864.822 66.4351 864.822 53.9137C864.822 41.3923 854.667 31.2417 842.139 31.2417C829.611 31.2417 819.455 41.3923 819.455 53.9137C819.455 66.4351 829.611 76.5858 842.139 76.5858Z" fill="#FFB8B8"/>
<path d="M834.252 53.7603C834.252 53.7603 832.883 54.6261 831.455 54.8733C830.032 55.1195 828.012 54.4453 828.012 54.4453" stroke="#222224"/>
<path d="M850.977 50.7031C850.977 50.7031 849.686 51.6824 848.284 52.0503C846.887 52.4169 844.818 51.9171 844.818 51.9171" stroke="#222224"/>
<path d="M825.834 96.4238C825.834 96.4238 848.594 115.354 865.569 88.5305L883.252 98.5493L892.467 206.241C892.467 206.241 840.72 235.998 815.91 210.492L819.454 110.594L825.834 96.4238Z" fill="#D0CDE1"/>
<path d="M832.982 85.8193L801.025 107.051L812.367 159.48L797.48 240.958L821.582 204.824L832.982 85.8193Z" fill="#575A89"/>
<path d="M861.227 79.9097L869.076 85.0877L900.975 96.4237L896.013 184.278L909.481 240.958L890.342 250.877C890.342 250.877 886.798 223.954 864.823 210.492C842.848 197.031 856.213 83.9421 861.227 79.9097Z" fill="#575A89"/>
<path d="M808.114 217.577L817.329 223.954C817.329 223.954 805.633 236.353 803.506 234.227C802.891 233.637 802.413 232.918 802.107 232.122C801.8 231.326 801.673 230.472 801.734 229.622L799.607 224.662L808.114 217.577Z" fill="#FFB8B8"/>
<path d="M869.372 216.199L866.239 221.12C866.239 221.12 857.024 225.371 859.151 228.205C861.277 231.039 878.999 237.416 882.543 231.039L886.087 224.663L869.372 216.199Z" fill="#FFB8B8"/>
<path d="M805.278 106.343L800.316 107.051L792.164 159.835C792.164 159.835 788.974 169.399 792.518 192.071C796.063 214.743 799.573 229.507 799.573 229.507L815.202 218.286L808.113 199.865L817.329 132.557L805.278 106.343Z" fill="#575A89"/>
<path d="M889.633 95.0068L900.975 96.4238C900.975 96.4238 913.734 109.885 915.861 124.055C917.987 138.225 917.278 178.61 917.278 178.61L884.671 230.33L866.949 217.577L891.759 173.65L879.709 121.221L889.633 95.0068Z" fill="#575A89"/>
<path d="M863.77 33.4081C860.34 27.8407 854.971 23.7382 848.696 21.8901L844.087 25.5752L845.879 21.2769C844.372 21.0472 842.847 20.9591 841.324 21.0138L837.177 26.3426L838.894 21.1963C835.295 21.6432 831.829 22.8305 828.712 24.6832C825.596 26.5359 822.898 29.0139 820.787 31.9609C815.51 39.567 814.619 50.1448 819.81 57.8105C821.235 53.4336 822.964 49.3267 824.389 44.9498C825.509 45.1024 826.644 45.1079 827.766 44.9662L829.499 40.9231L829.984 44.7952C835.357 44.3273 843.327 43.3 848.422 42.3588L847.926 39.3883L850.89 41.8568C852.451 41.4976 853.377 41.172 853.301 40.9231C857.089 47.0278 860.844 50.927 864.632 57.0317C866.07 48.4208 868.609 41.2632 863.77 33.4081Z" fill="#2F2E41"/>
<path d="M862.514 56.271C863.362 56.271 864.05 54.8967 864.05 53.2014C864.05 51.5061 863.362 50.1318 862.514 50.1318C861.666 50.1318 860.979 51.5061 860.979 53.2014C860.979 54.8967 861.666 56.271 862.514 56.271Z" fill="#FFB8B8"/>
<path d="M1107.87 453.919C1108.52 476.278 1095.45 484.472 1079.05 484.951C1078.67 484.962 1078.29 484.969 1077.91 484.972C1077.15 484.978 1076.4 484.965 1075.65 484.934C1060.81 484.318 1049.07 476.447 1048.46 455.653C1047.84 434.134 1074.56 406.174 1076.56 404.106L1076.57 404.104C1076.64 404.025 1076.68 403.986 1076.68 403.986C1076.68 403.986 1107.22 431.562 1107.87 453.919Z" fill="#F04B5D"/>
<path d="M1077.87 481.563L1088.29 466.075L1077.89 483.229L1077.91 484.972C1077.15 484.977 1076.4 484.965 1075.65 484.934L1076.17 462.531L1076.15 462.359L1076.17 462.325L1076.22 460.208L1064.81 443.649L1076.21 458.624L1076.25 459.071L1076.64 442.146L1066.78 424.977L1076.67 439.172L1076.56 404.106L1076.56 403.99L1076.57 404.104L1077.22 431.741L1086.2 420.515L1077.25 434.122L1077.45 449.262L1085.71 434.486L1077.48 451.487L1077.59 459.906L1089.61 439.323L1077.62 462.843L1077.87 481.563Z" fill="#3F3D56"/>
<path d="M727.918 420.62C728.572 442.979 715.501 451.173 699.097 451.652C698.716 451.663 698.337 451.67 697.959 451.672C697.198 451.678 696.445 451.665 695.699 451.634C680.864 451.019 669.12 443.148 668.513 422.354C667.884 400.835 694.608 372.875 696.613 370.807L696.616 370.805C696.692 370.726 696.731 370.687 696.731 370.687C696.731 370.687 727.265 398.263 727.918 420.62Z" fill="#F04B5D"/>
<path d="M697.916 448.263L708.337 432.775L697.938 449.929L697.959 451.672C697.199 451.678 696.445 451.665 695.7 451.634L696.216 429.232L696.202 429.059L696.221 429.026L696.271 426.909L684.859 410.349L696.257 425.324L696.298 425.772L696.688 408.846L686.832 391.678L696.716 405.873L696.613 370.807L696.613 370.69L696.617 370.805L697.271 398.441L706.254 387.215L697.3 400.822L697.496 415.962L705.762 401.186L697.527 418.188L697.636 426.606L709.657 406.024L697.672 429.543L697.916 448.263Z" fill="#3F3D56"/>
<path d="M1011.83 485.441C1012.21 498.565 1004.54 503.375 994.914 503.656C994.69 503.663 994.467 503.667 994.246 503.668C993.799 503.671 993.357 503.664 992.919 503.646C984.211 503.284 977.318 498.664 976.961 486.459C976.592 473.828 992.278 457.416 993.455 456.202L993.457 456.201C993.502 456.155 993.525 456.131 993.525 456.131C993.525 456.131 1011.45 472.318 1011.83 485.441Z" fill="#F04B5D"/>
<path d="M994.221 501.667L1000.34 492.576L994.233 502.645L994.246 503.668C993.8 503.671 993.357 503.664 992.919 503.646L993.223 490.496L993.215 490.395L993.226 490.375L993.255 489.132L986.557 479.412L993.247 488.202L993.271 488.465L993.5 478.53L987.714 468.453L993.516 476.785L993.456 456.202L993.456 456.133L993.458 456.201L993.842 472.423L999.115 465.833L993.859 473.82L993.974 482.707L998.826 474.034L993.992 484.013L994.056 488.955L1001.11 476.873L994.077 490.679L994.221 501.667Z" fill="#3F3D56"/>
<path d="M1249.94 57.2661C1249.96 57.2015 1249.98 57.1361 1250 57.0713C1249.99 57.0997 1249.98 57.127 1249.97 57.1555L1249.94 57.2661Z" fill="#2F2E41"/>
<path d="M1150.88 433.212L1203.38 355.173L1150.99 441.607L1151.1 450.388C1147.26 450.418 1143.47 450.354 1139.71 450.197L1142.31 337.319L1142.24 336.448L1142.34 336.28L1142.59 325.614L1085.09 242.176L1142.52 317.63L1142.72 319.885L1144.69 234.601L1095.03 148.095L1144.83 219.619L1144.31 42.933L1144.31 42.345L1144.33 42.9233L1147.63 182.176L1192.89 125.611L1147.78 194.172L1148.76 270.457L1190.41 196.006L1148.92 281.672L1149.47 324.09L1210.04 220.381L1149.65 338.887L1150.88 433.212Z" fill="#3F3D56"/>
<path d="M614.768 430.187L650.496 377.084L614.841 435.9L614.916 441.875C612.308 441.895 609.725 441.851 607.167 441.745L608.939 364.934L608.891 364.342L608.956 364.227L609.126 356.969L570 300.192L609.08 351.537L609.218 353.071L610.557 295.038L576.763 236.173L610.653 284.843L610.299 164.613L610.3 164.213L610.312 164.607L612.555 259.364L643.354 220.874L612.656 267.527L613.328 319.436L641.67 268.775L613.432 327.068L613.806 355.932L655.023 285.361L613.931 366.002L614.768 430.187Z" fill="#3F3D56"/>
</g>
<defs>
<clipPath id="clip0">
<rect x="570" y="21" width="680" height="486" fill="white"/>
</clipPath>
</defs>
</svg>
