<svg width="694" height="305" viewBox="0 0 694 305" fill="none" xmlns="http://www.w3.org/2000/svg">
<path d="M198.001 176H207.469C212.581 176 217.261 173.948 217.261 168.332C217.261 166.064 216.181 163.436 213.229 162.536V162.464C215.173 161.348 216.217 159.152 216.217 156.992C216.217 152.564 212.617 150.26 207.469 150.26H198.001V176ZM204.301 160.232V155.66H207.433C209.125 155.66 209.809 156.668 209.809 157.856C209.809 159.08 209.125 160.232 207.541 160.232H204.301ZM204.301 170.6V165.272H208.117C209.953 165.272 210.817 166.46 210.817 167.9C210.817 169.34 209.917 170.6 208.081 170.6H204.301ZM219.478 166.712C219.478 171.644 223.042 176.432 229.666 176.432C232.51 176.432 235.57 175.46 237.586 173.732L235.282 169.376C233.77 170.384 232.006 171.248 230.17 171.248C228.19 171.248 226.318 170.204 225.85 167.936H237.55C237.622 167.288 237.694 166.64 237.694 165.992C237.694 160.844 234.598 157.028 229.126 157.028C223.15 157.028 219.478 161.276 219.478 166.712ZM225.994 164.372C226.318 162.896 227.182 161.6 228.982 161.6C230.566 161.6 231.538 162.86 231.538 164.372H225.994ZM247.647 171.068C248.943 168.584 249.303 165.884 249.303 163.076V162.392H252.507V171.068H247.647ZM239.223 171.068V180.32H244.983V176H255.855V180.32H261.399V171.068H258.735V157.46H243.435V161.924C243.435 165.668 242.751 168.98 241.527 171.068H239.223ZM263.001 166.712C263.001 171.644 266.565 176.432 273.189 176.432C276.033 176.432 279.093 175.46 281.109 173.732L278.805 169.376C277.293 170.384 275.529 171.248 273.693 171.248C271.713 171.248 269.841 170.204 269.373 167.936H281.073C281.145 167.288 281.217 166.64 281.217 165.992C281.217 160.844 278.121 157.028 272.649 157.028C266.673 157.028 263.001 161.276 263.001 166.712ZM269.517 164.372C269.841 162.896 270.705 161.6 272.505 161.6C274.089 161.6 275.061 162.86 275.061 164.372H269.517ZM283.679 176H289.619L290.051 167.468C290.123 166.028 290.015 164.3 290.015 164.3H290.087C290.087 164.3 290.771 165.848 291.167 167.036L293.615 173.516H298.655L301.103 167.036C301.571 165.884 302.111 164.3 302.111 164.3H302.183C302.183 164.3 302.111 166.028 302.147 167.468L302.579 176H308.555L306.791 157.46H299.627L296.891 165.596C296.567 166.532 296.135 167.756 296.135 167.756H296.099C296.099 167.756 295.703 166.532 295.379 165.596L292.643 157.46H285.443L283.679 176ZM319.884 166.784C319.884 172.58 324.564 176.432 330.396 176.432C336.228 176.432 340.908 172.58 340.908 166.784C340.908 160.952 336.228 157.028 330.36 157.028C324.564 157.028 319.884 160.952 319.884 166.784ZM326.184 166.784C326.184 163.976 328.128 162.212 330.396 162.212C332.664 162.212 334.608 163.976 334.608 166.784C334.608 169.556 332.664 171.248 330.396 171.248C328.128 171.248 326.184 169.556 326.184 166.784ZM343.198 164.912C343.198 171.716 346.546 176.432 353.242 176.432C359.11 176.432 362.818 172.544 362.818 167.432C362.818 162.464 359.794 158.936 354.826 158.936C353.206 158.936 350.974 159.368 349.39 160.7H349.318C349.426 158.036 351.946 157.028 354.322 156.236L361.306 154.004L359.542 149L353.53 151.016C346.294 153.5 343.198 157.352 343.198 164.912ZM349.39 167.54C349.39 165.128 351.046 163.616 352.99 163.616C354.934 163.616 356.59 165.128 356.59 167.54C356.59 169.916 354.934 171.356 352.99 171.356C351.046 171.356 349.39 169.916 349.39 167.54ZM365.581 177.692L363.601 182.264C363.601 182.264 365.473 183.56 367.921 183.56C370.873 183.56 374.113 182.12 375.661 177.98L383.257 157.46H376.453L374.113 166.1C373.861 167.108 373.501 168.872 373.501 168.872H373.429C373.429 168.872 373.069 167 372.745 165.992L370.009 157.46H362.952L370.837 175.64L370.477 176.504C369.829 178.088 368.497 178.376 367.489 178.376C366.589 178.376 365.581 177.692 365.581 177.692ZM390.908 170.312C393.176 170.312 394.832 169.808 395.876 169.34H395.948C395.948 169.34 395.912 169.808 395.912 170.204V176H402.14V157.46H395.912V164.336C395.3 164.768 394.364 165.236 393.104 165.236C391.556 165.236 390.728 164.336 390.728 162.752V157.46H384.608V163.94C384.608 168.8 387.92 170.312 390.908 170.312ZM405.278 166.712C405.278 171.644 408.842 176.432 415.466 176.432C418.31 176.432 421.37 175.46 423.386 173.732L421.082 169.376C419.57 170.384 417.806 171.248 415.97 171.248C413.99 171.248 412.118 170.204 411.65 167.936H423.35C423.422 167.288 423.494 166.64 423.494 165.992C423.494 160.844 420.398 157.028 414.926 157.028C408.95 157.028 405.278 161.276 405.278 166.712ZM411.794 164.372C412.118 162.896 412.982 161.6 414.782 161.6C416.366 161.6 417.338 162.86 417.338 164.372H411.794ZM426.748 176H432.976V169.232H438.7V176H444.928V157.46H438.7V164.012H432.976V157.46H426.748V176ZM449.108 176H455.156L460.304 167.864C460.592 167.36 460.988 166.784 461.312 166.028H461.384C461.312 166.748 461.312 167.468 461.312 167.9V176H467.18V157.46H461.132L455.984 165.632C455.66 166.172 455.3 166.712 454.976 167.468H454.904C454.94 167 454.976 166.28 454.976 165.632V157.46H449.108V176ZM470.317 166.712C470.317 171.644 473.881 176.432 480.505 176.432C483.349 176.432 486.409 175.46 488.425 173.732L486.121 169.376C484.609 170.384 482.845 171.248 481.009 171.248C479.029 171.248 477.157 170.204 476.689 167.936H488.389C488.461 167.288 488.533 166.64 488.533 165.992C488.533 160.844 485.437 157.028 479.965 157.028C473.989 157.028 470.317 161.276 470.317 166.712ZM476.833 164.372C477.157 162.896 478.021 161.6 479.821 161.6C481.405 161.6 482.377 162.86 482.377 164.372H476.833ZM156.484 218H162.712V211.196H164.656L168.58 218H175.672L169.48 208.352V208.28L174.916 199.46H168.148L164.476 205.976H162.712V199.46H156.484V218ZM176.281 212.78C176.281 215.984 178.765 218.432 182.329 218.432C184.453 218.432 186.613 217.46 187.837 215.732H187.909C187.909 215.732 187.837 216.272 187.837 216.884V218H193.525V206.588C193.525 201.872 190.357 199.028 185.245 199.028C182.221 199.028 178.981 200.216 177.397 201.44L179.557 205.832C181.033 204.86 182.869 204.068 184.669 204.068C186.037 204.068 187.297 204.572 187.297 206.12V206.444H186.757C182.185 206.444 176.281 207.812 176.281 212.78ZM182.437 212.204C182.437 210.512 184.885 210.008 186.793 210.008H187.369V210.512C187.369 212.024 186.001 213.788 184.201 213.788C183.049 213.788 182.437 213.068 182.437 212.204ZM197.477 218H203.705V211.196H205.649L209.573 218H216.665L210.473 208.352V208.28L215.909 199.46H209.141L205.469 205.976H203.705V199.46H197.477V218ZM227.746 218H233.974V211.232H239.698V218H245.926V199.46H239.698V206.012H233.974V199.46H227.746V218ZM248.774 212.78C248.774 215.984 251.258 218.432 254.822 218.432C256.946 218.432 259.106 217.46 260.33 215.732H260.402C260.402 215.732 260.33 216.272 260.33 216.884V218H266.018V206.588C266.018 201.872 262.85 199.028 257.738 199.028C254.714 199.028 251.474 200.216 249.89 201.44L252.05 205.832C253.526 204.86 255.362 204.068 257.162 204.068C258.53 204.068 259.79 204.572 259.79 206.12V206.444H259.25C254.678 206.444 248.774 207.812 248.774 212.78ZM254.93 212.204C254.93 210.512 257.378 210.008 259.286 210.008H259.862V210.512C259.862 212.024 258.494 213.788 256.694 213.788C255.542 213.788 254.93 213.068 254.93 212.204ZM278.969 225.2H285.197V218.252C285.197 217.316 285.125 216.668 285.125 216.668H285.197C286.529 217.82 288.185 218.432 289.913 218.432C294.845 218.432 298.553 214.616 298.553 208.748C298.553 202.988 295.241 199.028 290.201 199.028C287.969 199.028 285.845 199.892 284.585 201.584H284.513C284.513 201.584 284.585 201.008 284.585 200.396V199.46H278.969V225.2ZM285.017 208.856C285.017 205.652 286.781 204.284 288.653 204.284C290.813 204.284 292.289 206.084 292.289 208.856C292.289 211.7 290.597 213.284 288.653 213.284C286.205 213.284 285.017 211.088 285.017 208.856ZM301.473 219.692L299.493 224.264C299.493 224.264 301.365 225.56 303.813 225.56C306.765 225.56 310.005 224.12 311.553 219.98L319.149 199.46H312.345L310.005 208.1C309.753 209.108 309.393 210.872 309.393 210.872H309.321C309.321 210.872 308.961 209 308.637 207.992L305.901 199.46H298.845L306.729 217.64L306.369 218.504C305.721 220.088 304.389 220.376 303.381 220.376C302.481 220.376 301.473 219.692 301.473 219.692ZM319.796 208.712C319.796 213.824 323.504 218.432 330.128 218.432C333.224 218.432 336.248 217.244 338.084 215.372L335.816 211.016C334.484 212.168 332.54 213.248 330.74 213.248C327.608 213.248 326.096 210.836 326.096 208.64C326.096 206.444 327.572 204.212 330.524 204.212C332.144 204.212 333.8 204.968 334.88 206.012L337.508 201.836C335.672 199.856 332.72 199.028 330.128 199.028C323.468 199.028 319.796 203.744 319.796 208.712ZM339.273 208.712C339.273 213.824 342.981 218.432 349.605 218.432C352.701 218.432 355.725 217.244 357.561 215.372L355.293 211.016C353.961 212.168 352.017 213.248 350.217 213.248C347.085 213.248 345.573 210.836 345.573 208.64C345.573 206.444 347.049 204.212 350.001 204.212C351.621 204.212 353.277 204.968 354.357 206.012L356.985 201.836C355.149 199.856 352.197 199.028 349.605 199.028C342.945 199.028 339.273 203.744 339.273 208.712ZM360.18 218H366.408V211.196H368.352L372.276 218H379.368L373.176 208.352V208.28L378.612 199.46H371.844L368.172 205.976H366.408V199.46H360.18V218ZM379.632 208.784C379.632 214.58 384.312 218.432 390.144 218.432C395.976 218.432 400.656 214.58 400.656 208.784C400.656 202.952 395.976 199.028 390.108 199.028C384.312 199.028 379.632 202.952 379.632 208.784ZM385.932 208.784C385.932 205.976 387.876 204.212 390.144 204.212C392.412 204.212 394.356 205.976 394.356 208.784C394.356 211.556 392.412 213.248 390.144 213.248C387.876 213.248 385.932 211.556 385.932 208.784ZM402.982 218H408.922L409.354 209.468C409.426 208.028 409.318 206.3 409.318 206.3H409.39C409.39 206.3 410.074 207.848 410.47 209.036L412.918 215.516H417.958L420.406 209.036C420.874 207.884 421.414 206.3 421.414 206.3H421.486C421.486 206.3 421.414 208.028 421.45 209.468L421.882 218H427.858L426.094 199.46H418.93L416.194 207.596C415.87 208.532 415.438 209.756 415.438 209.756H415.402C415.402 209.756 415.006 208.532 414.682 207.596L411.946 199.46H404.746L402.982 218ZM429.539 221.996H434.111L438.179 212.024H432.239L429.539 221.996ZM455.021 218H461.249V204.68H466.901V199.46H449.405V204.68H455.021V218ZM467.973 212.78C467.973 215.984 470.457 218.432 474.021 218.432C476.145 218.432 478.305 217.46 479.529 215.732H479.601C479.601 215.732 479.529 216.272 479.529 216.884V218H485.217V206.588C485.217 201.872 482.049 199.028 476.937 199.028C473.913 199.028 470.673 200.216 469.089 201.44L471.249 205.832C472.725 204.86 474.561 204.068 476.361 204.068C477.729 204.068 478.989 204.572 478.989 206.12V206.444H478.449C473.877 206.444 467.973 207.812 467.973 212.78ZM474.129 212.204C474.129 210.512 476.577 210.008 478.485 210.008H479.061V210.512C479.061 212.024 477.693 213.788 475.893 213.788C474.741 213.788 474.129 213.068 474.129 212.204ZM489.168 218H495.396V211.196H497.34L501.264 218H508.356L502.164 208.352V208.28L507.6 199.46H500.832L497.16 205.976H495.396V199.46H489.168V218ZM519.438 218H525.486L530.634 209.864C530.922 209.36 531.318 208.784 531.642 208.028H531.714C531.642 208.748 531.642 209.468 531.642 209.9V218H537.51V199.46H531.462L526.314 207.632C525.99 208.172 525.63 208.712 525.306 209.468H525.234C525.27 209 525.306 208.28 525.306 207.632V199.46H519.438V218Z" fill="#222224"/>
<path d="M226.57 294H228.898V288.792H235.042V294H237.37V281.856H235.042V286.8H228.898V281.856H226.57V294ZM239.952 290.688C239.952 292.968 241.896 294.288 244.008 294.288C245.808 294.288 247.296 293.208 247.992 291.816H248.04C248.04 291.816 247.968 292.224 247.968 292.776V294H250.152V286.32C250.152 283.248 248.4 281.568 245.352 281.568C243.648 281.568 241.8 282.192 240.816 283.008L241.752 284.712C242.736 284.016 243.96 283.536 245.16 283.536C246.672 283.536 247.824 284.208 247.824 286.2V286.44H247.2C244.68 286.44 239.952 286.872 239.952 290.688ZM242.28 290.496C242.28 288.264 245.496 288.12 247.224 288.12H247.824V288.576C247.824 290.376 246.6 292.44 244.56 292.44C243.048 292.44 242.28 291.456 242.28 290.496ZM257.985 294H261.153L262.593 289.632H268.569L270.033 294H273.201L267.225 276.96H263.961L257.985 294ZM263.361 287.112L264.897 282.552C265.185 281.592 265.569 279.912 265.569 279.912H265.617C265.617 279.912 266.001 281.592 266.289 282.552L267.801 287.112H263.361ZM275.034 294H278.082V289.056H283.314V294H286.362V281.76H283.314V286.488H278.082V281.76H275.034V294ZM289.636 294H292.684V284.352H297.676V281.76H289.636V294ZM297.789 294.12C301.845 294 303.261 290.928 303.261 285.6V284.232H306.237V294H309.285V281.76H300.357V285.6C300.357 289.944 299.301 291.216 297.789 291.432V294.12ZM312.558 294H315.51L320.046 287.472C320.358 286.992 320.814 286.344 320.958 286.008H321.006C320.982 286.32 320.934 287.016 320.934 287.472V294H323.838V281.76H320.886L316.35 288.312C316.038 288.792 315.582 289.464 315.438 289.776H315.39C315.414 289.584 315.462 288.864 315.462 288.312V281.76H312.558V294ZM332.752 280.584C334.84 280.584 336.688 279.384 336.688 277.272V276.96H334.384V277.248C334.384 278.304 333.544 278.784 332.752 278.784C331.96 278.784 331.144 278.304 331.144 277.272V276.96H328.816V277.272C328.816 279.384 330.664 280.584 332.752 280.584ZM327.112 294H330.064L334.6 287.472C334.912 286.992 335.368 286.344 335.512 286.008H335.56C335.536 286.32 335.488 287.016 335.488 287.472V294H338.392V281.76H335.44L330.904 288.312C330.592 288.792 330.136 289.464 329.992 289.776H329.944C329.968 289.584 330.016 288.864 330.016 288.312V281.76H327.112V294ZM340.923 287.88C340.923 291.432 343.515 294.288 347.571 294.288C349.539 294.288 351.459 293.52 352.611 292.296L351.435 290.136C350.523 291.024 349.131 291.696 347.835 291.696C345.483 291.696 344.019 289.92 344.019 287.856C344.019 285.768 345.483 284.064 347.739 284.064C348.939 284.064 350.139 284.616 350.907 285.384L352.275 283.296C351.099 282.024 349.227 281.472 347.571 281.472C343.515 281.472 340.923 284.4 340.923 287.88ZM354.816 294H357.864V289.032H359.448L362.664 294H366.192L361.824 287.64V287.592L365.712 281.76H362.328L359.352 286.44H357.864V281.76H354.816V294ZM366.728 287.88C366.728 291.648 369.728 294.288 373.448 294.288C377.168 294.288 380.168 291.648 380.168 287.88C380.168 284.136 377.168 281.472 373.424 281.472C369.728 281.472 366.728 284.136 366.728 287.88ZM369.824 287.88C369.824 285.624 371.456 284.064 373.448 284.064C375.44 284.064 377.096 285.624 377.096 287.88C377.096 290.16 375.44 291.696 373.448 291.696C371.456 291.696 369.824 290.16 369.824 287.88ZM382.179 294H385.107L385.539 287.376C385.587 286.56 385.515 285.288 385.515 285.288H385.563C385.563 285.288 385.971 286.248 386.307 287.088L388.707 292.464H391.227L393.627 287.064C394.011 286.2 394.347 285.288 394.347 285.288H394.395C394.395 285.288 394.347 286.56 394.371 287.376L394.803 294H397.731L396.627 281.76H393.219L390.579 288.072C390.315 288.768 389.979 289.632 389.979 289.632H389.931C389.931 289.632 389.619 288.744 389.331 288.072L386.739 281.76H383.283L382.179 294ZM405.463 294H408.031L411.007 289.608H413.047V294H415.375V281.856H410.527C407.959 281.856 406.183 283.176 406.183 285.672C406.183 287.52 407.431 288.816 408.823 289.2V289.224C408.823 289.224 408.535 289.536 408.271 289.968L405.463 294ZM411.031 287.904C409.615 287.904 408.535 287.16 408.535 285.648C408.535 284.088 409.543 283.464 411.103 283.464H413.047V287.904H411.031ZM417.792 292.512C418.8 293.472 420.384 294.288 422.256 294.288C424.752 294.288 426.912 293.016 426.912 290.52C426.912 288.96 425.952 288.048 424.728 287.664V287.616C425.688 287.208 426.504 286.368 426.504 284.856C426.504 282.696 424.704 281.568 422.4 281.568C420.48 281.568 419.112 282.192 418.176 282.888L419.04 284.448C419.976 283.752 420.936 283.392 421.992 283.392C423.336 283.392 424.152 284.016 424.152 285.144C424.152 286.368 423.216 286.896 421.848 286.896H420.576V288.576H422.064C423.768 288.576 424.56 289.248 424.56 290.424C424.56 291.744 423.432 292.416 422.04 292.416C420.576 292.416 419.424 291.552 418.872 290.976L417.792 292.512ZM440.718 294H443.046V281.856H440.718V294ZM429.726 294H434.406C437.454 294 438.846 292.44 438.846 290.16C438.846 287.4 436.95 286.248 434.43 286.248H432.054V281.856H429.726V294ZM432.054 292.32V287.928H434.07C435.75 287.928 436.494 288.84 436.494 290.136C436.494 291.408 435.774 292.32 434.094 292.32H432.054ZM446.648 294H448.976V288.744H450.728L454.352 294H457.112L452.576 287.688V287.64L456.632 281.856H453.992L450.68 286.752H448.976V281.856H446.648V294ZM457.879 287.928C457.879 291.528 460.519 294.288 464.335 294.288C466.015 294.288 467.863 293.64 469.039 292.56L468.055 290.856C467.095 291.72 465.775 292.272 464.479 292.272C462.295 292.272 460.423 290.856 460.303 288.24H469.135C469.183 287.904 469.231 287.568 469.231 287.256C469.231 284.136 467.407 281.568 463.975 281.568C460.519 281.568 457.879 284.064 457.879 287.928ZM460.375 286.56C460.711 284.544 462.127 283.368 463.927 283.368C465.511 283.368 466.807 284.472 466.879 286.56H460.375Z" fill="#505257"/>
<path d="M340.263 20.2642C339.471 19.4722 339.075 19.0762 338.926 18.6195C338.796 18.2178 338.796 17.7851 338.926 17.3834C339.075 16.9268 339.471 16.5308 340.263 15.7387L348.738 7.26309C349.53 6.47106 349.926 6.07504 350.383 5.92667C350.785 5.79615 351.217 5.79615 351.619 5.92667C352.076 6.07504 352.472 6.47106 353.264 7.26309L361.739 15.7387C362.532 16.5308 362.928 16.9268 363.076 17.3834C363.206 17.7851 363.206 18.2178 363.076 18.6195C362.928 19.0762 362.532 19.4722 361.739 20.2642L353.264 28.7398C352.472 29.5319 352.076 29.9279 351.619 30.0763C351.217 30.2068 350.785 30.2068 350.383 30.0763C349.926 29.9279 349.53 29.5319 348.738 28.7398L340.263 20.2642Z" fill="#F3F3F3"/>
<path d="M296 9.6C296 6.23969 296 4.55953 296.654 3.27606C297.229 2.14708 298.147 1.2292 299.276 0.653961C300.56 0 302.24 0 305.6 0H346.4C349.76 0 351.44 0 352.724 0.653961C353.853 1.2292 354.771 2.14708 355.346 3.27606C356 4.55953 356 6.23969 356 9.6V50.4C356 53.7603 356 55.4405 355.346 56.7239C354.771 57.8529 353.853 58.7708 352.724 59.346C351.44 60 349.76 60 346.4 60H305.6C302.24 60 300.56 60 299.276 59.346C298.147 58.7708 297.229 57.8529 296.654 56.7239C296 55.4405 296 53.7603 296 50.4V9.6Z" fill="#F3F3F3"/>
<path d="M315.721 36.9998H318.301V32.0998H321.201C323.861 32.0998 325.721 30.1798 325.721 27.4198C325.721 24.6598 323.861 22.7998 321.201 22.7998H315.721V36.9998ZM318.301 29.8598V25.0198H320.761C322.221 25.0198 323.101 25.9598 323.101 27.4198C323.101 28.8998 322.221 29.8598 320.721 29.8598H318.301Z" fill="#97999D"/>
<path d="M327.347 38.6398L326.507 40.5398C326.507 40.5398 327.407 41.1998 328.627 41.1998C330.127 41.1998 331.607 40.3998 332.307 38.5398L336.847 26.7998H334.087L332.087 32.7198C331.927 33.2598 331.747 34.0598 331.747 34.0598H331.707C331.707 34.0598 331.527 33.2198 331.327 32.6798L329.187 26.7998H326.327L330.627 36.8398L330.247 37.7398C329.867 38.6398 329.167 39.0598 328.467 39.0598C327.907 39.0598 327.347 38.6398 327.347 38.6398Z" fill="#97999D"/>
<path d="M333.263 81.2642C332.471 80.4722 332.075 80.0762 331.926 79.6195C331.796 79.2178 331.796 78.7851 331.926 78.3834C332.075 77.9268 332.471 77.5308 333.263 76.7387L341.738 68.2631C342.53 67.4711 342.926 67.075 343.383 66.9267C343.785 66.7961 344.217 66.7962 344.619 66.9267C345.076 67.075 345.472 67.4711 346.264 68.2631L354.739 76.7387C355.532 77.5308 355.928 77.9268 356.076 78.3834C356.206 78.7851 356.206 79.2178 356.076 79.6195C355.928 80.0762 355.532 80.4722 354.739 81.2642L346.264 89.7398C345.472 90.5319 345.076 90.9279 344.619 91.0763C344.217 91.2068 343.785 91.2068 343.383 91.0763C342.926 90.9279 342.53 90.5319 341.738 89.7398L333.263 81.2642Z" fill="#F04B5D"/>
<path d="M339 46.6005C339 43.2402 339 41.56 339.654 40.2765C340.229 39.1476 341.147 38.2297 342.276 37.6544C343.56 37.0005 345.24 37.0005 348.6 37.0005H389.4C392.76 37.0005 394.44 37.0005 395.724 37.6544C396.853 38.2297 397.771 39.1476 398.346 40.2765C399 41.56 399 43.2402 399 46.6005V87.4005C399 90.7608 399 92.441 398.346 93.7244C397.771 94.8534 396.853 95.7713 395.724 96.3465C394.44 97.0005 392.76 97.0005 389.4 97.0005H348.6C345.24 97.0005 343.56 97.0005 342.276 96.3465C341.147 95.7713 340.229 94.8534 339.654 93.7244C339 92.441 339 90.7608 339 87.4005V46.6005Z" fill="#F04B5D"/>
<path d="M358.721 74.0003H367.541V71.7803H361.301V67.9603H366.081V65.7403H361.301V62.0203H367.221V59.8003H358.721V74.0003Z" fill="white"/>
<path d="M369.63 74.0003H372.17V69.2203C372.17 67.3803 373.31 65.8803 375.11 65.8803C376.39 65.8803 376.71 66.7203 376.71 67.9603V74.0003H379.25V67.4403C379.25 64.7403 377.95 63.5603 375.69 63.5603C373.63 63.5603 372.49 64.8603 372.07 65.7203H372.03C372.03 65.7203 372.07 65.4003 372.07 65.0003V63.8003H369.63V74.0003Z" fill="white"/>
</svg>
