<svg width="918" height="518" viewBox="0 0 918 518" fill="none" xmlns="http://www.w3.org/2000/svg">
<rect width="918" height="518" rx="6" fill="#FDF0E5"/>
<path d="M273 353.75C273.003 372.001 267.535 389.831 257.306 404.916C247.078 420.001 232.564 431.642 215.655 438.323C214.329 438.857 212.978 439.355 211.621 439.815C210.105 440.337 208.573 440.816 207.025 441.252C205.949 441.553 204.863 441.835 203.767 442.099C187.266 446.071 169.989 445.331 153.885 439.962C152.62 439.539 151.367 439.084 150.126 438.612C148.457 437.967 146.807 437.273 145.187 436.53C145.065 436.481 144.949 436.426 144.833 436.371C144.197 436.076 143.58 435.781 142.95 435.468H142.944C142.082 435.051 141.228 434.617 140.383 434.167C138.439 433.135 136.538 432.036 134.68 430.87C133.714 430.268 132.763 429.644 131.826 428.997C117.075 418.993 105.591 404.839 98.8133 388.308C92.0355 371.777 90.2651 353.605 93.724 336.068C97.1829 318.531 105.717 302.409 118.258 289.723C130.798 277.036 146.787 268.349 164.221 264.75C165.816 264.419 167.428 264.132 169.055 263.891C170.076 263.731 171.109 263.596 172.142 263.479C172.882 263.393 173.621 263.314 174.373 263.252H174.379C176.39 263.068 178.419 262.953 180.467 262.908C180.748 262.902 181.029 262.896 181.317 262.89C181.475 262.89 181.634 262.884 181.793 262.89H181.799C182.044 262.884 182.288 262.884 182.539 262.884C183.566 262.884 184.593 262.902 185.613 262.939C187.863 263.013 190.088 263.168 192.288 263.406C193.559 263.541 194.812 263.706 196.065 263.891C196.206 263.915 196.353 263.934 196.493 263.958C196.909 264.026 197.331 264.093 197.746 264.167C198.626 264.308 199.5 264.474 200.374 264.652C201.193 264.818 202.006 264.99 202.819 265.174C205.824 265.862 208.79 266.709 211.707 267.709C231.471 274.497 248.297 287.927 259.345 305.732C259.657 306.229 259.963 306.733 260.262 307.242C260.494 307.623 260.714 308.004 260.934 308.391C261.014 308.519 261.087 308.648 261.154 308.777C261.203 308.851 261.24 308.925 261.283 308.998C261.686 309.704 262.077 310.423 262.456 311.141C269.401 324.259 273.022 338.893 273 353.75Z" fill="#F04B5D"/>
<path d="M231.582 321.296C231.582 321.296 252.58 302.754 260.38 315.714C268.181 328.674 238.526 333.92 236.813 333.25C235.099 332.58 231.582 321.296 231.582 321.296Z" fill="#A0616A"/>
<path d="M190.738 335.047C190.738 335.047 215.587 326.93 219.825 323.633C224.062 320.336 227.966 317.9 228.823 318.235C229.679 318.57 235.296 316.803 235.296 316.803L241.952 335.261C241.952 335.261 215.39 342.707 214.723 344.428C214.056 346.149 190.738 335.047 190.738 335.047Z" fill="#575A89"/>
<path d="M203.767 442.099C187.266 446.071 169.989 445.331 153.885 439.962L154.985 429.513L156.006 419.751L171.317 395.972L176.225 388.353L196.45 395.739L198.51 408.785L201.792 429.593L203.767 442.099Z" fill="#2F2E41"/>
<path d="M215.654 438.323C214.328 438.857 212.977 439.355 211.62 439.815C210.104 440.337 208.572 440.816 207.024 441.252C205.948 441.553 204.862 441.835 203.766 442.099C187.266 446.071 169.988 445.331 153.884 439.962C152.619 439.539 151.366 439.084 150.125 438.612C150.294 442.247 150.184 445.891 149.795 449.51C148.029 445.269 146.491 440.936 145.186 436.53C145.095 436.236 145.009 435.941 144.924 435.646C144.496 434.161 144.117 432.742 143.775 431.41C143.383 429.869 143.047 428.438 142.766 427.131C141.647 421.998 141.293 418.824 141.293 418.824L153.242 393.897L155.632 394.173L156.622 394.284L162.612 394.971L171.316 395.972L185.417 397.587L198.51 408.786L210.239 418.824C210.239 418.824 211.217 422.164 212.751 427.696C213.582 430.667 214.566 434.271 215.654 438.323Z" fill="#2F2E41"/>
<path d="M194.275 266.986C205.952 266.986 215.418 257.477 215.418 245.748C215.418 234.019 205.952 224.511 194.275 224.511C182.599 224.511 173.133 234.019 173.133 245.748C173.133 257.477 182.599 266.986 194.275 266.986Z" fill="#FFB8B8"/>
<path d="M177 246.817L165.936 270.594L197.001 292.208C197.001 292.208 193.344 266.467 200.233 259.948C207.122 253.429 177 246.817 177 246.817Z" fill="#FFB8B8"/>
<path d="M201.046 294.171C201.046 294.171 186.338 263.7 174.388 263.7C162.438 263.7 131.184 284.937 132.103 289.554C133.022 294.171 133.022 295.094 133.022 297.864C133.022 300.634 126.587 300.634 132.103 302.481C137.618 304.328 138.538 306.175 138.538 306.175L133.941 424.365C133.941 424.365 154.165 431.752 161.519 428.982C168.873 426.212 176.227 407.744 176.227 407.744C176.227 407.744 174.388 432.675 181.742 431.752C189.096 430.828 216.673 428.982 217.592 425.288C218.512 421.595 212.077 340.339 212.077 340.339L201.046 294.171Z" fill="#575A89"/>
<path d="M149.795 449.51V449.522C148.854 457.706 146 466.001 138.537 467.763C125.86 470.759 130.725 444.592 133.011 434.603C133.549 432.276 133.94 430.827 133.94 430.827L134.68 430.87L143.775 431.41L149.569 431.754C149.569 431.754 149.808 433.442 149.991 436.088C150.046 436.856 150.095 437.703 150.125 438.612C150.295 442.247 150.184 445.891 149.795 449.51Z" fill="#FFB8B8"/>
<path d="M153.245 286.784L126.587 355.113C126.587 355.113 122.91 362.5 126.587 368.04C130.264 373.58 124.749 406.821 128.426 414.208C132.103 421.595 132.103 434.522 132.103 434.522L153.245 436.368L157.842 355.113L181.742 303.404C181.742 303.404 179.903 282.167 153.245 286.784Z" fill="#575A89"/>
<path opacity="0.1" d="M160.14 284.476C160.14 284.476 143.594 289.092 138.078 305.713L160.14 284.476Z" fill="black"/>
<path d="M180.419 255.437C182.476 255.314 184.484 256.012 186.527 256.285C193.835 257.259 201.438 251.932 203.052 244.706C203.181 243.744 203.467 242.81 203.897 241.94C205.022 240.095 207.584 239.744 209.695 240.168C211.807 240.592 213.809 241.585 215.959 241.698C219.28 241.873 222.468 239.82 224.237 236.992C226.007 234.164 226.508 230.685 226.269 227.354L224.677 229.032C224.03 227.657 223.781 226.128 223.956 224.618C223.113 224.392 222.226 224.388 221.38 224.605C220.534 224.823 219.758 225.254 219.126 225.859C217.723 226.009 218.782 223.244 217.739 222.289C217.303 221.888 216.633 221.964 216.042 221.97C213.056 221.999 210.641 219.704 208.288 217.858C204.211 214.665 199.443 212.48 194.37 211.481C190.998 210.82 187.413 210.714 184.215 211.975C181.589 213.011 179.391 214.898 177.357 216.862C172.351 221.697 167.918 227.379 165.835 234.034C164.142 239.485 164.094 245.318 165.698 250.797C166.537 253.642 169.066 263.386 172.769 263.613C177.421 263.898 174.628 255.784 180.419 255.437Z" fill="#2F2E41"/>
<path opacity="0.1" d="M181.922 323.359L160.272 355.255L153.348 429.342L181.922 323.359Z" fill="black"/>
<path d="M239.307 338.839C238.696 338.402 238.284 337.739 238.161 336.997C238.037 336.254 238.212 335.492 238.647 334.879L263.271 300.212C263.707 299.6 264.367 299.185 265.106 299.061C265.845 298.937 266.604 299.113 267.214 299.55L239.307 338.839L239.307 338.839Z" fill="#D0CDE1"/>
<path d="M240.318 342.304L238.894 341.283C238.4 340.929 238.066 340.393 237.966 339.792C237.866 339.19 238.008 338.574 238.36 338.078L266.396 298.607C266.694 298.188 267.145 297.905 267.65 297.82C268.155 297.735 268.674 297.856 269.091 298.154L270.805 299.383L240.318 342.304L240.318 342.304Z" fill="#2F2E41"/>
<path d="M261.093 308.865L261.75 309.336L263.626 306.695L262.969 306.224L261.093 308.865Z" fill="#D0CDE1"/>
<path d="M94.7 94H126.56V68.26H120.26V88.636H113.78V68.26H107.48V88.636H101V68.26H94.7V94ZM131.143 94H137.371V87.196H139.315L143.239 94H150.331L144.139 84.352V84.28L149.575 75.46H142.807L139.135 81.976H137.371V75.46H131.143V94ZM150.595 84.784C150.595 90.58 155.275 94.432 161.107 94.432C166.939 94.432 171.619 90.58 171.619 84.784C171.619 78.952 166.939 75.028 161.071 75.028C155.275 75.028 150.595 78.952 150.595 84.784ZM156.895 84.784C156.895 81.976 158.839 80.212 161.107 80.212C163.375 80.212 165.319 81.976 165.319 84.784C165.319 87.556 163.375 89.248 161.107 89.248C158.839 89.248 156.895 87.556 156.895 84.784ZM172.841 94.18C180.041 94.18 182.201 88.996 182.201 81.436V80.392H185.297V94H191.525V75.46H176.333V81.4C176.333 87.772 174.497 88.528 172.841 88.744V94.18ZM195.69 94H204.942C210.126 94 212.286 91.444 212.286 87.664C212.286 83.92 210.126 81.256 204.942 81.256H201.918V75.46H195.69V94ZM201.918 89.932V85.288H203.682C205.266 85.288 206.058 86.332 206.058 87.628C206.058 88.924 205.266 89.932 203.79 89.932H201.918ZM215.026 94H221.254V87.232H226.978V94H233.206V75.46H226.978V82.012H221.254V75.46H215.026V94ZM237.385 94H243.433L248.581 85.864C248.869 85.36 249.265 84.784 249.589 84.028H249.661C249.589 84.748 249.589 85.468 249.589 85.9V94H255.457V75.46H249.409L244.261 83.632C243.937 84.172 243.577 84.712 243.253 85.468H243.181C243.217 85 243.253 84.28 243.253 83.632V75.46H237.385V94ZM259.639 94H265.867V87.196H267.811L271.735 94H278.827L272.635 84.352V84.28L278.071 75.46H271.303L267.631 81.976H265.867V75.46H259.639V94ZM279.436 88.78C279.436 91.984 281.92 94.432 285.484 94.432C287.608 94.432 289.768 93.46 290.992 91.732H291.064C291.064 91.732 290.992 92.272 290.992 92.884V94H296.68V82.588C296.68 77.872 293.512 75.028 288.4 75.028C285.376 75.028 282.136 76.216 280.552 77.44L282.712 81.832C284.188 80.86 286.024 80.068 287.824 80.068C289.192 80.068 290.452 80.572 290.452 82.12V82.444H289.912C285.34 82.444 279.436 83.812 279.436 88.78ZM285.592 88.204C285.592 86.512 288.04 86.008 289.948 86.008H290.524V86.512C290.524 88.024 289.156 89.788 287.356 89.788C286.204 89.788 285.592 89.068 285.592 88.204ZM299.839 94H305.779L306.211 85.468C306.283 84.028 306.175 82.3 306.175 82.3H306.247C306.247 82.3 306.931 83.848 307.327 85.036L309.775 91.516H314.815L317.263 85.036C317.731 83.884 318.271 82.3 318.271 82.3H318.343C318.343 82.3 318.271 84.028 318.307 85.468L318.739 94H324.715L322.951 75.46H315.787L313.051 83.596C312.727 84.532 312.295 85.756 312.295 85.756H312.259C312.259 85.756 311.863 84.532 311.539 83.596L308.803 75.46H301.603L299.839 94ZM94.088 136H100.136L105.284 127.864C105.572 127.36 105.968 126.784 106.292 126.028H106.364C106.292 126.748 106.292 127.468 106.292 127.9V136H112.16V117.46H106.112L100.964 125.632C100.64 126.172 100.28 126.712 99.956 127.468H99.884C99.92 127 99.956 126.28 99.956 125.632V117.46H94.088V136ZM124.298 126.712C124.298 131.824 128.006 136.432 134.63 136.432C137.726 136.432 140.75 135.244 142.586 133.372L140.318 129.016C138.986 130.168 137.042 131.248 135.242 131.248C132.11 131.248 130.598 128.836 130.598 126.64C130.598 124.444 132.074 122.212 135.026 122.212C136.646 122.212 138.302 122.968 139.382 124.012L142.01 119.836C140.174 117.856 137.222 117.028 134.63 117.028C127.97 117.028 124.298 121.744 124.298 126.712ZM149.273 136H155.501V122.68H161.153V117.46H143.657V122.68H149.273V136ZM163.948 137.692L161.968 142.264C161.968 142.264 163.84 143.56 166.288 143.56C169.24 143.56 172.48 142.12 174.028 137.98L181.624 117.46H174.82L172.48 126.1C172.228 127.108 171.868 128.872 171.868 128.872H171.796C171.796 128.872 171.436 127 171.112 125.992L168.376 117.46H161.32L169.204 135.64L168.844 136.504C168.196 138.088 166.864 138.376 165.856 138.376C164.956 138.376 163.948 137.692 163.948 137.692ZM189.522 131.068C190.818 128.584 191.178 125.884 191.178 123.076V122.392H194.382V131.068H189.522ZM181.098 131.068V140.32H186.858V136H197.73V140.32H203.274V131.068H200.61V117.46H185.31V121.924C185.31 125.668 184.626 128.98 183.402 131.068H181.098ZM204.876 126.712C204.876 131.644 208.44 136.432 215.064 136.432C217.908 136.432 220.968 135.46 222.984 133.732L220.68 129.376C219.168 130.384 217.404 131.248 215.568 131.248C213.588 131.248 211.716 130.204 211.248 127.936H222.948C223.02 127.288 223.092 126.64 223.092 125.992C223.092 120.844 219.996 117.028 214.524 117.028C208.548 117.028 204.876 121.276 204.876 126.712ZM211.392 124.372C211.716 122.896 212.58 121.6 214.38 121.6C215.964 121.6 216.936 122.86 216.936 124.372H211.392ZM226.346 136H232.574V129.232H238.298V136H244.526V117.46H238.298V124.012H232.574V117.46H226.346V136ZM252.773 136H259.001V122.68H264.653V117.46H247.157V122.68H252.773V136ZM265.725 130.78C265.725 133.984 268.209 136.432 271.773 136.432C273.897 136.432 276.057 135.46 277.281 133.732H277.353C277.353 133.732 277.281 134.272 277.281 134.884V136H282.969V124.588C282.969 119.872 279.801 117.028 274.689 117.028C271.665 117.028 268.425 118.216 266.841 119.44L269.001 123.832C270.477 122.86 272.313 122.068 274.113 122.068C275.481 122.068 276.741 122.572 276.741 124.12V124.444H276.201C271.629 124.444 265.725 125.812 265.725 130.78ZM271.881 130.204C271.881 128.512 274.329 128.008 276.237 128.008H276.813V128.512C276.813 130.024 275.445 131.788 273.645 131.788C272.493 131.788 271.881 131.068 271.881 130.204ZM286.128 136H292.068L292.5 127.468C292.572 126.028 292.464 124.3 292.464 124.3H292.536C292.536 124.3 293.22 125.848 293.616 127.036L296.064 133.516H301.104L303.552 127.036C304.02 125.884 304.56 124.3 304.56 124.3H304.632C304.632 124.3 304.56 126.028 304.596 127.468L305.028 136H311.004L309.24 117.46H302.076L299.34 125.596C299.016 126.532 298.584 127.756 298.584 127.756H298.548C298.548 127.756 298.152 126.532 297.828 125.596L295.092 117.46H287.892L286.128 136Z" fill="#222224"/>
<path d="M495.674 295H497.456V283.84H503.9V295H505.682V282.292H495.674V295ZM507.94 290.428C507.94 293.2 510.136 295.216 512.854 295.216C515.554 295.216 517.75 293.2 517.75 290.428C517.75 287.674 515.554 285.676 512.836 285.676C510.136 285.676 507.94 287.674 507.94 290.428ZM509.722 290.428C509.722 288.538 511.126 287.188 512.854 287.188C514.564 287.188 515.986 288.538 515.986 290.428C515.986 292.336 514.564 293.704 512.854 293.704C511.126 293.704 509.722 292.336 509.722 290.428ZM519.854 295H523.742C525.722 295 527.09 294.1 527.09 292.408C527.09 291.4 526.496 290.518 525.362 290.248V290.23C526.19 289.87 526.658 289.114 526.658 288.232C526.658 286.702 525.452 285.892 523.616 285.892H519.854V295ZM521.6 289.744V287.098H523.256C524.354 287.098 524.876 287.53 524.876 288.358C524.876 289.204 524.354 289.744 523.31 289.744H521.6ZM521.6 293.776V290.914H523.454C524.66 290.914 525.326 291.454 525.326 292.354C525.326 293.2 524.732 293.776 523.472 293.776H521.6ZM537.449 295H539.195V285.892H537.449V295ZM529.205 295H532.715C535.001 295 536.045 293.83 536.045 292.12C536.045 290.05 534.623 289.186 532.733 289.186H530.951V285.892H529.205V295ZM530.951 293.74V290.446H532.463C533.723 290.446 534.281 291.13 534.281 292.102C534.281 293.056 533.741 293.74 532.481 293.74H530.951ZM541.897 295H553.669V285.892H551.995V293.488H548.629V285.892H546.937V293.488H543.571V285.892H541.897V295ZM555.77 290.446C555.77 293.146 557.75 295.216 560.612 295.216C561.872 295.216 563.258 294.73 564.14 293.92L563.402 292.642C562.682 293.29 561.692 293.704 560.72 293.704C559.082 293.704 557.678 292.642 557.588 290.68H564.212C564.248 290.428 564.284 290.176 564.284 289.942C564.284 287.602 562.916 285.676 560.342 285.676C557.75 285.676 555.77 287.548 555.77 290.446ZM557.642 289.42C557.894 287.908 558.956 287.026 560.306 287.026C561.494 287.026 562.466 287.854 562.52 289.42H557.642ZM566.383 295H568.129V291.094H572.737V295H574.483V285.892H572.737V289.6H568.129V285.892H566.383V295ZM577.176 295H578.85L582.792 289.564C583.08 289.132 583.53 288.52 583.584 288.358H583.62C583.62 288.502 583.566 289.132 583.566 289.564V295H585.258V285.892H583.566L579.642 291.328C579.336 291.76 578.904 292.39 578.832 292.552H578.796C578.814 292.462 578.85 291.814 578.85 291.328V285.892H577.176V295ZM587.34 290.446C587.34 293.146 589.32 295.216 592.182 295.216C593.442 295.216 594.828 294.73 595.71 293.92L594.972 292.642C594.252 293.29 593.262 293.704 592.29 293.704C590.652 293.704 589.248 292.642 589.158 290.68H595.782C595.818 290.428 595.854 290.176 595.854 289.942C595.854 287.602 594.486 285.676 591.912 285.676C589.32 285.676 587.34 287.548 587.34 290.446ZM589.212 289.42C589.464 287.908 590.526 287.026 591.876 287.026C593.064 287.026 594.036 287.854 594.09 289.42H589.212ZM602.004 296.89L601.392 298.222C601.392 298.222 602.13 298.78 603.138 298.78C604.416 298.78 605.55 298.06 606.09 296.638L610.374 285.892H608.484L606.27 291.868C606.108 292.336 605.964 292.948 605.964 292.948H605.928C605.928 292.948 605.766 292.3 605.586 291.85L603.3 285.892H601.338L605.154 294.892L604.704 295.936C604.362 296.764 603.768 297.286 603.048 297.286C602.508 297.286 602.004 296.89 602.004 296.89ZM611.176 290.446C611.176 293.182 613.174 295.216 616.054 295.216C617.476 295.216 618.862 294.64 619.69 293.758L618.988 292.48C618.286 293.218 617.188 293.704 616.18 293.704C614.29 293.704 612.958 292.282 612.958 290.428C612.958 288.574 614.29 287.188 616.126 287.188C617.08 287.188 618.034 287.62 618.646 288.232L619.474 287.008C618.61 286.09 617.26 285.676 616.054 285.676C613.192 285.676 611.176 287.746 611.176 290.446ZM621.579 295H623.325V287.386H627.789V295H629.535V285.892H621.579V295ZM631.637 290.446C631.637 293.146 633.617 295.216 636.479 295.216C637.739 295.216 639.125 294.73 640.007 293.92L639.269 292.642C638.549 293.29 637.559 293.704 636.587 293.704C634.949 293.704 633.545 292.642 633.455 290.68H640.079C640.115 290.428 640.151 290.176 640.151 289.942C640.151 287.602 638.783 285.676 636.209 285.676C633.617 285.676 631.637 287.548 631.637 290.446ZM633.509 289.42C633.761 287.908 634.823 287.026 636.173 287.026C637.361 287.026 638.333 287.854 638.387 289.42H633.509ZM642.25 295H646.138C648.118 295 649.486 294.1 649.486 292.408C649.486 291.4 648.892 290.518 647.758 290.248V290.23C648.586 289.87 649.054 289.114 649.054 288.232C649.054 286.702 647.848 285.892 646.012 285.892H642.25V295ZM643.996 289.744V287.098H645.652C646.75 287.098 647.272 287.53 647.272 288.358C647.272 289.204 646.75 289.744 645.706 289.744H643.996ZM643.996 293.776V290.914H645.85C647.056 290.914 647.722 291.454 647.722 292.354C647.722 293.2 647.128 293.776 645.868 293.776H643.996ZM650.846 292.516C650.846 294.226 652.304 295.216 653.888 295.216C655.238 295.216 656.354 294.406 656.876 293.362H656.912C656.912 293.362 656.858 293.668 656.858 294.082V295H658.496V289.24C658.496 286.936 657.182 285.676 654.896 285.676C653.618 285.676 652.232 286.144 651.494 286.756L652.196 288.034C652.934 287.512 653.852 287.152 654.752 287.152C655.886 287.152 656.75 287.656 656.75 289.15V289.33H656.282C654.392 289.33 650.846 289.654 650.846 292.516ZM652.592 292.372C652.592 290.698 655.004 290.59 656.3 290.59H656.75V290.932C656.75 292.282 655.832 293.83 654.302 293.83C653.168 293.83 652.592 293.092 652.592 292.372ZM660.483 290.446C660.483 293.146 662.463 295.216 665.325 295.216C666.585 295.216 667.971 294.73 668.853 293.92L668.115 292.642C667.395 293.29 666.405 293.704 665.433 293.704C663.795 293.704 662.391 292.642 662.301 290.68H668.925C668.961 290.428 668.997 290.176 668.997 289.942C668.997 287.602 667.629 285.676 665.055 285.676C662.463 285.676 660.483 287.548 660.483 290.446ZM662.355 289.42C662.607 287.908 663.669 287.026 665.019 287.026C666.207 287.026 667.179 287.854 667.233 289.42H662.355ZM670.718 295H672.41L672.806 289.582C672.842 289.042 672.788 288.016 672.788 288.016H672.824C672.824 288.016 673.112 288.7 673.4 289.366L675.56 293.902H677.054L679.214 289.348C679.556 288.646 679.79 288.016 679.79 288.016H679.826C679.826 288.016 679.79 289.042 679.808 289.582L680.204 295H681.896L681.104 285.892H679.196L676.82 291.04C676.586 291.598 676.316 292.264 676.316 292.264H676.28C676.28 292.264 676.028 291.58 675.776 291.04L673.454 285.892H671.51L670.718 295ZM683.651 290.428C683.651 293.2 685.847 295.216 688.565 295.216C691.265 295.216 693.461 293.2 693.461 290.428C693.461 287.674 691.265 285.676 688.547 285.676C685.847 285.676 683.651 287.674 683.651 290.428ZM685.433 290.428C685.433 288.538 686.837 287.188 688.565 287.188C690.275 287.188 691.697 288.538 691.697 290.428C691.697 292.336 690.275 293.704 688.565 293.704C686.837 293.704 685.433 292.336 685.433 290.428ZM694.971 290.446C694.971 293.182 696.969 295.216 699.849 295.216C701.271 295.216 702.657 294.64 703.485 293.758L702.783 292.48C702.081 293.218 700.983 293.704 699.975 293.704C698.085 293.704 696.753 292.282 696.753 290.428C696.753 288.574 698.085 287.188 699.921 287.188C700.875 287.188 701.829 287.62 702.441 288.232L703.269 287.008C702.405 286.09 701.055 285.676 699.849 285.676C696.987 285.676 694.971 287.746 694.971 290.446ZM707.569 295H709.297V287.386H712.483V285.892H704.401V287.386H707.569V295ZM714.198 295H715.872L719.814 289.564C720.102 289.132 720.552 288.52 720.606 288.358H720.642C720.642 288.502 720.588 289.132 720.588 289.564V295H722.28V285.892H720.588L716.664 291.328C716.358 291.76 715.926 292.39 715.854 292.552H715.818C715.836 292.462 715.872 291.814 715.872 291.328V285.892H714.198V295Z" fill="#424754"/>
<path d="M495.674 343H497.456V331.84H503.9V343H505.682V330.292H495.674V343ZM507.94 338.428C507.94 341.2 510.136 343.216 512.854 343.216C515.554 343.216 517.75 341.2 517.75 338.428C517.75 335.674 515.554 333.676 512.836 333.676C510.136 333.676 507.94 335.674 507.94 338.428ZM509.722 338.428C509.722 336.538 511.126 335.188 512.854 335.188C514.564 335.188 515.986 336.538 515.986 338.428C515.986 340.336 514.564 341.704 512.854 341.704C511.126 341.704 509.722 340.336 509.722 338.428ZM521.407 341.56C522.559 339.76 522.703 337.168 522.703 335.8V335.314H525.439V341.56H521.407ZM518.491 341.56V345.16H520.129V343H526.879V345.16H528.481V341.56H527.185V333.892H521.029V335.566C521.029 336.97 520.885 339.814 519.607 341.56H518.491ZM530.313 343H532.059V335.386H536.019V333.892H530.313V343ZM536.82 338.428C536.82 341.2 539.016 343.216 541.734 343.216C544.434 343.216 546.63 341.2 546.63 338.428C546.63 335.674 544.434 333.676 541.716 333.676C539.016 333.676 536.82 335.674 536.82 338.428ZM538.602 338.428C538.602 336.538 540.006 335.188 541.734 335.188C543.444 335.188 544.866 336.538 544.866 338.428C544.866 340.336 543.444 341.704 541.734 341.704C540.006 341.704 538.602 340.336 538.602 338.428ZM550.632 343H552.36V335.386H555.546V333.892H547.464V335.386H550.632V343ZM556.367 338.428C556.367 341.2 558.563 343.216 561.281 343.216C563.981 343.216 566.177 341.2 566.177 338.428C566.177 335.674 563.981 333.676 561.263 333.676C558.563 333.676 556.367 335.674 556.367 338.428ZM558.149 338.428C558.149 336.538 559.553 335.188 561.281 335.188C562.991 335.188 564.413 336.538 564.413 338.428C564.413 340.336 562.991 341.704 561.281 341.704C559.553 341.704 558.149 340.336 558.149 338.428ZM568.282 343H572.17C574.15 343 575.518 342.1 575.518 340.408C575.518 339.4 574.924 338.518 573.79 338.248V338.23C574.618 337.87 575.086 337.114 575.086 336.232C575.086 334.702 573.88 333.892 572.044 333.892H568.282V343ZM570.028 337.744V335.098H571.684C572.782 335.098 573.304 335.53 573.304 336.358C573.304 337.204 572.782 337.744 571.738 337.744H570.028ZM570.028 341.776V338.914H571.882C573.088 338.914 573.754 339.454 573.754 340.354C573.754 341.2 573.16 341.776 571.9 341.776H570.028ZM577.633 343H579.379V339.058H580.693L583.411 343H585.481L582.079 338.266V338.23L585.121 333.892H583.141L580.657 337.564H579.379V333.892H577.633V343ZM586.194 340.516C586.194 342.226 587.652 343.216 589.236 343.216C590.586 343.216 591.702 342.406 592.224 341.362H592.26C592.26 341.362 592.206 341.668 592.206 342.082V343H593.844V337.24C593.844 334.936 592.53 333.676 590.244 333.676C588.966 333.676 587.58 334.144 586.842 334.756L587.544 336.034C588.282 335.512 589.2 335.152 590.1 335.152C591.234 335.152 592.098 335.656 592.098 337.15V337.33H591.63C589.74 337.33 586.194 337.654 586.194 340.516ZM587.94 340.372C587.94 338.698 590.352 338.59 591.648 338.59H592.098V338.932C592.098 340.282 591.18 341.83 589.65 341.83C588.516 341.83 587.94 341.092 587.94 340.372ZM600.924 343H602.67V339.058H603.984L606.702 343H608.772L605.37 338.266V338.23L608.412 333.892H606.432L603.948 337.564H602.67V333.892H600.924V343ZM614.829 343H618.717C620.697 343 622.065 342.1 622.065 340.408C622.065 339.4 621.471 338.518 620.337 338.248V338.23C621.165 337.87 621.633 337.114 621.633 336.232C621.633 334.702 620.427 333.892 618.591 333.892H614.829V343ZM616.575 337.744V335.098H618.231C619.329 335.098 619.851 335.53 619.851 336.358C619.851 337.204 619.329 337.744 618.285 337.744H616.575ZM616.575 341.776V338.914H618.429C619.635 338.914 620.301 339.454 620.301 340.354C620.301 341.2 619.707 341.776 618.447 341.776H616.575ZM632.424 343H634.17V333.892H632.424V343ZM624.18 343H627.69C629.976 343 631.02 341.83 631.02 340.12C631.02 338.05 629.598 337.186 627.708 337.186H625.926V333.892H624.18V343ZM625.926 341.74V338.446H627.438C628.698 338.446 629.256 339.13 629.256 340.102C629.256 341.056 628.716 341.74 627.456 341.74H625.926ZM636.871 343H638.617V335.386H643.081V343H644.827V333.892H636.871V343ZM647.074 344.89L646.462 346.222C646.462 346.222 647.2 346.78 648.208 346.78C649.486 346.78 650.62 346.06 651.16 344.638L655.444 333.892H653.554L651.34 339.868C651.178 340.336 651.034 340.948 651.034 340.948H650.998C650.998 340.948 650.836 340.3 650.656 339.85L648.37 333.892H646.408L650.224 342.892L649.774 343.936C649.432 344.764 648.838 345.286 648.118 345.286C647.578 345.286 647.074 344.89 647.074 344.89ZM656.246 338.446C656.246 341.182 658.244 343.216 661.124 343.216C662.546 343.216 663.932 342.64 664.76 341.758L664.058 340.48C663.356 341.218 662.258 341.704 661.25 341.704C659.36 341.704 658.028 340.282 658.028 338.428C658.028 336.574 659.36 335.188 661.196 335.188C662.15 335.188 663.104 335.62 663.716 336.232L664.544 335.008C663.68 334.09 662.33 333.676 661.124 333.676C658.262 333.676 656.246 335.746 656.246 338.446ZM666.649 343H668.395V339.058H669.709L672.427 343H674.497L671.095 338.266V338.23L674.137 333.892H672.157L669.673 337.564H668.395V333.892H666.649V343ZM676.053 343H677.799V339.094H682.407V343H684.153V333.892H682.407V337.6H677.799V333.892H676.053V343ZM695.09 343H696.836V333.892H695.09V343ZM686.846 343H690.356C692.642 343 693.686 341.83 693.686 340.12C693.686 338.05 692.264 337.186 690.374 337.186H688.592V333.892H686.846V343ZM688.592 341.74V338.446H690.104C691.364 338.446 691.922 339.13 691.922 340.102C691.922 341.056 691.382 341.74 690.122 341.74H688.592ZM699.16 343H700.852L701.248 337.582C701.284 337.042 701.23 336.016 701.23 336.016H701.266C701.266 336.016 701.554 336.7 701.842 337.366L704.002 341.902H705.496L707.656 337.348C707.998 336.646 708.232 336.016 708.232 336.016H708.268C708.268 336.016 708.232 337.042 708.25 337.582L708.646 343H710.338L709.546 333.892H707.638L705.262 339.04C705.028 339.598 704.758 340.264 704.758 340.264H704.722C704.722 340.264 704.47 339.58 704.218 339.04L701.896 333.892H699.952L699.16 343ZM495.35 371H497.024L500.966 365.564C501.254 365.132 501.704 364.52 501.758 364.358H501.794C501.794 364.502 501.74 365.132 501.74 365.564V371H503.432V361.892H501.74L497.816 367.328C497.51 367.76 497.078 368.39 497.006 368.552H496.97C496.988 368.462 497.024 367.814 497.024 367.328V361.892H495.35V371ZM510.608 371H514.496C516.476 371 517.844 370.1 517.844 368.408C517.844 367.4 517.25 366.518 516.116 366.248V366.23C516.944 365.87 517.412 365.114 517.412 364.232C517.412 362.702 516.206 361.892 514.37 361.892H510.608V371ZM512.354 365.744V363.098H514.01C515.108 363.098 515.63 363.53 515.63 364.358C515.63 365.204 515.108 365.744 514.064 365.744H512.354ZM512.354 369.776V366.914H514.208C515.414 366.914 516.08 367.454 516.08 368.354C516.08 369.2 515.486 369.776 514.226 369.776H512.354ZM519.365 366.446C519.365 369.182 521.363 371.216 524.243 371.216C525.665 371.216 527.051 370.64 527.879 369.758L527.177 368.48C526.475 369.218 525.377 369.704 524.369 369.704C522.479 369.704 521.147 368.282 521.147 366.428C521.147 364.574 522.479 363.188 524.315 363.188C525.269 363.188 526.223 363.62 526.835 364.232L527.663 363.008C526.799 362.09 525.449 361.676 524.243 361.676C521.381 361.676 519.365 363.746 519.365 366.446ZM531.964 371H533.692V363.386H536.878V361.892H528.796V363.386H531.964V371ZM538.142 372.89L537.53 374.222C537.53 374.222 538.268 374.78 539.276 374.78C540.554 374.78 541.688 374.06 542.228 372.638L546.512 361.892H544.622L542.408 367.868C542.246 368.336 542.102 368.948 542.102 368.948H542.066C542.066 368.948 541.904 368.3 541.724 367.85L539.438 361.892H537.476L541.292 370.892L540.842 371.936C540.5 372.764 539.906 373.286 539.186 373.286C538.646 373.286 538.142 372.89 538.142 372.89ZM548.225 371H549.971V363.386H554.435V371H556.181V361.892H548.225V371ZM558.877 371H560.551L564.493 365.564C564.781 365.132 565.231 364.52 565.285 364.358H565.321C565.321 364.502 565.267 365.132 565.267 365.564V371H566.959V361.892H565.267L561.343 367.328C561.037 367.76 560.605 368.39 560.533 368.552H560.497C560.515 368.462 560.551 367.814 560.551 367.328V361.892H558.877V371ZM571.831 371H573.559V363.386H576.745V361.892H568.663V363.386H571.831V371ZM577.567 366.446C577.567 369.146 579.547 371.216 582.409 371.216C583.669 371.216 585.055 370.73 585.937 369.92L585.199 368.642C584.479 369.29 583.489 369.704 582.517 369.704C580.879 369.704 579.475 368.642 579.385 366.68H586.009C586.045 366.428 586.081 366.176 586.081 365.942C586.081 363.602 584.713 361.676 582.139 361.676C579.547 361.676 577.567 363.548 577.567 366.446ZM579.439 365.42C579.691 363.908 580.753 363.026 582.103 363.026C583.291 363.026 584.263 363.854 584.317 365.42H579.439ZM587.19 371.09C589.872 370.946 590.916 368.822 590.916 364.7V363.332H593.598V371H595.344V361.892H589.242V364.7C589.242 367.994 588.522 369.326 587.19 369.524V371.09ZM598.041 371H601.587C603.891 371 604.935 369.83 604.935 368.12C604.935 366.05 603.513 365.186 601.623 365.186H599.787V361.892H598.041V371ZM599.787 369.74V366.446H601.353C602.613 366.446 603.153 367.13 603.153 368.102C603.153 369.056 602.613 369.74 601.353 369.74H599.787ZM606.813 371H608.559V367.094H613.167V371H614.913V361.892H613.167V365.6H608.559V361.892H606.813V371ZM625.85 371H627.596V361.892H625.85V371ZM617.606 371H621.116C623.402 371 624.446 369.83 624.446 368.12C624.446 366.05 623.024 365.186 621.134 365.186H619.352V361.892H617.606V371ZM619.352 369.74V366.446H620.864C622.124 366.446 622.682 367.13 622.682 368.102C622.682 369.056 622.142 369.74 620.882 369.74H619.352ZM629.919 371H631.611L632.007 365.582C632.043 365.042 631.989 364.016 631.989 364.016H632.025C632.025 364.016 632.313 364.7 632.601 365.366L634.761 369.902H636.255L638.415 365.348C638.757 364.646 638.991 364.016 638.991 364.016H639.027C639.027 364.016 638.991 365.042 639.009 365.582L639.405 371H641.097L640.305 361.892H638.397L636.021 367.04C635.787 367.598 635.517 368.264 635.517 368.264H635.481C635.481 368.264 635.229 367.58 634.977 367.04L632.655 361.892H630.711L629.919 371ZM647.136 369.848C648.09 370.766 649.44 371.216 650.754 371.216C653.616 371.216 655.614 369.182 655.614 366.446C655.614 363.746 653.634 361.676 650.79 361.676C649.512 361.676 648.126 362.09 647.316 362.954L648.108 364.16C648.81 363.494 649.728 363.098 650.736 363.098C652.356 363.098 653.67 364.16 653.904 365.816H649.548V367.076H653.904C653.67 368.678 652.374 369.776 650.682 369.776C649.692 369.776 648.612 369.416 647.82 368.606L647.136 369.848ZM657.737 371H659.483V367.058H660.797L663.515 371H665.585L662.183 366.266V366.23L665.225 361.892H663.245L660.761 365.564H659.483V361.892H657.737V371ZM666.259 369.884C667.015 370.604 668.203 371.216 669.607 371.216C671.479 371.216 673.099 370.262 673.099 368.39C673.099 367.22 672.379 366.536 671.461 366.248V366.212C672.181 365.906 672.793 365.276 672.793 364.142C672.793 362.522 671.443 361.676 669.715 361.676C668.275 361.676 667.249 362.144 666.547 362.666L667.195 363.836C667.897 363.314 668.617 363.044 669.409 363.044C670.417 363.044 671.029 363.512 671.029 364.358C671.029 365.276 670.327 365.672 669.301 365.672H668.347V366.932H669.463C670.741 366.932 671.335 367.436 671.335 368.318C671.335 369.308 670.489 369.812 669.445 369.812C668.347 369.812 667.483 369.164 667.069 368.732L666.259 369.884ZM674.453 368.516C674.453 370.226 675.911 371.216 677.495 371.216C678.845 371.216 679.961 370.406 680.483 369.362H680.519C680.519 369.362 680.465 369.668 680.465 370.082V371H682.103V365.24C682.103 362.936 680.789 361.676 678.503 361.676C677.225 361.676 675.839 362.144 675.101 362.756L675.803 364.034C676.541 363.512 677.459 363.152 678.359 363.152C679.493 363.152 680.357 363.656 680.357 365.15V365.33H679.889C677.999 365.33 674.453 365.654 674.453 368.516ZM676.199 368.372C676.199 366.698 678.611 366.59 679.907 366.59H680.357V366.932C680.357 368.282 679.439 369.83 677.909 369.83C676.775 369.83 676.199 369.092 676.199 368.372ZM684.306 371H685.998L686.394 365.582C686.43 365.042 686.376 364.016 686.376 364.016H686.412C686.412 364.016 686.7 364.7 686.988 365.366L689.148 369.902H690.642L692.802 365.348C693.144 364.646 693.378 364.016 693.378 364.016H693.414C693.414 364.016 693.378 365.042 693.396 365.582L693.792 371H695.484L694.692 361.892H692.784L690.408 367.04C690.174 367.598 689.904 368.264 689.904 368.264H689.868C689.868 368.264 689.616 367.58 689.364 367.04L687.042 361.892H685.098L684.306 371ZM697.238 366.446C697.238 369.146 699.218 371.216 702.08 371.216C703.34 371.216 704.726 370.73 705.608 369.92L704.87 368.642C704.15 369.29 703.16 369.704 702.188 369.704C700.55 369.704 699.146 368.642 699.056 366.68H705.68C705.716 366.428 705.752 366.176 705.752 365.942C705.752 363.602 704.384 361.676 701.81 361.676C699.218 361.676 697.238 363.548 697.238 366.446ZM699.11 365.42C699.362 363.908 700.424 363.026 701.774 363.026C702.962 363.026 703.934 363.854 703.988 365.42H699.11ZM707.852 371H709.598V367.094H714.206V371H715.952V361.892H714.206V365.6H709.598V361.892H707.852V371ZM717.889 368.516C717.889 370.226 719.347 371.216 720.931 371.216C722.281 371.216 723.397 370.406 723.919 369.362H723.955C723.955 369.362 723.901 369.668 723.901 370.082V371H725.539V365.24C725.539 362.936 724.225 361.676 721.939 361.676C720.661 361.676 719.275 362.144 718.537 362.756L719.239 364.034C719.977 363.512 720.895 363.152 721.795 363.152C722.929 363.152 723.793 363.656 723.793 365.15V365.33H723.325C721.435 365.33 717.889 365.654 717.889 368.516ZM719.635 368.372C719.635 366.698 722.047 366.59 723.343 366.59H723.793V366.932C723.793 368.282 722.875 369.83 721.345 369.83C720.211 369.83 719.635 369.092 719.635 368.372ZM727.742 371H729.434L729.83 365.582C729.866 365.042 729.812 364.016 729.812 364.016H729.848C729.848 364.016 730.136 364.7 730.424 365.366L732.584 369.902H734.078L736.238 365.348C736.58 364.646 736.814 364.016 736.814 364.016H736.85C736.85 364.016 736.814 365.042 736.832 365.582L737.228 371H738.92L738.128 361.892H736.22L733.844 367.04C733.61 367.598 733.34 368.264 733.34 368.264H733.304C733.304 368.264 733.052 367.58 732.8 367.04L730.478 361.892H728.534L727.742 371Z" fill="#424754"/>
<path d="M495.674 419H497.456V407.84H503.9V419H505.682V406.292H495.674V419ZM508.604 422.6H510.35V418.46C510.35 417.992 510.278 417.668 510.278 417.668H510.314C510.944 418.64 511.988 419.216 513.14 419.216C515.534 419.216 517.262 417.344 517.262 414.446C517.262 411.62 515.732 409.676 513.266 409.676C511.934 409.676 510.782 410.288 510.206 411.386H510.17C510.17 411.386 510.224 411.08 510.224 410.702V409.892H508.604V422.6ZM510.296 414.482C510.296 412.178 511.556 411.206 512.924 411.206C514.436 411.206 515.498 412.484 515.498 414.464C515.498 416.534 514.31 417.704 512.87 417.704C511.196 417.704 510.296 416.102 510.296 414.482ZM518.658 416.516C518.658 418.226 520.116 419.216 521.7 419.216C523.05 419.216 524.166 418.406 524.688 417.362H524.724C524.724 417.362 524.67 417.668 524.67 418.082V419H526.308V413.24C526.308 410.936 524.994 409.676 522.708 409.676C521.43 409.676 520.044 410.144 519.306 410.756L520.008 412.034C520.746 411.512 521.664 411.152 522.564 411.152C523.698 411.152 524.562 411.656 524.562 413.15V413.33H524.094C522.204 413.33 518.658 413.654 518.658 416.516ZM520.404 416.372C520.404 414.698 522.816 414.59 524.112 414.59H524.562V414.932C524.562 416.282 523.644 417.83 522.114 417.83C520.98 417.83 520.404 417.092 520.404 416.372ZM528.889 419H530.635V415.058H531.949L534.667 419H536.737L533.335 414.266V414.23L536.377 409.892H534.397L531.913 413.564H530.635V409.892H528.889V419ZM540.489 419H542.217V411.386H545.403V409.892H537.321V411.386H540.489V419ZM547.118 419H548.792L552.734 413.564C553.022 413.132 553.472 412.52 553.526 412.358H553.562C553.562 412.502 553.508 413.132 553.508 413.564V419H555.2V409.892H553.508L549.584 415.328C549.278 415.76 548.846 416.39 548.774 416.552H548.738C548.756 416.462 548.792 415.814 548.792 415.328V409.892H547.118V419ZM560.359 415.832C561.259 415.832 562.249 415.526 562.825 415.166H562.861C562.861 415.166 562.843 415.454 562.843 415.706V419H564.589V409.892H562.843V413.672C562.465 413.942 561.727 414.32 560.827 414.32C559.333 414.32 559.009 413.51 559.009 412.61V409.892H557.299V412.862C557.299 414.806 558.415 415.832 560.359 415.832ZM566.703 414.446C566.703 417.146 568.683 419.216 571.545 419.216C572.805 419.216 574.191 418.73 575.073 417.92L574.335 416.642C573.615 417.29 572.625 417.704 571.653 417.704C570.015 417.704 568.611 416.642 568.521 414.68H575.145C575.181 414.428 575.217 414.176 575.217 413.942C575.217 411.602 573.849 409.676 571.275 409.676C568.683 409.676 566.703 411.548 566.703 414.446ZM568.575 413.42C568.827 411.908 569.889 411.026 571.239 411.026C572.427 411.026 573.399 411.854 573.453 413.42H568.575ZM576.723 414.446C576.723 417.182 578.721 419.216 581.601 419.216C583.023 419.216 584.409 418.64 585.237 417.758L584.535 416.48C583.833 417.218 582.735 417.704 581.727 417.704C579.837 417.704 578.505 416.282 578.505 414.428C578.505 412.574 579.837 411.188 581.673 411.188C582.627 411.188 583.581 411.62 584.193 412.232L585.021 411.008C584.157 410.09 582.807 409.676 581.601 409.676C578.739 409.676 576.723 411.746 576.723 414.446ZM587.125 419H588.871V415.058H590.185L592.903 419H594.973L591.571 414.266V414.23L594.613 409.892H592.633L590.149 413.564H588.871V409.892H587.125V419ZM595.549 414.428C595.549 417.2 597.745 419.216 600.463 419.216C603.163 419.216 605.359 417.2 605.359 414.428C605.359 411.674 603.163 409.676 600.445 409.676C597.745 409.676 595.549 411.674 595.549 414.428ZM597.331 414.428C597.331 412.538 598.735 411.188 600.463 411.188C602.173 411.188 603.595 412.538 603.595 414.428C603.595 416.336 602.173 417.704 600.463 417.704C598.735 417.704 597.331 416.336 597.331 414.428ZM606.869 414.446C606.869 417.146 608.849 419.216 611.711 419.216C612.971 419.216 614.357 418.73 615.239 417.92L614.501 416.642C613.781 417.29 612.791 417.704 611.819 417.704C610.181 417.704 608.777 416.642 608.687 414.68H615.311C615.347 414.428 615.383 414.176 615.383 413.942C615.383 411.602 614.015 409.676 611.441 409.676C608.849 409.676 606.869 411.548 606.869 414.446ZM608.741 413.42C608.993 411.908 610.055 411.026 611.405 411.026C612.593 411.026 613.565 411.854 613.619 413.42H608.741ZM621.983 419H623.729V411.386H628.193V419H629.939V409.892H621.983V419ZM632.635 422.6H634.381V418.46C634.381 417.992 634.309 417.668 634.309 417.668H634.345C634.975 418.64 636.019 419.216 637.171 419.216C639.565 419.216 641.293 417.344 641.293 414.446C641.293 411.62 639.763 409.676 637.297 409.676C635.965 409.676 634.813 410.288 634.237 411.386H634.201C634.201 411.386 634.255 411.08 634.255 410.702V409.892H632.635V422.6ZM634.327 414.482C634.327 412.178 635.587 411.206 636.955 411.206C638.467 411.206 639.529 412.484 639.529 414.464C639.529 416.534 638.341 417.704 636.901 417.704C635.227 417.704 634.327 416.102 634.327 414.482ZM643.446 419H645.12L649.062 413.564C649.35 413.132 649.8 412.52 649.854 412.358H649.89C649.89 412.502 649.836 413.132 649.836 413.564V419H651.528V409.892H649.836L645.912 415.328C645.606 415.76 645.174 416.39 645.102 416.552H645.066C645.084 416.462 645.12 415.814 645.12 415.328V409.892H643.446V419ZM653.826 419H655.518L655.914 413.582C655.95 413.042 655.896 412.016 655.896 412.016H655.932C655.932 412.016 656.22 412.7 656.508 413.366L658.668 417.902H660.162L662.322 413.348C662.664 412.646 662.898 412.016 662.898 412.016H662.934C662.934 412.016 662.898 413.042 662.916 413.582L663.312 419H665.004L664.212 409.892H662.304L659.928 415.04C659.694 415.598 659.424 416.264 659.424 416.264H659.388C659.388 416.264 659.136 415.58 658.884 415.04L656.562 409.892H654.618L653.826 419ZM666.758 414.446C666.758 417.146 668.738 419.216 671.6 419.216C672.86 419.216 674.246 418.73 675.128 417.92L674.39 416.642C673.67 417.29 672.68 417.704 671.708 417.704C670.07 417.704 668.666 416.642 668.576 414.68H675.2C675.236 414.428 675.272 414.176 675.272 413.942C675.272 411.602 673.904 409.676 671.33 409.676C668.738 409.676 666.758 411.548 666.758 414.446ZM668.63 413.42C668.882 411.908 669.944 411.026 671.294 411.026C672.482 411.026 673.454 411.854 673.508 413.42H668.63ZM677.371 419H679.117V415.094H683.725V419H685.471V409.892H683.725V413.6H679.117V409.892H677.371V419ZM687.57 414.446C687.57 417.146 689.55 419.216 692.412 419.216C693.672 419.216 695.058 418.73 695.94 417.92L695.202 416.642C694.482 417.29 693.492 417.704 692.52 417.704C690.882 417.704 689.478 416.642 689.388 414.68H696.012C696.048 414.428 696.084 414.176 696.084 413.942C696.084 411.602 694.716 409.676 692.142 409.676C689.55 409.676 687.57 411.548 687.57 414.446ZM689.442 413.42C689.694 411.908 690.756 411.026 692.106 411.026C693.294 411.026 694.266 411.854 694.32 413.42H689.442ZM698.184 419H699.93V415.094H704.538V419H706.284V409.892H704.538V413.6H699.93V409.892H698.184V419ZM708.977 419H710.651L714.593 413.564C714.881 413.132 715.331 412.52 715.385 412.358H715.421C715.421 412.502 715.367 413.132 715.367 413.564V419H717.059V409.892H715.367L711.443 415.328C711.137 415.76 710.705 416.39 710.633 416.552H710.597C710.615 416.462 710.651 415.814 710.651 415.328V409.892H708.977V419ZM719.141 414.446C719.141 417.146 721.121 419.216 723.983 419.216C725.243 419.216 726.629 418.73 727.511 417.92L726.773 416.642C726.053 417.29 725.063 417.704 724.091 417.704C722.453 417.704 721.049 416.642 720.959 414.68H727.583C727.619 414.428 727.655 414.176 727.655 413.942C727.655 411.602 726.287 409.676 723.713 409.676C721.121 409.676 719.141 411.548 719.141 414.446ZM721.013 413.42C721.265 411.908 722.327 411.026 723.677 411.026C724.865 411.026 725.837 411.854 725.891 413.42H721.013ZM494.468 445.884C495.224 446.604 496.412 447.216 497.816 447.216C499.688 447.216 501.308 446.262 501.308 444.39C501.308 443.22 500.588 442.536 499.67 442.248V442.212C500.39 441.906 501.002 441.276 501.002 440.142C501.002 438.522 499.652 437.676 497.924 437.676C496.484 437.676 495.458 438.144 494.756 438.666L495.404 439.836C496.106 439.314 496.826 439.044 497.618 439.044C498.626 439.044 499.238 439.512 499.238 440.358C499.238 441.276 498.536 441.672 497.51 441.672H496.556V442.932H497.672C498.95 442.932 499.544 443.436 499.544 444.318C499.544 445.308 498.698 445.812 497.654 445.812C496.556 445.812 495.692 445.164 495.278 444.732L494.468 445.884ZM503.418 447H505.164V443.094H509.772V447H511.518V437.892H509.772V441.6H505.164V437.892H503.418V447ZM513.455 444.516C513.455 446.226 514.913 447.216 516.497 447.216C517.847 447.216 518.963 446.406 519.485 445.362H519.521C519.521 445.362 519.467 445.668 519.467 446.082V447H521.105V441.24C521.105 438.936 519.791 437.676 517.505 437.676C516.227 437.676 514.841 438.144 514.103 438.756L514.805 440.034C515.543 439.512 516.461 439.152 517.361 439.152C518.495 439.152 519.359 439.656 519.359 441.15V441.33H518.891C517.001 441.33 513.455 441.654 513.455 444.516ZM515.201 444.372C515.201 442.698 517.613 442.59 518.909 442.59H519.359V442.932C519.359 444.282 518.441 445.83 516.911 445.83C515.777 445.83 515.201 445.092 515.201 444.372ZM523.686 447H525.432V443.094H530.04V447H531.786V437.892H530.04V441.6H525.432V437.892H523.686V447ZM534.479 447H536.153L540.095 441.564C540.383 441.132 540.833 440.52 540.887 440.358H540.923C540.923 440.502 540.869 441.132 540.869 441.564V447H542.561V437.892H540.869L536.945 443.328C536.639 443.76 536.207 444.39 536.135 444.552H536.099C536.117 444.462 536.153 443.814 536.153 443.328V437.892H534.479V447ZM549.251 436.848C550.655 436.848 551.915 436.02 551.915 434.544V434.274H550.529V434.508C550.529 435.318 549.881 435.714 549.251 435.714C548.621 435.714 547.991 435.318 547.991 434.526V434.274H546.587V434.544C546.587 436.02 547.865 436.848 549.251 436.848ZM545.237 447H546.911L550.853 441.564C551.141 441.132 551.591 440.52 551.645 440.358H551.681C551.681 440.502 551.627 441.132 551.627 441.564V447H553.319V437.892H551.627L547.703 443.328C547.397 443.76 546.965 444.39 546.893 444.552H546.857C546.875 444.462 546.911 443.814 546.911 443.328V437.892H545.237V447ZM560.495 447H564.383C566.363 447 567.731 446.1 567.731 444.408C567.731 443.4 567.137 442.518 566.003 442.248V442.23C566.831 441.87 567.299 441.114 567.299 440.232C567.299 438.702 566.093 437.892 564.257 437.892H560.495V447ZM562.241 441.744V439.098H563.897C564.995 439.098 565.517 439.53 565.517 440.358C565.517 441.204 564.995 441.744 563.951 441.744H562.241ZM562.241 445.776V442.914H564.095C565.301 442.914 565.967 443.454 565.967 444.354C565.967 445.2 565.373 445.776 564.113 445.776H562.241ZM573.302 447H575.246L577.64 443.112H578.936V447H580.592V443.112H581.906L584.282 447H586.244L583.31 442.32V442.284L585.974 437.892H584.138L581.888 441.618H580.592V437.892H578.936V441.618H577.64L575.408 437.892H573.554L576.236 442.284V442.32L573.302 447ZM587.881 447H589.555L593.497 441.564C593.785 441.132 594.235 440.52 594.289 440.358H594.325C594.325 440.502 594.271 441.132 594.271 441.564V447H595.963V437.892H594.271L590.347 443.328C590.041 443.76 589.609 444.39 589.537 444.552H589.501C589.519 444.462 589.555 443.814 589.555 443.328V437.892H587.881V447ZM597.757 445.884C598.513 446.604 599.701 447.216 601.105 447.216C602.977 447.216 604.597 446.262 604.597 444.39C604.597 443.22 603.877 442.536 602.959 442.248V442.212C603.679 441.906 604.291 441.276 604.291 440.142C604.291 438.522 602.941 437.676 601.213 437.676C599.773 437.676 598.747 438.144 598.045 438.666L598.693 439.836C599.395 439.314 600.115 439.044 600.907 439.044C601.915 439.044 602.527 439.512 602.527 440.358C602.527 441.276 601.825 441.672 600.799 441.672H599.845V442.932H600.961C602.239 442.932 602.833 443.436 602.833 444.318C602.833 445.308 601.987 445.812 600.943 445.812C599.845 445.812 598.981 445.164 598.567 444.732L597.757 445.884ZM606.707 447H608.453V443.094H613.061V447H614.807V437.892H613.061V441.6H608.453V437.892H606.707V447ZM617.5 447H619.174L623.116 441.564C623.404 441.132 623.854 440.52 623.908 440.358H623.944C623.944 440.502 623.89 441.132 623.89 441.564V447H625.582V437.892H623.89L619.966 443.328C619.66 443.76 619.228 444.39 619.156 444.552H619.12C619.138 444.462 619.174 443.814 619.174 443.328V437.892H617.5V447Z" fill="#424754"/>
<path d="M495.674 143H497.42L503.09 134.756C503.54 134.054 504.152 132.902 504.152 132.902H504.188C504.188 132.902 504.08 134.036 504.08 134.756V143H505.844V130.292H504.098L498.464 138.518C498.014 139.202 497.384 140.39 497.384 140.39H497.348C497.348 140.39 497.456 139.256 497.456 138.536V130.292H495.674V143ZM508.78 143H510.526V139.094H515.134V143H516.88V133.892H515.134V137.6H510.526V133.892H508.78V143ZM521.769 143H523.497V135.386H526.683V133.892H518.601V135.386H521.769V143ZM527.504 138.446C527.504 141.146 529.484 143.216 532.346 143.216C533.606 143.216 534.992 142.73 535.874 141.92L535.136 140.642C534.416 141.29 533.426 141.704 532.454 141.704C530.816 141.704 529.412 140.642 529.322 138.68H535.946C535.982 138.428 536.018 138.176 536.018 137.942C536.018 135.602 534.65 133.676 532.076 133.676C529.484 133.676 527.504 135.548 527.504 138.446ZM529.376 137.42C529.628 135.908 530.69 135.026 532.04 135.026C533.228 135.026 534.2 135.854 534.254 137.42H529.376ZM538.118 146.6H539.864V142.46C539.864 141.992 539.792 141.668 539.792 141.668H539.828C540.458 142.64 541.502 143.216 542.654 143.216C545.048 143.216 546.776 141.344 546.776 138.446C546.776 135.62 545.246 133.676 542.78 133.676C541.448 133.676 540.296 134.288 539.72 135.386H539.684C539.684 135.386 539.738 135.08 539.738 134.702V133.892H538.118V146.6ZM539.81 138.482C539.81 136.178 541.07 135.206 542.438 135.206C543.95 135.206 545.012 136.484 545.012 138.464C545.012 140.534 543.824 141.704 542.384 141.704C540.71 141.704 539.81 140.102 539.81 138.482ZM548.172 140.516C548.172 142.226 549.63 143.216 551.214 143.216C552.564 143.216 553.68 142.406 554.202 141.362H554.238C554.238 141.362 554.184 141.668 554.184 142.082V143H555.822V137.24C555.822 134.936 554.508 133.676 552.222 133.676C550.944 133.676 549.558 134.144 548.82 134.756L549.522 136.034C550.26 135.512 551.178 135.152 552.078 135.152C553.212 135.152 554.076 135.656 554.076 137.15V137.33H553.608C551.718 137.33 548.172 137.654 548.172 140.516ZM549.918 140.372C549.918 138.698 552.33 138.59 553.626 138.59H554.076V138.932C554.076 140.282 553.158 141.83 551.628 141.83C550.494 141.83 549.918 141.092 549.918 140.372ZM558.403 143H560.149V139.058H561.463L564.181 143H566.251L562.849 138.266V138.23L565.891 133.892H563.911L561.427 137.564H560.149V133.892H558.403V143ZM570.003 143H571.731V135.386H574.917V133.892H566.835V135.386H570.003V143ZM576.631 143H578.305L582.247 137.564C582.535 137.132 582.985 136.52 583.039 136.358H583.075C583.075 136.502 583.021 137.132 583.021 137.564V143H584.713V133.892H583.021L579.097 139.328C578.791 139.76 578.359 140.39 578.287 140.552H578.251C578.269 140.462 578.305 139.814 578.305 139.328V133.892H576.631V143ZM587.389 143H591.277C593.257 143 594.625 142.1 594.625 140.408C594.625 139.4 594.031 138.518 592.897 138.248V138.23C593.725 137.87 594.193 137.114 594.193 136.232C594.193 134.702 592.987 133.892 591.151 133.892H587.389V143ZM589.135 137.744V135.098H590.791C591.889 135.098 592.411 135.53 592.411 136.358C592.411 137.204 591.889 137.744 590.845 137.744H589.135ZM589.135 141.776V138.914H590.989C592.195 138.914 592.861 139.454 592.861 140.354C592.861 141.2 592.267 141.776 591.007 141.776H589.135ZM596.741 143H598.487V139.094H603.095V143H604.841V133.892H603.095V137.6H598.487V133.892H596.741V143ZM615.778 143H617.524V133.892H615.778V143ZM607.534 143H611.044C613.33 143 614.374 141.83 614.374 140.12C614.374 138.05 612.952 137.186 611.062 137.186H609.28V133.892H607.534V143ZM609.28 141.74V138.446H610.792C612.052 138.446 612.61 139.13 612.61 140.102C612.61 141.056 612.07 141.74 610.81 141.74H609.28ZM624.239 132.848C625.643 132.848 626.903 132.02 626.903 130.544V130.274H625.517V130.508C625.517 131.318 624.869 131.714 624.239 131.714C623.609 131.714 622.979 131.318 622.979 130.526V130.274H621.575V130.544C621.575 132.02 622.853 132.848 624.239 132.848ZM620.225 143H621.899L625.841 137.564C626.129 137.132 626.579 136.52 626.633 136.358H626.669C626.669 136.502 626.615 137.132 626.615 137.564V143H628.307V133.892H626.615L622.691 139.328C622.385 139.76 621.953 140.39 621.881 140.552H621.845C621.863 140.462 621.899 139.814 621.899 139.328V133.892H620.225V143ZM634.907 138.428C634.907 141.236 637.013 143.09 639.839 143.216V146.6H641.513V143.216C644.339 143.09 646.427 141.236 646.427 138.428C646.427 135.638 644.339 133.802 641.513 133.694V130.4H639.839V133.694C637.013 133.802 634.907 135.638 634.907 138.428ZM641.513 141.758V135.134C643.367 135.242 644.717 136.448 644.717 138.428C644.717 140.39 643.367 141.632 641.513 141.758ZM636.635 138.428C636.635 136.448 637.967 135.242 639.839 135.134V141.758C637.967 141.632 636.635 140.39 636.635 138.428ZM647.949 138.428C647.949 141.2 650.145 143.216 652.863 143.216C655.563 143.216 657.759 141.2 657.759 138.428C657.759 135.674 655.563 133.676 652.845 133.676C650.145 133.676 647.949 135.674 647.949 138.428ZM649.731 138.428C649.731 136.538 651.135 135.188 652.863 135.188C654.573 135.188 655.995 136.538 655.995 138.428C655.995 140.336 654.573 141.704 652.863 141.704C651.135 141.704 649.731 140.336 649.731 138.428ZM659.864 146.6H661.61V142.46C661.61 141.992 661.538 141.668 661.538 141.668H661.574C662.204 142.64 663.248 143.216 664.4 143.216C666.794 143.216 668.522 141.344 668.522 138.446C668.522 135.62 666.992 133.676 664.526 133.676C663.194 133.676 662.042 134.288 661.466 135.386H661.43C661.43 135.386 661.484 135.08 661.484 134.702V133.892H659.864V146.6ZM661.556 138.482C661.556 136.178 662.816 135.206 664.184 135.206C665.696 135.206 666.758 136.484 666.758 138.464C666.758 140.534 665.57 141.704 664.13 141.704C662.456 141.704 661.556 140.102 661.556 138.482ZM670.296 143H671.988L672.384 137.582C672.42 137.042 672.366 136.016 672.366 136.016H672.402C672.402 136.016 672.69 136.7 672.978 137.366L675.138 141.902H676.632L678.792 137.348C679.134 136.646 679.368 136.016 679.368 136.016H679.404C679.404 136.016 679.368 137.042 679.386 137.582L679.782 143H681.474L680.682 133.892H678.774L676.398 139.04C676.164 139.598 675.894 140.264 675.894 140.264H675.858C675.858 140.264 675.606 139.58 675.354 139.04L673.032 133.892H671.088L670.296 143ZM683.067 140.516C683.067 142.226 684.525 143.216 686.109 143.216C687.459 143.216 688.575 142.406 689.097 141.362H689.133C689.133 141.362 689.079 141.668 689.079 142.082V143H690.717V137.24C690.717 134.936 689.403 133.676 687.117 133.676C685.839 133.676 684.453 134.144 683.715 134.756L684.417 136.034C685.155 135.512 686.073 135.152 686.973 135.152C688.107 135.152 688.971 135.656 688.971 137.15V137.33H688.503C686.613 137.33 683.067 137.654 683.067 140.516ZM684.813 140.372C684.813 138.698 687.225 138.59 688.521 138.59H688.971V138.932C688.971 140.282 688.053 141.83 686.523 141.83C685.389 141.83 684.813 141.092 684.813 140.372ZM695.37 143H697.098V135.386H700.284V133.892H692.202V135.386H695.37V143ZM705.904 138.428C705.904 141.2 708.1 143.216 710.818 143.216C713.518 143.216 715.714 141.2 715.714 138.428C715.714 135.674 713.518 133.676 710.8 133.676C708.1 133.676 705.904 135.674 705.904 138.428ZM707.686 138.428C707.686 136.538 709.09 135.188 710.818 135.188C712.528 135.188 713.95 136.538 713.95 138.428C713.95 140.336 712.528 141.704 710.818 141.704C709.09 141.704 707.686 140.336 707.686 138.428ZM717.423 137.762C717.423 140.912 718.809 143.216 721.887 143.216C724.461 143.216 726.189 141.416 726.189 138.896C726.189 136.322 724.605 134.702 722.319 134.702C721.113 134.702 719.907 135.098 719.097 136.322H719.061C719.187 134.576 720.051 133.514 721.869 132.686L725.361 131.228L724.785 129.788L721.527 131.192C718.359 132.524 717.423 134.504 717.423 137.762ZM719.241 138.896C719.241 137.294 720.339 136.088 721.887 136.088C723.255 136.088 724.425 137.15 724.425 138.932C724.425 140.696 723.255 141.74 721.815 141.74C720.411 141.74 719.241 140.696 719.241 138.896ZM727.511 144.89L726.899 146.222C726.899 146.222 727.637 146.78 728.645 146.78C729.923 146.78 731.057 146.06 731.597 144.638L735.881 133.892H733.991L731.777 139.868C731.615 140.336 731.471 140.948 731.471 140.948H731.435C731.435 140.948 731.273 140.3 731.093 139.85L728.807 133.892H726.845L730.661 142.892L730.211 143.936C729.869 144.764 729.275 145.286 728.555 145.286C728.015 145.286 727.511 144.89 727.511 144.89ZM740.078 139.832C740.978 139.832 741.968 139.526 742.544 139.166H742.58C742.58 139.166 742.562 139.454 742.562 139.706V143H744.308V133.892H742.562V137.672C742.184 137.942 741.446 138.32 740.546 138.32C739.052 138.32 738.728 137.51 738.728 136.61V133.892H737.018V136.862C737.018 138.806 738.134 139.832 740.078 139.832ZM746.422 138.446C746.422 141.146 748.402 143.216 751.264 143.216C752.524 143.216 753.91 142.73 754.792 141.92L754.054 140.642C753.334 141.29 752.344 141.704 751.372 141.704C749.734 141.704 748.33 140.642 748.24 138.68H754.864C754.9 138.428 754.936 138.176 754.936 137.942C754.936 135.602 753.568 133.676 750.994 133.676C748.402 133.676 746.422 135.548 746.422 138.446ZM748.294 137.42C748.546 135.908 749.608 135.026 750.958 135.026C752.146 135.026 753.118 135.854 753.172 137.42H748.294ZM757.036 143H758.782V139.094H763.39V143H765.136V133.892H763.39V137.6H758.782V133.892H757.036V143ZM767.829 143H769.503L773.445 137.564C773.733 137.132 774.183 136.52 774.237 136.358H774.273C774.273 136.502 774.219 137.132 774.219 137.564V143H775.911V133.892H774.219L770.295 139.328C769.989 139.76 769.557 140.39 769.485 140.552H769.449C769.467 140.462 769.503 139.814 769.503 139.328V133.892H767.829V143ZM777.668 143H779.594L781.826 139.706H783.356V143H785.102V133.892H781.466C779.54 133.892 778.208 134.882 778.208 136.754C778.208 138.14 779.144 139.112 780.188 139.4V139.418C780.188 139.418 779.972 139.652 779.774 139.976L777.668 143ZM781.844 138.428C780.782 138.428 779.972 137.87 779.972 136.736C779.972 135.566 780.728 135.098 781.898 135.098H783.356V138.428H781.844ZM787.707 135.746H789.543V133.892H787.707V135.746ZM787.707 143H789.543V141.146H787.707V143ZM494.882 164.556C494.882 168.3 497.744 171.216 501.416 171.216C505.088 171.216 507.932 168.3 507.932 164.556C507.932 160.902 505.088 158.076 501.416 158.076C497.744 158.076 494.882 160.902 494.882 164.556ZM496.718 164.556C496.718 161.802 498.806 159.696 501.416 159.696C504.008 159.696 506.096 161.802 506.096 164.556C506.096 167.4 504.008 169.578 501.416 169.578C498.806 169.578 496.718 167.4 496.718 164.556ZM510.063 171H511.809V167.094H516.417V171H518.163V161.892H516.417V165.6H511.809V161.892H510.063V171ZM519.866 171.09C522.548 170.946 523.592 168.822 523.592 164.7V163.332H526.274V171H528.02V161.892H521.918V164.7C521.918 167.994 521.198 169.326 519.866 169.524V171.09ZM529.961 168.516C529.961 170.226 531.419 171.216 533.003 171.216C534.353 171.216 535.469 170.406 535.991 169.362H536.027C536.027 169.362 535.973 169.668 535.973 170.082V171H537.611V165.24C537.611 162.936 536.297 161.676 534.011 161.676C532.733 161.676 531.347 162.144 530.609 162.756L531.311 164.034C532.049 163.512 532.967 163.152 533.867 163.152C535.001 163.152 535.865 163.656 535.865 165.15V165.33H535.397C533.507 165.33 529.961 165.654 529.961 168.516ZM531.707 168.372C531.707 166.698 534.119 166.59 535.415 166.59H535.865V166.932C535.865 168.282 534.947 169.83 533.417 169.83C532.283 169.83 531.707 169.092 531.707 168.372ZM544.206 160.848C545.61 160.848 546.87 160.02 546.87 158.544V158.274H545.484V158.508C545.484 159.318 544.836 159.714 544.206 159.714C543.576 159.714 542.946 159.318 542.946 158.526V158.274H541.542V158.544C541.542 160.02 542.82 160.848 544.206 160.848ZM540.192 171H541.866L545.808 165.564C546.096 165.132 546.546 164.52 546.6 164.358H546.636C546.636 164.502 546.582 165.132 546.582 165.564V171H548.274V161.892H546.582L542.658 167.328C542.352 167.76 541.92 168.39 541.848 168.552H541.812C541.83 168.462 541.866 167.814 541.866 167.328V161.892H540.192V171ZM550.95 171H552.696V167.094H557.304V171H559.05V161.892H557.304V165.6H552.696V161.892H550.95V171ZM566.189 166.572H575.639V165.168H566.189V166.572ZM582.784 171H584.53V163.386H588.49V161.892H582.784V171ZM591.122 169.56C592.274 167.76 592.418 165.168 592.418 163.8V163.314H595.154V169.56H591.122ZM588.206 169.56V173.16H589.844V171H596.594V173.16H598.196V169.56H596.9V161.892H590.744V163.566C590.744 164.97 590.6 167.814 589.322 169.56H588.206ZM599.328 166.446C599.328 169.146 601.308 171.216 604.17 171.216C605.43 171.216 606.816 170.73 607.698 169.92L606.96 168.642C606.24 169.29 605.25 169.704 604.278 169.704C602.64 169.704 601.236 168.642 601.146 166.68H607.77C607.806 166.428 607.842 166.176 607.842 165.942C607.842 163.602 606.474 161.676 603.9 161.676C601.308 161.676 599.328 163.548 599.328 166.446ZM601.2 165.42C601.452 163.908 602.514 163.026 603.864 163.026C605.052 163.026 606.024 163.854 606.078 165.42H601.2ZM614.442 171H616.116L620.058 165.564C620.346 165.132 620.796 164.52 620.85 164.358H620.886C620.886 164.502 620.832 165.132 620.832 165.564V171H622.524V161.892H620.832L616.908 167.328C616.602 167.76 616.17 168.39 616.098 168.552H616.062C616.08 168.462 616.116 167.814 616.116 167.328V161.892H614.442V171ZM629.7 171H631.446V167.058H632.76L635.478 171H637.548L634.146 166.266V166.23L637.188 161.892H635.208L632.724 165.564H631.446V161.892H629.7V171ZM638.123 166.428C638.123 169.2 640.319 171.216 643.037 171.216C645.737 171.216 647.933 169.2 647.933 166.428C647.933 163.674 645.737 161.676 643.019 161.676C640.319 161.676 638.123 163.674 638.123 166.428ZM639.905 166.428C639.905 164.538 641.309 163.188 643.037 163.188C644.747 163.188 646.169 164.538 646.169 166.428C646.169 168.336 644.747 169.704 643.037 169.704C641.309 169.704 639.905 168.336 639.905 166.428ZM650.038 171H651.784V163.386H655.744V161.892H650.038V171ZM658.376 169.56C659.528 167.76 659.672 165.168 659.672 163.8V163.314H662.408V169.56H658.376ZM655.46 169.56V173.16H657.098V171H663.848V173.16H665.45V169.56H664.154V161.892H657.998V163.566C657.998 164.97 657.854 167.814 656.576 169.56H655.46ZM666.526 168.516C666.526 170.226 667.984 171.216 669.568 171.216C670.918 171.216 672.034 170.406 672.556 169.362H672.592C672.592 169.362 672.538 169.668 672.538 170.082V171H674.176V165.24C674.176 162.936 672.862 161.676 670.576 161.676C669.298 161.676 667.912 162.144 667.174 162.756L667.876 164.034C668.614 163.512 669.532 163.152 670.432 163.152C671.566 163.152 672.43 163.656 672.43 165.15V165.33H671.962C670.072 165.33 666.526 165.654 666.526 168.516ZM668.272 168.372C668.272 166.698 670.684 166.59 671.98 166.59H672.43V166.932C672.43 168.282 671.512 169.83 669.982 169.83C668.848 169.83 668.272 169.092 668.272 168.372ZM680.806 172.89L680.194 174.222C680.194 174.222 680.932 174.78 681.94 174.78C683.218 174.78 684.352 174.06 684.892 172.638L689.176 161.892H687.286L685.072 167.868C684.91 168.336 684.766 168.948 684.766 168.948H684.73C684.73 168.948 684.568 168.3 684.388 167.85L682.102 161.892H680.14L683.956 170.892L683.506 171.936C683.164 172.764 682.57 173.286 681.85 173.286C681.31 173.286 680.806 172.89 680.806 172.89ZM690.889 171H692.635V163.386H696.595V161.892H690.889V171ZM697.397 166.428C697.397 169.2 699.593 171.216 702.311 171.216C705.011 171.216 707.207 169.2 707.207 166.428C707.207 163.674 705.011 161.676 702.293 161.676C699.593 161.676 697.397 163.674 697.397 166.428ZM699.179 166.428C699.179 164.538 700.583 163.188 702.311 163.188C704.021 163.188 705.443 164.538 705.443 166.428C705.443 168.336 704.021 169.704 702.311 169.704C700.583 169.704 699.179 168.336 699.179 166.428ZM710.864 169.56C712.016 167.76 712.16 165.168 712.16 163.8V163.314H714.896V169.56H710.864ZM707.948 169.56V173.16H709.586V171H716.336V173.16H717.938V169.56H716.642V161.892H710.486V163.566C710.486 164.97 710.342 167.814 709.064 169.56H707.948ZM719.77 171H721.516V167.094H726.124V171H727.87V161.892H726.124V165.6H721.516V161.892H719.77V171ZM729.969 166.428C729.969 169.2 732.165 171.216 734.883 171.216C737.583 171.216 739.779 169.2 739.779 166.428C739.779 163.674 737.583 161.676 734.865 161.676C732.165 161.676 729.969 163.674 729.969 166.428ZM731.751 166.428C731.751 164.538 733.155 163.188 734.883 163.188C736.593 163.188 738.015 164.538 738.015 166.428C738.015 168.336 736.593 169.704 734.883 169.704C733.155 169.704 731.751 168.336 731.751 166.428Z" fill="#424754"/>
<path d="M495.35 94.388C496.052 94.874 496.808 95.216 497.672 95.216C499.256 95.216 500.066 93.938 500.57 92.66L504.62 82.292H502.748L500.39 88.7C500.12 89.474 499.85 90.356 499.85 90.356H499.814C499.814 90.356 499.49 89.474 499.094 88.682L495.998 82.292H494.036L499.058 92.246C498.716 93.128 498.356 93.668 497.618 93.668C497.006 93.668 496.466 93.272 496.16 93.038L495.35 94.388ZM506.888 93.56C508.04 91.76 508.184 89.168 508.184 87.8V87.314H510.92V93.56H506.888ZM503.972 93.56V97.16H505.61V95H512.36V97.16H513.962V93.56H512.666V85.892H506.51V87.566C506.51 88.97 506.366 91.814 505.088 93.56H503.972ZM515.094 90.428C515.094 93.2 517.29 95.216 520.008 95.216C522.708 95.216 524.904 93.2 524.904 90.428C524.904 87.674 522.708 85.676 519.99 85.676C517.29 85.676 515.094 87.674 515.094 90.428ZM516.876 90.428C516.876 88.538 518.28 87.188 520.008 87.188C521.718 87.188 523.14 88.538 523.14 90.428C523.14 92.336 521.718 93.704 520.008 93.704C518.28 93.704 516.876 92.336 516.876 90.428ZM526.612 89.762C526.612 92.912 527.998 95.216 531.076 95.216C533.65 95.216 535.378 93.416 535.378 90.896C535.378 88.322 533.794 86.702 531.508 86.702C530.302 86.702 529.096 87.098 528.286 88.322H528.25C528.376 86.576 529.24 85.514 531.058 84.686L534.55 83.228L533.974 81.788L530.716 83.192C527.548 84.524 526.612 86.504 526.612 89.762ZM528.43 90.896C528.43 89.294 529.528 88.088 531.076 88.088C532.444 88.088 533.614 89.15 533.614 90.932C533.614 92.696 532.444 93.74 531.004 93.74C529.6 93.74 528.43 92.696 528.43 90.896ZM537.555 95H539.301V91.094H543.909V95H545.655V85.892H543.909V89.6H539.301V85.892H537.555V95ZM547.754 90.428C547.754 93.2 549.95 95.216 552.668 95.216C555.368 95.216 557.564 93.2 557.564 90.428C557.564 87.674 555.368 85.676 552.65 85.676C549.95 85.676 547.754 87.674 547.754 90.428ZM549.536 90.428C549.536 88.538 550.94 87.188 552.668 87.188C554.378 87.188 555.8 88.538 555.8 90.428C555.8 92.336 554.378 93.704 552.668 93.704C550.94 93.704 549.536 92.336 549.536 90.428ZM559.074 90.446C559.074 93.146 561.054 95.216 563.916 95.216C565.176 95.216 566.562 94.73 567.444 93.92L566.706 92.642C565.986 93.29 564.996 93.704 564.024 93.704C562.386 93.704 560.982 92.642 560.892 90.68H567.516C567.552 90.428 567.588 90.176 567.588 89.942C567.588 87.602 566.22 85.676 563.646 85.676C561.054 85.676 559.074 87.548 559.074 90.446ZM560.946 89.42C561.198 87.908 562.26 87.026 563.61 87.026C564.798 87.026 565.77 87.854 565.824 89.42H560.946ZM574.188 98.6H575.934V94.46C575.934 93.992 575.862 93.668 575.862 93.668H575.898C576.528 94.64 577.572 95.216 578.724 95.216C581.118 95.216 582.846 93.344 582.846 90.446C582.846 87.62 581.316 85.676 578.85 85.676C577.518 85.676 576.366 86.288 575.79 87.386H575.754C575.754 87.386 575.808 87.08 575.808 86.702V85.892H574.188V98.6ZM575.88 90.482C575.88 88.178 577.14 87.206 578.508 87.206C580.02 87.206 581.082 88.484 581.082 90.464C581.082 92.534 579.894 93.704 578.454 93.704C576.78 93.704 575.88 92.102 575.88 90.482ZM584.242 92.516C584.242 94.226 585.7 95.216 587.284 95.216C588.634 95.216 589.75 94.406 590.272 93.362H590.308C590.308 93.362 590.254 93.668 590.254 94.082V95H591.892V89.24C591.892 86.936 590.578 85.676 588.292 85.676C587.014 85.676 585.628 86.144 584.89 86.756L585.592 88.034C586.33 87.512 587.248 87.152 588.148 87.152C589.282 87.152 590.146 87.656 590.146 89.15V89.33H589.678C587.788 89.33 584.242 89.654 584.242 92.516ZM585.988 92.372C585.988 90.698 588.4 90.59 589.696 90.59H590.146V90.932C590.146 92.282 589.228 93.83 587.698 93.83C586.564 93.83 585.988 93.092 585.988 92.372ZM593.879 90.446C593.879 93.182 595.877 95.216 598.757 95.216C600.179 95.216 601.565 94.64 602.393 93.758L601.691 92.48C600.989 93.218 599.891 93.704 598.883 93.704C596.993 93.704 595.661 92.282 595.661 90.428C595.661 88.574 596.993 87.188 598.829 87.188C599.783 87.188 600.737 87.62 601.349 88.232L602.177 87.008C601.313 86.09 599.963 85.676 598.757 85.676C595.895 85.676 593.879 87.746 593.879 90.446ZM604.282 95H606.028V87.386H610.492V95H612.238V85.892H604.282V95ZM614.934 95H616.608L620.55 89.564C620.838 89.132 621.288 88.52 621.342 88.358H621.378C621.378 88.502 621.324 89.132 621.324 89.564V95H623.016V85.892H621.324L617.4 91.328C617.094 91.76 616.662 92.39 616.59 92.552H616.554C616.572 92.462 616.608 91.814 616.608 91.328V85.892H614.934V95ZM625.098 90.446C625.098 93.182 627.096 95.216 629.976 95.216C631.398 95.216 632.784 94.64 633.612 93.758L632.91 92.48C632.208 93.218 631.11 93.704 630.102 93.704C628.212 93.704 626.88 92.282 626.88 90.428C626.88 88.574 628.212 87.188 630.048 87.188C631.002 87.188 631.956 87.62 632.568 88.232L633.396 87.008C632.532 86.09 631.182 85.676 629.976 85.676C627.114 85.676 625.098 87.746 625.098 90.446ZM634.744 92.516C634.744 94.226 636.202 95.216 637.786 95.216C639.136 95.216 640.252 94.406 640.774 93.362H640.81C640.81 93.362 640.756 93.668 640.756 94.082V95H642.394V89.24C642.394 86.936 641.08 85.676 638.794 85.676C637.516 85.676 636.13 86.144 635.392 86.756L636.094 88.034C636.832 87.512 637.75 87.152 638.65 87.152C639.784 87.152 640.648 87.656 640.648 89.15V89.33H640.18C638.29 89.33 634.744 89.654 634.744 92.516ZM636.49 92.372C636.49 90.698 638.902 90.59 640.198 90.59H640.648V90.932C640.648 92.282 639.73 93.83 638.2 93.83C637.066 93.83 636.49 93.092 636.49 92.372ZM644.975 95H646.721V91.094H651.329V95H653.075V85.892H651.329V89.6H646.721V85.892H644.975V95ZM655.768 95H657.442L661.384 89.564C661.672 89.132 662.122 88.52 662.176 88.358H662.212C662.212 88.502 662.158 89.132 662.158 89.564V95H663.85V85.892H662.158L658.234 91.328C657.928 91.76 657.496 92.39 657.424 92.552H657.388C657.406 92.462 657.442 91.814 657.442 91.328V85.892H655.768V95ZM665.932 90.446C665.932 93.146 667.912 95.216 670.774 95.216C672.034 95.216 673.42 94.73 674.302 93.92L673.564 92.642C672.844 93.29 671.854 93.704 670.882 93.704C669.244 93.704 667.84 92.642 667.75 90.68H674.374C674.41 90.428 674.446 90.176 674.446 89.942C674.446 87.602 673.078 85.676 670.504 85.676C667.912 85.676 665.932 87.548 665.932 90.446ZM667.804 89.42C668.056 87.908 669.118 87.026 670.468 87.026C671.656 87.026 672.628 87.854 672.682 89.42H667.804Z" fill="#424754"/>
<path d="M463.396 295.168C466.112 295.168 466.994 292.872 466.994 290.016C466.994 287.16 466.112 284.892 463.396 284.892C460.68 284.892 459.784 287.16 459.784 290.016C459.784 292.872 460.68 295.168 463.396 295.168ZM463.396 293.516C462.038 293.516 461.646 291.976 461.646 290.016C461.646 288.084 462.038 286.558 463.396 286.558C464.754 286.558 465.146 288.084 465.146 290.016C465.146 291.976 464.754 293.516 463.396 293.516ZM468.211 292.438H472.859V295H474.637V292.438H475.925V290.94H474.637V285.06H472.509L468.211 291.332V292.438ZM470.115 290.94V290.912L472.411 287.734C472.677 287.356 472.901 286.824 472.901 286.824H472.929C472.929 286.824 472.859 287.37 472.859 287.86V290.94H470.115Z" fill="#F04B5D"/>
<path d="M463.396 342.168C466.112 342.168 466.994 339.872 466.994 337.016C466.994 334.16 466.112 331.892 463.396 331.892C460.68 331.892 459.784 334.16 459.784 337.016C459.784 339.872 460.68 342.168 463.396 342.168ZM463.396 340.516C462.038 340.516 461.646 338.976 461.646 337.016C461.646 335.084 462.038 333.558 463.396 333.558C464.754 333.558 465.146 335.084 465.146 337.016C465.146 338.976 464.754 340.516 463.396 340.516ZM468.407 340.824C469.219 341.706 470.409 342.168 471.599 342.168C473.657 342.168 475.183 340.712 475.183 338.752C475.183 336.96 473.881 335.49 471.683 335.49C471.319 335.49 470.801 335.616 470.619 335.714H470.591C470.591 335.714 470.633 335.518 470.661 335.252L470.815 333.614H474.483V332.06H469.247L468.785 337.1L469.793 337.464C470.241 337.198 470.801 337.044 471.333 337.044C472.467 337.044 473.321 337.73 473.321 338.766C473.321 339.816 472.425 340.46 471.459 340.46C470.549 340.46 469.793 339.956 469.345 339.466L468.407 340.824Z" fill="#F04B5D"/>
<path d="M463.396 419.168C466.112 419.168 466.994 416.872 466.994 414.016C466.994 411.16 466.112 408.892 463.396 408.892C460.68 408.892 459.784 411.16 459.784 414.016C459.784 416.872 460.68 419.168 463.396 419.168ZM463.396 417.516C462.038 417.516 461.646 415.976 461.646 414.016C461.646 412.084 462.038 410.558 463.396 410.558C464.754 410.558 465.146 412.084 465.146 414.016C465.146 415.976 464.754 417.516 463.396 417.516ZM468.519 414.464C468.519 417.446 470.297 419.168 472.369 419.168C474.329 419.168 475.631 417.67 475.631 415.85C475.631 414.044 474.413 412.518 472.453 412.518C471.739 412.518 470.927 412.812 470.591 413.218H470.563C470.801 411.86 471.641 410.558 473.195 410.558C473.671 410.558 474.329 410.712 474.609 410.866L475.141 409.312C474.525 409.018 473.769 408.892 473.097 408.892C470.017 408.892 468.519 411.846 468.519 414.464ZM472.383 417.516C471.249 417.516 470.395 416.228 470.395 415.122C470.395 414.394 471.179 414.002 472.033 414.002C473.223 414.002 473.853 414.828 473.853 415.85C473.853 416.774 473.279 417.516 472.383 417.516Z" fill="#F04B5D"/>
<path d="M463.396 142.168C466.112 142.168 466.994 139.872 466.994 137.016C466.994 134.16 466.112 131.892 463.396 131.892C460.68 131.892 459.784 134.16 459.784 137.016C459.784 139.872 460.68 142.168 463.396 142.168ZM463.396 140.516C462.038 140.516 461.646 138.976 461.646 137.016C461.646 135.084 462.038 133.558 463.396 133.558C464.754 133.558 465.146 135.084 465.146 137.016C465.146 138.976 464.754 140.516 463.396 140.516ZM468.603 142H475.197V140.446H470.507C470.591 138.57 475.043 138.024 475.043 134.832C475.043 132.956 473.545 131.892 471.809 131.892C470.213 131.892 469.093 132.816 468.519 133.88L469.863 134.776C470.227 134.132 470.899 133.6 471.655 133.6C472.495 133.6 473.167 134.118 473.167 134.986C473.167 136.96 468.519 137.534 468.519 141.118C468.519 141.398 468.547 141.678 468.603 142Z" fill="#F04B5D"/>
<path d="M463.396 94.168C466.112 94.168 466.994 91.872 466.994 89.016C466.994 86.16 466.112 83.892 463.396 83.892C460.68 83.892 459.784 86.16 459.784 89.016C459.784 91.872 460.68 94.168 463.396 94.168ZM463.396 92.516C462.038 92.516 461.646 90.976 461.646 89.016C461.646 87.084 462.038 85.558 463.396 85.558C464.754 85.558 465.146 87.084 465.146 89.016C465.146 90.976 464.754 92.516 463.396 92.516ZM468.575 94H474.651V92.446H472.495V84.06H470.913L468.421 86.454L469.485 87.574L470.283 86.818C470.605 86.496 470.731 86.258 470.731 86.258H470.759C470.759 86.258 470.745 86.594 470.745 86.93V92.446H468.575V94Z" fill="#F04B5D"/>
<path d="M463.396 219.168C466.112 219.168 466.994 216.872 466.994 214.016C466.994 211.16 466.112 208.892 463.396 208.892C460.68 208.892 459.784 211.16 459.784 214.016C459.784 216.872 460.68 219.168 463.396 219.168ZM463.396 217.516C462.038 217.516 461.646 215.976 461.646 214.016C461.646 212.084 462.038 210.558 463.396 210.558C464.754 210.558 465.146 212.084 465.146 214.016C465.146 215.976 464.754 217.516 463.396 217.516ZM468.323 217.838C469.191 218.72 470.437 219.168 471.613 219.168C473.839 219.168 475.113 217.6 475.113 215.906C475.113 214.184 473.783 213.204 472.411 213.008L474.833 210.194V209.06H468.771V210.614H471.739C472.313 210.614 472.621 210.572 472.621 210.572V210.6C472.621 210.6 472.285 210.894 471.907 211.356L470.087 213.512L470.479 214.436H471.165C472.341 214.436 473.293 214.926 473.293 215.976C473.293 216.83 472.537 217.46 471.515 217.46C470.633 217.46 469.779 216.998 469.247 216.452L468.323 217.838Z" fill="#F04B5D"/>
<path d="M495.35 218.388C496.052 218.874 496.808 219.216 497.672 219.216C499.256 219.216 500.066 217.938 500.57 216.66L504.62 206.292H502.748L500.39 212.7C500.12 213.474 499.85 214.356 499.85 214.356H499.814C499.814 214.356 499.49 213.474 499.094 212.682L495.998 206.292H494.036L499.058 216.246C498.716 217.128 498.356 217.668 497.618 217.668C497.006 217.668 496.466 217.272 496.16 217.038L495.35 218.388ZM505.422 219H509.31C511.29 219 512.658 218.1 512.658 216.408C512.658 215.4 512.064 214.518 510.93 214.248V214.23C511.758 213.87 512.226 213.114 512.226 212.232C512.226 210.702 511.02 209.892 509.184 209.892H505.422V219ZM507.168 213.744V211.098H508.824C509.922 211.098 510.444 211.53 510.444 212.358C510.444 213.204 509.922 213.744 508.878 213.744H507.168ZM507.168 217.776V214.914H509.022C510.228 214.914 510.894 215.454 510.894 216.354C510.894 217.2 510.3 217.776 509.04 217.776H507.168ZM513.784 219.09C516.466 218.946 517.51 216.822 517.51 212.7V211.332H520.192V219H521.938V209.892H515.836V212.7C515.836 215.994 515.116 217.326 513.784 217.524V219.09ZM524.041 214.446C524.041 217.146 526.021 219.216 528.883 219.216C530.143 219.216 531.529 218.73 532.411 217.92L531.673 216.642C530.953 217.29 529.963 217.704 528.991 217.704C527.353 217.704 525.949 216.642 525.859 214.68H532.483C532.519 214.428 532.555 214.176 532.555 213.942C532.555 211.602 531.187 209.676 528.613 209.676C526.021 209.676 524.041 211.548 524.041 214.446ZM525.913 213.42C526.165 211.908 527.227 211.026 528.577 211.026C529.765 211.026 530.737 211.854 530.791 213.42H525.913ZM534.655 219H536.401V215.058H537.715L540.433 219H542.503L539.101 214.266V214.23L542.143 209.892H540.163L537.679 213.564H536.401V209.892H534.655V219ZM543.215 216.516C543.215 218.226 544.673 219.216 546.257 219.216C547.607 219.216 548.723 218.406 549.245 217.362H549.281C549.281 217.362 549.227 217.668 549.227 218.082V219H550.865V213.24C550.865 210.936 549.551 209.676 547.265 209.676C545.987 209.676 544.601 210.144 543.863 210.756L544.565 212.034C545.303 211.512 546.221 211.152 547.121 211.152C548.255 211.152 549.119 211.656 549.119 213.15V213.33H548.651C546.761 213.33 543.215 213.654 543.215 216.516ZM544.961 216.372C544.961 214.698 547.373 214.59 548.669 214.59H549.119V214.932C549.119 216.282 548.201 217.83 546.671 217.83C545.537 217.83 544.961 217.092 544.961 216.372ZM555.519 219H557.247V211.386H560.433V209.892H552.351V211.386H555.519V219ZM561.254 214.446C561.254 217.146 563.234 219.216 566.096 219.216C567.356 219.216 568.742 218.73 569.624 217.92L568.886 216.642C568.166 217.29 567.176 217.704 566.204 217.704C564.566 217.704 563.162 216.642 563.072 214.68H569.696C569.732 214.428 569.768 214.176 569.768 213.942C569.768 211.602 568.4 209.676 565.826 209.676C563.234 209.676 561.254 211.548 561.254 214.446ZM563.126 213.42C563.378 211.908 564.44 211.026 565.79 211.026C566.978 211.026 567.95 211.854 568.004 213.42H563.126ZM570.878 219.09C573.56 218.946 574.604 216.822 574.604 212.7V211.332H577.286V219H579.032V209.892H572.93V212.7C572.93 215.994 572.21 217.326 570.878 217.524V219.09ZM581.729 219H585.275C587.579 219 588.623 217.83 588.623 216.12C588.623 214.05 587.201 213.186 585.311 213.186H583.475V209.892H581.729V219ZM583.475 217.74V214.446H585.041C586.301 214.446 586.841 215.13 586.841 216.102C586.841 217.056 586.301 217.74 585.041 217.74H583.475ZM590.5 219H592.246V215.094H596.854V219H598.6V209.892H596.854V213.6H592.246V209.892H590.5V219ZM609.537 219H611.283V209.892H609.537V219ZM601.293 219H604.803C607.089 219 608.133 217.83 608.133 216.12C608.133 214.05 606.711 213.186 604.821 213.186H603.039V209.892H601.293V219ZM603.039 217.74V214.446H604.551C605.811 214.446 606.369 215.13 606.369 216.102C606.369 217.056 605.829 217.74 604.569 217.74H603.039ZM613.391 214.446C613.391 217.146 615.371 219.216 618.233 219.216C619.493 219.216 620.879 218.73 621.761 217.92L621.023 216.642C620.303 217.29 619.313 217.704 618.341 217.704C616.703 217.704 615.299 216.642 615.209 214.68H621.833C621.869 214.428 621.905 214.176 621.905 213.942C621.905 211.602 620.537 209.676 617.963 209.676C615.371 209.676 613.391 211.548 613.391 214.446ZM615.263 213.42C615.515 211.908 616.577 211.026 617.927 211.026C619.115 211.026 620.087 211.854 620.141 213.42H615.263ZM627.622 217.884C628.378 218.604 629.566 219.216 630.97 219.216C632.842 219.216 634.462 218.262 634.462 216.39C634.462 215.22 633.742 214.536 632.824 214.248V214.212C633.544 213.906 634.156 213.276 634.156 212.142C634.156 210.522 632.806 209.676 631.078 209.676C629.638 209.676 628.612 210.144 627.91 210.666L628.558 211.836C629.26 211.314 629.98 211.044 630.772 211.044C631.78 211.044 632.392 211.512 632.392 212.358C632.392 213.276 631.69 213.672 630.664 213.672H629.71V214.932H630.826C632.104 214.932 632.698 215.436 632.698 216.318C632.698 217.308 631.852 217.812 630.808 217.812C629.71 217.812 628.846 217.164 628.432 216.732L627.622 217.884ZM635.817 216.516C635.817 218.226 637.275 219.216 638.859 219.216C640.209 219.216 641.325 218.406 641.847 217.362H641.883C641.883 217.362 641.829 217.668 641.829 218.082V219H643.467V213.24C643.467 210.936 642.153 209.676 639.867 209.676C638.589 209.676 637.203 210.144 636.465 210.756L637.167 212.034C637.905 211.512 638.823 211.152 639.723 211.152C640.857 211.152 641.721 211.656 641.721 213.15V213.33H641.253C639.363 213.33 635.817 213.654 635.817 216.516ZM637.563 216.372C637.563 214.698 639.975 214.59 641.271 214.59H641.721V214.932C641.721 216.282 640.803 217.83 639.273 217.83C638.139 217.83 637.563 217.092 637.563 216.372ZM647.829 217.56C648.981 215.76 649.125 213.168 649.125 211.8V211.314H651.861V217.56H647.829ZM644.913 217.56V221.16H646.551V219H653.301V221.16H654.903V217.56H653.607V209.892H647.451V211.566C647.451 212.97 647.307 215.814 646.029 217.56H644.913ZM655.979 216.516C655.979 218.226 657.437 219.216 659.021 219.216C660.371 219.216 661.487 218.406 662.009 217.362H662.045C662.045 217.362 661.991 217.668 661.991 218.082V219H663.629V213.24C663.629 210.936 662.315 209.676 660.029 209.676C658.751 209.676 657.365 210.144 656.627 210.756L657.329 212.034C658.067 211.512 658.985 211.152 659.885 211.152C661.019 211.152 661.883 211.656 661.883 213.15V213.33H661.415C659.525 213.33 655.979 213.654 655.979 216.516ZM657.725 216.372C657.725 214.698 660.137 214.59 661.433 214.59H661.883V214.932C661.883 216.282 660.965 217.83 659.435 217.83C658.301 217.83 657.725 217.092 657.725 216.372ZM668.693 215.832C669.593 215.832 670.583 215.526 671.159 215.166H671.195C671.195 215.166 671.177 215.454 671.177 215.706V219H672.923V209.892H671.177V213.672C670.799 213.942 670.061 214.32 669.161 214.32C667.667 214.32 667.343 213.51 667.343 212.61V209.892H665.633V212.862C665.633 214.806 666.749 215.832 668.693 215.832ZM675.631 219H677.377V215.058H678.691L681.409 219H683.479L680.077 214.266V214.23L683.119 209.892H681.139L678.655 213.564H677.377V209.892H675.631V219ZM685.036 219H686.71L690.652 213.564C690.94 213.132 691.39 212.52 691.444 212.358H691.48C691.48 212.502 691.426 213.132 691.426 213.564V219H693.118V209.892H691.426L687.502 215.328C687.196 215.76 686.764 216.39 686.692 216.552H686.656C686.674 216.462 686.71 215.814 686.71 215.328V209.892H685.036V219ZM700.293 219H701.967L705.909 213.564C706.197 213.132 706.647 212.52 706.701 212.358H706.737C706.737 212.502 706.683 213.132 706.683 213.564V219H708.375V209.892H706.683L702.759 215.328C702.453 215.76 702.021 216.39 701.949 216.552H701.913C701.931 216.462 701.967 215.814 701.967 215.328V209.892H700.293V219ZM710.457 214.446C710.457 217.182 712.455 219.216 715.335 219.216C716.757 219.216 718.143 218.64 718.971 217.758L718.269 216.48C717.567 217.218 716.469 217.704 715.461 217.704C713.571 217.704 712.239 216.282 712.239 214.428C712.239 212.574 713.571 211.188 715.407 211.188C716.361 211.188 717.315 211.62 717.927 212.232L718.755 211.008C717.891 210.09 716.541 209.676 715.335 209.676C712.473 209.676 710.457 211.746 710.457 214.446ZM719.816 219H721.796L723.704 215.958C723.848 215.742 723.974 215.472 723.974 215.472H724.01C724.01 215.472 724.154 215.742 724.298 215.958L726.206 219H728.186L725.072 214.32L728.006 209.892H726.008L724.316 212.664C724.19 212.898 724.01 213.204 724.01 213.204H723.974C723.974 213.204 723.812 212.898 723.686 212.664L721.994 209.892H719.996L722.93 214.32L719.816 219ZM728.949 214.428C728.949 217.2 731.145 219.216 733.863 219.216C736.563 219.216 738.759 217.2 738.759 214.428C738.759 211.674 736.563 209.676 733.845 209.676C731.145 209.676 728.949 211.674 728.949 214.428ZM730.731 214.428C730.731 212.538 732.135 211.188 733.863 211.188C735.573 211.188 736.995 212.538 736.995 214.428C736.995 216.336 735.573 217.704 733.863 217.704C732.135 217.704 730.731 216.336 730.731 214.428ZM742.417 217.56C743.569 215.76 743.713 213.168 743.713 211.8V211.314H746.449V217.56H742.417ZM739.501 217.56V221.16H741.139V219H747.889V221.16H749.491V217.56H748.195V209.892H742.039V211.566C742.039 212.97 741.895 215.814 740.617 217.56H739.501ZM750.405 219H752.331L754.563 215.706H756.093V219H757.839V209.892H754.203C752.277 209.892 750.945 210.882 750.945 212.754C750.945 214.14 751.881 215.112 752.925 215.4V215.418C752.925 215.418 752.709 215.652 752.511 215.976L750.405 219ZM754.581 214.428C753.519 214.428 752.709 213.87 752.709 212.736C752.709 211.566 753.465 211.098 754.635 211.098H756.093V214.428H754.581ZM495.35 247H497.024L500.966 241.564C501.254 241.132 501.704 240.52 501.758 240.358H501.794C501.794 240.502 501.74 241.132 501.74 241.564V247H503.432V237.892H501.74L497.816 243.328C497.51 243.76 497.078 244.39 497.006 244.552H496.97C496.988 244.462 497.024 243.814 497.024 243.328V237.892H495.35V247ZM505.226 245.884C505.982 246.604 507.17 247.216 508.574 247.216C510.446 247.216 512.066 246.262 512.066 244.39C512.066 243.22 511.346 242.536 510.428 242.248V242.212C511.148 241.906 511.76 241.276 511.76 240.142C511.76 238.522 510.41 237.676 508.682 237.676C507.242 237.676 506.216 238.144 505.514 238.666L506.162 239.836C506.864 239.314 507.584 239.044 508.376 239.044C509.384 239.044 509.996 239.512 509.996 240.358C509.996 241.276 509.294 241.672 508.268 241.672H507.314V242.932H508.43C509.708 242.932 510.302 243.436 510.302 244.318C510.302 245.308 509.456 245.812 508.412 245.812C507.314 245.812 506.45 245.164 506.036 244.732L505.226 245.884ZM518.676 247H522.564C524.544 247 525.912 246.1 525.912 244.408C525.912 243.4 525.318 242.518 524.184 242.248V242.23C525.012 241.87 525.48 241.114 525.48 240.232C525.48 238.702 524.274 237.892 522.438 237.892H518.676V247ZM520.422 241.744V239.098H522.078C523.176 239.098 523.698 239.53 523.698 240.358C523.698 241.204 523.176 241.744 522.132 241.744H520.422ZM520.422 245.776V242.914H522.276C523.482 242.914 524.148 243.454 524.148 244.354C524.148 245.2 523.554 245.776 522.294 245.776H520.422ZM527.272 244.516C527.272 246.226 528.73 247.216 530.314 247.216C531.664 247.216 532.78 246.406 533.302 245.362H533.338C533.338 245.362 533.284 245.668 533.284 246.082V247H534.922V241.24C534.922 238.936 533.608 237.676 531.322 237.676C530.044 237.676 528.658 238.144 527.92 238.756L528.622 240.034C529.36 239.512 530.278 239.152 531.178 239.152C532.312 239.152 533.176 239.656 533.176 241.15V241.33H532.708C530.818 241.33 527.272 241.654 527.272 244.516ZM529.018 244.372C529.018 242.698 531.43 242.59 532.726 242.59H533.176V242.932C533.176 244.282 532.258 245.83 530.728 245.83C529.594 245.83 529.018 245.092 529.018 244.372ZM537.502 247H549.274V237.892H547.6V245.488H544.234V237.892H542.542V245.488H539.176V237.892H537.502V247ZM551.969 247H553.643L557.585 241.564C557.873 241.132 558.323 240.52 558.377 240.358H558.413C558.413 240.502 558.359 241.132 558.359 241.564V247H560.051V237.892H558.359L554.435 243.328C554.129 243.76 553.697 244.39 553.625 244.552H553.589C553.607 244.462 553.643 243.814 553.643 243.328V237.892H551.969V247ZM561.683 247H563.663L565.571 243.958C565.715 243.742 565.841 243.472 565.841 243.472H565.877C565.877 243.472 566.021 243.742 566.165 243.958L568.073 247H570.053L566.939 242.32L569.873 237.892H567.875L566.183 240.664C566.057 240.898 565.877 241.204 565.877 241.204H565.841C565.841 241.204 565.679 240.898 565.553 240.664L563.861 237.892H561.863L564.797 242.32L561.683 247ZM576.209 247H577.883L581.825 241.564C582.113 241.132 582.563 240.52 582.617 240.358H582.653C582.653 240.502 582.599 241.132 582.599 241.564V247H584.291V237.892H582.599L578.675 243.328C578.369 243.76 577.937 244.39 577.865 244.552H577.829C577.847 244.462 577.883 243.814 577.883 243.328V237.892H576.209V247ZM586.967 247H588.713V243.094H593.321V247H595.067V237.892H593.321V241.6H588.713V237.892H586.967V247ZM599.956 247H601.684V239.386H604.87V237.892H596.788V239.386H599.956V247ZM605.692 242.446C605.692 245.146 607.672 247.216 610.534 247.216C611.794 247.216 613.18 246.73 614.062 245.92L613.324 244.642C612.604 245.29 611.614 245.704 610.642 245.704C609.004 245.704 607.6 244.642 607.51 242.68H614.134C614.17 242.428 614.206 242.176 614.206 241.942C614.206 239.602 612.838 237.676 610.264 237.676C607.672 237.676 605.692 239.548 605.692 242.446ZM607.564 241.42C607.816 239.908 608.878 239.026 610.228 239.026C611.416 239.026 612.388 239.854 612.442 241.42H607.564ZM616.305 250.6H618.051V246.46C618.051 245.992 617.979 245.668 617.979 245.668H618.015C618.645 246.64 619.689 247.216 620.841 247.216C623.235 247.216 624.963 245.344 624.963 242.446C624.963 239.62 623.433 237.676 620.967 237.676C619.635 237.676 618.483 238.288 617.907 239.386H617.871C617.871 239.386 617.925 239.08 617.925 238.702V237.892H616.305V250.6ZM617.997 242.482C617.997 240.178 619.257 239.206 620.625 239.206C622.137 239.206 623.199 240.484 623.199 242.464C623.199 244.534 622.011 245.704 620.571 245.704C618.897 245.704 617.997 244.102 617.997 242.482ZM626.522 242.446C626.522 245.146 628.502 247.216 631.364 247.216C632.624 247.216 634.01 246.73 634.892 245.92L634.154 244.642C633.434 245.29 632.444 245.704 631.472 245.704C629.834 245.704 628.43 244.642 628.34 242.68H634.964C635 242.428 635.036 242.176 635.036 241.942C635.036 239.602 633.668 237.676 631.094 237.676C628.502 237.676 626.522 239.548 626.522 242.446ZM628.394 241.42C628.646 239.908 629.708 239.026 631.058 239.026C632.246 239.026 633.218 239.854 633.272 241.42H628.394ZM636.541 242.446C636.541 245.182 638.539 247.216 641.419 247.216C642.841 247.216 644.227 246.64 645.055 245.758L644.353 244.48C643.651 245.218 642.553 245.704 641.545 245.704C639.655 245.704 638.323 244.282 638.323 242.428C638.323 240.574 639.655 239.188 641.491 239.188C642.445 239.188 643.399 239.62 644.011 240.232L644.839 239.008C643.975 238.09 642.625 237.676 641.419 237.676C638.557 237.676 636.541 239.746 636.541 242.446ZM646.139 242.428C646.139 245.2 648.335 247.216 651.053 247.216C653.753 247.216 655.949 245.2 655.949 242.428C655.949 239.674 653.753 237.676 651.035 237.676C648.335 237.676 646.139 239.674 646.139 242.428ZM647.921 242.428C647.921 240.538 649.325 239.188 651.053 239.188C652.763 239.188 654.185 240.538 654.185 242.428C654.185 244.336 652.763 245.704 651.053 245.704C649.325 245.704 647.921 244.336 647.921 242.428ZM658.053 247H661.941C663.921 247 665.289 246.1 665.289 244.408C665.289 243.4 664.695 242.518 663.561 242.248V242.23C664.389 241.87 664.857 241.114 664.857 240.232C664.857 238.702 663.651 237.892 661.815 237.892H658.053V247ZM659.799 241.744V239.098H661.455C662.553 239.098 663.075 239.53 663.075 240.358C663.075 241.204 662.553 241.744 661.509 241.744H659.799ZM659.799 245.776V242.914H661.653C662.859 242.914 663.525 243.454 663.525 244.354C663.525 245.2 662.931 245.776 661.671 245.776H659.799Z" fill="#424754"/>
</svg>
