<svg width="1110" height="427" viewBox="0 0 1110 427" fill="none" xmlns="http://www.w3.org/2000/svg">
<path d="M3.7 77H13.168C18.28 77 22.96 74.948 22.96 69.332C22.96 67.064 21.88 64.436 18.928 63.536V63.464C20.872 62.348 21.916 60.152 21.916 57.992C21.916 53.564 18.316 51.26 13.168 51.26H3.7V77ZM10 61.232V56.66H13.132C14.824 56.66 15.508 57.668 15.508 58.856C15.508 60.08 14.824 61.232 13.24 61.232H10ZM10 71.6V66.272H13.816C15.652 66.272 16.516 67.46 16.516 68.9C16.516 70.34 15.616 71.6 13.78 71.6H10ZM25.0646 71.78C25.0646 74.984 27.5486 77.432 31.1126 77.432C33.2366 77.432 35.3966 76.46 36.6206 74.732H36.6926C36.6926 74.732 36.6206 75.272 36.6206 75.884V77H42.3086V65.588C42.3086 60.872 39.1406 58.028 34.0286 58.028C31.0046 58.028 27.7646 59.216 26.1806 60.44L28.3406 64.832C29.8166 63.86 31.6526 63.068 33.4526 63.068C34.8206 63.068 36.0806 63.572 36.0806 65.12V65.444H35.5406C30.9686 65.444 25.0646 66.812 25.0646 71.78ZM31.2206 71.204C31.2206 69.512 33.6686 69.008 35.5766 69.008H36.1526V69.512C36.1526 71.024 34.7846 72.788 32.9846 72.788C31.8326 72.788 31.2206 72.068 31.2206 71.204ZM46.2599 77H72.2159V58.46H66.3479V71.78H62.1719V58.46H56.3039V71.78H52.1279V58.46H46.2599V77ZM85.3888 77H95.5048C99.1768 77 102.561 75.56 102.561 71.492C102.561 69.872 101.769 68.036 99.6448 67.388V67.352C101.049 66.524 101.805 64.868 101.805 63.32C101.805 60.116 99.2128 58.46 95.5048 58.46H85.3888V77ZM91.6168 65.768V62.312H93.8848C95.1088 62.312 95.6128 63.068 95.6128 63.932C95.6128 64.904 95.1088 65.768 93.9568 65.768H91.6168ZM91.6168 73.112V69.404H94.3888C95.7208 69.404 96.3328 70.268 96.3328 71.276C96.3328 72.212 95.6848 73.112 94.3528 73.112H91.6168ZM124.283 77H130.511V58.46H124.283V77ZM105.779 77H114.815C119.999 77 122.159 74.444 122.159 70.664C122.159 66.92 119.999 64.256 114.815 64.256H112.007V58.46H105.779V77ZM112.007 72.932V68.288H113.555C115.139 68.288 115.931 69.332 115.931 70.628C115.931 71.924 115.139 72.932 113.663 72.932H112.007ZM133.85 65.912C133.85 72.716 137.198 77.432 143.894 77.432C149.762 77.432 153.47 73.544 153.47 68.432C153.47 63.464 150.446 59.936 145.478 59.936C143.858 59.936 141.626 60.368 140.042 61.7H139.97C140.078 59.036 142.598 58.028 144.974 57.236L151.958 55.004L150.194 50L144.182 52.016C136.946 54.5 133.85 58.352 133.85 65.912ZM140.042 68.54C140.042 66.128 141.698 64.616 143.642 64.616C145.586 64.616 147.242 66.128 147.242 68.54C147.242 70.916 145.586 72.356 143.642 72.356C141.698 72.356 140.042 70.916 140.042 68.54ZM155.677 67.784C155.677 73.58 160.357 77.432 166.189 77.432C172.021 77.432 176.701 73.58 176.701 67.784C176.701 61.952 172.021 58.028 166.153 58.028C160.357 58.028 155.677 61.952 155.677 67.784ZM161.977 67.784C161.977 64.976 163.921 63.212 166.189 63.212C168.457 63.212 170.401 64.976 170.401 67.784C170.401 70.556 168.457 72.248 166.189 72.248C163.921 72.248 161.977 70.556 161.977 67.784ZM179.818 84.2H186.046V77.252C186.046 76.316 185.974 75.668 185.974 75.668H186.046C187.378 76.82 189.034 77.432 190.762 77.432C195.694 77.432 199.402 73.616 199.402 67.748C199.402 61.988 196.09 58.028 191.05 58.028C188.818 58.028 186.694 58.892 185.434 60.584H185.362C185.362 60.584 185.434 60.008 185.434 59.396V58.46H179.818V84.2ZM185.866 67.856C185.866 64.652 187.63 63.284 189.502 63.284C191.662 63.284 193.138 65.084 193.138 67.856C193.138 70.7 191.446 72.284 189.502 72.284C187.054 72.284 185.866 70.088 185.866 67.856ZM202.636 64.364H208.54V58.46H202.636V64.364ZM202.636 77H208.54V71.096H202.636V77ZM1.288 119H8.272L11.224 113.6C12.124 111.98 12.808 110.396 12.808 110.396H12.88C12.88 110.396 13.564 111.98 14.464 113.6L17.416 119H24.436L16.588 106.22L24.472 93.26H17.308L14.464 98.552C13.564 100.208 12.88 101.864 12.88 101.864H12.808C12.808 101.864 12.088 100.172 11.224 98.552L8.416 93.26H1.252L9.1 106.22L1.288 119ZM26.4318 119H32.4798L37.6278 110.864C37.9158 110.36 38.3118 109.784 38.6358 109.028H38.7078C38.6358 109.748 38.6358 110.468 38.6358 110.9V119H44.5038V100.46H38.4558L33.3078 108.632C32.9838 109.172 32.6238 109.712 32.2998 110.468H32.2278C32.2638 110 32.2998 109.28 32.2998 108.632V100.46H26.4318V119ZM47.8937 119H53.8337L54.2657 110.468C54.3377 109.028 54.2297 107.3 54.2297 107.3H54.3017C54.3017 107.3 54.9857 108.848 55.3817 110.036L57.8297 116.516H62.8697L65.3177 110.036C65.7857 108.884 66.3257 107.3 66.3257 107.3H66.3977C66.3977 107.3 66.3257 109.028 66.3617 110.468L66.7937 119H72.7697L71.0057 100.46H63.8417L61.1057 108.596C60.7817 109.532 60.3497 110.756 60.3497 110.756H60.3137C60.3137 110.756 59.9177 109.532 59.5937 108.596L56.8577 100.46H49.6577L47.8937 119ZM76.1427 119H82.1907L87.3387 110.864C87.6267 110.36 88.0227 109.784 88.3467 109.028H88.4187C88.3467 109.748 88.3467 110.468 88.3467 110.9V119H94.2147V100.46H88.1667L83.0187 108.632C82.6947 109.172 82.3347 109.712 82.0107 110.468H81.9387C81.9747 110 82.0107 109.28 82.0107 108.632V100.46H76.1427V119ZM96.6326 119H103.221L106.785 113.348H108.081V119H114.309V100.46H104.589C100.485 100.46 97.8926 102.836 97.8926 106.724C97.8926 109.1 99.2246 111.224 101.241 112.232V112.268C101.241 112.268 100.881 112.628 100.377 113.384L96.6326 119ZM106.605 109.208C105.129 109.208 104.085 108.452 104.085 106.688C104.085 104.96 105.129 104.312 106.569 104.312H108.081V109.208H106.605ZM117.319 120.512H122.503L131.719 92H126.535L117.319 120.512ZM133.56 105.248C133.56 111.44 138.204 116.192 145.08 116.192V119.432H151.38V116.192C158.256 116.192 162.9 111.44 162.9 105.248C162.9 99.236 158.256 94.628 151.38 94.628V92H145.08V94.628C138.204 94.628 133.56 99.236 133.56 105.248ZM151.38 110.936V99.884C154.296 99.884 156.492 102.296 156.492 105.248C156.492 108.38 154.296 110.936 151.38 110.936ZM139.968 105.248C139.968 102.296 142.164 99.884 145.08 99.884V110.936C142.164 110.936 139.968 108.38 139.968 105.248ZM165.897 119H171.945L177.093 110.864C177.381 110.36 177.777 109.784 178.101 109.028H178.173C178.101 109.748 178.101 110.468 178.101 110.9V119H183.969V100.46H177.921L172.773 108.632C172.449 109.172 172.089 109.712 171.765 110.468H171.693C171.729 110 171.765 109.28 171.765 108.632V100.46H165.897V119ZM186.603 116.696C188.619 118.496 191.607 119.432 194.343 119.432C198.735 119.432 202.011 117.452 202.011 113.528C202.011 111.368 200.535 110.072 199.131 109.424V109.352C200.247 108.74 201.435 107.48 201.435 105.176C201.435 101.972 198.411 100.028 194.595 100.028C191.211 100.028 188.835 100.928 187.107 102.116L188.907 105.968C190.851 104.816 192.291 104.564 193.299 104.564C194.883 104.564 195.243 105.248 195.243 106.04C195.243 107.192 194.343 107.48 193.371 107.48H191.499V111.584H193.767C195.459 111.584 195.783 112.232 195.783 113.132C195.783 113.996 195.279 114.752 193.551 114.752C192.075 114.752 190.239 113.852 189.087 112.808L186.603 116.696ZM205.166 119H211.214L216.362 110.864C216.65 110.36 217.046 109.784 217.37 109.028H217.442C217.37 109.748 217.37 110.468 217.37 110.9V119H223.238V100.46H217.19L212.042 108.632C211.718 109.172 211.358 109.712 211.034 110.468H210.962C210.998 110 211.034 109.28 211.034 108.632V100.46H205.166V119ZM227.42 119H233.648V112.196H235.592L239.516 119H246.608L240.416 109.352V109.28L245.852 100.46H239.084L235.412 106.976H233.648V100.46H227.42V119ZM247.217 113.78C247.217 116.984 249.701 119.432 253.265 119.432C255.389 119.432 257.549 118.46 258.773 116.732H258.845C258.845 116.732 258.773 117.272 258.773 117.884V119H264.461V107.588C264.461 102.872 261.293 100.028 256.181 100.028C253.157 100.028 249.917 101.216 248.333 102.44L250.493 106.832C251.969 105.86 253.805 105.068 255.605 105.068C256.973 105.068 258.233 105.572 258.233 107.12V107.444H257.693C253.121 107.444 247.217 108.812 247.217 113.78ZM253.373 113.204C253.373 111.512 255.821 111.008 257.729 111.008H258.305V111.512C258.305 113.024 256.937 114.788 255.137 114.788C253.985 114.788 253.373 114.068 253.373 113.204ZM267.26 120.512H272.444L281.66 92H276.476L267.26 120.512ZM284.294 119H290.63L291.422 107.408C291.566 105.464 291.422 103.088 291.422 103.088H291.494C291.494 103.088 292.358 105.788 292.934 107.408L295.634 114.86H301.034L303.734 107.408C304.31 105.788 305.174 103.088 305.174 103.088H305.246C305.246 103.088 305.102 105.464 305.246 107.408L306.038 119H312.338L310.25 93.26H303.41L299.666 104.132C299.09 105.788 298.37 108.38 298.37 108.38H298.298C298.298 108.38 297.578 105.788 297.002 104.132L293.258 93.26H286.418L284.294 119ZM314.822 113.78C314.822 116.984 317.306 119.432 320.87 119.432C322.994 119.432 325.154 118.46 326.378 116.732H326.45C326.45 116.732 326.378 117.272 326.378 117.884V119H332.066V107.588C332.066 102.872 328.898 100.028 323.786 100.028C320.762 100.028 317.522 101.216 315.938 102.44L318.098 106.832C319.574 105.86 321.41 105.068 323.21 105.068C324.578 105.068 325.838 105.572 325.838 107.12V107.444H325.298C320.726 107.444 314.822 108.812 314.822 113.78ZM320.978 113.204C320.978 111.512 323.426 111.008 325.334 111.008H325.91V111.512C325.91 113.024 324.542 114.788 322.742 114.788C321.59 114.788 320.978 114.068 320.978 113.204ZM340.086 119H346.314V105.68H351.966V100.46H334.47V105.68H340.086V119ZM353.325 109.712C353.325 114.644 356.889 119.432 363.513 119.432C366.357 119.432 369.417 118.46 371.433 116.732L369.129 112.376C367.617 113.384 365.853 114.248 364.017 114.248C362.037 114.248 360.165 113.204 359.697 110.936H371.397C371.469 110.288 371.541 109.64 371.541 108.992C371.541 103.844 368.445 100.028 362.973 100.028C356.997 100.028 353.325 104.276 353.325 109.712ZM359.841 107.372C360.165 105.896 361.029 104.6 362.829 104.6C364.413 104.6 365.385 105.86 365.385 107.372H359.841ZM374.003 119H379.943L380.375 110.468C380.447 109.028 380.339 107.3 380.339 107.3H380.411C380.411 107.3 381.095 108.848 381.491 110.036L383.939 116.516H388.979L391.427 110.036C391.895 108.884 392.435 107.3 392.435 107.3H392.507C392.507 107.3 392.435 109.028 392.471 110.468L392.903 119H398.879L397.115 100.46H389.951L387.215 108.596C386.891 109.532 386.459 110.756 386.459 110.756H386.423C386.423 110.756 386.027 109.532 385.703 108.596L382.967 100.46H375.767L374.003 119ZM400.92 113.78C400.92 116.984 403.404 119.432 406.968 119.432C409.092 119.432 411.252 118.46 412.476 116.732H412.548C412.548 116.732 412.476 117.272 412.476 117.884V119H418.164V107.588C418.164 102.872 414.996 100.028 409.884 100.028C406.86 100.028 403.62 101.216 402.036 102.44L404.196 106.832C405.672 105.86 407.508 105.068 409.308 105.068C410.676 105.068 411.936 105.572 411.936 107.12V107.444H411.396C406.824 107.444 400.92 108.812 400.92 113.78ZM407.076 113.204C407.076 111.512 409.524 111.008 411.432 111.008H412.008V111.512C412.008 113.024 410.64 114.788 408.84 114.788C407.688 114.788 407.076 114.068 407.076 113.204ZM426.183 119H432.411V105.68H438.063V100.46H420.567V105.68H426.183V119ZM440.678 119H446.726L451.874 110.864C452.162 110.36 452.558 109.784 452.882 109.028H452.954C452.882 109.748 452.882 110.468 452.882 110.9V119H458.75V100.46H452.702L447.554 108.632C447.23 109.172 446.87 109.712 446.546 110.468H446.474C446.51 110 446.546 109.28 446.546 108.632V100.46H440.678V119ZM462.932 119H469.16V112.196H471.104L475.028 119H482.12L475.928 109.352V109.28L481.364 100.46H474.596L470.924 106.976H469.16V100.46H462.932V119ZM482.729 113.78C482.729 116.984 485.213 119.432 488.777 119.432C490.901 119.432 493.061 118.46 494.285 116.732H494.357C494.357 116.732 494.285 117.272 494.285 117.884V119H499.973V107.588C499.973 102.872 496.805 100.028 491.693 100.028C488.669 100.028 485.429 101.216 483.845 102.44L486.005 106.832C487.481 105.86 489.317 105.068 491.117 105.068C492.485 105.068 493.745 105.572 493.745 107.12V107.444H493.205C488.633 107.444 482.729 108.812 482.729 113.78ZM488.885 113.204C488.885 111.512 491.333 111.008 493.241 111.008H493.817V111.512C493.817 113.024 492.449 114.788 490.649 114.788C489.497 114.788 488.885 114.068 488.885 113.204Z" fill="#222224"/>
<circle cx="4" cy="181" r="4" fill="#F04B5D"/>
<circle cx="4" cy="262" r="4" fill="#F04B5D"/>
<circle cx="4" cy="315" r="4" fill="#F04B5D"/>
<circle cx="4" cy="368" r="4" fill="#F04B5D"/>
<path d="M21.35 185.388C22.052 185.874 22.808 186.216 23.672 186.216C25.256 186.216 26.066 184.938 26.57 183.66L30.62 173.292H28.748L26.39 179.7C26.12 180.474 25.85 181.356 25.85 181.356H25.814C25.814 181.356 25.49 180.474 25.094 179.682L21.998 173.292H20.036L25.058 183.246C24.716 184.128 24.356 184.668 23.618 184.668C23.006 184.668 22.466 184.272 22.16 184.038L21.35 185.388ZM30.5294 181.446C30.5294 184.182 32.5274 186.216 35.4074 186.216C36.8294 186.216 38.2154 185.64 39.0434 184.758L38.3414 183.48C37.6394 184.218 36.5414 184.704 35.5334 184.704C33.6434 184.704 32.3114 183.282 32.3114 181.428C32.3114 179.574 33.6434 178.188 35.4794 178.188C36.4334 178.188 37.3874 178.62 37.9994 179.232L38.8274 178.008C37.9634 177.09 36.6134 176.676 35.4074 176.676C32.5454 176.676 30.5294 178.746 30.5294 181.446ZM43.128 186H44.856V178.386H48.042V176.892H39.96V178.386H43.128V186ZM49.7563 189.6H51.5023V185.46C51.5023 184.992 51.4303 184.668 51.4303 184.668H51.4663C52.0963 185.64 53.1403 186.216 54.2923 186.216C56.6863 186.216 58.4143 184.344 58.4143 181.446C58.4143 178.62 56.8843 176.676 54.4183 176.676C53.0863 176.676 51.9343 177.288 51.3583 178.386H51.3223C51.3223 178.386 51.3763 178.08 51.3763 177.702V176.892H49.7563V189.6ZM51.4483 181.482C51.4483 179.178 52.7083 178.206 54.0763 178.206C55.5883 178.206 56.6503 179.484 56.6503 181.464C56.6503 183.534 55.4623 184.704 54.0223 184.704C52.3483 184.704 51.4483 183.102 51.4483 181.482ZM59.8108 183.516C59.8108 185.226 61.2688 186.216 62.8528 186.216C64.2028 186.216 65.3188 185.406 65.8408 184.362H65.8768C65.8768 184.362 65.8228 184.668 65.8228 185.082V186H67.4608V180.24C67.4608 177.936 66.1468 176.676 63.8608 176.676C62.5828 176.676 61.1968 177.144 60.4588 177.756L61.1608 179.034C61.8988 178.512 62.8168 178.152 63.7168 178.152C64.8508 178.152 65.7148 178.656 65.7148 180.15V180.33H65.2468C63.3568 180.33 59.8108 180.654 59.8108 183.516ZM61.5568 183.372C61.5568 181.698 63.9688 181.59 65.2648 181.59H65.7148V181.932C65.7148 183.282 64.7968 184.83 63.2668 184.83C62.1328 184.83 61.5568 184.092 61.5568 183.372ZM70.0414 186H71.7874V182.094H76.3954V186H78.1414V176.892H76.3954V180.6H71.7874V176.892H70.0414V186ZM80.8344 186H82.5084L86.4504 180.564C86.7384 180.132 87.1884 179.52 87.2424 179.358H87.2784C87.2784 179.502 87.2244 180.132 87.2244 180.564V186H88.9164V176.892H87.2244L83.3004 182.328C82.9944 182.76 82.5624 183.39 82.4904 183.552H82.4544C82.4724 183.462 82.5084 182.814 82.5084 182.328V176.892H80.8344V186ZM93.7882 186H95.5162V178.386H98.7022V176.892H90.6202V178.386H93.7882V186ZM100.416 186H103.962C106.266 186 107.31 184.83 107.31 183.12C107.31 181.05 105.888 180.186 103.998 180.186H102.162V176.892H100.416V186ZM102.162 184.74V181.446H103.728C104.988 181.446 105.528 182.13 105.528 183.102C105.528 184.056 104.988 184.74 103.728 184.74H102.162ZM113.688 186H115.434V178.386H119.898V186H121.644V176.892H113.688V186ZM124.34 189.6H126.086V185.46C126.086 184.992 126.014 184.668 126.014 184.668H126.05C126.68 185.64 127.724 186.216 128.876 186.216C131.27 186.216 132.998 184.344 132.998 181.446C132.998 178.62 131.468 176.676 129.002 176.676C127.67 176.676 126.518 177.288 125.942 178.386H125.906C125.906 178.386 125.96 178.08 125.96 177.702V176.892H124.34V189.6ZM126.032 181.482C126.032 179.178 127.292 178.206 128.66 178.206C130.172 178.206 131.234 179.484 131.234 181.464C131.234 183.534 130.046 184.704 128.606 184.704C126.932 184.704 126.032 183.102 126.032 181.482ZM134.557 181.428C134.557 184.2 136.753 186.216 139.471 186.216C142.171 186.216 144.367 184.2 144.367 181.428C144.367 178.674 142.171 176.676 139.453 176.676C136.753 176.676 134.557 178.674 134.557 181.428ZM136.339 181.428C136.339 179.538 137.743 178.188 139.471 178.188C141.181 178.188 142.603 179.538 142.603 181.428C142.603 183.336 141.181 184.704 139.471 184.704C137.743 184.704 136.339 183.336 136.339 181.428ZM146.075 180.762C146.075 183.912 147.461 186.216 150.539 186.216C153.113 186.216 154.841 184.416 154.841 181.896C154.841 179.322 153.257 177.702 150.971 177.702C149.765 177.702 148.559 178.098 147.749 179.322H147.713C147.839 177.576 148.703 176.514 150.521 175.686L154.013 174.228L153.437 172.788L150.179 174.192C147.011 175.524 146.075 177.504 146.075 180.762ZM147.893 181.896C147.893 180.294 148.991 179.088 150.539 179.088C151.907 179.088 153.077 180.15 153.077 181.932C153.077 183.696 151.907 184.74 150.467 184.74C149.063 184.74 147.893 183.696 147.893 181.896ZM156.424 181.446C156.424 184.146 158.404 186.216 161.266 186.216C162.526 186.216 163.912 185.73 164.794 184.92L164.056 183.642C163.336 184.29 162.346 184.704 161.374 184.704C159.736 184.704 158.332 183.642 158.242 181.68H164.866C164.902 181.428 164.938 181.176 164.938 180.942C164.938 178.602 163.57 176.676 160.996 176.676C158.404 176.676 156.424 178.548 156.424 181.446ZM158.296 180.42C158.548 178.908 159.61 178.026 160.96 178.026C162.148 178.026 163.12 178.854 163.174 180.42H158.296ZM166.048 186.09C168.73 185.946 169.774 183.822 169.774 179.7V178.332H172.456V186H174.202V176.892H168.1V179.7C168.1 182.994 167.38 184.326 166.048 184.524V186.09ZM185.143 186H186.889V176.892H185.143V186ZM176.899 186H180.409C182.695 186 183.739 184.83 183.739 183.12C183.739 181.05 182.317 180.186 180.427 180.186H178.645V176.892H176.899V186ZM178.645 184.74V181.446H180.157C181.417 181.446 181.975 182.13 181.975 183.102C181.975 184.056 181.435 184.74 180.175 184.74H178.645ZM194.09 186H195.764L199.706 180.564C199.994 180.132 200.444 179.52 200.498 179.358H200.534C200.534 179.502 200.48 180.132 200.48 180.564V186H202.172V176.892H200.48L196.556 182.328C196.25 182.76 195.818 183.39 195.746 183.552H195.71C195.728 183.462 195.764 182.814 195.764 182.328V176.892H194.09V186ZM209.348 186H211.094V178.386H215.558V186H217.304V176.892H209.348V186ZM219.406 181.428C219.406 184.2 221.602 186.216 224.32 186.216C227.02 186.216 229.216 184.2 229.216 181.428C229.216 178.674 227.02 176.676 224.302 176.676C221.602 176.676 219.406 178.674 219.406 181.428ZM221.188 181.428C221.188 179.538 222.592 178.188 224.32 178.188C226.03 178.188 227.452 179.538 227.452 181.428C227.452 183.336 226.03 184.704 224.32 184.704C222.592 184.704 221.188 183.336 221.188 181.428ZM231.321 186H235.209C237.189 186 238.557 185.1 238.557 183.408C238.557 182.4 237.963 181.518 236.829 181.248V181.23C237.657 180.87 238.125 180.114 238.125 179.232C238.125 177.702 236.919 176.892 235.083 176.892H231.321V186ZM233.067 180.744V178.098H234.723C235.821 178.098 236.343 178.53 236.343 179.358C236.343 180.204 235.821 180.744 234.777 180.744H233.067ZM233.067 184.776V181.914H234.921C236.127 181.914 236.793 182.454 236.793 183.354C236.793 184.2 236.199 184.776 234.939 184.776H233.067ZM248.916 186H250.662V176.892H248.916V186ZM240.672 186H244.182C246.468 186 247.512 184.83 247.512 183.12C247.512 181.05 246.09 180.186 244.2 180.186H242.418V176.892H240.672V186ZM242.418 184.74V181.446H243.93C245.19 181.446 245.748 182.13 245.748 183.102C245.748 184.056 245.208 184.74 243.948 184.74H242.418ZM252.77 181.446C252.77 184.182 254.768 186.216 257.648 186.216C259.07 186.216 260.456 185.64 261.284 184.758L260.582 183.48C259.88 184.218 258.782 184.704 257.774 184.704C255.884 184.704 254.552 183.282 254.552 181.428C254.552 179.574 255.884 178.188 257.72 178.188C258.674 178.188 259.628 178.62 260.24 179.232L261.068 178.008C260.204 177.09 258.854 176.676 257.648 176.676C254.786 176.676 252.77 178.746 252.77 181.446ZM263.172 186H264.846L268.788 180.564C269.076 180.132 269.526 179.52 269.58 179.358H269.616C269.616 179.502 269.562 180.132 269.562 180.564V186H271.254V176.892H269.562L265.638 182.328C265.332 182.76 264.9 183.39 264.828 183.552H264.792C264.81 183.462 264.846 182.814 264.846 182.328V176.892H263.172V186ZM276.126 186H277.854V178.386H281.04V176.892H272.958V178.386H276.126V186ZM282.754 186H286.3C288.604 186 289.648 184.83 289.648 183.12C289.648 181.05 288.226 180.186 286.336 180.186H284.5V176.892H282.754V186ZM284.5 184.74V181.446H286.066C287.326 181.446 287.866 182.13 287.866 183.102C287.866 184.056 287.326 184.74 286.066 184.74H284.5ZM20.9 215.89L20.288 217.222C20.288 217.222 21.026 217.78 22.034 217.78C23.312 217.78 24.446 217.06 24.986 215.638L29.27 204.892H27.38L25.166 210.868C25.004 211.336 24.86 211.948 24.86 211.948H24.824C24.824 211.948 24.662 211.3 24.482 210.85L22.196 204.892H20.234L24.05 213.892L23.6 214.936C23.258 215.764 22.664 216.286 21.944 216.286C21.404 216.286 20.9 215.89 20.9 215.89ZM30.0724 209.446C30.0724 212.182 32.0704 214.216 34.9504 214.216C36.3724 214.216 37.7584 213.64 38.5864 212.758L37.8844 211.48C37.1824 212.218 36.0844 212.704 35.0764 212.704C33.1864 212.704 31.8544 211.282 31.8544 209.428C31.8544 207.574 33.1864 206.188 35.0224 206.188C35.9764 206.188 36.9304 206.62 37.5424 207.232L38.3704 206.008C37.5064 205.09 36.1564 204.676 34.9504 204.676C32.0884 204.676 30.0724 206.746 30.0724 209.446ZM40.475 214H42.221V206.386H46.685V214H48.431V204.892H40.475V214ZM50.5333 209.446C50.5333 212.146 52.5133 214.216 55.3753 214.216C56.6353 214.216 58.0213 213.73 58.9033 212.92L58.1653 211.642C57.4453 212.29 56.4553 212.704 55.4833 212.704C53.8453 212.704 52.4413 211.642 52.3513 209.68H58.9753C59.0113 209.428 59.0473 209.176 59.0473 208.942C59.0473 206.602 57.6793 204.676 55.1053 204.676C52.5133 204.676 50.5333 206.548 50.5333 209.446ZM52.4053 208.42C52.6573 206.908 53.7193 206.026 55.0693 206.026C56.2573 206.026 57.2293 206.854 57.2833 208.42H52.4053ZM61.1469 214H65.0349C67.0149 214 68.3829 213.1 68.3829 211.408C68.3829 210.4 67.7889 209.518 66.6549 209.248V209.23C67.4829 208.87 67.9509 208.114 67.9509 207.232C67.9509 205.702 66.7449 204.892 64.9089 204.892H61.1469V214ZM62.8929 208.744V206.098H64.5489C65.6469 206.098 66.1689 206.53 66.1689 207.358C66.1689 208.204 65.6469 208.744 64.6029 208.744H62.8929ZM62.8929 212.776V209.914H64.7469C65.9529 209.914 66.6189 210.454 66.6189 211.354C66.6189 212.2 66.0249 212.776 64.7649 212.776H62.8929ZM69.7424 211.516C69.7424 213.226 71.2004 214.216 72.7844 214.216C74.1344 214.216 75.2504 213.406 75.7724 212.362H75.8084C75.8084 212.362 75.7544 212.668 75.7544 213.082V214H77.3924V208.24C77.3924 205.936 76.0784 204.676 73.7924 204.676C72.5144 204.676 71.1284 205.144 70.3904 205.756L71.0924 207.034C71.8304 206.512 72.7484 206.152 73.6484 206.152C74.7824 206.152 75.6464 206.656 75.6464 208.15V208.33H75.1784C73.2884 208.33 69.7424 208.654 69.7424 211.516ZM71.4884 211.372C71.4884 209.698 73.9004 209.59 75.1964 209.59H75.6464V209.932C75.6464 211.282 74.7284 212.83 73.1984 212.83C72.0644 212.83 71.4884 212.092 71.4884 211.372ZM79.379 209.446C79.379 212.146 81.359 214.216 84.221 214.216C85.481 214.216 86.867 213.73 87.749 212.92L87.011 211.642C86.291 212.29 85.301 212.704 84.329 212.704C82.691 212.704 81.287 211.642 81.197 209.68H87.821C87.857 209.428 87.893 209.176 87.893 208.942C87.893 206.602 86.525 204.676 83.951 204.676C81.359 204.676 79.379 206.548 79.379 209.446ZM81.251 208.42C81.503 206.908 82.565 206.026 83.915 206.026C85.103 206.026 86.075 206.854 86.129 208.42H81.251ZM89.6146 214H91.3066L91.7026 208.582C91.7386 208.042 91.6846 207.016 91.6846 207.016H91.7206C91.7206 207.016 92.0086 207.7 92.2966 208.366L94.4566 212.902H95.9506L98.1106 208.348C98.4526 207.646 98.6866 207.016 98.6866 207.016H98.7226C98.7226 207.016 98.6866 208.042 98.7046 208.582L99.1006 214H100.793L100.001 204.892H98.0926L95.7166 210.04C95.4826 210.598 95.2126 211.264 95.2126 211.264H95.1766C95.1766 211.264 94.9246 210.58 94.6726 210.04L92.3506 204.892H90.4066L89.6146 214ZM102.547 209.428C102.547 212.2 104.743 214.216 107.461 214.216C110.161 214.216 112.357 212.2 112.357 209.428C112.357 206.674 110.161 204.676 107.443 204.676C104.743 204.676 102.547 206.674 102.547 209.428ZM104.329 209.428C104.329 207.538 105.733 206.188 107.461 206.188C109.171 206.188 110.593 207.538 110.593 209.428C110.593 211.336 109.171 212.704 107.461 212.704C105.733 212.704 104.329 211.336 104.329 209.428ZM113.867 209.446C113.867 212.182 115.865 214.216 118.745 214.216C120.167 214.216 121.553 213.64 122.381 212.758L121.679 211.48C120.977 212.218 119.879 212.704 118.871 212.704C116.981 212.704 115.649 211.282 115.649 209.428C115.649 207.574 116.981 206.188 118.817 206.188C119.771 206.188 120.725 206.62 121.337 207.232L122.165 206.008C121.301 205.09 119.951 204.676 118.745 204.676C115.883 204.676 113.867 206.746 113.867 209.446ZM126.466 214H128.194V206.386H131.38V204.892H123.298V206.386H126.466V214ZM133.094 214H136.64C138.944 214 139.988 212.83 139.988 211.12C139.988 209.05 138.566 208.186 136.676 208.186H134.84V204.892H133.094V214ZM134.84 212.74V209.446H136.406C137.666 209.446 138.206 210.13 138.206 211.102C138.206 212.056 137.666 212.74 136.406 212.74H134.84Z" fill="#505257"/>
<path d="M20.882 260.556C20.882 264.3 23.744 267.216 27.416 267.216C31.088 267.216 33.932 264.3 33.932 260.556C33.932 256.902 31.088 254.076 27.416 254.076C23.744 254.076 20.882 256.902 20.882 260.556ZM22.718 260.556C22.718 257.802 24.806 255.696 27.416 255.696C30.008 255.696 32.096 257.802 32.096 260.556C32.096 263.4 30.008 265.578 27.416 265.578C24.806 265.578 22.718 263.4 22.718 260.556ZM35.7724 261.762C35.7724 264.912 37.1584 267.216 40.2364 267.216C42.8104 267.216 44.5384 265.416 44.5384 262.896C44.5384 260.322 42.9544 258.702 40.6684 258.702C39.4624 258.702 38.2564 259.098 37.4464 260.322H37.4104C37.5364 258.576 38.4004 257.514 40.2184 256.686L43.7104 255.228L43.1344 253.788L39.8764 255.192C36.7084 256.524 35.7724 258.504 35.7724 261.762ZM37.5904 262.896C37.5904 261.294 38.6884 260.088 40.2364 260.088C41.6044 260.088 42.7744 261.15 42.7744 262.932C42.7744 264.696 41.6044 265.74 40.1644 265.74C38.7604 265.74 37.5904 264.696 37.5904 262.896ZM46.1212 262.428C46.1212 265.2 48.3172 267.216 51.0352 267.216C53.7352 267.216 55.9312 265.2 55.9312 262.428C55.9312 259.674 53.7352 257.676 51.0172 257.676C48.3172 257.676 46.1212 259.674 46.1212 262.428ZM47.9032 262.428C47.9032 260.538 49.3072 259.188 51.0352 259.188C52.7452 259.188 54.1672 260.538 54.1672 262.428C54.1672 264.336 52.7452 265.704 51.0352 265.704C49.3072 265.704 47.9032 264.336 47.9032 262.428ZM56.7103 267H58.6543L61.0483 263.112H62.3443V267H64.0003V263.112H65.3143L67.6903 267H69.6523L66.7183 262.32V262.284L69.3823 257.892H67.5463L65.2963 261.618H64.0003V257.892H62.3443V261.618H61.0483L58.8163 257.892H56.9623L59.6443 262.284V262.32L56.7103 267ZM70.5335 264.516C70.5335 266.226 71.9915 267.216 73.5755 267.216C74.9255 267.216 76.0415 266.406 76.5635 265.362H76.5995C76.5995 265.362 76.5455 265.668 76.5455 266.082V267H78.1835V261.24C78.1835 258.936 76.8695 257.676 74.5835 257.676C73.3055 257.676 71.9195 258.144 71.1815 258.756L71.8835 260.034C72.6215 259.512 73.5395 259.152 74.4395 259.152C75.5735 259.152 76.4375 259.656 76.4375 261.15V261.33H75.9695C74.0795 261.33 70.5335 261.654 70.5335 264.516ZM72.2795 264.372C72.2795 262.698 74.6915 262.59 75.9875 262.59H76.4375V262.932C76.4375 264.282 75.5195 265.83 73.9895 265.83C72.8555 265.83 72.2795 265.092 72.2795 264.372ZM80.7641 267H82.5101V263.148H84.1661C84.4901 265.524 86.4161 267.216 88.8281 267.216C91.4561 267.216 93.5621 265.2 93.5621 262.428C93.5621 259.674 91.4561 257.676 88.8101 257.676C86.4161 257.676 84.4901 259.35 84.1661 261.708H82.5101V257.892H80.7641V267ZM85.8581 262.428C85.8581 260.538 87.1721 259.188 88.8281 259.188C90.4661 259.188 91.7801 260.538 91.7801 262.428C91.7801 264.336 90.4661 265.704 88.8281 265.704C87.1721 265.704 85.8581 264.336 85.8581 262.428ZM100.17 267H101.844L105.786 261.564C106.074 261.132 106.524 260.52 106.578 260.358H106.614C106.614 260.502 106.56 261.132 106.56 261.564V267H108.252V257.892H106.56L102.636 263.328C102.33 263.76 101.898 264.39 101.826 264.552H101.79C101.808 264.462 101.844 263.814 101.844 263.328V257.892H100.17V267ZM114.384 267H116.364L118.272 263.958C118.416 263.742 118.542 263.472 118.542 263.472H118.578C118.578 263.472 118.722 263.742 118.866 263.958L120.774 267H122.754L119.64 262.32L122.574 257.892H120.576L118.884 260.664C118.758 260.898 118.578 261.204 118.578 261.204H118.542C118.542 261.204 118.38 260.898 118.254 260.664L116.562 257.892H114.564L117.498 262.32L114.384 267ZM123.518 262.428C123.518 265.2 125.714 267.216 128.432 267.216C131.132 267.216 133.328 265.2 133.328 262.428C133.328 259.674 131.132 257.676 128.414 257.676C125.714 257.676 123.518 259.674 123.518 262.428ZM125.3 262.428C125.3 260.538 126.704 259.188 128.432 259.188C130.142 259.188 131.564 260.538 131.564 262.428C131.564 264.336 130.142 265.704 128.432 265.704C126.704 265.704 125.3 264.336 125.3 262.428ZM137.916 263.832C138.816 263.832 139.806 263.526 140.382 263.166H140.418C140.418 263.166 140.4 263.454 140.4 263.706V267H142.146V257.892H140.4V261.672C140.022 261.942 139.284 262.32 138.384 262.32C136.89 262.32 136.566 261.51 136.566 260.61V257.892H134.856V260.862C134.856 262.806 135.972 263.832 137.916 263.832ZM144.404 268.89L143.792 270.222C143.792 270.222 144.53 270.78 145.538 270.78C146.816 270.78 147.95 270.06 148.49 268.638L152.774 257.892H150.884L148.67 263.868C148.508 264.336 148.364 264.948 148.364 264.948H148.328C148.328 264.948 148.166 264.3 147.986 263.85L145.7 257.892H143.738L147.554 266.892L147.104 267.936C146.762 268.764 146.168 269.286 145.448 269.286C144.908 269.286 144.404 268.89 144.404 268.89ZM158.105 265.884C158.861 266.604 160.049 267.216 161.453 267.216C163.325 267.216 164.945 266.262 164.945 264.39C164.945 263.22 164.225 262.536 163.307 262.248V262.212C164.027 261.906 164.639 261.276 164.639 260.142C164.639 258.522 163.289 257.676 161.561 257.676C160.121 257.676 159.095 258.144 158.393 258.666L159.041 259.836C159.743 259.314 160.463 259.044 161.255 259.044C162.263 259.044 162.875 259.512 162.875 260.358C162.875 261.276 162.173 261.672 161.147 261.672H160.193V262.932H161.309C162.587 262.932 163.181 263.436 163.181 264.318C163.181 265.308 162.335 265.812 161.291 265.812C160.193 265.812 159.329 265.164 158.915 264.732L158.105 265.884ZM167.055 267H168.801V263.094H173.409V267H175.155V257.892H173.409V261.6H168.801V257.892H167.055V267ZM177.092 264.516C177.092 266.226 178.55 267.216 180.134 267.216C181.484 267.216 182.6 266.406 183.122 265.362H183.158C183.158 265.362 183.104 265.668 183.104 266.082V267H184.742V261.24C184.742 258.936 183.428 257.676 181.142 257.676C179.864 257.676 178.478 258.144 177.74 258.756L178.442 260.034C179.18 259.512 180.098 259.152 180.998 259.152C182.132 259.152 182.996 259.656 182.996 261.15V261.33H182.528C180.638 261.33 177.092 261.654 177.092 264.516ZM178.838 264.372C178.838 262.698 181.25 262.59 182.546 262.59H182.996V262.932C182.996 264.282 182.078 265.83 180.548 265.83C179.414 265.83 178.838 265.092 178.838 264.372ZM189.396 267H191.124V259.386H194.31V257.892H186.228V259.386H189.396V267ZM196.024 267H199.57C201.874 267 202.918 265.83 202.918 264.12C202.918 262.05 201.496 261.186 199.606 261.186H197.77V257.892H196.024V267ZM197.77 265.74V262.446H199.336C200.596 262.446 201.136 263.13 201.136 264.102C201.136 265.056 200.596 265.74 199.336 265.74H197.77ZM208.899 261.762C208.899 264.912 210.285 267.216 213.363 267.216C215.937 267.216 217.665 265.416 217.665 262.896C217.665 260.322 216.081 258.702 213.795 258.702C212.589 258.702 211.383 259.098 210.573 260.322H210.537C210.663 258.576 211.527 257.514 213.345 256.686L216.837 255.228L216.261 253.788L213.003 255.192C209.835 256.524 208.899 258.504 208.899 261.762ZM210.717 262.896C210.717 261.294 211.815 260.088 213.363 260.088C214.731 260.088 215.901 261.15 215.901 262.932C215.901 264.696 214.731 265.74 213.291 265.74C211.887 265.74 210.717 264.696 210.717 262.896ZM219.248 262.428C219.248 265.2 221.444 267.216 224.162 267.216C226.862 267.216 229.058 265.2 229.058 262.428C229.058 259.674 226.862 257.676 224.144 257.676C221.444 257.676 219.248 259.674 219.248 262.428ZM221.03 262.428C221.03 260.538 222.434 259.188 224.162 259.188C225.872 259.188 227.294 260.538 227.294 262.428C227.294 264.336 225.872 265.704 224.162 265.704C222.434 265.704 221.03 264.336 221.03 262.428ZM229.926 267.09C232.608 266.946 233.652 264.822 233.652 260.7V259.332H236.334V267H238.08V257.892H231.978V260.7C231.978 263.994 231.258 265.326 229.926 265.524V267.09ZM240.778 267H244.324C246.628 267 247.672 265.83 247.672 264.12C247.672 262.05 246.25 261.186 244.36 261.186H242.524V257.892H240.778V267ZM242.524 265.74V262.446H244.09C245.35 262.446 245.89 263.13 245.89 264.102C245.89 265.056 245.35 265.74 244.09 265.74H242.524ZM249.549 267H261.321V257.892H259.647V265.488H256.281V257.892H254.589V265.488H251.223V257.892H249.549V267ZM263.422 262.446C263.422 265.146 265.402 267.216 268.264 267.216C269.524 267.216 270.91 266.73 271.792 265.92L271.054 264.642C270.334 265.29 269.344 265.704 268.372 265.704C266.734 265.704 265.33 264.642 265.24 262.68H271.864C271.9 262.428 271.936 262.176 271.936 261.942C271.936 259.602 270.568 257.676 267.994 257.676C265.402 257.676 263.422 259.548 263.422 262.446ZM265.294 261.42C265.546 259.908 266.608 259.026 267.958 259.026C269.146 259.026 270.118 259.854 270.172 261.42H265.294Z" fill="#505257"/>
<path d="M20.9 313.574C20.9 317.3 23.474 320.216 27.416 320.216C29.666 320.216 31.25 319.28 32.33 318.2L31.376 316.922C30.35 317.948 28.892 318.578 27.47 318.578C24.518 318.578 22.736 316.256 22.736 313.556C22.736 310.874 24.482 308.696 27.434 308.696C28.748 308.696 30.17 309.254 31.106 310.082L32.006 308.75C30.782 307.58 29 307.076 27.362 307.076C23.582 307.076 20.9 309.884 20.9 313.574ZM33.4826 315.428C33.4826 318.2 35.6786 320.216 38.3966 320.216C41.0966 320.216 43.2926 318.2 43.2926 315.428C43.2926 312.674 41.0966 310.676 38.3786 310.676C35.6786 310.676 33.4826 312.674 33.4826 315.428ZM35.2646 315.428C35.2646 313.538 36.6686 312.188 38.3966 312.188C40.1066 312.188 41.5286 313.538 41.5286 315.428C41.5286 317.336 40.1066 318.704 38.3966 318.704C36.6686 318.704 35.2646 317.336 35.2646 315.428ZM45.0009 314.762C45.0009 317.912 46.3869 320.216 49.4649 320.216C52.0389 320.216 53.7669 318.416 53.7669 315.896C53.7669 313.322 52.1829 311.702 49.8969 311.702C48.6909 311.702 47.4849 312.098 46.6749 313.322H46.6389C46.7649 311.576 47.6289 310.514 49.4469 309.686L52.9389 308.228L52.3629 306.788L49.1049 308.192C45.9369 309.524 45.0009 311.504 45.0009 314.762ZM46.8189 315.896C46.8189 314.294 47.9169 313.088 49.4649 313.088C50.8329 313.088 52.0029 314.15 52.0029 315.932C52.0029 317.696 50.8329 318.74 49.3929 318.74C47.9889 318.74 46.8189 317.696 46.8189 315.896ZM55.9438 320H57.6178L61.5598 314.564C61.8478 314.132 62.2978 313.52 62.3518 313.358H62.3878C62.3878 313.502 62.3338 314.132 62.3338 314.564V320H64.0258V310.892H62.3338L58.4098 316.328C58.1038 316.76 57.6718 317.39 57.5998 317.552H57.5638C57.5818 317.462 57.6178 316.814 57.6178 316.328V310.892H55.9438V320ZM66.7016 323.6H68.4476V319.46C68.4476 318.992 68.3756 318.668 68.3756 318.668H68.4116C69.0416 319.64 70.0856 320.216 71.2376 320.216C73.6316 320.216 75.3596 318.344 75.3596 315.446C75.3596 312.62 73.8296 310.676 71.3636 310.676C70.0316 310.676 68.8796 311.288 68.3036 312.386H68.2676C68.2676 312.386 68.3216 312.08 68.3216 311.702V310.892H66.7016V323.6ZM68.3936 315.482C68.3936 313.178 69.6536 312.206 71.0216 312.206C72.5336 312.206 73.5956 313.484 73.5956 315.464C73.5956 317.534 72.4076 318.704 70.9676 318.704C69.2936 318.704 68.3936 317.102 68.3936 315.482ZM76.7561 317.516C76.7561 319.226 78.2141 320.216 79.7981 320.216C81.1481 320.216 82.2641 319.406 82.7861 318.362H82.8221C82.8221 318.362 82.7681 318.668 82.7681 319.082V320H84.4061V314.24C84.4061 311.936 83.0921 310.676 80.8061 310.676C79.5281 310.676 78.1421 311.144 77.4041 311.756L78.1061 313.034C78.8441 312.512 79.7621 312.152 80.6621 312.152C81.7961 312.152 82.6601 312.656 82.6601 314.15V314.33H82.1921C80.3021 314.33 76.7561 314.654 76.7561 317.516ZM78.5021 317.372C78.5021 315.698 80.9141 315.59 82.2101 315.59H82.6601V315.932C82.6601 317.282 81.7421 318.83 80.2121 318.83C79.0781 318.83 78.5021 318.092 78.5021 317.372ZM86.9867 320H88.7327V316.148H90.3887C90.7127 318.524 92.6387 320.216 95.0507 320.216C97.6787 320.216 99.7847 318.2 99.7847 315.428C99.7847 312.674 97.6787 310.676 95.0327 310.676C92.6387 310.676 90.7127 312.35 90.3887 314.708H88.7327V310.892H86.9867V320ZM92.0807 315.428C92.0807 313.538 93.3947 312.188 95.0507 312.188C96.6887 312.188 98.0027 313.538 98.0027 315.428C98.0027 317.336 96.6887 318.704 95.0507 318.704C93.3947 318.704 92.0807 317.336 92.0807 315.428ZM101.299 315.446C101.299 318.182 103.297 320.216 106.177 320.216C107.599 320.216 108.985 319.64 109.813 318.758L109.111 317.48C108.409 318.218 107.311 318.704 106.303 318.704C104.413 318.704 103.081 317.282 103.081 315.428C103.081 313.574 104.413 312.188 106.249 312.188C107.203 312.188 108.157 312.62 108.769 313.232L109.597 312.008C108.733 311.09 107.383 310.676 106.177 310.676C103.315 310.676 101.299 312.746 101.299 315.446ZM111.702 320H115.248C117.552 320 118.596 318.83 118.596 317.12C118.596 315.05 117.174 314.186 115.284 314.186H113.448V310.892H111.702V320ZM113.448 318.74V315.446H115.014C116.274 315.446 116.814 316.13 116.814 317.102C116.814 318.056 116.274 318.74 115.014 318.74H113.448ZM124.379 315.446C124.379 318.182 126.377 320.216 129.257 320.216C130.679 320.216 132.065 319.64 132.893 318.758L132.191 317.48C131.489 318.218 130.391 318.704 129.383 318.704C127.493 318.704 126.161 317.282 126.161 315.428C126.161 313.574 127.493 312.188 129.329 312.188C130.283 312.188 131.237 312.62 131.849 313.232L132.677 312.008C131.813 311.09 130.463 310.676 129.257 310.676C126.395 310.676 124.379 312.746 124.379 315.446ZM136.564 318.56C137.716 316.76 137.86 314.168 137.86 312.8V312.314H140.596V318.56H136.564ZM133.648 318.56V322.16H135.286V320H142.036V322.16H143.638V318.56H142.342V310.892H136.186V312.566C136.186 313.97 136.042 316.814 134.764 318.56H133.648ZM144.713 317.516C144.713 319.226 146.171 320.216 147.755 320.216C149.105 320.216 150.221 319.406 150.743 318.362H150.779C150.779 318.362 150.725 318.668 150.725 319.082V320H152.363V314.24C152.363 311.936 151.049 310.676 148.763 310.676C147.485 310.676 146.099 311.144 145.361 311.756L146.063 313.034C146.801 312.512 147.719 312.152 148.619 312.152C149.753 312.152 150.617 312.656 150.617 314.15V314.33H150.149C148.259 314.33 144.713 314.654 144.713 317.516ZM146.459 317.372C146.459 315.698 148.871 315.59 150.167 315.59H150.617V315.932C150.617 317.282 149.699 318.83 148.169 318.83C147.035 318.83 146.459 318.092 146.459 317.372ZM154.944 320H158.832C160.812 320 162.18 319.1 162.18 317.408C162.18 316.4 161.586 315.518 160.452 315.248V315.23C161.28 314.87 161.748 314.114 161.748 313.232C161.748 311.702 160.542 310.892 158.706 310.892H154.944V320ZM156.69 314.744V312.098H158.346C159.444 312.098 159.966 312.53 159.966 313.358C159.966 314.204 159.444 314.744 158.4 314.744H156.69ZM156.69 318.776V315.914H158.544C159.75 315.914 160.416 316.454 160.416 317.354C160.416 318.2 159.822 318.776 158.562 318.776H156.69ZM163.539 317.516C163.539 319.226 164.997 320.216 166.581 320.216C167.931 320.216 169.047 319.406 169.569 318.362H169.605C169.605 318.362 169.551 318.668 169.551 319.082V320H171.189V314.24C171.189 311.936 169.875 310.676 167.589 310.676C166.311 310.676 164.925 311.144 164.187 311.756L164.889 313.034C165.627 312.512 166.545 312.152 167.445 312.152C168.579 312.152 169.443 312.656 169.443 314.15V314.33H168.975C167.085 314.33 163.539 314.654 163.539 317.516ZM165.285 317.372C165.285 315.698 167.697 315.59 168.993 315.59H169.443V315.932C169.443 317.282 168.525 318.83 166.995 318.83C165.861 318.83 165.285 318.092 165.285 317.372ZM175.843 320H177.571V312.386H180.757V310.892H172.675V312.386H175.843V320ZM182.471 320H186.017C188.321 320 189.365 318.83 189.365 317.12C189.365 315.05 187.943 314.186 186.053 314.186H184.217V310.892H182.471V320ZM184.217 318.74V315.446H185.783C187.043 315.446 187.583 316.13 187.583 317.102C187.583 318.056 187.043 318.74 185.783 318.74H184.217ZM194.933 318.848C195.887 319.766 197.237 320.216 198.551 320.216C201.413 320.216 203.411 318.182 203.411 315.446C203.411 312.746 201.431 310.676 198.587 310.676C197.309 310.676 195.923 311.09 195.113 311.954L195.905 313.16C196.607 312.494 197.525 312.098 198.533 312.098C200.153 312.098 201.467 313.16 201.701 314.816H197.345V316.076H201.701C201.467 317.678 200.171 318.776 198.479 318.776C197.489 318.776 196.409 318.416 195.617 317.606L194.933 318.848ZM205.534 320H207.28V316.058H208.594L211.312 320H213.382L209.98 315.266V315.23L213.022 310.892H211.042L208.558 314.564H207.28V310.892H205.534V320ZM214.056 318.884C214.812 319.604 216 320.216 217.404 320.216C219.276 320.216 220.896 319.262 220.896 317.39C220.896 316.22 220.176 315.536 219.258 315.248V315.212C219.978 314.906 220.59 314.276 220.59 313.142C220.59 311.522 219.24 310.676 217.512 310.676C216.072 310.676 215.046 311.144 214.344 311.666L214.992 312.836C215.694 312.314 216.414 312.044 217.206 312.044C218.214 312.044 218.826 312.512 218.826 313.358C218.826 314.276 218.124 314.672 217.098 314.672H216.144V315.932H217.26C218.538 315.932 219.132 316.436 219.132 317.318C219.132 318.308 218.286 318.812 217.242 318.812C216.144 318.812 215.28 318.164 214.866 317.732L214.056 318.884ZM222.25 317.516C222.25 319.226 223.708 320.216 225.292 320.216C226.642 320.216 227.758 319.406 228.28 318.362H228.316C228.316 318.362 228.262 318.668 228.262 319.082V320H229.9V314.24C229.9 311.936 228.586 310.676 226.3 310.676C225.022 310.676 223.636 311.144 222.898 311.756L223.6 313.034C224.338 312.512 225.256 312.152 226.156 312.152C227.29 312.152 228.154 312.656 228.154 314.15V314.33H227.686C225.796 314.33 222.25 314.654 222.25 317.516ZM223.996 317.372C223.996 315.698 226.408 315.59 227.704 315.59H228.154V315.932C228.154 317.282 227.236 318.83 225.706 318.83C224.572 318.83 223.996 318.092 223.996 317.372ZM232.103 320H233.795L234.191 314.582C234.227 314.042 234.173 313.016 234.173 313.016H234.209C234.209 313.016 234.497 313.7 234.785 314.366L236.945 318.902H238.439L240.599 314.348C240.941 313.646 241.175 313.016 241.175 313.016H241.211C241.211 313.016 241.175 314.042 241.193 314.582L241.589 320H243.281L242.489 310.892H240.581L238.205 316.04C237.971 316.598 237.701 317.264 237.701 317.264H237.665C237.665 317.264 237.413 316.58 237.161 316.04L234.839 310.892H232.895L232.103 320ZM245.035 315.446C245.035 318.146 247.015 320.216 249.877 320.216C251.137 320.216 252.523 319.73 253.405 318.92L252.667 317.642C251.947 318.29 250.957 318.704 249.985 318.704C248.347 318.704 246.943 317.642 246.853 315.68H253.477C253.513 315.428 253.549 315.176 253.549 314.942C253.549 312.602 252.181 310.676 249.607 310.676C247.015 310.676 245.035 312.548 245.035 315.446ZM246.907 314.42C247.159 312.908 248.221 312.026 249.571 312.026C250.759 312.026 251.731 312.854 251.785 314.42H246.907ZM255.649 320H257.395V316.094H262.003V320H263.749V310.892H262.003V314.6H257.395V310.892H255.649V320ZM274.686 320H276.432V310.892H274.686V320ZM266.442 320H269.952C272.238 320 273.282 318.83 273.282 317.12C273.282 315.05 271.86 314.186 269.97 314.186H268.188V310.892H266.442V320ZM268.188 318.74V315.446H269.7C270.96 315.446 271.518 316.13 271.518 317.102C271.518 318.056 270.978 318.74 269.718 318.74H268.188Z" fill="#505257"/>
<path d="M20.882 366.556C20.882 370.3 23.744 373.216 27.416 373.216C31.088 373.216 33.932 370.3 33.932 366.556C33.932 362.902 31.088 360.076 27.416 360.076C23.744 360.076 20.882 362.902 20.882 366.556ZM22.718 366.556C22.718 363.802 24.806 361.696 27.416 361.696C30.008 361.696 32.096 363.802 32.096 366.556C32.096 369.4 30.008 371.578 27.416 371.578C24.806 371.578 22.718 369.4 22.718 366.556ZM35.7724 367.762C35.7724 370.912 37.1584 373.216 40.2364 373.216C42.8104 373.216 44.5384 371.416 44.5384 368.896C44.5384 366.322 42.9544 364.702 40.6684 364.702C39.4624 364.702 38.2564 365.098 37.4464 366.322H37.4104C37.5364 364.576 38.4004 363.514 40.2184 362.686L43.7104 361.228L43.1344 359.788L39.8764 361.192C36.7084 362.524 35.7724 364.504 35.7724 367.762ZM37.5904 368.896C37.5904 367.294 38.6884 366.088 40.2364 366.088C41.6044 366.088 42.7744 367.15 42.7744 368.932C42.7744 370.696 41.6044 371.74 40.1644 371.74C38.7604 371.74 37.5904 370.696 37.5904 368.896ZM47.73 373H51.294C53.58 373 54.606 371.83 54.606 370.12C54.606 368.05 53.202 367.186 51.312 367.186H49.476V363.892H45.264V365.386H47.73V373ZM49.476 371.74V368.446H51.042C52.302 368.446 52.842 369.13 52.842 370.102C52.842 371.056 52.302 371.74 51.042 371.74H49.476ZM55.5707 373H57.4967L59.7287 369.706H61.2587V373H63.0047V363.892H59.3687C57.4427 363.892 56.1107 364.882 56.1107 366.754C56.1107 368.14 57.0467 369.112 58.0907 369.4V369.418C58.0907 369.418 57.8747 369.652 57.6767 369.976L55.5707 373ZM59.7467 368.428C58.6847 368.428 57.8747 367.87 57.8747 366.736C57.8747 365.566 58.6307 365.098 59.8007 365.098H61.2587V368.428H59.7467ZM65.1056 368.446C65.1056 371.182 67.1036 373.216 69.9836 373.216C71.4056 373.216 72.7916 372.64 73.6196 371.758L72.9176 370.48C72.2156 371.218 71.1176 371.704 70.1096 371.704C68.2196 371.704 66.8876 370.282 66.8876 368.428C66.8876 366.574 68.2196 365.188 70.0556 365.188C71.0096 365.188 71.9636 365.62 72.5756 366.232L73.4036 365.008C72.5396 364.09 71.1896 363.676 69.9836 363.676C67.1216 363.676 65.1056 365.746 65.1056 368.446ZM75.5082 373H77.2542V369.094H81.8622V373H83.6082V363.892H81.8622V367.6H77.2542V363.892H75.5082V373ZM86.3012 373H87.9752L91.9172 367.564C92.2052 367.132 92.6552 366.52 92.7092 366.358H92.7452C92.7452 366.502 92.6912 367.132 92.6912 367.564V373H94.3832V363.892H92.6912L88.7672 369.328C88.4612 369.76 88.0292 370.39 87.9572 370.552H87.9212C87.9392 370.462 87.9752 369.814 87.9752 369.328V363.892H86.3012V373ZM99.255 373H100.983V365.386H104.169V363.892H96.087V365.386H99.255V373ZM104.99 368.446C104.99 371.146 106.97 373.216 109.832 373.216C111.092 373.216 112.478 372.73 113.36 371.92L112.622 370.642C111.902 371.29 110.912 371.704 109.94 371.704C108.302 371.704 106.898 370.642 106.808 368.68H113.432C113.468 368.428 113.504 368.176 113.504 367.942C113.504 365.602 112.136 363.676 109.562 363.676C106.97 363.676 104.99 365.548 104.99 368.446ZM106.862 367.42C107.114 365.908 108.176 365.026 109.526 365.026C110.714 365.026 111.686 365.854 111.74 367.42H106.862ZM119.726 373H121.418L121.814 367.582C121.85 367.042 121.796 366.016 121.796 366.016H121.832C121.832 366.016 122.12 366.7 122.408 367.366L124.568 371.902H126.062L128.222 367.348C128.564 366.646 128.798 366.016 128.798 366.016H128.834C128.834 366.016 128.798 367.042 128.816 367.582L129.212 373H130.904L130.112 363.892H128.204L125.828 369.04C125.594 369.598 125.324 370.264 125.324 370.264H125.288C125.288 370.264 125.036 369.58 124.784 369.04L122.462 363.892H120.518L119.726 373ZM132.496 370.516C132.496 372.226 133.954 373.216 135.538 373.216C136.888 373.216 138.004 372.406 138.526 371.362H138.562C138.562 371.362 138.508 371.668 138.508 372.082V373H140.146V367.24C140.146 364.936 138.832 363.676 136.546 363.676C135.268 363.676 133.882 364.144 133.144 364.756L133.846 366.034C134.584 365.512 135.502 365.152 136.402 365.152C137.536 365.152 138.4 365.656 138.4 367.15V367.33H137.932C136.042 367.33 132.496 367.654 132.496 370.516ZM134.242 370.372C134.242 368.698 136.654 368.59 137.95 368.59H138.4V368.932C138.4 370.282 137.482 371.83 135.952 371.83C134.818 371.83 134.242 371.092 134.242 370.372ZM142.727 373H144.473V369.058H145.787L148.505 373H150.575L147.173 368.266V368.23L150.215 363.892H148.235L145.751 367.564H144.473V363.892H142.727V373ZM151.151 368.446C151.151 371.182 153.149 373.216 156.029 373.216C157.451 373.216 158.837 372.64 159.665 371.758L158.963 370.48C158.261 371.218 157.163 371.704 156.155 371.704C154.265 371.704 152.933 370.282 152.933 368.428C152.933 366.574 154.265 365.188 156.101 365.188C157.055 365.188 158.009 365.62 158.621 366.232L159.449 365.008C158.585 364.09 157.235 363.676 156.029 363.676C153.167 363.676 151.151 365.746 151.151 368.446ZM161.553 373H163.227L167.169 367.564C167.457 367.132 167.907 366.52 167.961 366.358H167.997C167.997 366.502 167.943 367.132 167.943 367.564V373H169.635V363.892H167.943L164.019 369.328C163.713 369.76 163.281 370.39 163.209 370.552H163.173C163.191 370.462 163.227 369.814 163.227 369.328V363.892H161.553V373ZM171.933 373H173.625L174.021 367.582C174.057 367.042 174.003 366.016 174.003 366.016H174.039C174.039 366.016 174.327 366.7 174.615 367.366L176.775 371.902H178.269L180.429 367.348C180.771 366.646 181.005 366.016 181.005 366.016H181.041C181.041 366.016 181.005 367.042 181.023 367.582L181.419 373H183.111L182.319 363.892H180.411L178.035 369.04C177.801 369.598 177.531 370.264 177.531 370.264H177.495C177.495 370.264 177.243 369.58 176.991 369.04L174.669 363.892H172.725L171.933 373ZM184.703 370.516C184.703 372.226 186.161 373.216 187.745 373.216C189.095 373.216 190.211 372.406 190.733 371.362H190.769C190.769 371.362 190.715 371.668 190.715 372.082V373H192.353V367.24C192.353 364.936 191.039 363.676 188.753 363.676C187.475 363.676 186.089 364.144 185.351 364.756L186.053 366.034C186.791 365.512 187.709 365.152 188.609 365.152C189.743 365.152 190.607 365.656 190.607 367.15V367.33H190.139C188.249 367.33 184.703 367.654 184.703 370.516ZM186.449 370.372C186.449 368.698 188.861 368.59 190.157 368.59H190.607V368.932C190.607 370.282 189.689 371.83 188.159 371.83C187.025 371.83 186.449 371.092 186.449 370.372ZM193.944 373.09C196.626 372.946 197.67 370.822 197.67 366.7V365.332H200.352V373H202.098V363.892H195.996V366.7C195.996 369.994 195.276 371.326 193.944 371.524V373.09ZM204.795 373H208.341C210.645 373 211.689 371.83 211.689 370.12C211.689 368.05 210.267 367.186 208.377 367.186H206.541V363.892H204.795V373ZM206.541 371.74V368.446H208.107C209.367 368.446 209.907 369.13 209.907 370.102C209.907 371.056 209.367 371.74 208.107 371.74H206.541ZM213.567 373H215.313V369.094H219.921V373H221.667V363.892H219.921V367.6H215.313V363.892H213.567V373ZM223.766 368.428C223.766 371.2 225.962 373.216 228.68 373.216C231.38 373.216 233.576 371.2 233.576 368.428C233.576 365.674 231.38 363.676 228.662 363.676C225.962 363.676 223.766 365.674 223.766 368.428ZM225.548 368.428C225.548 366.538 226.952 365.188 228.68 365.188C230.39 365.188 231.812 366.538 231.812 368.428C231.812 370.336 230.39 371.704 228.68 371.704C226.952 371.704 225.548 370.336 225.548 368.428ZM241.962 371.56C243.114 369.76 243.258 367.168 243.258 365.8V365.314H245.994V371.56H241.962ZM239.046 371.56V375.16H240.684V373H247.434V375.16H249.036V371.56H247.74V363.892H241.584V365.566C241.584 366.97 241.44 369.814 240.162 371.56H239.046ZM250.168 368.428C250.168 371.2 252.364 373.216 255.082 373.216C257.782 373.216 259.978 371.2 259.978 368.428C259.978 365.674 257.782 363.676 255.064 363.676C252.364 363.676 250.168 365.674 250.168 368.428ZM251.95 368.428C251.95 366.538 253.354 365.188 255.082 365.188C256.792 365.188 258.214 366.538 258.214 368.428C258.214 370.336 256.792 371.704 255.082 371.704C253.354 371.704 251.95 370.336 251.95 368.428ZM261.488 368.446C261.488 371.182 263.486 373.216 266.366 373.216C267.788 373.216 269.174 372.64 270.002 371.758L269.3 370.48C268.598 371.218 267.5 371.704 266.492 371.704C264.602 371.704 263.27 370.282 263.27 368.428C263.27 366.574 264.602 365.188 266.438 365.188C267.392 365.188 268.346 365.62 268.958 366.232L269.786 365.008C268.922 364.09 267.572 363.676 266.366 363.676C263.504 363.676 261.488 365.746 261.488 368.446ZM274.087 373H275.815V365.386H279.001V363.892H270.919V365.386H274.087V373ZM280.265 374.89L279.653 376.222C279.653 376.222 280.391 376.78 281.399 376.78C282.677 376.78 283.811 376.06 284.351 374.638L288.635 363.892H286.745L284.531 369.868C284.369 370.336 284.225 370.948 284.225 370.948H284.189C284.189 370.948 284.027 370.3 283.847 369.85L281.561 363.892H279.599L283.415 372.892L282.965 373.936C282.623 374.764 282.029 375.286 281.309 375.286C280.769 375.286 280.265 374.89 280.265 374.89ZM290.348 373H292.094V365.386H296.558V373H298.304V363.892H290.348V373ZM301 373H302.746V369.094H307.354V373H309.1V363.892H307.354V367.6H302.746V363.892H301V373ZM311.199 368.428C311.199 371.2 313.395 373.216 316.113 373.216C318.813 373.216 321.009 371.2 321.009 368.428C321.009 365.674 318.813 363.676 316.095 363.676C313.395 363.676 311.199 365.674 311.199 368.428ZM312.981 368.428C312.981 366.538 314.385 365.188 316.113 365.188C317.823 365.188 319.245 366.538 319.245 368.428C319.245 370.336 317.823 371.704 316.113 371.704C314.385 371.704 312.981 370.336 312.981 368.428ZM20.756 396.446C20.756 399.182 22.754 401.216 25.634 401.216C27.056 401.216 28.442 400.64 29.27 399.758L28.568 398.48C27.866 399.218 26.768 399.704 25.76 399.704C23.87 399.704 22.538 398.282 22.538 396.428C22.538 394.574 23.87 393.188 25.706 393.188C26.66 393.188 27.614 393.62 28.226 394.232L29.054 393.008C28.19 392.09 26.84 391.676 25.634 391.676C22.772 391.676 20.756 393.746 20.756 396.446ZM30.1686 401.09C32.8506 400.946 33.8946 398.822 33.8946 394.7V393.332H36.5766V401H38.3226V391.892H32.2206V394.7C32.2206 397.994 31.5006 399.326 30.1686 399.524V401.09ZM40.4259 396.428C40.4259 399.2 42.6219 401.216 45.3399 401.216C48.0399 401.216 50.2359 399.2 50.2359 396.428C50.2359 393.674 48.0399 391.676 45.3219 391.676C42.6219 391.676 40.4259 393.674 40.4259 396.428ZM42.2079 396.428C42.2079 394.538 43.6119 393.188 45.3399 393.188C47.0499 393.188 48.4719 394.538 48.4719 396.428C48.4719 398.336 47.0499 399.704 45.3399 399.704C43.6119 399.704 42.2079 398.336 42.2079 396.428ZM51.015 401H52.959L55.353 397.112H56.649V401H58.305V397.112H59.619L61.995 401H63.957L61.023 396.32V396.284L63.687 391.892H61.851L59.601 395.618H58.305V391.892H56.649V395.618H55.353L53.121 391.892H51.267L53.949 396.284V396.32L51.015 401ZM65.5941 401H67.3401V397.094H71.9481V401H73.6941V391.892H71.9481V395.6H67.3401V391.892H65.5941V401ZM84.6311 401H86.3771V391.892H84.6311V401ZM76.3871 401H79.8971C82.1831 401 83.2271 399.83 83.2271 398.12C83.2271 396.05 81.8051 395.186 79.9151 395.186H78.1331V391.892H76.3871V401ZM78.1331 399.74V396.446H79.6451C80.9051 396.446 81.4631 397.13 81.4631 398.102C81.4631 399.056 80.9231 399.74 79.6631 399.74H78.1331ZM88.4845 396.446C88.4845 399.146 90.4645 401.216 93.3265 401.216C94.5865 401.216 95.9725 400.73 96.8545 399.92L96.1165 398.642C95.3965 399.29 94.4065 399.704 93.4345 399.704C91.7965 399.704 90.3925 398.642 90.3025 396.68H96.9265C96.9625 396.428 96.9985 396.176 96.9985 395.942C96.9985 393.602 95.6305 391.676 93.0565 391.676C90.4645 391.676 88.4845 393.548 88.4845 396.446ZM90.3565 395.42C90.6085 393.908 91.6705 393.026 93.0205 393.026C94.2085 393.026 95.1805 393.854 95.2345 395.42H90.3565ZM103.598 401H107.486C109.466 401 110.834 400.1 110.834 398.408C110.834 397.4 110.24 396.518 109.106 396.248V396.23C109.934 395.87 110.402 395.114 110.402 394.232C110.402 392.702 109.196 391.892 107.36 391.892H103.598V401ZM105.344 395.744V393.098H107C108.098 393.098 108.62 393.53 108.62 394.358C108.62 395.204 108.098 395.744 107.054 395.744H105.344ZM105.344 399.776V396.914H107.198C108.404 396.914 109.07 397.454 109.07 398.354C109.07 399.2 108.476 399.776 107.216 399.776H105.344ZM112.356 396.446C112.356 399.146 114.336 401.216 117.198 401.216C118.458 401.216 119.844 400.73 120.726 399.92L119.988 398.642C119.268 399.29 118.278 399.704 117.306 399.704C115.668 399.704 114.264 398.642 114.174 396.68H120.798C120.834 396.428 120.87 396.176 120.87 395.942C120.87 393.602 119.502 391.676 116.928 391.676C114.336 391.676 112.356 393.548 112.356 396.446ZM114.228 395.42C114.48 393.908 115.542 393.026 116.892 393.026C118.08 393.026 119.052 393.854 119.106 395.42H114.228ZM122.969 401H134.435V403.16H136.037V399.488H134.741V391.892H133.067V399.488H129.701V391.892H128.009V399.488H124.643V391.892H122.969V401ZM137.893 401H139.567L143.509 395.564C143.797 395.132 144.247 394.52 144.301 394.358H144.337C144.337 394.502 144.283 395.132 144.283 395.564V401H145.975V391.892H144.283L140.359 397.328C140.053 397.76 139.621 398.39 139.549 398.552H139.513C139.531 398.462 139.567 397.814 139.567 397.328V391.892H137.893V401Z" fill="#505257"/>
<g clip-path="url(#clip0)">
<path d="M740.191 426.661L739.312 425.748C739.486 425.58 756.772 408.646 763.36 376.999C769.443 347.776 767.388 299.662 723.051 236.408C704.525 209.979 691.892 185.008 685.501 162.19C680.28 143.546 679.174 126.214 682.215 110.676C688.228 79.9546 708.664 66.4676 708.87 66.3351L709.556 67.4005C709.355 67.5306 689.346 80.7643 683.451 110.959C676.688 145.6 690.361 187.563 724.088 235.68C743.783 263.777 756.893 291.291 763.055 317.456C767.991 338.417 768.505 358.564 764.584 377.339C757.899 409.338 740.367 426.492 740.191 426.661Z" fill="#F2F2F2"/>
<path d="M697.648 137.092C724.739 137.092 746.701 115.119 746.701 88.0149C746.701 60.9104 724.739 38.9379 697.648 38.9379C670.557 38.9379 648.596 60.9104 648.596 88.0149C648.596 115.119 670.557 137.092 697.648 137.092Z" fill="#F2F2F2"/>
<path d="M709.214 133.736C695.995 133.736 683.073 129.814 672.082 122.467C661.091 115.119 652.525 104.676 647.466 92.4574C642.408 80.2389 641.084 66.794 643.663 53.8229C646.242 40.8517 652.607 28.937 661.954 19.5853C671.301 10.2336 683.21 3.86506 696.175 1.28491C709.139 -1.29524 722.577 0.028943 734.79 5.08999C747.002 10.151 757.44 18.7217 764.784 29.718C772.128 40.7144 776.048 53.6426 776.048 66.8679C776.028 84.5962 768.98 101.593 756.451 114.128C743.921 126.664 726.933 133.716 709.214 133.736ZM709.214 1.26794C696.246 1.26791 683.569 5.11526 672.786 12.3235C662.004 19.5317 653.6 29.777 648.637 41.7639C643.675 53.7507 642.376 66.9407 644.906 79.6659C647.436 92.3911 653.681 104.08 662.85 113.254C672.02 122.429 683.703 128.676 696.422 131.208C709.141 133.739 722.324 132.44 734.305 127.475C746.286 122.509 756.526 114.101 763.731 103.313C770.935 92.5255 774.781 79.8423 774.781 66.8679C774.761 49.4757 767.847 32.8016 755.555 20.5035C743.263 8.20538 726.597 1.28765 709.214 1.26794Z" fill="#F2F2F2"/>
<path d="M746.699 240.034C769.165 240.034 787.377 221.813 787.377 199.336C787.377 176.859 769.165 158.638 746.699 158.638C724.233 158.638 706.021 176.859 706.021 199.336C706.021 221.813 724.233 240.034 746.699 240.034Z" fill="#F2F2F2"/>
<path d="M725.963 381.28C748.428 381.28 766.64 363.059 766.64 340.582C766.64 318.105 748.428 299.884 725.963 299.884C703.497 299.884 685.285 318.105 685.285 340.582C685.285 363.059 703.497 381.28 725.963 381.28Z" fill="#F2F2F2"/>
<path d="M896.731 72.2706H747.826V169.265H896.731V72.2706Z" fill="#F04B5D"/>
<path d="M1095.41 426.65H957.508C957.508 426.65 954.713 385.631 971.252 385.165C987.792 384.699 985.928 403.344 1006.66 377.707C1027.39 352.07 1052.55 353.468 1055.81 368.617C1059.07 383.767 1049.52 395.886 1066.99 392.157C1084.47 388.428 1109.62 398.217 1095.41 426.65Z" fill="#F2F2F2"/>
<path d="M1024.13 426.66L1023.67 426.641C1024.75 399.634 1030.41 382.282 1034.96 372.481C1039.9 361.84 1044.66 357.531 1044.71 357.489L1045.02 357.837C1044.97 357.879 1040.27 362.145 1035.36 372.714C1030.84 382.474 1025.21 399.755 1024.13 426.66Z" fill="white"/>
<path d="M1074.04 426.715L1073.6 426.585C1077.07 415.139 1083.32 404.733 1091.79 396.298L1092.11 396.643C1083.69 405.019 1077.49 415.352 1074.04 426.715Z" fill="white"/>
<path d="M979.229 426.683L978.767 426.618C980.271 416.493 978.68 406.15 974.203 396.945C972.367 393.084 969.936 389.536 967 386.429L967.322 386.093C970.297 389.237 972.76 392.83 974.621 396.739C979.139 406.027 980.745 416.465 979.229 426.683Z" fill="white"/>
<path d="M593.187 426.517L592.869 425.864C592.772 425.665 583.245 405.74 588.557 386.095C593.869 366.449 612.136 354.047 612.32 353.924L612.924 353.52L613.242 354.174C613.339 354.372 622.866 374.297 617.554 393.942C612.242 413.588 593.974 425.99 593.791 426.113L593.187 426.517ZM612.413 355.411C609.214 357.739 594.419 369.271 589.78 386.425C585.138 403.594 592.108 421.004 593.698 424.626C596.896 422.298 611.692 410.766 616.33 393.612C620.972 376.444 614.002 359.033 612.413 355.411Z" fill="#3F3D56"/>
<path d="M568.623 393.777C573.935 413.421 592.127 425.586 592.127 425.586C592.127 425.586 601.708 405.904 596.397 386.26C591.085 366.617 572.893 354.451 572.893 354.451C572.893 354.451 563.312 374.134 568.623 393.777Z" fill="#F04B5D"/>
<path d="M593.473 426.242L592.748 426.203C592.527 426.191 570.493 424.832 555.917 410.636C541.342 396.44 539.391 374.44 539.374 374.219L539.314 373.495L540.04 373.534C540.261 373.546 562.295 374.905 576.87 389.101C591.446 403.297 593.396 425.298 593.414 425.519L593.473 426.242ZM540.718 374.861C541.196 378.789 544.074 397.332 556.801 409.727C569.529 422.124 588.133 424.503 592.07 424.876C591.592 420.948 588.714 402.406 575.986 390.01C563.249 377.604 544.653 375.232 540.718 374.861Z" fill="#3F3D56"/>
<path d="M609.137 389.556C594.563 403.75 592.783 425.57 592.783 425.57C592.783 425.57 614.632 424.377 629.207 410.182C643.781 395.988 645.561 374.167 645.561 374.167C645.561 374.167 623.712 375.361 609.137 389.556Z" fill="#3F3D56"/>
<path d="M592.477 351.21C597.726 351.21 601.982 346.953 601.982 341.701C601.982 336.449 597.726 332.192 592.477 332.192C587.228 332.192 582.973 336.449 582.973 341.701C582.973 346.953 587.228 351.21 592.477 351.21Z" fill="#F04B5D"/>
<path d="M927.394 227.501C938.752 227.501 947.959 218.289 947.959 206.926C947.959 195.563 938.752 186.352 927.394 186.352C916.037 186.352 906.83 195.563 906.83 206.926C906.83 218.289 916.037 227.501 927.394 227.501Z" fill="#2F2E41"/>
<path d="M924.647 186.738C928.42 186.738 931.478 183.678 931.478 179.903C931.478 176.129 928.42 173.069 924.647 173.069C920.875 173.069 917.816 176.129 917.816 179.903C917.816 183.678 920.875 186.738 924.647 186.738Z" fill="#2F2E41"/>
<path d="M916.962 184.136C915.909 182.81 915.386 181.14 915.494 179.45C915.602 177.759 916.333 176.17 917.546 174.988C917.355 175.111 917.168 175.244 916.986 175.388C916.284 175.947 915.698 176.638 915.263 177.422C914.828 178.207 914.551 179.07 914.449 179.962C914.347 180.853 914.421 181.756 914.668 182.619C914.914 183.482 915.329 184.288 915.886 184.991C916.444 185.693 917.135 186.279 917.92 186.715C918.704 187.15 919.566 187.427 920.457 187.529C921.349 187.632 922.251 187.557 923.114 187.31C923.976 187.064 924.781 186.649 925.484 186.091C925.665 185.947 925.837 185.795 926 185.637C924.575 186.551 922.862 186.904 921.192 186.627C919.522 186.35 918.015 185.462 916.962 184.136Z" fill="#2F2E41"/>
<path d="M893.71 281.33L881.808 291.406C881.808 291.406 863.955 296.902 872.652 302.856C881.35 308.81 886.386 295.528 886.386 295.528L901.035 286.368L893.71 281.33Z" fill="#FFB9B9"/>
<path d="M919.347 237.36L917.974 236.444C917.974 236.444 912.48 236.444 911.565 241.941C910.649 247.437 907.902 258.887 907.902 258.887C907.902 258.887 898.747 264.383 899.662 274.459L890.049 282.704C890.049 282.704 901.493 286.368 899.204 289.574L916.142 274.001L916.6 244.231L919.347 237.36Z" fill="#2F2E41"/>
<path d="M924.84 226.826C931.413 226.826 936.742 221.495 936.742 214.918C936.742 208.341 931.413 203.01 924.84 203.01C918.266 203.01 912.938 208.341 912.938 214.918C912.938 221.495 918.266 226.826 924.84 226.826Z" fill="#FFB9B9"/>
<path d="M920.17 215.695C920.17 215.695 918.952 216.231 917.761 216.257C916.575 216.283 915.017 215.488 915.017 215.488" stroke="#222224"/>
<path d="M931.17 215.695C931.17 215.695 929.952 216.231 928.761 216.257C927.575 216.283 926.017 215.488 926.017 215.488" stroke="#222224"/>
<path d="M921.179 223.162C921.179 223.162 928.504 231.406 923.926 235.986C919.348 240.567 917.975 263.009 917.975 263.009L938.117 232.322C938.117 232.322 932.624 221.33 933.081 217.666L921.179 223.162Z" fill="#FFB9B9"/>
<path d="M919.806 255.223C919.806 255.223 930.793 231.08 936.744 229.411L952.308 233.238C952.308 233.238 939.948 275.834 941.322 279.956C942.695 284.078 950.477 290.032 947.73 326.215C947.73 326.215 982.98 390.794 974.282 401.787C965.584 412.779 933.081 421.023 932.624 417.817C932.166 414.611 917.517 365.146 919.806 350.031C919.806 350.031 919.806 415.527 917.059 416.901C914.312 418.275 870.365 428.351 871.739 420.565C873.112 412.779 895.085 327.131 895.085 327.131L912.023 274.001L912.481 266.215C912.481 266.215 905.157 261.177 910.65 249.727C916.143 238.277 917.975 236.445 917.975 236.445L924.57 235.206C924.57 235.206 918.432 252.017 919.806 255.223Z" fill="#2F2E41"/>
<path d="M944.525 289.574L939.032 301.482C939.032 301.482 924.841 316.597 934.912 317.055C944.983 317.513 945.899 303.314 945.899 303.314L953.223 289.574H944.525Z" fill="#FFB9B9"/>
<path d="M946.356 233.696H952.307C952.307 233.696 954.138 230.948 955.97 242.399C957.801 253.849 956.885 271.253 956.885 271.253L954.138 294.154C954.138 294.154 944.525 290.49 942.236 291.406C939.947 292.322 942.236 290.948 942.236 290.948L946.356 275.375L941.32 252.933L946.356 233.696Z" fill="#2F2E41"/>
<path d="M923.637 197.359C915.862 199.472 910.559 204.864 911.791 209.401C912.342 211.432 914.113 212.943 916.594 213.808L918.77 211.106L918.869 214.384C919.213 214.443 919.563 214.495 919.923 214.534L922.688 208.708L924.264 214.513C925.56 214.374 926.842 214.133 928.099 213.79C935.873 211.677 941.177 206.285 939.945 201.748C938.712 197.211 931.411 195.246 923.637 197.359Z" fill="#2F2E41"/>
<path d="M936.971 214.689C937.729 214.689 938.344 213.664 938.344 212.399C938.344 211.134 937.729 210.109 936.971 210.109C936.213 210.109 935.598 211.134 935.598 212.399C935.598 213.664 936.213 214.689 936.971 214.689Z" fill="#FFB9B9"/>
<path d="M890.395 426.65C896.344 426.65 901.167 424.522 901.167 421.896C901.167 419.27 896.344 417.141 890.395 417.141C884.446 417.141 879.623 419.27 879.623 421.896C879.623 424.522 884.446 426.65 890.395 426.65Z" fill="#2F2E41"/>
<path d="M948.864 424.386C956.285 421.459 961.261 416.446 959.977 413.189C958.694 409.932 951.638 409.664 944.217 412.59C936.795 415.517 931.82 420.53 933.103 423.788C934.386 427.045 941.443 427.313 948.864 424.386Z" fill="#2F2E41"/>
<path d="M876.122 296.86C875.933 296.813 857.141 292.028 849.991 273.02C841.84 251.355 851.423 220.803 878.471 182.214C911.509 135.082 913.303 119.245 908.991 114.259C903.535 107.953 886.417 116.492 886.246 116.579L885.674 115.448C886.414 115.074 903.848 106.378 909.948 113.429C916.651 121.177 906.41 144.564 879.509 182.943C864.851 203.853 855.271 222.623 851.034 238.73C847.598 251.788 847.644 263.168 851.169 272.554C858.074 290.936 876.24 295.583 876.423 295.628L876.122 296.86Z" fill="#3F3D56"/>
<path d="M886.593 154.051H727.551V50.0823H886.593V154.051ZM728.818 152.783H885.326V51.3502H728.818V152.783Z" fill="#3F3D56"/>
<path d="M793.785 115.856C797.471 115.856 800.459 112.867 800.459 109.179C800.459 105.491 797.471 102.501 793.785 102.501C790.099 102.501 787.111 105.491 787.111 109.179C787.111 112.867 790.099 115.856 793.785 115.856Z" fill="#3F3D56"/>
<path d="M850.772 115.856C854.458 115.856 857.446 112.867 857.446 109.179C857.446 105.491 854.458 102.501 850.772 102.501C847.086 102.501 844.098 105.491 844.098 109.179C844.098 112.867 847.086 115.856 850.772 115.856Z" fill="#3F3D56"/>
<path d="M850.772 136.402C850.772 138.387 837.901 144.106 822.023 144.106C806.145 144.106 793.273 138.387 793.273 136.402C793.273 134.416 806.145 136.915 822.023 136.915C837.901 136.915 850.772 134.416 850.772 136.402Z" fill="#3F3D56"/>
<path d="M1110 426.092H533.861V427H1110V426.092Z" fill="#3F3D56"/>
</g>
<defs>
<clipPath id="clip0">
<rect x="413" width="697" height="427" fill="white"/>
</clipPath>
</defs>
</svg>
