<svg width="918" height="457" viewBox="0 0 918 457" fill="none" xmlns="http://www.w3.org/2000/svg">
<rect width="918" height="457" rx="6" fill="#64A15E"/>
<mask id="mask0" mask-type="alpha" maskUnits="userSpaceOnUse" x="0" y="0" width="918" height="457">
<rect width="918" height="457" rx="6" fill="#64A15E"/>
</mask>
<g mask="url(#mask0)">
<path d="M309.662 199.033C322.968 199.033 333.755 209.778 333.755 223.033C333.755 236.289 322.968 247.033 309.662 247.033C296.355 247.033 285.568 236.289 285.568 223.033C285.568 209.778 296.355 199.033 309.662 199.033Z" fill="#69A763"/>
<path d="M469.885 406.635C469.885 393.38 480.671 382.635 493.978 382.635C507.285 382.635 518.071 393.38 518.071 406.635C518.071 419.89 507.285 430.635 493.978 430.635C480.671 430.635 469.885 419.89 469.885 406.635Z" fill="#69A763"/>
<path d="M101.256 406.635C101.256 393.38 112.042 382.635 125.349 382.635C138.656 382.635 149.442 393.38 149.442 406.635C149.442 419.89 138.656 430.635 125.349 430.635C112.042 430.635 101.256 419.89 101.256 406.635Z" fill="#69A763"/>
<path d="M422.945 293.781C413.534 284.409 413.534 269.212 422.945 259.84C432.353 250.468 447.609 250.468 457.017 259.84C466.425 269.212 466.425 284.409 457.017 293.781C447.609 303.153 432.353 303.153 422.945 293.781Z" fill="#69A763"/>
<path d="M196.363 293.777C186.952 303.149 171.699 303.149 162.291 293.777C152.88 284.402 152.88 269.208 162.291 259.833C171.699 250.461 186.952 250.461 196.363 259.833C205.772 269.208 205.772 284.402 196.363 293.777Z" fill="#69A763"/>
<path d="M161.894 344.933C156.75 357.156 142.631 362.914 130.36 357.787C118.087 352.663 112.31 338.602 117.454 326.376C122.598 314.153 136.716 308.395 148.987 313.519C161.26 318.643 167.038 332.707 161.894 344.933Z" fill="#69A763"/>
<path d="M501.864 486.888C496.72 499.114 482.602 504.869 470.331 499.745C458.058 494.621 452.28 480.557 457.424 468.334C462.568 456.108 476.687 450.353 488.957 455.477C501.231 460.601 507.008 474.665 501.864 486.888Z" fill="#69A763"/>
<path d="M390.232 215.175C402.502 220.299 408.28 234.362 403.136 246.588C397.992 258.811 383.873 264.566 371.603 259.442C359.329 254.318 353.552 240.254 358.696 228.031C363.84 215.806 377.958 210.051 390.232 215.175Z" fill="#69A763"/>
<path d="M230.714 214.501C243.028 209.48 257.098 215.355 262.138 227.622C267.176 239.89 261.281 253.903 248.964 258.924C236.65 263.945 222.582 258.07 217.542 245.803C212.501 233.536 218.4 219.521 230.714 214.501Z" fill="#69A763"/>
<path d="M457.936 346.179C452.896 333.913 458.794 319.899 471.11 314.879C483.424 309.858 497.492 315.733 502.532 327.999C507.573 340.266 501.675 354.282 489.361 359.303C477.047 364.324 462.977 358.448 457.936 346.179Z" fill="#69A763"/>
<path d="M116.784 485.27C111.744 473.002 117.642 458.988 129.956 453.967C142.272 448.946 156.34 454.822 161.381 467.088C166.421 479.354 160.523 493.37 148.209 498.391C135.895 503.412 121.824 497.537 116.784 485.27Z" fill="#69A763"/>
<path d="M84.9691 364.321C83.1934 373.429 74.3392 379.378 65.1959 377.607C56.0525 375.838 50.0821 367.018 51.8602 357.91C53.6359 348.802 62.4902 342.855 71.6336 344.624C80.7769 346.395 86.7472 355.215 84.9691 364.321Z" fill="#69A763"/>
<path d="M567.44 457.738C565.664 466.846 556.81 472.795 547.666 471.024C538.523 469.253 532.553 460.435 534.331 451.327C536.107 442.219 544.961 436.272 554.104 438.041C563.247 439.812 569.218 448.63 567.44 457.738Z" fill="#69A763"/>
<path d="M359.766 151.033C368.909 152.803 374.879 161.622 373.104 170.73C371.326 179.838 362.474 185.786 353.331 184.016C344.188 182.245 338.215 173.427 339.993 164.319C341.771 155.211 350.623 149.263 359.766 151.033Z" fill="#69A763"/>
<path d="M527.366 261.539C532.575 269.231 530.536 279.671 522.815 284.859C515.093 290.048 504.61 288.018 499.403 280.326C494.194 272.634 496.23 262.191 503.955 257.005C511.676 251.816 522.157 253.844 527.366 261.539Z" fill="#69A763"/>
<path d="M162.801 190.945C170.523 185.757 181.006 187.786 186.215 195.478C191.422 203.171 189.386 213.612 181.664 218.801C173.942 223.989 163.459 221.96 158.25 214.267C153.041 206.575 155.08 196.133 162.801 190.945Z" fill="#69A763"/>
<path d="M85.4193 453.599C87.2889 462.69 81.4079 471.567 72.2839 473.43C63.1599 475.292 54.2455 469.434 52.3759 460.345C50.5063 451.254 56.3874 442.376 65.5138 440.514C74.6378 438.651 83.5497 444.51 85.4193 453.599Z" fill="#69A763"/>
<path d="M566.928 355.319C568.797 364.408 562.916 373.288 553.792 375.151C544.665 377.013 535.753 371.155 533.884 362.063C532.014 352.975 537.895 344.097 547.019 342.235C556.143 340.372 565.058 346.231 566.928 355.319Z" fill="#69A763"/>
<path d="M256.939 151.556C266.063 149.694 274.978 155.552 276.847 164.642C278.717 173.731 272.836 182.61 263.709 184.472C254.585 186.335 245.673 180.476 243.804 171.386C241.934 162.297 247.815 153.419 256.939 151.556Z" fill="#69A763"/>
<path d="M454.3 189.485C462.075 194.595 464.219 205.015 459.089 212.76C453.958 220.504 443.496 222.639 435.724 217.529C427.949 212.419 425.805 201.998 430.934 194.254C436.066 186.509 446.527 184.374 454.3 189.485Z" fill="#69A763"/>
<path d="M90.4584 263.752C95.5878 256.007 106.049 253.871 113.824 258.983C121.599 264.093 123.741 274.514 118.611 282.258C113.482 290.001 103.021 292.137 95.2457 287.027C87.4708 281.918 85.3289 271.497 90.4584 263.752Z" fill="#69A763"/>
<path d="M32.5932 407.832C32.5932 414.458 27.1987 419.832 20.5466 419.832C13.8921 419.832 8.5 414.458 8.5 407.832C8.5 401.203 13.8921 395.832 20.5466 395.832C27.1987 395.832 32.5932 401.203 32.5932 407.832Z" fill="#69A763"/>
<path d="M610.828 407.832C610.828 414.458 605.433 419.832 598.781 419.832C592.126 419.832 586.734 414.458 586.734 407.832C586.734 401.203 592.126 395.832 598.781 395.832C605.433 395.832 610.828 401.203 610.828 407.832Z" fill="#69A763"/>
<path d="M309.664 107.831C316.316 107.831 321.71 113.204 321.71 119.831C321.71 126.459 316.316 131.831 309.664 131.831C303.009 131.831 297.617 126.459 297.617 119.831C297.617 113.204 303.009 107.831 309.664 107.831Z" fill="#69A763"/>
<path d="M522.603 195.697C527.306 200.383 527.306 207.981 522.603 212.667C517.897 217.354 510.269 217.354 505.566 212.667C500.861 207.981 500.861 200.383 505.566 195.697C510.269 191.011 517.897 191.011 522.603 195.697Z" fill="#69A763"/>
<path d="M96.705 195.7C101.41 191.014 109.038 191.014 113.744 195.7C118.446 200.386 118.446 207.985 113.744 212.671C109.038 217.357 101.41 217.357 96.705 212.671C92.002 207.985 92.002 200.386 96.705 195.7Z" fill="#69A763"/>
<path d="M587.713 292.603C590.269 298.723 587.361 305.748 581.217 308.292C575.076 310.838 568.024 307.941 565.467 301.821C562.913 295.701 565.822 288.679 571.963 286.132C578.107 283.588 585.159 286.485 587.713 292.603Z" fill="#69A763"/>
<path d="M193.977 130.841C200.118 128.296 207.17 131.193 209.724 137.312C212.28 143.431 209.372 150.455 203.229 153C197.087 155.546 190.035 152.649 187.479 146.53C184.925 140.411 187.833 133.387 193.977 130.841Z" fill="#69A763"/>
<path d="M424.481 130.494C430.632 133.02 433.562 140.036 431.025 146.163C428.488 152.289 421.445 155.208 415.294 152.681C409.146 150.154 406.216 143.138 408.753 137.012C411.288 130.885 418.33 127.967 424.481 130.494Z" fill="#69A763"/>
<path d="M31.2434 293.451C33.7804 287.323 40.8229 284.405 46.974 286.932C53.125 289.459 56.0548 296.475 53.5178 302.602C50.9807 308.729 43.9382 311.647 37.7872 309.12C31.6361 306.593 28.7064 299.578 31.2434 293.451Z" fill="#69A763"/>
<path d="M657.314 340.513C658.33 345.719 654.916 350.759 649.693 351.769C644.467 352.782 639.41 349.381 638.393 344.178C637.379 338.972 640.791 333.935 646.014 332.922C651.24 331.912 656.299 335.31 657.314 340.513Z" fill="#69A763"/>
<path d="M242.085 61.5139C247.311 60.5023 252.368 63.9011 253.384 69.1058C254.399 74.3102 250.987 79.3494 245.764 80.361C240.538 81.3727 235.479 77.9738 234.464 72.7691C233.448 67.5647 236.861 62.5255 242.085 61.5139Z" fill="#69A763"/>
<path d="M507.705 115.347C512.118 118.312 513.282 124.278 510.307 128.674C507.329 133.069 501.339 134.229 496.928 131.264C492.514 128.299 491.35 122.333 494.326 117.937C497.304 113.542 503.293 112.382 507.705 115.347Z" fill="#69A763"/>
<path d="M16.0387 210.551C19.0166 206.156 25.0063 204.996 29.4177 207.961C33.8316 210.926 34.9952 216.892 32.0197 221.288C29.0418 225.683 23.0523 226.843 18.6408 223.878C14.2269 220.913 13.0632 214.947 16.0387 210.551Z" fill="#69A763"/>
<path d="M604.595 212.514C607.542 216.929 606.337 222.888 601.906 225.823C597.473 228.758 591.491 227.559 588.544 223.143C585.598 218.728 586.802 212.769 591.235 209.834C595.666 206.899 601.648 208.099 604.595 212.514Z" fill="#69A763"/>
<path d="M113.587 114.032C118.02 111.097 124 112.297 126.947 116.712C129.893 121.127 128.689 127.086 124.258 130.021C119.825 132.957 113.842 131.757 110.896 127.341C107.949 122.926 109.154 116.967 113.587 114.032Z" fill="#69A763"/>
<path d="M379.559 61.9724C384.778 63.0191 388.156 68.0809 387.105 73.2786C386.055 78.476 380.974 81.8413 375.755 80.7947C370.536 79.7483 367.159 74.6862 368.209 69.4888C369.259 64.2911 374.341 60.926 379.559 61.9724Z" fill="#69A763"/>
</g>
<path d="M101.432 84.892C104.132 84.892 106.508 84.064 107.768 83.524H107.84C107.84 83.524 107.768 84.172 107.768 84.676V94H114.212V68.26H107.768V77.98C106.868 78.52 105.176 79.168 103.232 79.168C100.856 79.168 99.812 77.8 99.812 75.352V68.26H93.368V76.828C93.368 81.796 95.996 84.892 101.432 84.892ZM122.871 94H129.099V80.68H134.751V75.46H117.255V80.68H122.871V94ZM136.11 84.784C136.11 90.58 140.79 94.432 146.622 94.432C152.454 94.432 157.134 90.58 157.134 84.784C157.134 78.952 152.454 75.028 146.586 75.028C140.79 75.028 136.11 78.952 136.11 84.784ZM142.41 84.784C142.41 81.976 144.354 80.212 146.622 80.212C148.89 80.212 150.834 81.976 150.834 84.784C150.834 87.556 148.89 89.248 146.622 89.248C144.354 89.248 142.41 87.556 142.41 84.784ZM94.088 136H100.316V122.68H105.824V136H112.052V117.46H94.088V136ZM116.236 143.2H122.464V136.252C122.464 135.316 122.392 134.668 122.392 134.668H122.464C123.796 135.82 125.452 136.432 127.18 136.432C132.112 136.432 135.82 132.616 135.82 126.748C135.82 120.988 132.508 117.028 127.468 117.028C125.236 117.028 123.112 117.892 121.852 119.584H121.78C121.78 119.584 121.852 119.008 121.852 118.396V117.46H116.236V143.2ZM122.284 126.856C122.284 123.652 124.048 122.284 125.92 122.284C128.08 122.284 129.556 124.084 129.556 126.856C129.556 129.7 127.864 131.284 125.92 131.284C123.472 131.284 122.284 129.088 122.284 126.856ZM137.974 126.712C137.974 131.644 141.538 136.432 148.162 136.432C151.006 136.432 154.066 135.46 156.082 133.732L153.778 129.376C152.266 130.384 150.502 131.248 148.666 131.248C146.686 131.248 144.814 130.204 144.346 127.936H156.046C156.118 127.288 156.19 126.64 156.19 125.992C156.19 120.844 153.094 117.028 147.622 117.028C141.646 117.028 137.974 121.276 137.974 126.712ZM144.49 124.372C144.814 122.896 145.678 121.6 147.478 121.6C149.062 121.6 150.034 122.86 150.034 124.372H144.49ZM166.143 131.068C167.439 128.584 167.799 125.884 167.799 123.076V122.392H171.003V131.068H166.143ZM157.719 131.068V140.32H163.479V136H174.351V140.32H179.895V131.068H177.231V117.46H161.931V121.924C161.931 125.668 161.247 128.98 160.023 131.068H157.719ZM181.384 136.18C188.584 136.18 190.744 130.996 190.744 123.436V122.392H193.84V136H200.068V117.46H184.876V123.4C184.876 129.772 183.04 130.528 181.384 130.744V136.18ZM202.901 130.78C202.901 133.984 205.385 136.432 208.949 136.432C211.073 136.432 213.233 135.46 214.457 133.732H214.529C214.529 133.732 214.457 134.272 214.457 134.884V136H220.145V124.588C220.145 119.872 216.977 117.028 211.865 117.028C208.841 117.028 205.601 118.216 204.017 119.44L206.177 123.832C207.653 122.86 209.489 122.068 211.289 122.068C212.657 122.068 213.917 122.572 213.917 124.12V124.444H213.377C208.805 124.444 202.901 125.812 202.901 130.78ZM209.057 130.204C209.057 128.512 211.505 128.008 213.413 128.008H213.989V128.512C213.989 130.024 212.621 131.788 210.821 131.788C209.669 131.788 209.057 131.068 209.057 130.204ZM224.096 136H230.324V122.68H237.164V117.46H224.096V136ZM238.197 130.78C238.197 133.984 240.681 136.432 244.245 136.432C246.369 136.432 248.529 135.46 249.753 133.732H249.825C249.825 133.732 249.753 134.272 249.753 134.884V136H255.441V124.588C255.441 119.872 252.273 117.028 247.161 117.028C244.137 117.028 240.897 118.216 239.313 119.44L241.473 123.832C242.949 122.86 244.785 122.068 246.585 122.068C247.953 122.068 249.213 122.572 249.213 124.12V124.444H248.673C244.101 124.444 238.197 125.812 238.197 130.78ZM244.353 130.204C244.353 128.512 246.801 128.008 248.709 128.008H249.285V128.512C249.285 130.024 247.917 131.788 246.117 131.788C244.965 131.788 244.353 131.068 244.353 130.204ZM258.349 126.712C258.349 131.644 261.913 136.432 268.537 136.432C271.381 136.432 274.441 135.46 276.457 133.732L274.153 129.376C272.641 130.384 270.877 131.248 269.041 131.248C267.061 131.248 265.189 130.204 264.721 127.936H276.421C276.493 127.288 276.565 126.64 276.565 125.992C276.565 120.844 273.469 117.028 267.997 117.028C262.021 117.028 258.349 121.276 258.349 126.712ZM264.865 124.372C265.189 122.896 266.053 121.6 267.853 121.6C269.437 121.6 270.409 122.86 270.409 124.372H264.865ZM283.886 136H290.114V122.68H295.766V117.46H278.27V122.68H283.886V136ZM94.7 178H101V170.044H105.392C110.396 170.044 113.78 166.3 113.78 161.116C113.78 155.932 110.396 152.26 105.392 152.26H94.7V178ZM101 164.644V157.66H104.204C106.292 157.66 107.372 159.064 107.372 161.116C107.372 163.168 106.292 164.644 104.096 164.644H101ZM117.341 178H123.641V169.324H126.593L131.165 178H138.185L133.181 169C132.569 167.92 132.209 167.452 132.209 167.452V167.38C134.765 166.084 136.061 163.096 136.061 160.36C136.061 156.616 134.225 153.988 131.309 152.872C130.193 152.44 128.933 152.26 126.305 152.26H117.341V178ZM123.641 163.924V157.66H125.765C126.809 157.66 127.565 157.768 128.141 158.02C129.329 158.488 129.653 159.46 129.653 160.756C129.653 162.808 128.393 163.924 126.377 163.924H123.641ZM139.351 164.968C139.351 172.528 144.823 178.432 152.815 178.432C160.807 178.432 166.279 172.528 166.279 164.968C166.279 157.588 160.807 151.828 152.815 151.828C144.823 151.828 139.351 157.588 139.351 164.968ZM145.867 164.968C145.867 160.756 148.747 157.588 152.815 157.588C156.883 157.588 159.763 160.756 159.763 164.968C159.763 169.36 156.883 172.672 152.815 172.672C148.747 172.672 145.867 169.36 145.867 164.968ZM169.566 178H187.386V172.6H176.262C176.586 169.288 186.99 167.74 186.99 159.712C186.99 154.24 182.418 151.828 178.206 151.828C173.562 151.828 170.646 154.456 169.134 157.372L173.814 160.504C174.57 159.064 175.974 157.768 177.63 157.768C178.962 157.768 180.402 158.524 180.402 160.324C180.402 164.032 169.278 165.724 169.278 175.228C169.278 176.092 169.386 176.992 169.566 178Z" fill="white"/>
<path d="M510.674 244H512.42L518.09 235.756C518.54 235.054 519.152 233.902 519.152 233.902H519.188C519.188 233.902 519.08 235.036 519.08 235.756V244H520.844V231.292H519.098L513.464 239.518C513.014 240.202 512.384 241.39 512.384 241.39H512.348C512.348 241.39 512.456 240.256 512.456 239.536V231.292H510.674V244ZM523.115 239.446C523.115 242.182 525.113 244.216 527.993 244.216C529.415 244.216 530.801 243.64 531.629 242.758L530.927 241.48C530.225 242.218 529.127 242.704 528.119 242.704C526.229 242.704 524.897 241.282 524.897 239.428C524.897 237.574 526.229 236.188 528.065 236.188C529.019 236.188 529.973 236.62 530.585 237.232L531.413 236.008C530.549 235.09 529.199 234.676 527.993 234.676C525.131 234.676 523.115 236.746 523.115 239.446ZM532.713 239.446C532.713 242.182 534.711 244.216 537.591 244.216C539.013 244.216 540.399 243.64 541.227 242.758L540.525 241.48C539.823 242.218 538.725 242.704 537.717 242.704C535.827 242.704 534.495 241.282 534.495 239.428C534.495 237.574 535.827 236.188 537.663 236.188C538.617 236.188 539.571 236.62 540.183 237.232L541.011 236.008C540.147 235.09 538.797 234.676 537.591 234.676C534.729 234.676 532.713 236.746 532.713 239.446ZM542.126 244.09C544.808 243.946 545.852 241.822 545.852 237.7V236.332H548.534V244H550.28V234.892H544.178V237.7C544.178 240.994 543.458 242.326 542.126 242.524V244.09ZM552.383 239.446C552.383 242.146 554.363 244.216 557.225 244.216C558.485 244.216 559.871 243.73 560.753 242.92L560.015 241.642C559.295 242.29 558.305 242.704 557.333 242.704C555.695 242.704 554.291 241.642 554.201 239.68H560.825C560.861 239.428 560.897 239.176 560.897 238.942C560.897 236.602 559.529 234.676 556.955 234.676C554.363 234.676 552.383 236.548 552.383 239.446ZM554.255 238.42C554.507 236.908 555.569 236.026 556.919 236.026C558.107 236.026 559.079 236.854 559.133 238.42H554.255ZM564.778 242.56C565.93 240.76 566.074 238.168 566.074 236.8V236.314H568.81V242.56H564.778ZM561.862 242.56V246.16H563.5V244H570.25V246.16H571.852V242.56H570.556V234.892H564.4V236.566C564.4 237.97 564.256 240.814 562.978 242.56H561.862ZM572.988 245.89L572.376 247.222C572.376 247.222 573.114 247.78 574.122 247.78C575.4 247.78 576.534 247.06 577.074 245.638L581.358 234.892H579.468L577.254 240.868C577.092 241.336 576.948 241.948 576.948 241.948H576.912C576.912 241.948 576.75 241.3 576.57 240.85L574.284 234.892H572.322L576.138 243.892L575.688 244.936C575.346 245.764 574.752 246.286 574.032 246.286C573.492 246.286 572.988 245.89 572.988 245.89ZM582.16 239.446C582.16 242.146 584.14 244.216 587.002 244.216C588.262 244.216 589.648 243.73 590.53 242.92L589.792 241.642C589.072 242.29 588.082 242.704 587.11 242.704C585.472 242.704 584.068 241.642 583.978 239.68H590.602C590.638 239.428 590.674 239.176 590.674 238.942C590.674 236.602 589.306 234.676 586.732 234.676C584.14 234.676 582.16 236.548 582.16 239.446ZM584.032 238.42C584.284 236.908 585.346 236.026 586.696 236.026C587.884 236.026 588.856 236.854 588.91 238.42H584.032ZM592.396 244H594.088L594.484 238.582C594.52 238.042 594.466 237.016 594.466 237.016H594.502C594.502 237.016 594.79 237.7 595.078 238.366L597.238 242.902H598.732L600.892 238.348C601.234 237.646 601.468 237.016 601.468 237.016H601.504C601.504 237.016 601.468 238.042 601.486 238.582L601.882 244H603.574L602.782 234.892H600.874L598.498 240.04C598.264 240.598 597.994 241.264 597.994 241.264H597.958C597.958 241.264 597.706 240.58 597.454 240.04L595.132 234.892H593.188L592.396 244ZM612.618 244H614.346V236.386H617.532V234.892H609.45V236.386H612.618V244ZM618.403 241.516C618.403 243.226 619.861 244.216 621.445 244.216C622.795 244.216 623.911 243.406 624.433 242.362H624.469C624.469 242.362 624.415 242.668 624.415 243.082V244H626.053V238.24C626.053 235.936 624.739 234.676 622.453 234.676C621.175 234.676 619.789 235.144 619.051 235.756L619.753 237.034C620.491 236.512 621.409 236.152 622.309 236.152C623.443 236.152 624.307 236.656 624.307 238.15V238.33H623.839C621.949 238.33 618.403 238.654 618.403 241.516ZM620.149 241.372C620.149 239.698 622.561 239.59 623.857 239.59H624.307V239.932C624.307 241.282 623.389 242.83 621.859 242.83C620.725 242.83 620.149 242.092 620.149 241.372ZM628.237 238.762C628.237 241.912 629.623 244.216 632.701 244.216C635.275 244.216 637.003 242.416 637.003 239.896C637.003 237.322 635.419 235.702 633.133 235.702C631.927 235.702 630.721 236.098 629.911 237.322H629.875C630.001 235.576 630.865 234.514 632.683 233.686L636.175 232.228L635.599 230.788L632.341 232.192C629.173 233.524 628.237 235.504 628.237 238.762ZM630.055 239.896C630.055 238.294 631.153 237.088 632.701 237.088C634.069 237.088 635.239 238.15 635.239 239.932C635.239 241.696 634.069 242.74 632.629 242.74C631.225 242.74 630.055 241.696 630.055 239.896ZM638.014 244.09C640.696 243.946 641.74 241.822 641.74 237.7V236.332H644.422V244H646.168V234.892H640.066V237.7C640.066 240.994 639.346 242.326 638.014 242.524V244.09ZM648.866 244H650.54L654.482 238.564C654.77 238.132 655.22 237.52 655.274 237.358H655.31C655.31 237.502 655.256 238.132 655.256 238.564V244H656.948V234.892H655.256L651.332 240.328C651.026 240.76 650.594 241.39 650.522 241.552H650.486C650.504 241.462 650.54 240.814 650.54 240.328V234.892H648.866V244ZM659.623 244H667.147V246.16H668.749V242.488H667.471V234.892H665.707V242.488H661.369V234.892H659.623V244ZM669.914 245.89L669.302 247.222C669.302 247.222 670.04 247.78 671.048 247.78C672.326 247.78 673.46 247.06 674 245.638L678.284 234.892H676.394L674.18 240.868C674.018 241.336 673.874 241.948 673.874 241.948H673.838C673.838 241.948 673.676 241.3 673.496 240.85L671.21 234.892H669.248L673.064 243.892L672.614 244.936C672.272 245.764 671.678 246.286 670.958 246.286C670.418 246.286 669.914 245.89 669.914 245.89ZM684.334 244H686.116L686.728 235.99C686.8 235.216 686.764 234.082 686.764 234.082H686.8C686.8 234.082 687.196 235.306 687.484 235.99L690.004 241.714H691.588L694.126 235.99C694.414 235.288 694.81 234.118 694.81 234.118H694.846C694.846 234.118 694.81 235.216 694.882 235.99L695.494 244H697.258L696.232 231.292H694.378L691.444 238.168C691.156 238.87 690.814 239.878 690.814 239.878H690.778C690.778 239.878 690.454 238.87 690.166 238.168L687.232 231.292H685.378L684.334 244ZM699.072 239.446C699.072 242.146 701.052 244.216 703.914 244.216C705.174 244.216 706.56 243.73 707.442 242.92L706.704 241.642C705.984 242.29 704.994 242.704 704.022 242.704C702.384 242.704 700.98 241.642 700.89 239.68H707.514C707.55 239.428 707.586 239.176 707.586 238.942C707.586 236.602 706.218 234.676 703.644 234.676C701.052 234.676 699.072 236.548 699.072 239.446ZM700.944 238.42C701.196 236.908 702.258 236.026 703.608 236.026C704.796 236.026 705.768 236.854 705.822 238.42H700.944ZM709.686 244H711.432V240.094H716.04V244H717.786V234.892H716.04V238.6H711.432V234.892H709.686V244ZM722.261 242.56C723.413 240.76 723.557 238.168 723.557 236.8V236.314H726.293V242.56H722.261ZM719.345 242.56V246.16H720.983V244H727.733V246.16H729.335V242.56H728.039V234.892H721.883V236.566C721.883 237.97 721.739 240.814 720.461 242.56H719.345ZM730.467 239.446C730.467 242.146 732.447 244.216 735.309 244.216C736.569 244.216 737.955 243.73 738.837 242.92L738.099 241.642C737.379 242.29 736.389 242.704 735.417 242.704C733.779 242.704 732.375 241.642 732.285 239.68H738.909C738.945 239.428 738.981 239.176 738.981 238.942C738.981 236.602 737.613 234.676 735.039 234.676C732.447 234.676 730.467 236.548 730.467 239.446ZM732.339 238.42C732.591 236.908 733.653 236.026 735.003 236.026C736.191 236.026 737.163 236.854 737.217 238.42H732.339ZM740.09 244.09C742.772 243.946 743.816 241.822 743.816 237.7V236.332H746.498V244H748.244V234.892H742.142V237.7C742.142 240.994 741.422 242.326 740.09 242.524V244.09ZM750.348 239.446C750.348 242.146 752.328 244.216 755.19 244.216C756.45 244.216 757.836 243.73 758.718 242.92L757.98 241.642C757.26 242.29 756.27 242.704 755.298 242.704C753.66 242.704 752.256 241.642 752.166 239.68H758.79C758.826 239.428 758.862 239.176 758.862 238.942C758.862 236.602 757.494 234.676 754.92 234.676C752.328 234.676 750.348 236.548 750.348 239.446ZM752.22 238.42C752.472 236.908 753.534 236.026 754.884 236.026C756.072 236.026 757.044 236.854 757.098 238.42H752.22ZM760.367 239.446C760.367 242.146 762.347 244.216 765.209 244.216C766.469 244.216 767.855 243.73 768.737 242.92L767.999 241.642C767.279 242.29 766.289 242.704 765.317 242.704C763.679 242.704 762.275 241.642 762.185 239.68H768.809C768.845 239.428 768.881 239.176 768.881 238.942C768.881 236.602 767.513 234.676 764.939 234.676C762.347 234.676 760.367 236.548 760.367 239.446ZM762.239 238.42C762.491 236.908 763.553 236.026 764.903 236.026C766.091 236.026 767.063 236.854 767.117 238.42H762.239ZM770.981 244H774.869C776.849 244 778.217 243.1 778.217 241.408C778.217 240.4 777.623 239.518 776.489 239.248V239.23C777.317 238.87 777.785 238.114 777.785 237.232C777.785 235.702 776.579 234.892 774.743 234.892H770.981V244ZM772.727 238.744V236.098H774.383C775.481 236.098 776.003 236.53 776.003 237.358C776.003 238.204 775.481 238.744 774.437 238.744H772.727ZM772.727 242.776V239.914H774.581C775.787 239.914 776.453 240.454 776.453 241.354C776.453 242.2 775.859 242.776 774.599 242.776H772.727ZM779.576 241.516C779.576 243.226 781.034 244.216 782.618 244.216C783.968 244.216 785.084 243.406 785.606 242.362H785.642C785.642 242.362 785.588 242.668 785.588 243.082V244H787.226V238.24C787.226 235.936 785.912 234.676 783.626 234.676C782.348 234.676 780.962 235.144 780.224 235.756L780.926 237.034C781.664 236.512 782.582 236.152 783.482 236.152C784.616 236.152 785.48 236.656 785.48 238.15V238.33H785.012C783.122 238.33 779.576 238.654 779.576 241.516ZM781.322 241.372C781.322 239.698 783.734 239.59 785.03 239.59H785.48V239.932C785.48 241.282 784.562 242.83 783.032 242.83C781.898 242.83 781.322 242.092 781.322 241.372Z" fill="white"/>
<path d="M478.396 243.168C481.112 243.168 481.994 240.872 481.994 238.016C481.994 235.16 481.112 232.892 478.396 232.892C475.68 232.892 474.784 235.16 474.784 238.016C474.784 240.872 475.68 243.168 478.396 243.168ZM478.396 241.516C477.038 241.516 476.646 239.976 476.646 238.016C476.646 236.084 477.038 234.558 478.396 234.558C479.754 234.558 480.146 236.084 480.146 238.016C480.146 239.976 479.754 241.516 478.396 241.516ZM483.211 240.438H487.859V243H489.637V240.438H490.925V238.94H489.637V233.06H487.509L483.211 239.332V240.438ZM485.115 238.94V238.912L487.411 235.734C487.677 235.356 487.901 234.824 487.901 234.824H487.929C487.929 234.824 487.859 235.37 487.859 235.86V238.94H485.115Z" fill="white"/>
<path d="M510.674 287H512.456V275.84H518.9V287H520.682V274.292H510.674V287ZM522.94 282.428C522.94 285.2 525.136 287.216 527.854 287.216C530.554 287.216 532.75 285.2 532.75 282.428C532.75 279.674 530.554 277.676 527.836 277.676C525.136 277.676 522.94 279.674 522.94 282.428ZM524.722 282.428C524.722 280.538 526.126 279.188 527.854 279.188C529.564 279.188 530.986 280.538 530.986 282.428C530.986 284.336 529.564 285.704 527.854 285.704C526.126 285.704 524.722 284.336 524.722 282.428ZM536.407 285.56C537.559 283.76 537.703 281.168 537.703 279.8V279.314H540.439V285.56H536.407ZM533.491 285.56V289.16H535.129V287H541.879V289.16H543.481V285.56H542.185V277.892H536.029V279.566C536.029 280.97 535.885 283.814 534.607 285.56H533.491ZM545.313 290.6H547.059V286.46C547.059 285.992 546.987 285.668 546.987 285.668H547.023C547.653 286.64 548.697 287.216 549.849 287.216C552.243 287.216 553.971 285.344 553.971 282.446C553.971 279.62 552.441 277.676 549.975 277.676C548.643 277.676 547.491 278.288 546.915 279.386H546.879C546.879 279.386 546.933 279.08 546.933 278.702V277.892H545.313V290.6ZM547.005 282.482C547.005 280.178 548.265 279.206 549.633 279.206C551.145 279.206 552.207 280.484 552.207 282.464C552.207 284.534 551.019 285.704 549.579 285.704C547.905 285.704 547.005 284.102 547.005 282.482ZM555.41 288.89L554.798 290.222C554.798 290.222 555.536 290.78 556.544 290.78C557.822 290.78 558.956 290.06 559.496 288.638L563.78 277.892H561.89L559.676 283.868C559.514 284.336 559.37 284.948 559.37 284.948H559.334C559.334 284.948 559.172 284.3 558.992 283.85L556.706 277.892H554.744L558.56 286.892L558.11 287.936C557.768 288.764 557.174 289.286 556.454 289.286C555.914 289.286 555.41 288.89 555.41 288.89ZM564.449 287H566.393L568.787 283.112H570.083V287H571.739V283.112H573.053L575.429 287H577.391L574.457 282.32V282.284L577.121 277.892H575.285L573.035 281.618H571.739V277.892H570.083V281.618H568.787L566.555 277.892H564.701L567.383 282.284V282.32L564.449 287ZM579.028 287H580.702L584.644 281.564C584.932 281.132 585.382 280.52 585.436 280.358H585.472C585.472 280.502 585.418 281.132 585.418 281.564V287H587.11V277.892H585.418L581.494 283.328C581.188 283.76 580.756 284.39 580.684 284.552H580.648C580.666 284.462 580.702 283.814 580.702 283.328V277.892H579.028V287ZM589.408 287H591.1L591.496 281.582C591.532 281.042 591.478 280.016 591.478 280.016H591.514C591.514 280.016 591.802 280.7 592.09 281.366L594.25 285.902H595.744L597.904 281.348C598.246 280.646 598.48 280.016 598.48 280.016H598.516C598.516 280.016 598.48 281.042 598.498 281.582L598.894 287H600.586L599.794 277.892H597.886L595.51 283.04C595.276 283.598 595.006 284.264 595.006 284.264H594.97C594.97 284.264 594.718 283.58 594.466 283.04L592.144 277.892H590.2L589.408 287ZM606.84 282.446C606.84 285.182 608.838 287.216 611.718 287.216C613.14 287.216 614.526 286.64 615.354 285.758L614.652 284.48C613.95 285.218 612.852 285.704 611.844 285.704C609.954 285.704 608.622 284.282 608.622 282.428C608.622 280.574 609.954 279.188 611.79 279.188C612.744 279.188 613.698 279.62 614.31 280.232L615.138 279.008C614.274 278.09 612.924 277.676 611.718 277.676C608.856 277.676 606.84 279.746 606.84 282.446ZM623.939 287H625.667V279.386H628.853V277.892H620.771V279.386H623.939V287ZM629.674 282.446C629.674 285.146 631.654 287.216 634.516 287.216C635.776 287.216 637.162 286.73 638.044 285.92L637.306 284.642C636.586 285.29 635.596 285.704 634.624 285.704C632.986 285.704 631.582 284.642 631.492 282.68H638.116C638.152 282.428 638.188 282.176 638.188 281.942C638.188 279.602 636.82 277.676 634.246 277.676C631.654 277.676 629.674 279.548 629.674 282.446ZM631.546 281.42C631.798 279.908 632.86 279.026 634.21 279.026C635.398 279.026 636.37 279.854 636.424 281.42H631.546ZM639.694 282.428C639.694 285.2 641.89 287.216 644.608 287.216C647.308 287.216 649.504 285.2 649.504 282.428C649.504 279.674 647.308 277.676 644.59 277.676C641.89 277.676 639.694 279.674 639.694 282.428ZM641.476 282.428C641.476 280.538 642.88 279.188 644.608 279.188C646.318 279.188 647.74 280.538 647.74 282.428C647.74 284.336 646.318 285.704 644.608 285.704C642.88 285.704 641.476 284.336 641.476 282.428ZM651.608 290.6H653.354V286.46C653.354 285.992 653.282 285.668 653.282 285.668H653.318C653.948 286.64 654.992 287.216 656.144 287.216C658.538 287.216 660.266 285.344 660.266 282.446C660.266 279.62 658.736 277.676 656.27 277.676C654.938 277.676 653.786 278.288 653.21 279.386H653.174C653.174 279.386 653.228 279.08 653.228 278.702V277.892H651.608V290.6ZM653.3 282.482C653.3 280.178 654.56 279.206 655.928 279.206C657.44 279.206 658.502 280.484 658.502 282.464C658.502 284.534 657.314 285.704 655.874 285.704C654.2 285.704 653.3 284.102 653.3 282.482ZM661.824 282.446C661.824 285.146 663.804 287.216 666.666 287.216C667.926 287.216 669.312 286.73 670.194 285.92L669.456 284.642C668.736 285.29 667.746 285.704 666.774 285.704C665.136 285.704 663.732 284.642 663.642 282.68H670.266C670.302 282.428 670.338 282.176 670.338 281.942C670.338 279.602 668.97 277.676 666.396 277.676C663.804 277.676 661.824 279.548 661.824 282.446ZM663.696 281.42C663.948 279.908 665.01 279.026 666.36 279.026C667.548 279.026 668.52 279.854 668.574 281.42H663.696ZM672.06 287H673.752L674.148 281.582C674.184 281.042 674.13 280.016 674.13 280.016H674.166C674.166 280.016 674.454 280.7 674.742 281.366L676.902 285.902H678.396L680.556 281.348C680.898 280.646 681.132 280.016 681.132 280.016H681.168C681.168 280.016 681.132 281.042 681.15 281.582L681.546 287H683.238L682.446 277.892H680.538L678.162 283.04C677.928 283.598 677.658 284.264 677.658 284.264H677.622C677.622 284.264 677.37 283.58 677.118 283.04L674.796 277.892H672.852L672.06 287ZM684.992 282.428C684.992 285.2 687.188 287.216 689.906 287.216C692.606 287.216 694.802 285.2 694.802 282.428C694.802 279.674 692.606 277.676 689.888 277.676C687.188 277.676 684.992 279.674 684.992 282.428ZM686.774 282.428C686.774 280.538 688.178 279.188 689.906 279.188C691.616 279.188 693.038 280.538 693.038 282.428C693.038 284.336 691.616 285.704 689.906 285.704C688.178 285.704 686.774 284.336 686.774 282.428ZM700.921 276.848C702.325 276.848 703.585 276.02 703.585 274.544V274.274H702.199V274.508C702.199 275.318 701.551 275.714 700.921 275.714C700.291 275.714 699.661 275.318 699.661 274.526V274.274H698.257V274.544C698.257 276.02 699.535 276.848 700.921 276.848ZM696.907 287H698.581L702.523 281.564C702.811 281.132 703.261 280.52 703.315 280.358H703.351C703.351 280.502 703.297 281.132 703.297 281.564V287H704.989V277.892H703.297L699.373 283.328C699.067 283.76 698.635 284.39 698.563 284.552H698.527C698.545 284.462 698.581 283.814 698.581 283.328V277.892H696.907V287ZM510.674 315H512.456V303.84H518.9V315H520.682V302.292H510.674V315ZM523.604 315H525.278L529.22 309.564C529.508 309.132 529.958 308.52 530.012 308.358H530.048C530.048 308.502 529.994 309.132 529.994 309.564V315H531.686V305.892H529.994L526.07 311.328C525.764 311.76 525.332 312.39 525.26 312.552H525.224C525.242 312.462 525.278 311.814 525.278 311.328V305.892H523.604V315ZM533.786 310.428C533.786 313.236 535.892 315.09 538.718 315.216V318.6H540.392V315.216C543.218 315.09 545.306 313.236 545.306 310.428C545.306 307.638 543.218 305.802 540.392 305.694V302.4H538.718V305.694C535.892 305.802 533.786 307.638 533.786 310.428ZM540.392 313.758V307.134C542.246 307.242 543.596 308.448 543.596 310.428C543.596 312.39 542.246 313.632 540.392 313.758ZM535.514 310.428C535.514 308.448 536.846 307.242 538.718 307.134V313.758C536.846 313.632 535.514 312.39 535.514 310.428ZM546.666 312.516C546.666 314.226 548.124 315.216 549.708 315.216C551.058 315.216 552.174 314.406 552.696 313.362H552.732C552.732 313.362 552.678 313.668 552.678 314.082V315H554.316V309.24C554.316 306.936 553.002 305.676 550.716 305.676C549.438 305.676 548.052 306.144 547.314 306.756L548.016 308.034C548.754 307.512 549.672 307.152 550.572 307.152C551.706 307.152 552.57 307.656 552.57 309.15V309.33H552.102C550.212 309.33 546.666 309.654 546.666 312.516ZM548.412 312.372C548.412 310.698 550.824 310.59 552.12 310.59H552.57V310.932C552.57 312.282 551.652 313.83 550.122 313.83C548.988 313.83 548.412 313.092 548.412 312.372ZM556.897 315H558.643V307.386H562.603V305.892H556.897V315ZM563.404 310.428C563.404 313.2 565.6 315.216 568.318 315.216C571.018 315.216 573.214 313.2 573.214 310.428C573.214 307.674 571.018 305.676 568.3 305.676C565.6 305.676 563.404 307.674 563.404 310.428ZM565.186 310.428C565.186 308.538 566.59 307.188 568.318 307.188C570.028 307.188 571.45 308.538 571.45 310.428C571.45 312.336 570.028 313.704 568.318 313.704C566.59 313.704 565.186 312.336 565.186 310.428ZM575.319 318.6H577.065V314.46C577.065 313.992 576.993 313.668 576.993 313.668H577.029C577.659 314.64 578.703 315.216 579.855 315.216C582.249 315.216 583.977 313.344 583.977 310.446C583.977 307.62 582.447 305.676 579.981 305.676C578.649 305.676 577.497 306.288 576.921 307.386H576.885C576.885 307.386 576.939 307.08 576.939 306.702V305.892H575.319V318.6ZM577.011 310.482C577.011 308.178 578.271 307.206 579.639 307.206C581.151 307.206 582.213 308.484 582.213 310.464C582.213 312.534 581.025 313.704 579.585 313.704C577.911 313.704 577.011 312.102 577.011 310.482ZM585.373 312.516C585.373 314.226 586.831 315.216 588.415 315.216C589.765 315.216 590.881 314.406 591.403 313.362H591.439C591.439 313.362 591.385 313.668 591.385 314.082V315H593.023V309.24C593.023 306.936 591.709 305.676 589.423 305.676C588.145 305.676 586.759 306.144 586.021 306.756L586.723 308.034C587.461 307.512 588.379 307.152 589.279 307.152C590.413 307.152 591.277 307.656 591.277 309.15V309.33H590.809C588.919 309.33 585.373 309.654 585.373 312.516ZM587.119 312.372C587.119 310.698 589.531 310.59 590.827 310.59H591.277V310.932C591.277 312.282 590.359 313.83 588.829 313.83C587.695 313.83 587.119 313.092 587.119 312.372Z" fill="white"/>
<path d="M478.396 286.168C481.112 286.168 481.994 283.872 481.994 281.016C481.994 278.16 481.112 275.892 478.396 275.892C475.68 275.892 474.784 278.16 474.784 281.016C474.784 283.872 475.68 286.168 478.396 286.168ZM478.396 284.516C477.038 284.516 476.646 282.976 476.646 281.016C476.646 279.084 477.038 277.558 478.396 277.558C479.754 277.558 480.146 279.084 480.146 281.016C480.146 282.976 479.754 284.516 478.396 284.516ZM483.407 284.824C484.219 285.706 485.409 286.168 486.599 286.168C488.657 286.168 490.183 284.712 490.183 282.752C490.183 280.96 488.881 279.49 486.683 279.49C486.319 279.49 485.801 279.616 485.619 279.714H485.591C485.591 279.714 485.633 279.518 485.661 279.252L485.815 277.614H489.483V276.06H484.247L483.785 281.1L484.793 281.464C485.241 281.198 485.801 281.044 486.333 281.044C487.467 281.044 488.321 281.73 488.321 282.766C488.321 283.816 487.425 284.46 486.459 284.46C485.549 284.46 484.793 283.956 484.345 283.466L483.407 284.824Z" fill="white"/>
<path d="M510.674 358H512.456V346.84H518.9V358H520.682V345.292H510.674V358ZM522.94 353.428C522.94 356.2 525.136 358.216 527.854 358.216C530.554 358.216 532.75 356.2 532.75 353.428C532.75 350.674 530.554 348.676 527.836 348.676C525.136 348.676 522.94 350.674 522.94 353.428ZM524.722 353.428C524.722 351.538 526.126 350.188 527.854 350.188C529.564 350.188 530.986 351.538 530.986 353.428C530.986 355.336 529.564 356.704 527.854 356.704C526.126 356.704 524.722 355.336 524.722 353.428ZM536.407 356.56C537.559 354.76 537.703 352.168 537.703 350.8V350.314H540.439V356.56H536.407ZM533.491 356.56V360.16H535.129V358H541.879V360.16H543.481V356.56H542.185V348.892H536.029V350.566C536.029 351.97 535.885 354.814 534.607 356.56H533.491ZM544.811 352.762C544.811 355.912 546.197 358.216 549.275 358.216C551.849 358.216 553.577 356.416 553.577 353.896C553.577 351.322 551.993 349.702 549.707 349.702C548.501 349.702 547.295 350.098 546.485 351.322H546.449C546.575 349.576 547.439 348.514 549.257 347.686L552.749 346.228L552.173 344.788L548.915 346.192C545.747 347.524 544.811 349.504 544.811 352.762ZM546.629 353.896C546.629 352.294 547.727 351.088 549.275 351.088C550.643 351.088 551.813 352.15 551.813 353.932C551.813 355.696 550.643 356.74 549.203 356.74C547.799 356.74 546.629 355.696 546.629 353.896ZM555.16 353.446C555.16 356.146 557.14 358.216 560.002 358.216C561.262 358.216 562.648 357.73 563.53 356.92L562.792 355.642C562.072 356.29 561.082 356.704 560.11 356.704C558.472 356.704 557.068 355.642 556.978 353.68H563.602C563.638 353.428 563.674 353.176 563.674 352.942C563.674 350.602 562.306 348.676 559.732 348.676C557.14 348.676 555.16 350.548 555.16 353.446ZM557.032 352.42C557.284 350.908 558.346 350.026 559.696 350.026C560.884 350.026 561.856 350.854 561.91 352.42H557.032ZM565.774 361.6H567.52V357.46C567.52 356.992 567.448 356.668 567.448 356.668H567.484C568.114 357.64 569.158 358.216 570.31 358.216C572.704 358.216 574.432 356.344 574.432 353.446C574.432 350.62 572.902 348.676 570.436 348.676C569.104 348.676 567.952 349.288 567.376 350.386H567.34C567.34 350.386 567.394 350.08 567.394 349.702V348.892H565.774V361.6ZM567.466 353.482C567.466 351.178 568.726 350.206 570.094 350.206C571.606 350.206 572.668 351.484 572.668 353.464C572.668 355.534 571.48 356.704 570.04 356.704C568.366 356.704 567.466 355.102 567.466 353.482ZM575.99 353.446C575.99 356.146 577.97 358.216 580.832 358.216C582.092 358.216 583.478 357.73 584.36 356.92L583.622 355.642C582.902 356.29 581.912 356.704 580.94 356.704C579.302 356.704 577.898 355.642 577.808 353.68H584.432C584.468 353.428 584.504 353.176 584.504 352.942C584.504 350.602 583.136 348.676 580.562 348.676C577.97 348.676 575.99 350.548 575.99 353.446ZM577.862 352.42C578.114 350.908 579.176 350.026 580.526 350.026C581.714 350.026 582.686 350.854 582.74 352.42H577.862ZM586.226 358H587.918L588.314 352.582C588.35 352.042 588.296 351.016 588.296 351.016H588.332C588.332 351.016 588.62 351.7 588.908 352.366L591.068 356.902H592.562L594.722 352.348C595.064 351.646 595.298 351.016 595.298 351.016H595.334C595.334 351.016 595.298 352.042 595.316 352.582L595.712 358H597.404L596.612 348.892H594.704L592.328 354.04C592.094 354.598 591.824 355.264 591.824 355.264H591.788C591.788 355.264 591.536 354.58 591.284 354.04L588.962 348.892H587.018L586.226 358ZM603.802 359.89L603.19 361.222C603.19 361.222 603.928 361.78 604.936 361.78C606.214 361.78 607.348 361.06 607.888 359.638L612.172 348.892H610.282L608.068 354.868C607.906 355.336 607.762 355.948 607.762 355.948H607.726C607.726 355.948 607.564 355.3 607.384 354.85L605.098 348.892H603.136L606.952 357.892L606.502 358.936C606.16 359.764 605.566 360.286 604.846 360.286C604.306 360.286 603.802 359.89 603.802 359.89ZM613.885 358H617.773C619.753 358 621.121 357.1 621.121 355.408C621.121 354.4 620.527 353.518 619.393 353.248V353.23C620.221 352.87 620.689 352.114 620.689 351.232C620.689 349.702 619.483 348.892 617.647 348.892H613.885V358ZM615.631 352.744V350.098H617.287C618.385 350.098 618.907 350.53 618.907 351.358C618.907 352.204 618.385 352.744 617.341 352.744H615.631ZM615.631 356.776V353.914H617.485C618.691 353.914 619.357 354.454 619.357 355.354C619.357 356.2 618.763 356.776 617.503 356.776H615.631ZM622.247 358.09C624.929 357.946 625.973 355.822 625.973 351.7V350.332H628.655V358H630.401V348.892H624.299V351.7C624.299 354.994 623.579 356.326 622.247 356.524V358.09ZM632.504 353.446C632.504 356.146 634.484 358.216 637.346 358.216C638.606 358.216 639.992 357.73 640.874 356.92L640.136 355.642C639.416 356.29 638.426 356.704 637.454 356.704C635.816 356.704 634.412 355.642 634.322 353.68H640.946C640.982 353.428 641.018 353.176 641.018 352.942C641.018 350.602 639.65 348.676 637.076 348.676C634.484 348.676 632.504 350.548 632.504 353.446ZM634.376 352.42C634.628 350.908 635.69 350.026 637.04 350.026C638.228 350.026 639.2 350.854 639.254 352.42H634.376ZM643.118 358H644.864V354.058H646.178L648.896 358H650.966L647.564 353.266V353.23L650.606 348.892H648.626L646.142 352.564H644.864V348.892H643.118V358ZM651.678 355.516C651.678 357.226 653.136 358.216 654.72 358.216C656.07 358.216 657.186 357.406 657.708 356.362H657.744C657.744 356.362 657.69 356.668 657.69 357.082V358H659.328V352.24C659.328 349.936 658.014 348.676 655.728 348.676C654.45 348.676 653.064 349.144 652.326 349.756L653.028 351.034C653.766 350.512 654.684 350.152 655.584 350.152C656.718 350.152 657.582 350.656 657.582 352.15V352.33H657.114C655.224 352.33 651.678 352.654 651.678 355.516ZM653.424 355.372C653.424 353.698 655.836 353.59 657.132 353.59H657.582V353.932C657.582 355.282 656.664 356.83 655.134 356.83C654 356.83 653.424 356.092 653.424 355.372ZM663.982 358H665.71V350.386H668.896V348.892H660.814V350.386H663.982V358ZM669.717 353.446C669.717 356.146 671.697 358.216 674.559 358.216C675.819 358.216 677.205 357.73 678.087 356.92L677.349 355.642C676.629 356.29 675.639 356.704 674.667 356.704C673.029 356.704 671.625 355.642 671.535 353.68H678.159C678.195 353.428 678.231 353.176 678.231 352.942C678.231 350.602 676.863 348.676 674.289 348.676C671.697 348.676 669.717 350.548 669.717 353.446ZM671.589 352.42C671.841 350.908 672.903 350.026 674.253 350.026C675.441 350.026 676.413 350.854 676.467 352.42H671.589ZM679.34 358.09C682.022 357.946 683.066 355.822 683.066 351.7V350.332H685.748V358H687.494V348.892H681.392V351.7C681.392 354.994 680.672 356.326 679.34 356.524V358.09ZM690.192 358H693.738C696.042 358 697.086 356.83 697.086 355.12C697.086 353.05 695.664 352.186 693.774 352.186H691.938V348.892H690.192V358ZM691.938 356.74V353.446H693.504C694.764 353.446 695.304 354.13 695.304 355.102C695.304 356.056 694.764 356.74 693.504 356.74H691.938ZM698.963 358H700.709V354.094H705.317V358H707.063V348.892H705.317V352.6H700.709V348.892H698.963V358ZM718 358H719.746V348.892H718V358ZM709.756 358H713.266C715.552 358 716.596 356.83 716.596 355.12C716.596 353.05 715.174 352.186 713.284 352.186H711.502V348.892H709.756V358ZM711.502 356.74V353.446H713.014C714.274 353.446 714.832 354.13 714.832 355.102C714.832 356.056 714.292 356.74 713.032 356.74H711.502ZM721.854 353.446C721.854 356.146 723.834 358.216 726.696 358.216C727.956 358.216 729.342 357.73 730.224 356.92L729.486 355.642C728.766 356.29 727.776 356.704 726.804 356.704C725.166 356.704 723.762 355.642 723.672 353.68H730.296C730.332 353.428 730.368 353.176 730.368 352.942C730.368 350.602 729 348.676 726.426 348.676C723.834 348.676 721.854 350.548 721.854 353.446ZM723.726 352.42C723.978 350.908 725.04 350.026 726.39 350.026C727.578 350.026 728.55 350.854 728.604 352.42H723.726ZM736.085 356.884C736.841 357.604 738.029 358.216 739.433 358.216C741.305 358.216 742.925 357.262 742.925 355.39C742.925 354.22 742.205 353.536 741.287 353.248V353.212C742.007 352.906 742.619 352.276 742.619 351.142C742.619 349.522 741.269 348.676 739.541 348.676C738.101 348.676 737.075 349.144 736.373 349.666L737.021 350.836C737.723 350.314 738.443 350.044 739.235 350.044C740.243 350.044 740.855 350.512 740.855 351.358C740.855 352.276 740.153 352.672 739.127 352.672H738.173V353.932H739.289C740.567 353.932 741.161 354.436 741.161 355.318C741.161 356.308 740.315 356.812 739.271 356.812C738.173 356.812 737.309 356.164 736.895 355.732L736.085 356.884ZM744.28 355.516C744.28 357.226 745.738 358.216 747.322 358.216C748.672 358.216 749.788 357.406 750.31 356.362H750.346C750.346 356.362 750.292 356.668 750.292 357.082V358H751.93V352.24C751.93 349.936 750.616 348.676 748.33 348.676C747.052 348.676 745.666 349.144 744.928 349.756L745.63 351.034C746.368 350.512 747.286 350.152 748.186 350.152C749.32 350.152 750.184 350.656 750.184 352.15V352.33H749.716C747.826 352.33 744.28 352.654 744.28 355.516ZM746.026 355.372C746.026 353.698 748.438 353.59 749.734 353.59H750.184V353.932C750.184 355.282 749.266 356.83 747.736 356.83C746.602 356.83 746.026 356.092 746.026 355.372ZM756.292 356.56C757.444 354.76 757.588 352.168 757.588 350.8V350.314H760.324V356.56H756.292ZM753.376 356.56V360.16H755.014V358H761.764V360.16H763.366V356.56H762.07V348.892H755.914V350.566C755.914 351.97 755.77 354.814 754.492 356.56H753.376ZM764.442 355.516C764.442 357.226 765.9 358.216 767.484 358.216C768.834 358.216 769.95 357.406 770.472 356.362H770.508C770.508 356.362 770.454 356.668 770.454 357.082V358H772.092V352.24C772.092 349.936 770.778 348.676 768.492 348.676C767.214 348.676 765.828 349.144 765.09 349.756L765.792 351.034C766.53 350.512 767.448 350.152 768.348 350.152C769.482 350.152 770.346 350.656 770.346 352.15V352.33H769.878C767.988 352.33 764.442 352.654 764.442 355.516ZM766.188 355.372C766.188 353.698 768.6 353.59 769.896 353.59H770.346V353.932C770.346 355.282 769.428 356.83 767.898 356.83C766.764 356.83 766.188 356.092 766.188 355.372ZM777.156 354.832C778.056 354.832 779.046 354.526 779.622 354.166H779.658C779.658 354.166 779.64 354.454 779.64 354.706V358H781.386V348.892H779.64V352.672C779.262 352.942 778.524 353.32 777.624 353.32C776.13 353.32 775.806 352.51 775.806 351.61V348.892H774.096V351.862C774.096 353.806 775.212 354.832 777.156 354.832ZM784.094 358H785.768L789.71 352.564C789.998 352.132 790.448 351.52 790.502 351.358H790.538C790.538 351.502 790.484 352.132 790.484 352.564V358H792.176V348.892H790.484L786.56 354.328C786.254 354.76 785.822 355.39 785.75 355.552H785.714C785.732 355.462 785.768 354.814 785.768 354.328V348.892H784.094V358ZM510.35 386H512.024L515.966 380.564C516.254 380.132 516.704 379.52 516.758 379.358H516.794C516.794 379.502 516.74 380.132 516.74 380.564V386H518.432V376.892H516.74L512.816 382.328C512.51 382.76 512.078 383.39 512.006 383.552H511.97C511.988 383.462 512.024 382.814 512.024 382.328V376.892H510.35V386ZM525.014 381.446C525.014 384.182 527.012 386.216 529.892 386.216C531.314 386.216 532.7 385.64 533.528 384.758L532.826 383.48C532.124 384.218 531.026 384.704 530.018 384.704C528.128 384.704 526.796 383.282 526.796 381.428C526.796 379.574 528.128 378.188 529.964 378.188C530.918 378.188 531.872 378.62 532.484 379.232L533.312 378.008C532.448 377.09 531.098 376.676 529.892 376.676C527.03 376.676 525.014 378.746 525.014 381.446ZM534.611 381.428C534.611 384.2 536.807 386.216 539.525 386.216C542.225 386.216 544.421 384.2 544.421 381.428C544.421 378.674 542.225 376.676 539.507 376.676C536.807 376.676 534.611 378.674 534.611 381.428ZM536.393 381.428C536.393 379.538 537.797 378.188 539.525 378.188C541.235 378.188 542.657 379.538 542.657 381.428C542.657 383.336 541.235 384.704 539.525 384.704C537.797 384.704 536.393 383.336 536.393 381.428ZM545.932 381.446C545.932 384.182 547.93 386.216 550.81 386.216C552.232 386.216 553.618 385.64 554.446 384.758L553.744 383.48C553.042 384.218 551.944 384.704 550.936 384.704C549.046 384.704 547.714 383.282 547.714 381.428C547.714 379.574 549.046 378.188 550.882 378.188C551.836 378.188 552.79 378.62 553.402 379.232L554.23 378.008C553.366 377.09 552.016 376.676 550.81 376.676C547.948 376.676 545.932 378.746 545.932 381.446ZM558.53 386H560.258V378.386H563.444V376.892H555.362V378.386H558.53V386ZM564.315 383.516C564.315 385.226 565.773 386.216 567.357 386.216C568.707 386.216 569.823 385.406 570.345 384.362H570.381C570.381 384.362 570.327 384.668 570.327 385.082V386H571.965V380.24C571.965 377.936 570.651 376.676 568.365 376.676C567.087 376.676 565.701 377.144 564.963 377.756L565.665 379.034C566.403 378.512 567.321 378.152 568.221 378.152C569.355 378.152 570.219 378.656 570.219 380.15V380.33H569.751C567.861 380.33 564.315 380.654 564.315 383.516ZM566.061 383.372C566.061 381.698 568.473 381.59 569.769 381.59H570.219V381.932C570.219 383.282 569.301 384.83 567.771 384.83C566.637 384.83 566.061 384.092 566.061 383.372ZM574.545 386H578.433C580.413 386 581.781 385.1 581.781 383.408C581.781 382.4 581.187 381.518 580.053 381.248V381.23C580.881 380.87 581.349 380.114 581.349 379.232C581.349 377.702 580.143 376.892 578.307 376.892H574.545V386ZM576.291 380.744V378.098H577.947C579.045 378.098 579.567 378.53 579.567 379.358C579.567 380.204 579.045 380.744 578.001 380.744H576.291ZM576.291 384.776V381.914H578.145C579.351 381.914 580.017 382.454 580.017 383.354C580.017 384.2 579.423 384.776 578.163 384.776H576.291ZM583.897 386H585.571L589.513 380.564C589.801 380.132 590.251 379.52 590.305 379.358H590.341C590.341 379.502 590.287 380.132 590.287 380.564V386H591.979V376.892H590.287L586.363 382.328C586.057 382.76 585.625 383.39 585.553 383.552H585.517C585.535 383.462 585.571 382.814 585.571 382.328V376.892H583.897V386ZM594.277 386H595.969L596.365 380.582C596.401 380.042 596.347 379.016 596.347 379.016H596.383C596.383 379.016 596.671 379.7 596.959 380.366L599.119 384.902H600.613L602.773 380.348C603.115 379.646 603.349 379.016 603.349 379.016H603.385C603.385 379.016 603.349 380.042 603.367 380.582L603.763 386H605.455L604.663 376.892H602.755L600.379 382.04C600.145 382.598 599.875 383.264 599.875 383.264H599.839C599.839 383.264 599.587 382.58 599.335 382.04L597.013 376.892H595.069L594.277 386ZM611.853 387.89L611.241 389.222C611.241 389.222 611.979 389.78 612.987 389.78C614.265 389.78 615.399 389.06 615.939 387.638L620.223 376.892H618.333L616.119 382.868C615.957 383.336 615.813 383.948 615.813 383.948H615.777C615.777 383.948 615.615 383.3 615.435 382.85L613.149 376.892H611.187L615.003 385.892L614.553 386.936C614.211 387.764 613.617 388.286 612.897 388.286C612.357 388.286 611.853 387.89 611.853 387.89ZM623.068 384.56C624.22 382.76 624.364 380.168 624.364 378.8V378.314H627.1V384.56H623.068ZM620.152 384.56V388.16H621.79V386H628.54V388.16H630.142V384.56H628.846V376.892H622.69V378.566C622.69 379.97 622.546 382.814 621.268 384.56H620.152ZM631.274 381.428C631.274 384.2 633.47 386.216 636.188 386.216C638.888 386.216 641.084 384.2 641.084 381.428C641.084 378.674 638.888 376.676 636.17 376.676C633.47 376.676 631.274 378.674 631.274 381.428ZM633.056 381.428C633.056 379.538 634.46 378.188 636.188 378.188C637.898 378.188 639.32 379.538 639.32 381.428C639.32 383.336 637.898 384.704 636.188 384.704C634.46 384.704 633.056 383.336 633.056 381.428ZM642.792 380.762C642.792 383.912 644.178 386.216 647.256 386.216C649.83 386.216 651.558 384.416 651.558 381.896C651.558 379.322 649.974 377.702 647.688 377.702C646.482 377.702 645.276 378.098 644.466 379.322H644.43C644.556 377.576 645.42 376.514 647.238 375.686L650.73 374.228L650.154 372.788L646.896 374.192C643.728 375.524 642.792 377.504 642.792 380.762ZM644.61 381.896C644.61 380.294 645.708 379.088 647.256 379.088C648.624 379.088 649.794 380.15 649.794 381.932C649.794 383.696 648.624 384.74 647.184 384.74C645.78 384.74 644.61 383.696 644.61 381.896ZM653.735 386H655.481V382.094H660.089V386H661.835V376.892H660.089V380.6H655.481V376.892H653.735V386ZM663.934 381.428C663.934 384.2 666.13 386.216 668.848 386.216C671.548 386.216 673.744 384.2 673.744 381.428C673.744 378.674 671.548 376.676 668.83 376.676C666.13 376.676 663.934 378.674 663.934 381.428ZM665.716 381.428C665.716 379.538 667.12 378.188 668.848 378.188C670.558 378.188 671.98 379.538 671.98 381.428C671.98 383.336 670.558 384.704 668.848 384.704C667.12 384.704 665.716 383.336 665.716 381.428ZM675.254 381.446C675.254 384.146 677.234 386.216 680.096 386.216C681.356 386.216 682.742 385.73 683.624 384.92L682.886 383.642C682.166 384.29 681.176 384.704 680.204 384.704C678.566 384.704 677.162 383.642 677.072 381.68H683.696C683.732 381.428 683.768 381.176 683.768 380.942C683.768 378.602 682.4 376.676 679.826 376.676C677.234 376.676 675.254 378.548 675.254 381.446ZM677.126 380.42C677.378 378.908 678.44 378.026 679.79 378.026C680.978 378.026 681.95 378.854 682.004 380.42H677.126ZM690.368 389.6H692.114V385.46C692.114 384.992 692.042 384.668 692.042 384.668H692.078C692.708 385.64 693.752 386.216 694.904 386.216C697.298 386.216 699.026 384.344 699.026 381.446C699.026 378.62 697.496 376.676 695.03 376.676C693.698 376.676 692.546 377.288 691.97 378.386H691.934C691.934 378.386 691.988 378.08 691.988 377.702V376.892H690.368V389.6ZM692.06 381.482C692.06 379.178 693.32 378.206 694.688 378.206C696.2 378.206 697.262 379.484 697.262 381.464C697.262 383.534 696.074 384.704 694.634 384.704C692.96 384.704 692.06 383.102 692.06 381.482ZM700.422 383.516C700.422 385.226 701.88 386.216 703.464 386.216C704.814 386.216 705.93 385.406 706.452 384.362H706.488C706.488 384.362 706.434 384.668 706.434 385.082V386H708.072V380.24C708.072 377.936 706.758 376.676 704.472 376.676C703.194 376.676 701.808 377.144 701.07 377.756L701.772 379.034C702.51 378.512 703.428 378.152 704.328 378.152C705.462 378.152 706.326 378.656 706.326 380.15V380.33H705.858C703.968 380.33 700.422 380.654 700.422 383.516ZM702.168 383.372C702.168 381.698 704.58 381.59 705.876 381.59H706.326V381.932C706.326 383.282 705.408 384.83 703.878 384.83C702.744 384.83 702.168 384.092 702.168 383.372ZM710.059 381.446C710.059 384.182 712.057 386.216 714.937 386.216C716.359 386.216 717.745 385.64 718.573 384.758L717.871 383.48C717.169 384.218 716.071 384.704 715.063 384.704C713.173 384.704 711.841 383.282 711.841 381.428C711.841 379.574 713.173 378.188 715.009 378.188C715.963 378.188 716.917 378.62 717.529 379.232L718.357 378.008C717.493 377.09 716.143 376.676 714.937 376.676C712.075 376.676 710.059 378.746 710.059 381.446ZM720.461 386H722.207V378.386H726.671V386H728.417V376.892H720.461V386ZM731.114 386H732.788L736.73 380.564C737.018 380.132 737.468 379.52 737.522 379.358H737.558C737.558 379.502 737.504 380.132 737.504 380.564V386H739.196V376.892H737.504L733.58 382.328C733.274 382.76 732.842 383.39 732.77 383.552H732.734C732.752 383.462 732.788 382.814 732.788 382.328V376.892H731.114V386ZM741.277 381.446C741.277 384.182 743.275 386.216 746.155 386.216C747.577 386.216 748.963 385.64 749.791 384.758L749.089 383.48C748.387 384.218 747.289 384.704 746.281 384.704C744.391 384.704 743.059 383.282 743.059 381.428C743.059 379.574 744.391 378.188 746.227 378.188C747.181 378.188 748.135 378.62 748.747 379.232L749.575 378.008C748.711 377.09 747.361 376.676 746.155 376.676C743.293 376.676 741.277 378.746 741.277 381.446ZM750.924 383.516C750.924 385.226 752.382 386.216 753.966 386.216C755.316 386.216 756.432 385.406 756.954 384.362H756.99C756.99 384.362 756.936 384.668 756.936 385.082V386H758.574V380.24C758.574 377.936 757.26 376.676 754.974 376.676C753.696 376.676 752.31 377.144 751.572 377.756L752.274 379.034C753.012 378.512 753.93 378.152 754.83 378.152C755.964 378.152 756.828 378.656 756.828 380.15V380.33H756.36C754.47 380.33 750.924 380.654 750.924 383.516ZM752.67 383.372C752.67 381.698 755.082 381.59 756.378 381.59H756.828V381.932C756.828 383.282 755.91 384.83 754.38 384.83C753.246 384.83 752.67 384.092 752.67 383.372ZM761.155 386H762.901V382.094H767.509V386H769.255V376.892H767.509V380.6H762.901V376.892H761.155V386ZM771.948 386H773.622L777.564 380.564C777.852 380.132 778.302 379.52 778.356 379.358H778.392C778.392 379.502 778.338 380.132 778.338 380.564V386H780.03V376.892H778.338L774.414 382.328C774.108 382.76 773.676 383.39 773.604 383.552H773.568C773.586 383.462 773.622 382.814 773.622 382.328V376.892H771.948V386ZM782.111 381.446C782.111 384.146 784.091 386.216 786.953 386.216C788.213 386.216 789.599 385.73 790.481 384.92L789.743 383.642C789.023 384.29 788.033 384.704 787.061 384.704C785.423 384.704 784.019 383.642 783.929 381.68H790.553C790.589 381.428 790.625 381.176 790.625 380.942C790.625 378.602 789.257 376.676 786.683 376.676C784.091 376.676 782.111 378.548 782.111 381.446ZM783.983 380.42C784.235 378.908 785.297 378.026 786.647 378.026C787.835 378.026 788.807 378.854 788.861 380.42H783.983Z" fill="white"/>
<path d="M478.396 356.168C481.112 356.168 481.994 353.872 481.994 351.016C481.994 348.16 481.112 345.892 478.396 345.892C475.68 345.892 474.784 348.16 474.784 351.016C474.784 353.872 475.68 356.168 478.396 356.168ZM478.396 354.516C477.038 354.516 476.646 352.976 476.646 351.016C476.646 349.084 477.038 347.558 478.396 347.558C479.754 347.558 480.146 349.084 480.146 351.016C480.146 352.976 479.754 354.516 478.396 354.516ZM483.519 351.464C483.519 354.446 485.297 356.168 487.369 356.168C489.329 356.168 490.631 354.67 490.631 352.85C490.631 351.044 489.413 349.518 487.453 349.518C486.739 349.518 485.927 349.812 485.591 350.218H485.563C485.801 348.86 486.641 347.558 488.195 347.558C488.671 347.558 489.329 347.712 489.609 347.866L490.141 346.312C489.525 346.018 488.769 345.892 488.097 345.892C485.017 345.892 483.519 348.846 483.519 351.464ZM487.383 354.516C486.249 354.516 485.395 353.228 485.395 352.122C485.395 351.394 486.179 351.002 487.033 351.002C488.223 351.002 488.853 351.828 488.853 352.85C488.853 353.774 488.279 354.516 487.383 354.516Z" fill="white"/>
<path d="M510.674 130H512.456V118.84H518.9V130H520.682V117.292H510.674V130ZM522.94 125.428C522.94 128.2 525.136 130.216 527.854 130.216C530.554 130.216 532.75 128.2 532.75 125.428C532.75 122.674 530.554 120.676 527.836 120.676C525.136 120.676 522.94 122.674 522.94 125.428ZM524.722 125.428C524.722 123.538 526.126 122.188 527.854 122.188C529.564 122.188 530.986 123.538 530.986 125.428C530.986 127.336 529.564 128.704 527.854 128.704C526.126 128.704 524.722 127.336 524.722 125.428ZM533.761 128.884C534.517 129.604 535.705 130.216 537.109 130.216C538.981 130.216 540.601 129.262 540.601 127.39C540.601 126.22 539.881 125.536 538.963 125.248V125.212C539.683 124.906 540.295 124.276 540.295 123.142C540.295 121.522 538.945 120.676 537.217 120.676C535.777 120.676 534.751 121.144 534.049 121.666L534.697 122.836C535.399 122.314 536.119 122.044 536.911 122.044C537.919 122.044 538.531 122.512 538.531 123.358C538.531 124.276 537.829 124.672 536.803 124.672H535.849V125.932H536.965C538.243 125.932 538.837 126.436 538.837 127.318C538.837 128.308 537.991 128.812 536.947 128.812C535.849 128.812 534.985 128.164 534.571 127.732L533.761 128.884ZM542.711 130H544.457V126.094H549.065V130H550.811V120.892H549.065V124.6H544.457V120.892H542.711V130ZM552.748 127.516C552.748 129.226 554.206 130.216 555.79 130.216C557.14 130.216 558.256 129.406 558.778 128.362H558.814C558.814 128.362 558.76 128.668 558.76 129.082V130H560.398V124.24C560.398 121.936 559.084 120.676 556.798 120.676C555.52 120.676 554.134 121.144 553.396 121.756L554.098 123.034C554.836 122.512 555.754 122.152 556.654 122.152C557.788 122.152 558.652 122.656 558.652 124.15V124.33H558.184C556.294 124.33 552.748 124.654 552.748 127.516ZM554.494 127.372C554.494 125.698 556.906 125.59 558.202 125.59H558.652V125.932C558.652 127.282 557.734 128.83 556.204 128.83C555.07 128.83 554.494 128.092 554.494 127.372ZM562.385 125.446C562.385 128.146 564.365 130.216 567.227 130.216C568.487 130.216 569.873 129.73 570.755 128.92L570.017 127.642C569.297 128.29 568.307 128.704 567.335 128.704C565.697 128.704 564.293 127.642 564.203 125.68H570.827C570.863 125.428 570.899 125.176 570.899 124.942C570.899 122.602 569.531 120.676 566.957 120.676C564.365 120.676 562.385 122.548 562.385 125.446ZM564.257 124.42C564.509 122.908 565.571 122.026 566.921 122.026C568.109 122.026 569.081 122.854 569.135 124.42H564.257ZM572.62 130H574.312L574.708 124.582C574.744 124.042 574.69 123.016 574.69 123.016H574.726C574.726 123.016 575.014 123.7 575.302 124.366L577.462 128.902H578.956L581.116 124.348C581.458 123.646 581.692 123.016 581.692 123.016H581.728C581.728 123.016 581.692 124.042 581.71 124.582L582.106 130H583.798L583.006 120.892H581.098L578.722 126.04C578.488 126.598 578.218 127.264 578.218 127.264H578.182C578.182 127.264 577.93 126.58 577.678 126.04L575.356 120.892H573.412L572.62 130ZM590.251 124.762C590.251 127.912 591.637 130.216 594.715 130.216C597.289 130.216 599.017 128.416 599.017 125.896C599.017 123.322 597.433 121.702 595.147 121.702C593.941 121.702 592.735 122.098 591.925 123.322H591.889C592.015 121.576 592.879 120.514 594.697 119.686L598.189 118.228L597.613 116.788L594.355 118.192C591.187 119.524 590.251 121.504 590.251 124.762ZM592.069 125.896C592.069 124.294 593.167 123.088 594.715 123.088C596.083 123.088 597.253 124.15 597.253 125.932C597.253 127.696 596.083 128.74 594.643 128.74C593.239 128.74 592.069 127.696 592.069 125.896ZM600.6 125.446C600.6 128.146 602.58 130.216 605.442 130.216C606.702 130.216 608.088 129.73 608.97 128.92L608.232 127.642C607.512 128.29 606.522 128.704 605.55 128.704C603.912 128.704 602.508 127.642 602.418 125.68H609.042C609.078 125.428 609.114 125.176 609.114 124.942C609.114 122.602 607.746 120.676 605.172 120.676C602.58 120.676 600.6 122.548 600.6 125.446ZM602.472 124.42C602.724 122.908 603.786 122.026 605.136 122.026C606.324 122.026 607.296 122.854 607.35 124.42H602.472ZM610.619 125.446C610.619 128.182 612.617 130.216 615.497 130.216C616.919 130.216 618.305 129.64 619.133 128.758L618.431 127.48C617.729 128.218 616.631 128.704 615.623 128.704C613.733 128.704 612.401 127.282 612.401 125.428C612.401 123.574 613.733 122.188 615.569 122.188C616.523 122.188 617.477 122.62 618.089 123.232L618.917 122.008C618.053 121.09 616.703 120.676 615.497 120.676C612.635 120.676 610.619 122.746 610.619 125.446ZM621.022 130H622.768V126.058H624.082L626.8 130H628.87L625.468 125.266V125.23L628.51 120.892H626.53L624.046 124.564H622.768V120.892H621.022V130ZM629.445 125.428C629.445 128.2 631.641 130.216 634.359 130.216C637.059 130.216 639.255 128.2 639.255 125.428C639.255 122.674 637.059 120.676 634.341 120.676C631.641 120.676 629.445 122.674 629.445 125.428ZM631.227 125.428C631.227 123.538 632.631 122.188 634.359 122.188C636.069 122.188 637.491 123.538 637.491 125.428C637.491 127.336 636.069 128.704 634.359 128.704C632.631 128.704 631.227 127.336 631.227 125.428ZM641.36 130H643.106V126.094H647.714V130H649.46V120.892H647.714V124.6H643.106V120.892H641.36V130ZM651.559 125.446C651.559 128.146 653.539 130.216 656.401 130.216C657.661 130.216 659.047 129.73 659.929 128.92L659.191 127.642C658.471 128.29 657.481 128.704 656.509 128.704C654.871 128.704 653.467 127.642 653.377 125.68H660.001C660.037 125.428 660.073 125.176 660.073 124.942C660.073 122.602 658.705 120.676 656.131 120.676C653.539 120.676 651.559 122.548 651.559 125.446ZM653.431 124.42C653.683 122.908 654.745 122.026 656.095 122.026C657.283 122.026 658.255 122.854 658.309 124.42H653.431ZM664.656 126.832C665.556 126.832 666.546 126.526 667.122 126.166H667.158C667.158 126.166 667.14 126.454 667.14 126.706V130H668.886V120.892H667.14V124.672C666.762 124.942 666.024 125.32 665.124 125.32C663.63 125.32 663.306 124.51 663.306 123.61V120.892H661.596V123.862C661.596 125.806 662.712 126.832 664.656 126.832ZM671.594 130H673.34V126.094H677.948V130H679.694V120.892H677.948V124.6H673.34V120.892H671.594V130ZM681.793 125.428C681.793 128.2 683.989 130.216 686.707 130.216C689.407 130.216 691.603 128.2 691.603 125.428C691.603 122.674 689.407 120.676 686.689 120.676C683.989 120.676 681.793 122.674 681.793 125.428ZM683.575 125.428C683.575 123.538 684.979 122.188 686.707 122.188C688.417 122.188 689.839 123.538 689.839 125.428C689.839 127.336 688.417 128.704 686.707 128.704C684.979 128.704 683.575 127.336 683.575 125.428ZM693.113 125.446C693.113 128.182 695.111 130.216 697.991 130.216C699.413 130.216 700.799 129.64 701.627 128.758L700.925 127.48C700.223 128.218 699.125 128.704 698.117 128.704C696.227 128.704 694.895 127.282 694.895 125.428C694.895 123.574 696.227 122.188 698.063 122.188C699.017 122.188 699.971 122.62 700.583 123.232L701.411 122.008C700.547 121.09 699.197 120.676 697.991 120.676C695.129 120.676 693.113 122.746 693.113 125.446ZM705.712 130H707.44V122.386H710.626V120.892H702.544V122.386H705.712V130ZM712.34 130H715.886C718.19 130 719.234 128.83 719.234 127.12C719.234 125.05 717.812 124.186 715.922 124.186H714.086V120.892H712.34V130ZM714.086 128.74V125.446H715.652C716.912 125.446 717.452 126.13 717.452 127.102C717.452 128.056 716.912 128.74 715.652 128.74H714.086ZM510.35 158H514.238C516.218 158 517.586 157.1 517.586 155.408C517.586 154.4 516.992 153.518 515.858 153.248V153.23C516.686 152.87 517.154 152.114 517.154 151.232C517.154 149.702 515.948 148.892 514.112 148.892H510.35V158ZM512.096 152.744V150.098H513.752C514.85 150.098 515.372 150.53 515.372 151.358C515.372 152.204 514.85 152.744 513.806 152.744H512.096ZM512.096 156.776V153.914H513.95C515.156 153.914 515.822 154.454 515.822 155.354C515.822 156.2 515.228 156.776 513.968 156.776H512.096ZM519.324 158H521.016L521.412 152.582C521.448 152.042 521.394 151.016 521.394 151.016H521.43C521.43 151.016 521.718 151.7 522.006 152.366L524.166 156.902H525.66L527.82 152.348C528.162 151.646 528.396 151.016 528.396 151.016H528.432C528.432 151.016 528.396 152.042 528.414 152.582L528.81 158H530.502L529.71 148.892H527.802L525.426 154.04C525.192 154.598 524.922 155.264 524.922 155.264H524.886C524.886 155.264 524.634 154.58 524.382 154.04L522.06 148.892H520.116L519.324 158ZM532.256 153.446C532.256 156.146 534.236 158.216 537.098 158.216C538.358 158.216 539.744 157.73 540.626 156.92L539.888 155.642C539.168 156.29 538.178 156.704 537.206 156.704C535.568 156.704 534.164 155.642 534.074 153.68H540.698C540.734 153.428 540.77 153.176 540.77 152.942C540.77 150.602 539.402 148.676 536.828 148.676C534.236 148.676 532.256 150.548 532.256 153.446ZM534.128 152.42C534.38 150.908 535.442 150.026 536.792 150.026C537.98 150.026 538.952 150.854 539.006 152.42H534.128ZM542.276 153.446C542.276 156.182 544.274 158.216 547.154 158.216C548.576 158.216 549.962 157.64 550.79 156.758L550.088 155.48C549.386 156.218 548.288 156.704 547.28 156.704C545.39 156.704 544.058 155.282 544.058 153.428C544.058 151.574 545.39 150.188 547.226 150.188C548.18 150.188 549.134 150.62 549.746 151.232L550.574 150.008C549.71 149.09 548.36 148.676 547.154 148.676C544.292 148.676 542.276 150.746 542.276 153.446ZM554.874 158H556.602V150.386H559.788V148.892H551.706V150.386H554.874V158ZM560.61 153.446C560.61 156.146 562.59 158.216 565.452 158.216C566.712 158.216 568.098 157.73 568.98 156.92L568.242 155.642C567.522 156.29 566.532 156.704 565.56 156.704C563.922 156.704 562.518 155.642 562.428 153.68H569.052C569.088 153.428 569.124 153.176 569.124 152.942C569.124 150.602 567.756 148.676 565.182 148.676C562.59 148.676 560.61 150.548 560.61 153.446ZM562.482 152.42C562.734 150.908 563.796 150.026 565.146 150.026C566.334 150.026 567.306 150.854 567.36 152.42H562.482ZM575.129 153.446C575.129 156.182 577.127 158.216 580.007 158.216C581.429 158.216 582.815 157.64 583.643 156.758L582.941 155.48C582.239 156.218 581.141 156.704 580.133 156.704C578.243 156.704 576.911 155.282 576.911 153.428C576.911 151.574 578.243 150.188 580.079 150.188C581.033 150.188 581.987 150.62 582.599 151.232L583.427 150.008C582.563 149.09 581.213 148.676 580.007 148.676C577.145 148.676 575.129 150.746 575.129 153.446ZM590.032 158H593.92C595.9 158 597.268 157.1 597.268 155.408C597.268 154.4 596.674 153.518 595.54 153.248V153.23C596.368 152.87 596.836 152.114 596.836 151.232C596.836 149.702 595.63 148.892 593.794 148.892H590.032V158ZM591.778 152.744V150.098H593.434C594.532 150.098 595.054 150.53 595.054 151.358C595.054 152.204 594.532 152.744 593.488 152.744H591.778ZM591.778 156.776V153.914H593.632C594.838 153.914 595.504 154.454 595.504 155.354C595.504 156.2 594.91 156.776 593.65 156.776H591.778ZM598.627 155.516C598.627 157.226 600.085 158.216 601.669 158.216C603.019 158.216 604.135 157.406 604.657 156.362H604.693C604.693 156.362 604.639 156.668 604.639 157.082V158H606.277V152.24C606.277 149.936 604.963 148.676 602.677 148.676C601.399 148.676 600.013 149.144 599.275 149.756L599.977 151.034C600.715 150.512 601.633 150.152 602.533 150.152C603.667 150.152 604.531 150.656 604.531 152.15V152.33H604.063C602.173 152.33 598.627 152.654 598.627 155.516ZM600.373 155.372C600.373 153.698 602.785 153.59 604.081 153.59H604.531V153.932C604.531 155.282 603.613 156.83 602.083 156.83C600.949 156.83 600.373 156.092 600.373 155.372ZM608.48 158H610.172L610.568 152.582C610.604 152.042 610.55 151.016 610.55 151.016H610.586C610.586 151.016 610.874 151.7 611.162 152.366L613.322 156.902H614.816L616.976 152.348C617.318 151.646 617.552 151.016 617.552 151.016H617.588C617.588 151.016 617.552 152.042 617.57 152.582L617.966 158H619.658L618.866 148.892H616.958L614.582 154.04C614.348 154.598 614.078 155.264 614.078 155.264H614.042C614.042 155.264 613.79 154.58 613.538 154.04L611.216 148.892H609.272L608.48 158ZM622.006 158H623.68L627.622 152.564C627.91 152.132 628.36 151.52 628.414 151.358H628.45C628.45 151.502 628.396 152.132 628.396 152.564V158H630.088V148.892H628.396L624.472 154.328C624.166 154.76 623.734 155.39 623.662 155.552H623.626C623.644 155.462 623.68 154.814 623.68 154.328V148.892H622.006V158Z" fill="white"/>
<path d="M478.396 129.168C481.112 129.168 481.994 126.872 481.994 124.016C481.994 121.16 481.112 118.892 478.396 118.892C475.68 118.892 474.784 121.16 474.784 124.016C474.784 126.872 475.68 129.168 478.396 129.168ZM478.396 127.516C477.038 127.516 476.646 125.976 476.646 124.016C476.646 122.084 477.038 120.558 478.396 120.558C479.754 120.558 480.146 122.084 480.146 124.016C480.146 125.976 479.754 127.516 478.396 127.516ZM483.603 129H490.197V127.446H485.507C485.591 125.57 490.043 125.024 490.043 121.832C490.043 119.956 488.545 118.892 486.809 118.892C485.213 118.892 484.093 119.816 483.519 120.88L484.863 121.776C485.227 121.132 485.899 120.6 486.655 120.6C487.495 120.6 488.167 121.118 488.167 121.986C488.167 123.96 483.519 124.534 483.519 128.118C483.519 128.398 483.547 128.678 483.603 129Z" fill="white"/>
<path d="M509.882 80.556C509.882 84.3 512.744 87.216 516.416 87.216C520.088 87.216 522.932 84.3 522.932 80.556C522.932 76.902 520.088 74.076 516.416 74.076C512.744 74.076 509.882 76.902 509.882 80.556ZM511.718 80.556C511.718 77.802 513.806 75.696 516.416 75.696C519.008 75.696 521.096 77.802 521.096 80.556C521.096 83.4 519.008 85.578 516.416 85.578C513.806 85.578 511.718 83.4 511.718 80.556ZM525.063 87H526.809V79.386H531.273V87H533.019V77.892H525.063V87ZM535.715 90.6H537.461V86.46C537.461 85.992 537.389 85.668 537.389 85.668H537.425C538.055 86.64 539.099 87.216 540.251 87.216C542.645 87.216 544.373 85.344 544.373 82.446C544.373 79.62 542.843 77.676 540.377 77.676C539.045 77.676 537.893 78.288 537.317 79.386H537.281C537.281 79.386 537.335 79.08 537.335 78.702V77.892H535.715V90.6ZM537.407 82.482C537.407 80.178 538.667 79.206 540.035 79.206C541.547 79.206 542.609 80.484 542.609 82.464C542.609 84.534 541.421 85.704 539.981 85.704C538.307 85.704 537.407 84.102 537.407 82.482ZM545.932 82.446C545.932 85.146 547.912 87.216 550.774 87.216C552.034 87.216 553.42 86.73 554.302 85.92L553.564 84.642C552.844 85.29 551.854 85.704 550.882 85.704C549.244 85.704 547.84 84.642 547.75 82.68H554.374C554.41 82.428 554.446 82.176 554.446 81.942C554.446 79.602 553.078 77.676 550.504 77.676C547.912 77.676 545.932 79.548 545.932 82.446ZM547.804 81.42C548.056 79.908 549.118 79.026 550.468 79.026C551.656 79.026 552.628 79.854 552.682 81.42H547.804ZM558.327 85.56C559.479 83.76 559.623 81.168 559.623 79.8V79.314H562.359V85.56H558.327ZM555.411 85.56V89.16H557.049V87H563.799V89.16H565.401V85.56H564.105V77.892H557.949V79.566C557.949 80.97 557.805 83.814 556.527 85.56H555.411ZM566.533 82.446C566.533 85.146 568.513 87.216 571.375 87.216C572.635 87.216 574.021 86.73 574.903 85.92L574.165 84.642C573.445 85.29 572.455 85.704 571.483 85.704C569.845 85.704 568.441 84.642 568.351 82.68H574.975C575.011 82.428 575.047 82.176 575.047 81.942C575.047 79.602 573.679 77.676 571.105 77.676C568.513 77.676 566.533 79.548 566.533 82.446ZM568.405 81.42C568.657 79.908 569.719 79.026 571.069 79.026C572.257 79.026 573.229 79.854 573.283 81.42H568.405ZM576.157 87.09C578.839 86.946 579.883 84.822 579.883 80.7V79.332H582.565V87H584.311V77.892H578.209V80.7C578.209 83.994 577.489 85.326 576.157 85.524V87.09ZM587.008 87H588.682L592.624 81.564C592.912 81.132 593.362 80.52 593.416 80.358H593.452C593.452 80.502 593.398 81.132 593.398 81.564V87H595.09V77.892H593.398L589.474 83.328C589.168 83.76 588.736 84.39 588.664 84.552H588.628C588.646 84.462 588.682 83.814 588.682 83.328V77.892H587.008V87ZM597.388 87H599.08L599.476 81.582C599.512 81.042 599.458 80.016 599.458 80.016H599.494C599.494 80.016 599.782 80.7 600.07 81.366L602.23 85.902H603.724L605.884 81.348C606.226 80.646 606.46 80.016 606.46 80.016H606.496C606.496 80.016 606.46 81.042 606.478 81.582L606.874 87H608.566L607.774 77.892H605.866L603.49 83.04C603.256 83.598 602.986 84.264 602.986 84.264H602.95C602.95 84.264 602.698 83.58 602.446 83.04L600.124 77.892H598.18L597.388 87ZM615.414 87H619.302C621.282 87 622.65 86.1 622.65 84.408C622.65 83.4 622.056 82.518 620.922 82.248V82.23C621.75 81.87 622.218 81.114 622.218 80.232C622.218 78.702 621.012 77.892 619.176 77.892H615.414V87ZM617.16 81.744V79.098H618.816C619.914 79.098 620.436 79.53 620.436 80.358C620.436 81.204 619.914 81.744 618.87 81.744H617.16ZM617.16 85.776V82.914H619.014C620.22 82.914 620.886 83.454 620.886 84.354C620.886 85.2 620.292 85.776 619.032 85.776H617.16ZM624.01 84.516C624.01 86.226 625.468 87.216 627.052 87.216C628.402 87.216 629.518 86.406 630.04 85.362H630.076C630.076 85.362 630.022 85.668 630.022 86.082V87H631.66V81.24C631.66 78.936 630.346 77.676 628.06 77.676C626.782 77.676 625.396 78.144 624.658 78.756L625.36 80.034C626.098 79.512 627.016 79.152 627.916 79.152C629.05 79.152 629.914 79.656 629.914 81.15V81.33H629.446C627.556 81.33 624.01 81.654 624.01 84.516ZM625.756 84.372C625.756 82.698 628.168 82.59 629.464 82.59H629.914V82.932C629.914 84.282 628.996 85.83 627.466 85.83C626.332 85.83 625.756 85.092 625.756 84.372ZM634.241 87H646.013V77.892H644.339V85.488H640.973V77.892H639.281V85.488H635.915V77.892H634.241V87ZM652.757 88.89L652.145 90.222C652.145 90.222 652.883 90.78 653.891 90.78C655.169 90.78 656.303 90.06 656.843 88.638L661.127 77.892H659.237L657.023 83.868C656.861 84.336 656.717 84.948 656.717 84.948H656.681C656.681 84.948 656.519 84.3 656.339 83.85L654.053 77.892H652.091L655.907 86.892L655.457 87.936C655.115 88.764 654.521 89.286 653.801 89.286C653.261 89.286 652.757 88.89 652.757 88.89ZM662.84 90.6H664.586V86.46C664.586 85.992 664.514 85.668 664.514 85.668H664.55C665.18 86.64 666.224 87.216 667.376 87.216C669.77 87.216 671.498 85.344 671.498 82.446C671.498 79.62 669.968 77.676 667.502 77.676C666.17 77.676 665.018 78.288 664.442 79.386H664.406C664.406 79.386 664.46 79.08 664.46 78.702V77.892H662.84V90.6ZM664.532 82.482C664.532 80.178 665.792 79.206 667.16 79.206C668.672 79.206 669.734 80.484 669.734 82.464C669.734 84.534 668.546 85.704 667.106 85.704C665.432 85.704 664.532 84.102 664.532 82.482ZM673.057 82.428C673.057 85.2 675.253 87.216 677.971 87.216C680.671 87.216 682.867 85.2 682.867 82.428C682.867 79.674 680.671 77.676 677.953 77.676C675.253 77.676 673.057 79.674 673.057 82.428ZM674.839 82.428C674.839 80.538 676.243 79.188 677.971 79.188C679.681 79.188 681.103 80.538 681.103 82.428C681.103 84.336 679.681 85.704 677.971 85.704C676.243 85.704 674.839 84.336 674.839 82.428ZM684.971 87H688.859C690.839 87 692.207 86.1 692.207 84.408C692.207 83.4 691.613 82.518 690.479 82.248V82.23C691.307 81.87 691.775 81.114 691.775 80.232C691.775 78.702 690.569 77.892 688.733 77.892H684.971V87ZM686.717 81.744V79.098H688.373C689.471 79.098 689.993 79.53 689.993 80.358C689.993 81.204 689.471 81.744 688.427 81.744H686.717ZM686.717 85.776V82.914H688.571C689.777 82.914 690.443 83.454 690.443 84.354C690.443 85.2 689.849 85.776 688.589 85.776H686.717ZM693.729 82.446C693.729 85.146 695.709 87.216 698.571 87.216C699.831 87.216 701.217 86.73 702.099 85.92L701.361 84.642C700.641 85.29 699.651 85.704 698.679 85.704C697.041 85.704 695.637 84.642 695.547 82.68H702.171C702.207 82.428 702.243 82.176 702.243 81.942C702.243 79.602 700.875 77.676 698.301 77.676C695.709 77.676 693.729 79.548 693.729 82.446ZM695.601 81.42C695.853 79.908 696.915 79.026 698.265 79.026C699.453 79.026 700.425 79.854 700.479 81.42H695.601ZM704.342 87H706.088V83.094H710.696V87H712.442V77.892H710.696V81.6H706.088V77.892H704.342V87ZM715.135 87H718.681C720.985 87 722.029 85.83 722.029 84.12C722.029 82.05 720.607 81.186 718.717 81.186H716.881V77.892H715.135V87ZM716.881 85.74V82.446H718.447C719.707 82.446 720.247 83.13 720.247 84.102C720.247 85.056 719.707 85.74 718.447 85.74H716.881Z" fill="white"/>
<path d="M478.396 86.168C481.112 86.168 481.994 83.872 481.994 81.016C481.994 78.16 481.112 75.892 478.396 75.892C475.68 75.892 474.784 78.16 474.784 81.016C474.784 83.872 475.68 86.168 478.396 86.168ZM478.396 84.516C477.038 84.516 476.646 82.976 476.646 81.016C476.646 79.084 477.038 77.558 478.396 77.558C479.754 77.558 480.146 79.084 480.146 81.016C480.146 82.976 479.754 84.516 478.396 84.516ZM483.575 86H489.651V84.446H487.495V76.06H485.913L483.421 78.454L484.485 79.574L485.283 78.818C485.605 78.496 485.731 78.258 485.731 78.258H485.759C485.759 78.258 485.745 78.594 485.745 78.93V84.446H483.575V86Z" fill="white"/>
<path d="M510.674 201H512.456V196.302H515.336C517.658 196.302 519.314 194.682 519.314 192.27C519.314 189.858 517.658 188.292 515.336 188.292H510.674V201ZM512.456 194.754V189.84H515.066C516.56 189.84 517.514 190.758 517.514 192.27C517.514 193.8 516.56 194.754 515.048 194.754H512.456ZM520.246 198.516C520.246 200.226 521.704 201.216 523.288 201.216C524.638 201.216 525.754 200.406 526.276 199.362H526.312C526.312 199.362 526.258 199.668 526.258 200.082V201H527.896V195.24C527.896 192.936 526.582 191.676 524.296 191.676C523.018 191.676 521.632 192.144 520.894 192.756L521.596 194.034C522.334 193.512 523.252 193.152 524.152 193.152C525.286 193.152 526.15 193.656 526.15 195.15V195.33H525.682C523.792 195.33 520.246 195.654 520.246 198.516ZM521.992 198.372C521.992 196.698 524.404 196.59 525.7 196.59H526.15V196.932C526.15 198.282 525.232 199.83 523.702 199.83C522.568 199.83 521.992 199.092 521.992 198.372ZM529.595 199.884C530.351 200.604 531.539 201.216 532.943 201.216C534.815 201.216 536.435 200.262 536.435 198.39C536.435 197.22 535.715 196.536 534.797 196.248V196.212C535.517 195.906 536.129 195.276 536.129 194.142C536.129 192.522 534.779 191.676 533.051 191.676C531.611 191.676 530.585 192.144 529.883 192.666L530.531 193.836C531.233 193.314 531.953 193.044 532.745 193.044C533.753 193.044 534.365 193.512 534.365 194.358C534.365 195.276 533.663 195.672 532.637 195.672H531.683V196.932H532.799C534.077 196.932 534.671 197.436 534.671 198.318C534.671 199.308 533.825 199.812 532.781 199.812C531.683 199.812 530.819 199.164 530.405 198.732L529.595 199.884ZM538.149 195.762C538.149 198.912 539.535 201.216 542.613 201.216C545.187 201.216 546.915 199.416 546.915 196.896C546.915 194.322 545.331 192.702 543.045 192.702C541.839 192.702 540.633 193.098 539.823 194.322H539.787C539.913 192.576 540.777 191.514 542.595 190.686L546.087 189.228L545.511 187.788L542.253 189.192C539.085 190.524 538.149 192.504 538.149 195.762ZM539.967 196.896C539.967 195.294 541.065 194.088 542.613 194.088C543.981 194.088 545.151 195.15 545.151 196.932C545.151 198.696 543.981 199.74 542.541 199.74C541.137 199.74 539.967 198.696 539.967 196.896ZM548.498 196.446C548.498 199.146 550.478 201.216 553.34 201.216C554.6 201.216 555.986 200.73 556.868 199.92L556.13 198.642C555.41 199.29 554.42 199.704 553.448 199.704C551.81 199.704 550.406 198.642 550.316 196.68H556.94C556.976 196.428 557.012 196.176 557.012 195.942C557.012 193.602 555.644 191.676 553.07 191.676C550.478 191.676 548.498 193.548 548.498 196.446ZM550.37 195.42C550.622 193.908 551.684 193.026 553.034 193.026C554.222 193.026 555.194 193.854 555.248 195.42H550.37ZM559.112 204.6H560.858V200.46C560.858 199.992 560.786 199.668 560.786 199.668H560.822C561.452 200.64 562.496 201.216 563.648 201.216C566.042 201.216 567.77 199.344 567.77 196.446C567.77 193.62 566.24 191.676 563.774 191.676C562.442 191.676 561.29 192.288 560.714 193.386H560.678C560.678 193.386 560.732 193.08 560.732 192.702V191.892H559.112V204.6ZM560.804 196.482C560.804 194.178 562.064 193.206 563.432 193.206C564.944 193.206 566.006 194.484 566.006 196.464C566.006 198.534 564.818 199.704 563.378 199.704C561.704 199.704 560.804 198.102 560.804 196.482ZM569.328 196.446C569.328 199.146 571.308 201.216 574.17 201.216C575.43 201.216 576.816 200.73 577.698 199.92L576.96 198.642C576.24 199.29 575.25 199.704 574.278 199.704C572.64 199.704 571.236 198.642 571.146 196.68H577.77C577.806 196.428 577.842 196.176 577.842 195.942C577.842 193.602 576.474 191.676 573.9 191.676C571.308 191.676 569.328 193.548 569.328 196.446ZM571.2 195.42C571.452 193.908 572.514 193.026 573.864 193.026C575.052 193.026 576.024 193.854 576.078 195.42H571.2ZM579.564 201H581.256L581.652 195.582C581.688 195.042 581.634 194.016 581.634 194.016H581.67C581.67 194.016 581.958 194.7 582.246 195.366L584.406 199.902H585.9L588.06 195.348C588.402 194.646 588.636 194.016 588.636 194.016H588.672C588.672 194.016 588.636 195.042 588.654 195.582L589.05 201H590.742L589.95 191.892H588.042L585.666 197.04C585.432 197.598 585.162 198.264 585.162 198.264H585.126C585.126 198.264 584.874 197.58 584.622 197.04L582.3 191.892H580.356L579.564 201ZM592.496 196.446C592.496 199.182 594.494 201.216 597.374 201.216C598.796 201.216 600.182 200.64 601.01 199.758L600.308 198.48C599.606 199.218 598.508 199.704 597.5 199.704C595.61 199.704 594.278 198.282 594.278 196.428C594.278 194.574 595.61 193.188 597.446 193.188C598.4 193.188 599.354 193.62 599.966 194.232L600.794 193.008C599.93 192.09 598.58 191.676 597.374 191.676C594.512 191.676 592.496 193.746 592.496 196.446ZM601.981 201H603.907L606.139 197.706H607.669V201H609.415V191.892H605.779C603.853 191.892 602.521 192.882 602.521 194.754C602.521 196.14 603.457 197.112 604.501 197.4V197.418C604.501 197.418 604.285 197.652 604.087 197.976L601.981 201ZM606.157 196.428C605.095 196.428 604.285 195.87 604.285 194.736C604.285 193.566 605.041 193.098 606.211 193.098H607.669V196.428H606.157ZM616.016 196.446C616.016 199.182 618.014 201.216 620.894 201.216C622.316 201.216 623.702 200.64 624.53 199.758L623.828 198.48C623.126 199.218 622.028 199.704 621.02 199.704C619.13 199.704 617.798 198.282 617.798 196.428C617.798 194.574 619.13 193.188 620.966 193.188C621.92 193.188 622.874 193.62 623.486 194.232L624.314 193.008C623.45 192.09 622.1 191.676 620.894 191.676C618.032 191.676 616.016 193.746 616.016 196.446ZM630.036 199.884C630.792 200.604 631.98 201.216 633.384 201.216C635.256 201.216 636.876 200.262 636.876 198.39C636.876 197.22 636.156 196.536 635.238 196.248V196.212C635.958 195.906 636.57 195.276 636.57 194.142C636.57 192.522 635.22 191.676 633.492 191.676C632.052 191.676 631.026 192.144 630.324 192.666L630.972 193.836C631.674 193.314 632.394 193.044 633.186 193.044C634.194 193.044 634.806 193.512 634.806 194.358C634.806 195.276 634.104 195.672 633.078 195.672H632.124V196.932H633.24C634.518 196.932 635.112 197.436 635.112 198.318C635.112 199.308 634.266 199.812 633.222 199.812C632.124 199.812 631.26 199.164 630.846 198.732L630.036 199.884ZM638.231 198.516C638.231 200.226 639.689 201.216 641.273 201.216C642.623 201.216 643.739 200.406 644.261 199.362H644.297C644.297 199.362 644.243 199.668 644.243 200.082V201H645.881V195.24C645.881 192.936 644.567 191.676 642.281 191.676C641.003 191.676 639.617 192.144 638.879 192.756L639.581 194.034C640.319 193.512 641.237 193.152 642.137 193.152C643.271 193.152 644.135 193.656 644.135 195.15V195.33H643.667C641.777 195.33 638.231 195.654 638.231 198.516ZM639.977 198.372C639.977 196.698 642.389 196.59 643.685 196.59H644.135V196.932C644.135 198.282 643.217 199.83 641.687 199.83C640.553 199.83 639.977 199.092 639.977 198.372ZM648.461 201H650.207V197.058H651.521L654.239 201H656.309L652.907 196.266V196.23L655.949 191.892H653.969L651.485 195.564H650.207V191.892H648.461V201ZM656.885 196.428C656.885 199.2 659.081 201.216 661.799 201.216C664.499 201.216 666.695 199.2 666.695 196.428C666.695 193.674 664.499 191.676 661.781 191.676C659.081 191.676 656.885 193.674 656.885 196.428ZM658.667 196.428C658.667 194.538 660.071 193.188 661.799 193.188C663.509 193.188 664.931 194.538 664.931 196.428C664.931 198.336 663.509 199.704 661.799 199.704C660.071 199.704 658.667 198.336 658.667 196.428ZM668.799 201H670.545V197.094H675.153V201H676.899V191.892H675.153V195.6H670.545V191.892H668.799V201ZM678.836 198.516C678.836 200.226 680.294 201.216 681.878 201.216C683.228 201.216 684.344 200.406 684.866 199.362H684.902C684.902 199.362 684.848 199.668 684.848 200.082V201H686.486V195.24C686.486 192.936 685.172 191.676 682.886 191.676C681.608 191.676 680.222 192.144 679.484 192.756L680.186 194.034C680.924 193.512 681.842 193.152 682.742 193.152C683.876 193.152 684.74 193.656 684.74 195.15V195.33H684.272C682.382 195.33 678.836 195.654 678.836 198.516ZM680.582 198.372C680.582 196.698 682.994 196.59 684.29 196.59H684.74V196.932C684.74 198.282 683.822 199.83 682.292 199.83C681.158 199.83 680.582 199.092 680.582 198.372ZM688.689 201H690.381L690.777 195.582C690.813 195.042 690.759 194.016 690.759 194.016H690.795C690.795 194.016 691.083 194.7 691.371 195.366L693.531 199.902H695.025L697.185 195.348C697.527 194.646 697.761 194.016 697.761 194.016H697.797C697.797 194.016 697.761 195.042 697.779 195.582L698.175 201H699.867L699.075 191.892H697.167L694.791 197.04C694.557 197.598 694.287 198.264 694.287 198.264H694.251C694.251 198.264 693.999 197.58 693.747 197.04L691.425 191.892H689.481L688.689 201ZM702.215 201H703.889L707.831 195.564C708.119 195.132 708.569 194.52 708.623 194.358H708.659C708.659 194.502 708.605 195.132 708.605 195.564V201H710.297V191.892H708.605L704.681 197.328C704.375 197.76 703.943 198.39 703.871 198.552H703.835C703.853 198.462 703.889 197.814 703.889 197.328V191.892H702.215V201ZM717.797 201H719.579V195.42H726.185V201H727.949V188.292H726.185V193.872H719.579V188.292H717.797V201ZM730.868 201H734.414C736.718 201 737.762 199.83 737.762 198.12C737.762 196.05 736.34 195.186 734.45 195.186H732.614V191.892H730.868V201ZM732.614 199.74V196.446H734.18C735.44 196.446 735.98 197.13 735.98 198.102C735.98 199.056 735.44 199.74 734.18 199.74H732.614ZM739.639 201H741.385V197.148H743.041C743.365 199.524 745.291 201.216 747.703 201.216C750.331 201.216 752.437 199.2 752.437 196.428C752.437 193.674 750.331 191.676 747.685 191.676C745.291 191.676 743.365 193.35 743.041 195.708H741.385V191.892H739.639V201ZM744.733 196.428C744.733 194.538 746.047 193.188 747.703 193.188C749.341 193.188 750.655 194.538 750.655 196.428C750.655 198.336 749.341 199.704 747.703 199.704C746.047 199.704 744.733 198.336 744.733 196.428ZM756.442 201H758.17V193.386H761.356V191.892H753.274V193.386H756.442V201ZM762.178 196.428C762.178 199.2 764.374 201.216 767.092 201.216C769.792 201.216 771.988 199.2 771.988 196.428C771.988 193.674 769.792 191.676 767.074 191.676C764.374 191.676 762.178 193.674 762.178 196.428ZM763.96 196.428C763.96 194.538 765.364 193.188 767.092 193.188C768.802 193.188 770.224 194.538 770.224 196.428C770.224 198.336 768.802 199.704 767.092 199.704C765.364 199.704 763.96 198.336 763.96 196.428ZM774.092 201H775.838V197.094H780.446V201H782.192V191.892H780.446V195.6H775.838V191.892H774.092V201ZM784.129 198.516C784.129 200.226 785.587 201.216 787.171 201.216C788.521 201.216 789.637 200.406 790.159 199.362H790.195C790.195 199.362 790.141 199.668 790.141 200.082V201H791.779V195.24C791.779 192.936 790.465 191.676 788.179 191.676C786.901 191.676 785.515 192.144 784.777 192.756L785.479 194.034C786.217 193.512 787.135 193.152 788.035 193.152C789.169 193.152 790.033 193.656 790.033 195.15V195.33H789.565C787.675 195.33 784.129 195.654 784.129 198.516ZM785.875 198.372C785.875 196.698 788.287 196.59 789.583 196.59H790.033V196.932C790.033 198.282 789.115 199.83 787.585 199.83C786.451 199.83 785.875 199.092 785.875 198.372Z" fill="white"/>
<path d="M478.396 200.168C481.112 200.168 481.994 197.872 481.994 195.016C481.994 192.16 481.112 189.892 478.396 189.892C475.68 189.892 474.784 192.16 474.784 195.016C474.784 197.872 475.68 200.168 478.396 200.168ZM478.396 198.516C477.038 198.516 476.646 196.976 476.646 195.016C476.646 193.084 477.038 191.558 478.396 191.558C479.754 191.558 480.146 193.084 480.146 195.016C480.146 196.976 479.754 198.516 478.396 198.516ZM483.323 198.838C484.191 199.72 485.437 200.168 486.613 200.168C488.839 200.168 490.113 198.6 490.113 196.906C490.113 195.184 488.783 194.204 487.411 194.008L489.833 191.194V190.06H483.771V191.614H486.739C487.313 191.614 487.621 191.572 487.621 191.572V191.6C487.621 191.6 487.285 191.894 486.907 192.356L485.087 194.512L485.479 195.436H486.165C487.341 195.436 488.293 195.926 488.293 196.976C488.293 197.83 487.537 198.46 486.515 198.46C485.633 198.46 484.779 197.998 484.247 197.452L483.323 198.838Z" fill="white"/>
</svg>
