<svg width="918" height="513" viewBox="0 0 918 513" fill="none" xmlns="http://www.w3.org/2000/svg">
<rect width="918" height="513" rx="6" fill="#64A15E"/>
<mask id="mask0" mask-type="alpha" maskUnits="userSpaceOnUse" x="0" y="0" width="918" height="513">
<rect width="918" height="513" rx="6" fill="#64A15E"/>
</mask>
<g mask="url(#mask0)">
<path d="M309.662 199.033C322.968 199.033 333.755 209.778 333.755 223.033C333.755 236.289 322.968 247.033 309.662 247.033C296.355 247.033 285.568 236.289 285.568 223.033C285.568 209.778 296.355 199.033 309.662 199.033Z" fill="#69A763"/>
<path d="M469.885 406.635C469.885 393.38 480.671 382.635 493.978 382.635C507.285 382.635 518.071 393.38 518.071 406.635C518.071 419.89 507.285 430.635 493.978 430.635C480.671 430.635 469.885 419.89 469.885 406.635Z" fill="#69A763"/>
<path d="M101.256 406.635C101.256 393.38 112.042 382.635 125.349 382.635C138.656 382.635 149.442 393.38 149.442 406.635C149.442 419.89 138.656 430.635 125.349 430.635C112.042 430.635 101.256 419.89 101.256 406.635Z" fill="#69A763"/>
<path d="M422.945 293.781C413.534 284.409 413.534 269.212 422.945 259.84C432.353 250.468 447.609 250.468 457.017 259.84C466.425 269.212 466.425 284.409 457.017 293.781C447.609 303.153 432.353 303.153 422.945 293.781Z" fill="#69A763"/>
<path d="M162.289 553.425C152.88 544.053 152.88 528.859 162.289 519.484C171.7 510.112 186.953 510.112 196.361 519.484C205.772 528.859 205.772 544.053 196.361 553.425C186.953 562.799 171.7 562.799 162.289 553.425Z" fill="#69A763"/>
<path d="M196.363 293.777C186.952 303.149 171.699 303.149 162.291 293.777C152.88 284.402 152.88 269.208 162.291 259.833C171.699 250.461 186.952 250.461 196.363 259.833C205.772 269.208 205.772 284.402 196.363 293.777Z" fill="#69A763"/>
<path d="M457.016 553.425C447.607 562.797 432.351 562.797 422.943 553.425C413.535 544.053 413.535 528.856 422.943 519.484C432.351 510.112 447.607 510.112 457.016 519.484C466.426 528.856 466.426 544.053 457.016 553.425Z" fill="#69A763"/>
<path d="M161.894 344.933C156.75 357.156 142.631 362.914 130.36 357.787C118.087 352.663 112.31 338.602 117.454 326.376C122.598 314.153 136.716 308.395 148.987 313.519C161.26 318.643 167.038 332.707 161.894 344.933Z" fill="#69A763"/>
<path d="M501.864 486.888C496.72 499.114 482.602 504.869 470.331 499.745C458.058 494.621 452.28 480.557 457.424 468.334C462.568 456.108 476.687 450.353 488.957 455.477C501.231 460.601 507.008 474.665 501.864 486.888Z" fill="#69A763"/>
<path d="M390.232 215.175C402.502 220.299 408.28 234.362 403.136 246.588C397.992 258.811 383.873 264.566 371.603 259.442C359.329 254.318 353.552 240.254 358.696 228.031C363.84 215.806 377.958 210.051 390.232 215.175Z" fill="#69A763"/>
<path d="M230.714 214.501C243.028 209.48 257.098 215.355 262.138 227.622C267.176 239.89 261.281 253.903 248.964 258.924C236.65 263.945 222.582 258.07 217.542 245.803C212.501 233.536 218.4 219.521 230.714 214.501Z" fill="#69A763"/>
<path d="M457.936 346.179C452.896 333.913 458.794 319.899 471.11 314.879C483.424 309.858 497.492 315.733 502.532 327.999C507.573 340.266 501.675 354.282 489.361 359.303C477.047 364.324 462.977 358.448 457.936 346.179Z" fill="#69A763"/>
<path d="M116.784 485.27C111.744 473.002 117.642 458.988 129.956 453.967C142.272 448.946 156.34 454.822 161.381 467.088C166.421 479.354 160.523 493.37 148.209 498.391C135.895 503.412 121.824 497.537 116.784 485.27Z" fill="#69A763"/>
<path d="M84.9691 364.321C83.1934 373.429 74.3392 379.378 65.1959 377.607C56.0525 375.838 50.0821 367.018 51.8602 357.91C53.6359 348.802 62.4902 342.855 71.6336 344.624C80.7769 346.395 86.7472 355.215 84.9691 364.321Z" fill="#69A763"/>
<path d="M567.44 457.738C565.664 466.846 556.81 472.795 547.666 471.024C538.523 469.253 532.553 460.435 534.331 451.327C536.107 442.219 544.961 436.272 554.104 438.041C563.247 439.812 569.218 448.63 567.44 457.738Z" fill="#69A763"/>
<path d="M359.766 151.033C368.909 152.803 374.879 161.622 373.104 170.73C371.326 179.838 362.474 185.786 353.331 184.016C344.188 182.245 338.215 173.427 339.993 164.319C341.771 155.211 350.623 149.263 359.766 151.033Z" fill="#69A763"/>
<path d="M527.366 261.539C532.575 269.231 530.536 279.671 522.815 284.859C515.093 290.048 504.61 288.018 499.403 280.326C494.194 272.634 496.23 262.191 503.955 257.005C511.676 251.816 522.157 253.844 527.366 261.539Z" fill="#69A763"/>
<path d="M162.801 190.945C170.523 185.757 181.006 187.786 186.215 195.478C191.422 203.171 189.386 213.612 181.664 218.801C173.942 223.989 163.459 221.96 158.25 214.267C153.041 206.575 155.08 196.133 162.801 190.945Z" fill="#69A763"/>
<path d="M85.4193 453.599C87.2889 462.69 81.4079 471.567 72.2839 473.43C63.1599 475.292 54.2455 469.434 52.3759 460.345C50.5063 451.254 56.3874 442.376 65.5138 440.514C74.6378 438.651 83.5497 444.51 85.4193 453.599Z" fill="#69A763"/>
<path d="M566.928 355.319C568.797 364.408 562.916 373.288 553.792 375.151C544.665 377.013 535.753 371.155 533.884 362.063C532.014 352.975 537.895 344.097 547.019 342.235C556.143 340.372 565.058 346.231 566.928 355.319Z" fill="#69A763"/>
<path d="M256.939 151.556C266.063 149.694 274.978 155.552 276.847 164.642C278.717 173.731 272.836 182.61 263.709 184.472C254.585 186.335 245.673 180.476 243.804 171.386C241.934 162.297 247.815 153.419 256.939 151.556Z" fill="#69A763"/>
<path d="M454.3 189.485C462.075 194.595 464.219 205.015 459.089 212.76C453.958 220.504 443.496 222.639 435.724 217.529C427.949 212.419 425.805 201.998 430.934 194.254C436.066 186.509 446.527 184.374 454.3 189.485Z" fill="#69A763"/>
<path d="M90.4584 263.752C95.5878 256.007 106.049 253.871 113.824 258.983C121.599 264.093 123.741 274.514 118.611 282.258C113.482 290.001 103.021 292.137 95.2457 287.027C87.4708 281.918 85.3289 271.497 90.4584 263.752Z" fill="#69A763"/>
<path d="M32.5932 407.832C32.5932 414.458 27.1987 419.832 20.5466 419.832C13.8921 419.832 8.5 414.458 8.5 407.832C8.5 401.203 13.8921 395.832 20.5466 395.832C27.1987 395.832 32.5932 401.203 32.5932 407.832Z" fill="#69A763"/>
<path d="M610.828 407.832C610.828 414.458 605.433 419.832 598.781 419.832C592.126 419.832 586.734 414.458 586.734 407.832C586.734 401.203 592.126 395.832 598.781 395.832C605.433 395.832 610.828 401.203 610.828 407.832Z" fill="#69A763"/>
<path d="M309.664 107.831C316.316 107.831 321.71 113.204 321.71 119.831C321.71 126.459 316.316 131.831 309.664 131.831C303.009 131.831 297.617 126.459 297.617 119.831C297.617 113.204 303.009 107.831 309.664 107.831Z" fill="#69A763"/>
<path d="M522.603 195.697C527.306 200.383 527.306 207.981 522.603 212.667C517.897 217.354 510.269 217.354 505.566 212.667C500.861 207.981 500.861 200.383 505.566 195.697C510.269 191.011 517.897 191.011 522.603 195.697Z" fill="#69A763"/>
<path d="M96.705 195.7C101.41 191.014 109.038 191.014 113.744 195.7C118.446 200.386 118.446 207.985 113.744 212.671C109.038 217.357 101.41 217.357 96.705 212.671C92.002 207.985 92.002 200.386 96.705 195.7Z" fill="#69A763"/>
<path d="M53.829 513.838C56.3829 519.958 53.4749 526.981 47.3336 529.527C41.1899 532.071 34.1378 529.174 31.5839 523.057C29.0276 516.937 31.9358 509.912 38.0795 507.368C44.2208 504.822 51.2728 507.718 53.829 513.838Z" fill="#69A763"/>
<path d="M587.713 292.603C590.269 298.723 587.361 305.748 581.217 308.292C575.076 310.838 568.024 307.941 565.467 301.821C562.913 295.701 565.822 288.679 571.963 286.132C578.107 283.588 585.159 286.485 587.713 292.603Z" fill="#69A763"/>
<path d="M193.977 130.841C200.118 128.296 207.17 131.193 209.724 137.312C212.28 143.431 209.372 150.455 203.229 153C197.087 155.546 190.035 152.649 187.479 146.53C184.925 140.411 187.833 133.387 193.977 130.841Z" fill="#69A763"/>
<path d="M424.481 130.494C430.632 133.02 433.562 140.036 431.025 146.163C428.488 152.289 421.445 155.208 415.294 152.681C409.146 150.154 406.216 143.138 408.753 137.012C411.288 130.885 418.33 127.967 424.481 130.494Z" fill="#69A763"/>
<path d="M565.797 513.07C568.334 506.943 575.376 504.024 581.527 506.552C587.678 509.079 590.608 516.094 588.071 522.221C585.534 528.346 578.491 531.264 572.34 528.737C566.192 526.212 563.262 519.197 565.797 513.07Z" fill="#69A763"/>
<path d="M31.2434 293.451C33.7804 287.323 40.8229 284.405 46.974 286.932C53.125 289.459 56.0548 296.475 53.5178 302.602C50.9807 308.729 43.9382 311.647 37.7872 309.12C31.6361 306.593 28.7064 299.578 31.2434 293.451Z" fill="#69A763"/>
<path d="M657.314 340.513C658.33 345.719 654.916 350.759 649.693 351.769C644.467 352.782 639.41 349.381 638.393 344.178C637.379 338.972 640.791 333.935 646.014 332.922C651.24 331.912 656.299 335.31 657.314 340.513Z" fill="#69A763"/>
<path d="M242.085 61.5139C247.311 60.5023 252.368 63.9011 253.384 69.1058C254.399 74.3102 250.987 79.3494 245.764 80.361C240.538 81.3727 235.479 77.9738 234.464 72.7691C233.448 67.5647 236.861 62.5255 242.085 61.5139Z" fill="#69A763"/>
<path d="M507.705 115.347C512.118 118.312 513.282 124.278 510.307 128.674C507.329 133.069 501.339 134.229 496.928 131.264C492.514 128.299 491.35 122.333 494.326 117.937C497.304 113.542 503.293 112.382 507.705 115.347Z" fill="#69A763"/>
<path d="M16.0387 210.551C19.0166 206.156 25.0063 204.996 29.4177 207.961C33.8316 210.926 34.9952 216.892 32.0197 221.288C29.0418 225.683 23.0523 226.843 18.6408 223.878C14.2269 220.913 13.0632 214.947 16.0387 210.551Z" fill="#69A763"/>
<path d="M604.595 212.514C607.542 216.929 606.337 222.888 601.906 225.823C597.473 228.758 591.491 227.559 588.544 223.143C585.598 218.728 586.802 212.769 591.235 209.834C595.666 206.899 601.648 208.099 604.595 212.514Z" fill="#69A763"/>
<path d="M113.587 114.032C118.02 111.097 124 112.297 126.947 116.712C129.893 121.127 128.689 127.086 124.258 130.021C119.825 132.957 113.842 131.757 110.896 127.341C107.949 122.926 109.154 116.967 113.587 114.032Z" fill="#69A763"/>
<path d="M379.559 61.9724C384.778 63.0191 388.156 68.0809 387.105 73.2786C386.055 78.476 380.974 81.8413 375.755 80.7947C370.536 79.7483 367.159 74.6862 368.209 69.4888C369.259 64.2911 374.341 60.926 379.559 61.9724Z" fill="#69A763"/>
<path d="M637.973 473.68C639.024 468.482 644.105 465.117 649.321 466.164C654.54 467.21 657.918 472.272 656.867 477.47C655.817 482.668 650.736 486.033 645.517 484.987C640.301 483.94 636.921 478.876 637.973 473.68Z" fill="#69A763"/>
</g>
<path d="M101.432 84.892C104.132 84.892 106.508 84.064 107.768 83.524H107.84C107.84 83.524 107.768 84.172 107.768 84.676V94H114.212V68.26H107.768V77.98C106.868 78.52 105.176 79.168 103.232 79.168C100.856 79.168 99.812 77.8 99.812 75.352V68.26H93.368V76.828C93.368 81.796 95.996 84.892 101.432 84.892ZM122.871 94H129.099V80.68H134.751V75.46H117.255V80.68H122.871V94ZM136.11 84.784C136.11 90.58 140.79 94.432 146.622 94.432C152.454 94.432 157.134 90.58 157.134 84.784C157.134 78.952 152.454 75.028 146.586 75.028C140.79 75.028 136.11 78.952 136.11 84.784ZM142.41 84.784C142.41 81.976 144.354 80.212 146.622 80.212C148.89 80.212 150.834 81.976 150.834 84.784C150.834 87.556 148.89 89.248 146.622 89.248C144.354 89.248 142.41 87.556 142.41 84.784ZM94.088 136H100.316V122.68H105.824V136H112.052V117.46H94.088V136ZM116.236 143.2H122.464V136.252C122.464 135.316 122.392 134.668 122.392 134.668H122.464C123.796 135.82 125.452 136.432 127.18 136.432C132.112 136.432 135.82 132.616 135.82 126.748C135.82 120.988 132.508 117.028 127.468 117.028C125.236 117.028 123.112 117.892 121.852 119.584H121.78C121.78 119.584 121.852 119.008 121.852 118.396V117.46H116.236V143.2ZM122.284 126.856C122.284 123.652 124.048 122.284 125.92 122.284C128.08 122.284 129.556 124.084 129.556 126.856C129.556 129.7 127.864 131.284 125.92 131.284C123.472 131.284 122.284 129.088 122.284 126.856ZM137.974 126.712C137.974 131.644 141.538 136.432 148.162 136.432C151.006 136.432 154.066 135.46 156.082 133.732L153.778 129.376C152.266 130.384 150.502 131.248 148.666 131.248C146.686 131.248 144.814 130.204 144.346 127.936H156.046C156.118 127.288 156.19 126.64 156.19 125.992C156.19 120.844 153.094 117.028 147.622 117.028C141.646 117.028 137.974 121.276 137.974 126.712ZM144.49 124.372C144.814 122.896 145.678 121.6 147.478 121.6C149.062 121.6 150.034 122.86 150.034 124.372H144.49ZM166.143 131.068C167.439 128.584 167.799 125.884 167.799 123.076V122.392H171.003V131.068H166.143ZM157.719 131.068V140.32H163.479V136H174.351V140.32H179.895V131.068H177.231V117.46H161.931V121.924C161.931 125.668 161.247 128.98 160.023 131.068H157.719ZM181.384 136.18C188.584 136.18 190.744 130.996 190.744 123.436V122.392H193.84V136H200.068V117.46H184.876V123.4C184.876 129.772 183.04 130.528 181.384 130.744V136.18ZM202.901 130.78C202.901 133.984 205.385 136.432 208.949 136.432C211.073 136.432 213.233 135.46 214.457 133.732H214.529C214.529 133.732 214.457 134.272 214.457 134.884V136H220.145V124.588C220.145 119.872 216.977 117.028 211.865 117.028C208.841 117.028 205.601 118.216 204.017 119.44L206.177 123.832C207.653 122.86 209.489 122.068 211.289 122.068C212.657 122.068 213.917 122.572 213.917 124.12V124.444H213.377C208.805 124.444 202.901 125.812 202.901 130.78ZM209.057 130.204C209.057 128.512 211.505 128.008 213.413 128.008H213.989V128.512C213.989 130.024 212.621 131.788 210.821 131.788C209.669 131.788 209.057 131.068 209.057 130.204ZM224.096 136H230.324V122.68H237.164V117.46H224.096V136ZM238.197 130.78C238.197 133.984 240.681 136.432 244.245 136.432C246.369 136.432 248.529 135.46 249.753 133.732H249.825C249.825 133.732 249.753 134.272 249.753 134.884V136H255.441V124.588C255.441 119.872 252.273 117.028 247.161 117.028C244.137 117.028 240.897 118.216 239.313 119.44L241.473 123.832C242.949 122.86 244.785 122.068 246.585 122.068C247.953 122.068 249.213 122.572 249.213 124.12V124.444H248.673C244.101 124.444 238.197 125.812 238.197 130.78ZM244.353 130.204C244.353 128.512 246.801 128.008 248.709 128.008H249.285V128.512C249.285 130.024 247.917 131.788 246.117 131.788C244.965 131.788 244.353 131.068 244.353 130.204ZM258.349 126.712C258.349 131.644 261.913 136.432 268.537 136.432C271.381 136.432 274.441 135.46 276.457 133.732L274.153 129.376C272.641 130.384 270.877 131.248 269.041 131.248C267.061 131.248 265.189 130.204 264.721 127.936H276.421C276.493 127.288 276.565 126.64 276.565 125.992C276.565 120.844 273.469 117.028 267.997 117.028C262.021 117.028 258.349 121.276 258.349 126.712ZM264.865 124.372C265.189 122.896 266.053 121.6 267.853 121.6C269.437 121.6 270.409 122.86 270.409 124.372H264.865ZM283.886 136H290.114V122.68H295.766V117.46H278.27V122.68H283.886V136ZM94.7 178H101V170.044H105.392C110.396 170.044 113.78 166.3 113.78 161.116C113.78 155.932 110.396 152.26 105.392 152.26H94.7V178ZM101 164.644V157.66H104.204C106.292 157.66 107.372 159.064 107.372 161.116C107.372 163.168 106.292 164.644 104.096 164.644H101ZM117.341 178H123.641V169.324H126.593L131.165 178H138.185L133.181 169C132.569 167.92 132.209 167.452 132.209 167.452V167.38C134.765 166.084 136.061 163.096 136.061 160.36C136.061 156.616 134.225 153.988 131.309 152.872C130.193 152.44 128.933 152.26 126.305 152.26H117.341V178ZM123.641 163.924V157.66H125.765C126.809 157.66 127.565 157.768 128.141 158.02C129.329 158.488 129.653 159.46 129.653 160.756C129.653 162.808 128.393 163.924 126.377 163.924H123.641ZM139.351 164.968C139.351 172.528 144.823 178.432 152.815 178.432C160.807 178.432 166.279 172.528 166.279 164.968C166.279 157.588 160.807 151.828 152.815 151.828C144.823 151.828 139.351 157.588 139.351 164.968ZM145.867 164.968C145.867 160.756 148.747 157.588 152.815 157.588C156.883 157.588 159.763 160.756 159.763 164.968C159.763 169.36 156.883 172.672 152.815 172.672C148.747 172.672 145.867 169.36 145.867 164.968ZM169.566 178H187.386V172.6H176.262C176.586 169.288 186.99 167.74 186.99 159.712C186.99 154.24 182.418 151.828 178.206 151.828C173.562 151.828 170.646 154.456 169.134 157.372L173.814 160.504C174.57 159.064 175.974 157.768 177.63 157.768C178.962 157.768 180.402 158.524 180.402 160.324C180.402 164.032 169.278 165.724 169.278 175.228C169.278 176.092 169.386 176.992 169.566 178Z" fill="white"/>
<path d="M509.9 265.574C509.9 269.3 512.474 272.216 516.416 272.216C518.666 272.216 520.25 271.28 521.33 270.2L520.376 268.922C519.35 269.948 517.892 270.578 516.47 270.578C513.518 270.578 511.736 268.256 511.736 265.556C511.736 262.874 513.482 260.696 516.434 260.696C517.748 260.696 519.17 261.254 520.106 262.082L521.006 260.75C519.782 259.58 518 259.076 516.362 259.076C512.582 259.076 509.9 261.884 509.9 265.574ZM522.483 267.428C522.483 270.2 524.679 272.216 527.397 272.216C530.097 272.216 532.293 270.2 532.293 267.428C532.293 264.674 530.097 262.676 527.379 262.676C524.679 262.676 522.483 264.674 522.483 267.428ZM524.265 267.428C524.265 265.538 525.669 264.188 527.397 264.188C529.107 264.188 530.529 265.538 530.529 267.428C530.529 269.336 529.107 270.704 527.397 270.704C525.669 270.704 524.265 269.336 524.265 267.428ZM533.803 267.446C533.803 270.182 535.801 272.216 538.681 272.216C540.103 272.216 541.489 271.64 542.317 270.758L541.615 269.48C540.913 270.218 539.815 270.704 538.807 270.704C536.917 270.704 535.585 269.282 535.585 267.428C535.585 265.574 536.917 264.188 538.753 264.188C539.707 264.188 540.661 264.62 541.273 265.232L542.101 264.008C541.237 263.09 539.887 262.676 538.681 262.676C535.819 262.676 533.803 264.746 533.803 267.446ZM546.401 272H548.129V264.386H551.315V262.892H543.233V264.386H546.401V272ZM552.186 269.516C552.186 271.226 553.644 272.216 555.228 272.216C556.578 272.216 557.694 271.406 558.216 270.362H558.252C558.252 270.362 558.198 270.668 558.198 271.082V272H559.836V266.24C559.836 263.936 558.522 262.676 556.236 262.676C554.958 262.676 553.572 263.144 552.834 263.756L553.536 265.034C554.274 264.512 555.192 264.152 556.092 264.152C557.226 264.152 558.09 264.656 558.09 266.15V266.33H557.622C555.732 266.33 552.186 266.654 552.186 269.516ZM553.932 269.372C553.932 267.698 556.344 267.59 557.64 267.59H558.09V267.932C558.09 269.282 557.172 270.83 555.642 270.83C554.508 270.83 553.932 270.092 553.932 269.372ZM562.416 272H566.304C568.284 272 569.652 271.1 569.652 269.408C569.652 268.4 569.058 267.518 567.924 267.248V267.23C568.752 266.87 569.22 266.114 569.22 265.232C569.22 263.702 568.014 262.892 566.178 262.892H562.416V272ZM564.162 266.744V264.098H565.818C566.916 264.098 567.438 264.53 567.438 265.358C567.438 266.204 566.916 266.744 565.872 266.744H564.162ZM564.162 270.776V267.914H566.016C567.222 267.914 567.888 268.454 567.888 269.354C567.888 270.2 567.294 270.776 566.034 270.776H564.162ZM571.768 272H573.442L577.384 266.564C577.672 266.132 578.122 265.52 578.176 265.358H578.212C578.212 265.502 578.158 266.132 578.158 266.564V272H579.85V262.892H578.158L574.234 268.328C573.928 268.76 573.496 269.39 573.424 269.552H573.388C573.406 269.462 573.442 268.814 573.442 268.328V262.892H571.768V272ZM582.148 272H583.84L584.236 266.582C584.272 266.042 584.218 265.016 584.218 265.016H584.254C584.254 265.016 584.542 265.7 584.83 266.366L586.99 270.902H588.484L590.644 266.348C590.986 265.646 591.22 265.016 591.22 265.016H591.256C591.256 265.016 591.22 266.042 591.238 266.582L591.634 272H593.326L592.534 262.892H590.626L588.25 268.04C588.016 268.598 587.746 269.264 587.746 269.264H587.71C587.71 269.264 587.458 268.58 587.206 268.04L584.884 262.892H582.94L582.148 272ZM600.174 272H601.92V264.386H605.88V262.892H600.174V272ZM607.61 275.6H609.356V271.46C609.356 270.992 609.284 270.668 609.284 270.668H609.32C609.95 271.64 610.994 272.216 612.146 272.216C614.54 272.216 616.268 270.344 616.268 267.446C616.268 264.62 614.738 262.676 612.272 262.676C610.94 262.676 609.788 263.288 609.212 264.386H609.176C609.176 264.386 609.23 264.08 609.23 263.702V262.892H607.61V275.6ZM609.302 267.482C609.302 265.178 610.562 264.206 611.93 264.206C613.442 264.206 614.504 265.484 614.504 267.464C614.504 269.534 613.316 270.704 611.876 270.704C610.202 270.704 609.302 269.102 609.302 267.482ZM617.664 269.516C617.664 271.226 619.122 272.216 620.706 272.216C622.056 272.216 623.172 271.406 623.694 270.362H623.73C623.73 270.362 623.676 270.668 623.676 271.082V272H625.314V266.24C625.314 263.936 624 262.676 621.714 262.676C620.436 262.676 619.05 263.144 618.312 263.756L619.014 265.034C619.752 264.512 620.67 264.152 621.57 264.152C622.704 264.152 623.568 264.656 623.568 266.15V266.33H623.1C621.21 266.33 617.664 266.654 617.664 269.516ZM619.41 269.372C619.41 267.698 621.822 267.59 623.118 267.59H623.568V267.932C623.568 269.282 622.65 270.83 621.12 270.83C619.986 270.83 619.41 270.092 619.41 269.372ZM627.319 267.428C627.319 270.236 629.425 272.09 632.251 272.216V275.6H633.925V272.216C636.751 272.09 638.839 270.236 638.839 267.428C638.839 264.638 636.751 262.802 633.925 262.694V259.4H632.251V262.694C629.425 262.802 627.319 264.638 627.319 267.428ZM633.925 270.758V264.134C635.779 264.242 637.129 265.448 637.129 267.428C637.129 269.39 635.779 270.632 633.925 270.758ZM629.047 267.428C629.047 265.448 630.379 264.242 632.251 264.134V270.758C630.379 270.632 629.047 269.39 629.047 267.428ZM640.955 272H642.629L646.571 266.564C646.859 266.132 647.309 265.52 647.363 265.358H647.399C647.399 265.502 647.345 266.132 647.345 266.564V272H649.037V262.892H647.345L643.421 268.328C643.115 268.76 642.683 269.39 642.611 269.552H642.575C642.593 269.462 642.629 268.814 642.629 268.328V262.892H640.955V272ZM651.713 272H653.459V268.058H654.773L657.491 272H659.561L656.159 267.266V267.23L659.201 262.892H657.221L654.737 266.564H653.459V262.892H651.713V272ZM665.618 272H667.292L671.234 266.564C671.522 266.132 671.972 265.52 672.026 265.358H672.062C672.062 265.502 672.008 266.132 672.008 266.564V272H673.7V262.892H672.008L668.084 268.328C667.778 268.76 667.346 269.39 667.274 269.552H667.238C667.256 269.462 667.292 268.814 667.292 268.328V262.892H665.618V272ZM680.425 273.89L679.813 275.222C679.813 275.222 680.551 275.78 681.559 275.78C682.837 275.78 683.971 275.06 684.511 273.638L688.795 262.892H686.905L684.691 268.868C684.529 269.336 684.385 269.948 684.385 269.948H684.349C684.349 269.948 684.187 269.3 684.007 268.85L681.721 262.892H679.759L683.575 271.892L683.125 272.936C682.783 273.764 682.189 274.286 681.469 274.286C680.929 274.286 680.425 273.89 680.425 273.89ZM690.508 272H694.396C696.376 272 697.744 271.1 697.744 269.408C697.744 268.4 697.15 267.518 696.016 267.248V267.23C696.844 266.87 697.312 266.114 697.312 265.232C697.312 263.702 696.106 262.892 694.27 262.892H690.508V272ZM692.254 266.744V264.098H693.91C695.008 264.098 695.53 264.53 695.53 265.358C695.53 266.204 695.008 266.744 693.964 266.744H692.254ZM692.254 270.776V267.914H694.108C695.314 267.914 695.98 268.454 695.98 269.354C695.98 270.2 695.386 270.776 694.126 270.776H692.254ZM698.87 272.09C701.552 271.946 702.596 269.822 702.596 265.7V264.332H705.278V272H707.024V262.892H700.922V265.7C700.922 268.994 700.202 270.326 698.87 270.524V272.09ZM709.127 267.446C709.127 270.146 711.107 272.216 713.969 272.216C715.229 272.216 716.615 271.73 717.497 270.92L716.759 269.642C716.039 270.29 715.049 270.704 714.077 270.704C712.439 270.704 711.035 269.642 710.945 267.68H717.569C717.605 267.428 717.641 267.176 717.641 266.942C717.641 264.602 716.273 262.676 713.699 262.676C711.107 262.676 709.127 264.548 709.127 267.446ZM710.999 266.42C711.251 264.908 712.313 264.026 713.663 264.026C714.851 264.026 715.823 264.854 715.877 266.42H710.999ZM719.741 272H721.487V268.058H722.801L725.519 272H727.589L724.187 267.266V267.23L727.229 262.892H725.249L722.765 266.564H721.487V262.892H719.741V272ZM728.301 269.516C728.301 271.226 729.759 272.216 731.343 272.216C732.693 272.216 733.809 271.406 734.331 270.362H734.367C734.367 270.362 734.313 270.668 734.313 271.082V272H735.951V266.24C735.951 263.936 734.637 262.676 732.351 262.676C731.073 262.676 729.687 263.144 728.949 263.756L729.651 265.034C730.389 264.512 731.307 264.152 732.207 264.152C733.341 264.152 734.205 264.656 734.205 266.15V266.33H733.737C731.847 266.33 728.301 266.654 728.301 269.516ZM730.047 269.372C730.047 267.698 732.459 267.59 733.755 267.59H734.205V267.932C734.205 269.282 733.287 270.83 731.757 270.83C730.623 270.83 730.047 270.092 730.047 269.372ZM740.605 272H742.333V264.386H745.519V262.892H737.437V264.386H740.605V272ZM746.34 267.446C746.34 270.146 748.32 272.216 751.182 272.216C752.442 272.216 753.828 271.73 754.71 270.92L753.972 269.642C753.252 270.29 752.262 270.704 751.29 270.704C749.652 270.704 748.248 269.642 748.158 267.68H754.782C754.818 267.428 754.854 267.176 754.854 266.942C754.854 264.602 753.486 262.676 750.912 262.676C748.32 262.676 746.34 264.548 746.34 267.446ZM748.212 266.42C748.464 264.908 749.526 264.026 750.876 264.026C752.064 264.026 753.036 264.854 753.09 266.42H748.212ZM755.964 272.09C758.646 271.946 759.69 269.822 759.69 265.7V264.332H762.372V272H764.118V262.892H758.016V265.7C758.016 268.994 757.296 270.326 755.964 270.524V272.09ZM766.815 272H770.361C772.665 272 773.709 270.83 773.709 269.12C773.709 267.05 772.287 266.186 770.397 266.186H768.561V262.892H766.815V272ZM768.561 270.74V267.446H770.127C771.387 267.446 771.927 268.13 771.927 269.102C771.927 270.056 771.387 270.74 770.127 270.74H768.561ZM775.586 272H777.332V268.094H781.94V272H783.686V262.892H781.94V266.6H777.332V262.892H775.586V272ZM794.623 272H796.369V262.892H794.623V272ZM786.379 272H789.889C792.175 272 793.219 270.83 793.219 269.12C793.219 267.05 791.797 266.186 789.907 266.186H788.125V262.892H786.379V272ZM788.125 270.74V267.446H789.637C790.897 267.446 791.455 268.13 791.455 269.102C791.455 270.056 790.915 270.74 789.655 270.74H788.125ZM798.477 267.446C798.477 270.146 800.457 272.216 803.319 272.216C804.579 272.216 805.965 271.73 806.847 270.92L806.109 269.642C805.389 270.29 804.399 270.704 803.427 270.704C801.789 270.704 800.385 269.642 800.295 267.68H806.919C806.955 267.428 806.991 267.176 806.991 266.942C806.991 264.602 805.623 262.676 803.049 262.676C800.457 262.676 798.477 264.548 798.477 267.446ZM800.349 266.42C800.601 264.908 801.663 264.026 803.013 264.026C804.201 264.026 805.173 264.854 805.227 266.42H800.349ZM509.468 298.884C510.224 299.604 511.412 300.216 512.816 300.216C514.688 300.216 516.308 299.262 516.308 297.39C516.308 296.22 515.588 295.536 514.67 295.248V295.212C515.39 294.906 516.002 294.276 516.002 293.142C516.002 291.522 514.652 290.676 512.924 290.676C511.484 290.676 510.458 291.144 509.756 291.666L510.404 292.836C511.106 292.314 511.826 292.044 512.618 292.044C513.626 292.044 514.238 292.512 514.238 293.358C514.238 294.276 513.536 294.672 512.51 294.672H511.556V295.932H512.672C513.95 295.932 514.544 296.436 514.544 297.318C514.544 298.308 513.698 298.812 512.654 298.812C511.556 298.812 510.692 298.164 510.278 297.732L509.468 298.884ZM517.662 297.516C517.662 299.226 519.12 300.216 520.704 300.216C522.054 300.216 523.17 299.406 523.692 298.362H523.728C523.728 298.362 523.674 298.668 523.674 299.082V300H525.312V294.24C525.312 291.936 523.998 290.676 521.712 290.676C520.434 290.676 519.048 291.144 518.31 291.756L519.012 293.034C519.75 292.512 520.668 292.152 521.568 292.152C522.702 292.152 523.566 292.656 523.566 294.15V294.33H523.098C521.208 294.33 517.662 294.654 517.662 297.516ZM519.408 297.372C519.408 295.698 521.82 295.59 523.116 295.59H523.566V295.932C523.566 297.282 522.648 298.83 521.118 298.83C519.984 298.83 519.408 298.092 519.408 297.372ZM529.675 298.56C530.827 296.76 530.971 294.168 530.971 292.8V292.314H533.707V298.56H529.675ZM526.759 298.56V302.16H528.397V300H535.147V302.16H536.749V298.56H535.453V290.892H529.297V292.566C529.297 293.97 529.153 296.814 527.875 298.56H526.759ZM537.824 297.516C537.824 299.226 539.282 300.216 540.866 300.216C542.216 300.216 543.332 299.406 543.854 298.362H543.89C543.89 298.362 543.836 298.668 543.836 299.082V300H545.474V294.24C545.474 291.936 544.16 290.676 541.874 290.676C540.596 290.676 539.21 291.144 538.472 291.756L539.174 293.034C539.912 292.512 540.83 292.152 541.73 292.152C542.864 292.152 543.728 292.656 543.728 294.15V294.33H543.26C541.37 294.33 537.824 294.654 537.824 297.516ZM539.57 297.372C539.57 295.698 541.982 295.59 543.278 295.59H543.728V295.932C543.728 297.282 542.81 298.83 541.28 298.83C540.146 298.83 539.57 298.092 539.57 297.372ZM550.539 296.832C551.439 296.832 552.429 296.526 553.005 296.166H553.041C553.041 296.166 553.023 296.454 553.023 296.706V300H554.769V290.892H553.023V294.672C552.645 294.942 551.907 295.32 551.007 295.32C549.513 295.32 549.189 294.51 549.189 293.61V290.892H547.479V293.862C547.479 295.806 548.595 296.832 550.539 296.832ZM557.477 300H559.223V296.058H560.537L563.255 300H565.325L561.923 295.266V295.23L564.965 290.892H562.985L560.501 294.564H559.223V290.892H557.477V300ZM566.881 300H568.555L572.497 294.564C572.785 294.132 573.235 293.52 573.289 293.358H573.325C573.325 293.502 573.271 294.132 573.271 294.564V300H574.963V290.892H573.271L569.347 296.328C569.041 296.76 568.609 297.39 568.537 297.552H568.501C568.519 297.462 568.555 296.814 568.555 296.328V290.892H566.881V300ZM582.139 300H583.885V292.386H588.349V300H590.095V290.892H582.139V300ZM592.197 295.428C592.197 298.2 594.393 300.216 597.111 300.216C599.811 300.216 602.007 298.2 602.007 295.428C602.007 292.674 599.811 290.676 597.093 290.676C594.393 290.676 592.197 292.674 592.197 295.428ZM593.979 295.428C593.979 293.538 595.383 292.188 597.111 292.188C598.821 292.188 600.243 293.538 600.243 295.428C600.243 297.336 598.821 298.704 597.111 298.704C595.383 298.704 593.979 297.336 593.979 295.428ZM608.612 300H612.5C614.48 300 615.848 299.1 615.848 297.408C615.848 296.4 615.254 295.518 614.12 295.248V295.23C614.948 294.87 615.416 294.114 615.416 293.232C615.416 291.702 614.21 290.892 612.374 290.892H608.612V300ZM610.358 294.744V292.098H612.014C613.112 292.098 613.634 292.53 613.634 293.358C613.634 294.204 613.112 294.744 612.068 294.744H610.358ZM610.358 298.776V295.914H612.212C613.418 295.914 614.084 296.454 614.084 297.354C614.084 298.2 613.49 298.776 612.23 298.776H610.358ZM617.207 297.516C617.207 299.226 618.665 300.216 620.249 300.216C621.599 300.216 622.715 299.406 623.237 298.362H623.273C623.273 298.362 623.219 298.668 623.219 299.082V300H624.857V294.24C624.857 291.936 623.543 290.676 621.257 290.676C619.979 290.676 618.593 291.144 617.855 291.756L618.557 293.034C619.295 292.512 620.213 292.152 621.113 292.152C622.247 292.152 623.111 292.656 623.111 294.15V294.33H622.643C620.753 294.33 617.207 294.654 617.207 297.516ZM618.953 297.372C618.953 295.698 621.365 295.59 622.661 295.59H623.111V295.932C623.111 297.282 622.193 298.83 620.663 298.83C619.529 298.83 618.953 298.092 618.953 297.372ZM627.438 300H639.21V290.892H637.536V298.488H634.17V290.892H632.478V298.488H629.112V290.892H627.438V300ZM641.905 300H643.579L647.521 294.564C647.809 294.132 648.259 293.52 648.313 293.358H648.349C648.349 293.502 648.295 294.132 648.295 294.564V300H649.987V290.892H648.295L644.371 296.328C644.065 296.76 643.633 297.39 643.561 297.552H643.525C643.543 297.462 643.579 296.814 643.579 296.328V290.892H641.905V300ZM652.285 300H653.977L654.373 294.582C654.409 294.042 654.355 293.016 654.355 293.016H654.391C654.391 293.016 654.679 293.7 654.967 294.366L657.127 298.902H658.621L660.781 294.348C661.123 293.646 661.357 293.016 661.357 293.016H661.393C661.393 293.016 661.357 294.042 661.375 294.582L661.771 300H663.463L662.671 290.892H660.763L658.387 296.04C658.153 296.598 657.883 297.264 657.883 297.264H657.847C657.847 297.264 657.595 296.58 657.343 296.04L655.021 290.892H653.077L652.285 300ZM670.311 300H671.985L675.927 294.564C676.215 294.132 676.665 293.52 676.719 293.358H676.755C676.755 293.502 676.701 294.132 676.701 294.564V300H678.393V290.892H676.701L672.777 296.328C672.471 296.76 672.039 297.39 671.967 297.552H671.931C671.949 297.462 671.985 296.814 671.985 296.328V290.892H670.311V300ZM681.069 300H682.815V296.094H687.423V300H689.169V290.892H687.423V294.6H682.815V290.892H681.069V300ZM694.058 300H695.786V292.386H698.972V290.892H690.89V292.386H694.058V300ZM699.793 295.446C699.793 298.146 701.773 300.216 704.635 300.216C705.895 300.216 707.281 299.73 708.163 298.92L707.425 297.642C706.705 298.29 705.715 298.704 704.743 298.704C703.105 298.704 701.701 297.642 701.611 295.68H708.235C708.271 295.428 708.307 295.176 708.307 294.942C708.307 292.602 706.939 290.676 704.365 290.676C701.773 290.676 699.793 292.548 699.793 295.446ZM701.665 294.42C701.917 292.908 702.979 292.026 704.329 292.026C705.517 292.026 706.489 292.854 706.543 294.42H701.665ZM710.407 303.6H712.153V299.46C712.153 298.992 712.081 298.668 712.081 298.668H712.117C712.747 299.64 713.791 300.216 714.943 300.216C717.337 300.216 719.065 298.344 719.065 295.446C719.065 292.62 717.535 290.676 715.069 290.676C713.737 290.676 712.585 291.288 712.009 292.386H711.973C711.973 292.386 712.027 292.08 712.027 291.702V290.892H710.407V303.6ZM712.099 295.482C712.099 293.178 713.359 292.206 714.727 292.206C716.239 292.206 717.301 293.484 717.301 295.464C717.301 297.534 716.113 298.704 714.673 298.704C712.999 298.704 712.099 297.102 712.099 295.482ZM720.623 295.446C720.623 298.146 722.603 300.216 725.465 300.216C726.725 300.216 728.111 299.73 728.993 298.92L728.255 297.642C727.535 298.29 726.545 298.704 725.573 298.704C723.935 298.704 722.531 297.642 722.441 295.68H729.065C729.101 295.428 729.137 295.176 729.137 294.942C729.137 292.602 727.769 290.676 725.195 290.676C722.603 290.676 720.623 292.548 720.623 295.446ZM722.495 294.42C722.747 292.908 723.809 292.026 725.159 292.026C726.347 292.026 727.319 292.854 727.373 294.42H722.495ZM730.643 295.446C730.643 298.182 732.641 300.216 735.521 300.216C736.943 300.216 738.329 299.64 739.157 298.758L738.455 297.48C737.753 298.218 736.655 298.704 735.647 298.704C733.757 298.704 732.425 297.282 732.425 295.428C732.425 293.574 733.757 292.188 735.593 292.188C736.547 292.188 737.501 292.62 738.113 293.232L738.941 292.008C738.077 291.09 736.727 290.676 735.521 290.676C732.659 290.676 730.643 292.746 730.643 295.446ZM740.289 297.516C740.289 299.226 741.747 300.216 743.331 300.216C744.681 300.216 745.797 299.406 746.319 298.362H746.355C746.355 298.362 746.301 298.668 746.301 299.082V300H747.939V294.24C747.939 291.936 746.625 290.676 744.339 290.676C743.061 290.676 741.675 291.144 740.937 291.756L741.639 293.034C742.377 292.512 743.295 292.152 744.195 292.152C745.329 292.152 746.193 292.656 746.193 294.15V294.33H745.725C743.835 294.33 740.289 294.654 740.289 297.516ZM742.035 297.372C742.035 295.698 744.447 295.59 745.743 295.59H746.193V295.932C746.193 297.282 745.275 298.83 743.745 298.83C742.611 298.83 742.035 298.092 742.035 297.372ZM750.142 300H751.834L752.23 294.582C752.266 294.042 752.212 293.016 752.212 293.016H752.248C752.248 293.016 752.536 293.7 752.824 294.366L754.984 298.902H756.478L758.638 294.348C758.98 293.646 759.214 293.016 759.214 293.016H759.25C759.25 293.016 759.214 294.042 759.232 294.582L759.628 300H761.32L760.528 290.892H758.62L756.244 296.04C756.01 296.598 755.74 297.264 755.74 297.264H755.704C755.704 297.264 755.452 296.58 755.2 296.04L752.878 290.892H750.934L750.142 300Z" fill="white"/>
<path d="M478.396 271.168C481.112 271.168 481.994 268.872 481.994 266.016C481.994 263.16 481.112 260.892 478.396 260.892C475.68 260.892 474.784 263.16 474.784 266.016C474.784 268.872 475.68 271.168 478.396 271.168ZM478.396 269.516C477.038 269.516 476.646 267.976 476.646 266.016C476.646 264.084 477.038 262.558 478.396 262.558C479.754 262.558 480.146 264.084 480.146 266.016C480.146 267.976 479.754 269.516 478.396 269.516ZM483.211 268.438H487.859V271H489.637V268.438H490.925V266.94H489.637V261.06H487.509L483.211 267.332V268.438ZM485.115 266.94V266.912L487.411 263.734C487.677 263.356 487.901 262.824 487.901 262.824H487.929C487.929 262.824 487.859 263.37 487.859 263.86V266.94H485.115Z" fill="white"/>
<path d="M510.674 343H512.456V331.84H518.9V343H520.682V330.292H510.674V343ZM522.94 338.428C522.94 341.2 525.136 343.216 527.854 343.216C530.554 343.216 532.75 341.2 532.75 338.428C532.75 335.674 530.554 333.676 527.836 333.676C525.136 333.676 522.94 335.674 522.94 338.428ZM524.722 338.428C524.722 336.538 526.126 335.188 527.854 335.188C529.564 335.188 530.986 336.538 530.986 338.428C530.986 340.336 529.564 341.704 527.854 341.704C526.126 341.704 524.722 340.336 524.722 338.428ZM536.407 341.56C537.559 339.76 537.703 337.168 537.703 335.8V335.314H540.439V341.56H536.407ZM533.491 341.56V345.16H535.129V343H541.879V345.16H543.481V341.56H542.185V333.892H536.029V335.566C536.029 336.97 535.885 339.814 534.607 341.56H533.491ZM545.313 346.6H547.059V342.46C547.059 341.992 546.987 341.668 546.987 341.668H547.023C547.653 342.64 548.697 343.216 549.849 343.216C552.243 343.216 553.971 341.344 553.971 338.446C553.971 335.62 552.441 333.676 549.975 333.676C548.643 333.676 547.491 334.288 546.915 335.386H546.879C546.879 335.386 546.933 335.08 546.933 334.702V333.892H545.313V346.6ZM547.005 338.482C547.005 336.178 548.265 335.206 549.633 335.206C551.145 335.206 552.207 336.484 552.207 338.464C552.207 340.534 551.019 341.704 549.579 341.704C547.905 341.704 547.005 340.102 547.005 338.482ZM555.41 344.89L554.798 346.222C554.798 346.222 555.536 346.78 556.544 346.78C557.822 346.78 558.956 346.06 559.496 344.638L563.78 333.892H561.89L559.676 339.868C559.514 340.336 559.37 340.948 559.37 340.948H559.334C559.334 340.948 559.172 340.3 558.992 339.85L556.706 333.892H554.744L558.56 342.892L558.11 343.936C557.768 344.764 557.174 345.286 556.454 345.286C555.914 345.286 555.41 344.89 555.41 344.89ZM564.449 343H566.393L568.787 339.112H570.083V343H571.739V339.112H573.053L575.429 343H577.391L574.457 338.32V338.284L577.121 333.892H575.285L573.035 337.618H571.739V333.892H570.083V337.618H568.787L566.555 333.892H564.701L567.383 338.284V338.32L564.449 343ZM579.028 343H580.702L584.644 337.564C584.932 337.132 585.382 336.52 585.436 336.358H585.472C585.472 336.502 585.418 337.132 585.418 337.564V343H587.11V333.892H585.418L581.494 339.328C581.188 339.76 580.756 340.39 580.684 340.552H580.648C580.666 340.462 580.702 339.814 580.702 339.328V333.892H579.028V343ZM589.408 343H591.1L591.496 337.582C591.532 337.042 591.478 336.016 591.478 336.016H591.514C591.514 336.016 591.802 336.7 592.09 337.366L594.25 341.902H595.744L597.904 337.348C598.246 336.646 598.48 336.016 598.48 336.016H598.516C598.516 336.016 598.48 337.042 598.498 337.582L598.894 343H600.586L599.794 333.892H597.886L595.51 339.04C595.276 339.598 595.006 340.264 595.006 340.264H594.97C594.97 340.264 594.718 339.58 594.466 339.04L592.144 333.892H590.2L589.408 343ZM606.84 338.446C606.84 341.182 608.838 343.216 611.718 343.216C613.14 343.216 614.526 342.64 615.354 341.758L614.652 340.48C613.95 341.218 612.852 341.704 611.844 341.704C609.954 341.704 608.622 340.282 608.622 338.428C608.622 336.574 609.954 335.188 611.79 335.188C612.744 335.188 613.698 335.62 614.31 336.232L615.138 335.008C614.274 334.09 612.924 333.676 611.718 333.676C608.856 333.676 606.84 335.746 606.84 338.446ZM623.939 343H625.667V335.386H628.853V333.892H620.771V335.386H623.939V343ZM629.674 338.446C629.674 341.146 631.654 343.216 634.516 343.216C635.776 343.216 637.162 342.73 638.044 341.92L637.306 340.642C636.586 341.29 635.596 341.704 634.624 341.704C632.986 341.704 631.582 340.642 631.492 338.68H638.116C638.152 338.428 638.188 338.176 638.188 337.942C638.188 335.602 636.82 333.676 634.246 333.676C631.654 333.676 629.674 335.548 629.674 338.446ZM631.546 337.42C631.798 335.908 632.86 335.026 634.21 335.026C635.398 335.026 636.37 335.854 636.424 337.42H631.546ZM639.694 338.428C639.694 341.2 641.89 343.216 644.608 343.216C647.308 343.216 649.504 341.2 649.504 338.428C649.504 335.674 647.308 333.676 644.59 333.676C641.89 333.676 639.694 335.674 639.694 338.428ZM641.476 338.428C641.476 336.538 642.88 335.188 644.608 335.188C646.318 335.188 647.74 336.538 647.74 338.428C647.74 340.336 646.318 341.704 644.608 341.704C642.88 341.704 641.476 340.336 641.476 338.428ZM651.608 346.6H653.354V342.46C653.354 341.992 653.282 341.668 653.282 341.668H653.318C653.948 342.64 654.992 343.216 656.144 343.216C658.538 343.216 660.266 341.344 660.266 338.446C660.266 335.62 658.736 333.676 656.27 333.676C654.938 333.676 653.786 334.288 653.21 335.386H653.174C653.174 335.386 653.228 335.08 653.228 334.702V333.892H651.608V346.6ZM653.3 338.482C653.3 336.178 654.56 335.206 655.928 335.206C657.44 335.206 658.502 336.484 658.502 338.464C658.502 340.534 657.314 341.704 655.874 341.704C654.2 341.704 653.3 340.102 653.3 338.482ZM661.824 338.446C661.824 341.146 663.804 343.216 666.666 343.216C667.926 343.216 669.312 342.73 670.194 341.92L669.456 340.642C668.736 341.29 667.746 341.704 666.774 341.704C665.136 341.704 663.732 340.642 663.642 338.68H670.266C670.302 338.428 670.338 338.176 670.338 337.942C670.338 335.602 668.97 333.676 666.396 333.676C663.804 333.676 661.824 335.548 661.824 338.446ZM663.696 337.42C663.948 335.908 665.01 335.026 666.36 335.026C667.548 335.026 668.52 335.854 668.574 337.42H663.696ZM672.06 343H673.752L674.148 337.582C674.184 337.042 674.13 336.016 674.13 336.016H674.166C674.166 336.016 674.454 336.7 674.742 337.366L676.902 341.902H678.396L680.556 337.348C680.898 336.646 681.132 336.016 681.132 336.016H681.168C681.168 336.016 681.132 337.042 681.15 337.582L681.546 343H683.238L682.446 333.892H680.538L678.162 339.04C677.928 339.598 677.658 340.264 677.658 340.264H677.622C677.622 340.264 677.37 339.58 677.118 339.04L674.796 333.892H672.852L672.06 343ZM684.992 338.428C684.992 341.2 687.188 343.216 689.906 343.216C692.606 343.216 694.802 341.2 694.802 338.428C694.802 335.674 692.606 333.676 689.888 333.676C687.188 333.676 684.992 335.674 684.992 338.428ZM686.774 338.428C686.774 336.538 688.178 335.188 689.906 335.188C691.616 335.188 693.038 336.538 693.038 338.428C693.038 340.336 691.616 341.704 689.906 341.704C688.178 341.704 686.774 340.336 686.774 338.428ZM700.921 332.848C702.325 332.848 703.585 332.02 703.585 330.544V330.274H702.199V330.508C702.199 331.318 701.551 331.714 700.921 331.714C700.291 331.714 699.661 331.318 699.661 330.526V330.274H698.257V330.544C698.257 332.02 699.535 332.848 700.921 332.848ZM696.907 343H698.581L702.523 337.564C702.811 337.132 703.261 336.52 703.315 336.358H703.351C703.351 336.502 703.297 337.132 703.297 337.564V343H704.989V333.892H703.297L699.373 339.328C699.067 339.76 698.635 340.39 698.563 340.552H698.527C698.545 340.462 698.581 339.814 698.581 339.328V333.892H696.907V343ZM510.674 371H512.456V359.84H518.9V371H520.682V358.292H510.674V371ZM523.604 371H525.278L529.22 365.564C529.508 365.132 529.958 364.52 530.012 364.358H530.048C530.048 364.502 529.994 365.132 529.994 365.564V371H531.686V361.892H529.994L526.07 367.328C525.764 367.76 525.332 368.39 525.26 368.552H525.224C525.242 368.462 525.278 367.814 525.278 367.328V361.892H523.604V371ZM533.786 366.428C533.786 369.236 535.892 371.09 538.718 371.216V374.6H540.392V371.216C543.218 371.09 545.306 369.236 545.306 366.428C545.306 363.638 543.218 361.802 540.392 361.694V358.4H538.718V361.694C535.892 361.802 533.786 363.638 533.786 366.428ZM540.392 369.758V363.134C542.246 363.242 543.596 364.448 543.596 366.428C543.596 368.39 542.246 369.632 540.392 369.758ZM535.514 366.428C535.514 364.448 536.846 363.242 538.718 363.134V369.758C536.846 369.632 535.514 368.39 535.514 366.428ZM546.666 368.516C546.666 370.226 548.124 371.216 549.708 371.216C551.058 371.216 552.174 370.406 552.696 369.362H552.732C552.732 369.362 552.678 369.668 552.678 370.082V371H554.316V365.24C554.316 362.936 553.002 361.676 550.716 361.676C549.438 361.676 548.052 362.144 547.314 362.756L548.016 364.034C548.754 363.512 549.672 363.152 550.572 363.152C551.706 363.152 552.57 363.656 552.57 365.15V365.33H552.102C550.212 365.33 546.666 365.654 546.666 368.516ZM548.412 368.372C548.412 366.698 550.824 366.59 552.12 366.59H552.57V366.932C552.57 368.282 551.652 369.83 550.122 369.83C548.988 369.83 548.412 369.092 548.412 368.372ZM556.897 371H558.643V363.386H562.603V361.892H556.897V371ZM563.404 366.428C563.404 369.2 565.6 371.216 568.318 371.216C571.018 371.216 573.214 369.2 573.214 366.428C573.214 363.674 571.018 361.676 568.3 361.676C565.6 361.676 563.404 363.674 563.404 366.428ZM565.186 366.428C565.186 364.538 566.59 363.188 568.318 363.188C570.028 363.188 571.45 364.538 571.45 366.428C571.45 368.336 570.028 369.704 568.318 369.704C566.59 369.704 565.186 368.336 565.186 366.428ZM575.319 374.6H577.065V370.46C577.065 369.992 576.993 369.668 576.993 369.668H577.029C577.659 370.64 578.703 371.216 579.855 371.216C582.249 371.216 583.977 369.344 583.977 366.446C583.977 363.62 582.447 361.676 579.981 361.676C578.649 361.676 577.497 362.288 576.921 363.386H576.885C576.885 363.386 576.939 363.08 576.939 362.702V361.892H575.319V374.6ZM577.011 366.482C577.011 364.178 578.271 363.206 579.639 363.206C581.151 363.206 582.213 364.484 582.213 366.464C582.213 368.534 581.025 369.704 579.585 369.704C577.911 369.704 577.011 368.102 577.011 366.482ZM585.373 368.516C585.373 370.226 586.831 371.216 588.415 371.216C589.765 371.216 590.881 370.406 591.403 369.362H591.439C591.439 369.362 591.385 369.668 591.385 370.082V371H593.023V365.24C593.023 362.936 591.709 361.676 589.423 361.676C588.145 361.676 586.759 362.144 586.021 362.756L586.723 364.034C587.461 363.512 588.379 363.152 589.279 363.152C590.413 363.152 591.277 363.656 591.277 365.15V365.33H590.809C588.919 365.33 585.373 365.654 585.373 368.516ZM587.119 368.372C587.119 366.698 589.531 366.59 590.827 366.59H591.277V366.932C591.277 368.282 590.359 369.83 588.829 369.83C587.695 369.83 587.119 369.092 587.119 368.372Z" fill="white"/>
<path d="M478.396 342.168C481.112 342.168 481.994 339.872 481.994 337.016C481.994 334.16 481.112 331.892 478.396 331.892C475.68 331.892 474.784 334.16 474.784 337.016C474.784 339.872 475.68 342.168 478.396 342.168ZM478.396 340.516C477.038 340.516 476.646 338.976 476.646 337.016C476.646 335.084 477.038 333.558 478.396 333.558C479.754 333.558 480.146 335.084 480.146 337.016C480.146 338.976 479.754 340.516 478.396 340.516ZM483.407 340.824C484.219 341.706 485.409 342.168 486.599 342.168C488.657 342.168 490.183 340.712 490.183 338.752C490.183 336.96 488.881 335.49 486.683 335.49C486.319 335.49 485.801 335.616 485.619 335.714H485.591C485.591 335.714 485.633 335.518 485.661 335.252L485.815 333.614H489.483V332.06H484.247L483.785 337.1L484.793 337.464C485.241 337.198 485.801 337.044 486.333 337.044C487.467 337.044 488.321 337.73 488.321 338.766C488.321 339.816 487.425 340.46 486.459 340.46C485.549 340.46 484.793 339.956 484.345 339.466L483.407 340.824Z" fill="white"/>
<path d="M510.674 414H515.336C517.55 414 519.116 412.488 519.116 410.22C519.116 407.772 517.478 406.386 515.246 406.386H512.456V402.84H518.18V401.292H510.674V414ZM512.456 412.452V407.934H515.012C516.416 407.934 517.316 408.816 517.316 410.22C517.316 411.606 516.47 412.452 515.048 412.452H512.456ZM520.5 415.89L519.888 417.222C519.888 417.222 520.626 417.78 521.634 417.78C522.912 417.78 524.046 417.06 524.586 415.638L528.87 404.892H526.98L524.766 410.868C524.604 411.336 524.46 411.948 524.46 411.948H524.424C524.424 411.948 524.262 411.3 524.082 410.85L521.796 404.892H519.834L523.65 413.892L523.2 414.936C522.858 415.764 522.264 416.286 521.544 416.286C521.004 416.286 520.5 415.89 520.5 415.89ZM531.714 412.56C532.866 410.76 533.01 408.168 533.01 406.8V406.314H535.746V412.56H531.714ZM528.798 412.56V416.16H530.436V414H537.186V416.16H538.788V412.56H537.492V404.892H531.336V406.566C531.336 407.97 531.192 410.814 529.914 412.56H528.798ZM539.92 409.446C539.92 412.146 541.9 414.216 544.762 414.216C546.022 414.216 547.408 413.73 548.29 412.92L547.552 411.642C546.832 412.29 545.842 412.704 544.87 412.704C543.232 412.704 541.828 411.642 541.738 409.68H548.362C548.398 409.428 548.434 409.176 548.434 408.942C548.434 406.602 547.066 404.676 544.492 404.676C541.9 404.676 539.92 406.548 539.92 409.446ZM541.792 408.42C542.044 406.908 543.106 406.026 544.456 406.026C545.644 406.026 546.616 406.854 546.67 408.42H541.792ZM550.156 414H551.848L552.244 408.582C552.28 408.042 552.226 407.016 552.226 407.016H552.262C552.262 407.016 552.55 407.7 552.838 408.366L554.998 412.902H556.492L558.652 408.348C558.994 407.646 559.228 407.016 559.228 407.016H559.264C559.264 407.016 559.228 408.042 559.246 408.582L559.642 414H561.334L560.542 404.892H558.634L556.258 410.04C556.024 410.598 555.754 411.264 555.754 411.264H555.718C555.718 411.264 555.466 410.58 555.214 410.04L552.892 404.892H550.948L550.156 414ZM568.182 417.6H569.928V413.46C569.928 412.992 569.856 412.668 569.856 412.668H569.892C570.522 413.64 571.566 414.216 572.718 414.216C575.112 414.216 576.84 412.344 576.84 409.446C576.84 406.62 575.31 404.676 572.844 404.676C571.512 404.676 570.36 405.288 569.784 406.386H569.748C569.748 406.386 569.802 406.08 569.802 405.702V404.892H568.182V417.6ZM569.874 409.482C569.874 407.178 571.134 406.206 572.502 406.206C574.014 406.206 575.076 407.484 575.076 409.464C575.076 411.534 573.888 412.704 572.448 412.704C570.774 412.704 569.874 411.102 569.874 409.482ZM578.237 411.516C578.237 413.226 579.695 414.216 581.279 414.216C582.629 414.216 583.745 413.406 584.267 412.362H584.303C584.303 412.362 584.249 412.668 584.249 413.082V414H585.887V408.24C585.887 405.936 584.573 404.676 582.287 404.676C581.009 404.676 579.623 405.144 578.885 405.756L579.587 407.034C580.325 406.512 581.243 406.152 582.143 406.152C583.277 406.152 584.141 406.656 584.141 408.15V408.33H583.673C581.783 408.33 578.237 408.654 578.237 411.516ZM579.983 411.372C579.983 409.698 582.395 409.59 583.691 409.59H584.141V409.932C584.141 411.282 583.223 412.83 581.693 412.83C580.559 412.83 579.983 412.092 579.983 411.372ZM587.873 409.446C587.873 412.182 589.871 414.216 592.751 414.216C594.173 414.216 595.559 413.64 596.387 412.758L595.685 411.48C594.983 412.218 593.885 412.704 592.877 412.704C590.987 412.704 589.655 411.282 589.655 409.428C589.655 407.574 590.987 406.188 592.823 406.188C593.777 406.188 594.731 406.62 595.343 407.232L596.171 406.008C595.307 405.09 593.957 404.676 592.751 404.676C589.889 404.676 587.873 406.746 587.873 409.446ZM600.472 414H602.2V406.386H605.386V404.892H597.304V406.386H600.472V414ZM607.1 414H608.774L612.716 408.564C613.004 408.132 613.454 407.52 613.508 407.358H613.544C613.544 407.502 613.49 408.132 613.49 408.564V414H615.182V404.892H613.49L609.566 410.328C609.26 410.76 608.828 411.39 608.756 411.552H608.72C608.738 411.462 608.774 410.814 608.774 410.328V404.892H607.1V414ZM621.782 409.428C621.782 412.236 623.888 414.09 626.714 414.216V417.6H628.388V414.216C631.214 414.09 633.302 412.236 633.302 409.428C633.302 406.638 631.214 404.802 628.388 404.694V401.4H626.714V404.694C623.888 404.802 621.782 406.638 621.782 409.428ZM628.388 412.758V406.134C630.242 406.242 631.592 407.448 631.592 409.428C631.592 411.39 630.242 412.632 628.388 412.758ZM623.51 409.428C623.51 407.448 624.842 406.242 626.714 406.134V412.758C624.842 412.632 623.51 411.39 623.51 409.428ZM635.418 414H637.092L641.034 408.564C641.322 408.132 641.772 407.52 641.826 407.358H641.862C641.862 407.502 641.808 408.132 641.808 408.564V414H643.5V404.892H641.808L637.884 410.328C637.578 410.76 637.146 411.39 637.074 411.552H637.038C637.056 411.462 637.092 410.814 637.092 410.328V404.892H635.418V414ZM645.294 412.884C646.05 413.604 647.238 414.216 648.642 414.216C650.514 414.216 652.134 413.262 652.134 411.39C652.134 410.22 651.414 409.536 650.496 409.248V409.212C651.216 408.906 651.828 408.276 651.828 407.142C651.828 405.522 650.478 404.676 648.75 404.676C647.31 404.676 646.284 405.144 645.582 405.666L646.23 406.836C646.932 406.314 647.652 406.044 648.444 406.044C649.452 406.044 650.064 406.512 650.064 407.358C650.064 408.276 649.362 408.672 648.336 408.672H647.382V409.932H648.498C649.776 409.932 650.37 410.436 650.37 411.318C650.37 412.308 649.524 412.812 648.48 412.812C647.382 412.812 646.518 412.164 646.104 411.732L645.294 412.884ZM654.245 414H655.919L659.861 408.564C660.149 408.132 660.599 407.52 660.653 407.358H660.689C660.689 407.502 660.635 408.132 660.635 408.564V414H662.327V404.892H660.635L656.711 410.328C656.405 410.76 655.973 411.39 655.901 411.552H655.865C655.883 411.462 655.919 410.814 655.919 410.328V404.892H654.245V414ZM667.486 410.832C668.386 410.832 669.376 410.526 669.952 410.166H669.988C669.988 410.166 669.97 410.454 669.97 410.706V414H671.716V404.892H669.97V408.672C669.592 408.942 668.854 409.32 667.954 409.32C666.46 409.32 666.136 408.51 666.136 407.61V404.892H664.426V407.862C664.426 409.806 665.542 410.832 667.486 410.832ZM673.83 409.446C673.83 412.146 675.81 414.216 678.672 414.216C679.932 414.216 681.318 413.73 682.2 412.92L681.462 411.642C680.742 412.29 679.752 412.704 678.78 412.704C677.142 412.704 675.738 411.642 675.648 409.68H682.272C682.308 409.428 682.344 409.176 682.344 408.942C682.344 406.602 680.976 404.676 678.402 404.676C675.81 404.676 673.83 406.548 673.83 409.446ZM675.702 408.42C675.954 406.908 677.016 406.026 678.366 406.026C679.554 406.026 680.526 406.854 680.58 408.42H675.702ZM683.85 409.446C683.85 412.182 685.848 414.216 688.728 414.216C690.15 414.216 691.536 413.64 692.364 412.758L691.662 411.48C690.96 412.218 689.862 412.704 688.854 412.704C686.964 412.704 685.632 411.282 685.632 409.428C685.632 407.574 686.964 406.188 688.8 406.188C689.754 406.188 690.708 406.62 691.32 407.232L692.148 406.008C691.284 405.09 689.934 404.676 688.728 404.676C685.866 404.676 683.85 406.746 683.85 409.446ZM694.252 414H695.998V410.058H697.312L700.03 414H702.1L698.698 409.266V409.23L701.74 404.892H699.76L697.276 408.564H695.998V404.892H694.252V414ZM703.657 414H705.331L709.273 408.564C709.561 408.132 710.011 407.52 710.065 407.358H710.101C710.101 407.502 710.047 408.132 710.047 408.564V414H711.739V404.892H710.047L706.123 410.328C705.817 410.76 705.385 411.39 705.313 411.552H705.277C705.295 411.462 705.331 410.814 705.331 410.328V404.892H703.657V414ZM510.35 442H512.024L515.966 436.564C516.254 436.132 516.704 435.52 516.758 435.358H516.794C516.794 435.502 516.74 436.132 516.74 436.564V442H518.432V432.892H516.74L512.816 438.328C512.51 438.76 512.078 439.39 512.006 439.552H511.97C511.988 439.462 512.024 438.814 512.024 438.328V432.892H510.35V442ZM525.608 442H527.282L531.224 436.564C531.512 436.132 531.962 435.52 532.016 435.358H532.052C532.052 435.502 531.998 436.132 531.998 436.564V442H533.69V432.892H531.998L528.074 438.328C527.768 438.76 527.336 439.39 527.264 439.552H527.228C527.246 439.462 527.282 438.814 527.282 438.328V432.892H525.608V442ZM536.366 442H538.112V438.094H542.72V442H544.466V432.892H542.72V436.6H538.112V432.892H536.366V442ZM549.355 442H551.083V434.386H554.269V432.892H546.187V434.386H549.355V442ZM555.09 437.446C555.09 440.146 557.07 442.216 559.932 442.216C561.192 442.216 562.578 441.73 563.46 440.92L562.722 439.642C562.002 440.29 561.012 440.704 560.04 440.704C558.402 440.704 556.998 439.642 556.908 437.68H563.532C563.568 437.428 563.604 437.176 563.604 436.942C563.604 434.602 562.236 432.676 559.662 432.676C557.07 432.676 555.09 434.548 555.09 437.446ZM556.962 436.42C557.214 434.908 558.276 434.026 559.626 434.026C560.814 434.026 561.786 434.854 561.84 436.42H556.962ZM564.714 442.09C567.396 441.946 568.44 439.822 568.44 435.7V434.332H571.122V442H572.868V432.892H566.766V435.7C566.766 438.994 566.046 440.326 564.714 440.524V442.09ZM574.575 442.09C577.257 441.946 578.301 439.822 578.301 435.7V434.332H580.983V442H582.729V432.892H576.627V435.7C576.627 438.994 575.907 440.326 574.575 440.524V442.09ZM584.832 437.446C584.832 440.146 586.812 442.216 589.674 442.216C590.934 442.216 592.32 441.73 593.202 440.92L592.464 439.642C591.744 440.29 590.754 440.704 589.782 440.704C588.144 440.704 586.74 439.642 586.65 437.68H593.274C593.31 437.428 593.346 437.176 593.346 436.942C593.346 434.602 591.978 432.676 589.404 432.676C586.812 432.676 584.832 434.548 584.832 437.446ZM586.704 436.42C586.956 434.908 588.018 434.026 589.368 434.026C590.556 434.026 591.528 434.854 591.582 436.42H586.704ZM595.446 442H597.192V438.058H598.506L601.224 442H603.294L599.892 437.266V437.23L602.934 432.892H600.954L598.47 436.564H597.192V432.892H595.446V442ZM607.046 442H608.774V434.386H611.96V432.892H603.878V434.386H607.046V442ZM613.224 443.89L612.612 445.222C612.612 445.222 613.35 445.78 614.358 445.78C615.636 445.78 616.77 445.06 617.31 443.638L621.594 432.892H619.704L617.49 438.868C617.328 439.336 617.184 439.948 617.184 439.948H617.148C617.148 439.948 616.986 439.3 616.806 438.85L614.52 432.892H612.558L616.374 441.892L615.924 442.936C615.582 443.764 614.988 444.286 614.268 444.286C613.728 444.286 613.224 443.89 613.224 443.89ZM622.34 439.516C622.34 441.226 623.798 442.216 625.382 442.216C626.732 442.216 627.848 441.406 628.37 440.362H628.406C628.406 440.362 628.352 440.668 628.352 441.082V442H629.99V436.24C629.99 433.936 628.676 432.676 626.39 432.676C625.112 432.676 623.726 433.144 622.988 433.756L623.69 435.034C624.428 434.512 625.346 434.152 626.246 434.152C627.38 434.152 628.244 434.656 628.244 436.15V436.33H627.776C625.886 436.33 622.34 436.654 622.34 439.516ZM624.086 439.372C624.086 437.698 626.498 437.59 627.794 437.59H628.244V437.932C628.244 439.282 627.326 440.83 625.796 440.83C624.662 440.83 624.086 440.092 624.086 439.372ZM631.581 442.09C634.263 441.946 635.307 439.822 635.307 435.7V434.332H637.989V442H639.735V432.892H633.633V435.7C633.633 438.994 632.913 440.326 631.581 440.524V442.09ZM642.432 442H645.978C648.282 442 649.326 440.83 649.326 439.12C649.326 437.05 647.904 436.186 646.014 436.186H644.178V432.892H642.432V442ZM644.178 440.74V437.446H645.744C647.004 437.446 647.544 438.13 647.544 439.102C647.544 440.056 647.004 440.74 645.744 440.74H644.178ZM651.204 442H652.95V438.094H657.558V442H659.304V432.892H657.558V436.6H652.95V432.892H651.204V442ZM661.402 437.428C661.402 440.2 663.598 442.216 666.316 442.216C669.016 442.216 671.212 440.2 671.212 437.428C671.212 434.674 669.016 432.676 666.298 432.676C663.598 432.676 661.402 434.674 661.402 437.428ZM663.184 437.428C663.184 435.538 664.588 434.188 666.316 434.188C668.026 434.188 669.448 435.538 669.448 437.428C669.448 439.336 668.026 440.704 666.316 440.704C664.588 440.704 663.184 439.336 663.184 437.428Z" fill="white"/>
<path d="M478.396 413.168C481.112 413.168 481.994 410.872 481.994 408.016C481.994 405.16 481.112 402.892 478.396 402.892C475.68 402.892 474.784 405.16 474.784 408.016C474.784 410.872 475.68 413.168 478.396 413.168ZM478.396 411.516C477.038 411.516 476.646 409.976 476.646 408.016C476.646 406.084 477.038 404.558 478.396 404.558C479.754 404.558 480.146 406.084 480.146 408.016C480.146 409.976 479.754 411.516 478.396 411.516ZM483.519 408.464C483.519 411.446 485.297 413.168 487.369 413.168C489.329 413.168 490.631 411.67 490.631 409.85C490.631 408.044 489.413 406.518 487.453 406.518C486.739 406.518 485.927 406.812 485.591 407.218H485.563C485.801 405.86 486.641 404.558 488.195 404.558C488.671 404.558 489.329 404.712 489.609 404.866L490.141 403.312C489.525 403.018 488.769 402.892 488.097 402.892C485.017 402.892 483.519 405.846 483.519 408.464ZM487.383 411.516C486.249 411.516 485.395 410.228 485.395 409.122C485.395 408.394 486.179 408.002 487.033 408.002C488.223 408.002 488.853 408.828 488.853 409.85C488.853 410.774 488.279 411.516 487.383 411.516Z" fill="white"/>
<path d="M510.674 158H512.456V146.84H518.9V158H520.682V145.292H510.674V158ZM522.94 153.428C522.94 156.2 525.136 158.216 527.854 158.216C530.554 158.216 532.75 156.2 532.75 153.428C532.75 150.674 530.554 148.676 527.836 148.676C525.136 148.676 522.94 150.674 522.94 153.428ZM524.722 153.428C524.722 151.538 526.126 150.188 527.854 150.188C529.564 150.188 530.986 151.538 530.986 153.428C530.986 155.336 529.564 156.704 527.854 156.704C526.126 156.704 524.722 155.336 524.722 153.428ZM533.761 156.884C534.517 157.604 535.705 158.216 537.109 158.216C538.981 158.216 540.601 157.262 540.601 155.39C540.601 154.22 539.881 153.536 538.963 153.248V153.212C539.683 152.906 540.295 152.276 540.295 151.142C540.295 149.522 538.945 148.676 537.217 148.676C535.777 148.676 534.751 149.144 534.049 149.666L534.697 150.836C535.399 150.314 536.119 150.044 536.911 150.044C537.919 150.044 538.531 150.512 538.531 151.358C538.531 152.276 537.829 152.672 536.803 152.672H535.849V153.932H536.965C538.243 153.932 538.837 154.436 538.837 155.318C538.837 156.308 537.991 156.812 536.947 156.812C535.849 156.812 534.985 156.164 534.571 155.732L533.761 156.884ZM542.711 158H544.457V154.094H549.065V158H550.811V148.892H549.065V152.6H544.457V148.892H542.711V158ZM552.748 155.516C552.748 157.226 554.206 158.216 555.79 158.216C557.14 158.216 558.256 157.406 558.778 156.362H558.814C558.814 156.362 558.76 156.668 558.76 157.082V158H560.398V152.24C560.398 149.936 559.084 148.676 556.798 148.676C555.52 148.676 554.134 149.144 553.396 149.756L554.098 151.034C554.836 150.512 555.754 150.152 556.654 150.152C557.788 150.152 558.652 150.656 558.652 152.15V152.33H558.184C556.294 152.33 552.748 152.654 552.748 155.516ZM554.494 155.372C554.494 153.698 556.906 153.59 558.202 153.59H558.652V153.932C558.652 155.282 557.734 156.83 556.204 156.83C555.07 156.83 554.494 156.092 554.494 155.372ZM562.385 153.446C562.385 156.146 564.365 158.216 567.227 158.216C568.487 158.216 569.873 157.73 570.755 156.92L570.017 155.642C569.297 156.29 568.307 156.704 567.335 156.704C565.697 156.704 564.293 155.642 564.203 153.68H570.827C570.863 153.428 570.899 153.176 570.899 152.942C570.899 150.602 569.531 148.676 566.957 148.676C564.365 148.676 562.385 150.548 562.385 153.446ZM564.257 152.42C564.509 150.908 565.571 150.026 566.921 150.026C568.109 150.026 569.081 150.854 569.135 152.42H564.257ZM572.62 158H574.312L574.708 152.582C574.744 152.042 574.69 151.016 574.69 151.016H574.726C574.726 151.016 575.014 151.7 575.302 152.366L577.462 156.902H578.956L581.116 152.348C581.458 151.646 581.692 151.016 581.692 151.016H581.728C581.728 151.016 581.692 152.042 581.71 152.582L582.106 158H583.798L583.006 148.892H581.098L578.722 154.04C578.488 154.598 578.218 155.264 578.218 155.264H578.182C578.182 155.264 577.93 154.58 577.678 154.04L575.356 148.892H573.412L572.62 158ZM590.251 152.762C590.251 155.912 591.637 158.216 594.715 158.216C597.289 158.216 599.017 156.416 599.017 153.896C599.017 151.322 597.433 149.702 595.147 149.702C593.941 149.702 592.735 150.098 591.925 151.322H591.889C592.015 149.576 592.879 148.514 594.697 147.686L598.189 146.228L597.613 144.788L594.355 146.192C591.187 147.524 590.251 149.504 590.251 152.762ZM592.069 153.896C592.069 152.294 593.167 151.088 594.715 151.088C596.083 151.088 597.253 152.15 597.253 153.932C597.253 155.696 596.083 156.74 594.643 156.74C593.239 156.74 592.069 155.696 592.069 153.896ZM600.6 153.446C600.6 156.146 602.58 158.216 605.442 158.216C606.702 158.216 608.088 157.73 608.97 156.92L608.232 155.642C607.512 156.29 606.522 156.704 605.55 156.704C603.912 156.704 602.508 155.642 602.418 153.68H609.042C609.078 153.428 609.114 153.176 609.114 152.942C609.114 150.602 607.746 148.676 605.172 148.676C602.58 148.676 600.6 150.548 600.6 153.446ZM602.472 152.42C602.724 150.908 603.786 150.026 605.136 150.026C606.324 150.026 607.296 150.854 607.35 152.42H602.472ZM610.619 153.446C610.619 156.182 612.617 158.216 615.497 158.216C616.919 158.216 618.305 157.64 619.133 156.758L618.431 155.48C617.729 156.218 616.631 156.704 615.623 156.704C613.733 156.704 612.401 155.282 612.401 153.428C612.401 151.574 613.733 150.188 615.569 150.188C616.523 150.188 617.477 150.62 618.089 151.232L618.917 150.008C618.053 149.09 616.703 148.676 615.497 148.676C612.635 148.676 610.619 150.746 610.619 153.446ZM621.022 158H622.768V154.058H624.082L626.8 158H628.87L625.468 153.266V153.23L628.51 148.892H626.53L624.046 152.564H622.768V148.892H621.022V158ZM629.445 153.428C629.445 156.2 631.641 158.216 634.359 158.216C637.059 158.216 639.255 156.2 639.255 153.428C639.255 150.674 637.059 148.676 634.341 148.676C631.641 148.676 629.445 150.674 629.445 153.428ZM631.227 153.428C631.227 151.538 632.631 150.188 634.359 150.188C636.069 150.188 637.491 151.538 637.491 153.428C637.491 155.336 636.069 156.704 634.359 156.704C632.631 156.704 631.227 155.336 631.227 153.428ZM641.36 158H643.106V154.094H647.714V158H649.46V148.892H647.714V152.6H643.106V148.892H641.36V158ZM651.559 153.446C651.559 156.146 653.539 158.216 656.401 158.216C657.661 158.216 659.047 157.73 659.929 156.92L659.191 155.642C658.471 156.29 657.481 156.704 656.509 156.704C654.871 156.704 653.467 155.642 653.377 153.68H660.001C660.037 153.428 660.073 153.176 660.073 152.942C660.073 150.602 658.705 148.676 656.131 148.676C653.539 148.676 651.559 150.548 651.559 153.446ZM653.431 152.42C653.683 150.908 654.745 150.026 656.095 150.026C657.283 150.026 658.255 150.854 658.309 152.42H653.431ZM664.656 154.832C665.556 154.832 666.546 154.526 667.122 154.166H667.158C667.158 154.166 667.14 154.454 667.14 154.706V158H668.886V148.892H667.14V152.672C666.762 152.942 666.024 153.32 665.124 153.32C663.63 153.32 663.306 152.51 663.306 151.61V148.892H661.596V151.862C661.596 153.806 662.712 154.832 664.656 154.832ZM671.594 158H673.34V154.094H677.948V158H679.694V148.892H677.948V152.6H673.34V148.892H671.594V158ZM681.793 153.428C681.793 156.2 683.989 158.216 686.707 158.216C689.407 158.216 691.603 156.2 691.603 153.428C691.603 150.674 689.407 148.676 686.689 148.676C683.989 148.676 681.793 150.674 681.793 153.428ZM683.575 153.428C683.575 151.538 684.979 150.188 686.707 150.188C688.417 150.188 689.839 151.538 689.839 153.428C689.839 155.336 688.417 156.704 686.707 156.704C684.979 156.704 683.575 155.336 683.575 153.428ZM693.113 153.446C693.113 156.182 695.111 158.216 697.991 158.216C699.413 158.216 700.799 157.64 701.627 156.758L700.925 155.48C700.223 156.218 699.125 156.704 698.117 156.704C696.227 156.704 694.895 155.282 694.895 153.428C694.895 151.574 696.227 150.188 698.063 150.188C699.017 150.188 699.971 150.62 700.583 151.232L701.411 150.008C700.547 149.09 699.197 148.676 697.991 148.676C695.129 148.676 693.113 150.746 693.113 153.446ZM705.712 158H707.44V150.386H710.626V148.892H702.544V150.386H705.712V158ZM712.34 158H715.886C718.19 158 719.234 156.83 719.234 155.12C719.234 153.05 717.812 152.186 715.922 152.186H714.086V148.892H712.34V158ZM714.086 156.74V153.446H715.652C716.912 153.446 717.452 154.13 717.452 155.102C717.452 156.056 716.912 156.74 715.652 156.74H714.086ZM510.35 186H514.238C516.218 186 517.586 185.1 517.586 183.408C517.586 182.4 516.992 181.518 515.858 181.248V181.23C516.686 180.87 517.154 180.114 517.154 179.232C517.154 177.702 515.948 176.892 514.112 176.892H510.35V186ZM512.096 180.744V178.098H513.752C514.85 178.098 515.372 178.53 515.372 179.358C515.372 180.204 514.85 180.744 513.806 180.744H512.096ZM512.096 184.776V181.914H513.95C515.156 181.914 515.822 182.454 515.822 183.354C515.822 184.2 515.228 184.776 513.968 184.776H512.096ZM519.324 186H521.016L521.412 180.582C521.448 180.042 521.394 179.016 521.394 179.016H521.43C521.43 179.016 521.718 179.7 522.006 180.366L524.166 184.902H525.66L527.82 180.348C528.162 179.646 528.396 179.016 528.396 179.016H528.432C528.432 179.016 528.396 180.042 528.414 180.582L528.81 186H530.502L529.71 176.892H527.802L525.426 182.04C525.192 182.598 524.922 183.264 524.922 183.264H524.886C524.886 183.264 524.634 182.58 524.382 182.04L522.06 176.892H520.116L519.324 186ZM532.256 181.446C532.256 184.146 534.236 186.216 537.098 186.216C538.358 186.216 539.744 185.73 540.626 184.92L539.888 183.642C539.168 184.29 538.178 184.704 537.206 184.704C535.568 184.704 534.164 183.642 534.074 181.68H540.698C540.734 181.428 540.77 181.176 540.77 180.942C540.77 178.602 539.402 176.676 536.828 176.676C534.236 176.676 532.256 178.548 532.256 181.446ZM534.128 180.42C534.38 178.908 535.442 178.026 536.792 178.026C537.98 178.026 538.952 178.854 539.006 180.42H534.128ZM542.276 181.446C542.276 184.182 544.274 186.216 547.154 186.216C548.576 186.216 549.962 185.64 550.79 184.758L550.088 183.48C549.386 184.218 548.288 184.704 547.28 184.704C545.39 184.704 544.058 183.282 544.058 181.428C544.058 179.574 545.39 178.188 547.226 178.188C548.18 178.188 549.134 178.62 549.746 179.232L550.574 178.008C549.71 177.09 548.36 176.676 547.154 176.676C544.292 176.676 542.276 178.746 542.276 181.446ZM554.874 186H556.602V178.386H559.788V176.892H551.706V178.386H554.874V186ZM560.61 181.446C560.61 184.146 562.59 186.216 565.452 186.216C566.712 186.216 568.098 185.73 568.98 184.92L568.242 183.642C567.522 184.29 566.532 184.704 565.56 184.704C563.922 184.704 562.518 183.642 562.428 181.68H569.052C569.088 181.428 569.124 181.176 569.124 180.942C569.124 178.602 567.756 176.676 565.182 176.676C562.59 176.676 560.61 178.548 560.61 181.446ZM562.482 180.42C562.734 178.908 563.796 178.026 565.146 178.026C566.334 178.026 567.306 178.854 567.36 180.42H562.482ZM575.129 181.446C575.129 184.182 577.127 186.216 580.007 186.216C581.429 186.216 582.815 185.64 583.643 184.758L582.941 183.48C582.239 184.218 581.141 184.704 580.133 184.704C578.243 184.704 576.911 183.282 576.911 181.428C576.911 179.574 578.243 178.188 580.079 178.188C581.033 178.188 581.987 178.62 582.599 179.232L583.427 178.008C582.563 177.09 581.213 176.676 580.007 176.676C577.145 176.676 575.129 178.746 575.129 181.446ZM590.032 186H593.92C595.9 186 597.268 185.1 597.268 183.408C597.268 182.4 596.674 181.518 595.54 181.248V181.23C596.368 180.87 596.836 180.114 596.836 179.232C596.836 177.702 595.63 176.892 593.794 176.892H590.032V186ZM591.778 180.744V178.098H593.434C594.532 178.098 595.054 178.53 595.054 179.358C595.054 180.204 594.532 180.744 593.488 180.744H591.778ZM591.778 184.776V181.914H593.632C594.838 181.914 595.504 182.454 595.504 183.354C595.504 184.2 594.91 184.776 593.65 184.776H591.778ZM598.627 183.516C598.627 185.226 600.085 186.216 601.669 186.216C603.019 186.216 604.135 185.406 604.657 184.362H604.693C604.693 184.362 604.639 184.668 604.639 185.082V186H606.277V180.24C606.277 177.936 604.963 176.676 602.677 176.676C601.399 176.676 600.013 177.144 599.275 177.756L599.977 179.034C600.715 178.512 601.633 178.152 602.533 178.152C603.667 178.152 604.531 178.656 604.531 180.15V180.33H604.063C602.173 180.33 598.627 180.654 598.627 183.516ZM600.373 183.372C600.373 181.698 602.785 181.59 604.081 181.59H604.531V181.932C604.531 183.282 603.613 184.83 602.083 184.83C600.949 184.83 600.373 184.092 600.373 183.372ZM608.48 186H610.172L610.568 180.582C610.604 180.042 610.55 179.016 610.55 179.016H610.586C610.586 179.016 610.874 179.7 611.162 180.366L613.322 184.902H614.816L616.976 180.348C617.318 179.646 617.552 179.016 617.552 179.016H617.588C617.588 179.016 617.552 180.042 617.57 180.582L617.966 186H619.658L618.866 176.892H616.958L614.582 182.04C614.348 182.598 614.078 183.264 614.078 183.264H614.042C614.042 183.264 613.79 182.58 613.538 182.04L611.216 176.892H609.272L608.48 186ZM622.006 186H623.68L627.622 180.564C627.91 180.132 628.36 179.52 628.414 179.358H628.45C628.45 179.502 628.396 180.132 628.396 180.564V186H630.088V176.892H628.396L624.472 182.328C624.166 182.76 623.734 183.39 623.662 183.552H623.626C623.644 183.462 623.68 182.814 623.68 182.328V176.892H622.006V186Z" fill="white"/>
<path d="M478.396 157.168C481.112 157.168 481.994 154.872 481.994 152.016C481.994 149.16 481.112 146.892 478.396 146.892C475.68 146.892 474.784 149.16 474.784 152.016C474.784 154.872 475.68 157.168 478.396 157.168ZM478.396 155.516C477.038 155.516 476.646 153.976 476.646 152.016C476.646 150.084 477.038 148.558 478.396 148.558C479.754 148.558 480.146 150.084 480.146 152.016C480.146 153.976 479.754 155.516 478.396 155.516ZM483.603 157H490.197V155.446H485.507C485.591 153.57 490.043 153.024 490.043 149.832C490.043 147.956 488.545 146.892 486.809 146.892C485.213 146.892 484.093 147.816 483.519 148.88L484.863 149.776C485.227 149.132 485.899 148.6 486.655 148.6C487.495 148.6 488.167 149.118 488.167 149.986C488.167 151.96 483.519 152.534 483.519 156.118C483.519 156.398 483.547 156.678 483.603 157Z" fill="white"/>
<path d="M509.882 80.556C509.882 84.3 512.744 87.216 516.416 87.216C520.088 87.216 522.932 84.3 522.932 80.556C522.932 76.902 520.088 74.076 516.416 74.076C512.744 74.076 509.882 76.902 509.882 80.556ZM511.718 80.556C511.718 77.802 513.806 75.696 516.416 75.696C519.008 75.696 521.096 77.802 521.096 80.556C521.096 83.4 519.008 85.578 516.416 85.578C513.806 85.578 511.718 83.4 511.718 80.556ZM525.063 87H526.809V79.386H531.273V87H533.019V77.892H525.063V87ZM535.715 90.6H537.461V86.46C537.461 85.992 537.389 85.668 537.389 85.668H537.425C538.055 86.64 539.099 87.216 540.251 87.216C542.645 87.216 544.373 85.344 544.373 82.446C544.373 79.62 542.843 77.676 540.377 77.676C539.045 77.676 537.893 78.288 537.317 79.386H537.281C537.281 79.386 537.335 79.08 537.335 78.702V77.892H535.715V90.6ZM537.407 82.482C537.407 80.178 538.667 79.206 540.035 79.206C541.547 79.206 542.609 80.484 542.609 82.464C542.609 84.534 541.421 85.704 539.981 85.704C538.307 85.704 537.407 84.102 537.407 82.482ZM545.932 82.446C545.932 85.146 547.912 87.216 550.774 87.216C552.034 87.216 553.42 86.73 554.302 85.92L553.564 84.642C552.844 85.29 551.854 85.704 550.882 85.704C549.244 85.704 547.84 84.642 547.75 82.68H554.374C554.41 82.428 554.446 82.176 554.446 81.942C554.446 79.602 553.078 77.676 550.504 77.676C547.912 77.676 545.932 79.548 545.932 82.446ZM547.804 81.42C548.056 79.908 549.118 79.026 550.468 79.026C551.656 79.026 552.628 79.854 552.682 81.42H547.804ZM558.327 85.56C559.479 83.76 559.623 81.168 559.623 79.8V79.314H562.359V85.56H558.327ZM555.411 85.56V89.16H557.049V87H563.799V89.16H565.401V85.56H564.105V77.892H557.949V79.566C557.949 80.97 557.805 83.814 556.527 85.56H555.411ZM566.533 82.446C566.533 85.146 568.513 87.216 571.375 87.216C572.635 87.216 574.021 86.73 574.903 85.92L574.165 84.642C573.445 85.29 572.455 85.704 571.483 85.704C569.845 85.704 568.441 84.642 568.351 82.68H574.975C575.011 82.428 575.047 82.176 575.047 81.942C575.047 79.602 573.679 77.676 571.105 77.676C568.513 77.676 566.533 79.548 566.533 82.446ZM568.405 81.42C568.657 79.908 569.719 79.026 571.069 79.026C572.257 79.026 573.229 79.854 573.283 81.42H568.405ZM576.157 87.09C578.839 86.946 579.883 84.822 579.883 80.7V79.332H582.565V87H584.311V77.892H578.209V80.7C578.209 83.994 577.489 85.326 576.157 85.524V87.09ZM587.008 87H588.682L592.624 81.564C592.912 81.132 593.362 80.52 593.416 80.358H593.452C593.452 80.502 593.398 81.132 593.398 81.564V87H595.09V77.892H593.398L589.474 83.328C589.168 83.76 588.736 84.39 588.664 84.552H588.628C588.646 84.462 588.682 83.814 588.682 83.328V77.892H587.008V87ZM597.388 87H599.08L599.476 81.582C599.512 81.042 599.458 80.016 599.458 80.016H599.494C599.494 80.016 599.782 80.7 600.07 81.366L602.23 85.902H603.724L605.884 81.348C606.226 80.646 606.46 80.016 606.46 80.016H606.496C606.496 80.016 606.46 81.042 606.478 81.582L606.874 87H608.566L607.774 77.892H605.866L603.49 83.04C603.256 83.598 602.986 84.264 602.986 84.264H602.95C602.95 84.264 602.698 83.58 602.446 83.04L600.124 77.892H598.18L597.388 87ZM615.414 87H619.302C621.282 87 622.65 86.1 622.65 84.408C622.65 83.4 622.056 82.518 620.922 82.248V82.23C621.75 81.87 622.218 81.114 622.218 80.232C622.218 78.702 621.012 77.892 619.176 77.892H615.414V87ZM617.16 81.744V79.098H618.816C619.914 79.098 620.436 79.53 620.436 80.358C620.436 81.204 619.914 81.744 618.87 81.744H617.16ZM617.16 85.776V82.914H619.014C620.22 82.914 620.886 83.454 620.886 84.354C620.886 85.2 620.292 85.776 619.032 85.776H617.16ZM624.01 84.516C624.01 86.226 625.468 87.216 627.052 87.216C628.402 87.216 629.518 86.406 630.04 85.362H630.076C630.076 85.362 630.022 85.668 630.022 86.082V87H631.66V81.24C631.66 78.936 630.346 77.676 628.06 77.676C626.782 77.676 625.396 78.144 624.658 78.756L625.36 80.034C626.098 79.512 627.016 79.152 627.916 79.152C629.05 79.152 629.914 79.656 629.914 81.15V81.33H629.446C627.556 81.33 624.01 81.654 624.01 84.516ZM625.756 84.372C625.756 82.698 628.168 82.59 629.464 82.59H629.914V82.932C629.914 84.282 628.996 85.83 627.466 85.83C626.332 85.83 625.756 85.092 625.756 84.372ZM634.241 87H646.013V77.892H644.339V85.488H640.973V77.892H639.281V85.488H635.915V77.892H634.241V87ZM652.757 88.89L652.145 90.222C652.145 90.222 652.883 90.78 653.891 90.78C655.169 90.78 656.303 90.06 656.843 88.638L661.127 77.892H659.237L657.023 83.868C656.861 84.336 656.717 84.948 656.717 84.948H656.681C656.681 84.948 656.519 84.3 656.339 83.85L654.053 77.892H652.091L655.907 86.892L655.457 87.936C655.115 88.764 654.521 89.286 653.801 89.286C653.261 89.286 652.757 88.89 652.757 88.89ZM662.84 90.6H664.586V86.46C664.586 85.992 664.514 85.668 664.514 85.668H664.55C665.18 86.64 666.224 87.216 667.376 87.216C669.77 87.216 671.498 85.344 671.498 82.446C671.498 79.62 669.968 77.676 667.502 77.676C666.17 77.676 665.018 78.288 664.442 79.386H664.406C664.406 79.386 664.46 79.08 664.46 78.702V77.892H662.84V90.6ZM664.532 82.482C664.532 80.178 665.792 79.206 667.16 79.206C668.672 79.206 669.734 80.484 669.734 82.464C669.734 84.534 668.546 85.704 667.106 85.704C665.432 85.704 664.532 84.102 664.532 82.482ZM673.057 82.428C673.057 85.2 675.253 87.216 677.971 87.216C680.671 87.216 682.867 85.2 682.867 82.428C682.867 79.674 680.671 77.676 677.953 77.676C675.253 77.676 673.057 79.674 673.057 82.428ZM674.839 82.428C674.839 80.538 676.243 79.188 677.971 79.188C679.681 79.188 681.103 80.538 681.103 82.428C681.103 84.336 679.681 85.704 677.971 85.704C676.243 85.704 674.839 84.336 674.839 82.428ZM684.971 87H688.859C690.839 87 692.207 86.1 692.207 84.408C692.207 83.4 691.613 82.518 690.479 82.248V82.23C691.307 81.87 691.775 81.114 691.775 80.232C691.775 78.702 690.569 77.892 688.733 77.892H684.971V87ZM686.717 81.744V79.098H688.373C689.471 79.098 689.993 79.53 689.993 80.358C689.993 81.204 689.471 81.744 688.427 81.744H686.717ZM686.717 85.776V82.914H688.571C689.777 82.914 690.443 83.454 690.443 84.354C690.443 85.2 689.849 85.776 688.589 85.776H686.717ZM693.729 82.446C693.729 85.146 695.709 87.216 698.571 87.216C699.831 87.216 701.217 86.73 702.099 85.92L701.361 84.642C700.641 85.29 699.651 85.704 698.679 85.704C697.041 85.704 695.637 84.642 695.547 82.68H702.171C702.207 82.428 702.243 82.176 702.243 81.942C702.243 79.602 700.875 77.676 698.301 77.676C695.709 77.676 693.729 79.548 693.729 82.446ZM695.601 81.42C695.853 79.908 696.915 79.026 698.265 79.026C699.453 79.026 700.425 79.854 700.479 81.42H695.601ZM704.342 87H706.088V83.094H710.696V87H712.442V77.892H710.696V81.6H706.088V77.892H704.342V87ZM715.135 87H718.681C720.985 87 722.029 85.83 722.029 84.12C722.029 82.05 720.607 81.186 718.717 81.186H716.881V77.892H715.135V87ZM716.881 85.74V82.446H718.447C719.707 82.446 720.247 83.13 720.247 84.102C720.247 85.056 719.707 85.74 718.447 85.74H716.881ZM510.35 115H512.024L515.966 109.564C516.254 109.132 516.704 108.52 516.758 108.358H516.794C516.794 108.502 516.74 109.132 516.74 109.564V115H518.432V105.892H516.74L512.816 111.328C512.51 111.76 512.078 112.39 512.006 112.552H511.97C511.988 112.462 512.024 111.814 512.024 111.328V105.892H510.35V115ZM528.704 109.924L531.656 113.614H533.402L530.45 109.924L533.402 106.216H531.656L528.704 109.924ZM528.02 113.614H529.766L526.814 109.924L529.766 106.216H528.02L525.068 109.924L528.02 113.614ZM534.636 115H536.616L538.92 111.094C539.316 110.392 539.694 109.636 539.694 109.636H539.73C539.73 109.636 540.126 110.392 540.522 111.094L542.844 115H544.842L540.828 108.448L544.608 102.292H542.556L540.54 105.73C540.126 106.432 539.748 107.206 539.748 107.206H539.712C539.712 107.206 539.298 106.414 538.92 105.73L536.922 102.292H534.888L538.632 108.448L534.636 115ZM546.315 115H547.989L551.931 109.564C552.219 109.132 552.669 108.52 552.723 108.358H552.759C552.759 108.502 552.705 109.132 552.705 109.564V115H554.397V105.892H552.705L548.781 111.328C548.475 111.76 548.043 112.39 547.971 112.552H547.935C547.953 112.462 547.989 111.814 547.989 111.328V105.892H546.315V115ZM556.695 115H558.387L558.783 109.582C558.819 109.042 558.765 108.016 558.765 108.016H558.801C558.801 108.016 559.089 108.7 559.377 109.366L561.537 113.902H563.031L565.191 109.348C565.533 108.646 565.767 108.016 565.767 108.016H565.803C565.803 108.016 565.767 109.042 565.785 109.582L566.181 115H567.873L567.081 105.892H565.173L562.797 111.04C562.563 111.598 562.293 112.264 562.293 112.264H562.257C562.257 112.264 562.005 111.58 561.753 111.04L559.431 105.892H557.487L556.695 115ZM570.221 115H571.895L575.837 109.564C576.125 109.132 576.575 108.52 576.629 108.358H576.665C576.665 108.502 576.611 109.132 576.611 109.564V115H578.303V105.892H576.611L572.687 111.328C572.381 111.76 571.949 112.39 571.877 112.552H571.841C571.859 112.462 571.895 111.814 571.895 111.328V105.892H570.221V115ZM580.979 115H582.725V111.148H584.381C584.705 113.524 586.631 115.216 589.043 115.216C591.671 115.216 593.777 113.2 593.777 110.428C593.777 107.674 591.671 105.676 589.025 105.676C586.631 105.676 584.705 107.35 584.381 109.708H582.725V105.892H580.979V115ZM586.073 110.428C586.073 108.538 587.387 107.188 589.043 107.188C590.681 107.188 591.995 108.538 591.995 110.428C591.995 112.336 590.681 113.704 589.043 113.704C587.387 113.704 586.073 112.336 586.073 110.428ZM599.107 113.614H600.853L603.805 109.924L600.853 106.216H599.107L602.059 109.924L599.107 113.614ZM595.489 113.614H597.235L600.187 109.924L597.235 106.216H595.489L598.441 109.924L595.489 113.614ZM609.881 110.446C609.881 113.182 611.879 115.216 614.759 115.216C616.181 115.216 617.567 114.64 618.395 113.758L617.693 112.48C616.991 113.218 615.893 113.704 614.885 113.704C612.995 113.704 611.663 112.282 611.663 110.428C611.663 108.574 612.995 107.188 614.831 107.188C615.785 107.188 616.739 107.62 617.351 108.232L618.179 107.008C617.315 106.09 615.965 105.676 614.759 105.676C611.897 105.676 609.881 107.746 609.881 110.446ZM624.784 115H626.53V107.386H630.994V115H632.74V105.892H624.784V115ZM635.436 118.6H637.182V114.46C637.182 113.992 637.11 113.668 637.11 113.668H637.146C637.776 114.64 638.82 115.216 639.972 115.216C642.366 115.216 644.094 113.344 644.094 110.446C644.094 107.62 642.564 105.676 640.098 105.676C638.766 105.676 637.614 106.288 637.038 107.386H637.002C637.002 107.386 637.056 107.08 637.056 106.702V105.892H635.436V118.6ZM637.128 110.482C637.128 108.178 638.388 107.206 639.756 107.206C641.268 107.206 642.33 108.484 642.33 110.464C642.33 112.534 641.142 113.704 639.702 113.704C638.028 113.704 637.128 112.102 637.128 110.482ZM645.652 110.446C645.652 113.146 647.632 115.216 650.494 115.216C651.754 115.216 653.14 114.73 654.022 113.92L653.284 112.642C652.564 113.29 651.574 113.704 650.602 113.704C648.964 113.704 647.56 112.642 647.47 110.68H654.094C654.13 110.428 654.166 110.176 654.166 109.942C654.166 107.602 652.798 105.676 650.224 105.676C647.632 105.676 645.652 107.548 645.652 110.446ZM647.524 109.42C647.776 107.908 648.838 107.026 650.188 107.026C651.376 107.026 652.348 107.854 652.402 109.42H647.524ZM656.266 115H658.012V107.386H662.476V115H664.222V105.892H656.266V115ZM666.324 110.428C666.324 113.2 668.52 115.216 671.238 115.216C673.938 115.216 676.134 113.2 676.134 110.428C676.134 107.674 673.938 105.676 671.22 105.676C668.52 105.676 666.324 107.674 666.324 110.428ZM668.106 110.428C668.106 108.538 669.51 107.188 671.238 107.188C672.948 107.188 674.37 108.538 674.37 110.428C674.37 112.336 672.948 113.704 671.238 113.704C669.51 113.704 668.106 112.336 668.106 110.428ZM679.792 113.56C680.944 111.76 681.088 109.168 681.088 107.8V107.314H683.824V113.56H679.792ZM676.876 113.56V117.16H678.514V115H685.264V117.16H686.866V113.56H685.57V105.892H679.414V107.566C679.414 108.97 679.27 111.814 677.992 113.56H676.876ZM687.942 112.516C687.942 114.226 689.4 115.216 690.984 115.216C692.334 115.216 693.45 114.406 693.972 113.362H694.008C694.008 113.362 693.954 113.668 693.954 114.082V115H695.592V109.24C695.592 106.936 694.278 105.676 691.992 105.676C690.714 105.676 689.328 106.144 688.59 106.756L689.292 108.034C690.03 107.512 690.948 107.152 691.848 107.152C692.982 107.152 693.846 107.656 693.846 109.15V109.33H693.378C691.488 109.33 687.942 109.654 687.942 112.516ZM689.688 112.372C689.688 110.698 692.1 110.59 693.396 110.59H693.846V110.932C693.846 112.282 692.928 113.83 691.398 113.83C690.264 113.83 689.688 113.092 689.688 112.372ZM698.172 115H702.06C704.04 115 705.408 114.1 705.408 112.408C705.408 111.4 704.814 110.518 703.68 110.248V110.23C704.508 109.87 704.976 109.114 704.976 108.232C704.976 106.702 703.77 105.892 701.934 105.892H698.172V115ZM699.918 109.744V107.098H701.574C702.672 107.098 703.194 107.53 703.194 108.358C703.194 109.204 702.672 109.744 701.628 109.744H699.918ZM699.918 113.776V110.914H701.772C702.978 110.914 703.644 111.454 703.644 112.354C703.644 113.2 703.05 113.776 701.79 113.776H699.918ZM706.768 112.516C706.768 114.226 708.226 115.216 709.81 115.216C711.16 115.216 712.276 114.406 712.798 113.362H712.834C712.834 113.362 712.78 113.668 712.78 114.082V115H714.418V109.24C714.418 106.936 713.104 105.676 710.818 105.676C709.54 105.676 708.154 106.144 707.416 106.756L708.118 108.034C708.856 107.512 709.774 107.152 710.674 107.152C711.808 107.152 712.672 107.656 712.672 109.15V109.33H712.204C710.314 109.33 706.768 109.654 706.768 112.516ZM708.514 112.372C708.514 110.698 710.926 110.59 712.222 110.59H712.672V110.932C712.672 112.282 711.754 113.83 710.224 113.83C709.09 113.83 708.514 113.092 708.514 112.372ZM719.071 115H720.799V107.386H723.985V105.892H715.903V107.386H719.071V115ZM724.807 110.446C724.807 113.146 726.787 115.216 729.649 115.216C730.909 115.216 732.295 114.73 733.177 113.92L732.439 112.642C731.719 113.29 730.729 113.704 729.757 113.704C728.119 113.704 726.715 112.642 726.625 110.68H733.249C733.285 110.428 733.321 110.176 733.321 109.942C733.321 107.602 731.953 105.676 729.379 105.676C726.787 105.676 724.807 107.548 724.807 110.446ZM726.679 109.42C726.931 107.908 727.993 107.026 729.343 107.026C730.531 107.026 731.503 107.854 731.557 109.42H726.679ZM734.43 115.09C737.112 114.946 738.156 112.822 738.156 108.7V107.332H740.838V115H742.584V105.892H736.482V108.7C736.482 111.994 735.762 113.326 734.43 113.524V115.09ZM744.688 110.446C744.688 113.146 746.668 115.216 749.53 115.216C750.79 115.216 752.176 114.73 753.058 113.92L752.32 112.642C751.6 113.29 750.61 113.704 749.638 113.704C748 113.704 746.596 112.642 746.506 110.68H753.13C753.166 110.428 753.202 110.176 753.202 109.942C753.202 107.602 751.834 105.676 749.26 105.676C746.668 105.676 744.688 107.548 744.688 110.446ZM746.56 109.42C746.812 107.908 747.874 107.026 749.224 107.026C750.412 107.026 751.384 107.854 751.438 109.42H746.56ZM754.923 115H756.615L757.011 109.582C757.047 109.042 756.993 108.016 756.993 108.016H757.029C757.029 108.016 757.317 108.7 757.605 109.366L759.765 113.902H761.259L763.419 109.348C763.761 108.646 763.995 108.016 763.995 108.016H764.031C764.031 108.016 763.995 109.042 764.013 109.582L764.409 115H766.101L765.309 105.892H763.401L761.025 111.04C760.791 111.598 760.521 112.264 760.521 112.264H760.485C760.485 112.264 760.233 111.58 759.981 111.04L757.659 105.892H755.715L754.923 115Z" fill="white"/>
<path d="M478.396 86.168C481.112 86.168 481.994 83.872 481.994 81.016C481.994 78.16 481.112 75.892 478.396 75.892C475.68 75.892 474.784 78.16 474.784 81.016C474.784 83.872 475.68 86.168 478.396 86.168ZM478.396 84.516C477.038 84.516 476.646 82.976 476.646 81.016C476.646 79.084 477.038 77.558 478.396 77.558C479.754 77.558 480.146 79.084 480.146 81.016C480.146 82.976 479.754 84.516 478.396 84.516ZM483.575 86H489.651V84.446H487.495V76.06H485.913L483.421 78.454L484.485 79.574L485.283 78.818C485.605 78.496 485.731 78.258 485.731 78.258H485.759C485.759 78.258 485.745 78.594 485.745 78.93V84.446H483.575V86Z" fill="white"/>
<path d="M510.674 229H512.456V224.302H515.336C517.658 224.302 519.314 222.682 519.314 220.27C519.314 217.858 517.658 216.292 515.336 216.292H510.674V229ZM512.456 222.754V217.84H515.066C516.56 217.84 517.514 218.758 517.514 220.27C517.514 221.8 516.56 222.754 515.048 222.754H512.456ZM520.246 226.516C520.246 228.226 521.704 229.216 523.288 229.216C524.638 229.216 525.754 228.406 526.276 227.362H526.312C526.312 227.362 526.258 227.668 526.258 228.082V229H527.896V223.24C527.896 220.936 526.582 219.676 524.296 219.676C523.018 219.676 521.632 220.144 520.894 220.756L521.596 222.034C522.334 221.512 523.252 221.152 524.152 221.152C525.286 221.152 526.15 221.656 526.15 223.15V223.33H525.682C523.792 223.33 520.246 223.654 520.246 226.516ZM521.992 226.372C521.992 224.698 524.404 224.59 525.7 224.59H526.15V224.932C526.15 226.282 525.232 227.83 523.702 227.83C522.568 227.83 521.992 227.092 521.992 226.372ZM529.595 227.884C530.351 228.604 531.539 229.216 532.943 229.216C534.815 229.216 536.435 228.262 536.435 226.39C536.435 225.22 535.715 224.536 534.797 224.248V224.212C535.517 223.906 536.129 223.276 536.129 222.142C536.129 220.522 534.779 219.676 533.051 219.676C531.611 219.676 530.585 220.144 529.883 220.666L530.531 221.836C531.233 221.314 531.953 221.044 532.745 221.044C533.753 221.044 534.365 221.512 534.365 222.358C534.365 223.276 533.663 223.672 532.637 223.672H531.683V224.932H532.799C534.077 224.932 534.671 225.436 534.671 226.318C534.671 227.308 533.825 227.812 532.781 227.812C531.683 227.812 530.819 227.164 530.405 226.732L529.595 227.884ZM538.149 223.762C538.149 226.912 539.535 229.216 542.613 229.216C545.187 229.216 546.915 227.416 546.915 224.896C546.915 222.322 545.331 220.702 543.045 220.702C541.839 220.702 540.633 221.098 539.823 222.322H539.787C539.913 220.576 540.777 219.514 542.595 218.686L546.087 217.228L545.511 215.788L542.253 217.192C539.085 218.524 538.149 220.504 538.149 223.762ZM539.967 224.896C539.967 223.294 541.065 222.088 542.613 222.088C543.981 222.088 545.151 223.15 545.151 224.932C545.151 226.696 543.981 227.74 542.541 227.74C541.137 227.74 539.967 226.696 539.967 224.896ZM548.498 224.446C548.498 227.146 550.478 229.216 553.34 229.216C554.6 229.216 555.986 228.73 556.868 227.92L556.13 226.642C555.41 227.29 554.42 227.704 553.448 227.704C551.81 227.704 550.406 226.642 550.316 224.68H556.94C556.976 224.428 557.012 224.176 557.012 223.942C557.012 221.602 555.644 219.676 553.07 219.676C550.478 219.676 548.498 221.548 548.498 224.446ZM550.37 223.42C550.622 221.908 551.684 221.026 553.034 221.026C554.222 221.026 555.194 221.854 555.248 223.42H550.37ZM559.112 232.6H560.858V228.46C560.858 227.992 560.786 227.668 560.786 227.668H560.822C561.452 228.64 562.496 229.216 563.648 229.216C566.042 229.216 567.77 227.344 567.77 224.446C567.77 221.62 566.24 219.676 563.774 219.676C562.442 219.676 561.29 220.288 560.714 221.386H560.678C560.678 221.386 560.732 221.08 560.732 220.702V219.892H559.112V232.6ZM560.804 224.482C560.804 222.178 562.064 221.206 563.432 221.206C564.944 221.206 566.006 222.484 566.006 224.464C566.006 226.534 564.818 227.704 563.378 227.704C561.704 227.704 560.804 226.102 560.804 224.482ZM569.328 224.446C569.328 227.146 571.308 229.216 574.17 229.216C575.43 229.216 576.816 228.73 577.698 227.92L576.96 226.642C576.24 227.29 575.25 227.704 574.278 227.704C572.64 227.704 571.236 226.642 571.146 224.68H577.77C577.806 224.428 577.842 224.176 577.842 223.942C577.842 221.602 576.474 219.676 573.9 219.676C571.308 219.676 569.328 221.548 569.328 224.446ZM571.2 223.42C571.452 221.908 572.514 221.026 573.864 221.026C575.052 221.026 576.024 221.854 576.078 223.42H571.2ZM579.564 229H581.256L581.652 223.582C581.688 223.042 581.634 222.016 581.634 222.016H581.67C581.67 222.016 581.958 222.7 582.246 223.366L584.406 227.902H585.9L588.06 223.348C588.402 222.646 588.636 222.016 588.636 222.016H588.672C588.672 222.016 588.636 223.042 588.654 223.582L589.05 229H590.742L589.95 219.892H588.042L585.666 225.04C585.432 225.598 585.162 226.264 585.162 226.264H585.126C585.126 226.264 584.874 225.58 584.622 225.04L582.3 219.892H580.356L579.564 229ZM592.496 224.446C592.496 227.182 594.494 229.216 597.374 229.216C598.796 229.216 600.182 228.64 601.01 227.758L600.308 226.48C599.606 227.218 598.508 227.704 597.5 227.704C595.61 227.704 594.278 226.282 594.278 224.428C594.278 222.574 595.61 221.188 597.446 221.188C598.4 221.188 599.354 221.62 599.966 222.232L600.794 221.008C599.93 220.09 598.58 219.676 597.374 219.676C594.512 219.676 592.496 221.746 592.496 224.446ZM601.981 229H603.907L606.139 225.706H607.669V229H609.415V219.892H605.779C603.853 219.892 602.521 220.882 602.521 222.754C602.521 224.14 603.457 225.112 604.501 225.4V225.418C604.501 225.418 604.285 225.652 604.087 225.976L601.981 229ZM606.157 224.428C605.095 224.428 604.285 223.87 604.285 222.736C604.285 221.566 605.041 221.098 606.211 221.098H607.669V224.428H606.157ZM616.016 224.446C616.016 227.182 618.014 229.216 620.894 229.216C622.316 229.216 623.702 228.64 624.53 227.758L623.828 226.48C623.126 227.218 622.028 227.704 621.02 227.704C619.13 227.704 617.798 226.282 617.798 224.428C617.798 222.574 619.13 221.188 620.966 221.188C621.92 221.188 622.874 221.62 623.486 222.232L624.314 221.008C623.45 220.09 622.1 219.676 620.894 219.676C618.032 219.676 616.016 221.746 616.016 224.446ZM631.242 229H633.024V223.42H639.63V229H641.394V216.292H639.63V221.872H633.024V216.292H631.242V229ZM644.313 229H647.859C650.163 229 651.207 227.83 651.207 226.12C651.207 224.05 649.785 223.186 647.895 223.186H646.059V219.892H644.313V229ZM646.059 227.74V224.446H647.625C648.885 224.446 649.425 225.13 649.425 226.102C649.425 227.056 648.885 227.74 647.625 227.74H646.059ZM653.084 229H654.83V225.148H656.486C656.81 227.524 658.736 229.216 661.148 229.216C663.776 229.216 665.882 227.2 665.882 224.428C665.882 221.674 663.776 219.676 661.13 219.676C658.736 219.676 656.81 221.35 656.486 223.708H654.83V219.892H653.084V229ZM658.178 224.428C658.178 222.538 659.492 221.188 661.148 221.188C662.786 221.188 664.1 222.538 664.1 224.428C664.1 226.336 662.786 227.704 661.148 227.704C659.492 227.704 658.178 226.336 658.178 224.428ZM669.888 229H671.616V221.386H674.802V219.892H666.72V221.386H669.888V229ZM675.623 224.428C675.623 227.2 677.819 229.216 680.537 229.216C683.237 229.216 685.433 227.2 685.433 224.428C685.433 221.674 683.237 219.676 680.519 219.676C677.819 219.676 675.623 221.674 675.623 224.428ZM677.405 224.428C677.405 222.538 678.809 221.188 680.537 221.188C682.247 221.188 683.669 222.538 683.669 224.428C683.669 226.336 682.247 227.704 680.537 227.704C678.809 227.704 677.405 226.336 677.405 224.428ZM687.538 229H689.284V225.094H693.892V229H695.638V219.892H693.892V223.6H689.284V219.892H687.538V229ZM697.736 224.428C697.736 227.2 699.932 229.216 702.65 229.216C705.35 229.216 707.546 227.2 707.546 224.428C707.546 221.674 705.35 219.676 702.632 219.676C699.932 219.676 697.736 221.674 697.736 224.428ZM699.518 224.428C699.518 222.538 700.922 221.188 702.65 221.188C704.36 221.188 705.782 222.538 705.782 224.428C705.782 226.336 704.36 227.704 702.65 227.704C700.922 227.704 699.518 226.336 699.518 224.428ZM709.273 229H710.965L711.361 223.582C711.397 223.042 711.343 222.016 711.343 222.016H711.379C711.379 222.016 711.667 222.7 711.955 223.366L714.115 227.902H715.609L717.769 223.348C718.111 222.646 718.345 222.016 718.345 222.016H718.381C718.381 222.016 718.345 223.042 718.363 223.582L718.759 229H720.451L719.659 219.892H717.751L715.375 225.04C715.141 225.598 714.871 226.264 714.871 226.264H714.835C714.835 226.264 714.583 225.58 714.331 225.04L712.009 219.892H710.065L709.273 229Z" fill="white"/>
<path d="M478.396 228.168C481.112 228.168 481.994 225.872 481.994 223.016C481.994 220.16 481.112 217.892 478.396 217.892C475.68 217.892 474.784 220.16 474.784 223.016C474.784 225.872 475.68 228.168 478.396 228.168ZM478.396 226.516C477.038 226.516 476.646 224.976 476.646 223.016C476.646 221.084 477.038 219.558 478.396 219.558C479.754 219.558 480.146 221.084 480.146 223.016C480.146 224.976 479.754 226.516 478.396 226.516ZM483.323 226.838C484.191 227.72 485.437 228.168 486.613 228.168C488.839 228.168 490.113 226.6 490.113 224.906C490.113 223.184 488.783 222.204 487.411 222.008L489.833 219.194V218.06H483.771V219.614H486.739C487.313 219.614 487.621 219.572 487.621 219.572V219.6C487.621 219.6 487.285 219.894 486.907 220.356L485.087 222.512L485.479 223.436H486.165C487.341 223.436 488.293 223.926 488.293 224.976C488.293 225.83 487.537 226.46 486.515 226.46C485.633 226.46 484.779 225.998 484.247 225.452L483.323 226.838Z" fill="white"/>
</svg>
