<svg width="694" height="292" viewBox="0 0 694 292" fill="none" xmlns="http://www.w3.org/2000/svg">
<path d="M22.0163 206.482C25.7983 210.512 31.4403 212.744 37.0203 212.744C45.3903 212.744 52.2723 207.722 52.2723 199.414C52.2723 194.206 49.3583 190.548 44.8943 189.184V189.06C47.8703 187.448 50.9703 184.472 50.9703 179.264C50.9703 171.452 44.5223 167.236 37.4543 167.236C33.1763 167.236 28.0923 168.104 23.3183 172.072L26.5423 177.9C29.7043 175.296 33.1143 174.18 36.0903 174.18C40.6783 174.18 42.8483 176.908 42.8483 180.256C42.8483 183.728 39.9963 186.332 36.0283 186.332H31.6883V192.78H37.0823C41.3603 192.78 44.0883 195.074 44.0883 198.918C44.0883 203.196 40.9883 205.676 36.2763 205.676C32.3083 205.676 28.5883 203.506 26.3563 201.15L22.0163 206.482ZM56.841 203.258C56.841 209.024 61.553 212.744 67.257 212.744C71.535 212.744 75.317 210.388 77.239 207.04H77.363C77.363 207.04 77.177 208.032 77.177 209.334V212H84.493V192.222C84.493 184.224 79.595 179.636 71.349 179.636C66.637 179.636 61.553 181.434 58.949 183.542L61.863 189.184C64.405 187.448 67.567 186.146 70.667 186.146C73.953 186.146 76.619 187.572 76.619 191.726V192.16H75.255C68.249 192.16 56.841 193.772 56.841 203.258ZM64.653 202.576C64.653 198.112 71.349 197.554 75.317 197.554H76.681V198.422C76.681 202.266 73.829 206.73 69.427 206.73C66.265 206.73 64.653 204.684 64.653 202.576ZM101.303 201.522C104.713 201.522 107.937 200.53 109.859 199.476H109.983C109.983 199.476 109.921 200.406 109.921 201.212V212H117.733V180.38H109.921V192.966C108.681 193.834 106.511 194.95 103.783 194.95C99.6292 194.95 98.3892 192.656 98.3892 189.68V180.38H90.6392V190.982C90.6392 198.36 95.2272 201.522 101.303 201.522ZM124.302 196.19C124.302 205.18 130.874 212.744 141.352 212.744C145.878 212.744 150.838 211.07 154.062 208.218L150.962 202.576C148.42 204.622 145.134 206.048 141.91 206.048C137.136 206.048 132.92 203.196 132.424 197.678H154.186C154.31 196.686 154.434 195.632 154.434 194.64C154.434 186.27 149.474 179.636 140.422 179.636C130.936 179.636 124.302 186.456 124.302 196.19ZM132.61 192.284C133.354 188.254 136.206 185.588 140.236 185.588C143.77 185.588 146.498 188.068 146.56 192.284H132.61ZM159.676 212H167.24L168.356 194.888C168.48 192.78 168.294 189.494 168.294 189.494H168.418C168.418 189.494 169.472 191.974 170.34 194.144L176.54 208.032H183.05L189.25 194.082C190.242 191.85 191.11 189.494 191.11 189.494H191.234C191.234 189.494 191.11 192.78 191.172 194.888L192.288 212H199.852L197 180.38H188.196L181.376 196.686C180.694 198.484 179.826 200.716 179.826 200.716H179.702C179.702 200.716 178.896 198.422 178.152 196.686L171.456 180.38H162.528L159.676 212ZM221.748 217.084L219.144 222.974C219.144 222.974 221.934 225.02 225.716 225.02C230.366 225.02 234.954 222.54 237.124 216.774L251.198 180.38H242.642L236.442 198.732C235.946 200.406 235.388 202.886 235.388 202.886H235.264C235.264 202.886 234.706 200.282 234.086 198.608L227.452 180.38H218.586L231.916 211.504L230.738 214.294C229.56 217.084 227.39 218.386 225.22 218.386C223.484 218.386 221.748 217.084 221.748 217.084ZM271.839 212H279.713V199.228H293.229V212H301.103V180.38H293.229V192.594H279.713V180.38H271.839V212ZM307.142 203.258C307.142 209.024 311.854 212.744 317.558 212.744C321.836 212.744 325.618 210.388 327.54 207.04H327.664C327.664 207.04 327.478 208.032 327.478 209.334V212H334.794V192.222C334.794 184.224 329.896 179.636 321.65 179.636C316.938 179.636 311.854 181.434 309.25 183.542L312.164 189.184C314.706 187.448 317.868 186.146 320.968 186.146C324.254 186.146 326.92 187.572 326.92 191.726V192.16H325.556C318.55 192.16 307.142 193.772 307.142 203.258ZM314.954 202.576C314.954 198.112 321.65 197.554 325.618 197.554H326.982V198.422C326.982 202.266 324.13 206.73 319.728 206.73C316.566 206.73 314.954 204.684 314.954 202.576ZM340.878 196.19C340.878 205.366 347.574 212.744 358.052 212.744C363.136 212.744 368.096 210.76 371.072 207.598L368.034 202.018C365.678 204.312 362.082 206.048 358.734 206.048C352.658 206.048 348.876 201.46 348.876 196.128C348.876 190.734 352.658 186.332 358.486 186.332C361.586 186.332 364.686 187.758 366.67 189.742L370.204 184.348C367.166 181.062 362.33 179.636 358.052 179.636C347.574 179.636 340.878 187.2 340.878 196.19ZM391.461 217.084L388.857 222.974C388.857 222.974 391.647 225.02 395.429 225.02C400.079 225.02 404.667 222.54 406.837 216.774L420.911 180.38H412.355L406.155 198.732C405.659 200.406 405.101 202.886 405.101 202.886H404.977C404.977 202.886 404.419 200.282 403.799 198.608L397.165 180.38H388.299L401.629 211.504L400.451 214.294C399.273 217.084 397.103 218.386 394.933 218.386C393.197 218.386 391.461 217.084 391.461 217.084ZM434.856 201.522C438.266 201.522 441.49 200.53 443.412 199.476H443.536C443.536 199.476 443.474 200.406 443.474 201.212V212H451.286V180.38H443.474V192.966C442.234 193.834 440.064 194.95 437.336 194.95C433.182 194.95 431.942 192.656 431.942 189.68V180.38H424.192V190.982C424.192 198.36 428.78 201.522 434.856 201.522ZM459.777 212H467.403L479.121 195.136C479.927 193.896 481.105 192.222 481.477 191.354H481.601C481.539 192.16 481.415 193.958 481.415 195.136V212H488.917V180.38H481.291L469.573 197.306C468.767 198.546 467.589 200.282 467.217 201.088H467.093C467.155 200.592 467.279 198.732 467.279 197.306V180.38H459.777V212ZM504.754 212H512.566V187.076H523.044V180.38H494.338V187.076H504.754V212ZM528.376 212H542.078C550.386 212 554.044 207.846 554.044 201.708C554.044 194.826 549.58 191.23 542.14 191.23H536.25V180.38H528.376V212ZM536.25 206.606V196.562H540.714C544.434 196.562 546.108 198.732 546.108 201.646C546.108 204.498 544.434 206.606 540.838 206.606H536.25ZM557.878 196.19C557.878 205.366 564.574 212.744 575.052 212.744C580.136 212.744 585.096 210.76 588.072 207.598L585.034 202.018C582.678 204.312 579.082 206.048 575.734 206.048C569.658 206.048 565.876 201.46 565.876 196.128C565.876 190.734 569.658 186.332 575.486 186.332C578.586 186.332 581.686 187.758 583.67 189.742L587.204 184.348C584.166 181.062 579.33 179.636 575.052 179.636C564.574 179.636 557.878 187.2 557.878 196.19ZM590.425 212H598.919L605.987 201.274H610.079V212H617.953V180.38H603.755C596.935 180.38 592.409 184.1 592.409 190.61C592.409 195.136 595.261 198.608 598.795 199.91V199.972C598.795 199.972 598.113 200.716 597.369 201.894L590.425 212ZM605.925 195.818C602.701 195.818 600.283 194.144 600.283 190.548C600.283 186.952 602.577 185.526 605.987 185.526H610.079V195.818H605.925ZM661.556 212H669.244V204.064H661.556V212ZM643.948 212H651.574V204.064H643.948V212ZM626.278 212H633.904V204.064H626.278V212Z" fill="#222224"/>
<path d="M212.356 281H214.03L217.972 275.564C218.26 275.132 218.71 274.52 218.764 274.358H218.8C218.8 274.502 218.746 275.132 218.746 275.564V281H220.438V271.892H218.746L214.822 277.328C214.516 277.76 214.084 278.39 214.012 278.552H213.976C213.994 278.462 214.03 277.814 214.03 277.328V271.892H212.356V281ZM227.614 281H229.36V273.386H233.824V281H235.57V271.892H227.614V281ZM237.672 276.428C237.672 279.2 239.868 281.216 242.586 281.216C245.286 281.216 247.482 279.2 247.482 276.428C247.482 273.674 245.286 271.676 242.568 271.676C239.868 271.676 237.672 273.674 237.672 276.428ZM239.454 276.428C239.454 274.538 240.858 273.188 242.586 273.188C244.296 273.188 245.718 274.538 245.718 276.428C245.718 278.336 244.296 279.704 242.586 279.704C240.858 279.704 239.454 278.336 239.454 276.428ZM252.07 277.832C252.97 277.832 253.96 277.526 254.536 277.166H254.572C254.572 277.166 254.554 277.454 254.554 277.706V281H256.3V271.892H254.554V275.672C254.176 275.942 253.438 276.32 252.538 276.32C251.044 276.32 250.72 275.51 250.72 274.61V271.892H249.01V274.862C249.01 276.806 250.126 277.832 252.07 277.832ZM258.414 276.446C258.414 279.146 260.394 281.216 263.256 281.216C264.516 281.216 265.902 280.73 266.784 279.92L266.046 278.642C265.326 279.29 264.336 279.704 263.364 279.704C261.726 279.704 260.322 278.642 260.232 276.68H266.856C266.892 276.428 266.928 276.176 266.928 275.942C266.928 273.602 265.56 271.676 262.986 271.676C260.394 271.676 258.414 273.548 258.414 276.446ZM260.286 275.42C260.538 273.908 261.6 273.026 262.95 273.026C264.138 273.026 265.11 273.854 265.164 275.42H260.286ZM268.65 281H270.342L270.738 275.582C270.774 275.042 270.72 274.016 270.72 274.016H270.756C270.756 274.016 271.044 274.7 271.332 275.366L273.492 279.902H274.986L277.146 275.348C277.488 274.646 277.722 274.016 277.722 274.016H277.758C277.758 274.016 277.722 275.042 277.74 275.582L278.136 281H279.828L279.036 271.892H277.128L274.752 277.04C274.518 277.598 274.248 278.264 274.248 278.264H274.212C274.212 278.264 273.96 277.58 273.708 277.04L271.386 271.892H269.442L268.65 281ZM281.586 282.89L280.974 284.222C280.974 284.222 281.712 284.78 282.72 284.78C283.998 284.78 285.132 284.06 285.672 282.638L289.956 271.892H288.066L285.852 277.868C285.69 278.336 285.546 278.948 285.546 278.948H285.51C285.51 278.948 285.348 278.3 285.168 277.85L282.882 271.892H280.92L284.736 280.892L284.286 281.936C283.944 282.764 283.35 283.286 282.63 283.286C282.09 283.286 281.586 282.89 281.586 282.89ZM296.168 281H297.914V277.094H302.522V281H304.268V271.892H302.522V275.6H297.914V271.892H296.168V281ZM306.205 278.516C306.205 280.226 307.663 281.216 309.247 281.216C310.597 281.216 311.713 280.406 312.235 279.362H312.271C312.271 279.362 312.217 279.668 312.217 280.082V281H313.855V275.24C313.855 272.936 312.541 271.676 310.255 271.676C308.977 271.676 307.591 272.144 306.853 272.756L307.555 274.034C308.293 273.512 309.211 273.152 310.111 273.152C311.245 273.152 312.109 273.656 312.109 275.15V275.33H311.641C309.751 275.33 306.205 275.654 306.205 278.516ZM307.951 278.372C307.951 276.698 310.363 276.59 311.659 276.59H312.109V276.932C312.109 278.282 311.191 279.83 309.661 279.83C308.527 279.83 307.951 279.092 307.951 278.372ZM316.058 281H317.75L318.146 275.582C318.182 275.042 318.128 274.016 318.128 274.016H318.164C318.164 274.016 318.452 274.7 318.74 275.366L320.9 279.902H322.394L324.554 275.348C324.896 274.646 325.13 274.016 325.13 274.016H325.166C325.166 274.016 325.13 275.042 325.148 275.582L325.544 281H327.236L326.444 271.892H324.536L322.16 277.04C321.926 277.598 321.656 278.264 321.656 278.264H321.62C321.62 278.264 321.368 277.58 321.116 277.04L318.794 271.892H316.85L316.058 281ZM333.706 281H335.398L335.794 275.582C335.83 275.042 335.776 274.016 335.776 274.016H335.812C335.812 274.016 336.1 274.7 336.388 275.366L338.548 279.902H340.042L342.202 275.348C342.544 274.646 342.778 274.016 342.778 274.016H342.814C342.814 274.016 342.778 275.042 342.796 275.582L343.192 281H344.884L344.092 271.892H342.184L339.808 277.04C339.574 277.598 339.304 278.264 339.304 278.264H339.268C339.268 278.264 339.016 277.58 338.764 277.04L336.442 271.892H334.498L333.706 281ZM346.639 276.428C346.639 279.2 348.835 281.216 351.553 281.216C354.253 281.216 356.449 279.2 356.449 276.428C356.449 273.674 354.253 271.676 351.535 271.676C348.835 271.676 346.639 273.674 346.639 276.428ZM348.421 276.428C348.421 274.538 349.825 273.188 351.553 273.188C353.263 273.188 354.685 274.538 354.685 276.428C354.685 278.336 353.263 279.704 351.553 279.704C349.825 279.704 348.421 278.336 348.421 276.428ZM357.228 281H359.172L361.566 277.112H362.862V281H364.518V277.112H365.832L368.208 281H370.17L367.236 276.32V276.284L369.9 271.892H368.064L365.814 275.618H364.518V271.892H362.862V275.618H361.566L359.334 271.892H357.48L360.162 276.284V276.32L357.228 281ZM371.807 281H373.553V277.094H378.161V281H379.907V271.892H378.161V275.6H373.553V271.892H371.807V281ZM382.006 276.428C382.006 279.2 384.202 281.216 386.92 281.216C389.62 281.216 391.816 279.2 391.816 276.428C391.816 273.674 389.62 271.676 386.902 271.676C384.202 271.676 382.006 273.674 382.006 276.428ZM383.788 276.428C383.788 274.538 385.192 273.188 386.92 273.188C388.63 273.188 390.052 274.538 390.052 276.428C390.052 278.336 388.63 279.704 386.92 279.704C385.192 279.704 383.788 278.336 383.788 276.428ZM400.202 279.56C401.354 277.76 401.498 275.168 401.498 273.8V273.314H404.234V279.56H400.202ZM397.286 279.56V283.16H398.924V281H405.674V283.16H407.276V279.56H405.98V271.892H399.824V273.566C399.824 274.97 399.68 277.814 398.402 279.56H397.286ZM408.408 276.428C408.408 279.2 410.604 281.216 413.322 281.216C416.022 281.216 418.218 279.2 418.218 276.428C418.218 273.674 416.022 271.676 413.304 271.676C410.604 271.676 408.408 273.674 408.408 276.428ZM410.19 276.428C410.19 274.538 411.594 273.188 413.322 273.188C415.032 273.188 416.454 274.538 416.454 276.428C416.454 278.336 415.032 279.704 413.322 279.704C411.594 279.704 410.19 278.336 410.19 276.428ZM420.323 281H424.211C426.191 281 427.559 280.1 427.559 278.408C427.559 277.4 426.965 276.518 425.831 276.248V276.23C426.659 275.87 427.127 275.114 427.127 274.232C427.127 272.702 425.921 271.892 424.085 271.892H420.323V281ZM422.069 275.744V273.098H423.725C424.823 273.098 425.345 273.53 425.345 274.358C425.345 275.204 424.823 275.744 423.779 275.744H422.069ZM422.069 279.776V276.914H423.923C425.129 276.914 425.795 277.454 425.795 278.354C425.795 279.2 425.201 279.776 423.941 279.776H422.069ZM429.08 276.446C429.08 279.146 431.06 281.216 433.922 281.216C435.182 281.216 436.568 280.73 437.45 279.92L436.712 278.642C435.992 279.29 435.002 279.704 434.03 279.704C432.392 279.704 430.988 278.642 430.898 276.68H437.522C437.558 276.428 437.594 276.176 437.594 275.942C437.594 273.602 436.226 271.676 433.652 271.676C431.06 271.676 429.08 273.548 429.08 276.446ZM430.952 275.42C431.204 273.908 432.266 273.026 433.616 273.026C434.804 273.026 435.776 273.854 435.83 275.42H430.952ZM439.694 284.6H441.44V280.46C441.44 279.992 441.368 279.668 441.368 279.668H441.404C442.034 280.64 443.078 281.216 444.23 281.216C446.624 281.216 448.352 279.344 448.352 276.446C448.352 273.62 446.822 271.676 444.356 271.676C443.024 271.676 441.872 272.288 441.296 273.386H441.26C441.26 273.386 441.314 273.08 441.314 272.702V271.892H439.694V284.6ZM441.386 276.482C441.386 274.178 442.646 273.206 444.014 273.206C445.526 273.206 446.588 274.484 446.588 276.464C446.588 278.534 445.4 279.704 443.96 279.704C442.286 279.704 441.386 278.102 441.386 276.482ZM449.586 281H451.512L453.744 277.706H455.274V281H457.02V271.892H453.384C451.458 271.892 450.126 272.882 450.126 274.754C450.126 276.14 451.062 277.112 452.106 277.4V277.418C452.106 277.418 451.89 277.652 451.692 277.976L449.586 281ZM453.762 276.428C452.7 276.428 451.89 275.87 451.89 274.736C451.89 273.566 452.646 273.098 453.816 273.098H455.274V276.428H453.762ZM461.911 281H463.639V273.386H466.825V271.892H458.743V273.386H461.911V281ZM468.539 281H472.085C474.389 281 475.433 279.83 475.433 278.12C475.433 276.05 474.011 275.186 472.121 275.186H470.285V271.892H468.539V281ZM470.285 279.74V276.446H471.851C473.111 276.446 473.651 277.13 473.651 278.102C473.651 279.056 473.111 279.74 471.851 279.74H470.285ZM478.327 277.508H480.019V276.77C480.019 274.592 483.205 274.304 483.205 271.334C483.205 269.336 481.477 268.04 479.443 268.04C478.147 268.04 476.995 268.58 476.311 269.192L477.283 270.434C477.841 269.984 478.579 269.678 479.317 269.678C480.505 269.678 481.369 270.452 481.369 271.46C481.369 273.62 478.327 273.926 478.327 276.662V277.508ZM478.273 281H480.073V279.218H478.273V281Z" fill="#505257"/>
<path d="M274.89 57.4782C276.612 54.0302 277.586 51.0269 277.066 50.7703C276.545 50.5136 274.727 53.1008 273.005 56.5489C271.283 59.997 270.309 63.0003 270.829 63.2569C271.35 63.5135 273.168 60.9263 274.89 57.4782Z" fill="#E0E0E0"/>
<path d="M362.249 100.58C363.971 97.1324 365.08 94.1958 364.726 94.0215C364.373 93.8471 362.69 96.501 360.968 99.9491C359.246 103.397 358.136 106.334 358.49 106.508C358.844 106.682 360.527 104.029 362.249 100.58Z" fill="#E0E0E0"/>
<path d="M315.304 83.1491L312.059 80.4866L303.125 91.235L306.371 93.8976L315.304 83.1491Z" fill="#F55F44"/>
<path opacity="0.05" d="M307.841 94.7551L312.451 95.832L315.663 82.2629L311.052 81.186L307.841 94.7551Z" fill="black"/>
<path d="M308.354 94.8749L312.451 95.832L315.663 82.2629L311.565 81.3058L308.354 94.8749Z" fill="#F55F44"/>
<path d="M277.222 50.4581L270.674 63.5691L358.342 106.783L364.89 93.6717L277.222 50.4581Z" fill="url(#paint0_linear)"/>
<path d="M358.498 106.47C356.782 105.653 269.573 62.6373 270.83 63.2569C275.67 55.9174 277.066 50.7703 277.066 50.7703L364.734 93.9838C364.734 93.9838 361.655 99.3515 358.498 106.47Z" fill="#F5F5F5"/>
<path opacity="0.05" d="M322.629 73.2289L315.402 69.6665L309.166 82.1531L316.393 85.7155L322.629 73.2289Z" fill="black"/>
<path d="M322.314 73.0742L315.715 69.8215L309.479 82.3081L316.077 85.5608L322.314 73.0742Z" fill="#F55F44"/>
<path opacity="0.05" d="M321.057 72.4546L316.658 70.2861L310.422 82.7728L314.821 84.9412L321.057 72.4546Z" fill="black"/>
<path d="M320.743 72.2996L316.973 70.4409L310.736 82.9276L314.507 84.7862L320.743 72.2996Z" fill="#F55F44"/>
<path d="M320.235 112.573C320.558 112.573 320.82 112.313 320.82 111.992C320.82 111.671 320.558 111.411 320.235 111.411C319.912 111.411 319.65 111.671 319.65 111.992C319.65 112.313 319.912 112.573 320.235 112.573Z" fill="#DBDBDB"/>
<g opacity="0.5">
<path opacity="0.5" d="M274.475 95.7219H273.875V99.098H274.475V95.7219Z" fill="#47E6B1"/>
<path opacity="0.5" d="M275.875 97.7078V97.1121H272.477V97.7078H275.875Z" fill="#47E6B1"/>
</g>
<g opacity="0.5">
<path opacity="0.5" d="M425.6 53.6201H425V56.9962H425.6V53.6201Z" fill="#47E6B1"/>
<path opacity="0.5" d="M427 55.606V55.0103H423.602V55.606H427Z" fill="#47E6B1"/>
</g>
<g opacity="0.5">
<path opacity="0.5" d="M278.072 11.717H277.473V15.0931H278.072V11.717Z" fill="#47E6B1"/>
<path opacity="0.5" d="M279.473 13.703V13.1072H276.074V13.703H279.473Z" fill="#47E6B1"/>
</g>
<g opacity="0.5">
<path opacity="0.5" d="M407.609 6.55347H407.01V9.92955H407.609V6.55347Z" fill="#47E6B1"/>
<path opacity="0.5" d="M409.01 8.53938V7.9436H405.611V8.53938H409.01Z" fill="#47E6B1"/>
</g>
<path opacity="0.5" d="M270.458 50.3347C270.292 50.2632 270.159 50.1338 270.084 49.9712C270.008 49.8085 269.996 49.624 270.048 49.4527C270.057 49.4265 270.062 49.3993 270.064 49.3718C270.069 49.2933 270.048 49.2154 270.005 49.1496C269.962 49.0837 269.898 49.0335 269.824 49.0063C269.75 48.979 269.669 48.9763 269.593 48.9985C269.517 49.0206 269.45 49.0665 269.403 49.1293C269.386 49.1516 269.373 49.1757 269.362 49.2011C269.29 49.3653 269.16 49.4975 268.996 49.5725C268.832 49.6474 268.647 49.66 268.474 49.6077C268.448 49.5993 268.42 49.594 268.393 49.5919C268.314 49.5871 268.235 49.6077 268.169 49.6507C268.103 49.6937 268.052 49.7567 268.025 49.8305C267.997 49.9043 267.995 49.9848 268.017 50.0603C268.039 50.1357 268.085 50.202 268.149 50.2493C268.171 50.2656 268.195 50.2792 268.221 50.2898C268.386 50.3613 268.519 50.4907 268.595 50.6533C268.67 50.816 268.683 51.0005 268.63 51.1718C268.622 51.198 268.616 51.2252 268.614 51.2527C268.609 51.3312 268.63 51.4091 268.673 51.4749C268.717 51.5408 268.78 51.591 268.854 51.6182C268.929 51.6455 269.01 51.6482 269.086 51.626C269.162 51.6039 269.228 51.558 269.276 51.4952C269.292 51.4729 269.306 51.4488 269.317 51.4234C269.389 51.2592 269.519 51.127 269.683 51.052C269.846 50.9771 270.032 50.9645 270.204 51.0168C270.231 51.0252 270.258 51.0305 270.286 51.0326C270.365 51.0374 270.443 51.0168 270.51 50.9738C270.576 50.9308 270.626 50.8678 270.654 50.794C270.681 50.7203 270.684 50.6397 270.662 50.5642C270.639 50.4888 270.593 50.4225 270.53 50.3752C270.508 50.3589 270.483 50.3453 270.458 50.3347Z" fill="#4D8AF0"/>
<path opacity="0.5" d="M304.841 11.2116C304.675 11.1401 304.542 11.0108 304.467 10.8481C304.391 10.6855 304.379 10.501 304.431 10.3297C304.44 10.3034 304.445 10.2763 304.447 10.2488C304.452 10.1703 304.431 10.0923 304.388 10.0265C304.345 9.96067 304.281 9.91042 304.207 9.88321C304.133 9.856 304.052 9.85327 303.976 9.87543C303.9 9.89759 303.833 9.94345 303.785 10.0062C303.769 10.0285 303.755 10.0526 303.745 10.0781C303.673 10.2423 303.542 10.3744 303.379 10.4494C303.215 10.5244 303.029 10.5369 302.857 10.4847C302.831 10.4762 302.803 10.4709 302.775 10.4688C302.696 10.4641 302.618 10.4847 302.552 10.5277C302.485 10.5706 302.435 10.6337 302.408 10.7074C302.38 10.7812 302.377 10.8618 302.4 10.9372C302.422 11.0126 302.468 11.0789 302.531 11.1263C302.554 11.1425 302.578 11.1561 302.604 11.1668C302.769 11.2383 302.902 11.3676 302.977 11.5303C303.053 11.6929 303.066 11.8774 303.013 12.0487C303.004 12.075 302.999 12.1021 302.997 12.1296C302.992 12.2081 303.013 12.2861 303.056 12.3519C303.099 12.4177 303.163 12.468 303.237 12.4952C303.311 12.5224 303.393 12.5251 303.468 12.503C303.544 12.4808 303.611 12.4349 303.659 12.3722C303.675 12.3499 303.689 12.3258 303.7 12.3003C303.772 12.1361 303.902 12.004 304.065 11.929C304.229 11.854 304.415 11.8414 304.587 11.8937C304.614 11.9021 304.641 11.9075 304.669 11.9096C304.748 11.9143 304.826 11.8937 304.892 11.8507C304.959 11.8078 305.009 11.7447 305.037 11.671C305.064 11.5972 305.067 11.5166 305.045 11.4412C305.022 11.3658 304.976 11.2995 304.913 11.2521C304.89 11.2359 304.866 11.2223 304.841 11.2116Z" fill="#4D8AF0"/>
<path opacity="0.5" d="M346.819 112.693C346.654 112.621 346.521 112.492 346.445 112.329C346.37 112.167 346.357 111.982 346.41 111.811C346.418 111.785 346.424 111.757 346.426 111.73C346.431 111.651 346.41 111.574 346.367 111.508C346.323 111.442 346.26 111.392 346.186 111.364C346.111 111.337 346.03 111.334 345.954 111.357C345.878 111.379 345.812 111.425 345.764 111.487C345.748 111.51 345.734 111.534 345.723 111.559C345.651 111.723 345.521 111.856 345.357 111.931C345.194 112.006 345.008 112.018 344.835 111.966C344.809 111.957 344.782 111.952 344.754 111.95C344.675 111.945 344.597 111.966 344.53 112.009C344.464 112.052 344.413 112.115 344.386 112.189C344.359 112.262 344.356 112.343 344.378 112.418C344.401 112.494 344.447 112.56 344.51 112.607C344.532 112.624 344.557 112.637 344.582 112.648C344.747 112.719 344.88 112.849 344.956 113.011C345.031 113.174 345.044 113.359 344.991 113.53C344.983 113.556 344.978 113.583 344.976 113.611C344.971 113.689 344.991 113.767 345.035 113.833C345.078 113.899 345.141 113.949 345.216 113.976C345.29 114.004 345.371 114.006 345.447 113.984C345.523 113.962 345.59 113.916 345.637 113.853C345.654 113.831 345.667 113.807 345.678 113.782C345.75 113.617 345.88 113.485 346.044 113.41C346.208 113.335 346.393 113.323 346.566 113.375C346.592 113.383 346.62 113.389 346.647 113.391C346.726 113.396 346.805 113.375 346.871 113.332C346.937 113.289 346.988 113.226 347.015 113.152C347.043 113.078 347.045 112.998 347.023 112.922C347.001 112.847 346.955 112.781 346.891 112.733C346.869 112.717 346.845 112.703 346.819 112.693Z" fill="#4D8AF0"/>
<path opacity="0.5" d="M419.803 89.367C420.465 89.367 421.002 88.8335 421.002 88.1754C421.002 87.5174 420.465 86.9839 419.803 86.9839C419.141 86.9839 418.604 87.5174 418.604 88.1754C418.604 88.8335 419.141 89.367 419.803 89.367Z" fill="#F55F44"/>
<path opacity="0.5" d="M393.416 96.9134C394.079 96.9134 394.616 96.3799 394.616 95.7218C394.616 95.0638 394.079 94.5303 393.416 94.5303C392.754 94.5303 392.217 95.0638 392.217 95.7218C392.217 96.3799 392.754 96.9134 393.416 96.9134Z" fill="#4D8AF0"/>
<path opacity="0.5" d="M288.668 108.63C289.331 108.63 289.868 108.097 289.868 107.439C289.868 106.781 289.331 106.247 288.668 106.247C288.006 106.247 287.469 106.781 287.469 107.439C287.469 108.097 288.006 108.63 288.668 108.63Z" fill="#47E6B1"/>
<path opacity="0.5" d="M350.238 2.38312C350.901 2.38312 351.438 1.84964 351.438 1.19156C351.438 0.533479 350.901 0 350.238 0C349.576 0 349.039 0.533479 349.039 1.19156C349.039 1.84964 349.576 2.38312 350.238 2.38312Z" fill="#F55F44"/>
<path d="M308.958 70.9969L304.16 78.1463C304.16 78.1463 305.759 85.4942 341.142 85.2956C376.524 85.097 379.323 78.1463 379.323 78.1463L372.726 68.6138L352.536 54.9109L308.958 70.9969Z" fill="#F04B5D"/>
<path opacity="0.15" d="M308.958 70.9969L304.16 78.1463C304.16 78.1463 305.759 85.4942 341.142 85.2956C376.524 85.097 379.323 78.1463 379.323 78.1463L372.726 68.6138L352.536 54.9109L308.958 70.9969Z" fill="black"/>
<path d="M411.008 44.4849L348.039 72.0893L271.277 44.4849L341.642 12.71L376.183 28.5319L377.421 29.0998L411.008 44.4849Z" fill="#F04B5D"/>
<path opacity="0.15" d="M411.008 44.4849L348.039 72.0893L271.277 44.4849L341.642 12.71L376.183 28.5319L377.421 29.0998L411.008 44.4849Z" fill="black"/>
<path d="M378.724 51.1021L377.525 51.1736L376.184 28.532L377.421 29.1L378.724 51.1021Z" fill="#F5F5F5"/>
<path d="M309.757 44.3856L304.16 78.1464C304.16 78.1464 344.34 65.2379 379.323 78.1464L374.125 42.3997C374.125 42.3997 327.149 36.6405 309.757 44.3856Z" fill="#F04B5D"/>
<path d="M378.623 57.9891C381.825 57.9891 384.42 56.2109 384.42 54.0173C384.42 51.8237 381.825 50.0454 378.623 50.0454C375.422 50.0454 372.826 51.8237 372.826 54.0173C372.826 56.2109 375.422 57.9891 378.623 57.9891Z" fill="#F5F5F5"/>
<defs>
<linearGradient id="paint0_linear" x1="314.508" y1="85.1759" x2="320.987" y2="72.031" gradientUnits="userSpaceOnUse">
<stop stop-color="#808080" stop-opacity="0.25"/>
<stop offset="0.53514" stop-color="#808080" stop-opacity="0.12"/>
<stop offset="1" stop-color="#808080" stop-opacity="0.1"/>
</linearGradient>
</defs>
</svg>
