<svg width="1045" height="200" viewBox="0 0 1045 200" fill="none" xmlns="http://www.w3.org/2000/svg">
<path d="M537.7 45H544V34.92H553.36V45H559.66V19.26H553.36V29.556H544V19.26H537.7V45ZM562.861 39.78C562.861 42.984 565.345 45.432 568.909 45.432C571.033 45.432 573.193 44.46 574.417 42.732H574.489C574.489 42.732 574.417 43.272 574.417 43.884V45H580.105V33.588C580.105 28.872 576.937 26.028 571.825 26.028C568.801 26.028 565.561 27.216 563.977 28.44L566.137 32.832C567.613 31.86 569.449 31.068 571.249 31.068C572.617 31.068 573.877 31.572 573.877 33.12V33.444H573.337C568.765 33.444 562.861 34.812 562.861 39.78ZM569.017 39.204C569.017 37.512 571.465 37.008 573.373 37.008H573.949V37.512C573.949 39.024 572.581 40.788 570.781 40.788C569.629 40.788 569.017 40.068 569.017 39.204ZM584.057 45H610.013V26.46H604.145V39.78H599.969V26.46H594.101V39.78H589.925V26.46H584.057V45ZM614.186 45H620.234L625.382 36.864C625.67 36.36 626.066 35.784 626.39 35.028H626.462C626.39 35.748 626.39 36.468 626.39 36.9V45H632.258V26.46H626.21L621.062 34.632C620.738 35.172 620.378 35.712 620.054 36.468H619.982C620.018 36 620.054 35.28 620.054 34.632V26.46H614.186V45ZM645.62 46.692L643.64 51.264C643.64 51.264 645.512 52.56 647.96 52.56C650.912 52.56 654.152 51.12 655.7 46.98L663.296 26.46H656.492L654.152 35.1C653.9 36.108 653.54 37.872 653.54 37.872H653.468C653.468 37.872 653.108 36 652.784 34.992L650.048 26.46H642.992L650.876 44.64L650.516 45.504C649.868 47.088 648.536 47.376 647.528 47.376C646.628 47.376 645.62 46.692 645.62 46.692ZM670.947 39.312C673.215 39.312 674.871 38.808 675.915 38.34H675.987C675.987 38.34 675.951 38.808 675.951 39.204V45H682.179V26.46H675.951V33.336C675.339 33.768 674.403 34.236 673.143 34.236C671.595 34.236 670.767 33.336 670.767 31.752V26.46H664.647V32.94C664.647 37.8 667.959 39.312 670.947 39.312ZM685.317 35.712C685.317 40.644 688.881 45.432 695.505 45.432C698.349 45.432 701.409 44.46 703.425 42.732L701.121 38.376C699.609 39.384 697.845 40.248 696.009 40.248C694.029 40.248 692.157 39.204 691.689 36.936H703.389C703.461 36.288 703.533 35.64 703.533 34.992C703.533 29.844 700.437 26.028 694.965 26.028C688.989 26.028 685.317 30.276 685.317 35.712ZM691.833 33.372C692.157 31.896 693.021 30.6 694.821 30.6C696.405 30.6 697.377 31.86 697.377 33.372H691.833ZM706.787 45H713.015V38.232H718.739V45H724.967V26.46H718.739V33.012H713.015V26.46H706.787V45ZM729.147 45H735.195L740.343 36.864C740.631 36.36 741.027 35.784 741.351 35.028H741.423C741.351 35.748 741.351 36.468 741.351 36.9V45H747.219V26.46H741.171L736.023 34.632C735.699 35.172 735.339 35.712 735.015 36.468H734.943C734.979 36 735.015 35.28 735.015 34.632V26.46H729.147V45ZM751.401 45H757.629V38.196H759.573L763.497 45H770.589L764.397 35.352V35.28L769.833 26.46H763.065L759.393 32.976H757.629V26.46H751.401V45ZM772.67 45H778.718L783.866 36.864C784.154 36.36 784.55 35.784 784.874 35.028H784.946C784.874 35.748 784.874 36.468 784.874 36.9V45H790.742V26.46H784.694L779.546 34.632C779.222 35.172 778.862 35.712 778.538 36.468H778.466C778.502 36 778.538 35.28 778.538 34.632V26.46H772.67V45ZM803.924 45H810.152V31.68H815.66V45H821.888V26.46H803.924V45ZM825.028 35.784C825.028 41.58 829.708 45.432 835.54 45.432C841.372 45.432 846.052 41.58 846.052 35.784C846.052 29.952 841.372 26.028 835.504 26.028C829.708 26.028 825.028 29.952 825.028 35.784ZM831.328 35.784C831.328 32.976 833.272 31.212 835.54 31.212C837.808 31.212 839.752 32.976 839.752 35.784C839.752 38.556 837.808 40.248 835.54 40.248C833.272 40.248 831.328 38.556 831.328 35.784ZM848.126 35.712C848.126 40.824 851.834 45.432 858.458 45.432C861.554 45.432 864.578 44.244 866.414 42.372L864.146 38.016C862.814 39.168 860.87 40.248 859.07 40.248C855.938 40.248 854.426 37.836 854.426 35.64C854.426 33.444 855.902 31.212 858.854 31.212C860.474 31.212 862.13 31.968 863.21 33.012L865.838 28.836C864.002 26.856 861.05 26.028 858.458 26.028C851.798 26.028 848.126 30.744 848.126 35.712ZM873.101 45H879.329V31.68H884.981V26.46H867.485V31.68H873.101V45ZM887.776 46.692L885.796 51.264C885.796 51.264 887.668 52.56 890.116 52.56C893.068 52.56 896.308 51.12 897.856 46.98L905.452 26.46H898.648L896.308 35.1C896.056 36.108 895.696 37.872 895.696 37.872H895.624C895.624 37.872 895.264 36 894.94 34.992L892.204 26.46H885.148L893.032 44.64L892.672 45.504C892.024 47.088 890.692 47.376 889.684 47.376C888.784 47.376 887.776 46.692 887.776 46.692ZM907.776 45H914.004V31.68H919.512V45H925.74V26.46H907.776V45ZM929.924 45H935.972L941.12 36.864C941.408 36.36 941.804 35.784 942.128 35.028H942.2C942.128 35.748 942.128 36.468 942.128 36.9V45H947.996V26.46H941.948L936.8 34.632C936.476 35.172 936.116 35.712 935.792 36.468H935.72C935.756 36 935.792 35.28 935.792 34.632V26.46H929.924V45ZM950.81 45.18C958.01 45.18 960.17 39.996 960.17 32.436V31.392H963.266V45H969.494V26.46H954.302V32.4C954.302 38.772 952.466 39.528 950.81 39.744V45.18ZM973.658 45H979.706L984.854 36.864C985.142 36.36 985.538 35.784 985.862 35.028H985.934C985.862 35.748 985.862 36.468 985.862 36.9V45H991.73V26.46H985.682L980.534 34.632C980.21 35.172 979.85 35.712 979.526 36.468H979.454C979.49 36 979.526 35.28 979.526 34.632V26.46H973.658V45ZM1004.91 45H1015.03C1018.7 45 1022.08 43.56 1022.08 39.492C1022.08 37.872 1021.29 36.036 1019.17 35.388V35.352C1020.57 34.524 1021.33 32.868 1021.33 31.32C1021.33 28.116 1018.74 26.46 1015.03 26.46H1004.91V45ZM1011.14 33.768V30.312H1013.41C1014.63 30.312 1015.14 31.068 1015.14 31.932C1015.14 32.904 1014.63 33.768 1013.48 33.768H1011.14ZM1011.14 41.112V37.404H1013.91C1015.24 37.404 1015.86 38.268 1015.86 39.276C1015.86 40.212 1015.21 41.112 1013.88 41.112H1011.14ZM1025.34 32.364H1031.24V26.46H1025.34V32.364ZM1025.34 45H1031.24V39.096H1025.34V45Z" fill="#222224"/>
<path d="M536.674 104H538.456V98.42H545.062V104H546.826V91.292H545.062V96.872H538.456V91.292H536.674V104ZM548.971 101.516C548.971 103.226 550.429 104.216 552.013 104.216C553.363 104.216 554.479 103.406 555.001 102.362H555.037C555.037 102.362 554.983 102.668 554.983 103.082V104H556.621V98.24C556.621 95.936 555.307 94.676 553.021 94.676C551.743 94.676 550.357 95.144 549.619 95.756L550.321 97.034C551.059 96.512 551.977 96.152 552.877 96.152C554.011 96.152 554.875 96.656 554.875 98.15V98.33H554.407C552.517 98.33 548.971 98.654 548.971 101.516ZM550.717 101.372C550.717 99.698 553.129 99.59 554.425 99.59H554.875V99.932C554.875 101.282 553.957 102.83 552.427 102.83C551.293 102.83 550.717 102.092 550.717 101.372ZM558.32 102.884C559.076 103.604 560.264 104.216 561.668 104.216C563.54 104.216 565.16 103.262 565.16 101.39C565.16 100.22 564.44 99.536 563.522 99.248V99.212C564.242 98.906 564.854 98.276 564.854 97.142C564.854 95.522 563.504 94.676 561.776 94.676C560.336 94.676 559.31 95.144 558.608 95.666L559.256 96.836C559.958 96.314 560.678 96.044 561.47 96.044C562.478 96.044 563.09 96.512 563.09 97.358C563.09 98.276 562.388 98.672 561.362 98.672H560.408V99.932H561.524C562.802 99.932 563.396 100.436 563.396 101.318C563.396 102.308 562.55 102.812 561.506 102.812C560.408 102.812 559.544 102.164 559.13 101.732L558.32 102.884ZM566.514 101.516C566.514 103.226 567.972 104.216 569.556 104.216C570.906 104.216 572.022 103.406 572.544 102.362H572.58C572.58 102.362 572.526 102.668 572.526 103.082V104H574.164V98.24C574.164 95.936 572.85 94.676 570.564 94.676C569.286 94.676 567.9 95.144 567.162 95.756L567.864 97.034C568.602 96.512 569.52 96.152 570.42 96.152C571.554 96.152 572.418 96.656 572.418 98.15V98.33H571.95C570.06 98.33 566.514 98.654 566.514 101.516ZM568.26 101.372C568.26 99.698 570.672 99.59 571.968 99.59H572.418V99.932C572.418 101.282 571.5 102.83 569.97 102.83C568.836 102.83 568.26 102.092 568.26 101.372ZM576.745 107.6H578.491V103.46C578.491 102.992 578.419 102.668 578.419 102.668H578.455C579.085 103.64 580.129 104.216 581.281 104.216C583.675 104.216 585.403 102.344 585.403 99.446C585.403 96.62 583.873 94.676 581.407 94.676C580.075 94.676 578.923 95.288 578.347 96.386H578.311C578.311 96.386 578.365 96.08 578.365 95.702V94.892H576.745V107.6ZM578.437 99.482C578.437 97.178 579.697 96.206 581.065 96.206C582.577 96.206 583.639 97.484 583.639 99.464C583.639 101.534 582.451 102.704 581.011 102.704C579.337 102.704 578.437 101.102 578.437 99.482ZM587.159 98.762C587.159 101.912 588.545 104.216 591.623 104.216C594.197 104.216 595.925 102.416 595.925 99.896C595.925 97.322 594.341 95.702 592.055 95.702C590.849 95.702 589.643 96.098 588.833 97.322H588.797C588.923 95.576 589.787 94.514 591.605 93.686L595.097 92.228L594.521 90.788L591.263 92.192C588.095 93.524 587.159 95.504 587.159 98.762ZM588.977 99.896C588.977 98.294 590.075 97.088 591.623 97.088C592.991 97.088 594.161 98.15 594.161 99.932C594.161 101.696 592.991 102.74 591.551 102.74C590.147 102.74 588.977 101.696 588.977 99.896ZM597.346 101.516C597.346 103.226 598.804 104.216 600.388 104.216C601.738 104.216 602.854 103.406 603.376 102.362H603.412C603.412 102.362 603.358 102.668 603.358 103.082V104H604.996V98.24C604.996 95.936 603.682 94.676 601.396 94.676C600.118 94.676 598.732 95.144 597.994 95.756L598.696 97.034C599.434 96.512 600.352 96.152 601.252 96.152C602.386 96.152 603.25 96.656 603.25 98.15V98.33H602.782C600.892 98.33 597.346 98.654 597.346 101.516ZM599.092 101.372C599.092 99.698 601.504 99.59 602.8 99.59H603.25V99.932C603.25 101.282 602.332 102.83 600.802 102.83C599.668 102.83 599.092 102.092 599.092 101.372ZM606.983 99.446C606.983 102.146 608.963 104.216 611.825 104.216C613.085 104.216 614.471 103.73 615.353 102.92L614.615 101.642C613.895 102.29 612.905 102.704 611.933 102.704C610.295 102.704 608.891 101.642 608.801 99.68H615.425C615.461 99.428 615.497 99.176 615.497 98.942C615.497 96.602 614.129 94.676 611.555 94.676C608.963 94.676 606.983 96.548 606.983 99.446ZM608.855 98.42C609.107 96.908 610.169 96.026 611.519 96.026C612.707 96.026 613.679 96.854 613.733 98.42H608.855ZM617.596 104H621.484C623.464 104 624.832 103.1 624.832 101.408C624.832 100.4 624.238 99.518 623.104 99.248V99.23C623.932 98.87 624.4 98.114 624.4 97.232C624.4 95.702 623.194 94.892 621.358 94.892H617.596V104ZM619.342 98.744V96.098H620.998C622.096 96.098 622.618 96.53 622.618 97.358C622.618 98.204 622.096 98.744 621.052 98.744H619.342ZM619.342 102.776V99.914H621.196C622.402 99.914 623.068 100.454 623.068 101.354C623.068 102.2 622.474 102.776 621.214 102.776H619.342ZM631.448 103.388C632.15 103.874 632.906 104.216 633.77 104.216C635.354 104.216 636.164 102.938 636.668 101.66L640.718 91.292H638.846L636.488 97.7C636.218 98.474 635.948 99.356 635.948 99.356H635.912C635.912 99.356 635.588 98.474 635.192 97.682L632.096 91.292H630.134L635.156 101.246C634.814 102.128 634.454 102.668 633.716 102.668C633.104 102.668 632.564 102.272 632.258 102.038L631.448 103.388ZM641.52 104H643.266V100.094H647.874V104H649.62V94.892H647.874V98.6H643.266V94.892H641.52V104ZM652.313 104H653.987L657.929 98.564C658.217 98.132 658.667 97.52 658.721 97.358H658.757C658.757 97.502 658.703 98.132 658.703 98.564V104H660.395V94.892H658.703L654.779 100.328C654.473 100.76 654.041 101.39 653.969 101.552H653.933C653.951 101.462 653.987 100.814 653.987 100.328V94.892H652.313V104ZM663.071 104H666.959C668.939 104 670.307 103.1 670.307 101.408C670.307 100.4 669.713 99.518 668.579 99.248V99.23C669.407 98.87 669.875 98.114 669.875 97.232C669.875 95.702 668.669 94.892 666.833 94.892H663.071V104ZM664.817 98.744V96.098H666.473C667.571 96.098 668.093 96.53 668.093 97.358C668.093 98.204 667.571 98.744 666.527 98.744H664.817ZM664.817 102.776V99.914H666.671C667.877 99.914 668.543 100.454 668.543 101.354C668.543 102.2 667.949 102.776 666.689 102.776H664.817ZM671.828 99.446C671.828 102.146 673.808 104.216 676.67 104.216C677.93 104.216 679.316 103.73 680.198 102.92L679.46 101.642C678.74 102.29 677.75 102.704 676.778 102.704C675.14 102.704 673.736 101.642 673.646 99.68H680.27C680.306 99.428 680.342 99.176 680.342 98.942C680.342 96.602 678.974 94.676 676.4 94.676C673.808 94.676 671.828 96.548 671.828 99.446ZM673.7 98.42C673.952 96.908 675.014 96.026 676.364 96.026C677.552 96.026 678.524 96.854 678.578 98.42H673.7ZM682.442 107.6H684.188V103.46C684.188 102.992 684.116 102.668 684.116 102.668H684.152C684.782 103.64 685.826 104.216 686.978 104.216C689.372 104.216 691.1 102.344 691.1 99.446C691.1 96.62 689.57 94.676 687.104 94.676C685.772 94.676 684.62 95.288 684.044 96.386H684.008C684.008 96.386 684.062 96.08 684.062 95.702V94.892H682.442V107.6ZM684.134 99.482C684.134 97.178 685.394 96.206 686.762 96.206C688.274 96.206 689.336 97.484 689.336 99.464C689.336 101.534 688.148 102.704 686.708 102.704C685.034 102.704 684.134 101.102 684.134 99.482ZM692.658 99.446C692.658 102.182 694.656 104.216 697.536 104.216C698.958 104.216 700.344 103.64 701.172 102.758L700.47 101.48C699.768 102.218 698.67 102.704 697.662 102.704C695.772 102.704 694.44 101.282 694.44 99.428C694.44 97.574 695.772 96.188 697.608 96.188C698.562 96.188 699.516 96.62 700.128 97.232L700.956 96.008C700.092 95.09 698.742 94.676 697.536 94.676C694.674 94.676 692.658 96.746 692.658 99.446ZM703.061 104H704.735L708.677 98.564C708.965 98.132 709.415 97.52 709.469 97.358H709.505C709.505 97.502 709.451 98.132 709.451 98.564V104H711.143V94.892H709.451L705.527 100.328C705.221 100.76 704.789 101.39 704.717 101.552H704.681C704.699 101.462 704.735 100.814 704.735 100.328V94.892H703.061V104ZM716.015 104H717.743V96.386H720.929V94.892H712.847V96.386H716.015V104ZM721.75 99.446C721.75 102.146 723.73 104.216 726.592 104.216C727.852 104.216 729.238 103.73 730.12 102.92L729.382 101.642C728.662 102.29 727.672 102.704 726.7 102.704C725.062 102.704 723.658 101.642 723.568 99.68H730.192C730.228 99.428 730.264 99.176 730.264 98.942C730.264 96.602 728.896 94.676 726.322 94.676C723.73 94.676 721.75 96.548 721.75 99.446ZM723.622 98.42C723.874 96.908 724.936 96.026 726.286 96.026C727.474 96.026 728.446 96.854 728.5 98.42H723.622ZM734.454 104H736.182V96.386H739.368V94.892H731.286V96.386H734.454V104Z" fill="#424754"/>
<path d="M536.674 145H538.456V139.186H540.346L543.73 145H545.764L541.822 138.358V138.322L545.53 132.292H543.568L540.346 137.638H538.456V132.292H536.674V145ZM547.731 145H552.393C554.607 145 556.173 143.488 556.173 141.22C556.173 138.772 554.535 137.386 552.303 137.386H549.513V133.84H555.237V132.292H547.731V145ZM549.513 143.452V138.934H552.069C553.473 138.934 554.373 139.816 554.373 141.22C554.373 142.606 553.527 143.452 552.105 143.452H549.513ZM561.458 145H563.222V133.84H567.596V132.292H557.084V133.84H561.458V145ZM569.239 144.388C569.941 144.874 570.697 145.216 571.561 145.216C573.145 145.216 573.955 143.938 574.459 142.66L578.509 132.292H576.637L574.279 138.7C574.009 139.474 573.739 140.356 573.739 140.356H573.703C573.703 140.356 573.379 139.474 572.983 138.682L569.887 132.292H567.925L572.947 142.246C572.605 143.128 572.245 143.668 571.507 143.668C570.895 143.668 570.355 143.272 570.049 143.038L569.239 144.388Z" fill="#424754"/>
<path d="M536.188 186H537.97L538.582 177.99C538.654 177.216 538.618 176.082 538.618 176.082H538.654C538.654 176.082 539.05 177.306 539.338 177.99L541.858 183.714H543.442L545.98 177.99C546.268 177.288 546.664 176.118 546.664 176.118H546.7C546.7 176.118 546.664 177.216 546.736 177.99L547.348 186H549.112L548.086 173.292H546.232L543.298 180.168C543.01 180.87 542.668 181.878 542.668 181.878H542.632C542.632 181.878 542.308 180.87 542.02 180.168L539.086 173.292H537.232L536.188 186ZM551.985 186H553.767V174.84H558.987V173.292H551.985V186ZM560.573 185.388C561.275 185.874 562.031 186.216 562.895 186.216C564.479 186.216 565.289 184.938 565.793 183.66L569.843 173.292H567.971L565.613 179.7C565.343 180.474 565.073 181.356 565.073 181.356H565.037C565.037 181.356 564.713 180.474 564.317 179.682L561.221 173.292H559.259L564.281 183.246C563.939 184.128 563.579 184.668 562.841 184.668C562.229 184.668 561.689 184.272 561.383 184.038L560.573 185.388ZM575.848 186H577.522L581.464 180.564C581.752 180.132 582.202 179.52 582.256 179.358H582.292C582.292 179.502 582.238 180.132 582.238 180.564V186H583.93V176.892H582.238L578.314 182.328C578.008 182.76 577.576 183.39 577.504 183.552H577.468C577.486 183.462 577.522 182.814 577.522 182.328V176.892H575.848V186ZM586.228 186H587.92L588.316 180.582C588.352 180.042 588.298 179.016 588.298 179.016H588.334C588.334 179.016 588.622 179.7 588.91 180.366L591.07 184.902H592.564L594.724 180.348C595.066 179.646 595.3 179.016 595.3 179.016H595.336C595.336 179.016 595.3 180.042 595.318 180.582L595.714 186H597.406L596.614 176.892H594.706L592.33 182.04C592.096 182.598 591.826 183.264 591.826 183.264H591.79C591.79 183.264 591.538 182.58 591.286 182.04L588.964 176.892H587.02L586.228 186ZM599.16 181.446C599.16 184.146 601.14 186.216 604.002 186.216C605.262 186.216 606.648 185.73 607.53 184.92L606.792 183.642C606.072 184.29 605.082 184.704 604.11 184.704C602.472 184.704 601.068 183.642 600.978 181.68H607.602C607.638 181.428 607.674 181.176 607.674 180.942C607.674 178.602 606.306 176.676 603.732 176.676C601.14 176.676 599.16 178.548 599.16 181.446ZM601.032 180.42C601.284 178.908 602.346 178.026 603.696 178.026C604.884 178.026 605.856 178.854 605.91 180.42H601.032ZM609.774 186H611.52V182.094H616.128V186H617.874V176.892H616.128V180.6H611.52V176.892H609.774V186ZM620.567 186H622.241L626.183 180.564C626.471 180.132 626.921 179.52 626.975 179.358H627.011C627.011 179.502 626.957 180.132 626.957 180.564V186H628.649V176.892H626.957L623.033 182.328C622.727 182.76 622.295 183.39 622.223 183.552H622.187C622.205 183.462 622.241 182.814 622.241 182.328V176.892H620.567V186ZM635.663 186H637.445L638.057 177.99C638.129 177.216 638.093 176.082 638.093 176.082H638.129C638.129 176.082 638.525 177.306 638.813 177.99L641.333 183.714H642.917L645.455 177.99C645.743 177.288 646.139 176.118 646.139 176.118H646.175C646.175 176.118 646.139 177.216 646.211 177.99L646.823 186H648.587L647.561 173.292H645.707L642.773 180.168C642.485 180.87 642.143 181.878 642.143 181.878H642.107C642.107 181.878 641.783 180.87 641.495 180.168L638.561 173.292H636.707L635.663 186ZM651.045 186H652.917V184.11H651.045V186ZM655.854 186H660.408C662.64 186 664.512 184.776 664.512 182.382C664.512 180.96 663.756 179.7 662.406 179.304V179.268C663.378 178.764 663.99 177.774 663.99 176.532C663.99 174.48 662.46 173.292 660.3 173.292H655.854V186ZM657.636 178.638V174.84H660.282C661.488 174.84 662.172 175.596 662.172 176.712C662.172 177.828 661.452 178.638 660.3 178.638H657.636ZM657.636 184.452V180.114H660.498C661.83 180.114 662.676 180.996 662.676 182.274C662.676 183.588 661.866 184.452 660.498 184.452H657.636ZM666.672 186H668.544V184.11H666.672V186ZM674.523 184.506V186.144C678.033 185.946 679.113 182.418 679.113 176.316V174.84H683.055V186H684.837V173.292H677.421V176.298C677.421 181.464 676.665 184.218 674.523 184.506ZM687.086 181.428C687.086 184.2 689.282 186.216 692 186.216C694.7 186.216 696.896 184.2 696.896 181.428C696.896 178.674 694.7 176.676 691.982 176.676C689.282 176.676 687.086 178.674 687.086 181.428ZM688.868 181.428C688.868 179.538 690.272 178.188 692 178.188C693.71 178.188 695.132 179.538 695.132 181.428C695.132 183.336 693.71 184.704 692 184.704C690.272 184.704 688.868 183.336 688.868 181.428ZM698.622 186H700.314L700.71 180.582C700.746 180.042 700.692 179.016 700.692 179.016H700.728C700.728 179.016 701.016 179.7 701.304 180.366L703.464 184.902H704.958L707.118 180.348C707.46 179.646 707.694 179.016 707.694 179.016H707.73C707.73 179.016 707.694 180.042 707.712 180.582L708.108 186H709.8L709.008 176.892H707.1L704.724 182.04C704.49 182.598 704.22 183.264 704.22 183.264H704.184C704.184 183.264 703.932 182.58 703.68 182.04L701.358 176.892H699.414L698.622 186ZM711.555 181.428C711.555 184.2 713.751 186.216 716.469 186.216C719.169 186.216 721.365 184.2 721.365 181.428C721.365 178.674 719.169 176.676 716.451 176.676C713.751 176.676 711.555 178.674 711.555 181.428ZM713.337 181.428C713.337 179.538 714.741 178.188 716.469 178.188C718.179 178.188 719.601 179.538 719.601 181.428C719.601 183.336 718.179 184.704 716.469 184.704C714.741 184.704 713.337 183.336 713.337 181.428ZM723.469 186H725.215V182.094H729.823V186H731.569V176.892H729.823V180.6H725.215V176.892H723.469V186ZM733.668 181.428C733.668 184.2 735.864 186.216 738.582 186.216C741.282 186.216 743.478 184.2 743.478 181.428C743.478 178.674 741.282 176.676 738.564 176.676C735.864 176.676 733.668 178.674 733.668 181.428ZM735.45 181.428C735.45 179.538 736.854 178.188 738.582 178.188C740.292 178.188 741.714 179.538 741.714 181.428C741.714 183.336 740.292 184.704 738.582 184.704C736.854 184.704 735.45 183.336 735.45 181.428ZM744.988 181.446C744.988 184.182 746.986 186.216 749.866 186.216C751.288 186.216 752.674 185.64 753.502 184.758L752.8 183.48C752.098 184.218 751 184.704 749.992 184.704C748.102 184.704 746.77 183.282 746.77 181.428C746.77 179.574 748.102 178.188 749.938 178.188C750.892 178.188 751.846 178.62 752.458 179.232L753.286 178.008C752.422 177.09 751.072 176.676 749.866 176.676C747.004 176.676 744.988 178.746 744.988 181.446ZM754.586 181.428C754.586 184.2 756.782 186.216 759.5 186.216C762.2 186.216 764.396 184.2 764.396 181.428C764.396 178.674 762.2 176.676 759.482 176.676C756.782 176.676 754.586 178.674 754.586 181.428ZM756.368 181.428C756.368 179.538 757.772 178.188 759.5 178.188C761.21 178.188 762.632 179.538 762.632 181.428C762.632 183.336 761.21 184.704 759.5 184.704C757.772 184.704 756.368 183.336 756.368 181.428ZM766.5 186H770.388C772.368 186 773.736 185.1 773.736 183.408C773.736 182.4 773.142 181.518 772.008 181.248V181.23C772.836 180.87 773.304 180.114 773.304 179.232C773.304 177.702 772.098 176.892 770.262 176.892H766.5V186ZM768.246 180.744V178.098H769.902C771 178.098 771.522 178.53 771.522 179.358C771.522 180.204 771 180.744 769.956 180.744H768.246ZM768.246 184.776V181.914H770.1C771.306 181.914 771.972 182.454 771.972 183.354C771.972 184.2 771.378 184.776 770.118 184.776H768.246ZM775.096 183.516C775.096 185.226 776.554 186.216 778.138 186.216C779.488 186.216 780.604 185.406 781.126 184.362H781.162C781.162 184.362 781.108 184.668 781.108 185.082V186H782.746V180.24C782.746 177.936 781.432 176.676 779.146 176.676C777.868 176.676 776.482 177.144 775.744 177.756L776.446 179.034C777.184 178.512 778.102 178.152 779.002 178.152C780.136 178.152 781 178.656 781 180.15V180.33H780.532C778.642 180.33 775.096 180.654 775.096 183.516ZM776.842 183.372C776.842 181.698 779.254 181.59 780.55 181.59H781V181.932C781 183.282 780.082 184.83 778.552 184.83C777.418 184.83 776.842 184.092 776.842 183.372Z" fill="#424754"/>
<path d="M885.27 104H887.088L888.366 100.346H893.154L894.432 104H896.268L891.714 91.292H889.824L885.27 104ZM888.834 98.87L890.256 94.856C890.472 94.19 890.742 93.038 890.742 93.038H890.778C890.778 93.038 891.066 94.19 891.282 94.856L892.686 98.87H888.834ZM897.257 98.762C897.257 101.912 898.643 104.216 901.721 104.216C904.295 104.216 906.023 102.416 906.023 99.896C906.023 97.322 904.439 95.702 902.153 95.702C900.947 95.702 899.741 96.098 898.931 97.322H898.895C899.021 95.576 899.885 94.514 901.703 93.686L905.195 92.228L904.619 90.788L901.361 92.192C898.193 93.524 897.257 95.504 897.257 98.762ZM899.075 99.896C899.075 98.294 900.173 97.088 901.721 97.088C903.089 97.088 904.259 98.15 904.259 99.932C904.259 101.696 903.089 102.74 901.649 102.74C900.245 102.74 899.075 101.696 899.075 99.896ZM907.606 99.446C907.606 102.146 909.586 104.216 912.448 104.216C913.708 104.216 915.094 103.73 915.976 102.92L915.238 101.642C914.518 102.29 913.528 102.704 912.556 102.704C910.918 102.704 909.514 101.642 909.424 99.68H916.048C916.084 99.428 916.12 99.176 916.12 98.942C916.12 96.602 914.752 94.676 912.178 94.676C909.586 94.676 907.606 96.548 907.606 99.446ZM909.478 98.42C909.73 96.908 910.792 96.026 912.142 96.026C913.33 96.026 914.302 96.854 914.356 98.42H909.478ZM918.219 107.6H919.965V103.46C919.965 102.992 919.893 102.668 919.893 102.668H919.929C920.559 103.64 921.603 104.216 922.755 104.216C925.149 104.216 926.877 102.344 926.877 99.446C926.877 96.62 925.347 94.676 922.881 94.676C921.549 94.676 920.397 95.288 919.821 96.386H919.785C919.785 96.386 919.839 96.08 919.839 95.702V94.892H918.219V107.6ZM919.911 99.482C919.911 97.178 921.171 96.206 922.539 96.206C924.051 96.206 925.113 97.484 925.113 99.464C925.113 101.534 923.925 102.704 922.485 102.704C920.811 102.704 919.911 101.102 919.911 99.482ZM930.636 102.56C931.788 100.76 931.932 98.168 931.932 96.8V96.314H934.668V102.56H930.636ZM927.72 102.56V106.16H929.358V104H936.108V106.16H937.71V102.56H936.414V94.892H930.258V96.566C930.258 97.97 930.114 100.814 928.836 102.56H927.72ZM939.541 104H941.215L945.157 98.564C945.445 98.132 945.895 97.52 945.949 97.358H945.985C945.985 97.502 945.931 98.132 945.931 98.564V104H947.623V94.892H945.931L942.007 100.328C941.701 100.76 941.269 101.39 941.197 101.552H941.161C941.179 101.462 941.215 100.814 941.215 100.328V94.892H939.541V104ZM950.299 104H952.045V100.094H956.653V104H958.399V94.892H956.653V98.6H952.045V94.892H950.299V104Z" fill="#424754"/>
<path d="M886.188 145H887.97L888.582 136.99C888.654 136.216 888.618 135.082 888.618 135.082H888.654C888.654 135.082 889.05 136.306 889.338 136.99L891.858 142.714H893.442L895.98 136.99C896.268 136.288 896.664 135.118 896.664 135.118H896.7C896.7 135.118 896.664 136.216 896.736 136.99L897.348 145H899.112L898.086 132.292H896.232L893.298 139.168C893.01 139.87 892.668 140.878 892.668 140.878H892.632C892.632 140.878 892.308 139.87 892.02 139.168L889.086 132.292H887.232L886.188 145ZM900.905 142.516C900.905 144.226 902.363 145.216 903.947 145.216C905.297 145.216 906.413 144.406 906.935 143.362H906.971C906.971 143.362 906.917 143.668 906.917 144.082V145H908.555V139.24C908.555 136.936 907.241 135.676 904.955 135.676C903.677 135.676 902.291 136.144 901.553 136.756L902.255 138.034C902.993 137.512 903.911 137.152 904.811 137.152C905.945 137.152 906.809 137.656 906.809 139.15V139.33H906.341C904.451 139.33 900.905 139.654 900.905 142.516ZM902.651 142.372C902.651 140.698 905.063 140.59 906.359 140.59H906.809V140.932C906.809 142.282 905.891 143.83 904.361 143.83C903.227 143.83 902.651 143.092 902.651 142.372ZM911.135 145H912.881V141.094H917.489V145H919.235V135.892H917.489V139.6H912.881V135.892H911.135V145ZM924.412 141.832C925.312 141.832 926.302 141.526 926.878 141.166H926.914C926.914 141.166 926.896 141.454 926.896 141.706V145H928.642V135.892H926.896V139.672C926.518 139.942 925.78 140.32 924.88 140.32C923.386 140.32 923.062 139.51 923.062 138.61V135.892H921.352V138.862C921.352 140.806 922.468 141.832 924.412 141.832ZM930.756 140.446C930.756 143.146 932.736 145.216 935.598 145.216C936.858 145.216 938.244 144.73 939.126 143.92L938.388 142.642C937.668 143.29 936.678 143.704 935.706 143.704C934.068 143.704 932.664 142.642 932.574 140.68H939.198C939.234 140.428 939.27 140.176 939.27 139.942C939.27 137.602 937.902 135.676 935.328 135.676C932.736 135.676 930.756 137.548 930.756 140.446ZM932.628 139.42C932.88 137.908 933.942 137.026 935.292 137.026C936.48 137.026 937.452 137.854 937.506 139.42H932.628ZM940.776 140.446C940.776 143.182 942.774 145.216 945.654 145.216C947.076 145.216 948.462 144.64 949.29 143.758L948.588 142.48C947.886 143.218 946.788 143.704 945.78 143.704C943.89 143.704 942.558 142.282 942.558 140.428C942.558 138.574 943.89 137.188 945.726 137.188C946.68 137.188 947.634 137.62 948.246 138.232L949.074 137.008C948.21 136.09 946.86 135.676 945.654 135.676C942.792 135.676 940.776 137.746 940.776 140.446ZM953.374 145H955.102V137.386H958.288V135.892H950.206V137.386H953.374V145ZM959.11 140.446C959.11 143.146 961.09 145.216 963.952 145.216C965.212 145.216 966.598 144.73 967.48 143.92L966.742 142.642C966.022 143.29 965.032 143.704 964.06 143.704C962.422 143.704 961.018 142.642 960.928 140.68H967.552C967.588 140.428 967.624 140.176 967.624 139.942C967.624 137.602 966.256 135.676 963.682 135.676C961.09 135.676 959.11 137.548 959.11 140.446ZM960.982 139.42C961.234 137.908 962.296 137.026 963.646 137.026C964.834 137.026 965.806 137.854 965.86 139.42H960.982ZM969.723 148.6H971.469V144.46C971.469 143.992 971.397 143.668 971.397 143.668H971.433C972.063 144.64 973.107 145.216 974.259 145.216C976.653 145.216 978.381 143.344 978.381 140.446C978.381 137.62 976.851 135.676 974.385 135.676C973.053 135.676 971.901 136.288 971.325 137.386H971.289C971.289 137.386 971.343 137.08 971.343 136.702V135.892H969.723V148.6ZM971.415 140.482C971.415 138.178 972.675 137.206 974.043 137.206C975.555 137.206 976.617 138.484 976.617 140.464C976.617 142.534 975.429 143.704 973.989 143.704C972.315 143.704 971.415 142.102 971.415 140.482Z" fill="#424754"/>
<path d="M889.644 186H891.408V174.84H895.782V173.292H885.27V174.84H889.644V186ZM895.108 181.446C895.108 184.146 897.088 186.216 899.95 186.216C901.21 186.216 902.596 185.73 903.478 184.92L902.74 183.642C902.02 184.29 901.03 184.704 900.058 184.704C898.42 184.704 897.016 183.642 896.926 181.68H903.55C903.586 181.428 903.622 181.176 903.622 180.942C903.622 178.602 902.254 176.676 899.68 176.676C897.088 176.676 895.108 178.548 895.108 181.446ZM896.98 180.42C897.232 178.908 898.294 178.026 899.644 178.026C900.832 178.026 901.804 178.854 901.858 180.42H896.98ZM904.607 186H906.587L908.495 182.958C908.639 182.742 908.765 182.472 908.765 182.472H908.801C908.801 182.472 908.945 182.742 909.089 182.958L910.997 186H912.977L909.863 181.32L912.797 176.892H910.799L909.107 179.664C908.981 179.898 908.801 180.204 908.801 180.204H908.765C908.765 180.204 908.603 179.898 908.477 179.664L906.785 176.892H904.787L907.721 181.32L904.607 186ZM913.877 183.516C913.877 185.226 915.335 186.216 916.919 186.216C918.269 186.216 919.385 185.406 919.907 184.362H919.943C919.943 184.362 919.889 184.668 919.889 185.082V186H921.527V180.24C921.527 177.936 920.213 176.676 917.927 176.676C916.649 176.676 915.263 177.144 914.525 177.756L915.227 179.034C915.965 178.512 916.883 178.152 917.783 178.152C918.917 178.152 919.781 178.656 919.781 180.15V180.33H919.313C917.423 180.33 913.877 180.654 913.877 183.516ZM915.623 183.372C915.623 181.698 918.035 181.59 919.331 181.59H919.781V181.932C919.781 183.282 918.863 184.83 917.333 184.83C916.199 184.83 915.623 184.092 915.623 183.372ZM923.514 181.446C923.514 184.182 925.512 186.216 928.392 186.216C929.814 186.216 931.2 185.64 932.028 184.758L931.326 183.48C930.624 184.218 929.526 184.704 928.518 184.704C926.628 184.704 925.296 183.282 925.296 181.428C925.296 179.574 926.628 178.188 928.464 178.188C929.418 178.188 930.372 178.62 930.984 179.232L931.812 178.008C930.948 177.09 929.598 176.676 928.392 176.676C925.53 176.676 923.514 178.746 923.514 181.446Z" fill="#424754"/>
<g clip-path="url(#clip0)">
<path d="M215.366 166.273C221.942 173.336 222.282 183.718 222.282 183.718C222.282 183.718 211.959 182.648 205.383 175.584C198.807 168.521 198.467 158.139 198.467 158.139C198.467 158.139 208.789 159.21 215.366 166.273Z" fill="#F04B5D"/>
<path d="M236.068 177.298C229.011 183.881 218.639 184.221 218.639 184.221C218.639 184.221 219.708 173.889 226.765 167.306C233.822 160.724 244.194 160.384 244.194 160.384C244.194 160.384 243.125 170.716 236.068 177.298Z" fill="#F04B5D"/>
<path d="M234.314 198.262H208.359C207.861 198.262 207.373 198.122 206.951 197.858C206.529 197.593 206.189 197.216 205.971 196.767L200.32 185.14C200.123 184.735 200.033 184.287 200.056 183.837C200.08 183.387 200.218 182.95 200.457 182.569C200.696 182.187 201.027 181.872 201.421 181.653C201.815 181.435 202.257 181.321 202.708 181.321H239.965C240.415 181.321 240.858 181.435 241.252 181.653C241.646 181.872 241.977 182.187 242.216 182.569C242.455 182.95 242.592 183.387 242.616 183.837C242.64 184.287 242.55 184.735 242.353 185.14L236.702 196.767C236.484 197.216 236.144 197.593 235.722 197.858C235.3 198.122 234.812 198.262 234.314 198.262Z" fill="#3F3D56"/>
<path d="M350.879 56.4627C362.815 56.4627 372.491 46.7778 372.491 34.8309C372.491 22.8839 362.815 13.199 350.879 13.199C338.943 13.199 329.268 22.8839 329.268 34.8309C329.268 46.7778 338.943 56.4627 350.879 56.4627Z" fill="#FFB8B8"/>
<path d="M334.748 45.6467C334.748 45.6467 338.82 76.3703 332.556 79.8188C326.292 83.2673 369.828 83.5809 369.828 83.5809C369.828 83.5809 360.119 56.9329 364.504 48.7817L334.748 45.6467Z" fill="#FFB8B8"/>
<path d="M401.62 83.7366L397.999 100.239L390.343 135.154L390.114 137.066L387.472 159.202L385.714 173.908L384.536 183.786C377.371 187.472 372.178 190.016 372.178 190.016C372.178 190.016 371.731 187.775 371.011 184.906C365.982 186.416 356.678 188.919 348.793 189.419C351.664 192.622 352.984 195.632 351.194 197.853C345.792 204.548 323.491 190.522 315.691 185.292C315.51 186.544 315.441 187.81 315.486 189.075L309.517 184.48L310.107 173.908L311.104 156.019L312.356 133.586C311.961 132.626 311.63 131.64 311.365 130.636C309.537 124.129 307.318 111.135 305.617 100.239C304.247 91.4702 303.219 84.0602 303.001 82.4834C302.972 82.2775 302.957 82.1716 302.957 82.1716L335.999 67.5574C338.348 73.0083 349.313 74.6468 349.313 74.6468C358.397 74.0202 365.518 69.2253 365.518 69.2253L401.62 83.7366Z" fill="#D0CDE1"/>
<path d="M374.684 183.747C374.684 183.747 373.285 184.227 371.01 184.906C365.981 186.415 356.677 188.919 348.792 189.419C342.003 189.854 336.266 188.807 335.217 184.374C334.767 182.468 335.405 180.9 336.795 179.611C340.945 175.761 351.784 174.381 360.38 173.907C362.807 173.775 365.053 173.713 366.922 173.69C370.096 173.649 372.177 173.713 372.177 173.713L372.227 173.907L374.684 183.747Z" fill="#FFB8B8"/>
<path d="M332.901 14.3691L328.86 12.7499C328.86 12.7499 337.309 3.43925 349.064 4.2489L345.758 0.605578C345.758 0.605578 353.84 -2.63286 361.187 5.86809C365.049 10.3369 369.518 15.5897 372.303 21.5069H376.631L374.825 25.4875L381.146 29.4681L374.658 28.7531C375.044 30.9329 375.104 33.1583 374.834 35.3557C374.555 37.5537 373.435 39.5575 371.708 40.9442C371.708 40.9442 366.697 30.5614 366.697 28.9422V32.9903C366.697 32.9903 362.656 29.347 362.656 26.9182L360.452 29.7519L359.35 25.2989L345.758 29.7519L347.962 26.1086L339.513 27.323L342.819 22.8701C342.819 22.8701 333.268 28.1326 332.901 32.5855C332.534 37.0384 329.738 41.2578 329.738 41.2578C329.738 41.2578 322.248 20.4412 332.901 14.3691Z" fill="#2F2E41"/>
<path d="M425.11 159.605C422.909 161.994 417.454 165.591 410.841 169.486C408.382 170.933 405.763 172.425 403.092 173.907C396.717 177.446 390.043 180.953 384.535 183.785C377.37 187.471 372.177 190.016 372.177 190.016C372.177 190.016 371.73 187.774 371.01 184.906C370.046 181.067 368.594 176.105 367.081 173.907C367.028 173.831 366.975 173.76 366.922 173.69C366.481 173.11 366.037 172.772 365.6 172.772L387.471 159.202L396.923 153.336L390.113 137.066L381.573 116.657L386.728 100.239L391.909 83.7363H401.619C401.619 83.7363 404.834 90.761 408.946 100.557C409.56 102.022 410.195 103.548 410.841 105.125C419.3 125.717 429.845 154.472 425.11 159.605Z" fill="#D0CDE1"/>
<path d="M351.194 197.852C345.793 204.548 323.492 190.522 315.692 185.292C313.993 184.153 312.982 183.432 312.982 183.432L320.118 173.907L322.378 170.892C322.378 170.892 324.4 171.966 327.389 173.713C327.498 173.778 327.607 173.843 327.718 173.907C330.296 175.422 333.531 177.402 336.797 179.611C341.302 182.662 345.857 186.142 348.793 189.419C351.665 192.622 352.984 195.632 351.194 197.852Z" fill="#FFB8B8"/>
<path d="M327.388 173.713C326.59 173.71 325.794 173.775 325.007 173.907C318.251 175.069 316.258 181.191 315.691 185.292C315.509 186.544 315.44 187.81 315.485 189.075L309.516 184.48L307.341 182.806C302.107 180.979 297.443 177.734 293.399 173.907C289.891 170.529 286.744 166.793 284.009 162.761C281.285 158.788 278.857 154.619 276.744 150.289C276.154 149.08 275.838 147.757 275.816 146.412C275.794 145.068 276.068 143.735 276.618 142.508L284.009 126.02L294.813 101.922C294.892 101.348 294.979 100.787 295.074 100.239C297.217 87.9429 302.956 82.4832 302.956 82.4832H307.341L310.274 100.239L313.919 122.299L311.365 130.635L305.463 149.889L311.103 156.019L327.388 173.713Z" fill="#D0CDE1"/>
<path d="M332.352 122.316L336.101 126.694C337.493 126.428 338.948 126.116 340.446 125.765L339.369 122.316L342.002 125.391C357.871 121.484 377.541 113.888 377.541 113.888C377.541 113.888 356.305 115.447 340.449 111.979C333.434 110.445 326.216 113.926 323.337 120.511C321.664 124.338 321.927 127.654 327.861 127.654C329.867 127.62 331.866 127.432 333.843 127.091L332.352 122.316Z" fill="#F04B5D"/>
<path d="M417.808 194.264V196.049C417.809 196.539 417.718 197.025 417.54 197.482C417.461 197.686 417.366 197.882 417.255 198.07C416.905 198.659 416.408 199.146 415.813 199.484C415.218 199.823 414.545 200 413.861 200H282.623C281.938 200 281.266 199.823 280.671 199.484C280.076 199.146 279.579 198.659 279.228 198.07C279.118 197.882 279.022 197.686 278.943 197.482C278.766 197.025 278.675 196.539 278.676 196.049V194.264C278.676 193.745 278.778 193.231 278.976 192.752C279.174 192.272 279.465 191.837 279.832 191.47C280.198 191.103 280.633 190.812 281.112 190.614C281.591 190.415 282.104 190.313 282.623 190.313H290.188V189.481C290.188 189.459 290.192 189.438 290.2 189.418C290.208 189.398 290.22 189.379 290.236 189.364C290.251 189.349 290.269 189.337 290.289 189.328C290.309 189.32 290.331 189.316 290.352 189.316H294.299C294.321 189.316 294.342 189.32 294.362 189.328C294.382 189.337 294.4 189.349 294.416 189.364C294.431 189.379 294.443 189.398 294.451 189.418C294.46 189.438 294.464 189.459 294.464 189.481V190.313H296.929V189.481C296.929 189.459 296.934 189.438 296.942 189.418C296.95 189.398 296.962 189.379 296.978 189.364C296.993 189.349 297.011 189.337 297.031 189.328C297.051 189.32 297.072 189.316 297.094 189.316H301.041C301.063 189.316 301.084 189.32 301.104 189.328C301.124 189.337 301.142 189.349 301.158 189.364C301.173 189.379 301.185 189.398 301.193 189.418C301.201 189.438 301.206 189.459 301.206 189.481V190.313H303.674V189.481C303.674 189.459 303.679 189.438 303.687 189.418C303.695 189.398 303.707 189.379 303.722 189.364C303.738 189.349 303.756 189.337 303.776 189.328C303.796 189.32 303.817 189.316 303.839 189.316H307.786C307.808 189.316 307.829 189.32 307.849 189.328C307.869 189.337 307.887 189.349 307.902 189.364C307.918 189.379 307.93 189.398 307.938 189.418C307.946 189.438 307.951 189.459 307.95 189.481V190.313H310.416V189.481C310.416 189.459 310.42 189.438 310.429 189.418C310.437 189.398 310.449 189.379 310.464 189.364C310.48 189.349 310.498 189.337 310.518 189.328C310.538 189.32 310.559 189.316 310.581 189.316H314.528C314.549 189.316 314.571 189.32 314.591 189.328C314.611 189.337 314.629 189.349 314.644 189.364C314.66 189.379 314.672 189.398 314.68 189.418C314.688 189.438 314.692 189.459 314.692 189.481V190.313H317.158V189.481C317.158 189.459 317.162 189.438 317.171 189.418C317.179 189.398 317.191 189.379 317.206 189.364C317.222 189.349 317.24 189.337 317.26 189.328C317.28 189.32 317.301 189.316 317.323 189.316H321.27C321.291 189.316 321.313 189.32 321.333 189.328C321.353 189.337 321.371 189.349 321.386 189.364C321.401 189.379 321.414 189.398 321.422 189.418C321.43 189.438 321.434 189.459 321.434 189.481V190.313H323.903V189.481C323.903 189.459 323.907 189.438 323.915 189.418C323.924 189.398 323.936 189.379 323.951 189.364C323.966 189.349 323.985 189.337 324.005 189.328C324.025 189.32 324.046 189.316 324.068 189.316H328.015C328.036 189.316 328.058 189.32 328.078 189.328C328.098 189.337 328.116 189.349 328.131 189.364C328.146 189.379 328.158 189.398 328.167 189.418C328.175 189.438 328.179 189.459 328.179 189.481V190.313H330.645V189.481C330.645 189.459 330.649 189.438 330.657 189.418C330.666 189.398 330.678 189.379 330.693 189.364C330.708 189.349 330.727 189.337 330.746 189.328C330.766 189.32 330.788 189.316 330.81 189.316H361.727C361.749 189.316 361.77 189.32 361.79 189.328C361.81 189.337 361.828 189.349 361.844 189.364C361.859 189.379 361.871 189.398 361.879 189.418C361.887 189.438 361.892 189.459 361.892 189.481V190.313H364.36V189.481C364.36 189.459 364.365 189.438 364.373 189.418C364.381 189.398 364.393 189.379 364.408 189.364C364.424 189.349 364.442 189.337 364.462 189.328C364.482 189.32 364.503 189.316 364.525 189.316H368.472C368.515 189.316 368.557 189.334 368.588 189.365C368.619 189.395 368.636 189.437 368.636 189.481V190.313H371.102V189.481C371.102 189.459 371.106 189.438 371.115 189.418C371.123 189.398 371.135 189.379 371.15 189.364C371.166 189.349 371.184 189.337 371.204 189.328C371.224 189.32 371.245 189.316 371.267 189.316H375.214C375.235 189.316 375.257 189.32 375.277 189.328C375.297 189.337 375.315 189.349 375.33 189.364C375.346 189.379 375.358 189.398 375.366 189.418C375.374 189.438 375.378 189.459 375.378 189.481V190.313H377.844V189.481C377.844 189.459 377.848 189.438 377.857 189.418C377.865 189.398 377.877 189.379 377.892 189.364C377.908 189.349 377.926 189.337 377.946 189.328C377.966 189.32 377.987 189.316 378.009 189.316H381.956C381.977 189.316 381.999 189.32 382.019 189.328C382.039 189.337 382.057 189.349 382.072 189.364C382.087 189.379 382.1 189.398 382.108 189.418C382.116 189.438 382.12 189.459 382.12 189.481V190.313H384.589V189.481C384.589 189.459 384.593 189.438 384.601 189.418C384.61 189.398 384.622 189.379 384.637 189.364C384.652 189.349 384.671 189.337 384.691 189.328C384.711 189.32 384.732 189.316 384.754 189.316H388.701C388.744 189.316 388.785 189.334 388.815 189.365C388.846 189.396 388.862 189.437 388.862 189.481V190.313H391.331V189.481C391.331 189.459 391.335 189.438 391.343 189.418C391.352 189.398 391.364 189.379 391.379 189.364C391.394 189.349 391.412 189.337 391.432 189.328C391.452 189.32 391.474 189.316 391.495 189.316H395.442C395.464 189.316 395.486 189.32 395.506 189.328C395.525 189.337 395.544 189.349 395.559 189.364C395.574 189.379 395.586 189.398 395.595 189.418C395.603 189.438 395.607 189.459 395.607 189.481V190.313H398.073V189.481C398.073 189.459 398.077 189.438 398.085 189.418C398.094 189.398 398.106 189.379 398.121 189.364C398.136 189.349 398.154 189.337 398.174 189.328C398.194 189.32 398.216 189.316 398.237 189.316H402.184C402.206 189.316 402.227 189.32 402.247 189.328C402.267 189.337 402.286 189.349 402.301 189.364C402.316 189.379 402.328 189.398 402.337 189.418C402.345 189.438 402.349 189.459 402.349 189.481V190.313H413.861C414.379 190.313 414.892 190.415 415.371 190.614C415.85 190.812 416.285 191.103 416.652 191.47C417.019 191.837 417.309 192.272 417.508 192.752C417.706 193.231 417.808 193.745 417.808 194.264Z" fill="#3F3D56"/>
<path d="M407.241 119.066H358.324V118.057H336.144V119.066H287.026C286.591 119.066 286.161 119.152 285.759 119.318C285.358 119.485 284.993 119.729 284.686 120.036C284.379 120.344 284.135 120.709 283.969 121.111C283.802 121.512 283.717 121.943 283.717 122.378V189.422C283.717 190.3 284.065 191.143 284.686 191.764C285.306 192.385 286.148 192.734 287.026 192.734H407.241C408.118 192.734 408.96 192.385 409.58 191.764C410.201 191.143 410.549 190.3 410.549 189.422V122.378C410.549 121.943 410.464 121.512 410.298 121.111C410.131 120.709 409.888 120.344 409.58 120.036C409.273 119.729 408.908 119.485 408.507 119.318C408.105 119.152 407.675 119.066 407.241 119.066Z" fill="#3F3D56"/>
<path d="M129.144 86.5796C135.051 86.5796 139.84 81.7862 139.84 75.8732C139.84 69.9602 135.051 65.1667 129.144 65.1667C123.236 65.1667 118.447 69.9602 118.447 75.8732C118.447 81.7862 123.236 86.5796 129.144 86.5796Z" fill="#2F2E41"/>
<path d="M132.124 65.4614C133.976 65.4617 135.795 65.9427 137.405 66.8575C139.015 67.7723 140.36 69.0896 141.309 70.6806C142.257 72.2715 142.778 74.0817 142.818 75.9341C142.859 77.7866 142.419 79.6179 141.541 81.249C142.468 80.0877 143.143 78.7457 143.524 77.3086C143.904 75.8715 143.982 74.3708 143.751 72.9021C143.52 71.4335 142.986 70.0291 142.183 68.7785C141.38 67.5278 140.325 66.4584 139.086 65.6382C137.847 64.8181 136.451 64.2653 134.987 64.015C133.523 63.7648 132.023 63.8226 130.582 64.1847C129.142 64.5468 127.792 65.2054 126.62 66.1184C125.448 67.0314 124.478 68.1788 123.773 69.4875C124.773 68.231 126.043 67.2165 127.489 66.5194C128.935 65.8223 130.52 65.4607 132.124 65.4614Z" fill="#2F2E41"/>
<path d="M109.157 75.8505C126.51 75.8505 140.578 61.7698 140.578 44.4003C140.578 27.0309 126.51 12.9502 109.157 12.9502C91.8039 12.9502 77.7363 27.0309 77.7363 44.4003C77.7363 61.7698 91.8039 75.8505 109.157 75.8505Z" fill="#2F2E41"/>
<path d="M84.4966 24.887C89.9107 18.7925 97.4787 15.0418 105.603 14.4266C113.728 13.8113 121.773 16.3796 128.042 21.5894C127.785 21.345 127.531 21.0985 127.264 20.8609C121.036 15.3191 112.863 12.4806 104.544 12.97C96.2253 13.4594 88.4413 17.2365 82.9046 23.4704C77.3679 29.7043 74.5321 37.8844 75.021 46.2111C75.5099 54.5378 79.2835 62.3291 85.5116 67.8709C85.7786 68.1085 86.0529 68.3324 86.3255 68.5591C80.4221 62.9382 76.9314 55.2414 76.5902 47.0932C76.249 38.9449 79.0839 30.9827 84.4966 24.887Z" fill="#2F2E41"/>
<path d="M108.891 75.5838C120.068 75.5838 129.129 66.5149 129.129 55.3278C129.129 44.1407 120.068 35.0718 108.891 35.0718C97.7148 35.0718 88.6543 44.1407 88.6543 55.3278C88.6543 66.5149 97.7148 75.5838 108.891 75.5838Z" fill="#A0616A"/>
<path d="M103.32 55.0886C103.32 55.0886 101.829 55.7398 100.373 55.7675C98.9225 55.7951 97.0205 54.818 97.0205 54.818" stroke="#222224"/>
<path d="M346.293 36.0791C346.293 36.0791 344.809 36.7273 343.359 36.7549C341.915 36.7824 340.022 35.8097 340.022 35.8097" stroke="#222224"/>
<path d="M120.316 54.6021C120.316 54.6021 118.886 55.3778 117.438 55.5294C115.995 55.6805 114.016 54.8689 114.016 54.8689" stroke="#222224"/>
<path d="M363.287 35.5947C363.287 35.5947 361.863 36.367 360.422 36.5179C358.985 36.6683 357.016 35.8603 357.016 35.8603" stroke="#222224"/>
<path d="M94.5107 61.7244C94.5107 61.7244 97.1735 86.2448 92.913 88.9101C88.6526 91.5754 117.411 95.3067 117.411 95.3067C117.411 95.3067 113.15 68.6541 123.801 61.7244L94.5107 61.7244Z" fill="#A0616A"/>
<path d="M120.073 84.6458C120.073 84.6458 128.003 80.9392 116.583 82.2594C105.162 83.5796 95.3084 78.5157 95.3084 78.5157C95.3084 78.5157 91.848 75.0508 91.3154 78.7822C90.7829 82.5136 92.9131 89.4432 81.1969 90.5093C69.4806 91.5754 58.8295 88.3771 54.569 96.3729C50.3086 104.369 52.4388 139.017 52.4388 139.017C52.4388 139.017 60.4272 167.802 66.8178 172.066C73.2085 176.331 129.127 170.467 129.127 170.467L145.104 141.682V108.1C145.104 108.1 142.973 96.3729 128.062 99.5713C128.062 99.5713 118.476 97.4391 119.008 92.6416C119.541 87.8441 120.073 84.6458 120.073 84.6458Z" fill="#D0CDE1"/>
<path d="M68.9314 192.437C69.2606 191.002 69.481 190.19 69.481 190.19L69.3106 189.022L67.556 177.096L66.8184 172.066C73.2076 169.401 74.8064 157.14 74.8064 157.14L75.0474 156.996L76.1377 156.343V156.34L80.0524 153.989L80.1317 153.942L81.7129 154.996L84.9251 157.14C89.1364 160.285 93.957 162.517 99.0787 163.691C104.2 164.866 109.511 164.958 114.67 163.962C117.072 163.55 119.42 162.871 121.671 161.938L129.418 159.352L129.659 159.273L129.897 159.308L134.44 159.996L134.522 160.011L134.899 160.067L133.847 167.348L132.321 177.929C136.351 180.064 139.933 184.077 143.066 189.022C143.76 190.116 144.432 191.254 145.082 192.437C145.928 193.967 146.737 195.558 147.507 197.188C147.601 197.382 147.692 197.579 147.783 197.776C148.08 198.415 148.374 199.059 148.659 199.706H67.5208C67.6266 199.056 67.7324 198.435 67.8352 197.838C67.8406 197.818 67.8445 197.797 67.847 197.776C67.8852 197.576 67.9205 197.382 67.9528 197.188C68.3113 195.246 68.6581 193.626 68.9314 192.437Z" fill="#2F2E41"/>
<path d="M65.7539 89.9764C65.7539 89.9764 71.612 100.637 69.4818 113.964C67.3516 127.29 75.8725 160.339 75.8725 160.339L82.2632 158.74C82.2632 158.74 78.0027 131.021 79.0678 124.625C80.1329 118.228 80.1329 93.1747 74.8074 89.9764C69.4818 86.7781 65.7539 89.9764 65.7539 89.9764Z" fill="#2F2E41"/>
<path d="M127.687 101.055L129.926 160.073L134.186 162.738C134.186 162.738 140.311 97.9722 137.115 97.9722H130.614C130.216 97.9722 129.823 98.0531 129.458 98.21C129.093 98.367 128.763 98.5966 128.489 98.885C128.216 99.1734 128.003 99.5146 127.866 99.8877C127.728 100.261 127.667 100.658 127.687 101.055Z" fill="#2F2E41"/>
<path d="M78.8014 159.007C80.2721 159.007 81.4642 157.813 81.4642 156.341C81.4642 154.869 80.2721 153.676 78.8014 153.676C77.3308 153.676 76.1387 154.869 76.1387 156.341C76.1387 157.813 77.3308 159.007 78.8014 159.007Z" fill="#F04B5D"/>
<path d="M132.057 161.672C133.528 161.672 134.72 160.479 134.72 159.007C134.72 157.535 133.528 156.341 132.057 156.341C130.587 156.341 129.395 157.535 129.395 159.007C129.395 160.479 130.587 161.672 132.057 161.672Z" fill="#F04B5D"/>
<path d="M91.582 30.0076V50.2637H96.2687L102.233 43.8672L101.434 50.2637H122.151L120.873 43.8672L123.429 50.2637H126.731V30.0076H91.582Z" fill="#2F2E41"/>
<path d="M88.3867 53.9952C89.2691 53.9952 89.9844 52.6826 89.9844 51.0634C89.9844 49.4442 89.2691 48.1316 88.3867 48.1316C87.5044 48.1316 86.7891 49.4442 86.7891 51.0634C86.7891 52.6826 87.5044 53.9952 88.3867 53.9952Z" fill="#A0616A"/>
<path d="M129.395 53.9952C130.277 53.9952 130.992 52.6826 130.992 51.0634C130.992 49.4442 130.277 48.1316 129.395 48.1316C128.512 48.1316 127.797 49.4442 127.797 51.0634C127.797 52.6826 128.512 53.9952 129.395 53.9952Z" fill="#A0616A"/>
<path d="M140.312 158.74C140.312 158.74 116.08 154.209 114.483 162.205C112.885 170.201 141.377 166.736 141.377 166.736L140.312 158.74Z" fill="#A0616A"/>
<path d="M139.779 103.836C139.779 103.836 197.827 150.211 187.176 161.405C176.525 172.6 136.051 169.401 136.051 169.401L138.714 156.075L162.146 153.41L150.43 141.682L139.779 142.749V103.836Z" fill="#D0CDE1"/>
<path d="M54.0371 181.128L61.4929 186.992C61.4929 186.992 66.8185 203.517 74.8068 198.719C82.7952 193.922 67.351 176.864 67.351 176.864L58.2975 173.666L54.0371 181.128Z" fill="#A0616A"/>
<path d="M61.4928 95.3069L54.0571 97.5466C54.0571 97.5466 2.37904 135.819 0.24881 146.48C-1.88142 157.141 10.3674 163.005 10.3674 163.005L56.6998 184.86L61.4928 172.066L39.658 160.872C39.658 160.872 41.2557 157.674 34.865 157.141C28.4743 156.608 27.4092 149.678 27.4092 149.678C27.4092 149.678 40.1905 129.955 47.1138 134.22C54.037 138.484 56.1672 141.682 56.1672 141.682L61.4928 95.3069Z" fill="#D0CDE1"/>
<path d="M167.548 194.264V196.049C167.549 196.539 167.458 197.025 167.28 197.482C167.202 197.686 167.106 197.882 166.995 198.07C166.645 198.659 166.148 199.146 165.553 199.484C164.958 199.823 164.285 200 163.601 200H32.363C31.6787 200 31.006 199.823 30.4109 199.484C29.8158 199.146 29.3188 198.659 28.9685 198.07C28.8577 197.882 28.7624 197.686 28.6835 197.482C28.5057 197.025 28.415 196.539 28.416 196.049V194.264C28.4159 193.745 28.5179 193.231 28.7162 192.752C28.9145 192.272 29.2052 191.837 29.5718 191.47C29.9383 191.103 30.3735 190.812 30.8524 190.614C31.3313 190.415 31.8446 190.313 32.363 190.313H39.9278V189.481C39.9278 189.459 39.932 189.438 39.9403 189.418C39.9485 189.398 39.9606 189.379 39.9759 189.364C39.9912 189.349 40.0094 189.337 40.0294 189.328C40.0493 189.32 40.0708 189.316 40.0924 189.316H44.0394C44.061 189.316 44.0824 189.32 44.1024 189.328C44.1224 189.337 44.1405 189.349 44.1558 189.364C44.1711 189.379 44.1832 189.398 44.1915 189.418C44.1998 189.438 44.204 189.459 44.2039 189.481V190.313H46.6697V189.481C46.6697 189.459 46.6739 189.438 46.6822 189.418C46.6904 189.398 46.7025 189.379 46.7178 189.364C46.7331 189.349 46.7513 189.337 46.7713 189.328C46.7913 189.32 46.8127 189.316 46.8343 189.316H50.7813C50.8029 189.316 50.8243 189.32 50.8443 189.328C50.8643 189.337 50.8824 189.349 50.8977 189.364C50.913 189.379 50.9251 189.398 50.9334 189.418C50.9417 189.438 50.9459 189.459 50.9459 189.481V190.313H53.4146V189.481C53.4146 189.459 53.4188 189.438 53.427 189.418C53.4353 189.398 53.4474 189.379 53.4627 189.364C53.478 189.349 53.4962 189.337 53.5161 189.328C53.5361 189.32 53.5575 189.316 53.5792 189.316H57.5261C57.5478 189.316 57.5692 189.32 57.5892 189.328C57.6092 189.337 57.6273 189.349 57.6426 189.364C57.6579 189.379 57.67 189.398 57.6783 189.418C57.6865 189.438 57.6908 189.459 57.6907 189.481V190.313H60.1565V189.481C60.1565 189.459 60.1607 189.438 60.1689 189.418C60.1772 189.398 60.1893 189.379 60.2046 189.364C60.2199 189.349 60.2381 189.337 60.258 189.328C60.278 189.32 60.2994 189.316 60.3211 189.316H64.268C64.2897 189.316 64.3111 189.32 64.3311 189.328C64.3511 189.337 64.3692 189.349 64.3845 189.364C64.3998 189.379 64.4119 189.398 64.4202 189.418C64.4284 189.438 64.4327 189.459 64.4326 189.481V190.313H66.8984V189.481C66.8984 189.459 66.9026 189.438 66.9108 189.418C66.9191 189.398 66.9312 189.379 66.9465 189.364C66.9618 189.349 66.98 189.337 66.9999 189.328C67.0199 189.32 67.0414 189.316 67.063 189.316H71.01C71.0316 189.316 71.053 189.32 71.073 189.328C71.093 189.337 71.1111 189.349 71.1264 189.364C71.1417 189.379 71.1538 189.398 71.1621 189.418C71.1703 189.438 71.1746 189.459 71.1745 189.481V190.313H73.6432V189.481C73.6432 189.459 73.6474 189.438 73.6557 189.418C73.6639 189.398 73.676 189.379 73.6913 189.364C73.7066 189.349 73.7248 189.337 73.7448 189.328C73.7647 189.32 73.7862 189.316 73.8078 189.316H77.7548C77.7764 189.316 77.7978 189.32 77.8178 189.328C77.8378 189.337 77.856 189.349 77.8712 189.364C77.8865 189.379 77.8987 189.398 77.9069 189.418C77.9152 189.438 77.9194 189.459 77.9194 189.481V190.313H80.3852V189.481C80.3851 189.459 80.3893 189.438 80.3976 189.418C80.4059 189.398 80.418 189.379 80.4333 189.364C80.4486 189.349 80.4667 189.337 80.4867 189.328C80.5067 189.32 80.5281 189.316 80.5497 189.316H111.467C111.489 189.316 111.51 189.32 111.53 189.328C111.55 189.337 111.568 189.349 111.584 189.364C111.599 189.379 111.611 189.398 111.619 189.418C111.628 189.438 111.632 189.459 111.632 189.481V190.313H114.101V189.481C114.101 189.459 114.105 189.438 114.113 189.418C114.121 189.398 114.133 189.379 114.149 189.364C114.164 189.349 114.182 189.337 114.202 189.328C114.222 189.32 114.243 189.316 114.265 189.316H118.212C118.256 189.316 118.297 189.334 118.328 189.365C118.359 189.395 118.376 189.437 118.377 189.481V190.313H120.842V189.481C120.842 189.459 120.847 189.438 120.855 189.418C120.863 189.398 120.875 189.379 120.891 189.364C120.906 189.349 120.924 189.337 120.944 189.328C120.964 189.32 120.985 189.316 121.007 189.316H124.954C124.976 189.316 124.997 189.32 125.017 189.328C125.037 189.337 125.055 189.349 125.07 189.364C125.086 189.379 125.098 189.398 125.106 189.418C125.114 189.438 125.119 189.459 125.119 189.481V190.313H127.584V189.481C127.584 189.459 127.589 189.438 127.597 189.418C127.605 189.398 127.617 189.379 127.632 189.364C127.648 189.349 127.666 189.337 127.686 189.328C127.706 189.32 127.727 189.316 127.749 189.316H131.696C131.718 189.316 131.739 189.32 131.759 189.328C131.779 189.337 131.797 189.349 131.812 189.364C131.828 189.379 131.84 189.398 131.848 189.418C131.856 189.438 131.861 189.459 131.86 189.481V190.313H134.329V189.481C134.329 189.459 134.333 189.438 134.342 189.418C134.35 189.398 134.362 189.379 134.377 189.364C134.393 189.349 134.411 189.337 134.431 189.328C134.451 189.32 134.472 189.316 134.494 189.316H138.441C138.484 189.316 138.525 189.334 138.555 189.365C138.586 189.396 138.603 189.437 138.602 189.481V190.313H141.071V189.481C141.071 189.459 141.075 189.438 141.084 189.418C141.092 189.398 141.104 189.379 141.119 189.364C141.135 189.349 141.153 189.337 141.173 189.328C141.193 189.32 141.214 189.316 141.236 189.316H145.183C145.204 189.316 145.226 189.32 145.246 189.328C145.266 189.337 145.284 189.349 145.299 189.364C145.314 189.379 145.327 189.398 145.335 189.418C145.343 189.438 145.347 189.459 145.347 189.481V190.313H147.813V189.481C147.813 189.459 147.817 189.438 147.825 189.418C147.834 189.398 147.846 189.379 147.861 189.364C147.876 189.349 147.895 189.337 147.915 189.328C147.935 189.32 147.956 189.316 147.978 189.316H151.925C151.946 189.316 151.968 189.32 151.988 189.328C152.008 189.337 152.026 189.349 152.041 189.364C152.056 189.379 152.068 189.398 152.077 189.418C152.085 189.438 152.089 189.459 152.089 189.481V190.313H163.601C164.119 190.313 164.633 190.415 165.112 190.614C165.59 190.812 166.026 191.103 166.392 191.47C166.759 191.837 167.049 192.272 167.248 192.752C167.446 193.231 167.548 193.745 167.548 194.264Z" fill="#3F3D56"/>
<path d="M156.981 119.065H108.064V118.055H85.8839V119.065H36.7659C35.8883 119.065 35.0467 119.414 34.4262 120.035C33.8056 120.656 33.457 121.498 33.457 122.376V189.421C33.457 190.299 33.8056 191.141 34.4262 191.762C35.0467 192.384 35.8883 192.732 36.7659 192.732H156.981C157.858 192.732 158.7 192.384 159.321 191.762C159.941 191.141 160.29 190.299 160.29 189.421V122.376C160.29 121.498 159.941 120.656 159.321 120.035C158.7 119.414 157.858 119.065 156.981 119.065Z" fill="#3F3D56"/>
<path d="M97.2466 165.593C97.8466 165.593 98.333 166.071 98.333 166.661C98.333 167.252 97.8466 167.73 97.2466 167.73C96.6466 167.73 96.1602 167.252 96.1602 166.661C96.1602 166.071 96.6466 165.593 97.2466 165.593Z" fill="#F04B5D"/>
<path d="M97.2466 149.237C97.8466 149.237 98.333 149.716 98.333 150.306C98.333 150.897 97.8466 151.375 97.2466 151.375C96.6466 151.375 96.1602 150.897 96.1602 150.306C96.1602 149.716 96.6466 149.237 97.2466 149.237Z" fill="#F04B5D"/>
<path d="M104.471 158.484C104.471 157.894 104.957 157.415 105.557 157.415C106.157 157.415 106.644 157.894 106.644 158.484C106.644 159.074 106.157 159.553 105.557 159.553C104.957 159.553 104.471 159.074 104.471 158.484Z" fill="#F04B5D"/>
<path d="M87.8477 158.484C87.8477 157.894 88.334 157.415 88.9341 157.415C89.5341 157.415 90.0205 157.894 90.0205 158.484C90.0205 159.074 89.5341 159.553 88.9341 159.553C88.334 159.553 87.8477 159.074 87.8477 158.484Z" fill="#F04B5D"/>
<path d="M102.355 153.457C101.931 153.04 101.931 152.363 102.355 151.946C102.78 151.528 103.468 151.528 103.892 151.946C104.316 152.363 104.316 153.04 103.892 153.457C103.468 153.875 102.78 153.875 102.355 153.457Z" fill="#F04B5D"/>
<path d="M90.6014 165.022C90.1771 164.605 90.1771 163.928 90.6014 163.51C91.0258 163.093 91.7136 163.093 92.1378 163.51C92.5622 163.928 92.5622 164.605 92.1378 165.022C91.7136 165.44 91.0258 165.44 90.6014 165.022Z" fill="#F04B5D"/>
<path d="M92.1379 153.457C91.7135 153.875 91.0257 153.875 90.6015 153.457C90.1771 153.04 90.1771 152.363 90.6015 151.945C91.0257 151.528 91.7135 151.528 92.1379 151.945C92.5622 152.363 92.5622 153.04 92.1379 153.457Z" fill="#F04B5D"/>
<path d="M103.89 165.022C103.466 165.439 102.778 165.439 102.353 165.022C101.929 164.605 101.929 163.928 102.353 163.51C102.778 163.093 103.466 163.093 103.89 163.51C104.314 163.928 104.314 164.605 103.89 165.022Z" fill="#F04B5D"/>
<path d="M90.5828 155.736C90.3509 156.28 89.7142 156.537 89.1609 156.308C88.6075 156.08 88.3469 155.454 88.5789 154.909C88.8108 154.365 89.4475 154.108 90.0008 154.337C90.5542 154.565 90.8148 155.191 90.5828 155.736Z" fill="#F04B5D"/>
<path d="M105.913 162.058C105.681 162.603 105.044 162.859 104.491 162.631C103.938 162.403 103.677 161.776 103.909 161.232C104.141 160.687 104.778 160.431 105.331 160.659C105.884 160.888 106.145 161.514 105.913 162.058Z" fill="#F04B5D"/>
<path d="M94.4539 165.04C95.0074 165.268 95.2679 165.894 95.0359 166.439C94.804 166.983 94.1673 167.24 93.6139 167.011C93.0606 166.783 92.8001 166.157 93.032 165.612C93.264 165.068 93.9006 164.811 94.4539 165.04Z" fill="#F04B5D"/>
<path d="M100.878 149.956C101.431 150.184 101.692 150.811 101.46 151.355C101.228 151.9 100.591 152.156 100.038 151.928C99.4844 151.7 99.2239 151.073 99.4558 150.529C99.6878 149.984 100.324 149.728 100.878 149.956Z" fill="#F04B5D"/>
<path d="M99.9819 165.063C100.537 164.839 101.172 165.101 101.399 165.647C101.626 166.194 101.36 166.818 100.805 167.041C100.25 167.265 99.6152 167.003 99.3879 166.457C99.1606 165.911 99.4266 165.286 99.9819 165.063Z" fill="#F04B5D"/>
<path d="M93.6869 149.926C94.2422 149.703 94.8767 149.964 95.1039 150.511C95.3311 151.057 95.0653 151.681 94.5099 151.905C93.9546 152.128 93.3202 151.867 93.093 151.32C92.8657 150.774 93.1316 150.15 93.6869 149.926Z" fill="#F04B5D"/>
<path d="M103.933 155.791C103.706 155.245 103.971 154.621 104.527 154.397C105.082 154.174 105.716 154.435 105.944 154.982C106.171 155.528 105.905 156.152 105.35 156.376C104.795 156.6 104.16 156.338 103.933 155.791Z" fill="#F04B5D"/>
<path d="M88.548 161.986C88.3208 161.44 88.5867 160.816 89.142 160.592C89.6974 160.369 90.3317 160.63 90.559 161.177C90.7863 161.723 90.5203 162.347 89.9651 162.571C89.4098 162.794 88.7753 162.533 88.548 161.986Z" fill="#F04B5D"/>
<path d="M87.1145 156.599C87.0345 157.005 86.6352 157.27 86.2229 157.191C85.8106 157.112 85.5414 156.72 85.6215 156.314C85.7016 155.908 86.1009 155.643 86.5132 155.722C86.9255 155.801 87.1947 156.194 87.1145 156.599Z" fill="#F04B5D"/>
<path d="M108.87 160.76C108.79 161.166 108.391 161.431 107.979 161.352C107.566 161.273 107.297 160.88 107.377 160.475C107.457 160.069 107.857 159.804 108.269 159.883C108.681 159.962 108.951 160.354 108.87 160.76Z" fill="#F04B5D"/>
<path d="M95.2768 168.506C95.6891 168.584 95.9585 168.977 95.8783 169.383C95.7981 169.789 95.399 170.053 94.9867 169.975C94.5744 169.896 94.305 169.503 94.3852 169.097C94.4654 168.692 94.8645 168.427 95.2768 168.506Z" fill="#F04B5D"/>
<path d="M99.5054 147.099C99.9177 147.178 100.187 147.571 100.107 147.977C100.027 148.382 99.6275 148.647 99.2152 148.568C98.8029 148.49 98.5336 148.097 98.6137 147.691C98.6939 147.285 99.0931 147.02 99.5054 147.099Z" fill="#F04B5D"/>
<path d="M88.6898 164.216C88.9247 164.558 88.8329 165.023 88.4847 165.254C88.1364 165.486 87.6638 165.395 87.4289 165.052C87.194 164.71 87.2859 164.245 87.6341 164.014C87.9823 163.783 88.455 163.873 88.6898 164.216Z" fill="#F04B5D"/>
<path d="M107.063 152.021C107.298 152.364 107.206 152.829 106.858 153.06C106.509 153.291 106.037 153.201 105.802 152.858C105.567 152.516 105.659 152.05 106.007 151.819C106.355 151.588 106.828 151.679 107.063 152.021Z" fill="#F04B5D"/>
<path d="M103.017 166.956C103.365 166.725 103.838 166.815 104.073 167.158C104.308 167.501 104.216 167.966 103.868 168.197C103.519 168.428 103.047 168.338 102.812 167.995C102.577 167.652 102.669 167.187 103.017 166.956Z" fill="#F04B5D"/>
<path d="M90.6244 148.877C90.9726 148.646 91.4453 148.737 91.6802 149.079C91.915 149.422 91.8231 149.887 91.475 150.118C91.1268 150.349 90.654 150.259 90.4192 149.916C90.1843 149.573 90.2762 149.108 90.6244 148.877Z" fill="#F04B5D"/>
<path d="M87.1346 160.576C87.2189 160.981 86.9537 161.376 86.5422 161.459C86.1308 161.542 85.7288 161.281 85.6445 160.876C85.5602 160.471 85.8254 160.076 86.237 159.993C86.6484 159.91 87.0502 160.171 87.1346 160.576Z" fill="#F04B5D"/>
<path d="M108.846 156.198C108.93 156.603 108.665 156.999 108.253 157.082C107.842 157.165 107.44 156.904 107.355 156.499C107.271 156.094 107.536 155.698 107.948 155.615C108.359 155.533 108.761 155.793 108.846 156.198Z" fill="#F04B5D"/>
<path d="M99.317 168.486C99.7285 168.403 100.13 168.664 100.215 169.068C100.299 169.473 100.034 169.869 99.6223 169.952C99.2109 170.035 98.8089 169.774 98.7246 169.369C98.6403 168.964 98.9055 168.569 99.317 168.486Z" fill="#F04B5D"/>
<path d="M94.8677 147.123C95.2791 147.04 95.6811 147.301 95.7654 147.705C95.8497 148.11 95.5845 148.506 95.173 148.589C94.7616 148.672 94.3597 148.411 94.2754 148.006C94.1911 147.601 94.4563 147.206 94.8677 147.123Z" fill="#F04B5D"/>
<path d="M91.5603 167.013C91.9109 167.241 92.0076 167.705 91.7763 168.05C91.5448 168.395 91.0731 168.49 90.7226 168.263C90.372 168.035 90.2754 167.571 90.5067 167.226C90.7381 166.881 91.2098 166.786 91.5603 167.013Z" fill="#F04B5D"/>
<path d="M103.769 148.812C104.12 149.04 104.217 149.504 103.985 149.849C103.754 150.194 103.282 150.289 102.932 150.061C102.581 149.834 102.484 149.369 102.716 149.024C102.947 148.68 103.419 148.584 103.769 148.812Z" fill="#F04B5D"/>
<path d="M105.86 164.13C106.092 163.785 106.563 163.69 106.914 163.918C107.264 164.146 107.361 164.61 107.13 164.955C106.898 165.3 106.427 165.395 106.076 165.167C105.725 164.939 105.629 164.475 105.86 164.13Z" fill="#F04B5D"/>
<path d="M87.3602 152.12C87.5915 151.775 88.0632 151.68 88.4138 151.908C88.7644 152.135 88.861 152.599 88.6297 152.944C88.3984 153.289 87.9267 153.384 87.5761 153.157C87.2255 152.929 87.1289 152.465 87.3602 152.12Z" fill="#F04B5D"/>
<path d="M84.7524 158.537C84.7524 158.832 84.5092 159.072 84.2092 159.072C83.9092 159.072 83.666 158.832 83.666 158.537C83.666 158.242 83.9092 158.003 84.2092 158.003C84.5092 158.003 84.7524 158.242 84.7524 158.537Z" fill="#F04B5D"/>
<path d="M110.827 158.537C110.827 158.832 110.583 159.072 110.283 159.072C109.983 159.072 109.74 158.832 109.74 158.537C109.74 158.242 109.983 158.003 110.283 158.003C110.583 158.003 110.827 158.242 110.827 158.537Z" fill="#F04B5D"/>
<path d="M97.2463 170.831C97.5463 170.831 97.7895 171.07 97.7895 171.365C97.7895 171.66 97.5463 171.9 97.2463 171.9C96.9463 171.9 96.7031 171.66 96.7031 171.365C96.7031 171.07 96.9463 170.831 97.2463 170.831Z" fill="#F04B5D"/>
<path d="M97.2463 145.175C97.5463 145.175 97.7895 145.414 97.7895 145.71C97.7895 146.005 97.5463 146.244 97.2463 146.244C96.9463 146.244 96.7031 146.005 96.7031 145.71C96.7031 145.414 96.9463 145.175 97.2463 145.175Z" fill="#F04B5D"/>
<path d="M88.4117 167.23C88.6239 167.438 88.6239 167.777 88.4117 167.986C88.1995 168.194 87.8557 168.194 87.6435 167.986C87.4313 167.777 87.4313 167.438 87.6435 167.23C87.8557 167.021 88.1995 167.021 88.4117 167.23Z" fill="#F04B5D"/>
<path d="M106.849 149.089C107.061 149.297 107.061 149.636 106.849 149.845C106.637 150.053 106.293 150.053 106.081 149.845C105.869 149.636 105.869 149.297 106.081 149.089C106.293 148.88 106.637 148.88 106.849 149.089Z" fill="#F04B5D"/>
<path d="M106.081 167.23C106.293 167.021 106.637 167.021 106.849 167.23C107.061 167.439 107.061 167.777 106.849 167.986C106.637 168.195 106.293 168.195 106.081 167.986C105.869 167.777 105.869 167.439 106.081 167.23Z" fill="#F04B5D"/>
<path d="M87.6434 149.089C87.8556 148.88 88.1996 148.88 88.4117 149.089C88.6238 149.298 88.6238 149.636 88.4117 149.845C88.1996 150.054 87.8556 150.054 87.6434 149.845C87.4314 149.636 87.4314 149.298 87.6434 149.089Z" fill="#F04B5D"/>
<path d="M85.7109 163.259C85.8261 163.531 85.695 163.844 85.418 163.958C85.141 164.071 84.823 163.942 84.7078 163.669C84.5926 163.397 84.7237 163.084 85.0008 162.971C85.2777 162.857 85.5957 162.986 85.7109 163.259Z" fill="#F04B5D"/>
<path d="M109.783 153.405C109.898 153.678 109.767 153.99 109.49 154.104C109.213 154.217 108.895 154.088 108.78 153.816C108.665 153.543 108.796 153.23 109.073 153.117C109.35 153.003 109.668 153.132 109.783 153.405Z" fill="#F04B5D"/>
<path d="M102.044 169.888C102.321 169.774 102.639 169.903 102.754 170.176C102.869 170.449 102.738 170.761 102.461 170.875C102.184 170.988 101.866 170.859 101.751 170.587C101.636 170.314 101.767 170.001 102.044 169.888Z" fill="#F04B5D"/>
<path d="M92.0301 146.2C92.307 146.087 92.625 146.216 92.7402 146.488C92.8555 146.761 92.7243 147.074 92.4473 147.187C92.1703 147.3 91.8524 147.171 91.7371 146.899C91.6219 146.626 91.753 146.313 92.0301 146.2Z" fill="#F04B5D"/>
<path d="M92.4809 169.902C92.7583 170.014 92.8904 170.327 92.776 170.6C92.6616 170.872 92.344 171.002 92.0667 170.89C91.7894 170.777 91.6573 170.465 91.7717 170.192C91.8861 169.919 92.2036 169.789 92.4809 169.902Z" fill="#F04B5D"/>
<path d="M102.424 146.184C102.702 146.297 102.834 146.609 102.719 146.882C102.605 147.155 102.287 147.285 102.01 147.173C101.733 147.06 101.601 146.748 101.715 146.475C101.829 146.202 102.147 146.072 102.424 146.184Z" fill="#F04B5D"/>
<path d="M108.795 163.225C108.909 162.952 109.227 162.822 109.504 162.934C109.782 163.047 109.914 163.359 109.799 163.632C109.685 163.905 109.367 164.035 109.09 163.922C108.813 163.81 108.681 163.498 108.795 163.225Z" fill="#F04B5D"/>
<path d="M84.6916 153.443C84.806 153.17 85.1235 153.04 85.4009 153.152C85.6783 153.265 85.8104 153.577 85.696 153.85C85.5816 154.123 85.264 154.253 84.9867 154.141C84.7093 154.028 84.5772 153.716 84.6916 153.443Z" fill="#F04B5D"/>
<path d="M82.4218 161.373C82.4675 161.604 82.3137 161.829 82.0781 161.874C81.8425 161.919 81.6144 161.767 81.5686 161.536C81.5228 161.304 81.6766 161.079 81.9123 161.034C82.1479 160.989 82.376 161.141 82.4218 161.373Z" fill="#F04B5D"/>
<path d="M112.922 155.539C112.968 155.771 112.814 155.995 112.578 156.04C112.342 156.085 112.114 155.934 112.069 155.702C112.023 155.47 112.177 155.246 112.412 155.201C112.648 155.156 112.876 155.307 112.922 155.539Z" fill="#F04B5D"/>
<path d="M100.127 173.123C100.363 173.078 100.591 173.229 100.637 173.461C100.682 173.693 100.529 173.917 100.293 173.962C100.057 174.007 99.8293 173.856 99.7834 173.624C99.7377 173.392 99.8915 173.168 100.127 173.123Z" fill="#F04B5D"/>
<path d="M94.1974 143.112C94.4331 143.067 94.6611 143.219 94.7069 143.45C94.7527 143.682 94.5988 143.907 94.3633 143.952C94.1277 143.997 93.8995 143.845 93.8538 143.613C93.8079 143.382 93.9619 143.157 94.1974 143.112Z" fill="#F04B5D"/>
<path d="M88.8007 170.856C88.9997 170.988 89.0522 171.253 88.9179 171.449C88.7837 171.645 88.5136 171.697 88.3147 171.565C88.1157 171.433 88.0632 171.167 88.1974 170.971C88.3316 170.775 88.6017 170.724 88.8007 170.856Z" fill="#F04B5D"/>
<path d="M106.176 145.51C106.375 145.642 106.427 145.908 106.293 146.104C106.159 146.299 105.889 146.351 105.69 146.219C105.491 146.087 105.438 145.821 105.572 145.625C105.707 145.43 105.977 145.378 106.176 145.51Z" fill="#F04B5D"/>
<path d="M109.766 166.846C109.9 166.65 110.17 166.599 110.369 166.731C110.568 166.863 110.621 167.129 110.486 167.324C110.352 167.52 110.082 167.572 109.883 167.44C109.684 167.308 109.632 167.042 109.766 166.846Z" fill="#F04B5D"/>
<path d="M84.006 149.75C84.1402 149.555 84.4103 149.503 84.6093 149.635C84.8083 149.767 84.8608 150.033 84.7266 150.229C84.5923 150.424 84.3222 150.476 84.1233 150.344C83.9243 150.212 83.8718 149.946 84.006 149.75Z" fill="#F04B5D"/>
<path d="M84.6695 166.763C84.8024 166.96 84.7481 167.225 84.5483 167.356C84.3484 167.487 84.0786 167.433 83.9458 167.237C83.8129 167.04 83.8672 166.775 84.0671 166.644C84.2669 166.513 84.5367 166.567 84.6695 166.763Z" fill="#F04B5D"/>
<path d="M110.546 149.838C110.679 150.034 110.625 150.3 110.425 150.43C110.225 150.561 109.956 150.508 109.823 150.311C109.69 150.114 109.744 149.849 109.944 149.718C110.144 149.588 110.414 149.641 110.546 149.838Z" fill="#F04B5D"/>
<path d="M105.606 170.911C105.806 170.78 106.076 170.834 106.209 171.03C106.341 171.227 106.287 171.492 106.087 171.623C105.887 171.754 105.618 171.7 105.485 171.504C105.352 171.307 105.406 171.042 105.606 170.911Z" fill="#F04B5D"/>
<path d="M88.4031 145.451C88.603 145.321 88.8726 145.374 89.0055 145.571C89.1384 145.767 89.084 146.033 88.8842 146.164C88.6843 146.294 88.4146 146.241 88.2817 146.044C88.1488 145.848 88.2031 145.582 88.4031 145.451Z" fill="#F04B5D"/>
<path d="M94.2646 173.104C94.4999 173.15 94.6522 173.376 94.6049 173.607C94.5575 173.839 94.3284 173.989 94.093 173.942C93.8577 173.895 93.7054 173.67 93.7528 173.439C93.8001 173.207 94.0294 173.057 94.2646 173.104Z" fill="#F04B5D"/>
<path d="M100.397 143.133C100.633 143.179 100.785 143.405 100.738 143.636C100.69 143.868 100.461 144.017 100.226 143.971C99.9905 143.924 99.8382 143.699 99.8856 143.467C99.933 143.236 100.162 143.086 100.397 143.133Z" fill="#F04B5D"/>
<path d="M112.05 161.47C112.097 161.238 112.326 161.089 112.561 161.135C112.797 161.182 112.949 161.407 112.902 161.639C112.854 161.87 112.625 162.02 112.39 161.974C112.155 161.927 112.002 161.701 112.05 161.47Z" fill="#F04B5D"/>
<path d="M81.5887 155.436C81.6361 155.204 81.8652 155.054 82.1004 155.101C82.3358 155.147 82.4881 155.373 82.4407 155.604C82.3933 155.836 82.1642 155.986 81.9289 155.939C81.6937 155.892 81.5413 155.667 81.5887 155.436Z" fill="#F04B5D"/>
<path d="M348.247 165.593C348.847 165.593 349.333 166.071 349.333 166.661C349.333 167.252 348.847 167.73 348.247 167.73C347.647 167.73 347.16 167.252 347.16 166.661C347.16 166.071 347.647 165.593 348.247 165.593Z" fill="#F04B5D"/>
<path d="M348.247 149.237C348.847 149.237 349.333 149.716 349.333 150.306C349.333 150.897 348.847 151.375 348.247 151.375C347.647 151.375 347.16 150.897 347.16 150.306C347.16 149.716 347.647 149.237 348.247 149.237Z" fill="#F04B5D"/>
<path d="M355.471 158.484C355.471 157.894 355.957 157.415 356.557 157.415C357.157 157.415 357.644 157.894 357.644 158.484C357.644 159.074 357.157 159.553 356.557 159.553C355.957 159.553 355.471 159.074 355.471 158.484Z" fill="#F04B5D"/>
<path d="M338.848 158.484C338.848 157.894 339.334 157.415 339.934 157.415C340.534 157.415 341.021 157.894 341.021 158.484C341.021 159.074 340.534 159.553 339.934 159.553C339.334 159.553 338.848 159.074 338.848 158.484Z" fill="#F04B5D"/>
<path d="M353.355 153.457C352.931 153.04 352.931 152.363 353.355 151.946C353.78 151.528 354.468 151.528 354.892 151.946C355.316 152.363 355.316 153.04 354.892 153.457C354.468 153.875 353.78 153.875 353.355 153.457Z" fill="#F04B5D"/>
<path d="M341.601 165.022C341.177 164.605 341.177 163.928 341.601 163.51C342.026 163.093 342.714 163.093 343.138 163.51C343.562 163.928 343.562 164.605 343.138 165.022C342.714 165.44 342.026 165.44 341.601 165.022Z" fill="#F04B5D"/>
<path d="M343.138 153.457C342.714 153.875 342.026 153.875 341.601 153.457C341.177 153.04 341.177 152.363 341.601 151.945C342.026 151.528 342.714 151.528 343.138 151.945C343.562 152.363 343.562 153.04 343.138 153.457Z" fill="#F04B5D"/>
<path d="M354.89 165.022C354.466 165.439 353.778 165.439 353.353 165.022C352.929 164.605 352.929 163.928 353.353 163.51C353.778 163.093 354.466 163.093 354.89 163.51C355.314 163.928 355.314 164.605 354.89 165.022Z" fill="#F04B5D"/>
<path d="M341.583 155.736C341.351 156.28 340.714 156.537 340.161 156.308C339.607 156.08 339.347 155.454 339.579 154.909C339.811 154.365 340.447 154.108 341.001 154.337C341.554 154.565 341.815 155.191 341.583 155.736Z" fill="#F04B5D"/>
<path d="M356.913 162.058C356.681 162.603 356.044 162.859 355.491 162.631C354.938 162.403 354.677 161.776 354.909 161.232C355.141 160.687 355.778 160.431 356.331 160.659C356.884 160.888 357.145 161.514 356.913 162.058Z" fill="#F04B5D"/>
<path d="M345.454 165.04C346.007 165.268 346.268 165.894 346.036 166.439C345.804 166.983 345.167 167.24 344.614 167.011C344.061 166.783 343.8 166.157 344.032 165.612C344.264 165.068 344.901 164.811 345.454 165.04Z" fill="#F04B5D"/>
<path d="M351.878 149.956C352.431 150.184 352.692 150.811 352.46 151.355C352.228 151.9 351.591 152.156 351.038 151.928C350.484 151.7 350.224 151.073 350.456 150.529C350.688 149.984 351.324 149.728 351.878 149.956Z" fill="#F04B5D"/>
<path d="M350.982 165.063C351.537 164.839 352.172 165.101 352.399 165.647C352.626 166.194 352.36 166.818 351.805 167.041C351.25 167.265 350.615 167.003 350.388 166.457C350.161 165.911 350.427 165.286 350.982 165.063Z" fill="#F04B5D"/>
<path d="M344.687 149.926C345.242 149.703 345.877 149.964 346.104 150.511C346.331 151.057 346.065 151.681 345.51 151.905C344.955 152.128 344.32 151.867 344.093 151.32C343.866 150.774 344.132 150.15 344.687 149.926Z" fill="#F04B5D"/>
<path d="M354.933 155.791C354.706 155.245 354.971 154.621 355.527 154.397C356.082 154.174 356.716 154.435 356.944 154.982C357.171 155.528 356.905 156.152 356.35 156.376C355.795 156.6 355.16 156.338 354.933 155.791Z" fill="#F04B5D"/>
<path d="M339.548 161.986C339.321 161.44 339.587 160.816 340.142 160.592C340.697 160.369 341.332 160.63 341.559 161.177C341.786 161.723 341.52 162.347 340.965 162.571C340.41 162.794 339.775 162.533 339.548 161.986Z" fill="#F04B5D"/>
<path d="M338.115 156.599C338.034 157.005 337.635 157.27 337.223 157.191C336.811 157.112 336.541 156.72 336.622 156.314C336.702 155.908 337.101 155.643 337.513 155.722C337.925 155.801 338.195 156.194 338.115 156.599Z" fill="#F04B5D"/>
<path d="M359.87 160.76C359.79 161.166 359.391 161.431 358.979 161.352C358.566 161.273 358.297 160.88 358.377 160.475C358.457 160.069 358.857 159.804 359.269 159.883C359.681 159.962 359.951 160.354 359.87 160.76Z" fill="#F04B5D"/>
<path d="M346.277 168.506C346.689 168.584 346.958 168.977 346.878 169.383C346.798 169.789 346.399 170.053 345.987 169.975C345.574 169.896 345.305 169.503 345.385 169.097C345.465 168.692 345.865 168.427 346.277 168.506Z" fill="#F04B5D"/>
<path d="M350.505 147.099C350.918 147.178 351.187 147.571 351.107 147.977C351.027 148.382 350.627 148.647 350.215 148.568C349.803 148.49 349.534 148.097 349.614 147.691C349.694 147.285 350.093 147.02 350.505 147.099Z" fill="#F04B5D"/>
<path d="M339.69 164.216C339.925 164.558 339.833 165.023 339.485 165.254C339.136 165.486 338.664 165.395 338.429 165.052C338.194 164.71 338.286 164.245 338.634 164.014C338.982 163.783 339.455 163.873 339.69 164.216Z" fill="#F04B5D"/>
<path d="M358.063 152.021C358.298 152.364 358.206 152.829 357.858 153.06C357.509 153.291 357.037 153.201 356.802 152.858C356.567 152.516 356.659 152.05 357.007 151.819C357.355 151.588 357.828 151.679 358.063 152.021Z" fill="#F04B5D"/>
<path d="M354.017 166.956C354.365 166.725 354.838 166.815 355.073 167.158C355.308 167.501 355.216 167.966 354.868 168.197C354.519 168.428 354.047 168.338 353.812 167.995C353.577 167.652 353.669 167.187 354.017 166.956Z" fill="#F04B5D"/>
<path d="M341.624 148.877C341.973 148.646 342.445 148.737 342.68 149.079C342.915 149.422 342.823 149.887 342.475 150.118C342.127 150.349 341.654 150.259 341.419 149.916C341.184 149.573 341.276 149.108 341.624 148.877Z" fill="#F04B5D"/>
<path d="M338.135 160.576C338.219 160.981 337.954 161.376 337.542 161.459C337.131 161.542 336.729 161.281 336.645 160.876C336.56 160.471 336.825 160.076 337.237 159.993C337.648 159.91 338.05 160.171 338.135 160.576Z" fill="#F04B5D"/>
<path d="M359.846 156.198C359.93 156.603 359.665 156.999 359.253 157.082C358.842 157.165 358.44 156.904 358.355 156.499C358.271 156.094 358.536 155.698 358.948 155.615C359.359 155.533 359.761 155.793 359.846 156.198Z" fill="#F04B5D"/>
<path d="M350.317 168.486C350.728 168.403 351.13 168.664 351.215 169.068C351.299 169.473 351.034 169.869 350.622 169.952C350.211 170.035 349.809 169.774 349.725 169.369C349.64 168.964 349.906 168.569 350.317 168.486Z" fill="#F04B5D"/>
<path d="M345.868 147.123C346.279 147.04 346.681 147.301 346.765 147.705C346.85 148.11 346.585 148.506 346.173 148.589C345.762 148.672 345.36 148.411 345.275 148.006C345.191 147.601 345.456 147.206 345.868 147.123Z" fill="#F04B5D"/>
<path d="M342.56 167.013C342.911 167.241 343.008 167.705 342.776 168.05C342.545 168.395 342.073 168.49 341.723 168.263C341.372 168.035 341.275 167.571 341.507 167.226C341.738 166.881 342.21 166.786 342.56 167.013Z" fill="#F04B5D"/>
<path d="M354.769 148.812C355.12 149.04 355.217 149.504 354.985 149.849C354.754 150.194 354.282 150.289 353.932 150.061C353.581 149.834 353.484 149.369 353.716 149.024C353.947 148.68 354.419 148.584 354.769 148.812Z" fill="#F04B5D"/>
<path d="M356.86 164.13C357.092 163.785 357.563 163.69 357.914 163.918C358.264 164.146 358.361 164.61 358.13 164.955C357.898 165.3 357.427 165.395 357.076 165.167C356.725 164.939 356.629 164.475 356.86 164.13Z" fill="#F04B5D"/>
<path d="M338.36 152.12C338.592 151.775 339.063 151.68 339.414 151.908C339.764 152.135 339.861 152.599 339.63 152.944C339.398 153.289 338.927 153.384 338.576 153.157C338.225 152.929 338.129 152.465 338.36 152.12Z" fill="#F04B5D"/>
<path d="M335.752 158.537C335.752 158.832 335.509 159.072 335.209 159.072C334.909 159.072 334.666 158.832 334.666 158.537C334.666 158.242 334.909 158.003 335.209 158.003C335.509 158.003 335.752 158.242 335.752 158.537Z" fill="#F04B5D"/>
<path d="M361.827 158.537C361.827 158.832 361.583 159.072 361.283 159.072C360.983 159.072 360.74 158.832 360.74 158.537C360.74 158.242 360.983 158.003 361.283 158.003C361.583 158.003 361.827 158.242 361.827 158.537Z" fill="#F04B5D"/>
<path d="M348.246 170.831C348.546 170.831 348.79 171.07 348.79 171.365C348.79 171.66 348.546 171.9 348.246 171.9C347.946 171.9 347.703 171.66 347.703 171.365C347.703 171.07 347.946 170.831 348.246 170.831Z" fill="#F04B5D"/>
<path d="M348.246 145.175C348.546 145.175 348.79 145.414 348.79 145.71C348.79 146.005 348.546 146.244 348.246 146.244C347.946 146.244 347.703 146.005 347.703 145.71C347.703 145.414 347.946 145.175 348.246 145.175Z" fill="#F04B5D"/>
<path d="M339.412 167.23C339.624 167.438 339.624 167.777 339.412 167.986C339.2 168.194 338.856 168.194 338.644 167.986C338.431 167.777 338.431 167.438 338.644 167.23C338.856 167.021 339.2 167.021 339.412 167.23Z" fill="#F04B5D"/>
<path d="M357.849 149.089C358.061 149.297 358.061 149.636 357.849 149.845C357.637 150.053 357.293 150.053 357.081 149.845C356.869 149.636 356.869 149.297 357.081 149.089C357.293 148.88 357.637 148.88 357.849 149.089Z" fill="#F04B5D"/>
<path d="M357.081 167.23C357.293 167.021 357.637 167.021 357.849 167.23C358.061 167.439 358.061 167.777 357.849 167.986C357.637 168.195 357.293 168.195 357.081 167.986C356.869 167.777 356.869 167.439 357.081 167.23Z" fill="#F04B5D"/>
<path d="M338.643 149.089C338.856 148.88 339.2 148.88 339.412 149.089C339.624 149.298 339.624 149.636 339.412 149.845C339.2 150.054 338.856 150.054 338.643 149.845C338.431 149.636 338.431 149.298 338.643 149.089Z" fill="#F04B5D"/>
<path d="M336.711 163.259C336.826 163.531 336.695 163.844 336.418 163.958C336.141 164.071 335.823 163.942 335.708 163.669C335.593 163.397 335.724 163.084 336.001 162.971C336.278 162.857 336.596 162.986 336.711 163.259Z" fill="#F04B5D"/>
<path d="M360.783 153.405C360.898 153.678 360.767 153.99 360.49 154.104C360.213 154.217 359.895 154.088 359.78 153.816C359.665 153.543 359.796 153.23 360.073 153.117C360.35 153.003 360.668 153.132 360.783 153.405Z" fill="#F04B5D"/>
<path d="M353.044 169.888C353.321 169.774 353.639 169.903 353.754 170.176C353.869 170.449 353.738 170.761 353.461 170.875C353.184 170.988 352.866 170.859 352.751 170.587C352.636 170.314 352.767 170.001 353.044 169.888Z" fill="#F04B5D"/>
<path d="M343.03 146.2C343.307 146.087 343.625 146.216 343.74 146.488C343.855 146.761 343.724 147.074 343.447 147.187C343.17 147.3 342.852 147.171 342.737 146.899C342.622 146.626 342.753 146.313 343.03 146.2Z" fill="#F04B5D"/>
<path d="M343.481 169.902C343.758 170.014 343.89 170.327 343.776 170.6C343.662 170.872 343.344 171.002 343.067 170.89C342.789 170.777 342.657 170.465 342.772 170.192C342.886 169.919 343.204 169.789 343.481 169.902Z" fill="#F04B5D"/>
<path d="M353.424 146.184C353.702 146.297 353.834 146.609 353.719 146.882C353.605 147.155 353.287 147.285 353.01 147.173C352.733 147.06 352.601 146.748 352.715 146.475C352.829 146.202 353.147 146.072 353.424 146.184Z" fill="#F04B5D"/>
<path d="M359.795 163.225C359.909 162.952 360.227 162.822 360.504 162.934C360.782 163.047 360.914 163.359 360.799 163.632C360.685 163.905 360.367 164.035 360.09 163.922C359.813 163.81 359.681 163.498 359.795 163.225Z" fill="#F04B5D"/>
<path d="M335.692 153.443C335.806 153.17 336.124 153.04 336.401 153.152C336.678 153.265 336.81 153.577 336.696 153.85C336.582 154.123 336.264 154.253 335.987 154.141C335.709 154.028 335.577 153.716 335.692 153.443Z" fill="#F04B5D"/>
<path d="M333.422 161.373C333.468 161.604 333.314 161.829 333.078 161.874C332.843 161.919 332.614 161.767 332.569 161.536C332.523 161.304 332.677 161.079 332.912 161.034C333.148 160.989 333.376 161.141 333.422 161.373Z" fill="#F04B5D"/>
<path d="M363.922 155.539C363.968 155.771 363.814 155.995 363.578 156.04C363.342 156.085 363.114 155.934 363.069 155.702C363.023 155.47 363.177 155.246 363.412 155.201C363.648 155.156 363.876 155.307 363.922 155.539Z" fill="#F04B5D"/>
<path d="M351.127 173.123C351.363 173.078 351.591 173.229 351.637 173.461C351.682 173.693 351.529 173.917 351.293 173.962C351.057 174.007 350.829 173.856 350.783 173.624C350.738 173.392 350.892 173.168 351.127 173.123Z" fill="#F04B5D"/>
<path d="M345.197 143.112C345.433 143.067 345.661 143.219 345.707 143.45C345.753 143.682 345.599 143.907 345.363 143.952C345.128 143.997 344.9 143.845 344.854 143.613C344.808 143.382 344.962 143.157 345.197 143.112Z" fill="#F04B5D"/>
<path d="M339.801 170.856C340 170.988 340.052 171.253 339.918 171.449C339.784 171.645 339.514 171.697 339.315 171.565C339.116 171.433 339.063 171.167 339.197 170.971C339.332 170.775 339.602 170.724 339.801 170.856Z" fill="#F04B5D"/>
<path d="M357.176 145.51C357.375 145.642 357.427 145.908 357.293 146.104C357.159 146.299 356.889 146.351 356.69 146.219C356.491 146.087 356.438 145.821 356.572 145.625C356.707 145.43 356.977 145.378 357.176 145.51Z" fill="#F04B5D"/>
<path d="M360.766 166.846C360.9 166.65 361.17 166.599 361.369 166.731C361.568 166.863 361.621 167.129 361.486 167.324C361.352 167.52 361.082 167.572 360.883 167.44C360.684 167.308 360.632 167.042 360.766 166.846Z" fill="#F04B5D"/>
<path d="M335.006 149.75C335.14 149.555 335.41 149.503 335.609 149.635C335.808 149.767 335.861 150.033 335.727 150.229C335.592 150.424 335.322 150.476 335.123 150.344C334.924 150.212 334.872 149.946 335.006 149.75Z" fill="#F04B5D"/>
<path d="M335.67 166.763C335.802 166.96 335.748 167.225 335.548 167.356C335.348 167.487 335.079 167.433 334.946 167.237C334.813 167.04 334.867 166.775 335.067 166.644C335.267 166.513 335.537 166.567 335.67 166.763Z" fill="#F04B5D"/>
<path d="M361.546 149.838C361.679 150.034 361.625 150.3 361.425 150.43C361.225 150.561 360.956 150.508 360.823 150.311C360.69 150.114 360.744 149.849 360.944 149.718C361.144 149.588 361.414 149.641 361.546 149.838Z" fill="#F04B5D"/>
<path d="M356.606 170.911C356.806 170.78 357.076 170.834 357.209 171.03C357.341 171.227 357.287 171.492 357.087 171.623C356.887 171.754 356.618 171.7 356.485 171.504C356.352 171.307 356.406 171.042 356.606 170.911Z" fill="#F04B5D"/>
<path d="M339.403 145.451C339.603 145.321 339.873 145.374 340.005 145.571C340.138 145.767 340.084 146.033 339.884 146.164C339.684 146.294 339.415 146.241 339.282 146.044C339.149 145.848 339.203 145.582 339.403 145.451Z" fill="#F04B5D"/>
<path d="M345.265 173.104C345.5 173.15 345.652 173.376 345.605 173.607C345.557 173.839 345.328 173.989 345.093 173.942C344.858 173.895 344.705 173.67 344.753 173.439C344.8 173.207 345.029 173.057 345.265 173.104Z" fill="#F04B5D"/>
<path d="M351.397 143.133C351.633 143.179 351.785 143.405 351.738 143.636C351.69 143.868 351.461 144.017 351.226 143.971C350.991 143.924 350.838 143.699 350.886 143.467C350.933 143.236 351.162 143.086 351.397 143.133Z" fill="#F04B5D"/>
<path d="M363.05 161.47C363.097 161.238 363.326 161.089 363.561 161.135C363.797 161.182 363.949 161.407 363.902 161.639C363.854 161.87 363.625 162.02 363.39 161.974C363.155 161.927 363.002 161.701 363.05 161.47Z" fill="#F04B5D"/>
<path d="M332.589 155.436C332.636 155.204 332.865 155.054 333.1 155.101C333.336 155.147 333.488 155.373 333.441 155.604C333.393 155.836 333.164 155.986 332.929 155.939C332.694 155.892 332.541 155.667 332.589 155.436Z" fill="#F04B5D"/>
<path d="M439.999 197.804H5.41797V198.72H439.999V197.804Z" fill="#3F3D56"/>
</g>
<defs>
<clipPath id="clip0">
<rect width="440" height="200" fill="white"/>
</clipPath>
</defs>
</svg>
