<svg width="1250" height="486" viewBox="0 0 1250 486" fill="none" xmlns="http://www.w3.org/2000/svg">
<path d="M2.7 45H9V34.92H18.36V45H24.66V19.26H18.36V29.556H9V19.26H2.7V45ZM27.8615 39.78C27.8615 42.984 30.3455 45.432 33.9095 45.432C36.0335 45.432 38.1935 44.46 39.4175 42.732H39.4895C39.4895 42.732 39.4175 43.272 39.4175 43.884V45H45.1055V33.588C45.1055 28.872 41.9375 26.028 36.8255 26.028C33.8015 26.028 30.5615 27.216 28.9775 28.44L31.1375 32.832C32.6135 31.86 34.4495 31.068 36.2495 31.068C37.6175 31.068 38.8775 31.572 38.8775 33.12V33.444H38.3375C33.7655 33.444 27.8615 34.812 27.8615 39.78ZM34.0175 39.204C34.0175 37.512 36.4655 37.008 38.3735 37.008H38.9495V37.512C38.9495 39.024 37.5815 40.788 35.7815 40.788C34.6295 40.788 34.0175 40.068 34.0175 39.204ZM49.0568 45H75.0128V26.46H69.1448V39.78H64.9688V26.46H59.1008V39.78H54.9248V26.46H49.0568V45ZM79.1857 45H85.2337L90.3817 36.864C90.6697 36.36 91.0657 35.784 91.3897 35.028H91.4617C91.3897 35.748 91.3897 36.468 91.3897 36.9V45H97.2577V26.46H91.2097L86.0617 34.632C85.7377 35.172 85.3777 35.712 85.0537 36.468H84.9817C85.0177 36 85.0537 35.28 85.0537 34.632V26.46H79.1857V45ZM110.44 45H116.668V31.68H122.176V45H128.404V26.46H110.44V45ZM132.588 52.2H138.816V45.252C138.816 44.316 138.744 43.668 138.744 43.668H138.816C140.148 44.82 141.804 45.432 143.532 45.432C148.464 45.432 152.172 41.616 152.172 35.748C152.172 29.988 148.86 26.028 143.82 26.028C141.588 26.028 139.464 26.892 138.204 28.584H138.132C138.132 28.584 138.204 28.008 138.204 27.396V26.46H132.588V52.2ZM138.636 35.856C138.636 32.652 140.4 31.284 142.272 31.284C144.432 31.284 145.908 33.084 145.908 35.856C145.908 38.7 144.216 40.284 142.272 40.284C139.824 40.284 138.636 38.088 138.636 35.856ZM154.325 35.712C154.325 40.644 157.889 45.432 164.513 45.432C167.357 45.432 170.417 44.46 172.433 42.732L170.129 38.376C168.617 39.384 166.853 40.248 165.017 40.248C163.037 40.248 161.165 39.204 160.697 36.936H172.397C172.469 36.288 172.541 35.64 172.541 34.992C172.541 29.844 169.445 26.028 163.973 26.028C157.997 26.028 154.325 30.276 154.325 35.712ZM160.841 33.372C161.165 31.896 162.029 30.6 163.829 30.6C165.413 30.6 166.385 31.86 166.385 33.372H160.841ZM175.795 45H182.023V31.68H187.531V45H193.759V26.46H175.795V45ZM196.899 35.784C196.899 41.58 201.579 45.432 207.411 45.432C213.243 45.432 217.923 41.58 217.923 35.784C217.923 29.952 213.243 26.028 207.375 26.028C201.579 26.028 196.899 29.952 196.899 35.784ZM203.199 35.784C203.199 32.976 205.143 31.212 207.411 31.212C209.679 31.212 211.623 32.976 211.623 35.784C211.623 38.556 209.679 40.248 207.411 40.248C205.143 40.248 203.199 38.556 203.199 35.784ZM227.53 40.068C228.826 37.584 229.186 34.884 229.186 32.076V31.392H232.39V40.068H227.53ZM219.106 40.068V49.32H224.866V45H235.738V49.32H241.282V40.068H238.618V26.46H223.318V30.924C223.318 34.668 222.634 37.98 221.41 40.068H219.106ZM242.807 39.78C242.807 42.984 245.291 45.432 248.855 45.432C250.979 45.432 253.139 44.46 254.363 42.732H254.435C254.435 42.732 254.363 43.272 254.363 43.884V45H260.051V33.588C260.051 28.872 256.883 26.028 251.771 26.028C248.747 26.028 245.507 27.216 243.923 28.44L246.083 32.832C247.559 31.86 249.395 31.068 251.195 31.068C252.563 31.068 253.823 31.572 253.823 33.12V33.444H253.283C248.711 33.444 242.807 34.812 242.807 39.78ZM248.963 39.204C248.963 37.512 251.411 37.008 253.319 37.008H253.895V37.512C253.895 39.024 252.527 40.788 250.727 40.788C249.575 40.788 248.963 40.068 248.963 39.204ZM264.002 45H274.118C277.79 45 281.174 43.56 281.174 39.492C281.174 37.872 280.382 36.036 278.258 35.388V35.352C279.662 34.524 280.418 32.868 280.418 31.32C280.418 28.116 277.826 26.46 274.118 26.46H264.002V45ZM270.23 33.768V30.312H272.498C273.722 30.312 274.226 31.068 274.226 31.932C274.226 32.904 273.722 33.768 272.57 33.768H270.23ZM270.23 41.112V37.404H273.002C274.334 37.404 274.946 38.268 274.946 39.276C274.946 40.212 274.298 41.112 272.966 41.112H270.23ZM283.061 39.78C283.061 42.984 285.545 45.432 289.109 45.432C291.233 45.432 293.393 44.46 294.617 42.732H294.689C294.689 42.732 294.617 43.272 294.617 43.884V45H300.305V33.588C300.305 28.872 297.137 26.028 292.025 26.028C289.001 26.028 285.761 27.216 284.177 28.44L286.337 32.832C287.813 31.86 289.649 31.068 291.449 31.068C292.817 31.068 294.077 31.572 294.077 33.12V33.444H293.537C288.965 33.444 283.061 34.812 283.061 39.78ZM289.217 39.204C289.217 37.512 291.665 37.008 293.573 37.008H294.149V37.512C294.149 39.024 292.781 40.788 290.981 40.788C289.829 40.788 289.217 40.068 289.217 39.204ZM308.324 45H314.552V31.68H320.204V26.46H302.708V31.68H308.324V45ZM321.564 35.712C321.564 40.644 325.128 45.432 331.752 45.432C334.596 45.432 337.656 44.46 339.672 42.732L337.368 38.376C335.856 39.384 334.092 40.248 332.256 40.248C330.276 40.248 328.404 39.204 327.936 36.936H339.636C339.708 36.288 339.78 35.64 339.78 34.992C339.78 29.844 336.684 26.028 331.212 26.028C325.236 26.028 321.564 30.276 321.564 35.712ZM328.08 33.372C328.404 31.896 329.268 30.6 331.068 30.6C332.652 30.6 333.624 31.86 333.624 33.372H328.08ZM341.525 45.18C348.725 45.18 350.885 39.996 350.885 32.436V31.392H353.981V45H360.209V26.46H345.017V32.4C345.017 38.772 343.181 39.528 341.525 39.744V45.18ZM364.373 45H370.421L375.569 36.864C375.857 36.36 376.253 35.784 376.577 35.028H376.649C376.577 35.748 376.577 36.468 376.577 36.9V45H382.445V26.46H376.397L371.249 34.632C370.925 35.172 370.565 35.712 370.241 36.468H370.169C370.205 36 370.241 35.28 370.241 34.632V26.46H364.373V45ZM2.088 87H12.204C15.876 87 19.26 85.56 19.26 81.492C19.26 79.872 18.468 78.036 16.344 77.388V77.352C17.748 76.524 18.504 74.868 18.504 73.32C18.504 70.116 15.912 68.46 12.204 68.46H2.088V87ZM8.316 75.768V72.312H10.584C11.808 72.312 12.312 73.068 12.312 73.932C12.312 74.904 11.808 75.768 10.656 75.768H8.316ZM8.316 83.112V79.404H11.088C12.42 79.404 13.032 80.268 13.032 81.276C13.032 82.212 12.384 83.112 11.052 83.112H8.316ZM40.9826 87H47.2106V68.46H40.9826V87ZM22.4786 87H31.5146C36.6986 87 38.8586 84.444 38.8586 80.664C38.8586 76.92 36.6986 74.256 31.5146 74.256H28.7066V68.46H22.4786V87ZM28.7066 82.932V78.288H30.2546C31.8386 78.288 32.6306 79.332 32.6306 80.628C32.6306 81.924 31.8386 82.932 30.3626 82.932H28.7066ZM51.3771 87H57.6051V73.68H63.1131V87H69.3411V68.46H51.3771V87ZM73.7055 88.692L71.7255 93.264C71.7255 93.264 73.5975 94.56 76.0455 94.56C78.9975 94.56 82.2375 93.12 83.7855 88.98L91.3815 68.46H84.5775L82.2375 77.1C81.9855 78.108 81.6255 79.872 81.6255 79.872H81.5535C81.5535 79.872 81.1935 78 80.8695 76.992L78.1335 68.46H71.0775L78.9615 86.64L78.6015 87.504C77.9535 89.088 76.6215 89.376 75.6135 89.376C74.7135 89.376 73.7055 88.692 73.7055 88.692ZM92.0284 77.712C92.0284 82.824 95.7364 87.432 102.36 87.432C105.456 87.432 108.48 86.244 110.316 84.372L108.048 80.016C106.716 81.168 104.772 82.248 102.972 82.248C99.8404 82.248 98.3284 79.836 98.3284 77.64C98.3284 75.444 99.8044 73.212 102.756 73.212C104.376 73.212 106.032 73.968 107.112 75.012L109.74 70.836C107.904 68.856 104.952 68.028 102.36 68.028C95.7004 68.028 92.0284 72.744 92.0284 77.712ZM112.936 87H119.164V80.196H121.108L125.032 87H132.124L125.932 77.352V77.28L131.368 68.46H124.6L120.928 74.976H119.164V68.46H112.936V87ZM134.205 87H140.433V80.232H146.157V87H152.385V68.46H146.157V75.012H140.433V68.46H134.205V87ZM156.565 87H162.613L167.761 78.864C168.049 78.36 168.445 77.784 168.769 77.028H168.841C168.769 77.748 168.769 78.468 168.769 78.9V87H174.637V68.46H168.589L163.441 76.632C163.117 77.172 162.757 77.712 162.433 78.468H162.361C162.397 78 162.433 77.28 162.433 76.632V68.46H156.565V87ZM178.818 87H185.046V80.196H186.99L190.914 87H198.006L191.814 77.352V77.28L197.25 68.46H190.482L186.81 74.976H185.046V68.46H178.818V87ZM200.088 87H206.136L211.284 78.864C211.572 78.36 211.968 77.784 212.292 77.028H212.364C212.292 77.748 212.292 78.468 212.292 78.9V87H218.16V68.46H212.112L206.964 76.632C206.64 77.172 206.28 77.712 205.956 78.468H205.884C205.92 78 205.956 77.28 205.956 76.632V68.46H200.088V87ZM222.378 74.364H228.282V68.46H222.378V74.364ZM222.378 87H228.282V81.096H222.378V87Z" fill="#222224"/>
<path d="M1.188 146H2.97L3.582 137.99C3.654 137.216 3.618 136.082 3.618 136.082H3.654C3.654 136.082 4.05 137.306 4.338 137.99L6.858 143.714H8.442L10.98 137.99C11.268 137.288 11.664 136.118 11.664 136.118H11.7C11.7 136.118 11.664 137.216 11.736 137.99L12.348 146H14.112L13.086 133.292H11.232L8.298 140.168C8.01 140.87 7.668 141.878 7.668 141.878H7.632C7.632 141.878 7.308 140.87 7.02 140.168L4.086 133.292H2.232L1.188 146ZM16.9845 146H18.7665V134.84H23.9865V133.292H16.9845V146ZM25.5727 145.388C26.2747 145.874 27.0307 146.216 27.8947 146.216C29.4787 146.216 30.2887 144.938 30.7927 143.66L34.8427 133.292H32.9707L30.6127 139.7C30.3427 140.474 30.0727 141.356 30.0727 141.356H30.0367C30.0367 141.356 29.7127 140.474 29.3167 139.682L26.2207 133.292H24.2587L29.2807 143.246C28.9387 144.128 28.5787 144.668 27.8407 144.668C27.2287 144.668 26.6887 144.272 26.3827 144.038L25.5727 145.388ZM40.848 146H42.522L46.464 140.564C46.752 140.132 47.202 139.52 47.256 139.358H47.292C47.292 139.502 47.238 140.132 47.238 140.564V146H48.93V136.892H47.238L43.314 142.328C43.008 142.76 42.576 143.39 42.504 143.552H42.468C42.486 143.462 42.522 142.814 42.522 142.328V136.892H40.848V146ZM51.2279 146H52.9199L53.3159 140.582C53.3519 140.042 53.2979 139.016 53.2979 139.016H53.3339C53.3339 139.016 53.6219 139.7 53.9099 140.366L56.0699 144.902H57.5639L59.7239 140.348C60.0659 139.646 60.2999 139.016 60.2999 139.016H60.3359C60.3359 139.016 60.2999 140.042 60.3179 140.582L60.7139 146H62.4059L61.6139 136.892H59.7059L57.3299 142.04C57.0959 142.598 56.8259 143.264 56.8259 143.264H56.7899C56.7899 143.264 56.5379 142.58 56.2859 142.04L53.9639 136.892H52.0199L51.2279 146ZM64.1603 141.446C64.1603 144.146 66.1403 146.216 69.0023 146.216C70.2623 146.216 71.6483 145.73 72.5303 144.92L71.7923 143.642C71.0723 144.29 70.0823 144.704 69.1103 144.704C67.4723 144.704 66.0683 143.642 65.9783 141.68H72.6023C72.6383 141.428 72.6743 141.176 72.6743 140.942C72.6743 138.602 71.3063 136.676 68.7323 136.676C66.1403 136.676 64.1603 138.548 64.1603 141.446ZM66.0323 140.42C66.2843 138.908 67.3463 138.026 68.6963 138.026C69.8843 138.026 70.8563 138.854 70.9103 140.42H66.0323ZM74.7738 146H76.5198V142.094H81.1278V146H82.8738V136.892H81.1278V140.6H76.5198V136.892H74.7738V146ZM85.5668 146H87.2408L91.1828 140.564C91.4708 140.132 91.9208 139.52 91.9748 139.358H92.0108C92.0108 139.502 91.9568 140.132 91.9568 140.564V146H93.6488V136.892H91.9568L88.0328 142.328C87.7268 142.76 87.2948 143.39 87.2228 143.552H87.1868C87.2048 143.462 87.2408 142.814 87.2408 142.328V136.892H85.5668V146ZM100.663 146H102.445L103.057 137.99C103.129 137.216 103.093 136.082 103.093 136.082H103.129C103.129 136.082 103.525 137.306 103.813 137.99L106.333 143.714H107.917L110.455 137.99C110.743 137.288 111.139 136.118 111.139 136.118H111.175C111.175 136.118 111.139 137.216 111.211 137.99L111.823 146H113.587L112.561 133.292H110.707L107.773 140.168C107.485 140.87 107.143 141.878 107.143 141.878H107.107C107.107 141.878 106.783 140.87 106.495 140.168L103.561 133.292H101.707L100.663 146ZM116.045 146H117.917V144.11H116.045V146ZM120.854 146H125.408C127.64 146 129.512 144.776 129.512 142.382C129.512 140.96 128.756 139.7 127.406 139.304V139.268C128.378 138.764 128.99 137.774 128.99 136.532C128.99 134.48 127.46 133.292 125.3 133.292H120.854V146ZM122.636 138.638V134.84H125.282C126.488 134.84 127.172 135.596 127.172 136.712C127.172 137.828 126.452 138.638 125.3 138.638H122.636ZM122.636 144.452V140.114H125.498C126.83 140.114 127.676 140.996 127.676 142.274C127.676 143.588 126.866 144.452 125.498 144.452H122.636ZM131.672 146H133.544V144.11H131.672V146ZM139.523 144.506V146.144C143.033 145.946 144.113 142.418 144.113 136.316V134.84H148.055V146H149.837V133.292H142.421V136.298C142.421 141.464 141.665 144.218 139.523 144.506ZM152.086 141.428C152.086 144.2 154.282 146.216 157 146.216C159.7 146.216 161.896 144.2 161.896 141.428C161.896 138.674 159.7 136.676 156.982 136.676C154.282 136.676 152.086 138.674 152.086 141.428ZM153.868 141.428C153.868 139.538 155.272 138.188 157 138.188C158.71 138.188 160.132 139.538 160.132 141.428C160.132 143.336 158.71 144.704 157 144.704C155.272 144.704 153.868 143.336 153.868 141.428ZM163.622 146H165.314L165.71 140.582C165.746 140.042 165.692 139.016 165.692 139.016H165.728C165.728 139.016 166.016 139.7 166.304 140.366L168.464 144.902H169.958L172.118 140.348C172.46 139.646 172.694 139.016 172.694 139.016H172.73C172.73 139.016 172.694 140.042 172.712 140.582L173.108 146H174.8L174.008 136.892H172.1L169.724 142.04C169.49 142.598 169.22 143.264 169.22 143.264H169.184C169.184 143.264 168.932 142.58 168.68 142.04L166.358 136.892H164.414L163.622 146ZM176.555 141.428C176.555 144.2 178.751 146.216 181.469 146.216C184.169 146.216 186.365 144.2 186.365 141.428C186.365 138.674 184.169 136.676 181.451 136.676C178.751 136.676 176.555 138.674 176.555 141.428ZM178.337 141.428C178.337 139.538 179.741 138.188 181.469 138.188C183.179 138.188 184.601 139.538 184.601 141.428C184.601 143.336 183.179 144.704 181.469 144.704C179.741 144.704 178.337 143.336 178.337 141.428ZM188.469 146H190.215V142.094H194.823V146H196.569V136.892H194.823V140.6H190.215V136.892H188.469V146ZM198.668 141.428C198.668 144.2 200.864 146.216 203.582 146.216C206.282 146.216 208.478 144.2 208.478 141.428C208.478 138.674 206.282 136.676 203.564 136.676C200.864 136.676 198.668 138.674 198.668 141.428ZM200.45 141.428C200.45 139.538 201.854 138.188 203.582 138.188C205.292 138.188 206.714 139.538 206.714 141.428C206.714 143.336 205.292 144.704 203.582 144.704C201.854 144.704 200.45 143.336 200.45 141.428ZM209.988 141.446C209.988 144.182 211.986 146.216 214.866 146.216C216.288 146.216 217.674 145.64 218.502 144.758L217.8 143.48C217.098 144.218 216 144.704 214.992 144.704C213.102 144.704 211.77 143.282 211.77 141.428C211.77 139.574 213.102 138.188 214.938 138.188C215.892 138.188 216.846 138.62 217.458 139.232L218.286 138.008C217.422 137.09 216.072 136.676 214.866 136.676C212.004 136.676 209.988 138.746 209.988 141.446ZM219.586 141.428C219.586 144.2 221.782 146.216 224.5 146.216C227.2 146.216 229.396 144.2 229.396 141.428C229.396 138.674 227.2 136.676 224.482 136.676C221.782 136.676 219.586 138.674 219.586 141.428ZM221.368 141.428C221.368 139.538 222.772 138.188 224.5 138.188C226.21 138.188 227.632 139.538 227.632 141.428C227.632 143.336 226.21 144.704 224.5 144.704C222.772 144.704 221.368 143.336 221.368 141.428ZM231.5 146H235.388C237.368 146 238.736 145.1 238.736 143.408C238.736 142.4 238.142 141.518 237.008 141.248V141.23C237.836 140.87 238.304 140.114 238.304 139.232C238.304 137.702 237.098 136.892 235.262 136.892H231.5V146ZM233.246 140.744V138.098H234.902C236 138.098 236.522 138.53 236.522 139.358C236.522 140.204 236 140.744 234.956 140.744H233.246ZM233.246 144.776V141.914H235.1C236.306 141.914 236.972 142.454 236.972 143.354C236.972 144.2 236.378 144.776 235.118 144.776H233.246ZM240.096 143.516C240.096 145.226 241.554 146.216 243.138 146.216C244.488 146.216 245.604 145.406 246.126 144.362H246.162C246.162 144.362 246.108 144.668 246.108 145.082V146H247.746V140.24C247.746 137.936 246.432 136.676 244.146 136.676C242.868 136.676 241.482 137.144 240.744 137.756L241.446 139.034C242.184 138.512 243.102 138.152 244.002 138.152C245.136 138.152 246 138.656 246 140.15V140.33H245.532C243.642 140.33 240.096 140.654 240.096 143.516ZM241.842 143.372C241.842 141.698 244.254 141.59 245.55 141.59H246V141.932C246 143.282 245.082 144.83 243.552 144.83C242.418 144.83 241.842 144.092 241.842 143.372Z" fill="#424754"/>
<path d="M1.35 187H3.024L6.966 181.564C7.254 181.132 7.704 180.52 7.758 180.358H7.794C7.794 180.502 7.74 181.132 7.74 181.564V187H9.432V177.892H7.74L3.816 183.328C3.51 183.76 3.078 184.39 3.006 184.552H2.97C2.988 184.462 3.024 183.814 3.024 183.328V177.892H1.35V187ZM16.6078 187H18.3538V183.094H22.9618V187H24.7078V177.892H22.9618V181.6H18.3538V177.892H16.6078V187ZM26.8068 182.446C26.8068 185.146 28.7868 187.216 31.6488 187.216C32.9088 187.216 34.2948 186.73 35.1768 185.92L34.4388 184.642C33.7188 185.29 32.7288 185.704 31.7568 185.704C30.1188 185.704 28.7148 184.642 28.6248 182.68H35.2488C35.2848 182.428 35.3208 182.176 35.3208 181.942C35.3208 179.602 33.9528 177.676 31.3788 177.676C28.7868 177.676 26.8068 179.548 26.8068 182.446ZM28.6788 181.42C28.9308 179.908 29.9928 179.026 31.3428 179.026C32.5308 179.026 33.5028 179.854 33.5568 181.42H28.6788ZM44.1163 187H45.8443V179.386H49.0303V177.892H40.9483V179.386H44.1163V187ZM49.8517 182.428C49.8517 185.2 52.0477 187.216 54.7657 187.216C57.4657 187.216 59.6617 185.2 59.6617 182.428C59.6617 179.674 57.4657 177.676 54.7477 177.676C52.0477 177.676 49.8517 179.674 49.8517 182.428ZM51.6337 182.428C51.6337 180.538 53.0377 179.188 54.7657 179.188C56.4757 179.188 57.8977 180.538 57.8977 182.428C57.8977 184.336 56.4757 185.704 54.7657 185.704C53.0377 185.704 51.6337 184.336 51.6337 182.428ZM60.5299 187.09C63.2119 186.946 64.2559 184.822 64.2559 180.7V179.332H66.9379V187H68.6839V177.892H62.5819V180.7C62.5819 183.994 61.8619 185.326 60.5299 185.524V187.09ZM71.3813 187H74.9273C77.2313 187 78.2753 185.83 78.2753 184.12C78.2753 182.05 76.8533 181.186 74.9633 181.186H73.1273V177.892H71.3813V187ZM73.1273 185.74V182.446H74.6933C75.9533 182.446 76.4933 183.13 76.4933 184.102C76.4933 185.056 75.9533 185.74 74.6933 185.74H73.1273ZM80.1527 187H81.8987V183.058H83.2127L85.9307 187H88.0007L84.5987 182.266V182.23L87.6407 177.892H85.6607L83.1767 181.564H81.8987V177.892H80.1527V187ZM88.5763 182.428C88.5763 185.2 90.7723 187.216 93.4903 187.216C96.1903 187.216 98.3863 185.2 98.3863 182.428C98.3863 179.674 96.1903 177.676 93.4723 177.676C90.7723 177.676 88.5763 179.674 88.5763 182.428ZM90.3583 182.428C90.3583 180.538 91.7623 179.188 93.4903 179.188C95.2003 179.188 96.6223 180.538 96.6223 182.428C96.6223 184.336 95.2003 185.704 93.4903 185.704C91.7623 185.704 90.3583 184.336 90.3583 182.428Z" fill="#424754"/>
<path d="M1.08 272.408C1.08 277.424 4.536 281.288 9.888 281.288C12.936 281.288 15.12 280.016 16.584 278.528L14.952 276.296C13.656 277.568 11.832 278.456 10.008 278.456C6.312 278.456 4.272 275.552 4.272 272.36C4.272 269.216 6.24 266.504 9.984 266.504C11.64 266.504 13.44 267.272 14.64 268.304L16.128 266C14.472 264.392 12.072 263.672 9.84 263.672C4.704 263.672 1.08 267.464 1.08 272.408ZM24.0677 274.88C24.0677 278.648 27.0677 281.288 30.7877 281.288C34.5077 281.288 37.5077 278.648 37.5077 274.88C37.5077 271.136 34.5077 268.472 30.7637 268.472C27.0677 268.472 24.0677 271.136 24.0677 274.88ZM27.1637 274.88C27.1637 272.624 28.7957 271.064 30.7877 271.064C32.7797 271.064 34.4357 272.624 34.4357 274.88C34.4357 277.16 32.7797 278.696 30.7877 278.696C28.7957 278.696 27.1637 277.16 27.1637 274.88ZM40.0226 281H43.0706V271.352H48.1346V281H51.1826V268.76H40.0226V281ZM65.9567 281H69.0047V268.76H65.9567V281ZM54.4367 281H59.6447C62.8607 281 64.2767 279.392 64.2767 277.016C64.2767 274.352 62.5487 272.96 59.6687 272.96H57.4847V268.76H54.4367V281ZM57.4847 278.912V275.024H59.1167C60.5567 275.024 61.2047 275.864 61.2047 276.992C61.2047 278.096 60.5567 278.912 59.1647 278.912H57.4847ZM75.1286 281H78.1526V271.352H82.2086V268.76H71.0966V271.352H75.1286V281ZM83.2239 274.88C83.2239 278.648 86.2239 281.288 89.9439 281.288C93.6639 281.288 96.6639 278.648 96.6639 274.88C96.6639 271.136 93.6639 268.472 89.9199 268.472C86.2239 268.472 83.2239 271.136 83.2239 274.88ZM86.3199 274.88C86.3199 272.624 87.9519 271.064 89.9439 271.064C91.9359 271.064 93.5919 272.624 93.5919 274.88C93.5919 277.16 91.9359 278.696 89.9439 278.696C87.9519 278.696 86.3199 277.16 86.3199 274.88ZM98.6749 281H101.603L102.035 274.376C102.083 273.56 102.011 272.288 102.011 272.288H102.059C102.059 272.288 102.467 273.248 102.803 274.088L105.203 279.464H107.723L110.123 274.064C110.507 273.2 110.843 272.288 110.843 272.288H110.891C110.891 272.288 110.843 273.56 110.867 274.376L111.299 281H114.227L113.123 268.76H109.715L107.075 275.072C106.811 275.768 106.475 276.632 106.475 276.632H106.427C106.427 276.632 106.115 275.744 105.827 275.072L103.235 268.76H99.7789L98.6749 281ZM123.015 285.8H126.063V280.616C126.063 279.992 125.991 279.56 125.991 279.56H126.039C126.903 280.664 128.175 281.288 129.567 281.288C132.783 281.288 135.159 278.768 135.159 274.88C135.159 271.088 133.047 268.472 129.735 268.472C128.079 268.472 126.591 269.216 125.799 270.536H125.751C125.751 270.536 125.799 270.128 125.799 269.672V268.76H123.015V285.8ZM125.967 274.952C125.967 272.24 127.455 271.088 129.063 271.088C130.839 271.088 132.087 272.6 132.087 274.928C132.087 277.352 130.695 278.72 129.015 278.72C127.023 278.72 125.967 276.848 125.967 274.952ZM136.821 277.616C136.821 279.848 138.645 281.288 140.853 281.288C142.509 281.288 143.973 280.376 144.717 279.08H144.765C144.765 279.08 144.693 279.464 144.693 279.968V281H147.525V273.344C147.525 270.248 145.629 268.472 142.437 268.472C140.613 268.472 138.645 269.168 137.637 269.984L138.765 272.168C139.749 271.496 140.973 270.992 142.173 270.992C143.445 270.992 144.477 271.544 144.477 273.152V273.32H143.949C141.237 273.32 136.821 273.944 136.821 277.616ZM139.845 277.352C139.845 275.624 142.437 275.408 143.973 275.408H144.501V275.744C144.501 277.232 143.397 278.96 141.693 278.96C140.469 278.96 139.845 278.168 139.845 277.352ZM150.096 273.848C150.096 278.192 152.088 281.288 156.336 281.288C159.96 281.288 162.336 278.816 162.336 275.432C162.336 272.048 160.248 269.816 157.104 269.816C155.688 269.816 154.152 270.248 153.072 271.592H153.024C153.144 269.48 154.512 268.352 156.6 267.488L161.256 265.712L160.344 263.24L156.12 264.896C151.656 266.624 150.096 269.24 150.096 273.848ZM153.192 275.456C153.192 273.536 154.512 272.168 156.264 272.168C157.896 272.168 159.264 273.416 159.264 275.48C159.264 277.544 157.896 278.768 156.216 278.768C154.56 278.768 153.192 277.544 153.192 275.456ZM164.177 274.88C164.177 278.648 167.177 281.288 170.897 281.288C174.617 281.288 177.617 278.648 177.617 274.88C177.617 271.136 174.617 268.472 170.873 268.472C167.177 268.472 164.177 271.136 164.177 274.88ZM167.273 274.88C167.273 272.624 168.905 271.064 170.897 271.064C172.889 271.064 174.545 272.624 174.545 274.88C174.545 277.16 172.889 278.696 170.897 278.696C168.905 278.696 167.273 277.16 167.273 274.88ZM182.683 281H185.707V271.352H189.763V268.76H178.651V271.352H182.683V281ZM203.347 281H206.395V268.76H203.347V281ZM191.827 281H197.035C200.251 281 201.667 279.392 201.667 277.016C201.667 274.352 199.939 272.96 197.059 272.96H194.875V268.76H191.827V281ZM194.875 278.912V275.024H196.507C197.947 275.024 198.595 275.864 198.595 276.992C198.595 278.096 197.947 278.912 196.555 278.912H194.875ZM215.663 281H221.471C224.039 281 226.031 279.896 226.031 277.448C226.031 276.224 225.335 275.024 223.871 274.64V274.616C224.903 274.112 225.479 273.056 225.479 271.928C225.479 269.864 223.823 268.76 221.351 268.76H215.663V281ZM218.711 273.8V270.752H220.655C221.855 270.752 222.407 271.304 222.407 272.192C222.407 273.128 221.855 273.8 220.703 273.8H218.711ZM218.711 278.984V275.696H220.943C222.263 275.696 222.959 276.368 222.959 277.352C222.959 278.288 222.311 278.984 220.943 278.984H218.711ZM228.529 271.808H231.553V268.76H228.529V271.808ZM228.529 281H231.553V277.952H228.529V281Z" fill="#222224"/>
<path d="M1.674 341H3.456V335.42H10.062V341H11.826V328.292H10.062V333.872H3.456V328.292H1.674V341ZM15.174 341H16.92L22.59 332.756C23.04 332.054 23.652 330.902 23.652 330.902H23.688C23.688 330.902 23.58 332.036 23.58 332.756V341H25.344V328.292H23.598L17.964 336.518C17.514 337.202 16.884 338.39 16.884 338.39H16.848C16.848 338.39 16.956 337.256 16.956 336.536V328.292H15.174V341ZM28.7092 341H43.4332V328.292H41.6692V339.452H36.9712V328.292H35.1892V339.452H30.4912V328.292H28.7092V341Z" fill="#424754"/>
<path d="M1.674 382H3.456V377.302H6.336C8.658 377.302 10.314 375.682 10.314 373.27C10.314 370.858 8.658 369.292 6.336 369.292H1.674V382ZM3.456 375.754V370.84H6.066C7.56 370.84 8.514 371.758 8.514 373.27C8.514 374.8 7.56 375.754 6.048 375.754H3.456ZM11.5653 375.232C11.5653 378.454 13.9593 380.596 17.4693 380.596V382.216H19.2513V380.596C22.7613 380.596 25.1553 378.454 25.1553 375.232C25.1553 372.064 22.7433 369.958 19.2513 369.958V368.5H17.4693V369.958C13.9593 369.958 11.5653 372.064 11.5653 375.232ZM19.2513 379.084V371.47C21.6993 371.47 23.3373 372.91 23.3373 375.232C23.3373 377.608 21.6993 379.084 19.2513 379.084ZM13.3833 375.232C13.3833 372.91 15.0213 371.47 17.4693 371.47V379.084C15.0213 379.084 13.3833 377.608 13.3833 375.232ZM27.0278 382H28.8098L29.4218 373.99C29.4938 373.216 29.4578 372.082 29.4578 372.082H29.4938C29.4938 372.082 29.8898 373.306 30.1778 373.99L32.6978 379.714H34.2818L36.8198 373.99C37.1078 373.288 37.5038 372.118 37.5038 372.118H37.5398C37.5398 372.118 37.5038 373.216 37.5758 373.99L38.1878 382H39.9518L38.9258 369.292H37.0718L34.1378 376.168C33.8498 376.87 33.5078 377.878 33.5078 377.878H33.4718C33.4718 377.878 33.1478 376.87 32.8598 376.168L29.9258 369.292H28.0718L27.0278 382ZM42.8244 382H57.5484V369.292H55.7844V380.452H51.0864V369.292H49.3044V380.452H44.6064V369.292H42.8244V382Z" fill="#424754"/>
<path d="M1.674 423H3.456V417.186H5.346L8.73 423H10.764L6.822 416.358V416.322L10.53 410.292H8.568L5.346 415.638H3.456V410.292H1.674V423ZM15.7006 423H17.4646V411.84H21.8386V410.292H11.3266V411.84H15.7006V423ZM21.5031 421.506V423.144C25.0131 422.946 26.0931 419.418 26.0931 413.316V411.84H30.0351V423H31.8171V410.292H24.4011V413.298C24.4011 418.464 23.6451 421.218 21.5031 421.506Z" fill="#424754"/>
<path d="M1.674 464H3.456V458.42H10.062V464H11.826V451.292H10.062V456.872H3.456V451.292H1.674V464ZM13.971 461.516C13.971 463.226 15.429 464.216 17.013 464.216C18.363 464.216 19.479 463.406 20.001 462.362H20.037C20.037 462.362 19.983 462.668 19.983 463.082V464H21.621V458.24C21.621 455.936 20.307 454.676 18.021 454.676C16.743 454.676 15.357 455.144 14.619 455.756L15.321 457.034C16.059 456.512 16.977 456.152 17.877 456.152C19.011 456.152 19.875 456.656 19.875 458.15V458.33H19.407C17.517 458.33 13.971 458.654 13.971 461.516ZM15.717 461.372C15.717 459.698 18.129 459.59 19.425 459.59H19.875V459.932C19.875 461.282 18.957 462.83 17.427 462.83C16.293 462.83 15.717 462.092 15.717 461.372ZM23.3196 462.884C24.0756 463.604 25.2636 464.216 26.6676 464.216C28.5396 464.216 30.1596 463.262 30.1596 461.39C30.1596 460.22 29.4396 459.536 28.5216 459.248V459.212C29.2416 458.906 29.8536 458.276 29.8536 457.142C29.8536 455.522 28.5036 454.676 26.7756 454.676C25.3356 454.676 24.3096 455.144 23.6076 455.666L24.2556 456.836C24.9576 456.314 25.6776 456.044 26.4696 456.044C27.4776 456.044 28.0896 456.512 28.0896 457.358C28.0896 458.276 27.3876 458.672 26.3616 458.672H25.4076V459.932H26.5236C27.8016 459.932 28.3956 460.436 28.3956 461.318C28.3956 462.308 27.5496 462.812 26.5056 462.812C25.4076 462.812 24.5436 462.164 24.1296 461.732L23.3196 462.884ZM31.5139 461.516C31.5139 463.226 32.9719 464.216 34.5559 464.216C35.9059 464.216 37.0219 463.406 37.5439 462.362H37.5799C37.5799 462.362 37.5259 462.668 37.5259 463.082V464H39.1639V458.24C39.1639 455.936 37.8499 454.676 35.5639 454.676C34.2859 454.676 32.8999 455.144 32.1619 455.756L32.8639 457.034C33.6019 456.512 34.5199 456.152 35.4199 456.152C36.5539 456.152 37.4179 456.656 37.4179 458.15V458.33H36.9499C35.0599 458.33 31.5139 458.654 31.5139 461.516ZM33.2599 461.372C33.2599 459.698 35.6719 459.59 36.9679 459.59H37.4179V459.932C37.4179 461.282 36.4999 462.83 34.9699 462.83C33.8359 462.83 33.2599 462.092 33.2599 461.372ZM41.7445 467.6H43.4905V463.46C43.4905 462.992 43.4185 462.668 43.4185 462.668H43.4545C44.0845 463.64 45.1285 464.216 46.2805 464.216C48.6745 464.216 50.4025 462.344 50.4025 459.446C50.4025 456.62 48.8725 454.676 46.4065 454.676C45.0745 454.676 43.9225 455.288 43.3465 456.386H43.3105C43.3105 456.386 43.3645 456.08 43.3645 455.702V454.892H41.7445V467.6ZM43.4365 459.482C43.4365 457.178 44.6965 456.206 46.0645 456.206C47.5765 456.206 48.6385 457.484 48.6385 459.464C48.6385 461.534 47.4505 462.704 46.0105 462.704C44.3365 462.704 43.4365 461.102 43.4365 459.482ZM52.1591 458.762C52.1591 461.912 53.5451 464.216 56.6231 464.216C59.1971 464.216 60.9251 462.416 60.9251 459.896C60.9251 457.322 59.3411 455.702 57.0551 455.702C55.8491 455.702 54.6431 456.098 53.8331 457.322H53.7971C53.9231 455.576 54.7871 454.514 56.6051 453.686L60.0971 452.228L59.5211 450.788L56.2631 452.192C53.0951 453.524 52.1591 455.504 52.1591 458.762ZM53.9771 459.896C53.9771 458.294 55.0751 457.088 56.6231 457.088C57.9911 457.088 59.1611 458.15 59.1611 459.932C59.1611 461.696 57.9911 462.74 56.5511 462.74C55.1471 462.74 53.9771 461.696 53.9771 459.896ZM62.346 461.516C62.346 463.226 63.804 464.216 65.388 464.216C66.738 464.216 67.854 463.406 68.376 462.362H68.412C68.412 462.362 68.358 462.668 68.358 463.082V464H69.996V458.24C69.996 455.936 68.682 454.676 66.396 454.676C65.118 454.676 63.732 455.144 62.994 455.756L63.696 457.034C64.434 456.512 65.352 456.152 66.252 456.152C67.386 456.152 68.25 456.656 68.25 458.15V458.33H67.782C65.892 458.33 62.346 458.654 62.346 461.516ZM64.092 461.372C64.092 459.698 66.504 459.59 67.8 459.59H68.25V459.932C68.25 461.282 67.332 462.83 65.802 462.83C64.668 462.83 64.092 462.092 64.092 461.372ZM71.9826 459.446C71.9826 462.146 73.9626 464.216 76.8246 464.216C78.0846 464.216 79.4706 463.73 80.3526 462.92L79.6146 461.642C78.8946 462.29 77.9046 462.704 76.9326 462.704C75.2946 462.704 73.8906 461.642 73.8006 459.68H80.4246C80.4606 459.428 80.4966 459.176 80.4966 458.942C80.4966 456.602 79.1286 454.676 76.5546 454.676C73.9626 454.676 71.9826 456.548 71.9826 459.446ZM73.8546 458.42C74.1066 456.908 75.1686 456.026 76.5186 456.026C77.7066 456.026 78.6786 456.854 78.7326 458.42H73.8546ZM82.5961 464H86.4841C88.4641 464 89.8321 463.1 89.8321 461.408C89.8321 460.4 89.2381 459.518 88.1041 459.248V459.23C88.9321 458.87 89.4001 458.114 89.4001 457.232C89.4001 455.702 88.1941 454.892 86.3581 454.892H82.5961V464ZM84.3421 458.744V456.098H85.9981C87.0961 456.098 87.6181 456.53 87.6181 457.358C87.6181 458.204 87.0961 458.744 86.0521 458.744H84.3421ZM84.3421 462.776V459.914H86.1961C87.4021 459.914 88.0681 460.454 88.0681 461.354C88.0681 462.2 87.4741 462.776 86.2141 462.776H84.3421ZM96.4477 463.388C97.1497 463.874 97.9057 464.216 98.7697 464.216C100.354 464.216 101.164 462.938 101.668 461.66L105.718 451.292H103.846L101.488 457.7C101.218 458.474 100.948 459.356 100.948 459.356H100.912C100.912 459.356 100.588 458.474 100.192 457.682L97.0957 451.292H95.1337L100.156 461.246C99.8137 462.128 99.4537 462.668 98.7157 462.668C98.1037 462.668 97.5637 462.272 97.2577 462.038L96.4477 463.388ZM106.52 464H108.266V460.094H112.874V464H114.62V454.892H112.874V458.6H108.266V454.892H106.52V464ZM117.313 464H118.987L122.929 458.564C123.217 458.132 123.667 457.52 123.721 457.358H123.757C123.757 457.502 123.703 458.132 123.703 458.564V464H125.395V454.892H123.703L119.779 460.328C119.473 460.76 119.041 461.39 118.969 461.552H118.933C118.951 461.462 118.987 460.814 118.987 460.328V454.892H117.313V464ZM128.071 464H131.959C133.939 464 135.307 463.1 135.307 461.408C135.307 460.4 134.713 459.518 133.579 459.248V459.23C134.407 458.87 134.875 458.114 134.875 457.232C134.875 455.702 133.669 454.892 131.833 454.892H128.071V464ZM129.817 458.744V456.098H131.473C132.571 456.098 133.093 456.53 133.093 457.358C133.093 458.204 132.571 458.744 131.527 458.744H129.817ZM129.817 462.776V459.914H131.671C132.877 459.914 133.543 460.454 133.543 461.354C133.543 462.2 132.949 462.776 131.689 462.776H129.817ZM136.828 459.446C136.828 462.146 138.808 464.216 141.67 464.216C142.93 464.216 144.316 463.73 145.198 462.92L144.46 461.642C143.74 462.29 142.75 462.704 141.778 462.704C140.14 462.704 138.736 461.642 138.646 459.68H145.27C145.306 459.428 145.342 459.176 145.342 458.942C145.342 456.602 143.974 454.676 141.4 454.676C138.808 454.676 136.828 456.548 136.828 459.446ZM138.7 458.42C138.952 456.908 140.014 456.026 141.364 456.026C142.552 456.026 143.524 456.854 143.578 458.42H138.7ZM147.442 467.6H149.188V463.46C149.188 462.992 149.116 462.668 149.116 462.668H149.152C149.782 463.64 150.826 464.216 151.978 464.216C154.372 464.216 156.1 462.344 156.1 459.446C156.1 456.62 154.57 454.676 152.104 454.676C150.772 454.676 149.62 455.288 149.044 456.386H149.008C149.008 456.386 149.062 456.08 149.062 455.702V454.892H147.442V467.6ZM149.134 459.482C149.134 457.178 150.394 456.206 151.762 456.206C153.274 456.206 154.336 457.484 154.336 459.464C154.336 461.534 153.148 462.704 151.708 462.704C150.034 462.704 149.134 461.102 149.134 459.482ZM157.658 459.446C157.658 462.182 159.656 464.216 162.536 464.216C163.958 464.216 165.344 463.64 166.172 462.758L165.47 461.48C164.768 462.218 163.67 462.704 162.662 462.704C160.772 462.704 159.44 461.282 159.44 459.428C159.44 457.574 160.772 456.188 162.608 456.188C163.562 456.188 164.516 456.62 165.128 457.232L165.956 456.008C165.092 455.09 163.742 454.676 162.536 454.676C159.674 454.676 157.658 456.746 157.658 459.446ZM168.061 464H169.735L173.677 458.564C173.965 458.132 174.415 457.52 174.469 457.358H174.505C174.505 457.502 174.451 458.132 174.451 458.564V464H176.143V454.892H174.451L170.527 460.328C170.221 460.76 169.789 461.39 169.717 461.552H169.681C169.699 461.462 169.735 460.814 169.735 460.328V454.892H168.061V464ZM181.015 464H182.743V456.386H185.929V454.892H177.847V456.386H181.015V464ZM186.75 459.446C186.75 462.146 188.73 464.216 191.592 464.216C192.852 464.216 194.238 463.73 195.12 462.92L194.382 461.642C193.662 462.29 192.672 462.704 191.7 462.704C190.062 462.704 188.658 461.642 188.568 459.68H195.192C195.228 459.428 195.264 459.176 195.264 458.942C195.264 456.602 193.896 454.676 191.322 454.676C188.73 454.676 186.75 456.548 186.75 459.446ZM188.622 458.42C188.874 456.908 189.936 456.026 191.286 456.026C192.474 456.026 193.446 456.854 193.5 458.42H188.622ZM199.454 464H201.182V456.386H204.368V454.892H196.286V456.386H199.454V464Z" fill="#424754"/>
<g clip-path="url(#clip0)">
<path d="M1099.31 220.393C1098.04 217.125 1099.86 215.491 1100.58 212.586C1101.31 209.681 1098.95 200.603 1098.95 200.603C1098.95 200.603 1091.32 169.193 1088.96 163.02C1087.96 160.408 1085.79 158.611 1083.62 157.404C1083.47 156.603 1083.26 156.086 1082.96 155.939C1080.86 154.887 1075.62 152.603 1072.12 151.971C1071.47 150.849 1070.7 149.802 1069.81 148.849C1070.43 147.672 1070.71 146.352 1070.64 145.027C1070.41 141.602 1067.82 138.532 1068.16 135.116C1068.41 132.526 1070.31 130.397 1071.04 127.899C1071.35 126.777 1071.42 125.603 1071.25 124.452C1071.09 123.301 1070.69 122.196 1070.07 121.206C1070.61 121.777 1071.15 122.348 1071.69 122.92C1072.42 121.825 1072.77 120.521 1072.69 119.207C1072.61 117.893 1072.1 116.642 1071.24 115.645C1069.54 113.767 1066.69 113.062 1065.37 110.899C1064.01 108.676 1064.74 105.655 1063.46 103.388C1060.32 97.8363 1052.27 101.772 1047.45 99.8342C1045.47 99.0379 1043.97 98.1615 1041.74 98.2244C1039.85 98.333 1037.97 98.6825 1036.17 99.2646C1033.58 100.014 1031.32 101.629 1029.78 103.84C1029.93 103.667 1030.1 103.508 1030.28 103.364C1031.45 102.449 1033.5 102.525 1034.11 103.874C1034.26 104.213 1034.32 104.582 1034.29 104.951C1034.19 106.576 1032.77 107.79 1031.36 108.604C1029.95 109.417 1028.36 110.098 1027.44 111.441C1025.92 113.658 1026.81 116.634 1026.81 119.322C1026.8 121.03 1026.4 122.714 1025.65 124.249C1024.9 125.784 1023.82 127.132 1022.48 128.192L1027.6 126.098C1025.16 130.379 1023.55 135.089 1022.87 139.973L1029.8 134.25C1027.23 138.333 1025.67 142.967 1025.25 147.771L1030.81 142.074C1031.07 142.519 1031.19 143.025 1031.18 143.536L1030.6 145.773C1030.39 146.217 1030.17 146.65 1029.92 147.071C1029.02 148.607 1028.1 150.498 1028.94 152.067L1028.94 152.065C1028.06 155.028 1026.73 157.994 1023.77 159.435C1027.05 159.778 1030.48 158.138 1031.96 155.529C1032.2 155.999 1032.49 156.441 1032.83 156.847C1032.92 156.966 1033.02 157.085 1033.11 157.203L1032.29 157.748L1030.1 159.208C1030.1 159.208 1015.75 162.112 1016.66 167.559C1016.7 167.783 1016.74 168.051 1016.79 168.351L1012.66 175.366L1006.67 195.701C1006.67 195.701 1003.58 202.237 1004.13 204.961C1004.67 207.684 1004.13 208.773 1004.13 213.675C1004.13 218.578 1001.76 220.575 1004.13 224.569C1006.49 228.563 1013.57 240.183 1013.57 240.183L1015.13 241.35C1015.05 242.05 1015.08 242.758 1015.21 243.451C1016.66 250.714 1030.28 320.251 1030.28 320.251C1030.28 320.251 1023.38 375.264 1037.37 378.713C1039.12 379.146 1040.85 379.538 1042.52 379.888L1044.63 393.783L1043.36 411.394C1043.36 411.394 1033.74 433.181 1051.36 434.452C1068.98 435.723 1060.98 415.57 1060.98 415.57C1061.91 413.849 1062.29 411.885 1062.07 409.942C1061.89 408.325 1060.38 399.915 1058.9 391.826C1065.58 391.024 1064.33 383.931 1063.44 380.812C1063.83 380.587 1064.12 380.228 1064.25 379.803C1064.45 379.078 1063.99 376.229 1063.13 372.237C1062.44 368.268 1061.26 361.842 1060.45 357.49L1064.8 358.197L1083.14 250.714C1083.14 250.714 1083.27 249.003 1083.21 246.5C1085.72 245.203 1088.31 244.064 1090.96 243.088C1096.95 240.728 1099.31 232.013 1101.31 228.382C1103.31 224.751 1100.58 223.661 1099.31 220.393ZM1034.17 151.958C1034.76 151.549 1035.46 151.313 1036.18 151.277C1036.02 152.122 1034.57 152.368 1033.35 152.811C1033.58 152.483 1033.85 152.195 1034.17 151.958ZM1025.02 206.05C1026.49 208.467 1023.82 215.015 1021.42 220.212C1020.05 219.027 1018.61 219.4 1020.29 216.036C1021.44 213.904 1022.12 211.552 1022.29 209.137C1022.29 208.721 1022.5 205.671 1024.29 204.404C1024.48 204.974 1024.72 205.525 1025.02 206.05ZM1019.5 226.907C1020.34 226.569 1021.6 226.048 1023.3 225.469C1022.48 226.54 1021.55 227.815 1020.62 229.207C1020.26 228.939 1019.98 228.591 1019.78 228.191C1019.59 227.791 1019.49 227.351 1019.5 226.907ZM1078.42 229.29C1077.32 228.117 1076.42 227.068 1075.69 226.129C1077.06 226.49 1078.46 226.877 1079.87 227.292C1080.58 227.398 1081.3 227.35 1081.99 227.152C1082.05 228.407 1082.05 230.197 1082.05 230.197L1080.07 231.574C1079.61 230.749 1079.06 229.982 1078.42 229.29V229.29ZM1084.06 222.993C1084.04 223.011 1084.01 223.033 1083.99 223.052C1083.9 222.334 1083.73 221.627 1083.51 220.938C1082.32 217.185 1081.68 210.527 1081.34 204.845L1084.78 216.399C1084.78 216.399 1084.96 222.209 1084.06 222.993Z" fill="#D0CDE1"/>
<path d="M1013.5 175.271C1013.5 175.271 994.861 143.256 994.278 139.764C993.696 136.271 984.378 129.868 984.378 129.868C981.194 126.686 975.97 125.68 970.473 125.732C972.543 124.02 965.152 122.869 964.576 121.719C963.994 120.555 962.247 120.555 959.917 118.809C957.588 117.063 951.773 118.518 951.773 118.518C950.898 116.679 950.29 114.726 949.966 112.717C952.448 109.782 953.807 106.062 953.802 102.219C953.802 102.177 953.8 102.136 953.799 102.095C953.947 102.325 954.096 102.557 954.244 102.796C955.335 96.2647 957.261 90.8355 953.59 84.8772C950.988 80.6542 946.916 77.5423 942.156 76.1405L938.66 78.9358L940.019 75.6754C938.876 75.5011 937.72 75.4343 936.564 75.4758L933.419 79.5178L934.721 75.6142C931.991 75.9533 929.362 76.8538 926.998 78.2591C924.634 79.6645 922.587 81.5441 920.987 83.7794C916.983 89.5489 917.251 97.5689 921.189 103.383C921.202 103.343 921.212 103.303 921.225 103.262C921.399 105.982 922.253 108.616 923.709 110.921C925.164 113.225 927.175 115.129 929.557 116.456L930.546 124.364C929.656 125.19 928.514 125.694 927.304 125.794C925.557 125.794 923.809 130.451 923.809 130.451C923.809 130.451 922.819 130.95 921.752 133.308C919.003 135.179 910.617 141.055 907.505 145.161C905.665 146.066 903.687 148.08 904.008 152.57C904.591 160.719 904.008 198.555 904.008 198.555C904.008 198.555 898.767 230.57 900.514 232.898C902.261 235.227 899.932 242.794 899.932 242.794L901.679 243.182V245.122C901.679 245.122 896.424 269.47 904.591 268.406C917.986 266.659 908.085 246.868 908.085 246.868V244.605L910.415 245.122C910.415 245.122 911.579 236.973 913.909 236.391C914.719 236.188 915.67 234.012 916.566 231.262C917.089 235.553 917.403 238.137 917.403 238.137L921.047 237.328L922.062 241.047C922.313 241.188 922.574 241.306 922.845 241.402L922.062 245.704C922.062 245.704 921.48 250.361 922.062 253.271C922.356 254.739 933.167 286.113 943.812 316.855L943.611 324.286C943.611 324.286 938.369 330.107 939.534 334.182C940.699 338.256 936.622 372.017 936.622 372.017L933.128 388.898L934.007 389.168L933.2 392.126C932.505 392.477 931.886 392.963 931.381 393.555C926.721 398.793 920.898 413.928 920.898 413.928C920.898 413.928 910.415 429.644 926.721 429.062C943.028 428.48 944.193 422.659 944.193 422.659C944.193 422.659 946.523 407.525 946.523 406.943C946.523 406.361 945.358 400.377 945.358 400.377L944.905 399.878L945.221 392.617L948.27 393.555C948.27 393.555 951.182 378.42 953.511 376.674C954.325 376.064 956.491 369.265 958.965 360.533C961.492 367.808 963.94 392.963 964.735 395.246C964.453 395.63 964.205 396.038 963.994 396.465C961.376 401.486 958.459 406.346 955.258 411.017C955.258 411.017 936.622 422.077 955.258 424.987C955.258 424.987 965.741 425.569 970.983 422.077C976.224 418.584 990.201 413.346 990.201 412.181C990.201 411.017 986.707 393.904 983.213 395.767L980.872 390.386L983.213 389.48L968.468 323.332C968.817 321.922 969.073 320.491 969.236 319.047C969.236 315.999 976.777 256.645 978.696 241.59C987.141 243.981 994.861 226.495 994.861 226.495L996.775 223.051L999.52 224.749C999.52 224.749 1001.85 218.928 1005.34 218.346C1008.84 217.764 1015.24 186.913 1015.24 182.839C1015.19 180.223 1014.6 177.646 1013.5 175.271ZM986.362 220.877C985.789 219.968 985.124 219.12 984.378 218.346C985.9 214.382 987.07 210.292 987.872 206.122C989.037 199.719 986.125 178.764 986.125 178.764L986.074 177.341C988.932 181.091 992.531 186.091 992.531 187.495C992.531 188.173 992.689 188.841 992.992 189.448C993.295 190.054 993.736 190.581 994.278 190.988L990.784 203.212C990.784 203.212 988.454 209.032 987.872 211.943C987.523 213.668 987.328 215.422 987.29 217.182L988.115 217.692L986.362 220.877Z" fill="#D0CDE1"/>
<path d="M746.878 186.045L749.986 185.346L737.173 149.257L709.51 139.07C709.51 139.07 709.404 139.188 709.208 139.39C706.849 137.108 705.847 133.796 705.429 131.189C707.653 130.291 709.652 128.913 711.283 127.154C712.913 125.394 714.135 123.297 714.861 121.011C715.587 118.726 715.799 116.308 715.482 113.931C715.166 111.554 714.328 109.276 713.029 107.26C715.308 106.713 716.122 104.646 716.887 102.182C716.414 102.042 715.93 101.937 715.442 101.867C715.8 101.063 716.159 100.26 716.517 99.4566C715.887 99.4 715.257 99.3435 714.627 99.2869C714.788 98.5359 714.949 97.7848 715.11 97.0337C714.307 97.5881 713.503 98.1425 712.7 98.6968C712.973 97.9083 713.041 97.0634 712.897 96.2415C712.754 95.4196 712.403 94.6477 711.879 93.9983C710.812 92.7097 709.421 91.729 707.848 91.1573C704.772 89.9478 701.423 89.6089 698.167 90.1776C694.911 90.7464 691.875 92.2008 689.392 94.3813L689.218 93.703C684.301 97.4807 681.084 103.053 680.271 109.198C679.5 115.273 682.42 121.458 686.214 126.265C686.182 126.055 686.148 125.845 686.113 125.636C686.277 125.862 686.447 126.084 686.621 126.301L687.088 144.018L685.92 145.019C685.918 145.02 666.318 153.883 665.554 164.469L665.551 164.477C664.375 169.63 663.792 196.406 663.792 196.406H665.405L663.792 206.884L653.31 247.63C653.31 247.63 639.915 265.093 651.562 268.585C658.8 270.755 660.865 262.362 661.392 255.695C661.811 257.348 663.066 258.465 665.54 258.69C665.734 258.707 665.942 258.722 666.143 258.738C660.636 272.964 664.375 319.227 664.375 319.227C661.463 325.048 695.824 365.212 695.824 365.212L697.893 364.109L698.34 365.004C697.189 365.114 696.406 365.212 696.406 365.212V383.257C696.406 383.257 691.165 401.301 698.153 404.794C699.962 405.698 701.848 405.04 703.651 403.572C703.306 409.141 702.812 417.451 702.812 419.346C702.812 422.256 710.383 427.495 710.383 427.495C710.383 427.495 712.131 433.898 726.108 433.898C740.085 433.898 729.602 417.018 729.602 417.018L722.031 400.137C722.031 400.137 721.465 400.414 719.75 399.019L720.364 392.269L723.778 392.57L728.437 324.466C728.437 324.466 732.514 263.928 733.096 254.615C733.233 251.629 733.163 248.637 732.886 245.661L749.986 210.376L746.878 186.045ZM734.261 208.63L732.514 214.715V201.257L734.261 208.63ZM661.554 251.797C661.569 249.664 661.463 248.212 661.463 248.212L672.849 225.452L672.528 232.496C672.528 232.496 663.41 244.024 661.554 251.797ZM688.253 317.481L699.318 278.481L705.724 325.63L705.265 342.771C704.485 341.196 703.859 339.549 703.395 337.854C701.648 330.869 688.253 317.481 688.253 317.481Z" fill="#D0CDE1"/>
<path d="M845.853 410.124C840.396 407.878 829.803 403.065 828.519 400.499C827.235 397.932 820.816 378.041 820.816 378.041L819.162 378.162C818.949 369.126 818.039 334.105 816.643 329.918C816.643 329.918 823.384 274.416 809.902 252.28L807.473 242.472C808.27 238.54 808.168 229.435 807.655 227.897C807.013 225.973 815.038 219.877 812.791 216.027C810.544 212.177 804.446 199.024 804.446 199.024C804.446 199.024 805.087 190.682 796.421 182.983C796.421 182.983 793.888 168.652 782.476 168.438C780.933 165.747 778.773 161.468 779.409 159.563C780.089 157.523 782.69 151.163 784.16 147.603C784.94 147.251 785.69 146.834 786.4 146.357C795.477 142.292 801.875 132.521 801.875 121.107C801.875 108.888 794.546 98.5465 784.445 95.079C784.895 93.8937 785.079 92.6241 784.984 91.36C784.889 90.0958 784.517 88.8679 783.895 87.7631C783.273 86.6582 782.416 85.7033 781.385 84.9658C780.353 84.2283 779.172 83.7262 777.925 83.4951C776.678 83.2639 775.395 83.3093 774.168 83.628C772.94 83.9467 771.797 84.531 770.82 85.3395C769.844 86.1481 769.056 87.1611 768.514 88.3072C767.972 89.4533 767.688 90.7043 767.683 91.972C767.128 90.656 766.907 89.223 767.04 87.8009C767.174 86.3788 767.658 85.0119 768.449 83.8222C769.239 82.6325 770.313 81.657 771.573 80.9829C772.833 80.3088 774.24 79.957 775.669 79.9589C776.231 79.9597 776.793 80.015 777.344 80.124C775.441 79.2195 773.274 79.0395 771.248 79.6179C769.221 80.1963 767.476 81.4934 766.338 83.266C765.2 85.0386 764.748 87.1652 765.066 89.2472C765.385 91.3291 766.452 93.2236 768.067 94.5755C768.167 94.8923 768.285 95.2031 768.421 95.5062C758.916 99.3397 752.136 109.355 752.136 121.107C752.136 132.008 757.972 141.411 766.402 145.776C766.357 149.322 765.478 155.3 760.585 158.944C758.057 157.789 754.55 156.522 752.299 157.097C751.135 156.19 749.379 155.891 746.989 158.279C742.174 163.092 738.002 175.604 738.002 183.303C738.002 191.003 738.965 235.597 738.965 235.597C738.965 235.597 733.829 237.522 737.36 240.409C738.089 241.017 739.004 241.356 739.953 241.373L743.458 267.358C743.458 267.358 741.211 292.382 749.878 292.703C750.558 292.741 751.233 292.575 751.818 292.227L745.384 321.256C745.384 321.256 730.619 330.881 719.064 349.809C713.112 359.559 710.144 365.556 708.662 369.087L706.545 367.775L699.162 381.891C699.162 381.891 682.792 391.837 686.323 399.216C689.854 406.595 693.064 408.52 693.064 408.52L695.311 407.557L699.483 415.257C699.483 415.257 710.397 430.977 728.051 422.956C728.88 421.844 729.327 420.494 729.327 419.107C729.327 417.72 728.88 416.37 728.051 415.257C725.162 411.086 717.78 402.103 717.78 402.103L722.594 377.721L721.598 377.103L752.125 340.185C752.125 340.185 761.113 334.731 764.322 329.918C767.532 325.106 787.433 275.379 787.433 275.379L798.668 327.352C798.668 327.352 798.026 346.28 800.915 358.472C802.489 365.31 803.516 372.263 803.985 379.265L803.162 379.325L805.087 393.762C805.087 393.762 796.742 414.294 802.52 415.898C806.63 416.96 810.815 417.71 815.038 418.144L815.68 415.898C815.68 415.898 840.396 429.373 849.383 419.427C849.383 419.427 851.309 412.369 845.853 410.124ZM757.903 252.601C758.866 253.563 758.545 258.055 758.545 258.055L756.619 270.567L754.695 279.245C754.429 275.145 753.892 271.067 753.088 267.038L752.199 243.06C752.374 243.17 752.566 243.25 752.767 243.297C753.409 243.297 753.088 237.843 753.088 237.843C753.088 237.843 753.462 236.869 753.93 235.332C755.178 239.066 756.701 241.502 758.545 242.014L758.866 246.184C758.866 246.184 754.693 248.109 758.545 248.109C758.768 248.101 758.99 248.068 759.206 248.011L758.866 249.713C758.866 249.713 756.94 251.638 757.903 252.601Z" fill="#D0CDE1"/>
<path d="M840.366 425.069C982.87 425.069 1098.39 423.166 1098.39 420.818C1098.39 418.47 982.87 416.567 840.366 416.567C697.862 416.567 582.34 418.47 582.34 420.818C582.34 423.166 697.862 425.069 840.366 425.069Z" fill="#3F3D56"/>
<path d="M930.675 442.781C1087.43 442.781 1214.5 437.865 1214.5 431.8C1214.5 425.735 1087.43 420.818 930.675 420.818C773.921 420.818 646.848 425.735 646.848 431.8C646.848 437.865 773.921 442.781 930.675 442.781Z" fill="#3F3D56"/>
<path d="M878.292 459.077C955.22 459.077 1017.58 454.16 1017.58 448.095C1017.58 442.03 955.22 437.113 878.292 437.113C801.363 437.113 739 442.03 739 448.095C739 454.16 801.363 459.077 878.292 459.077Z" fill="#3F3D56"/>
<path d="M1079.61 466.87C1113.86 466.87 1141.63 464.333 1141.63 461.202C1141.63 458.072 1113.86 455.534 1079.61 455.534C1045.35 455.534 1017.58 458.072 1017.58 461.202C1017.58 464.333 1045.35 466.87 1079.61 466.87Z" fill="#3F3D56"/>
<path d="M994.545 486C1010.79 486 1023.96 483.462 1023.96 480.332C1023.96 477.202 1010.79 474.664 994.545 474.664C978.298 474.664 965.127 477.202 965.127 480.332C965.127 483.462 978.298 486 994.545 486Z" fill="#3F3D56"/>
<path d="M754.949 461.911C771.196 461.911 784.367 459.373 784.367 456.243C784.367 453.112 771.196 450.575 754.949 450.575C738.702 450.575 725.531 453.112 725.531 456.243C725.531 459.373 738.702 461.911 754.949 461.911Z" fill="#3F3D56"/>
<path d="M900.266 392.124L903.101 411.962L917.278 410.545L915.861 389.998L900.266 392.124Z" fill="#FFB8B8"/>
<path d="M832.923 392.124L830.087 411.962L815.91 410.545L817.328 389.998L832.923 392.124Z" fill="#FFB8B8"/>
<path d="M812.366 186.658C812.366 186.658 799.607 201.537 802.442 224.918C805.278 248.298 810.24 301.436 810.24 301.436L813.784 395.666L836.468 394.249L840.012 314.189L851.354 249.715L881.835 324.816C881.835 324.816 896.721 394.958 897.43 394.958C898.139 394.958 918.696 392.832 918.696 392.832L908.772 309.938C908.772 309.938 893.177 189.492 883.962 187.367C874.746 185.241 812.366 186.658 812.366 186.658Z" fill="#2F2E41"/>
<path d="M918.695 407.711C918.695 407.711 905.936 399.209 900.974 409.128C896.012 419.047 900.265 426.132 900.265 426.132C900.265 426.132 904.518 428.966 902.392 431.8C900.265 434.634 899.556 453.055 917.986 450.221C936.417 447.387 927.202 428.257 927.202 428.257L918.695 407.711Z" fill="#2F2E41"/>
<path d="M814.494 407.711C814.494 407.711 827.253 399.209 832.215 409.128C837.177 419.047 832.924 426.132 832.924 426.132C832.924 426.132 828.671 428.966 830.798 431.8C832.924 434.634 833.633 453.055 815.203 450.221C796.772 447.387 805.987 428.257 805.987 428.257L814.494 407.711Z" fill="#2F2E41"/>
<path d="M829.734 48.855C829.734 48.855 836.114 66.5675 831.152 76.4865C826.19 86.4056 838.95 97.7416 838.95 97.7416C838.95 97.7416 872.266 80.7375 868.013 72.2355C863.76 63.7335 856.671 52.3975 858.089 45.3125L829.734 48.855Z" fill="#FFB8B8"/>
<path d="M842.139 55.5858C854.667 55.5858 864.822 45.4351 864.822 32.9137C864.822 20.3923 854.667 10.2417 842.139 10.2417C829.611 10.2417 819.455 20.3923 819.455 32.9137C819.455 45.4351 829.611 55.5858 842.139 55.5858Z" fill="#FFB8B8"/>
<path d="M825.834 75.4238C825.834 75.4238 848.594 94.3538 865.569 67.5305L883.252 77.5493L892.467 185.241C892.467 185.241 840.72 214.998 815.91 189.492L819.454 89.5938L825.834 75.4238Z" fill="#D0CDE1"/>
<path d="M832.982 64.8193L801.025 86.051L812.367 138.48L797.48 219.958L821.582 183.824L832.982 64.8193Z" fill="#575A89"/>
<path d="M861.227 58.9097L869.076 64.0877L900.975 75.4237L896.013 163.278L909.481 219.958L890.342 229.877C890.342 229.877 886.798 202.954 864.823 189.492C842.848 176.031 856.213 62.9421 861.227 58.9097Z" fill="#575A89"/>
<path d="M808.114 196.577L817.329 202.954C817.329 202.954 805.633 215.353 803.506 213.227C802.891 212.637 802.413 211.918 802.107 211.122C801.8 210.326 801.673 209.472 801.734 208.622L799.607 203.662L808.114 196.577Z" fill="#FFB8B8"/>
<path d="M869.372 195.199L866.239 200.12C866.239 200.12 857.024 204.371 859.151 207.205C861.277 210.039 878.999 216.416 882.543 210.039L886.087 203.663L869.372 195.199Z" fill="#FFB8B8"/>
<path d="M805.278 85.3428L800.316 86.0513L792.164 138.835C792.164 138.835 788.974 148.399 792.518 171.071C796.063 193.743 799.573 208.507 799.573 208.507L815.202 197.286L808.113 178.865L817.329 111.557L805.278 85.3428Z" fill="#575A89"/>
<path d="M889.633 74.0068L900.975 75.4238C900.975 75.4238 913.734 88.8854 915.861 103.055C917.987 117.225 917.278 157.61 917.278 157.61L884.671 209.33L866.949 196.577L891.759 152.65L879.709 100.221L889.633 74.0068Z" fill="#575A89"/>
<path d="M863.77 12.4081C860.34 6.84072 854.971 2.73819 848.696 0.890074L844.087 4.5752L845.879 0.276914C844.372 0.0471587 842.847 -0.0409382 841.324 0.0137773L837.177 5.34259L838.894 0.196308C835.295 0.643237 831.829 1.83049 828.712 3.6832C825.596 5.53591 822.898 8.01389 820.787 10.9609C815.51 18.567 814.619 29.1448 819.81 36.8105C821.235 32.4336 822.964 28.3267 824.389 23.9498C825.509 24.1024 826.644 24.1079 827.766 23.9662L829.499 19.9231L829.984 23.7952C835.357 23.3273 843.327 22.3 848.422 21.3588L847.926 18.3883L850.89 20.8568C852.451 20.4976 853.377 20.172 853.301 19.9231C857.089 26.0278 860.844 29.927 864.632 36.0317C866.07 27.4208 868.609 20.2632 863.77 12.4081Z" fill="#2F2E41"/>
<path d="M862.514 35.271C863.362 35.271 864.05 33.8967 864.05 32.2014C864.05 30.5061 863.362 29.1318 862.514 29.1318C861.666 29.1318 860.979 30.5061 860.979 32.2014C860.979 33.8967 861.666 35.271 862.514 35.271Z" fill="#FFB8B8"/>
<path d="M1107.87 432.919C1108.52 455.278 1095.45 463.472 1079.05 463.951C1078.67 463.962 1078.29 463.969 1077.91 463.971C1077.15 463.977 1076.4 463.965 1075.65 463.933C1060.81 463.318 1049.07 455.447 1048.46 434.653C1047.84 413.134 1074.56 385.174 1076.56 383.106L1076.57 383.104C1076.64 383.025 1076.68 382.986 1076.68 382.986C1076.68 382.986 1107.22 410.562 1107.87 432.919Z" fill="#F04B5D"/>
<path d="M1077.87 460.562L1088.29 445.074L1077.89 462.229L1077.91 463.971C1077.15 463.977 1076.4 463.965 1075.65 463.933L1076.17 441.531L1076.15 441.358L1076.17 441.325L1076.22 439.208L1064.81 422.649L1076.21 437.624L1076.25 438.071L1076.64 421.145L1066.78 403.977L1076.67 418.172L1076.56 383.106L1076.56 382.989L1076.57 383.104L1077.22 410.741L1086.2 399.515L1077.25 413.122L1077.45 428.261L1085.71 413.485L1077.48 430.487L1077.59 438.906L1089.61 418.323L1077.62 441.842L1077.87 460.562Z" fill="#3F3D56"/>
<path d="M727.918 399.62C728.572 421.979 715.501 430.173 699.097 430.652C698.716 430.663 698.337 430.67 697.959 430.672C697.198 430.678 696.445 430.665 695.699 430.634C680.864 430.019 669.12 422.148 668.513 401.354C667.884 379.835 694.608 351.875 696.613 349.807L696.616 349.805C696.692 349.726 696.731 349.687 696.731 349.687C696.731 349.687 727.265 377.263 727.918 399.62Z" fill="#F04B5D"/>
<path d="M697.916 427.263L708.337 411.775L697.938 428.929L697.959 430.672C697.199 430.678 696.445 430.665 695.7 430.634L696.216 408.232L696.202 408.059L696.221 408.026L696.271 405.909L684.859 389.349L696.257 404.324L696.298 404.772L696.688 387.846L686.832 370.678L696.716 384.873L696.613 349.807L696.613 349.69L696.617 349.805L697.271 377.441L706.254 366.215L697.3 379.822L697.496 394.962L705.762 380.186L697.527 397.188L697.636 405.606L709.657 385.024L697.672 408.543L697.916 427.263Z" fill="#3F3D56"/>
<path d="M1011.83 464.441C1012.21 477.565 1004.54 482.375 994.914 482.656C994.69 482.663 994.467 482.667 994.246 482.668C993.799 482.671 993.357 482.664 992.919 482.646C984.211 482.284 977.318 477.664 976.961 465.459C976.592 452.828 992.278 436.416 993.455 435.202L993.457 435.201C993.502 435.155 993.525 435.131 993.525 435.131C993.525 435.131 1011.45 451.318 1011.83 464.441Z" fill="#F04B5D"/>
<path d="M994.221 480.667L1000.34 471.576L994.233 481.645L994.246 482.668C993.8 482.671 993.357 482.664 992.919 482.646L993.223 469.496L993.215 469.395L993.226 469.375L993.255 468.132L986.557 458.412L993.247 467.202L993.271 467.465L993.5 457.53L987.714 447.453L993.516 455.785L993.456 435.202L993.456 435.133L993.458 435.201L993.842 451.423L999.115 444.833L993.859 452.82L993.974 461.707L998.826 453.034L993.992 463.013L994.056 467.955L1001.11 455.873L994.077 469.679L994.221 480.667Z" fill="#3F3D56"/>
<path d="M1249.94 36.2661C1249.96 36.2015 1249.98 36.1361 1250 36.0713C1249.99 36.0997 1249.98 36.127 1249.97 36.1555L1249.94 36.2661Z" fill="#2F2E41"/>
<path d="M1150.88 412.212L1203.38 334.173L1150.99 420.607L1151.1 429.388C1147.26 429.418 1143.47 429.354 1139.71 429.197L1142.31 316.319L1142.24 315.448L1142.34 315.28L1142.59 304.614L1085.09 221.176L1142.52 296.63L1142.72 298.885L1144.69 213.601L1095.03 127.095L1144.83 198.619L1144.31 21.933L1144.31 21.345L1144.33 21.9233L1147.63 161.176L1192.89 104.611L1147.78 173.172L1148.76 249.457L1190.41 175.006L1148.92 260.672L1149.47 303.09L1210.04 199.381L1149.65 317.887L1150.88 412.212Z" fill="#3F3D56"/>
<path d="M614.768 409.187L650.496 356.084L614.841 414.9L614.916 420.875C612.308 420.895 609.725 420.851 607.167 420.745L608.939 343.934L608.891 343.342L608.956 343.227L609.126 335.969L570 279.192L609.08 330.537L609.218 332.071L610.557 274.038L576.763 215.173L610.653 263.843L610.299 143.613L610.3 143.213L610.312 143.607L612.555 238.364L643.354 199.874L612.656 246.527L613.328 298.436L641.67 247.775L613.432 306.068L613.806 334.932L655.023 264.361L613.931 345.002L614.768 409.187Z" fill="#3F3D56"/>
</g>
<defs>
<clipPath id="clip0">
<rect x="570" width="680" height="486" fill="white"/>
</clipPath>
</defs>
</svg>
