<svg width="522" height="305" viewBox="0 0 522 305" fill="none" xmlns="http://www.w3.org/2000/svg">
<path d="M25.3627 176H31.8427L33.3907 170.6H41.4187L43.0027 176H49.4827L40.7347 150.26H34.1107L25.3627 176ZM34.8667 165.56L36.3427 160.556C36.8107 158.936 37.3867 156.128 37.3867 156.128H37.4587C37.4587 156.128 38.0347 158.936 38.5027 160.556L39.9427 165.56H34.8667ZM59.421 166.712C59.421 171.644 62.985 176.432 69.609 176.432C72.453 176.432 75.513 175.46 77.529 173.732L75.225 169.376C73.713 170.384 71.949 171.248 70.113 171.248C68.133 171.248 66.261 170.204 65.793 167.936H77.493C77.565 167.288 77.637 166.64 77.637 165.992C77.637 160.844 74.541 157.028 69.069 157.028C63.093 157.028 59.421 161.276 59.421 166.712ZM65.937 164.372C66.261 162.896 67.125 161.6 68.925 161.6C70.509 161.6 71.481 162.86 71.481 164.372H65.937ZM80.8907 176H103.967V180.32H109.511V170.78H106.847V157.46H100.979V170.78H96.8027V157.46H90.9347V170.78H86.7587V157.46H80.8907V176ZM111.136 166.712C111.136 171.644 114.7 176.432 121.324 176.432C124.168 176.432 127.228 175.46 129.244 173.732L126.94 169.376C125.428 170.384 123.664 171.248 121.828 171.248C119.848 171.248 117.976 170.204 117.508 167.936H129.208C129.28 167.288 129.352 166.64 129.352 165.992C129.352 160.844 126.256 157.028 120.784 157.028C114.808 157.028 111.136 161.276 111.136 166.712ZM117.652 164.372C117.976 162.896 118.84 161.6 120.64 161.6C122.224 161.6 123.196 162.86 123.196 164.372H117.652ZM140.814 176H146.754L147.186 167.468C147.258 166.028 147.15 164.3 147.15 164.3H147.222C147.222 164.3 147.906 165.848 148.302 167.036L150.75 173.516H155.79L158.238 167.036C158.706 165.884 159.246 164.3 159.246 164.3H159.318C159.318 164.3 159.246 166.028 159.282 167.468L159.714 176H165.69L163.926 157.46H156.762L154.026 165.596C153.702 166.532 153.27 167.756 153.27 167.756H153.234C153.234 167.756 152.838 166.532 152.514 165.596L149.778 157.46H142.578L140.814 176ZM187.567 176H193.795V157.46H187.567V176ZM169.063 176H178.099C183.283 176 185.443 173.444 185.443 169.664C185.443 165.92 183.283 163.256 178.099 163.256H175.291V157.46H169.063V176ZM175.291 171.932V167.288H176.839C178.423 167.288 179.215 168.332 179.215 169.628C179.215 170.924 178.423 171.932 176.947 171.932H175.291ZM206.961 176H217.077C220.749 176 224.133 174.56 224.133 170.492C224.133 168.872 223.341 167.036 221.217 166.388V166.352C222.621 165.524 223.377 163.868 223.377 162.32C223.377 159.116 220.785 157.46 217.077 157.46H206.961V176ZM213.189 164.768V161.312H215.457C216.681 161.312 217.185 162.068 217.185 162.932C217.185 163.904 216.681 164.768 215.529 164.768H213.189ZM213.189 172.112V168.404H215.961C217.293 168.404 217.905 169.268 217.905 170.276C217.905 171.212 217.257 172.112 215.925 172.112H213.189ZM226.308 166.712C226.308 171.644 229.872 176.432 236.496 176.432C239.34 176.432 242.4 175.46 244.416 173.732L242.112 169.376C240.6 170.384 238.836 171.248 237 171.248C235.02 171.248 233.148 170.204 232.68 167.936H244.38C244.452 167.288 244.524 166.64 244.524 165.992C244.524 160.844 241.428 157.028 235.956 157.028C229.98 157.028 226.308 161.276 226.308 166.712ZM232.824 164.372C233.148 162.896 234.012 161.6 235.812 161.6C237.396 161.6 238.368 162.86 238.368 164.372H232.824ZM254.477 171.068C255.773 168.584 256.133 165.884 256.133 163.076V162.392H259.337V171.068H254.477ZM246.053 171.068V180.32H251.813V176H262.685V180.32H268.229V171.068H265.565V157.46H250.265V161.924C250.265 165.668 249.581 168.98 248.357 171.068H246.053ZM269.831 166.712C269.831 171.644 273.395 176.432 280.019 176.432C282.863 176.432 285.923 175.46 287.939 173.732L285.635 169.376C284.123 170.384 282.359 171.248 280.523 171.248C278.543 171.248 276.671 170.204 276.203 167.936H287.903C287.975 167.288 288.047 166.64 288.047 165.992C288.047 160.844 284.951 157.028 279.479 157.028C273.503 157.028 269.831 161.276 269.831 166.712ZM276.347 164.372C276.671 162.896 277.535 161.6 279.335 161.6C280.919 161.6 281.891 162.86 281.891 164.372H276.347ZM290.509 176H296.449L296.881 167.468C296.953 166.028 296.845 164.3 296.845 164.3H296.917C296.917 164.3 297.601 165.848 297.997 167.036L300.445 173.516H305.485L307.933 167.036C308.401 165.884 308.941 164.3 308.941 164.3H309.013C309.013 164.3 308.941 166.028 308.977 167.468L309.409 176H315.385L313.621 157.46H306.457L303.721 165.596C303.397 166.532 302.965 167.756 302.965 167.756H302.929C302.929 167.756 302.533 166.532 302.209 165.596L299.473 157.46H292.273L290.509 176ZM326.714 166.784C326.714 172.58 331.394 176.432 337.226 176.432C343.058 176.432 347.738 172.58 347.738 166.784C347.738 160.952 343.058 157.028 337.19 157.028C331.394 157.028 326.714 160.952 326.714 166.784ZM333.014 166.784C333.014 163.976 334.958 162.212 337.226 162.212C339.494 162.212 341.438 163.976 341.438 166.784C341.438 169.556 339.494 171.248 337.226 171.248C334.958 171.248 333.014 169.556 333.014 166.784ZM350.028 164.912C350.028 171.716 353.376 176.432 360.072 176.432C365.94 176.432 369.648 172.544 369.648 167.432C369.648 162.464 366.624 158.936 361.656 158.936C360.036 158.936 357.804 159.368 356.22 160.7H356.148C356.256 158.036 358.776 157.028 361.152 156.236L368.136 154.004L366.372 149L360.36 151.016C353.124 153.5 350.028 157.352 350.028 164.912ZM356.22 167.54C356.22 165.128 357.876 163.616 359.82 163.616C361.764 163.616 363.42 165.128 363.42 167.54C363.42 169.916 361.764 171.356 359.82 171.356C357.876 171.356 356.22 169.916 356.22 167.54ZM372.411 177.692L370.431 182.264C370.431 182.264 372.303 183.56 374.751 183.56C377.703 183.56 380.943 182.12 382.491 177.98L390.087 157.46H383.283L380.943 166.1C380.691 167.108 380.331 168.872 380.331 168.872H380.259C380.259 168.872 379.899 167 379.575 165.992L376.839 157.46H369.783L377.667 175.64L377.307 176.504C376.659 178.088 375.327 178.376 374.319 178.376C373.419 178.376 372.411 177.692 372.411 177.692ZM397.738 170.312C400.006 170.312 401.662 169.808 402.706 169.34H402.778C402.778 169.34 402.742 169.808 402.742 170.204V176H408.97V157.46H402.742V164.336C402.13 164.768 401.194 165.236 399.934 165.236C398.386 165.236 397.558 164.336 397.558 162.752V157.46H391.438V163.94C391.438 168.8 394.75 170.312 397.738 170.312ZM412.108 166.712C412.108 171.644 415.672 176.432 422.296 176.432C425.14 176.432 428.2 175.46 430.216 173.732L427.912 169.376C426.4 170.384 424.636 171.248 422.8 171.248C420.82 171.248 418.948 170.204 418.48 167.936H430.18C430.252 167.288 430.324 166.64 430.324 165.992C430.324 160.844 427.228 157.028 421.756 157.028C415.78 157.028 412.108 161.276 412.108 166.712ZM418.624 164.372C418.948 162.896 419.812 161.6 421.612 161.6C423.196 161.6 424.168 162.86 424.168 164.372H418.624ZM433.578 176H439.806V169.232H445.53V176H451.758V157.46H445.53V164.012H439.806V157.46H433.578V176ZM455.938 176H461.986L467.134 167.864C467.422 167.36 467.818 166.784 468.142 166.028H468.214C468.142 166.748 468.142 167.468 468.142 167.9V176H474.01V157.46H467.962L462.814 165.632C462.49 166.172 462.13 166.712 461.806 167.468H461.734C461.77 167 461.806 166.28 461.806 165.632V157.46H455.938V176ZM477.148 166.712C477.148 171.644 480.712 176.432 487.336 176.432C490.18 176.432 493.24 175.46 495.256 173.732L492.952 169.376C491.44 170.384 489.676 171.248 487.84 171.248C485.86 171.248 483.988 170.204 483.52 167.936H495.22C495.292 167.288 495.364 166.64 495.364 165.992C495.364 160.844 492.268 157.028 486.796 157.028C480.82 157.028 477.148 161.276 477.148 166.712ZM483.664 164.372C483.988 162.896 484.852 161.6 486.652 161.6C488.236 161.6 489.208 162.86 489.208 164.372H483.664ZM20.0704 218H26.2984V211.232H32.0224V218H38.2504V199.46H32.0224V206.012H26.2984V199.46H20.0704V218ZM41.3858 208.712C41.3858 213.644 44.9498 218.432 51.5738 218.432C54.4178 218.432 57.4778 217.46 59.4938 215.732L57.1898 211.376C55.6778 212.384 53.9138 213.248 52.0778 213.248C50.0978 213.248 48.2258 212.204 47.7578 209.936H59.4578C59.5298 209.288 59.6018 208.64 59.6018 207.992C59.6018 202.844 56.5058 199.028 51.0338 199.028C45.0578 199.028 41.3858 203.276 41.3858 208.712ZM47.9018 206.372C48.2258 204.896 49.0898 203.6 50.8898 203.6C52.4738 203.6 53.4458 204.86 53.4458 206.372H47.9018ZM75.9236 218H82.1516V204.68H87.8036V199.46H70.3076V204.68H75.9236V218ZM89.1631 208.784C89.1631 214.58 93.8431 218.432 99.6751 218.432C105.507 218.432 110.187 214.58 110.187 208.784C110.187 202.952 105.507 199.028 99.6391 199.028C93.8431 199.028 89.1631 202.952 89.1631 208.784ZM95.4631 208.784C95.4631 205.976 97.4071 204.212 99.6751 204.212C101.943 204.212 103.887 205.976 103.887 208.784C103.887 211.556 101.943 213.248 99.6751 213.248C97.4071 213.248 95.4631 211.556 95.4631 208.784ZM111.409 218.18C118.609 218.18 120.769 212.996 120.769 205.436V204.392H123.865V218H130.093V199.46H114.901V205.4C114.901 211.772 113.065 212.528 111.409 212.744V218.18ZM134.258 218H143.51C148.694 218 150.854 215.444 150.854 211.664C150.854 207.92 148.694 205.256 143.51 205.256H140.486V199.46H134.258V218ZM140.486 213.932V209.288H142.25C143.834 209.288 144.626 210.332 144.626 211.628C144.626 212.924 143.834 213.932 142.358 213.932H140.486ZM153.594 218H159.822V211.196H161.766L165.69 218H172.782L166.59 208.352V208.28L172.026 199.46H165.258L161.586 205.976H159.822V199.46H153.594V218ZM173.046 208.784C173.046 214.58 177.726 218.432 183.558 218.432C189.39 218.432 194.07 214.58 194.07 208.784C194.07 202.952 189.39 199.028 183.522 199.028C177.726 199.028 173.046 202.952 173.046 208.784ZM179.346 208.784C179.346 205.976 181.29 204.212 183.558 204.212C185.826 204.212 187.77 205.976 187.77 208.784C187.77 211.556 185.826 213.248 183.558 213.248C181.29 213.248 179.346 211.556 179.346 208.784ZM206.188 218H212.416V211.232H218.14V218H224.368V199.46H218.14V206.012H212.416V199.46H206.188V218ZM227.215 212.78C227.215 215.984 229.699 218.432 233.263 218.432C235.387 218.432 237.547 217.46 238.771 215.732H238.843C238.843 215.732 238.771 216.272 238.771 216.884V218H244.459V206.588C244.459 201.872 241.291 199.028 236.179 199.028C233.155 199.028 229.915 200.216 228.331 201.44L230.491 205.832C231.967 204.86 233.803 204.068 235.603 204.068C236.971 204.068 238.231 204.572 238.231 206.12V206.444H237.691C233.119 206.444 227.215 207.812 227.215 212.78ZM233.371 212.204C233.371 210.512 235.819 210.008 237.727 210.008H238.303V210.512C238.303 212.024 236.935 213.788 235.135 213.788C233.983 213.788 233.371 213.068 233.371 212.204ZM257.41 225.2H263.638V218.252C263.638 217.316 263.566 216.668 263.566 216.668H263.638C264.97 217.82 266.626 218.432 268.354 218.432C273.286 218.432 276.994 214.616 276.994 208.748C276.994 202.988 273.682 199.028 268.642 199.028C266.41 199.028 264.286 199.892 263.026 201.584H262.954C262.954 201.584 263.026 201.008 263.026 200.396V199.46H257.41V225.2ZM263.458 208.856C263.458 205.652 265.222 204.284 267.094 204.284C269.254 204.284 270.73 206.084 270.73 208.856C270.73 211.7 269.038 213.284 267.094 213.284C264.646 213.284 263.458 211.088 263.458 208.856ZM279.914 219.692L277.934 224.264C277.934 224.264 279.806 225.56 282.254 225.56C285.206 225.56 288.446 224.12 289.994 219.98L297.59 199.46H290.786L288.446 208.1C288.194 209.108 287.834 210.872 287.834 210.872H287.762C287.762 210.872 287.402 209 287.078 207.992L284.342 199.46H277.286L285.17 217.64L284.81 218.504C284.162 220.088 282.83 220.376 281.822 220.376C280.922 220.376 279.914 219.692 279.914 219.692ZM298.237 208.712C298.237 213.824 301.945 218.432 308.569 218.432C311.665 218.432 314.689 217.244 316.525 215.372L314.257 211.016C312.925 212.168 310.981 213.248 309.181 213.248C306.049 213.248 304.537 210.836 304.537 208.64C304.537 206.444 306.013 204.212 308.965 204.212C310.585 204.212 312.241 204.968 313.321 206.012L315.949 201.836C314.113 199.856 311.161 199.028 308.569 199.028C301.909 199.028 298.237 203.744 298.237 208.712ZM317.714 208.712C317.714 213.824 321.422 218.432 328.046 218.432C331.142 218.432 334.166 217.244 336.002 215.372L333.734 211.016C332.402 212.168 330.458 213.248 328.658 213.248C325.526 213.248 324.014 210.836 324.014 208.64C324.014 206.444 325.49 204.212 328.442 204.212C330.062 204.212 331.718 204.968 332.798 206.012L335.426 201.836C333.59 199.856 330.638 199.028 328.046 199.028C321.386 199.028 317.714 203.744 317.714 208.712ZM338.621 218H344.849V211.196H346.793L350.717 218H357.809L351.617 208.352V208.28L357.053 199.46H350.285L346.613 205.976H344.849V199.46H338.621V218ZM358.073 208.784C358.073 214.58 362.753 218.432 368.585 218.432C374.417 218.432 379.097 214.58 379.097 208.784C379.097 202.952 374.417 199.028 368.549 199.028C362.753 199.028 358.073 202.952 358.073 208.784ZM364.373 208.784C364.373 205.976 366.317 204.212 368.585 204.212C370.853 204.212 372.797 205.976 372.797 208.784C372.797 211.556 370.853 213.248 368.585 213.248C366.317 213.248 364.373 211.556 364.373 208.784ZM381.423 218H387.363L387.795 209.468C387.867 208.028 387.759 206.3 387.759 206.3H387.831C387.831 206.3 388.515 207.848 388.911 209.036L391.359 215.516H396.399L398.847 209.036C399.315 207.884 399.855 206.3 399.855 206.3H399.927C399.927 206.3 399.855 208.028 399.891 209.468L400.323 218H406.299L404.535 199.46H397.371L394.635 207.596C394.311 208.532 393.879 209.756 393.879 209.756H393.843C393.843 209.756 393.447 208.532 393.123 207.596L390.387 199.46H383.187L381.423 218ZM407.98 221.996H412.552L416.62 212.024H410.68L407.98 221.996ZM429.395 218H435.623V211.232H441.347V218H447.575V199.46H441.347V206.012H435.623V199.46H429.395V218ZM450.71 208.784C450.71 214.58 455.39 218.432 461.222 218.432C467.054 218.432 471.734 214.58 471.734 208.784C471.734 202.952 467.054 199.028 461.186 199.028C455.39 199.028 450.71 202.952 450.71 208.784ZM457.01 208.784C457.01 205.976 458.954 204.212 461.222 204.212C463.49 204.212 465.434 205.976 465.434 208.784C465.434 211.556 463.49 213.248 461.222 213.248C458.954 213.248 457.01 211.556 457.01 208.784ZM483.852 218H489.9L495.048 209.864C495.336 209.36 495.732 208.784 496.056 208.028H496.128C496.056 208.748 496.056 209.468 496.056 209.9V218H501.924V199.46H495.876L490.728 207.632C490.404 208.172 490.044 208.712 489.72 209.468H489.648C489.684 209 489.72 208.28 489.72 207.632V199.46H483.852V218Z" fill="#222224"/>
<path d="M140.57 294H142.898V288.792H149.042V294H151.37V281.856H149.042V286.8H142.898V281.856H140.57V294ZM153.952 290.688C153.952 292.968 155.896 294.288 158.008 294.288C159.808 294.288 161.296 293.208 161.992 291.816H162.04C162.04 291.816 161.968 292.224 161.968 292.776V294H164.152V286.32C164.152 283.248 162.4 281.568 159.352 281.568C157.648 281.568 155.8 282.192 154.816 283.008L155.752 284.712C156.736 284.016 157.96 283.536 159.16 283.536C160.672 283.536 161.824 284.208 161.824 286.2V286.44H161.2C158.68 286.44 153.952 286.872 153.952 290.688ZM156.28 290.496C156.28 288.264 159.496 288.12 161.224 288.12H161.824V288.576C161.824 290.376 160.6 292.44 158.56 292.44C157.048 292.44 156.28 291.456 156.28 290.496ZM171.985 294H175.153L176.593 289.632H182.569L184.033 294H187.201L181.225 276.96H177.961L171.985 294ZM177.361 287.112L178.897 282.552C179.185 281.592 179.569 279.912 179.569 279.912H179.617C179.617 279.912 180.001 281.592 180.289 282.552L181.801 287.112H177.361ZM189.034 294H192.082V289.056H197.314V294H200.362V281.76H197.314V286.488H192.082V281.76H189.034V294ZM203.636 294H206.684V284.352H211.676V281.76H203.636V294ZM211.789 294.12C215.845 294 217.261 290.928 217.261 285.6V284.232H220.237V294H223.285V281.76H214.357V285.6C214.357 289.944 213.301 291.216 211.789 291.432V294.12ZM226.558 294H229.51L234.046 287.472C234.358 286.992 234.814 286.344 234.958 286.008H235.006C234.982 286.32 234.934 287.016 234.934 287.472V294H237.838V281.76H234.886L230.35 288.312C230.038 288.792 229.582 289.464 229.438 289.776H229.39C229.414 289.584 229.462 288.864 229.462 288.312V281.76H226.558V294ZM246.752 280.584C248.84 280.584 250.688 279.384 250.688 277.272V276.96H248.384V277.248C248.384 278.304 247.544 278.784 246.752 278.784C245.96 278.784 245.144 278.304 245.144 277.272V276.96H242.816V277.272C242.816 279.384 244.664 280.584 246.752 280.584ZM241.112 294H244.064L248.6 287.472C248.912 286.992 249.368 286.344 249.512 286.008H249.56C249.536 286.32 249.488 287.016 249.488 287.472V294H252.392V281.76H249.44L244.904 288.312C244.592 288.792 244.136 289.464 243.992 289.776H243.944C243.968 289.584 244.016 288.864 244.016 288.312V281.76H241.112V294ZM254.923 287.88C254.923 291.432 257.515 294.288 261.571 294.288C263.539 294.288 265.459 293.52 266.611 292.296L265.435 290.136C264.523 291.024 263.131 291.696 261.835 291.696C259.483 291.696 258.019 289.92 258.019 287.856C258.019 285.768 259.483 284.064 261.739 284.064C262.939 284.064 264.139 284.616 264.907 285.384L266.275 283.296C265.099 282.024 263.227 281.472 261.571 281.472C257.515 281.472 254.923 284.4 254.923 287.88ZM268.816 294H271.864V289.032H273.448L276.664 294H280.192L275.824 287.64V287.592L279.712 281.76H276.328L273.352 286.44H271.864V281.76H268.816V294ZM280.728 287.88C280.728 291.648 283.728 294.288 287.448 294.288C291.168 294.288 294.168 291.648 294.168 287.88C294.168 284.136 291.168 281.472 287.424 281.472C283.728 281.472 280.728 284.136 280.728 287.88ZM283.824 287.88C283.824 285.624 285.456 284.064 287.448 284.064C289.44 284.064 291.096 285.624 291.096 287.88C291.096 290.16 289.44 291.696 287.448 291.696C285.456 291.696 283.824 290.16 283.824 287.88ZM296.179 294H299.107L299.539 287.376C299.587 286.56 299.515 285.288 299.515 285.288H299.563C299.563 285.288 299.971 286.248 300.307 287.088L302.707 292.464H305.227L307.627 287.064C308.011 286.2 308.347 285.288 308.347 285.288H308.395C308.395 285.288 308.347 286.56 308.371 287.376L308.803 294H311.731L310.627 281.76H307.219L304.579 288.072C304.315 288.768 303.979 289.632 303.979 289.632H303.931C303.931 289.632 303.619 288.744 303.331 288.072L300.739 281.76H297.283L296.179 294ZM319.463 294H322.031L325.007 289.608H327.047V294H329.375V281.856H324.527C321.959 281.856 320.183 283.176 320.183 285.672C320.183 287.52 321.431 288.816 322.823 289.2V289.224C322.823 289.224 322.535 289.536 322.271 289.968L319.463 294ZM325.031 287.904C323.615 287.904 322.535 287.16 322.535 285.648C322.535 284.088 323.543 283.464 325.103 283.464H327.047V287.904H325.031ZM331.792 292.512C332.8 293.472 334.384 294.288 336.256 294.288C338.752 294.288 340.912 293.016 340.912 290.52C340.912 288.96 339.952 288.048 338.728 287.664V287.616C339.688 287.208 340.504 286.368 340.504 284.856C340.504 282.696 338.704 281.568 336.4 281.568C334.48 281.568 333.112 282.192 332.176 282.888L333.04 284.448C333.976 283.752 334.936 283.392 335.992 283.392C337.336 283.392 338.152 284.016 338.152 285.144C338.152 286.368 337.216 286.896 335.848 286.896H334.576V288.576H336.064C337.768 288.576 338.56 289.248 338.56 290.424C338.56 291.744 337.432 292.416 336.04 292.416C334.576 292.416 333.424 291.552 332.872 290.976L331.792 292.512ZM354.718 294H357.046V281.856H354.718V294ZM343.726 294H348.406C351.454 294 352.846 292.44 352.846 290.16C352.846 287.4 350.95 286.248 348.43 286.248H346.054V281.856H343.726V294ZM346.054 292.32V287.928H348.07C349.75 287.928 350.494 288.84 350.494 290.136C350.494 291.408 349.774 292.32 348.094 292.32H346.054ZM360.648 294H362.976V288.744H364.728L368.352 294H371.112L366.576 287.688V287.64L370.632 281.856H367.992L364.68 286.752H362.976V281.856H360.648V294ZM371.879 287.928C371.879 291.528 374.519 294.288 378.335 294.288C380.015 294.288 381.863 293.64 383.039 292.56L382.055 290.856C381.095 291.72 379.775 292.272 378.479 292.272C376.295 292.272 374.423 290.856 374.303 288.24H383.135C383.183 287.904 383.231 287.568 383.231 287.256C383.231 284.136 381.407 281.568 377.975 281.568C374.519 281.568 371.879 284.064 371.879 287.928ZM374.375 286.56C374.711 284.544 376.127 283.368 377.927 283.368C379.511 283.368 380.807 284.472 380.879 286.56H374.375Z" fill="#505257"/>
<path d="M254.263 20.2642C253.471 19.4722 253.075 19.0762 252.926 18.6195C252.796 18.2178 252.796 17.7851 252.926 17.3834C253.075 16.9268 253.471 16.5308 254.263 15.7387L262.738 7.26309C263.53 6.47106 263.926 6.07504 264.383 5.92667C264.785 5.79615 265.217 5.79615 265.619 5.92667C266.076 6.07504 266.472 6.47106 267.264 7.26309L275.739 15.7387C276.532 16.5308 276.928 16.9268 277.076 17.3834C277.206 17.7851 277.206 18.2178 277.076 18.6195C276.928 19.0762 276.532 19.4722 275.739 20.2642L267.264 28.7398C266.472 29.5319 266.076 29.9279 265.619 30.0763C265.217 30.2068 264.785 30.2068 264.383 30.0763C263.926 29.9279 263.53 29.5319 262.738 28.7398L254.263 20.2642Z" fill="#F3F3F3"/>
<path d="M210 9.6C210 6.23969 210 4.55953 210.654 3.27606C211.229 2.14708 212.147 1.2292 213.276 0.653961C214.56 0 216.24 0 219.6 0H260.4C263.76 0 265.44 0 266.724 0.653961C267.853 1.2292 268.771 2.14708 269.346 3.27606C270 4.55953 270 6.23969 270 9.6V50.4C270 53.7603 270 55.4405 269.346 56.7239C268.771 57.8529 267.853 58.7708 266.724 59.346C265.44 60 263.76 60 260.4 60H219.6C216.24 60 214.56 60 213.276 59.346C212.147 58.7708 211.229 57.8529 210.654 56.7239C210 55.4405 210 53.7603 210 50.4V9.6Z" fill="#F3F3F3"/>
<path d="M229.721 36.9998H232.301V32.0998H235.201C237.861 32.0998 239.721 30.1798 239.721 27.4198C239.721 24.6598 237.861 22.7998 235.201 22.7998H229.721V36.9998ZM232.301 29.8598V25.0198H234.761C236.221 25.0198 237.101 25.9598 237.101 27.4198C237.101 28.8998 236.221 29.8598 234.721 29.8598H232.301Z" fill="#97999D"/>
<path d="M241.347 38.6398L240.507 40.5398C240.507 40.5398 241.407 41.1998 242.627 41.1998C244.127 41.1998 245.607 40.3998 246.307 38.5398L250.847 26.7998H248.087L246.087 32.7198C245.927 33.2598 245.747 34.0598 245.747 34.0598H245.707C245.707 34.0598 245.527 33.2198 245.327 32.6798L243.187 26.7998H240.327L244.627 36.8398L244.247 37.7398C243.867 38.6398 243.167 39.0598 242.467 39.0598C241.907 39.0598 241.347 38.6398 241.347 38.6398Z" fill="#97999D"/>
<path d="M247.263 81.2642C246.471 80.4722 246.075 80.0762 245.926 79.6195C245.796 79.2178 245.796 78.7851 245.926 78.3834C246.075 77.9268 246.471 77.5308 247.263 76.7387L255.738 68.2631C256.53 67.4711 256.926 67.075 257.383 66.9267C257.785 66.7961 258.217 66.7962 258.619 66.9267C259.076 67.075 259.472 67.4711 260.264 68.2631L268.739 76.7387C269.532 77.5308 269.928 77.9268 270.076 78.3834C270.206 78.7851 270.206 79.2178 270.076 79.6195C269.928 80.0762 269.532 80.4722 268.739 81.2642L260.264 89.7398C259.472 90.5319 259.076 90.9279 258.619 91.0763C258.217 91.2068 257.785 91.2068 257.383 91.0763C256.926 90.9279 256.53 90.5319 255.738 89.7398L247.263 81.2642Z" fill="#F04B5D"/>
<path d="M253 46.6005C253 43.2402 253 41.56 253.654 40.2765C254.229 39.1476 255.147 38.2297 256.276 37.6544C257.56 37.0005 259.24 37.0005 262.6 37.0005H303.4C306.76 37.0005 308.44 37.0005 309.724 37.6544C310.853 38.2297 311.771 39.1476 312.346 40.2765C313 41.56 313 43.2402 313 46.6005V87.4005C313 90.7608 313 92.441 312.346 93.7244C311.771 94.8534 310.853 95.7713 309.724 96.3465C308.44 97.0005 306.76 97.0005 303.4 97.0005H262.6C259.24 97.0005 257.56 97.0005 256.276 96.3465C255.147 95.7713 254.229 94.8534 253.654 93.7244C253 92.441 253 90.7608 253 87.4005V46.6005Z" fill="#F04B5D"/>
<path d="M272.721 74.0003H281.541V71.7803H275.301V67.9603H280.081V65.7403H275.301V62.0203H281.221V59.8003H272.721V74.0003Z" fill="white"/>
<path d="M283.63 74.0003H286.17V69.2203C286.17 67.3803 287.31 65.8803 289.11 65.8803C290.39 65.8803 290.71 66.7203 290.71 67.9603V74.0003H293.25V67.4403C293.25 64.7403 291.95 63.5603 289.69 63.5603C287.63 63.5603 286.49 64.8603 286.07 65.7203H286.03C286.03 65.7203 286.07 65.4003 286.07 65.0003V63.8003H283.63V74.0003Z" fill="white"/>
</svg>
