<svg width="251" height="163" viewBox="0 0 251 163" fill="none" xmlns="http://www.w3.org/2000/svg">
<g clip-path="url(#clip0)">
<path d="M142 91.4368V91.4386C141.99 101.974 145.09 112.278 150.911 121.059C156.731 129.84 165.014 136.707 174.721 140.799C184.427 144.891 195.125 146.026 205.474 144.062C215.822 142.098 225.361 137.122 232.894 129.758C240.427 122.394 245.619 112.97 247.82 102.667C250.02 92.3636 249.131 81.6399 245.263 71.8403C241.395 62.0406 234.721 53.601 226.078 47.5795C217.435 41.558 207.207 38.2225 196.676 37.9909C196.676 37.9909 196.676 37.9909 196.675 37.9909L196.168 37.9799C196.166 37.9799 196.164 37.9798 196.162 37.9798C195.934 37.9764 195.701 37.9764 195.449 37.9764C194.844 37.9764 194.238 37.9872 193.637 38.0088L193.63 38.009C192.3 38.0524 190.986 38.1439 189.687 38.2835L189.684 38.2838C188.945 38.3619 188.212 38.4582 187.471 38.5665C187.414 38.576 187.362 38.5837 187.328 38.5888L187.322 38.5897C187.273 38.5969 187.254 38.6 187.239 38.6026L187.22 38.6059L187.201 38.6088C184.147 39.0796 181.141 39.8178 178.216 40.8147C167.654 44.4177 158.482 51.2358 151.988 60.3137C145.493 69.3915 142.001 80.2742 142 91.4368Z" fill="#F04B5D" stroke="white" stroke-width="4"/>
<mask id="mask0" mask-type="alpha" maskUnits="userSpaceOnUse" x="140" y="2" width="111" height="146">
<path d="M140 91.4368C139.99 102.366 143.205 113.055 149.244 122.164C155.282 131.273 163.874 138.397 173.944 142.642C184.013 146.887 195.111 148.065 205.847 146.027C216.582 143.99 226.478 138.828 234.292 131.189C242.107 123.549 247.493 113.773 249.776 103.085C252.058 92.3965 251.135 81.2721 247.123 71.1062C243.111 60.9403 236.187 52.1853 227.221 45.9386C218.255 39.692 215.927 40.1709 210.917 36.591C224.406 29.5669 232.885 -5.0854 195.885 4.15511C195.885 4.15511 190.49 8.39019 189.719 10.3154C188.562 12.2405 194.19 35.9878 193.565 36.0103C192.186 36.0553 190.822 36.1502 189.474 36.2951C188.694 36.3775 187.926 36.4787 187.158 36.5911C187.072 36.6061 186.982 36.6174 186.896 36.6324C183.726 37.1211 180.606 37.8872 177.571 38.922C166.613 42.6598 157.099 49.7329 150.361 59.1501C143.624 68.5674 140.001 79.8569 140 91.4368Z" fill="#F04B5D"/>
</mask>
<g mask="url(#mask0)">
<path d="M171.723 141.634C171.723 141.634 164.801 187.679 179.223 202.832C193.645 217.986 213.259 244.797 213.259 244.797L227.104 227.312L191.914 189.427L198.837 163.782L227.104 150.377L222.489 118.321L180.953 117.738L171.723 141.634Z" fill="#2F2E41"/>
<path d="M205.906 35.3422C212.931 35.3422 218.625 29.826 218.625 23.0214C218.625 16.2168 212.931 10.7005 205.906 10.7005C198.882 10.7005 193.188 16.2168 193.188 23.0214C193.188 29.826 198.882 35.3422 205.906 35.3422Z" fill="#FFB8B8"/>
<path d="M194.711 26.1016C194.711 26.1016 194.14 44.0053 191.282 46.3155C188.423 48.6257 201.571 58.4439 201.571 58.4439L210.146 44.5829V31.877L194.711 26.1016Z" fill="#FFB8B8"/>
<path d="M200.795 49.9241L193.737 39.1925L189.75 44.6557L183.938 61.0466L188.588 124.853L215.908 125.438L219.396 52.2657L210.676 41.7289L200.795 49.9241Z" fill="#D0CDE1"/>
<path d="M230.686 53.6373L235.402 53.0535C235.402 53.0535 236.581 53.6373 237.17 57.7241C237.76 61.811 244.833 98.0085 244.833 98.0085L235.402 142.38L224.792 128.368L231.276 103.847L224.792 79.3259L230.686 53.6373Z" fill="#2F2E41"/>
<path d="M171.534 53.0535H168.03L159.271 100.267L167.446 136.989L175.621 123.583L173.286 109.011L174.454 96.1874L178.542 88.6095L171.534 53.0535Z" fill="#2F2E41"/>
<path d="M198.267 22.9528L200.592 22.3676C200.592 22.3676 202.336 12.4192 206.405 13.5896C210.474 14.76 220.938 15.9304 220.938 11.2488C220.938 6.5671 211.055 2.4707 205.242 3.05591C199.429 3.64111 189.547 5.39673 190.129 14.1748C190.71 22.9528 194.461 31.492 194.461 31.492L194.764 26.2875L198.267 22.9528Z" fill="#2F2E41"/>
<path d="M210.623 56.9037L200.896 50.1508L210.623 42.2727L214 46.2578L210.623 56.9037Z" fill="#D0CDE1"/>
<path d="M191.768 56.1337L200.896 49.9996L193.593 39.9626L189.333 44.9811L191.768 56.1337Z" fill="#D0CDE1"/>
<path d="M234.042 53.9971L215.66 46.4423L211.351 43.2461L198.427 101.069L189.81 74.918L192.395 41.5027L168.556 53.9971L176.598 93.5144L177.747 108.624L174.3 120.828C174.3 120.828 162.237 129.545 166.258 138.843C170.279 148.141 174.875 148.722 174.875 148.722C174.875 148.722 194.406 130.126 195.554 125.477C196.703 120.828 198.427 112.692 198.427 112.692C198.427 112.692 208.192 149.885 219.681 149.303C231.169 148.722 231.169 136.518 231.169 136.518L228.297 123.733L223.702 110.367L226 88.2841L234.042 53.9971Z" fill="#2F2E41"/>
</g>
<path d="M206.015 21.2981C206.015 21.2981 208.379 22.0271 210.047 21.4728C211.357 21.0373 212.275 19.7299 212.275 19.7299" stroke="#222224"/>
</g>
<path d="M180 90.5349V90.5383C180.002 101.714 176.648 112.63 170.374 121.866C164.101 131.101 155.2 138.228 144.831 142.317L144.819 142.322C144.014 142.646 143.19 142.949 142.361 143.23L142.352 143.233C141.426 143.551 140.49 143.843 139.544 144.109C138.884 144.293 138.217 144.466 137.545 144.628C127.424 147.06 116.828 146.606 106.951 143.32C106.18 143.062 105.412 142.784 104.645 142.493C103.623 142.098 102.614 141.675 101.625 141.222L101.582 141.202L101.537 141.184C101.535 141.184 101.527 141.18 101.508 141.172C101.488 141.162 101.465 141.151 101.425 141.133L101.416 141.128L101.408 141.124C101.017 140.944 100.642 140.765 100.261 140.576L99.8407 140.367H99.831C99.4444 140.175 99.0605 139.978 98.6793 139.775L98.6767 139.774C97.4845 139.143 96.3187 138.47 95.1794 137.756L95.1735 137.752C94.5864 137.387 94.008 137.008 93.4382 136.616L93.4316 136.611L93.4249 136.607C84.3791 130.483 77.336 121.818 73.1789 111.696C69.0218 101.575 67.9359 90.4485 70.0574 79.7109C72.179 68.9732 77.4134 59.1029 85.1041 51.3363C92.7948 43.5698 102.6 38.2523 113.29 36.0494L113.292 36.0489C114.268 35.8465 115.254 35.6714 116.251 35.5238L116.259 35.5227L116.266 35.5215C116.882 35.4254 117.51 35.3433 118.143 35.2719L118.149 35.2712C118.582 35.221 119.001 35.1758 119.419 35.1404H119.432L119.522 35.1321C120.753 35.0196 121.996 34.9495 123.252 34.9219C123.252 34.9219 123.252 34.9219 123.252 34.9219L123.772 34.9106C123.8 34.9105 123.826 34.9102 123.848 34.91L123.919 34.9091C123.938 34.9089 123.951 34.9089 123.961 34.909C123.97 34.909 123.974 34.9092 123.974 34.9092L124.012 34.9107H124.051H124.055H124.08L124.105 34.91C124.231 34.9069 124.361 34.9068 124.525 34.9068C125.153 34.9068 125.782 34.918 126.406 34.9405L126.413 34.9408C127.793 34.9859 129.157 35.0811 130.505 35.2263L130.508 35.2266C131.275 35.3079 132.036 35.4081 132.806 35.5208C132.864 35.5306 132.917 35.5386 132.953 35.5439L132.959 35.5449C133.009 35.5523 133.031 35.5556 133.047 35.5585L133.059 35.5605L133.07 35.5624L133.169 35.5783C133.403 35.6162 133.622 35.6518 133.838 35.69L133.854 35.6929L133.87 35.6955C134.393 35.7792 134.92 35.8786 135.458 35.9881L135.461 35.9886C135.969 36.0914 136.47 36.197 136.967 36.3095C138.806 36.7304 140.623 37.2478 142.408 37.8595C154.529 42.0145 164.849 50.2366 171.626 61.1388L171.631 61.1465C171.818 61.4457 172.003 61.7487 172.183 62.0556L172.192 62.0699L172.2 62.084C172.332 62.2998 172.46 62.5208 172.596 62.7594L172.614 62.7899L172.632 62.8199C172.659 62.8624 172.681 62.9026 172.701 62.9403L172.75 63.0339L172.784 63.0857L172.787 63.0911C172.795 63.1042 172.806 63.1245 172.82 63.1481C173.062 63.5725 173.3 64.0079 173.533 64.4481L173.534 64.4506C177.793 72.4808 180.014 81.4394 180 90.5349Z" fill="#F04B5D" stroke="white" stroke-width="4"/>
<path d="M155.685 69.954C155.685 69.954 169.026 58.1944 173.982 66.4141C178.938 74.6337 160.097 77.9612 159.008 77.5362C157.92 77.1112 155.685 69.954 155.685 69.954Z" fill="#A0616A"/>
<path d="M129.734 78.6759C129.734 78.6759 145.522 73.5278 148.215 71.4366C150.907 69.3455 153.387 67.8001 153.932 68.0126C154.476 68.2251 158.045 67.1046 158.045 67.1046L162.274 78.8111C162.274 78.8111 145.397 83.5343 144.973 84.6257C144.549 85.7172 129.734 78.6759 129.734 78.6759Z" fill="#575A89"/>
<path d="M138.012 146.572C127.528 149.092 116.551 148.622 106.319 145.217L107.018 138.59L107.667 132.398L117.395 117.317L120.513 112.484L133.364 117.169L134.672 125.444L136.758 138.64L138.012 146.572Z" fill="#2F2E41"/>
<path d="M145.565 144.178C144.723 144.517 143.864 144.832 143.002 145.124C142.039 145.455 141.066 145.759 140.082 146.035C139.398 146.226 138.708 146.405 138.012 146.573C127.528 149.092 116.551 148.622 106.319 145.217C105.515 144.949 104.719 144.661 103.931 144.361C104.038 146.667 103.968 148.978 103.721 151.273C102.599 148.583 101.622 145.835 100.793 143.041C100.735 142.854 100.68 142.667 100.626 142.48C100.354 141.538 100.113 140.638 99.8958 139.793C99.6473 138.816 99.4337 137.908 99.2551 137.079C98.5444 133.824 98.3192 131.81 98.3192 131.81L105.911 116.001L107.43 116.176L108.059 116.246L111.865 116.682L117.395 117.317L126.354 118.341L134.672 125.444L142.125 131.81C142.125 131.81 142.746 133.929 143.721 137.437C144.249 139.322 144.874 141.608 145.565 144.178Z" fill="#2F2E41"/>
<path d="M131.981 35.5083C139.4 35.5083 145.414 29.4778 145.414 22.0387C145.414 14.5997 139.4 8.56917 131.981 8.56917C124.562 8.56917 118.548 14.5997 118.548 22.0387C118.548 29.4778 124.562 35.5083 131.981 35.5083Z" fill="#FFB8B8"/>
<path d="M121.005 22.7163L113.975 37.797L133.713 51.5056C133.713 51.5056 131.39 35.1793 135.766 31.0449C140.143 26.9105 121.005 22.7163 121.005 22.7163Z" fill="#FFB8B8"/>
<path d="M136.283 52.7504C136.283 52.7504 126.939 33.4245 119.346 33.4245C111.753 33.4245 91.8957 46.8941 92.4798 49.8222C93.0638 52.7504 93.0638 53.336 93.0638 55.0929C93.0638 56.8498 88.9755 56.8499 92.4798 58.0211C95.984 59.1924 96.5681 60.3636 96.5681 60.3636L93.6479 135.325C93.6479 135.325 106.497 140.01 111.169 138.253C115.842 136.496 120.514 124.783 120.514 124.783C120.514 124.783 119.346 140.595 124.018 140.01C128.691 139.424 146.212 138.253 146.796 135.91C147.38 133.568 143.292 82.0321 143.292 82.0321L136.283 52.7504Z" fill="#575A89"/>
<path d="M103.721 151.273V151.28C103.123 156.471 101.309 161.732 96.5677 162.849C88.5134 164.75 91.6046 148.153 93.0571 141.818C93.3988 140.342 93.6473 139.423 93.6473 139.423L94.1172 139.45L99.8958 139.793L103.577 140.011C103.577 140.011 103.729 141.082 103.845 142.76C103.88 143.247 103.911 143.784 103.931 144.361C104.038 146.667 103.968 148.977 103.721 151.273Z" fill="#FFB8B8"/>
<path d="M105.913 48.0653L88.9755 91.4022C88.9755 91.4022 86.6393 96.0873 88.9755 99.6011C91.3117 103.115 87.8074 124.198 90.1436 128.883C92.4798 133.568 92.4798 141.767 92.4798 141.767L105.913 142.938L108.833 91.4022L124.018 58.6067C124.018 58.6067 122.85 45.1371 105.913 48.0653Z" fill="#575A89"/>
<path opacity="0.1" d="M110.293 46.6012C110.293 46.6012 99.7804 49.5294 96.2761 60.0708L110.293 46.6012Z" fill="black"/>
<path d="M123.178 28.1839C124.485 28.1057 125.761 28.5486 127.059 28.7214C131.702 29.3395 136.533 25.9609 137.558 21.3779C137.64 20.7676 137.822 20.1749 138.095 19.6235C138.81 18.4535 140.437 18.2304 141.779 18.4995C143.121 18.7685 144.393 19.3981 145.759 19.47C147.869 19.581 149.894 18.2787 151.018 16.4853C152.143 14.6918 152.461 12.485 152.309 10.3722L151.298 11.4365C150.887 10.5648 150.728 9.5948 150.84 8.63704C150.304 8.49392 149.74 8.49117 149.203 8.62903C148.666 8.7669 148.173 9.04076 147.771 9.42441C146.88 9.51958 147.553 7.7658 146.89 7.15972C146.613 6.90593 146.187 6.9538 145.812 6.95744C143.915 6.97578 142.38 5.52073 140.885 4.34942C138.294 2.32445 135.265 0.938992 132.042 0.305022C129.9 -0.113972 127.622 -0.181284 125.59 0.618617C123.922 1.27553 122.525 2.47199 121.233 3.71779C118.052 6.78463 115.236 10.3881 113.912 14.6091C112.837 18.0665 112.806 21.7659 113.825 25.2406C114.358 27.0451 115.965 33.2251 118.317 33.3691C121.273 33.5499 119.499 28.404 123.178 28.1839Z" fill="#2F2E41"/>
<path opacity="0.1" d="M124.133 71.263L110.377 91.4927L105.978 138.482L124.133 71.263Z" fill="black"/>
<path d="M160.593 81.081C160.205 80.8036 159.943 80.3832 159.864 79.9122C159.786 79.4412 159.897 78.9581 160.174 78.5694L175.819 56.5822C176.095 56.1935 176.515 55.9308 176.985 55.8521C177.454 55.7733 177.936 55.8849 178.324 56.1623L160.593 81.081L160.593 81.081Z" fill="#D0CDE1"/>
<path d="M161.235 83.2785L160.33 82.6309C160.016 82.4064 159.804 82.0661 159.74 81.6849C159.677 81.3037 159.767 80.9128 159.991 80.5981L177.804 55.564C177.993 55.2983 178.279 55.1188 178.6 55.065C178.921 55.0112 179.251 55.0874 179.516 55.277L180.605 56.0563L161.235 83.2785L161.235 83.2785Z" fill="#2F2E41"/>
<path d="M174.435 62.0702L174.853 62.369L176.045 60.6938L175.627 60.395L174.435 62.0702Z" fill="#D0CDE1"/>
<path d="M139.057 22.6555C139.057 22.6555 139.759 23.4098 141.432 23.9495C142.746 24.3736 144.259 23.8622 144.259 23.8622" stroke="#222224"/>
<g clip-path="url(#clip1)">
<path d="M2.00003 91.4368V91.4386C1.9901 101.974 5.08984 112.278 10.9106 121.059C16.7314 129.84 25.0142 136.707 34.7205 140.799C44.4269 144.891 55.1249 146.026 65.4736 144.062C75.8222 142.098 85.361 137.122 92.8941 129.758C100.427 122.394 105.619 112.97 107.82 102.667C110.02 92.3636 109.131 81.6399 105.263 71.8403C101.395 62.0406 94.7211 53.601 86.0777 47.5795C77.4345 41.558 67.2065 38.2225 56.6759 37.9909C56.6758 37.9909 56.6756 37.9909 56.6754 37.9909L56.1683 37.9799C56.1662 37.9799 56.1641 37.9798 56.162 37.9798C55.9345 37.9764 55.7007 37.9764 55.4493 37.9764C54.8436 37.9764 54.2381 37.9872 53.6366 38.0088L53.63 38.009C52.3 38.0524 50.9858 38.1439 49.6871 38.2835L49.6839 38.2838C48.9454 38.3619 48.2122 38.4582 47.4705 38.5665C47.4142 38.576 47.3621 38.5837 47.3278 38.5888L47.3217 38.5897C47.2733 38.5969 47.2536 38.6 47.2386 38.6026L47.2197 38.6059L47.2007 38.6088C44.1471 39.0796 41.1408 39.8178 38.2164 40.8147C27.6535 44.4177 18.4823 51.2358 11.9878 60.3137C5.49325 69.3915 2.00086 80.2742 2.00003 91.4368Z" fill="#F04B5D" stroke="white" stroke-width="4"/>
<path d="M97.8776 94.4304C97.7679 94.2571 98.0535 93.8795 98.5154 93.5869C98.9773 93.2944 99.4407 93.1976 99.5504 93.3709C99.6601 93.5442 99.3746 93.9218 98.9126 94.2144C98.4507 94.5069 97.9873 94.6037 97.8776 94.4304Z" fill="#3F3D56"/>
<path d="M99.4983 91.2064C99.2525 90.8181 98.8625 90.5434 98.4142 90.4427C97.9659 90.342 97.4959 90.4236 97.1077 90.6694L75.1523 104.575C74.7641 104.821 74.4895 105.211 74.3888 105.66C74.2881 106.108 74.3697 106.578 74.6155 106.966L99.4983 91.2064Z" fill="#D0CDE1"/>
<path d="M101.575 91.942L100.884 90.851C100.717 90.5857 100.45 90.3979 100.144 90.3291C99.8373 90.2603 99.5162 90.3161 99.2509 90.4841L74.2529 106.317C74.0973 106.416 73.9627 106.544 73.8566 106.695C73.7506 106.845 73.6753 107.015 73.6349 107.195C73.5946 107.374 73.59 107.56 73.6215 107.742C73.653 107.923 73.7199 108.097 73.8184 108.252L74.3924 109.159L101.575 91.942Z" fill="#2F2E41"/>
<path d="M97.8533 92.5414L98.1181 92.9597L96.4453 94.0192L96.1805 93.6009L97.8533 92.5414Z" fill="#D0CDE1"/>
<path d="M95.5532 93.9981L95.8181 94.4164L94.1453 95.4759L93.8804 95.0576L95.5532 93.9981Z" fill="#D0CDE1"/>
<path d="M62.4197 43.1845C53.8012 43.1845 46.8145 36.1964 46.8145 27.5762C46.8145 18.956 53.8012 11.9679 62.4197 11.9679C71.0382 11.9679 78.0248 18.956 78.0248 27.5762C78.0248 36.1964 71.0382 43.1845 62.4197 43.1845Z" fill="#FFB8B8"/>
<path d="M67.0575 29.0613C67.0575 29.0613 69.0264 30.5591 70.783 30.6123C72.1631 30.6542 73.4742 29.7422 73.4742 29.7422" stroke="#222224"/>
<path d="M61.4681 38.6161C61.4681 38.6161 53.8558 50.6079 55.7589 54.0341C57.662 57.4603 63.5615 66.7872 63.5615 66.7872C63.5615 66.7872 37.2991 47.372 40.7246 43.1844C40.7246 43.1844 48.5272 36.5223 48.9078 32.3348L61.4681 38.6161Z" fill="#FFB8B8"/>
<path d="M40.4405 144.843C53.1011 148.38 66.6041 147.325 78.5619 141.864L77.363 109.825L77.2731 107.333L77.2393 106.523L77.1981 105.332L77.1681 104.571C77.1681 104.571 77.1195 104.567 77.0258 104.563C76.771 104.545 76.1828 104.504 75.3399 104.455C74.362 104.399 73.0469 104.327 71.5146 104.264C71.1512 104.249 70.7765 104.234 70.3906 104.215C62.3205 103.915 49.717 103.851 48.0498 106.283L47.84 107.715L47.5028 110.027L46.8134 114.752C46.8134 114.752 38.9756 130.341 40.4405 144.843Z" fill="#2F2E41"/>
<path d="M26.071 62.5998L39.5524 92.4325L45.4063 105.384L47.5758 110.186L78.9764 109.805L75.7412 87.9156C80.3085 76.1143 69.461 71.3556 69.461 71.3556L60.3263 61.6195V63.1708C60.3263 63.1708 51.3819 52.5115 47.3854 46.4205C43.389 40.3294 37.8701 42.6136 37.8701 42.6136C28.3547 41.6618 26.071 62.5998 26.071 62.5998Z" fill="#575A89"/>
<path opacity="0.2" d="M39.5523 92.4325L45.4062 105.384C47.2864 101.866 48.7175 97.882 48.7175 95.5294C48.7175 89.0576 42.2471 92.4838 42.2471 92.4838C42.2471 92.4838 47.4805 63.837 47.4805 55.2714C47.4805 49.582 42.7381 74.8313 39.5523 92.4325Z" fill="black"/>
<path d="M44.7211 94.5775L73.0769 94.0065C73.0769 94.0065 93.8203 95.7196 90.7754 104.095C87.7305 112.47 71.1738 104.095 71.1738 104.095L38.0604 109.234L44.7211 94.5775Z" fill="#FFB8B8"/>
<path d="M39.3925 44.1363C39.3925 44.1363 49.2885 44.8977 49.2885 53.4632C49.2885 62.0287 40.344 92.4839 40.344 92.4839C40.344 92.4839 46.8145 89.0577 46.8145 95.5294C46.8145 102.001 35.967 120.845 34.8251 108.283C34.8251 108.283 18.4587 116.277 19.4103 101.24C20.3618 86.2025 30.6384 54.4149 30.6384 54.4149C30.6384 54.4149 31.7802 43.5652 39.3925 44.1363Z" fill="#575A89"/>
<path d="M61.9006 25.8785C62.9934 24.8207 62.9732 23.0367 63.8539 21.7966C65.2369 19.8494 68.1164 19.9799 70.4807 20.3161C72.0522 20.5396 73.6468 20.7695 75.1052 21.3909C75.7579 21.6595 76.3393 22.0761 76.8036 22.6078C77.2678 23.1396 77.6022 23.7719 77.7804 24.455C77.9656 25.222 78.3739 23.0456 78.7894 20.2267C79.2151 17.3506 78.717 14.4135 77.3668 11.8387C76.0165 9.26386 73.8839 7.18423 71.2762 5.89945C71.2452 5.88422 71.2145 5.8692 71.184 5.85439C68.5098 4.55458 65.7082 3.40665 62.7525 3.08409C59.7968 2.76153 56.6428 3.34555 54.3246 5.20775C53.2651 6.05886 52.4033 7.15149 51.2674 7.89754C49.2716 9.20835 46.7443 9.27183 44.3728 9.54817C41.6907 9.8607 39.0024 10.517 36.687 11.9065C34.3715 13.296 32.4532 15.4881 31.8095 18.111C31.0585 21.1706 32.2841 24.7874 35.2916 26.1151C35.8168 26.3361 36.2825 26.6779 36.6509 27.1127C39.1206 30.1324 35.1337 31.7846 34.5555 34.413C34.073 36.6062 36.1817 38.5919 38.3442 39.1958C42.3718 40.3206 47.0601 38.0802 48.7158 34.2396C49.4576 32.5191 49.6264 30.6158 49.8282 28.7531C50.0592 26.6208 55.6507 22.7589 51.8759 25.6639C51.1434 26.2126 50.5664 26.9426 50.2016 27.782C49.0533 30.5315 51.4365 32.0921 52.7148 34.0551C53.4106 35.1592 53.783 36.4362 53.79 37.7413C53.797 39.0464 53.4382 40.3273 52.7542 41.4388C56.0676 39.7073 57.7435 35.3671 56.4539 31.8575C56.1112 30.9246 55.5916 30.0621 55.2801 29.1183C54.7941 27.6456 55.2236 24.7836 57.3969 25.3638C58.9481 25.7779 60.2738 27.4531 61.9006 25.8785Z" fill="#2F2E41"/>
</g>
<defs>
<clipPath id="clip0">
<rect width="111" height="144" transform="matrix(-1 0 0 1 251 3)" fill="white"/>
</clipPath>
<clipPath id="clip1">
<rect width="111" height="144" transform="matrix(-1 0 0 1 111 3)" fill="white"/>
</clipPath>
</defs>
</svg>
