<svg width="217" height="107" viewBox="0 0 217 107" fill="none" xmlns="http://www.w3.org/2000/svg">
<path d="M2.4 23H30.72V0.119999H25.12V18.232H19.36V0.119999H13.76V18.232H8V0.119999H2.4V23ZM34.7935 23H40.3295V16.952H42.0575L45.5455 23H51.8495L46.3455 14.424V14.36L51.1775 6.52H45.1615L41.8975 12.312H40.3295V6.52H34.7935V23ZM52.0843 14.808C52.0843 19.96 56.2443 23.384 61.4283 23.384C66.6123 23.384 70.7723 19.96 70.7723 14.808C70.7723 9.624 66.6123 6.136 61.3963 6.136C56.2443 6.136 52.0843 9.624 52.0843 14.808ZM57.6843 14.808C57.6843 12.312 59.4123 10.744 61.4283 10.744C63.4443 10.744 65.1723 12.312 65.1723 14.808C65.1723 17.272 63.4443 18.776 61.4283 18.776C59.4123 18.776 57.6843 17.272 57.6843 14.808ZM71.8588 23.16C78.2588 23.16 80.1788 18.552 80.1788 11.832V10.904H82.9308V23H88.4668V6.52H74.9628V11.8C74.9628 17.464 73.3307 18.136 71.8588 18.328V23.16ZM92.1685 23H100.393C105.001 23 106.921 20.728 106.921 17.368C106.921 14.04 105.001 11.672 100.393 11.672H97.7045V6.52H92.1685V23ZM97.7045 19.384V15.256H99.2725C100.681 15.256 101.385 16.184 101.385 17.336C101.385 18.488 100.681 19.384 99.3685 19.384H97.7045ZM109.356 23H114.892V16.984H119.98V23H125.516V6.52H119.98V12.344H114.892V6.52H109.356V23ZM129.231 23H134.607L139.183 15.768C139.439 15.32 139.791 14.808 140.079 14.136H140.143C140.079 14.776 140.079 15.416 140.079 15.8V23H145.295V6.52H139.919L135.343 13.784C135.055 14.264 134.735 14.744 134.447 15.416H134.383C134.415 15 134.447 14.36 134.447 13.784V6.52H129.231V23ZM149.012 23H154.548V16.952H156.276L159.764 23H166.068L160.564 14.424V14.36L165.396 6.52H159.38L156.116 12.312H154.548V6.52H149.012V23ZM166.61 18.36C166.61 21.208 168.818 23.384 171.986 23.384C173.874 23.384 175.794 22.52 176.882 20.984H176.946C176.946 20.984 176.882 21.464 176.882 22.008V23H181.938V12.856C181.938 8.664 179.122 6.136 174.578 6.136C171.89 6.136 169.01 7.192 167.602 8.28L169.522 12.184C170.834 11.32 172.466 10.616 174.066 10.616C175.282 10.616 176.402 11.064 176.402 12.44V12.728H175.922C171.858 12.728 166.61 13.944 166.61 18.36ZM172.082 17.848C172.082 16.344 174.258 15.896 175.954 15.896H176.466V16.344C176.466 17.688 175.25 19.256 173.65 19.256C172.626 19.256 172.082 18.616 172.082 17.848ZM184.746 23H190.026L190.41 15.416C190.474 14.136 190.378 12.6 190.378 12.6H190.442C190.442 12.6 191.05 13.976 191.402 15.032L193.578 20.792H198.058L200.234 15.032C200.65 14.008 201.13 12.6 201.13 12.6H201.194C201.194 12.6 201.13 14.136 201.162 15.416L201.546 23H206.858L205.29 6.52H198.922L196.49 13.752C196.202 14.584 195.818 15.672 195.818 15.672H195.786C195.786 15.672 195.434 14.584 195.146 13.752L192.714 6.52H186.314L184.746 23ZM208.352 26.552H212.416L216.032 17.688H210.752L208.352 26.552ZM0.928 52.744C0.928 57.288 4.224 61.384 10.112 61.384C12.864 61.384 15.552 60.328 17.184 58.664L15.168 54.792C13.984 55.816 12.256 56.776 10.656 56.776C7.872 56.776 6.528 54.632 6.528 52.68C6.528 50.728 7.84 48.744 10.464 48.744C11.904 48.744 13.376 49.416 14.336 50.344L16.672 46.632C15.04 44.872 12.416 44.136 10.112 44.136C4.192 44.136 0.928 48.328 0.928 52.744ZM23.1283 61H28.6643V49.16H33.6883V44.52H18.1363V49.16H23.1283V61ZM36.1723 62.504L34.4123 66.568C34.4123 66.568 36.0763 67.72 38.2523 67.72C40.8763 67.72 43.7563 66.44 45.1323 62.76L51.8843 44.52H45.8363L43.7563 52.2C43.5323 53.096 43.2123 54.664 43.2123 54.664H43.1483C43.1483 54.664 42.8283 53 42.5403 52.104L40.1083 44.52H33.8362L40.8443 60.68L40.5243 61.448C39.9483 62.856 38.7643 63.112 37.8683 63.112C37.0683 63.112 36.1723 62.504 36.1723 62.504ZM58.9048 56.616C60.0568 54.408 60.3767 52.008 60.3767 49.512V48.904H63.2248V56.616H58.9048ZM51.4168 56.616V64.84H56.5368V61H66.2008V64.84H71.1288V56.616H68.7608V44.52H55.1608V48.488C55.1608 51.816 54.5528 54.76 53.4648 56.616H51.4168ZM72.553 52.744C72.553 57.128 75.721 61.384 81.609 61.384C84.137 61.384 86.857 60.52 88.649 58.984L86.601 55.112C85.257 56.008 83.689 56.776 82.057 56.776C80.297 56.776 78.633 55.848 78.217 53.832H88.617C88.681 53.256 88.745 52.68 88.745 52.104C88.745 47.528 85.993 44.136 81.129 44.136C75.817 44.136 72.553 47.912 72.553 52.744ZM78.345 50.664C78.633 49.352 79.401 48.2 81.001 48.2C82.409 48.2 83.273 49.32 83.273 50.664H78.345ZM91.6373 61H97.1733V54.984H102.261V61H107.797V44.52H102.261V50.344H97.1733V44.52H91.6373V61ZM115.128 61H120.664V49.16H125.688V44.52H110.136V49.16H115.128V61ZM126.641 56.36C126.641 59.208 128.849 61.384 132.017 61.384C133.905 61.384 135.825 60.52 136.913 58.984H136.977C136.977 58.984 136.913 59.464 136.913 60.008V61H141.969V50.856C141.969 46.664 139.153 44.136 134.609 44.136C131.921 44.136 129.041 45.192 127.633 46.28L129.553 50.184C130.865 49.32 132.497 48.616 134.097 48.616C135.313 48.616 136.433 49.064 136.433 50.44V50.728H135.953C131.889 50.728 126.641 51.944 126.641 56.36ZM132.113 55.848C132.113 54.344 134.289 53.896 135.985 53.896H136.497V54.344C136.497 55.688 135.281 57.256 133.681 57.256C132.657 57.256 132.113 56.616 132.113 55.848ZM144.777 61H150.057L150.441 53.416C150.505 52.136 150.409 50.6 150.409 50.6H150.473C150.473 50.6 151.081 51.976 151.433 53.032L153.609 58.792H158.089L160.265 53.032C160.681 52.008 161.161 50.6 161.161 50.6H161.225C161.225 50.6 161.161 52.136 161.193 53.416L161.577 61H166.889L165.321 44.52H158.953L156.521 51.752C156.233 52.584 155.849 53.672 155.849 53.672H155.817C155.817 53.672 155.465 52.584 155.177 51.752L152.745 44.52H146.345L144.777 61ZM1.856 100H7.232L11.808 92.768C12.064 92.32 12.416 91.808 12.704 91.136H12.768C12.704 91.776 12.704 92.416 12.704 92.8V100H17.92V83.52H12.544L7.968 90.784C7.68 91.264 7.36 91.744 7.072 92.416H7.008C7.04 92 7.072 91.36 7.072 90.784V83.52H1.856V100ZM29.6373 100H38.6293C41.8933 100 44.9013 98.72 44.9013 95.104C44.9013 93.664 44.1973 92.032 42.3093 91.456V91.424C43.5573 90.688 44.2292 89.216 44.2292 87.84C44.2292 84.992 41.9253 83.52 38.6293 83.52H29.6373V100ZM35.1733 90.016V86.944H37.1892C38.2773 86.944 38.7253 87.616 38.7253 88.384C38.7253 89.248 38.2773 90.016 37.2533 90.016H35.1733ZM35.1733 96.544V93.248H37.6373C38.8213 93.248 39.3653 94.016 39.3653 94.912C39.3653 95.744 38.7893 96.544 37.6053 96.544H35.1733ZM46.3863 97.952C48.1783 99.552 50.8343 100.384 53.2663 100.384C57.1703 100.384 60.0823 98.624 60.0823 95.136C60.0823 93.216 58.7703 92.064 57.5223 91.488V91.424C58.5143 90.88 59.5703 89.76 59.5703 87.712C59.5703 84.864 56.8823 83.136 53.4903 83.136C50.4823 83.136 48.3703 83.936 46.8343 84.992L48.4343 88.416C50.1623 87.392 51.4423 87.168 52.3383 87.168C53.7463 87.168 54.0663 87.776 54.0663 88.48C54.0663 89.504 53.2663 89.76 52.4023 89.76H50.7383V93.408H52.7543C54.2583 93.408 54.5463 93.984 54.5463 94.784C54.5463 95.552 54.0983 96.224 52.5623 96.224C51.2503 96.224 49.6183 95.424 48.5943 94.496L46.3863 97.952ZM62.8873 106.4H68.4233V100.224C68.4233 99.392 68.3593 98.816 68.3593 98.816H68.4233C69.6073 99.84 71.0793 100.384 72.6153 100.384C76.9993 100.384 80.2953 96.992 80.2953 91.776C80.2953 86.656 77.3513 83.136 72.8713 83.136C70.8873 83.136 68.9993 83.904 67.8793 85.408H67.8153C67.8153 85.408 67.8793 84.896 67.8793 84.352V83.52H62.8873V106.4ZM68.2633 91.872C68.2633 89.024 69.8313 87.808 71.4953 87.808C73.4153 87.808 74.7273 89.408 74.7273 91.872C74.7273 94.4 73.2233 95.808 71.4953 95.808C69.3193 95.808 68.2633 93.856 68.2633 91.872ZM82.2093 91.808C82.2093 96.96 86.3693 100.384 91.5533 100.384C96.7373 100.384 100.897 96.96 100.897 91.808C100.897 86.624 96.7373 83.136 91.5213 83.136C86.3693 83.136 82.2093 86.624 82.2093 91.808ZM87.8093 91.808C87.8093 89.312 89.5373 87.744 91.5533 87.744C93.5693 87.744 95.2973 89.312 95.2973 91.808C95.2973 94.272 93.5693 95.776 91.5533 95.776C89.5373 95.776 87.8093 94.272 87.8093 91.808ZM102.741 91.744C102.741 96.288 106.036 100.384 111.925 100.384C114.677 100.384 117.365 99.328 118.997 97.664L116.981 93.792C115.797 94.816 114.069 95.776 112.469 95.776C109.685 95.776 108.341 93.632 108.341 91.68C108.341 89.728 109.653 87.744 112.277 87.744C113.717 87.744 115.189 88.416 116.149 89.344L118.485 85.632C116.853 83.872 114.229 83.136 111.925 83.136C106.005 83.136 102.741 87.328 102.741 91.744ZM120.109 100.16C126.509 100.16 128.429 95.552 128.429 88.832V87.904H131.181V100H136.717V83.52H123.213V88.8C123.213 94.464 121.581 95.136 120.109 95.328V100.16ZM156.867 100H162.403V83.52H156.867V100ZM140.419 100H148.451C153.059 100 154.979 97.728 154.979 94.368C154.979 91.04 153.059 88.672 148.451 88.672H145.955V83.52H140.419V100ZM145.955 96.384V92.256H147.331C148.739 92.256 149.443 93.184 149.443 94.336C149.443 95.488 148.739 96.384 147.427 96.384H145.955ZM165.402 100H170.682L171.066 92.416C171.13 91.136 171.034 89.6 171.034 89.6H171.098C171.098 89.6 171.706 90.976 172.058 92.032L174.234 97.792H178.714L180.89 92.032C181.306 91.008 181.786 89.6 181.786 89.6H181.85C181.85 89.6 181.786 91.136 181.818 92.416L182.202 100H187.514L185.946 83.52H179.578L177.146 90.752C176.858 91.584 176.474 92.672 176.474 92.672H176.442C176.442 92.672 176.09 91.584 175.802 90.752L173.37 83.52H166.97L165.402 100ZM190.544 88.768H195.792V83.52H190.544V88.768ZM190.544 100H195.792V94.752H190.544V100Z" fill="#6FCF97"/>
</svg>
