<svg width="335" height="114" viewBox="0 0 335 114" fill="none" xmlns="http://www.w3.org/2000/svg">
<path d="M21.674 60H23.456V48.84H29.9V60H31.682V47.292H21.674V60ZM33.9396 55.428C33.9396 58.2 36.1356 60.216 38.8536 60.216C41.5536 60.216 43.7496 58.2 43.7496 55.428C43.7496 52.674 41.5536 50.676 38.8356 50.676C36.1356 50.676 33.9396 52.674 33.9396 55.428ZM35.7216 55.428C35.7216 53.538 37.1256 52.188 38.8536 52.188C40.5636 52.188 41.9856 53.538 41.9856 55.428C41.9856 57.336 40.5636 58.704 38.8536 58.704C37.1256 58.704 35.7216 57.336 35.7216 55.428ZM47.4074 58.56C48.5594 56.76 48.7034 54.168 48.7034 52.8V52.314H51.4394V58.56H47.4074ZM44.4914 58.56V62.16H46.1294V60H52.8794V62.16H54.4814V58.56H53.1854V50.892H47.0294V52.566C47.0294 53.97 46.8854 56.814 45.6074 58.56H44.4914ZM56.3129 60H58.0589V52.386H62.0189V50.892H56.3129V60ZM62.8205 55.428C62.8205 58.2 65.0165 60.216 67.7345 60.216C70.4345 60.216 72.6305 58.2 72.6305 55.428C72.6305 52.674 70.4345 50.676 67.7165 50.676C65.0165 50.676 62.8205 52.674 62.8205 55.428ZM64.6025 55.428C64.6025 53.538 66.0065 52.188 67.7345 52.188C69.4445 52.188 70.8665 53.538 70.8665 55.428C70.8665 57.336 69.4445 58.704 67.7345 58.704C66.0065 58.704 64.6025 57.336 64.6025 55.428ZM76.6319 60H78.3599V52.386H81.5459V50.892H73.4639V52.386H76.6319V60ZM82.3673 55.428C82.3673 58.2 84.5633 60.216 87.2813 60.216C89.9813 60.216 92.1773 58.2 92.1773 55.428C92.1773 52.674 89.9813 50.676 87.2633 50.676C84.5633 50.676 82.3673 52.674 82.3673 55.428ZM84.1493 55.428C84.1493 53.538 85.5533 52.188 87.2813 52.188C88.9913 52.188 90.4133 53.538 90.4133 55.428C90.4133 57.336 88.9913 58.704 87.2813 58.704C85.5533 58.704 84.1493 57.336 84.1493 55.428ZM94.2816 60H98.1696C100.15 60 101.518 59.1 101.518 57.408C101.518 56.4 100.924 55.518 99.7896 55.248V55.23C100.618 54.87 101.086 54.114 101.086 53.232C101.086 51.702 99.8796 50.892 98.0436 50.892H94.2816V60ZM96.0276 54.744V52.098H97.6836C98.7816 52.098 99.3036 52.53 99.3036 53.358C99.3036 54.204 98.7816 54.744 97.7376 54.744H96.0276ZM96.0276 58.776V55.914H97.8816C99.0876 55.914 99.7536 56.454 99.7536 57.354C99.7536 58.2 99.1596 58.776 97.8996 58.776H96.0276ZM103.633 60H105.379V56.058H106.693L109.411 60H111.481L108.079 55.266V55.23L111.121 50.892H109.141L106.657 54.564H105.379V50.892H103.633V60ZM112.194 57.516C112.194 59.226 113.652 60.216 115.236 60.216C116.586 60.216 117.702 59.406 118.224 58.362H118.26C118.26 58.362 118.206 58.668 118.206 59.082V60H119.844V54.24C119.844 51.936 118.53 50.676 116.244 50.676C114.966 50.676 113.58 51.144 112.842 51.756L113.544 53.034C114.282 52.512 115.2 52.152 116.1 52.152C117.234 52.152 118.098 52.656 118.098 54.15V54.33H117.63C115.74 54.33 112.194 54.654 112.194 57.516ZM113.94 57.372C113.94 55.698 116.352 55.59 117.648 55.59H118.098V55.932C118.098 57.282 117.18 58.83 115.65 58.83C114.516 58.83 113.94 58.092 113.94 57.372ZM126.924 60H128.67V56.058H129.984L132.702 60H134.772L131.37 55.266V55.23L134.412 50.892H132.432L129.948 54.564H128.67V50.892H126.924V60ZM140.019 58.848C140.973 59.766 142.323 60.216 143.637 60.216C146.499 60.216 148.497 58.182 148.497 55.446C148.497 52.746 146.517 50.676 143.673 50.676C142.395 50.676 141.009 51.09 140.199 51.954L140.991 53.16C141.693 52.494 142.611 52.098 143.619 52.098C145.239 52.098 146.553 53.16 146.787 54.816H142.431V56.076H146.787C146.553 57.678 145.257 58.776 143.565 58.776C142.575 58.776 141.495 58.416 140.703 57.606L140.019 58.848ZM150.62 60H152.366V56.058H153.68L156.398 60H158.468L155.066 55.266V55.23L158.108 50.892H156.128L153.644 54.564H152.366V50.892H150.62V60ZM159.142 58.884C159.898 59.604 161.086 60.216 162.49 60.216C164.362 60.216 165.982 59.262 165.982 57.39C165.982 56.22 165.262 55.536 164.344 55.248V55.212C165.064 54.906 165.676 54.276 165.676 53.142C165.676 51.522 164.326 50.676 162.598 50.676C161.158 50.676 160.132 51.144 159.43 51.666L160.078 52.836C160.78 52.314 161.5 52.044 162.292 52.044C163.3 52.044 163.912 52.512 163.912 53.358C163.912 54.276 163.21 54.672 162.184 54.672H161.23V55.932H162.346C163.624 55.932 164.218 56.436 164.218 57.318C164.218 58.308 163.372 58.812 162.328 58.812C161.23 58.812 160.366 58.164 159.952 57.732L159.142 58.884ZM167.336 57.516C167.336 59.226 168.794 60.216 170.378 60.216C171.728 60.216 172.844 59.406 173.366 58.362H173.402C173.402 58.362 173.348 58.668 173.348 59.082V60H174.986V54.24C174.986 51.936 173.672 50.676 171.386 50.676C170.108 50.676 168.722 51.144 167.984 51.756L168.686 53.034C169.424 52.512 170.342 52.152 171.242 52.152C172.376 52.152 173.24 52.656 173.24 54.15V54.33H172.772C170.882 54.33 167.336 54.654 167.336 57.516ZM169.082 57.372C169.082 55.698 171.494 55.59 172.79 55.59H173.24V55.932C173.24 57.282 172.322 58.83 170.792 58.83C169.658 58.83 169.082 58.092 169.082 57.372ZM177.189 60H178.881L179.277 54.582C179.313 54.042 179.259 53.016 179.259 53.016H179.295C179.295 53.016 179.583 53.7 179.871 54.366L182.031 58.902H183.525L185.685 54.348C186.027 53.646 186.261 53.016 186.261 53.016H186.297C186.297 53.016 186.261 54.042 186.279 54.582L186.675 60H188.367L187.575 50.892H185.667L183.291 56.04C183.057 56.598 182.787 57.264 182.787 57.264H182.751C182.751 57.264 182.499 56.58 182.247 56.04L179.925 50.892H177.981L177.189 60ZM190.121 55.446C190.121 58.146 192.101 60.216 194.963 60.216C196.223 60.216 197.609 59.73 198.491 58.92L197.753 57.642C197.033 58.29 196.043 58.704 195.071 58.704C193.433 58.704 192.029 57.642 191.939 55.68H198.563C198.599 55.428 198.635 55.176 198.635 54.942C198.635 52.602 197.267 50.676 194.693 50.676C192.101 50.676 190.121 52.548 190.121 55.446ZM191.993 54.42C192.245 52.908 193.307 52.026 194.657 52.026C195.845 52.026 196.817 52.854 196.871 54.42H191.993ZM200.735 60H202.481V56.094H207.089V60H208.835V50.892H207.089V54.6H202.481V50.892H200.735V60ZM210.772 57.516C210.772 59.226 212.23 60.216 213.814 60.216C215.164 60.216 216.28 59.406 216.802 58.362H216.838C216.838 58.362 216.784 58.668 216.784 59.082V60H218.422V54.24C218.422 51.936 217.108 50.676 214.822 50.676C213.544 50.676 212.158 51.144 211.42 51.756L212.122 53.034C212.86 52.512 213.778 52.152 214.678 52.152C215.812 52.152 216.676 52.656 216.676 54.15V54.33H216.208C214.318 54.33 210.772 54.654 210.772 57.516ZM212.518 57.372C212.518 55.698 214.93 55.59 216.226 55.59H216.676V55.932C216.676 57.282 215.758 58.83 214.228 58.83C213.094 58.83 212.518 58.092 212.518 57.372ZM220.624 60H222.316L222.712 54.582C222.748 54.042 222.694 53.016 222.694 53.016H222.73C222.73 53.016 223.018 53.7 223.306 54.366L225.466 58.902H226.96L229.12 54.348C229.462 53.646 229.696 53.016 229.696 53.016H229.732C229.732 53.016 229.696 54.042 229.714 54.582L230.11 60H231.802L231.01 50.892H229.102L226.726 56.04C226.492 56.598 226.222 57.264 226.222 57.264H226.186C226.186 57.264 225.934 56.58 225.682 56.04L223.36 50.892H221.416L220.624 60Z" fill="#222224"/>
<path d="M21.674 17H23.456V5.84H29.9V17H31.682V4.292H21.674V17ZM33.9396 12.428C33.9396 15.2 36.1356 17.216 38.8536 17.216C41.5536 17.216 43.7496 15.2 43.7496 12.428C43.7496 9.674 41.5536 7.676 38.8356 7.676C36.1356 7.676 33.9396 9.674 33.9396 12.428ZM35.7216 12.428C35.7216 10.538 37.1256 9.188 38.8536 9.188C40.5636 9.188 41.9856 10.538 41.9856 12.428C41.9856 14.336 40.5636 15.704 38.8536 15.704C37.1256 15.704 35.7216 14.336 35.7216 12.428ZM45.8539 17H49.7419C51.7219 17 53.0899 16.1 53.0899 14.408C53.0899 13.4 52.4959 12.518 51.3619 12.248V12.23C52.1899 11.87 52.6579 11.114 52.6579 10.232C52.6579 8.702 51.4519 7.892 49.6159 7.892H45.8539V17ZM47.5999 11.744V9.098H49.2559C50.3539 9.098 50.8759 9.53 50.8759 10.358C50.8759 11.204 50.3539 11.744 49.3099 11.744H47.5999ZM47.5999 15.776V12.914H49.4539C50.6599 12.914 51.3259 13.454 51.3259 14.354C51.3259 15.2 50.7319 15.776 49.4719 15.776H47.5999ZM63.4495 17H65.1955V7.892H63.4495V17ZM55.2055 17H58.7155C61.0015 17 62.0455 15.83 62.0455 14.12C62.0455 12.05 60.6235 11.186 58.7335 11.186H56.9515V7.892H55.2055V17ZM56.9515 15.74V12.446H58.4635C59.7235 12.446 60.2815 13.13 60.2815 14.102C60.2815 15.056 59.7415 15.74 58.4815 15.74H56.9515ZM67.8969 17H79.6689V7.892H77.9949V15.488H74.6289V7.892H72.9369V15.488H69.5709V7.892H67.8969V17ZM81.7697 12.446C81.7697 15.146 83.7497 17.216 86.6117 17.216C87.8717 17.216 89.2577 16.73 90.1397 15.92L89.4017 14.642C88.6817 15.29 87.6917 15.704 86.7197 15.704C85.0817 15.704 83.6777 14.642 83.5877 12.68H90.2117C90.2477 12.428 90.2837 12.176 90.2837 11.942C90.2837 9.602 88.9157 7.676 86.3417 7.676C83.7497 7.676 81.7697 9.548 81.7697 12.446ZM83.6417 11.42C83.8937 9.908 84.9557 9.026 86.3057 9.026C87.4937 9.026 88.4657 9.854 88.5197 11.42H83.6417ZM92.3832 17H94.1292V13.094H98.7372V17H100.483V7.892H98.7372V11.6H94.1292V7.892H92.3832V17ZM103.176 17H104.85L108.792 11.564C109.08 11.132 109.53 10.52 109.584 10.358H109.62C109.62 10.502 109.566 11.132 109.566 11.564V17H111.258V7.892H109.566L105.642 13.328C105.336 13.76 104.904 14.39 104.832 14.552H104.796C104.814 14.462 104.85 13.814 104.85 13.328V7.892H103.176V17ZM113.34 12.446C113.34 15.146 115.32 17.216 118.182 17.216C119.442 17.216 120.828 16.73 121.71 15.92L120.972 14.642C120.252 15.29 119.262 15.704 118.29 15.704C116.652 15.704 115.248 14.642 115.158 12.68H121.782C121.818 12.428 121.854 12.176 121.854 11.942C121.854 9.602 120.486 7.676 117.912 7.676C115.32 7.676 113.34 9.548 113.34 12.446ZM115.212 11.42C115.464 9.908 116.526 9.026 117.876 9.026C119.064 9.026 120.036 9.854 120.09 11.42H115.212ZM128.004 18.89L127.392 20.222C127.392 20.222 128.13 20.78 129.138 20.78C130.416 20.78 131.55 20.06 132.09 18.638L136.374 7.892H134.484L132.27 13.868C132.108 14.336 131.964 14.948 131.964 14.948H131.928C131.928 14.948 131.766 14.3 131.586 13.85L129.3 7.892H127.338L131.154 16.892L130.704 17.936C130.362 18.764 129.768 19.286 129.048 19.286C128.508 19.286 128.004 18.89 128.004 18.89ZM137.176 12.446C137.176 15.182 139.174 17.216 142.054 17.216C143.476 17.216 144.862 16.64 145.69 15.758L144.988 14.48C144.286 15.218 143.188 15.704 142.18 15.704C140.29 15.704 138.958 14.282 138.958 12.428C138.958 10.574 140.29 9.188 142.126 9.188C143.08 9.188 144.034 9.62 144.646 10.232L145.474 9.008C144.61 8.09 143.26 7.676 142.054 7.676C139.192 7.676 137.176 9.746 137.176 12.446ZM147.579 17H149.325V9.386H153.789V17H155.535V7.892H147.579V17ZM157.637 12.446C157.637 15.146 159.617 17.216 162.479 17.216C163.739 17.216 165.125 16.73 166.007 15.92L165.269 14.642C164.549 15.29 163.559 15.704 162.587 15.704C160.949 15.704 159.545 14.642 159.455 12.68H166.079C166.115 12.428 166.151 12.176 166.151 11.942C166.151 9.602 164.783 7.676 162.209 7.676C159.617 7.676 157.637 9.548 157.637 12.446ZM159.509 11.42C159.761 9.908 160.823 9.026 162.173 9.026C163.361 9.026 164.333 9.854 164.387 11.42H159.509ZM168.25 17H172.138C174.118 17 175.486 16.1 175.486 14.408C175.486 13.4 174.892 12.518 173.758 12.248V12.23C174.586 11.87 175.054 11.114 175.054 10.232C175.054 8.702 173.848 7.892 172.012 7.892H168.25V17ZM169.996 11.744V9.098H171.652C172.75 9.098 173.272 9.53 173.272 10.358C173.272 11.204 172.75 11.744 171.706 11.744H169.996ZM169.996 15.776V12.914H171.85C173.056 12.914 173.722 13.454 173.722 14.354C173.722 15.2 173.128 15.776 171.868 15.776H169.996ZM176.846 14.516C176.846 16.226 178.304 17.216 179.888 17.216C181.238 17.216 182.354 16.406 182.876 15.362H182.912C182.912 15.362 182.858 15.668 182.858 16.082V17H184.496V11.24C184.496 8.936 183.182 7.676 180.896 7.676C179.618 7.676 178.232 8.144 177.494 8.756L178.196 10.034C178.934 9.512 179.852 9.152 180.752 9.152C181.886 9.152 182.75 9.656 182.75 11.15V11.33H182.282C180.392 11.33 176.846 11.654 176.846 14.516ZM178.592 14.372C178.592 12.698 181.004 12.59 182.3 12.59H182.75V12.932C182.75 14.282 181.832 15.83 180.302 15.83C179.168 15.83 178.592 15.092 178.592 14.372ZM186.483 12.446C186.483 15.146 188.463 17.216 191.325 17.216C192.585 17.216 193.971 16.73 194.853 15.92L194.115 14.642C193.395 15.29 192.405 15.704 191.433 15.704C189.795 15.704 188.391 14.642 188.301 12.68H194.925C194.961 12.428 194.997 12.176 194.997 11.942C194.997 9.602 193.629 7.676 191.055 7.676C188.463 7.676 186.483 9.548 186.483 12.446ZM188.355 11.42C188.607 9.908 189.669 9.026 191.019 9.026C192.207 9.026 193.179 9.854 193.233 11.42H188.355ZM196.718 17H198.41L198.806 11.582C198.842 11.042 198.788 10.016 198.788 10.016H198.824C198.824 10.016 199.112 10.7 199.4 11.366L201.56 15.902H203.054L205.214 11.348C205.556 10.646 205.79 10.016 205.79 10.016H205.826C205.826 10.016 205.79 11.042 205.808 11.582L206.204 17H207.896L207.104 7.892H205.196L202.82 13.04C202.586 13.598 202.316 14.264 202.316 14.264H202.28C202.28 14.264 202.028 13.58 201.776 13.04L199.454 7.892H197.51L196.718 17ZM209.651 12.428C209.651 15.2 211.847 17.216 214.565 17.216C217.265 17.216 219.461 15.2 219.461 12.428C219.461 9.674 217.265 7.676 214.547 7.676C211.847 7.676 209.651 9.674 209.651 12.428ZM211.433 12.428C211.433 10.538 212.837 9.188 214.565 9.188C216.275 9.188 217.697 10.538 217.697 12.428C217.697 14.336 216.275 15.704 214.565 15.704C212.837 15.704 211.433 14.336 211.433 12.428ZM220.971 12.446C220.971 15.182 222.969 17.216 225.849 17.216C227.271 17.216 228.657 16.64 229.485 15.758L228.783 14.48C228.081 15.218 226.983 15.704 225.975 15.704C224.085 15.704 222.753 14.282 222.753 12.428C222.753 10.574 224.085 9.188 225.921 9.188C226.875 9.188 227.829 9.62 228.441 10.232L229.269 9.008C228.405 8.09 227.055 7.676 225.849 7.676C222.987 7.676 220.971 9.746 220.971 12.446ZM233.569 17H235.297V9.386H238.483V7.892H230.401V9.386H233.569V17ZM240.198 17H241.872L245.814 11.564C246.102 11.132 246.552 10.52 246.606 10.358H246.642C246.642 10.502 246.588 11.132 246.588 11.564V17H248.28V7.892H246.588L242.664 13.328C242.358 13.76 241.926 14.39 241.854 14.552H241.818C241.836 14.462 241.872 13.814 241.872 13.328V7.892H240.198V17Z" fill="#222224"/>
<circle cx="4" cy="12" r="4" fill="#F04B5D"/>
<circle cx="4" cy="55" r="4" fill="#F04B5D"/>
<circle cx="4" cy="98" r="4" fill="#F04B5D"/>
<path d="M23.258 101.452C24.752 99.166 25.058 95.8 25.058 93.01V91.84H29.036V101.452H23.258ZM20.108 101.452V105.52H21.764V103H30.62V105.52H32.222V101.452H30.818V90.292H23.384V92.902C23.384 95.674 23.15 98.968 21.386 101.452H20.108ZM33.3151 103.09C35.9971 102.946 37.0411 100.822 37.0411 96.7V95.332H39.7231V103H41.4691V93.892H35.3671V96.7C35.3671 99.994 34.6471 101.326 33.3151 101.524V103.09ZM43.2484 103H45.1744L47.4064 99.706H48.9364V103H50.6824V93.892H47.0464C45.1204 93.892 43.7884 94.882 43.7884 96.754C43.7884 98.14 44.7244 99.112 45.7684 99.4V99.418C45.7684 99.418 45.5524 99.652 45.3544 99.976L43.2484 103ZM47.4244 98.428C46.3624 98.428 45.5524 97.87 45.5524 96.736C45.5524 95.566 46.3084 95.098 47.4784 95.098H48.9364V98.428H47.4244ZM57.8773 106.6H59.6233V102.46C59.6233 101.992 59.5513 101.668 59.5513 101.668H59.5873C60.2173 102.64 61.2613 103.216 62.4133 103.216C64.8073 103.216 66.5353 101.344 66.5353 98.446C66.5353 95.62 65.0053 93.676 62.5393 93.676C61.2073 93.676 60.0553 94.288 59.4793 95.386H59.4433C59.4433 95.386 59.4973 95.08 59.4973 94.702V93.892H57.8773V106.6ZM59.5693 98.482C59.5693 96.178 60.8293 95.206 62.1973 95.206C63.7093 95.206 64.7713 96.484 64.7713 98.464C64.7713 100.534 63.5833 101.704 62.1433 101.704C60.4693 101.704 59.5693 100.102 59.5693 98.482ZM67.9319 100.516C67.9319 102.226 69.3899 103.216 70.9739 103.216C72.3239 103.216 73.4399 102.406 73.9619 101.362H73.9979C73.9979 101.362 73.9439 101.668 73.9439 102.082V103H75.5819V97.24C75.5819 94.936 74.2679 93.676 71.9819 93.676C70.7039 93.676 69.3179 94.144 68.5799 94.756L69.2819 96.034C70.0199 95.512 70.9379 95.152 71.8379 95.152C72.9719 95.152 73.8359 95.656 73.8359 97.15V97.33H73.3679C71.4779 97.33 67.9319 97.654 67.9319 100.516ZM69.6779 100.372C69.6779 98.698 72.0899 98.59 73.3859 98.59H73.8359V98.932C73.8359 100.282 72.9179 101.83 71.3879 101.83C70.2539 101.83 69.6779 101.092 69.6779 100.372ZM77.7665 97.762C77.7665 100.912 79.1525 103.216 82.2305 103.216C84.8045 103.216 86.5325 101.416 86.5325 98.896C86.5325 96.322 84.9485 94.702 82.6625 94.702C81.4565 94.702 80.2505 95.098 79.4405 96.322H79.4045C79.5305 94.576 80.3945 93.514 82.2125 92.686L85.7045 91.228L85.1285 89.788L81.8705 91.192C78.7025 92.524 77.7665 94.504 77.7665 97.762ZM79.5845 98.896C79.5845 97.294 80.6825 96.088 82.2305 96.088C83.5985 96.088 84.7685 97.15 84.7685 98.932C84.7685 100.696 83.5985 101.74 82.1585 101.74C80.7545 101.74 79.5845 100.696 79.5845 98.896ZM88.1154 98.428C88.1154 101.2 90.3114 103.216 93.0294 103.216C95.7294 103.216 97.9254 101.2 97.9254 98.428C97.9254 95.674 95.7294 93.676 93.0114 93.676C90.3114 93.676 88.1154 95.674 88.1154 98.428ZM89.8974 98.428C89.8974 96.538 91.3014 95.188 93.0294 95.188C94.7394 95.188 96.1614 96.538 96.1614 98.428C96.1614 100.336 94.7394 101.704 93.0294 101.704C91.3014 101.704 89.8974 100.336 89.8974 98.428ZM101.927 103H103.655V95.386H106.841V93.892H98.7589V95.386H101.927V103ZM116.799 103H118.545V93.892H116.799V103ZM108.555 103H112.065C114.351 103 115.395 101.83 115.395 100.12C115.395 98.05 113.973 97.186 112.083 97.186H110.301V93.892H108.555V103ZM110.301 101.74V98.446H111.813C113.073 98.446 113.631 99.13 113.631 100.102C113.631 101.056 113.091 101.74 111.831 101.74H110.301Z" fill="#222224"/>
</svg>
